ply
format ascii 1.0
element vertex 314
property float x
property float y
property float z
element face 576
property list uchar int vertex_indices
property uchar red
property uchar green
property uchar blue
end_header
-7.23468160629272461 -2.69874048233032227 -0.526725649833679199
-7.16282987594604492 -2.67986178398132324 -0.474111616611480713
-7.18699979782104492 -2.62899994850158691 -0.533999979496002197
-7.17600011825561523 -2.66300010681152344 -0.537000000476837158
-7.1810002326965332 -2.67199993133544922 -0.472000002861022949
-7.19099998474121094 -2.62700009346008301 -0.5
-7.17336082458496094 -2.60685968399047852 -0.541864156723022461
-7.16200017929077148 -2.61299991607666016 -0.513999998569488525
-7.18599987030029297 -2.69099998474121094 -0.501999974250793457
-7.16499996185302734 -2.67600011825561523 -0.486000001430511475
-7.2099299430847168 -2.65876102447509766 -0.547453403472900391
-7.26200008392333984 -2.73799991607666016 -0.510999977588653564
-7.2630000114440918 -2.72000002861022949 -0.472499996423721313
-7.27192592620849609 -2.70897436141967773 -0.488994032144546509
-7.19799995422363281 -2.69899988174438477 -0.479000002145767212
-7.20800018310546875 -2.6679999828338623 -0.479000002145767212
-7.20642232894897461 -2.70755553245544434 -0.480204492807388306
-7.21636009216308594 -2.65789937973022461 -0.485146433115005493
-7.21199989318847656 -2.65000009536743164 -0.479000002145767212
-7.19799995422363281 -2.64599990844726562 -0.479000002145767212
-7.18800020217895508 -2.68199992179870605 -0.512000024318695068
-7.15999984741210938 -2.67199993133544922 -0.446000009775161743
-7.21450042724609375 -2.6595001220703125 -0.53600001335144043
-7.15103435516357422 -2.61303496360778809 -0.516036033630371094
-7.17100000381469727 -2.64400005340576172 -0.46399998664855957
-7.13899993896484375 -2.63000011444091797 -0.541999995708465576
-7.22107124328613281 -2.66847658157348633 -0.550823748111724854
-7.23000001907348633 -2.68000006675720215 -0.490999996662139893
-7.20749998092651367 -2.65549993515014648 -0.541000008583068848
-7.19550037384033203 -2.65450000762939453 -0.547999978065490723
-7.17399978637695312 -2.64700007438659668 -0.472000002861022949
-7.17700004577636719 -2.67600011825561523 -0.521000027656555176
-7.19600009918212891 -2.63499999046325684 -0.522000014781951904
-7.16300010681152344 -2.62800002098083496 -0.561999976634979248
-7.19000005722045898 -2.6530001163482666 -0.460000008344650269
-7.19999980926513672 -2.64700007438659668 -0.529999971389770508
-7.14900016784667969 -2.61599993705749512 -0.490000009536743164
-7.16400003433227539 -2.61999988555908203 -0.493999987840652466
-7.17100000381469727 -2.67600011825561523 -0.458999991416931152
-7.13600015640258789 -2.61599993705749512 -0.508000016212463379
-7.19999980926513672 -2.6380000114440918 -0.482999980449676514
-7.19499969482421875 -2.62349987030029297 -0.495999991893768311
-7.15704870223999023 -2.65388727188110352 -0.489268958568572998
-7.25699996948242188 -2.68400001525878906 -0.528999984264373779
-7.21999979019165039 -2.66000008583068848 -0.486999988555908203
-7.15000009536743164 -2.63299989700317383 -0.555999994277954102
-7.20599985122680664 -2.6940000057220459 -0.477999985218048096
-7.18699979782104492 -2.68700003623962402 -0.501999974250793457
-7.14900016784667969 -2.61800003051757812 -0.501999974250793457
-7.15700006484985352 -2.64299988746643066 -0.479000002145767212
-7.2220001220703125 -2.72000002861022949 -0.476000010967254639
-7.17199993133544922 -2.61100006103515625 -0.532999992370605469
-7.14499998092651367 -2.63499999046325684 -0.503999948501586914
-7.15289545059204102 -2.63010716438293457 -0.535288572311401367
-7.16001415252685547 -2.65200376510620117 -0.528003513813018799
-7.14750003814697266 -2.63299989700317383 -0.490999996662139893
-7.24599981307983398 -2.67899990081787109 -0.518999993801116943
-7.22700023651123047 -2.72399997711181641 -0.505999982357025146
-7.24300003051757812 -2.70000004768371582 -0.522000014781951904
-7.24800014495849609 -2.68499994277954102 -0.509000003337860107
-7.22900009155273438 -2.69099998474121094 -0.476000010967254639
-7.2630000114440918 -2.70399999618530273 -0.476000010967254639
-7.21400022506713867 -2.72699999809265137 -0.472999989986419678
-7.22399997711181641 -2.66100001335144043 -0.522000014781951904
-7.20200014114379883 -2.67100000381469727 -0.476000010967254639
-7.19999980926513672 -2.69950008392333984 -0.502499997615814209
-7.21299982070922852 -2.67100000381469727 -0.541999995708465576
-7.25800037384033203 -2.6940000057220459 -0.486999988555908203
-7.25397682189941406 -2.69152593612670898 -0.47899925708770752
-7.24900007247924805 -2.71799993515014648 -0.455000013113021851
-7.243499755859375 -2.72950005531311035 -0.489000022411346436
-7.2220001220703125 -2.71099996566772461 -0.513000011444091797
-7.25099992752075195 -2.69000005722045898 -0.501999974250793457
-7.23899984359741211 -2.68199992179870605 -0.477999985218048096
-7.24200010299682617 -2.69000005722045898 -0.479000002145767212
-7.2369999885559082 -2.69199991226196289 -0.470999985933303833
-7.23095512390136719 -2.69509243965148926 -0.465072512626647949
-7.17797327041625977 -2.6209869384765625 -0.513987958431243896
-7.19799995422363281 -2.69300007820129395 -0.503000020980834961
-7.19649982452392578 -2.66499996185302734 -0.457499980926513672
-7.20280075073242188 -2.66393399238586426 -0.551759779453277588
-7.1793060302734375 -2.65819668769836426 -0.449201643466949463
-7.19299983978271484 -2.64899992942810059 -0.462000012397766113
-7.17000007629394531 -2.65199995040893555 -0.537999987602233887
-7.14499998092651367 -2.64499998092651367 -0.523000001907348633
-7.13600015640258789 -2.63700008392333984 -0.546999990940093994
-7.15000009536743164 -2.66000008583068848 -0.518000006675720215
-7.18970251083374023 -2.61051321029663086 -0.519746243953704834
-7.2369999885559082 -2.73099994659423828 -0.462000012397766113
-7.24399995803833008 -2.71900010108947754 -0.449999988079071045
-7.23600006103515625 -2.72000002861022949 -0.453000009059906006
-7.2350001335144043 -2.73000001907348633 -0.456000000238418579
-7.24399995803833008 -2.73000001907348633 -0.449000000953674316
-7.23899984359741211 -2.7369999885559082 -0.456999987363815308
-7.2666621208190918 -2.67872381210327148 -0.525839507579803467
-7.23099994659423828 -2.67799997329711914 -0.509999990463256836
-7.20499992370605469 -2.70000004768371582 -0.470999985933303833
-7.20800018310546875 -2.7070000171661377 -0.472000002861022949
-7.26100015640258789 -2.72499990463256836 -0.493000000715255737
-7.26304149627685547 -2.70201253890991211 -0.484309166669845581
-7.19199991226196289 -2.6940000057220459 -0.493000000715255737
-7.21600008010864258 -2.72399997711181641 -0.47999998927116394
-7.14674997329711914 -2.65024995803833008 -0.503250002861022949
-7.20439386367797852 -2.64074826240539551 -0.521966278553009033
-7.17492818832397461 -2.60527515411376953 -0.552069246768951416
-7.14699983596801758 -2.64200019836425781 -0.501999974250793457
-7.2369999885559082 -2.68499994277954102 -0.481999993324279785
-7.20300006866455078 -2.67199993133544922 -0.547999978065490723
-7.13700008392333984 -2.63199996948242188 -0.551999986171722412
-7.17000007629394531 -2.67600011825561523 -0.5
-7.15500020980834961 -2.63000011444091797 -0.523999989032745361
-7.17300748825073242 -2.64003133773803711 -0.481925368309020996
-7.1432499885559082 -2.65599989891052246 -0.513249993324279785
-7.1529998779296875 -2.61599993705749512 -0.52499997615814209
-7.15799999237060547 -2.64100003242492676 -0.469999998807907104
-7.17799997329711914 -2.67199993133544922 -0.509999990463256836
-7.1659998893737793 -2.62899994850158691 -0.550000011920928955
-7.18300008773803711 -2.67700004577636719 -0.514999985694885254
-7.16300010681152344 -2.6659998893737793 -0.508000016212463379
-7.17500019073486328 -2.64400005340576172 -0.554000020027160645
-7.1659998893737793 -2.65599989891052246 -0.465999990701675415
-7.20200014114379883 -2.62700009346008301 -0.509000003337860107
-7.14699983596801758 -2.62599992752075195 -0.488999992609024048
-7.18825006484985352 -2.63199996948242188 -0.487749993801116943
-7.19099998474121094 -2.64299988746643066 -0.549000024795532227
-7.16575002670288086 -2.65700006484985352 -0.526000022888183594
-7.14099979400634766 -2.64299988746643066 -0.527999997138977051
-7.20349979400634766 -2.6399998664855957 -0.487500011920928955
-7.1380000114440918 -2.64400005340576172 -0.520500004291534424
-7.26000022888183594 -2.68499994277954102 -0.513000011444091797
-7.24149990081787109 -2.72699999809265137 -0.496500015258789062
-7.23199987411499023 -2.6809999942779541 -0.476999998092651367
-7.22299432754516602 -2.70811057090759277 -0.474997997283935547
-7.26100015640258789 -2.72499990463256836 -0.476999998092651367
-7.24200010299682617 -2.68000006675720215 -0.529999971389770508
-7.23400020599365234 -2.67600011825561523 -0.522500038146972656
-7.19600009918212891 -2.69899988174438477 -0.490000009536743164
-7.20820808410644531 -2.7092130184173584 -0.496867179870605469
-7.22211647033691406 -2.66620707511901855 -0.506762504577636719
-7.19849967956542969 -2.63050007820129395 -0.516499996185302734
-7.18200016021728516 -2.66899991035461426 -0.546000003814697266
-7.13899993896484375 -2.64599990844726562 -0.509999990463256836
-7.14799976348876953 -2.63400006294250488 -0.546000003814697266
-7.20800018310546875 -2.64299988746643066 -0.490999996662139893
-7.13700008392333984 -2.6380000114440918 -0.527000010013580322
-7.17299985885620117 -2.6679999828338623 -0.458999991416931152
-7.25299978256225586 -2.73099994659423828 -0.504000008106231689
-7.25899982452392578 -2.70300006866455078 -0.50700002908706665
-7.25099992752075195 -2.69000005722045898 -0.522000014781951904
-7.22100019454956055 -2.7219998836517334 -0.467000007629394531
-7.25500011444091797 -2.72000002861022949 -0.456000000238418579
-7.25199985504150391 -2.73200011253356934 -0.477999985218048096
-7.2580409049987793 -2.73943805694580078 -0.48565906286239624
-7.25699996948242188 -2.72699999809265137 -0.493000000715255737
-7.26611995697021484 -2.73036742210388184 -0.511646687984466553
-7.2630000114440918 -2.7090001106262207 -0.497000008821487427
-7.20800018310546875 -2.64800000190734863 -0.513999998569488525
-7.13825035095214844 -2.65050005912780762 -0.519500017166137695
-7.17350006103515625 -2.6315000057220459 -0.564499974250793457
-7.16699981689453125 -2.61700010299682617 -0.537999987602233887
-7.26000022888183594 -2.70000004768371582 -0.50700002908706665
-7.18079233169555664 -2.6593935489654541 -0.55398935079574585
-7.24300003051757812 -2.73000001907348633 -0.505999982357025146
-7.25474977493286133 -2.72600007057189941 -0.513999998569488525
-7.25699996948242188 -2.70099997520446777 -0.512000024318695068
-7.2630000114440918 -2.69499993324279785 -0.508000016212463379
-7.23000001907348633 -2.6940000057220459 -0.472000002861022949
-7.25500011444091797 -2.69300007820129395 -0.518999993801116943
-7.21600008010864258 -2.68300008773803711 -0.488999992609024048
-7.21899986267089844 -2.6940000057220459 -0.479000002145767212
-7.23000001907348633 -2.68000006675720215 -0.501999974250793457
-7.25049972534179688 -2.7284998893737793 -0.51250004768371582
-7.15399980545043945 -2.66899991035461426 -0.476000010967254639
-7.14078998565673828 -2.62644457817077637 -0.512593984603881836
-7.14203548431396484 -2.62102079391479492 -0.505052506923675537
-7.21099996566772461 -2.7024998664855957 -0.510499954223632812
-7.1659998893737793 -2.61599993705749512 -0.561999976634979248
-7.25500011444091797 -2.70399999618530273 -0.474000006914138794
-7.20800018310546875 -2.72099995613098145 -0.470999985933303833
-7.18699979782104492 -2.65100002288818359 -0.474000006914138794
-7.21125030517578125 -2.69274997711181641 -0.53275001049041748
-7.18200016021728516 -2.65000009536743164 -0.470999985933303833
-7.17899990081787109 -2.64800000190734863 -0.460999995470046997
-7.16099977493286133 -2.67700004577636719 -0.493999987840652466
-7.15792703628540039 -2.63355159759521484 -0.477374106645584106
-7.15899991989135742 -2.64899992942810059 -0.470999985933303833
-7.15700006484985352 -2.66199994087219238 -0.497000008821487427
-7.15313339233398438 -2.62069296836853027 -0.485500216484069824
-7.15373611450195312 -2.64386391639709473 -0.549684643745422363
-7.16499996185302734 -2.63199996948242188 -0.569000005722045898
-7.13600015640258789 -2.65000009536743164 -0.509000003337860107
-7.18800020217895508 -2.68199992179870605 -0.518000006675720215
-7.16057109832763672 -2.64698910713195801 -0.481344670057296753
-7.15050029754638672 -2.63350009918212891 -0.485000014305114746
-7.21925020217895508 -2.6875 -0.535000026226043701
-7.14499998092651367 -2.64100003242492676 -0.486999988555908203
-7.23999977111816406 -2.73099994659423828 -0.46399998664855957
-7.18599987030029297 -2.67700004577636719 -0.481999993324279785
-7.21199989318847656 -2.65100002288818359 -0.500999987125396729
-7.18900012969970703 -2.65400004386901855 -0.55699998140335083
-7.18300008773803711 -2.60599994659423828 -0.540000021457672119
-7.1380000114440918 -2.6119999885559082 -0.504000008106231689
-7.17700004577636719 -2.65199995040893555 -0.449000000953674316
-7.14099979400634766 -2.62100005149841309 -0.485000014305114746
-7.20800018310546875 -2.68199992179870605 -0.535000026226043701
-7.17549991607666016 -2.65750002861022949 -0.449999988079071045
-7.17884349822998047 -2.62948369979858398 -0.546797692775726318
-7.16699981689453125 -2.6530001163482666 -0.460000008344650269
-7.16300010681152344 -2.63700008392333984 -0.467000007629394531
-7.1399998664855957 -2.63599991798400879 -0.541999995708465576
-7.14392328262329102 -2.63503360748291016 -0.509832322597503662
-7.18499994277954102 -2.61400008201599121 -0.527999997138977051
-7.21299982070922852 -2.71700000762939453 -0.490999996662139893
-7.22800016403198242 -2.72000002861022949 -0.500999987125396729
-7.2608494758605957 -2.71502280235290527 -0.465951025485992432
-7.26624965667724609 -2.71899986267089844 -0.490999996662139893
-7.23899984359741211 -2.68799996376037598 -0.504000008106231689
-7.26884126663208008 -2.71166634559631348 -0.475844681262969971
-7.22900009155273438 -2.71600008010864258 -0.46799999475479126
-7.24599981307983398 -2.67300009727478027 -0.513999998569488525
-7.20399999618530273 -2.70600008964538574 -0.477999985218048096
-7.21400022506713867 -2.70600008964538574 -0.510999977588653564
-7.20803546905517578 -2.65501213073730469 -0.517997324466705322
-7.19899988174438477 -2.68400001525878906 -0.529999971389770508
-7.18949985504150391 -2.64099979400634766 -0.482999980449676514
-7.16499996185302734 -2.64800000190734863 -0.546000003814697266
-7.25 -2.68600010871887207 -0.488999992609024048
-7.18168783187866211 -2.61061263084411621 -0.521420300006866455
-7.16699981689453125 -2.6184999942779541 -0.490999996662139893
-7.17000007629394531 -2.61999988555908203 -0.493000000715255737
-7.16200017929077148 -2.61299991607666016 -0.521000027656555176
-7.15099382400512695 -2.63860201835632324 -0.555337309837341309
-7.25699996948242188 -2.72300004959106445 -0.458999991416931152
-7.17199993133544922 -2.64899992942810059 -0.460000008344650269
-7.16374969482421875 -2.61800003051757812 -0.509500026702880859
-7.18777322769165039 -2.60828208923339844 -0.545001983642578125
-7.18850040435791016 -2.62349987030029297 -0.49449998140335083
-7.19700002670288086 -2.69000005722045898 -0.52499997615814209
-7.21099996566772461 -2.68400001525878906 -0.48399999737739563
-7.20653295516967773 -2.70844173431396484 -0.503048479557037354
-7.21924972534179688 -2.71150016784667969 -0.513249993324279785
-7.24100017547607422 -2.71799993515014648 -0.456000000238418579
-7.25199985504150391 -2.67700004577636719 -0.513000011444091797
-7.23050022125244141 -2.7154998779296875 -0.513000011444091797
-7.25199985504150391 -2.71700000762939453 -0.453999996185302734
-7.24900007247924805 -2.72399997711181641 -0.449000000953674316
-7.24599981307983398 -2.71499991416931152 -0.465000003576278687
-7.25099992752075195 -2.73000001907348633 -0.46799999475479126
-7.2090001106262207 -2.64199995994567871 -0.505999982357025146
-7.20301723480224609 -2.63183760643005371 -0.499374330043792725
-7.16099977493286133 -2.6659998893737793 -0.446999996900558472
-7.18900012969970703 -2.63400006294250488 -0.537999987602233887
-7.17100000381469727 -2.66700005531311035 -0.449999988079071045
-7.1939997673034668 -2.6380000114440918 -0.532999992370605469
-7.20399999618530273 -2.64899992942810059 -0.527000010013580322
-7.17100000381469727 -2.62450003623962402 -0.563499987125396729
-7.22399997711181641 -2.71600008010864258 -0.497999995946884155
-7.16099977493286133 -2.66499996185302734 -0.45199999213218689
-7.16200017929077148 -2.6659998893737793 -0.465000003576278687
-7.17799997329711914 -2.63100004196166992 -0.557000041007995605
-7.17000007629394531 -2.65100002288818359 -0.455000013113021851
-7.17299985885620117 -2.61649990081787109 -0.555000007152557373
-7.22800016403198242 -2.6679999828338623 -0.551999986171722412
-7.14699983596801758 -2.66100001335144043 -0.519999980926513672
-7.19447898864746094 -2.62607812881469727 -0.513398289680480957
-7.16132879257202148 -2.6687624454498291 -0.486067652702331543
-7.18800020217895508 -2.68499994277954102 -0.481999993324279785
-7.19899988174438477 -2.70000004768371582 -0.498000025749206543
-7.15799999237060547 -2.66400003433227539 -0.505999982357025146
-7.15600013732910156 -2.61500000953674316 -0.509000003337860107
-7.16099977493286133 -2.67499995231628418 -0.47999998927116394
-7.15472555160522461 -2.64518404006958008 -0.541940629482269287
-7.22399997711181641 -2.6809999942779541 -0.542999982833862305
-7.17199993133544922 -2.67600011825561523 -0.477999985218048096
-7.23899984359741211 -2.68700003623962402 -0.53600001335144043
-7.23999977111816406 -2.72049999237060547 -0.517000019550323486
-7.25717306137084961 -2.71242570877075195 -0.508087038993835449
-7.26200008392333984 -2.71050000190734863 -0.501000046730041504
-7.25299978256225586 -2.69499993324279785 -0.495999991893768311
-7.25500011444091797 -2.68600010871887207 -0.483000010251998901
-7.25199985504150391 -2.69899988174438477 -0.479000002145767212
-7.24100017547607422 -2.70600008964538574 -0.469999998807907104
-7.23999977111816406 -2.7070000171661377 -0.465999990701675415
-7.25150012969970703 -2.7304999828338623 -0.492500007152557373
-7.16800022125244141 -2.67400002479553223 -0.466000020503997803
-7.23799991607666016 -2.72450017929077148 -0.488499999046325684
-7.21099996566772461 -2.67100000381469727 -0.487500011920928955
-7.15999984741210938 -2.61800003051757812 -0.490000009536743164
-7.18484306335449219 -2.64210677146911621 -0.55877763032913208
-7.17000007629394531 -2.62299990653991699 -0.546999990940093994
-7.20549964904785156 -2.65499997138977051 -0.472000002861022949
-7.2220001220703125 -2.67799997329711914 -0.541000008583068848
1 1 1
-7.22550010681152344 -2.69799995422363281 -0.53200000524520874
-7.17000007629394531 -2.63100004196166992 -0.486000001430511475
-7.19199991226196289 -2.67600011825561523 -0.526000022888183594
-7.24599981307983398 -2.71600008010864258 -0.514999985694885254
-7.21775007247924805 -2.71624994277954102 -0.500749945640563965
-7.26300191879272461 -2.72299385070800781 -0.506951212882995605
-7.22300004959106445 -2.7284998893737793 -0.465499997138977051
-7.2305607795715332 -2.66847538948059082 -0.53127896785736084
-7.22700023651123047 -2.6679999828338623 -0.541000008583068848
-7.20300006866455078 -2.70300006866455078 -0.495000004768371582
-7.22012805938720703 -2.66134786605834961 -0.51109778881072998
-7.20300006866455078 -2.6659998893737793 -0.462999999523162842
-7.18202924728393555 -2.68401122093200684 -0.486993908882141113
-7.19899988174438477 -2.66300010681152344 -0.462999999523162842
-7.17799997329711914 -2.66199994087219238 -0.547999978065490723
-7.16200017929077148 -2.625 -0.490000009536743164
-7.1659998893737793 -2.63499999046325684 -0.552999973297119141
-7.17809820175170898 -2.62015199661254883 -0.551834166049957275
-7.24399995803833008 -2.72499990463256836 -0.449999988079071045
-7.18800020217895508 -2.67100000381469727 -0.540000021457672119
-7.19299983978271484 -2.62400007247924805 -0.527999997138977051
3 247 246 232 255 255 255
3 246 244 232 255 255 255
3 247 88 246 255 255 255
3 244 245 232 255 255 255
3 246 89 244 255 255 255
3 88 311 246 255 255 255
3 245 247 232 255 255 255
3 245 92 247 255 255 255
3 244 89 245 255 255 255
3 89 88 245 255 255 255
3 246 90 89 255 255 255
3 88 92 245 255 255 255
3 90 91 89 255 255 255
3 246 91 90 255 255 255
3 91 92 89 255 255 255
3 92 150 89 255 255 255
3 91 93 92 255 255 255
3 93 247 92 255 255 255
3 215 12 217 255 255 255
3 217 13 215 255 255 255
3 215 133 12 255 255 255
3 217 99 13 255 255 255
3 215 98 133 255 255 255
3 217 61 99 255 255 255
3 217 214 61 255 255 255
3 12 214 217 255 255 255
3 133 247 12 255 255 255
3 98 152 133 255 255 255
3 215 298 98 255 255 255
3 61 68 99 255 255 255
3 214 177 61 255 255 255
3 133 151 247 255 255 255
3 98 153 152 255 255 255
3 298 154 98 255 255 255
3 13 298 215 255 255 255
3 99 155 13 255 255 255
3 99 147 155 255 255 255
3 61 177 68 255 255 255
3 177 280 68 255 255 255
3 214 246 177 255 255 255
3 150 69 214 255 255 255
3 214 12 150 255 255 255
3 151 196 247 255 255 255
3 133 152 151 255 255 255
3 152 70 151 255 255 255
3 153 146 152 255 255 255
3 98 146 153 255 255 255
3 154 146 98 255 255 255
3 154 11 146 255 255 255
3 298 276 154 255 255 255
3 13 277 298 255 255 255
3 155 277 13 255 255 255
3 155 160 277 255 255 255
3 99 67 147 255 255 255
3 67 278 147 255 255 255
3 99 68 67 255 255 255
3 67 226 278 255 255 255
3 68 279 67 255 255 255
3 177 281 280 255 255 255
3 246 282 177 255 255 255
3 214 69 246 255 255 255
3 69 241 246 255 255 255
3 70 285 151 255 255 255
3 152 283 70 255 255 255
3 276 163 154 255 255 255
3 277 276 298 255 255 255
3 277 147 276 255 255 255
3 155 278 160 255 255 255
3 278 72 147 255 255 255
3 67 279 226 255 255 255
3 279 73 226 255 255 255
3 68 73 279 255 255 255
3 68 74 73 255 255 255
3 280 75 68 255 255 255
3 281 75 280 255 255 255
3 281 76 75 255 255 255
3 177 282 281 255 255 255
3 282 76 281 255 255 255
3 69 89 241 255 255 255
3 283 130 70 255 255 255
3 152 146 283 255 255 255
3 146 130 283 255 255 255
3 146 162 130 255 255 255
3 147 164 276 255 255 255
3 277 160 147 255 255 255
3 278 165 160 255 255 255
3 72 129 147 255 255 255
3 73 106 226 255 255 255
3 74 75 73 255 255 255
3 75 74 68 255 255 255
3 76 166 75 255 255 255
3 70 130 285 255 255 255
3 162 57 130 255 255 255
3 146 171 162 255 255 255
3 163 11 154 255 255 255
3 163 171 11 255 255 255
3 276 296 163 255 255 255
3 164 58 276 255 255 255
3 165 164 160 255 255 255
3 72 59 129 255 255 255
3 73 27 106 255 255 255
3 75 131 73 255 255 255
3 166 131 75 255 255 255
3 166 60 131 255 255 255
3 76 132 166 255 255 255
3 130 213 285 255 255 255
3 57 213 130 255 255 255
3 57 297 213 255 255 255
3 162 275 57 255 255 255
3 146 11 171 255 255 255
3 296 275 163 255 255 255
3 58 296 276 255 255 255
3 58 243 296 255 255 255
3 164 167 58 255 255 255
3 165 167 164 255 255 255
3 165 129 167 255 255 255
3 59 242 129 255 255 255
3 72 216 59 255 255 255
3 73 131 27 255 255 255
3 131 168 27 255 255 255
3 60 168 131 255 255 255
3 60 169 168 255 255 255
3 166 169 60 255 255 255
3 166 132 169 255 255 255
3 132 97 169 255 255 255
3 76 282 132 255 255 255
3 282 218 132 255 255 255
3 213 256 285 255 255 255
3 297 256 213 255 255 255
3 297 212 256 255 255 255
3 57 240 297 255 255 255
3 275 243 57 255 255 255
3 162 171 275 255 255 255
3 171 163 275 255 255 255
3 296 243 275 255 255 255
3 58 0 243 255 255 255
3 167 148 58 255 255 255
3 129 94 167 255 255 255
3 242 94 129 255 255 255
3 59 219 242 255 255 255
3 216 95 59 255 255 255
3 72 226 216 255 255 255
3 168 170 27 255 255 255
3 169 238 168 255 255 255
3 97 96 169 255 255 255
3 218 149 132 255 255 255
3 282 241 218 255 255 255
3 240 239 297 255 255 255
3 57 243 240 255 255 255
3 243 71 240 255 255 255
3 243 0 71 255 255 255
3 148 274 58 255 255 255
3 167 43 148 255 255 255
3 94 43 167 255 255 255
3 242 56 94 255 255 255
3 59 95 219 255 255 255
3 95 135 219 255 255 255
3 216 170 95 255 255 255
3 170 216 27 255 255 255
3 238 286 168 255 255 255
3 169 46 238 255 255 255
3 96 46 169 255 255 255
3 96 14 46 255 255 255
3 97 220 96 255 255 255
3 132 178 97 255 255 255
3 149 178 132 255 255 255
3 218 299 149 255 255 255
3 241 91 218 255 255 255
3 239 137 297 255 255 255
3 240 221 239 255 255 255
3 71 221 240 255 255 255
3 71 256 221 255 255 255
3 58 274 0 255 255 255
3 274 293 0 255 255 255
3 148 43 274 255 255 255
3 94 56 43 255 255 255
3 56 134 43 255 255 255
3 242 219 56 255 255 255
3 219 135 56 255 255 255
3 95 138 135 255 255 255
3 170 138 95 255 255 255
3 238 15 286 255 255 255
3 14 266 46 255 255 255
3 96 220 14 255 255 255
3 220 136 14 255 255 255
3 97 178 220 255 255 255
3 178 16 220 255 255 255
3 299 62 149 255 255 255
3 91 299 218 255 255 255
3 297 137 212 255 255 255
3 239 267 137 255 255 255
3 221 175 239 255 255 255
3 256 137 221 255 255 255
3 274 194 293 255 255 255
3 134 274 43 255 255 255
3 134 300 274 255 255 255
3 56 135 134 255 255 255
3 135 300 134 255 255 255
3 135 138 300 255 255 255
3 238 64 15 255 255 255
3 136 100 14 255 255 255
3 220 16 136 255 255 255
3 178 101 16 255 255 255
3 62 178 149 255 255 255
3 62 101 178 255 255 255
3 62 299 101 255 255 255
3 137 16 212 255 255 255
3 137 302 16 255 255 255
3 239 65 267 255 255 255
3 137 175 221 255 255 255
3 137 65 175 255 255 255
3 274 272 194 255 255 255
3 300 272 274 255 255 255
3 300 301 272 255 255 255
3 301 262 272 255 255 255
3 300 22 301 255 255 255
3 138 63 300 255 255 255
3 63 22 300 255 255 255
3 63 303 22 255 255 255
3 138 303 63 255 255 255
3 138 198 303 255 255 255
3 15 17 286 255 255 255
3 64 304 15 255 255 255
3 100 266 14 255 255 255
3 100 305 266 255 255 255
3 136 267 100 255 255 255
3 16 302 136 255 255 255
3 302 267 136 255 255 255
3 101 212 16 255 255 255
3 299 50 101 255 255 255
3 65 239 175 255 255 255
3 194 180 293 255 255 255
3 303 222 22 255 255 255
3 222 254 22 255 255 255
3 303 156 222 255 255 255
3 138 44 198 255 255 255
3 17 44 286 255 255 255
3 15 290 17 255 255 255
3 304 290 15 255 255 255
3 64 306 304 255 255 255
3 305 273 266 255 255 255
3 65 8 267 255 255 255
3 50 212 101 255 255 255
3 194 204 180 255 255 255
3 272 291 194 255 255 255
3 22 26 301 255 255 255
3 254 28 22 255 255 255
3 156 103 222 255 255 255
3 303 198 156 255 255 255
3 198 248 156 255 255 255
3 44 17 198 255 255 255
3 290 18 17 255 255 255
3 290 40 18 255 255 255
3 290 19 40 255 255 255
3 304 306 290 255 255 255
3 306 82 290 255 255 255
3 273 197 266 255 255 255
3 305 9 273 255 255 255
3 100 8 305 255 255 255
3 8 100 267 255 255 255
3 65 78 8 255 255 255
3 78 20 8 255 255 255
3 65 302 78 255 255 255
3 194 291 204 255 255 255
3 291 66 204 255 255 255
3 272 26 291 255 255 255
3 26 262 301 255 255 255
3 22 10 26 255 255 255
3 28 10 22 255 255 255
3 254 35 28 255 255 255
3 222 103 254 255 255 255
3 156 248 103 255 255 255
3 248 121 103 255 255 255
3 198 143 248 255 255 255
3 143 249 248 255 255 255
3 198 17 143 255 255 255
3 17 18 143 255 255 255
3 18 127 143 255 255 255
3 40 127 18 255 255 255
3 19 224 40 255 255 255
3 290 82 19 255 255 255
3 82 179 19 255 255 255
3 306 34 82 255 255 255
3 273 4 197 255 255 255
3 9 1 273 255 255 255
3 305 109 9 255 255 255
3 305 8 47 255 255 255
3 8 20 47 255 255 255
3 20 115 47 255 255 255
3 204 223 180 255 255 255
3 66 107 204 255 255 255
3 291 26 66 255 255 255
3 272 262 26 255 255 255
3 28 29 10 255 255 255
3 35 29 28 255 255 255
3 254 103 35 255 255 255
3 103 253 35 255 255 255
3 139 32 103 255 255 255
3 121 139 103 255 255 255
3 121 264 139 255 255 255
3 248 249 121 255 255 255
3 143 127 249 255 255 255
3 127 40 249 255 255 255
3 19 179 224 255 255 255
3 179 181 224 255 255 255
3 82 181 179 255 255 255
3 82 182 181 255 255 255
3 34 182 82 255 255 255
3 34 202 182 255 255 255
3 306 79 34 255 255 255
3 273 1 4 255 255 255
3 9 270 1 255 255 255
3 109 183 9 255 255 255
3 115 109 47 255 255 255
3 20 117 115 255 255 255
3 180 223 237 255 255 255
3 223 295 237 255 255 255
3 26 107 66 255 255 255
3 10 107 26 255 255 255
3 10 80 107 255 255 255
3 10 29 80 255 255 255
3 29 199 80 255 255 255
3 103 32 253 255 255 255
3 32 313 253 255 255 255
3 139 313 32 255 255 255
3 139 264 313 255 255 255
3 264 87 313 255 255 255
3 249 41 121 255 255 255
3 40 41 249 255 255 255
3 224 123 40 255 255 255
3 181 111 224 255 255 255
3 182 30 181 255 255 255
3 202 233 182 255 255 255
3 34 81 202 255 255 255
3 79 81 34 255 255 255
3 1 284 4 255 255 255
3 284 38 4 255 255 255
3 270 172 1 255 255 255
3 9 183 270 255 255 255
3 183 265 270 255 255 255
3 109 118 183 255 255 255
3 115 118 109 255 255 255
3 117 31 115 255 255 255
3 20 191 117 255 255 255
3 295 191 237 255 255 255
3 223 312 295 255 255 255
3 80 312 107 255 255 255
3 199 161 80 255 255 255
3 29 124 199 255 255 255
3 124 288 199 255 255 255
3 313 251 253 255 255 255
3 87 211 313 255 255 255
3 264 77 87 255 255 255
3 121 41 264 255 255 255
3 41 5 264 255 255 255
3 40 123 41 255 255 255
3 111 123 224 255 255 255
3 181 30 111 255 255 255
3 30 208 111 255 255 255
3 182 24 30 255 255 255
3 233 24 182 255 255 255
3 233 260 24 255 255 255
3 202 260 233 255 255 255
3 202 205 260 255 255 255
3 81 205 202 255 255 255
3 306 64 79 255 255 255
3 38 145 4 255 255 255
3 284 257 38 255 255 255
3 1 258 284 255 255 255
3 172 258 1 255 255 255
3 270 265 172 255 255 255
3 265 42 172 255 255 255
3 118 268 183 255 255 255
3 191 31 117 255 255 255
3 191 295 31 255 255 255
3 20 237 191 255 255 255
3 80 140 312 255 255 255
3 80 161 140 255 255 255
3 161 307 140 255 255 255
3 288 161 199 255 255 255
3 124 206 288 255 255 255
3 251 124 253 255 255 255
3 313 2 251 255 255 255
3 211 2 313 255 255 255
3 211 310 2 255 255 255
3 87 227 211 255 255 255
3 5 77 264 255 255 255
3 5 236 77 255 255 255
3 236 5 41 255 255 255
3 236 41 123 255 255 255
3 111 294 123 255 255 255
3 208 184 111 255 255 255
3 30 24 208 255 255 255
3 205 250 260 255 255 255
3 38 252 145 255 255 255
3 257 21 38 255 255 255
3 284 258 257 255 255 255
3 258 207 257 255 255 255
3 265 186 42 255 255 255
3 265 268 186 255 255 255
3 268 265 183 255 255 255
3 118 86 268 255 255 255
3 140 3 312 255 255 255
3 307 3 140 255 255 255
3 307 83 3 255 255 255
3 288 119 161 255 255 255
3 206 259 288 255 255 255
3 251 206 124 255 255 255
3 251 2 206 255 255 255
3 2 310 206 255 255 255
3 211 235 310 255 255 255
3 227 200 211 255 255 255
3 111 184 294 255 255 255
3 184 308 294 255 255 255
3 184 187 308 255 255 255
3 208 114 184 255 255 255
3 250 257 260 255 255 255
3 205 252 250 255 255 255
3 252 81 145 255 255 255
3 252 205 81 255 255 255
3 38 21 252 255 255 255
3 21 250 252 255 255 255
3 257 250 21 255 255 255
3 207 260 257 255 255 255
3 207 24 260 255 255 255
3 207 208 24 255 255 255
3 207 114 208 255 255 255
3 207 185 114 255 255 255
3 258 120 207 255 255 255
3 268 102 186 255 255 255
3 86 112 268 255 255 255
3 118 125 86 255 255 255
3 83 125 3 255 255 255
3 307 225 83 255 255 255
3 161 225 307 255 255 255
3 161 119 225 255 255 255
3 119 309 225 255 255 255
3 288 309 119 255 255 255
3 288 158 309 255 255 255
3 259 158 288 255 255 255
3 206 310 259 255 255 255
3 310 261 259 255 255 255
3 211 200 235 255 255 255
3 227 6 200 255 255 255
3 87 77 227 255 255 255
3 77 7 227 255 255 255
3 308 228 294 255 255 255
3 187 287 308 255 255 255
3 185 49 114 255 255 255
3 207 120 185 255 255 255
3 120 258 185 255 255 255
3 258 192 185 255 255 255
3 186 102 42 255 255 255
3 268 112 102 255 255 255
3 86 263 112 255 255 255
3 125 54 86 255 255 255
3 83 54 125 255 255 255
3 309 188 225 255 255 255
3 158 189 309 255 255 255
3 259 255 158 255 255 255
3 259 261 255 255 255 255
3 200 104 235 255 255 255
3 200 6 104 255 255 255
3 227 51 6 255 255 255
3 227 230 51 255 255 255
3 7 230 227 255 255 255
3 7 23 230 255 255 255
3 77 234 7 255 255 255
3 228 229 294 255 255 255
3 308 287 228 255 255 255
3 187 36 287 255 255 255
3 184 193 187 255 255 255
3 114 49 184 255 255 255
3 49 193 184 255 255 255
3 49 195 193 255 255 255
3 185 192 49 255 255 255
3 263 157 112 255 255 255
3 54 263 86 255 255 255
3 54 84 263 255 255 255
3 83 225 54 255 255 255
3 225 271 54 255 255 255
3 188 271 225 255 255 255
3 309 231 188 255 255 255
3 189 33 309 255 255 255
3 158 255 189 255 255 255
3 255 33 189 255 255 255
3 255 176 33 255 255 255
3 261 176 255 255 255 255
3 261 104 176 255 255 255
3 51 159 6 255 255 255
3 230 159 51 255 255 255
3 230 113 159 255 255 255
3 7 269 23 255 255 255
3 36 48 287 255 255 255
3 187 203 36 255 255 255
3 193 203 187 255 255 255
3 193 55 203 255 255 255
3 195 55 193 255 255 255
3 49 192 195 255 255 255
3 192 42 195 255 255 255
3 42 102 195 255 255 255
3 102 105 195 255 255 255
3 190 105 102 255 255 255
3 190 141 105 255 255 255
3 102 112 190 255 255 255
3 263 84 157 255 255 255
3 54 271 84 255 255 255
3 188 209 271 255 255 255
3 309 33 231 255 255 255
3 33 45 231 255 255 255
3 261 310 104 255 255 255
3 310 235 104 255 255 255
3 104 289 176 255 255 255
3 6 159 104 255 255 255
3 159 289 104 255 255 255
3 159 116 289 255 255 255
3 230 23 113 255 255 255
3 23 173 113 255 255 255
3 269 48 23 255 255 255
3 7 234 269 255 255 255
3 228 37 229 255 255 255
3 48 269 287 255 255 255
3 36 201 48 255 255 255
3 203 174 36 255 255 255
3 55 122 203 255 255 255
3 55 174 122 255 255 255
3 195 105 55 255 255 255
3 141 52 105 255 255 255
3 190 128 141 255 255 255
3 112 157 190 255 255 255
3 84 126 157 255 255 255
3 271 126 84 255 255 255
3 271 209 126 255 255 255
3 188 85 209 255 255 255
3 231 85 188 255 255 255
3 231 108 85 255 255 255
3 45 108 231 255 255 255
3 45 142 108 255 255 255
3 289 116 176 255 255 255
3 116 33 176 255 255 255
3 116 45 33 255 255 255
3 116 142 45 255 255 255
3 116 53 142 255 255 255
3 173 110 113 255 255 255
3 48 201 23 255 255 255
3 201 39 23 255 255 255
3 37 269 234 255 255 255
3 37 287 269 255 255 255
3 37 228 287 255 255 255
3 234 229 37 255 255 255
3 174 201 36 255 255 255
3 174 39 201 255 255 255
3 174 173 39 255 255 255
3 122 174 203 255 255 255
3 55 52 174 255 255 255
3 105 52 55 255 255 255
3 52 210 174 255 255 255
3 141 210 52 255 255 255
3 128 210 141 255 255 255
3 190 157 128 255 255 255
3 157 126 128 255 255 255
3 126 144 128 255 255 255
3 209 144 126 255 255 255
3 209 25 144 255 255 255
3 85 25 209 255 255 255
3 85 108 25 255 255 255
3 142 25 108 255 255 255
3 142 53 25 255 255 255
3 110 53 113 255 255 255
3 173 210 110 255 255 255
3 23 39 173 255 255 255
3 210 173 174 255 255 255
3 128 144 210 255 255 255
3 53 144 25 255 255 255
3 53 110 144 255 255 255
3 292 292 292 255 255 255
