ply
format ascii 1.0
element vertex 426
property float x
property float y
property float z
element face 576
property list uchar int vertex_indices
property uchar red
property uchar green
property uchar blue
end_header
-3.22905206680297852 3.84013843536376953 -0.95707017183303833
-3.26577162742614746 3.89063835144042969 -0.926127076148986816
-3.25767421722412109 3.83686590194702148 -0.916055560111999512
-3.17959403991699219 3.76252913475036621 -0.858947873115539551
-3.12578487396240234 3.80565762519836426 -0.976061463356018066
-3.28031063079833984 3.87483358383178711 -0.897994875907897949
-3.16608166694641113 3.86772060394287109 -0.879011273384094238
-3.23250007629394531 3.88975000381469727 -0.912999987602233887
-3.16474652290344238 3.86338162422180176 -0.858429789543151855
-3.21008396148681641 3.8724827766418457 -0.88436591625213623
-3.24931859970092773 3.77134513854980469 -0.922226786613464355
-3.22516512870788574 3.83719825744628906 -0.942051529884338379
-3.20122647285461426 3.81616854667663574 -1.06289565563201904
-3.26755762100219727 3.78963756561279297 -1.01563966274261475
-3.19921541213989258 3.76958370208740234 -1.02849233150482178
-3.16700005531311035 3.79399991035461426 -1.0700000524520874
-3.29221439361572266 3.86117005348205566 -1.02509033679962158
-3.16392874717712402 3.80399274826049805 -1.06528627872467041
-3.2028954029083252 3.86723566055297852 -1.02019131183624268
-3.21300005912780762 3.80399990081787109 -1.00899994373321533
-3.29038429260253906 3.80060720443725586 -1.00082910060882568
-3.14926505088806152 3.82246160507202148 -1.06202447414398193
-3.23357629776000977 3.75483584403991699 -0.972929894924163818
-3.2678682804107666 3.74013161659240723 -0.920652091503143311
-3.13957667350769043 3.85829877853393555 -0.967650830745697021
-3.17256450653076172 3.85686206817626953 -0.980995357036590576
-3.17379474639892578 3.73956441879272461 -0.883004844188690186
-3.27099990844726562 3.93000006675720215 -0.999000012874603271
-3.2349998950958252 3.80900001525878906 -0.966000020503997803
-3.2120978832244873 3.87517285346984863 -0.86881178617477417
-3.3373267650604248 3.83188915252685547 -0.970704972743988037
-3.19855117797851562 3.76174473762512207 -0.97864145040512085
-3.20093369483947754 3.83560562133789062 -0.918341636657714844
-3.22382092475891113 3.81364321708679199 -0.969020843505859375
-3.23015284538269043 3.87746787071228027 -0.997341156005859375
-3.1809999942779541 3.8190000057220459 -1.05400002002716064
-3.23233771324157715 3.77078938484191895 -0.858126044273376465
-3.17600774765014648 3.74396634101867676 -0.873176693916320801
-3.26454401016235352 3.78703761100769043 -0.997993290424346924
-3.27323198318481445 3.78798961639404297 -0.990775406360626221
-3.23733139038085938 3.88619470596313477 -0.971271216869354248
-3.17287778854370117 3.77472519874572754 -0.954687118530273438
-3.25600004196166992 3.8599998950958252 -0.862999975681304932
-3.14665007591247559 3.76120376586914062 -0.86738818883895874
-3.14275717735290527 3.75280261039733887 -0.971728026866912842
-3.27803969383239746 3.87462902069091797 -0.945356667041778564
-3.21072030067443848 3.87731146812438965 -0.858382940292358398
-3.17094969749450684 3.86465978622436523 -0.991376876831054688
-3.22803068161010742 3.85583066940307617 -0.880587339401245117
-3.25531697273254395 3.76006150245666504 -0.873620271682739258
-3.25851297378540039 3.7694244384765625 -0.940159082412719727
-3.19382548332214355 3.79451203346252441 -0.878658056259155273
-3.14800000190734863 3.76999998092651367 -0.888000011444091797
-3.176055908203125 3.87480545043945312 -0.930635213851928711
-3.12282228469848633 3.75557994842529297 -0.973060846328735352
-3.28517341613769531 3.86258029937744141 -0.872983694076538086
-3.2650001049041748 3.75900006294250488 -0.90700000524520874
-3.11208033561706543 3.83260560035705566 -1.02607059478759766
-3.1421818733215332 3.82104706764221191 -1.02903378009796143
-3.16848540306091309 3.78144478797912598 -1.03171432018280029
-3.14049911499023438 3.80090999603271484 -1.05912327766418457
-3.14700007438659668 3.81500005722045898 -1.03699994087219238
-3.14716148376464844 3.80591249465942383 -1.05220890045166016
-3.28775787353515625 3.86169266700744629 -1.03771507740020752
-3.26945161819458008 3.82890224456787109 -1.07079434394836426
-3.09912657737731934 3.81390714645385742 -1.01197588443756104
-3.15922236442565918 3.81221580505371094 -1.0613788366317749
-3.22152280807495117 3.76015615463256836 -1.02048587799072266
-3.14211487770080566 3.83865809440612793 -1.02630341053009033
-3.23456597328186035 3.88473796844482422 -0.861782312393188477
-3.15599989891052246 3.78500008583068848 -0.893000006675720215
-3.2070000171661377 3.8190000057220459 -0.934000015258789062
-3.26485013961791992 3.79994988441467285 -1.03633546829223633
-3.19849991798400879 3.79199981689453125 -1.06850004196166992
-3.27297735214233398 3.90971469879150391 -1.00112557411193848
-3.29663801193237305 3.84557080268859863 -1.00938558578491211
-3.31234931945800781 3.84868574142456055 -1.03894639015197754
-3.20499992370605469 3.7780001163482666 -1.05900001525878906
-3.28137755393981934 3.89938855171203613 -1.05172228813171387
-3.23095893859863281 3.86730122566223145 -1.02868270874023438
-3.28900003433227539 3.81599998474121094 -1.02999997138977051
-3.28258824348449707 3.8431856632232666 -1.07413220405578613
-3.14299988746643066 3.78699994087219238 -0.90700000524520874
-3.25635743141174316 3.81906604766845703 -0.892602205276489258
-3.22685956954956055 3.75166130065917969 -0.865869402885437012
-3.22633552551269531 3.7376706600189209 -0.885325729846954346
-3.26491665840148926 3.76466798782348633 -0.919912159442901611
-3.26675224304199219 3.87785220146179199 -0.922149002552032471
-3.30650997161865234 3.82152438163757324 -0.980226814746856689
-3.23865222930908203 3.89591169357299805 -0.936392366886138916
-3.27399992942810059 3.92499995231628418 -0.994000017642974854
-3.25135064125061035 3.77066612243652344 -0.958063423633575439
-3.30837416648864746 3.84103775024414062 -0.999898731708526611
-3.16431856155395508 3.81808924674987793 -0.877908527851104736
-3.26792311668395996 3.81967759132385254 -0.89187246561050415
-3.17400002479553223 3.8190000057220459 -0.950999975204467773
-3.2252810001373291 3.8766636848449707 -1.04813492298126221
-3.2861320972442627 3.91261959075927734 -0.990549266338348389
-3.20712423324584961 3.8475949764251709 -1.04709422588348389
-3.22704529762268066 3.774261474609375 -1.06200623512268066
-3.20396018028259277 3.88503170013427734 -0.857062637805938721
-3.25939202308654785 3.91614246368408203 -1.01356410980224609
-3.2556612491607666 3.88057279586791992 -0.898814857006072998
-3.2929999828338623 3.88899993896484375 -1.00499999523162842
-3.25399994850158691 3.83500003814697266 -0.953999996185302734
-3.20136833190917969 3.90092825889587402 -0.943437457084655762
-3.20360040664672852 3.84636926651000977 -0.861989617347717285
-3.18152618408203125 3.77212095260620117 -0.998869061470031738
-3.25636053085327148 3.7530055046081543 -0.899942994117736816
-3.27518320083618164 3.79853963851928711 -0.964808106422424316
-3.26061797142028809 3.73071503639221191 -0.905608773231506348
-3.23565053939819336 3.7353816032409668 -0.889544129371643066
-3.22213411331176758 3.88549208641052246 -0.940818190574645996
-3.23000001907348633 3.88199996948242188 -0.896000027656555176
-3.12433481216430664 3.82739138603210449 -0.954923033714294434
-3.19899988174438477 3.82599997520446777 -1.04700005054473877
-3.2271578311920166 3.74277734756469727 -0.910821855068206787
-3.24098110198974609 3.75656723976135254 -0.862801313400268555
-3.21350502967834473 3.75953459739685059 -0.997187137603759766
-3.20099997520446777 3.80699992179870605 -0.940999984741210938
-3.19099783897399902 3.84996509552001953 -0.85830235481262207
-3.17660832405090332 3.85164332389831543 -0.914022207260131836
-3.2740023136138916 3.83849382400512695 -0.965674400329589844
-3.1646730899810791 3.75473976135253906 -0.898498654365539551
-3.15371417999267578 3.76151776313781738 -0.915573596954345703
-3.2439272403717041 3.79109787940979004 -0.872141182422637939
-3.16035628318786621 3.77141928672790527 -0.950173795223236084
-3.14091825485229492 3.7702791690826416 -0.92075955867767334
-3.21747875213623047 3.80630755424499512 -0.899327993392944336
-3.28600001335144043 3.90100002288818359 -1.02300000190734863
-3.15440630912780762 3.78958368301391602 -1.03972280025482178
-3.29271936416625977 3.91930055618286133 -1.02333462238311768
-3.20876598358154297 3.77481627464294434 -1.06264340877532959
-3.15579700469970703 3.78699278831481934 -1.01260125637054443
-3.33508920669555664 3.8280949592590332 -1.0217210054397583
-3.22156929969787598 3.8994300365447998 -0.932430565357208252
-3.3134162425994873 3.82407093048095703 -1.0047072172164917
-3.30265450477600098 3.8175513744354248 -1.03597843647003174
-3.2235865592956543 3.774810791015625 -1.02122175693511963
-3.33800005912780762 3.82100009918212891 -1.03100001811981201
-3.23395752906799316 3.7334132194519043 -0.925158679485321045
-3.18035054206848145 3.75090765953063965 -0.891917586326599121
-3.20578432083129883 3.78844499588012695 -0.893749654293060303
-3.16889715194702148 3.85160636901855469 -0.867921769618988037
-3.26906108856201172 3.91016101837158203 -0.85315173864364624
-3.2735137939453125 3.89741659164428711 -0.844144761562347412
-3.3442692756652832 3.84601831436157227 -0.967727124691009521
-3.20911598205566406 3.75360798835754395 -0.954198539257049561
-3.26932096481323242 3.85805654525756836 -0.988557279109954834
-3.22437739372253418 3.7999265193939209 -0.896687448024749756
-3.2458653450012207 3.78961372375488281 -0.918943345546722412
-3.29392647743225098 3.79994702339172363 -0.975379884243011475
-3.17899990081787109 3.79500007629394531 -0.893000006675720215
-3.20502543449401855 3.90035748481750488 -0.915291190147399902
-3.23702144622802734 3.79372262954711914 -0.940898597240447998
-3.24099993705749512 3.77900004386901855 -0.930999994277954102
-3.11700010299682617 3.81599998474121094 -0.96399998664855957
-3.30231094360351562 3.87734556198120117 -0.861984789371490479
-3.27698278427124023 3.88728737831115723 -0.881517469882965088
-3.23078465461730957 3.83517003059387207 -0.940388500690460205
-3.25699996948242188 3.77200007438659668 -0.981000006198883057
-3.17400002479553223 3.86400008201599121 -0.903999984264373779
-3.20828676223754883 3.76587820053100586 -1.05245602130889893
-3.16499996185302734 3.77300000190734863 -1.00300002098083496
-3.23089337348937988 3.84504508972167969 -0.903026938438415527
-3.21640634536743164 3.86928224563598633 -0.971810281276702881
-3.28699994087219238 3.8900001049041748 -1.00399994850158691
-3.17865705490112305 3.78685760498046875 -1.03681004047393799
-3.25415158271789551 3.90400028228759766 -0.861267805099487305
-3.25394105911254883 3.74283957481384277 -0.896332979202270508
-3.24695324897766113 3.78226304054260254 -0.960601329803466797
-3.16344976425170898 3.82180285453796387 -0.867003679275512695
-3.26921701431274414 3.86675739288330078 -0.942451953887939453
-3.21929430961608887 3.89517903327941895 -0.917965888977050781
-3.16248416900634766 3.76990175247192383 -0.989595890045166016
-3.25078368186950684 3.83082079887390137 -0.897850513458251953
-3.26496553421020508 3.84375619888305664 -0.872814178466796875
-3.21300005912780762 3.86700010299682617 -0.91100001335144043
-3.21396112442016602 3.8231816291809082 -0.920177936553955078
-3.22743606567382812 3.83659982681274414 -0.917953729629516602
-3.28647637367248535 3.88145995140075684 -1.03229618072509766
-3.17621469497680664 3.83440852165222168 -1.0380704402923584
-3.30446052551269531 3.84548807144165039 -1.02033185958862305
-3.17554593086242676 3.86389470100402832 -1.00520563125610352
-3.29399991035461426 3.89299988746643066 -1.00600004196166992
-3.26166152954101562 3.84578919410705566 -1.06116271018981934
-3.11380481719970703 3.83419609069824219 -1.01567935943603516
-3.16579437255859375 3.82955241203308105 -1.04439568519592285
-3.19702243804931641 3.85124063491821289 -1.03883504867553711
-3.29245400428771973 3.92308163642883301 -1.00091981887817383
-3.21099996566772461 3.80299997329711914 -1.0140000581741333
-3.26799988746643066 3.79999995231628418 -1.02600002288818359
-3.24780488014221191 3.75365018844604492 -0.999533236026763916
-3.17183399200439453 3.83373379707336426 -0.868013918399810791
-3.27427458763122559 3.86613726615905762 -0.85375291109085083
-3.21166729927062988 3.75570058822631836 -0.90817791223526001
-3.26014614105224609 3.89093756675720215 -0.981341421604156494
-3.26689434051513672 3.8676912784576416 -0.852488994598388672
-3.21899986267089844 3.85099983215332031 -0.878000020980834961
-3.21199989318847656 3.79600000381469727 -0.875999987125396729
-3.19240903854370117 3.87290430068969727 -0.852413475513458252
-3.27281975746154785 3.86275267601013184 -0.91825026273727417
-3.28647851943969727 3.86841511726379395 -0.969564318656921387
-3.19499993324279785 3.88899993896484375 -0.91100001335144043
-3.25880002975463867 3.88579559326171875 -0.888145267963409424
-3.20097541809082031 3.90981793403625488 -0.928461372852325439
-3.17982053756713867 3.8695981502532959 -0.849680781364440918
-3.26712179183959961 3.80599212646484375 -1.0539405345916748
-3.29200005531311035 3.86400008201599121 -1.05799996852874756
-3.32900166511535645 3.8482820987701416 -0.948940038681030273
-3.19899988174438477 3.84500002861022949 -0.879000008106231689
-3.2206730842590332 3.85849833488464355 -0.868467628955841064
-3.23829412460327148 3.88383388519287109 -0.853432416915893555
-3.24126648902893066 3.81812500953674316 -0.957321226596832275
-3.22598099708557129 3.79900336265563965 -0.876003384590148926
-3.28806686401367188 3.90546464920043945 -0.872421681880950928
-3.17415022850036621 3.83532452583312988 -0.890222072601318359
-3.28978395462036133 3.90168166160583496 -0.853568136692047119
-3.19510173797607422 3.87711596488952637 -0.994309008121490479
-3.17651009559631348 3.83544349670410156 -0.939140141010284424
-3.19488787651062012 3.76182413101196289 -0.952668845653533936
-3.14800000190734863 3.82699990272521973 -0.953000009059906006
-3.18685483932495117 3.86370182037353516 -0.980690836906433105
-3.17700004577636719 3.89299988746643066 -0.870000004768371582
-3.17925310134887695 3.84617209434509277 -0.925110936164855957
-3.24699997901916504 3.86299991607666016 -0.856999993324279785
-3.31201481819152832 3.82126951217651367 -0.952911496162414551
-3.19987249374389648 3.87466645240783691 -0.903943657875061035
-3.18156194686889648 3.88504767417907715 -0.869215130805969238
-3.17799997329711914 3.85400009155273438 -0.89999997615814209
-3.19716024398803711 3.85355901718139648 -0.892685770988464355
-3.24499988555908203 3.86800003051757812 -0.853999972343444824
-3.2650001049041748 3.92199993133544922 -0.995000004768371582
-3.17600011825561523 3.82800006866455078 -0.947000026702880859
-3.18213796615600586 3.78778910636901855 -1.07268035411834717
-3.20827698707580566 3.8726804256439209 -1.03105831146240234
-3.18198275566101074 3.81183362007141113 -1.0670703649520874
-3.32349991798400879 3.83349990844726562 -1.03149998188018799
-3.20799994468688965 3.76900005340576172 -1.04799997806549072
-3.33325004577636719 3.82174992561340332 -1.03575003147125244
-3.27325248718261719 3.80320596694946289 -1.03353488445281982
-3.26900005340576172 3.84500002861022949 -1.00899994373321533
-3.19099998474121094 3.82500004768371582 -1.05900001525878906
-3.26704263687133789 3.90465641021728516 -1.03322529792785645
-3.26477336883544922 3.91649889945983887 -1.01089811325073242
-3.18153214454650879 3.79952764511108398 -1.06387317180633545
-3.20079874992370605 3.79736232757568359 -1.02800834178924561
-3.24412322044372559 3.89197540283203125 -1.0441824197769165
-3.26043486595153809 3.93157243728637695 -1.01377475261688232
-3.2909998893737793 3.84999990463256836 -1.0010000467300415
-3.30705380439758301 3.86292123794555664 -1.04830467700958252
-3.12542891502380371 3.81082868576049805 -1.02293860912322998
-3.32918047904968262 3.84360313415527344 -0.984233319759368896
-3.31364703178405762 3.85546064376831055 -0.987295091152191162
-3.18456768989562988 3.81738924980163574 -0.880664527416229248
-3.157135009765625 3.79853343963623047 -0.874954879283905029
-3.18108224868774414 3.87646079063415527 -0.895955502986907959
-3.16684389114379883 3.75598788261413574 -0.863797605037689209
-3.32595086097717285 3.82604503631591797 -0.9906272292137146
-3.22806000709533691 3.74128866195678711 -0.933079183101654053
-3.19397759437561035 3.87527704238891602 -0.884579122066497803
-3.21600008010864258 3.80900001525878906 -0.916999995708465576
-3.17400431632995605 3.77683639526367188 -1.06665623188018799
-3.20199990272521973 3.81699991226196289 -0.930000007152557373
-3.19700002670288086 3.76399993896484375 -0.86799997091293335
-3.2025001049041748 3.82850003242492676 -0.885499954223632812
-3.27699995040893555 3.92100000381469727 -0.99299997091293335
-3.27399992942810059 3.90400004386901855 -1.01699995994567871
-3.16034507751464844 3.81202507019042969 -0.934734582901000977
-3.24539041519165039 3.7403101921081543 -0.871194124221801758
-3.26090788841247559 3.73682451248168945 -0.935636043548583984
-3.16364336013793945 3.79566168785095215 -0.888270378112792969
-3.12842869758605957 3.7956850528717041 -0.91816401481628418
-3.11738014221191406 3.82448220252990723 -0.981861114501953125
-3.24420285224914551 3.73032903671264648 -0.917408943176269531
-3.27348470687866211 3.83256387710571289 -0.881444215774536133
-3.11800003051757812 3.81200003623962402 -0.986999988555908203
-3.20099997520446777 3.85500001907348633 -0.888000011444091797
-3.31689739227294922 3.86160469055175781 -0.966765701770782471
-3.18105411529541016 3.75446271896362305 -0.873340070247650146
-3.17899990081787109 3.85100007057189941 -1.0130000114440918
-3.23649978637695312 3.78849983215332031 -0.942499995231628418
-3.14750003814697266 3.76999998092651367 -0.906999945640563965
-3.22414803504943848 3.80538511276245117 -0.912717461585998535
-3.19463944435119629 3.78638744354248047 -0.872928500175476074
-3.16620302200317383 3.80738043785095215 -0.866002917289733887
-3.16528105735778809 3.82976007461547852 -0.887689471244812012
-3.14225316047668457 3.79064798355102539 -0.92553102970123291
-3.15125441551208496 3.79109621047973633 -0.909456372261047363
-3.2480318546295166 3.89765572547912598 -0.95147860050201416
-3.16885757446289062 3.7971198558807373 -0.894449114799499512
-3.16001057624816895 3.8337397575378418 -1.04008245468139648
-3.14172577857971191 3.80524849891662598 -1.0229041576385498
-3.19327187538146973 3.80508542060852051 -1.06515288352966309
-3.24900007247924805 3.82200002670288086 -1.06299996376037598
-3.27221131324768066 3.87147974967956543 -1.05092358589172363
-3.15167021751403809 3.84137892723083496 -1.02002596855163574
-3.26769399642944336 3.91293549537658691 -1.03162038326263428
-3.26910185813903809 3.88371562957763672 -0.840353727340698242
-3.26018071174621582 3.81407999992370605 -1.06069910526275635
-3.14586925506591797 3.77339649200439453 -0.996173441410064697
-3.23900055885314941 3.87027287483215332 -0.866032660007476807
-3.27890563011169434 3.81748151779174805 -0.972716152667999268
-3.21635079383850098 3.87832212448120117 -0.882502853870391846
-3.24544000625610352 3.77447938919067383 -0.889168322086334229
-3.2557368278503418 3.71381235122680664 -0.917933046817779541
-3.27515459060668945 3.88097858428955078 -0.936365187168121338
-3.24399995803833008 3.74900007247924805 -0.869000017642974854
-3.23240351676940918 3.86555004119873047 -0.887312233448028564
-3.1679999828338623 3.86700010299682617 -0.898999989032745361
-3.2154998779296875 3.79650020599365234 -1.01349997520446777
-3.15095901489257812 3.78919863700866699 -0.860776960849761963
-3.13833785057067871 3.80109477043151855 -1.00031709671020508
-3.18499994277954102 3.87700009346008301 -0.958999991416931152
-3.24200010299682617 3.80299997329711914 -0.964999973773956299
-3.13199996948242188 3.85400009155273438 -0.976000010967254639
-3.19778347015380859 3.80363678932189941 -1.02272129058837891
-3.17464828491210938 3.75872159004211426 -0.921425461769104004
-3.23200011253356934 3.85800004005432129 -0.876999974250793457
-3.11759066581726074 3.84067821502685547 -0.972446322441101074
-3.3316197395324707 3.81776332855224609 -0.961712479591369629
-3.16204071044921875 3.84139680862426758 -0.884047150611877441
-3.17300009727478027 3.82699990272521973 -0.93599998950958252
-3.14199995994567871 3.78500008583068848 -0.902999997138977051
-3.23099994659423828 3.79699993133544922 -0.962000012397766113
-3.12918376922607422 3.8013308048248291 -0.958735346794128418
-3.182830810546875 3.76362347602844238 -0.900136828422546387
-3.28708171844482422 3.8413388729095459 -0.891133666038513184
-3.16499996185302734 3.84500002861022949 -1.00999999046325684
-3.17300009727478027 3.88499999046325684 -0.865999996662139893
-3.2506258487701416 3.89704036712646484 -0.852044761180877686
-3.21349382400512695 3.77771806716918945 -0.866970479488372803
-3.18899989128112793 3.88299989700317383 -0.906000018119812012
-3.23346185684204102 3.85319018363952637 -1.04513084888458252
-3.26320934295654297 3.88597345352172852 -1.05611693859100342
-3.2716679573059082 3.93786025047302246 -1.02343904972076416
-3.13122010231018066 3.84825325012207031 -1.00187587738037109
-3.28399991989135742 3.82100009918212891 -1.0429999828338623
-3.28600001335144043 3.91199994087219238 -1.02600002288818359
-3.21655821800231934 3.82132101058959961 -1.06217265129089355
-3.2808222770690918 3.89012885093688965 -1.02639544010162354
-3.2667536735534668 3.91786956787109375 -1.00070798397064209
-3.24630141258239746 3.77511811256408691 -1.01763427257537842
-3.27900004386901855 3.85500001907348633 -1.01450002193450928
-3.24001979827880859 3.86528158187866211 -1.0381699800491333
-3.29800009727478027 3.83299994468688965 -1.04700005054473877
-3.15778756141662598 3.7715446949005127 -1.03266823291778564
-3.24916434288024902 3.84643030166625977 -1.06119906902313232
-3.28299999237060547 3.85500001907348633 -1.04700005054473877
-3.26781725883483887 3.83857941627502441 -0.947745025157928467
-3.26723027229309082 3.77961945533752441 -0.96779102087020874
-3.20799994468688965 3.79999995231628418 -0.879000008106231689
-3.2409965991973877 3.74325037002563477 -0.942983806133270264
-3.23103880882263184 3.75003457069396973 -0.989468514919281006
-3.29160737991333008 3.86870694160461426 -0.949142158031463623
-3.18221616744995117 3.82386016845703125 -0.874733388423919678
-3.16673445701599121 3.80917096138000488 -0.923654496669769287
-3.16209697723388672 3.87015533447265625 -0.949166238307952881
-3.23900008201599121 3.875 -0.857999980449676514
-3.13002800941467285 3.78807353973388672 -0.979949653148651123
-3.15634894371032715 3.80402040481567383 -0.914813697338104248
-3.20350003242492676 3.82399988174438477 -0.88050001859664917
-3.1679999828338623 3.88700008392333984 -0.869000017642974854
-3.22699999809265137 3.86100006103515625 -0.873000025749206543
-3.22333669662475586 3.89517927169799805 -0.922819614410400391
-3.23952341079711914 3.79712939262390137 -1.05174553394317627
-3.21304845809936523 3.77619433403015137 -1.03214430809020996
-3.2243494987487793 3.7857670783996582 -1.0317913293838501
-3.25306367874145508 3.7760169506072998 -1.01195168495178223
-3.2759087085723877 3.78724479675292969 -1.00668454170227051
-3.28223562240600586 3.80915021896362305 -1.00888979434967041
-3.32462573051452637 3.83920907974243164 -1.01428961753845215
-3.14294981956481934 3.78683686256408691 -1.02254188060760498
-3.27947425842285156 3.80593013763427734 -1.02779853343963623
-3.31507086753845215 3.8268120288848877 -1.03129780292510986
-3.1681365966796875 3.85924863815307617 -0.886773288249969482
-3.25764179229736328 3.83125424385070801 -0.878031492233276367
-3.12595057487487793 3.83546137809753418 -0.988728523254394531
-3.29280424118041992 3.86083769798278809 -0.899739980697631836
-3.23099994659423828 3.79699993133544922 -0.888000011444091797
-3.29121994972229004 3.81794571876525879 -0.962751388549804688
-3.2574763298034668 3.77205514907836914 -0.886517047882080078
-3.19520044326782227 3.88598537445068359 -0.871293067932128906
-3.2597355842590332 3.81541872024536133 -0.951303005218505859
-3.18780636787414551 3.80808758735656738 -0.876295089721679688
-3.20185136795043945 3.83088517189025879 -0.917557001113891602
-3.17899990081787109 3.87299990653991699 -0.915000021457672119
-3.28600001335144043 3.85500001907348633 -1.03199994564056396
-3.27123832702636719 3.93412089347839355 -0.999217689037322998
-3.11510396003723145 3.82210254669189453 -1.0025557279586792
-3.20847463607788086 3.74767732620239258 -0.874597012996673584
-3.32324647903442383 3.82428312301635742 -1.01575422286987305
-3.2929999828338623 3.82500004768371582 -1.04600000381469727
-3.25185346603393555 3.87598013877868652 -1.04288887977600098
-3.25663304328918457 3.85529470443725586 -1.02153325080871582
-3.18096256256103516 3.8876798152923584 -0.922192633152008057
-3.2929999828338623 3.82299995422363281 -1.01600003242492676
-3.19743061065673828 3.75582122802734375 -1.01153039932250977
-3.25200009346008301 3.82800006866455078 -1.06200003623962402
-3.29618501663208008 3.8513038158416748 -1.06027626991271973
-3.24501991271972656 3.87035131454467773 -1.02848434448242188
-3.19000005722045898 3.84599995613098145 -0.921999990940093994
-3.17100000381469727 3.86899995803833008 -0.893000006675720215
-3.17199993133544922 3.86100006103515625 -0.925999999046325684
-3.1412193775177002 3.78186702728271484 -0.87846904993057251
-3.27489233016967773 3.87239980697631836 -0.954962551593780518
-3.19398188591003418 3.83851933479309082 -0.860879719257354736
-3.17294669151306152 3.87299990653991699 -0.953833878040313721
-3.13825774192810059 3.7557976245880127 -0.991404354572296143
-3.21340441703796387 3.73895716667175293 -0.892695724964141846
-3.30099606513977051 3.85597610473632812 -0.94688183069229126
-3.2070000171661377 3.87700009346008301 -0.879000008106231689
-3.24150252342224121 3.82566308975219727 -0.954063951969146729
-3.29843354225158691 3.85813593864440918 -0.95961838960647583
-3.19991803169250488 3.88570499420166016 -0.959356188774108887
-3.28600001335144043 3.82299995422363281 -1.05299997329711914
-3.17562675476074219 3.87846851348876953 -1.00079882144927979
-3.21094632148742676 3.79833483695983887 -1.06125020980834961
-3.27296614646911621 3.90557956695556641 -1.05600082874298096
-3.26736927032470703 3.86629223823547363 -1.02576637268066406
-3.25599479675292969 3.81479310989379883 -1.05731821060180664
-3.18600010871887207 3.77399992942810059 -1.03299999237060547
-3.24450564384460449 3.82039618492126465 -1.0633469820022583
-3.18909811973571777 3.86923313140869141 -1.01125752925872803
-3.26999998092651367 3.87700009346008301 -1.0429999828338623
-3.30685544013977051 3.82718181610107422 -0.948453187942504883
3 22 352 91 255 255 255
3 352 50 91 255 255 255
3 147 352 22 255 255 255
3 91 160 22 255 255 255
3 50 170 91 255 255 255
3 270 50 352 255 255 255
3 91 170 350 255 255 255
3 352 259 140 255 255 255
3 22 31 147 255 255 255
3 353 31 22 255 255 255
3 170 109 350 255 255 255
3 50 281 170 255 255 255
3 23 86 50 255 255 255
3 50 270 23 255 255 255
3 147 259 352 255 255 255
3 353 118 31 255 255 255
3 281 324 170 255 255 255
3 50 155 281 255 255 255
3 86 10 50 255 255 255
3 270 110 23 255 255 255
3 353 67 118 255 255 255
3 192 67 353 255 255 255
3 109 39 350 255 255 255
3 281 154 324 255 255 255
3 270 305 110 255 255 255
3 270 274 305 255 255 255
3 270 140 274 255 255 255
3 259 116 140 255 255 255
3 31 220 147 255 255 255
3 109 151 39 255 255 255
3 86 304 10 255 255 255
3 86 56 304 255 255 255
3 259 195 116 255 255 255
3 397 107 118 255 255 255
3 118 67 397 255 255 255
3 56 108 304 255 255 255
3 110 56 23 255 255 255
3 111 274 140 255 255 255
3 140 116 111 255 255 255
3 116 85 111 255 255 255
3 220 317 147 255 255 255
3 118 107 31 255 255 255
3 107 174 31 255 255 255
3 150 155 10 255 255 255
3 10 149 150 255 255 255
3 304 149 10 255 255 255
3 108 381 304 255 255 255
3 110 108 56 255 255 255
3 110 169 108 255 255 255
3 305 274 110 255 255 255
3 67 14 397 255 255 255
3 138 14 67 255 255 255
3 67 342 138 255 255 255
3 192 342 67 255 255 255
3 192 368 342 255 255 255
3 151 20 39 255 255 255
3 109 380 151 255 255 255
3 116 195 409 255 255 255
3 220 126 317 255 255 255
3 220 41 126 255 255 255
3 174 41 31 255 255 255
3 38 160 39 255 255 255
3 39 369 38 255 255 255
3 380 88 151 255 255 255
3 109 302 380 255 255 255
3 107 163 174 255 255 255
3 138 366 14 255 255 255
3 20 369 39 255 255 255
3 195 390 409 255 255 255
3 174 126 41 255 255 255
3 163 300 174 255 255 255
3 366 421 14 255 255 255
3 367 366 138 255 255 255
3 368 13 342 255 255 255
3 369 368 38 255 255 255
3 226 320 88 255 255 255
3 88 380 226 255 255 255
3 304 379 149 255 255 255
3 409 390 85 255 255 255
3 300 408 174 255 255 255
3 368 369 13 255 255 255
3 369 191 13 255 255 255
3 20 370 369 255 255 255
3 380 425 226 255 255 255
3 381 49 304 255 255 255
3 49 125 304 255 255 255
3 269 169 111 255 255 255
3 111 84 269 255 255 255
3 85 84 111 255 255 255
3 408 44 174 255 255 255
3 367 238 366 255 255 255
3 370 373 369 255 255 255
3 320 258 88 255 255 255
3 320 30 258 255 255 255
3 379 128 149 255 255 255
3 85 390 84 255 255 255
3 141 37 390 255 255 255
3 390 195 141 255 255 255
3 320 209 30 255 255 255
3 226 209 320 255 255 255
3 379 214 128 255 255 255
3 49 36 125 255 255 255
3 49 117 36 255 255 255
3 49 307 117 255 255 255
3 84 307 269 255 255 255
3 390 331 84 255 255 255
3 279 264 390 255 255 255
3 390 37 279 255 255 255
3 195 326 141 255 255 255
3 317 124 123 255 255 255
3 408 54 44 255 255 255
3 370 240 373 255 255 255
3 20 396 370 255 255 255
3 258 136 88 255 255 255
3 226 425 209 255 255 255
3 117 84 36 255 255 255
3 390 264 331 255 255 255
3 264 284 331 255 255 255
3 326 123 141 255 255 255
3 123 326 317 255 255 255
3 126 124 317 255 255 255
3 127 124 126 255 255 255
3 408 359 54 255 255 255
3 300 359 408 255 255 255
3 370 80 240 255 255 255
3 20 136 396 255 255 255
3 128 283 149 255 255 255
3 379 125 214 255 255 255
3 36 331 125 255 255 255
3 84 331 36 255 255 255
3 37 257 279 255 255 255
3 124 127 282 255 255 255
3 312 359 300 255 255 255
3 312 4 359 255 255 255
3 80 337 240 255 255 255
3 136 137 396 255 255 255
3 136 20 88 255 255 255
3 258 371 136 255 255 255
3 125 331 214 255 255 255
3 264 3 284 255 255 255
3 257 3 279 255 255 255
3 26 123 37 255 255 255
3 300 372 312 255 255 255
3 137 80 396 255 255 255
3 136 374 137 255 255 255
3 146 252 30 255 255 255
3 30 209 146 255 255 255
3 331 199 214 255 255 255
3 3 285 284 255 255 255
3 37 43 257 255 255 255
3 123 43 37 255 255 255
3 26 141 123 255 255 255
3 282 52 124 255 255 255
3 127 323 282 255 255 255
3 4 325 359 255 255 255
3 312 276 4 255 255 255
3 240 72 373 255 255 255
3 371 134 136 255 255 255
3 252 253 258 255 255 255
3 127 272 323 255 255 255
3 372 251 312 255 255 255
3 373 72 191 255 255 255
3 240 207 72 255 255 255
3 136 134 391 255 255 255
3 253 371 258 255 255 255
3 146 278 252 255 255 255
3 146 209 278 255 255 255
3 283 178 261 255 255 255
3 51 351 284 255 255 255
3 4 156 325 255 255 255
3 374 345 137 255 255 255
3 253 92 371 255 255 255
3 252 278 253 255 255 255
3 413 253 278 255 255 255
3 278 354 413 255 255 255
3 128 142 283 255 255 255
3 351 199 284 255 255 255
3 284 285 51 255 255 255
3 285 384 51 255 255 255
3 3 311 285 255 255 255
3 257 311 3 255 255 255
3 207 420 72 255 255 255
3 345 392 137 255 255 255
3 391 134 374 255 255 255
3 237 134 371 255 255 255
3 371 391 237 255 255 255
3 92 75 371 255 255 255
3 278 410 354 255 255 255
3 283 142 149 255 255 255
3 257 43 311 255 255 255
3 52 404 43 255 255 255
3 133 346 372 255 255 255
3 392 337 137 255 255 255
3 134 239 139 255 255 255
3 237 374 134 255 255 255
3 75 182 371 255 255 255
3 354 202 413 255 255 255
3 311 255 285 255 255 255
3 404 311 43 255 255 255
3 127 287 272 255 255 255
3 133 163 346 255 255 255
3 207 299 420 255 255 255
3 392 415 337 255 255 255
3 374 239 134 255 255 255
3 92 249 75 255 255 255
3 45 405 354 255 255 255
3 142 351 149 255 255 255
3 384 355 254 255 255 255
3 285 355 384 255 255 255
3 292 251 372 255 255 255
3 372 130 292 255 255 255
3 134 139 374 255 255 255
3 237 250 374 255 255 255
3 182 250 237 255 255 255
3 182 76 250 255 255 255
3 75 16 182 255 255 255
3 405 202 354 255 255 255
3 354 172 45 255 255 255
3 410 413 354 255 255 255
3 384 152 51 255 255 255
3 171 93 285 255 255 255
3 311 404 255 255 255 255
3 127 82 287 255 255 255
3 346 130 372 255 255 255
3 172 306 45 255 255 255
3 254 93 384 255 255 255
3 355 286 254 255 255 255
3 255 171 285 255 255 255
3 255 404 271 255 255 255
3 404 290 271 255 255 255
3 292 58 251 255 255 255
3 130 61 292 255 255 255
3 346 59 130 255 255 255
3 299 365 420 255 255 255
3 16 76 182 255 255 255
3 405 196 202 255 255 255
3 405 306 196 255 255 255
3 355 216 286 255 255 255
3 171 286 93 255 255 255
3 271 93 255 255 255 255
3 404 70 290 255 255 255
3 251 65 389 255 255 255
3 57 251 58 255 255 255
3 58 291 57 255 255 255
3 130 62 61 255 255 255
3 130 59 167 255 255 255
3 59 421 167 255 255 255
3 207 64 299 255 255 255
3 207 81 64 255 255 255
3 16 343 63 255 255 255
3 172 87 306 255 255 255
3 286 216 93 255 255 255
3 287 360 272 255 255 255
3 58 61 291 255 255 255
3 60 21 62 255 255 255
3 207 415 81 255 255 255
3 16 387 76 255 255 255
3 172 201 87 255 255 255
3 286 321 216 255 255 255
3 288 82 272 255 255 255
3 272 360 288 255 255 255
3 287 268 360 255 255 255
3 61 187 291 255 255 255
3 62 66 60 255 255 255
3 16 63 387 255 255 255
3 63 348 387 255 255 255
3 306 289 196 255 255 255
3 268 356 360 255 255 255
3 251 57 65 255 255 255
3 299 422 365 255 255 255
3 64 81 185 255 255 255
3 148 241 343 255 255 255
3 289 40 196 255 255 255
3 87 1 306 255 255 255
3 288 323 82 255 255 255
3 65 186 389 255 255 255
3 65 57 186 255 255 255
3 66 21 60 255 255 255
3 365 422 420 255 255 255
3 422 294 420 255 255 255
3 185 398 64 255 255 255
3 201 102 87 255 255 255
3 201 378 5 255 255 255
3 216 229 286 255 255 255
3 290 288 360 255 255 255
3 288 70 323 255 255 255
3 287 221 268 255 255 255
3 294 64 420 255 255 255
3 185 347 398 255 255 255
3 343 249 148 255 255 255
3 306 1 289 255 255 255
3 5 102 201 255 255 255
3 216 230 229 255 255 255
3 216 210 230 255 255 255
3 321 143 375 255 255 255
3 321 193 143 255 255 255
3 360 356 290 255 255 255
3 268 322 356 255 255 255
3 186 377 389 255 255 255
3 422 398 294 255 255 255
3 185 295 347 255 255 255
3 250 399 208 255 255 255
3 76 399 250 255 255 255
3 201 327 378 255 255 255
3 2 327 201 255 255 255
3 377 273 389 255 255 255
3 187 181 291 255 255 255
3 66 62 21 255 255 255
3 17 236 66 255 255 255
3 295 334 347 255 255 255
3 208 348 81 255 255 255
3 76 345 399 255 255 255
3 196 40 34 255 255 255
3 1 89 289 255 255 255
3 1 364 89 255 255 255
3 5 158 102 255 255 255
3 378 55 5 255 255 255
3 210 277 230 255 255 255
3 143 6 375 255 255 255
3 193 120 143 255 255 255
3 356 152 290 255 255 255
3 273 276 389 255 255 255
3 186 336 377 255 255 255
3 187 35 181 255 255 255
3 236 187 66 255 255 255
3 17 245 236 255 255 255
3 347 344 333 255 255 255
3 334 393 347 255 255 255
3 348 185 81 255 255 255
3 158 204 102 255 255 255
3 378 327 55 255 255 255
3 193 406 120 255 255 255
3 152 271 290 255 255 255
3 377 319 273 255 255 255
3 187 236 35 255 255 255
3 245 293 236 255 255 255
3 66 15 17 255 255 255
3 365 417 99 255 255 255
3 1 7 364 255 255 255
3 327 175 94 255 255 255
3 2 175 327 255 255 255
3 143 8 6 255 255 255
3 120 8 143 255 255 255
3 336 315 377 255 255 255
3 291 296 68 255 255 255
3 181 296 291 255 255 255
3 293 12 236 255 255 255
3 99 417 132 255 255 255
3 40 165 34 255 255 255
3 89 112 289 255 255 255
3 135 112 89 255 255 255
3 215 168 204 255 255 255
3 158 215 204 255 255 255
3 327 94 275 255 255 255
3 6 402 375 255 255 255
3 200 206 120 255 255 255
3 120 106 200 255 255 255
3 120 406 106 255 255 255
3 319 156 273 255 255 255
3 132 162 99 255 255 255
3 417 73 132 255 255 255
3 344 96 333 255 255 255
3 7 173 364 255 255 255
3 204 113 102 255 255 255
3 168 69 204 255 255 255
3 215 144 168 255 255 255
3 158 157 215 255 255 255
3 327 275 55 255 255 255
3 175 83 94 255 255 255
3 6 256 402 255 255 255
3 6 260 256 255 255 255
3 8 228 6 255 255 255
3 319 114 156 255 255 255
3 245 234 293 255 255 255
3 77 162 132 255 255 255
3 73 262 132 255 255 255
3 417 293 73 255 255 255
3 417 12 293 255 255 255
3 417 339 12 255 255 255
3 295 347 393 255 255 255
3 393 424 295 255 255 255
3 393 344 400 255 255 255
3 247 344 393 255 255 255
3 393 334 247 255 255 255
3 424 78 295 255 255 255
3 135 105 112 255 255 255
3 215 217 144 255 255 255
3 158 55 157 255 255 255
3 55 194 157 255 255 255
3 376 176 275 255 255 255
3 275 83 376 255 255 255
3 2 179 175 255 255 255
3 402 309 375 255 255 255
3 256 161 402 255 255 255
3 228 402 6 255 255 255
3 8 206 228 255 255 255
3 206 200 228 255 255 255
3 406 210 106 255 255 255
3 319 24 114 255 255 255
3 245 15 234 255 255 255
3 238 77 162 255 255 255
3 73 234 262 255 255 255
3 344 247 96 255 255 255
3 344 79 400 255 255 255
3 334 418 247 255 255 255
3 135 205 105 255 255 255
3 173 153 364 255 255 255
3 7 113 173 255 255 255
3 168 330 69 255 255 255
3 144 145 168 255 255 255
3 217 145 144 255 255 255
3 157 217 215 255 255 255
3 55 176 194 255 255 255
3 275 176 55 255 255 255
3 83 175 376 255 255 255
3 179 164 175 255 255 255
3 228 382 260 255 255 255
3 211 46 106 255 255 255
3 106 198 211 255 255 255
3 210 198 106 255 255 255
3 319 315 24 255 255 255
3 339 115 12 255 255 255
3 105 414 112 255 255 255
3 135 153 205 255 255 255
3 153 135 364 255 255 255
3 168 145 330 255 255 255
3 194 145 157 255 255 255
3 228 46 382 255 255 255
3 200 46 228 255 255 255
3 211 29 46 255 255 255
3 242 35 12 255 255 255
3 12 115 242 255 255 255
3 247 79 96 255 255 255
3 394 419 400 255 255 255
3 418 297 247 255 255 255
3 418 78 297 255 255 255
3 78 418 295 255 255 255
3 145 298 330 255 255 255
3 194 298 145 255 255 255
3 197 298 194 255 255 255
3 227 332 256 255 255 255
3 382 411 260 255 255 255
3 46 100 382 255 255 255
3 198 363 211 255 255 255
3 24 221 114 255 255 255
3 15 262 234 255 255 255
3 247 393 79 255 255 255
3 173 227 153 255 255 255
3 212 69 330 255 255 255
3 212 301 69 255 255 255
3 212 358 301 255 255 255
3 194 42 197 255 255 255
3 376 42 176 255 255 255
3 227 203 332 255 255 255
3 256 260 227 255 255 255
3 411 9 260 255 255 255
3 411 29 9 255 255 255
3 29 411 46 255 255 255
3 411 100 46 255 255 255
3 411 29 100 255 255 255
3 198 48 363 255 255 255
3 79 235 96 255 255 255
3 203 205 153 255 255 255
3 203 395 205 255 255 255
3 173 177 227 255 255 255
3 42 225 197 255 255 255
3 179 32 164 255 255 255
3 29 303 9 255 255 255
3 29 46 100 255 255 255
3 411 303 29 255 255 255
3 48 308 363 255 255 255
3 79 18 235 255 255 255
3 393 400 79 255 255 255
3 78 340 243 255 255 255
3 313 414 105 255 255 255
3 205 395 105 255 255 255
3 301 358 69 255 255 255
3 225 231 197 255 255 255
3 9 277 260 255 255 255
3 411 260 303 255 255 255
3 308 301 363 255 255 255
3 419 394 343 255 255 255
3 243 297 78 255 255 255
3 340 129 243 255 255 255
3 78 180 340 255 255 255
3 395 53 105 255 255 255
3 395 332 386 255 255 255
3 358 212 69 255 255 255
3 301 231 358 255 255 255
3 46 200 100 255 255 255
3 105 53 407 255 255 255
3 386 53 395 255 255 255
3 308 318 301 255 255 255
3 179 385 32 255 255 255
3 243 338 297 255 255 255
3 340 267 129 255 255 255
3 318 363 301 255 255 255
3 179 178 385 255 255 255
3 303 177 9 255 255 255
3 18 188 235 255 255 255
3 338 335 297 255 255 255
3 243 267 338 255 255 255
3 340 74 267 255 255 255
3 53 357 407 255 255 255
3 318 48 363 255 255 255
3 179 11 178 255 255 255
3 188 98 235 255 255 255
3 18 423 188 255 255 255
3 338 131 335 255 255 255
3 74 341 267 255 255 255
3 53 403 357 255 255 255
3 48 211 363 255 255 255
3 385 401 32 255 255 255
3 179 159 11 255 255 255
3 180 424 340 255 255 255
3 403 219 357 255 255 255
3 338 129 131 255 255 255
3 74 244 341 255 255 255
3 407 222 313 255 255 255
3 403 121 219 255 255 255
3 188 115 98 255 255 255
3 423 280 188 255 255 255
3 131 189 335 255 255 255
3 244 101 341 255 255 255
3 74 248 244 255 255 255
3 407 25 222 255 255 255
3 357 25 407 255 255 255
3 121 224 219 255 255 255
3 159 0 11 255 255 255
3 74 341 248 255 255 255
3 403 386 121 255 255 255
3 159 412 0 255 255 255
3 18 218 423 255 255 255
3 335 388 248 255 255 255
3 189 388 335 255 255 255
3 341 27 248 255 255 255
3 90 27 74 255 255 255
3 74 266 90 255 255 255
3 74 97 189 255 255 255
3 25 47 222 255 255 255
3 386 161 121 255 255 255
3 412 213 0 255 255 255
3 423 416 183 255 255 255
3 218 416 423 255 255 255
3 189 90 388 255 255 255
3 248 335 244 255 255 255
3 27 388 248 255 255 255
3 74 189 266 255 255 255
3 224 322 219 255 255 255
3 121 401 224 255 255 255
3 161 229 121 255 255 255
3 213 33 0 255 255 255
3 322 233 219 255 255 255
3 161 309 229 255 255 255
3 74 266 97 255 255 255
3 322 95 233 255 255 255
3 213 28 33 255 255 255
3 412 383 213 255 255 255
3 159 104 412 255 255 255
3 47 183 416 255 255 255
3 47 25 183 255 255 255
3 416 218 47 255 255 255
3 248 341 101 255 255 255
3 183 328 280 255 255 255
3 218 183 47 255 255 255
3 248 232 341 255 255 255
3 28 324 33 255 255 255
3 28 314 324 255 255 255
3 383 314 213 255 255 255
3 246 190 316 255 255 255
3 122 104 349 255 255 255
3 223 329 362 255 255 255
3 19 190 310 255 255 255
3 184 166 103 255 255 255
3 361 254 265 255 255 255
3 119 263 71 255 255 255
