ply
format ascii 1.0
element vertex 317
property float x
property float y
property float z
element face 576
property list uchar int vertex_indices
property uchar red
property uchar green
property uchar blue
end_header
-0.351919412612915039 5.58919477462768555 -0.844199180603027344
-0.289776235818862915 5.68625545501708984 -0.516762912273406982
-0.262492656707763672 5.80889749526977539 -0.31062355637550354
-0.250380396842956543 5.68847894668579102 -0.334410697221755981
-0.385898321866989136 5.72286224365234375 -0.692442715167999268
-0.373625367879867554 5.70689916610717773 -0.743794262409210205
-0.208582937717437744 5.81084728240966797 -0.408194988965988159
-0.321999996900558472 5.60799980163574219 -0.816999971866607666
-0.268596857786178589 5.6442255973815918 -0.66632920503616333
-0.248531073331832886 5.76089906692504883 -0.58752518892288208
-0.287946552038192749 5.61327981948852539 -0.867871463298797607
-0.335000008344650269 5.60099983215332031 -0.93199998140335083
-0.350154131650924683 5.62494373321533203 -0.974414169788360596
-0.309311658143997192 5.57878684997558594 -0.999321103096008301
-0.40700000524520874 5.60400009155273438 -0.607999980449676514
-0.409129530191421509 5.60043764114379883 -0.537200689315795898
-0.423105686902999878 5.58960437774658203 -0.578948318958282471
-0.42130163311958313 5.63358974456787109 -0.425950735807418823
-0.250538468360900879 5.82618379592895508 -0.258104085922241211
-0.274324804544448853 5.80391693115234375 -0.184575200080871582
-0.205357074737548828 5.72140169143676758 -0.431740701198577881
-0.261000007390975952 5.69099998474121094 -0.722000002861022949
-0.31099998950958252 5.63100004196166992 -1.00499999523162842
-0.35499998927116394 5.61100006103515625 -0.898999989032745361
-0.308961838483810425 5.62435626983642578 -1.03279709815979004
-0.178857743740081787 5.81773281097412109 -0.256930559873580933
-0.352587133646011353 5.64340114593505859 -0.96011197566986084
-0.275000005960464478 5.71799993515014648 -0.666999995708465576
-0.459908843040466309 5.56970977783203125 -0.277612179517745972
-0.219507977366447449 5.80495595932006836 -0.449230700731277466
-0.357222437858581543 5.60116195678710938 -0.809048354625701904
-0.230187073349952698 5.75895547866821289 -0.525397717952728271
-0.310657143592834473 5.69564294815063477 -0.33076360821723938
-0.282939285039901733 5.78680562973022461 -0.452364355325698853
-0.25278434157371521 5.83826398849487305 -0.191893160343170166
-0.465096533298492432 5.61321115493774414 -0.316818386316299438
-0.421999990940093994 5.57100009918212891 -0.578000009059906006
-0.189398765563964844 5.89203500747680664 -0.276048779487609863
-0.283668994903564453 5.68670463562011719 -0.443192273378372192
-0.291000008583068848 5.84100008010864258 -0.180000007152557373
-0.355062037706375122 5.67431879043579102 -0.904987931251525879
-0.344369292259216309 5.57101297378540039 -0.914931654930114746
-0.196999996900558472 5.82800006866455078 -0.384999990463256836
-0.317999988794326782 5.625 -0.777000010013580322
-0.419983208179473877 5.61536693572998047 -0.467378616333007812
-0.305677533149719238 5.63298130035400391 -0.688289761543273926
-0.184766888618469238 5.69646501541137695 -0.581858038902282715
-0.28200000524520874 5.68400001525878906 -0.689999997615814209
-0.364495933055877686 5.68816137313842773 -0.829058349132537842
-0.281077563762664795 5.64920473098754883 -0.951510846614837646
-0.212325930595397949 5.6899571418762207 -0.573612570762634277
-0.318664789199829102 5.67001199722290039 -0.620753765106201172
-0.376348733901977539 5.59142684936523438 -0.684457540512084961
-0.300115227699279785 5.68482494354248047 -0.600570321083068848
-0.412988662719726562 5.60404491424560547 -0.676604747772216797
-0.425000011920928955 5.59200000762939453 -0.55699998140335083
-0.268364667892456055 5.79870510101318359 -0.493464291095733643
-0.437949299812316895 5.58702707290649414 -0.518952071666717529
-0.28200000524520874 5.69799995422363281 -0.344000011682510376
-0.284000009298324585 5.6810002326965332 -0.694000005722045898
-0.351999998092651367 5.6100001335144043 -0.902999997138977051
-0.349999994039535522 5.61800003051757812 -0.952000021934509277
-0.222343727946281433 5.79279756546020508 -0.495643377304077148
-0.204724565148353577 5.83131742477416992 -0.380585461854934692
-0.208017513155937195 5.82992076873779297 -0.350052714347839355
-0.180122420191764832 5.66530323028564453 -0.446174383163452148
-0.416695088148117065 5.59917259216308594 -0.648578763008117676
-0.205537691712379456 5.72117042541503906 -0.464678198099136353
-0.260951101779937744 5.68574190139770508 -0.301972031593322754
-0.256444066762924194 5.77306652069091797 -0.443753033876419067
-0.317053347826004028 5.68428421020507812 -0.338243931531906128
-0.284000009298324585 5.64499998092651367 -0.837000012397766113
-0.280907124280929565 5.69031953811645508 -0.41279187798500061
-0.253514707088470459 5.83401870727539062 -0.187553226947784424
-0.291615784168243408 5.66933059692382812 -0.553915560245513916
-0.259000003337860107 5.71500015258789062 -0.726000010967254639
-0.287546843290328979 5.72018718719482422 -0.333105206489562988
-0.461273074150085449 5.61705684661865234 -0.416312038898468018
-0.252999991178512573 5.85599994659423828 -0.208000004291534424
-0.282275885343551636 5.79672479629516602 -0.28433990478515625
-0.185679957270622253 5.69138050079345703 -0.423515111207962036
-0.421000003814697266 5.58599996566772461 -0.490999996662139893
-0.440503597259521484 5.65469503402709961 -0.278254777193069458
-0.270999997854232788 5.62900018692016602 -0.657999992370605469
-0.36991003155708313 5.59261035919189453 -0.655502140522003174
-0.247999995946884155 5.62099981307983398 -0.759999990463256836
-0.288579791784286499 5.79614925384521484 -0.521379709243774414
-0.270999997854232788 5.78499984741210938 -0.575999975204467773
-0.388323873281478882 5.60015439987182617 -0.741441726684570312
-0.382921487092971802 5.60974454879760742 -0.672016918659210205
-0.34624210000038147 5.64001989364624023 -0.924185454845428467
-0.35899999737739563 5.61999988555908203 -0.885999977588653564
-0.281441390514373779 5.80423974990844727 -0.499050348997116089
-0.456999987363815308 5.59299993515014648 -0.474000006914138794
-0.455804914236068726 5.60336971282958984 -0.453837543725967407
-0.266273081302642822 5.81493473052978516 -0.222334384918212891
-0.391149818897247314 5.59194040298461914 -0.495467811822891235
-0.23268735408782959 5.815521240234375 -0.260508090257644653
-0.347999989986419678 5.59499979019165039 -0.915000021457672119
-0.24053637683391571 5.76342058181762695 -0.458026677370071411
-0.217907950282096863 5.82571029663085938 -0.285494953393936157
-0.184000000357627869 5.71500015258789062 -0.483000010251998901
-0.215820133686065674 5.79190921783447266 -0.466267675161361694
-0.431680470705032349 5.66336631774902344 -0.320952475070953369
-0.289999991655349731 5.66499996185302734 -0.773999989032745361
-0.294999986886978149 5.62699985504150391 -0.728999972343444824
-0.2997589111328125 5.62748003005981445 -0.776183545589447021
-0.264994919300079346 5.74982738494873047 -0.612808883190155029
-0.260757774114608765 5.77848005294799805 -0.600731849670410156
-0.383259356021881104 5.68367147445678711 -0.769169092178344727
-0.287582367658615112 5.68764591217041016 -0.824737608432769775
-0.346445530652999878 5.61452817916870117 -0.73621368408203125
-0.29800000786781311 5.61999988555908203 -0.712000012397766113
-0.372999995946884155 5.67700004577636719 -0.815999984741210938
-0.279999762773513794 5.67500066757202148 -0.506001055240631104
-0.236619234085083008 5.78441572189331055 -0.291920661926269531
-0.282177388668060303 5.70340442657470703 -0.679282546043395996
-0.360362619161605835 5.70905447006225586 -0.642828226089477539
-0.39100000262260437 5.58599996566772461 -0.545000016689300537
-0.26600000262260437 5.72399997711181641 -0.68900001049041748
-0.285983800888061523 5.65048885345458984 -0.327724039554595947
-0.352807581424713135 5.64238357543945312 -0.89562690258026123
-0.271659731864929199 5.61315441131591797 -0.775148928165435791
-0.231999993324279785 5.67899990081787109 -0.68199998140335083
-0.212975561618804932 5.67806100845336914 -0.675534367561340332
-0.345873475074768066 5.67404937744140625 -0.927098333835601807
-0.272871434688568115 5.78470706939697266 -0.50879979133605957
-0.28600001335144043 5.78599977493286133 -0.528999984264373779
-0.287000000476837158 5.80299997329711914 -0.449000000953674316
-0.261491894721984863 5.78724861145019531 -0.414641439914703369
-0.426839113235473633 5.61877918243408203 -0.477856099605560303
-0.418000012636184692 5.59399986267089844 -0.533999979496002197
-0.286874175071716309 5.68177890777587891 -0.476479649543762207
-0.284009248018264771 5.67909336090087891 -0.433855950832366943
-0.268999993801116943 5.70599985122680664 -0.720000028610229492
-0.316000014543533325 5.63399982452392578 -0.722000002861022949
-0.273000001907348633 5.74700021743774414 -0.644999980926513672
-0.271009176969528198 5.72981977462768555 -0.632560372352600098
-0.268879979848861694 5.71504354476928711 -0.682527124881744385
-0.232045829296112061 5.66758060455322266 -0.682014703750610352
-0.299253731966018677 5.63035917282104492 -0.832997798919677734
-0.315854430198669434 5.59833908081054688 -0.939431130886077881
-0.295706272125244141 5.61791896820068359 -0.645864427089691162
-0.29794803261756897 5.65367221832275391 -0.615826964378356934
-0.30899125337600708 5.85467672348022461 -0.207735329866409302
-0.166999995708465576 5.68699979782104492 -0.433999985456466675
-0.267228752374649048 5.82487344741821289 -0.234117835760116577
-0.386228263378143311 5.57202816009521484 -0.515116095542907715
-0.377704739570617676 5.6551361083984375 -0.838676393032073975
-0.246967777609825134 5.78944635391235352 -0.538629293441772461
-0.177674204111099243 5.7381596565246582 -0.446803241968154907
-0.31099998950958252 5.66699981689453125 -0.610000014305114746
-0.357794135808944702 5.6051793098449707 -0.750077545642852783
-0.298016071319580078 5.79120111465454102 -0.457847446203231812
-0.460105031728744507 5.60936784744262695 -0.42824825644493103
-0.377846807241439819 5.73292779922485352 -0.673245608806610107
-0.253700435161590576 5.6837162971496582 -0.694634377956390381
-0.320242315530776978 5.61805438995361328 -0.770403861999511719
-0.37946668267250061 5.61856985092163086 -0.725634515285491943
-0.250724941492080688 5.62743377685546875 -0.774917781352996826
-0.185149580240249634 5.6827549934387207 -0.64905625581741333
-0.32495465874671936 5.63877296447753906 -0.665464997291564941
-0.289373308420181274 5.67244720458984375 -0.783433616161346436
-0.218723639845848083 5.67317962646484375 -0.723315298557281494
-0.238893628120422363 5.70337295532226562 -0.701052367687225342
-0.262742608785629272 5.66518878936767578 -0.741049766540527344
-0.277000010013580322 5.75099992752075195 -0.606000006198883057
-0.425599366426467896 5.59301233291625977 -0.483200311660766602
-0.363581448793411255 5.59360837936401367 -0.698739767074584961
-0.266802042722702026 5.74797296524047852 -0.634886443614959717
-0.324752002954483032 5.66155529022216797 -0.751408219337463379
-0.330000013113021851 5.61499977111816406 -0.643999993801116943
-0.32479134202003479 5.67392539978027344 -0.781687617301940918
-0.322089731693267822 5.68651914596557617 -0.764600098133087158
-0.242073759436607361 5.70186662673950195 -0.708970069885253906
-0.254999995231628418 5.72599983215332031 -0.694999992847442627
-0.284335464239120483 5.68544483184814453 -0.716499626636505127
-0.283108800649642944 5.72360467910766602 -0.684581756591796875
-0.267399489879608154 5.71107292175292969 -0.714381754398345947
-0.30363038182258606 5.70179462432861328 -0.706473231315612793
-0.290685683488845825 5.65230703353881836 -0.718743503093719482
-0.272497892379760742 5.8285517692565918 -0.46398356556892395
-0.284999996423721313 5.61600017547607422 -0.754000008106231689
-0.370000004768371582 5.57999992370605469 -0.726000010967254639
-0.309583216905593872 5.59597396850585938 -0.997210144996643066
-0.349000006914138794 5.59899997711181641 -0.990000009536743164
-0.398999989032745361 5.57999992370605469 -0.527000010013580322
-0.32699999213218689 5.62599992752075195 -0.638000011444091797
-0.265967220067977905 5.76136922836303711 -0.444994986057281494
-0.220436811447143555 5.82985210418701172 -0.234653428196907043
-0.191803827881813049 5.83924961090087891 -0.316290915012359619
-0.25974726676940918 5.7763214111328125 -0.485738515853881836
-0.234999999403953552 5.80399990081787109 -0.275000005960464478
-0.436013311147689819 5.60020828247070312 -0.469298362731933594
-0.436339646577835083 5.63503265380859375 -0.413909494876861572
-0.289975434541702271 5.85435581207275391 -0.198402747511863708
-0.294288724660873413 5.7037196159362793 -0.34964442253112793
-0.395649164915084839 5.58030080795288086 -0.557665526866912842
-0.29195895791053772 5.68097019195556641 -0.418568968772888184
-0.347000002861022949 5.61299991607666016 -0.952000021934509277
-0.425000011920928955 5.59999990463256836 -0.619000017642974854
-0.289999991655349731 5.80499982833862305 -0.485000014305114746
-0.399659991264343262 5.61154985427856445 -0.607674837112426758
-0.219181224703788757 5.69272089004516602 -0.422884464263916016
-0.320388495922088623 5.64879989624023438 -0.931748449802398682
-0.281669676303863525 5.77058887481689453 -0.565077722072601318
-0.349624276161193848 5.65188026428222656 -0.80807185173034668
-0.318390488624572754 5.63909006118774414 -0.765550613403320312
-0.277944982051849365 5.63984298706054688 -0.901022732257843018
-0.31400001049041748 5.60900020599365234 -0.871999979019165039
-0.324868440628051758 5.677581787109375 -0.980728268623352051
-0.412639439105987549 5.5936274528503418 -0.624071300029754639
-0.385819792747497559 5.67504596710205078 -0.95481562614440918
-0.328999996185302734 5.60500001907348633 -0.883000016212463379
-0.143136948347091675 5.69730663299560547 -0.456806451082229614
-0.296000003814697266 5.70399999618530273 -0.34299999475479126
-0.394116699695587158 5.55932378768920898 -0.495395034551620483
-0.288870424032211304 5.80736827850341797 -0.528118908405303955
-0.446252524852752686 5.60431623458862305 -0.413062393665313721
-0.416000008583068848 5.58099985122680664 -0.512000024318695068
-0.206069156527519226 5.67401027679443359 -0.662643909454345703
-0.243451759219169617 5.64446353912353516 -0.757501602172851562
-0.218728110194206238 5.6771235466003418 -0.626961112022399902
-0.177311703562736511 5.65824985504150391 -0.593939900398254395
-0.28200000524520874 5.78399991989135742 -0.541999995708465576
-0.237000003457069397 5.78000020980834961 -0.465999990701675415
-0.398706823587417603 5.59371328353881836 -0.519473075866699219
-0.246000006794929504 5.82200002670288086 -0.270999997854232788
-0.350976347923278809 5.75765800476074219 -0.6405448317527771
-0.293000012636184692 5.69099998474121094 -0.356000006198883057
-0.324000000953674316 5.6659998893737793 -0.773000001907348633
-0.296000003814697266 5.68300008773803711 -0.342000007629394531
-0.28200000524520874 5.77600002288818359 -0.577000021934509277
-0.32699999213218689 5.65600013732910156 -1.03199994564056396
-0.294317752122879028 5.61392450332641602 -1.05001294612884521
-0.365388095378875732 5.64773893356323242 -1.00888693332672119
-0.346976190805435181 5.60913515090942383 -1.04440617561340332
-0.376944690942764282 5.62585544586181641 -1.0396883487701416
-0.461779206991195679 5.63232707977294922 -0.330672025680541992
-0.45561334490776062 5.6196751594543457 -0.36066851019859314
-0.39742964506149292 5.74701261520385742 -0.633769690990447998
-0.372999995946884155 5.61899995803833008 -1.00199997425079346
-0.323000013828277588 5.64400005340576172 -1.03199994564056396
-0.447956889867782593 5.62041616439819336 -0.441034585237503052
-0.274551570415496826 5.69267034530639648 -0.534048914909362793
-0.324322670698165894 5.6464996337890625 -0.625544548034667969
-0.257999986410140991 5.71199989318847656 -0.705999970436096191
-0.27610507607460022 5.61615514755249023 -0.748664438724517822
-0.363169938325881958 5.61444234848022461 -0.82423323392868042
-0.264178663492202759 5.63731956481933594 -0.8021431565284729
-0.307882159948348999 5.65555620193481445 -0.67256462574005127
-0.405999988317489624 5.58699989318847656 -0.610000014305114746
-0.208651095628738403 5.81886482238769531 -0.399113357067108154
-0.277534276247024536 5.67446041107177734 -0.533845901489257812
-0.296411365270614624 5.81968164443969727 -0.461943507194519043
-0.237466007471084595 5.77809286117553711 -0.477494329214096069
-0.270990252494812012 5.79390907287597656 -0.318277090787887573
-0.412287712097167969 5.58161640167236328 -0.480483800172805786
-0.497114717960357666 5.62664937973022461 -0.262769699096679688
-0.406581342220306396 5.57713413238525391 -0.543475687503814697
-0.289000004529953003 5.70699977874755859 -0.33899998664855957
-0.275889724493026733 5.83108282089233398 -0.17667745053768158
-0.203999996185302734 5.7909998893737793 -0.444999992847442627
-0.336151957511901855 5.59834575653076172 -0.827579200267791748
-0.361817210912704468 5.70015382766723633 -0.782079517841339111
-0.253397613763809204 5.67567968368530273 -0.807598352432250977
-0.263525396585464478 5.76237392425537109 -0.553189992904663086
-0.350371390581130981 5.6503148078918457 -0.76321721076965332
-0.321944981813430786 5.68120908737182617 -0.803960442543029785
-0.324414521455764771 5.67962884902954102 -0.873482823371887207
-0.256749182939529419 5.62567138671875 -0.744368672370910645
-0.246057376265525818 5.65171432495117188 -0.6572074294090271
-0.249352067708969116 5.75853729248046875 -0.631508469581604004
-0.377633839845657349 5.69672775268554688 -0.796205520629882812
-0.403132855892181396 5.57419538497924805 -0.595679581165313721
-0.468890935182571411 5.6192784309387207 -0.352778017520904541
-0.324964642524719238 5.66777133941650391 -0.322122067213058472
-0.315990418195724487 5.72023153305053711 -0.31122058629989624
-0.294600009918212891 5.80593156814575195 -0.485864698886871338
-0.259129226207733154 5.80015754699707031 -0.40009605884552002
-0.279000014066696167 5.62799978256225586 -0.72500002384185791
-0.414369672536849976 5.6267094612121582 -0.310362368822097778
-0.209250494837760925 5.80749702453613281 -0.434522897005081177
-0.32663881778717041 5.59569120407104492 -0.914246022701263428
-0.243387416005134583 5.6808624267578125 -0.797962963581085205
-0.24095529317855835 5.66483688354492188 -0.816267848014831543
-0.282371044158935547 5.6159520149230957 -0.81212383508682251
-0.282382071018218994 5.79398250579833984 -0.553808212280273438
-0.374586045742034912 5.6182866096496582 -0.644545197486877441
-0.364171147346496582 5.61204814910888672 -0.856986701488494873
-0.342324376106262207 5.59758424758911133 -0.85514754056930542
-0.390722811222076416 5.58223485946655273 -0.617171049118041992
-0.28600001335144043 5.65999984741210938 -0.596000015735626221
-0.356000006198883057 5.61600017547607422 -0.904999971389770508
-0.326254308223724365 5.60336875915527344 -0.780609726905822754
-0.256999999284744263 5.75 -0.444999992847442627
-0.456104695796966553 5.61534786224365234 -0.378223598003387451
-0.289000004529953003 5.65899991989135742 -0.337000012397766113
1 1 1
-0.268999993801116943 5.61800003051757812 -0.80699998140335083
-0.284749597311019897 5.68744373321533203 -0.405520141124725342
-0.293580085039138794 5.66975879669189453 -1.05426323413848877
-0.293863773345947266 5.59376764297485352 -1.0074392557144165
-0.321916759014129639 5.67859888076782227 -1.04967308044433594
-0.320254474878311157 5.64613962173461914 -1.03878116607666016
-0.351051926612854004 5.58390140533447266 -1.00487315654754639
-0.364500910043716431 5.62943315505981445 -1.01382863521575928
-0.313182324171066284 5.57055902481079102 -1.05126595497131348
-0.324999988079071045 5.59899997711181641 -1.02799999713897705
-0.324000000953674316 5.60900020599365234 -1.01600003242492676
-0.367040306329727173 5.60490703582763672 -1.03186345100402832
-0.429343253374099731 5.6175837516784668 -0.5134735107421875
-0.319999992847442627 5.64799976348876953 -0.736999988555908203
-0.303258240222930908 5.6919398307800293 -0.337732613086700439
-0.382999986410140991 5.60400009155273438 -0.671999990940093994
-0.354865968227386475 5.57369422912597656 -0.920100510120391846
-0.291999995708465576 5.70100021362304688 -0.698000013828277588
3 176 173 177 255 255 255
3 177 174 176 255 255 255
3 177 175 174 255 255 255
3 173 179 177 255 255 255
3 174 21 176 255 255 255
3 175 164 174 255 255 255
3 176 162 173 255 255 255
3 176 165 162 255 255 255
3 178 156 176 255 255 255
3 179 156 116 255 255 255
3 176 21 165 255 255 255
3 176 156 180 255 255 255
3 178 246 156 255 255 255
3 179 116 177 255 255 255
3 176 59 179 255 255 255
3 179 170 176 255 255 255
3 173 162 110 255 255 255
3 176 134 21 255 255 255
3 180 165 176 255 255 255
3 156 8 180 255 255 255
3 246 164 156 255 255 255
3 176 316 178 255 255 255
3 163 165 174 255 255 255
3 174 124 163 255 255 255
3 164 123 174 255 255 255
3 156 47 116 255 255 255
3 179 173 170 255 255 255
3 165 265 162 255 255 255
3 134 75 21 255 255 255
3 135 207 180 255 255 255
3 175 75 178 255 255 255
3 178 138 119 255 255 255
3 176 59 316 255 255 255
3 136 169 177 255 255 255
3 137 136 177 255 255 255
3 138 246 116 255 255 255
3 156 139 47 255 255 255
3 139 116 47 255 255 255
3 156 47 250 255 255 255
3 172 230 173 255 255 255
3 162 265 284 255 255 255
3 165 221 265 255 255 255
3 134 178 75 255 255 255
3 207 312 180 255 255 255
3 135 112 207 255 255 255
3 180 112 135 255 255 255
3 180 247 112 255 255 255
3 164 165 156 255 255 255
3 138 27 119 255 255 255
3 220 139 124 255 255 255
3 123 139 174 255 255 255
3 169 27 177 255 255 255
3 137 108 136 255 255 255
3 169 137 177 255 255 255
3 47 316 250 255 255 255
3 170 267 312 255 255 255
3 173 264 170 255 255 255
3 172 264 230 255 255 255
3 48 264 173 255 255 255
3 173 110 48 255 255 255
3 162 265 110 255 255 255
3 247 182 112 255 255 255
3 8 280 180 255 255 255
3 163 180 164 255 255 255
3 138 116 27 255 255 255
3 124 139 163 255 255 255
3 124 160 220 255 255 255
3 139 124 174 255 255 255
3 139 271 124 255 255 255
3 169 137 27 255 255 255
3 136 108 169 255 255 255
3 137 107 169 255 255 255
3 137 272 107 255 255 255
3 316 179 250 255 255 255
3 264 267 170 255 255 255
3 264 5 267 255 255 255
3 172 268 264 255 255 255
3 265 285 110 255 255 255
3 180 163 165 255 255 255
3 207 230 312 255 255 255
3 156 163 124 255 255 255
3 163 221 165 255 255 255
3 169 272 137 255 255 255
3 266 166 107 255 255 255
3 179 161 250 255 255 255
3 267 158 312 255 255 255
3 264 267 230 255 255 255
3 268 48 264 255 255 255
3 269 48 110 255 255 255
3 162 172 265 255 255 255
3 270 280 165 255 255 255
3 165 221 270 255 255 255
3 207 104 230 255 255 255
3 207 105 157 255 255 255
3 247 106 182 255 255 255
3 124 139 156 255 255 255
3 180 221 163 255 255 255
3 139 180 163 255 255 255
3 220 271 139 255 255 255
3 124 222 160 255 255 255
3 271 220 124 255 255 255
3 271 83 8 255 255 255
3 272 108 107 255 255 255
3 179 180 161 255 255 255
3 268 206 48 255 255 255
3 273 109 264 255 255 255
3 104 221 265 255 255 255
3 270 247 280 255 255 255
3 165 159 221 255 255 255
3 207 106 104 255 255 255
3 105 112 157 255 255 255
3 106 105 182 255 255 255
3 247 122 106 255 255 255
3 107 9 266 255 255 255
3 108 166 107 255 255 255
3 264 109 267 255 255 255
3 109 5 264 255 255 255
3 273 48 206 255 255 255
3 110 208 269 255 255 255
3 110 10 208 255 255 255
3 106 165 104 255 255 255
3 111 106 157 255 255 255
3 112 45 157 255 255 255
3 122 249 106 255 255 255
3 247 159 122 255 255 255
3 159 285 221 255 255 255
3 107 287 108 255 255 255
3 266 108 166 255 255 255
3 273 206 109 255 255 255
3 48 113 206 255 255 255
3 204 125 269 255 255 255
3 159 85 221 255 255 255
3 221 270 159 255 255 255
3 45 111 157 255 255 255
3 247 270 159 255 255 255
3 160 50 46 255 255 255
3 222 50 160 255 255 255
3 108 272 169 255 255 255
3 108 9 272 255 255 255
3 266 205 108 255 255 255
3 205 287 108 255 255 255
3 161 207 45 255 255 255
3 109 267 5 255 255 255
3 206 248 148 255 255 255
3 48 148 113 255 255 255
3 206 148 48 255 255 255
3 269 208 204 255 255 255
3 285 140 110 255 255 255
3 172 264 173 255 255 255
3 157 106 207 255 255 255
3 122 286 249 255 255 255
3 249 299 159 255 255 255
3 46 223 160 255 255 255
3 8 142 83 255 255 255
3 8 143 142 255 255 255
3 9 107 272 255 255 255
3 9 149 31 255 255 255
3 108 149 9 255 255 255
3 9 266 108 255 255 255
3 45 142 161 255 255 255
3 158 152 111 255 255 255
3 248 121 148 255 255 255
3 285 286 140 255 255 255
3 172 207 206 255 255 255
3 221 85 270 255 255 255
3 168 152 111 255 255 255
3 249 140 106 255 255 255
3 249 286 299 255 255 255
3 286 285 299 255 255 255
3 83 45 8 255 255 255
3 8 250 143 255 255 255
3 287 149 108 255 255 255
3 266 232 108 255 255 255
3 171 84 161 255 255 255
3 142 171 161 255 255 255
3 267 88 158 255 255 255
3 121 48 148 255 255 255
3 121 269 48 255 255 255
3 248 289 121 255 255 255
3 206 7 248 255 255 255
3 113 148 206 255 255 255
3 49 204 208 255 255 255
3 208 10 141 255 255 255
3 140 10 110 255 255 255
3 286 299 140 255 255 255
3 207 43 206 255 255 255
3 85 159 270 255 255 255
3 45 180 8 255 255 255
3 249 285 140 255 255 255
3 143 187 142 255 255 255
3 245 51 250 255 255 255
3 161 84 288 255 255 255
3 84 89 288 255 255 255
3 142 250 45 255 255 255
3 206 121 148 255 255 255
3 248 290 289 255 255 255
3 7 290 248 255 255 255
3 141 49 208 255 255 255
3 10 283 141 255 255 255
3 140 286 10 255 255 255
3 140 286 7 255 255 255
3 285 71 140 255 255 255
3 122 106 286 255 255 255
3 50 222 223 255 255 255
3 143 245 187 255 255 255
3 51 53 143 255 255 255
3 143 250 51 255 255 255
3 287 217 149 255 255 255
3 205 266 287 255 255 255
3 266 87 232 255 255 255
3 171 288 84 255 255 255
3 142 171 250 255 255 255
3 158 168 152 255 255 255
3 121 40 269 255 255 255
3 10 209 283 255 255 255
3 168 89 52 255 255 255
3 106 294 286 255 255 255
3 122 182 106 255 255 255
3 217 126 149 255 255 255
3 86 217 287 255 255 255
3 287 126 86 255 255 255
3 87 287 232 255 255 255
3 245 151 51 255 255 255
3 288 66 291 255 255 255
3 84 52 89 255 255 255
3 288 291 84 255 255 255
3 171 187 288 255 255 255
3 171 161 250 255 255 255
3 152 183 168 255 255 255
3 88 52 158 255 255 255
3 88 267 152 255 255 255
3 121 90 40 255 255 255
3 289 91 121 255 255 255
3 140 209 290 255 255 255
3 290 263 140 255 255 255
3 209 213 283 255 255 255
3 140 110 286 255 255 255
3 168 158 89 255 255 255
3 250 143 245 255 255 255
3 217 86 126 255 255 255
3 62 255 31 255 255 255
3 149 62 31 255 255 255
3 291 211 288 255 255 255
3 288 89 66 255 255 255
3 89 54 288 255 255 255
3 89 52 314 255 255 255
3 84 66 52 255 255 255
3 52 89 158 255 255 255
3 267 30 152 255 255 255
3 90 125 40 255 255 255
3 91 293 121 255 255 255
3 289 23 121 255 255 255
3 290 0 263 255 255 255
3 210 212 125 255 255 255
3 223 220 160 255 255 255
3 222 220 223 255 255 255
3 292 74 143 255 255 255
3 53 151 143 255 255 255
3 51 74 53 255 255 255
3 149 126 191 255 255 255
3 86 224 127 255 255 255
3 62 102 255 255 255 255
3 245 74 151 255 255 255
3 211 202 288 255 255 255
3 54 66 288 255 255 255
3 267 248 30 255 255 255
3 91 60 293 255 255 255
3 0 248 263 255 255 255
3 212 121 40 255 255 255
3 125 49 210 255 255 255
3 49 301 210 255 255 255
3 141 302 49 255 255 255
3 213 41 283 255 255 255
3 52 88 168 255 255 255
3 50 101 46 255 255 255
3 92 56 126 255 255 255
3 126 217 92 255 255 255
3 127 126 86 255 255 255
3 211 200 202 255 255 255
3 66 251 291 255 255 255
3 89 54 66 255 255 255
3 288 202 291 255 255 255
3 293 90 121 255 255 255
3 60 98 293 255 255 255
3 91 23 60 255 255 255
3 248 289 263 255 255 255
3 290 289 0 255 255 255
3 212 26 121 255 255 255
3 212 40 125 255 255 255
3 141 13 302 255 255 255
3 41 141 283 255 255 255
3 191 255 62 255 255 255
3 255 191 31 255 255 255
3 255 225 99 255 255 255
3 62 29 102 255 255 255
3 251 84 291 255 255 255
3 248 0 30 255 255 255
3 293 11 90 255 255 255
3 60 41 98 255 255 255
3 210 303 212 255 255 255
3 294 43 152 255 255 255
3 62 255 29 255 255 255
3 92 181 56 255 255 255
3 126 287 217 255 255 255
3 224 287 266 255 255 255
3 266 126 224 255 255 255
3 31 191 266 255 255 255
3 211 66 200 255 255 255
3 251 274 84 255 255 255
3 84 211 66 255 255 255
3 84 251 211 255 255 255
3 248 289 0 255 255 255
3 11 199 90 255 255 255
3 41 315 98 255 255 255
3 289 140 213 255 255 255
3 26 90 121 255 255 255
3 301 303 210 255 255 255
3 302 234 304 255 255 255
3 141 305 13 255 255 255
3 141 199 305 255 255 255
3 294 106 43 255 255 255
3 152 30 294 255 255 255
3 62 56 255 255 255 255
3 287 126 266 255 255 255
3 99 188 255 255 255 255
3 99 69 188 255 255 255
3 225 102 99 255 255 255
3 262 29 102 255 255 255
3 251 16 211 255 255 255
3 90 26 125 255 255 255
3 199 61 90 255 255 255
3 315 11 98 255 255 255
3 12 61 26 255 255 255
3 212 235 26 255 255 255
3 303 235 212 255 255 255
3 304 301 302 255 255 255
3 301 49 302 255 255 255
3 302 13 234 255 255 255
3 199 12 305 255 255 255
3 30 263 294 255 255 255
3 56 69 255 255 255 255
3 126 33 191 255 255 255
3 278 33 126 255 255 255
3 92 254 181 255 255 255
3 92 201 278 255 255 255
3 262 252 29 255 255 255
3 202 197 291 255 255 255
3 202 15 197 255 255 255
3 251 14 274 255 255 255
3 303 304 235 255 255 255
3 13 308 307 255 255 255
3 294 206 286 255 255 255
3 30 0 263 255 255 255
3 1 244 74 255 255 255
3 56 181 69 255 255 255
3 69 225 191 255 255 255
3 278 128 33 255 255 255
3 99 295 69 255 255 255
3 102 69 99 255 255 255
3 29 282 262 255 255 255
3 304 303 301 255 255 255
3 13 309 308 255 255 255
3 305 12 185 255 255 255
3 74 253 1 255 255 255
3 62 92 56 255 255 255
3 191 188 69 255 255 255
3 252 282 29 255 255 255
3 202 16 15 255 255 255
3 14 16 202 255 255 255
3 202 200 14 255 255 255
3 274 197 291 255 255 255
3 118 226 197 255 255 255
3 306 310 235 255 255 255
3 307 234 13 255 255 255
3 308 236 307 255 255 255
3 309 310 308 255 255 255
3 13 184 309 255 255 255
3 253 244 74 255 255 255
3 56 201 69 255 255 255
3 128 181 254 255 255 255
3 254 153 128 255 255 255
3 15 226 118 255 255 255
3 16 311 15 255 255 255
3 16 57 311 255 255 255
3 226 147 197 255 255 255
3 310 241 235 255 255 255
3 305 237 306 255 255 255
3 306 12 305 255 255 255
3 233 242 304 255 255 255
3 234 237 304 255 255 255
3 184 22 309 255 255 255
3 253 132 1 255 255 255
3 188 129 69 255 255 255
3 254 278 153 255 255 255
3 252 63 282 255 255 255
3 282 6 252 255 255 255
3 15 311 226 255 255 255
3 36 55 16 255 255 255
3 16 274 36 255 255 255
3 226 96 147 255 255 255
3 235 310 12 255 255 255
3 305 310 237 255 255 255
3 234 184 13 255 255 255
3 236 234 307 255 255 255
3 1 253 244 255 255 255
3 92 217 278 255 255 255
3 129 279 69 255 255 255
3 295 69 188 255 255 255
3 181 33 69 255 255 255
3 63 6 282 255 255 255
3 311 147 226 255 255 255
3 16 147 57 255 255 255
3 36 259 55 255 255 255
3 15 118 197 255 255 255
3 118 147 197 255 255 255
3 197 55 15 255 255 255
3 96 216 147 255 255 255
3 226 311 96 255 255 255
3 12 141 185 255 255 255
3 306 237 310 255 255 255
3 237 235 304 255 255 255
3 236 309 234 255 255 255
3 234 22 24 255 255 255
3 234 24 184 255 255 255
3 114 132 253 255 255 255
3 1 114 253 255 255 255
3 63 252 6 255 255 255
3 147 81 226 255 255 255
3 311 57 147 255 255 255
3 197 186 259 255 255 255
3 311 44 96 255 255 255
3 235 237 310 255 255 255
3 1 132 114 255 255 255
3 63 42 252 255 255 255
3 63 190 252 255 255 255
3 81 96 226 255 255 255
3 311 130 44 255 255 255
3 96 257 216 255 255 255
3 235 306 237 255 255 255
3 42 64 252 255 255 255
3 42 190 64 255 255 255
3 64 63 252 255 255 255
3 81 167 96 255 255 255
3 279 256 129 255 255 255
3 64 190 63 255 255 255
3 81 130 167 255 255 255
3 130 17 44 255 255 255
3 131 16 259 255 255 255
3 130 44 167 255 255 255
3 193 257 44 255 255 255
3 130 194 17 255 255 255
3 243 44 130 255 255 255
3 131 311 16 255 255 255
3 81 219 130 255 255 255
3 44 194 130 255 255 255
3 130 93 243 255 255 255
3 216 219 147 255 255 255
3 257 81 216 255 255 255
3 133 198 132 255 255 255
3 133 132 38 255 255 255
3 44 243 194 255 255 255
3 93 94 243 255 255 255
3 257 193 167 255 255 255
3 38 198 133 255 255 255
3 44 17 193 255 255 255
3 193 93 167 255 255 255
3 154 94 17 255 255 255
3 94 154 243 255 255 255
3 132 198 38 255 255 255
3 198 300 38 255 255 255
3 154 77 94 255 255 255
3 17 77 154 255 255 255
3 17 77 218 255 255 255
3 243 218 194 255 255 255
3 154 77 243 255 255 255
3 243 193 94 255 255 255
3 94 77 243 255 255 255
3 300 72 38 255 255 255
3 2 79 256 255 255 255
3 154 218 77 255 255 255
3 17 243 77 255 255 255
3 218 243 17 255 255 255
3 17 194 77 255 255 255
3 243 154 218 255 255 255
3 256 18 2 255 255 255
3 77 194 218 255 255 255
3 79 2 115 255 255 255
3 18 100 2 255 255 255
3 79 18 256 255 255 255
3 79 97 18 255 255 255
3 2 100 115 255 255 255
3 18 37 100 255 255 255
3 296 275 194 255 255 255
3 97 79 115 255 255 255
3 194 239 296 255 255 255
3 194 275 239 255 255 255
3 100 37 25 255 255 255
3 95 146 18 255 255 255
3 18 97 95 255 255 255
3 275 238 239 255 255 255
3 296 239 275 255 255 255
3 239 35 275 255 255 255
3 239 281 35 255 255 255
3 18 189 37 255 255 255
3 146 97 18 255 255 255
3 97 115 192 255 255 255
3 115 189 192 255 255 255
3 275 35 238 255 255 255
3 97 227 18 255 255 255
3 144 78 146 255 255 255
3 95 144 146 255 255 255
3 34 19 95 255 255 255
3 95 146 34 255 255 255
3 37 189 25 255 255 255
3 227 79 18 255 255 255
3 19 144 95 255 255 255
3 34 73 19 255 255 255
3 103 281 238 255 255 255
3 238 35 103 255 255 255
3 281 28 35 255 255 255
3 227 97 79 255 255 255
3 227 192 97 255 255 255
3 34 261 73 255 255 255
3 144 39 195 255 255 255
3 144 19 39 255 255 255
3 189 100 25 255 255 255
3 35 258 103 255 255 255
3 34 19 261 255 255 255
3 34 195 78 255 255 255
3 261 39 73 255 255 255
3 35 28 258 255 255 255
3 82 28 281 255 255 255
3 103 82 281 255 255 255
3 258 28 82 255 255 255
3 240 117 228 255 255 255
3 240 155 117 255 255 255
3 155 228 117 255 255 255
3 155 5 4 255 255 255
3 228 155 240 255 255 255
3 80 150 20 255 255 255
3 80 65 214 255 255 255
3 80 214 150 255 255 255
3 80 203 65 255 255 255
3 80 20 203 255 255 255
3 150 67 20 255 255 255
3 20 67 203 255 255 255
3 80 145 20 255 255 255
3 65 67 214 255 255 255
3 80 65 145 255 255 255
3 150 255 67 255 255 255
3 214 67 150 255 255 255
3 67 101 214 255 255 255
3 65 203 67 255 255 255
3 68 70 3 255 255 255
3 3 76 68 255 255 255
3 3 229 76 255 255 255
3 276 120 68 255 255 255
3 68 277 276 255 255 255
3 68 76 277 255 255 255
3 276 297 120 255 255 255
3 277 70 276 255 255 255
3 70 32 196 255 255 255
3 229 196 76 255 255 255
3 229 313 70 255 255 255
3 297 3 120 255 255 255
3 260 196 76 255 255 255
3 32 215 196 255 255 255
3 229 58 313 255 255 255
3 70 68 276 255 255 255
3 3 58 120 255 255 255
3 297 231 3 255 255 255
3 277 32 70 255 255 255
3 76 215 277 255 255 255
3 32 260 215 255 255 255
3 313 70 32 255 255 255
3 298 298 298 255 255 255
