ply
format ascii 1.0
element vertex 298
property float x
property float y
property float z
element face 576
property list uchar int vertex_indices
property uchar red
property uchar green
property uchar blue
end_header
-1.5162663459777832 7.69772434234619141 -0.840748488903045654
-1.4713740348815918 7.66169023513793945 -0.879087626934051514
-1.50093948841094971 7.73918247222900391 -0.828086376190185547
-1.45465075969696045 7.69057083129882812 -0.95076519250869751
-1.44299995899200439 7.69299983978271484 -0.893000006675720215
-1.41499996185302734 7.65600013732910156 -0.917999982833862305
-1.42900002002716064 7.70300006866455078 -0.86799997091293335
-1.47599995136260986 7.69299983978271484 -0.85000002384185791
-1.43524646759033203 7.6734919548034668 -0.981773495674133301
-1.4309999942779541 7.70599985122680664 -0.89999997615814209
-1.50970792770385742 7.72637081146240234 -0.842523515224456787
-1.4569021463394165 7.64614200592041016 -0.919979691505432129
-1.44141983985900879 7.69259834289550781 -0.88105928897857666
-1.42900002002716064 7.67999982833862305 -0.89999997615814209
-1.419777512550354 7.69049835205078125 -0.752150475978851318
-1.45799994468688965 7.66900014877319336 -0.800000011920928955
-1.45756351947784424 7.71380615234375 -0.909134626388549805
-1.46897566318511963 7.70664262771606445 -0.997260093688964844
-1.47300004959106445 7.70499992370605469 -0.973999977111816406
-1.50199997425079346 7.71700000762939453 -0.85000002384185791
-1.47850430011749268 7.69050502777099609 -0.956615626811981201
-1.46765637397766113 7.68810701370239258 -0.797817707061767578
-1.42520737648010254 7.66229438781738281 -0.773773789405822754
-1.43400001525878906 7.67100000381469727 -0.778999984264373779
-1.44597494602203369 7.66034936904907227 -0.785360634326934814
-1.43780350685119629 7.66168308258056641 -0.782845616340637207
-1.46623694896697998 7.65749788284301758 -0.804725289344787598
-1.44873511791229248 7.66997861862182617 -0.822294831275939941
-1.49100005626678467 7.70100021362304688 -0.815999984741210938
-1.49600005149841309 7.70100021362304688 -0.839999973773956299
-1.42625164985656738 7.67695760726928711 -0.839277029037475586
-1.48311352729797363 7.67384862899780273 -0.838112771511077881
-1.43016242980957031 7.68683624267578125 -0.87866663932800293
-1.45727169513702393 7.70005512237548828 -0.925063848495483398
-1.46271741390228271 7.64387130737304688 -0.933011651039123535
-1.43499994277954102 7.65399980545043945 -0.910000026226043701
-1.48340392112731934 7.67344188690185547 -0.861727535724639893
-1.4873054027557373 7.69727706909179688 -0.91033250093460083
-1.43465745449066162 7.6835474967956543 -0.877575337886810303
-1.47089922428131104 7.69822978973388672 -0.853868484497070312
-1.48541605472564697 7.67242431640625 -1.02885735034942627
-1.45968139171600342 7.71209335327148438 -0.929865658283233643
-1.47690808773040771 7.72271442413330078 -1.00653791427612305
-1.47974181175231934 7.68346309661865234 -0.927414476871490479
-1.44912469387054443 7.69281721115112305 -0.936451852321624756
-1.49489092826843262 7.69061994552612305 -0.903170228004455566
-1.44599747657775879 7.70624780654907227 -0.980450749397277832
-1.48292660713195801 7.69188165664672852 -0.971019864082336426
-1.41416370868682861 7.68706274032592773 -0.824264883995056152
-1.47861564159393311 7.70905447006225586 -0.921109318733215332
-1.50540971755981445 7.70174837112426758 -0.89609295129776001
-1.39704608917236328 7.64868545532226562 -0.774103641510009766
-1.469512939453125 7.70283794403076172 -0.886201024055480957
-1.47017025947570801 7.67449378967285156 -1.04405069351196289
-1.50718164443969727 7.69682741165161133 -0.857814311981201172
-1.46099996566772461 7.69099998474121094 -0.852999985218048096
-1.41646790504455566 7.68567657470703125 -0.841815531253814697
-1.50542402267456055 7.70283174514770508 -0.817982017993927002
-1.49026978015899658 7.67939853668212891 -0.802053570747375488
-1.48308181762695312 7.7055048942565918 -0.822697341442108154
-1.45500004291534424 7.69899988174438477 -0.852999985218048096
-1.47300004959106445 7.65899991989135742 -0.792999982833862305
-1.44589006900787354 7.70952272415161133 -0.852345824241638184
-1.47093057632446289 7.6695103645324707 -0.796708881855010986
-1.49300003051757812 7.7090001106262207 -0.83899998664855957
-1.41916131973266602 7.70193815231323242 -0.770111680030822754
-1.4129335880279541 7.695220947265625 -0.778461575508117676
-1.42400944232940674 7.68906116485595703 -0.769050478935241699
-1.50435149669647217 7.6955113410949707 -0.873839855194091797
-1.43701529502868652 7.70200157165527344 -1.00991237163543701
-1.44460427761077881 7.63432979583740234 -0.933766007423400879
-1.4602961540222168 7.72526454925537109 -0.99150395393371582
-1.44350004196166992 7.71799993515014648 -1.0010000467300415
-1.43568217754364014 7.68283367156982422 -1.00269532203674316
-1.48175466060638428 7.69974756240844727 -0.933686912059783936
-1.44553554058074951 7.67624616622924805 -1.02311944961547852
-1.45513355731964111 7.72081995010375977 -1.01627898216247559
-1.43699908256530762 7.71393728256225586 -1.026528000831604
-1.51699864864349365 7.72403049468994141 -0.825033903121948242
-1.43400001525878906 7.68800020217895508 -0.869000017642974854
-1.48824942111968994 7.73106098175048828 -0.842741072177886963
-1.4679640531539917 7.67733097076416016 -0.937239468097686768
-1.44603025913238525 7.66733789443969727 -0.962803423404693604
-1.50399994850158691 7.67999982833862305 -0.837999999523162842
-1.43400001525878906 7.69199991226196289 -0.894999980926513672
-1.43296456336975098 7.6686091423034668 -0.959947824478149414
-1.5025184154510498 7.70531177520751953 -0.866903841495513916
-1.43700003623962402 7.69999980926513672 -0.870000004768371582
-1.48000001907348633 7.68900012969970703 -0.860000014305114746
-1.4309999942779541 7.69050025939941406 -0.872500002384185791
-1.48576819896697998 7.68286752700805664 -0.863057255744934082
-1.52226161956787109 7.70399284362792969 -0.81720501184463501
-1.42525660991668701 7.66096258163452148 -0.933253943920135498
-1.46226382255554199 7.70330190658569336 -0.967330098152160645
-1.50872862339019775 7.6732487678527832 -0.839043617248535156
-1.51140248775482178 7.68428134918212891 -0.829990208148956299
-1.43599998950958252 7.66900014877319336 -0.902000010013580322
-1.4485783576965332 7.67875242233276367 -0.860440731048583984
-1.42599999904632568 7.68699979782104492 -0.853999972343444824
-1.47441005706787109 7.65658283233642578 -1.00348961353302002
-1.43499994277954102 7.68300008773803711 -0.77499997615814209
-1.49812817573547363 7.72004890441894531 -0.865126609802246094
-1.47105991840362549 7.70570564270019531 -0.900533080101013184
-1.5221562385559082 7.67835521697998047 -0.81946110725402832
-1.48113954067230225 7.65964746475219727 -0.886123120784759521
-1.43491804599761963 7.68976497650146484 -0.957291603088378906
-1.50420653820037842 7.69313716888427734 -0.83567124605178833
-1.50248432159423828 7.71439599990844727 -0.890703141689300537
-1.46377289295196533 7.70957088470458984 -0.944546818733215332
-1.42659282684326172 7.67979335784912109 -0.967574119567871094
-1.44332218170166016 7.66371440887451172 -0.778367042541503906
-1.4760822057723999 7.66194295883178711 -0.833936631679534912
-1.47706508636474609 7.71686792373657227 -0.88253098726272583
-1.43599998950958252 7.68200016021728516 -0.897000014781951904
-1.5167769193649292 7.71358633041381836 -0.841063499450683594
-1.45599997043609619 7.69899988174438477 -0.871999979019165039
-1.43250668048858643 7.6609339714050293 -1.00319170951843262
-1.47595858573913574 7.69067001342773438 -1.01032745838165283
-1.45762550830841064 7.71932649612426758 -1.02873563766479492
-1.43700003623962402 7.72399997711181641 -1.02799999713897705
-1.45299994945526123 7.68300008773803711 -1.03299999237060547
-1.47414040565490723 7.66368722915649414 -0.91454315185546875
-1.44799995422363281 7.71099996566772461 -0.976999998092651367
-1.45206868648529053 7.65586757659912109 -1.0174565315246582
-1.45792341232299805 7.70489978790283203 -1.01931154727935791
-1.4951164722442627 7.72347259521484375 -0.889041721820831299
-1.47632861137390137 7.66709804534912109 -0.997325241565704346
-1.4849998950958252 7.68300008773803711 -1.0130000114440918
-1.46152722835540771 7.70208883285522461 -1.00729072093963623
-1.45260500907897949 7.65799617767333984 -0.939206719398498535
-1.47682535648345947 7.69339799880981445 -0.993357658386230469
-1.48850452899932861 7.69643068313598633 -1.00881409645080566
-1.44414758682250977 7.72103786468505859 -1.01602411270141602
-1.44544947147369385 7.67677783966064453 -0.885700762271881104
-1.43908107280731201 7.65466976165771484 -0.944339096546173096
-1.43400001525878906 7.70499992370605469 -1.03299999237060547
-1.44046175479888916 7.69852066040039062 -1.04442191123962402
-1.49649035930633545 7.72654533386230469 -0.842010378837585449
-1.4389495849609375 7.67809724807739258 -0.822714924812316895
-1.41745662689208984 7.67274141311645508 -0.806969046592712402
-1.48280596733093262 7.69238901138305664 -0.811465859413146973
-1.44290471076965332 7.66363906860351562 -0.791761517524719238
-1.48808658123016357 7.69804239273071289 -0.811930179595947266
-1.46671009063720703 7.66356706619262695 -0.818870425224304199
-1.40250670909881592 7.66580104827880859 -0.753078222274780273
-1.43900001049041748 7.6939997673034668 -0.792999982833862305
-1.43499994277954102 7.6810002326965332 -0.853999972343444824
-1.49422836303710938 7.72068262100219727 -0.824040770530700684
-1.48915696144104004 7.67542266845703125 -0.92276298999786377
-1.46216011047363281 7.66901159286499023 -0.882942855358123779
-1.45631825923919678 7.70768880844116211 -0.85827559232711792
-1.46201252937316895 7.67878341674804688 -0.976865768432617188
-1.47201335430145264 7.69259452819824219 -1.05017733573913574
-1.40199995040893555 7.70200014114379883 -0.748000025749206543
-1.40251755714416504 7.7019200325012207 -0.761776566505432129
-1.41195857524871826 7.70113515853881836 -0.754873514175415039
-1.43799996376037598 7.69500017166137695 -0.83899998664855957
-1.48770642280578613 7.64845561981201172 -0.802911639213562012
-1.42009198665618896 7.65788078308105469 -0.796621322631835938
-1.39486420154571533 7.69631433486938477 -0.769869327545166016
-1.38962113857269287 7.68480253219604492 -0.753211557865142822
-1.3987576961517334 7.66971254348754883 -0.748421072959899902
-1.38999998569488525 7.69799995422363281 -0.78200000524520874
-1.41835308074951172 7.7079005241394043 -0.789405703544616699
-1.38392353057861328 7.67910575866699219 -0.769969284534454346
-1.39150142669677734 7.66243124008178711 -0.760933518409729004
-1.39738690853118896 7.68788957595825195 -0.787579715251922607
-1.40400004386901855 7.71999979019165039 -0.749000012874603271
-1.39538145065307617 7.71116924285888672 -0.754069149494171143
-1.4299999475479126 7.69600009918212891 -0.85000002384185791
-1.50873374938964844 7.71007061004638672 -0.855299949645996094
-1.47660529613494873 7.6986699104309082 -0.98236846923828125
-1.46080446243286133 7.70498847961425781 -1.04706859588623047
-1.46355843544006348 7.70846843719482422 -0.958864152431488037
-1.43934834003448486 7.68614053726196289 -0.787058234214782715
-1.43073797225952148 7.6880793571472168 -0.805025339126586914
-1.43803274631500244 7.63743877410888672 -0.906806349754333496
-1.43315839767456055 7.66415023803710938 -0.990197896957397461
-1.45203983783721924 7.68046140670776367 -0.873542726039886475
-1.4350426197052002 7.67302083969116211 -0.936624825000762939
-1.4614875316619873 7.72017860412597656 -0.9399261474609375
-1.46198189258575439 7.67043972015380859 -0.866204261779785156
-1.45096969604492188 7.64500808715820312 -0.936986088752746582
-1.43326520919799805 7.63136005401611328 -0.915387451648712158
-1.470428466796875 7.68636798858642578 -0.986374795436859131
-1.44799995422363281 7.69600009918212891 -0.893999993801116943
-1.4859999418258667 7.68800020217895508 -0.833999991416931152
-1.44424998760223389 7.65225028991699219 -0.914749979972839355
-1.42696475982666016 7.70185518264770508 -0.90492713451385498
-1.46800005435943604 7.67700004577636719 -0.924000024795532227
-1.46916055679321289 7.70212507247924805 -0.865128695964813232
-1.38085734844207764 7.69427347183227539 -0.761375486850738525
-1.44700002670288086 7.70399999618530273 -0.862999975681304932
-1.4757087230682373 7.70883750915527344 -0.945354819297790527
-1.43599998950958252 7.66499996185302734 -0.908999979496002197
-1.43935084342956543 7.70217275619506836 -0.99252241849899292
-1.49100005626678467 7.69999980926513672 -0.859000027179718018
-1.49367213249206543 7.71619462966918945 -0.878927946090698242
-1.45200002193450928 7.69700002670288086 -0.893000006675720215
-1.48500001430511475 7.69700002670288086 -0.834999978542327881
-1.47774696350097656 7.70716142654418945 -0.962215244770050049
-1.47626626491546631 7.68041515350341797 -0.970478415489196777
-1.4309999942779541 7.69500017166137695 -0.90700000524520874
-1.46223437786102295 7.65231037139892578 -0.812957942485809326
-1.46022629737854004 7.71293973922729492 -0.984001457691192627
-1.45241856575012207 7.66324090957641602 -0.911001086235046387
-1.44290900230407715 7.66676425933837891 -0.97496718168258667
-1.46200001239776611 7.72599983215332031 -0.825999975204467773
-1.42496192455291748 7.67735385894775391 -0.754928469657897949
-1.427268385887146 7.69713449478149414 -0.835302174091339111
-1.42700004577636719 7.69899988174438477 -0.857999980449676514
-1.49884629249572754 7.68539237976074219 -0.814212501049041748
-1.40751779079437256 7.67249155044555664 -0.786915361881256104
-1.39201259613037109 7.66987514495849609 -0.776458203792572021
-1.45194792747497559 7.69028329849243164 -0.815488517284393311
-1.43182563781738281 7.70409965515136719 -0.862310826778411865
-1.5065380334854126 7.71853828430175781 -0.810412704944610596
-1.50446426868438721 7.67431402206420898 -0.819096386432647705
-1.51864850521087646 7.69743585586547852 -0.81323772668838501
-1.45599997043609619 7.66800022125244141 -0.898000001907348633
-1.44543206691741943 7.66557025909423828 -0.984099328517913818
-1.441092848777771 7.6837158203125 -1.03305208683013916
-1.43900001049041748 7.70300006866455078 -0.870000004768371582
-1.43812239170074463 7.69799327850341797 -0.916045069694519043
-1.46437215805053711 7.66023445129394531 -1.0145033597946167
-1.4299999475479126 7.65000009536743164 -0.908999979496002197
-1.43765604496002197 7.69928121566772461 -0.968772828578948975
-1.48230111598968506 7.71178770065307617 -0.862043797969818115
-1.48920094966888428 7.66383838653564453 -0.816139101982116699
-1.43400001525878906 7.68599987030029297 -0.828000009059906006
-1.4647376537322998 7.67460107803344727 -0.833623051643371582
-1.49000000953674316 7.71500015258789062 -0.832000017166137695
-1.42011618614196777 7.70346927642822266 -0.845595419406890869
-1.4218137264251709 7.69998264312744141 -0.820571303367614746
-1.41080152988433838 7.69657707214355469 -0.800451040267944336
-1.41733169555664062 7.66913270950317383 -0.766358792781829834
-1.4523773193359375 7.68111944198608398 -0.794711410999298096
-1.44262790679931641 7.68718194961547852 -0.812448263168334961
-1.40751922130584717 7.66389608383178711 -0.773886680603027344
-1.4179999828338623 7.66400003433227539 -0.75700002908706665
-1.42081236839294434 7.66261911392211914 -0.923509776592254639
-1.46300005912780762 7.71999979019165039 -0.832000017166137695
-1.48379683494567871 7.74035787582397461 -0.824860215187072754
-1.46021699905395508 7.71410322189331055 -1.04462814331054688
-1.46052634716033936 7.66301155090332031 -0.994342803955078125
-1.4309999942779541 7.67999982833862305 -0.90700000524520874
-1.49500000476837158 7.71299982070922852 -0.861000001430511475
-1.49300003051757812 7.69899988174438477 -0.856999993324279785
-1.49251043796539307 7.67764139175415039 -0.899956703186035156
-1.44265258312225342 7.63957405090332031 -0.939133405685424805
-1.45975899696350098 7.67521047592163086 -0.98643958568572998
-1.49242830276489258 7.67292547225952148 -0.882762432098388672
-1.45927250385284424 7.67204093933105469 -0.963863015174865723
-1.44900000095367432 7.62699985504150391 -0.936999976634979248
-1.46500003337860107 7.72300004959106445 -0.828000009059906006
-1.46467316150665283 7.6797938346862793 -0.850730180740356445
-1.47684299945831299 7.67409420013427734 -0.846437215805053711
-1.50767099857330322 7.68289375305175781 -0.887271225452423096
-1.49334895610809326 7.66230344772338867 -0.898591101169586182
-1.43526172637939453 7.63338804244995117 -0.931652724742889404
-1.42340421676635742 7.66962289810180664 -0.970210254192352295
-1.48088920116424561 7.71501255035400391 -0.900608181953430176
-1.43362033367156982 7.68645000457763672 -0.930962264537811279
-1.50507891178131104 7.72906970977783203 -0.854110181331634521
-1.53243815898895264 7.68914985656738281 -0.824141740798950195
-1.51543986797332764 7.68255949020385742 -0.892878830432891846
-1.44849991798400879 7.7005000114440918 -0.904999971389770508
-1.44099998474121094 7.65999984741210938 -0.967000007629394531
-1.45317268371582031 7.71734142303466797 -1.00441992282867432
-1.48416125774383545 7.65589761734008789 -0.904920041561126709
-1.42829930782318115 7.68037557601928711 -0.921045243740081787
-1.38795733451843262 7.70189285278320312 -0.764868319034576416
-1.4440000057220459 7.68599987030029297 -0.842000007629394531
-1.49106740951538086 7.67074823379516602 -1.00882494449615479
-1.44174289703369141 7.71974849700927734 -1.0450512170791626
-1.46041011810302734 7.68909978866577148 -1.03260338306427002
-1.45625221729278564 7.71120405197143555 -1.0538170337677002
-1.47723495960235596 7.67754602432250977 -1.05303788185119629
-1.4823448657989502 7.69044685363769531 -1.0349961519241333
-1.44418621063232422 7.67526578903198242 -0.896269440650939941
-1.46002483367919922 7.6641077995300293 -0.931795716285705566
-1.53473329544067383 7.70539569854736328 -0.84095388650894165
-1.44384384155273438 7.6501307487487793 -1.00429069995880127
-1.49223208427429199 7.7528843879699707 -0.832485854625701904
-1.43585407733917236 7.71165132522583008 -1.04458940029144287
-1.45769083499908447 7.689422607421875 -1.05620121955871582
-1.45426368713378906 7.66683483123779297 -1.02609801292419434
-1.47709178924560547 7.65614604949951172 -0.806452095508575439
-1.45439016819000244 7.70760917663574219 -0.847056150436401367
-1.46959185600280762 7.68903255462646484 -0.834089815616607666
-1.48869621753692627 7.71497917175292969 -0.813667535781860352
-1.42722964286804199 7.69100618362426758 -0.859993040561676025
-1.43056678771972656 7.67698478698730469 -0.824280023574829102
-1.43729662895202637 7.66899585723876953 -0.807409584522247314
-1.44299995899200439 7.68599987030029297 -0.848999977111816406
-1.48935079574584961 7.66300773620605469 -0.804926514625549316
-1.43405485153198242 7.65956687927246094 -0.802305638790130615
-1.47131192684173584 7.69646310806274414 -0.815558791160583496
3 159 154 168 255 255 255
3 168 164 159 255 255 255
3 153 160 168 255 255 255
3 168 167 153 255 255 255
3 154 167 168 255 255 255
3 154 155 167 255 255 255
3 168 160 164 255 255 255
3 167 155 153 255 255 255
3 155 14 153 255 255 255
3 154 65 155 255 255 255
3 65 67 155 255 255 255
3 66 65 159 255 255 255
3 159 162 66 255 255 255
3 153 14 160 255 255 255
3 67 14 155 255 255 255
3 154 159 65 255 255 255
3 159 271 162 255 255 255
3 160 165 164 255 255 255
3 14 161 160 255 255 255
3 14 208 161 255 255 255
3 67 208 14 255 255 255
3 66 163 65 255 255 255
3 162 166 66 255 255 255
3 160 161 165 255 255 255
3 67 100 208 255 255 255
3 65 100 67 255 255 255
3 65 174 100 255 255 255
3 163 174 65 255 255 255
3 163 145 174 255 255 255
3 66 166 234 255 255 255
3 164 213 166 255 255 255
3 165 213 164 255 255 255
3 163 175 145 255 255 255
3 166 212 234 255 255 255
3 162 191 166 255 255 255
3 166 191 164 255 255 255
3 165 51 213 255 255 255
3 161 208 144 255 255 255
3 144 165 160 255 255 255
3 239 144 208 255 255 255
3 208 235 239 255 255 255
3 145 236 174 255 255 255
3 163 233 175 255 255 255
3 163 66 234 255 255 255
3 212 139 234 255 255 255
3 213 212 166 255 255 255
3 162 271 191 255 255 255
3 51 238 213 255 255 255
3 165 238 51 255 255 255
3 144 238 165 255 255 255
3 174 110 100 255 255 255
3 145 237 236 255 255 255
3 175 237 145 255 255 255
3 233 237 175 255 255 255
3 234 233 163 255 255 255
3 234 48 233 255 255 255
3 213 238 212 255 255 255
3 235 22 239 255 255 255
3 174 24 110 255 255 255
3 236 24 174 255 255 255
3 236 15 24 255 255 255
3 237 21 236 255 255 255
3 234 139 48 255 255 255
3 238 22 212 255 255 255
3 238 144 239 255 255 255
3 235 23 22 255 255 255
3 236 21 15 255 255 255
3 21 63 15 255 255 255
3 237 229 214 255 255 255
3 233 229 237 255 255 255
3 233 209 229 255 255 255
3 212 158 139 255 255 255
3 212 22 158 255 255 255
3 22 25 158 255 255 255
3 238 239 22 255 255 255
3 23 110 22 255 255 255
3 235 100 23 255 255 255
3 24 25 110 255 255 255
3 21 214 297 255 255 255
3 214 21 237 255 255 255
3 209 156 229 255 255 255
3 158 293 139 255 255 255
3 25 22 110 255 255 255
3 63 26 15 255 255 255
3 61 26 63 255 255 255
3 61 157 26 255 255 255
3 21 58 63 255 255 255
3 297 140 21 255 255 255
3 156 272 229 255 255 255
3 233 232 209 255 255 255
3 293 292 139 255 255 255
3 158 296 293 255 255 255
3 24 296 25 255 255 255
3 157 287 26 255 255 255
3 63 157 61 255 255 255
3 63 295 157 255 255 255
3 297 59 140 255 255 255
3 214 289 297 255 255 255
3 156 288 272 255 255 255
3 209 169 156 255 255 255
3 232 169 209 255 255 255
3 232 210 169 255 255 255
3 48 56 233 255 255 255
3 139 292 48 255 255 255
3 293 138 292 255 255 255
3 296 141 293 255 255 255
3 158 25 296 255 255 255
3 26 27 15 255 255 255
3 287 203 26 255 255 255
3 63 58 295 255 255 255
3 21 140 58 255 255 255
3 140 142 58 255 255 255
3 142 211 58 255 255 255
3 59 28 140 255 255 255
3 297 199 59 255 255 255
3 138 27 214 255 255 255
3 214 229 138 255 255 255
3 229 272 138 255 255 255
3 288 60 272 255 255 255
3 156 62 288 255 255 255
3 169 294 156 255 255 255
3 210 215 169 255 255 255
3 48 30 56 255 255 255
3 292 30 48 255 255 255
3 138 272 292 255 255 255
3 272 30 292 255 255 255
3 293 27 138 255 255 255
3 141 27 293 255 255 255
3 27 141 15 255 255 255
3 141 24 15 255 255 255
3 141 296 24 255 255 255
3 58 211 295 255 255 255
3 142 57 211 255 255 255
3 59 290 28 255 255 255
3 297 289 199 255 255 255
3 289 7 199 255 255 255
3 27 230 214 255 255 255
3 60 55 272 255 255 255
3 294 60 156 255 255 255
3 169 291 294 255 255 255
3 210 6 215 255 255 255
3 272 294 30 255 255 255
3 26 203 27 255 255 255
3 143 27 203 255 255 255
3 287 111 203 255 255 255
3 287 228 111 255 255 255
3 157 228 287 255 255 255
3 57 218 211 255 255 255
3 28 57 142 255 255 255
3 290 57 28 255 255 255
3 59 231 290 255 255 255
3 59 64 231 255 255 255
3 199 64 59 255 255 255
3 199 29 64 255 255 255
3 289 39 7 255 255 255
3 230 255 289 255 255 255
3 230 256 255 255 255 255
3 289 214 230 255 255 255
3 55 255 272 255 255 255
3 62 150 288 255 255 255
3 294 192 60 255 255 255
3 291 146 294 255 255 255
3 169 215 291 255 255 255
3 56 291 232 255 255 255
3 30 146 56 255 255 255
3 272 97 294 255 255 255
3 143 230 27 255 255 255
3 203 111 143 255 255 255
3 295 228 157 255 255 255
3 295 217 228 255 255 255
3 211 217 295 255 255 255
3 290 216 57 255 255 255
3 231 147 290 255 255 255
3 64 137 231 255 255 255
3 29 247 64 255 255 255
3 199 186 29 255 255 255
3 289 55 39 255 255 255
3 230 111 256 255 255 255
3 192 62 60 255 255 255
3 215 79 291 255 255 255
3 215 87 79 255 255 255
3 6 222 215 255 255 255
3 56 98 291 255 255 255
3 146 98 56 255 255 255
3 272 255 97 255 255 255
3 111 230 143 255 255 255
3 211 103 217 255 255 255
3 211 218 103 255 255 255
3 57 91 218 255 255 255
3 216 91 57 255 255 255
3 290 242 216 255 255 255
3 147 242 290 255 255 255
3 137 80 231 255 255 255
3 247 246 64 255 255 255
3 29 54 247 255 255 255
3 186 106 29 255 255 255
3 199 7 186 255 255 255
3 7 256 186 255 255 255
3 55 288 39 255 255 255
3 111 31 256 255 255 255
3 55 7 255 255 255 255
3 288 227 39 255 255 255
3 192 215 62 255 255 255
3 87 12 79 255 255 255
3 215 192 87 255 255 255
3 222 62 215 255 255 255
3 6 87 222 255 255 255
3 291 210 232 255 255 255
3 291 89 6 255 255 255
3 255 181 97 255 255 255
3 217 111 228 255 255 255
3 217 31 111 255 255 255
3 217 94 31 255 255 255
3 218 264 103 255 255 255
3 216 78 91 255 255 255
3 242 2 216 255 255 255
3 147 80 242 255 255 255
3 137 263 80 255 255 255
3 64 19 137 255 255 255
3 246 19 64 255 255 255
3 246 101 19 255 255 255
3 247 196 246 255 255 255
3 29 106 54 255 255 255
3 186 83 106 255 255 255
3 186 31 83 255 255 255
3 39 196 7 255 255 255
3 215 210 62 255 255 255
3 12 38 79 255 255 255
3 192 115 87 255 255 255
3 222 192 62 255 255 255
3 87 12 222 255 255 255
3 291 32 89 255 255 255
3 217 95 94 255 255 255
3 216 2 78 255 255 255
3 80 283 242 255 255 255
3 147 231 80 255 255 255
3 137 101 263 255 255 255
3 101 137 19 255 255 255
3 246 227 101 255 255 255
3 54 90 247 255 255 255
3 106 83 54 255 255 255
3 31 94 83 255 255 255
3 94 95 83 255 255 255
3 7 88 256 255 255 255
3 256 36 255 255 255 255
3 255 36 181 255 255 255
3 38 32 79 255 255 255
3 12 133 38 255 255 255
3 192 150 62 255 255 255
3 222 115 192 255 255 255
3 222 12 115 255 255 255
3 89 32 6 255 255 255
3 31 186 256 255 255 255
3 217 103 95 255 255 255
3 218 91 264 255 255 255
3 78 281 91 255 255 255
3 78 2 10 255 255 255
3 90 88 247 255 255 255
3 95 0 83 255 255 255
3 88 90 256 255 255 255
3 90 36 256 255 255 255
3 36 1 181 255 255 255
3 12 198 115 255 255 255
3 32 12 6 255 255 255
3 91 281 264 255 255 255
3 78 10 114 255 255 255
3 2 80 10 255 255 255
3 242 283 2 255 255 255
3 38 84 32 255 255 255
3 38 133 84 255 255 255
3 12 185 133 255 255 255
3 32 84 12 255 255 255
3 84 4 12 255 255 255
3 84 9 4 255 255 255
3 114 281 78 255 255 255
3 10 170 114 255 255 255
3 2 283 80 255 255 255
3 101 170 263 255 255 255
3 227 197 101 255 255 255
3 0 54 83 255 255 255
3 95 264 0 255 255 255
3 90 251 36 255 255 255
3 1 149 181 255 255 255
3 133 279 84 255 255 255
3 279 113 133 255 255 255
3 4 185 12 255 255 255
3 4 266 185 255 255 255
3 84 188 9 255 255 255
3 10 263 170 255 255 255
3 10 80 263 255 255 255
3 101 86 170 255 255 255
3 227 112 197 255 255 255
3 190 112 227 255 255 255
3 190 52 112 255 255 255
3 227 150 190 255 255 255
3 0 114 54 255 255 255
3 264 281 0 255 255 255
3 95 103 264 255 255 255
3 251 1 36 255 255 255
3 149 178 181 255 255 255
3 279 245 84 255 255 255
3 279 13 113 255 255 255
3 219 205 279 255 255 255
3 266 198 185 255 255 255
3 84 202 188 255 255 255
3 114 0 281 255 255 255
3 125 107 197 255 255 255
3 197 112 125 255 255 255
3 52 102 112 255 255 255
3 227 288 150 255 255 255
3 114 170 54 255 255 255
3 1 251 104 255 255 255
3 178 97 181 255 255 255
3 245 202 84 255 255 255
3 245 270 202 255 255 255
3 279 96 245 255 255 255
3 13 202 113 255 255 255
3 279 194 13 255 255 255
3 205 96 279 255 255 255
3 198 12 185 255 255 255
3 266 102 198 255 255 255
3 202 223 188 255 255 255
3 101 197 86 255 255 255
3 197 107 86 255 255 255
3 107 68 86 255 255 255
3 112 261 125 255 255 255
3 102 261 112 255 255 255
3 102 16 261 255 255 255
3 190 115 52 255 255 255
3 170 68 54 255 255 255
3 251 68 257 255 255 255
3 251 258 104 255 255 255
3 1 104 149 255 255 255
3 96 270 245 255 255 255
3 96 194 270 255 255 255
3 202 4 113 255 255 255
3 102 52 198 255 255 255
3 266 16 102 255 255 255
3 188 266 9 255 255 255
3 107 50 68 255 255 255
3 190 150 115 255 255 255
3 170 86 68 255 255 255
3 251 248 258 255 255 255
3 257 248 251 255 255 255
3 257 265 248 255 255 255
3 68 265 257 255 255 255
3 178 79 97 255 255 255
3 178 149 133 255 255 255
3 149 121 219 255 255 255
3 194 240 270 255 255 255
3 96 35 194 255 255 255
3 188 223 266 255 255 255
3 223 33 266 255 255 255
3 261 107 125 255 255 255
3 261 37 107 255 255 255
3 258 248 269 255 255 255
3 258 269 104 255 255 255
3 133 32 178 255 255 255
3 121 205 219 255 255 255
3 269 121 149 255 255 255
3 149 104 269 255 255 255
3 240 179 270 255 255 255
3 194 225 240 255 255 255
3 205 11 187 255 255 255
3 266 33 16 255 255 255
3 33 41 16 255 255 255
3 223 270 262 255 255 255
3 50 265 68 255 255 255
3 107 37 50 255 255 255
3 248 148 269 255 255 255
3 148 121 269 255 255 255
3 148 189 121 255 255 255
3 133 113 32 255 255 255
3 121 280 205 255 255 255
3 240 92 179 255 255 255
3 240 225 5 255 255 255
3 225 183 5 255 255 255
3 205 280 11 255 255 255
3 280 34 11 255 255 255
3 33 108 41 255 255 255
3 33 44 108 255 255 255
3 223 262 33 255 255 255
3 270 179 262 255 255 255
3 50 37 45 255 255 255
3 261 49 37 255 255 255
3 16 49 261 255 255 255
3 16 41 49 255 255 255
3 248 45 148 255 255 255
3 148 43 189 255 255 255
3 121 81 280 255 255 255
3 92 134 179 255 255 255
3 240 5 92 255 255 255
3 183 92 5 255 255 255
3 183 259 92 255 255 255
3 225 176 183 255 255 255
3 176 35 187 255 255 255
3 280 129 34 255 255 255
3 33 262 44 255 255 255
3 179 105 262 255 255 255
3 45 43 148 255 255 255
3 37 43 45 255 255 255
3 37 49 43 255 255 255
3 43 81 189 255 255 255
3 121 189 81 255 255 255
3 134 85 179 255 255 255
3 176 225 35 255 255 255
3 11 176 187 255 255 255
3 34 70 11 255 255 255
3 44 3 108 255 255 255
3 262 105 44 255 255 255
3 193 74 49 255 255 255
3 49 41 193 255 255 255
3 49 74 43 255 255 255
3 43 20 81 255 255 255
3 85 105 179 255 255 255
3 92 259 134 255 255 255
3 183 70 259 255 255 255
3 34 253 70 255 255 255
3 108 180 41 255 255 255
3 105 3 44 255 255 255
3 85 109 105 255 255 255
3 193 200 74 255 255 255
3 41 180 193 255 255 255
3 74 20 43 255 255 255
3 134 82 85 255 255 255
3 70 253 259 255 255 255
3 183 176 70 255 255 255
3 176 11 70 255 255 255
3 129 182 34 255 255 255
3 280 252 129 255 255 255
3 280 81 252 255 255 255
3 105 226 3 255 255 255
3 105 109 226 255 255 255
3 85 260 109 255 255 255
3 129 82 134 255 255 255
3 129 252 82 255 255 255
3 134 182 129 255 255 255
3 259 249 134 255 255 255
3 249 182 134 255 255 255
3 253 249 259 255 255 255
3 81 20 252 255 255 255
3 108 200 173 255 255 255
3 46 122 226 255 255 255
3 109 46 226 255 255 255
3 200 20 74 255 255 255
3 200 47 20 255 255 255
3 85 267 260 255 255 255
3 82 267 85 255 255 255
3 108 193 180 255 255 255
3 108 173 193 255 255 255
3 200 193 173 255 255 255
3 173 93 200 255 255 255
3 3 226 173 255 255 255
3 122 93 226 255 255 255
3 109 8 46 255 255 255
3 260 8 109 255 255 255
3 267 206 260 255 255 255
3 249 70 182 255 255 255
3 20 201 252 255 255 255
3 173 226 93 255 255 255
3 122 204 93 255 255 255
3 46 71 122 255 255 255
3 46 8 195 255 255 255
3 8 73 195 255 255 255
3 260 177 8 255 255 255
3 20 47 201 255 255 255
3 47 184 201 255 255 255
3 206 220 260 255 255 255
3 82 206 267 255 255 255
3 151 201 252 255 255 255
3 151 250 201 255 255 255
3 204 18 93 255 255 255
3 122 71 204 255 255 255
3 46 195 71 255 255 255
3 8 177 73 255 255 255
3 184 151 201 255 255 255
3 47 171 184 255 255 255
3 220 177 260 255 255 255
3 201 206 252 255 255 255
3 201 82 252 255 255 255
3 93 171 200 255 255 255
3 18 173 93 255 255 255
3 204 17 18 255 255 255
3 71 195 72 255 255 255
3 69 72 195 255 255 255
3 195 73 69 255 255 255
3 171 47 200 255 255 255
3 252 206 82 255 255 255
3 151 184 250 255 255 255
3 17 171 18 255 255 255
3 72 76 71 255 255 255
3 69 132 72 255 255 255
3 73 75 69 255 255 255
3 75 77 69 255 255 255
3 177 116 73 255 255 255
3 130 184 171 255 255 255
3 184 244 250 255 255 255
3 220 282 177 255 255 255
3 220 244 282 255 255 255
3 206 250 220 255 255 255
3 250 244 220 255 255 255
3 17 130 171 255 255 255
3 204 71 17 255 255 255
3 76 42 71 255 255 255
3 72 132 76 255 255 255
3 75 221 77 255 255 255
3 184 126 244 255 255 255
3 130 126 184 255 255 255
3 244 123 282 255 255 255
3 17 131 130 255 255 255
3 71 42 17 255 255 255
3 77 132 69 255 255 255
3 221 135 77 255 255 255
3 221 136 135 255 255 255
3 73 116 75 255 255 255
3 131 273 130 255 255 255
3 126 99 244 255 255 255
3 130 273 126 255 255 255
3 177 282 116 255 255 255
3 244 99 123 255 255 255
3 17 117 131 255 255 255
3 132 119 76 255 255 255
3 77 119 132 255 255 255
3 77 284 119 255 255 255
3 135 284 77 255 255 255
3 136 284 135 255 255 255
3 75 120 221 255 255 255
3 116 123 75 255 255 255
3 131 127 273 255 255 255
3 117 278 131 255 255 255
3 118 124 76 255 255 255
3 76 274 118 255 255 255
3 119 274 76 255 255 255
3 221 53 136 255 255 255
3 120 53 221 255 255 255
3 75 286 120 255 255 255
3 123 286 75 255 255 255
3 116 282 123 255 255 255
3 126 273 99 255 255 255
3 17 128 117 255 255 255
3 124 268 76 255 255 255
3 284 274 119 255 255 255
3 136 274 284 255 255 255
3 136 276 274 255 255 255
3 285 276 136 255 255 255
3 136 53 285 255 255 255
3 286 53 120 255 255 255
3 127 40 273 255 255 255
3 273 224 99 255 255 255
3 273 40 224 255 255 255
3 117 275 278 255 255 255
3 128 124 117 255 255 255
3 124 128 268 255 255 255
3 123 224 286 255 255 255
3 40 53 224 255 255 255
3 53 286 224 255 255 255
3 117 124 275 255 255 255
3 118 172 124 255 255 255
3 118 274 243 255 255 255
3 274 276 243 255 255 255
3 53 277 285 255 255 255
3 123 99 224 255 255 255
3 127 278 40 255 255 255
3 275 172 278 255 255 255
3 17 268 128 255 255 255
3 172 275 124 255 255 255
3 243 172 118 255 255 255
3 276 285 172 255 255 255
3 277 152 285 255 255 255
3 53 40 277 255 255 255
3 278 277 40 255 255 255
3 127 131 278 255 255 255
3 172 152 278 255 255 255
3 277 278 152 255 255 255
3 172 243 276 255 255 255
3 207 254 241 255 255 255
