ply
format ascii 1.0
element vertex 322
property float x
property float y
property float z
element face 576
property list uchar int vertex_indices
property uchar red
property uchar green
property uchar blue
end_header
3.44558358192443848 9.25050640106201172 -0.898339688777923584
3.41000008583068848 9.16899967193603516 -0.880999982357025146
3.4179999828338623 9.14999961853027344 -0.88200002908706665
3.43499994277954102 9.17899990081787109 -0.813000023365020752
3.45799994468688965 9.27499961853027344 -0.893999993801116943
3.45926761627197266 9.23875904083251953 -0.904088497161865234
3.46399998664855957 9.23299980163574219 -0.904999971389770508
3.4159998893737793 9.23099994659423828 -0.90700000524520874
3.46054482460021973 9.23165321350097656 -0.902097105979919434
3.44990229606628418 9.14316940307617188 -0.756309807300567627
3.31800007820129395 9.30000019073486328 -0.859000027179718018
3.42600011825561523 9.16100025177001953 -0.878000020980834961
3.34514808654785156 9.25552558898925781 -0.90059971809387207
3.44523286819458008 9.2689971923828125 -0.887205302715301514
3.42199993133544922 9.24899959564208984 -0.897000014781951904
3.45000004768371582 9.17599964141845703 -0.861000001430511475
3.43199992179870605 9.15200042724609375 -0.814999997615814209
3.45424985885620117 9.3222503662109375 -0.826749980449676514
3.44499993324279785 9.30799961090087891 -0.815999984741210938
3.45600008964538574 9.31200027465820312 -0.824000000953674316
3.44749999046325684 9.32499980926513672 -0.828500032424926758
3.44600009918212891 9.32800006866455078 -0.833000004291534424
3.30900001525878906 9.29199981689453125 -0.832000017166137695
3.30320453643798828 9.29415130615234375 -0.833099424839019775
3.32706332206726074 9.30089282989501953 -0.831730663776397705
3.29725766181945801 9.27813339233398438 -0.848423600196838379
3.30299997329711914 9.27400016784667969 -0.841000020503997803
3.42799997329711914 9.15750026702880859 -0.756500005722045898
3.43600010871887207 9.24600028991699219 -0.901000022888183594
3.31113028526306152 9.29789447784423828 -0.876679122447967529
3.33500003814697266 9.28999996185302734 -0.874000012874603271
3.30940485000610352 9.30324172973632812 -0.9049643874168396
3.34400010108947754 9.26700019836425781 -0.903999984264373779
3.3619999885559082 9.27999973297119141 -0.870999991893768311
3.3600001335144043 9.28849983215332031 -0.910499989986419678
3.36400008201599121 9.26299953460693359 -0.897000014781951904
3.31376886367797852 9.26648807525634766 -0.916168868541717529
3.33699989318847656 9.26500034332275391 -0.898999989032745361
3.46700000762939453 9.26500034332275391 -0.893999993801116943
3.43568539619445801 9.17006206512451172 -0.77399975061416626
3.34950017929077148 9.28249931335449219 -0.871500015258789062
3.46825122833251953 9.26791572570800781 -0.912185788154602051
3.43499994277954102 9.22299957275390625 -0.903999984264373779
3.43300008773803711 9.24199962615966797 -0.916000008583068848
3.42000007629394531 9.25199985504150391 -0.908999979496002197
3.42000007629394531 9.16100025177001953 -0.890999972820281982
3.42700004577636719 9.19499969482421875 -0.871999979019165039
3.36801505088806152 9.28040504455566406 -0.911454200744628906
3.42899990081787109 9.21599960327148438 -0.898000001907348633
3.36350512504577637 9.25820064544677734 -0.904321789741516113
3.49797248840332031 9.26917457580566406 -0.904877543449401855
3.41499996185302734 9.17199993133544922 -0.879000008106231689
3.44300007820129395 9.17099952697753906 -0.823000013828277588
3.42049980163574219 9.14299964904785156 -0.766124963760375977
3.44840884208679199 9.29340076446533203 -0.82487034797668457
3.43199992179870605 9.17399978637695312 -0.865000009536743164
3.40899991989135742 9.28100013732910156 -0.893999993801116943
3.44070744514465332 9.18075752258300781 -0.819974124431610107
3.43300008773803711 9.27700042724609375 -0.876999974250793457
3.44099998474121094 9.30949974060058594 -0.824000000953674316
3.47592782974243164 9.27542877197265625 -0.917110979557037354
3.44000005722045898 9.28299999237060547 -0.875999987125396729
3.44899725914001465 9.17700290679931641 -0.799015641212463379
3.37842440605163574 9.2653350830078125 -0.915427982807159424
3.33812737464904785 9.27314281463623047 -0.878156661987304688
3.45649242401123047 9.13900184631347656 -0.76102137565612793
3.42332673072814941 9.17938327789306641 -0.892538070678710938
3.42437410354614258 9.19302558898925781 -0.889739871025085449
3.44738459587097168 9.16560268402099609 -0.856849610805511475
3.44375514984130859 9.14811325073242188 -0.784099757671356201
3.43400001525878906 9.32299995422363281 -0.824999988079071045
3.40986180305480957 9.16018962860107422 -0.886941075325012207
3.43600010871887207 9.17500019073486328 -0.804000020027160645
3.4334864616394043 9.29524040222167969 -0.899416267871856689
3.43400001525878906 9.18200016021728516 -0.865999996662139893
3.4309999942779541 9.14900016784667969 -0.750999987125396729
3.40799999237060547 9.19999980926513672 -0.888000011444091797
3.31500005722045898 9.30500030517578125 -0.880999982357025146
3.43199992179870605 9.21599960327148438 -0.890999972820281982
3.4307861328125 9.14117908477783203 -0.78160703182220459
3.34599995613098145 9.27299976348876953 -0.884000003337860107
3.35597014427185059 9.27702808380126953 -0.880192339420318604
3.31682491302490234 9.29806137084960938 -0.891264557838439941
3.30999994277954102 9.30799961090087891 -0.906000018119812012
3.34572291374206543 9.28694725036621094 -0.883633255958557129
3.31500005722045898 9.27299976348876953 -0.853999972343444824
3.33652400970458984 9.30400753021240234 -0.838423669338226318
3.33599996566772461 9.28349971771240234 -0.839499950408935547
3.3188021183013916 9.26819419860839844 -0.842301249504089355
3.32722568511962891 9.27175807952880859 -0.851405739784240723
3.3990175724029541 9.26852703094482422 -0.899726688861846924
3.43412542343139648 9.19537067413330078 -0.872712194919586182
3.44199991226196289 9.16899967193603516 -0.81800001859664917
3.43799996376037598 9.28499984741210938 -0.883000016212463379
3.44500017166137695 9.28050041198730469 -0.898999989032745361
3.4340662956237793 9.17983436584472656 -0.887965023517608643
3.42799997329711914 9.19299983978271484 -0.865999996662139893
3.44660091400146484 9.18866348266601562 -0.852068245410919189
3.4159998893737793 9.17800045013427734 -0.855000019073486328
3.44499993324279785 9.17099952697753906 -0.763999998569488525
3.43400001525878906 9.319000244140625 -0.842000007629394531
3.4153437614440918 9.25183677673339844 -0.902654170989990234
3.4421696662902832 9.19111251831054688 -0.796427667140960693
3.4159998893737793 9.17700004577636719 -0.859000027179718018
3.44000005722045898 9.17899990081787109 -0.802999973297119141
3.45322608947753906 9.15664196014404297 -0.777340531349182129
3.4570000171661377 9.18599987030029297 -0.81400001049041748
3.44914436340332031 9.17047119140625 -0.766140997409820557
3.41530895233154297 9.15523338317871094 -0.878183126449584961
3.30635595321655273 9.3059539794921875 -0.917154908180236816
3.44000482559204102 9.31258869171142578 -0.845712065696716309
3.46099996566772461 9.30900001525878906 -0.824000000953674316
3.45600008964538574 9.30900001525878906 -0.824000000953674316
3.34500002861022949 9.28824996948242188 -0.87349998950958252
3.30362510681152344 9.29762458801269531 -0.886500000953674316
3.35600829124450684 9.27707004547119141 -0.875752806663513184
3.34694242477416992 9.26340770721435547 -0.893830180168151855
3.35700011253356934 9.2910003662109375 -0.873000025749206543
3.35400009155273438 9.27900028228759766 -0.902999997138977051
3.37573647499084473 9.27120876312255859 -0.90891563892364502
3.46649742126464844 9.26332187652587891 -0.883720219135284424
3.45104598999023438 9.25604629516601562 -0.896131992340087891
3.39926242828369141 9.27860260009765625 -0.898486614227294922
3.41161847114562988 9.15256881713867188 -0.888413012027740479
3.41899991035461426 9.18000030517578125 -0.875999987125396729
3.46000003814697266 9.14500045776367188 -0.763000011444091797
3.30100011825561523 9.31599998474121094 -0.913999974727630615
3.36899995803833008 9.27600002288818359 -0.90700000524520874
3.43499994277954102 9.26500034332275391 -0.883000016212463379
3.44300007820129395 9.24499988555908203 -0.89999997615814209
3.42840480804443359 9.27310657501220703 -0.885466694831848145
3.41000008583068848 9.20800018310546875 -0.892000019550323486
3.35033297538757324 9.26412105560302734 -0.908160209655761719
3.31703734397888184 9.28301525115966797 -0.830992996692657471
3.31299996376037598 9.30799961090087891 -0.83899998664855957
3.32895588874816895 9.28158378601074219 -0.832610487937927246
3.31750011444091797 9.27549934387207031 -0.840999960899353027
3.30325007438659668 9.29075050354003906 -0.852750003337860107
3.31699991226196289 9.30399990081787109 -0.852999985218048096
3.32800006866455078 9.30300045013427734 -0.842000007629394531
3.33154106140136719 9.27182960510253906 -0.86362767219543457
3.34999990463256836 9.27499961853027344 -0.88200002908706665
3.29897880554199219 9.31049633026123047 -0.901846766471862793
3.41499996185302734 9.17099952697753906 -0.893000006675720215
3.43098878860473633 9.26840782165527344 -0.917233943939208984
3.40095233917236328 9.28499603271484375 -0.898008763790130615
3.44702458381652832 9.19196987152099609 -0.861986339092254639
3.42569565773010254 9.15500545501708984 -0.819295108318328857
3.3630063533782959 9.26641845703125 -0.915840506553649902
3.43899989128112793 9.27999973297119141 -0.89999997615814209
3.4179999828338623 9.25399971008300781 -0.892000019550323486
3.41499996185302734 9.18299961090087891 -0.88200002908706665
3.30900001525878906 9.25150012969970703 -0.91100001335144043
3.46103596687316895 9.26784610748291016 -0.902794837951660156
3.44418525695800781 9.14997959136962891 -0.840149641036987305
3.44600009918212891 9.27200031280517578 -0.890999972820281982
3.41787314414978027 9.27580833435058594 -0.88969796895980835
3.42700004577636719 9.17599964141845703 -0.857999980449676514
3.45583057403564453 9.17752456665039062 -0.803435683250427246
3.44799995422363281 9.29599952697753906 -0.828999996185302734
3.43400001525878906 9.22799968719482422 -0.890999972820281982
3.40226244926452637 9.26349735260009766 -0.915765523910522461
3.41700005531311035 9.21700000762939453 -0.897000014781951904
3.42447757720947266 9.19595623016357422 -0.863163888454437256
3.44050002098083496 9.15550041198730469 -0.851000010967254639
3.43947172164916992 9.15635967254638672 -0.847378194332122803
3.3469998836517334 9.25500011444091797 -0.906000018119812012
3.47399997711181641 9.24800014495849609 -0.908999979496002197
3.31467151641845703 9.26922702789306641 -0.903357863426208496
3.44778156280517578 9.1345062255859375 -0.768347799777984619
3.36800003051757812 9.28050041198730469 -0.878000020980834961
3.43400001525878906 9.32299995422363281 -0.832000017166137695
3.32699990272521973 9.27099990844726562 -0.861999988555908203
3.43300008773803711 9.16800022125244141 -0.851000010967254639
3.32425665855407715 9.25926399230957031 -0.909872472286224365
3.45600008964538574 9.17899990081787109 -0.81099998950958252
3.4125831127166748 9.22371768951416016 -0.885412812232971191
3.45154047012329102 9.15456771850585938 -0.757537662982940674
3.42538285255432129 9.20978164672851562 -0.906949520111083984
3.45499992370605469 9.26200008392333984 -0.885999977588653564
3.41798877716064453 9.28404045104980469 -0.906795501708984375
3.41700005531311035 9.21300029754638672 -0.91100001335144043
3.4440000057220459 9.24600028991699219 -0.903999984264373779
3.4309999942779541 9.19499969482421875 -0.884000003337860107
3.40700006484985352 9.2220001220703125 -0.887000024318695068
3.4535365104675293 9.22720241546630859 -0.900570988655090332
3.41044449806213379 9.20301723480224609 -0.875795245170593262
3.36500000953674316 9.2779998779296875 -0.879999995231628418
3.43000006675720215 9.25 -0.898999989032745361
3.41425991058349609 9.29603481292724609 -0.903528392314910889
3.43199992179870605 9.17300033569335938 -0.800000011920928955
3.44099998474121094 9.33199977874755859 -0.825999975204467773
3.31200003623962402 9.31000041961669922 -0.888000011444091797
3.34800004959106445 9.27499961853027344 -0.865000009536743164
3.46336197853088379 9.30293655395507812 -0.828817188739776611
3.44099998474121094 9.29300022125244141 -0.829999983310699463
3.4532015323638916 9.2982635498046875 -0.841658890247344971
3.43499994277954102 9.29699993133544922 -0.833000004291534424
3.42899990081787109 9.31700038909912109 -0.833000004291534424
3.44000005722045898 9.32199954986572266 -0.819999992847442627
3.30200648307800293 9.30054473876953125 -0.875978052616119385
3.32200002670288086 9.26299953460693359 -0.859000027179718018
3.31699991226196289 9.29800033569335938 -0.865999996662139893
3.3469998836517334 9.27999973297119141 -0.892000019550323486
3.43009376525878906 9.23603439331054688 -0.917698681354522705
3.42530441284179688 9.20048427581787109 -0.90501248836517334
3.42400002479553223 9.13599967956542969 -0.777000010013580322
3.4528038501739502 9.14907169342041016 -0.774118006229400635
3.48258829116821289 9.26688671112060547 -0.90082550048828125
3.44199991226196289 9.22599983215332031 -0.903999984264373779
3.43300008773803711 9.18500041961669922 -0.808000028133392334
3.44684743881225586 9.17658615112304688 -0.855070531368255615
3.48800063133239746 9.25601387023925781 -0.908000826835632324
3.4244999885559082 9.21500015258789062 -0.91250002384185791
3.35479187965393066 9.25376510620117188 -0.891843616962432861
3.4309999942779541 9.24699974060058594 -0.898999989032745361
3.29800009727478027 9.32699966430664062 -0.907999992370605469
3.44099998474121094 9.28699970245361328 -0.898000001907348633
3.41504883766174316 9.26100349426269531 -0.886987209320068359
3.43248319625854492 9.25225734710693359 -0.908589541912078857
3.44099998474121094 9.18400001525878906 -0.805000007152557373
3.45799994468688965 9.26099967956542969 -0.892500042915344238
3.44099998474121094 9.22099971771240234 -0.912999987602233887
3.42000007629394531 9.23499965667724609 -0.906000018119812012
3.29998421669006348 9.26447010040283203 -0.907058775424957275
3.48000001907348633 9.25399971008300781 -0.894999980926513672
3.44700002670288086 9.22799968719482422 -0.894999980926513672
3.4179999828338623 9.23099994659423828 -0.904999971389770508
3.33100008964538574 9.26900005340576172 -0.904999971389770508
3.40128803253173828 9.20520210266113281 -0.88820117712020874
3.42620611190795898 9.14313411712646484 -0.753393292427062988
3.31399989128112793 9.31700038909912109 -0.879000008106231689
3.40474987030029297 9.19546985626220703 -0.878188848495483398
3.43199992179870605 9.17500019073486328 -0.801999986171722412
1 1 1
3.31299996376037598 9.30799961090087891 -0.874000012874603271
3.44000005722045898 9.29300022125244141 -0.823000013828277588
3.44899988174438477 9.30200004577636719 -0.846000015735626221
3.44111013412475586 9.31912326812744141 -0.844168543815612793
3.43799996376037598 9.305999755859375 -0.83899998664855957
3.45609211921691895 9.31998443603515625 -0.850556075572967529
3.44799995422363281 9.30212497711181641 -0.856999993324279785
3.45799994468688965 9.30900001525878906 -0.83899998664855957
3.44499993324279785 9.30099964141845703 -0.858500003814697266
3.4570000171661377 9.30299949645996094 -0.847499966621398926
3.42299985885620117 9.26799964904785156 -0.916499972343444824
3.41717243194580078 9.28309345245361328 -0.895063221454620361
3.42499995231628418 9.21000003814697266 -0.915000021457672119
3.4105532169342041 9.27729225158691406 -0.917336046695709229
3.42946672439575195 9.28365230560302734 -0.908334195613861084
3.41101765632629395 9.18297100067138672 -0.860948264598846436
3.44679689407348633 9.17081069946289062 -0.774759292602539062
3.45988202095031738 9.25670719146728516 -0.904494643211364746
3.42199993133544922 9.1660003662109375 -0.875999987125396729
3.4570000171661377 9.18299961090087891 -0.800000011920928955
3.4440000057220459 9.16800022125244141 -0.819999992847442627
3.43637371063232422 9.13348197937011719 -0.767441034317016602
3.45609569549560547 9.24018478393554688 -0.907861411571502686
3.41499996185302734 9.21000003814697266 -0.903999984264373779
3.34800004959106445 9.29349994659423828 -0.903499960899353027
3.43799996376037598 9.28499984741210938 -0.889999985694885254
3.41899991035461426 9.17000007629394531 -0.856999993324279785
3.41400003433227539 9.22299957275390625 -0.892000019550323486
3.44621014595031738 9.26189804077148438 -0.902833044528961182
3.44199991226196289 9.13599967956542969 -0.779999971389770508
3.41300010681152344 9.21100044250488281 -0.901000022888183594
3.44799995422363281 9.319000244140625 -0.848999977111816406
3.31200003623962402 9.31200027465820312 -0.903999984264373779
3.41684436798095703 9.15402984619140625 -0.766224503517150879
3.48638534545898438 9.25237178802490234 -0.90060049295425415
3.42498087882995605 9.15740489959716797 -0.775887906551361084
3.43197846412658691 9.1720123291015625 -0.859953224658966064
3.43475580215454102 9.17245101928710938 -0.878299951553344727
3.44899868965148926 9.32599544525146484 -0.833972930908203125
3.45892763137817383 9.30262660980224609 -0.831933021545410156
3.31090497970581055 9.27448272705078125 -0.860726594924926758
3.3071587085723877 9.29067420959472656 -0.863974690437316895
3.3029325008392334 9.30498218536376953 -0.856063783168792725
3.32499980926513672 9.29400062561035156 -0.847000002861022949
3.3308415412902832 9.28414249420166016 -0.85169750452041626
3.32026553153991699 9.27010154724121094 -0.853552460670471191
3.32087373733520508 9.27949714660644531 -0.866065859794616699
3.29972267150878906 9.31024551391601562 -0.883932888507843018
3.30350017547607422 9.30237579345703125 -0.895500004291534424
3.3298490047454834 9.28580760955810547 -0.875082850456237793
3.47900009155273438 9.25150012969970703 -0.915000021457672119
3.4254295825958252 9.25706195831298828 -0.914796113967895508
3.42100000381469727 9.25300025939941406 -0.912999987602233887
3.42100000381469727 9.21199989318847656 -0.879000008106231689
3.35199999809265137 9.2649993896484375 -0.891999959945678711
3.43674993515014648 9.28824996948242188 -0.879500031471252441
3.42600011825561523 9.16300010681152344 -0.883000016212463379
3.44000005722045898 9.12899971008300781 -0.787999987602233887
3.47399997711181641 9.27000045776367188 -0.908999979496002197
3.44614100456237793 9.141937255859375 -0.781001389026641846
3.42435669898986816 9.14899826049804688 -0.780158817768096924
3.44099998474121094 9.32600021362304688 -0.837999999523162842
3.3229365348815918 9.26509952545166016 -0.867895960807800293
3.34850001335144043 9.29349994659423828 -0.877499997615814209
3.29733777046203613 9.30681324005126953 -0.873033225536346436
3.33500003814697266 9.28499984741210938 -0.86799997091293335
3.30200004577636719 9.31599998474121094 -0.893999993801116943
3.30049991607666016 9.30312538146972656 -0.911374986171722412
3.30699992179870605 9.30300045013427734 -0.843999981880187988
3.32200002670288086 9.30700016021728516 -0.842000007629394531
3.33325648307800293 9.29101753234863281 -0.829727768898010254
3.37103891372680664 9.27613735198974609 -0.915382146835327148
3.47243857383728027 9.24775028228759766 -0.905058324337005615
3.43964648246765137 9.27229690551757812 -0.914059758186340332
3.40799999237060547 9.17000007629394531 -0.849500000476837158
3.40715289115905762 9.15877151489257812 -0.876584172248840332
3.42899990081787109 9.16199970245361328 -0.820999979972839355
3.45101284980773926 9.24200916290283203 -0.905869245529174805
3.43499994277954102 9.16399955749511719 -0.763000011444091797
3.44375324249267578 9.31427478790283203 -0.820646286010742188
3.43819093704223633 9.12687969207763672 -0.780131995677947998
3.37050008773803711 9.27600002288818359 -0.909999966621398926
3.31335639953613281 9.25370502471923828 -0.916236519813537598
3.44050002098083496 9.15600013732910156 -0.757500052452087402
3.30150008201599121 9.25449943542480469 -0.903499960899353027
3.29900002479553223 9.31200027465820312 -0.912000000476837158
3.44045758247375488 9.22771072387695312 -0.91706085205078125
3 240 241 238 255 255 255
3 241 243 238 255 255 255
3 242 244 240 255 255 255
3 240 238 242 255 255 255
3 238 239 242 255 255 255
3 240 244 241 255 255 255
3 242 274 244 255 255 255
3 239 274 242 255 255 255
3 238 296 239 255 255 255
3 243 110 238 255 255 255
3 244 196 241 255 255 255
3 244 274 196 255 255 255
3 239 159 274 255 255 255
3 296 171 239 255 255 255
3 238 266 296 255 255 255
3 274 194 196 255 255 255
3 194 54 196 255 255 255
3 159 111 274 255 255 255
3 239 197 159 255 255 255
3 171 70 239 255 255 255
3 296 199 171 255 255 255
3 238 110 266 255 255 255
3 239 198 110 255 255 255
3 110 237 239 255 255 255
3 195 237 196 255 255 255
3 196 159 195 255 255 255
3 274 17 194 255 255 255
3 111 17 274 255 255 255
3 159 54 111 255 255 255
3 197 236 159 255 255 255
3 199 198 171 255 255 255
3 296 191 199 255 255 255
3 237 197 239 255 255 255
3 237 195 197 255 255 255
3 195 236 197 255 255 255
3 237 241 196 255 255 255
3 237 243 241 255 255 255
3 111 54 194 255 255 255
3 111 112 54 255 255 255
3 194 17 111 255 255 255
3 236 112 159 255 255 255
3 198 238 171 255 255 255
3 236 195 54 255 255 255
3 54 18 236 255 255 255
3 112 18 54 255 255 255
3 112 19 18 255 255 255
3 17 19 111 255 255 255
3 17 199 20 255 255 255
3 238 20 171 255 255 255
3 198 100 238 255 255 255
3 18 59 236 255 255 255
3 19 314 18 255 255 255
3 20 273 17 255 255 255
3 20 296 273 255 255 255
3 18 314 59 255 255 255
3 21 20 273 255 255 255
3 296 266 273 255 255 255
3 20 100 296 255 255 255
3 22 24 23 255 255 255
3 23 25 22 255 255 255
3 24 303 23 255 255 255
3 22 305 24 255 255 255
3 25 26 22 255 255 255
3 23 137 25 255 255 255
3 24 304 303 255 255 255
3 22 133 305 255 255 255
3 26 133 22 255 255 255
3 26 136 133 255 255 255
3 23 277 137 255 255 255
3 303 277 23 255 255 255
3 303 134 277 255 255 255
3 304 138 303 255 255 255
3 305 86 24 255 255 255
3 133 135 305 255 255 255
3 26 88 136 255 255 255
3 134 138 277 255 255 255
3 304 139 138 255 255 255
3 305 87 86 255 255 255
3 135 87 305 255 255 255
3 136 88 133 255 255 255
3 25 275 26 255 255 255
3 137 276 25 255 255 255
3 138 10 277 255 255 255
3 139 10 138 255 255 255
3 139 278 10 255 255 255
3 304 24 139 255 255 255
3 24 86 139 255 255 255
3 86 278 139 255 255 255
3 87 279 86 255 255 255
3 88 135 133 255 255 255
3 89 135 88 255 255 255
3 88 280 89 255 255 255
3 275 85 26 255 255 255
3 276 275 25 255 255 255
3 276 281 275 255 255 255
3 277 276 137 255 255 255
3 277 200 276 255 255 255
3 277 299 200 255 255 255
3 278 279 10 255 255 255
3 279 278 86 255 255 255
3 87 89 279 255 255 255
3 89 87 135 255 255 255
3 280 172 89 255 255 255
3 88 85 280 255 255 255
3 85 88 26 255 255 255
3 275 201 85 255 255 255
3 276 29 281 255 255 255
3 200 29 276 255 255 255
3 200 114 29 255 255 255
3 279 300 10 255 255 255
3 89 300 279 255 255 255
3 89 140 300 255 255 255
3 280 297 172 255 255 255
3 201 280 85 255 255 255
3 297 280 275 255 255 255
3 275 281 297 255 255 255
3 29 284 281 255 255 255
3 299 114 200 255 255 255
3 299 283 114 255 255 255
3 300 30 10 255 255 255
3 140 64 300 255 255 255
3 201 140 89 255 255 255
3 297 140 172 255 255 255
3 281 64 297 255 255 255
3 281 284 64 255 255 255
3 114 82 29 255 255 255
3 30 202 10 255 255 255
3 300 113 30 255 255 255
3 64 113 300 255 255 255
3 140 297 64 255 255 255
3 284 80 64 255 255 255
3 29 82 284 255 255 255
3 82 30 284 255 255 255
3 114 283 82 255 255 255
3 299 142 283 255 255 255
3 299 282 142 255 255 255
3 282 301 142 255 255 255
3 202 235 10 255 255 255
3 30 77 202 255 255 255
3 113 298 30 255 255 255
3 300 40 113 255 255 255
3 64 141 113 255 255 255
3 140 300 172 255 255 255
3 80 115 64 255 255 255
3 284 203 80 255 255 255
3 30 84 284 255 255 255
3 30 298 84 255 255 255
3 82 77 30 255 255 255
3 82 192 77 255 255 255
3 283 31 82 255 255 255
3 283 302 31 255 255 255
3 142 302 283 255 255 255
3 282 231 301 255 255 255
3 282 235 192 255 255 255
3 299 231 282 255 255 255
3 202 77 235 255 255 255
3 141 81 113 255 255 255
3 140 193 300 255 255 255
3 140 115 193 255 255 255
3 115 140 64 255 255 255
3 80 141 115 255 255 255
3 203 116 80 255 255 255
3 84 203 284 255 255 255
3 298 81 84 255 255 255
3 82 31 192 255 255 255
3 31 83 192 255 255 255
3 301 216 142 255 255 255
3 235 77 192 255 255 255
3 299 235 231 255 255 255
3 141 289 81 255 255 255
3 80 289 141 255 255 255
3 80 116 289 255 255 255
3 203 32 116 255 255 255
3 81 203 84 255 255 255
3 81 289 203 255 255 255
3 298 117 81 255 255 255
3 83 301 192 255 255 255
3 31 109 83 255 255 255
3 109 267 83 255 255 255
3 302 109 31 255 255 255
3 142 320 302 255 255 255
3 216 320 142 255 255 255
3 216 126 320 255 255 255
3 113 117 298 255 255 255
3 113 40 117 255 255 255
3 40 33 117 255 255 255
3 115 33 193 255 255 255
3 116 214 289 255 255 255
3 32 12 116 255 255 255
3 203 118 32 255 255 255
3 117 187 81 255 255 255
3 83 320 301 255 255 255
3 109 126 267 255 255 255
3 320 109 302 255 255 255
3 33 170 117 255 255 255
3 40 193 33 255 255 255
3 115 187 33 255 255 255
3 116 37 214 255 255 255
3 32 166 12 255 255 255
3 118 132 32 255 255 255
3 203 259 118 255 255 255
3 117 170 187 255 255 255
3 214 37 12 255 255 255
3 166 49 12 255 255 255
3 32 132 166 255 255 255
3 118 148 132 255 255 255
3 259 34 118 255 255 255
3 37 228 12 255 255 255
3 49 214 12 255 255 255
3 166 132 49 255 255 255
3 132 148 49 255 255 255
3 118 34 148 255 255 255
3 34 47 148 255 255 255
3 49 119 214 255 255 255
3 35 289 214 255 255 255
3 214 119 35 255 255 255
3 119 316 35 255 255 255
3 148 63 49 255 255 255
3 306 63 148 255 255 255
3 306 119 63 255 255 255
3 148 47 306 255 255 255
3 316 127 35 255 255 255
3 49 63 119 255 255 255
3 306 316 119 255 255 255
3 316 47 127 255 255 255
3 47 34 127 255 255 255
3 317 174 152 255 255 255
3 152 224 317 255 255 255
3 152 168 319 255 255 255
3 36 174 317 255 255 255
3 317 224 36 255 255 255
3 152 319 224 255 255 255
3 152 174 168 255 255 255
3 36 228 174 255 255 255
3 224 168 36 255 255 255
3 224 319 168 255 255 255
3 36 168 228 255 255 255
3 60 208 50 255 255 255
3 60 293 208 255 255 255
3 50 212 60 255 255 255
3 293 153 208 255 255 255
3 60 41 293 255 255 255
3 41 153 293 255 255 255
3 60 285 41 255 255 255
3 212 285 60 255 255 255
3 153 38 208 255 255 255
3 41 252 153 255 255 255
3 212 269 285 255 255 255
3 50 269 212 255 255 255
3 38 225 208 255 255 255
3 153 4 38 255 255 255
3 4 120 38 255 255 255
3 153 94 4 255 255 255
3 252 263 153 255 255 255
3 285 252 41 255 255 255
3 285 167 252 255 255 255
3 167 257 252 255 255 255
3 269 167 285 255 255 255
3 269 307 167 255 255 255
3 38 120 225 255 255 255
3 153 308 94 255 255 255
3 257 312 252 255 255 255
3 167 5 257 255 255 255
3 307 6 167 255 255 255
3 225 307 269 255 255 255
3 269 208 225 255 255 255
3 269 50 208 255 255 255
3 4 13 120 255 255 255
3 94 260 4 255 255 255
3 308 149 94 255 255 255
3 153 263 308 255 255 255
3 252 312 263 255 255 255
3 312 182 263 255 255 255
3 5 6 257 255 255 255
3 225 221 307 255 255 255
3 120 13 179 255 255 255
3 4 155 13 255 255 255
3 94 217 260 255 255 255
3 217 73 260 255 255 255
3 149 217 94 255 255 255
3 149 249 217 255 255 255
3 308 249 149 255 255 255
3 308 144 249 255 255 255
3 182 219 263 255 255 255
3 6 8 257 255 255 255
3 5 167 6 255 255 255
3 307 121 5 255 255 255
3 225 120 221 255 255 255
3 13 128 179 255 255 255
3 155 260 13 255 255 255
3 73 290 260 255 255 255
3 219 286 263 255 255 255
3 182 43 219 255 255 255
3 257 185 312 255 255 255
3 8 321 257 255 255 255
3 307 221 121 255 255 255
3 221 179 121 255 255 255
3 128 121 179 255 255 255
3 13 58 128 255 255 255
3 260 58 13 255 255 255
3 260 156 58 255 255 255
3 290 93 260 255 255 255
3 73 246 290 255 255 255
3 249 73 217 255 255 255
3 249 189 73 255 255 255
3 286 144 263 255 255 255
3 144 308 219 255 255 255
3 219 43 144 255 255 255
3 182 312 43 255 255 255
3 312 321 43 255 255 255
3 185 226 312 255 255 255
3 121 0 5 255 255 255
3 221 120 179 255 255 255
3 128 0 121 255 255 255
3 128 188 0 255 255 255
3 58 130 128 255 255 255
3 260 246 156 255 255 255
3 180 189 249 255 255 255
3 249 248 180 255 255 255
3 249 245 248 255 255 255
3 245 249 144 255 255 255
3 286 245 144 255 255 255
3 321 204 43 255 255 255
3 226 129 312 255 255 255
3 8 226 185 255 255 255
3 8 5 226 255 255 255
3 5 0 226 255 255 255
3 0 129 226 255 255 255
3 0 215 129 255 255 255
3 0 188 215 255 255 255
3 188 14 215 255 255 255
3 128 150 188 255 255 255
3 290 61 93 255 255 255
3 180 56 189 255 255 255
3 245 287 248 255 255 255
3 286 287 245 255 255 255
3 286 204 287 255 255 255
3 129 28 312 255 255 255
3 8 222 321 255 255 255
3 222 247 321 255 255 255
3 8 185 222 255 255 255
3 185 209 222 255 255 255
3 215 28 129 255 255 255
3 215 43 28 255 255 255
3 14 223 215 255 255 255
3 188 150 14 255 255 255
3 150 101 14 255 255 255
3 128 130 150 255 255 255
3 130 218 150 255 255 255
3 130 156 218 255 255 255
3 246 56 156 255 255 255
3 73 189 246 255 255 255
3 61 155 93 255 255 255
3 287 161 248 255 255 255
3 204 7 287 255 255 255
3 204 286 43 255 255 255
3 204 213 7 255 255 255
3 321 213 204 255 255 255
3 247 213 321 255 255 255
3 247 181 213 255 255 255
3 222 178 247 255 255 255
3 209 42 222 255 255 255
3 185 160 209 255 255 255
3 215 44 43 255 255 255
3 14 227 223 255 255 255
3 156 90 218 255 255 255
3 130 58 156 255 255 255
3 56 90 156 255 255 255
3 56 122 90 255 255 255
3 287 44 161 255 255 255
3 213 181 7 255 255 255
3 181 265 7 255 255 255
3 247 205 181 255 255 255
3 178 205 247 255 255 255
3 222 42 178 255 255 255
3 42 48 178 255 255 255
3 209 78 42 255 255 255
3 160 78 209 255 255 255
3 160 288 78 255 255 255
3 227 42 223 255 255 255
3 150 218 101 255 255 255
3 90 101 218 255 255 255
3 56 145 122 255 255 255
3 161 122 248 255 255 255
3 44 101 161 255 255 255
3 265 162 7 255 255 255
3 181 258 265 255 255 255
3 205 258 181 255 255 255
3 205 76 258 255 255 255
3 288 183 78 255 255 255
3 160 176 288 255 255 255
3 227 48 42 255 255 255
3 227 262 48 255 255 255
3 90 161 101 255 255 255
3 122 161 90 255 255 255
3 44 14 101 255 255 255
3 162 262 7 255 255 255
3 258 131 265 255 255 255
3 205 67 76 255 255 255
3 178 48 205 255 255 255
3 48 78 205 255 255 255
3 183 205 78 255 255 255
3 183 67 205 255 255 255
3 183 95 67 255 255 255
3 288 91 183 255 255 255
3 262 78 48 255 255 255
3 262 176 78 255 255 255
3 227 7 262 255 255 255
3 227 101 7 255 255 255
3 145 246 180 255 255 255
3 248 122 180 255 255 255
3 122 145 180 255 255 255
3 162 265 262 255 255 255
3 265 184 262 255 255 255
3 131 229 265 255 255 255
3 67 151 76 255 255 255
3 95 151 67 255 255 255
3 95 51 151 255 255 255
3 131 76 229 255 255 255
3 151 232 76 255 255 255
3 51 1 151 255 255 255
3 95 291 51 255 255 255
3 183 91 95 255 255 255
3 91 74 95 255 255 255
3 91 146 74 255 255 255
3 176 186 288 255 255 255
3 184 229 176 255 255 255
3 176 262 184 255 255 255
3 76 232 229 255 255 255
3 151 250 232 255 255 255
3 51 45 1 255 255 255
3 291 71 51 255 255 255
3 95 272 291 255 255 255
3 272 11 291 255 255 255
3 74 272 95 255 255 255
3 146 15 74 255 255 255
3 186 46 288 255 255 255
3 176 229 186 255 255 255
3 229 232 186 255 255 255
3 250 186 232 255 255 255
3 250 163 186 255 255 255
3 45 71 1 255 255 255
3 291 123 71 255 255 255
3 11 2 291 255 255 255
3 74 68 272 255 255 255
3 46 91 288 255 255 255
3 46 163 91 255 255 255
3 186 96 46 255 255 255
3 291 2 123 255 255 255
3 272 55 11 255 255 255
3 74 211 68 255 255 255
3 146 97 15 255 255 255
3 163 146 91 255 255 255
3 163 97 146 255 255 255
3 96 74 46 255 255 255
3 250 98 163 255 255 255
3 71 310 1 255 255 255
3 123 310 71 255 255 255
3 123 108 310 255 255 255
3 2 108 123 255 255 255
3 55 271 11 255 255 255
3 272 68 55 255 255 255
3 68 271 55 255 255 255
3 68 164 271 255 255 255
3 97 211 15 255 255 255
3 163 157 97 255 255 255
3 74 124 46 255 255 255
3 96 97 74 255 255 255
3 98 157 163 255 255 255
3 98 173 157 255 255 255
3 250 309 98 255 255 255
3 108 253 310 255 255 255
3 124 66 46 255 255 255
3 74 253 124 255 255 255
3 97 211 74 255 255 255
3 173 211 157 255 255 255
3 98 261 173 255 255 255
3 309 261 98 255 255 255
3 309 173 261 255 255 255
3 108 11 253 255 255 255
3 164 173 271 255 255 255
3 68 154 164 255 255 255
3 165 68 211 255 255 255
3 253 66 124 255 255 255
3 74 271 253 255 255 255
3 11 66 253 255 255 255
3 11 45 66 255 255 255
3 157 103 271 255 255 255
3 164 154 165 255 255 255
3 165 154 68 255 255 255
3 310 253 51 255 255 255
3 45 143 66 255 255 255
3 143 151 66 255 255 255
3 230 169 9 255 255 255
3 169 65 9 255 255 255
3 230 256 169 255 255 255
3 230 53 256 255 255 255
3 230 268 53 255 255 255
3 9 75 230 255 255 255
3 9 177 75 255 255 255
3 65 125 9 255 255 255
3 169 294 65 255 255 255
3 256 315 169 255 255 255
3 256 53 206 255 255 255
3 230 27 268 255 255 255
3 75 27 230 255 255 255
3 75 318 27 255 255 255
3 177 318 75 255 255 255
3 125 177 9 255 255 255
3 125 207 177 255 255 255
3 65 294 125 255 255 255
3 294 207 125 255 255 255
3 315 292 169 255 255 255
3 206 315 256 255 255 255
3 318 313 27 255 255 255
3 207 318 177 255 255 255
3 169 292 294 255 255 255
3 292 69 294 255 255 255
3 206 79 315 255 255 255
3 268 295 53 255 255 255
3 27 270 268 255 255 255
3 313 270 27 255 255 255
3 318 99 313 255 255 255
3 177 107 318 255 255 255
3 177 105 107 255 255 255
3 207 294 105 255 255 255
3 294 69 105 255 255 255
3 69 251 105 255 255 255
3 315 79 292 255 255 255
3 206 295 79 255 255 255
3 268 270 295 255 255 255
3 313 39 270 255 255 255
3 99 39 313 255 255 255
3 99 251 39 255 255 255
3 206 53 295 255 255 255
3 270 69 295 255 255 255
3 99 107 251 255 255 255
3 105 251 107 255 255 255
3 69 39 251 255 255 255
3 69 270 39 255 255 255
3 295 69 79 255 255 255
3 69 264 79 255 255 255
3 69 207 264 255 255 255
3 158 92 106 255 255 255
3 106 254 158 255 255 255
3 92 57 106 255 255 255
3 158 72 92 255 255 255
3 62 72 158 255 255 255
3 62 190 72 255 255 255
3 106 102 254 255 255 255
3 92 311 57 255 255 255
3 72 311 92 255 255 255
3 72 190 311 255 255 255
3 106 220 102 255 255 255
3 311 3 57 255 255 255
3 254 102 62 255 255 255
3 62 158 254 255 255 255
3 220 210 102 255 255 255
3 220 57 210 255 255 255
3 106 57 220 255 255 255
3 3 210 57 255 255 255
3 3 233 210 255 255 255
3 311 233 3 255 255 255
3 311 147 233 255 255 255
3 102 104 62 255 255 255
3 210 233 102 255 255 255
3 233 190 102 255 255 255
3 233 147 190 255 255 255
3 147 16 190 255 255 255
3 147 255 16 255 255 255
3 311 52 147 255 255 255
3 147 52 255 255 255 255
3 52 175 255 255 255 255
3 175 62 255 255 255 255
3 62 104 255 255 255 255
3 234 234 234 255 255 255
