ply
format ascii 1.0
element vertex 343
property float x
property float y
property float z
element face 576
property list uchar int vertex_indices
property uchar red
property uchar green
property uchar blue
end_header
8.33693790435791016 -0.131491586565971375 -0.565478742122650146
8.36699962615966797 -0.123999997973442078 -0.762000024318695068
8.33699989318847656 -0.133000001311302185 -0.514999985694885254
8.34000015258789062 -0.134499996900558472 -0.603999972343444824
8.35700035095214844 -0.136000007390975952 -0.694000005722045898
8.34500026702880859 -0.136000007390975952 -0.601999998092651367
8.32600021362304688 -0.129999995231628418 -0.414999991655349731
8.32199954986572266 -0.126000002026557922 -0.402999997138977051
8.31799983978271484 -0.126000002026557922 -0.277999997138977051
8.31599998474121094 -0.116999998688697815 -0.254000008106231689
8.35900020599365234 -0.126000002026557922 -0.870000004768371582
8.34899997711181641 -0.123999997973442078 -0.78600001335144043
8.32999992370605469 -0.134000003337860107 -0.53600001335144043
8.34799957275390625 -0.123999997973442078 -0.751999974250793457
8.35400009155273438 -0.123999997973442078 -0.718999981880187988
8.35099983215332031 -0.123999997973442078 -0.837000012397766113
8.33100032806396484 -0.123999997973442078 -0.43599998950958252
8.33199977874755859 -0.133000001311302185 -0.318499982357025146
8.34500026702880859 -0.142000004649162292 -0.542999982833862305
8.33699989318847656 -0.133000001311302185 -0.505999982357025146
8.34399986267089844 -0.128000006079673767 -0.500500023365020752
8.32400035858154297 -0.116500005125999451 -0.268999993801116943
8.36299991607666016 -0.123000003397464752 -0.792999982833862305
8.36200046539306641 -0.118000000715255737 -0.865999996662139893
8.33199977874755859 -0.14100000262260437 -0.388999998569488525
8.32999992370605469 -0.133000001311302185 -0.469999998807907104
8.35700035095214844 -0.126000002026557922 -0.711000025272369385
8.3361358642578125 -0.133048906922340393 -0.534959197044372559
8.33199977874755859 -0.123500004410743713 -0.43599998950958252
8.35000038146972656 -0.134000003337860107 -0.732999980449676514
8.36200046539306641 -0.129999995231628418 -0.702000021934509277
8.35700035095214844 -0.115999996662139893 -0.846000015735626221
8.33312606811523438 -0.132871776819229126 -0.37457391619682312
8.35099983215332031 -0.120999999344348907 -0.676999986171722412
8.35388755798339844 -0.116232998669147491 -0.836838364601135254
8.36499977111816406 -0.123000003397464752 -0.878000020980834961
8.36100006103515625 -0.114000000059604645 -0.862999975681304932
8.3339996337890625 -0.123000003397464752 -0.453999996185302734
8.35599994659423828 -0.120999999344348907 -0.745000004768371582
8.36800003051757812 -0.123000003397464752 -0.833000004291534424
8.3339996337890625 -0.123000003397464752 -0.448000013828277588
8.32400035858154297 -0.114000000059604645 -0.25
8.32600021362304688 -0.120999999344348907 -0.280999988317489624
8.37100028991699219 -0.133000001311302185 -0.815999984741210938
8.34500026702880859 -0.123999997973442078 -0.46799999475479126
8.35799980163574219 -0.128999993205070496 -0.772000014781951904
8.34500026702880859 -0.123999997973442078 -0.691999971866607666
8.34500026702880859 -0.123999997973442078 -0.625999987125396729
8.32100009918212891 -0.104999996721744537 -0.22800000011920929
8.32499980926513672 -0.126000002026557922 -0.430999994277954102
8.34300041198730469 -0.13500000536441803 -0.675000011920928955
8.31700038909912109 -0.123000003397464752 -0.386000007390975952
8.32324981689453125 -0.110500000417232513 -0.223499998450279236
8.36999988555908203 -0.120999999344348907 -0.885999977588653564
8.34500026702880859 -0.129999995231628418 -0.712999999523162842
8.36100006103515625 -0.11900000274181366 -0.800999999046325684
8.31599998474121094 -0.126000002026557922 -0.289000004529953003
8.34375 -0.128000006079673767 -0.533749997615814209
8.32100009918212891 -0.133000001311302185 -0.287000000476837158
8.35299968719482422 -0.123000003397464752 -0.705999970436096191
8.34899997711181641 -0.136999994516372681 -0.702000021934509277
8.35299968719482422 -0.13099999725818634 -0.685000002384185791
8.32499980926513672 -0.126000002026557922 -0.397000014781951904
8.32400035858154297 -0.112999998033046722 -0.234999999403953552
8.32900047302246094 -0.134000003337860107 -0.352999985218048096
8.34799957275390625 -0.129999995231628418 -0.46399998664855957
8.36699962615966797 -0.115000002086162567 -0.857500016689300537
8.3470001220703125 -0.133000001311302185 -0.656000018119812012
8.35099983215332031 -0.133000001311302185 -0.531000018119812012
8.34500026702880859 -0.142000004649162292 -0.513999998569488525
8.33899974822998047 -0.127000004053115845 -0.555000007152557373
8.34000015258789062 -0.140000000596046448 -0.433999985456466675
8.34099960327148438 -0.14100000262260437 -0.55699998140335083
8.35799980163574219 -0.11900000274181366 -0.767000019550323486
8.35799980163574219 -0.11900000274181366 -0.760999977588653564
8.36999988555908203 -0.133000001311302185 -0.735000014305114746
8.34799957275390625 -0.123999997973442078 -0.74299997091293335
8.34099960327148438 -0.123999997973442078 -0.683000028133392334
8.36894989013671875 -0.122624620795249939 -0.856258392333984375
8.36800003051757812 -0.11900000274181366 -0.816999971866607666
8.33300018310546875 -0.131999999284744263 -0.310000002384185791
8.36800003051757812 -0.10899999737739563 -0.859000027179718018
8.3470001220703125 -0.133000001311302185 -0.432999998331069946
8.36100006103515625 -0.126000002026557922 -0.77499997615814209
8.33899974822998047 -0.143000006675720215 -0.546999990940093994
8.33600044250488281 -0.136999994516372681 -0.488999992609024048
8.32900047302246094 -0.138000011444091797 -0.449999988079071045
8.36600017547607422 -0.115999996662139893 -0.883000016212463379
8.32900047302246094 -0.136999994516372681 -0.331000000238418579
8.36699962615966797 -0.138999998569488525 -0.728999972343444824
8.32950019836425781 -0.135499998927116394 -0.361500024795532227
8.35299968719482422 -0.123999997973442078 -0.853999972343444824
8.34500026702880859 -0.128999993205070496 -0.592000007629394531
8.34449958801269531 -0.127000004053115845 -0.65149998664855957
8.35000038146972656 -0.14100000262260437 -0.523999989032745361
8.31999969482421875 -0.128000006079673767 -0.372999995946884155
8.36649990081787109 -0.114500001072883606 -0.84450000524520874
8.34799957275390625 -0.133000001311302185 -0.400999993085861206
8.32600021362304688 -0.128000006079673767 -0.307000011205673218
8.33699989318847656 -0.127000004053115845 -0.414000004529953003
8.319000244140625 -0.129999995231628418 -0.402999997138977051
8.36499977111816406 -0.111000001430511475 -0.851000010967254639
8.34200000762939453 -0.134000003337860107 -0.624000012874603271
8.34500026702880859 -0.136000007390975952 -0.488999992609024048
8.35700035095214844 -0.118000000715255737 -0.805000007152557373
8.34200000762939453 -0.14100000262260437 -0.570999979972839355
8.32999992370605469 -0.129999995231628418 -0.356000006198883057
8.32600021362304688 -0.14100000262260437 -0.363000005483627319
8.34799957275390625 -0.134000003337860107 -0.753000020980834961
8.34500026702880859 -0.134000003337860107 -0.694000005722045898
8.35299968719482422 -0.129999995231628418 -0.635999977588653564
8.35299968719482422 -0.134000003337860107 -0.651000022888183594
8.34006023406982422 -0.126957893371582031 -0.561780869960784912
8.33300018310546875 -0.138999998569488525 -0.554000020027160645
8.35814189910888672 -0.119071230292320251 -0.754316926002502441
8.35000038146972656 -0.123999997973442078 -0.819999992847442627
8.33699989318847656 -0.133000001311302185 -0.582000017166137695
8.34287738800048828 -0.125288739800453186 -0.437102288007736206
8.32800006866455078 -0.123000003397464752 -0.287000000476837158
8.34599971771240234 -0.123999997973442078 -0.801999986171722412
8.35000038146972656 -0.123999997973442078 -0.624000012874603271
8.34599971771240234 -0.142000004649162292 -0.586000025272369385
8.34500026702880859 -0.140000000596046448 -0.566999971866607666
8.31200027465820312 -0.13099999725818634 -0.400999993085861206
8.34650039672851562 -0.13099999725818634 -0.580999970436096191
8.32900047302246094 -0.133000001311302185 -0.455000013113021851
8.36900043487548828 -0.123000003397464752 -0.874000012874603271
8.36200046539306641 -0.114000000059604645 -0.870000004768371582
8.36200046539306641 -0.114000000059604645 -0.830999970436096191
8.35200023651123047 -0.131999999284744263 -0.768999993801116943
8.3470001220703125 -0.136999994516372681 -0.71799999475479126
8.3477020263671875 -0.125893205404281616 -0.811508536338806152
8.33600044250488281 -0.14100000262260437 -0.582000017166137695
8.34500026702880859 -0.128000006079673767 -0.492000013589859009
8.3339996337890625 -0.13099999725818634 -0.330500006675720215
8.33100032806396484 -0.13500000536441803 -0.34299999475479126
8.34599971771240234 -0.126000002026557922 -0.638000011444091797
8.34399986267089844 -0.126000002026557922 -0.421000003814697266
8.32800006866455078 -0.128000006079673767 -0.367000013589859009
8.34200000762939453 -0.133000001311302185 -0.615999996662139893
8.36600017547607422 -0.125 -0.754000008106231689
8.35799980163574219 -0.115999996662139893 -0.855000019073486328
8.36466789245605469 -0.130560576915740967 -0.809440255165100098
8.34946823120117188 -0.133057296276092529 -0.642626404762268066
8.31599998474121094 -0.116999998688697815 -0.246999993920326233
8.33899974822998047 -0.127000004053115845 -0.474000006914138794
8.36499977111816406 -0.119999997317790985 -0.746999979019165039
8.35900306701660156 -0.132826432585716248 -0.74504619836807251
8.32999992370605469 -0.129749998450279236 -0.341499984264373779
8.35900020599365234 -0.11900000274181366 -0.824000000953674316
8.36100006103515625 -0.114000000059604645 -0.837999999523162842
8.32299995422363281 -0.14100000262260437 -0.305000007152557373
8.34799957275390625 -0.136000007390975952 -0.711000025272369385
8.3339996337890625 -0.131999999284744263 -0.552999973297119141
8.34000015258789062 -0.136999994516372681 -0.495000004768371582
8.31999969482421875 -0.10899999737739563 -0.247999995946884155
8.32699966430664062 -0.107000000774860382 -0.248999997973442078
8.32800006866455078 -0.109999999403953552 -0.252999991178512573
8.31599998474121094 -0.101999998092651367 -0.24400000274181366
8.32600021362304688 -0.115000002086162567 -0.257999986410140991
8.32600021362304688 -0.14100000262260437 -0.379999995231628418
8.36200046539306641 -0.136999994516372681 -0.722999989986419678
8.35599994659423828 -0.136000007390975952 -0.71399998664855957
8.33100032806396484 -0.14100000262260437 -0.547999978065490723
8.34300041198730469 -0.13099999725818634 -0.418000012636184692
8.32999992370605469 -0.128999993205070496 -0.303000003099441528
8.34899997711181641 -0.126000002026557922 -0.709999978542327881
8.36400032043457031 -0.116999998688697815 -0.825999975204467773
8.33500003814697266 -0.133000001311302185 -0.497999995946884155
8.32100009918212891 -0.125 -0.246000006794929504
8.32999992370605469 -0.128999993205070496 -0.351000010967254639
8.36050033569335938 -0.131500005722045898 -0.712000012397766113
8.36800003051757812 -0.115999996662139893 -0.86799997091293335
8.34599971771240234 -0.133000001311302185 -0.495000004768371582
8.36100006103515625 -0.123999997973442078 -0.722999989986419678
8.36200046539306641 -0.128999993205070496 -0.721000015735626221
8.3470001220703125 -0.142000004649162292 -0.550000011920928955
8.35099983215332031 -0.128000006079673767 -0.490000009536743164
8.34200000762939453 -0.136999994516372681 -0.522000014781951904
8.34300041198730469 -0.127000004053115845 -0.512000024318695068
8.35999965667724609 -0.136999994516372681 -0.686999976634979248
8.33199977874755859 -0.133000001311302185 -0.488999992609024048
8.31999969482421875 -0.116999998688697815 -0.208000004291534424
8.32224273681640625 -0.122135132551193237 -0.373204320669174194
8.32100009918212891 -0.116999998688697815 -0.241999998688697815
8.32999992370605469 -0.136000007390975952 -0.433999985456466675
8.36299991607666016 -0.128999993205070496 -0.726999998092651367
8.35400009155273438 -0.128999993205070496 -0.66100001335144043
8.35099983215332031 -0.123999997973442078 -0.639999985694885254
8.35000038146972656 -0.133000001311302185 -0.518999993801116943
8.32199954986572266 -0.13099999725818634 -0.308999985456466675
8.32250022888183594 -0.107500001788139343 -0.212000012397766113
8.32900047302246094 -0.128999993205070496 -0.444000005722045898
8.34899997711181641 -0.14100000262260437 -0.59299999475479126
8.35449981689453125 -0.124500006437301636 -0.668500006198883057
8.34799957275390625 -0.136999994516372681 -0.615000009536743164
8.34099960327148438 -0.136000007390975952 -0.462999999523162842
8.3470001220703125 -0.127000004053115845 -0.453999996185302734
8.32800006866455078 -0.107000000774860382 -0.24400000274181366
8.36100006103515625 -0.126000002026557922 -0.796999990940093994
8.34799957275390625 -0.126000002026557922 -0.796999990940093994
8.36200046539306641 -0.125 -0.782999992370605469
8.36699962615966797 -0.129999995231628418 -0.820999979972839355
8.32800006866455078 -0.14100000262260437 -0.405000001192092896
8.32499980926513672 -0.136999994516372681 -0.308999985456466675
8.32499980926513672 -0.14100000262260437 -0.372000008821487427
8.35799980163574219 -0.119999997317790985 -0.81800001859664917
8.35517024993896484 -0.124047510325908661 -0.681172370910644531
8.36299991607666016 -0.115000002086162567 -0.819000005722045898
8.34599971771240234 -0.12200000137090683 -0.45199999213218689
8.32100009918212891 -0.12200000137090683 -0.252000004053115845
8.35400009155273438 -0.12200000137090683 -0.795000016689300537
8.355499267578125 -0.124499998986721039 -0.694000005722045898
8.36450004577636719 -0.115000002086162567 -0.875999987125396729
8.32499980926513672 -0.12200000137090683 -0.268000006675720215
8.32299995422363281 -0.12200000137090683 -0.289000004529953003
8.33800029754638672 -0.142000004649162292 -0.561999976634979248
8.36329555511474609 -0.134357437491416931 -0.758637070655822754
8.35900020599365234 -0.128999993205070496 -0.791999995708465576
8.35700035095214844 -0.128000006079673767 -0.833999991416931152
8.34500026702880859 -0.123999997973442078 -0.612999975681304932
8.33899974822998047 -0.128000006079673767 -0.616999983787536621
8.3470001220703125 -0.137999996542930603 -0.620000004768371582
8.35799980163574219 -0.133000001311302185 -0.736999988555908203
8.34399986267089844 -0.128000006079673767 -0.52499997615814209
8.3470001220703125 -0.142000004649162292 -0.528999984264373779
8.31713676452636719 -0.114880837500095367 -0.236106038093566895
8.32299995422363281 -0.116999998688697815 -0.221000000834465027
8.35099983215332031 -0.12200000137090683 -0.671000003814697266
8.33500003814697266 -0.123999997973442078 -0.460000008344650269
8.32400035858154297 -0.126000002026557922 -0.41100001335144043
8.34099960327148438 -0.126000002026557922 -0.726999998092651367
8.34300041198730469 -0.13099999725818634 -0.633000016212463379
8.34300041198730469 -0.13099999725818634 -0.574000000953674316
8.33199977874755859 -0.128000006079673767 -0.456000000238418579
8.34599971771240234 -0.125 -0.63200002908706665
8.34399986267089844 -0.138999998569488525 -0.611999988555908203
8.32699966430664062 -0.119999997317790985 -0.375
8.35000038146972656 -0.128999993205070496 -0.606999993324279785
8.33600044250488281 -0.133000001311302185 -0.589999973773956299
8.37100028991699219 -0.123000003397464752 -0.808000028133392334
8.32699966430664062 -0.123000003397464752 -0.361000001430511475
8.32600021362304688 -0.14100000262260437 -0.409999996423721313
8.32100009918212891 -0.13099999725818634 -0.428999990224838257
8.34200000762939453 -0.138999998569488525 -0.595000028610229492
8.35000038146972656 -0.12200000137090683 -0.781000018119812012
8.32199954986572266 -0.12200000137090683 -0.386999994516372681
8.319000244140625 -0.126000002026557922 -0.39100000262260437
8.30900001525878906 -0.126000002026557922 -0.381999999284744263
8.32499980926513672 -0.109999999403953552 -0.238999992609024048
8.34500026702880859 -0.128000006079673767 -0.518999993801116943
8.35000038146972656 -0.127000004053115845 -0.699000000953674316
8.34099960327148438 -0.127000004053115845 -0.481999993324279785
8.3339996337890625 -0.14100000262260437 -0.564999997615814209
8.3470001220703125 -0.131999999284744263 -0.542999982833862305
8.33699989318847656 -0.136999994516372681 -0.531000018119812012
8.32800006866455078 -0.136000007390975952 -0.412000000476837158
8.34000015258789062 -0.136999994516372681 -0.512000024318695068
8.34099960327148438 -0.134000003337860107 -0.472999989986419678
8.35200023651123047 -0.131999999284744263 -0.762000024318695068
8.35499954223632812 -0.128000006079673767 -0.653999984264373779
8.32800006866455078 -0.128999993205070496 -0.404000014066696167
8.3470001220703125 -0.126000002026557922 -0.771000027656555176
8.35299968719482422 -0.13099999725818634 -0.776000022888183594
8.35900020599365234 -0.126000002026557922 -0.876999974250793457
8.375 -0.116999998688697815 -0.879000008106231689
8.36400032043457031 -0.116999998688697815 -0.813000023365020752
8.32800006866455078 -0.128999993205070496 -0.312999993562698364
8.34799957275390625 -0.126000002026557922 -0.666999995708465576
8.319000244140625 -0.128000006079673767 -0.298999994993209839
8.346038818359375 -0.126105144619941711 -0.735641419887542725
8.3600006103515625 -0.118500001728534698 -0.791999995708465576
8.33300018310546875 -0.129999995231628418 -0.28600001335144043
8.35799980163574219 -0.129999995231628418 -0.694000005722045898
8.31799983978271484 -0.111000001430511475 -0.225999996066093445
8.31850051879882812 -0.115999996662139893 -0.227500006556510925
8.32499980926513672 -0.127000004053115845 -0.384000003337860107
8.35099983215332031 -0.12200000137090683 -0.768000006675720215
8.33100032806396484 -0.137999996542930603 -0.303000003099441528
8.33500003814697266 -0.142000004649162292 -0.456999987363815308
8.33600044250488281 -0.129999995231628418 -0.573000013828277588
8.375 -0.129999995231628418 -0.737999975681304932
8.36100006103515625 -0.11900000274181366 -0.779999971389770508
8.34899997711181641 -0.133000001311302185 -0.634000003337860107
8.34500026702880859 -0.128000006079673767 -0.606000006198883057
8.3470001220703125 -0.131999999284744263 -0.508000016212463379
8.34300041198730469 -0.127000004053115845 -0.476999998092651367
8.32499980926513672 -0.136999994516372681 -0.467000007629394531
8.32299995422363281 -0.133000001311302185 -0.446999996900558472
8.31599998474121094 -0.137999996542930603 -0.395999997854232788
8.31400012969970703 -0.128000006079673767 -0.386000007390975952
8.32499980926513672 -0.114000000059604645 -0.243000000715255737
8.34200000762939453 -0.129999995231628418 -0.60000002384185791
8.34899997711181641 -0.129999995231628418 -0.60000002384185791
8.319000244140625 -0.134000003337860107 -0.301999986171722412
8.3470001220703125 -0.126000002026557922 -0.646000027656555176
8.35188198089599609 -0.131961837410926819 -0.628004968166351318
8.34000015258789062 -0.13099999725818634 -0.595000028610229492
8.34599971771240234 -0.133000001311302185 -0.552999973297119141
8.3470001220703125 -0.142000004649162292 -0.555999994277954102
8.36299991607666016 -0.128000006079673767 -0.735000014305114746
8.34399986267089844 -0.13500000536441803 -0.5
8.33598041534423828 -0.134910240769386292 -0.427932769060134888
8.36191749572753906 -0.136990711092948914 -0.675979256629943848
8.32400035858154297 -0.126000002026557922 -0.418999999761581421
8.36800003051757812 -0.123999997973442078 -0.839999973773956299
8.36100006103515625 -0.11900000274181366 -0.772000014781951904
8.32900047302246094 -0.123999997973442078 -0.425000011920928955
8.34899997711181641 -0.127000004053115845 -0.412000000476837158
8.33500003814697266 -0.138500005006790161 -0.295499980449676514
8.34500026702880859 -0.136000007390975952 -0.606999993324279785
8.36400032043457031 -0.127000004053115845 -0.846000015735626221
8.34599971771240234 -0.131999999284744263 -0.40700000524520874
8.35599994659423828 -0.13500000536441803 -0.704999983310699463
8.34300041198730469 -0.13500000536441803 -0.481000006198883057
8.36200046539306641 -0.120999999344348907 -0.763999998569488525
8.32836341857910156 -0.123331792652606964 -0.298071026802062988
8.32800006866455078 -0.134000003337860107 -0.389999985694885254
8.35999965667724609 -0.125 -0.892000019550323486
8.34200000762939453 -0.13500000536441803 -0.451000005006790161
8.33100032806396484 -0.140000000596046448 -0.442999988794326782
8.35999965667724609 -0.128999993205070496 -0.800999999046325684
8.35599994659423828 -0.128999993205070496 -0.827000021934509277
8.33800029754638672 -0.133000001311302185 -0.481000006198883057
8.34899997711181641 -0.137999996542930603 -0.722999989986419678
8.32699966430664062 -0.128999993205070496 -0.360000014305114746
8.32299995422363281 -0.104000002145767212 -0.241999998688697815
8.33899974822998047 -0.140000000596046448 -0.469000011682510376
8.32400035858154297 -0.123000003397464752 -0.393000006675720215
8.35900020599365234 -0.123000003397464752 -0.735000014305114746
8.33699989318847656 -0.136999994516372681 -0.541000008583068848
8.35000038146972656 -0.131999999284744263 -0.565999984741210938
8.35299968719482422 -0.131999999284744263 -0.782999992370605469
8.3470001220703125 -0.131999999284744263 -0.526000022888183594
8.32900047302246094 -0.124499998986721039 -0.41250002384185791
8.35599994659423828 -0.116999998688697815 -0.799000024795532227
1 1 1
8.35599994659423828 -0.120999999344348907 -0.776000022888183594
8.35099983215332031 -0.120999999344348907 -0.657999992370605469
8.35000038146972656 -0.120999999344348907 -0.651000022888183594
8.3470001220703125 -0.134000003337860107 -0.665000021457672119
8.35900020599365234 -0.12650001049041748 -0.851500034332275391
8.33699989318847656 -0.14100000262260437 -0.446000009775161743
3 275 182 274 255 255 255
3 182 191 274 255 255 255
3 275 227 182 255 255 255
3 275 63 227 255 255 255
3 274 226 275 255 255 255
3 191 48 274 255 255 255
3 227 191 182 255 255 255
3 227 52 191 255 255 255
3 63 52 227 255 255 255
3 275 291 63 255 255 255
3 226 184 275 255 255 255
3 274 48 226 255 255 255
3 63 249 52 255 255 255
3 291 198 63 255 255 255
3 275 144 291 255 255 255
3 226 155 184 255 255 255
3 48 326 226 255 255 255
3 48 191 52 255 255 255
3 249 48 52 255 255 255
3 249 326 48 255 255 255
3 249 156 326 255 255 255
3 198 249 63 255 255 255
3 291 157 198 255 255 255
3 144 41 291 255 255 255
3 155 41 184 255 255 255
3 226 158 155 255 255 255
3 156 158 326 255 255 255
3 249 291 156 255 255 255
3 157 156 198 255 255 255
3 291 159 157 255 255 255
3 144 9 41 255 255 255
3 155 159 41 255 255 255
3 158 226 326 255 255 255
3 156 157 158 255 255 255
3 157 155 158 255 255 255
3 249 184 291 255 255 255
3 156 155 198 255 255 255
3 159 21 157 255 255 255
3 291 210 159 255 255 255
3 9 157 41 255 255 255
3 184 169 291 255 255 255
3 155 249 198 255 255 255
3 159 214 21 255 255 255
3 184 144 169 255 255 255
3 214 42 21 255 255 255
3 214 118 42 255 255 255
3 118 215 42 255 255 255
3 215 8 42 255 255 255
3 118 316 215 255 255 255
3 215 56 8 255 255 255
3 316 269 215 255 255 255
3 215 269 56 255 255 255
3 269 294 56 255 255 255
3 316 98 269 255 255 255
3 118 272 316 255 255 255
3 294 58 56 255 255 255
3 269 190 294 255 255 255
3 98 190 269 255 255 255
3 98 267 190 255 255 255
3 316 165 98 255 255 255
3 316 309 165 255 255 255
3 316 272 309 255 255 255
3 58 8 56 255 255 255
3 58 272 8 255 255 255
3 294 151 58 255 255 255
3 190 151 294 255 255 255
3 190 204 151 255 255 255
3 267 17 190 255 255 255
3 98 165 267 255 255 255
3 165 80 267 255 255 255
3 309 278 165 255 255 255
3 309 151 278 255 255 255
3 272 42 8 255 255 255
3 204 278 151 255 255 255
3 204 80 278 255 255 255
3 190 17 204 255 255 255
3 165 278 80 255 255 255
3 204 267 80 255 255 255
3 32 183 205 255 255 255
3 32 237 183 255 255 255
3 32 276 237 255 255 255
3 205 160 32 255 255 255
3 276 246 237 255 255 255
3 32 317 276 255 255 255
3 160 317 32 255 255 255
3 160 289 317 255 255 255
3 237 246 183 255 255 255
3 246 51 183 255 255 255
3 246 328 51 255 255 255
3 276 247 246 255 255 255
3 317 62 276 255 255 255
3 289 100 317 255 255 255
3 160 205 289 255 255 255
3 205 290 289 255 255 255
3 51 290 183 255 255 255
3 328 247 51 255 255 255
3 317 261 62 255 255 255
3 100 7 317 255 255 255
3 289 123 100 255 255 255
3 290 123 289 255 255 255
3 290 51 123 255 255 255
3 205 95 290 255 255 255
3 290 95 183 255 255 255
3 95 138 183 255 255 255
3 247 248 51 255 255 255
3 328 62 247 255 255 255
3 261 334 62 255 255 255
3 100 123 7 255 255 255
3 205 107 95 255 255 255
3 248 95 51 255 255 255
3 334 7 62 255 255 255
3 261 6 334 255 255 255
3 107 325 95 255 255 255
3 334 230 7 255 255 255
3 325 241 95 255 255 255
3 107 64 325 255 255 255
3 334 304 230 255 255 255
3 6 304 334 255 255 255
3 6 256 304 255 255 255
3 325 106 241 255 255 255
3 64 170 325 255 255 255
3 256 242 304 255 255 255
3 6 261 256 255 255 255
3 261 203 256 255 255 255
3 325 90 106 255 255 255
3 256 203 242 255 255 255
3 325 138 90 255 255 255
3 45 306 83 255 255 255
3 45 73 306 255 255 255
3 73 74 306 255 255 255
3 45 315 73 255 255 255
3 74 315 306 255 255 255
3 73 277 74 255 255 255
3 45 1 315 255 255 255
3 315 1 306 255 255 255
3 1 83 306 255 255 255
3 1 45 83 255 255 255
3 74 114 315 255 255 255
3 277 114 74 255 255 255
3 73 337 277 255 255 255
3 114 140 315 255 255 255
3 277 13 114 255 255 255
3 277 262 13 255 255 255
3 337 262 277 255 255 255
3 337 263 262 255 255 255
3 73 282 337 255 255 255
3 140 217 315 255 255 255
3 114 38 140 255 255 255
3 13 38 114 255 255 255
3 13 76 38 255 255 255
3 262 108 13 255 255 255
3 263 129 262 255 255 255
3 282 245 337 255 255 255
3 73 315 282 255 255 255
3 217 259 315 255 255 255
3 38 147 140 255 255 255
3 76 270 38 255 255 255
3 13 108 76 255 255 255
3 108 270 76 255 255 255
3 262 129 108 255 255 255
3 129 259 108 255 255 255
3 263 332 129 255 255 255
3 245 263 337 255 255 255
3 245 11 263 255 255 255
3 282 271 245 255 255 255
3 217 108 259 255 255 255
3 217 147 108 255 255 255
3 140 147 217 255 255 255
3 270 329 38 255 255 255
3 108 29 270 255 255 255
3 263 11 332 255 255 255
3 11 211 332 255 255 255
3 245 271 11 255 255 255
3 271 211 11 255 255 255
3 282 22 271 255 255 255
3 223 29 147 255 255 255
3 147 75 223 255 255 255
3 329 146 38 255 255 255
3 270 14 329 255 255 255
3 231 14 270 255 255 255
3 29 231 270 255 255 255
3 29 324 231 255 255 255
3 108 147 29 255 255 255
3 211 218 332 255 255 255
3 271 55 211 255 255 255
3 22 55 271 255 255 255
3 22 199 55 255 255 255
3 282 201 22 255 255 255
3 223 186 29 255 255 255
3 75 186 223 255 255 255
3 75 281 186 255 255 255
3 147 281 75 255 255 255
3 147 146 281 255 255 255
3 329 300 146 255 255 255
3 14 174 329 255 255 255
3 14 59 174 255 255 255
3 231 166 14 255 255 255
3 324 130 231 255 255 255
3 29 161 324 255 255 255
3 218 201 332 255 255 255
3 211 199 218 255 255 255
3 55 321 211 255 255 255
3 199 321 55 255 255 255
3 22 218 199 255 255 255
3 201 218 22 255 255 255
3 186 174 29 255 255 255
3 147 38 146 255 255 255
3 329 186 300 255 255 255
3 59 26 174 255 255 255
3 14 166 59 255 255 255
3 231 54 166 255 255 255
3 130 54 231 255 255 255
3 130 152 54 255 255 255
3 324 162 130 255 255 255
3 161 162 324 255 255 255
3 161 171 162 255 255 255
3 29 300 161 255 255 255
3 201 282 332 255 255 255
3 211 335 199 255 255 255
3 186 89 300 255 255 255
3 329 175 186 255 255 255
3 26 171 174 255 255 255
3 59 212 26 255 255 255
3 166 251 59 255 255 255
3 54 152 166 255 255 255
3 152 313 166 255 255 255
3 130 162 152 255 255 255
3 162 60 152 255 255 255
3 171 313 162 255 255 255
3 171 175 174 255 255 255
3 212 30 26 255 255 255
3 313 26 166 255 255 255
3 313 60 162 255 255 255
3 313 4 60 255 255 255
3 171 30 313 255 255 255
3 171 161 175 255 255 255
3 30 171 26 255 255 255
3 212 273 30 255 255 255
3 212 207 273 255 255 255
3 59 46 212 255 255 255
3 4 109 60 255 255 255
3 273 4 30 255 255 255
3 207 180 273 255 255 255
3 46 207 212 255 255 255
3 46 77 207 255 255 255
3 109 152 60 255 255 255
3 4 180 109 255 255 255
3 273 61 4 255 255 255
3 207 303 180 255 255 255
3 77 228 207 255 255 255
3 46 109 77 255 255 255
3 180 61 109 255 255 255
3 207 194 303 255 255 255
3 207 33 194 255 255 255
3 228 194 207 255 255 255
3 77 268 228 255 255 255
3 109 50 77 255 255 255
3 46 251 109 255 255 255
3 180 207 61 255 255 255
3 33 228 194 255 255 255
3 77 50 268 255 255 255
3 50 340 268 255 255 255
3 46 59 251 255 255 255
3 187 340 303 255 255 255
3 194 187 303 255 255 255
3 194 338 187 255 255 255
3 228 268 194 255 255 255
3 340 187 268 255 255 255
3 338 93 187 255 255 255
3 194 228 338 255 255 255
3 93 67 187 255 255 255
3 264 318 35 255 255 255
3 35 126 264 255 255 255
3 318 53 35 255 255 255
3 126 10 264 255 255 255
3 35 265 126 255 255 255
3 126 78 10 255 255 255
3 265 172 126 255 255 255
3 35 87 265 255 255 255
3 78 341 10 255 255 255
3 35 213 87 255 255 255
3 126 172 78 255 255 255
3 172 66 78 255 255 255
3 35 127 213 255 255 255
3 172 127 66 255 255 255
3 66 96 78 255 255 255
3 127 36 66 255 255 255
3 172 213 127 255 255 255
3 91 10 341 255 255 255
3 341 15 91 255 255 255
3 341 78 311 255 255 255
3 78 305 311 255 255 255
3 66 81 96 255 255 255
3 66 36 101 255 255 255
3 36 141 101 255 255 255
3 213 265 87 255 255 255
3 213 172 265 255 255 255
3 15 34 91 255 255 255
3 341 219 15 255 255 255
3 311 219 341 255 255 255
3 311 305 219 255 255 255
3 305 39 219 255 255 255
3 78 96 305 255 255 255
3 81 101 96 255 255 255
3 66 23 81 255 255 255
3 141 31 101 255 255 255
3 36 91 141 255 255 255
3 34 31 91 255 255 255
3 219 322 15 255 255 255
3 39 322 219 255 255 255
3 39 167 322 255 255 255
3 305 96 39 255 255 255
3 96 167 39 255 255 255
3 96 128 167 255 255 255
3 101 150 96 255 255 255
3 23 127 81 255 255 255
3 66 141 23 255 255 255
3 31 150 101 255 255 255
3 31 34 150 255 255 255
3 34 128 150 255 255 255
3 91 31 141 255 255 255
3 36 23 91 255 255 255
3 15 115 34 255 255 255
3 322 115 15 255 255 255
3 322 131 115 255 255 255
3 167 149 322 255 255 255
3 128 208 167 255 255 255
3 96 150 128 255 255 255
3 23 10 127 255 255 255
3 34 149 128 255 255 255
3 322 142 131 255 255 255
3 208 79 167 255 255 255
3 23 36 10 255 255 255
3 149 206 128 255 255 255
3 131 208 115 255 255 255
3 322 202 142 255 255 255
3 79 202 167 255 255 255
3 208 266 79 255 255 255
3 206 266 128 255 255 255
3 149 115 206 255 255 255
3 131 104 208 255 255 255
3 119 104 131 255 255 255
3 119 335 104 255 255 255
3 142 321 131 255 255 255
3 202 43 142 255 255 255
3 79 43 202 255 255 255
3 79 240 43 255 255 255
3 266 240 79 255 255 255
3 266 104 240 255 255 255
3 321 200 131 255 255 255
3 240 142 43 255 255 255
3 200 119 131 255 255 255
3 321 199 200 255 255 255
3 240 199 142 255 255 255
3 134 88 135 255 255 255
3 135 148 134 255 255 255
3 135 64 148 255 255 255
3 295 260 143 255 255 255
3 143 136 295 255 255 255
3 295 338 260 255 255 255
3 143 283 136 255 255 255
3 295 339 338 255 255 255
3 283 235 136 255 255 255
3 295 136 339 255 255 255
3 136 188 339 255 255 255
3 235 188 136 255 255 255
3 235 120 188 255 255 255
3 283 296 235 255 255 255
3 188 260 339 255 255 255
3 120 110 188 255 255 255
3 235 47 120 255 255 255
3 188 111 260 255 255 255
3 110 143 188 255 255 255
3 120 296 110 255 255 255
3 235 232 47 255 255 255
3 111 187 260 255 255 255
3 110 283 143 255 255 255
3 296 283 110 255 255 255
3 47 220 120 255 255 255
3 232 102 47 255 255 255
3 120 238 296 255 255 255
3 220 238 120 255 255 255
3 220 284 238 255 255 255
3 47 221 220 255 255 255
3 102 139 47 255 255 255
3 232 222 102 255 255 255
3 195 222 296 255 255 255
3 296 238 195 255 255 255
3 238 310 195 255 255 255
3 284 292 238 255 255 255
3 220 221 284 255 255 255
3 221 3 284 255 255 255
3 102 236 139 255 255 255
3 222 236 102 255 255 255
3 222 195 236 255 255 255
3 195 5 236 255 255 255
3 232 296 222 255 255 255
3 232 235 296 255 255 255
3 292 5 238 255 255 255
3 284 3 292 255 255 255
3 3 297 292 255 255 255
3 221 139 3 255 255 255
3 236 3 139 255 255 255
3 5 3 236 255 255 255
3 5 297 3 255 255 255
3 5 310 238 255 255 255
3 297 92 292 255 255 255
3 221 195 139 255 255 255
3 5 293 297 255 255 255
3 92 293 292 255 255 255
3 297 239 92 255 255 255
3 195 310 139 255 255 255
3 239 116 92 255 255 255
3 116 124 92 255 255 255
3 239 132 116 255 255 255
3 116 233 124 255 255 255
3 132 280 116 255 255 255
3 239 244 132 255 255 255
3 116 105 233 255 255 255
3 132 0 280 255 255 255
3 244 121 132 255 255 255
3 239 292 244 255 255 255
3 233 331 124 255 255 255
3 105 122 233 255 255 255
3 132 105 0 255 255 255
3 244 193 121 255 255 255
3 121 92 124 255 255 255
3 233 112 331 255 255 255
3 0 112 280 255 255 255
3 233 280 112 255 255 255
3 0 153 112 255 255 255
3 253 153 0 255 255 255
3 253 113 153 255 255 255
3 112 298 331 255 255 255
3 153 70 112 255 255 255
3 153 27 70 255 255 255
3 113 163 153 255 255 255
3 253 163 113 255 255 255
3 298 176 331 255 255 255
3 112 70 298 255 255 255
3 70 254 298 255 255 255
3 27 57 70 255 255 255
3 163 27 153 255 255 255
3 176 299 331 255 255 255
3 298 254 176 255 255 255
3 254 18 176 255 255 255
3 70 57 254 255 255 255
3 163 255 27 255 255 255
3 299 122 331 255 255 255
3 176 84 299 255 255 255
3 18 84 176 255 255 255
3 18 330 84 255 255 255
3 57 68 254 255 255 255
3 255 178 27 255 255 255
3 163 84 255 255 255 255
3 122 124 331 255 255 255
3 84 216 299 255 255 255
3 18 27 330 255 255 255
3 68 18 254 255 255 255
3 68 225 18 255 255 255
3 57 224 68 255 255 255
3 27 224 57 255 255 255
3 178 333 27 255 255 255
3 255 225 178 255 255 255
3 163 72 84 255 255 255
3 27 12 330 255 255 255
3 68 94 225 255 255 255
3 224 250 68 255 255 255
3 333 68 27 255 255 255
3 178 189 333 255 255 255
3 225 94 178 255 255 255
3 94 189 178 255 255 255
3 255 330 225 255 255 255
3 68 189 94 255 255 255
3 224 179 250 255 255 255
3 179 189 250 255 255 255
3 224 2 179 255 255 255
3 179 285 189 255 255 255
3 2 19 179 255 255 255
3 224 333 2 255 255 255
3 285 69 189 255 255 255
3 179 20 285 255 255 255
3 19 20 179 255 255 255
3 2 257 19 255 255 255
3 333 257 2 255 255 255
3 285 301 69 255 255 255
3 20 173 285 255 255 255
3 19 301 20 255 255 255
3 285 173 301 255 255 255
3 173 103 301 255 255 255
3 20 133 173 255 255 255
3 103 154 301 255 255 255
3 173 177 103 255 255 255
3 154 168 301 255 255 255
3 103 85 154 255 255 255
3 177 314 103 255 255 255
3 168 20 301 255 255 255
3 168 133 20 255 255 255
3 168 154 133 255 255 255
3 154 173 133 255 255 255
3 85 181 154 255 255 255
3 103 314 85 255 255 255
3 314 323 85 255 255 255
3 177 286 314 255 255 255
3 85 323 181 255 255 255
3 323 252 181 255 255 255
3 314 145 323 255 255 255
3 286 258 314 255 255 255
3 323 286 252 255 255 255
3 258 327 314 255 255 255
3 286 145 258 255 255 255
3 258 196 327 255 255 255
3 196 279 327 255 255 255
3 258 44 196 255 255 255
3 279 287 327 255 255 255
3 196 319 279 255 255 255
3 44 197 196 255 255 255
3 287 25 327 255 255 255
3 279 86 287 255 255 255
3 319 342 279 255 255 255
3 196 65 319 255 255 255
3 44 209 197 255 255 255
3 287 229 25 255 255 255
3 279 342 86 255 255 255
3 342 320 86 255 255 255
3 319 192 342 255 255 255
3 65 197 319 255 255 255
3 209 117 197 255 255 255
3 44 229 209 255 255 255
3 287 234 229 255 255 255
3 86 288 287 255 255 255
3 320 288 86 255 255 255
3 320 185 288 255 255 255
3 342 71 320 255 255 255
3 319 40 192 255 255 255
3 117 319 197 255 255 255
3 209 28 117 255 255 255
3 229 37 209 255 255 255
3 234 37 229 255 255 255
3 234 192 37 255 255 255
3 287 125 234 255 255 255
3 185 49 288 255 255 255
3 320 71 185 255 255 255
3 71 302 185 255 255 255
3 40 288 192 255 255 255
3 209 40 28 255 255 255
3 234 125 192 255 255 255
3 185 304 49 255 255 255
3 302 243 185 255 255 255
3 71 164 302 255 255 255
3 288 16 192 255 255 255
3 40 37 288 255 255 255
3 40 16 28 255 255 255
3 71 82 164 255 255 255
3 288 243 16 255 255 255
3 40 209 37 255 255 255
3 82 319 117 255 255 255
3 82 71 319 255 255 255
3 117 137 82 255 255 255
3 28 307 117 255 255 255
3 16 49 28 255 255 255
3 164 312 302 255 255 255
3 82 308 164 255 255 255
3 137 308 82 255 255 255
3 137 99 308 255 255 255
3 117 307 137 255 255 255
3 49 307 28 255 255 255
3 99 307 302 255 255 255
3 302 312 99 255 255 255
3 164 308 312 255 255 255
3 308 97 312 255 255 255
3 99 97 308 255 255 255
3 97 203 312 255 255 255
3 97 24 203 255 255 255
3 24 317 203 255 255 255
3 336 336 336 255 255 255
