ply
format ascii 1.0
element vertex 313
property float x
property float y
property float z
element face 576
property list uchar int vertex_indices
property uchar red
property uchar green
property uchar blue
end_header
-7.77699995040893555 0.595499992370605469 -1.03299999237060547
-7.75699996948242188 0.582499980926513672 -1.06699991226196289
-7.75500011444091797 0.595999956130981445 -1.03749990463256836
-7.77500009536743164 0.582000017166137695 -1.03299999237060547
-7.77299976348876953 0.575999975204467773 -1.03999996185302734
-7.73199987411499023 0.741999983787536621 -1.0140000581741333
-7.75299978256225586 0.582000017166137695 -1.04600000381469727
-7.77618885040283203 0.626374602317810059 -1.06867778301239014
-7.72599983215332031 0.730000019073486328 -1.00349998474121094
-7.75600004196166992 0.720000028610229492 -1.03699994087219238
-7.7688145637512207 0.630441486835479736 -1.07586526870727539
-7.78399991989135742 0.683000028133392334 -1.07700002193450928
-7.76649999618530273 0.68274998664855957 -1.08450007438659668
-7.78901576995849609 0.578969657421112061 -1.03334712982177734
-7.76399993896484375 0.736999988555908203 -1.05099999904632568
-7.75799989700317383 0.735499978065490723 -0.953999996185302734
-7.75199985504150391 0.697000026702880859 -1.02699995040893555
-7.78100013732910156 0.698000013828277588 -1.03400003910064697
-7.76350021362304688 0.698000013828277588 -1.08100008964538574
-7.77699995040893555 0.703999996185302734 -1.02999997138977051
-7.74300003051757812 0.684000015258789062 -0.995000004768371582
-7.75500011444091797 0.689999997615814209 -0.994000017642974854
-7.76897954940795898 0.69490659236907959 -0.9909820556640625
-7.74300003051757812 0.685000002384185791 -0.987999975681304932
-7.73899984359741211 0.677999973297119141 -0.999000012874603271
-7.7350001335144043 0.680000007152557373 -0.99299997091293335
-7.7649998664855957 0.692999958992004395 -0.983999967575073242
-7.77502107620239258 0.72199714183807373 -0.991983473300933838
-7.77199983596801758 0.695999979972839355 -1.08299994468688965
-7.74399995803833008 0.669000029563903809 -0.999500036239624023
-7.766937255859375 0.733187496662139893 -1.05425000190734863
-7.76999998092651367 0.64999997615814209 -1.02999997138977051
-7.77124977111816406 0.68287503719329834 -1.02025008201599121
-7.76599979400634766 0.718999981880187988 -1.05099999904632568
-7.75600004196166992 0.679000020027160645 -1.03799998760223389
-7.7799835205078125 0.717444658279418945 -1.01300549507141113
-7.77340364456176758 0.695044219493865967 -1.0538632869720459
-7.7630000114440918 0.587999999523162842 -1.09500002861022949
-7.76800012588500977 0.699000000953674316 -1.03699994087219238
-7.78200006484985352 0.68599998950958252 -1.08299994468688965
-7.74100017547607422 0.680000007152557373 -1.00899994373321533
-7.75500011444091797 0.648999989032745361 -1.0140000581741333
-7.77849960327148438 0.667999982833862305 -1.07400000095367432
-7.78349971771240234 0.646000027656555176 -1.02099990844726562
-7.75899982452392578 0.709999978542327881 -1.06700003147125244
-7.78324985504150391 0.723249971866607666 -0.96724998950958252
-7.75899982452392578 0.652999997138977051 -0.972500026226043701
-7.77500009536743164 0.730000019073486328 -0.961000025272369385
-7.77400016784667969 0.736999988555908203 -0.981000006198883057
-7.7649998664855957 0.652500033378601074 -0.982500016689300537
-7.76000022888183594 0.737999975681304932 -1.0549999475479126
-7.76700019836425781 0.739000022411346436 -1.0690000057220459
-7.77316379547119141 0.665091574192047119 -1.00041830539703369
-7.77199983596801758 0.71799999475479126 -1.0549999475479126
-7.78299999237060547 0.715000033378601074 -0.96950000524520874
-7.77900838851928711 0.710028648376464844 -0.997994482517242432
-7.78399991989135742 0.717000007629394531 -0.982999980449676514
-7.75024986267089844 0.654999971389770508 -0.996000051498413086
-7.74280881881713867 0.656154811382293701 -0.989451825618743896
-7.7434391975402832 0.658706545829772949 -0.976887762546539307
-7.76522922515869141 0.682702779769897461 -0.977040529251098633
-7.78725004196166992 0.718250036239624023 -0.971500039100646973
-7.77899980545043945 0.722000002861022949 -0.976999998092651367
-7.78100013732910156 0.735000014305114746 -0.981999993324279785
-7.74900007247924805 0.666999995708465576 -1.02699995040893555
-7.73299980163574219 0.745000004768371582 -1.01499998569488525
-7.78900003433227539 0.694999992847442627 -1.0559999942779541
-7.75705289840698242 0.707147181034088135 -1.03461456298828125
-7.75950002670288086 0.684000015258789062 -1.04349994659423828
-7.77775001525878906 0.690500020980834961 -1.04800009727478027
-7.76900005340576172 0.579999983310699463 -1.05700004100799561
-7.75799989700317383 0.591000020503997803 -1.03299999237060547
-7.77899980545043945 0.569999992847442627 -1.03799998760223389
-7.76800012588500977 0.589999973773956299 -1.03199994564056396
-7.75600004196166992 0.574999988079071045 -1.05200004577636719
-7.76999998092651367 0.581499993801116943 -1.06200003623962402
-7.75402641296386719 0.708977758884429932 -1.02702462673187256
-7.75400018692016602 0.698000013828277588 -1.02400004863739014
-7.75400018692016602 0.708000004291534424 -1.04700005054473877
-7.76399993896484375 0.699999988079071045 -1.02600002288818359
-7.76900005340576172 0.656000018119812012 -1.0130000114440918
-7.78429555892944336 0.594426155090332031 -1.07996237277984619
-7.78299999237060547 0.615999996662139893 -1.0690000057220459
-7.77050018310546875 0.622500002384185791 -1.05349993705749512
-7.7649998664855957 0.630999982357025146 -1.0549999475479126
-7.75600004196166992 0.580999970436096191 -1.07400000095367432
-7.76333427429199219 0.587987780570983887 -1.07750236988067627
-7.78757524490356445 0.580722391605377197 -1.07193088531494141
-7.78599977493286133 0.586000025272369385 -1.04700005054473877
-7.78720617294311523 0.599098324775695801 -1.045845627784729
-7.77786350250244141 0.614238977432250977 -1.04392540454864502
-7.77400016784667969 0.717000007629394531 -1.00300002098083496
-7.79899978637695312 0.703000009059906006 -1.07500004768371582
-7.78999996185302734 0.590000033378601074 -1.06550002098083496
-7.72375011444091797 0.725749969482421875 -1.01199996471405029
-7.78000020980834961 0.582000017166137695 -1.05999994277954102
-7.78408670425415039 0.599250197410583496 -1.03664898872375488
-7.7714996337890625 0.59850001335144043 -1.03600001335144043
-7.76900005340576172 0.606999993324279785 -1.04100000858306885
-7.74386262893676758 0.598901629447937012 -1.06539773941040039
-7.74625015258789062 0.589500010013580322 -1.06049990653991699
-7.74499988555908203 0.584999978542327881 -1.06500005722045898
-7.78800010681152344 0.583000004291534424 -1.05999994277954102
-7.73350000381469727 0.674499988555908203 -0.987500011920928955
-7.73350000381469727 0.675499975681304932 -0.982749998569488525
-7.78100013732910156 0.734000027179718018 -0.995000004768371582
-7.74405097961425781 0.681081950664520264 -0.978967010974884033
-7.78100013732910156 0.720000028610229492 -0.980499982833862305
-7.78200006484985352 0.735000014305114746 -0.989000022411346436
-7.74100017547607422 0.667999982833862305 -0.98899996280670166
-7.74596309661865234 0.675030350685119629 -0.967047214508056641
-7.75400018692016602 0.684000015258789062 -0.972000002861022949
-7.75799989700317383 0.692999958992004395 -0.975499987602233887
-7.76900005340576172 0.728000044822692871 -1.06400001049041748
-7.77199983596801758 0.680999994277954102 -1.02950000762939453
-7.77400016784667969 0.671000003814697266 -1.0690000057220459
-7.78191184997558594 0.686410188674926758 -1.00785970687866211
-7.7600555419921875 0.696656405925750732 -1.07694149017333984
-7.75899982452392578 0.646000027656555176 -1.0549999475479126
-7.77199983596801758 0.623000025749206543 -1.08299994468688965
-7.77099990844726562 0.728999972343444824 -1.07500004768371582
-7.7649998664855957 0.670000016689300537 -1.04799997806549072
-7.77674770355224609 0.659550368785858154 -1.01226639747619629
-7.76449966430664062 0.733000040054321289 -1.04900002479553223
-7.7779998779296875 0.690999984741210938 -1.00600004196166992
-7.78549957275390625 0.689499974250793457 -1.06649994850158691
-7.76150035858154297 0.620999991893768311 -1.07500004768371582
-7.75799322128295898 0.614977777004241943 -1.08098948001861572
-7.76800012588500977 0.610000014305114746 -1.07899999618530273
-7.76999998092651367 0.598999977111816406 -1.07899999618530273
-7.74800014495849609 0.580500006675720215 -1.09200000762939453
-7.78180122375488281 0.604253470897674561 -1.07986581325531006
-7.76399993896484375 0.635999977588653564 -1.05999994277954102
-7.7630000114440918 0.634000003337860107 -1.06799995899200439
-7.76599979400634766 0.625999987125396729 -1.08500003814697266
-7.76700019836425781 0.620999991893768311 -1.08299994468688965
-7.75150012969970703 0.682999968528747559 -1.02149999141693115
-7.77299976348876953 0.731000006198883057 -1.0700000524520874
-7.76000022888183594 0.684000015258789062 -1.07099997997283936
-7.75 0.689999997615814209 -1.00199997425079346
-7.78800010681152344 0.714999973773956299 -1.00899994373321533
-7.76200008392333984 0.682500004768371582 -1.08500003814697266
-7.78429794311523438 0.715133070945739746 -0.958888649940490723
-7.79799985885620117 0.697000026702880859 -1.07299995422363281
-7.77500009536743164 0.720000028610229492 -0.96399998664855957
-7.76550006866455078 0.731999993324279785 -0.972000002861022949
-7.76800012588500977 0.663499951362609863 -0.981999993324279785
-7.78399991989135742 0.716000020503997803 -1.0130000114440918
-7.77099990844726562 0.740000009536743164 -0.970000028610229492
-7.80200004577636719 0.699999988079071045 -1.08099997043609619
-7.75824975967407227 0.65074998140335083 -0.995999991893768311
-7.77950000762939453 0.683500051498413086 -1.04750001430511475
-7.74499988555908203 0.659000039100646973 -1.00200009346008301
-7.77600002288818359 0.699000000953674316 -1.03100001811981201
-7.77299976348876953 0.675000011920928955 -1.05999994277954102
-7.77200031280517578 0.730000019073486328 -1.05850005149841309
-7.76449966430664062 0.692999958992004395 -1.01150000095367432
-7.75450038909912109 0.700999975204467773 -1.04150009155273438
-7.78600025177001953 0.717000007629394531 -1.00049996376037598
-7.78599977493286133 0.712000012397766113 -1.02799999713897705
-7.78599977493286133 0.654999971389770508 -1.01699995994567871
-7.74499988555908203 0.672999978065490723 -1.02600002288818359
-7.7779998779296875 0.726999998092651367 -1.06099998950958252
-7.74200010299682617 0.723999977111816406 -1.03100001811981201
-7.78299999237060547 0.71399998664855957 -1.02300000190734863
-7.77850008010864258 0.69850003719329834 -1.06700003147125244
-7.72900009155273438 0.726999998092651367 -1.02199995517730713
-7.7639470100402832 0.573151111602783203 -1.043265700340271
-7.77699995040893555 0.570999979972839355 -1.05299997329711914
-7.75 0.590499997138977051 -1.05250000953674316
-7.74900007247924805 0.723999977111816406 -1.03100001811981201
-7.74800014495849609 0.720000028610229492 -1.04799997806549072
-7.74750041961669922 0.715499997138977051 -1.04200005531311035
-7.76200008392333984 0.702000021934509277 -1.04200005531311035
-7.76749992370605469 0.728500008583068848 -1.05150008201599121
-7.75199985504150391 0.68900001049041748 -1.02999997138977051
-7.74874591827392578 0.677266597747802734 -1.02865135669708252
-7.7649998664855957 0.671000003814697266 -1.04100000858306885
-7.75899982452392578 0.647000014781951904 -1.00699996948242188
-7.77899980545043945 0.660000026226043701 -1.02600002288818359
-7.78100013732910156 0.699000000953674316 -1.07200002670288086
-7.78600025177001953 0.603500008583068848 -1.0755000114440918
-7.77400016784667969 0.671999990940093994 -1.02699995040893555
-7.78800010681152344 0.689999997615814209 -1.07899999618530273
-7.76000022888183594 0.691999971866607666 -1.05400002002716064
-7.74800014495849609 0.680999994277954102 -1.01199996471405029
-7.77199983596801758 0.695999979972839355 -1.07200002670288086
-7.76900005340576172 0.736000001430511475 -1.06400001049041748
-7.75899982452392578 0.662000000476837158 -1.01900005340576172
-7.78200006484985352 0.705999970436096191 -1.00800001621246338
-7.75898838043212891 0.676929712295532227 -1.05905294418334961
-7.76000022888183594 0.620000004768371582 -1.0549999475479126
-7.78100013732910156 0.708999991416931152 -1.00199997425079346
-7.78599977493286133 0.721000015735626221 -0.978999972343444824
-7.75400018692016602 0.64999997615814209 -0.980000019073486328
-7.74700021743774414 0.657999992370605469 -0.981999993324279785
-7.74650001525878906 0.709499955177307129 -1.04150009155273438
-7.74337673187255859 0.665327668190002441 -0.967009425163269043
-7.76005697250366211 0.674081027507781982 -0.965118646621704102
-7.76681947708129883 0.669441401958465576 -0.973055005073547363
-7.77550029754638672 0.72350001335144043 -0.972000002861022949
-7.77199983596801758 0.726999998092651367 -0.972000002861022949
-7.78000020980834961 0.734000027179718018 -0.976000010967254639
-7.75500011444091797 0.68900001049041748 -1.00800001621246338
-7.7630000114440918 0.65700000524520874 -1.01900005340576172
-7.78399991989135742 0.643000006675720215 -1.02699995040893555
-7.75899982452392578 0.707000017166137695 -1.05799996852874756
-7.76150035858154297 0.689999997615814209 -1.00150001049041748
-7.76599979400634766 0.656000018119812012 -1.02400004863739014
-7.74700021743774414 0.71399998664855957 -1.03900003433227539
-7.77500009536743164 0.699000000953674316 -1.03999996185302734
-7.74883937835693359 0.662921547889709473 -1.01368188858032227
-7.78399991989135742 0.718999981880187988 -0.994000017642974854
-7.76200008392333984 0.675000011920928955 -1.04999995231628418
-7.77299976348876953 0.684499979019165039 -1.03649997711181641
-7.78312492370605469 0.724875032901763916 -0.956125020980834961
-7.76424980163574219 0.727249979972839355 -0.954999983310699463
-7.75799989700317383 0.731000006198883057 -0.96399998664855957
-7.76800012588500977 0.731999993324279785 -0.961000025272369385
-7.77405595779418945 0.681112229824066162 -1.01351356506347656
-7.77600002288818359 0.589999973773956299 -1.07799994945526123
-7.77124977111816406 0.676249980926513672 -1.04774999618530273
-7.77099990844726562 0.654999971389770508 -1.03600001335144043
-7.76475000381469727 0.738749980926513672 -1.05575001239776611
-7.7649998664855957 0.734000027179718018 -1.05900001525878906
-7.77803897857666016 0.720176279544830322 -1.00698018074035645
-7.75500011444091797 0.723999977111816406 -1.04900002479553223
-7.74600028991699219 0.705500006675720215 -1.03100001811981201
-7.77199983596801758 0.703999996185302734 -1.02300000190734863
-7.74800014495849609 0.665000021457672119 -1.01199996471405029
-7.77306413650512695 0.670986950397491455 -1.08298408985137939
-7.77500009536743164 0.652000010013580322 -1.02400004863739014
-7.76999998092651367 0.730999946594238281 -0.953000009059906006
-7.74399995803833008 0.717000007629394531 -1.03299999237060547
-7.78349971771240234 0.690999984741210938 -1.07899999618530273
-7.78783702850341797 0.59258192777633667 -1.04103744029998779
-7.75600004196166992 0.574999988079071045 -1.04700005054473877
-7.78299999237060547 0.574999988079071045 -1.03100001811981201
-7.75199985504150391 0.584999978542327881 -1.06700003147125244
-7.77200031280517578 0.63050001859664917 -1.05750000476837158
-7.76900005340576172 0.624000012874603271 -1.09300005435943604
-7.75299978256225586 0.721000015735626221 -1.05299997329711914
-7.74900007247924805 0.712999999523162842 -1.04700005054473877
-7.77199983596801758 0.704999983310699463 -1.02699995040893555
-7.76000022888183594 0.704999983310699463 -1.05299997329711914
-7.76200008392333984 0.670000016689300537 -1.07700002193450928
-7.79799985885620117 0.702499985694885254 -1.07850003242492676
-7.73323535919189453 0.66683429479598999 -0.977930188179016113
-7.76700019836425781 0.734000027179718018 -1.06599998474121094
-7.78599977493286133 0.697000026702880859 -1.05700004100799561
-7.75400018692016602 0.590000033378601074 -1.09249997138977051
-7.75600004196166992 0.690999984741210938 -1.03900003433227539
-7.77099990844726562 0.695999979972839355 -1.00199997425079346
-7.78900003433227539 0.68900001049041748 -1.07400000095367432
-7.74220991134643555 0.728153526782989502 -1.01160895824432373
-7.76200008392333984 0.689499974250793457 -1.06200003623962402
-7.74736976623535156 0.58176654577255249 -1.07390189170837402
-7.74250030517578125 0.57350003719329834 -1.08450007438659668
-7.75600004196166992 0.582000017166137695 -1.08599996566772461
-7.77950000762939453 0.585500001907348633 -1.08000004291534424
-7.77644014358520508 0.625322997570037842 -1.07868003845214844
-7.72100019454956055 0.726999998092651367 -1.02199995517730713
-7.74296236038208008 0.727002382278442383 -1.03300166130065918
-7.72696781158447266 0.741882026195526123 -1.02000343799591064
-7.77899980545043945 0.575999975204467773 -1.0559999942779541
-7.78100013732910156 0.607999980449676514 -1.03499996662139893
-7.75143194198608398 0.607143580913543701 -1.07149684429168701
-7.73462533950805664 0.732041895389556885 -1.00307226181030273
-7.77600002288818359 0.610000014305114746 -1.08599996566772461
-7.75099992752075195 0.722000002861022949 -1.04600000381469727
-7.78766250610351562 0.607418298721313477 -1.0602957010269165
-7.74698972702026367 0.590592861175537109 -1.08268940448760986
-7.74662494659423828 0.587249994277954102 -1.0905001163482666
-7.74499988555908203 0.569000005722045898 -1.09300005435943604
-7.75797557830810547 0.595993697643280029 -1.08700966835021973
-7.73899984359741211 0.679000020027160645 -1.00699996948242188
-7.78299999237060547 0.700999975204467773 -1.0140000581741333
-7.78325462341308594 0.668186485767364502 -1.01548779010772705
-7.74499988555908203 0.709999978542327881 -1.02600002288818359
-7.76487445831298828 0.73912501335144043 -1.06575000286102295
-7.7844538688659668 0.700495123863220215 -1.01109778881072998
-7.76408958435058594 0.667678117752075195 -1.02661418914794922
-7.78349971771240234 0.680500030517578125 -1.05699992179870605
-7.7779998779296875 0.646000027656555176 -1.02799999713897705
-7.78000020980834961 0.643000006675720215 -1.01199996471405029
-7.75 0.606000006198883057 -1.05099999904632568
-7.76200008392333984 0.704999983310699463 -1.06200003623962402
-7.75400018692016602 0.68599998950958252 -1.0130000114440918
-7.7610926628112793 0.673678994178771973 -1.03448963165283203
-7.77600002288818359 0.649000048637390137 -1.03250002861022949
1 1 1
-7.78299999237060547 0.740000009536743164 -0.981999993324279785
-7.77649974822998047 0.724249958992004395 -0.953624963760375977
-7.76350021362304688 0.652000010013580322 -0.987999975681304932
-7.76637458801269531 0.727874994277954102 -0.96412503719329834
-7.78200006484985352 0.741999983787536621 -0.990000009536743164
-7.75707244873046875 0.646991312503814697 -1.01260864734649658
-7.75400018692016602 0.612999975681304932 -1.05400002002716064
-7.75349998474121094 0.651000022888183594 -0.972999989986419678
-7.75500011444091797 0.660000026226043701 -0.966000020503997803
-7.76100015640258789 0.669000029563903809 -0.964999973773956299
-7.77125167846679688 0.682391643524169922 -0.996081411838531494
-7.72700023651123047 0.727999985218048096 -1.02699995040893555
-7.78999996185302734 0.593999981880187988 -1.05999994277954102
-7.78349971771240234 0.601999998092651367 -1.05200004577636719
-7.77667617797851562 0.614926397800445557 -1.05793869495391846
-7.75500011444091797 0.624000012874603271 -1.06700003147125244
-7.75699996948242188 0.605000019073486328 -1.07700002193450928
-7.74300003051757812 0.587000012397766113 -1.0820000171661377
-7.74300003051757812 0.578999996185302734 -1.09300005435943604
-7.75600004196166992 0.578999996185302734 -1.08000004291534424
-7.75450038909912109 0.572499990463256836 -1.09100008010864258
-7.76304340362548828 0.647132992744445801 -1.05366742610931396
3 167 3 4 255 255 255
3 3 72 4 255 255 255
3 4 72 167 255 255 255
3 72 168 167 255 255 255
3 3 237 72 255 255 255
3 167 73 3 255 255 255
3 236 6 167 255 255 255
3 167 74 236 255 255 255
3 168 70 167 255 255 255
3 237 13 72 255 255 255
3 3 13 237 255 255 255
3 3 0 13 255 255 255
3 73 0 3 255 255 255
3 73 97 0 255 255 255
3 167 71 73 255 255 255
3 6 71 167 255 255 255
3 6 2 71 255 255 255
3 236 74 6 255 255 255
3 74 169 6 255 255 255
3 167 70 74 255 255 255
3 70 1 74 255 255 255
3 168 75 70 255 255 255
3 0 235 13 255 255 255
3 73 71 97 255 255 255
3 71 2 97 255 255 255
3 6 169 2 255 255 255
3 74 100 169 255 255 255
3 1 238 74 255 255 255
3 70 75 1 255 255 255
3 168 264 75 255 255 255
3 0 96 235 255 255 255
3 0 265 96 255 255 255
3 2 98 97 255 255 255
3 169 99 2 255 255 255
3 74 101 100 255 255 255
3 238 101 74 255 255 255
3 238 256 101 255 255 255
3 75 85 1 255 255 255
3 95 220 75 255 255 255
3 75 264 95 255 255 255
3 264 102 95 255 255 255
3 235 88 13 255 255 255
3 96 89 235 255 255 255
3 0 97 265 255 255 255
3 97 98 265 255 255 255
3 98 90 265 255 255 255
3 99 285 2 255 255 255
3 169 100 99 255 255 255
3 99 266 285 255 255 255
3 100 101 99 255 255 255
3 101 256 99 255 255 255
3 238 1 256 255 255 255
3 1 85 256 255 255 255
3 75 86 85 255 255 255
3 95 87 220 255 255 255
3 102 87 95 255 255 255
3 264 88 102 255 255 255
3 235 89 88 255 255 255
3 96 90 89 255 255 255
3 265 90 96 255 255 255
3 266 297 285 255 255 255
3 85 310 256 255 255 255
3 86 310 85 255 255 255
3 86 258 310 255 255 255
3 75 220 86 255 255 255
3 87 259 220 255 255 255
3 102 93 87 255 255 255
3 88 89 102 255 255 255
3 89 303 102 255 255 255
3 264 168 88 255 255 255
3 89 304 303 255 255 255
3 90 304 89 255 255 255
3 266 306 297 255 255 255
3 99 271 266 255 255 255
3 256 308 271 255 255 255
3 257 308 256 255 255 255
3 257 309 308 255 255 255
3 256 310 257 255 255 255
3 258 311 310 255 255 255
3 86 37 258 255 255 255
3 259 86 220 255 255 255
3 102 303 93 255 255 255
3 303 270 93 255 255 255
3 304 270 303 255 255 255
3 304 305 270 255 255 255
3 305 304 90 255 255 255
3 306 191 297 255 255 255
3 266 126 306 255 255 255
3 307 127 266 255 255 255
3 266 271 307 255 255 255
3 99 256 271 255 255 255
3 308 272 271 255 255 255
3 309 272 308 255 255 255
3 257 273 309 255 255 255
3 310 311 257 255 255 255
3 311 273 257 255 255 255
3 258 130 311 255 255 255
3 86 274 37 255 255 255
3 87 93 81 255 255 255
3 93 270 81 255 255 255
3 270 82 181 255 255 255
3 305 82 270 255 255 255
3 305 7 82 255 255 255
3 90 83 305 255 255 255
3 306 84 191 255 255 255
3 266 127 126 255 255 255
3 307 128 127 255 255 255
3 271 274 307 255 255 255
3 272 274 271 255 255 255
3 309 130 272 255 255 255
3 273 130 309 255 255 255
3 273 311 130 255 255 255
3 258 250 130 255 255 255
3 274 250 37 255 255 255
3 86 129 274 255 255 255
3 81 259 87 255 255 255
3 81 86 259 255 255 255
3 270 181 81 255 255 255
3 82 131 181 255 255 255
3 305 83 7 255 255 255
3 83 239 7 255 255 255
3 84 83 191 255 255 255
3 306 132 84 255 255 255
3 126 133 306 255 255 255
3 127 134 126 255 255 255
3 128 135 127 255 255 255
3 274 128 307 255 255 255
3 274 129 128 255 255 255
3 129 268 128 255 255 255
3 272 250 274 255 255 255
3 130 250 272 255 255 255
3 81 129 86 255 255 255
3 81 131 129 255 255 255
3 131 81 181 255 255 255
3 82 260 131 255 255 255
3 84 239 83 255 255 255
3 84 312 239 255 255 255
3 132 118 84 255 255 255
3 306 133 132 255 255 255
3 133 118 132 255 255 255
3 126 10 133 255 255 255
3 134 10 126 255 255 255
3 135 134 127 255 255 255
3 135 240 134 255 255 255
3 268 135 128 255 255 255
3 268 240 135 255 255 255
3 129 131 268 255 255 255
3 131 260 268 255 255 255
3 82 7 260 255 255 255
3 7 10 260 255 255 255
3 239 133 7 255 255 255
3 84 118 312 255 255 255
3 134 260 10 255 255 255
3 260 119 268 255 255 255
3 260 134 119 255 255 255
3 134 240 119 255 255 255
3 240 268 119 255 255 255
3 133 10 7 255 255 255
3 239 312 133 255 255 255
3 267 5 254 255 255 255
3 267 8 5 255 255 255
3 8 263 5 255 255 255
3 5 166 254 255 255 255
3 263 65 5 255 255 255
3 8 94 263 255 255 255
3 166 163 254 255 255 255
3 94 261 263 255 255 255
3 8 267 94 255 255 255
3 166 302 163 255 255 255
3 302 262 163 255 255 255
3 166 263 302 255 255 255
3 261 302 263 255 255 255
3 262 170 163 255 255 255
3 170 278 163 255 255 255
3 262 269 170 255 255 255
3 170 76 278 255 255 255
3 269 9 170 255 255 255
3 262 171 269 255 255 255
3 76 77 278 255 255 255
3 170 67 76 255 255 255
3 9 67 170 255 255 255
3 269 226 9 255 255 255
3 171 226 269 255 255 255
3 171 241 226 255 255 255
3 262 172 171 255 255 255
3 77 227 278 255 255 255
3 9 78 67 255 255 255
3 226 123 9 255 255 255
3 241 174 226 255 255 255
3 171 242 241 255 255 255
3 262 233 172 255 255 255
3 77 16 227 255 255 255
3 76 79 77 255 255 255
3 76 243 79 255 255 255
3 78 173 67 255 255 255
3 226 50 123 255 255 255
3 241 33 174 255 255 255
3 242 206 241 255 255 255
3 171 172 242 255 255 255
3 172 196 242 255 255 255
3 233 209 172 255 255 255
3 227 233 278 255 255 255
3 16 175 227 255 255 255
3 77 136 16 255 255 255
3 79 156 77 255 255 255
3 243 228 79 255 255 255
3 173 38 67 255 255 255
3 78 244 173 255 255 255
3 50 14 123 255 255 255
3 174 30 226 255 255 255
3 33 155 174 255 255 255
3 241 206 33 255 255 255
3 242 78 206 255 255 255
3 233 163 278 255 255 255
3 227 157 196 255 255 255
3 175 251 227 255 255 255
3 16 136 175 255 255 255
3 77 287 136 255 255 255
3 79 228 156 255 255 255
3 228 280 156 255 255 255
3 243 164 228 255 255 255
3 38 243 67 255 255 255
3 173 210 38 255 255 255
3 244 36 173 255 255 255
3 50 223 14 255 255 255
3 30 14 226 255 255 255
3 174 113 30 255 255 255
3 155 224 174 255 255 255
3 33 53 155 255 255 255
3 242 196 78 255 255 255
3 196 157 78 255 255 255
3 172 209 196 255 255 255
3 251 157 227 255 255 255
3 175 176 251 255 255 255
3 136 176 175 255 255 255
3 136 161 176 255 255 255
3 287 185 136 255 255 255
3 287 139 185 255 255 255
3 77 203 287 255 255 255
3 156 203 77 255 255 255
3 156 207 203 255 255 255
3 280 252 156 255 255 255
3 280 189 252 255 255 255
3 164 35 228 255 255 255
3 243 19 164 255 255 255
3 243 76 67 255 255 255
3 38 19 243 255 255 255
3 38 210 19 255 255 255
3 210 17 19 255 255 255
3 173 36 210 255 255 255
3 244 286 36 255 255 255
3 14 30 123 255 255 255
3 224 30 174 255 255 255
3 157 244 78 255 255 255
3 157 184 244 255 255 255
3 251 184 157 255 255 255
3 251 68 184 255 255 255
3 176 34 251 255 255 255
3 161 64 176 255 255 255
3 136 185 161 255 255 255
3 185 40 161 255 255 255
3 139 40 185 255 255 255
3 139 20 40 255 255 255
3 287 203 139 255 255 255
3 203 207 139 255 255 255
3 207 21 139 255 255 255
3 252 207 156 255 255 255
3 252 22 207 255 255 255
3 189 55 252 255 255 255
3 280 35 189 255 255 255
3 19 159 164 255 255 255
3 17 159 19 255 255 255
3 210 69 17 255 255 255
3 36 69 210 255 255 255
3 36 249 69 255 255 255
3 249 66 69 255 255 255
3 36 165 249 255 255 255
3 286 165 36 255 255 255
3 286 186 165 255 255 255
3 50 279 223 255 255 255
3 155 187 30 255 255 255
3 174 53 113 255 255 255
3 30 123 174 255 255 255
3 224 123 30 255 255 255
3 155 187 224 255 255 255
3 184 206 244 255 255 255
3 68 190 184 255 255 255
3 34 68 251 255 255 255
3 34 213 68 255 255 255
3 176 288 34 255 255 255
3 64 288 176 255 255 255
3 161 229 64 255 255 255
3 20 275 40 255 255 255
3 139 21 20 255 255 255
3 21 23 20 255 255 255
3 207 22 21 255 255 255
3 22 26 21 255 255 255
3 252 55 22 255 255 255
3 189 91 55 255 255 255
3 35 91 189 255 255 255
3 35 225 91 255 255 255
3 35 280 228 255 255 255
3 249 125 66 255 255 255
3 186 180 165 255 255 255
3 286 44 186 255 255 255
3 50 224 279 255 255 255
3 187 279 30 255 255 255
3 187 51 279 255 255 255
3 113 120 248 255 255 255
3 162 137 155 255 255 255
3 155 30 162 255 255 255
3 184 286 206 255 255 255
3 68 213 190 255 255 255
3 34 288 213 255 255 255
3 64 281 288 255 255 255
3 229 211 64 255 255 255
3 161 40 229 255 255 255
3 40 275 229 255 255 255
3 20 24 275 255 255 255
3 23 25 20 255 255 255
3 21 106 23 255 255 255
3 91 27 55 255 255 255
3 225 27 91 255 255 255
3 35 147 225 255 255 255
3 69 214 17 255 255 255
3 66 151 69 255 255 255
3 66 282 151 255 255 255
3 249 165 125 255 255 255
3 165 180 125 255 255 255
3 186 28 180 255 255 255
3 44 18 186 255 255 255
3 187 137 51 255 255 255
3 184 255 286 255 255 255
3 190 255 184 255 255 255
3 190 138 255 255 255 255
3 288 121 213 255 255 255
3 177 121 288 255 255 255
3 177 221 121 255 255 255
3 288 281 177 255 255 255
3 281 222 177 255 255 255
3 64 188 281 255 255 255
3 211 188 64 255 255 255
3 211 41 188 255 255 255
3 229 152 211 255 255 255
3 275 29 229 255 255 255
3 24 29 275 255 255 255
3 20 25 24 255 255 255
3 25 103 24 255 255 255
3 23 104 25 255 255 255
3 26 112 21 255 255 255
3 27 56 55 255 255 255
3 225 105 27 255 255 255
3 225 140 158 255 255 255
3 147 140 225 255 255 255
3 147 276 140 255 255 255
3 35 164 147 255 255 255
3 164 276 147 255 255 255
3 164 159 276 255 255 255
3 69 151 214 255 255 255
3 282 221 151 255 255 255
3 125 282 66 255 255 255
3 125 11 282 255 255 255
3 125 253 11 255 255 255
3 180 253 125 255 255 255
3 180 246 253 255 255 255
3 28 234 180 255 255 255
3 186 18 28 255 255 255
3 44 117 18 255 255 255
3 223 279 30 255 255 255
3 51 120 279 255 255 255
3 255 117 286 255 255 255
3 190 245 138 255 255 255
3 213 121 190 255 255 255
3 121 154 190 255 255 255
3 121 221 154 255 255 255
3 177 114 221 255 255 255
3 188 208 281 255 255 255
3 41 204 188 255 255 255
3 229 29 152 255 255 255
3 29 58 152 255 255 255
3 24 103 29 255 255 255
3 103 109 29 255 255 255
3 104 103 25 255 255 255
3 23 106 104 255 255 255
3 21 112 106 255 255 255
3 27 107 56 255 255 255
3 105 108 27 255 255 255
3 158 27 225 255 255 255
3 276 192 140 255 255 255
3 214 114 17 255 255 255
3 151 221 214 255 255 255
3 282 154 221 255 255 255
3 282 115 154 255 255 255
3 253 183 11 255 255 255
3 234 246 180 255 255 255
3 234 183 246 255 255 255
3 18 12 28 255 255 255
3 117 141 18 255 255 255
3 51 113 120 255 255 255
3 117 44 286 255 255 255
3 255 138 117 255 255 255
3 245 117 138 255 255 255
3 114 214 221 255 255 255
3 281 31 222 255 255 255
3 208 31 281 255 255 255
3 188 204 208 255 255 255
3 204 41 208 255 255 255
3 41 296 208 255 255 255
3 211 296 41 255 255 255
3 152 296 211 255 255 255
3 152 57 296 255 255 255
3 29 109 58 255 255 255
3 103 247 109 255 255 255
3 104 247 103 255 255 255
3 106 247 104 255 255 255
3 106 111 110 255 255 255
3 107 54 56 255 255 255
3 108 48 27 255 255 255
3 158 212 27 255 255 255
3 192 158 140 255 255 255
3 192 55 158 255 255 255
3 276 124 192 255 255 255
3 114 153 17 255 255 255
3 115 190 154 255 255 255
3 183 230 11 255 255 255
3 253 143 183 255 255 255
3 246 149 253 255 255 255
3 183 149 246 255 255 255
3 234 230 183 255 255 255
3 234 39 230 255 255 255
3 28 39 234 255 255 255
3 28 12 39 255 255 255
3 18 141 12 255 255 255
3 245 141 117 255 255 255
3 114 182 32 255 255 255
3 31 289 222 255 255 255
3 296 80 208 255 255 255
3 152 58 57 255 255 255
3 109 59 58 255 255 255
3 110 247 106 255 255 255
3 111 198 110 255 255 255
3 106 112 111 255 255 255
3 112 60 111 255 255 255
3 54 61 56 255 255 255
3 107 62 54 255 255 255
3 27 62 107 255 255 255
3 27 63 62 255 255 255
3 55 212 158 255 255 255
3 55 56 212 255 255 255
3 56 193 212 255 255 255
3 276 116 124 255 255 255
3 153 159 17 255 255 255
3 114 32 153 255 255 255
3 230 42 11 255 255 255
3 143 149 183 255 255 255
3 143 92 149 255 255 255
3 12 230 39 255 255 255
3 12 141 230 255 255 255
3 245 230 141 255 255 255
3 245 42 230 255 255 255
3 182 219 32 255 255 255
3 114 177 182 255 255 255
3 289 179 222 255 255 255
3 80 231 208 255 255 255
3 296 178 80 255 255 255
3 178 150 80 255 255 255
3 296 150 178 255 255 255
3 57 150 296 255 255 255
3 58 194 57 255 255 255
3 59 195 58 255 255 255
3 110 197 247 255 255 255
3 111 60 198 255 255 255
3 60 199 198 255 255 255
3 112 26 60 255 255 255
3 26 22 60 255 255 255
3 61 193 56 255 255 255
3 61 45 193 255 255 255
3 62 200 54 255 255 255
3 63 201 62 255 255 255
3 193 108 212 255 255 255
3 42 115 11 255 255 255
3 179 182 222 255 255 255
3 289 283 179 255 255 255
3 31 283 289 255 255 255
3 231 31 208 255 255 255
3 80 284 231 255 255 255
3 57 194 150 255 255 255
3 194 293 150 255 255 255
3 58 195 194 255 255 255
3 195 298 194 255 255 255
3 59 298 195 255 255 255
3 197 59 247 255 255 255
3 110 198 197 255 255 255
3 198 299 197 255 255 255
3 199 300 198 255 255 255
3 22 301 60 255 255 255
3 61 142 45 255 255 255
3 200 144 54 255 255 255
3 62 201 200 255 255 255
3 201 294 200 255 255 255
3 63 202 201 255 255 255
3 108 105 212 255 255 255
3 105 225 212 255 255 255
3 225 192 212 255 255 255
3 193 63 108 255 255 255
3 116 22 124 255 255 255
3 116 301 22 255 255 255
3 116 277 301 255 255 255
3 219 116 32 255 255 255
3 219 179 277 255 255 255
3 179 219 182 255 255 255
3 283 205 179 255 255 255
3 31 231 283 255 255 255
3 231 284 283 255 255 255
3 284 43 283 255 255 255
3 194 49 293 255 255 255
3 194 46 49 255 255 255
3 298 46 194 255 255 255
3 59 109 247 255 255 255
3 299 59 197 255 255 255
3 299 298 59 255 255 255
3 299 46 298 255 255 255
3 198 300 299 255 255 255
3 300 199 299 255 255 255
3 60 146 199 255 255 255
3 301 52 60 255 255 255
3 45 200 193 255 255 255
3 142 215 45 255 255 255
3 144 142 54 255 255 255
3 201 145 294 255 255 255
3 63 291 108 255 255 255
3 193 202 63 255 255 255
3 301 277 52 255 255 255
3 179 160 277 255 255 255
3 205 43 179 255 255 255
3 43 205 283 255 255 255
3 284 122 43 255 255 255
3 46 199 49 255 255 255
3 299 199 46 255 255 255
3 52 146 60 255 255 255
3 142 61 54 255 255 255
3 144 292 142 255 255 255
3 200 294 144 255 255 255
3 291 295 108 255 255 255
3 179 43 160 255 255 255
3 43 122 160 255 255 255
3 284 80 122 255 255 255
3 80 52 122 255 255 255
3 199 146 49 255 255 255
3 45 201 200 255 255 255
3 215 292 45 255 255 255
3 142 292 215 255 255 255
3 144 216 292 255 255 255
3 145 217 294 255 255 255
3 145 148 217 255 255 255
3 277 122 52 255 255 255
3 277 160 122 255 255 255
3 146 293 49 255 255 255
3 45 47 201 255 255 255
3 216 232 292 255 255 255
3 144 294 216 255 255 255
3 148 218 217 255 255 255
3 145 48 148 255 255 255
3 47 148 201 255 255 255
3 45 292 47 255 255 255
3 292 232 47 255 255 255
3 216 15 232 255 255 255
3 217 216 294 255 255 255
3 217 15 216 255 255 255
3 218 15 217 255 255 255
3 148 47 218 255 255 255
3 47 232 218 255 255 255
3 48 291 148 255 255 255
3 218 232 15 255 255 255
3 48 295 291 255 255 255
3 290 290 290 255 255 255
