ply
format ascii 1.0
element vertex 303
property float x
property float y
property float z
element face 576
property list uchar int vertex_indices
property uchar red
property uchar green
property uchar blue
end_header
-0.0695653930306434631 4.84529399871826172 -0.882417082786560059
-0.00677603064104914665 4.82568216323852539 -1.02341675758361816
0.0137606337666511536 4.80568552017211914 -1.00751233100891113
-0.0389898978173732758 4.85114479064941406 -0.991519749164581299
-0.00801467522978782654 4.85583829879760742 -0.937025070190429688
0.0556931532919406891 4.86748266220092773 -0.939451992511749268
-0.0309999994933605194 4.81599998474121094 -0.880999982357025146
0.0172097273170948029 4.85131263732910156 -0.947634756565093994
-0.0324703492224216461 4.81913328170776367 -0.953112185001373291
-0.00682045146822929382 4.7691950798034668 -0.930060207843780518
-0.017000000923871994 4.82700014114379883 -0.941999971866607666
-0.0337119363248348236 4.85863685607910156 -0.982880473136901855
0.0248232297599315643 4.81475400924682617 -0.876606285572052002
-0.0187236703932285309 4.82388019561767578 -0.807317376136779785
-0.00999999977648258209 4.83799982070922852 -0.93199998140335083
0.0562310777604579926 4.83623743057250977 -0.650819182395935059
-0.0365080088376998901 4.79106330871582031 -0.954880654811859131
-0.00606448715552687645 4.83488893508911133 -0.968149960041046143
0.00675795786082744598 4.79687643051147461 -0.94358140230178833
-0.0204418785870075226 4.81622934341430664 -0.959817826747894287
0.0131469704210758209 4.81880760192871094 -0.891081273555755615
0.0180763453245162964 4.79949569702148438 -0.885177850723266602
-0.0269406866282224655 4.85489130020141602 -0.961387693881988525
0.000476136308861896396 4.81627559661865234 -0.995805025100708008
0.055255591869354248 4.85856962203979492 -0.944941043853759766
0.0263112727552652359 4.80311250686645508 -0.987249612808227539
0.0347626395523548126 4.81798505783081055 -1.04440140724182129
-0.0418763346970081329 4.78937721252441406 -1.04973840713500977
0.0544621087610721588 4.8009953498840332 -1.04717779159545898
-0.0446562804281711578 4.81225824356079102 -1.05556845664978027
0.00452294433489441872 4.85379552841186523 -0.815603554248809814
-0.0077418438158929348 4.82032585144042969 -0.72797095775604248
-0.0161392465233802795 4.85371637344360352 -0.737169623374938965
0.0369021482765674591 4.78385829925537109 -1.0169219970703125
-0.0538579709827899933 4.85551309585571289 -0.891146719455718994
0.0468117594718933105 4.82883596420288086 -1.03372693061828613
0.0553088188171386719 4.8708643913269043 -0.940323472023010254
0.0666291117668151855 4.8463287353515625 -0.640695512294769287
0.0168851092457771301 4.84615755081176758 -0.6739005446434021
0.0355534330010414124 4.80162858963012695 -0.781644701957702637
0.0399999991059303284 4.8060002326965332 -0.778999984264373779
0.012665734626352787 4.86154079437255859 -0.800586819648742676
-0.00786164216697216034 4.84238386154174805 -0.795943617820739746
-0.00800000037997961044 4.84299993515014648 -0.805000007152557373
0.0186622552573680878 4.78749227523803711 -0.871130287647247314
-0.0350000001490116119 4.86100006103515625 -0.996999979019165039
0.0390000008046627045 4.80399990081787109 -0.77499997615814209
0.0120016569271683693 4.87383413314819336 -0.644384384155273438
-0.0317659527063369751 4.83686304092407227 -1.01399660110473633
0.014108678326010704 4.82603359222412109 -0.682892262935638428
0.00854544434696435928 4.88456344604492188 -0.838270604610443115
0.0272814780473709106 4.86206340789794922 -0.756764531135559082
-0.0255419798195362091 4.82809066772460938 -0.676369726657867432
0.0351904071867465973 4.87082004547119141 -0.938398361206054688
0.0391950644552707672 4.80579853057861328 -0.995468318462371826
-0.00899999961256980896 4.85699987411499023 -0.861999988555908203
-0.0348652563989162445 4.83907699584960938 -0.820574104785919189
0.0159512739628553391 4.87650156021118164 -0.784939229488372803
0.0211256127804517746 4.83193540573120117 -0.617539644241333008
0.0257337018847465515 4.82434415817260742 -0.693062245845794678
0.0399433895945549011 4.84022665023803711 -0.685542941093444824
-0.00799449626356363297 4.8188929557800293 -1.05616080760955811
0.00300327641889452934 4.80430507659912109 -0.933488726615905762
0.00747594935819506645 4.85665369033813477 -0.680454492568969727
0.00400000018998980522 4.8470001220703125 -0.667999982833862305
-0.00316132977604866028 4.82565021514892578 -0.789399325847625732
-0.00645699724555015564 4.87140369415283203 -0.784192383289337158
-0.0220439303666353226 4.82273244857788086 -0.875594496726989746
-0.0380610153079032898 4.82736110687255859 -0.893219888210296631
-0.0355523750185966492 4.83915615081787109 -0.969810605049133301
-0.0174996871501207352 4.7830805778503418 -0.927559554576873779
-0.0261089317500591278 4.80835151672363281 -0.930219054222106934
-0.0210184231400489807 4.83120155334472656 -0.91138988733291626
-0.015698656439781189 4.81711292266845703 -0.908991515636444092
0.0145545247942209244 4.81493139266967773 -0.915932536125183105
0.0230976101011037827 4.83696842193603516 -0.944631516933441162
0.0183757264167070389 4.83375692367553711 -0.936841428279876709
0.0023778888862580061 4.89208793640136719 -0.86054682731628418
0.0149285439401865005 4.84227991104125977 -0.797272980213165283
0.0309372246265411377 4.84059047698974609 -0.709745645523071289
0.0462747402489185333 4.84640121459960938 -0.642722427845001221
-0.017000000923871994 4.82999992370605469 -0.712999999523162842
-0.0307632070034742355 4.81743526458740234 -0.701233804225921631
0.0196058284491300583 4.81888532638549805 -0.634143173694610596
-0.0396472960710525513 4.79777145385742188 -1.0228191614151001
-0.0427945815026760101 4.84540510177612305 -1.00585365295410156
-0.0211428850889205933 4.81906890869140625 -1.04599523544311523
0.00523984013125300407 4.82794952392578125 -1.0281069278717041
-0.0199999995529651642 4.79699993133544922 -1.04999995231628418
-0.0147154573351144791 4.86853647232055664 -0.990636944770812988
-0.0111343357712030411 4.7660670280456543 -0.94154888391494751
-0.0110646877437829971 4.85682106018066406 -0.884334564208984375
-0.0228279754519462585 4.85617446899414062 -1.0035862922668457
0.0205280426889657974 4.82905912399291992 -1.01999890804290771
-0.0378670543432235718 4.81414461135864258 -1.02821016311645508
0.0202452540397644043 4.80950403213500977 -1.02985703945159912
0.0272978506982326508 4.79405736923217773 -1.0140080451965332
0.00784857571125030518 4.82273626327514648 -1.00308811664581299
-0.0281341522932052612 4.79611396789550781 -1.02339637279510498
-0.00564295938238501549 4.8043670654296875 -1.01979553699493408
-0.0204836074262857437 4.82328510284423828 -1.00531017780303955
-0.016249118372797966 4.81239748001098633 -1.00068485736846924
-0.021561596542596817 4.81145715713500977 -1.0218275785446167
-0.032404780387878418 4.83365392684936523 -1.00536775588989258
-0.0101435929536819458 4.84531545639038086 -1.00372648239135742
0.0168917793780565262 4.82771444320678711 -0.745826601982116699
0.00379450363107025623 4.8704380989074707 -0.796401083469390869
0.00285520893521606922 4.86179065704345703 -0.664944708347320557
0.00222900253720581532 4.78131341934204102 -0.928844213485717773
-0.0344048403203487396 4.84533500671386719 -0.68738168478012085
-0.043000001460313797 4.8340001106262207 -0.973999977111816406
-0.0390000008046627045 4.84899997711181641 -0.995000004768371582
0.0345490314066410065 4.77876901626586914 -0.859437048435211182
-0.0230000000447034836 4.79600000381469727 -1.05799996852874756
-0.0289656426757574081 4.80699777603149414 -1.06193923950195312
0.0224424228072166443 4.88656377792358398 -0.848700404167175293
0.0080450400710105896 4.82705116271972656 -0.705170750617980957
0.00669148238375782967 4.81625032424926758 -0.83199232816696167
-0.0399999991059303284 4.84600019454956055 -0.990000009536743164
0.0319124050438404083 4.84963512420654297 -0.909657597541809082
0.0355000011622905731 4.79850006103515625 -0.865000009536743164
0.0271791871637105942 4.79867410659790039 -0.853360414505004883
0.0245585497468709946 4.79175567626953125 -0.854825437068939209
0.0271293576806783676 4.79781436920166016 -0.777175664901733398
-0.015090281143784523 4.84751558303833008 -0.650311470031738281
-0 4.82800006866455078 -0.898999989032745361
-0.0250166170299053192 4.85014820098876953 -0.687174797058105469
-0.0121673541143536568 4.86403989791870117 -0.87919086217880249
-0.0322829112410545349 4.85975074768066406 -0.76100611686706543
-0.00630169827491044998 4.84527587890625 -0.908899128437042236
-0.0127751948311924934 4.74360895156860352 -0.953008472919464111
0.00600000005215406418 4.87400007247924805 -0.936999976634979248
0.000460532319266349077 4.80505990982055664 -1.03936779499053955
-0.0206723921000957489 4.84868001937866211 -1.01491105556488037
0.0197855085134506226 4.82548666000366211 -1.03956186771392822
0.0384124144911766052 4.82545804977416992 -1.00641381740570068
0.0454205609858036041 4.80127525329589844 -1.03061676025390625
-0.0136352060362696648 4.80046558380126953 -1.03264772891998291
-0.0239801034331321716 4.79562854766845703 -1.03630805015563965
-0.0332798920571804047 4.78821277618408203 -1.04671597480773926
-0.0153539516031742096 4.83817005157470703 -0.828734695911407471
0.0227951072156429291 4.83605051040649414 -0.812592744827270508
0.0144845424219965935 4.82272195816040039 -0.765357851982116699
0.0231691747903823853 4.84388399124145508 -0.764294624328613281
-0.0112989451736211777 4.8609471321105957 -0.780613243579864502
-0.0486450754106044769 4.84807109832763672 -0.862863004207611084
0.016628144308924675 4.85671472549438477 -0.827444553375244141
-0.00499999988824129105 4.84399986267089844 -0.800999999046325684
0.0374060198664665222 4.82532501220703125 -0.785296499729156494
0.0366741940379142761 4.78358793258666992 -0.861437022686004639
0.00300000002607703209 4.84399986267089844 -0.80699998140335083
0.000245934468694031239 4.81129217147827148 -0.693641126155853271
0.000985167105682194233 4.82987022399902344 -0.903987348079681396
0.000827911891974508762 4.83850288391113281 -0.883135497570037842
-0.00117188191507011652 4.83649349212646484 -0.680708825588226318
-0.00100000004749745131 4.73999977111816406 -0.908999979496002197
0.0438033118844032288 4.85140752792358398 -0.939824163913726807
-0.0159996133297681808 4.83899593353271484 -0.952012479305267334
-0.0112295951694250107 4.84074783325195312 -0.98369145393371582
-0.0183087736368179321 4.84403371810913086 -0.896137237548828125
0.00162765115965157747 4.77976560592651367 -0.947741985321044922
-0.0425182320177555084 4.75412893295288086 -0.948394477367401123
-0.0383708067238330841 4.73308420181274414 -0.953201472759246826
-0.016589408740401268 4.78576755523681641 -0.955461263656616211
-0.0177165120840072632 4.73254966735839844 -0.936222553253173828
-0.013932226225733757 4.81498336791992188 -0.98026573657989502
-0.0606905035674571991 4.86540317535400391 -0.884226500988006592
-0.0190015845000743866 4.83418083190917969 -0.737851083278656006
-0.0219875294715166092 4.86197566986083984 -0.634216904640197754
0.0269998461008071899 4.86231517791748047 -0.961198151111602783
-0.0141518563032150269 4.86645650863647461 -0.973921895027160645
0.0382980853319168091 4.85858869552612305 -0.926456689834594727
-0.0252309590578079224 4.86378383636474609 -0.986441373825073242
-0.032744482159614563 4.7528533935546875 -0.922369420528411865
-0.0247324854135513306 4.73452425003051758 -0.962150335311889648
-0.0275080576539039612 4.77009057998657227 -0.959143519401550293
-0.0332159176468849182 4.84349250793457031 -0.887406706809997559
0.0374358966946601868 4.79298830032348633 -0.873347580432891846
0.0120670869946479797 4.80562162399291992 -0.849663197994232178
0.0157632734626531601 4.86077213287353516 -0.774902760982513428
0.0320000015199184418 4.80900001525878906 -0.77499997615814209
0.0451158136129379272 4.86164760589599609 -0.651748359203338623
0.014464477077126503 4.81103324890136719 -0.792879641056060791
-0.034000001847743988 4.8619999885559082 -1.00499999523162842
-0.0390000008046627045 4.83699989318847656 -0.973999977111816406
0.0203231852501630783 4.86604976654052734 -0.847231268882751465
-0.0148922521620988846 4.84591245651245117 -0.847323834896087646
-0.00612482614815235138 4.86734676361083984 -0.833014845848083496
-0.00236490834504365921 4.82394027709960938 -0.799317061901092529
0.0296562612056732178 4.83886337280273438 -1.02100896835327148
0.0578519180417060852 4.81336402893066406 -1.01239562034606934
-0.0221980288624763489 4.77807426452636719 -1.0494534969329834
0.0535352751612663269 4.82755088806152344 -1.03384697437286377
-0.0399999991059303284 4.80299997329711914 -1.05799996852874756
-0.0244775842875242233 4.82294654846191406 -0.718962788581848145
-0.00973484665155410767 4.80569076538085938 -0.678505659103393555
-0.00300000002607703209 4.74200010299682617 -0.913999974727630615
0.038998972624540329 4.77891445159912109 -0.869599699974060059
-0.0232193954288959503 4.83881282806396484 -0.760583460330963135
0.0462070219218730927 4.84671115875244141 -0.658120095729827881
-0.00300000002607703209 4.84399986267089844 -0.65700000524520874
0.0348141752183437347 4.83747243881225586 -0.677826583385467529
-0.0379999987781047821 4.85900020599365234 -0.998000025749206543
0.0298765189945697784 4.81461381912231445 -0.789979040622711182
0.03717045858502388 4.86548662185668945 -0.664043009281158447
0.00588849931955337524 4.83312559127807617 -0.767481625080108643
-0.0114147989079356194 4.8152918815612793 -0.869691073894500732
0.01249666977673769 4.8834691047668457 -0.860465109348297119
-0.012211616151034832 4.81662940979003906 -0.821456372737884521
0.013607134111225605 4.81100606918334961 -0.774722278118133545
0.00499999988824129105 4.86499977111816406 -0.800000011920928955
0.0114827277138829231 4.83764219284057617 -0.707521200180053711
0.00359327811747789383 4.8442840576171875 -0.71603548526763916
-0.00956228654831647873 4.82706022262573242 -0.626151323318481445
0.00611330848187208176 4.85480117797851562 -0.696886360645294189
-0.0468866080045700073 4.83269214630126953 -0.815361857414245605
-0.036127917468547821 4.85467863082885742 -1.01711463928222656
0.00815552845597267151 4.85442304611206055 -0.722540140151977539
0.0429848469793796539 4.82409524917602539 -0.646505057811737061
0.0242636781185865402 4.86597061157226562 -0.629451155662536621
-0.00440250011160969734 4.81995201110839844 -0.972487807273864746
0.00595282204449176788 4.87752914428710938 -0.629089891910552979
-0.0232099536806344986 4.83890771865844727 -0.865374505519866943
-0.0244189798831939697 4.85312318801879883 -0.874117076396942139
0.0374598689377307892 4.88076210021972656 -0.950822710990905762
0.0461365766823291779 4.87792587280273438 -0.96073228120803833
0.0426849313080310822 4.80277824401855469 -0.654172658920288086
0.0270193405449390411 4.84671401977539062 -0.627503097057342529
-0.0309999994933605194 4.83500003814697266 -0.871999979019165039
-0.00800000037997961044 4.73600006103515625 -0.912999987602233887
0.00107150094117969275 4.81489801406860352 -1.04819691181182861
-0.00168812379706650972 4.8087162971496582 -1.05387401580810547
0.029148586094379425 4.82555866241455078 -0.776475071907043457
-0.0179999992251396179 4.83900022506713867 -0.927999973297119141
-0.0304112862795591354 4.79375505447387695 -0.940361738204956055
0.00612797029316425323 4.8210139274597168 -0.934852838516235352
-0.0197190772742033005 4.80291032791137695 -0.964221954345703125
0.0250000003725290298 4.7909998893737793 -0.874000012874603271
0.0140000004321336746 4.83349990844726562 -0.88200002908706665
0.00794980116188526154 4.79850959777832031 -0.861015439033508301
-0.0205754172056913376 4.83422279357910156 -0.826788485050201416
0.00999999977648258209 4.82100009918212891 -0.810000002384185791
-0.0189999993890523911 4.85099983215332031 -0.81099998950958252
0.0245901588350534439 4.84218502044677734 -0.78949582576751709
0.0209999997168779373 4.8189997673034668 -1
0.0171643905341625214 4.81186771392822266 -0.6508139967918396
0.0251565761864185333 4.86503124237060547 -0.648692488670349121
0.0350589491426944733 4.87137460708618164 -0.957675337791442871
0.0202412344515323639 4.86223936080932617 -0.752165675163269043
0.00448664836585521698 4.84045648574829102 -0.861891984939575195
-0.0240331925451755524 4.80906057357788086 -0.814025998115539551
0.0141210239380598068 4.84475278854370117 -0.720781207084655762
0.0223206505179405212 4.85272789001464844 -0.735781371593475342
-0.0288584604859352112 4.83314847946166992 -0.708337187767028809
0.0378865227103233337 4.84864473342895508 -0.674081981182098389
-0.00400000018998980522 4.85500001907348633 -0.822000026702880859
-0.00381028605625033379 4.85181093215942383 -0.615447521209716797
-0.00400000018998980522 4.83300018310546875 -0.796999990940093994
-0.0226275268942117691 4.88152551651000977 -0.852696895599365234
-0 4.85699987411499023 -0.788999974727630615
0.0279500484466552734 4.82120132446289062 -0.669134795665740967
0.00204200274311006069 4.76592636108398438 -0.927174746990203857
0.0029070673044770956 4.86573505401611328 -0.926811814308166504
0.0549871213734149933 4.86944770812988281 -0.959088444709777832
0.0342179425060749054 4.85609245300292969 -0.699921309947967529
-0.0253556594252586365 4.83554315567016602 -0.806671023368835449
0.0478585138916969299 4.82256841659545898 -0.657989501953125
0.0127462213858962059 4.81888771057128906 -0.851619064807891846
0.0140695264562964439 4.86122989654541016 -0.857082188129425049
-0.00842606369405984879 4.82452821731567383 -0.712278604507446289
0.003458020044490695 4.86193466186523438 -0.795189738273620605
-0.0124504901468753815 4.83021402359008789 -0.843420445919036865
-0.00676085148006677628 4.83086442947387695 -0.720976531505584717
0.00902118440717458725 4.83072423934936523 -0.662485420703887939
-0.00700000021606683731 4.7220001220703125 -0.940999984741210938
0.00751075055450201035 4.86962604522705078 -0.739643692970275879
-0.0160000007599592209 4.84200000762939453 -0.707000017166137695
-0.000343860825523734093 4.80941295623779297 -0.962294876575469971
-0.00202775909565389156 4.83472108840942383 -0.776996016502380371
1 1 1
-0.000115911920147482306 4.79707622528076172 -0.889861762523651123
0.0494982786476612091 4.83226728439331055 -1.05531346797943115
0.00439697038382291794 4.8671717643737793 -0.861104071140289307
0.000616185367107391357 4.82974672317504883 -0.656024813652038574
0.00590364402160048485 4.85543203353881836 -0.944263100624084473
-0.00225130701437592506 4.85359287261962891 -0.975826799869537354
-0.00569949531927704811 4.87045621871948242 -0.744064569473266602
0.00299187446944415569 4.80569982528686523 -0.999600589275360107
0.0130000002682209015 4.80900001525878906 -0.995000004768371582
0.0157286487519741058 4.84106922149658203 -0.918124914169311523
-0.0369702205061912537 4.83412694931030273 -0.983258306980133057
-0.005465715192258358 4.81629657745361328 -0.913289844989776611
-0.00800000037997961044 4.80299997329711914 -0.902000010013580322
-0.0144988046959042549 4.86172246932983398 -0.994876742362976074
-0.0140096945688128471 4.85156345367431641 -0.923388421535491943
-0.022006843239068985 4.81840658187866211 -0.890118718147277832
-0.00499999988824129105 4.82100009918212891 -0.976000010967254639
-0.0183512866497039795 4.8663477897644043 -0.845732390880584717
-0.0451969802379608154 4.84147834777832031 -0.809335649013519287
-0.00130345229990780354 4.83186197280883789 -0.955387473106384277
-0.0497251451015472412 4.81753969192504883 -0.798403799533843994
-0.0455349497497081757 4.82174587249755859 -0.876114904880523682
0.0272983647882938385 4.84196376800537109 -0.918897509574890137
3 130 174 175 255 255 255
3 130 162 174 255 255 255
3 175 90 130 255 255 255
3 130 164 162 255 255 255
3 90 261 130 255 255 255
3 174 161 175 255 255 255
3 174 162 161 255 255 255
3 130 274 164 255 255 255
3 261 164 130 255 255 255
3 90 108 261 255 255 255
3 160 108 90 255 255 255
3 175 160 90 255 255 255
3 175 163 160 255 255 255
3 175 16 163 255 255 255
3 161 16 175 255 255 255
3 162 164 161 255 255 255
3 261 173 164 255 255 255
3 163 18 160 255 255 255
3 163 277 18 255 255 255
3 161 234 16 255 255 255
3 164 173 161 255 255 255
3 160 18 108 255 255 255
3 18 62 108 255 255 255
3 163 236 277 255 255 255
3 16 236 163 255 255 255
3 16 19 236 255 255 255
3 161 173 234 255 255 255
3 261 9 173 255 255 255
3 18 235 62 255 255 255
3 236 165 277 255 255 255
3 16 234 19 255 255 255
3 9 70 173 255 255 255
3 62 70 108 255 255 255
3 277 235 18 255 255 255
3 220 17 277 255 255 255
3 277 165 220 255 255 255
3 173 70 234 255 255 255
3 9 108 70 255 255 255
3 62 74 291 255 255 255
3 235 74 62 255 255 255
3 235 76 74 255 255 255
3 17 299 277 255 255 255
3 165 287 220 255 255 255
3 19 165 236 255 255 255
3 8 69 19 255 255 255
3 19 234 8 255 255 255
3 234 71 8 255 255 255
3 62 291 70 255 255 255
3 299 235 277 255 255 255
3 287 288 220 255 255 255
3 19 69 165 255 255 255
3 69 290 165 255 255 255
3 70 71 234 255 255 255
3 291 71 70 255 255 255
3 291 292 73 255 255 255
3 235 299 76 255 255 255
3 220 158 17 255 255 255
3 165 101 287 255 255 255
3 69 110 290 255 255 255
3 71 233 8 255 255 255
3 72 233 71 255 255 255
3 71 73 72 255 255 255
3 73 71 291 255 255 255
3 291 74 292 255 255 255
3 74 280 292 255 255 255
3 75 156 76 255 255 255
3 76 299 75 255 255 255
3 17 285 299 255 255 255
3 220 23 158 255 255 255
3 165 100 101 255 255 255
3 8 157 69 255 255 255
3 8 10 157 255 255 255
3 292 295 73 255 255 255
3 302 289 74 255 255 255
3 76 302 74 255 255 255
3 156 302 76 255 255 255
3 284 7 299 255 255 255
3 285 22 299 255 255 255
3 17 158 285 255 255 255
3 158 293 285 255 255 255
3 158 23 104 255 255 255
3 23 97 104 255 255 255
3 287 25 288 255 255 255
3 99 2 287 255 255 255
3 287 101 99 255 255 255
3 100 102 101 255 255 255
3 290 103 165 255 255 255
3 69 110 184 255 255 255
3 157 22 69 255 255 255
3 10 233 157 255 255 255
3 72 294 233 255 255 255
3 73 295 72 255 255 255
3 292 206 295 255 255 255
3 74 20 280 255 255 255
3 156 119 302 255 255 255
3 7 75 299 255 255 255
3 22 157 299 255 255 255
3 285 170 22 255 255 255
3 293 170 285 255 255 255
3 99 96 2 255 255 255
3 101 98 99 255 255 255
3 102 98 101 255 255 255
3 103 100 165 255 255 255
3 72 159 294 255 255 255
3 295 68 72 255 255 255
3 292 280 206 255 255 255
3 20 21 280 255 255 255
3 20 12 21 255 255 255
3 74 152 20 255 255 255
3 289 152 74 255 255 255
3 289 129 152 255 255 255
3 156 171 119 255 255 255
3 75 24 156 255 255 255
3 97 1 104 255 255 255
3 288 244 23 255 255 255
3 25 97 288 255 255 255
3 98 137 99 255 255 255
3 3 290 69 255 255 255
3 294 4 233 255 255 255
3 159 129 294 255 255 255
3 72 176 159 255 255 255
3 68 176 72 255 255 255
3 67 68 295 255 255 255
3 280 239 206 255 255 255
3 302 119 289 255 255 255
3 156 5 171 255 255 255
3 169 24 75 255 255 255
3 293 89 170 255 255 255
3 158 172 293 255 255 255
3 104 1 133 255 255 255
3 97 87 1 255 255 255
3 97 93 87 255 255 255
3 97 244 93 255 255 255
3 244 97 23 255 255 255
3 296 165 220 255 255 255
3 98 138 137 255 255 255
3 98 102 84 255 255 255
3 100 103 102 255 255 255
3 103 94 102 255 255 255
3 170 11 22 255 255 255
3 4 14 233 255 255 255
3 68 34 176 255 255 255
3 6 68 295 255 255 255
3 67 301 68 255 255 255
3 206 6 295 255 255 255
3 21 239 280 255 255 255
3 20 238 12 255 255 255
3 129 153 152 255 255 255
3 171 262 119 255 255 255
3 5 53 171 255 255 255
3 24 5 156 255 255 255
3 169 263 24 255 255 255
3 169 247 263 255 255 255
3 75 7 169 255 255 255
3 7 284 169 255 255 255
3 284 4 131 255 255 255
3 89 172 170 255 255 255
3 92 104 293 255 255 255
3 293 45 89 255 255 255
3 172 92 293 255 255 255
3 158 11 172 255 255 255
3 93 134 87 255 255 255
3 244 135 93 255 255 255
3 25 135 97 255 255 255
3 95 33 96 255 255 255
3 96 132 95 255 255 255
3 99 132 96 255 255 255
3 99 137 132 255 255 255
3 94 84 102 255 255 255
3 103 48 94 255 255 255
3 103 85 48 255 255 255
3 290 85 103 255 255 255
3 290 118 85 255 255 255
3 69 172 3 255 255 255
3 11 69 22 255 255 255
3 4 157 14 255 255 255
3 294 262 4 255 255 255
3 129 262 294 255 255 255
3 129 289 262 255 255 255
3 159 91 129 255 255 255
3 159 127 91 255 255 255
3 21 44 239 255 255 255
3 237 44 21 255 255 255
3 21 177 237 255 255 255
3 12 177 21 255 255 255
3 20 153 238 255 255 255
3 91 153 129 255 255 255
3 262 289 119 255 255 255
3 171 53 262 255 255 255
3 5 36 53 255 255 255
3 263 36 24 255 255 255
3 247 225 263 255 255 255
3 284 247 169 255 255 255
3 131 224 284 255 255 255
3 4 262 131 255 255 255
3 45 172 89 255 255 255
3 293 92 45 255 255 255
3 92 216 45 255 255 255
3 92 158 104 255 255 255
3 92 89 158 255 255 255
3 1 48 133 255 255 255
3 93 189 134 255 255 255
3 25 54 135 255 255 255
3 2 96 25 255 255 255
3 96 54 25 255 255 255
3 132 230 95 255 255 255
3 98 139 138 255 255 255
3 290 3 118 255 255 255
3 3 111 118 255 255 255
3 69 11 172 255 255 255
3 176 34 159 255 255 255
3 68 0 34 255 255 255
3 6 301 68 255 255 255
3 67 228 301 255 255 255
3 237 112 44 255 255 255
3 177 197 237 255 255 255
3 238 249 12 255 255 255
3 224 247 284 255 255 255
3 262 224 131 255 255 255
3 172 11 170 255 255 255
3 45 202 172 255 255 255
3 45 183 202 255 255 255
3 92 133 216 255 255 255
3 172 3 92 255 255 255
3 89 172 158 255 255 255
3 133 48 216 255 255 255
3 1 87 86 255 255 255
3 134 230 87 255 255 255
3 135 189 93 255 255 255
3 96 33 54 255 255 255
3 136 33 95 255 255 255
3 137 88 132 255 255 255
3 138 88 137 255 255 255
3 138 191 88 255 255 255
3 139 88 138 255 255 255
3 84 139 98 255 255 255
3 85 216 48 255 255 255
3 202 111 172 255 255 255
3 159 223 127 255 255 255
3 67 222 228 255 255 255
3 206 271 67 255 255 255
3 239 178 206 255 255 255
3 239 122 178 255 255 255
3 237 197 112 255 255 255
3 197 44 237 255 255 255
3 12 249 267 255 255 255
3 238 153 249 255 255 255
3 20 125 153 255 255 255
3 91 55 153 255 255 255
3 127 282 91 255 255 255
3 53 36 224 255 255 255
3 225 36 263 255 255 255
3 262 53 224 255 255 255
3 92 172 89 255 255 255
3 86 94 1 255 255 255
3 87 61 86 255 255 255
3 230 61 87 255 255 255
3 230 231 61 255 255 255
3 95 93 134 255 255 255
3 54 190 135 255 255 255
3 134 26 95 255 255 255
3 132 231 230 255 255 255
3 88 113 132 255 255 255
3 139 27 88 255 255 255
3 84 27 139 255 255 255
3 94 29 84 255 255 255
3 202 85 111 255 255 255
3 159 34 223 255 255 255
3 301 145 68 255 255 255
3 67 271 222 255 255 255
3 271 186 222 255 255 255
3 206 117 271 255 255 255
3 178 117 206 255 255 255
3 197 149 112 255 255 255
3 12 120 177 255 255 255
3 121 120 12 255 255 255
3 12 178 121 255 255 255
3 267 178 12 255 255 255
3 20 152 125 255 255 255
3 55 249 153 255 255 255
3 55 282 249 255 255 255
3 92 183 172 255 255 255
3 189 35 134 255 255 255
3 54 33 190 255 255 255
3 136 190 33 255 255 255
3 136 95 28 255 255 255
3 26 28 95 255 255 255
3 113 231 132 255 255 255
3 88 27 113 255 255 255
3 27 114 113 255 255 255
3 202 216 85 255 255 255
3 55 258 127 255 255 255
3 127 223 55 255 255 255
3 223 222 55 255 255 255
3 34 166 223 255 255 255
3 145 0 68 255 255 255
3 271 140 186 255 255 255
3 271 240 140 255 255 255
3 122 121 178 255 255 255
3 44 197 112 255 255 255
3 197 177 149 255 255 255
3 177 120 149 255 255 255
3 120 112 149 255 255 255
3 121 122 120 255 255 255
3 282 268 249 255 255 255
3 55 91 282 255 255 255
3 127 77 282 255 255 255
3 36 225 224 255 255 255
3 53 24 36 255 255 255
3 134 35 26 255 255 255
3 135 35 189 255 255 255
3 190 35 135 255 255 255
3 28 192 136 255 255 255
3 26 281 28 255 255 255
3 231 88 61 255 255 255
3 139 27 191 255 255 255
3 191 138 139 255 255 255
3 84 29 27 255 255 255
3 55 297 258 255 255 255
3 222 186 55 255 255 255
3 166 145 223 255 255 255
3 34 0 166 255 255 255
3 145 228 223 255 255 255
3 117 208 271 255 255 255
3 122 112 121 255 255 255
3 239 112 122 255 255 255
3 120 121 112 255 255 255
3 122 149 120 255 255 255
3 249 268 267 255 255 255
3 282 207 268 255 255 255
3 282 77 207 255 255 255
3 127 258 77 255 255 255
3 36 5 263 255 255 255
3 29 94 86 255 255 255
3 190 192 35 255 255 255
3 88 114 61 255 255 255
3 114 86 113 255 255 255
3 27 193 114 255 255 255
3 27 29 193 255 255 255
3 27 113 191 255 255 255
3 55 186 297 255 255 255
3 166 0 145 255 255 255
3 240 186 271 255 255 255
3 271 208 240 255 255 255
3 267 117 178 255 255 255
3 268 185 267 255 255 255
3 207 185 268 255 255 255
3 192 190 136 255 255 255
3 192 28 281 255 255 255
3 114 29 86 255 255 255
3 27 193 113 255 255 255
3 140 187 186 255 255 255
3 208 56 240 255 255 255
3 267 146 117 255 255 255
3 185 146 267 255 255 255
3 193 29 114 255 255 255
3 297 187 258 255 255 255
3 240 242 140 255 255 255
3 208 250 56 255 255 255
3 241 208 117 255 255 255
3 241 188 208 255 255 255
3 146 141 117 255 255 255
3 207 115 185 255 255 255
3 77 115 207 255 255 255
3 26 192 281 255 255 255
3 26 35 192 255 255 255
3 186 187 297 255 255 255
3 242 255 140 255 255 255
3 250 215 56 255 255 255
3 208 188 250 255 255 255
3 117 141 241 255 255 255
3 146 30 141 255 255 255
3 115 50 185 255 255 255
3 115 77 50 255 255 255
3 258 187 77 255 255 255
3 187 50 77 255 255 255
3 241 182 188 255 255 255
3 141 182 241 255 255 255
3 141 203 182 255 255 255
3 30 78 141 255 255 255
3 185 50 146 255 255 255
3 187 146 50 255 255 255
3 255 146 187 255 255 255
3 250 300 215 255 255 255
3 141 243 203 255 255 255
3 243 148 203 255 255 255
3 141 78 243 255 255 255
3 146 210 30 255 255 255
3 182 209 188 255 255 255
3 148 232 203 255 255 255
3 41 78 30 255 255 255
3 209 65 188 255 255 255
3 203 39 182 255 255 255
3 243 232 148 255 255 255
3 78 41 243 255 255 255
3 41 179 243 255 255 255
3 65 13 188 255 255 255
3 209 205 65 255 255 255
3 123 209 182 255 255 255
3 182 39 123 255 255 255
3 243 143 232 255 255 255
3 215 265 298 255 255 255
3 209 142 205 255 255 255
3 232 40 203 255 255 255
3 232 46 40 255 255 255
3 243 179 143 255 255 255
3 41 57 179 255 255 255
3 210 106 41 255 255 255
3 41 270 210 255 255 255
3 39 46 123 255 255 255
3 232 180 46 255 255 255
3 142 180 232 255 255 255
3 142 209 180 255 255 255
3 41 106 270 255 255 255
3 65 278 42 255 255 255
3 205 278 65 255 255 255
3 105 205 142 255 255 255
3 142 143 105 255 255 255
3 46 209 123 255 255 255
3 39 180 40 255 255 255
3 143 248 105 255 255 255
3 106 259 270 255 255 255
3 298 265 56 255 255 255
3 13 42 265 255 255 255
3 105 31 205 255 255 255
3 142 232 143 255 255 255
3 248 252 105 255 255 255
3 143 179 51 255 255 255
3 57 66 179 255 255 255
3 106 66 57 255 255 255
3 56 242 240 255 255 255
3 300 13 265 255 255 255
3 42 56 265 255 255 255
3 13 257 42 255 255 255
3 278 144 42 255 255 255
3 198 144 278 255 255 255
3 205 198 278 255 255 255
3 31 167 205 255 255 255
3 259 42 270 255 255 255
3 300 250 13 255 255 255
3 56 240 265 255 255 255
3 42 242 56 255 255 255
3 13 65 257 255 255 255
3 198 128 144 255 255 255
3 205 167 198 255 255 255
3 252 251 105 255 255 255
3 179 248 51 255 255 255
3 179 286 248 255 255 255
3 66 286 179 255 255 255
3 150 30 270 255 255 255
3 270 257 150 255 255 255
3 265 43 56 255 255 255
3 42 147 242 255 255 255
3 198 32 128 255 255 255
3 105 272 31 255 255 255
3 105 251 272 255 255 255
3 252 217 251 255 255 255
3 248 275 252 255 255 255
3 248 286 275 255 255 255
3 66 270 144 255 255 255
3 43 150 56 255 255 255
3 147 43 242 255 255 255
3 270 259 144 255 255 255
3 128 286 144 255 255 255
3 32 286 128 255 255 255
3 198 167 32 255 255 255
3 31 272 269 255 255 255
3 251 211 272 255 255 255
3 144 286 66 255 255 255
3 43 147 150 255 255 255
3 31 194 167 255 255 255
3 269 194 31 255 255 255
3 272 212 269 255 255 255
3 211 116 272 255 255 255
3 251 79 211 255 255 255
3 252 275 217 255 255 255
3 66 106 270 255 255 255
3 269 82 194 255 255 255
3 116 151 269 255 255 255
3 269 211 116 255 255 255
3 212 211 269 255 255 255
3 116 269 272 255 255 255
3 79 116 211 255 255 255
3 32 275 286 255 255 255
3 167 194 272 255 255 255
3 212 251 211 255 255 255
3 269 81 272 255 255 255
3 79 59 116 255 255 255
3 212 214 217 255 255 255
3 32 167 217 255 255 255
3 167 212 217 255 255 255
3 272 217 212 255 255 255
3 264 79 217 255 255 255
3 194 253 81 255 255 255
3 253 276 81 255 255 255
3 194 82 253 255 255 255
3 151 195 82 255 255 255
3 116 59 151 255 255 255
3 264 60 79 255 255 255
3 212 126 214 255 255 255
3 82 109 253 255 255 255
3 59 49 151 255 255 255
3 79 60 59 255 255 255
3 60 201 59 255 255 255
3 264 254 60 255 255 255
3 264 38 254 255 255 255
3 214 264 217 255 255 255
3 212 276 126 255 255 255
3 109 126 253 255 255 255
3 195 52 82 255 255 255
3 151 49 195 255 255 255
3 59 260 49 255 255 255
3 201 260 59 255 255 255
3 38 204 254 255 255 255
3 214 63 264 255 255 255
3 49 154 195 255 255 255
3 264 63 38 255 255 255
3 63 107 38 255 255 255
3 214 107 63 255 255 255
3 82 52 109 255 255 255
3 49 260 273 255 255 255
3 60 199 201 255 255 255
3 254 199 60 255 255 255
3 204 199 254 255 255 255
3 204 181 199 255 255 255
3 38 107 204 255 255 255
3 109 52 126 255 255 255
3 195 154 52 255 255 255
3 107 246 204 255 255 255
3 126 52 214 255 255 255
3 49 64 154 255 255 255
3 260 245 273 255 255 255
3 226 245 260 255 255 255
3 266 226 260 255 255 255
3 260 201 266 255 255 255
3 201 15 266 255 255 255
3 201 199 15 255 255 255
3 107 47 246 255 255 255
3 107 221 47 255 255 255
3 214 52 154 255 255 255
3 64 200 154 255 255 255
3 199 181 15 255 255 255
3 246 181 204 255 255 255
3 246 219 181 255 255 255
3 283 200 273 255 255 255
3 181 37 15 255 255 255
3 246 47 219 255 255 255
3 107 124 221 255 255 255
3 273 245 283 255 255 255
3 124 168 221 255 255 255
3 64 124 107 255 255 255
3 283 124 200 255 255 255
3 283 83 213 255 255 255
3 245 83 283 255 255 255
3 37 80 15 255 255 255
3 47 221 219 255 255 255
3 283 213 124 255 255 255
3 80 227 15 255 255 255
3 213 168 124 255 255 255
3 227 218 15 255 255 255
3 80 219 227 255 255 255
3 219 256 227 255 255 255
3 226 218 245 255 255 255
3 181 219 80 255 255 255
3 213 256 168 255 255 255
3 245 227 83 255 255 255
3 226 266 218 255 255 255
3 266 15 218 255 255 255
3 227 245 218 255 255 255
3 227 256 58 255 255 255
3 256 221 168 255 255 255
3 227 58 83 255 255 255
3 213 58 256 255 255 255
3 213 83 58 255 255 255
3 196 155 229 255 255 255
3 279 279 279 255 255 255
