ply
format ascii 1.0
element vertex 370
property float x
property float y
property float z
element face 576
property list uchar int vertex_indices
property uchar red
property uchar green
property uchar blue
end_header
-8.28569507598876953 2.11374592781066895 -0.994125843048095703
-8.25901317596435547 2.13901019096374512 -0.881961822509765625
-8.26260662078857422 2.10272526741027832 -0.998369693756103516
-8.24961280822753906 2.06017351150512695 -0.737838029861450195
-8.21601295471191406 2.08594107627868652 -0.779173851013183594
-8.25332450866699219 2.06415581703186035 -0.715729236602783203
-8.25331211090087891 2.14101433753967285 -0.822376728057861328
-8.26498794555664062 2.12253403663635254 -0.895693302154541016
-8.08787822723388672 2.03230619430541992 -0.996640443801879883
-8.20100021362304688 2.10400009155273438 -0.970000028610229492
-8.06446361541748047 2.10915732383728027 -1.00992953777313232
-8.19691085815429688 2.14888095855712891 -1.06592679023742676
-8.2740020751953125 2.14126372337341309 -1.03966820240020752
-8.26635932922363281 2.12473869323730469 -1.05880045890808105
-8.26085376739501953 2.15205907821655273 -1.07341110706329346
-8.24629116058349609 2.10101628303527832 -1.04447317123413086
-8.25078868865966797 2.1665337085723877 -1.0776829719543457
-8.21115875244140625 2.15660691261291504 -1.04810595512390137
-8.25488758087158203 2.12179422378540039 -1.05450892448425293
-8.30921173095703125 2.10279393196105957 -0.790942251682281494
-8.09799957275390625 2.1380000114440918 -0.810000002384185791
-8.06031322479248047 2.08316683769226074 -0.949597716331481934
-8.29800033569335938 2.11500000953674316 -0.795000016689300537
-8.14200019836425781 2.09299993515014648 -0.772000014781951904
-8.24300003051757812 2.10400009155273438 -0.910000026226043701
-8.25090503692626953 2.14329934120178223 -0.745461404323577881
-8.2364501953125 2.09150123596191406 -0.961207568645477295
-8.12100028991699219 2.0840001106262207 -0.962999999523162842
-8.29599952697753906 2.11500000953674316 -0.801999986171722412
-8.26074123382568359 2.08294820785522461 -0.838021934032440186
-8.26321506500244141 2.0644538402557373 -0.728612363338470459
-8.25132656097412109 2.16609382629394531 -0.687746226787567139
-8.22599983215332031 2.13599991798400879 -0.813000023365020752
-8.22605037689208984 2.0985558032989502 -1.09692144393920898
-8.07600021362304688 2.08699989318847656 -1.07500004768371582
-8.28469371795654297 2.03891706466674805 -0.68589550256729126
-8.20567131042480469 2.11618566513061523 -0.765526175498962402
-8.22732353210449219 2.11511778831481934 -0.875533699989318848
-8.28170967102050781 2.07947921752929688 -0.827995181083679199
-8.27738094329833984 2.10974025726318359 -0.701898455619812012
-8.25886821746826172 2.08477187156677246 -0.925053238868713379
-8.25852108001708984 2.13305115699768066 -0.714614033699035645
-8.20600032806396484 2.09299993515014648 -0.952000021934509277
-8.28377819061279297 2.18596267700195312 -0.675333857536315918
-8.25498485565185547 2.08692169189453125 -0.866137385368347168
-8.28299999237060547 2.11999988555908203 -0.820999979972839355
-8.2377777099609375 2.12254762649536133 -1.00978982448577881
-8.20961856842041016 2.13037657737731934 -1.07812416553497314
-8.18880462646484375 2.11390948295593262 -1.06741857528686523
-8.05150794982910156 2.07243967056274414 -1.05562674999237061
-8.10668659210205078 2.06597495079040527 -1.07652890682220459
-8.22954654693603516 2.10270285606384277 -1.03923797607421875
-8.22825336456298828 2.15592336654663086 -1.08109879493713379
-8.21599960327148438 2.14800000190734863 -1.08599996566772461
-8.20969295501708984 2.09512782096862793 -1.08255541324615479
-8.25130844116210938 2.13772916793823242 -0.687419593334197998
-8.05756950378417969 2.06221795082092285 -1.0090022087097168
-8.21750164031982422 2.12704920768737793 -0.954111635684967041
-8.13615989685058594 2.08056330680847168 -0.718599379062652588
-8.28391838073730469 2.10911297798156738 -0.906165659427642822
-8.09578990936279297 2.12065386772155762 -0.717389166355133057
-8.06505870819091797 2.08303332328796387 -0.874753057956695557
-8.15894412994384766 2.07753777503967285 -0.769836962223052979
-8.28407573699951172 2.13726139068603516 -0.656872093677520752
-8.17431259155273438 2.10430455207824707 -0.718321382999420166
-8.15786457061767578 2.11093354225158691 -0.755508005619049072
-8.28461551666259766 2.08579230308532715 -0.899574339389801025
-8.10315036773681641 2.05128169059753418 -0.879576742649078369
-8.21919727325439453 2.15417289733886719 -0.997704744338989258
-8.25024986267089844 2.18430185317993164 -0.660743892192840576
-8.05734634399414062 2.06019139289855957 -0.967642903327941895
-8.05558586120605469 2.08159208297729492 -1.00708520412445068
-8.06748199462890625 2.08622455596923828 -0.82597649097442627
-8.25555801391601562 2.14456582069396973 -0.770699799060821533
-8.22970676422119141 2.11840701103210449 -0.920361101627349854
-8.12829875946044922 2.05434846878051758 -0.855644702911376953
-8.21516799926757812 2.10708427429199219 -0.849009513854980469
-8.11200046539306641 2.07500004768371582 -0.799000024795532227
-8.10482406616210938 2.07733392715454102 -0.994626522064208984
-8.21500015258789062 2.10700011253356934 -0.819000005722045898
-8.28400039672851562 2.08800005912780762 -0.851999998092651367
-8.09217262268066406 2.05024266242980957 -0.939053773880004883
-8.08205986022949219 2.10403251647949219 -0.991826057434082031
-8.08495140075683594 2.05064105987548828 -0.914484977722167969
-8.08728599548339844 2.04444575309753418 -0.859281480312347412
-8.26405811309814453 2.1427457332611084 -0.797519862651824951
-8.13660526275634766 2.045623779296875 -0.809947431087493896
-8.14968109130859375 2.06644964218139648 -0.836174905300140381
-8.04199981689453125 2.07399988174438477 -0.920000016689300537
-8.28339099884033203 2.13088631629943848 -0.979975402355194092
-8.27701950073242188 2.12678050994873047 -0.796108663082122803
-8.19942092895507812 2.12887263298034668 -0.80930250883102417
-8.19699954986572266 2.08299994468688965 -0.765999972820281982
-8.30479240417480469 2.10310840606689453 -0.812596738338470459
-8.26946067810058594 2.16041994094848633 -0.661348283290863037
-8.22426700592041016 2.12877511978149414 -0.794388949871063232
-8.07665729522705078 2.04343342781066895 -1.01364445686340332
-8.11100006103515625 2.07200002670288086 -1.03999996185302734
-8.27389621734619141 2.10558080673217773 -0.978445231914520264
-8.26038742065429688 2.08917927742004395 -0.681211531162261963
-8.28060722351074219 2.1358482837677002 -0.838187932968139648
-8.24400043487548828 2.12599992752075195 -0.755999982357025146
-8.16793727874755859 2.11454105377197266 -0.83867257833480835
-8.2159423828125 2.08664560317993164 -0.757086098194122314
-8.26002216339111328 2.06589221954345703 -0.751411557197570801
-8.25570583343505859 2.07618832588195801 -0.782983243465423584
-8.24049663543701172 2.0924994945526123 -0.794082760810852051
-8.26648521423339844 2.1058351993560791 -0.787082970142364502
-8.09989833831787109 2.09906363487243652 -0.98651731014251709
-8.10085201263427734 2.03282499313354492 -0.766822457313537598
-8.24487209320068359 2.0871427059173584 -0.835390448570251465
-8.23508739471435547 2.13379096984863281 -0.836907505989074707
-8.27379608154296875 2.17224764823913574 -0.715876936912536621
-8.15798473358154297 2.05892086029052734 -0.763671994209289551
-8.22676372528076172 2.13438510894775391 -0.830354809761047363
-8.1256103515625 2.05029773712158203 -0.754002690315246582
-8.2779998779296875 2.11400008201599121 -0.845000028610229492
-8.26416587829589844 2.16366076469421387 -0.756765127182006836
-8.26752376556396484 2.0917212963104248 -0.881287336349487305
-8.26805782318115234 2.05894660949707031 -0.706940174102783203
-8.23779201507568359 2.1190791130065918 -0.722463607788085938
-8.12792301177978516 2.05953168869018555 -0.707477807998657227
-8.22799968719482422 2.13100004196166992 -0.865000009536743164
-8.29199981689453125 2.15799999237060547 -0.684000015258789062
-8.27000045776367188 2.14100003242492676 -0.861000001430511475
-8.25907993316650391 2.1935124397277832 -0.673022627830505371
-8.15999984741210938 2.09200000762939453 -0.712000012397766113
-8.21862125396728516 2.13856315612792969 -0.978530168533325195
-8.18082618713378906 2.10637021064758301 -0.832897186279296875
-8.17547035217285156 2.0466759204864502 -0.988427519798278809
-8.055999755859375 2.05900001525878906 -0.890999972820281982
-8.11299991607666016 2.05399990081787109 -0.999000012874603271
-8.22903537750244141 2.13981246948242188 -0.926712632179260254
-8.11734390258789062 2.10499739646911621 -0.80241858959197998
-8.29090404510498047 2.18226790428161621 -0.690114796161651611
-8.26500034332275391 2.12199997901916504 -0.852999985218048096
-8.26853370666503906 2.05252408981323242 -0.669756948947906494
-8.25605964660644531 2.14353156089782715 -0.787386715412139893
-8.28329372406005859 2.15853786468505859 -0.733017504215240479
-8.12150859832763672 2.0755770206451416 -0.730553925037384033
-8.23296070098876953 2.07957005500793457 -0.980209648609161377
-8.19964599609375 2.08661866188049316 -0.730210602283477783
-8.17354488372802734 2.11794900894165039 -0.729705870151519775
-8.05620956420898438 2.08001279830932617 -0.898081839084625244
-8.09105014801025391 2.11040687561035156 -0.885401904582977295
-8.15714359283447266 2.07139253616333008 -0.998826384544372559
-8.14597606658935547 2.05333352088928223 -0.971744716167449951
-8.21500015258789062 2.14800000190734863 -1.09099996089935303
-8.28904056549072266 2.1049954891204834 -0.84172523021697998
-8.24762630462646484 2.15147948265075684 -1.09930503368377686
-8.24062919616699219 2.08320879936218262 -1.08340060710906982
-8.21439838409423828 2.07330727577209473 -1.07406747341156006
-8.22999954223632812 2.07999992370605469 -1.09300005435943604
-8.09099960327148438 2.09999990463256836 -0.930000007152557373
-8.22299957275390625 2.1380000114440918 -0.745999991893768311
-8.24699974060058594 2.1400001049041748 -0.874000012874603271
-8.10200023651123047 2.11299991607666016 -0.81800001859664917
-8.11999988555908203 2.10100007057189941 -0.897000014781951904
-8.12557888031005859 2.06906914710998535 -0.905691027641296387
-8.26900005340576172 2.13400006294250488 -0.852999985218048096
-8.04280471801757812 2.08021092414855957 -0.960121214389801025
-8.26816749572753906 2.09579801559448242 -0.959027588367462158
-8.25281906127929688 2.15559840202331543 -0.985991001129150391
-8.05860328674316406 2.10656023025512695 -0.94130396842956543
-8.17244625091552734 2.07502841949462891 -0.969113588333129883
-8.1229095458984375 2.10607028007507324 -0.697807788848876953
-8.29928874969482422 2.0945594310760498 -0.800374507904052734
-8.26000785827636719 2.12298727035522461 -0.721017599105834961
-8.23062229156494141 2.11651778221130371 -0.726285457611083984
-8.28716659545898438 2.06657910346984863 -0.861516952514648438
-8.24191570281982422 2.10370540618896484 -0.735933542251586914
-8.04627323150634766 2.07807779312133789 -0.830758810043334961
-8.27511787414550781 2.10518932342529297 -0.859069406986236572
-8.18257904052734375 2.07053208351135254 -0.990822434425354004
-8.19028377532958984 2.1144707202911377 -0.854088246822357178
-8.29766273498535156 2.07295608520507812 -0.801502883434295654
-8.25741481781005859 2.16251039505004883 -0.741578280925750732
-8.10419178009033203 2.13041949272155762 -0.847525537014007568
-8.24532985687255859 2.09813356399536133 -0.810182750225067139
-8.20314598083496094 2.09443283081054688 -0.838516891002655029
-8.12541294097900391 2.1254737377166748 -0.870531022548675537
-8.11101245880126953 2.13989734649658203 -0.743950545787811279
-8.1026763916015625 2.0548408031463623 -0.754987657070159912
-8.21805191040039062 2.13272786140441895 -0.89906543493270874
-8.06015968322753906 2.06532645225524902 -1.07259225845336914
-8.16785144805908203 2.10194945335388184 -0.773039758205413818
-8.14385128021240234 2.07066702842712402 -0.968135416507720947
-8.16947078704833984 2.08346176147460938 -0.75479966402053833
-8.27518939971923828 2.07356786727905273 -0.844248116016387939
-8.23523521423339844 2.16442322731018066 -0.967325806617736816
-8.11506938934326172 2.15012001991271973 -0.83497774600982666
-8.12244224548339844 2.07875156402587891 -0.985546469688415527
-8.22000026702880859 2.09999990463256836 -0.728999972343444824
-8.06730747222900391 2.11826229095458984 -0.993028998374938965
-8.24269676208496094 2.14659643173217773 -0.948625445365905762
-8.14599990844726562 2.08800005912780762 -0.771000027656555176
-8.10197639465332031 2.09785056114196777 -0.69459068775177002
-8.08286476135253906 2.10774946212768555 -0.83653724193572998
-8.13144588470458984 2.06758713722229004 -0.892417550086975098
-8.09078884124755859 2.10460662841796875 -0.950218319892883301
-8.05261039733886719 2.04973721504211426 -1.05496656894683838
-8.16815185546875 2.05370998382568359 -1.00214624404907227
-8.08137130737304688 2.04780769348144531 -1.08788573741912842
-8.06633567810058594 2.05549359321594238 -1.06785881519317627
-8.21300029754638672 2.13899993896484375 -1.09399998188018799
-8.21845340728759766 2.13000941276550293 -1.07994973659515381
-8.10111045837402344 2.09647417068481445 -1.01458418369293213
-8.28299999237060547 2.14400005340576172 -1.02600002288818359
-8.07004737854003906 2.07993960380554199 -1.05144155025482178
-8.11621570587158203 2.0404057502746582 -1.03713095188140869
-8.15198612213134766 2.0716855525970459 -0.804075777530670166
-8.05774497985839844 2.05936026573181152 -0.918656885623931885
-8.07518577575683594 2.08807063102722168 -0.973899543285369873
-8.19542598724365234 2.09926247596740723 -0.806746840476989746
-8.07400035858154297 2.05500006675720215 -0.880999982357025146
-8.09075164794921875 2.08152294158935547 -1.07928740978240967
-8.10917854309082031 2.09013843536376953 -0.76983940601348877
-8.085540771484375 2.13197946548461914 -1.00693309307098389
-8.06677722930908203 2.09054040908813477 -1.02867007255554199
-8.05609035491943359 2.0791630744934082 -1.03192615509033203
-8.23299980163574219 2.0820000171661377 -1.08599996566772461
-8.09435176849365234 2.0530855655670166 -1.0552365779876709
-8.10231590270996094 2.07918810844421387 -1.04782533645629883
-8.08775997161865234 2.09967350959777832 -1.04316926002502441
-8.11564922332763672 2.04952144622802734 -1.01102828979492188
-8.25165367126464844 2.14545392990112305 -1.01773619651794434
-8.23046588897705078 2.15744447708129883 -1.01698887348175049
-8.10108470916748047 2.05989480018615723 -0.781252264976501465
-8.26928043365478516 2.10124301910400391 -0.93626481294631958
-8.28299999237060547 2.12700009346008301 -0.796999990940093994
-8.19583702087402344 2.11112022399902344 -0.931047260761260986
-8.22099971771240234 2.08299994468688965 -0.96799999475479126
-8.10343742370605469 2.06204509735107422 -0.683288395404815674
-8.12920856475830078 2.08628678321838379 -0.834065496921539307
-8.09300041198730469 2.11599993705749512 -0.816999971866607666
-8.06260490417480469 2.05361151695251465 -0.951030313968658447
-8.10999965667724609 2.06100010871887207 -0.948000013828277588
-8.24991130828857422 2.08482050895690918 -0.894283831119537354
-8.20536708831787109 2.10868453979492188 -0.931441843509674072
-8.0410003662109375 2.07299995422363281 -0.924000024795532227
-8.20768165588378906 2.13152456283569336 -0.866720914840698242
-8.13257694244384766 2.0734703540802002 -0.681888043880462646
-8.26775264739990234 2.13232660293579102 -0.674266040325164795
-8.26446056365966797 2.15254354476928711 -0.902745544910430908
-8.12867927551269531 2.03877043724060059 -0.827516794204711914
-8.07900047302246094 2.10299992561340332 -0.91100001335144043
-8.08600044250488281 2.13000011444091797 -0.861999988555908203
-8.15627574920654297 2.13519120216369629 -0.829732120037078857
-8.25737476348876953 2.15662384033203125 -0.71725088357925415
-8.180999755859375 2.08100008964538574 -0.971000015735626221
-8.08936119079589844 2.1296837329864502 -0.99177628755569458
-8.23999977111816406 2.14100003242492676 -0.859000027179718018
-8.23718452453613281 2.03377604484558105 -0.680170059204101562
-8.29414081573486328 2.09866666793823242 -0.829063177108764648
-8.12899971008300781 2.05800008773803711 -0.968999981880187988
-8.11900043487548828 2.0690000057220459 -0.955999970436096191
-8.25836086273193359 2.14910721778869629 -0.858093559741973877
-8.06839179992675781 2.08120226860046387 -0.927645623683929443
-8.11925315856933594 2.12764382362365723 -0.738187551498413086
-8.21199989318847656 2.12599992752075195 -0.842000007629394531
-8.10905838012695312 2.10674667358398438 -0.908502101898193359
-8.21100044250488281 2.0969998836517334 -0.96399998664855957
-8.28369712829589844 2.12426567077636719 -0.742262363433837891
-8.12551307678222656 2.1025998592376709 -0.766049623489379883
-8.08699989318847656 2.0969998836517334 -0.954999983310699463
-8.28438091278076172 2.14379048347473145 -0.761918067932128906
-8.26545429229736328 2.08076977729797363 -0.742702603340148926
-8.25053977966308594 2.15231132507324219 -0.692014575004577637
-8.12399959564208984 2.05500006675720215 -0.996999979019165039
-8.11436939239501953 2.15349054336547852 -0.816804349422454834
-8.12080192565917969 2.07447981834411621 -0.866598784923553467
-8.26000022888183594 2.11599993705749512 -0.746999979019165039
-8.12649726867675781 2.04298210144042969 -0.774647355079650879
-8.09872150421142578 2.0498509407043457 -0.895277142524719238
-8.09575462341308594 2.14652228355407715 -0.821000933647155762
-8.05944347381591797 2.09006738662719727 -0.857084393501281738
-8.09018230438232422 2.05854582786560059 -0.828825533390045166
-8.27789306640625 2.09779024124145508 -0.800632059574127197
-8.23681259155273438 2.10089850425720215 -0.827405631542205811
-8.21700000762939453 2.11599993705749512 -0.745999991893768311
-8.10500621795654297 2.05902504920959473 -0.793572604656219482
-8.16847705841064453 2.08542418479919434 -0.728666961193084717
-8.14299964904785156 2.11500000953674316 -0.857999980449676514
-8.31294536590576172 2.10637378692626953 -0.793631494045257568
-8.26761627197265625 2.10480427742004395 -0.739108264446258545
-8.14158535003662109 2.11115860939025879 -0.733017146587371826
-8.23200035095214844 2.11299991607666016 -0.893999993801116943
-8.23783683776855469 2.05284619331359863 -0.698359668254852295
-8.09244918823242188 2.04440069198608398 -0.845373570919036865
-8.11600017547607422 2.16000008583068848 -0.81800001859664917
-8.11499977111816406 2.06299996376037598 -1.01699995994567871
-8.12005996704101562 2.14175963401794434 -0.802199661731719971
-8.24813652038574219 2.16311812400817871 -0.955384552478790283
-8.10662174224853516 2.07835268974304199 -0.729865074157714844
-8.28134059906005859 2.16640067100524902 -0.708654403686523438
-8.20740985870361328 2.12630701065063477 -0.990426301956176758
-8.25199985504150391 2.14299988746643066 -0.86799997091293335
-8.06847953796386719 2.02946615219116211 -0.989162147045135498
-8.18950748443603516 2.13220524787902832 -0.846805691719055176
-8.11517524719238281 2.08094263076782227 -0.776904463768005371
-8.22792148590087891 2.08819890022277832 -0.946601569652557373
-8.23125362396240234 2.08948636054992676 -0.869183897972106934
-8.12317657470703125 2.12131094932556152 -0.814150691032409668
-8.09692287445068359 2.05419278144836426 -0.700957655906677246
-8.25652599334716797 2.15001988410949707 -0.934193968772888184
-8.27435111999511719 2.12214064598083496 -0.697816729545593262
-8.19860076904296875 2.12848663330078125 -0.729712128639221191
-8.14968109130859375 2.12194323539733887 -0.842332720756530762
-8.13899993896484375 2.07999992370605469 -0.794499993324279785
-8.25742816925048828 2.08337783813476562 -0.855837464332580566
-8.25143814086914062 2.07573723793029785 -0.701859831809997559
-8.07055473327636719 2.09604454040527344 -0.928532242774963379
-8.28586769104003906 2.11679983139038086 -0.832801461219787598
-8.17300033569335938 2.07899999618530273 -0.97500002384185791
-8.19840621948242188 2.1162722110748291 -0.779222786426544189
-8.24469852447509766 2.15937328338623047 -0.665369808673858643
-8.10200023651123047 2.11400008201599121 -0.811999976634979248
-8.25730800628662109 2.14010834693908691 -0.843747496604919434
-8.11100006103515625 2.05100011825561523 -0.994000017642974854
-8.13318538665771484 2.12005949020385742 -0.88095545768737793
-8.12899971008300781 2.14899992942810059 -0.824000000953674316
-8.28899955749511719 2.11400008201599121 -0.824000000953674316
-8.3109588623046875 2.10842585563659668 -0.788283109664916992
-8.13213920593261719 2.07724165916442871 -0.960665881633758545
-8.06841850280761719 2.0789787769317627 -0.996691584587097168
-8.09770011901855469 2.05030679702758789 -0.959303915500640869
-8.24600028991699219 2.07100009918212891 -0.84299999475479126
-8.10785293579101562 2.08641934394836426 -0.748834609985351562
-8.15108299255371094 2.07814335823059082 -0.695776402950286865
-8.23049354553222656 2.14600467681884766 -0.893040359020233154
-8.2032470703125 2.09243369102478027 -1.00008094310760498
-8.19187450408935547 2.1012885570526123 -1.0156252384185791
-8.24831295013427734 2.1646888256072998 -1.03450548648834229
-8.19976425170898438 2.14111733436584473 -1.01819729804992676
-8.29284954071044922 2.14052653312683105 -0.720656275749206543
-8.05000019073486328 2.07100009918212891 -0.915000021457672119
-8.29851722717285156 2.17664122581481934 -0.673682510852813721
-8.20615673065185547 2.09014296531677246 -0.976835548877716064
-8.05760860443115234 2.14745211601257324 -0.986802399158477783
-8.26554393768310547 2.11690950393676758 -0.87269359827041626
-8.12953567504882812 2.10342144966125488 -0.854228794574737549
-8.08489227294921875 2.12532472610473633 -0.865310251712799072
-8.11803436279296875 2.13397336006164551 -0.802706539630889893
-8.08785152435302734 2.11742901802062988 -0.834363758563995361
-8.15279579162597656 2.07671117782592773 -0.74551159143447876
-8.09272956848144531 2.13309121131896973 -0.825972497463226318
-8.11905288696289062 2.09439420700073242 -0.901852309703826904
-8.10403156280517578 2.08669495582580566 -0.924886405467987061
-8.10750007629394531 2.04900002479553223 -0.978999972343444824
-8.22424030303955078 2.0593562126159668 -0.674078583717346191
-8.11794757843017578 2.08684682846069336 -0.893740952014923096
-8.23600006103515625 2.11400008201599121 -1.07700002193450928
-8.07809925079345703 2.06197142601013184 -0.989842832088470459
1 1 1
-8.26778411865234375 2.13089776039123535 -0.968046724796295166
-8.05092239379882812 2.06441903114318848 -1.04426491260528564
-8.27390861511230469 2.14278960227966309 -1.00174832344055176
-8.19728279113769531 2.13253116607666016 -1.03145694732666016
-8.26642704010009766 2.10820269584655762 -1.02209973335266113
-8.25182628631591797 2.15142297744750977 -1.05431807041168213
-8.23099994659423828 2.09400010108947754 -1.07899999618530273
-8.2220001220703125 2.14100003242492676 -1.09599995613098145
-8.22036933898925781 2.08367514610290527 -1.06387603282928467
-8.07827663421630859 2.05450701713562012 -1.03512370586395264
-8.22999954223632812 2.07999992370605469 -1.08099997043609619
-8.25045394897460938 2.09728384017944336 -1.06193602085113525
-8.27128887176513672 2.07294940948486328 -0.806885957717895508
-8.08800029754638672 2.12700009346008301 -0.847999989986419678
-8.13926887512207031 2.09259700775146484 -0.968156218528747559
-8.27413177490234375 2.13714098930358887 -0.77540355920791626
3 103 104 105 255 255 255
3 105 106 103 255 255 255
3 105 178 106 255 255 255
3 105 104 266 255 255 255
3 106 4 103 255 255 255
3 105 366 178 255 255 255
3 104 30 266 255 255 255
3 104 266 3 255 255 255
3 107 277 105 255 255 255
3 105 284 107 255 255 255
3 266 284 105 255 255 255
3 106 213 4 255 255 255
3 106 79 213 255 255 255
3 178 278 106 255 255 255
3 3 30 104 255 255 255
3 266 170 3 255 255 255
3 4 92 103 255 255 255
3 107 90 277 255 255 255
3 266 170 284 255 255 255
3 5 3 30 255 255 255
3 3 119 30 255 255 255
3 92 187 103 255 255 255
3 79 91 213 255 255 255
3 178 110 278 255 255 255
3 90 166 277 255 255 255
3 30 119 5 255 255 255
3 3 5 119 255 255 255
3 103 187 141 255 255 255
3 91 314 213 255 255 255
3 179 79 278 255 255 255
3 278 110 179 255 255 255
3 366 175 38 255 255 255
3 90 22 166 255 255 255
3 262 271 284 255 255 255
3 284 167 262 255 255 255
3 170 192 120 255 255 255
3 119 310 5 255 255 255
3 5 287 119 255 255 255
3 187 281 141 255 255 255
3 110 76 179 255 255 255
3 277 166 175 255 255 255
3 22 19 166 255 255 255
3 170 271 284 255 255 255
3 120 168 170 255 255 255
3 310 287 5 255 255 255
3 110 29 326 255 255 255
3 188 29 38 255 255 255
3 175 366 277 255 255 255
3 166 283 175 255 255 255
3 167 334 262 255 255 255
3 170 101 271 255 255 255
3 168 167 170 255 255 255
3 192 168 120 255 255 255
3 119 99 310 255 255 255
3 287 252 119 255 255 255
3 91 95 314 255 255 255
3 110 301 76 255 255 255
3 29 188 326 255 255 255
3 110 309 29 255 255 255
3 38 169 188 255 255 255
3 90 137 369 255 255 255
3 6 85 90 255 255 255
3 39 334 167 255 255 255
3 192 64 168 255 255 255
3 99 349 310 255 255 255
3 119 35 99 255 255 255
3 252 35 119 255 255 255
3 344 281 187 255 255 255
3 110 44 301 255 255 255
3 309 188 29 255 255 255
3 309 326 188 255 255 255
3 309 110 326 255 255 255
3 38 253 169 255 255 255
3 85 137 90 255 255 255
3 90 45 6 255 255 255
3 192 141 64 255 255 255
3 310 349 287 255 255 255
3 35 136 99 255 255 255
3 64 141 281 255 255 255
3 314 92 213 255 255 255
3 32 95 91 255 255 255
3 278 76 110 255 255 255
3 253 148 169 255 255 255
3 38 93 253 255 255 255
3 38 175 93 255 255 255
3 283 93 175 255 255 255
3 166 19 283 255 255 255
3 45 312 6 255 255 255
3 262 334 138 255 255 255
3 168 64 306 255 255 255
3 64 142 306 255 255 255
3 349 252 287 255 255 255
3 99 136 349 255 255 255
3 314 36 185 255 255 255
3 95 36 314 255 255 255
3 76 174 179 255 255 255
3 76 44 110 255 255 255
3 169 148 80 255 255 255
3 283 28 93 255 255 255
3 283 322 28 255 255 255
3 137 73 369 255 255 255
3 312 100 6 255 255 255
3 45 321 312 255 255 255
3 138 265 262 255 255 255
3 306 279 168 255 255 255
3 349 136 252 255 255 255
3 252 136 35 255 255 255
3 187 113 344 255 255 255
3 36 65 185 255 255 255
3 174 128 179 255 255 255
3 76 240 174 255 255 255
3 76 37 240 255 255 255
3 253 312 148 255 255 255
3 93 321 253 255 255 255
3 28 45 93 255 255 255
3 100 317 6 255 255 255
3 312 116 100 255 255 255
3 265 117 369 255 255 255
3 279 192 168 255 255 255
3 64 285 142 255 255 255
3 344 126 281 255 255 255
3 344 115 139 255 255 255
3 62 113 187 255 255 255
3 95 279 36 255 255 255
3 37 122 240 255 255 255
3 44 118 301 255 255 255
3 80 44 188 255 255 255
3 148 44 80 255 255 255
3 148 172 44 255 255 255
3 283 22 322 255 255 255
3 101 25 73 255 255 255
3 116 135 100 255 255 255
3 117 73 369 255 255 255
3 39 305 334 255 255 255
3 142 285 65 255 255 255
3 64 126 285 255 255 255
3 344 328 126 255 255 255
3 344 139 58 255 255 255
3 95 154 279 255 255 255
3 102 298 128 255 255 255
3 174 102 128 255 255 255
3 118 237 301 255 255 255
3 44 172 118 255 255 255
3 317 111 6 255 255 255
3 100 135 317 255 255 255
3 73 85 369 255 255 255
3 117 25 73 255 255 255
3 265 138 117 255 255 255
3 334 123 294 255 255 255
3 142 36 306 255 255 255
3 65 36 142 255 255 255
3 165 258 285 255 255 255
3 58 328 344 255 255 255
3 58 121 328 255 255 255
3 58 139 121 255 255 255
3 62 210 113 255 255 255
3 174 307 102 255 255 255
3 301 286 37 255 255 255
3 237 286 301 255 255 255
3 172 339 118 255 255 255
3 172 148 116 255 255 255
3 111 114 6 255 255 255
3 317 251 111 255 255 255
3 256 251 317 255 255 255
3 73 137 85 255 255 255
3 117 176 25 255 255 255
3 112 176 138 255 255 255
3 334 112 138 255 255 255
3 285 263 65 255 255 255
3 121 241 328 255 255 255
3 139 327 293 255 255 255
3 86 272 113 255 255 255
3 113 210 86 255 255 255
3 65 62 185 255 255 255
3 102 247 298 255 255 255
3 174 298 307 255 255 255
3 122 251 240 255 255 255
3 37 329 122 255 255 255
3 286 183 37 255 255 255
3 118 66 237 255 255 255
3 172 135 339 255 255 255
3 114 32 6 255 255 255
3 256 296 251 255 255 255
3 317 159 256 255 255 255
3 85 229 369 255 255 255
3 176 248 25 255 255 255
3 334 294 112 255 255 255
3 123 134 294 255 255 255
3 285 258 263 255 255 255
3 285 328 165 255 255 255
3 139 303 121 255 255 255
3 139 293 303 255 255 255
3 139 182 327 255 255 255
3 115 182 139 255 255 255
3 62 187 185 255 255 255
3 65 195 62 255 255 255
3 298 247 307 255 255 255
3 122 155 251 255 255 255
3 37 183 329 255 255 255
3 40 24 237 255 255 255
3 237 66 40 255 255 255
3 118 59 66 255 255 255
3 111 259 114 255 255 255
3 256 339 296 255 255 255
3 229 90 369 255 255 255
3 229 28 90 255 255 255
3 85 90 229 255 255 255
3 176 112 248 255 255 255
3 121 232 241 255 255 255
3 115 109 182 255 255 255
3 272 115 113 255 255 255
3 195 344 62 255 255 255
3 65 23 195 255 255 255
3 135 159 339 255 255 255
3 256 124 339 255 255 255
3 165 196 60 255 255 255
3 328 241 165 255 255 255
3 121 303 232 255 255 255
3 293 196 303 255 255 255
3 327 181 293 255 255 255
3 182 216 327 255 255 255
3 272 109 115 255 255 255
3 23 308 195 255 255 255
3 183 132 329 255 255 255
3 159 124 339 255 255 255
3 339 155 296 255 255 255
3 124 1 339 255 255 255
3 248 41 25 255 255 255
3 294 134 112 255 255 255
3 258 327 263 255 255 255
3 241 196 165 255 255 255
3 232 196 241 255 255 255
3 293 60 196 255 255 255
3 210 87 86 255 255 255
3 247 269 307 255 255 255
3 339 7 59 255 255 255
3 339 1 7 255 255 255
3 25 41 168 255 255 255
3 43 31 112 255 255 255
3 112 134 43 255 255 255
3 216 299 263 255 255 255
3 327 216 263 255 255 255
3 258 181 327 255 255 255
3 258 60 181 255 255 255
3 196 232 303 255 255 255
3 293 181 60 255 255 255
3 227 216 182 255 255 255
3 87 244 86 255 255 255
3 233 340 307 255 255 255
3 307 302 233 255 255 255
3 269 291 307 255 255 255
3 66 228 40 255 255 255
3 59 228 66 255 255 255
3 7 1 243 255 255 255
3 299 23 263 255 255 255
3 182 109 227 255 255 255
3 280 109 272 255 255 255
3 280 227 109 255 255 255
3 308 233 210 255 255 255
3 308 299 233 255 255 255
3 307 291 302 255 255 255
3 329 243 1 255 255 255
3 248 267 41 255 255 255
3 134 336 43 255 255 255
3 272 86 280 255 255 255
3 86 244 280 255 255 255
3 87 75 244 255 255 255
3 210 233 87 255 255 255
3 340 282 307 255 255 255
3 329 304 243 255 255 255
3 194 304 329 255 255 255
3 132 194 329 255 255 255
3 59 354 228 255 255 255
3 41 267 55 255 255 255
3 216 77 299 255 255 255
3 244 276 280 255 255 255
3 233 270 87 255 255 255
3 299 77 233 255 255 255
3 233 270 340 255 255 255
3 177 190 269 255 255 255
3 74 238 132 255 255 255
3 59 7 354 255 255 255
3 7 304 354 255 255 255
3 267 112 31 255 255 255
3 244 288 276 255 255 255
3 75 288 244 255 255 255
3 87 270 75 255 255 255
3 302 316 133 255 255 255
3 194 292 304 255 255 255
3 238 57 132 255 255 255
3 77 227 280 255 255 255
3 302 156 316 255 255 255
3 132 57 194 255 255 255
3 238 230 57 255 255 255
3 132 286 74 255 255 255
3 31 315 267 255 255 255
3 43 69 125 255 255 255
3 336 94 43 255 255 255
3 75 270 288 255 255 255
3 270 67 288 255 255 255
3 269 274 291 255 255 255
3 57 127 194 255 255 255
3 74 300 238 255 255 255
3 286 24 74 255 255 255
3 125 69 31 255 255 255
3 43 94 69 255 255 255
3 288 67 84 255 255 255
3 67 273 84 255 255 255
3 270 198 67 255 255 255
3 269 190 274 255 255 255
3 291 289 269 255 255 255
3 177 246 367 255 255 255
3 292 162 304 255 255 255
3 189 292 194 255 255 255
3 300 42 238 255 255 255
3 267 315 55 255 255 255
3 31 69 315 255 255 255
3 336 63 94 255 255 255
3 270 350 198 255 255 255
3 291 320 289 255 255 255
3 177 345 190 255 255 255
3 367 197 177 255 255 255
3 177 341 246 255 255 255
3 315 242 55 255 255 255
3 315 94 242 255 255 255
3 94 315 69 255 255 255
3 123 242 63 255 255 255
3 63 336 123 255 255 255
3 273 214 84 255 255 255
3 273 83 214 255 255 255
3 274 345 20 255 255 255
3 320 190 289 255 255 255
3 291 269 320 255 255 255
3 345 274 190 255 255 255
3 177 197 343 255 255 255
3 367 341 197 255 255 255
3 177 180 341 255 255 255
3 162 354 304 255 255 255
3 189 162 292 255 255 255
3 57 295 127 255 255 255
3 300 261 42 255 255 255
3 55 305 41 255 255 255
3 94 63 242 255 255 255
3 350 158 198 255 255 255
3 345 234 20 255 255 255
3 342 302 291 255 255 255
3 177 343 345 255 255 255
3 343 156 345 255 255 255
3 341 275 197 255 255 255
3 180 144 341 255 255 255
3 162 356 354 255 255 255
3 127 68 189 255 255 255
3 57 9 295 255 255 255
3 300 231 261 255 255 255
3 300 26 231 255 255 255
3 305 39 41 255 255 255
3 273 81 83 255 255 255
3 158 81 273 255 255 255
3 350 346 158 255 255 255
3 234 316 20 255 255 255
3 197 234 343 255 255 255
3 180 319 144 255 255 255
3 354 356 89 255 255 255
3 295 68 127 255 255 255
3 9 337 295 255 255 255
3 57 261 9 255 255 255
3 26 140 231 255 255 255
3 273 198 158 255 255 255
3 341 144 275 255 255 255
3 89 98 354 255 255 255
3 189 225 162 255 255 255
3 68 226 189 255 255 255
3 337 330 295 255 255 255
3 9 42 337 255 255 255
3 158 236 81 255 255 255
3 346 157 260 255 255 255
3 144 61 275 255 255 255
3 354 98 161 255 255 255
3 225 356 162 255 255 255
3 189 226 225 255 255 255
3 226 332 225 255 255 255
3 295 331 333 255 255 255
3 330 331 295 255 255 255
3 300 161 26 255 255 255
3 211 130 83 255 255 255
3 83 81 211 255 255 255
3 260 347 346 255 255 255
3 346 350 157 255 255 255
3 350 270 157 255 255 255
3 270 346 157 255 255 255
3 197 275 72 255 255 255
3 319 260 144 255 255 255
3 89 356 0 255 255 255
3 68 333 226 255 255 255
3 331 357 333 255 255 255
3 337 231 330 255 255 255
3 81 235 211 255 255 255
3 260 153 347 255 255 255
3 157 144 260 255 255 255
3 98 2 161 255 255 255
3 0 2 98 255 255 255
3 211 214 130 255 255 255
3 335 143 211 255 255 255
3 211 239 335 255 255 255
3 81 325 235 255 255 255
3 153 199 347 255 255 255
3 260 245 153 255 255 255
3 275 171 72 255 255 255
3 144 143 61 255 255 255
3 257 143 144 255 255 255
3 245 257 144 255 255 255
3 245 311 257 255 255 255
3 180 282 319 255 255 255
3 225 207 356 255 255 255
3 225 12 207 255 255 255
3 225 359 12 255 255 255
3 332 359 225 255 255 255
3 226 333 17 255 255 255
3 333 357 17 255 255 255
3 161 2 26 255 255 255
3 239 88 335 255 255 255
3 0 358 2 255 255 255
3 356 358 0 255 255 255
3 330 51 331 255 255 255
3 235 297 70 255 255 255
3 325 8 235 255 255 255
3 257 211 143 255 255 255
3 357 11 17 255 255 255
3 357 48 11 255 255 255
3 70 160 235 255 255 255
3 297 352 70 255 255 255
3 8 297 235 255 255 255
3 199 323 347 255 255 255
3 153 311 199 255 255 255
3 358 46 2 255 255 255
3 332 14 359 255 255 255
3 11 52 17 255 255 255
3 70 324 160 255 255 255
3 352 324 70 255 255 255
3 297 96 352 255 255 255
3 325 348 8 255 255 255
3 358 15 46 255 255 255
3 12 358 207 255 255 255
3 13 358 12 255 255 255
3 13 359 18 255 255 255
3 14 18 359 255 255 255
3 348 318 8 255 255 255
3 325 254 348 255 255 255
3 199 108 323 255 255 255
3 199 311 163 255 255 255
3 311 257 163 255 255 255
3 15 51 46 255 255 255
3 13 18 358 255 255 255
3 332 16 14 255 255 255
3 16 332 17 255 255 255
3 17 52 16 255 255 255
3 11 48 47 255 255 255
3 352 56 324 255 255 255
3 325 255 254 255 255 255
3 323 191 27 255 255 255
3 108 191 323 255 255 255
3 358 18 15 255 255 255
3 18 365 15 255 255 255
3 11 147 52 255 255 255
3 47 53 11 255 255 255
3 48 54 47 255 255 255
3 51 330 46 255 255 255
3 160 212 21 255 255 255
3 352 96 56 255 255 255
3 236 255 325 255 255 255
3 108 78 191 255 255 255
3 163 264 199 255 255 255
3 52 149 16 255 255 255
3 53 147 11 255 255 255
3 54 351 47 255 255 255
3 212 163 21 255 255 255
3 160 324 212 255 255 255
3 324 82 212 255 255 255
3 56 71 324 255 255 255
3 56 219 71 255 255 255
3 96 363 56 255 255 255
3 297 8 96 255 255 255
3 27 368 323 255 255 255
3 351 365 18 255 255 255
3 351 360 365 255 255 255
3 14 16 149 255 255 255
3 53 361 52 255 255 255
3 204 147 47 255 255 255
3 205 204 47 255 255 255
3 205 361 204 255 255 255
3 351 205 47 255 255 255
3 54 33 351 255 255 255
3 48 362 54 255 255 255
3 56 363 355 255 255 255
3 368 186 323 255 255 255
3 108 206 78 255 255 255
3 360 150 365 255 255 255
3 361 149 52 255 255 255
3 54 360 33 255 255 255
3 362 151 54 255 255 255
3 51 15 362 255 255 255
3 82 108 212 255 255 255
3 56 355 219 255 255 255
3 363 200 355 255 255 255
3 96 8 363 255 255 255
3 108 82 206 255 255 255
3 108 264 212 255 255 255
3 360 364 33 255 255 255
3 8 221 363 255 255 255
3 186 191 323 255 255 255
3 78 145 191 255 255 255
3 82 217 206 255 255 255
3 163 257 21 255 255 255
3 364 220 33 255 255 255
3 362 364 151 255 255 255
3 365 150 362 255 255 255
3 362 15 365 255 255 255
3 218 71 219 255 255 255
3 219 49 218 255 255 255
3 200 49 355 255 255 255
3 8 209 221 255 255 255
3 191 368 323 255 255 255
3 368 146 186 255 255 255
3 78 268 145 255 255 255
3 206 290 78 255 255 255
3 217 223 206 255 255 255
3 82 250 217 255 255 255
3 193 250 82 255 255 255
3 257 211 21 255 255 255
3 220 152 33 255 255 255
3 364 152 151 255 255 255
3 362 150 364 255 255 255
3 49 208 218 255 255 255
3 200 184 49 255 255 255
3 221 202 363 255 255 255
3 191 145 368 255 255 255
3 368 164 146 255 255 255
3 368 313 164 255 255 255
3 268 201 145 255 255 255
3 78 131 268 255 255 255
3 222 97 206 255 255 255
3 223 10 218 255 255 255
3 208 223 218 255 255 255
3 202 203 363 255 255 255
3 8 224 209 255 255 255
3 164 313 249 255 255 255
3 313 173 249 255 255 255
3 206 223 222 255 255 255
3 49 34 208 255 255 255
3 203 184 200 255 255 255
3 203 202 184 255 255 255
3 221 50 202 255 255 255
3 146 254 186 255 255 255
3 249 173 164 255 255 255
3 313 164 173 255 255 255
3 338 250 193 255 255 255
3 223 217 10 255 255 255
3 49 184 34 255 255 255
3 221 222 50 255 255 255
3 222 223 50 255 255 255
3 250 338 217 255 255 255
3 146 164 129 255 255 255
3 201 146 129 255 255 255
3 201 268 146 255 255 255
3 223 215 50 255 255 255
3 217 193 10 255 255 255
3 217 338 193 255 255 255
3 82 71 10 255 255 255
3 223 34 215 255 255 255
3 224 290 209 255 255 255
3 10 193 82 255 255 255
3 50 215 202 255 255 255
3 209 97 221 255 255 255
3 224 268 290 255 255 255
3 224 318 268 255 255 255
3 353 353 353 255 255 255
