ply
format ascii 1.0
element vertex 322
property float x
property float y
property float z
element face 576
property list uchar int vertex_indices
property uchar red
property uchar green
property uchar blue
end_header
-15.5847549438476562 5.91826057434082031 -1.03102076053619385
-15.5719995498657227 5.85200023651123047 -1.03400003910064697
-15.5912055969238281 5.85798168182373047 -1.02412664890289307
-15.5600004196166992 5.92500019073486328 -0.93199998140335083
-15.6149997711181641 5.86950016021728516 -1.01649999618530273
-15.6154994964599609 5.86100006103515625 -0.978000044822692871
-15.5670003890991211 5.88600015640258789 -0.989000022411346436
-15.5880002975463867 5.91200017929077148 -0.962999999523162842
-15.5539999008178711 5.85699987411499023 -1.05099999904632568
-15.5989999771118164 5.86700010299682617 -1.05799996852874756
-15.564000129699707 5.90899991989135742 -1.02199995517730713
-15.555999755859375 5.89599990844726562 -1.02600002288818359
-15.5520000457763672 5.88299989700317383 -1.02499997615814209
-15.564000129699707 5.88299989700317383 -1.00399994850158691
-15.5769996643066406 5.88500022888183594 -1.00600004196166992
-15.5777397155761719 5.88602781295776367 -1.00271511077880859
-15.5399999618530273 5.92100000381469727 -1.01600003242492676
-15.5439996719360352 5.92100000381469727 -1.01699995994567871
-15.5480003356933594 5.92799997329711914 -0.953000009059906006
-15.564000129699707 5.9159998893737793 -1.02100002765655518
-15.5369997024536133 5.86299991607666016 -1.04400002956390381
-15.5310001373291016 5.8619999885559082 -1.0429999828338623
-15.5539999008178711 5.92600011825561523 -0.921000003814697266
-15.5799999237060547 5.92399978637695312 -1.03499996662139893
-15.5760002136230469 5.92199993133544922 -0.875
-15.5620002746582031 5.90500020980834961 -1.03400003910064697
-15.5469999313354492 5.92299985885620117 -0.958000004291534424
-15.5959997177124023 5.90899991989135742 -0.964999973773956299
-15.5909996032714844 5.86999988555908203 -1.07299995422363281
-15.619999885559082 5.8619999885559082 -0.984000027179718018
-15.5649995803833008 5.85500001907348633 -1.03799998760223389
-15.5900001525878906 5.875 -1.06299996376037598
-15.5710000991821289 5.92500019073486328 -0.957000017166137695
-15.5530004501342773 5.92500019073486328 -1
-15.5790004730224609 5.90399980545043945 -1
-15.5550003051757812 5.9029998779296875 -1
-15.560999870300293 5.92399978637695312 -0.935000002384185791
-15.564000129699707 5.92500019073486328 -0.96799999475479126
-15.5950002670288086 5.92000007629394531 -0.994000017642974854
-15.5600004196166992 5.92100000381469727 -0.981999993324279785
-15.5769996643066406 5.93300008773803711 -0.985000014305114746
-15.5810003280639648 5.91699981689453125 -1.03699994087219238
-15.580042839050293 5.91681385040283203 -0.945637643337249756
-15.5570001602172852 5.92799997329711914 -0.933000028133392334
-15.5860004425048828 5.88100004196166992 -1.07299995422363281
-15.560999870300293 5.85099983215332031 -1.05299997329711914
-15.5790004730224609 5.90700006484985352 -0.998000025749206543
-15.5930004119873047 5.90399980545043945 -0.945999979972839355
-15.5719995498657227 5.89200019836425781 -0.976000010967254639
-15.5489997863769531 5.90100002288818359 -0.977999985218048096
-15.5390729904174805 5.87203264236450195 -0.973223507404327393
-15.5459995269775391 5.8899998664855957 -0.977999985218048096
-15.5459995269775391 5.92299985885620117 -0.874000012874603271
-15.5600004196166992 5.9310002326965332 -0.865999996662139893
-15.560999870300293 5.92500019073486328 -0.884000003337860107
-15.574000358581543 5.91699981689453125 -0.869000017642974854
-15.5530004501342773 5.92999982833862305 -0.865999996662139893
-15.5410003662109375 5.92199993133544922 -0.884000003337860107
-15.5620002746582031 5.93499994277954102 -0.862999975681304932
-15.5570001602172852 5.92700004577636719 -0.987999975681304932
-15.5790004730224609 5.90899991989135742 -1.04200005531311035
-15.5699996948242188 5.89900016784667969 -1.06200003623962402
-15.5710000991821289 5.88199996948242188 -1.0429999828338623
-15.569000244140625 5.89900016784667969 -1.07599997520446777
-15.5699996948242188 5.90600013732910156 -1.0559999942779541
-15.555999755859375 5.8880000114440918 -1.05200004577636719
-15.5340003967285156 5.8600001335144043 -1.04900002479553223
-15.574000358581543 5.8880000114440918 -1.01600003242492676
-15.5710000991821289 5.91099977493286133 -1.02300000190734863
-15.5769996643066406 5.91499996185302734 -1.05999994277954102
-15.5620002746582031 5.90199995040893555 -1.07299995422363281
-15.5520000457763672 5.86999988555908203 -1.04999995231628418
-15.550999641418457 5.85099983215332031 -1.0559999942779541
-15.5659999847412109 5.89599990844726562 -1.01600003242492676
-15.5659999847412109 5.90500020980834961 -1.01999998092651367
-15.5930004119873047 5.84899997711181641 -1.01900005340576172
-15.5719995498657227 5.88199996948242188 -0.978999972343444824
-15.5979995727539062 5.85699987411499023 -1.03100001811981201
-15.574000358581543 5.86800003051757812 -0.950999975204467773
-15.5550003051757812 5.90399980545043945 -0.990000009536743164
-15.5769996643066406 5.90899991989135742 -0.941999971866607666
-15.5539999008178711 5.91800022125244141 -0.921999990940093994
-15.541111946105957 5.90824556350708008 -0.944908320903778076
-15.5399999618530273 5.86800003051757812 -0.96799999475479126
-15.5459995269775391 5.88000011444091797 -0.998000025749206543
-15.5590000152587891 5.86899995803833008 -0.959999978542327881
-15.5459995269775391 5.91099977493286133 -0.953000009059906006
-15.5550003051757812 5.93200016021728516 -0.873000025749206543
-15.5889997482299805 5.91800022125244141 -0.996999979019165039
-15.5480003356933594 5.91699981689453125 -0.875
-15.5600004196166992 5.91900014877319336 -0.861999988555908203
-15.5520000457763672 5.91800022125244141 -0.861999988555908203
-15.560999870300293 5.91300010681152344 -0.884999990463256836
-15.555999755859375 5.90999984741210938 -0.865000009536743164
-15.5670003890991211 5.89599990844726562 -0.96399998664855957
-15.5530004501342773 5.86899995803833008 -0.990000009536743164
-15.5620002746582031 5.86800003051757812 -0.986999988555908203
-15.564000129699707 5.91800022125244141 -0.921000003814697266
-15.5629997253417969 5.93499994277954102 -0.944000005722045898
-15.5769996643066406 5.91400003433227539 -1.0429999828338623
-15.5659999847412109 5.88500022888183594 -1.0549999475479126
-15.6160001754760742 5.86999988555908203 -1.02499997615814209
-15.5520000457763672 5.93400001525878906 -0.925000011920928955
-15.5375003814697266 5.93249988555908203 -1.02699995040893555
-15.5810003280639648 5.91699981689453125 -0.952000021934509277
-15.4952497482299805 5.91825008392333984 -1.00725007057189941
-15.574000358581543 5.89200019836425781 -1.06400001049041748
-15.5880203247070312 5.91012477874755859 -0.938476324081420898
-15.5799789428710938 5.87903690338134766 -1.07996797561645508
-15.5629997253417969 5.9310002326965332 -0.995000004768371582
-15.5920000076293945 5.86999988555908203 -1.06099998950958252
-15.564000129699707 5.9029998779296875 -1.0820000171661377
-15.564000129699707 5.87699985504150391 -0.966000020503997803
-15.5453577041625977 5.92960786819458008 -0.947242259979248047
-15.5699996948242188 5.93699979782104492 -0.947000026702880859
-15.5628223419189453 5.86934566497802734 -0.9601593017578125
-15.5780000686645508 5.89300012588500977 -1.07899999618530273
-15.5649995803833008 5.92299985885620117 -0.925999999046325684
-15.5729999542236328 5.91499996185302734 -0.930000007152557373
-15.569000244140625 5.94000005722045898 -0.949999988079071045
-15.6070003509521484 5.86499977111816406 -1.01800000667572021
-15.5987653732299805 5.87242937088012695 -1.05851542949676514
-15.5850000381469727 5.91499996185302734 -0.957000017166137695
-15.599273681640625 5.85315322875976562 -1.03121495246887207
-15.5699996948242188 5.86899995803833008 -1.02799999713897705
-15.5629997253417969 5.90000009536743164 -1.08700001239776611
-15.5749998092651367 5.89599990844726562 -0.986999988555908203
-15.6099996566772461 5.86499977111816406 -1.02499997615814209
-15.6000003814697266 5.90999984741210938 -0.953999996185302734
-15.5679998397827148 5.88600015640258789 -1.00899994373321533
-15.5526247024536133 5.89448451995849609 -0.999152958393096924
-15.5769996643066406 5.92899990081787109 -0.990999996662139893
-15.5590000152587891 5.84999990463256836 -1.05999994277954102
-15.569000244140625 5.90399980545043945 -1.04499995708465576
-15.5676689147949219 5.86583995819091797 -1.04887950420379639
-15.5550003051757812 5.93400001525878906 -0.950999975204467773
-15.6135005950927734 5.85649967193603516 -0.981999993324279785
-15.5480003356933594 5.92000007629394531 -0.999000012874603271
-15.5810003280639648 5.92199993133544922 -0.933000028133392334
-15.5699996948242188 5.88700008392333984 -1.08700001239776611
-15.5904998779296875 5.90799999237060547 -0.96950000524520874
-15.5749998092651367 5.92600011825561523 -0.953999996185302734
-15.5450000762939453 5.92899990081787109 -1.02799999713897705
-15.6230001449584961 5.91200017929077148 -0.947000026702880859
-15.5955562591552734 5.90239620208740234 -0.969603836536407471
-15.5580005645751953 5.84899997711181641 -1.04349994659423828
-15.5590000152587891 5.94099998474121094 -0.93900001049041748
-15.5570001602172852 5.93499994277954102 -0.870000004768371582
-15.5469999313354492 5.92500019073486328 -0.884000003337860107
-15.5469999313354492 5.92299985885620117 -0.888999998569488525
-15.5270004272460938 5.87799978256225586 -0.944999992847442627
-15.5500001907348633 5.87450027465820312 -0.940500020980834961
-15.555999755859375 5.875 -0.930000007152557373
-15.5600004196166992 5.90000009536743164 -0.941999971866607666
-15.5530004501342773 5.89400005340576172 -0.966000020503997803
-15.5339221954345703 5.88093471527099609 -0.958952128887176514
-15.5329999923706055 5.87300014495849609 -0.954999983310699463
-15.5620002746582031 5.875 -0.996999979019165039
-15.5520000457763672 5.86600017547607422 -0.971000015735626221
-15.5399999618530273 5.91800022125244141 -0.977999985218048096
-15.5710000991821289 5.89900016784667969 -0.971000015735626221
-15.5389995574951172 5.86999988555908203 -0.977999985218048096
-15.5649995803833008 5.91099977493286133 -0.869000017642974854
-15.5577764511108398 5.92824697494506836 -0.878139317035675049
-15.5260000228881836 5.87699985504150391 -0.958000004291534424
-15.5579996109008789 5.91400003433227539 -0.93199998140335083
-15.5670003890991211 5.88899993896484375 -0.971000015735626221
-15.5470342636108398 5.93139934539794922 -0.926861822605133057
-15.5659999847412109 5.90600013732910156 -0.930999994277954102
-15.5659999847412109 5.93599987030029297 -0.953999996185302734
-15.5489997863769531 5.85699987411499023 -1.02499997615814209
-15.5620002746582031 5.89400005340576172 -1.08099997043609619
-15.5520000457763672 5.92199993133544922 -0.865000009536743164
-15.5629997253417969 5.88399982452392578 -1.02199995517730713
-15.6079998016357422 5.90799999237060547 -0.958000004291534424
-15.5830001831054688 5.87599992752075195 -1.07299995422363281
-15.5947952270507812 5.87767219543457031 -1.05705142021179199
-15.5520000457763672 5.89599990844726562 -1.04499995708465576
-15.5480003356933594 5.8880000114440918 -1.03299999237060547
-15.5679998397827148 5.92500019073486328 -0.917999982833862305
-15.5500001907348633 5.87400007247924805 -1.03900003433227539
-15.5679998397827148 5.88100004196166992 -1.01900005340576172
-15.5789947509765625 5.88599348068237305 -1.01800930500030518
-15.5629997253417969 5.92000007629394531 -1.01100003719329834
-15.5629997253417969 5.9029998779296875 -1.04799997806549072
-15.5419998168945312 5.89200019836425781 -1.05200004577636719
-15.5459995269775391 5.87599992752075195 -1.04900002479553223
-15.5590000152587891 5.93599987030029297 -0.955999970436096191
-15.5670003890991211 5.85300016403198242 -1.04100000858306885
-15.560999870300293 5.94500017166137695 -0.941999971866607666
-15.555999755859375 5.92399978637695312 -0.967000007629394531
-15.491999626159668 5.92299985885620117 -1.0130000114440918
-15.5799999237060547 5.85799980163574219 -1.03299999237060547
-15.5874996185302734 5.90450000762939453 -0.949499964714050293
-15.5030002593994141 5.9159998893737793 -1.01199996471405029
-15.5439996719360352 5.88600015640258789 -1.00699996948242188
-15.5459995269775391 5.89300012588500977 -1.00999999046325684
-15.5530004501342773 5.88700008392333984 -1.00999999046325684
-15.5500001907348633 5.89300012588500977 -1.02400004863739014
-15.5550003051757812 5.90799999237060547 -1.01100003719329834
-15.5570001602172852 5.90000009536743164 -1.02100002765655518
-15.5520000457763672 5.8899998664855957 -1.01999998092651367
-15.564000129699707 5.88299989700317383 -1.01800000667572021
-15.560999870300293 5.88600015640258789 -1.00999999046325684
-15.5459995269775391 5.86399984359741211 -1.02600002288818359
-15.574000358581543 5.87799978256225586 -1.02699995040893555
-15.5780000686645508 5.88500022888183594 -1.02999997138977051
-15.5739898681640625 5.91811609268188477 -1.02712976932525635
-15.5699996948242188 5.91099977493286133 -1.04600000381469727
-15.5439996719360352 5.89900016784667969 -1.05700004100799561
-15.5459995269775391 5.89200019836425781 -1.05700004100799561
-15.5450000762939453 5.87200021743774414 -1.05200004577636719
-15.5670003890991211 5.92600011825561523 -0.966000020503997803
-15.5729999542236328 5.88899993896484375 -1.03100001811981201
-15.5869998931884766 5.86899995803833008 -1.03999996185302734
-15.5749998092651367 5.90000009536743164 -1.00499999523162842
-15.560999870300293 5.89300012588500977 -1.06799995899200439
-15.5529928207397461 5.90001296997070312 -1.07699739933013916
-15.5749998092651367 5.88500022888183594 -1.0820000171661377
-15.6120758056640625 5.872467041015625 -1.02765524387359619
-15.6219997406005859 5.91200017929077148 -0.938000023365020752
-15.6040000915527344 5.86100006103515625 -1.0130000114440918
-15.574000358581543 5.92199993133544922 -0.884000003337860107
-15.5765190124511719 5.89136171340942383 -1.0912402868270874
-15.5550003051757812 5.93200016021728516 -0.990000009536743164
-15.555999755859375 5.90500020980834961 -0.871999979019165039
-15.5699996948242188 5.91300010681152344 -1.00499999523162842
-15.5679998397827148 5.9159998893737793 -1.00899994373321533
-15.5369997024536133 5.9310002326965332 -1.01800000667572021
-15.5659999847412109 5.91300010681152344 -1.02499997615814209
-15.5860004425048828 5.90600013732910156 -0.940999984741210938
-15.5600004196166992 5.90000009536743164 -1.06400001049041748
-15.569000244140625 5.89900016784667969 -1.02799999713897705
-15.5819997787475586 5.8600001335144043 -1.02499997615814209
-15.574000358581543 5.8899998664855957 -1.02499997615814209
-15.5699996948242188 5.90799999237060547 -1.03199994564056396
-15.5839996337890625 5.91699981689453125 -1.06099998950958252
-15.5699996948242188 5.89699983596801758 -1.0549999475479126
-15.5719995498657227 5.92399978637695312 -0.972000002861022949
-15.581242561340332 5.90091085433959961 -0.9901314377784729
-15.5679998397827148 5.9159998893737793 -0.873000025749206543
-15.5699996948242188 5.91699981689453125 -0.883000016212463379
-15.5539999008178711 5.92999982833862305 -0.876999974250793457
-15.5550003051757812 5.92600011825561523 -0.889999985694885254
-15.5550003051757812 5.91499996185302734 -0.889999985694885254
-15.5550003051757812 5.90899991989135742 -0.870000004768371582
-15.566899299621582 5.92299699783325195 -0.89000093936920166
-15.5439996719360352 5.92399978637695312 -0.93900001049041748
-15.5489997863769531 5.90799999237060547 -0.985000014305114746
-15.5760002136230469 5.92100000381469727 -0.955999970436096191
-15.5959997177124023 5.91499996185302734 -0.952000021934509277
-15.5909996032714844 5.87699985504150391 -1.07400000095367432
-15.5679998397827148 5.90600013732910156 -1.03999996185302734
-15.560999870300293 5.8619999885559082 -1.03299999237060547
-15.5860004425048828 5.88100004196166992 -1.08500003814697266
-15.5780000686645508 5.89099979400634766 -0.991999983787536621
-15.5749998092651367 5.90799999237060547 -1.03100001811981201
-15.5459995269775391 5.91499996185302734 -0.948000013828277588
-15.560999870300293 5.87200021743774414 -1.03699994087219238
-15.5850000381469727 5.85599994659423828 -1.02900004386901855
-15.5819997787475586 5.92399978637695312 -0.999000012874603271
-15.5860004425048828 5.87799978256225586 -1.0549999475479126
-15.5590000152587891 5.84999990463256836 -1.0549999475479126
-15.6090002059936523 5.90999984741210938 -0.940999984741210938
-15.569000244140625 5.88600015640258789 -0.950999975204467773
-15.5780000686645508 5.92199993133544922 -0.949999988079071045
-15.5699996948242188 5.8880000114440918 -0.954999983310699463
-15.5500001907348633 5.88700008392333984 -0.968999981880187988
-15.5679998397827148 5.89499998092651367 -0.949000000953674316
-15.5699996948242188 5.87599992752075195 -0.949000000953674316
-15.5410003662109375 5.90899991989135742 -0.97500002384185791
-15.5550003051757812 5.90600013732910156 -0.953000009059906006
-15.5600004196166992 5.86700010299682617 -0.94300001859664917
-15.5729999542236328 5.92000007629394531 -0.936999976634979248
-15.5539999008178711 5.90999984741210938 -0.995999991893768311
-15.5790004730224609 5.88399982452392578 -1.07299995422363281
-15.5600004196166992 5.88399982452392578 -1.07700002193450928
-15.5699996948242188 5.88700008392333984 -1.04200005531311035
-15.5880002975463867 5.88100004196166992 -1.0559999942779541
-15.5889997482299805 5.91900014877319336 -1.0010000467300415
-15.5920000076293945 5.86499977111816406 -1.04100000858306885
-15.6105003356933594 5.90999984741210938 -0.950500011444091797
-15.5480003356933594 5.92199993133544922 -1.03900003433227539
-15.5850000381469727 5.9029998779296875 -0.959999978542327881
-15.5450000762939453 5.88299989700317383 -0.973999977111816406
-15.5459995269775391 5.9159998893737793 -0.934000015258789062
-15.5480003356933594 5.90700006484985352 -0.938000023365020752
-15.5439996719360352 5.91300010681152344 -0.958000004291534424
-15.5469999313354492 5.88399982452392578 -0.991999983787536621
-15.5450000762939453 5.87200021743774414 -0.958999991416931152
-15.560999870300293 5.90700006484985352 -0.936999976634979248
-15.5590000152587891 5.86800003051757812 -0.976000010967254639
-15.5729999542236328 5.87699985504150391 -0.949999988079071045
-15.5460653305053711 5.92098522186279297 -0.994097888469696045
-15.6189994812011719 5.85300016403198242 -0.980499982833862305
-15.5469999313354492 5.85799980163574219 -1.02300000190734863
-15.5500001907348633 5.8470001220703125 -1.0559999942779541
-15.6079998016357422 5.86700010299682617 -1.00699996948242188
-15.5500001907348633 5.8600001335144043 -1.03699994087219238
-15.555999755859375 5.85300016403198242 -1.04200005531311035
-15.5649995803833008 5.92399978637695312 -0.922999978065490723
-15.5769996643066406 5.90999984741210938 -0.981000006198883057
-15.5810003280639648 5.88500022888183594 -1.0820000171661377
-15.5550003051757812 5.86800003051757812 -0.939999997615814209
-15.5869998931884766 5.86899995803833008 -1.04799997806549072
-15.5670003890991211 5.93699979782104492 -0.990999996662139893
-15.5600004196166992 5.92100000381469727 -0.865000009536743164
-15.550999641418457 5.88700008392333984 -0.939999997615814209
-15.5399999618530273 5.88100004196166992 -0.944999992847442627
-15.5500001907348633 5.87900018692016602 -0.93599998950958252
-15.5465002059936523 5.88199996948242188 -0.958500027656555176
-15.5410003662109375 5.86899995803833008 -0.944999992847442627
-15.5579996109008789 5.88000011444091797 -0.93199998140335083
-15.555999755859375 5.88600015640258789 -0.953999996185302734
-15.5480003356933594 5.87300014495849609 -0.945999979972839355
-15.5439386367797852 5.87055063247680664 -0.988132834434509277
-15.5579996109008789 5.94000005722045898 -0.949999988079071045
-15.5629997253417969 5.91200017929077148 -0.878000020980834961
-15.5659999847412109 5.92700004577636719 -0.994000017642974854
-15.5369997024536133 5.88100004196166992 -0.986000001430511475
-15.6069850921630859 5.85599088668823242 -1.02298521995544434
-15.5710000991821289 5.88700008392333984 -0.995000004768371582
3 148 147 56 255 255 255
3 56 57 148 255 255 255
3 147 58 56 255 255 255
3 148 163 147 255 255 255
3 57 149 148 255 255 255
3 56 89 57 255 255 255
3 58 90 56 255 255 255
3 148 243 163 255 255 255
3 149 243 148 255 255 255
3 149 244 243 255 255 255
3 57 244 149 255 255 255
3 57 89 244 255 255 255
3 89 245 244 255 255 255
3 56 172 89 255 255 255
3 90 91 56 255 255 255
3 58 55 90 255 255 255
3 163 53 147 255 255 255
3 243 54 163 255 255 255
3 244 246 243 255 255 255
3 245 92 244 255 255 255
3 89 91 245 255 255 255
3 91 172 56 255 255 255
3 91 52 172 255 255 255
3 90 93 91 255 255 255
3 55 162 90 255 255 255
3 58 24 55 255 255 255
3 53 58 147 255 255 255
3 53 306 58 255 255 255
3 163 240 53 255 255 255
3 54 241 163 255 255 255
3 243 246 54 255 255 255
3 246 222 54 255 255 255
3 92 246 244 255 255 255
3 92 241 246 255 255 255
3 245 317 92 255 255 255
3 91 93 245 255 255 255
3 93 225 245 255 255 255
3 89 52 91 255 255 255
3 89 242 52 255 255 255
3 52 87 172 255 255 255
3 90 162 93 255 255 255
3 162 225 93 255 255 255
3 162 317 225 255 255 255
3 55 240 162 255 255 255
3 240 306 53 255 255 255
3 241 222 246 255 255 255
3 241 24 222 255 255 255
3 242 87 52 255 255 255
3 242 163 87 255 255 255
3 87 58 172 255 255 255
3 241 55 24 255 255 255
3 58 306 172 255 255 255
3 306 245 172 255 255 255
3 306 162 245 255 255 255
3 194 191 105 255 255 255
3 307 309 308 255 255 255
3 308 310 307 255 255 255
3 309 311 308 255 255 255
3 307 312 309 255 255 255
3 310 313 307 255 255 255
3 308 155 310 255 255 255
3 311 150 308 255 255 255
3 309 151 311 255 255 255
3 312 152 309 255 255 255
3 307 153 312 255 255 255
3 313 153 307 255 255 255
3 313 154 153 255 255 255
3 310 154 313 255 255 255
3 308 150 155 255 255 255
3 150 164 155 255 255 255
3 311 156 150 255 255 255
3 151 303 311 255 255 255
3 152 151 309 255 255 255
3 152 303 151 255 255 255
3 153 168 312 255 255 255
3 154 94 153 255 255 255
3 310 267 154 255 255 255
3 155 267 310 255 255 255
3 155 284 267 255 255 255
3 164 50 155 255 255 255
3 156 164 150 255 255 255
3 156 83 164 255 255 255
3 311 289 156 255 255 255
3 152 272 303 255 255 255
3 153 290 168 255 255 255
3 94 268 153 255 255 255
3 154 160 94 255 255 255
3 267 51 154 255 255 255
3 284 51 267 255 255 255
3 284 319 51 255 255 255
3 155 50 284 255 255 255
3 164 83 50 255 255 255
3 83 161 50 255 255 255
3 156 289 83 255 255 255
3 289 158 83 255 255 255
3 311 314 289 255 255 255
3 272 314 303 255 255 255
3 152 312 272 255 255 255
3 312 269 272 255 255 255
3 290 286 168 255 255 255
3 153 286 290 255 255 255
3 153 82 286 255 255 255
3 268 80 153 255 255 255
3 94 283 268 255 255 255
3 160 283 94 255 255 255
3 160 122 283 255 255 255
3 154 49 160 255 255 255
3 51 270 154 255 255 255
3 319 288 51 255 255 255
3 284 50 319 255 255 255
3 50 161 319 255 255 255
3 161 315 319 255 255 255
3 83 158 161 255 255 255
3 158 315 161 255 255 255
3 289 85 158 255 255 255
3 314 85 289 255 255 255
3 314 272 85 255 255 255
3 272 115 85 255 255 255
3 311 303 314 255 255 255
3 269 78 272 255 255 255
3 312 264 269 255 255 255
3 286 165 168 255 255 255
3 153 271 82 255 255 255
3 80 273 153 255 255 255
3 268 104 80 255 255 255
3 283 104 268 255 255 255
3 49 79 160 255 255 255
3 270 287 154 255 255 255
3 288 49 51 255 255 255
3 319 195 288 255 255 255
3 315 84 319 255 255 255
3 158 291 315 255 255 255
3 85 291 158 255 255 255
3 85 115 291 255 255 255
3 272 78 115 255 255 255
3 78 112 115 255 255 255
3 269 292 78 255 255 255
3 264 292 269 255 255 255
3 264 266 292 255 255 255
3 165 81 168 255 255 255
3 286 81 165 255 255 255
3 286 285 81 255 255 255
3 82 285 286 255 255 255
3 82 247 285 255 255 255
3 273 36 153 255 255 255
3 80 265 273 255 255 255
3 79 301 160 255 255 255
3 287 86 154 255 255 255
3 270 159 287 255 255 255
3 49 270 51 255 255 255
3 49 248 270 255 255 255
3 288 79 49 255 255 255
3 288 130 79 255 255 255
3 195 130 288 255 255 255
3 195 196 130 255 255 255
3 84 195 319 255 255 255
3 84 197 195 255 255 255
3 315 95 84 255 255 255
3 315 291 95 255 255 255
3 291 96 95 255 255 255
3 78 292 112 255 255 255
3 292 266 112 255 255 255
3 266 166 112 255 255 255
3 264 153 266 255 255 255
3 81 97 168 255 255 255
3 285 167 81 255 255 255
3 247 167 285 255 255 255
3 82 257 247 255 255 255
3 86 287 82 255 255 255
3 82 271 86 255 255 255
3 271 154 86 255 255 255
3 273 265 36 255 255 255
3 265 98 36 255 255 255
3 80 249 265 255 255 255
3 79 39 301 255 255 255
3 159 26 287 255 255 255
3 270 248 159 255 255 255
3 248 293 159 255 255 255
3 196 35 130 255 255 255
3 195 198 196 255 255 255
3 197 12 195 255 255 255
3 84 157 197 255 255 255
3 95 157 84 255 255 255
3 95 96 157 255 255 255
3 96 76 157 255 255 255
3 291 76 96 255 255 255
3 291 112 76 255 255 255
3 112 291 115 255 255 255
3 166 76 112 255 255 255
3 166 48 76 255 255 255
3 266 48 166 255 255 255
3 266 160 48 255 255 255
3 97 118 168 255 255 255
3 81 22 97 255 255 255
3 167 22 81 255 255 255
3 167 102 22 255 255 255
3 247 113 167 255 255 255
3 257 113 247 255 255 255
3 257 287 113 255 255 255
3 98 135 36 255 255 255
3 265 249 98 255 255 255
3 249 135 98 255 255 255
3 249 212 135 255 255 255
3 26 113 287 255 255 255
3 26 18 113 255 255 255
3 159 190 26 255 255 255
3 293 224 159 255 255 255
3 248 274 293 255 255 255
3 130 35 79 255 255 255
3 196 199 35 255 255 255
3 198 199 196 255 255 255
3 198 200 199 255 255 255
3 195 201 198 255 255 255
3 197 202 12 255 255 255
3 157 203 197 255 255 255
3 76 6 157 255 255 255
3 48 255 76 255 255 255
3 118 107 168 255 255 255
3 97 179 118 255 255 255
3 22 179 97 255 255 255
3 22 102 179 255 255 255
3 167 146 102 255 255 255
3 257 82 287 255 255 255
3 135 18 36 255 255 255
3 212 190 135 255 255 255
3 249 238 212 255 255 255
3 159 59 190 255 255 255
3 274 137 293 255 255 255
3 248 35 274 255 255 255
3 199 137 35 255 255 255
3 200 10 199 255 255 255
3 198 11 200 255 255 255
3 201 12 198 255 255 255
3 202 173 12 255 255 255
3 197 203 202 255 255 255
3 203 13 202 255 255 255
3 157 13 203 255 255 255
3 157 14 13 255 255 255
3 6 321 157 255 255 255
3 76 321 6 255 255 255
3 76 255 321 255 255 255
3 255 15 321 255 255 255
3 48 126 255 255 255 255
3 107 80 168 255 255 255
3 118 138 107 255 255 255
3 179 138 118 255 255 255
3 167 113 146 255 255 255
3 113 316 146 255 255 255
3 212 37 190 255 255 255
3 238 37 212 255 255 255
3 238 39 37 255 255 255
3 249 7 238 255 255 255
3 18 135 113 255 255 255
3 135 316 113 255 255 255
3 135 187 316 255 255 255
3 59 224 190 255 255 255
3 293 33 224 255 255 255
3 137 33 293 255 255 255
3 137 16 33 255 255 255
3 248 79 35 255 255 255
3 137 274 35 255 255 255
3 199 16 137 255 255 255
3 199 17 16 255 255 255
3 10 19 199 255 255 255
3 200 25 10 255 255 255
3 11 25 200 255 255 255
3 11 177 25 255 255 255
3 198 178 11 255 255 255
3 12 178 198 255 255 255
3 12 180 178 255 255 255
3 201 195 12 255 255 255
3 202 181 173 255 255 255
3 13 181 202 255 255 255
3 13 14 181 255 255 255
3 14 182 181 255 255 255
3 157 15 14 255 255 255
3 15 157 321 255 255 255
3 255 239 15 255 255 255
3 126 239 255 255 255 255
3 48 239 126 255 255 255
3 48 301 239 255 255 255
3 107 230 80 255 255 255
3 316 189 146 255 255 255
3 249 283 7 255 255 255
3 187 119 316 255 255 255
3 33 109 224 255 255 255
3 16 17 33 255 255 255
3 17 183 33 255 255 255
3 19 183 199 255 255 255
3 10 25 19 255 255 255
3 177 184 25 255 255 255
3 11 178 177 255 255 255
3 178 185 177 255 255 255
3 180 186 178 255 255 255
3 12 204 180 255 255 255
3 181 205 173 255 255 255
3 182 205 181 255 255 255
3 182 206 205 255 255 255
3 14 15 182 255 255 255
3 239 34 15 255 255 255
3 239 46 34 255 255 255
3 230 193 80 255 255 255
3 316 119 189 255 255 255
3 119 114 189 255 255 255
3 283 140 7 255 255 255
3 249 104 283 255 255 255
3 187 169 119 255 255 255
3 109 305 224 255 255 255
3 183 109 33 255 255 255
3 183 318 109 255 255 255
3 17 142 183 255 255 255
3 183 226 199 255 255 255
3 19 207 183 255 255 255
3 184 208 25 255 255 255
3 177 209 184 255 255 255
3 185 209 177 255 255 255
3 185 210 209 255 255 255
3 178 186 185 255 255 255
3 186 211 185 255 255 255
3 180 20 186 255 255 255
3 204 20 180 255 255 255
3 204 21 20 255 255 255
3 205 213 173 255 255 255
3 206 214 205 255 255 255
3 15 215 182 255 255 255
3 34 215 15 255 255 255
3 34 226 215 255 255 255
3 46 88 34 255 255 255
3 239 88 46 255 255 255
3 239 38 88 255 255 255
3 230 47 193 255 255 255
3 107 47 230 255 255 255
3 107 250 47 255 255 255
3 114 146 189 255 255 255
3 114 3 146 255 255 255
3 119 141 114 255 255 255
3 283 144 140 255 255 255
3 169 141 119 255 255 255
3 169 32 141 255 255 255
3 187 37 169 255 255 255
3 109 131 305 255 255 255
3 183 260 318 255 255 255
3 17 228 142 255 255 255
3 207 227 183 255 255 255
3 19 229 207 255 255 255
3 208 229 25 255 255 255
3 184 64 208 255 255 255
3 209 231 184 255 255 255
3 210 217 209 255 255 255
3 185 211 210 255 255 255
3 211 65 210 255 255 255
3 186 20 211 255 255 255
3 20 66 211 255 255 255
3 21 66 20 255 255 255
3 204 295 21 255 255 255
3 213 12 173 255 255 255
3 213 232 12 255 255 255
3 214 233 205 255 255 255
3 206 261 214 255 255 255
3 182 234 206 255 255 255
3 182 67 234 255 255 255
3 215 67 182 255 255 255
3 226 68 215 255 255 255
3 34 279 226 255 255 255
3 88 279 34 255 255 255
3 88 38 279 255 255 255
3 250 128 47 255 255 255
3 107 42 250 255 255 255
3 114 36 3 255 255 255
3 141 42 114 255 255 255
3 144 27 140 255 255 255
3 32 238 141 255 255 255
3 131 40 305 255 255 255
3 109 260 131 255 255 255
3 183 227 260 255 255 255
3 227 279 260 255 255 255
3 228 103 142 255 255 255
3 207 0 227 255 255 255
3 229 235 207 255 255 255
3 19 25 229 255 255 255
3 64 69 208 255 255 255
3 184 231 64 255 255 255
3 231 70 64 255 255 255
3 209 217 231 255 255 255
3 65 216 210 255 255 255
3 211 71 65 255 255 255
3 66 72 211 255 255 255
3 232 73 12 255 255 255
3 213 252 232 255 255 255
3 233 124 205 255 255 255
3 214 2 233 255 255 255
3 206 62 261 255 255 255
3 234 213 206 255 255 255
3 67 73 234 255 255 255
3 68 67 215 255 255 255
3 68 232 67 255 255 255
3 226 227 68 255 255 255
3 47 128 193 255 255 255
3 250 281 128 255 255 255
3 42 104 250 255 255 255
3 36 117 3 255 255 255
3 27 7 140 255 255 255
3 27 250 7 255 255 255
3 144 174 27 255 255 255
3 144 128 174 255 255 255
3 283 193 144 255 255 255
3 32 169 238 255 255 255
3 131 38 40 255 255 255
3 235 99 207 255 255 255
3 229 252 235 255 255 255
3 69 99 208 255 255 255
3 64 70 69 255 255 255
3 70 63 69 255 255 255
3 231 217 70 255 255 255
3 216 276 210 255 255 255
3 65 100 216 255 255 255
3 71 100 65 255 255 255
3 71 134 100 255 255 255
3 211 8 71 255 255 255
3 72 8 211 255 255 255
3 72 132 8 255 255 255
3 66 296 72 255 255 255
3 73 129 12 255 255 255
3 232 74 73 255 255 255
3 213 133 252 255 255 255
3 124 258 205 255 255 255
3 233 1 124 255 255 255
3 214 280 2 255 255 255
3 206 277 62 255 255 255
3 213 277 206 255 255 255
3 67 129 73 255 255 255
3 68 256 232 255 255 255
3 227 0 68 255 255 255
3 0 256 68 255 255 255
3 281 174 128 255 255 255
3 104 122 250 255 255 255
3 42 141 104 255 255 255
3 117 300 3 255 255 255
3 36 168 117 255 255 255
3 144 193 128 255 255 255
3 103 282 142 255 255 255
3 207 23 0 255 255 255
3 99 23 207 255 255 255
3 69 236 99 255 255 255
3 70 111 63 255 255 255
3 217 111 70 255 255 255
3 217 125 111 255 255 255
3 100 276 216 255 255 255
3 100 275 276 255 255 255
3 134 261 100 255 255 255
3 71 8 134 255 255 255
3 8 132 134 255 255 255
3 72 296 132 255 255 255
3 74 199 73 255 255 255
3 232 229 74 255 255 255
3 133 208 252 255 255 255
3 213 62 133 255 255 255
3 124 253 258 255 255 255
3 1 253 124 255 255 255
3 1 170 253 255 255 255
3 233 259 1 255 255 255
3 2 75 233 255 255 255
3 280 77 2 255 255 255
3 214 176 280 255 255 255
3 277 237 62 255 255 255
3 0 60 256 255 255 255
3 23 41 0 255 255 255
3 281 143 174 255 255 255
3 122 7 250 255 255 255
3 300 43 3 255 255 255
3 117 138 300 255 255 255
3 168 179 117 255 255 255
3 236 41 99 255 255 255
3 111 116 63 255 255 255
3 125 223 111 255 255 255
3 217 171 125 255 255 255
3 275 108 276 255 255 255
3 100 175 275 255 255 255
3 261 175 100 255 255 255
3 261 31 175 255 255 255
3 134 304 261 255 255 255
3 133 237 208 255 255 255
3 213 258 62 255 255 255
3 253 170 258 255 255 255
3 170 298 258 255 255 255
3 233 75 259 255 255 255
3 75 123 259 255 255 255
3 2 221 75 255 255 255
3 2 120 221 255 255 255
3 77 127 2 255 255 255
3 280 127 77 255 255 255
3 214 278 176 255 255 255
3 237 106 62 255 255 255
3 277 60 237 255 255 255
3 281 220 143 255 255 255
3 263 220 281 255 255 255
3 281 250 263 255 255 255
3 300 102 43 255 255 255
3 116 61 63 255 255 255
3 111 223 116 255 255 255
3 223 302 116 255 255 255
3 125 139 223 255 255 255
3 171 139 125 255 255 255
3 171 276 139 255 255 255
3 275 175 108 255 255 255
3 175 28 108 255 255 255
3 31 110 175 255 255 255
3 261 110 31 255 255 255
3 237 61 208 255 255 255
3 258 134 62 255 255 255
3 213 205 258 255 255 255
3 170 21 298 255 255 255
3 75 320 123 255 255 255
3 120 297 221 255 255 255
3 2 127 120 255 255 255
3 127 219 120 255 255 255
3 176 121 280 255 255 255
3 278 44 176 255 255 255
3 60 69 237 255 255 255
3 277 213 60 255 255 255
3 213 256 60 255 255 255
3 213 234 256 255 255 255
3 102 146 43 255 255 255
3 146 3 43 255 255 255
3 61 217 63 255 255 255
3 116 106 61 255 255 255
3 302 44 116 255 255 255
3 223 254 302 255 255 255
3 276 218 139 255 255 255
3 28 254 108 255 255 255
3 175 110 28 255 255 255
3 110 9 28 255 255 255
3 134 192 304 255 255 255
3 258 298 134 255 255 255
3 298 299 134 255 255 255
3 123 280 259 255 255 255
3 320 127 123 255 255 255
3 75 221 320 255 255 255
3 120 4 297 255 255 255
3 121 9 280 255 255 255
3 44 121 176 255 255 255
3 44 251 121 255 255 255
3 60 236 69 255 255 255
3 139 108 223 255 255 255
3 218 108 139 255 255 255
3 28 251 254 255 255 255
3 110 304 9 255 255 255
3 134 188 192 255 255 255
3 45 188 134 255 255 255
3 45 145 188 255 255 255
3 299 45 134 255 255 255
3 299 262 45 255 255 255
3 280 192 259 255 255 255
3 320 4 127 255 255 255
3 221 297 320 255 255 255
3 120 219 4 255 255 255
3 219 101 4 255 255 255
3 121 28 9 255 255 255
3 251 28 121 255 255 255
3 254 223 108 255 255 255
3 188 1 192 255 255 255
3 262 132 45 255 255 255
3 299 296 262 255 255 255
3 4 101 127 255 255 255
3 320 297 4 255 255 255
3 1 259 192 255 255 255
3 188 145 1 255 255 255
3 101 219 127 255 255 255
3 299 30 145 255 255 255
3 30 1 145 255 255 255
3 299 298 30 255 255 255
3 298 204 30 255 255 255
3 136 294 29 255 255 255
3 29 5 136 255 255 255
3 294 5 29 255 255 255
3 5 294 136 255 255 255
