ply
format ascii 1.0
element vertex 361
property float x
property float y
property float z
element face 576
property list uchar int vertex_indices
property uchar red
property uchar green
property uchar blue
end_header
-1.1260000467300415 1.08000004291534424 -0.99299997091293335
-1.02199995517730713 1.1679999828338623 -0.619000017642974854
-1.03652918338775635 1.14541065692901611 -0.568438470363616943
-1.14744317531585693 1.10162413120269775 -0.945203959941864014
-1.18299996852874756 1.04600000381469727 -0.763999998569488525
-1.07918095588684082 1.12632977962493896 -0.638612806797027588
-1.23464286327362061 1.14466142654418945 -0.498988687992095947
-1.16392123699188232 1.10046815872192383 -0.604846537113189697
-1.14329159259796143 1.08501362800598145 -0.845854341983795166
-1.12560904026031494 1.15653729438781738 -0.601441442966461182
-1.25999999046325684 0.864000022411346436 -0.884000003337860107
-1.21685755252838135 0.807018637657165527 -0.787383794784545898
-1.30412602424621582 0.871102869510650635 -0.670482456684112549
-1.36159658432006836 0.980390667915344238 -0.476231217384338379
-1.22396409511566162 0.849287450313568115 -0.653745472431182861
-1.15779006481170654 0.854965686798095703 -0.82719719409942627
-1.1799999475479126 0.833000004291534424 -0.99299997091293335
-1.21192872524261475 0.870291829109191895 -0.953441858291625977
-1.23099994659423828 0.902999997138977051 -0.620000004768371582
-1.21753942966461182 0.830620765686035156 -0.42191779613494873
-1.24991345405578613 0.875091075897216797 -0.888123631477355957
-1.16951608657836914 0.880910038948059082 -0.749277234077453613
-1.14612400531768799 0.88669288158416748 -0.720686435699462891
-1.26786327362060547 0.858607292175292969 -0.860533177852630615
-1.28383171558380127 0.927482962608337402 -0.70240253210067749
-1.18380510807037354 0.811336815357208252 -0.597588539123535156
-1.2640000581741333 0.856000006198883057 -0.879000008106231689
-1.32710611820220947 0.934974431991577148 -0.655307888984680176
-1.20299994945526123 0.814999997615814209 -0.814999997615814209
-1.21627223491668701 0.881021797657012939 -0.640253305435180664
-1.25055861473083496 0.908635735511779785 -0.570190906524658203
-1.3200000524520874 0.901000022888183594 -0.669000029563903809
-1.18318748474121094 0.784866511821746826 -0.544935345649719238
-1.27090549468994141 0.907496035099029541 -0.80332714319229126
-1.24518382549285889 0.823546350002288818 -0.751576483249664307
-1.24168431758880615 0.884125828742980957 -0.814907848834991455
-1.20054042339324951 0.886868178844451904 -0.764818131923675537
-1.20756113529205322 0.822304427623748779 -0.877922773361206055
-1.17428350448608398 0.851297438144683838 -0.907439649105072021
-1.26783406734466553 0.834360599517822266 -0.833032190799713135
-1.17400002479553223 1.08800005912780762 -0.674000024795532227
-1.13015258312225342 1.07223606109619141 -0.895795464515686035
-1.18087410926818848 1.11640584468841553 -0.699005722999572754
-1.16760718822479248 1.09740793704986572 -0.962352991104125977
-1.24237465858459473 1.1076052188873291 -0.546103239059448242
-1.17272078990936279 1.11506247520446777 -0.585071444511413574
-1.08065199851989746 1.21711945533752441 -0.43545842170715332
-1.1572272777557373 1.14369332790374756 -0.83981621265411377
-1.13189268112182617 0.862585902214050293 -0.715720593929290771
-1.23099994659423828 0.825999975204467773 -0.800000011920928955
-1.2364736795425415 0.821545422077178955 -0.666904807090759277
-1.36270904541015625 0.960527479648590088 -0.493298441171646118
-1.31190872192382812 0.949002444744110107 -0.467310667037963867
-1.07136571407318115 1.15472006797790527 -0.667624413967132568
-1.19915056228637695 1.07714724540710449 -0.637669861316680908
-1.0930030345916748 1.08731365203857422 -0.725611984729766846
-1.22941708564758301 1.09228146076202393 -0.617446839809417725
-1.12800002098083496 1.00699996948242188 -0.787000000476837158
-1.17720949649810791 1.00812482833862305 -0.81909412145614624
-1.2592545747756958 1.14121294021606445 -0.452258050441741943
-1.16199994087219238 1.0700000524520874 -0.726000010967254639
-1.22899997234344482 0.893000006675720215 -0.833999991416931152
-1.23664891719818115 0.823610365390777588 -0.744564831256866455
-1.21439754962921143 0.814504563808441162 -0.668421447277069092
-1.26600003242492676 0.884000003337860107 -0.671999990940093994
-1.04398095607757568 1.07954573631286621 -0.418742865324020386
-1.13658273220062256 1.11434769630432129 -0.768198966979980469
-1.04200005531311035 1.14499998092651367 -0.623000025749206543
-1.09500002861022949 1.15900003910064697 -0.763000011444091797
-1.09631967544555664 1.11449480056762695 -0.615490078926086426
-1.16772520542144775 1.01347362995147705 -0.720600485801696777
-1.07628285884857178 1.1054757833480835 -0.813365817070007324
-1.08021700382232666 1.15954005718231201 -0.770817875862121582
-1.14065301418304443 1.04118657112121582 -0.720051765441894531
-1.15900003910064697 1.07700002193450928 -0.889999985694885254
-1.18200004100799561 1.04799997806549072 -0.962000012397766113
-1.20599997043609619 0.810000002384185791 -0.986999988555908203
-1.22699999809265137 0.823000013828277588 -0.876999974250793457
-1.28400003910064697 0.875 -0.744000017642974854
-1.31799995899200439 0.885999977588653564 -0.674000024795532227
-1.36399996280670166 0.94300001859664917 -0.508000016212463379
-1.30200004577636719 0.912000000476837158 -0.626999974250793457
-1.33165943622589111 0.929694533348083496 -0.522965371608734131
-1.18498623371124268 0.916292965412139893 -0.439343065023422241
-1.22500002384185791 0.888000011444091797 -0.851999998092651367
-1.26202809810638428 0.873975455760955811 -0.805245578289031982
-1.11901938915252686 0.992510199546813965 -0.590334713459014893
-1.16613054275512695 0.986328661441802979 -0.57827073335647583
-1.14693367481231689 0.982033133506774902 -0.654635369777679443
-1.14456021785736084 0.993189156055450439 -0.971821248531341553
-1.20252573490142822 0.876885950565338135 -0.795536398887634277
-1.18091714382171631 0.848456978797912598 -0.861054182052612305
-1.22906613349914551 0.853845655918121338 -0.858538031578063965
-1.10609233379364014 1.10169100761413574 -0.451273232698440552
-1.09700000286102295 1.05299997329711914 -0.84299999475479126
-1.37536787986755371 0.916682839393615723 -0.489485114812850952
-1.10764610767364502 1.04486894607543945 -0.868946611881256104
-1.12079036235809326 1.12836754322052002 -0.547576367855072021
-1.18400001525878906 1.05400002002716064 -0.925000011920928955
-1.076385498046875 1.11803531646728516 -0.588174760341644287
-1.09175753593444824 1.14399635791778564 -0.719200193881988525
-1.19634270668029785 0.818345963954925537 -0.639626204967498779
-1.25989484786987305 0.795692920684814453 -0.816481113433837891
-1.30356264114379883 0.918730378150939941 -0.582812666893005371
-1.33831989765167236 0.920136630535125732 -0.581392824649810791
-1.12217497825622559 1.16140329837799072 -0.635061383247375488
-1.08345794677734375 1.07777512073516846 -0.447031378746032715
-1.0898820161819458 1.11573827266693115 -0.609017848968505859
-1.06825625896453857 1.0665360689163208 -0.486850738525390625
-1.20020997524261475 1.11446452140808105 -0.870324254035949707
-1.21577858924865723 1.14091229438781738 -0.587472915649414062
-1.16363763809204102 1.01865410804748535 -0.613498926162719727
-1.16714835166931152 0.851815700531005859 -1.04031264781951904
-1.16326761245727539 0.84618610143661499 -1.00132262706756592
-1.1687934398651123 0.837595641613006592 -1.02088737487792969
-1.18400001525878906 0.830999970436096191 -1.00199997425079346
-1.20402896404266357 0.958368778228759766 -0.478303849697113037
-1.35078263282775879 0.943850338459014893 -0.567450523376464844
-1.24699997901916504 0.880999982357025146 -0.856999993324279785
-1.20251476764678955 0.805758893489837646 -0.836362838745117188
-1.21800005435943604 1.18599998950958252 -0.451000005006790161
-1.06824386119842529 1.03086173534393311 -0.399179726839065552
-1.03525424003601074 1.15324485301971436 -0.639722228050231934
-1.02402126789093018 1.19238758087158203 -0.643611252307891846
-1.11699998378753662 1.09800004959106445 -0.488000005483627319
-1.13693499565124512 1.10041356086730957 -0.518890500068664551
-1.18078982830047607 1.09381663799285889 -0.698831498622894287
-1.13600003719329834 1.04799997806549072 -0.686999976634979248
-1.19700002670288086 1.11600005626678467 -0.892000019550323486
-1.18624532222747803 1.07297885417938232 -0.946520864963531494
-1.22184097766876221 1.13132667541503906 -0.493912220001220703
-1.16092026233673096 1.09247112274169922 -0.650558233261108398
-1.25790238380432129 0.841370522975921631 -0.725256383419036865
-1.21899998188018799 1.17200005054473877 -0.50700002908706665
-1.09300005435943604 1.1109999418258667 -0.708000004291534424
-1.12372994422912598 1.18327510356903076 -0.545559823513031006
-1.18119573593139648 1.14042961597442627 -0.84784930944442749
-1.1679999828338623 1.02600002288818359 -0.948000013828277588
-1.20601034164428711 1.08979439735412598 -0.684235155582427979
-1.26199996471405029 0.860000014305114746 -0.876999974250793457
-1.2851099967956543 0.875721395015716553 -0.765278160572052002
-1.26970529556274414 0.913418591022491455 -0.685146987438201904
-1.17202496528625488 0.819304287433624268 -0.807288587093353271
-1.1657029390335083 0.830122232437133789 -0.435850620269775391
-1.1997382640838623 0.872281551361083984 -0.694516301155090332
-1.19811058044433594 0.892837226390838623 -0.69771963357925415
-1.26248300075531006 0.91327589750289917 -0.725529134273529053
-1.12639153003692627 1.03006315231323242 -0.690121114253997803
-1.19319450855255127 1.09688067436218262 -1.00713849067687988
-1.13062870502471924 1.03001809120178223 -1.00161921977996826
-1.18908727169036865 1.03559970855712891 -1.0319981575012207
-1.21899998188018799 1.11500000953674316 -1.00300002098083496
-1.12162339687347412 1.049796462059021 -1.03451883792877197
-1.20064759254455566 1.14580917358398438 -0.419504493474960327
-1.19550526142120361 0.934350788593292236 -0.480405539274215698
-1.14900004863739014 1.04999995231628418 -0.66100001335144043
-1.12147510051727295 1.19527268409729004 -0.424420595169067383
-1.17022275924682617 1.11735916137695312 -0.635944247245788574
-1.19971108436584473 1.12817275524139404 -0.903362751007080078
-1.15100002288818359 1.06299996376037598 -0.72500002384185791
-1.11388504505157471 1.03869223594665527 -0.796354293823242188
-1.22599995136260986 0.908999979496002197 -0.555999994277954102
-1.19562482833862305 0.921371340751647949 -0.65561753511428833
-1.24378478527069092 0.807784795761108398 -0.859605610370635986
-1.22699999809265137 0.889999985694885254 -0.629000008106231689
-1.27999997138977051 0.904999971389770508 -0.587999999523162842
-1.1509251594543457 1.12064754962921143 -0.410124093294143677
-1.19554316997528076 1.09887325763702393 -0.850370347499847412
-1.22568738460540771 1.15530014038085938 -0.431671440601348877
-1.10183000564575195 1.0711674690246582 -0.401322424411773682
-1.15836441516876221 1.02865731716156006 -0.895128548145294189
-1.22060978412628174 1.13212990760803223 -0.450218468904495239
-1.16151845455169678 1.11300694942474365 -0.905791699886322021
-1.16100001335144043 1.08000004291534424 -0.694999992847442627
-1.10599994659423828 1.14100003242492676 -0.591000020503997803
-1.11001384258270264 1.18682515621185303 -0.455192536115646362
-1.24441611766815186 1.14327073097229004 -0.408778756856918335
-1.22526335716247559 0.807561218738555908 -0.937626421451568604
-1.17449939250946045 1.04515504837036133 -0.898467481136322021
-1.12999999523162842 1.12999999523162842 -0.74299997091293335
-1.0784308910369873 1.13952863216400146 -0.620474874973297119
-1.14999997615814209 1.07200002670288086 -0.71799999475479126
-1.16900002956390381 1.08399999141693115 -0.670000016689300537
-1.07700002193450928 1.14300000667572021 -0.551999986171722412
-1.13300001621246338 1.07299995422363281 -0.852999985218048096
-1.1753464937210083 0.825616776943206787 -0.69228750467300415
-1.16306030750274658 0.825869917869567871 -0.737081289291381836
-1.12103724479675293 1.11276900768280029 -0.840616345405578613
-1.16871535778045654 1.07565081119537354 -0.811533927917480469
-1.19197189807891846 1.07647168636322021 -0.735848903656005859
-1.19504058361053467 1.14708960056304932 -0.875237703323364258
-1.143973708152771 1.03528881072998047 -0.86793673038482666
-1.09858453273773193 1.20362436771392822 -0.489981174468994141
-1.20917332172393799 1.14607334136962891 -0.843747496604919434
-1.16023910045623779 1.01914262771606445 -0.993517577648162842
-1.21459090709686279 1.18290293216705322 -0.496886879205703735
-1.20964264869689941 1.12391376495361328 -0.828706860542297363
-1.06060981750488281 1.10748398303985596 -0.729877710342407227
-1.21091973781585693 1.18059074878692627 -0.52216029167175293
-1.11383092403411865 1.08721959590911865 -0.966166019439697266
-1.19299995899200439 1.07400000095367432 -0.973999977111816406
-1.04300236701965332 1.17934083938598633 -0.569873332977294922
-1.15474343299865723 1.02211034297943115 -0.649974942207336426
-1.06820952892303467 1.12311649322509766 -0.792207837104797363
-1.18990457057952881 1.12586617469787598 -0.413360953330993652
-1.14860761165618896 0.986079275608062744 -0.706725001335144043
-1.10022199153900146 1.10458791255950928 -0.643345415592193604
-1.14300000667572021 1.13499999046325684 -0.814999997615814209
-1.07140445709228516 1.12600874900817871 -0.691395103931427002
-1.12153077125549316 1.03442978858947754 -0.946995317935943604
-1.14052915573120117 1.11820709705352783 -0.902198493480682373
-1.1116100549697876 1.09316229820251465 -0.894313037395477295
-1.18555116653442383 1.10410881042480469 -0.775051653385162354
-1.17619895935058594 1.07397615909576416 -0.854047477245330811
-1.15799999237060547 1.13100004196166992 -0.783999979496002197
-1.14999997615814209 1.07400000095367432 -0.691999971866607666
-1.17130053043365479 1.13969171047210693 -0.834061205387115479
-1.16689085960388184 0.840477526187896729 -0.97681039571762085
-1.21040081977844238 0.787429571151733398 -0.618231415748596191
-1.18583095073699951 0.905680954456329346 -0.632546007633209229
-1.25865089893341064 0.889165997505187988 -0.815482497215270996
-1.29145669937133789 0.896050572395324707 -0.621565103530883789
-1.17018699645996094 1.08489823341369629 -0.788366734981536865
-1.13714373111724854 1.01606202125549316 -0.907189011573791504
-1.20369911193847656 1.18587934970855713 -0.482084572315216064
-1.08360707759857178 1.12432920932769775 -0.770921170711517334
-1.08020865917205811 1.11888086795806885 -0.666957259178161621
-1.0494544506072998 1.13124203681945801 -0.637718856334686279
-1.10495543479919434 1.13873255252838135 -0.68909841775894165
-1.02125608921051025 1.15256416797637939 -0.618921935558319092
-1.0700000524520874 1.16499996185302734 -0.629000008106231689
-1.04771173000335693 1.18740427494049072 -0.630792737007141113
-1.1170191764831543 1.07528305053710938 -0.407543987035751343
-1.21085023880004883 0.834803998470306396 -0.487902849912643433
-1.20560312271118164 0.834180116653442383 -0.810399711132049561
-1.16008126735687256 0.843444526195526123 -0.782856225967407227
-1.23976922035217285 0.838874220848083496 -0.854228556156158447
-1.28681647777557373 0.887749552726745605 -0.639080286026000977
-1.18631660938262939 0.883683085441589355 -0.91007840633392334
-1.3268592357635498 0.949820458889007568 -0.534286141395568848
-1.38237226009368896 0.96300959587097168 -0.523841977119445801
-1.3085176944732666 0.892957508563995361 -0.689069986343383789
-1.25726807117462158 0.911770462989807129 -0.792434275150299072
-1.31400001049041748 0.896000027656555176 -0.714999973773956299
-1.11826491355895996 1.2287057638168335 -0.472907781600952148
-1.18928754329681396 1.1197735071182251 -0.820944905281066895
-1.11558520793914795 1.07414519786834717 -0.750037550926208496
-1.07500004768371582 1.06500005722045898 -0.425999999046325684
-1.25948739051818848 0.827255845069885254 -0.87802654504776001
-1.27217841148376465 0.821115851402282715 -0.814420044422149658
-1.21500003337860107 1.10099995136260986 -0.837999999523162842
-1.16600000858306885 1.00999999046325684 -0.94300001859664917
-1.18505871295928955 1.07795417308807373 -0.911949634552001953
-1.20099997520446777 1.07099997997283936 -0.892000019550323486
-1.13276886940002441 1.11623680591583252 -0.470720052719116211
-1.20599997043609619 1.08099997043609619 -0.896000027656555176
-1.18339407444000244 1.07176029682159424 -0.933961153030395508
-1.09966182708740234 1.10282003879547119 -0.53437960147857666
-1.09888243675231934 1.11533486843109131 -0.766426444053649902
-1.20013928413391113 1.14557814598083496 -0.667211055755615234
-1.11679577827453613 1.12560176849365234 -0.62957608699798584
-1.11000001430511475 1.08599996566772461 -0.925000011920928955
-1.11757469177246094 1.00633585453033447 -0.624093830585479736
-1.22960805892944336 1.09746599197387695 -0.66007465124130249
-1.14846229553222656 1.00290930271148682 -0.927847683429718018
-1.19306647777557373 1.08386135101318359 -0.73859483003616333
-1.11937224864959717 1.17850649356842041 -0.598389089107513428
-1.24680578708648682 0.859967589378356934 -0.760322093963623047
-1.23083531856536865 0.808490097522735596 -0.895617902278900146
-1.23500001430511475 0.898999989032745361 -0.703000009059906006
-1.23320472240447998 0.873925387859344482 -0.658372223377227783
-1.22561395168304443 0.891956508159637451 -0.552395641803741455
-1.34783422946929932 0.959088981151580811 -0.497340261936187744
-1.21858763694763184 0.898025810718536377 -0.991926670074462891
-1.20999765396118164 0.919579863548278809 -0.547364890575408936
-1.17487704753875732 0.831371486186981201 -0.96415865421295166
-1.31746721267700195 0.879243016242980957 -0.636132895946502686
-1.22672557830810547 0.820136845111846924 -0.556475639343261719
-1.19031322002410889 0.827058315277099609 -0.520509421825408936
-1.20099997520446777 0.813000023365020752 -0.958999991416931152
-1.29528534412384033 0.870481491088867188 -0.616700172424316406
-1.25499999523162842 0.879999995231628418 -0.674000024795532227
-1.27385818958282471 0.854288697242736816 -0.677321851253509521
-1.1083228588104248 1.08068311214447021 -0.788684725761413574
-1.13975286483764648 1.03439795970916748 -0.60821068286895752
-1.14473462104797363 1.11137759685516357 -0.604110598564147949
-1.07700002193450928 1.10699999332427979 -0.611999988555908203
-1.09957098960876465 1.16457188129425049 -0.57112419605255127
-1.20953035354614258 1.15386354923248291 -0.640368342399597168
-1.21383047103881836 0.848700582981109619 -0.772335052490234375
-1.19282984733581543 0.791042149066925049 -0.702488899230957031
-1.24000000953674316 0.852999985218048096 -0.690999984741210938
-1.22099995613098145 0.805000007152557373 -0.847000002861022949
-1.24976396560668945 0.888740479946136475 -0.719698786735534668
-1.23203134536743164 0.951745748519897461 -0.430832445621490479
-1.19580769538879395 0.94445115327835083 -0.533977031707763672
-1.2318953275680542 0.912988841533660889 -0.659161806106567383
-1.24699997901916504 0.791000008583068848 -0.801999986171722412
-1.23005962371826172 0.828718066215515137 -0.993866324424743652
-1.18284463882446289 0.871526539325714111 -0.94096827507019043
-1.31693089008331299 0.86429595947265625 -0.724446415901184082
-1.19011080265045166 0.830482780933380127 -0.962255537509918213
-1.25584673881530762 0.809228420257568359 -0.756798744201660156
-1.2439502477645874 0.890674948692321777 -0.699421584606170654
-1.24500000476837158 0.885999977588653564 -0.677999973297119141
-1.20799994468688965 0.884000003337860107 -0.731000006198883057
-1.21393585205078125 1.13608145713806152 -0.410504609346389771
-1.21788740158081055 0.845669686794281006 -0.964392662048339844
-1.14451408386230469 1.01023960113525391 -0.834428131580352783
-1.16775274276733398 1.02066421508789062 -0.970144093036651611
-1.08451008796691895 1.06647408008575439 -0.47515028715133667
-1.08644020557403564 1.05687916278839111 -0.63414531946182251
-1.0907214879989624 1.04799211025238037 -0.528042376041412354
-1.14541220664978027 1.09543299674987793 -0.548410236835479736
-1.22534656524658203 1.1455686092376709 -0.556357443332672119
-1.1679999828338623 1.07200002670288086 -0.665000021457672119
-1.08026182651519775 1.15652573108673096 -0.575514853000640869
-1.17477965354919434 1.09895730018615723 -0.984040558338165283
-1.25238049030303955 0.843654096126556396 -0.936531960964202881
-1.31914496421813965 0.91282123327255249 -0.677629530429840088
-1.22416114807128906 0.923941254615783691 -0.609962940216064453
-1.22236740589141846 0.799915015697479248 -0.566065490245819092
-1.12660479545593262 1.02979648113250732 -0.591935038566589355
-1.34051358699798584 0.923953354358673096 -0.649175941944122314
-1.28600001335144043 0.898999989032745361 -0.624000012874603271
-1.19956719875335693 0.897033929824829102 -0.571553468704223633
-1.32764887809753418 0.858167111873626709 -0.708229124546051025
-1.09688758850097656 1.14905095100402832 -0.431917518377304077
-1.22351622581481934 1.21424281597137451 -0.462753504514694214
-1.14695620536804199 1.19632422924041748 -0.447933405637741089
-1.34270799160003662 0.919721305370330811 -0.468301624059677124
-1.1964106559753418 0.813667893409729004 -0.871110260486602783
-1.17400002479553223 1.0690000057220459 -0.879999995231628418
-1.10099995136260986 1.08399999141693115 -0.43900001049041748
-1.17604732513427734 1.08147609233856201 -0.724573850631713867
-1.11133456230163574 1.06366240978240967 -0.937022686004638672
-1.10643219947814941 1.05671203136444092 -0.577581405639648438
-1.16800904273986816 1.0584491491317749 -0.836928844451904297
-1.14322614669799805 1.00590777397155762 -0.592661023139953613
-1.10940110683441162 1.00548934936523438 -0.775409698486328125
-1.23305082321166992 1.13653552532196045 -0.446667909622192383
-1.25800001621246338 0.851999998092651367 -0.658999979496002197
-1.27158117294311523 0.840885519981384277 -0.773967564105987549
-1.1370086669921875 0.997795343399047852 -0.755364835262298584
-1.176979660987854 0.923517525196075439 -0.581151962280273438
-1.23199999332427979 0.804000020027160645 -0.834999978542327881
-1.22753572463989258 0.772240281105041504 -0.500118792057037354
-1.19217479228973389 1.05406498908996582 -0.909369230270385742
-1.14958667755126953 1.14046001434326172 -0.655379951000213623
-1.10190892219543457 1.13087999820709229 -0.799638807773590088
-1.08539855480194092 1.05637788772583008 -0.597357332706451416
-1.07281279563903809 1.08089971542358398 -0.533791720867156982
-1.07200002670288086 1.07899999618530273 -0.637000024318695068
-1.12255465984344482 1.12375330924987793 -0.711227715015411377
-1.11222684383392334 1.03447556495666504 -0.615713417530059814
-1.14600002765655518 1.09500002861022949 -0.875999987125396729
-1.12482714653015137 1.06731808185577393 -0.427018702030181885
-1.12000000476837158 1.07599997520446777 -0.753000020980834961
-1.1762930154800415 0.963685393333435059 -0.459410160779953003
1 1 1
-1.18836343288421631 0.804740309715270996 -0.447726458311080933
3 123 231 122 255 255 255
3 229 123 122 255 255 255
3 231 230 122 255 255 255
3 229 231 123 255 255 255
3 122 231 229 255 255 255
3 230 67 122 255 255 255
3 67 1 122 255 255 255
3 1 231 122 255 255 255
3 1 201 231 255 255 255
3 231 53 123 255 255 255
3 231 201 316 255 255 255
3 231 208 53 255 255 255
3 180 230 316 255 255 255
3 2 316 201 255 255 255
3 208 100 53 255 255 255
3 208 227 226 255 255 255
3 180 5 230 255 255 255
3 316 99 180 255 255 255
3 99 316 2 255 255 255
3 208 197 100 255 255 255
3 99 286 180 255 255 255
3 2 351 99 255 255 255
3 226 227 5 255 255 255
3 227 67 5 255 255 255
3 228 53 100 255 255 255
3 208 55 197 255 255 255
3 134 55 208 255 255 255
3 208 226 134 255 255 255
3 99 352 286 255 255 255
3 201 183 2 255 255 255
3 100 353 228 255 255 255
3 100 179 353 255 255 255
3 197 72 100 255 255 255
3 206 147 226 255 255 255
3 286 206 5 255 255 255
3 351 350 99 255 255 255
3 228 5 53 255 255 255
3 228 100 134 255 255 255
3 72 68 100 255 255 255
3 197 225 72 255 255 255
3 55 258 197 255 255 255
3 352 311 206 255 255 255
3 206 226 5 255 255 255
3 351 336 350 255 255 255
3 197 258 225 255 255 255
3 246 258 55 255 255 255
3 246 283 258 255 255 255
3 206 311 147 255 255 255
3 353 348 228 255 255 255
3 55 147 246 255 255 255
3 351 312 336 255 255 255
3 351 310 312 255 255 255
3 258 349 225 255 255 255
3 258 66 349 255 255 255
3 258 283 66 255 255 255
3 246 160 283 255 255 255
3 354 311 350 255 255 255
3 312 313 336 255 255 255
3 351 108 310 255 255 255
3 257 313 351 255 255 255
3 348 105 228 255 255 255
3 353 42 348 255 255 255
3 349 71 225 255 255 255
3 246 339 160 255 255 255
3 311 262 147 255 255 255
3 354 322 311 255 255 255
3 350 322 354 255 255 255
3 312 351 313 255 255 255
3 157 260 348 255 255 255
3 42 259 348 255 255 255
3 71 349 203 255 255 255
3 66 207 349 255 255 255
3 207 187 349 255 255 255
3 66 214 207 255 255 255
3 262 88 147 255 255 255
3 351 183 257 255 255 255
3 348 260 105 255 255 255
3 157 285 260 255 255 255
3 349 225 203 255 255 255
3 246 179 66 255 255 255
3 66 283 246 255 255 255
3 283 357 246 255 255 255
3 262 86 88 255 255 255
3 350 336 322 255 255 255
3 257 125 313 255 255 255
3 257 124 125 255 255 255
3 106 310 108 255 255 255
3 183 97 257 255 255 255
3 9 266 105 255 255 255
3 285 69 260 255 255 255
3 157 45 285 255 255 255
3 160 94 283 255 255 255
3 147 205 246 255 255 255
3 45 9 285 255 255 255
3 94 187 283 255 255 255
3 339 57 160 255 255 255
3 246 205 343 255 255 255
3 147 88 205 255 255 255
3 322 87 86 255 255 255
3 124 93 125 255 255 255
3 106 93 65 255 255 255
3 266 5 105 255 255 255
3 9 174 285 255 255 255
3 45 313 9 255 255 255
3 157 288 45 255 255 255
3 86 87 88 255 255 255
3 86 262 322 255 255 255
3 322 284 87 255 255 255
3 125 97 313 255 255 255
3 287 105 266 255 255 255
3 107 180 69 255 255 255
3 69 174 107 255 255 255
3 9 287 174 255 255 255
3 288 110 45 255 255 255
3 157 259 288 255 255 255
3 47 207 349 255 255 255
3 187 210 349 255 255 255
3 339 343 57 255 255 255
3 70 343 205 255 255 255
3 262 284 322 255 255 255
3 284 111 87 255 255 255
3 7 131 336 255 255 255
3 45 7 313 255 255 255
3 97 9 313 255 255 255
3 97 135 9 255 255 255
3 93 254 125 255 255 255
3 106 124 310 255 255 255
3 93 327 65 255 255 255
3 180 260 69 255 255 255
3 9 105 287 255 255 255
3 47 216 207 255 255 255
3 349 210 47 255 255 255
3 187 41 211 255 255 255
3 188 222 283 255 255 255
3 187 188 283 255 255 255
3 187 8 188 255 255 255
3 262 311 354 255 255 255
3 56 54 7 255 255 255
3 93 356 254 255 255 255
3 93 333 356 255 255 255
3 9 135 266 255 255 255
3 259 56 288 255 255 255
3 41 335 211 255 255 255
3 8 337 188 255 255 255
3 87 338 88 255 255 255
3 111 338 87 255 255 255
3 111 284 338 255 255 255
3 7 54 131 255 255 255
3 54 315 131 255 255 255
3 336 313 7 255 255 255
3 93 254 327 255 255 255
3 56 110 288 255 255 255
3 259 138 42 255 255 255
3 259 263 56 255 255 255
3 42 334 265 255 255 255
3 47 136 216 255 255 255
3 184 41 187 255 255 255
3 184 191 41 255 255 255
3 337 213 188 255 255 255
3 202 205 88 255 255 255
3 88 111 202 255 255 255
3 338 87 86 255 255 255
3 86 262 338 255 255 255
3 262 86 284 255 255 255
3 315 155 131 255 255 255
3 333 169 356 255 255 255
3 266 192 287 255 255 255
3 135 244 266 255 255 255
3 334 138 42 255 255 255
3 334 189 265 255 255 255
3 187 211 210 255 255 255
3 335 261 211 255 255 255
3 355 184 8 255 255 255
3 8 187 355 255 255 255
3 187 210 355 255 255 255
3 73 343 70 255 255 255
3 262 322 338 255 255 255
3 65 121 106 255 255 255
3 327 232 65 255 255 255
3 287 192 135 255 255 255
3 42 189 334 255 255 255
3 189 212 265 255 255 255
3 210 3 172 255 255 255
3 211 41 210 255 255 255
3 335 199 261 255 255 255
3 212 189 222 255 255 255
3 189 188 222 255 255 255
3 210 172 355 255 255 255
3 187 47 210 255 255 255
3 56 263 54 255 255 255
3 232 166 356 255 255 255
3 356 169 232 255 255 255
3 247 169 65 255 255 255
3 266 244 192 255 255 255
3 334 126 138 255 255 255
3 42 265 189 255 255 255
3 334 181 60 255 255 255
3 334 215 181 255 255 255
3 42 126 334 255 255 255
3 190 193 136 255 255 255
3 136 109 190 255 255 255
3 158 190 172 255 255 255
3 41 172 210 255 255 255
3 41 178 252 255 255 255
3 191 96 41 255 255 255
3 189 4 188 255 255 255
3 222 214 212 255 255 255
3 337 8 213 255 255 255
3 159 189 73 255 255 255
3 73 181 159 255 255 255
3 111 155 202 255 255 255
3 338 284 87 255 255 255
3 65 169 121 255 255 255
3 327 166 232 255 255 255
3 126 42 138 255 255 255
3 334 173 215 255 255 255
3 136 193 216 255 255 255
3 3 43 172 255 255 255
3 3 199 43 255 255 255
3 41 252 172 255 255 255
3 335 209 199 255 255 255
3 189 265 4 255 255 255
3 172 74 355 255 255 255
3 127 215 73 255 255 255
3 73 202 127 255 255 255
3 247 333 106 255 255 255
3 106 121 247 255 255 255
3 192 175 135 255 255 255
3 135 175 244 255 255 255
3 175 329 244 255 255 255
3 138 54 263 255 255 255
3 126 173 40 255 255 255
3 173 182 215 255 255 255
3 216 196 245 255 255 255
3 193 196 216 255 255 255
3 172 252 158 255 255 255
3 209 0 199 255 255 255
3 335 223 209 255 255 255
3 41 74 178 255 255 255
3 4 73 188 255 255 255
3 213 332 167 255 255 255
3 74 213 355 255 255 255
3 252 332 172 255 255 255
3 155 127 202 255 255 255
3 175 156 329 255 255 255
3 40 315 126 255 255 255
3 178 256 252 255 255 255
3 0 43 199 255 255 255
3 74 337 178 255 255 255
3 332 253 167 255 255 255
3 252 255 332 255 255 255
3 192 46 175 255 255 255
3 250 167 245 255 255 255
3 245 196 250 255 255 255
3 196 167 250 255 255 255
3 158 167 190 255 255 255
3 158 255 128 255 255 255
3 178 98 256 255 255 255
3 98 75 256 255 255 255
3 170 223 178 255 255 255
3 337 170 178 255 255 255
3 167 196 245 255 255 255
3 196 193 245 255 255 255
3 109 190 167 255 255 255
3 167 128 109 255 255 255
3 244 156 46 255 255 255
3 244 329 156 255 255 255
3 110 44 314 255 255 255
3 158 252 255 255 255 255
3 252 43 129 255 255 255
3 252 256 43 255 255 255
3 317 200 43 255 255 255
3 75 129 256 255 255 255
3 337 191 170 255 255 255
3 193 136 245 255 255 255
3 46 156 175 255 255 255
3 110 198 314 255 255 255
3 314 44 6 255 255 255
3 256 317 43 255 255 255
3 317 148 200 255 255 255
3 129 43 256 255 255 255
3 75 200 129 255 255 255
3 89 149 209 255 255 255
3 209 264 89 255 255 255
3 223 264 209 255 255 255
3 223 264 178 255 255 255
3 337 308 191 255 255 255
3 224 328 329 255 255 255
3 256 3 317 255 255 255
3 110 45 44 255 255 255
3 98 347 129 255 255 255
3 170 264 223 255 255 255
3 264 251 178 255 255 255
3 198 314 6 255 255 255
3 44 130 6 255 255 255
3 44 314 130 255 255 255
3 148 150 151 255 255 255
3 89 309 194 255 255 255
3 251 137 178 255 255 255
3 264 309 251 255 255 255
3 308 96 191 255 255 255
3 308 94 96 255 255 255
3 58 308 337 255 255 255
3 198 6 195 255 255 255
3 130 59 6 255 255 255
3 347 252 129 255 255 255
3 89 194 149 255 255 255
3 89 251 309 255 255 255
3 224 195 328 255 255 255
3 6 224 195 255 255 255
3 195 133 6 255 255 255
3 149 150 152 255 255 255
3 194 150 149 255 255 255
3 328 168 329 255 255 255
3 6 120 224 255 255 255
3 347 253 252 255 255 255
3 328 195 59 255 255 255
3 6 59 120 255 255 255
3 309 75 194 255 255 255
3 168 153 329 255 255 255
3 171 176 59 255 255 255
3 130 171 59 255 255 255
3 130 6 171 255 255 255
3 0 149 152 255 255 255
3 150 148 152 255 255 255
3 309 137 75 255 255 255
3 195 133 198 255 255 255
3 171 306 176 255 255 255
3 6 224 171 255 255 255
3 58 57 308 255 255 255
3 224 120 171 255 255 255
3 168 306 153 255 255 255
3 168 59 176 255 255 255
3 306 171 153 255 255 255
3 171 306 204 255 255 255
3 168 176 306 255 255 255
3 168 120 59 255 255 255
3 306 153 204 255 255 255
3 171 340 306 255 255 255
3 120 328 59 255 255 255
3 171 130 340 255 255 255
3 90 91 234 255 255 255
3 91 92 234 255 255 255
3 90 15 91 255 255 255
3 92 236 234 255 255 255
3 91 37 92 255 255 255
3 234 35 90 255 255 255
3 235 15 90 255 255 255
3 234 85 35 255 255 255
3 236 39 234 255 255 255
3 90 36 235 255 255 255
3 35 61 90 255 255 255
3 234 39 85 255 255 255
3 91 38 37 255 255 255
3 36 21 235 255 255 255
3 37 20 92 255 255 255
3 37 238 20 255 255 255
3 38 238 37 255 255 255
3 35 84 61 255 255 255
3 39 23 85 255 255 255
3 236 92 39 255 255 255
3 20 118 92 255 255 255
3 235 142 15 255 255 255
3 21 22 235 255 255 255
3 39 248 23 255 255 255
3 235 48 186 255 255 255
3 22 48 235 255 255 255
3 35 92 84 255 255 255
3 35 85 118 255 255 255
3 23 20 85 255 255 255
3 248 139 23 255 255 255
3 39 249 248 255 255 255
3 10 139 20 255 255 255
3 20 318 10 255 255 255
3 235 11 142 255 255 255
3 36 267 305 255 255 255
3 267 293 305 255 255 255
3 90 267 36 255 255 255
3 248 26 139 255 255 255
3 249 163 248 255 255 255
3 318 26 10 255 255 255
3 11 91 142 255 255 255
3 289 11 235 255 255 255
3 21 144 22 255 255 255
3 318 268 26 255 255 255
3 11 119 91 255 255 255
3 21 145 144 255 255 255
3 267 140 132 255 255 255
3 119 331 91 255 255 255
3 11 28 119 255 255 255
3 11 49 297 255 255 255
3 289 302 11 255 255 255
3 289 62 302 255 255 255
3 185 290 186 255 255 255
3 186 48 185 255 255 255
3 21 305 145 255 255 255
3 146 269 293 255 255 255
3 132 289 267 255 255 255
3 267 249 140 255 255 255
3 90 49 267 255 255 255
3 345 292 163 255 255 255
3 163 102 345 255 255 255
3 17 273 318 255 255 255
3 292 331 119 255 255 255
3 11 302 49 255 255 255
3 144 185 22 255 255 255
3 269 303 293 255 255 255
3 293 78 146 255 255 255
3 49 249 267 255 255 255
3 163 77 248 255 255 255
3 163 249 102 255 255 255
3 249 297 102 255 255 255
3 318 273 298 255 255 255
3 38 299 238 255 255 255
3 331 38 91 255 255 255
3 289 132 62 255 255 255
3 186 63 62 255 255 255
3 144 290 185 255 255 255
3 145 29 144 255 255 255
3 145 269 296 255 255 255
3 78 300 132 255 255 255
3 132 140 78 255 255 255
3 220 242 140 255 255 255
3 90 28 49 255 255 255
3 292 77 163 255 255 255
3 186 290 63 255 255 255
3 29 14 144 255 255 255
3 296 162 145 255 255 255
3 146 243 24 255 255 255
3 132 282 291 255 255 255
3 249 342 140 255 255 255
3 297 345 102 255 255 255
3 318 177 268 255 255 255
3 298 177 318 255 255 255
3 17 238 299 255 255 255
3 299 301 17 255 255 255
3 331 177 38 255 255 255
3 145 219 29 255 255 255
3 132 300 282 255 255 255
3 300 241 282 255 255 255
3 249 302 342 255 255 255
3 301 307 17 255 255 255
3 38 275 299 255 255 255
3 331 268 177 255 255 255
3 302 62 34 255 255 255
3 145 162 219 255 255 255
3 303 141 293 255 255 255
3 304 281 303 255 255 255
3 303 296 304 255 255 255
3 241 12 282 255 255 255
3 300 243 241 255 255 255
3 33 61 220 255 255 255
3 220 140 33 255 255 255
3 217 113 299 255 255 255
3 299 275 217 255 255 255
3 331 163 268 255 255 255
3 34 342 302 255 255 255
3 62 132 34 255 255 255
3 303 281 141 255 255 255
3 296 270 304 255 255 255
3 242 33 140 255 255 255
3 249 102 302 255 255 255
3 76 177 298 255 255 255
3 299 113 112 255 255 255
3 275 16 217 255 255 255
3 34 267 342 255 255 255
3 141 146 293 255 255 255
3 146 24 141 255 255 255
3 241 319 24 255 255 255
3 243 319 241 255 255 255
3 76 279 177 255 255 255
3 275 217 301 255 255 255
3 113 114 112 255 255 255
3 275 301 16 255 255 255
3 63 218 50 255 255 255
3 14 101 63 255 255 255
3 296 164 320 255 255 255
3 270 291 304 255 255 255
3 241 141 24 255 255 255
3 319 27 24 255 255 255
3 64 281 282 255 255 255
3 237 282 12 255 255 255
3 237 64 282 255 255 255
3 301 279 307 255 255 255
3 217 16 301 255 255 255
3 217 115 16 255 255 255
3 113 115 114 255 255 255
3 218 101 50 255 255 255
3 63 101 218 255 255 255
3 296 341 14 255 255 255
3 12 276 237 255 255 255
3 114 298 273 255 255 255
3 273 112 114 255 255 255
3 115 76 16 255 255 255
3 218 321 101 255 255 255
3 63 50 14 255 255 255
3 101 25 218 255 255 255
3 296 270 341 255 255 255
3 219 344 325 255 255 255
3 344 274 325 255 255 255
3 320 221 30 255 255 255
3 319 323 27 255 255 255
3 237 324 221 255 255 255
3 12 31 276 255 255 255
3 270 64 341 255 255 255
3 344 295 274 255 255 255
3 30 274 320 255 255 255
3 30 324 165 255 255 255
3 31 323 319 255 255 255
3 237 81 324 255 255 255
3 300 282 326 255 255 255
3 321 25 101 255 255 255
3 320 274 219 255 255 255
3 237 27 81 255 255 255
3 321 277 25 255 255 255
3 271 30 325 255 255 255
3 274 271 325 255 255 255
3 104 103 323 255 255 255
3 103 280 221 255 255 255
3 27 221 81 255 255 255
3 218 32 321 255 255 255
3 276 104 323 255 255 255
3 27 103 221 255 255 255
3 277 32 25 255 255 255
3 278 32 277 255 255 255
3 32 346 321 255 255 255
3 218 25 32 255 255 255
3 219 296 29 255 255 255
3 103 104 280 255 255 255
3 27 323 103 255 255 255
3 321 346 277 255 255 255
3 296 164 29 255 255 255
3 280 276 237 255 255 255
3 271 320 18 255 255 255
3 274 30 271 255 255 255
3 274 358 154 255 255 255
3 274 295 358 255 255 255
3 296 18 164 255 255 255
3 276 280 104 255 255 255
3 296 320 18 255 255 255
3 104 82 117 255 255 255
3 277 233 278 255 255 255
3 346 233 277 255 255 255
3 161 274 30 255 255 255
3 295 116 358 255 255 255
3 79 12 276 255 255 255
3 104 239 82 255 255 255
3 104 117 239 255 255 255
3 346 360 233 255 255 255
3 32 278 346 255 255 255
3 358 83 154 255 255 255
3 117 240 239 255 255 255
3 278 360 346 255 255 255
3 278 143 360 255 255 255
3 278 233 143 255 255 255
3 154 294 116 255 255 255
3 116 295 154 255 255 255
3 295 274 154 255 255 255
3 239 52 82 255 255 255
3 52 330 82 255 255 255
3 239 240 52 255 255 255
3 83 294 154 255 255 255
3 117 95 240 255 255 255
3 240 13 52 255 255 255
3 143 19 360 255 255 255
3 294 358 116 255 255 255
3 117 80 95 255 255 255
3 240 95 13 255 255 255
3 80 52 95 255 255 255
3 80 272 52 255 255 255
3 95 330 13 255 255 255
3 52 330 95 255 255 255
3 13 330 52 255 255 255
3 80 51 272 255 255 255
3 80 52 51 255 255 255
3 359 359 359 255 255 255
