ply
format ascii 1.0
element vertex 346
property float x
property float y
property float z
element face 576
property list uchar int vertex_indices
property uchar red
property uchar green
property uchar blue
end_header
4.07700014114379883 6.96099996566772461 -0.740000009536743164
4.20567035675048828 6.97986841201782227 -0.756369352340698242
4.18794775009155273 6.92224216461181641 -0.79646754264831543
4.13205146789550781 6.94777774810791016 -0.842032551765441895
4.11838102340698242 6.92379426956176758 -0.753678083419799805
4.12309455871582031 6.90632343292236328 -0.911928772926330566
4.13199996948242188 6.93800020217895508 -0.830999970436096191
4.15002775192260742 6.84761762619018555 -0.823482751846313477
4.11100006103515625 6.86100006103515625 -0.870000004768371582
4.08799982070922852 6.94700002670288086 -0.833999991416931152
4.21375656127929688 6.87451028823852539 -0.656744718551635742
4.08799982070922852 6.89799976348876953 -0.809000015258789062
4.14499998092651367 6.90999984741210938 -0.864000022411346436
4.1100001335144043 6.96500015258789062 -0.824999988079071045
4.11534738540649414 6.88562107086181641 -0.89230954647064209
4.1909184455871582 6.8516845703125 -0.691511213779449463
4.16264915466308594 6.96142196655273438 -0.784661054611206055
4.20635700225830078 6.97595119476318359 -0.732222557067871094
4.08199977874755859 6.90899991989135742 -0.834999978542327881
4.11899995803833008 6.93800020217895508 -0.768000006675720215
3.98299050331115723 7.00432634353637695 -0.721149265766143799
3.98282217979431152 7.01269721984863281 -0.691762089729309082
3.96785235404968262 7.00115680694580078 -0.774964570999145508
3.97399997711181641 7.04500007629394531 -0.804000020027160645
3.97993755340576172 7.02975559234619141 -0.757533848285675049
3.97927093505859375 7.0029749870300293 -0.669927477836608887
3.98793697357177734 7.02220678329467773 -0.911213219165802002
3.99631881713867188 7.04876375198364258 -0.697629451751708984
3.99512267112731934 7.03993797302246094 -0.747246026992797852
3.98367619514465332 7.01550817489624023 -0.823580503463745117
3.9719998836517334 6.89900016784667969 -0.855000019073486328
3.85294747352600098 6.91251897811889648 -0.731830120086669922
4.10500001907348633 6.89699983596801758 -0.864000022411346436
4.06143617630004883 6.92873811721801758 -0.768335580825805664
4.08119821548461914 6.98755264282226562 -0.81007993221282959
4.09000015258789062 6.93499994277954102 -0.828999996185302734
4.15548849105834961 6.93158483505249023 -0.882757842540740967
4.19601678848266602 6.89451456069946289 -0.697948098182678223
4.14597892761230469 6.91976499557495117 -0.839220702648162842
4.13599967956542969 6.93938255310058594 -0.792362511157989502
4.13215160369873047 6.82605552673339844 -0.799053490161895752
4.10527896881103516 6.91771650314331055 -0.776858270168304443
4.07559633255004883 6.91543817520141602 -0.798975050449371338
3.90499997138977051 6.99300003051757812 -0.638999998569488525
3.83800005912780762 6.9439997673034668 -0.597000002861022949
3.93752765655517578 6.75549077987670898 -0.867834627628326416
3.83299994468688965 6.8060002326965332 -0.901000022888183594
3.94258618354797363 6.86339712142944336 -0.858361303806304932
3.92380070686340332 6.87233781814575195 -0.866051912307739258
3.99689054489135742 6.94881486892700195 -0.808534741401672363
3.96499991416931152 6.87699985504150391 -0.810000002384185791
3.94929194450378418 6.88627862930297852 -0.887266993522644043
3.94385743141174316 6.88539886474609375 -0.830309748649597168
3.90839624404907227 6.78098821640014648 -0.897885501384735107
3.83223271369934082 6.91074848175048828 -0.837616384029388428
3.83241868019104004 6.94749832153320312 -0.817370831966400146
3.94075179100036621 6.92501211166381836 -0.826304852962493896
4.21613693237304688 6.96017122268676758 -0.711115479469299316
4.17003202438354492 6.9785161018371582 -0.774123549461364746
4.19519281387329102 6.99838733673095703 -0.659533202648162842
4.07898616790771484 6.90871667861938477 -0.746496140956878662
4.10535526275634766 6.93510055541992188 -0.738319337368011475
4.07100009918212891 6.92600011825561523 -0.739000022411346436
4.08489274978637695 6.92694234848022461 -0.706461608409881592
4.19380617141723633 6.88587808609008789 -0.812720715999603271
4.0970001220703125 6.89099979400634766 -0.856999993324279785
4.13850688934326172 6.92430496215820312 -0.788614153861999512
4.00309038162231445 7.03772640228271484 -0.640291213989257812
4.08305978775024414 7.08277654647827148 -0.538664460182189941
4.06103801727294922 7.01113224029541016 -0.740879654884338379
4.01965999603271484 7.04989290237426758 -0.51097869873046875
4.04500007629394531 7.08099985122680664 -0.513000011444091797
4.08445549011230469 6.94497346878051758 -0.858033537864685059
4.21120977401733398 6.87506818771362305 -0.792769312858581543
4.18251323699951172 6.96099615097045898 -0.866547942161560059
4.08764505386352539 6.80807590484619141 -0.721894621849060059
4.04199981689453125 7.09000015258789062 -0.535000026226043701
4.10099983215332031 6.93599987030029297 -0.722000002861022949
3.95745491981506348 6.7942662239074707 -0.884501099586486816
3.96655392646789551 6.75433254241943359 -0.853112339973449707
3.80954980850219727 6.730987548828125 -0.960075259208679199
3.82490444183349609 6.92261791229248047 -0.824821829795837402
3.95000004768371582 6.94899988174438477 -0.856999993324279785
3.96009278297424316 6.98014307022094727 -0.866947770118713379
3.81719684600830078 6.97369527816772461 -0.755946993827819824
3.72300004959106445 6.74300003051757812 -0.978999972343444824
4.08500003814697266 6.93300008773803711 -0.80699998140335083
4.11800003051757812 6.97399997711181641 -0.819999992847442627
4.11600017547607422 6.93499994277954102 -0.767000019550323486
4.03200006484985352 7.05800008773803711 -0.620999991893768311
3.9839625358581543 6.76699590682983398 -0.879001438617706299
3.84299993515014648 6.94500017166137695 -0.80699998140335083
3.91528606414794922 6.90151786804199219 -0.847715198993682861
3.89400005340576172 6.95399999618530273 -0.602999985218048096
3.95120549201965332 6.97916221618652344 -0.655785143375396729
3.96099996566772461 6.95800018310546875 -0.879000008106231689
3.86252713203430176 6.98482418060302734 -0.689896166324615479
3.69600009918212891 6.72100019454956055 -1.00399994850158691
3.68499994277954102 6.72700023651123047 -1.00399994850158691
3.78699994087219238 6.64400005340576172 -1.01600003242492676
3.69000005722045898 6.7220001220703125 -1.00300002098083496
3.7717278003692627 6.66320037841796875 -1.00917470455169678
3.96955657005310059 6.91430091857910156 -0.793084144592285156
3.81500005722045898 6.92199993133544922 -0.851999998092651367
3.9590001106262207 6.96199989318847656 -0.871999979019165039
3.88299989700317383 6.98000001907348633 -0.740000009536743164
3.83189940452575684 6.95670557022094727 -0.704326391220092773
3.87348365783691406 6.95970726013183594 -0.720242023468017578
3.86235308647155762 6.96514368057250977 -0.658681631088256836
3.80376768112182617 6.99365854263305664 -0.561164140701293945
3.82454514503479004 6.9232025146484375 -0.652380704879760742
3.78738999366760254 6.88649082183837891 -0.620828628540039062
3.82299995422363281 6.93699979782104492 -0.824000000953674316
3.8469998836517334 6.97800016403198242 -0.800999999046325684
3.73099994659423828 6.77899980545043945 -0.959999978542327881
3.72112417221069336 6.78203535079956055 -0.975573718547821045
3.83999991416931152 6.93599987030029297 -0.597000002861022949
3.80751252174377441 6.76569175720214844 -0.947083830833435059
3.84400010108947754 6.93200016021728516 -0.740000009536743164
3.69199991226196289 6.75099992752075195 -0.972000002861022949
3.78478527069091797 6.93661165237426758 -0.581827938556671143
3.93100714683532715 6.97700262069702148 -0.815734803676605225
4.07899999618530273 7.00099992752075195 -0.800000011920928955
4.08900022506713867 7.00699996948242188 -0.736000001430511475
4.00099992752075195 7.00699996948242188 -0.880999982357025146
4.03588151931762695 7.00602293014526367 -0.67488396167755127
4.03403139114379883 7.01075506210327148 -0.519482016563415527
4.04600000381469727 7.07899999618530273 -0.522000014781951904
4.05238056182861328 7.06321907043457031 -0.67933952808380127
4.06871271133422852 7.07486104965209961 -0.595036506652832031
3.89362263679504395 6.94751119613647461 -0.886435270309448242
4.01929903030395508 7.07810020446777344 -0.690529048442840576
3.8322145938873291 6.87627553939819336 -0.606233358383178711
3.69922709465026855 6.77358007431030273 -0.960426568984985352
3.94199991226196289 6.85099983215332031 -0.809000015258789062
3.87199997901916504 6.8600001335144043 -0.884999990463256836
3.6832282543182373 6.8679652214050293 -0.957006692886352539
3.84599995613098145 7 -0.68900001049041748
3.87276554107666016 7.04848051071166992 -0.794360518455505371
3.80761456489562988 6.93980264663696289 -0.688406169414520264
3.86540603637695312 6.98261547088623047 -0.863827645778656006
3.85599994659423828 6.94700002670288086 -0.597999989986419678
3.88899993896484375 6.97800016403198242 -0.65700000524520874
3.82800006866455078 6.78200006484985352 -0.913999974727630615
4.00027942657470703 6.87486934661865234 -0.82675325870513916
4.19638252258300781 6.94599437713623047 -0.822910904884338379
4.19070720672607422 6.96327304840087891 -0.747345566749572754
3.87680935859680176 7.02823209762573242 -0.795745909214019775
3.88299989700317383 7.02699995040893555 -0.667999982833862305
3.85634183883666992 7.0275578498840332 -0.684170305728912354
3.94587254524230957 7.00165033340454102 -0.684117138385772705
3.880096435546875 7.00023555755615234 -0.68488311767578125
3.98600006103515625 7.01800012588500977 -0.629999995231628418
3.84467101097106934 7.04938840866088867 -0.610740900039672852
3.87517189979553223 7.04433727264404297 -0.560649573802947998
3.99699997901916504 7.02899980545043945 -0.769999980926513672
3.90660762786865234 7.01464509963989258 -0.857383608818054199
4.05682802200317383 7.1252288818359375 -0.492207735776901245
4.02899980545043945 7.06300020217895508 -0.587999999523162842
4.05868005752563477 7.09859657287597656 -0.540010631084442139
4.05499982833862305 7.09000015258789062 -0.537000000476837158
4.04500007629394531 7.09100008010864258 -0.523000001907348633
4.06284189224243164 7.08585214614868164 -0.504791736602783203
4.02768468856811523 7.01086139678955078 -0.489336788654327393
4.02367877960205078 7.0792241096496582 -0.497168123722076416
4.0329432487487793 7.10846805572509766 -0.478683531284332275
4.07615327835083008 7.01345586776733398 -0.759501218795776367
3.97807788848876953 6.99449062347412109 -0.891295552253723145
3.99294567108154297 6.99979591369628906 -0.903709530830383301
3.89389252662658691 6.83036613464355469 -0.901504874229431152
3.85379624366760254 6.96725130081176758 -0.725450396537780762
3.98371624946594238 6.98971223831176758 -0.633319735527038574
3.85100007057189941 6.94199991226196289 -0.597000002861022949
3.69099998474121094 6.75500011444091797 -0.968999981880187988
3.94746136665344238 6.9580073356628418 -0.93117988109588623
3.98895931243896484 6.9872136116027832 -0.523616433143615723
4.09299993515014648 6.89699983596801758 -0.823000013828277588
4.10676479339599609 6.86009025573730469 -0.797330915927886963
3.8900001049041748 7.0149998664855957 -0.799000024795532227
3.97771477699279785 7.00503206253051758 -0.854964852333068848
3.94019222259521484 7.03972911834716797 -0.801002264022827148
3.95799994468688965 7.02199983596801758 -0.890999972820281982
3.89299988746643066 7.01800012588500977 -0.762000024318695068
3.87733888626098633 7.03513956069946289 -0.640165030956268311
3.97799992561340332 7.00500011444091797 -0.597000002861022949
3.96900010108947754 7.0279998779296875 -0.666000008583068848
3.97399067878723145 7.02018117904663086 -0.708302617073059082
3.84391331672668457 7.02665090560913086 -0.571122825145721436
3.77922725677490234 6.74369621276855469 -0.98803478479385376
3.94799995422363281 6.9869999885559082 -0.823000013828277588
3.90599989891052246 6.78700017929077148 -0.892000019550323486
3.89871525764465332 6.85462331771850586 -0.867278397083282471
3.987945556640625 6.98857355117797852 -0.509213507175445557
3.95300006866455078 6.88700008392333984 -0.869000017642974854
3.84546327590942383 6.99413824081420898 -0.772911608219146729
3.85599994659423828 6.96700000762939453 -0.685000002384185791
3.85899996757507324 6.97300004959106445 -0.615999996662139893
3.85700011253356934 6.98099994659423828 -0.591000020503997803
3.97922801971435547 6.99212265014648438 -0.570627868175506592
4.05900001525878906 6.9310002326965332 -0.746999979019165039
3.94300007820129395 7.00400018692016602 -0.897000014781951904
3.8896334171295166 7.00632524490356445 -0.788950026035308838
3.95300006866455078 7.00299978256225586 -0.857999980449676514
3.89700007438659668 7.03200006484985352 -0.777999997138977051
3.9570000171661377 7.00500011444091797 -0.839999973773956299
3.93109750747680664 7.01022052764892578 -0.769197285175323486
3.90046501159667969 7.02882528305053711 -0.698684155941009521
3.90668034553527832 7.024383544921875 -0.723256230354309082
3.90453577041625977 7.00306797027587891 -0.607264161109924316
3.87400007247924805 7.01900005340576172 -0.712999999523162842
3.83538103103637695 6.94673490524291992 -0.780540704727172852
3.88687920570373535 6.96863555908203125 -0.737933635711669922
3.82100009918212891 6.9310002326965332 -0.575999975204467773
3.7167508602142334 6.79217863082885742 -0.957530498504638672
3.83385419845581055 6.73425531387329102 -0.954261064529418945
3.72670745849609375 6.85211181640625 -0.926529169082641602
3.68799996376037598 6.77500009536743164 -0.967000007629394531
4.18460702896118164 6.96526384353637695 -0.79995650053024292
4.07624721527099609 6.94543886184692383 -0.783205687999725342
4.16321468353271484 6.99208974838256836 -0.875376403331756592
3.88348913192749023 6.95670080184936523 -0.916285216808319092
3.87193703651428223 6.93216943740844727 -0.786675870418548584
3.83912467956542969 6.99806022644042969 -0.640556991100311279
3.87599992752075195 6.97800016403198242 -0.686999976634979248
3.85648846626281738 6.99393796920776367 -0.575189054012298584
3.9970097541809082 6.99602222442626953 -0.546619594097137451
3.99297046661376953 6.91656208038330078 -0.837814986705780029
3.92711210250854492 6.96289253234863281 -0.616331279277801514
3.82800006866455078 6.92100000381469727 -0.607999980449676514
3.74904537200927734 6.82027578353881836 -0.943226993083953857
4.19686460494995117 6.95108604431152344 -0.665472865104675293
4.06539583206176758 6.99776697158813477 -0.753716826438903809
4.07872772216796875 6.97620725631713867 -0.787985682487487793
4.0911860466003418 6.93585109710693359 -0.639200091361999512
4.08199977874755859 6.93400001525878906 -0.819000005722045898
4.1119999885559082 6.87799978256225586 -0.878000020980834961
4.13132524490356445 6.92217350006103516 -0.866004705429077148
4.09216976165771484 6.93190479278564453 -0.769887447357177734
4.10538101196289062 6.92465734481811523 -0.705739974975585938
4.08300018310546875 6.96299982070922852 -0.799000024795532227
4.086029052734375 6.90675973892211914 -0.718708515167236328
4.18300008773803711 6.89099979400634766 -0.740000009536743164
4.11785364151000977 6.84218406677246094 -0.837790369987487793
4.14741849899291992 6.84322881698608398 -0.747901797294616699
3.9824821949005127 6.91327524185180664 -0.765970349311828613
3.84599995613098145 6.97599983215332031 -0.580999970436096191
3.7888786792755127 6.75803232192993164 -0.977273106575012207
3.89461255073547363 6.98964262008666992 -0.880087971687316895
3.95320034027099609 6.98814010620117188 -0.848694682121276855
3.87636494636535645 6.96095371246337891 -0.64257204532623291
3.80395793914794922 6.92474985122680664 -0.595016837120056152
3.96300005912780762 6.7649998664855957 -0.883000016212463379
3.8242943286895752 6.95879220962524414 -0.574582219123840332
4.17246723175048828 6.85586309432983398 -0.804825127124786377
4.22478342056274414 6.99326086044311523 -0.658397495746612549
4.08383369445800781 6.90963220596313477 -0.630289375782012939
4.0801091194152832 6.96574687957763672 -0.852290451526641846
3.83586764335632324 6.93871164321899414 -0.725813925266265869
3.90942597389221191 6.78248405456542969 -0.887435972690582275
3.92280483245849609 6.96645927429199219 -0.667918503284454346
3.86400008201599121 6.9720001220703125 -0.810000002384185791
3.81812739372253418 6.95660495758056641 -0.619963228702545166
4.0100560188293457 7.01792383193969727 -0.845186889171600342
4.01005315780639648 7.03773927688598633 -0.814779996871948242
4.00046491622924805 7.01243734359741211 -0.635920405387878418
4.01631498336791992 7.03550148010253906 -0.740891516208648682
4.02991199493408203 7.02795028686523438 -0.692396283149719238
4.00195932388305664 7.01997518539428711 -0.660056710243225098
4.03076505661010742 7.04195117950439453 -0.604436635971069336
4.00860309600830078 7.01540899276733398 -0.561063408851623535
4.03299999237060547 7.0279998779296875 -0.652999997138977051
4.04595470428466797 7.06823158264160156 -0.62647634744644165
4.18401384353637695 6.87972164154052734 -0.858338356018066406
3.97867202758789062 6.99902009963989258 -0.819458484649658203
3.85086226463317871 6.96975517272949219 -0.815489053726196289
3.69799995422363281 6.74599981307983398 -0.986999988555908203
4.21538305282592773 6.97130870819091797 -0.64557957649230957
4.05257654190063477 6.92526578903198242 -0.744949221611022949
4.15833902359008789 6.84956455230712891 -0.752045273780822754
4.15363693237304688 6.88311624526977539 -0.783626079559326172
4.20621395111083984 6.89484262466430664 -0.722126483917236328
4.19590282440185547 6.95780801773071289 -0.715209245681762695
4.12870645523071289 6.90435218811035156 -0.810438036918640137
4.13676357269287109 6.89077043533325195 -0.895513534545898438
4.19904756546020508 6.91463041305541992 -0.710584044456481934
4.19938325881958008 6.97794723510742188 -0.681470096111297607
4.09399986267089844 6.89599990844726562 -0.736000001430511475
4.12200021743774414 6.88000011444091797 -0.880999982357025146
3.98530387878417969 6.9596867561340332 -0.841485321521759033
3.94830703735351562 6.85484838485717773 -0.872999310493469238
3.98244905471801758 6.97921991348266602 -0.870965361595153809
3.98830771446228027 6.93281173706054688 -0.865027070045471191
3.6932523250579834 6.82845592498779297 -0.96412503719329834
3.69799995422363281 6.7649998664855957 -0.959999978542327881
3.99126267433166504 6.98755073547363281 -0.49824988842010498
3.98300004005432129 6.98299980163574219 -0.864000022411346436
3.96962141990661621 6.918731689453125 -0.89701378345489502
3.90793824195861816 6.91747140884399414 -0.783259153366088867
3.92323541641235352 6.97545051574707031 -0.696929872035980225
3.9806363582611084 6.98251724243164062 -0.597551047801971436
3.99233698844909668 6.9966883659362793 -0.527519404888153076
3.97231435775756836 6.9170832633972168 -0.814964711666107178
3.71315169334411621 6.85657167434692383 -0.933424174785614014
3.80953097343444824 6.90978622436523438 -0.853796660900115967
3.86467695236206055 6.98506546020507812 -0.915491044521331787
3.65668487548828125 6.89140033721923828 -0.959867894649505615
4.09003877639770508 7.07760810852050781 -0.573886454105377197
4.05700016021728516 7.07999992370605469 -0.597000002861022949
4.03631401062011719 7.04182291030883789 -0.493400424718856812
4.04335880279541016 7.07398557662963867 -0.566347181797027588
4.05999994277954102 7.09000015258789062 -0.55699998140335083
3.92145323753356934 6.92605352401733398 -0.79209744930267334
3.96273255348205566 6.88580465316772461 -0.762269258499145508
3.95102596282958984 6.86629199981689453 -0.835899472236633301
3.97900009155273438 6.98799991607666016 -0.888000011444091797
3.9137418270111084 6.99680089950561523 -0.736838161945343018
3.89106845855712891 6.87956571578979492 -0.884596586227416992
3.8900001049041748 6.82100009918212891 -0.876999974250793457
3.95447635650634766 6.75422143936157227 -0.905552268028259277
3.78636479377746582 6.67763710021972656 -0.993010520935058594
3.95199990272521973 6.97100019454956055 -0.86799997091293335
4.09215593338012695 6.88414764404296875 -0.812148690223693848
3.94899988174438477 6.77299976348876953 -0.870000004768371582
3.72043180465698242 6.76237201690673828 -0.963156819343566895
3.91499996185302734 6.93699979782104492 -0.745000004768371582
3.88011527061462402 6.99310970306396484 -0.853479743003845215
3.95327329635620117 6.96914005279541016 -0.707918286323547363
4.19387483596801758 6.87077093124389648 -0.745942652225494385
4.18438434600830078 6.88208436965942383 -0.646966040134429932
3.90100002288818359 6.84100008010864258 -0.861000001430511475
3.86684918403625488 6.97317647933959961 -0.831004321575164795
3.8190000057220459 6.9439997673034668 -0.832000017166137695
3.90059566497802734 6.81493186950683594 -0.84787064790725708
3.86807894706726074 6.93915557861328125 -0.75386279821395874
3.93261861801147461 6.92977333068847656 -0.73412322998046875
3.95473980903625488 6.78438949584960938 -0.900146365165710449
3.8897712230682373 6.93801975250244141 -0.833239734172821045
3.92981863021850586 6.99570751190185547 -0.888815701007843018
3.94750690460205078 6.99333810806274414 -0.850850701332092285
1 1 1
3.75392365455627441 6.76507043838500977 -0.969082653522491455
3.81200003623962402 6.90700006484985352 -0.596000015735626221
3.85199999809265137 6.9590001106262207 -0.694999992847442627
3.94899129867553711 6.92623090744018555 -0.882319509983062744
3.92899990081787109 6.89300012588500977 -0.84299999475479126
3.82560014724731445 6.80821084976196289 -0.906099379062652588
3 312 50 144 255 255 255
3 144 244 312 255 255 255
3 50 244 144 255 255 255
3 144 313 50 255 255 255
3 226 49 244 255 255 255
3 50 301 244 255 255 255
3 313 301 50 255 255 255
3 312 301 50 255 255 255
3 244 144 226 255 255 255
3 244 334 312 255 255 255
3 301 49 226 255 255 255
3 313 52 301 255 255 255
3 313 50 52 255 255 255
3 312 311 301 255 255 255
3 226 288 301 255 255 255
3 144 51 226 255 255 255
3 47 313 144 255 255 255
3 48 289 47 255 255 255
3 313 134 50 255 255 255
3 49 20 244 255 255 255
3 226 291 288 255 255 255
3 226 296 291 255 255 255
3 51 296 226 255 255 255
3 52 56 301 255 255 255
3 47 289 313 255 255 255
3 312 334 311 255 255 255
3 244 20 334 255 255 255
3 288 290 49 255 255 255
3 301 291 49 255 255 255
3 289 51 313 255 255 255
3 47 78 289 255 255 255
3 47 92 48 255 255 255
3 262 22 49 255 255 255
3 262 263 22 255 255 255
3 290 262 49 255 255 255
3 288 248 301 255 255 255
3 291 290 288 255 255 255
3 296 174 291 255 255 255
3 289 48 51 255 255 255
3 48 92 191 255 255 255
3 47 193 92 255 255 255
3 297 221 311 255 255 255
3 311 324 297 255 255 255
3 20 326 334 255 255 255
3 49 22 20 255 255 255
3 290 179 262 255 255 255
3 92 343 56 255 255 255
3 56 344 92 255 255 255
3 191 329 48 255 255 255
3 47 30 193 255 255 255
3 311 336 56 255 255 255
3 221 336 311 255 255 255
3 297 333 221 255 255 255
3 324 311 334 255 255 255
3 248 121 301 255 255 255
3 288 273 248 255 255 255
3 291 174 290 255 255 255
3 51 92 296 255 255 255
3 102 311 56 255 255 255
3 343 291 56 255 255 255
3 344 313 92 255 255 255
3 56 313 344 255 255 255
3 169 289 78 255 255 255
3 332 45 78 255 255 255
3 92 336 130 255 255 255
3 333 210 221 255 255 255
3 334 333 297 255 255 255
3 290 124 179 255 255 255
3 290 26 124 255 255 255
3 301 121 102 255 255 255
3 290 26 168 255 255 255
3 291 301 56 255 255 255
3 296 193 343 255 255 255
3 335 53 78 255 255 255
3 336 92 56 255 255 255
3 221 81 336 255 255 255
3 211 315 334 255 255 255
3 21 25 20 255 255 255
3 20 266 21 255 255 255
3 22 24 20 255 255 255
3 273 180 22 255 255 255
3 130 174 296 255 255 255
3 296 343 130 255 255 255
3 343 30 291 255 255 255
3 53 169 78 255 255 255
3 301 102 56 255 255 255
3 81 54 336 255 255 255
3 211 315 105 255 255 255
3 20 25 326 255 255 255
3 23 24 263 255 255 255
3 262 29 263 255 255 255
3 273 121 248 255 255 255
3 343 92 130 255 255 255
3 90 251 335 255 255 255
3 335 78 90 255 255 255
3 78 322 79 255 255 255
3 210 91 221 255 255 255
3 333 31 210 255 255 255
3 21 267 25 255 255 255
3 20 265 266 255 255 255
3 273 23 180 255 255 255
3 24 28 263 255 255 255
3 220 337 174 255 255 255
3 335 318 53 255 255 255
3 90 78 251 255 255 255
3 79 90 78 255 255 255
3 322 45 79 255 255 255
3 332 258 45 255 255 255
3 332 258 169 255 255 255
3 81 303 54 255 255 255
3 210 55 91 255 255 255
3 25 125 264 255 255 255
3 21 20 27 255 255 255
3 24 263 155 255 255 255
3 263 24 265 255 255 255
3 167 181 26 255 255 255
3 167 337 181 255 255 255
3 26 314 167 255 255 255
3 121 205 201 255 255 255
3 220 247 337 255 255 255
3 336 140 130 255 255 255
3 169 316 191 255 255 255
3 78 45 251 255 255 255
3 329 332 169 255 255 255
3 169 190 317 255 255 255
3 330 140 336 255 255 255
3 210 257 84 255 255 255
3 333 257 31 255 255 255
3 315 194 201 255 255 255
3 25 264 326 255 255 255
3 25 266 125 255 255 255
3 27 266 21 255 255 255
3 20 263 265 255 255 255
3 28 265 20 255 255 255
3 22 326 205 255 255 255
3 29 273 179 255 255 255
3 24 20 265 255 255 255
3 201 203 178 255 255 255
3 121 338 189 255 255 255
3 220 304 247 255 255 255
3 220 174 130 255 255 255
3 130 140 220 255 255 255
3 316 51 191 255 255 255
3 317 191 169 255 255 255
3 318 45 53 255 255 255
3 258 53 45 255 255 255
3 190 53 258 255 255 255
3 303 103 54 255 255 255
3 81 331 303 255 255 255
3 55 112 81 255 255 255
3 81 91 55 255 255 255
3 31 118 210 255 255 255
3 333 118 257 255 255 255
3 201 182 315 255 255 255
3 264 94 326 255 255 255
3 265 27 266 255 255 255
3 326 315 205 255 255 255
3 167 202 179 255 255 255
3 167 337 202 255 255 255
3 273 295 179 255 255 255
3 29 22 273 255 255 255
3 24 20 28 255 255 255
3 314 83 167 255 255 255
3 201 182 203 255 255 255
3 191 135 169 255 255 255
3 103 81 54 255 255 255
3 331 112 55 255 255 255
3 55 274 331 255 255 255
3 210 113 55 255 255 255
3 31 257 118 255 255 255
3 326 298 315 255 255 255
3 298 324 315 255 255 255
3 201 178 182 255 255 255
3 326 259 298 255 255 255
3 266 270 125 255 255 255
3 202 204 179 255 255 255
3 273 288 295 255 255 255
3 337 247 174 255 255 255
3 330 121 201 255 255 255
3 201 260 330 255 255 255
3 338 204 189 255 255 255
3 318 251 45 255 255 255
3 330 325 140 255 255 255
3 274 330 331 255 255 255
3 55 91 274 255 255 255
3 84 113 210 255 255 255
3 257 84 118 255 255 255
3 194 113 201 255 255 255
3 259 249 298 255 255 255
3 94 227 259 255 255 255
3 326 227 259 255 255 255
3 20 266 27 255 255 255
3 203 207 205 255 255 255
3 337 338 202 255 255 255
3 337 95 320 255 255 255
3 314 95 83 255 255 255
3 260 336 330 255 255 255
3 204 248 189 255 255 255
3 83 295 338 255 255 255
3 338 320 83 255 255 255
3 274 260 330 255 255 255
3 84 96 170 255 255 255
3 139 106 84 255 255 255
3 257 139 84 255 255 255
3 259 150 94 255 255 255
3 326 94 227 255 255 255
3 267 268 264 255 255 255
3 205 207 315 255 255 255
3 337 181 200 255 255 255
3 95 104 320 255 255 255
3 314 290 95 255 255 255
3 83 104 295 255 255 255
3 140 247 304 255 255 255
3 140 325 247 255 255 255
3 194 105 170 255 255 255
3 25 171 94 255 255 255
3 264 269 171 255 255 255
3 104 82 320 255 255 255
3 170 194 84 255 255 255
3 257 106 139 255 255 255
3 105 107 170 255 255 255
3 264 268 269 255 255 255
3 267 271 268 255 255 255
3 266 131 128 255 255 255
3 206 298 315 255 255 255
3 315 207 206 255 255 255
3 325 337 156 255 255 255
3 139 222 106 255 255 255
3 94 227 171 255 255 255
3 25 264 171 255 255 255
3 268 271 89 255 255 255
3 206 150 298 255 255 255
3 106 195 96 255 255 255
3 222 96 106 255 255 255
3 257 342 106 255 255 255
3 107 257 170 255 255 255
3 259 94 298 255 255 255
3 249 259 208 255 255 255
3 259 227 208 255 255 255
3 171 264 94 255 255 255
3 269 299 171 255 255 255
3 269 225 299 255 255 255
3 270 128 271 255 255 255
3 271 267 270 255 255 255
3 128 131 271 255 255 255
3 207 209 206 255 255 255
3 222 137 96 255 255 255
3 139 110 261 255 255 255
3 257 107 342 255 255 255
3 96 207 298 255 255 255
3 108 298 249 255 255 255
3 108 259 298 255 255 255
3 249 141 108 255 255 255
3 208 224 249 255 255 255
3 268 129 269 255 255 255
3 129 126 269 255 255 255
3 129 268 271 255 255 255
3 131 67 271 255 255 255
3 206 148 150 255 255 255
3 209 149 206 255 255 255
3 96 223 170 255 255 255
3 137 151 96 255 255 255
3 222 149 137 255 255 255
3 139 261 222 255 255 255
3 107 170 342 255 255 255
3 207 315 298 255 255 255
3 96 209 207 255 255 255
3 223 298 108 255 255 255
3 108 195 223 255 255 255
3 141 172 108 255 255 255
3 224 196 249 255 255 255
3 269 126 225 255 255 255
3 268 307 309 255 255 255
3 271 307 129 255 255 255
3 148 151 150 255 255 255
3 206 149 148 255 255 255
3 149 183 148 255 255 255
3 137 209 151 255 255 255
3 195 222 96 255 255 255
3 107 211 170 255 255 255
3 267 25 150 255 255 255
3 150 21 267 255 255 255
3 94 150 298 255 255 255
3 195 342 223 255 255 255
3 222 96 108 255 255 255
3 172 116 108 255 255 255
3 299 184 269 255 255 255
3 306 68 129 255 255 255
3 307 306 129 255 255 255
3 149 222 183 255 255 255
3 222 153 183 255 255 255
3 261 110 111 255 255 255
3 25 185 150 255 255 255
3 267 264 25 255 255 255
3 150 186 21 255 255 255
3 225 300 175 255 255 255
3 129 308 126 255 255 255
3 148 149 151 255 255 255
3 261 111 250 255 255 255
3 93 249 227 255 255 255
3 300 294 175 255 255 255
3 225 126 300 255 255 255
3 308 163 126 255 255 255
3 309 308 268 255 255 255
3 310 159 306 255 255 255
3 67 152 268 255 255 255
3 108 142 151 255 255 255
3 151 96 108 255 255 255
3 109 222 261 255 255 255
3 261 120 109 255 255 255
3 250 120 261 255 255 255
3 110 132 111 255 255 255
3 110 228 132 255 255 255
3 198 225 175 255 255 255
3 175 300 198 255 255 255
3 300 192 294 255 255 255
3 68 162 129 255 255 255
3 68 127 162 255 255 255
3 158 271 268 255 255 255
3 159 68 306 255 255 255
3 309 70 308 255 255 255
3 310 160 309 255 255 255
3 152 264 268 255 255 255
3 67 185 152 255 255 255
3 142 150 151 255 255 255
3 153 208 183 255 255 255
3 222 187 153 255 255 255
3 300 269 198 255 255 255
3 175 192 300 255 255 255
3 294 163 175 255 255 255
3 129 162 308 255 255 255
3 68 161 127 255 255 255
3 159 162 68 255 255 255
3 160 76 309 255 255 255
3 310 68 160 255 255 255
3 159 161 162 255 255 255
3 152 184 264 255 255 255
3 67 131 185 255 255 255
3 150 94 151 255 255 255
3 142 43 150 255 255 255
3 208 43 183 255 255 255
3 153 154 208 255 255 255
3 222 109 187 255 255 255
3 120 252 109 255 255 255
3 228 116 132 255 255 255
3 161 71 127 255 255 255
3 158 309 271 255 255 255
3 160 127 76 255 255 255
3 161 157 162 255 255 255
3 43 94 150 255 255 255
3 120 250 252 255 255 255
3 111 132 250 255 255 255
3 116 212 132 255 255 255
3 228 44 116 255 255 255
3 94 171 299 255 255 255
3 162 164 308 255 255 255
3 109 224 187 255 255 255
3 250 212 252 255 255 255
3 120 341 250 255 255 255
3 341 228 250 255 255 255
3 163 175 126 255 255 255
3 164 70 308 255 255 255
3 154 224 208 255 255 255
3 224 154 187 255 255 255
3 252 245 109 255 255 255
3 175 294 126 255 255 255
3 163 192 175 255 255 255
3 252 44 245 255 255 255
3 164 157 165 255 255 255
3 245 197 224 255 255 255
3 44 172 245 255 255 255
3 164 71 70 255 255 255
3 165 162 157 255 255 255
3 224 141 93 255 255 255
3 145 217 2 255 255 255
3 2 64 145 255 255 255
3 2 73 64 255 255 255
3 217 146 2 255 255 255
3 73 272 64 255 255 255
3 2 327 73 255 255 255
3 217 58 146 255 255 255
3 272 253 64 255 255 255
3 217 16 58 255 255 255
3 146 16 2 255 255 255
3 74 217 145 255 255 255
3 253 73 64 255 255 255
3 272 36 253 255 255 255
3 327 280 15 255 255 255
3 2 241 327 255 255 255
3 74 219 217 255 255 255
3 253 279 73 255 255 255
3 73 278 253 255 255 255
3 146 1 17 255 255 255
3 253 7 279 255 255 255
3 272 283 36 255 255 255
3 253 272 73 255 255 255
3 73 279 278 255 255 255
3 15 278 327 255 255 255
3 16 146 58 255 255 255
3 17 57 281 255 255 255
3 272 7 283 255 255 255
3 253 40 7 255 255 255
3 278 279 327 255 255 255
3 279 253 327 255 255 255
3 280 284 15 255 255 255
3 281 285 17 255 255 255
3 17 285 57 255 255 255
3 282 41 39 255 255 255
3 16 6 39 255 255 255
3 282 66 279 255 255 255
3 282 39 66 255 255 255
3 283 5 36 255 255 255
3 253 278 40 255 255 255
3 279 40 253 255 255 255
3 15 284 10 255 255 255
3 284 37 10 255 255 255
3 285 1 17 255 255 255
3 57 285 281 255 255 255
3 17 58 285 255 255 255
3 58 17 1 255 255 255
3 6 282 39 255 255 255
3 16 38 6 255 255 255
3 74 36 219 255 255 255
3 279 242 282 255 255 255
3 7 242 279 255 255 255
3 36 3 38 255 255 255
3 7 287 283 255 255 255
3 279 243 40 255 255 255
3 37 15 10 255 255 255
3 280 241 284 255 255 255
3 282 38 39 255 255 255
3 38 3 6 255 255 255
3 39 4 66 255 255 255
3 7 242 287 255 255 255
3 40 242 7 255 255 255
3 41 218 39 255 255 255
3 42 218 41 255 255 255
3 42 234 218 255 255 255
3 41 11 42 255 255 255
3 282 12 38 255 255 255
3 3 13 6 255 255 255
3 4 41 66 255 255 255
3 39 19 4 255 255 255
3 242 14 287 255 255 255
3 278 243 40 255 255 255
3 278 279 243 255 255 255
3 243 75 40 255 255 255
3 10 37 328 255 255 255
3 11 86 42 255 255 255
3 12 36 38 255 255 255
3 282 236 12 255 255 255
3 13 39 6 255 255 255
3 242 321 282 255 255 255
3 283 14 287 255 255 255
3 14 8 287 255 255 255
3 40 177 242 255 255 255
3 15 10 328 255 255 255
3 10 280 37 255 255 255
3 234 239 218 255 255 255
3 234 9 239 255 255 255
3 42 11 234 255 255 255
3 86 218 42 255 255 255
3 11 176 86 255 255 255
3 282 3 236 255 255 255
3 13 87 39 255 255 255
3 36 72 3 255 255 255
3 41 282 66 255 255 255
3 14 5 287 255 255 255
3 8 235 287 255 255 255
3 40 75 177 255 255 255
3 278 15 37 255 255 255
3 285 276 59 255 255 255
3 9 13 239 255 255 255
3 234 35 9 255 255 255
3 176 234 86 255 255 255
3 3 72 236 255 255 255
3 41 240 60 255 255 255
3 4 238 61 255 255 255
3 4 77 238 255 255 255
3 176 18 282 255 255 255
3 282 321 176 255 255 255
3 321 65 176 255 255 255
3 14 256 5 255 255 255
3 283 14 5 255 255 255
3 235 5 14 255 255 255
3 8 65 235 255 255 255
3 243 177 75 255 255 255
3 243 279 177 255 255 255
3 59 276 254 255 255 255
3 230 254 276 255 255 255
3 234 18 35 255 255 255
3 236 283 12 255 255 255
3 72 32 236 255 255 255
3 36 5 72 255 255 255
3 5 256 72 255 255 255
3 279 278 40 255 255 255
3 60 237 41 255 255 255
3 61 240 4 255 255 255
3 321 32 65 255 255 255
3 5 72 14 255 255 255
3 279 66 177 255 255 255
3 230 285 254 255 255 255
3 77 62 61 255 255 255
3 61 240 77 255 255 255
3 77 63 238 255 255 255
3 60 199 237 255 255 255
3 60 277 199 255 255 255
3 62 277 60 255 255 255
3 60 240 62 255 255 255
3 61 286 240 255 255 255
3 177 321 242 255 255 255
3 237 41 218 255 255 255
3 277 33 199 255 255 255
3 41 61 240 255 255 255
3 61 60 286 255 255 255
3 63 233 238 255 255 255
3 237 88 41 255 255 255
3 61 4 237 255 255 255
3 237 0 61 255 255 255
3 72 34 256 255 255 255
3 72 239 34 255 255 255
3 255 240 238 255 255 255
3 238 233 255 255 255 255
3 63 199 240 255 255 255
3 237 19 88 255 255 255
3 239 232 34 255 255 255
3 240 255 63 255 255 255
3 199 277 240 255 255 255
3 232 166 34 255 255 255
3 34 87 256 255 255 255
3 255 233 63 255 255 255
3 122 166 34 255 255 255
3 232 231 166 255 255 255
3 231 69 166 255 255 255
3 123 166 69 255 255 255
3 231 0 69 255 255 255
3 123 231 166 255 255 255
3 302 305 136 255 255 255
3 305 292 136 255 255 255
3 213 115 292 255 255 255
3 215 229 302 255 255 255
3 133 216 115 255 255 255
3 133 173 216 255 255 255
3 302 292 215 255 255 255
3 229 340 215 255 255 255
3 133 275 173 255 255 255
3 229 213 302 255 255 255
3 133 323 275 255 255 255
3 213 292 302 255 255 255
3 323 85 275 255 255 255
3 213 340 115 255 255 255
3 229 340 213 255 255 255
3 340 85 115 255 255 255
3 340 117 246 255 255 255
3 246 188 340 255 255 255
3 246 80 188 255 255 255
3 117 214 246 255 255 255
3 246 214 80 255 255 255
3 117 143 214 255 255 255
3 117 188 80 255 255 255
3 117 340 188 255 255 255
3 340 323 188 255 255 255
3 340 114 323 255 255 255
3 114 115 323 255 255 255
3 340 229 114 255 255 255
3 293 119 323 255 255 255
3 323 216 293 255 255 255
3 293 173 119 255 255 255
3 319 99 101 255 255 255
3 178 147 138 255 255 255
3 46 143 345 255 255 255
3 97 100 98 255 255 255
3 98 275 97 255 255 255
3 339 339 339 255 255 255
3 339 339 339 255 255 255
3 339 339 339 255 255 255
