ply
format ascii 1.0
element vertex 313
property float x
property float y
property float z
element face 576
property list uchar int vertex_indices
property uchar red
property uchar green
property uchar blue
end_header
-9.49502754211425781 7.13415384292602539 -0.785353362560272217
-9.48099994659423828 7.13749980926513672 -0.830999970436096191
-9.48999977111816406 7.15399980545043945 -1.01999998092651367
-9.47317314147949219 7.15618133544921875 -1.02616786956787109
-9.51847743988037109 7.15066051483154297 -0.772660315036773682
-9.48099994659423828 7.15500020980834961 -0.96799999475479126
-9.47900009155273438 7.12900018692016602 -0.929000020027160645
-9.51759529113769531 7.12458562850952148 -0.829504489898681641
-9.47799968719482422 7.12699985504150391 -1.01800000667572021
-9.48499965667724609 7.14799976348876953 -1.01800000667572021
-9.46520328521728516 7.13538789749145508 -0.87790292501449585
-9.46300029754638672 7.10799980163574219 -0.874000012874603271
-9.54680824279785156 7.13609886169433594 -0.835388600826263428
-9.48251533508300781 7.13828134536743164 -0.867617011070251465
-9.47500038146972656 7.12300014495849609 -0.781000018119812012
-9.48600006103515625 7.1380000114440918 -0.865999996662139893
-9.48700046539306641 7.14300012588500977 -0.990999996662139893
-9.51200008392333984 7.13899993896484375 -0.773000001907348633
-9.44911956787109375 7.13603830337524414 -0.890281856060028076
-9.44753551483154297 7.12570381164550781 -0.997846841812133789
-9.490203857421875 7.16589164733886719 -1.11521804332733154
-9.47468185424804688 7.14521598815917969 -1.10933506488800049
-9.45883369445800781 7.12181329727172852 -1.12697577476501465
-9.47059726715087891 7.11036396026611328 -1.11815595626831055
-9.47352981567382812 7.11285018920898438 -1.12992632389068604
-9.45933914184570312 7.13131475448608398 -1.02345550060272217
-9.45623588562011719 7.15595102310180664 -1.03896379470825195
-9.4560089111328125 7.15892410278320312 -1.04998743534088135
-9.42261791229248047 7.16388225555419922 -1.09678459167480469
-9.44799995422363281 7.16099977493286133 -1.05999994277954102
-9.45800018310546875 7.16499996185302734 -1.07400000095367432
-9.47286891937255859 7.1320185661315918 -0.978591442108154297
-9.47299957275390625 7.17299985885620117 -1.05799996852874756
-9.45800018310546875 7.11700010299682617 -0.957000017166137695
-9.46192550659179688 7.13448476791381836 -0.947557926177978516
-9.47476577758789062 7.14800882339477539 -0.96907353401184082
-9.49162960052490234 7.14290809631347656 -0.964356422424316406
-9.47215843200683594 7.14845609664916992 -0.955710172653198242
-9.47999954223632812 7.14400005340576172 -0.953999996185302734
-9.44799995422363281 7.08900022506713867 -0.880999982357025146
-9.48600006103515625 7.14200019836425781 -1.00300002098083496
-9.48098850250244141 7.13705587387084961 -1.03305470943450928
-9.49551200866699219 7.12554931640625 -0.774404346942901611
-9.53199958801269531 7.12400007247924805 -0.874000012874603271
-9.48793125152587891 7.143310546875 -0.874324560165405273
-9.47459125518798828 7.14390468597412109 -0.944449186325073242
-9.46300029754638672 7.11499977111816406 -0.976000010967254639
-9.50462055206298828 7.12357759475708008 -0.752620816230773926
-9.44650077819824219 7.1045384407043457 -0.897944033145904541
-9.45400047302246094 7.11299991607666016 -0.875
-9.47799968719482422 7.11700010299682617 -0.90700000524520874
-9.4720001220703125 7.13000011444091797 -0.93900001049041748
-9.51565265655517578 7.10715579986572266 -0.839048266410827637
-9.47099971771240234 7.13000011444091797 -0.781000018119812012
-9.50199985504150391 7.16099977493286133 -0.758000016212463379
-9.42899990081787109 7.16200017929077148 -1.09599995613098145
-9.46599960327148438 7.13899993896484375 -0.754000008106231689
-9.473114013671875 7.16190052032470703 -0.776935815811157227
-9.47000026702880859 7.13000011444091797 -0.957000017166137695
-9.48600006103515625 7.13000011444091797 -0.750999987125396729
-9.48069572448730469 7.15884256362915039 -0.908372104167938232
-9.50608348846435547 7.14145374298095703 -0.940093696117401123
-9.52655506134033203 7.12693929672241211 -0.875714480876922607
-9.52294826507568359 7.12896871566772461 -0.86239546537399292
-9.46100044250488281 7.10200023651123047 -0.876999974250793457
-9.55663204193115234 7.10511159896850586 -0.854794144630432129
-9.47099971771240234 7.17100000381469727 -1.01900005340576172
-9.46664524078369141 7.15097808837890625 -0.765607774257659912
-9.47071552276611328 7.1288914680480957 -0.761645376682281494
-9.48499965667724609 7.16699981689453125 -0.769999980926513672
-9.46635913848876953 7.09339141845703125 -0.889912545680999756
-9.45665168762207031 7.11707878112792969 -1.00446128845214844
-9.47799968719482422 7.15799999237060547 -1.10899996757507324
-9.44209575653076172 7.11787605285644531 -0.875383079051971436
-9.42555332183837891 7.14323234558105469 -1.0939328670501709
-9.47599983215332031 7.12300014495849609 -0.78600001335144043
-9.47040081024169922 7.11539173126220703 -0.964800059795379639
-9.49146080017089844 7.11201143264770508 -0.758974730968475342
-9.47412014007568359 7.13917684555053711 -0.892761349678039551
-9.50559902191162109 7.13066291809082031 -0.858358025550842285
-9.49294185638427734 7.13770627975463867 -0.745921671390533447
-9.46899986267089844 7.11700010299682617 -0.921000003814697266
-9.52347469329833984 7.14354324340820312 -0.770150184631347656
-9.44325065612792969 7.10342645645141602 -1.11945235729217529
-9.44291114807128906 7.12041807174682617 -0.903104722499847412
-9.51028919219970703 7.14073944091796875 -0.753944277763366699
-9.44799995422363281 7.10599994659423828 -0.912999987602233887
-9.53019905090332031 7.09965324401855469 -0.855165958404541016
-9.48064517974853516 7.13329982757568359 -0.750342667102813721
-9.46700000762939453 7.14599990844726562 -0.760999977588653564
-9.4850006103515625 7.13100004196166992 -0.888499975204467773
-9.44499969482421875 7.16400003433227539 -1.08700001239776611
-9.46912956237792969 7.13226795196533203 -1.10043108463287354
-9.48090934753417969 7.13124227523803711 -1.03396713733673096
-9.46162128448486328 7.11199426651000977 -1.009560227394104
-9.48600006103515625 7.14799976348876953 -1.09300005435943604
-9.42972564697265625 7.14151859283447266 -1.07352340221405029
-9.43189716339111328 7.14655447006225586 -1.05526375770568848
-9.42916393280029297 7.16582822799682617 -1.070762038230896
-9.44699954986572266 7.15500020980834961 -1.08899998664855957
-9.45297622680664062 7.15383005142211914 -1.12282514572143555
-9.45688152313232422 7.10944843292236328 -1.11133873462677002
-9.43088626861572266 7.13558053970336914 -1.08308219909667969
-9.44299983978271484 7.14499998092651367 -1.05999994277954102
-9.45195293426513672 7.17150020599365234 -0.998245477676391602
-9.44324207305908203 7.15429830551147461 -1.05065131187438965
-9.43050003051757812 7.16400003433227539 -1.07649993896484375
-9.47377586364746094 7.13281774520874023 -1.11493563652038574
-9.4825286865234375 7.16079902648925781 -1.10550141334533691
-9.48099994659423828 7.16300010681152344 -1.08899998664855957
-9.46800041198730469 7.11899995803833008 -1.03600001335144043
-9.44149112701416016 7.14783287048339844 -1.11437129974365234
-9.44699954986572266 7.14599990844726562 -1.1119999885559082
-9.440948486328125 7.13290834426879883 -1.11795616149902344
-9.43097877502441406 7.15003633499145508 -1.06999897956848145
-9.47299957275390625 7.125 -1.01699995994567871
-9.48600006103515625 7.14799976348876953 -0.920000016689300537
-9.45300006866455078 7.12249994277954102 -0.908499956130981445
-9.51316452026367188 7.13024759292602539 -0.768882989883422852
-9.48152351379394531 7.13781023025512695 -0.901811301708221436
-9.44910335540771484 7.11603927612304688 -0.994299411773681641
-9.45085430145263672 7.14268255233764648 -0.986220359802246094
-9.49300003051757812 7.17100000381469727 -1.09399998188018799
-9.49199008941650391 7.1596980094909668 -1.05710804462432861
-9.45881938934326172 7.12928056716918945 -1.06199073791503906
-9.42065906524658203 7.14220333099365234 -1.08601975440979004
-9.46557140350341797 7.15802955627441406 -1.10965526103973389
-9.44799995422363281 7.12599992752075195 -1.07799994945526123
-9.45279884338378906 7.13693809509277344 -1.04201364517211914
-9.44900035858154297 7.16300010681152344 -1.07099997997283936
-9.46879005432128906 7.16483545303344727 -1.11716246604919434
-9.48208332061767578 7.17659091949462891 -1.12490212917327881
-9.47500038146972656 7.12099981307983398 -0.896000027656555176
-9.45083427429199219 7.09392452239990234 -0.887993872165679932
-9.53941822052001953 7.12789392471313477 -0.86960291862487793
-9.51238059997558594 7.14914846420288086 -0.766847133636474609
-9.47099971771240234 7.1529998779296875 -0.754999995231628418
-9.48399925231933594 7.13700008392333984 -0.820999979972839355
-9.43999958038330078 7.15999984741210938 -1.07500004768371582
-9.52179813385009766 7.13373899459838867 -0.895548641681671143
-9.45659446716308594 7.12543439865112305 -1.07632505893707275
-9.44999980926513672 7.14200019836425781 -1.05900001525878906
-9.46162223815917969 7.11409807205200195 -1.03882741928100586
-9.47399997711181641 7.12599992752075195 -1.03900003433227539
-9.43299961090087891 7.15500020980834961 -1.07200002670288086
-9.49733257293701172 7.14760589599609375 -1.07625198364257812
-9.47385787963867188 7.12532901763916016 -1.05209946632385254
-9.47099971771240234 7.12300014495849609 -1.02300000190734863
-9.45450019836425781 7.15084600448608398 -1.02076685428619385
-9.48552322387695312 7.12954616546630859 -1.07087671756744385
-9.46300029754638672 7.16099977493286133 -1.02799999713897705
-9.46181201934814453 7.14017772674560547 -1.02887773513793945
-9.49100017547607422 7.16900014877319336 -0.765999972820281982
-9.49114036560058594 7.13863277435302734 -1.04029357433319092
-9.48299980163574219 7.16900014877319336 -1.09099996089935303
-9.54939937591552734 7.11145305633544922 -0.83232724666595459
-9.46391582489013672 7.13266277313232422 -0.776041388511657715
-9.49790859222412109 7.13689708709716797 -1.08434748649597168
-9.46899986267089844 7.11999988555908203 -1.00999999046325684
-9.48200035095214844 7.12699985504150391 -0.917999982833862305
-9.47700023651123047 7.16099977493286133 -1.04799997806549072
-9.48099994659423828 7.16200017929077148 -0.776000022888183594
-9.47100639343261719 7.09938621520996094 -0.901009202003479004
-9.44600009918212891 7.09299993515014648 -0.896000027656555176
-9.47099971771240234 7.14900016784667969 -0.916000008583068848
-9.48254776000976562 7.10253334045410156 -0.896014273166656494
-9.45300006866455078 7.11100006103515625 -0.926999986171722412
-9.47700023651123047 7.11899995803833008 -0.927999973297119141
-9.45300006866455078 7.10599994659423828 -0.875
-9.46899986267089844 7.14799976348876953 -0.776000022888183594
-9.48507404327392578 7.15738391876220703 -0.75594329833984375
-9.52417182922363281 7.12886571884155273 -0.889593064785003662
-9.47399997711181641 7.15899991989135742 -0.762000024318695068
-9.45710945129394531 7.09357166290283203 -0.904258608818054199
-9.46264362335205078 7.13370323181152344 -0.764082252979278564
-9.47399997711181641 7.14900016784667969 -0.754000008106231689
-9.47500038146972656 7.1529998779296875 -1.0010000467300415
-9.48040008544921875 7.11090755462646484 -0.888667762279510498
-9.44499969482421875 7.10799980163574219 -0.876999974250793457
-9.53719711303710938 7.11570024490356445 -0.866965889930725098
-9.52525901794433594 7.13961887359619141 -0.842554211616516113
-9.51056480407714844 7.12049102783203125 -0.846385538578033447
-9.47700023651123047 7.14400005340576172 -0.981999993324279785
-9.46953010559082031 7.13160228729248047 -0.953032851219177246
-9.48381328582763672 7.13986825942993164 -0.965997815132141113
-9.46032810211181641 7.1300663948059082 -0.934312224388122559
-9.46353054046630859 7.11729335784912109 -0.942646384239196777
-9.48200035095214844 7.15000009536743164 -0.93900001049041748
-9.47700023651123047 7.14799976348876953 -0.932500004768371582
-9.46609401702880859 7.14265775680541992 -0.920222163200378418
-9.46372890472412109 7.1288151741027832 -0.912485480308532715
-9.47208499908447266 7.15683317184448242 -0.916995644569396973
-9.51054286956787109 7.13343238830566406 -0.933106899261474609
-9.47799968719482422 7.13899993896484375 -0.952000021934509277
-9.48900032043457031 7.12400007247924805 -0.748000025749206543
-9.47999954223632812 7.16200017929077148 -0.758000016212463379
-9.46500015258789062 7.12099981307983398 -0.998000025749206543
-9.48600006103515625 7.1529998779296875 -0.917999982833862305
-9.46430873870849609 7.18548774719238281 -1.01506626605987549
-9.45100021362304688 7.15700006484985352 -1.03400003910064697
-9.56635093688964844 7.11773014068603516 -0.855230927467346191
-9.47000026702880859 7.12200021743774414 -1.0130000114440918
-9.48499965667724609 7.1100001335144043 -0.773000001907348633
-9.45800018310546875 7.10599994659423828 -0.915000021457672119
-9.51133441925048828 7.12254619598388672 -0.769078254699707031
-9.49199962615966797 7.16499996185302734 -0.776000022888183594
-9.54845142364501953 7.10435867309570312 -0.856789052486419678
-9.47904872894287109 7.16688203811645508 -0.775673270225524902
-9.55900001525878906 7.125 -0.853999972343444824
-9.47099971771240234 7.16200017929077148 -1.0429999828338623
-9.51399993896484375 7.13899993896484375 -0.762000024318695068
-9.48950004577636719 7.13899993896484375 -0.828500032424926758
-9.45477390289306641 7.14022254943847656 -1.003731369972229
-9.46800041198730469 7.11999988555908203 -1.01499998569488525
-9.47500038146972656 7.11399984359741211 -0.910000026226043701
-9.47299957275390625 7.16400003433227539 -0.764999985694885254
-9.46128749847412109 7.11799097061157227 -0.928503990173339844
-9.46599960327148438 7.125 -0.953999996185302734
-9.44799995422363281 7.11899995803833008 -0.939999997615814209
-9.48200035095214844 7.10599994659423828 -0.887000024318695068
-9.46065044403076172 7.11575841903686523 -0.924345850944519043
-9.46946239471435547 7.1191554069519043 -1.02312302589416504
-9.480010986328125 7.16097307205200195 -1.03999543190002441
-9.48099994659423828 7.14599990844726562 -1.00999999046325684
-9.46100044250488281 7.16400003433227539 -1.00399994850158691
-9.49979019165039062 7.13113689422607422 -0.927260160446166992
-9.46899986267089844 7.1529998779296875 -0.759999990463256836
-9.4757843017578125 7.13347530364990234 -1.01020538806915283
-9.49899959564208984 7.16900014877319336 -0.771000027656555176
-9.46500015258789062 7.12699985504150391 -0.982999980449676514
-9.45186996459960938 7.17177391052246094 -1.01435947418212891
-9.46000003814697266 7.12799978256225586 -0.97500002384185791
-9.45778656005859375 7.12852668762207031 -0.96347123384475708
-9.48041343688964844 7.13667964935302734 -0.997983872890472412
-9.46179771423339844 7.11620950698852539 -0.965397775173187256
-9.45503425598144531 7.12019109725952148 -0.947905600070953369
-9.47449016571044922 7.14673662185668945 -0.982066512107849121
-9.47500038146972656 7.14499998092651367 -0.986999988555908203
-9.47999954223632812 7.12799978256225586 -0.998000025749206543
-9.46399974822998047 7.10799980163574219 -0.907999992370605469
-9.47799968719482422 7.11999988555908203 -0.875
-9.48400020599365234 7.14200019836425781 -0.88200002908706665
-9.47353458404541016 7.1312413215637207 -0.784173905849456787
-9.46000003814697266 7.125 -0.97500002384185791
-9.49600028991699219 7.1399998664855957 -1.08299994468688965
-9.54076576232910156 7.09735727310180664 -0.840078175067901611
-9.46399974822998047 7.14499998092651367 -0.773999989032745361
-9.46762466430664062 7.09540414810180664 -0.880702018737792969
-9.47000026702880859 7.14300012588500977 -0.753000020980834961
-9.54599952697753906 7.12200021743774414 -0.856999993324279785
-9.48780727386474609 7.13998556137084961 -0.789603829383850098
-9.49100017547607422 7.13199996948242188 -0.935000002384185791
-9.44986438751220703 7.11149358749389648 -0.943227112293243408
-9.4589996337890625 7.12300014495849609 -0.915000021457672119
-9.45462512969970703 7.11015701293945312 -0.913879215717315674
-9.45090007781982422 7.09448337554931641 -0.898231804370880127
-9.48799991607666016 7.14599990844726562 -0.912000000476837158
-9.48224830627441406 7.14099693298339844 -0.91499096155166626
-9.43839836120605469 7.11423397064208984 -0.895983755588531494
-9.4568023681640625 7.16498756408691406 -1.09103858470916748
-9.47982406616210938 7.17802000045776367 -1.11000025272369385
-9.46573257446289062 7.13354969024658203 -1.07452237606048584
-9.47656440734863281 7.15703439712524414 -1.06678760051727295
-9.439971923828125 7.1337127685546875 -1.07115590572357178
-9.42627429962158203 7.13734912872314453 -1.10973203182220459
-9.43999958038330078 7.14699983596801758 -1.10099995136260986
-9.43171977996826172 7.12324380874633789 -1.107840895652771
-9.45223903656005859 7.14958477020263672 -1.09209048748016357
-9.44900035858154297 7.12099981307983398 -1.10300004482269287
-9.48654651641845703 7.13873815536499023 -0.861409485340118408
-9.48099994659423828 7.14050006866455078 -0.866999983787536621
-9.49199962615966797 7.14499998092651367 -1.03400003910064697
-9.4806976318359375 7.11784696578979492 -0.88129734992980957
-9.52706050872802734 7.11422634124755859 -0.87067335844039917
-9.48499965667724609 7.12200021743774414 -0.754000008106231689
-9.46500015258789062 7.12099981307983398 -1.0010000467300415
-9.54199981689453125 7.12300014495849609 -0.861000001430511475
-9.47999286651611328 7.13229799270629883 -1.08724749088287354
-9.45426654815673828 7.13023519515991211 -1.04725205898284912
-9.45400047302246094 7.11899995803833008 -1.02499997615814209
-9.46700000762939453 7.16499996185302734 -1.0429999828338623
-9.46325588226318359 7.17382717132568359 -1.0563892126083374
-9.47461795806884766 7.17206859588623047 -1.08702719211578369
-9.48700046539306641 7.17000007629394531 -1.09700000286102295
-9.46399974822998047 7.125 -1.09500002861022949
-9.46399974822998047 7.15999984741210938 -1.03600001335144043
-9.46599960327148438 7.17700004577636719 -1.06099998950958252
-9.45931816101074219 7.1497645378112793 -0.997198402881622314
-9.48799991607666016 7.16699981689453125 -1.09899997711181641
-9.50199985504150391 7.13700008392333984 -0.749000012874603271
-9.47500038146972656 7.14099979400634766 -0.748000025749206543
-9.48200035095214844 7.11899995803833008 -0.919000029563903809
-9.44299983978271484 7.13500022888183594 -1.08899998664855957
-9.52479743957519531 7.09170818328857422 -0.845195114612579346
-9.47491931915283203 7.1268463134765625 -0.995108902454376221
1 1 1
-9.47450065612792969 7.12100028991699219 -0.773000001907348633
-9.50709724426269531 7.13213920593261719 -0.746288001537322998
-9.49993801116943359 7.15588235855102539 -0.756492257118225098
-9.46882057189941406 7.16673612594604492 -1.00070667266845703
-9.49600028991699219 7.14799976348876953 -0.783999979496002197
-9.47467517852783203 7.13749170303344727 -0.782809138298034668
-9.46897506713867188 7.09865093231201172 -0.880331516265869141
-9.49055862426757812 7.15599441528320312 -0.776029229164123535
-9.45800018310546875 7.13399982452392578 -1.01199996471405029
-9.5635833740234375 7.11008691787719727 -0.842321395874023438
-9.46625900268554688 7.14096307754516602 -0.973365247249603271
-9.47700023651123047 7.17700004577636719 -1.08500003814697266
-9.48265647888183594 7.15311813354492188 -0.786903321743011475
-9.44600009918212891 7.09000015258789062 -0.887000024318695068
-9.46500015258789062 7.13299989700317383 -1.06299996376037598
-9.54316902160644531 7.12695646286010742 -0.850443124771118164
-9.47888374328613281 7.15932035446166992 -1.00687944889068604
3 264 111 74 255 255 255
3 111 265 74 255 255 255
3 111 112 265 255 255 255
3 125 102 74 255 255 255
3 112 267 265 255 255 255
3 111 100 112 255 255 255
3 113 112 264 255 255 255
3 264 266 113 255 255 255
3 125 96 102 255 255 255
3 125 114 96 255 255 255
3 125 138 114 255 255 255
3 265 264 74 255 255 255
3 112 126 267 255 255 255
3 111 113 100 255 255 255
3 266 22 113 255 255 255
3 114 97 96 255 255 255
3 125 99 138 255 255 255
3 265 111 264 255 255 255
3 267 99 265 255 255 255
3 113 22 100 255 255 255
3 266 83 22 255 255 255
3 268 83 266 255 255 255
3 268 101 83 255 255 255
3 266 102 268 255 255 255
3 96 263 102 255 255 255
3 263 127 102 255 255 255
3 96 97 263 255 255 255
3 97 103 263 255 255 255
3 98 97 114 255 255 255
3 98 105 97 255 255 255
3 114 106 98 255 255 255
3 99 259 138 255 255 255
3 125 74 99 255 255 255
3 99 55 265 255 255 255
3 267 91 99 255 255 255
3 100 107 130 255 255 255
3 101 23 83 255 255 255
3 268 284 101 255 255 255
3 102 127 268 255 255 255
3 102 266 264 255 255 255
3 263 140 127 255 255 255
3 103 128 263 255 255 255
3 97 128 103 255 255 255
3 105 128 97 255 255 255
3 105 26 128 255 255 255
3 98 29 105 255 255 255
3 259 129 138 255 255 255
3 267 259 91 255 255 255
3 126 259 267 255 255 255
3 126 100 130 255 255 255
3 100 22 107 255 255 255
3 268 127 284 255 255 255
3 127 140 284 255 255 255
3 263 124 140 255 255 255
3 128 278 263 255 255 255
3 129 106 138 255 255 255
3 126 282 259 255 255 255
3 130 260 126 255 255 255
3 131 260 130 255 255 255
3 21 20 130 255 255 255
3 130 107 21 255 255 255
3 22 24 107 255 255 255
3 23 22 83 255 255 255
3 124 261 140 255 255 255
3 128 25 278 255 255 255
3 105 27 26 255 255 255
3 98 129 29 255 255 255
3 106 91 138 255 255 255
3 129 98 106 255 255 255
3 259 30 129 255 255 255
3 260 283 126 255 255 255
3 131 20 260 255 255 255
3 130 20 131 255 255 255
3 107 277 21 255 255 255
3 24 23 107 255 255 255
3 24 22 23 255 255 255
3 124 149 261 255 255 255
3 263 141 124 255 255 255
3 25 279 278 255 255 255
3 26 148 128 255 255 255
3 27 280 26 255 255 255
3 29 30 105 255 255 255
3 30 281 129 255 255 255
3 259 282 30 255 255 255
3 126 283 282 255 255 255
3 260 122 283 255 255 255
3 20 122 260 255 255 255
3 21 108 20 255 255 255
3 277 157 21 255 255 255
3 107 92 277 255 255 255
3 23 101 107 255 255 255
3 101 92 107 255 255 255
3 124 146 149 255 255 255
3 278 142 124 255 255 255
3 124 128 278 255 255 255
3 279 142 278 255 255 255
3 26 230 148 255 255 255
3 280 285 26 255 255 255
3 105 281 27 255 255 255
3 106 28 91 255 255 255
3 281 29 129 255 255 255
3 30 286 281 255 255 255
3 282 262 30 255 255 255
3 283 307 282 255 255 255
3 108 288 20 255 255 255
3 21 95 108 255 255 255
3 21 157 95 255 255 255
3 284 92 101 255 255 255
3 284 277 92 255 255 255
3 261 284 140 255 255 255
3 261 277 284 255 255 255
3 261 149 277 255 255 255
3 149 146 153 255 255 255
3 124 142 146 255 255 255
3 128 151 278 255 255 255
3 124 141 128 255 255 255
3 141 27 128 255 255 255
3 263 114 141 255 255 255
3 279 94 142 255 255 255
3 25 304 279 255 255 255
3 25 212 304 255 255 255
3 212 25 148 255 255 255
3 26 285 230 255 255 255
3 285 198 230 255 255 255
3 280 150 285 255 255 255
3 27 160 280 255 255 255
3 28 55 91 255 255 255
3 286 32 281 255 255 255
3 262 281 30 255 255 255
3 307 122 282 255 255 255
3 259 109 282 255 255 255
3 157 145 95 255 255 255
3 277 149 157 255 255 255
3 153 157 149 255 255 255
3 149 310 146 255 255 255
3 94 221 142 255 255 255
3 151 110 278 255 255 255
3 27 199 128 255 255 255
3 114 29 141 255 255 255
3 304 71 279 255 255 255
3 285 209 198 255 255 255
3 150 199 285 255 255 255
3 280 222 150 255 255 255
3 160 209 280 255 255 255
3 28 74 55 255 255 255
3 32 280 281 255 255 255
3 286 282 32 255 255 255
3 262 123 281 255 255 255
3 262 145 123 255 255 255
3 282 154 109 255 255 255
3 122 154 282 255 255 255
3 109 288 282 255 255 255
3 110 143 142 255 255 255
3 142 221 110 255 255 255
3 221 93 110 255 255 255
3 128 148 151 255 255 255
3 148 304 151 255 255 255
3 114 144 29 255 255 255
3 263 292 102 255 255 255
3 310 141 278 255 255 255
3 279 71 94 255 255 255
3 212 19 304 255 255 255
3 148 287 212 255 255 255
3 148 104 287 255 255 255
3 148 230 104 255 255 255
3 150 148 199 255 255 255
3 222 3 150 255 255 255
3 160 222 209 255 255 255
3 123 160 281 255 255 255
3 157 153 145 255 255 255
3 95 92 277 255 255 255
3 95 72 92 255 255 255
3 277 244 95 255 255 255
3 146 93 153 255 255 255
3 143 146 142 255 255 255
3 221 147 93 255 255 255
3 94 213 221 255 255 255
3 304 147 151 255 255 255
3 144 138 29 255 255 255
3 19 120 71 255 255 255
3 212 121 19 255 255 255
3 287 121 212 255 255 255
3 148 151 199 255 255 255
3 150 3 148 255 255 255
3 222 2 3 255 255 255
3 160 123 222 255 255 255
3 145 153 123 255 255 255
3 72 126 92 255 255 255
3 147 8 93 255 255 255
3 213 115 221 255 255 255
3 94 158 213 255 255 255
3 115 158 151 255 255 255
3 151 227 115 255 255 255
3 304 213 147 255 255 255
3 144 106 138 255 255 255
3 66 312 198 255 255 255
3 148 25 151 255 255 255
3 25 221 151 255 255 255
3 2 66 3 255 255 255
3 222 271 2 255 255 255
3 153 41 271 255 255 255
3 8 41 93 255 255 255
3 115 8 221 255 255 255
3 213 201 115 255 255 255
3 304 94 213 255 255 255
3 120 196 71 255 255 255
3 19 229 120 255 255 255
3 19 231 229 255 255 255
3 121 231 19 255 255 255
3 121 232 231 255 255 255
3 104 299 287 255 255 255
3 230 299 104 255 255 255
3 312 299 198 255 255 255
3 66 3 312 255 255 255
3 66 285 3 255 255 255
3 271 9 2 255 255 255
3 222 123 271 255 255 255
3 153 93 41 255 255 255
3 8 227 41 255 255 255
3 94 294 158 255 255 255
3 71 196 94 255 255 255
3 120 294 196 255 255 255
3 229 294 120 255 255 255
3 229 31 294 255 255 255
3 231 234 229 255 255 255
3 232 243 231 255 255 255
3 299 230 198 255 255 255
3 9 40 2 255 255 255
3 271 41 9 255 255 255
3 227 151 41 255 255 255
3 8 233 227 255 255 255
3 233 294 227 255 255 255
3 229 234 31 255 255 255
3 234 76 229 255 255 255
3 121 306 232 255 255 255
3 287 236 121 255 255 255
3 299 237 287 255 255 255
3 312 176 299 255 255 255
3 40 312 2 255 255 255
3 8 238 233 255 255 255
3 227 294 275 255 255 255
3 234 76 31 255 255 255
3 229 243 234 255 255 255
3 232 46 243 255 255 255
3 235 234 232 255 255 255
3 236 306 121 255 255 255
3 237 306 287 255 255 255
3 176 237 299 255 255 255
3 176 16 237 255 255 255
3 312 40 176 255 255 255
3 9 223 312 255 255 255
3 312 3 9 255 255 255
3 238 40 233 255 255 255
3 8 294 238 255 255 255
3 233 237 294 255 255 255
3 232 234 46 255 255 255
3 235 33 234 255 255 255
3 236 35 306 255 255 255
3 287 176 236 255 255 255
3 237 182 306 255 255 255
3 237 229 294 255 255 255
3 31 76 184 255 255 255
3 76 183 184 255 255 255
3 234 183 76 255 255 255
3 33 186 234 255 255 255
3 34 33 232 255 255 255
3 232 37 34 255 255 255
3 306 35 232 255 255 255
3 35 37 306 255 255 255
3 287 224 176 255 255 255
3 182 35 306 255 255 255
3 229 196 294 255 255 255
3 237 306 229 255 255 255
3 31 16 294 255 255 255
3 36 182 31 255 255 255
3 31 184 36 255 255 255
3 183 193 184 255 255 255
3 234 186 183 255 255 255
3 33 234 232 255 255 255
3 34 186 33 255 255 255
3 35 58 232 255 255 255
3 182 5 35 255 255 255
3 229 46 196 255 255 255
3 184 45 36 255 255 255
3 183 217 58 255 255 255
3 34 185 186 255 255 255
3 183 45 193 255 255 255
3 252 186 235 255 255 255
3 235 185 252 255 255 255
3 37 45 34 255 255 255
3 35 5 37 255 255 255
3 252 218 186 255 255 255
3 235 186 185 255 255 255
3 185 216 186 255 255 255
3 34 189 185 255 255 255
3 38 187 37 255 255 255
3 37 36 38 255 255 255
3 37 188 45 255 255 255
3 183 37 45 255 255 255
3 186 185 183 255 255 255
3 218 216 186 255 255 255
3 185 220 252 255 255 255
3 216 166 186 255 255 255
3 187 188 37 255 255 255
3 36 45 38 255 255 255
3 216 253 166 255 255 255
3 188 191 189 255 255 255
3 187 116 188 255 255 255
3 185 253 220 255 255 255
3 253 254 166 255 255 255
3 216 190 253 255 255 255
3 216 218 185 255 255 255
3 189 190 185 255 255 255
3 189 45 188 255 255 255
3 116 60 188 255 255 255
3 253 117 220 255 255 255
3 253 239 254 255 255 255
3 190 117 253 255 255 255
3 189 18 190 255 255 255
3 191 197 60 255 255 255
3 220 117 254 255 255 255
3 254 86 166 255 255 255
3 239 255 254 255 255 255
3 190 84 117 255 255 255
3 18 84 190 255 255 255
3 189 191 18 255 255 255
3 191 188 197 255 255 255
3 116 256 60 255 255 255
3 117 86 254 255 255 255
3 117 258 86 255 255 255
3 255 86 254 255 255 255
3 186 51 216 255 255 255
3 216 235 186 255 255 255
3 191 78 18 255 255 255
3 60 78 191 255 255 255
3 60 119 78 255 255 255
3 197 256 60 255 255 255
3 116 257 256 255 255 255
3 239 162 255 255 255 255
3 78 10 18 255 255 255
3 119 44 78 255 255 255
3 256 119 60 255 255 255
3 256 257 119 255 255 255
3 257 159 119 255 255 255
3 258 48 86 255 255 255
3 84 18 258 255 255 255
3 255 163 86 255 255 255
3 162 302 255 255 255 255
3 10 73 18 255 255 255
3 257 225 159 255 255 255
3 258 163 48 255 255 255
3 255 133 163 255 255 255
3 302 64 255 255 255 255
3 239 132 162 255 255 255
3 51 167 216 255 255 255
3 78 270 10 255 255 255
3 44 270 78 255 255 255
3 159 50 119 255 255 255
3 225 291 159 255 255 255
3 48 173 86 255 255 255
3 163 173 48 255 255 255
3 64 133 255 255 255 255
3 64 168 133 255 255 255
3 162 177 302 255 255 255
3 132 177 162 255 255 255
3 239 190 132 255 255 255
3 216 81 253 255 255 255
3 167 159 216 255 255 255
3 73 258 18 255 255 255
3 13 240 10 255 255 255
3 13 269 240 255 255 255
3 10 270 13 255 255 255
3 90 241 119 255 255 255
3 119 50 90 255 255 255
3 50 132 90 255 255 255
3 225 167 291 255 255 255
3 173 203 86 255 255 255
3 48 309 173 255 255 255
3 258 73 48 255 255 255
3 168 178 133 255 255 255
3 64 49 168 255 255 255
3 302 11 64 255 255 255
3 177 11 302 255 255 255
3 177 272 11 255 255 255
3 132 272 177 255 255 255
3 132 240 272 255 255 255
3 190 257 132 255 255 255
3 81 214 253 255 255 255
3 10 49 73 255 255 255
3 240 11 10 255 255 255
3 10 44 270 255 255 255
3 241 90 44 255 255 255
3 132 272 90 255 255 255
3 50 165 132 255 255 255
3 167 81 291 255 255 255
3 225 251 167 255 255 255
3 133 39 309 255 255 255
3 257 119 132 255 255 255
3 178 48 73 255 255 255
3 10 241 44 255 255 255
3 90 15 44 255 255 255
3 132 219 272 255 255 255
3 50 214 165 255 255 255
3 225 192 251 255 255 255
3 173 239 203 255 255 255
3 70 165 173 255 255 255
3 48 39 133 255 255 255
3 257 164 119 255 255 255
3 190 6 257 255 255 255
3 15 44 13 255 255 255
3 13 269 15 255 255 255
3 90 272 15 255 255 255
3 50 291 214 255 255 255
3 192 61 251 255 255 255
3 70 247 165 255 255 255
3 173 133 70 255 255 255
3 164 60 119 255 255 255
3 6 188 257 255 255 255
3 190 216 6 255 255 255
3 269 44 15 255 255 255
3 269 79 44 255 255 255
3 219 247 272 255 255 255
3 214 173 165 255 255 255
3 70 39 247 255 255 255
3 219 165 247 255 255 255
3 61 193 251 255 255 255
3 39 64 247 255 255 255
3 193 51 251 255 255 255
3 61 184 193 255 255 255
3 192 187 61 255 255 255
3 225 116 192 255 255 255
3 273 62 79 255 255 255
3 79 181 273 255 255 255
3 187 38 61 255 255 255
3 181 87 273 255 255 255
3 181 52 87 255 255 255
3 52 293 87 255 255 255
3 181 7 52 255 255 255
3 273 171 62 255 255 255
3 87 206 273 255 255 255
3 171 139 62 255 255 255
3 206 179 273 255 255 255
3 293 245 87 255 255 255
3 179 43 273 255 255 255
3 87 65 206 255 255 255
3 245 305 87 255 255 255
3 65 200 206 255 255 255
3 87 305 65 255 255 255
3 52 245 293 255 255 255
3 52 7 245 255 255 255
3 179 134 43 255 255 255
3 179 276 134 255 255 255
3 206 249 179 255 255 255
3 200 276 206 255 255 255
3 181 180 7 255 255 255
3 79 180 181 255 255 255
3 134 171 43 255 255 255
3 206 65 249 255 255 255
3 200 134 276 255 255 255
3 155 305 245 255 255 255
3 155 245 7 255 255 255
3 7 12 155 255 255 255
3 7 180 12 255 255 255
3 134 63 62 255 255 255
3 134 62 171 255 255 255
3 249 311 134 255 255 255
3 65 208 249 255 255 255
3 180 311 12 255 255 255
3 171 179 43 255 255 255
3 249 200 311 255 255 255
3 200 12 208 255 255 255
3 155 12 305 255 255 255
3 180 134 311 255 255 255
3 171 63 179 255 255 255
3 200 12 311 255 255 255
3 134 180 63 255 255 255
3 171 62 63 255 255 255
3 200 305 12 255 255 255
3 77 202 42 255 255 255
3 42 47 77 255 255 255
3 296 53 42 255 255 255
3 42 202 296 255 255 255
3 47 194 77 255 255 255
3 53 0 42 255 255 255
3 47 297 194 255 255 255
3 42 118 47 255 255 255
3 53 301 0 255 255 255
3 296 156 53 255 255 255
3 194 88 77 255 255 255
3 47 85 297 255 255 255
3 47 85 80 255 255 255
3 0 17 42 255 255 255
3 0 301 250 255 255 255
3 53 156 301 255 255 255
3 156 169 301 255 255 255
3 242 68 296 255 255 255
3 194 47 88 255 255 255
3 80 77 47 255 255 255
3 47 210 85 255 255 255
3 118 297 47 255 255 255
3 17 210 42 255 255 255
3 0 135 17 255 255 255
3 0 301 308 255 255 255
3 169 303 301 255 255 255
3 156 174 169 255 255 255
3 242 202 68 255 255 255
3 204 47 77 255 255 255
3 88 68 77 255 255 255
3 47 289 88 255 255 255
3 80 274 77 255 255 255
3 59 274 80 255 255 255
3 59 88 274 255 255 255
3 80 88 59 255 255 255
3 85 298 80 255 255 255
3 297 80 47 255 255 255
3 17 135 118 255 255 255
3 0 242 301 255 255 255
3 246 174 156 255 255 255
3 242 75 202 255 255 255
3 170 175 88 255 255 255
3 298 170 80 255 255 255
3 297 85 80 255 255 255
3 135 85 118 255 255 255
3 0 75 242 255 255 255
3 169 172 303 255 255 255
3 174 67 169 255 255 255
3 68 248 174 255 255 255
3 246 89 174 255 255 255
3 175 89 88 255 255 255
3 170 172 175 255 255 255
3 80 59 47 255 255 255
3 298 289 135 255 255 255
3 135 54 298 255 255 255
3 161 300 308 255 255 255
3 308 57 161 255 255 255
3 301 57 308 255 255 255
3 301 246 57 255 255 255
3 300 0 303 255 255 255
3 303 135 300 255 255 255
3 172 170 303 255 255 255
3 169 175 172 255 255 255
3 68 290 248 255 255 255
3 89 67 174 255 255 255
3 4 17 204 255 255 255
3 204 82 4 255 255 255
3 68 156 296 255 255 255
3 89 68 88 255 255 255
3 298 152 170 255 255 255
3 135 4 54 255 255 255
3 161 205 300 255 255 255
3 246 67 57 255 255 255
3 290 170 248 255 255 255
3 17 85 204 255 255 255
3 156 14 296 255 255 255
3 152 195 170 255 255 255
3 298 228 152 255 255 255
3 4 82 54 255 255 255
3 205 228 300 255 255 255
3 161 69 205 255 255 255
3 57 195 161 255 255 255
3 57 226 67 255 255 255
3 85 47 204 255 255 255
3 156 75 14 255 255 255
3 195 226 170 255 255 255
3 152 215 195 255 255 255
3 228 69 152 255 255 255
3 298 54 228 255 255 255
3 207 215 57 255 255 255
3 226 136 67 255 255 255
3 69 170 152 255 255 255
3 136 56 67 255 255 255
3 82 204 118 255 255 255
3 136 248 56 255 255 255
3 69 161 170 255 255 255
3 211 1 137 255 255 255
3 295 295 295 255 255 255
