ply
format ascii 1.0
element vertex 319
property float x
property float y
property float z
element face 576
property list uchar int vertex_indices
property uchar red
property uchar green
property uchar blue
end_header
13.6260013580322266 -3.91270089149475098 -0.525482237339019775
13.5215005874633789 -3.84809398651123047 -0.484054207801818848
13.5340003967285156 -3.86100006103515625 -0.50700002908706665
13.5290002822875977 -3.84299993515014648 -0.462000012397766113
13.5493125915527344 -3.89741754531860352 -0.5498008131980896
13.5525178909301758 -3.88503861427307129 -0.563293159008026123
13.5123443603515625 -3.86511349678039551 -0.598049700260162354
13.5329999923706055 -3.8469998836517334 -0.573000013828277588
13.5118627548217773 -3.85846924781799316 -0.603031754493713379
13.5442781448364258 -3.86343288421630859 -0.573756098747253418
13.5039997100830078 -3.88499999046325684 -0.60000002384185791
13.5179996490478516 -3.89700007438659668 -0.462000012397766113
13.5898008346557617 -3.91811537742614746 -0.645240247249603271
13.6351509094238281 -3.93616628646850586 -0.445210903882980347
13.5880002975463867 -3.87700009346008301 -0.465000003576278687
13.6326570510864258 -3.92124724388122559 -0.629459679126739502
13.6224308013916016 -3.91161060333251953 -0.504433333873748779
13.5600004196166992 -3.88599991798400879 -0.643000006675720215
13.5120000839233398 -3.89100003242492676 -0.455000013113021851
13.5450000762939453 -3.87199997901916504 -0.430999994277954102
13.5472564697265625 -3.88531064987182617 -0.616608142852783203
13.5129995346069336 -3.89499998092651367 -0.453999996185302734
13.5249996185302734 -3.84800004959106445 -0.582000017166137695
13.5439653396606445 -3.8729701042175293 -0.540018439292907715
13.6180000305175781 -3.92100000381469727 -0.643000006675720215
13.5850000381469727 -3.91400003433227539 -0.550999999046325684
13.6610727310180664 -3.89589691162109375 -0.404822200536727905
13.5349998474121094 -3.8900001049041748 -0.455000013113021851
13.5520000457763672 -3.88499999046325684 -0.442000001668930054
13.5120000839233398 -3.85100007057189941 -0.505999982357025146
13.5150003433227539 -3.87400007247924805 -0.483000010251998901
13.5338201522827148 -3.86760973930358887 -0.493846505880355835
13.5173816680908203 -3.86343884468078613 -0.573428452014923096
13.5259828567504883 -3.84987831115722656 -0.573823213577270508
13.5369024276733398 -3.85623884201049805 -0.562608301639556885
13.5270004272460938 -3.85899996757507324 -0.528999984264373779
13.5410003662109375 -3.85299992561340332 -0.493999987840652466
13.5100002288818359 -3.87299990653991699 -0.48399999737739563
13.5139999389648438 -3.86500000953674316 -0.481999993324279785
13.4930734634399414 -3.84487605094909668 -0.51723325252532959
13.5229997634887695 -3.8599998950958252 -0.602999985218048096
13.6406993865966797 -3.9349515438079834 -0.527262091636657715
13.5159997940063477 -3.87899994850158691 -0.601999998092651367
13.5179996490478516 -3.85800004005432129 -0.509999990463256836
13.5830001831054688 -3.8619999885559082 -0.456999987363815308
13.5850000381469727 -3.90199995040893555 -0.526000022888183594
13.5810003280639648 -3.88100004196166992 -0.635999977588653564
13.5489997863769531 -3.89700007438659668 -0.437999993562698364
13.6160001754760742 -3.91400003433227539 -0.56400001049041748
13.5799999237060547 -3.87100005149841309 -0.462000012397766113
13.5209999084472656 -3.87299990653991699 -0.432000011205673218
13.5780000686645508 -3.88599991798400879 -0.45199999213218689
13.6139373779296875 -3.91836929321289062 -0.583755671977996826
13.5319995880126953 -3.8340001106262207 -0.462999999523162842
13.5646886825561523 -3.89396381378173828 -0.552277326583862305
13.5539999008178711 -3.88400006294250488 -0.697000026702880859
13.5830001831054688 -3.91100001335144043 -0.551999986171722412
13.5179996490478516 -3.86400008201599121 -0.570999979972839355
13.5279998779296875 -3.85199999809265137 -0.409500002861022949
13.5970001220703125 -3.9030001163482666 -0.577000021934509277
13.6020002365112305 -3.87899994850158691 -0.462999999523162842
13.6154365539550781 -3.92900395393371582 -0.528646707534790039
13.6174354553222656 -3.91977834701538086 -0.563922405242919922
13.5120000839233398 -3.89100003242492676 -0.435000002384185791
13.6099996566772461 -3.91100001335144043 -0.63200002908706665
13.5550003051757812 -3.90799999237060547 -0.460999995470046997
13.5290002822875977 -3.8880000114440918 -0.449999988079071045
13.6171636581420898 -3.90548610687255859 -0.487820714712142944
13.5351724624633789 -3.85259103775024414 -0.58788532018661499
13.5336132049560547 -3.86335468292236328 -0.592983424663543701
13.5340003967285156 -3.85899996757507324 -0.541999995708465576
13.5360002517700195 -3.87899994850158691 -0.476000010967254639
13.5120000839233398 -3.85700011253356934 -0.614000022411346436
13.5221614837646484 -3.86787509918212891 -0.588389575481414795
13.5600004196166992 -3.83999991416931152 -0.449999988079071045
13.5220003128051758 -3.90199995040893555 -0.462999999523162842
13.5159997940063477 -3.86299991607666016 -0.624000012874603271
13.533024787902832 -3.85397648811340332 -0.439961612224578857
13.5260000228881836 -3.85899996757507324 -0.611000001430511475
13.5934486389160156 -3.90559172630310059 -0.541943371295928955
13.5744695663452148 -3.88965034484863281 -0.525984048843383789
13.5988454818725586 -3.92311382293701172 -0.574157297611236572
13.5369997024536133 -3.8599998950958252 -0.563000023365020752
13.5999479293823242 -3.88594722747802734 -0.460979610681533813
13.5699996948242188 -3.88100004196166992 -0.657999992370605469
13.635828971862793 -3.91693949699401855 -0.631928026676177979
13.6481256484985352 -3.92986702919006348 -0.459908545017242432
13.5340003967285156 -3.87599992752075195 -0.537000000476837158
13.5244522094726562 -3.86864233016967773 -0.706308662891387939
13.5139999389648438 -3.90400004386901855 -0.593999981880187988
13.5288047790527344 -3.87444496154785156 -0.41152152419090271
13.6463451385498047 -3.89370226860046387 -0.418340981006622314
13.5460700988769531 -3.86409449577331543 -0.60236823558807373
13.5489997863769531 -3.8880000114440918 -0.745000004768371582
13.4940004348754883 -3.9030001163482666 -0.428999990224838257
13.5380001068115234 -3.87800002098083496 -0.442000001668930054
13.5317506790161133 -3.8755028247833252 -0.627142608165740967
13.6370353698730469 -3.93099784851074219 -0.512507855892181396
13.5457792282104492 -3.8612666130065918 -0.712438523769378662
13.6049995422363281 -3.8900001049041748 -0.634000003337860107
13.5785665512084961 -3.86887216567993164 -0.442973911762237549
13.5249996185302734 -3.88599991798400879 -0.439999997615814209
13.5010004043579102 -3.84800004959106445 -0.544000029563903809
13.5860004425048828 -3.85899996757507324 -0.45199999213218689
13.647648811340332 -3.90172791481018066 -0.424536138772964478
13.5451831817626953 -3.84444451332092285 -0.449054867029190063
13.5585298538208008 -3.88447427749633789 -0.483479887247085571
13.5565357208251953 -3.85100436210632324 -0.482741028070449829
13.5710000991821289 -3.87899994850158691 -0.432999998331069946
13.5264015197753906 -3.86099505424499512 -0.436223655939102173
13.5670003890991211 -3.86400008201599121 -0.456000000238418579
13.5144510269165039 -3.89140915870666504 -0.439305692911148071
13.5340003967285156 -3.88499999046325684 -0.442999988794326782
13.5120000839233398 -3.87900018692016602 -0.42300000786781311
13.5819997787475586 -3.8900001049041748 -0.643999993801116943
13.5659999847412109 -3.90000009536743164 -0.542999982833862305
13.5019998550415039 -3.89199995994567871 -0.453000009059906006
13.5749998092651367 -3.87549996376037598 -0.657999992370605469
13.555999755859375 -3.86500000953674316 -0.474999994039535522
13.6544017791748047 -3.91170144081115723 -0.418199717998504639
13.5659999847412109 -3.84899997711181641 -0.469000011682510376
13.560999870300293 -3.88599991798400879 -0.446999996900558472
13.5310001373291016 -3.86700010299682617 -0.602999985218048096
13.6009998321533203 -3.93499994277954102 -0.563000023365020752
13.6120004653930664 -3.91000008583068848 -0.638999998569488525
13.5319995880126953 -3.87800002098083496 -0.470999985933303833
13.5039997100830078 -3.88299989700317383 -0.597000002861022949
13.5424842834472656 -3.88123011589050293 -0.487923204898834229
13.5190000534057617 -3.86899995803833008 -0.495000004768371582
13.5437250137329102 -3.87751936912536621 -0.547805666923522949
13.560999870300293 -3.86700010299682617 -0.43599998950958252
13.5830001831054688 -3.86500000953674316 -0.458999991416931152
13.5939617156982422 -3.90852189064025879 -0.636861503124237061
13.5702533721923828 -3.87573766708374023 -0.652437150478363037
13.5441818237304688 -3.84996724128723145 -0.758482635021209717
13.5924997329711914 -3.90149998664855957 -0.578500032424926758
13.6273584365844727 -3.91698122024536133 -0.611431896686553955
13.505000114440918 -3.85700011253356934 -0.529999971389770508
13.5279998779296875 -3.87299990653991699 -0.532999992370605469
13.5463056564331055 -3.86900711059570312 -0.559869766235351562
13.5220003128051758 -3.83599996566772461 -0.569000005722045898
13.5179996490478516 -3.84999990463256836 -0.592000007629394531
13.5069999694824219 -3.89900016784667969 -0.592499971389770508
13.5319995880126953 -3.87899994850158691 -0.467000007629394531
13.5629997253417969 -3.90100002288818359 -0.546000003814697266
13.5220003128051758 -3.88499999046325684 -0.615000009536743164
13.5728750228881836 -3.8588409423828125 -0.458192348480224609
13.5369997024536133 -3.875 -0.614000022411346436
13.5978708267211914 -3.87722897529602051 -0.439833641052246094
13.6020002365112305 -3.92700004577636719 -0.560000002384185791
13.6313276290893555 -3.93764066696166992 -0.525648713111877441
13.4907398223876953 -3.89969015121459961 -0.447589516639709473
13.5600700378417969 -3.89492607116699219 -0.640949368476867676
13.5760002136230469 -3.86599993705749512 -0.462999999523162842
13.6309995651245117 -3.93499994277954102 -0.508000016212463379
13.6280002593994141 -3.92600011825561523 -0.510999977588653564
13.6020002365112305 -3.90799999237060547 -0.577000021934509277
13.6312284469604492 -3.90967178344726562 -0.617722868919372559
13.5692224502563477 -3.8901972770690918 -0.476994603872299194
13.5360002517700195 -3.8900001049041748 -0.43599998950958252
13.6239995956420898 -3.93499994277954102 -0.549000024795532227
13.6021432876586914 -3.89722394943237305 -0.632474184036254883
13.5340003967285156 -3.86999988555908203 -0.421999990940093994
13.5410003662109375 -3.90899991989135742 -0.46799999475479126
13.6079864501953125 -3.86882328987121582 -0.437401175498962402
13.5149717330932617 -3.88254833221435547 -0.411921143531799316
13.5143184661865234 -3.90799355506896973 -0.447122663259506226
13.6149997711181641 -3.90799999237060547 -0.60000002384185791
13.5149116516113281 -3.86829209327697754 -0.412804991006851196
13.587646484375 -3.90218496322631836 -0.523081302642822266
13.5585002899169922 -3.88549995422363281 -0.440999984741210938
13.5620002746582031 -3.89100003242492676 -0.654999971389770508
13.6409997940063477 -3.91000008583068848 -0.423999994993209839
13.6490001678466797 -3.92100000381469727 -0.404000014066696167
13.5074892044067383 -3.86543750762939453 -0.423785656690597534
13.5369997024536133 -3.90599989891052246 -0.469999998807907104
13.5520715713500977 -3.89041495323181152 -0.496629685163497925
13.5389995574951172 -3.90100002288818359 -0.469999998807907104
13.5290288925170898 -3.91331267356872559 -0.430495232343673706
13.5369997024536133 -3.88199996948242188 -0.469999998807907104
13.5127477645874023 -3.86755490303039551 -0.402449101209640503
13.6110000610351562 -3.91899991035461426 -0.532999992370605469
13.5310001373291016 -3.88100004196166992 -0.421999990940093994
13.5260000228881836 -3.87899994850158691 -0.414999991655349731
13.6190004348754883 -3.93000006675720215 -0.642000019550323486
13.5514793395996094 -3.86216473579406738 -0.614873766899108887
13.616999626159668 -3.90899991989135742 -0.630999982357025146
13.5109996795654297 -3.8880000114440918 -0.597999989986419678
13.5329999923706055 -3.86400008201599121 -0.490000009536743164
13.6194610595703125 -3.94129633903503418 -0.546221315860748291
13.5489997863769531 -3.9030001163482666 -0.546999990940093994
13.6009702682495117 -3.88510799407958984 -0.445002377033233643
13.5139999389648438 -3.87599992752075195 -0.603999972343444824
13.5360002517700195 -3.86400008201599121 -0.43599998950958252
13.6174087524414062 -3.91898131370544434 -0.499166339635848999
13.6239995956420898 -3.92600011825561523 -0.531000018119812012
13.5989999771118164 -3.86599993705749512 -0.439999997615814209
13.5139999389648438 -3.85800004005432129 -0.611000001430511475
13.6230001449584961 -3.90899991989135742 -0.490000009536743164
13.5586910247802734 -3.86270809173583984 -0.440742552280426025
13.5787515640258789 -3.91769814491271973 -0.543346226215362549
13.5538873672485352 -3.88837456703186035 -0.438697636127471924
13.5884847640991211 -3.87444758415222168 -0.450510323047637939
13.5740175247192383 -3.88707160949707031 -0.467589646577835083
13.5299997329711914 -3.88899993896484375 -0.439999997615814209
13.5719995498657227 -3.875 -0.439999997615814209
13.5236091613769531 -3.90020966529846191 -0.454985052347183228
13.5530004501342773 -3.86899995803833008 -0.453999996185302734
13.5340003967285156 -3.85100007057189941 -0.46399998664855957
13.5340003967285156 -3.88000011444091797 -0.563000023365020752
13.5480003356933594 -3.86400008201599121 -0.55699998140335083
13.5411930084228516 -3.89109992980957031 -0.538510143756866455
13.5429859161376953 -3.86587977409362793 -0.495082199573516846
13.5310001373291016 -3.85299992561340332 -0.586000025272369385
13.5229997634887695 -3.85800004005432129 -0.566999971866607666
13.5195283889770508 -3.85523152351379395 -0.550763428211212158
13.6525144577026367 -3.91701722145080566 -0.40768963098526001
13.653106689453125 -3.90571498870849609 -0.401593983173370361
13.5150003433227539 -3.85199999809265137 -0.596000015735626221
13.5407829284667969 -3.84054684638977051 -0.442497789859771729
13.5376930236816406 -3.91996598243713379 -0.447094261646270752
13.5410003662109375 -3.90100002288818359 -0.435000002384185791
13.6149997711181641 -3.92100000381469727 -0.492000013589859009
13.6110000610351562 -3.90899991989135742 -0.606999993324279785
13.5889997482299805 -3.90899991989135742 -0.665000021457672119
13.5291051864624023 -3.86162686347961426 -0.393776506185531616
13.5380001068115234 -3.90899991989135742 -0.432000011205673218
13.5322818756103516 -3.85735249519348145 -0.597261607646942139
13.551030158996582 -3.8483128547668457 -0.490765988826751709
13.54949951171875 -3.84949994087219238 -0.75
13.5520000457763672 -3.88599991798400879 -0.754000008106231689
13.5666303634643555 -3.84165620803833008 -0.466407656669616699
13.5570001602172852 -3.88599991798400879 -0.639999985694885254
13.5469999313354492 -3.88700008392333984 -0.474999994039535522
13.6158313751220703 -3.90735673904418945 -0.501428306102752686
13.5920000076293945 -3.91199994087219238 -0.643999993801116943
13.6160001754760742 -3.93000006675720215 -0.456000000238418579
13.5190000534057617 -3.87100005149841309 -0.572000026702880859
13.5087871551513672 -3.84775304794311523 -0.542619407176971436
13.5039997100830078 -3.85500001907348633 -0.53600001335144043
13.507624626159668 -3.83677220344543457 -0.526710212230682373
13.5037097930908203 -3.85950827598571777 -0.525838553905487061
13.5229730606079102 -3.84583806991577148 -0.541986346244812012
13.511073112487793 -3.86175036430358887 -0.549585700035095215
13.5077447891235352 -3.83165311813354492 -0.511655151844024658
13.5085000991821289 -3.84850001335144043 -0.509999990463256836
13.5089244842529297 -3.86104369163513184 -0.513101339340209961
13.5105018615722656 -3.85857248306274414 -0.502140343189239502
13.5150003433227539 -3.8599998950958252 -0.522000014781951904
13.5203304290771484 -3.84875607490539551 -0.52328723669052124
13.5231704711914062 -3.83900642395019531 -0.503193914890289307
13.5229997634887695 -3.86400008201599121 -0.570999979972839355
13.5240001678466797 -3.8599998950958252 -0.614000022411346436
13.4953117370605469 -3.89274764060974121 -0.439230144023895264
13.5579996109008789 -3.84800004959106445 -0.486999988555908203
13.5719995498657227 -3.88499999046325684 -0.446000009775161743
13.6079998016357422 -3.90899991989135742 -0.643999993801116943
13.5010004043579102 -3.85100007057189941 -0.523000001907348633
13.5290002822875977 -3.8880000114440918 -0.615999996662139893
13.5900001525878906 -3.89499998092651367 -0.523999989032745361
13.5329999923706055 -3.8469998836517334 -0.50700002908706665
13.5290002822875977 -3.8599998950958252 -0.620000004768371582
13.6042098999023438 -3.87653923034667969 -0.452795118093490601
13.5310001373291016 -3.89499998092651367 -0.460999995470046997
13.5600004196166992 -3.85400009155273438 -0.497000008821487427
13.5483598709106445 -3.86329412460327148 -0.452655822038650513
13.5301303863525391 -3.8521873950958252 -0.424094706773757935
13.5649995803833008 -3.87599992752075195 -0.437999993562698364
13.5343198776245117 -3.85820913314819336 -0.403210431337356567
13.5299997329711914 -3.87299990653991699 -0.418000012636184692
13.5520000457763672 -3.88299989700317383 -0.493999987840652466
13.5262432098388672 -3.86122322082519531 -0.637774169445037842
13.5389995574951172 -3.92300009727478027 -0.441000014543533325
13.557499885559082 -3.8880000114440918 -0.654000043869018555
13.5501956939697266 -3.84667396545410156 -0.470780521631240845
13.5469999313354492 -3.86400008201599121 -0.48399999737739563
13.5376710891723633 -3.86485576629638672 -0.461931854486465454
13.5170001983642578 -3.8469998836517334 -0.518999993801116943
13.5539999008178711 -3.85800004005432129 -0.495000004768371582
13.5366888046264648 -3.84444689750671387 -0.481205493211746216
13.533055305480957 -3.83871102333068848 -0.460733652114868164
13.5219888687133789 -3.85310888290405273 -0.470674097537994385
13.5170001983642578 -3.87599992752075195 -0.476000010967254639
13.5109996795654297 -3.87899994850158691 -0.47999998927116394
13.5209999084472656 -3.87400007247924805 -0.625
13.5451974868774414 -3.8648989200592041 -0.416089236736297607
13.5260000228881836 -3.88000011444091797 -0.426999986171722412
13.5209999084472656 -3.89400005340576172 -0.453000009059906006
13.6224021911621094 -3.90751957893371582 -0.508866071701049805
13.4934825897216797 -3.90616321563720703 -0.442311942577362061
13.6372146606445312 -3.91572809219360352 -0.513310134410858154
13.5830001831054688 -3.88400006294250488 -0.643999993801116943
13.5790004730224609 -3.91899991035461426 -0.552999973297119141
13.5450000762939453 -3.90799999237060547 -0.444000005722045898
13.6219997406005859 -3.92400002479553223 -0.644999980926513672
13.6190004348754883 -3.91000008583068848 -0.611999988555908203
13.5530004501342773 -3.9030001163482666 -0.458000004291534424
13.5959997177124023 -3.90199995040893555 -0.586000025272369385
13.5340003967285156 -3.86100006103515625 -0.547999978065490723
13.5153741836547852 -3.87093877792358398 -0.643920063972473145
13.605595588684082 -3.92839837074279785 -0.532096326351165771
13.5550003051757812 -3.84899997711181641 -0.755999982357025146
1 1 1
13.5220003128051758 -3.87899994850158691 -0.430999994277954102
13.555999755859375 -3.88599991798400879 -0.750999987125396729
13.6162252426147461 -3.94019412994384766 -0.464013397693634033
13.5329999923706055 -3.86400008201599121 -0.481000006198883057
13.5369997024536133 -3.88599991798400879 -0.56099998950958252
13.5649995803833008 -3.89700007438659668 -0.560000002384185791
13.5229997634887695 -3.85899996757507324 -0.472999989986419678
13.5114917755126953 -3.86267352104187012 -0.475545585155487061
13.5159997940063477 -3.86599993705749512 -0.503000020980834961
13.5279998779296875 -3.8619999885559082 -0.503000020980834961
13.5220003128051758 -3.86299991607666016 -0.526000022888183594
13.5240001678466797 -3.86700010299682617 -0.537999987602233887
13.5120000839233398 -3.85599994659423828 -0.535000026226043701
13.521052360534668 -3.86140871047973633 -0.539640128612518311
13.5261745452880859 -3.87155008316040039 -0.554757654666900635
13.5520000457763672 -3.88400006294250488 -0.477999985218048096
3 26 216 119 255 255 255
3 216 172 119 255 255 255
3 173 172 216 255 255 255
3 26 91 217 255 255 255
3 104 91 26 255 255 255
3 26 119 104 255 255 255
3 172 104 119 255 255 255
3 217 216 26 255 255 255
3 217 173 216 255 255 255
3 217 119 173 255 255 255
3 172 217 91 255 255 255
3 39 240 238 255 255 255
3 238 137 39 255 255 255
3 39 244 240 255 255 255
3 239 241 39 255 255 255
3 238 243 137 255 255 255
3 240 242 238 255 255 255
3 39 245 244 255 255 255
3 241 246 39 255 255 255
3 239 243 241 255 255 255
3 242 215 238 255 255 255
3 243 316 241 255 255 255
3 239 102 243 255 255 255
3 244 250 240 255 255 255
3 245 1 244 255 255 255
3 39 247 245 255 255 255
3 246 247 39 255 255 255
3 246 311 247 255 255 255
3 246 248 311 255 255 255
3 241 313 246 255 255 255
3 239 257 102 255 255 255
3 242 34 215 255 255 255
3 240 249 242 255 255 255
3 240 250 249 255 255 255
3 244 1 250 255 255 255
3 247 1 245 255 255 255
3 247 310 1 255 255 255
3 248 312 311 255 255 255
3 241 314 313 255 255 255
3 243 317 316 255 255 255
3 243 237 317 255 255 255
3 243 32 237 255 255 255
3 214 243 215 255 255 255
3 215 33 214 255 255 255
3 242 70 34 255 255 255
3 70 210 34 255 255 255
3 242 35 70 255 255 255
3 249 35 242 255 255 255
3 249 43 35 255 255 255
3 250 260 249 255 255 255
3 250 36 260 255 255 255
3 1 279 250 255 255 255
3 310 281 1 255 255 255
3 247 37 310 255 255 255
3 311 128 247 255 255 255
3 312 31 311 255 255 255
3 248 2 312 255 255 255
3 313 312 246 255 255 255
3 314 138 313 255 255 255
3 315 248 241 255 255 255
3 241 243 315 255 255 255
3 316 87 313 255 255 255
3 317 87 316 255 255 255
3 317 211 87 255 255 255
3 237 209 317 255 255 255
3 32 6 237 255 255 255
3 243 238 215 255 255 255
3 214 57 243 255 255 255
3 33 32 214 255 255 255
3 215 7 33 255 255 255
3 34 251 215 255 255 255
3 70 23 210 255 255 255
3 35 129 70 255 255 255
3 249 277 43 255 255 255
3 36 278 260 255 255 255
3 250 279 36 255 255 255
3 1 280 279 255 255 255
3 310 282 281 255 255 255
3 37 283 310 255 255 255
3 38 29 247 255 255 255
3 247 30 38 255 255 255
3 311 31 128 255 255 255
3 248 35 2 255 255 255
3 313 31 312 255 255 255
3 314 317 138 255 255 255
3 317 307 211 255 255 255
3 237 9 209 255 255 255
3 33 22 32 255 255 255
3 251 243 215 255 255 255
3 34 68 251 255 255 255
3 210 9 34 255 255 255
3 23 129 210 255 255 255
3 35 138 129 255 255 255
3 277 29 43 255 255 255
3 278 2 260 255 255 255
3 36 254 278 255 255 255
3 279 254 36 255 255 255
3 279 274 254 255 255 255
3 280 274 279 255 255 255
3 1 281 280 255 255 255
3 281 3 280 255 255 255
3 282 309 281 255 255 255
3 310 283 282 255 255 255
3 283 71 282 255 255 255
3 37 128 283 255 255 255
3 29 246 247 255 255 255
3 30 283 38 255 255 255
3 31 30 128 255 255 255
3 248 314 35 255 255 255
3 307 4 211 255 255 255
3 237 32 9 255 255 255
3 6 126 237 255 255 255
3 32 141 6 255 255 255
3 33 140 22 255 255 255
3 68 57 251 255 255 255
3 7 82 34 255 255 255
3 34 68 7 255 255 255
3 210 139 9 255 255 255
3 129 5 210 255 255 255
3 129 139 70 255 255 255
3 138 87 129 255 255 255
3 29 312 43 255 255 255
3 249 137 277 255 255 255
3 2 249 260 255 255 255
3 278 212 2 255 255 255
3 274 231 254 255 255 255
3 3 53 281 255 255 255
3 281 276 3 255 255 255
3 309 276 281 255 255 255
3 282 143 309 255 255 255
3 71 125 282 255 255 255
3 31 282 30 255 255 255
3 212 275 31 255 255 255
3 4 190 211 255 255 255
3 307 5 4 255 255 255
3 9 5 209 255 255 255
3 32 213 9 255 255 255
3 126 187 237 255 255 255
3 6 10 126 255 255 255
3 6 218 8 255 255 255
3 141 218 6 255 255 255
3 140 141 22 255 255 255
3 57 32 251 255 255 255
3 68 73 57 255 255 255
3 7 214 82 255 255 255
3 139 5 9 255 255 255
3 23 211 129 255 255 255
3 139 298 70 255 255 255
3 137 241 277 255 255 255
3 249 239 137 255 255 255
3 212 31 2 255 255 255
3 278 127 212 255 255 255
3 274 280 231 255 255 255
3 3 219 280 255 255 255
3 282 263 143 255 255 255
3 71 263 125 255 255 255
3 31 306 282 255 255 255
3 275 306 31 255 255 255
3 275 276 306 255 255 255
3 5 308 4 255 255 255
3 5 307 209 255 255 255
3 9 73 69 255 255 255
3 213 68 9 255 255 255
3 126 142 187 255 255 255
3 10 142 126 255 255 255
3 6 192 10 255 255 255
3 8 192 6 255 255 255
3 218 72 8 255 255 255
3 68 227 73 255 255 255
3 214 251 82 255 255 255
3 139 210 5 255 255 255
3 211 139 129 255 255 255
3 298 215 70 255 255 255
3 139 82 298 255 255 255
3 278 275 127 255 255 255
3 280 219 231 255 255 255
3 3 276 219 255 255 255
3 276 265 219 255 255 255
3 263 27 143 255 255 255
3 282 75 263 255 255 255
3 71 175 263 255 255 255
3 276 309 306 255 255 255
3 309 38 306 255 255 255
3 275 118 276 255 255 255
3 4 144 190 255 255 255
3 308 200 4 255 255 255
3 69 92 9 255 255 255
3 142 89 187 255 255 255
3 142 145 89 255 255 255
3 10 187 142 255 255 255
3 192 145 10 255 255 255
3 8 284 192 255 255 255
3 72 76 8 255 255 255
3 73 237 57 255 255 255
3 211 307 139 255 255 255
3 275 318 127 255 255 255
3 278 118 275 255 255 255
3 278 264 118 255 255 255
3 231 74 146 255 255 255
3 74 199 146 255 255 255
3 231 219 74 255 255 255
3 219 199 74 255 255 255
3 143 27 276 255 255 255
3 27 207 276 255 255 255
3 263 204 27 255 255 255
3 75 111 263 255 255 255
3 71 127 175 255 255 255
3 38 37 306 255 255 255
3 309 281 38 255 255 255
3 144 115 190 255 255 255
3 308 292 200 255 255 255
3 89 258 187 255 255 255
3 145 258 89 255 255 255
3 145 284 258 255 255 255
3 8 76 284 255 255 255
3 76 299 284 255 255 255
3 40 192 73 255 255 255
3 73 213 40 255 255 255
3 318 233 127 255 255 255
3 264 107 118 255 255 255
3 278 228 264 255 255 255
3 146 44 231 255 255 255
3 219 266 199 255 255 255
3 77 266 219 255 255 255
3 207 193 265 255 255 255
3 265 179 207 255 255 255
3 207 105 276 255 255 255
3 27 28 207 255 255 255
3 204 112 27 255 255 255
3 75 166 111 255 255 255
3 309 3 281 255 255 255
3 309 208 3 255 255 255
3 144 200 115 255 255 255
3 69 147 92 255 255 255
3 258 42 187 255 255 255
3 284 96 258 255 255 255
3 76 271 299 255 255 255
3 40 72 192 255 255 255
3 213 227 40 255 255 255
3 68 92 227 255 255 255
3 318 106 233 255 255 255
3 199 100 146 255 255 255
3 130 100 199 255 255 255
3 130 108 100 255 255 255
3 266 285 199 255 255 255
3 77 109 266 255 255 255
3 207 19 193 255 255 255
3 265 143 179 255 255 255
3 105 219 276 255 255 255
3 207 110 105 255 255 255
3 28 130 207 255 255 255
3 27 159 28 255 255 255
3 204 303 112 255 255 255
3 75 220 166 255 255 255
3 71 188 127 255 255 255
3 208 53 3 255 255 255
3 200 169 115 255 255 255
3 292 149 200 255 255 255
3 92 20 185 255 255 255
3 147 20 92 255 255 255
3 69 122 147 255 255 255
3 42 73 187 255 255 255
3 258 122 42 255 255 255
3 96 20 258 255 255 255
3 299 96 284 255 255 255
3 271 96 299 255 255 255
3 76 261 271 255 255 255
3 40 78 72 255 255 255
3 78 218 227 255 255 255
3 227 261 78 255 255 255
3 92 185 227 255 255 255
3 68 34 9 255 255 255
3 106 158 233 255 255 255
3 107 120 118 255 255 255
3 228 254 264 255 255 255
3 146 196 44 255 255 255
3 146 100 103 255 255 255
3 100 196 103 255 255 255
3 108 202 100 255 255 255
3 130 19 108 255 255 255
3 266 268 285 255 255 255
3 58 268 266 255 255 255
3 58 225 268 255 255 255
3 266 174 58 255 255 255
3 109 174 266 255 255 255
3 19 162 193 255 255 255
3 207 201 19 255 255 255
3 143 125 179 255 255 255
3 219 208 276 255 255 255
3 110 146 105 255 255 255
3 207 267 110 255 255 255
3 28 201 130 255 255 255
3 27 111 159 255 255 255
3 303 109 112 255 255 255
3 204 111 303 255 255 255
3 166 289 111 255 255 255
3 220 178 166 255 255 255
3 75 175 220 255 255 255
3 71 306 188 255 255 255
3 200 79 169 255 255 255
3 292 123 149 255 255 255
3 147 258 20 255 255 255
3 122 252 147 255 255 255
3 42 69 73 255 255 255
3 96 232 20 255 255 255
3 261 185 271 255 255 255
3 78 252 72 255 255 255
3 78 197 218 255 255 255
3 158 177 233 255 255 255
3 107 231 120 255 255 255
3 254 107 264 255 255 255
3 196 262 44 255 255 255
3 146 100 196 255 255 255
3 146 110 100 255 255 255
3 100 148 196 255 255 255
3 108 191 202 255 255 255
3 130 285 19 255 255 255
3 174 180 58 255 255 255
3 174 165 180 255 255 255
3 109 50 174 255 255 255
3 109 101 50 255 255 255
3 77 265 109 255 255 255
3 19 269 162 255 255 255
3 201 47 19 255 255 255
3 219 53 208 255 255 255
3 267 100 110 255 255 255
3 267 205 100 255 255 255
3 201 267 130 255 255 255
3 28 112 201 255 255 255
3 111 286 159 255 255 255
3 27 287 111 255 255 255
3 109 95 112 255 255 255
3 303 113 109 255 255 255
3 111 113 303 255 255 255
3 111 253 113 255 255 255
3 204 21 111 255 255 255
3 111 289 253 255 255 255
3 175 163 220 255 255 255
3 75 177 175 255 255 255
3 176 233 127 255 255 255
3 169 80 115 255 255 255
3 79 259 169 255 255 255
3 123 189 149 255 255 255
3 20 232 185 255 255 255
3 252 96 147 255 255 255
3 122 197 252 255 255 255
3 185 96 271 255 255 255
3 261 227 185 255 255 255
3 252 261 72 255 255 255
3 177 127 233 255 255 255
3 158 163 177 255 255 255
3 106 118 158 255 255 255
3 262 131 44 255 255 255
3 196 164 262 255 255 255
3 148 164 196 255 255 255
3 202 103 100 255 255 255
3 285 182 19 255 255 255
3 268 90 285 255 255 255
3 58 180 225 255 255 255
3 174 113 165 255 255 255
3 50 113 174 255 255 255
3 109 66 101 255 255 255
3 265 95 109 255 255 255
3 269 50 162 255 255 255
3 267 108 205 255 255 255
3 112 159 201 255 255 255
3 286 162 159 255 255 255
3 111 63 286 255 255 255
3 287 18 111 255 255 255
3 253 94 113 255 255 255
3 21 116 111 255 255 255
3 101 66 111 255 255 255
3 178 94 166 255 255 255
3 220 272 178 255 255 255
3 75 179 177 255 255 255
3 176 106 233 255 255 255
3 270 106 176 255 255 255
3 176 212 270 255 255 255
3 80 190 115 255 255 255
3 200 25 79 255 255 255
3 200 149 25 255 255 255
3 189 181 149 255 255 255
3 252 76 96 255 255 255
3 122 40 197 255 255 255
3 185 147 96 255 255 255
3 158 65 163 255 255 255
3 158 14 203 255 255 255
3 118 153 158 255 255 255
3 131 153 44 255 255 255
3 262 60 131 255 255 255
3 202 131 103 255 255 255
3 51 83 202 255 255 255
3 202 255 51 255 255 255
3 285 90 182 255 255 255
3 268 180 90 255 255 255
3 50 63 113 255 255 255
3 269 183 50 255 255 255
3 201 296 47 255 255 255
3 112 101 159 255 255 255
3 113 168 109 255 255 255
3 21 11 116 255 255 255
3 94 289 166 255 255 255
3 94 253 289 255 255 255
3 272 226 178 255 255 255
3 272 293 226 255 255 255
3 220 293 272 255 255 255
3 220 65 293 255 255 255
3 179 127 177 255 255 255
3 75 11 179 255 255 255
3 270 275 106 255 255 255
3 169 259 80 255 255 255
3 259 79 80 255 255 255
3 189 61 181 255 255 255
3 65 220 163 255 255 255
3 158 203 65 255 255 255
3 203 51 65 255 255 255
3 158 49 14 255 255 255
3 153 49 158 255 255 255
3 131 14 153 255 255 255
3 262 191 60 255 255 255
3 164 191 262 255 255 255
3 164 148 191 255 255 255
3 83 60 202 255 255 255
3 255 121 51 255 255 255
3 180 165 90 255 255 255
3 165 183 90 255 255 255
3 63 165 113 255 255 255
3 296 293 47 255 255 255
3 201 28 296 255 255 255
3 170 121 201 255 255 255
3 101 178 159 255 255 255
3 11 151 116 255 255 255
3 21 287 11 255 255 255
3 75 206 11 255 255 255
3 181 25 79 255 255 255
3 79 45 181 255 255 255
3 189 150 61 255 255 255
3 51 296 65 255 255 255
3 131 202 14 255 255 255
3 148 202 191 255 255 255
3 148 205 202 255 255 255
3 51 203 83 255 255 255
3 255 201 121 255 255 255
3 165 286 182 255 255 255
3 293 221 47 255 255 255
3 296 177 293 255 255 255
3 28 121 296 255 255 255
3 178 221 159 255 255 255
3 168 268 109 255 255 255
3 113 165 168 255 255 255
3 287 66 11 255 255 255
3 54 190 80 255 255 255
3 54 5 190 255 255 255
3 181 300 25 255 255 255
3 61 0 181 255 255 255
3 150 154 61 255 255 255
3 189 41 150 255 255 255
3 205 255 202 255 255 255
3 168 180 268 255 255 255
3 221 95 47 255 255 255
3 178 226 221 255 255 255
3 151 111 116 255 255 255
3 151 94 111 255 255 255
3 75 163 206 255 255 255
3 54 308 5 255 255 255
3 54 56 308 255 255 255
3 155 288 61 255 255 255
3 61 154 155 255 255 255
3 154 234 155 255 255 255
3 150 97 154 255 255 255
3 41 97 150 255 255 255
3 189 160 41 255 255 255
3 56 292 308 255 255 255
3 56 81 292 255 255 255
3 54 79 56 255 255 255
3 181 195 300 255 255 255
3 155 16 288 255 255 255
3 234 194 155 255 255 255
3 154 222 234 255 255 255
3 41 290 97 255 255 255
3 160 195 41 255 255 255
3 56 59 81 255 255 255
3 181 0 195 255 255 255
3 0 41 195 255 255 255
3 16 234 288 255 255 255
3 155 97 16 255 255 255
3 41 0 290 255 255 255
3 81 123 292 255 255 255
3 81 52 123 255 255 255
3 59 135 81 255 255 255
3 56 135 59 255 255 255
3 0 155 290 255 255 255
3 97 290 16 255 255 255
3 222 67 234 255 255 255
3 135 297 81 255 255 255
3 234 67 288 255 255 255
3 290 288 16 255 255 255
3 52 62 123 255 255 255
3 81 297 52 255 255 255
3 297 167 52 255 255 255
3 0 61 288 255 255 255
3 288 67 16 255 255 255
3 67 198 16 255 255 255
3 62 160 123 255 255 255
3 52 167 62 255 255 255
3 167 156 62 255 255 255
3 297 223 167 255 255 255
3 67 222 198 255 255 255
3 222 194 198 255 255 255
3 160 189 123 255 255 255
3 48 149 62 255 255 255
3 62 156 48 255 255 255
3 156 135 48 255 255 255
3 223 136 167 255 255 255
3 194 97 198 255 255 255
3 149 160 62 255 255 255
3 48 135 149 255 255 255
3 194 154 97 255 255 255
3 156 297 135 255 255 255
3 223 64 136 255 255 255
3 16 198 194 255 255 255
3 64 15 136 255 255 255
3 64 294 15 255 255 255
3 223 161 64 255 255 255
3 294 85 15 255 255 255
3 64 132 294 255 255 255
3 161 132 64 255 255 255
3 132 12 294 255 255 255
3 161 114 132 255 255 255
3 114 12 132 255 255 255
3 114 152 12 255 255 255
3 161 46 114 255 255 255
3 114 46 152 255 255 255
3 46 232 152 255 255 255
3 161 99 46 255 255 255
3 256 24 12 255 255 255
3 12 224 256 255 255 255
3 12 235 224 255 255 255
3 232 273 152 255 255 255
3 161 256 99 255 255 255
3 24 184 12 255 255 255
3 256 124 24 255 255 255
3 235 291 224 255 255 255
3 171 291 152 255 255 255
3 152 273 171 255 255 255
3 232 133 273 255 255 255
3 124 186 161 255 255 255
3 161 235 124 255 255 255
3 24 294 184 255 255 255
3 124 85 24 255 255 255
3 291 84 224 255 255 255
3 235 161 291 255 255 255
3 273 133 84 255 255 255
3 133 117 84 255 255 255
3 186 223 161 255 255 255
3 235 12 124 255 255 255
3 24 85 294 255 255 255
3 85 157 15 255 255 255
3 84 171 224 255 255 255
3 186 295 223 255 255 255
3 12 184 124 255 255 255
3 157 136 15 255 255 255
3 157 295 136 255 255 255
3 186 85 295 255 255 255
3 295 167 136 255 255 255
3 85 186 157 255 255 255
3 133 46 117 255 255 255
3 133 17 46 255 255 255
3 301 229 134 255 255 255
3 304 93 230 255 255 255
3 305 86 13 255 255 255
3 13 236 305 255 255 255
3 13 86 236 255 255 255
3 86 305 236 255 255 255
3 98 55 88 255 255 255
3 302 302 302 255 255 255
