ply
format ascii 1.0
element vertex 317
property float x
property float y
property float z
element face 576
property list uchar int vertex_indices
property uchar red
property uchar green
property uchar blue
end_header
-10.0793685913085938 2.23722481727600098 -1.00405752658843994
-10.0150003433227539 2.20099997520446777 -1.02799999713897705
-10.0410003662109375 2.23000001907348633 -1.03799998760223389
-10.014439582824707 2.18265557289123535 -1.11193239688873291
-10.0059995651245117 2.20099997520446777 -1.08700001239776611
-10.0554866790771484 2.24776530265808105 -0.980452418327331543
-10.0526905059814453 2.27092576026916504 -0.963384330272674561
-10.0262613296508789 2.20139479637145996 -1.11346149444580078
-10.0461263656616211 2.15757560729980469 -1.11046814918518066
-10.0739059448242188 2.26424098014831543 -0.972940683364868164
-10.0605030059814453 2.25905680656433105 -1.02757763862609863
-10.0649995803833008 2.25 -0.995000004768371582
-10.065882682800293 2.27466797828674316 -0.968984663486480713
-10.0758132934570312 2.25989723205566406 -0.95784991979598999
-10.0494966506958008 2.26448869705200195 -0.939246952533721924
-10.0643863677978516 2.08255243301391602 -1.08062624931335449
-10.0856571197509766 2.26875114440917969 -0.906616449356079102
-10.0739192962646484 2.22870397567749023 -1.08424663543701172
-10.0429573059082031 2.06576943397521973 -1.0780404806137085
-10.0199346542358398 2.18560481071472168 -1.09078109264373779
-10.0726070404052734 2.27951359748840332 -0.904345214366912842
-10.0499210357666016 2.2526857852935791 -1.02070832252502441
-10.0679998397827148 2.23200011253356934 -1.04999995231628418
-10.0435895919799805 2.2651979923248291 -0.898077428340911865
-10.0594072341918945 2.30091524124145508 -0.911247909069061279
-10.0664587020874023 2.28749465942382812 -0.895119369029998779
-10.0439996719360352 2.27999997138977051 -0.890999972820281982
-10.0399999618530273 2.30800008773803711 -0.890999972820281982
-10.050663948059082 2.28067588806152344 -0.876418828964233398
-10.0278463363647461 2.17242193222045898 -1.0971454381942749
-10.0095157623291016 2.21757626533508301 -1.05961239337921143
-10.0068349838256836 2.22158932685852051 -1.04938805103302002
-10.1049995422363281 2.11400008201599121 -1.05200004577636719
-10.0412435531616211 2.10232996940612793 -1.08389592170715332
-10.0570001602172852 2.31299996376037598 -0.864000022411346436
-10.0614633560180664 2.05903458595275879 -1.07826709747314453
-10.0749998092651367 2.125 -1.04999995231628418
-10.0568265914916992 2.17693424224853516 -1.10963928699493408
-10.0202207565307617 2.28381943702697754 -0.904790878295898438
-10.0652275085449219 2.22161197662353516 -1.05820560455322266
-10.0347356796264648 2.22680425643920898 -1.05431318283081055
-10.0750007629394531 2.25250005722045898 -0.909000039100646973
-10.0349998474121094 2.18300008773803711 -1.10399997234344482
-10.0151357650756836 2.20550727844238281 -1.02199018001556396
-10.0618419647216797 2.27237462997436523 -0.871315956115722656
-10.0249996185302734 2.21799993515014648 -1.04999995231628418
-10.0620002746582031 2.11899995803833008 -1.06200003623962402
-10.0819997787475586 2.25799989700317383 -1.02900004386901855
-10.0790004730224609 2.24300003051757812 -1.02199995517730713
-10.0579996109008789 2.22799992561340332 -1.07700002193450928
-10.0310001373291016 2.16899991035461426 -1.10300004482269287
-10.0697422027587891 2.26251721382141113 -1.03364205360412598
-10.0460243225097656 2.16152834892272949 -1.04325175285339355
-10.0590000152587891 2.1400001049041748 -1.08099997043609619
-10.0256814956665039 2.08457589149475098 -1.11218976974487305
-10.0172147750854492 2.16042709350585938 -1.0400615930557251
-10.0290002822875977 2.16199994087219238 -1.08800005912780762
-10.0407791137695312 2.1999518871307373 -1.03624069690704346
-10.0469999313354492 2.15000009536743164 -1.10399997234344482
-10.0134334564208984 2.1537635326385498 -1.07937133312225342
-10.0772161483764648 2.17014145851135254 -1.0558478832244873
-10.0364780426025391 2.16092252731323242 -1.1019432544708252
-10.0162992477416992 2.19412136077880859 -1.10541999340057373
-10.0509490966796875 2.24129390716552734 -1.03404033184051514
-10.0380353927612305 2.24059295654296875 -1.03052699565887451
-10.0172138214111328 2.20958161354064941 -1.07757961750030518
-10.0629997253417969 2.23200011253356934 -1.04799997806549072
-10.0179996490478516 2.19099998474121094 -1.02450001239776611
-10.0667285919189453 2.25461316108703613 -1.00535190105438232
-10.0399999618530273 2.07999992370605469 -1.06099998950958252
-10.0530204772949219 2.10500383377075195 -1.05610108375549316
-10.0439996719360352 2.08100008964538574 -1.06400001049041748
-10.0998106002807617 2.10400009155273438 -1.05631422996520996
-10.0944147109985352 2.10684061050415039 -1.05397427082061768
-10.0817861557006836 2.11142611503601074 -1.05865621566772461
-10.0592041015625 2.11119270324707031 -1.06462419033050537
-10.0810003280639648 2.11400008201599121 -1.04999995231628418
-10.064788818359375 2.13273525238037109 -1.06563591957092285
-10.0300827026367188 2.08561563491821289 -1.09159159660339355
-10.0062942504882812 2.1842799186706543 -1.07417821884155273
-10.0829572677612305 2.24145150184631348 -1.04289984703063965
-10.0109996795654297 2.22000002861022949 -1.02300000190734863
-10.054656982421875 2.20628046989440918 -1.08346569538116455
-10.0500001907348633 2.19300007820129395 -1.06700003147125244
-10.0570001602172852 2.25200009346008301 -1.0010000467300415
-10.0782785415649414 2.26048588752746582 -0.944425106048583984
-10.0880002975463867 2.27600002288818359 -0.962999999523162842
-10.0839118957519531 2.27056574821472168 -0.942261755466461182
-10.0651493072509766 2.26195764541625977 -0.942217171192169189
-10.0486955642700195 2.27961897850036621 -0.94738692045211792
-10.023890495300293 2.21957898139953613 -1.06053304672241211
-10.0613918304443359 2.22071242332458496 -1.09871101379394531
-10.0570001602172852 2.28099989891052246 -0.944000005722045898
-10.0689945220947266 2.27655863761901855 -0.952154099941253662
-10.0930004119873047 2.23399996757507324 -1.03999996185302734
-10.0520000457763672 2.18899989128112793 -1.09899997711181641
-10.0355987548828125 2.21059370040893555 -1.10555243492126465
-9.98714065551757812 2.19882774353027344 -1.01832735538482666
-10.02569580078125 2.16224288940429688 -1.05567705631256104
-9.98799991607666016 2.20199990272521973 -1.07700002193450928
-9.98775005340576172 2.19612503051757812 -1.08150005340576172
-9.99100017547607422 2.19899988174438477 -1.07850003242492676
-10.0590877532958984 2.26470685005187988 -0.909856319427490234
-10.0430011749267578 2.29529833793640137 -0.921835780143737793
-10.0620002746582031 2.17799997329711914 -1.09200000762939453
-10.0266685485839844 2.2118523120880127 -1.02734112739562988
-10.0361480712890625 2.22160673141479492 -1.01821517944335938
-10.0299444198608398 2.29902839660644531 -0.906577229499816895
-10.0735635757446289 2.27772927284240723 -0.862393736839294434
-10.0779867172241211 2.29618072509765625 -0.87929457426071167
-9.99676513671875 2.18517374992370605 -1.03468000888824463
-9.98499965667724609 2.20199990272521973 -1.08000004291534424
-10.0396871566772461 2.15373420715332031 -1.06837165355682373
-10.0594768524169922 2.24366378784179688 -1.00706660747528076
-10.0443754196166992 2.2249748706817627 -1.09109413623809814
-10.0507583618164062 2.28465461730957031 -0.937947452068328857
-10.0412082672119141 2.27239179611206055 -0.934547364711761475
-10.0789241790771484 2.27297592163085938 -0.938709139823913574
-10.0871076583862305 2.26949715614318848 -0.917813956737518311
-10.0709028244018555 2.25600218772888184 -0.931216061115264893
-10.0190000534057617 2.18300008773803711 -1.09599995613098145
-10.064000129699707 2.25500011444091797 -1.0429999828338623
-10.0681867599487305 2.28426933288574219 -0.933919548988342285
-10.075286865234375 2.26322388648986816 -1.05675506591796875
-10.0520000457763672 2.14100003242492676 -1.09300005435943604
-10.0299997329711914 2.16899991035461426 -1.04499995708465576
-10.0349998474121094 2.09599995613098145 -1.07799994945526123
-10.0525312423706055 2.21805596351623535 -1.06008744239807129
-10.0290002822875977 2.10400009155273438 -1.09399998188018799
-10.0900001525878906 2.26200008392333984 -1.03400003910064697
-10.0539999008178711 2.22799992561340332 -1.04999995231628418
-10.0629997253417969 2.28099989891052246 -0.952000021934509277
-10.0911808013916016 2.18397140502929688 -1.04063820838928223
-10.0548229217529297 2.32301235198974609 -0.891138792037963867
-10.0597085952758789 2.30409979820251465 -0.894112169742584229
-10.0860004425048828 2.23900008201599121 -1.03799998760223389
-10.0810003280639648 2.25200009346008301 -1.03199994564056396
-10.0192680358886719 2.19715452194213867 -1.05595028400421143
-10.0759363174438477 2.16077828407287598 -1.03351473808288574
-10.0459995269775391 2.15899991989135742 -1.07500004768371582
-10.0556049346923828 2.05785179138183594 -1.06994295120239258
-10.0685558319091797 2.06628608703613281 -1.06209921836853027
-10.0756425857543945 2.08265924453735352 -1.0598607063293457
-10.0177898406982422 2.09615778923034668 -1.10764527320861816
-10.0872392654418945 2.1445472240447998 -1.04581236839294434
-10.0864877700805664 2.1627354621887207 -1.04456281661987305
-10.0340003967285156 2.09299993515014648 -1.0820000171661377
-10.0512332916259766 2.15468192100524902 -1.03261971473693848
-10.0129995346069336 2.22300004959106445 -1.01900005340576172
-10.0652856826782227 2.18065857887268066 -1.10718750953674316
-10.0673303604125977 2.19300675392150879 -1.07855057716369629
-10.050999641418457 2.14800000190734863 -1.09399998188018799
-10.0017061233520508 2.20338535308837891 -1.07559478282928467
-10.0679998397827148 2.25500011444091797 -1.01199996471405029
-10.0784940719604492 2.31585049629211426 -0.87847447395324707
-10.0729999542236328 2.22399997711181641 -1.03600001335144043
-10.0237455368041992 2.10217714309692383 -1.09885907173156738
-10.0234222412109375 2.23279190063476562 -1.02702665328979492
-10.0812759399414062 2.31405401229858398 -0.861726522445678711
-10.0144414901733398 2.1613006591796875 -1.0175023078918457
-10.0497570037841797 2.21854352951049805 -1.0322490930557251
-10.0599775314331055 2.16106534004211426 -1.09103190898895264
-10.0581541061401367 2.13829994201660156 -1.03822553157806396
-10.0699863433837891 2.13163900375366211 -1.04491019248962402
-10.0565090179443359 2.07669258117675781 -1.0877920389175415
-10.0550003051757812 2.1445000171661377 -1.05850005149841309
-10.0542736053466797 2.13592720031738281 -1.08191001415252686
-10.0220003128051758 2.0840001106262207 -1.10000002384185791
-10.0797739028930664 2.13342428207397461 -1.03999841213226318
-10.08343505859375 2.22245573997497559 -1.07979989051818848
-10.074000358581543 2.25600004196166992 -1.02400004863739014
-10.0701522827148438 2.28338384628295898 -0.89069366455078125
-10.0839996337890625 2.11999988555908203 -1.04400002956390381
-10.0083217620849609 2.19080972671508789 -1.01155352592468262
-10.0245132446289062 2.17882657051086426 -1.11273050308227539
-10.0808277130126953 2.25020813941955566 -1.04490041732788086
-10.0520000457763672 2.15700006484985352 -1.09500002861022949
-10.0432567596435547 2.29223346710205078 -0.872135937213897705
-10.0649995803833008 2.2349998950958252 -1.04400002956390381
-10.0620546340942383 2.1862490177154541 -1.05690038204193115
-10.0162811279296875 2.1612238883972168 -0.999352633953094482
-10.0624313354492188 2.23297977447509766 -0.997023820877075195
-10.0514030456542969 2.21821188926696777 -0.976292252540588379
-10.0679416656494141 2.23624920845031738 -0.984683334827423096
-10.0579996109008789 2.23900008201599121 -0.99299997091293335
-10.0659999847412109 2.24399995803833008 -0.996999979019165039
-10.0030698776245117 2.18515205383300781 -1.05215215682983398
-10.0536251068115234 2.23199987411499023 -0.985125064849853516
-10.0544710159301758 2.25363421440124512 -0.991249382495880127
-10.0520000457763672 2.22399997711181641 -0.973999977111816406
-10.0399999618530273 2.22300004959106445 -1.07299995422363281
-10.0338859558105469 2.26354289054870605 -0.914416611194610596
-10.020350456237793 2.27547740936279297 -0.895357191562652588
-10.0445060729980469 2.30086636543273926 -0.899331390857696533
-10.0202140808105469 2.20959377288818359 -1.09683692455291748
-10.0795221328735352 2.14456534385681152 -1.04700350761413574
-10.0602912902832031 2.26928544044494629 -1.02660179138183594
-10.068603515625 2.2184293270111084 -1.07723832130432129
-10.050999641418457 2.23799991607666016 -1.03900003433227539
-10.0569992065429688 2.2220001220703125 -0.978999972343444824
-10.0539999008178711 2.18600010871887207 -1.09500002861022949
-10.0423707962036133 2.24030637741088867 -1.02297544479370117
-10.0600004196166992 2.21700000762939453 -0.97500002384185791
-10.0535001754760742 2.21099996566772461 -0.974500000476837158
-10.0678081512451172 2.26399540901184082 -0.993176817893981934
-10.0689468383789062 2.25796675682067871 -0.983036994934082031
-10.0671176910400391 2.25235342979431152 -0.968864202499389648
-10.057037353515625 2.2749016284942627 -0.986140668392181396
-10.0503683090209961 2.11317348480224609 -1.06430184841156006
-10.0889911651611328 2.2606961727142334 -0.926966309547424316
-10.0795001983642578 2.25850009918212891 -0.91100001335144043
-10.0730161666870117 2.25764036178588867 -0.90950775146484375
-10.0695762634277344 2.22075843811035156 -1.03238511085510254
-10.0120620727539062 2.2284848690032959 -1.02292728424072266
-10.0319995880126953 2.14199995994567871 -1.08500003814697266
-10.0360002517700195 2.15499997138977051 -1.10500001907348633
-10.0719995498657227 2.18499994277954102 -1.08000004291534424
-10.0228595733642578 2.16573143005371094 -1.08262300491333008
-10.0116825103759766 2.16623044013977051 -1.06127369403839111
-10.0045318603515625 2.1667478084564209 -1.04393637180328369
-10.0148639678955078 2.17276144027709961 -1.0182337760925293
-10.0843315124511719 2.15232658386230469 -1.06244349479675293
-10.103480339050293 2.16298055648803711 -1.0618584156036377
-10.0310001373291016 2.15599989891052246 -1.08599996566772461
-10.0168466567993164 2.15456342697143555 -1.02380871772766113
-10.0373525619506836 2.14711546897888184 -1.09596860408782959
-10.0579996109008789 2.15700006484985352 -1.08700001239776611
-10.0219392776489258 2.22268223762512207 -1.02988362312316895
-10.0594997406005859 2.27049994468688965 -1.04649996757507324
-10.0134925842285156 2.19011878967285156 -1.03482711315155029
-10.0454998016357422 2.19899988174438477 -1.11000001430511475
-10.0346927642822266 2.24501204490661621 -1.02327883243560791
-9.99176502227783203 2.17673039436340332 -0.991340219974517822
-9.99762630462646484 2.15983700752258301 -0.993938744068145752
-9.98072528839111328 2.15885639190673828 -0.9974709153175354
-10.0843992233276367 2.21879029273986816 -1.04853737354278564
-10.0100002288818359 2.19499993324279785 -1.08700001239776611
-10.0627346038818359 2.17270612716674805 -1.09251141548156738
-10.0037679672241211 2.19916176795959473 -1.06506538391113281
-10.0500078201293945 2.18561124801635742 -1.07129883766174316
-9.96654319763183594 2.16675066947937012 -0.97979581356048584
-10.0021648406982422 2.17963361740112305 -1.00489866733551025
-10.0463600158691406 2.23416852951049805 -1.10462820529937744
-10.030421257019043 2.16843771934509277 -1.03406870365142822
-10.0720319747924805 2.29388213157653809 -0.925372600555419922
-10.0520000457763672 2.27000021934509277 -0.893000125885009766
-10.0315532684326172 2.28994536399841309 -0.887417316436767578
-10.0757465362548828 2.2790215015411377 -0.926743924617767334
-10.0500001907348633 2.32200002670288086 -0.890999972820281982
-10.0517206192016602 2.22242093086242676 -1.11302626132965088
-10.0820932388305664 2.26248645782470703 -1.0371021032333374
-10.0566568374633789 2.2168118953704834 -1.09336674213409424
-10.0746669769287109 2.09349393844604492 -1.0723881721496582
-10.0840177536010742 2.16179442405700684 -1.06679248809814453
-10.0620002746582031 2.2650001049041748 -0.902000010013580322
-10.0563325881958008 2.242095947265625 -1.01414358615875244
-10.0659999847412109 2.08099985122680664 -1.08700001239776611
-10.0317087173461914 2.28263950347900391 -0.924911975860595703
-9.99800014495849609 2.15499997138977051 -1.02999997138977051
-9.98995685577392578 2.15776944160461426 -1.01292645931243896
-9.98255252838134766 2.17076444625854492 -1.02404844760894775
-9.99625015258789062 2.17609930038452148 -1.06659972667694092
-9.98917484283447266 2.18815708160400391 -1.06658124923706055
-9.99278450012207031 2.19526505470275879 -1.08200156688690186
-9.98266887664794922 2.17293071746826172 -1.00990033149719238
-9.98700046539306641 2.19199991226196289 -1.07299995422363281
-10.0469999313354492 2.17400002479553223 -1.10099995136260986
-10.0530004501342773 2.16700005531311035 -1.10099995136260986
-9.99135780334472656 2.18760776519775391 -1.0185246467590332
-10.0590028762817383 2.29131603240966797 -0.854536473751068115
-10.0759963989257812 2.23460936546325684 -1.01421117782592773
-10.0204286575317383 2.20703911781311035 -1.04543399810791016
-10.083704948425293 2.19476938247680664 -1.052742600440979
-10.0744819641113281 2.1989290714263916 -1.04031872749328613
-10.0367317199707031 2.14803409576416016 -1.08011209964752197
-10.0783615112304688 2.09887385368347168 -1.05187892913818359
-10.0470800399780273 2.08479809761047363 -1.06037044525146484
-10.0474739074707031 2.08542084693908691 -1.07812213897705078
-10.0787143707275391 2.05265188217163086 -1.07831311225891113
-10.0850000381469727 2.08800005912780762 -1.06500005722045898
-10.096099853515625 2.0878605842590332 -1.05429041385650635
-10.0559968948364258 2.0982508659362793 -1.06463277339935303
-10.0801153182983398 2.20674514770507812 -1.06231153011322021
-10.0421981811523438 2.30970573425292969 -0.870613574981689453
-10.0362176895141602 2.22449016571044922 -1.03467202186584473
-10.0966577529907227 2.09429287910461426 -1.06041193008422852
-10.0513515472412109 2.32535171508789062 -0.879469096660614014
-10.0688848495483398 2.32202768325805664 -0.867920219898223877
-10.0570001602172852 2.22900009155273438 -1.0549999475479126
-10.0783147811889648 2.1124720573425293 -1.04588544368743896
-10.0593032836914062 2.12211918830871582 -1.04388535022735596
-10.0823440551757812 2.10011649131774902 -1.07664930820465088
-10.0585250854492188 2.06581640243530273 -1.0839613676071167
-10.0878934860229492 2.07315635681152344 -1.0655289888381958
-10.0480527877807617 2.07732391357421875 -1.06107938289642334
-10.0649566650390625 2.0856931209564209 -1.05623328685760498
-10.0395469665527344 2.07786178588867188 -1.09110057353973389
-10.0780124664306641 2.07210087776184082 -1.07470142841339111
-10.0380325317382812 2.09094071388244629 -1.10905969142913818
-10.0458822250366211 2.20133161544799805 -1.1023101806640625
1 1 1
-10.0952005386352539 2.27863740921020508 -0.964438021183013916
-10.0504999160766602 2.31349992752075195 -0.864499986171722412
-10.073369026184082 2.24769139289855957 -1.04134964942932129
-10.1040229797363281 2.16438603401184082 -1.04777514934539795
-10.060999870300293 2.15400004386901855 -1.06099998950958252
-10.0560970306396484 2.19276046752929688 -1.03893125057220459
-10.0543727874755859 2.17702865600585938 -1.0309593677520752
-10.0729999542236328 2.19000005722045898 -1.06200003623962402
-10.0260000228881836 2.16199994087219238 -1.08399999141693115
-10.0419998168945312 2.17499995231628418 -1.03100001811981201
-10.0665264129638672 2.16603803634643555 -1.07540237903594971
-10.0820837020874023 2.18435406684875488 -1.03936362266540527
-10.0863456726074219 2.17786884307861328 -1.05365133285522461
-10.0722436904907227 2.25147819519042969 -1.01599228382110596
-10.0933332443237305 2.25584912300109863 -0.961581230163574219
-10.0550003051757812 2.22699999809265137 -1.01600003242492676
3 141 278 140 255 255 255
3 140 294 141 255 255 255
3 140 292 18 255 255 255
3 141 293 278 255 255 255
3 140 35 292 255 255 255
3 293 297 278 255 255 255
3 294 295 141 255 255 255
3 141 142 293 255 255 255
3 141 295 142 255 255 255
3 294 276 295 255 255 255
3 292 296 18 255 255 255
3 142 280 293 255 255 255
3 295 275 142 255 255 255
3 296 277 18 255 255 255
3 292 164 296 255 255 255
3 297 292 35 255 255 255
3 297 15 292 255 255 255
3 293 279 297 255 255 255
3 275 279 142 255 255 255
3 295 70 275 255 255 255
3 276 70 295 255 255 255
3 294 69 276 255 255 255
3 277 294 18 255 255 255
3 292 256 164 255 255 255
3 278 297 35 255 255 255
3 297 252 15 255 255 255
3 279 252 297 255 255 255
3 279 291 252 255 255 255
3 293 285 279 255 255 255
3 280 285 293 255 255 255
3 280 72 285 255 255 255
3 281 70 276 255 255 255
3 69 126 276 255 255 255
3 280 73 72 255 255 255
3 275 73 280 255 255 255
3 70 289 275 255 255 255
3 281 208 70 255 255 255
3 276 277 281 255 255 255
3 71 18 277 255 255 255
3 277 126 71 255 255 255
3 296 146 277 255 255 255
3 275 289 73 255 255 255
3 70 290 289 255 255 255
3 208 46 70 255 255 255
3 281 33 208 255 255 255
3 277 33 281 255 255 255
3 294 140 18 255 255 255
3 294 71 69 255 255 255
3 296 78 146 255 255 255
3 291 75 252 255 255 255
3 72 73 285 255 255 255
3 73 74 285 255 255 255
3 72 32 73 255 255 255
3 277 78 33 255 255 255
3 296 54 78 255 255 255
3 74 291 285 255 255 255
3 73 76 74 255 255 255
3 208 77 46 255 255 255
3 75 15 252 255 255 255
3 291 74 75 255 255 255
3 76 36 74 255 255 255
3 73 172 76 255 255 255
3 77 163 46 255 255 255
3 78 128 33 255 255 255
3 296 298 54 255 255 255
3 75 164 15 255 255 255
3 289 168 172 255 255 255
3 290 168 289 255 255 255
3 162 168 290 255 255 255
3 163 290 46 255 255 255
3 208 166 77 255 255 255
3 78 156 128 255 255 255
3 296 78 298 255 255 255
3 164 256 15 255 255 255
3 73 32 172 255 255 255
3 163 162 290 255 255 255
3 77 165 163 255 255 255
3 165 162 163 255 255 255
3 165 52 162 255 255 255
3 166 165 77 255 255 255
3 166 53 165 255 255 255
3 78 143 156 255 255 255
3 296 167 78 255 255 255
3 167 143 78 255 255 255
3 168 36 172 255 255 255
3 162 147 168 255 255 255
3 52 147 162 255 255 255
3 165 112 52 255 255 255
3 53 305 165 255 255 255
3 296 54 167 255 255 255
3 54 143 78 255 255 255
3 298 156 54 255 255 255
3 168 144 36 255 255 255
3 168 138 144 255 255 255
3 112 98 52 255 255 255
3 143 54 156 255 255 255
3 298 128 156 255 255 255
3 298 78 128 255 255 255
3 78 146 128 255 255 255
3 144 195 36 255 255 255
3 145 304 144 255 255 255
3 144 138 145 255 255 255
3 168 147 138 255 255 255
3 52 310 147 255 255 255
3 98 125 52 255 255 255
3 146 33 128 255 255 255
3 147 307 138 255 255 255
3 125 243 52 255 255 255
3 125 55 243 255 255 255
3 98 55 125 255 255 255
3 112 218 98 255 255 255
3 144 221 195 255 255 255
3 138 312 145 255 255 255
3 307 312 138 255 255 255
3 112 274 218 255 255 255
3 274 59 218 255 255 255
3 274 214 59 255 255 255
3 274 166 214 255 255 255
3 112 139 274 255 255 255
3 145 132 304 255 255 255
3 312 132 145 255 255 255
3 307 306 312 255 255 255
3 98 219 55 255 255 255
3 139 223 274 255 255 255
3 112 165 139 255 255 255
3 165 305 139 255 255 255
3 305 311 139 255 255 255
3 221 305 195 255 255 255
3 144 222 221 255 255 255
3 222 144 304 255 255 255
3 304 313 222 255 255 255
3 312 306 273 255 255 255
3 307 220 306 255 255 255
3 310 220 307 255 255 255
3 55 224 243 255 255 255
3 218 219 98 255 255 255
3 274 53 166 255 255 255
3 223 225 274 255 255 255
3 139 56 223 255 255 255
3 311 226 139 255 255 255
3 305 253 311 255 255 255
3 221 253 305 255 255 255
3 222 253 221 255 255 255
3 313 60 222 255 255 255
3 304 132 313 255 255 255
3 312 272 132 255 255 255
3 220 57 306 255 255 255
3 310 243 220 255 255 255
3 224 159 243 255 255 255
3 218 261 219 255 255 255
3 218 59 261 255 255 255
3 56 61 223 255 255 255
3 226 53 139 255 255 255
3 222 60 253 255 255 255
3 272 313 132 255 255 255
3 312 273 272 255 255 255
3 306 212 273 255 255 255
3 160 212 306 255 255 255
3 306 57 160 255 255 255
3 220 67 57 255 255 255
3 159 220 243 255 255 255
3 219 224 55 255 255 255
3 219 258 224 255 255 255
3 59 79 261 255 255 255
3 223 309 59 255 255 255
3 225 124 274 255 255 255
3 61 176 223 255 255 255
3 313 308 60 255 255 255
3 273 235 272 255 255 255
3 57 106 160 255 255 255
3 57 105 106 255 255 255
3 159 241 220 255 255 255
3 224 258 159 255 255 255
3 258 259 159 255 255 255
3 219 260 258 255 255 255
3 59 217 79 255 255 255
3 217 19 79 255 255 255
3 59 309 217 255 255 255
3 309 56 217 255 255 255
3 58 124 225 255 255 255
3 225 61 58 255 255 255
3 61 266 176 255 255 255
3 56 29 61 255 255 255
3 161 226 311 255 255 255
3 311 237 161 255 255 255
3 311 253 60 255 255 255
3 60 308 311 255 255 255
3 308 216 311 255 255 255
3 273 212 235 255 255 255
3 57 67 105 255 255 255
3 173 43 67 255 255 255
3 67 220 173 255 255 255
3 159 180 241 255 255 255
3 159 233 180 255 255 255
3 259 233 159 255 255 255
3 260 259 258 255 255 255
3 186 110 219 255 255 255
3 219 262 186 255 255 255
3 261 262 219 255 255 255
3 217 29 19 255 255 255
3 61 267 58 255 255 255
3 266 267 176 255 255 255
3 29 50 61 255 255 255
3 161 151 226 255 255 255
3 311 216 237 255 255 255
3 308 150 216 255 255 255
3 313 272 308 255 255 255
3 160 270 212 255 255 255
3 316 270 160 255 255 255
3 316 181 270 255 255 255
3 160 106 316 255 255 255
3 67 43 105 255 255 255
3 220 241 173 255 255 255
3 219 110 260 255 255 255
3 79 263 261 255 255 255
3 120 62 19 255 255 255
3 29 120 19 255 255 255
3 267 226 58 255 255 255
3 267 161 176 255 255 255
3 266 104 267 255 255 255
3 29 42 50 255 255 255
3 151 124 226 255 255 255
3 308 282 150 255 255 255
3 212 155 235 255 255 255
3 212 178 155 255 255 255
3 173 97 43 255 255 255
3 241 268 173 255 255 255
3 180 232 241 255 255 255
3 180 233 232 255 255 255
3 259 234 233 255 255 255
3 260 264 259 255 255 255
3 260 110 97 255 255 255
3 262 261 265 255 255 255
3 263 265 261 255 255 255
3 79 120 236 255 255 255
3 62 236 19 255 255 255
3 29 3 120 255 255 255
3 29 174 3 255 255 255
3 266 200 104 255 255 255
3 42 174 50 255 255 255
3 104 149 237 255 255 255
3 237 216 104 255 255 255
3 216 150 104 255 255 255
3 308 272 282 255 255 255
3 272 235 282 255 255 255
3 155 94 235 255 255 255
3 178 303 155 255 255 255
3 212 66 178 255 255 255
3 181 0 270 255 255 255
3 105 148 106 255 255 255
3 227 213 105 255 255 255
3 148 105 43 255 255 255
3 241 232 268 255 255 255
3 264 234 259 255 255 255
3 260 97 264 255 255 255
3 186 229 110 255 255 255
3 262 238 186 255 255 255
3 265 99 262 255 255 255
3 261 100 265 255 255 255
3 79 4 263 255 255 255
3 200 239 104 255 255 255
3 266 42 200 255 255 255
3 82 200 150 255 255 255
3 282 169 150 255 255 255
3 155 135 94 255 255 255
3 303 80 155 255 255 255
3 212 130 66 255 255 255
3 0 314 270 255 255 255
3 182 0 181 255 255 255
3 182 183 0 255 255 255
3 106 255 316 255 255 255
3 268 97 173 255 255 255
3 232 264 268 255 255 255
3 229 1 110 255 255 255
3 262 101 238 255 255 255
3 265 111 99 255 255 255
3 261 263 100 255 255 255
3 79 19 4 255 255 255
3 62 4 236 255 255 255
3 200 82 239 255 255 255
3 82 83 239 255 255 255
3 42 95 200 255 255 255
3 174 7 3 255 255 255
3 42 230 174 255 255 255
3 149 37 237 255 255 255
3 150 197 82 255 255 255
3 150 169 197 255 255 255
3 135 80 94 255 255 255
3 155 48 135 255 255 255
3 303 136 80 255 255 255
3 178 63 303 255 255 255
3 314 48 270 255 255 255
3 0 68 314 255 255 255
3 181 187 182 255 255 255
3 181 184 187 255 255 255
3 255 113 316 255 255 255
3 213 201 106 255 255 255
3 106 148 213 255 255 255
3 233 240 232 255 255 255
3 234 240 233 255 255 255
3 264 232 240 255 255 255
3 110 1 97 255 255 255
3 1 43 97 255 255 255
3 229 271 1 255 255 255
3 238 101 152 255 255 255
3 62 194 4 255 255 255
3 42 299 95 255 255 255
3 7 62 3 255 255 255
3 42 266 230 255 255 255
3 266 37 230 255 255 255
3 169 251 197 255 255 255
3 135 136 80 255 255 255
3 155 270 48 255 255 255
3 136 94 80 255 255 255
3 303 170 136 255 255 255
3 63 170 303 255 255 255
3 314 170 48 255 255 255
3 183 185 0 255 255 255
3 182 199 183 255 255 255
3 184 188 187 255 255 255
3 181 185 184 255 255 255
3 113 181 316 255 255 255
3 106 201 255 255 255 255
3 213 157 201 255 255 255
3 227 157 213 255 255 255
3 264 240 234 255 255 255
3 43 81 97 255 255 255
3 1 227 43 255 255 255
3 229 137 271 255 255 255
3 186 137 229 255 255 255
3 238 137 186 255 255 255
3 152 30 238 255 255 255
3 111 152 101 255 255 255
3 263 101 100 255 255 255
3 83 179 239 255 255 255
3 7 194 62 255 255 255
3 174 230 7 255 255 255
3 230 96 7 255 255 255
3 230 249 96 255 255 255
3 266 8 37 255 255 255
3 136 129 80 255 255 255
3 135 48 136 255 255 255
3 48 47 136 255 255 255
3 170 314 136 255 255 255
3 255 10 63 255 255 255
3 63 201 255 255 255 255
3 170 47 48 255 255 255
3 170 51 47 255 255 255
3 0 11 68 255 255 255
3 185 11 0 255 255 255
3 187 189 182 255 255 255
3 188 5 187 255 255 255
3 184 113 188 255 255 255
3 185 188 184 255 255 255
3 181 68 185 255 255 255
3 201 157 231 255 255 255
3 157 64 201 255 255 255
3 227 284 157 255 255 255
3 238 30 137 255 255 255
3 152 262 99 255 255 255
3 194 65 4 255 255 255
3 7 96 194 255 255 255
3 249 242 96 255 255 255
3 230 95 299 255 255 255
3 230 149 95 255 255 255
3 82 197 251 255 255 255
3 169 91 251 255 255 255
3 255 153 10 255 255 255
3 51 250 47 255 255 255
3 170 10 51 255 255 255
3 182 202 199 255 255 255
3 185 68 188 255 255 255
3 68 84 185 255 255 255
3 255 84 113 255 255 255
3 30 271 137 255 255 255
3 30 31 271 255 255 255
3 194 114 65 255 255 255
3 179 305 239 255 255 255
3 299 249 230 255 255 255
3 299 91 249 255 255 255
3 149 200 95 255 255 255
3 230 37 149 255 255 255
3 10 121 63 255 255 255
3 250 129 47 255 255 255
3 10 196 51 255 255 255
3 170 314 10 255 255 255
3 68 153 314 255 255 255
3 187 184 183 255 255 255
3 189 187 199 255 255 255
3 199 202 189 255 255 255
3 202 203 189 255 255 255
3 68 204 188 255 255 255
3 84 188 113 255 255 255
3 21 255 231 255 255 255
3 64 21 201 255 255 255
3 157 284 64 255 255 255
3 194 96 114 255 255 255
3 242 114 96 255 255 255
3 299 251 91 255 255 255
3 299 82 251 255 255 255
3 299 200 82 255 255 255
3 58 176 8 255 255 255
3 8 215 58 255 255 255
3 169 17 91 255 255 255
3 250 123 175 255 255 255
3 121 198 63 255 255 255
3 10 170 121 255 255 255
3 10 314 51 255 255 255
3 153 196 10 255 255 255
3 203 182 189 255 255 255
3 204 207 188 255 255 255
3 231 201 21 255 255 255
3 64 63 21 255 255 255
3 2 198 64 255 255 255
3 64 284 2 255 255 255
3 31 45 271 255 255 255
3 65 90 30 255 255 255
3 65 190 90 255 255 255
3 65 114 190 255 255 255
3 58 151 176 255 255 255
3 121 66 198 255 255 255
3 170 175 121 255 255 255
3 250 228 123 255 255 255
3 205 9 204 255 255 255
3 206 183 5 255 255 255
3 207 6 188 255 255 255
3 21 10 255 255 255 255
3 10 196 21 255 255 255
3 2 130 198 255 255 255
3 284 40 2 255 255 255
3 90 190 40 255 255 255
3 114 49 190 255 255 255
3 91 17 242 255 255 255
3 17 114 242 255 255 255
3 17 49 114 255 255 255
3 169 39 17 255 255 255
3 121 22 66 255 255 255
3 175 123 121 255 255 255
3 51 228 250 255 255 255
3 196 228 51 255 255 255
3 204 11 205 255 255 255
3 5 6 206 255 255 255
3 6 5 188 255 255 255
3 207 12 6 255 255 255
3 10 228 196 255 255 255
3 130 288 198 255 255 255
3 284 45 40 255 255 255
3 30 90 31 255 255 255
3 190 127 40 255 255 255
3 49 127 190 255 255 255
3 169 282 39 255 255 255
3 22 155 66 255 255 255
3 175 80 123 255 255 255
3 228 121 123 255 255 255
3 9 207 204 255 255 255
3 9 12 207 255 255 255
3 205 206 9 255 255 255
3 11 5 205 255 255 255
3 45 90 40 255 255 255
3 127 288 40 255 255 255
3 39 49 17 255 255 255
3 282 235 39 255 255 255
3 22 39 155 255 255 255
3 9 301 12 255 255 255
3 206 13 9 255 255 255
3 206 6 13 255 255 255
3 12 89 6 255 255 255
3 127 49 288 255 255 255
3 39 80 155 255 255 255
3 13 315 9 255 255 255
3 13 85 315 255 255 255
3 6 93 13 255 255 255
3 14 88 6 255 255 255
3 12 93 89 255 255 255
3 235 80 39 255 255 255
3 12 86 93 255 255 255
3 9 315 301 255 255 255
3 85 87 315 255 255 255
3 13 88 85 255 255 255
3 6 89 14 255 255 255
3 86 87 93 255 255 255
3 87 301 315 255 255 255
3 87 86 301 255 255 255
3 85 209 87 255 255 255
3 85 119 209 255 255 255
3 88 119 85 255 255 255
3 6 89 93 255 255 255
3 14 89 116 255 255 255
3 89 257 116 255 255 255
3 92 115 89 255 255 255
3 89 131 92 255 255 255
3 93 117 131 255 255 255
3 92 117 93 255 255 255
3 92 122 117 255 255 255
3 115 257 89 255 255 255
3 115 103 257 255 255 255
3 87 118 117 255 255 255
3 88 102 119 255 255 255
3 88 116 102 255 255 255
3 116 88 14 255 255 255
3 115 24 103 255 255 255
3 117 122 87 255 255 255
3 118 247 117 255 255 255
3 87 209 118 255 255 255
3 119 102 211 255 255 255
3 116 257 191 255 255 255
3 122 244 115 255 255 255
3 209 210 118 255 255 255
3 210 16 118 255 255 255
3 119 41 209 255 255 255
3 211 41 119 255 255 255
3 211 254 41 255 255 255
3 116 191 102 255 255 255
3 257 38 191 255 255 255
3 103 193 107 255 255 255
3 103 24 193 255 255 255
3 115 244 24 255 255 255
3 16 20 118 255 255 255
3 210 211 16 255 255 255
3 209 41 210 255 255 255
3 191 23 102 255 255 255
3 38 192 191 255 255 255
3 103 107 257 255 255 255
3 107 38 257 255 255 255
3 244 122 247 255 255 255
3 20 244 247 255 255 255
3 23 254 102 255 255 255
3 192 23 191 255 255 255
3 193 27 107 255 255 255
3 24 134 193 255 255 255
3 23 245 254 255 255 255
3 107 246 38 255 255 255
3 193 248 27 255 255 255
3 24 25 134 255 255 255
3 24 20 25 255 255 255
3 20 24 244 255 255 255
3 20 245 25 255 255 255
3 245 20 254 255 255 255
3 20 16 254 255 255 255
3 192 246 23 255 255 255
3 246 26 23 255 255 255
3 38 246 192 255 255 255
3 107 27 246 255 255 255
3 134 109 154 255 255 255
3 25 109 134 255 255 255
3 245 26 25 255 255 255
3 26 28 23 255 255 255
3 27 177 246 255 255 255
3 27 283 177 255 255 255
3 154 133 134 255 255 255
3 25 171 109 255 255 255
3 28 245 23 255 255 255
3 28 44 245 255 255 255
3 27 286 283 255 255 255
3 133 248 134 255 255 255
3 177 28 246 255 255 255
3 154 287 133 255 255 255
3 44 171 245 255 255 255
3 286 302 283 255 255 255
3 133 286 248 255 255 255
3 287 286 133 255 255 255
3 154 158 287 255 255 255
3 44 269 108 255 255 255
3 28 269 44 255 255 255
3 177 269 28 255 255 255
3 283 269 177 255 255 255
3 302 269 283 255 255 255
3 286 287 302 255 255 255
3 108 171 44 255 255 255
3 269 34 158 255 255 255
3 34 287 302 255 255 255
3 158 154 109 255 255 255
3 109 108 158 255 255 255
3 171 108 109 255 255 255
3 269 158 108 255 255 255
3 300 300 300 255 255 255
