ply
format ascii 1.0
element vertex 319
property float x
property float y
property float z
element face 576
property list uchar int vertex_indices
property uchar red
property uchar green
property uchar blue
end_header
-12.7030000686645508 8.19600009918212891 -0.880999982357025146
-12.7661104202270508 8.17815208435058594 -1.02546536922454834
-12.7250003814697266 8.23600006103515625 -0.879000008106231689
-12.7709999084472656 8.20300006866455078 -1.07500004768371582
-12.7849998474121094 8.20499992370605469 -1.1119999885559082
-12.7869997024536133 8.19499969482421875 -1.10899996757507324
-12.7489995956420898 8.18700027465820312 -1.07299995422363281
-12.7480154037475586 8.18508148193359375 -1.06096839904785156
-12.7679996490478516 8.22000026702880859 -1.03699994087219238
-12.7910003662109375 8.18900012969970703 -1.0429999828338623
-12.7969999313354492 8.20300006866455078 -1.03999996185302734
-12.8050003051757812 8.21199989318847656 -1.10599994659423828
-12.8000001907348633 8.2089996337890625 -1.1119999885559082
-12.8249998092651367 8.19699954986572266 -1.09599995613098145
-12.7849998474121094 8.18599987030029297 -1.00399994850158691
-12.7864999771118164 8.1725006103515625 -0.939499974250793457
-12.7959995269775391 8.17899990081787109 -0.935000002384185791
-12.8439998626708984 8.18999958038330078 -1.11500000953674316
-12.7469997406005859 8.20400047302246094 -1.04799997806549072
-12.7790002822875977 8.24499988555908203 -1.0549999475479126
-12.7899999618530273 8.19600009918212891 -1.10000002384185791
-12.758000373840332 8.22099971771240234 -0.893999993801116943
-12.7959995269775391 8.22399997711181641 -1.1380000114440918
-12.7270002365112305 8.21300029754638672 -0.892000019550323486
-12.7460002899169922 8.194000244140625 -1.05999994277954102
-12.7720003128051758 8.22099971771240234 -1.05299997329711914
-12.7220001220703125 8.20300006866455078 -0.878000020980834961
-12.7819995880126953 8.19200038909912109 -1.08000004291534424
-12.7679996490478516 8.18000030517578125 -1.0820000171661377
-12.7510004043579102 8.18900012969970703 -1.05400002002716064
-12.7843303680419922 8.19586181640625 -1.13290154933929443
-12.7379999160766602 8.22299957275390625 -1.04900002479553223
-12.8090000152587891 8.18299961090087891 -1.10800004005432129
-12.7910003662109375 8.21000003814697266 -1.10000002384185791
-12.7770004272460938 8.180999755859375 -0.945500016212463379
-12.8010177612304688 8.1899566650390625 -0.942976295948028564
-12.7987747192382812 8.20284748077392578 -0.932280898094177246
-12.7923431396484375 8.19901466369628906 -0.938731729984283447
-12.7890729904174805 8.18470287322998047 -0.956547975540161133
-12.7899999618530273 8.22999954223632812 -1.13499999046325684
-12.741999626159668 8.18400001525878906 -1.0700000524520874
-12.7869997024536133 8.19799995422363281 -1.13499999046325684
-12.7889995574951172 8.19099998474121094 -1.05400002002716064
-12.7399997711181641 8.21000003814697266 -0.874000012874603271
-12.8290004730224609 8.194000244140625 -1.11300003528594971
-12.7779998779296875 8.2220001220703125 -1.04700005054473877
-12.7880001068115234 8.20199966430664062 -1.00899994373321533
-12.7189998626708984 8.21500015258789062 -0.913999974727630615
-12.7589998245239258 8.21599960327148438 -0.949000000953674316
-12.7519998550415039 8.21300029754638672 -0.981999993324279785
-12.7600584030151367 8.22292041778564453 -0.926975131034851074
-12.7729997634887695 8.21800041198730469 -1.01100003719329834
-12.7539997100830078 8.20199966430664062 -0.991999983787536621
-12.7602262496948242 8.22700214385986328 -0.902741074562072754
-12.7650003433227539 8.22299957275390625 -0.893000006675720215
-12.7539997100830078 8.2220001220703125 -0.893000006675720215
-12.7060003280639648 8.22599983215332031 -0.879999995231628418
-12.7037820816040039 8.23270988464355469 -0.863033652305603027
-12.7130002975463867 8.19900035858154297 -0.870000004768371582
-12.7729997634887695 8.19699954986572266 -1.00399994850158691
-12.7469997406005859 8.20800018310546875 -1.0559999942779541
-12.8280000686645508 8.20699977874755859 -1.09700000286102295
-12.8069734573364258 8.18306446075439453 -0.929015219211578369
-12.7980003356933594 8.18400001525878906 -0.930999994277954102
-12.7930002212524414 8.18999958038330078 -0.930999994277954102
-12.7740001678466797 8.19200038909912109 -0.948000013828277588
-12.7869997024536133 8.18799972534179688 -0.950999975204467773
-12.7834997177124023 8.18849945068359375 -0.936500012874603271
-12.7833652496337891 8.17796421051025391 -0.929118156433105469
-12.7849998474121094 8.19799995422363281 -0.94300001859664917
-12.7939996719360352 8.19900035858154297 -0.947000026702880859
-12.7910003662109375 8.17599964141845703 -0.934000015258789062
-12.7960710525512695 8.21377468109130859 -1.0469813346862793
-12.7720003128051758 8.23200035095214844 -1.04799997806549072
-12.7390003204345703 8.23200035095214844 -0.859000027179718018
-12.7440004348754883 8.22000026702880859 -0.925999999046325684
-12.7455005645751953 8.23550033569335938 -0.856500029563903809
-12.8050003051757812 8.18999958038330078 -1.09700000286102295
-12.7270002365112305 8.21899986267089844 -0.857999980449676514
-12.7749996185302734 8.19699954986572266 -1.04499995708465576
-12.7325172424316406 8.20541763305664062 -0.880278229713439941
-12.8229999542236328 8.17800045013427734 -1.10899996757507324
-12.7889995574951172 8.20100021362304688 -1.00300002098083496
-12.7139997482299805 8.2089996337890625 -0.890999972820281982
-12.7687549591064453 8.23032379150390625 -1.00530827045440674
-12.824000358581543 8.19799995422363281 -1.11300003528594971
-12.7679996490478516 8.23099994659423828 -1.05200004577636719
-12.7849998474121094 8.19600009918212891 -0.991999983787536621
-12.7779703140258789 8.19201374053955078 -0.99194180965423584
-12.741999626159668 8.21199989318847656 -0.978999972343444824
-12.7679996490478516 8.21899986267089844 -1.01100003719329834
-12.8579998016357422 8.20699977874755859 -1.11699998378753662
-12.744877815246582 8.21890735626220703 -0.976256251335144043
-12.7381467819213867 8.22003459930419922 -0.961049675941467285
-12.7589282989501953 8.22227096557617188 -0.957342326641082764
-12.7679996490478516 8.21899986267089844 -0.976000010967254639
-12.7709999084472656 8.21700000762939453 -0.981000006198883057
-12.8319997787475586 8.19799995422363281 -1.10800004005432129
-12.8489999771118164 8.194000244140625 -1.12199997901916504
-12.7220001220703125 8.21399974822998047 -0.855000019073486328
-12.749791145324707 8.22866153717041016 -0.854026317596435547
-12.7950000762939453 8.19299983978271484 -1.00800001621246338
-12.7069997787475586 8.20699977874755859 -0.893999993801116943
-12.7700004577636719 8.18900012969970703 -1.0130000114440918
-12.7919998168945312 8.19900035858154297 -1.06500005722045898
-12.7770004272460938 8.22900009155273438 -1.04600000381469727
-12.7849998474121094 8.19699954986572266 -1.12300002574920654
-12.7829999923706055 8.18999958038330078 -1.02400004863739014
-12.7729997634887695 8.18799972534179688 -1.00300002098083496
-12.7030000686645508 8.23200035095214844 -0.875
-12.7749996185302734 8.22900009155273438 -1.05400002002716064
-12.7889995574951172 8.22799968719482422 -1.02799999713897705
-12.7639999389648438 8.21899986267089844 -0.978999972343444824
-12.7729997634887695 8.19499969482421875 -1.03299999237060547
-12.7930002212524414 8.21000003814697266 -1.05200004577636719
-12.7489995956420898 8.22000026702880859 -0.921999990940093994
-12.7559995651245117 8.22299957275390625 -0.912000000476837158
-12.7989997863769531 8.21000003814697266 -1.04799997806549072
-12.7840003967285156 8.18999958038330078 -1.0549999475479126
-12.7969999313354492 8.2089996337890625 -1.05200004577636719
-12.7639999389648438 8.19299983978271484 -1.07799994945526123
-12.7609996795654297 8.20300006866455078 -1.04400002956390381
-12.7770004272460938 8.22099971771240234 -1.05200004577636719
-12.7849998474121094 8.21399974822998047 -1.05200004577636719
-12.8000001907348633 8.19900035858154297 -1.10599994659423828
-12.7889995574951172 8.21300029754638672 -1.10899996757507324
-12.7810001373291016 8.19699954986572266 -1.11699998378753662
-12.7760000228881836 8.19600009918212891 -1.05799996852874756
-12.7530002593994141 8.20100021362304688 -1.00399994850158691
-12.6925029754638672 8.22448825836181641 -0.872644126415252686
-12.7069997787475586 8.19600009918212891 -0.875999987125396729
-12.7010002136230469 8.22000026702880859 -0.888000011444091797
-12.7189998626708984 8.194000244140625 -0.869000017642974854
-12.8509998321533203 8.18799972534179688 -1.11500000953674316
-12.805999755859375 8.18599987030029297 -1.11399996280670166
-12.8290004730224609 8.19600009918212891 -1.10000002384185791
-12.7569999694824219 8.20400047302246094 -1.0010000467300415
-12.8070001602172852 8.20400047302246094 -1.10000002384185791
-12.7150001525878906 8.22599983215332031 -0.860000014305114746
-12.7060003280639648 8.2089996337890625 -0.89999997615814209
-12.7725944519042969 8.24114036560058594 -1.05127477645874023
-12.7440004348754883 8.21300029754638672 -0.878000020980834961
-12.7700004577636719 8.22999954223632812 -1.05700004100799561
-12.8420000076293945 8.19200038909912109 -1.12300002574920654
-12.8029870986938477 8.18200016021728516 -1.11099708080291748
-12.800999641418457 8.20400047302246094 -1.09700000286102295
-12.7049999237060547 8.22700023651123047 -0.856999993324279785
-12.7740001678466797 8.21899986267089844 -1.01699995994567871
-12.7860002517700195 8.23099994659423828 -1.01699995994567871
-12.7760000228881836 8.21700000762939453 -1.03499996662139893
-12.7559576034545898 8.17441368103027344 -1.01747047901153564
-12.7010002136230469 8.20199966430664062 -0.874000012874603271
-12.7690000534057617 8.20699977874755859 -1.02600002288818359
-12.7939996719360352 8.21399974822998047 -1.10599994659423828
-12.7910003662109375 8.2089996337890625 -1.01900005340576172
-12.7620000839233398 8.17899990081787109 -1.01900005340576172
-12.7220001220703125 8.23200035095214844 -0.885999977588653564
-12.7904520034790039 8.19740009307861328 -1.05788743495941162
-12.800999641418457 8.19999980926513672 -1.06799995899200439
-12.7849998474121094 8.19999980926513672 -1.09700000286102295
-12.7567024230957031 8.17198371887207031 -1.07571303844451904
-12.7650003433227539 8.21100044250488281 -1.03799998760223389
-12.7650003433227539 8.22700023651123047 -1.05099999904632568
-12.7650003433227539 8.23499965667724609 -1.05700004100799561
-12.7853879928588867 8.20853900909423828 -1.11648833751678467
-12.7950000762939453 8.20699977874755859 -1.10000002384185791
-12.7980003356933594 8.21199989318847656 -1.10099995136260986
-12.8409996032714844 8.19200038909912109 -1.11000001430511475
-12.7721481323242188 8.21200180053710938 -0.999830663204193115
-12.75 8.21700000762939453 -0.947000026702880859
-12.75 8.22099971771240234 -0.941999971866607666
-12.7589998245239258 8.22500038146972656 -0.950999975204467773
-12.7589931488037109 8.21665763854980469 -0.973752498626708984
-12.7650003433227539 8.21300029754638672 -0.991999983787536621
-12.7779998779296875 8.18500041961669922 -1.0010000467300415
-12.8120002746582031 8.19099998474121094 -1.10000002384185791
-12.7700004577636719 8.22099971771240234 -1.0010000467300415
-12.7790002822875977 8.19200038909912109 -1.03900003433227539
-12.7040004730224609 8.21000003814697266 -0.859000027179718018
-12.8210000991821289 8.18900012969970703 -1.10500001907348633
-12.7390003204345703 8.21399974822998047 -0.884999990463256836
-12.6949996948242188 8.21000003814697266 -0.878000020980834961
-12.7860002517700195 8.22500038146972656 -1.12999999523162842
-12.7650003433227539 8.20499992370605469 -1.06099998950958252
-12.7899999618530273 8.18700027465820312 -1.07500004768371582
-12.7770004272460938 8.21599960327148438 -1.0559999942779541
-12.7729997634887695 8.17899990081787109 -1.07400000095367432
-12.7659997940063477 8.20800018310546875 -1.05799996852874756
-12.7760000228881836 8.21100044250488281 -1.05700004100799561
-12.7970657348632812 8.19346714019775391 -1.07224726676940918
-12.7980003356933594 8.19699954986572266 -1.09399998188018799
-12.7810001373291016 8.19699954986572266 -1.10699999332427979
-12.7569999694824219 8.21700000762939453 -1.0549999475479126
-12.7760000228881836 8.20499992370605469 -1.06200003623962402
-12.7880001068115234 8.19600009918212891 -1.01699995994567871
-12.6869382858276367 8.22203731536865234 -0.86825716495513916
-12.7709999084472656 8.21300029754638672 -1.02799999713897705
-12.7659997940063477 8.21199989318847656 -1.0140000581741333
-12.6999998092651367 8.2220001220703125 -0.864000022411346436
-12.7829999923706055 8.22299957275390625 -1.01900005340576172
-12.7709999084472656 8.19799995422363281 -1.06599998474121094
-12.758000373840332 8.21500015258789062 -0.940999984741210938
-12.7239999771118164 8.21800041198730469 -0.907999992370605469
-12.7270002365112305 8.21599960327148438 -0.904999971389770508
-12.75 8.17500019073486328 -1.0700000524520874
-12.8290004730224609 8.20199966430664062 -1.10300004482269287
-12.7329473495483398 8.21905326843261719 -0.888122081756591797
-12.7650003433227539 8.22900009155273438 -0.894999980926513672
-12.7060003280639648 8.21800041198730469 -0.891999959945678711
-12.7460002899169922 8.21399974822998047 -0.871999979019165039
-12.7589998245239258 8.22399997711181641 -0.898000001907348633
-12.7519998550415039 8.20100021362304688 -1.07700002193450928
-12.7860002517700195 8.19799995422363281 -1.14800000190734863
-12.8050003051757812 8.21000003814697266 -1.09599995613098145
-12.7329998016357422 8.20499992370605469 -0.870000004768371582
-12.7448606491088867 8.20999050140380859 -0.967810153961181641
-12.7629995346069336 8.22099971771240234 -1.04799997806549072
-12.7379999160766602 8.22700023651123047 -1.05299997329711914
-12.7749996185302734 8.19900035858154297 -1.07200002670288086
-12.7849998474121094 8.19699954986572266 -1.13100004196166992
-12.7849998474121094 8.19699954986572266 -1.08099997043609619
-12.7760000228881836 8.19799995422363281 -1.09000003337860107
-12.7668523788452148 8.18498706817626953 -1.08485746383666992
-12.7950000762939453 8.21800041198730469 -1.10199999809265137
-12.7880001068115234 8.20199966430664062 -1.1380000114440918
-12.7880001068115234 8.18799972534179688 -1.06099998950958252
-12.8020000457763672 8.21800041198730469 -1.10399997234344482
-12.7910003662109375 8.23200035095214844 -1.13100004196166992
-12.7349996566772461 8.21300029754638672 -0.859000027179718018
-12.7899999618530273 8.22099971771240234 -1.02199995517730713
-12.7119998931884766 8.22299957275390625 -0.883000016212463379
-12.7899999618530273 8.19200038909912109 -1.06200003623962402
-12.7410001754760742 8.21199989318847656 -0.862999975681304932
-12.7849998474121094 8.18700027465820312 -1.03499996662139893
-12.7907485961914062 8.19313240051269531 -1.11665928363800049
-12.7488431930541992 8.22041416168212891 -0.997321963310241699
-12.7510004043579102 8.19999980926513672 -0.990000009536743164
-12.7700004577636719 8.24499988555908203 -1.13399994373321533
-12.7477502822875977 8.20684432983398438 -0.994531214237213135
-12.7558403015136719 8.22288990020751953 -0.98868793249130249
-12.7750024795532227 8.22297000885009766 -0.986912846565246582
-12.7471332550048828 8.21853923797607422 -0.988253951072692871
-12.7591180801391602 8.22225475311279297 -0.971764564514160156
-12.7908573150634766 8.18747901916503906 -0.990236461162567139
-12.8229999542236328 8.17800045013427734 -1.11699998378753662
-12.7159996032714844 8.2089996337890625 -0.897000014781951904
-12.8579998016357422 8.21399974822998047 -1.11699998378753662
-12.805999755859375 8.20499992370605469 -1.02999997138977051
-12.7469997406005859 8.16399955749511719 -1.07500004768371582
-12.7894992828369141 8.19299983978271484 -1.13599991798400879
-12.8000001907348633 8.19900035858154297 -1.0130000114440918
-12.7019996643066406 8.20699977874755859 -0.861999988555908203
-12.8058862686157227 8.180206298828125 -0.935049891471862793
-12.7918481826782227 8.16903591156005859 -0.947002053260803223
-12.7939996719360352 8.16800022125244141 -0.939999997615814209
-12.7700004577636719 8.17099952697753906 -0.940999984741210938
-12.7760000228881836 8.17700004577636719 -0.93900001049041748
-12.7849998474121094 8.17599964141845703 -0.952000021934509277
-12.7989997863769531 8.17399978637695312 -0.94300001859664917
-12.7829999923706055 8.18200016021728516 -0.925000011920928955
-12.7709999084472656 8.18700027465820312 -0.941999971866607666
-12.7399997711181641 8.22900009155273438 -1.04799997806549072
-12.8280000686645508 8.18200016021728516 -1.11399996280670166
-12.7600002288818359 8.20699977874755859 -1.0130000114440918
-12.7910003662109375 8.19999980926513672 -1.11300003528594971
-12.7760000228881836 8.21100044250488281 -1.0130000114440918
-12.7099857330322266 8.204986572265625 -0.855081915855407715
-12.7169771194458008 8.20891666412353516 -0.883986234664916992
-12.7670001983642578 8.24899959564208984 -1.13100004196166992
-12.75 8.20499992370605469 -1.04499995708465576
-12.7869997024536133 8.19200038909912109 -1.03100001811981201
-12.7740001678466797 8.19699954986572266 -1.06400001049041748
-12.7650003433227539 8.24300003051757812 -1.13699996471405029
-12.8050003051757812 8.2089996337890625 -1.02900004386901855
-12.7939996719360352 8.21000003814697266 -1.03600001335144043
-12.7799997329711914 8.24199962615966797 -1.06099998950958252
-12.7589998245239258 8.21700000762939453 -1.00199997425079346
-12.7476253509521484 8.17007350921630859 -1.06868267059326172
-12.8252372741699219 8.2028656005859375 -1.11400794982910156
-12.6999998092651367 8.21199989318847656 -0.885999977588653564
-12.810999870300293 8.21199989318847656 -1.02600002288818359
-12.7600002288818359 8.22399997711181641 -0.94300001859664917
-12.758000373840332 8.21500015258789062 -0.989000022411346436
-12.758000373840332 8.21500015258789062 -0.966000020503997803
-12.8120002746582031 8.19499969482421875 -1.11000001430511475
-12.7510004043579102 8.21899986267089844 -0.926999986171722412
-12.7639999389648438 8.22099971771240234 -0.920000016689300537
-12.7700004577636719 8.22700023651123047 -0.897000014781951904
-12.7209997177124023 8.22000026702880859 -0.90700000524520874
-12.7200002670288086 8.21700000762939453 -0.890999972820281982
-12.7209997177124023 8.23200035095214844 -0.870999991893768311
-12.7840003967285156 8.18999958038330078 -1.01800000667572021
-12.7910003662109375 8.19699954986572266 -1.03699994087219238
-12.8489999771118164 8.19200038909912109 -1.10800004005432129
-12.7690000534057617 8.19799995422363281 -1.03699994087219238
-12.7670001983642578 8.20199966430664062 -1.02199995517730713
-12.7779998779296875 8.23700046539306641 -1.0549999475479126
-12.8260002136230469 8.19299983978271484 -1.09300005435943604
-12.7510004043579102 8.20100021362304688 -1.04100000858306885
-12.7200002670288086 8.19900035858154297 -0.864000022411346436
-12.7930002212524414 8.20499992370605469 -1.1119999885559082
-12.7849998474121094 8.19699954986572266 -1.10599994659423828
-12.7559995651245117 8.18599987030029297 -1.07099997997283936
-12.741999626159668 8.18900012969970703 -1.07599997520446777
-12.7370004653930664 8.18200016021728516 -1.07500004768371582
-12.7659997940063477 8.20100021362304688 -1.0820000171661377
-12.7639999389648438 8.20600032806396484 -1.07599997520446777
-12.7729997634887695 8.19900035858154297 -1.08800005912780762
-12.7539997100830078 8.19999980926513672 -1.07099997997283936
-12.7740001678466797 8.20600032806396484 -1.08000004291534424
-12.7799997329711914 8.20300006866455078 -1.08800005912780762
-12.7849998474121094 8.21700000762939453 -1.03799998760223389
-12.7340002059936523 8.22000026702880859 -0.871999979019165039
-12.7295026779174805 8.20424747467041016 -0.86759871244430542
-12.755000114440918 8.21899986267089844 -1.04499995708465576
-12.7040004730224609 8.21100044250488281 -0.889999985694885254
-12.800999641418457 8.22399997711181641 -1.14199995994567871
-12.8000001907348633 8.2220001220703125 -1.13600003719329834
-12.7659997940063477 8.19499969482421875 -1.05400002002716064
3 255 71 254 255 255 255
3 254 253 255 255 255 255
3 71 252 254 255 255 255
3 255 256 71 255 255 255
3 253 257 255 255 255 255
3 254 258 253 255 255 255
3 252 258 254 255 255 255
3 71 62 252 255 255 255
3 256 259 71 255 255 255
3 255 260 256 255 255 255
3 257 34 255 255 255 255
3 258 38 253 255 255 255
3 71 63 62 255 255 255
3 259 63 71 255 255 255
3 259 64 63 255 255 255
3 260 68 256 255 255 255
3 34 260 255 255 255 255
3 34 65 260 255 255 255
3 253 38 257 255 255 255
3 38 34 257 255 255 255
3 38 66 34 255 255 255
3 252 35 258 255 255 255
3 252 62 35 255 255 255
3 62 36 35 255 255 255
3 63 64 62 255 255 255
3 64 36 62 255 255 255
3 259 67 64 255 255 255
3 260 259 68 255 255 255
3 65 69 260 255 255 255
3 34 66 65 255 255 255
3 66 69 65 255 255 255
3 66 70 69 255 255 255
3 258 35 38 255 255 255
3 67 37 64 255 255 255
3 68 15 256 255 255 255
3 69 67 260 255 255 255
3 70 37 69 255 255 255
3 66 38 70 255 255 255
3 38 35 70 255 255 255
3 35 37 70 255 255 255
3 36 37 35 255 255 255
3 37 36 64 255 255 255
3 67 69 37 255 255 255
3 68 16 15 255 255 255
3 259 16 68 255 255 255
3 302 303 160 255 255 255
3 303 304 160 255 255 255
3 302 211 303 255 255 255
3 304 248 160 255 255 255
3 302 305 211 255 255 255
3 305 306 211 255 255 255
3 302 307 305 255 255 255
3 306 308 211 255 255 255
3 305 309 306 255 255 255
3 307 309 305 255 255 255
3 307 310 309 255 255 255
3 308 60 211 255 255 255
3 306 183 308 255 255 255
3 309 193 306 255 255 255
3 310 220 309 255 255 255
3 307 221 310 255 255 255
3 183 187 308 255 255 255
3 306 187 183 255 255 255
3 306 188 187 255 255 255
3 309 220 193 255 255 255
3 220 189 193 255 255 255
3 310 190 220 255 255 255
3 221 191 310 255 255 255
3 307 222 221 255 255 255
3 187 24 308 255 255 255
3 188 192 187 255 255 255
3 306 3 188 255 255 255
3 189 157 193 255 255 255
3 190 189 220 255 255 255
3 190 158 189 255 255 255
3 310 159 190 255 255 255
3 191 4 310 255 255 255
3 307 120 222 255 255 255
3 187 121 24 255 255 255
3 192 60 187 255 255 255
3 188 122 192 255 255 255
3 3 193 188 255 255 255
3 306 310 3 255 255 255
3 157 123 193 255 255 255
3 189 119 157 255 255 255
3 158 104 189 255 255 255
3 190 137 158 255 255 255
3 159 124 190 255 255 255
3 4 125 310 255 255 255
3 191 126 4 255 255 255
3 222 27 221 255 255 255
3 120 211 222 255 255 255
3 307 306 120 255 255 255
3 121 29 24 255 255 255
3 187 216 121 255 255 255
3 192 217 60 255 255 255
3 122 73 192 255 255 255
3 188 123 122 255 255 255
3 3 218 193 255 255 255
3 310 218 3 255 255 255
3 310 27 218 255 255 255
3 123 185 193 255 255 255
3 157 117 123 255 255 255
3 158 114 104 255 255 255
3 190 166 137 255 255 255
3 124 77 190 255 255 255
3 159 301 124 255 255 255
3 125 33 310 255 255 255
3 4 164 125 255 255 255
3 126 164 4 255 255 255
3 126 30 164 255 255 255
3 27 159 221 255 255 255
3 222 184 27 255 255 255
3 28 186 222 255 255 255
3 222 160 28 255 255 255
3 29 7 24 255 255 255
3 121 294 29 255 255 255
3 216 161 121 255 255 255
3 187 162 216 255 255 255
3 217 31 60 255 255 255
3 192 163 217 255 255 255
3 122 140 73 255 255 255
3 123 110 122 255 255 255
3 218 104 193 255 255 255
3 27 184 218 255 255 255
3 184 225 218 255 255 255
3 185 187 193 255 255 255
3 117 72 123 255 255 255
3 158 119 114 255 255 255
3 166 226 137 255 255 255
3 190 165 166 255 255 255
3 124 32 77 255 255 255
3 301 5 124 255 255 255
3 159 191 301 255 255 255
3 33 145 310 255 255 255
3 125 223 33 255 255 255
3 30 224 164 255 255 255
3 126 219 30 255 255 255
3 222 186 184 255 255 255
3 186 225 184 255 255 255
3 186 118 225 255 255 255
3 160 186 28 255 255 255
3 160 204 186 255 255 255
3 222 6 160 255 255 255
3 121 295 294 255 255 255
3 161 152 121 255 255 255
3 216 8 161 255 255 255
3 162 314 216 255 255 255
3 187 142 162 255 255 255
3 31 18 60 255 255 255
3 217 261 31 255 255 255
3 163 261 217 255 255 255
3 163 162 261 255 255 255
3 192 142 163 255 255 255
3 122 19 140 255 255 255
3 123 296 110 255 255 255
3 225 42 218 255 255 255
3 185 25 187 255 255 255
3 157 10 117 255 255 255
3 119 72 114 255 255 255
3 158 117 119 255 255 255
3 226 11 137 255 255 255
3 166 223 226 255 255 255
3 165 33 166 255 255 255
3 32 81 77 255 255 255
3 124 134 32 255 255 255
3 5 234 124 255 255 255
3 223 213 33 255 255 255
3 164 153 125 255 255 255
3 224 12 164 255 255 255
3 219 249 30 255 255 255
3 118 9 225 255 255 255
3 186 318 118 255 255 255
3 204 302 186 255 255 255
3 160 277 204 255 255 255
3 6 303 160 255 255 255
3 7 40 24 255 255 255
3 295 113 294 255 255 255
3 121 269 295 255 255 255
3 161 263 152 255 255 255
3 8 196 161 255 255 255
3 162 163 314 255 255 255
3 18 24 60 255 255 255
3 31 269 18 255 255 255
3 261 314 31 255 255 255
3 142 275 163 255 255 255
3 296 275 110 255 255 255
3 42 127 218 255 255 255
3 225 9 42 255 255 255
3 9 157 42 255 255 255
3 185 110 25 255 255 255
3 117 273 72 255 255 255
3 10 247 117 255 255 255
3 157 231 42 255 255 255
3 11 278 137 255 255 255
3 226 12 11 255 255 255
3 32 262 81 255 255 255
3 134 262 32 255 255 255
3 134 244 262 255 255 255
3 124 300 134 255 255 255
3 12 153 164 255 255 255
3 12 226 153 255 255 255
3 30 212 224 255 255 255
3 219 106 249 255 255 255
3 118 233 9 255 255 255
3 318 177 118 255 255 255
3 302 271 186 255 255 255
3 204 7 302 255 255 255
3 160 248 277 255 255 255
3 277 40 7 255 255 255
3 277 304 40 255 255 255
3 113 177 294 255 255 255
3 295 103 113 255 255 255
3 269 263 295 255 255 255
3 196 197 161 255 255 255
3 8 197 196 255 255 255
3 8 90 197 255 255 255
3 269 298 18 255 255 255
3 275 19 163 255 255 255
3 127 271 218 255 255 255
3 42 79 127 255 255 255
3 9 10 157 255 255 255
3 9 292 10 255 255 255
3 110 163 25 255 255 255
3 311 105 72 255 255 255
3 72 274 311 255 255 255
3 273 229 72 255 255 255
3 247 280 117 255 255 255
3 231 118 42 255 255 255
3 278 205 137 255 255 255
3 262 167 81 255 255 255
3 244 143 262 255 255 255
3 134 144 244 255 255 255
3 300 234 134 255 255 255
3 124 166 300 255 255 255
3 212 22 224 255 255 255
3 30 249 212 255 255 255
3 106 126 249 255 255 255
3 233 270 9 255 255 255
3 318 294 177 255 255 255
3 318 29 294 255 255 255
3 302 200 271 255 255 255
3 7 29 302 255 255 255
3 29 318 302 255 255 255
3 318 127 302 255 255 255
3 204 277 7 255 255 255
3 277 248 304 255 255 255
3 113 233 177 255 255 255
3 103 107 113 255 255 255
3 263 128 295 255 255 255
3 90 235 197 255 255 255
3 8 147 90 255 255 255
3 42 292 79 255 255 255
3 292 274 10 255 255 255
3 9 270 292 255 255 255
3 270 194 292 255 255 255
3 311 149 105 255 255 255
3 274 149 311 255 255 255
3 273 280 229 255 255 255
3 247 250 280 255 255 255
3 118 177 42 255 255 255
3 177 270 42 255 255 255
3 205 13 137 255 255 255
3 278 97 205 255 255 255
3 11 12 278 255 255 255
3 12 284 278 255 255 255
3 262 143 167 255 255 255
3 143 91 167 255 255 255
3 144 81 244 255 255 255
3 234 144 134 255 255 255
3 300 106 234 255 255 255
3 166 153 300 255 255 255
3 124 213 166 255 255 255
3 22 182 224 255 255 255
3 212 316 22 255 255 255
3 233 107 270 255 255 255
3 302 308 200 255 255 255
3 103 291 107 255 255 255
3 128 103 295 255 255 255
3 128 108 103 255 255 255
3 263 235 128 255 255 255
3 90 84 235 255 255 255
3 147 84 90 255 255 255
3 147 148 84 255 255 255
3 8 199 147 255 255 255
3 292 113 79 255 255 255
3 270 101 194 255 255 255
3 149 8 105 255 255 255
3 13 297 137 255 255 255
3 205 135 13 255 255 255
3 97 293 205 255 255 255
3 278 143 97 255 255 255
3 284 85 278 255 255 255
3 12 264 284 255 255 255
3 91 205 167 255 255 255
3 143 98 91 255 255 255
3 81 17 244 255 255 255
3 144 77 81 255 255 255
3 234 20 144 255 255 255
3 5 20 234 255 255 255
3 124 145 213 255 255 255
3 182 219 224 255 255 255
3 22 39 182 255 255 255
3 316 39 22 255 255 255
3 316 227 39 255 255 255
3 107 291 270 255 255 255
3 233 1 107 255 255 255
3 302 40 308 255 255 255
3 103 14 291 255 255 255
3 108 1 103 255 255 255
3 128 236 108 255 255 255
3 235 238 128 255 255 255
3 263 197 235 255 255 255
3 147 199 148 255 255 255
3 199 111 148 255 255 255
3 113 121 79 255 255 255
3 292 194 113 255 255 255
3 101 154 194 255 255 255
3 8 73 105 255 255 255
3 149 152 8 255 255 255
3 13 61 297 255 255 255
3 293 61 205 255 255 255
3 97 167 293 255 255 255
3 284 44 85 255 255 255
3 264 144 284 255 255 255
3 12 300 264 255 255 255
3 205 44 167 255 255 255
3 91 246 205 255 255 255
3 143 133 98 255 255 255
3 144 190 77 255 255 255
3 144 20 190 255 255 255
3 145 190 213 255 255 255
3 219 41 224 255 255 255
3 39 272 182 255 255 255
3 227 237 39 255 255 255
3 316 317 227 255 255 255
3 302 160 40 255 255 255
3 14 101 291 255 255 255
3 103 174 14 255 255 255
3 108 174 1 255 255 255
3 236 88 108 255 255 255
3 128 238 236 255 255 255
3 235 241 238 255 255 255
3 84 239 235 255 255 255
3 148 240 84 255 255 255
3 199 149 111 255 255 255
3 121 188 79 255 255 255
3 113 298 121 255 255 255
3 73 140 105 255 255 255
3 8 162 73 255 255 255
3 167 98 293 255 255 255
3 284 179 44 255 255 255
3 264 5 144 255 255 255
3 12 125 300 255 255 255
3 205 85 44 255 255 255
3 143 17 133 255 255 255
3 219 212 41 255 255 255
3 39 237 272 255 255 255
3 237 268 272 255 255 255
3 317 12 227 255 255 255
3 316 224 317 255 255 255
3 14 243 101 255 255 255
3 174 243 14 255 255 255
3 108 88 174 255 255 255
3 238 215 236 255 255 255
3 235 239 241 255 255 255
3 239 92 241 255 255 255
3 240 242 84 255 255 255
3 199 51 149 255 255 255
3 188 118 79 255 255 255
3 140 296 105 255 255 255
3 162 86 73 255 255 255
3 98 133 293 255 255 255
3 284 175 179 255 255 255
3 143 244 17 255 255 255
3 150 155 1 255 255 255
3 174 88 243 255 255 255
3 238 89 215 255 255 255
3 238 241 89 255 255 255
3 241 92 89 255 255 255
3 239 242 92 255 255 255
3 242 239 84 255 255 255
3 51 197 149 255 255 255
3 296 45 105 255 255 255
3 175 297 179 255 255 255
3 284 124 175 255 255 255
3 150 174 155 255 255 255
3 243 82 101 255 255 255
3 87 243 88 255 255 255
3 88 59 87 255 255 255
3 89 93 215 255 255 255
3 92 93 89 255 255 255
3 92 94 93 255 255 255
3 240 95 242 255 255 255
3 240 96 95 255 255 255
3 51 276 197 255 255 255
3 296 122 45 255 255 255
3 297 135 179 255 255 255
3 175 137 297 255 255 255
3 124 20 175 255 255 255
3 82 250 101 255 255 255
3 243 87 82 255 255 255
3 87 59 82 255 255 255
3 59 265 82 255 255 255
3 93 169 215 255 255 255
3 93 170 169 255 255 255
3 94 171 93 255 255 255
3 92 242 94 255 255 255
3 95 94 242 255 255 255
3 96 172 95 255 255 255
3 240 168 96 255 255 255
3 168 173 96 255 255 255
3 51 176 276 255 255 255
3 122 185 45 255 255 255
3 135 44 179 255 255 255
3 135 97 44 255 255 255
3 82 154 250 255 255 255
3 265 46 82 255 255 255
3 169 48 215 255 255 255
3 170 75 169 255 255 255
3 171 170 93 255 255 255
3 171 281 170 255 255 255
3 172 283 95 255 255 255
3 96 49 172 255 255 255
3 173 112 96 255 255 255
3 240 176 168 255 255 255
3 176 282 276 255 255 255
3 51 199 176 255 255 255
3 97 143 44 255 255 255
3 143 81 44 255 255 255
3 82 46 154 255 255 255
3 48 283 215 255 255 255
3 169 201 48 255 255 255
3 170 50 75 255 255 255
3 281 50 170 255 255 255
3 49 215 172 255 255 255
3 173 282 112 255 255 255
3 168 136 173 255 255 255
3 176 265 168 255 255 255
3 282 52 276 255 255 255
3 176 240 282 255 255 255
3 240 112 282 255 255 255
3 240 95 112 255 255 255
3 283 172 215 255 255 255
3 48 94 283 255 255 255
3 201 281 48 255 255 255
3 169 285 201 255 255 255
3 50 115 75 255 255 255
3 136 236 173 255 255 255
3 52 136 276 255 255 255
3 282 49 52 255 255 255
3 95 283 112 255 255 255
3 48 171 94 255 255 255
3 281 171 48 255 255 255
3 201 50 281 255 255 255
3 201 286 50 255 255 255
3 285 286 201 255 255 255
3 285 115 286 255 255 255
3 169 75 285 255 255 255
3 115 202 75 255 255 255
3 286 53 50 255 255 255
3 115 116 286 255 255 255
3 202 47 75 255 255 255
3 115 203 202 255 255 255
3 50 116 115 255 255 255
3 50 53 116 255 255 255
3 286 287 53 255 255 255
3 202 288 47 255 255 255
3 203 206 202 255 255 255
3 53 55 116 255 255 255
3 287 207 53 255 255 255
3 287 54 207 255 255 255
3 288 208 47 255 255 255
3 202 206 288 255 255 255
3 206 156 288 255 255 255
3 53 207 55 255 255 255
3 207 54 55 255 255 255
3 54 209 55 255 255 255
3 287 286 54 255 255 255
3 286 210 54 255 255 255
3 208 139 47 255 255 255
3 206 2 156 255 255 255
3 203 180 206 255 255 255
3 209 141 55 255 255 255
3 210 21 54 255 255 255
3 286 116 210 255 255 255
3 116 21 210 255 255 255
3 116 55 21 255 255 255
3 55 180 21 255 255 255
3 208 131 139 255 255 255
3 208 56 131 255 255 255
3 288 230 208 255 255 255
3 2 109 156 255 255 255
3 206 312 2 255 255 255
3 180 141 206 255 255 255
3 209 312 141 255 255 255
3 131 279 139 255 255 255
3 56 109 131 255 255 255
3 208 230 56 255 255 255
3 288 289 230 255 255 255
3 109 56 156 255 255 255
3 2 290 109 255 255 255
3 312 74 2 255 255 255
3 312 206 141 255 255 255
3 209 100 312 255 255 255
3 279 102 139 255 255 255
3 131 129 279 255 255 255
3 109 129 131 255 255 255
3 289 267 230 255 255 255
3 288 203 289 255 255 255
3 290 57 109 255 255 255
3 2 74 290 255 255 255
3 74 138 290 255 255 255
3 312 76 74 255 255 255
3 102 245 139 255 255 255
3 279 0 102 255 255 255
3 129 181 279 255 255 255
3 109 195 129 255 255 255
3 267 56 230 255 255 255
3 267 279 56 255 255 255
3 289 23 267 255 255 255
3 203 23 289 255 255 255
3 57 195 109 255 255 255
3 290 138 57 255 255 255
3 138 146 57 255 255 255
3 74 78 138 255 255 255
3 209 232 100 255 255 255
3 245 288 139 255 255 255
3 102 83 245 255 255 255
3 0 83 102 255 255 255
3 0 26 83 255 255 255
3 129 195 181 255 255 255
3 57 146 195 255 255 255
3 146 198 195 255 255 255
3 23 26 267 255 255 255
3 138 99 146 255 255 255
3 78 99 138 255 255 255
3 78 228 99 255 255 255
3 74 100 78 255 255 255
3 232 228 100 255 255 255
3 209 43 232 255 255 255
3 83 267 245 255 255 255
3 0 130 26 255 255 255
3 198 178 195 255 255 255
3 146 178 198 255 255 255
3 146 266 178 255 255 255
3 267 315 279 255 255 255
3 83 315 267 255 255 255
3 83 139 315 255 255 255
3 26 58 267 255 255 255
3 99 266 146 255 255 255
3 228 313 99 255 255 255
3 74 76 100 255 255 255
3 228 78 100 255 255 255
3 232 313 228 255 255 255
3 43 214 232 255 255 255
3 130 132 26 255 255 255
3 0 151 130 255 255 255
3 178 251 195 255 255 255
3 58 151 267 255 255 255
3 26 313 58 255 255 255
3 99 299 266 255 255 255
3 313 299 99 255 255 255
3 313 132 299 255 255 255
3 232 214 313 255 255 255
3 43 80 214 255 255 255
3 132 80 26 255 255 255
3 151 251 130 255 255 255
3 0 181 151 255 255 255
3 178 266 251 255 255 255
3 266 58 251 255 255 255
3 58 266 151 255 255 255
3 132 266 299 255 255 255
3 132 214 80 255 255 255
3 251 58 130 255 255 255
3 43 141 80 255 255 255
