ply
format ascii 1.0
element vertex 312
property float x
property float y
property float z
element face 576
property list uchar int vertex_indices
property uchar red
property uchar green
property uchar blue
end_header
11.2789344787597656 -4.54782581329345703 -0.726086735725402832
11.199000358581543 -4.56500005722045898 -0.574000000953674316
11.2609996795654297 -4.62699985504150391 -0.679000020027160645
11.3369998931884766 -4.65100002288818359 -0.745000004768371582
11.3453817367553711 -4.65230083465576172 -0.753194332122802734
11.3400001525878906 -4.65700006484985352 -0.75
11.2441282272338867 -4.57560491561889648 -0.77806854248046875
11.2659997940063477 -4.60799980163574219 -0.796000003814697266
11.305999755859375 -4.6659998893737793 -0.722999989986419678
11.3133201599121094 -4.65608310699462891 -0.698728382587432861
11.2609996795654297 -4.62699985504150391 -0.66100001335144043
11.3387966156005859 -4.64723110198974609 -0.730112791061401367
11.243255615234375 -4.49678754806518555 -0.667976617813110352
11.256378173828125 -4.51992893218994141 -0.707426786422729492
11.2519998550415039 -4.55900001525878906 -0.759000003337860107
11.2069997787475586 -4.57499980926513672 -0.575999975204467773
11.2379999160766602 -4.58699989318847656 -0.634000003337860107
11.2390003204345703 -4.59399986267089844 -0.639999985694885254
11.2819995880126953 -4.61299991607666016 -0.666000008583068848
11.3170003890991211 -4.63500022888183594 -0.704999983310699463
11.2643852233886719 -4.59583377838134766 -0.806383192539215088
11.2390003204345703 -4.60599994659423828 -0.63200002908706665
11.3039999008178711 -4.6399998664855957 -0.703999996185302734
11.2709999084472656 -4.50899982452392578 -0.683000028133392334
11.1520004272460938 -4.49499988555908203 -0.493000000715255737
11.2600002288818359 -4.5409998893737793 -0.741999983787536621
11.2528057098388672 -4.61277198791503906 -0.799657166004180908
11.2390003204345703 -4.60200023651123047 -0.648000001907348633
11.2930002212524414 -4.64300012588500977 -0.694000005722045898
11.2797966003417969 -4.50318717956542969 -0.685457468032836914
11.2690000534057617 -4.59999990463256836 -0.785000026226043701
11.260167121887207 -4.62712335586547852 -0.824979007244110107
11.2740001678466797 -4.52500009536743164 -0.726000010967254639
11.252507209777832 -4.47456121444702148 -0.63083040714263916
11.2539997100830078 -4.55900001525878906 -0.751999974250793457
11.1610002517700195 -4.53399991989135742 -0.541000008583068848
11.3369998931884766 -4.67299985885620117 -0.764999985694885254
11.2763938903808594 -4.6392674446105957 -0.811171591281890869
11.1840476989746094 -4.54756879806518555 -0.550361692905426025
11.2602005004882812 -4.48188257217407227 -0.642476081848144531
11.2486143112182617 -4.601043701171875 -0.803070008754730225
11.3197774887084961 -4.64055061340332031 -0.73225247859954834
11.185999870300293 -4.5689997673034668 -0.597000002861022949
11.2600002288818359 -4.54600000381469727 -0.728999972343444824
11.2717514038085938 -4.62322759628295898 -0.678689241409301758
11.2899999618530273 -4.62800025939941406 -0.704499959945678711
11.3179998397827148 -4.66900014877319336 -0.740000009536743164
11.2756567001342773 -4.63387203216552734 -0.683306872844696045
11.3039999008178711 -4.65000009536743164 -0.712999999523162842
11.1499996185302734 -4.49399995803833008 -0.497999995946884155
11.1312189102172852 -4.48803091049194336 -0.489516407251358032
11.1429996490478516 -4.48199987411499023 -0.474999994039535522
11.1352815628051758 -4.51338911056518555 -0.477370560169219971
11.1789999008178711 -4.5560002326965332 -0.569000005722045898
11.1767854690551758 -4.57298088073730469 -0.569369733333587646
11.1608657836914062 -4.57193470001220703 -0.573831915855407715
11.1739997863769531 -4.5689997673034668 -0.575999975204467773
11.1789999008178711 -4.56400012969970703 -0.579999983310699463
11.1850004196166992 -4.57399988174438477 -0.58899998664855957
11.1612825393676758 -4.4980473518371582 -0.500695943832397461
11.1482276916503906 -4.54554271697998047 -0.548391580581665039
11.1479997634887695 -4.50400018692016602 -0.509999990463256836
11.1497554779052734 -4.48386859893798828 -0.449596643447875977
11.1440000534057617 -4.56500005722045898 -0.575999975204467773
11.2012176513671875 -4.58104085922241211 -0.601121902465820312
11.23150634765625 -4.59878969192504883 -0.637384653091430664
11.2320241928100586 -4.59401798248291016 -0.624502420425415039
11.2452316284179688 -4.61251688003540039 -0.655898332595825195
11.2787332534790039 -4.61822509765625 -0.673969507217407227
11.2835750579833984 -4.63509273529052734 -0.683486282825469971
11.2742061614990234 -4.55408239364624023 -0.743717551231384277
11.2480878829956055 -4.58882713317871094 -0.797954797744750977
11.1389999389648438 -4.57200002670288086 -0.589999973773956299
11.3465185165405273 -4.6486358642578125 -0.744343876838684082
11.2481899261474609 -4.54633903503417969 -0.746564984321594238
11.3299999237060547 -4.63700008392333984 -0.71799999475479126
11.3269996643066406 -4.67600011825561523 -0.737999975681304932
11.125 -4.53000020980834961 -0.526000022888183594
11.3190193176269531 -4.65126848220825195 -0.724529266357421875
11.2950000762939453 -4.65100002288818359 -0.703000009059906006
11.2552556991577148 -4.60096216201782227 -0.784019887447357178
11.3415355682373047 -4.66682291030883789 -0.77377021312713623
11.2749729156494141 -4.49043416976928711 -0.662200808525085449
11.2400360107421875 -4.56064701080322266 -0.754678130149841309
11.2566680908203125 -4.56502628326416016 -0.768829166889190674
11.2639827728271484 -4.61800098419189453 -0.812051594257354736
11.2989997863769531 -4.64699983596801758 -0.712000012397766113
11.1850004196166992 -4.57800006866455078 -0.575999975204467773
11.2614936828613281 -4.64128303527832031 -0.825581967830657959
11.3100004196166992 -4.66699981689453125 -0.731999993324279785
11.2470493316650391 -4.46045637130737305 -0.640270769596099854
11.2623510360717773 -4.50364017486572266 -0.697332382202148438
11.2836341857910156 -4.65074443817138672 -0.699525296688079834
11.2670001983642578 -4.5149998664855957 -0.709999978542327881
11.2539997100830078 -4.54699993133544922 -0.726000010967254639
11.3350000381469727 -4.67899990081787109 -0.748000025749206543
11.246953010559082 -4.52974414825439453 -0.729255020618438721
11.2582015991210938 -4.58982038497924805 -0.789425671100616455
11.1399641036987305 -4.53620719909667969 -0.547971844673156738
11.2670001983642578 -4.64300012588500977 -0.791000008583068848
11.2659997940063477 -4.60300016403198242 -0.790000021457672119
11.2790002822875977 -4.64499998092651367 -0.790000021457672119
11.2472028732299805 -4.5690765380859375 -0.759162425994873047
11.2869997024536133 -4.61899995803833008 -0.684000015258789062
11.1663370132446289 -4.57936668395996094 -0.575319230556488037
11.2770004272460938 -4.63000011444091797 -0.670000016689300537
11.2690000534057617 -4.57100009918212891 -0.755999982357025146
11.2618837356567383 -4.4698328971862793 -0.663093447685241699
11.1649999618530273 -4.50299978256225586 -0.503000020980834961
11.2705307006835938 -4.49419546127319336 -0.653547585010528564
11.2550678253173828 -4.62331914901733398 -0.649972200393676758
11.2386207580566406 -4.55114126205444336 -0.764167070388793945
11.2626914978027344 -4.55197715759277344 -0.739784955978393555
11.3114280700683594 -4.64966106414794922 -0.715208232402801514
11.2524509429931641 -4.63696146011352539 -0.820695579051971436
11.3030004501342773 -4.65799999237060547 -0.704999983310699463
11.3217611312866211 -4.66760921478271484 -0.733987867832183838
11.2693567276000977 -4.54363584518432617 -0.713039934635162354
11.1909999847412109 -4.59200000762939453 -0.606000006198883057
11.2589998245239258 -4.50899982452392578 -0.699999988079071045
11.2770967483520508 -4.49452972412109375 -0.687693655490875244
11.2709999084472656 -4.57600021362304688 -0.755999982357025146
11.2980003356933594 -4.63500022888183594 -0.689999997615814209
11.1894989013671875 -4.58650827407836914 -0.590229213237762451
11.1171417236328125 -4.52557516098022461 -0.486080318689346313
11.1449899673461914 -4.54653549194335938 -0.53059542179107666
11.1352453231811523 -4.53619289398193359 -0.526556134223937988
11.1409997940063477 -4.51599979400634766 -0.541000008583068848
11.1610002517700195 -4.52099990844726562 -0.513000011444091797
11.1470003128051758 -4.50099992752075195 -0.477999985218048096
11.1753787994384766 -4.52186918258666992 -0.501424908638000488
11.1267261505126953 -4.53132438659667969 -0.542901098728179932
11.1443042755126953 -4.52112722396850586 -0.536746203899383545
11.1149997711181641 -4.51900005340576172 -0.518999993801116943
11.258000373840332 -4.60900020599365234 -0.654999971389770508
11.2639999389648438 -4.63199996948242188 -0.688000023365020752
11.3229999542236328 -4.64200019836425781 -0.705999970436096191
11.3217029571533203 -4.67409610748291016 -0.751265227794647217
11.2998476028442383 -4.62159395217895508 -0.667709529399871826
11.2455005645751953 -4.49699974060058594 -0.683499991893768311
11.2438087463378906 -4.54334402084350586 -0.743258237838745117
11.2639999389648438 -4.57000017166137695 -0.759000003337860107
11.282893180847168 -4.64006614685058594 -0.702405095100402832
11.3299999237060547 -4.67899990081787109 -0.745000004768371582
11.2609996795654297 -4.62699985504150391 -0.81099998950958252
11.2720003128051758 -4.56799983978271484 -0.760999977588653564
11.2589998245239258 -4.60400009155273438 -0.658999979496002197
11.3260002136230469 -4.66800022125244141 -0.745000004768371582
11.1669998168945312 -4.53700017929077148 -0.538999974727630615
11.3234224319458008 -4.6440281867980957 -0.71982806921005249
11.2700004577636719 -4.53399991989135742 -0.716000020503997803
11.2560281753540039 -4.60902643203735352 -0.670015215873718262
11.3179998397827148 -4.64799976348876953 -0.702000021934509277
11.1534185409545898 -4.52093505859375 -0.485894560813903809
11.3447608947753906 -4.66680669784545898 -0.740933716297149658
11.2969999313354492 -4.62300014495849609 -0.694000005722045898
11.319000244140625 -4.66099977493286133 -0.707000017166137695
11.2431421279907227 -4.47990512847900391 -0.677520513534545898
11.2700004577636719 -4.55200004577636719 -0.737999975681304932
11.1569995880126953 -4.54199981689453125 -0.481000006198883057
11.2049999237060547 -4.58199977874755859 -0.592000007629394531
11.2659997940063477 -4.51399993896484375 -0.717000007629394531
11.1590003967285156 -4.5689997673034668 -0.584999978542327881
11.2532234191894531 -4.50710773468017578 -0.684201657772064209
11.2453670501708984 -4.47838163375854492 -0.655485093593597412
11.1549997329711914 -4.53999996185302734 -0.497999995946884155
11.1545925140380859 -4.49111557006835938 -0.476785272359848022
11.3458280563354492 -4.668792724609375 -0.729120135307312012
11.3290004730224609 -4.67799997329711914 -0.735000014305114746
11.2539997100830078 -4.49300003051757812 -0.695999979972839355
11.1653242111206055 -4.48801469802856445 -0.464299291372299194
11.1369438171386719 -4.49470281600952148 -0.49348101019859314
11.1319999694824219 -4.51000022888183594 -0.488000005483627319
11.3174848556518555 -4.65048456192016602 -0.727468252182006836
11.2880001068115234 -4.63199996948242188 -0.679000020027160645
11.2740001678466797 -4.52500009536743164 -0.731999993324279785
11.1610002517700195 -4.54500007629394531 -0.587000012397766113
11.2643241882324219 -4.51437759399414062 -0.700919687747955322
11.1339998245239258 -4.58199977874755859 -0.586000025272369385
11.2154998779296875 -4.58500003814697266 -0.631000041961669922
11.1590003967285156 -4.53399991989135742 -0.479000002145767212
11.1590003967285156 -4.57600021362304688 -0.565999984741210938
11.1929998397827148 -4.58099985122680664 -0.587000012397766113
11.2066497802734375 -4.57010984420776367 -0.609011232852935791
11.1689996719360352 -4.55499982833862305 -0.586000025272369385
11.1429662704467773 -4.47855377197265625 -0.498413175344467163
11.1440153121948242 -4.52562189102172852 -0.475090950727462769
11.1350002288818359 -4.58300018310546875 -0.573000013828277588
11.1780004501342773 -4.58900022506713867 -0.601999998092651367
11.1408052444458008 -4.58956146240234375 -0.57434999942779541
11.250239372253418 -4.48640966415405273 -0.646414220333099365
11.310999870300293 -4.65100002288818359 -0.72350001335144043
11.1410007476806641 -4.48899984359741211 -0.466499984264373779
11.1470003128051758 -4.56199979782104492 -0.580999970436096191
11.1800975799560547 -4.57296562194824219 -0.606577455997467041
11.1351861953735352 -4.5796513557434082 -0.576354086399078369
11.1470003128051758 -4.47599983215332031 -0.486999988555908203
11.1739997863769531 -4.57299995422363281 -0.578999996185302734
11.1769599914550781 -4.54589748382568359 -0.578894555568695068
11.2045259475708008 -4.56243610382080078 -0.576945960521697998
11.200927734375 -4.58122968673706055 -0.615514099597930908
11.1630001068115234 -4.57700014114379883 -0.58899998664855957
11.1909999847412109 -4.55999994277954102 -0.58899998664855957
11.2460145950317383 -4.59930992126464844 -0.629927694797515869
11.2759027481079102 -4.62992668151855469 -0.696467459201812744
11.2406291961669922 -4.56351709365844727 -0.777517795562744141
11.2782888412475586 -4.65478420257568359 -0.815170347690582275
11.2720680236816406 -4.65293121337890625 -0.804835319519042969
11.2586479187011719 -4.48760128021240234 -0.674734532833099365
11.133000373840332 -4.50600004196166992 -0.486000001430511475
11.1100978851318359 -4.53132534027099609 -0.494450211524963379
11.1682529449462891 -4.54171848297119141 -0.519714474678039551
11.174591064453125 -4.50485849380493164 -0.507157683372497559
11.1688051223754883 -4.55353164672851562 -0.556002020835876465
11.1330194473266602 -4.4810490608215332 -0.480755925178527832
11.2100000381469727 -4.59299993515014648 -0.629999995231628418
11.213475227355957 -4.59468841552734375 -0.610167622566223145
11.2010002136230469 -4.56099987030029297 -0.570999979972839355
11.2100000381469727 -4.56699991226196289 -0.577000021934509277
11.2299995422363281 -4.60500001907348633 -0.646000027656555176
11.2989997863769531 -4.63000011444091797 -0.68900001049041748
11.3310003280639648 -4.64900016784667969 -0.732999980449676514
11.2729997634887695 -4.53900003433227539 -0.726999998092651367
11.269312858581543 -4.61869907379150391 -0.810157060623168945
11.319000244140625 -4.6399998664855957 -0.699999988079071045
11.2700004577636719 -4.61399984359741211 -0.792999982833862305
11.3229999542236328 -4.65500020980834961 -0.703000009059906006
11.2220001220703125 -4.58799982070922852 -0.633000016212463379
11.2663021087646484 -4.59311771392822266 -0.780247807502746582
11.1529998779296875 -4.49100017547607422 -0.495000004768371582
11.2650003433227539 -4.55800008773803711 -0.763999998569488525
11.2609996795654297 -4.63299989700317383 -0.823000013828277588
11.3100004196166992 -4.63399982452392578 -0.703999996185302734
11.3518285751342773 -4.67388200759887695 -0.755894660949707031
11.2538261413574219 -4.50254344940185547 -0.657126367092132568
11.2457895278930664 -4.5394902229309082 -0.745708882808685303
11.2425146102905273 -4.47230768203735352 -0.670328021049499512
11.2410001754760742 -4.48299980163574219 -0.669000029563903809
11.3039999008178711 -4.62400007247924805 -0.68900001049041748
11.2633628845214844 -4.61391305923461914 -0.650642693042755127
11.2620000839233398 -4.56799983978271484 -0.740999996662139893
11.3338823318481445 -4.64002227783203125 -0.722150027751922607
11.2763147354125977 -4.63657331466674805 -0.820387542247772217
11.2033185958862305 -4.59204196929931641 -0.610509634017944336
11.1144170761108398 -4.53096675872802734 -0.512415289878845215
11.1319684982299805 -4.50756454467773438 -0.517860829830169678
11.1459999084472656 -4.51599979400634766 -0.513999998569488525
11.1579999923706055 -4.52500009536743164 -0.490000009536743164
11.1441116333007812 -4.5533599853515625 -0.516863763332366943
11.1179342269897461 -4.52375364303588867 -0.529195308685302734
11.1534261703491211 -4.51546192169189453 -0.493616491556167603
11.1583414077758789 -4.53099250793457031 -0.488225370645523071
11.16748046875 -4.53514957427978516 -0.500127911567687988
11.2735786437988281 -4.62986612319946289 -0.657315731048583984
11.3380002975463867 -4.65100002288818359 -0.731000006198883057
11.189000129699707 -4.58199977874755859 -0.591000020503997803
11.2814741134643555 -4.61190891265869141 -0.646713674068450928
11.1389999389648438 -4.51399993896484375 -0.497000008821487427
11.1482315063476562 -4.50150537490844727 -0.467888623476028442
11.2514562606811523 -4.5186762809753418 -0.727587640285491943
11.2620000839233398 -4.57100009918212891 -0.748000025749206543
11.1637029647827148 -4.54291963577270508 -0.544870316982269287
11.2709999084472656 -4.65000009536743164 -0.792999982833862305
11.1599998474121094 -4.52500009536743164 -0.523000001907348633
11.1969995498657227 -4.5689997673034668 -0.602999985218048096
11.1499996185302734 -4.53599977493286133 -0.486000001430511475
11.2163372039794922 -4.59059762954711914 -0.620761215686798096
11.1780004501342773 -4.55299997329711914 -0.582000017166137695
11.1730003356933594 -4.55499982833862305 -0.587999999523162842
11.1422300338745117 -4.53024387359619141 -0.502497076988220215
11.1120004653930664 -4.5149998664855957 -0.497999995946884155
11.1319179534912109 -4.52940177917480469 -0.500576555728912354
11.1210002899169922 -4.5149998664855957 -0.497999995946884155
11.2770004272460938 -4.60799980163574219 -0.658999979496002197
11.3400001525878906 -4.67399978637695312 -0.736999988555908203
11.3299999237060547 -4.67600011825561523 -0.75
11.2386407852172852 -4.47163867950439453 -0.649475574493408203
11.250523567199707 -4.59634494781494141 -0.791801929473876953
11.1814994812011719 -4.58450031280517578 -0.611000001430511475
11.2522258758544922 -4.58054113388061523 -0.785363614559173584
11.2659997940063477 -4.64200019836425781 -0.815999984741210938
11.1608209609985352 -4.55500030517578125 -0.5337485671043396
11.2969999313354492 -4.63700008392333984 -0.669000029563903809
11.189000129699707 -4.59600019454956055 -0.603999972343444824
11.2245092391967773 -4.595428466796875 -0.628313422203063965
11.3310003280639648 -4.67100000381469727 -0.77499997615814209
11.2650003433227539 -4.62900018692016602 -0.813000023365020752
11.2368478775024414 -4.55508947372436523 -0.737117111682891846
11.2679996490478516 -4.62599992752075195 -0.680999994277954102
11.2670001983642578 -4.61600017547607422 -0.666999995708465576
11.3179998397827148 -4.63500022888183594 -0.699000000953674316
11.2447042465209961 -4.59296226501464844 -0.625029623508453369
11.2589998245239258 -4.53100013732910156 -0.731000006198883057
11.2819032669067383 -4.65228557586669922 -0.798182427883148193
11.3020000457763672 -4.64400005340576172 -0.690999984741210938
11.3433294296264648 -4.6671748161315918 -0.716633319854736328
11.2390003204345703 -4.55000019073486328 -0.75
11.3360004425048828 -4.64099979400634766 -0.716000020503997803
11.2521886825561523 -4.56697845458984375 -0.744778096675872803
11.1319999694824219 -4.53800010681152344 -0.50700002908706665
11.1420001983642578 -4.55000019073486328 -0.50700002908706665
11.1796760559082031 -4.55413055419921875 -0.536550343036651611
11.1508464813232422 -4.51074600219726562 -0.510035097599029541
11.1850080490112305 -4.55744791030883789 -0.559275448322296143
11.133000373840332 -4.57499980926513672 -0.589999973773956299
11.2089996337890625 -4.57200002670288086 -0.59299999475479126
11.2094993591308594 -4.59549999237060547 -0.606000006198883057
11.2010002136230469 -4.58500003814697266 -0.602999985218048096
11.1920003890991211 -4.56799983978271484 -0.596000015735626221
11.3027257919311523 -4.6365351676940918 -0.666261076927185059
11.3420000076293945 -4.66499996185302734 -0.722000002861022949
11.1525812149047852 -4.58470058441162109 -0.585391700267791748
3 271 272 124 255 255 255
3 124 210 271 255 255 255
3 270 210 124 255 255 255
3 124 272 270 255 255 255
3 272 244 270 255 255 255
3 271 245 272 255 255 255
3 271 299 269 255 255 255
3 270 133 210 255 255 255
3 271 246 245 255 255 255
3 269 257 271 255 255 255
3 299 300 269 255 255 255
3 271 210 299 255 255 255
3 210 244 299 255 255 255
3 210 133 244 255 255 255
3 133 249 244 255 255 255
3 270 245 133 255 255 255
3 257 209 271 255 255 255
3 269 247 257 255 255 255
3 165 251 269 255 255 255
3 269 300 165 255 255 255
3 300 248 165 255 255 255
3 299 248 300 255 255 255
3 244 126 299 255 255 255
3 245 249 133 255 255 255
3 246 132 245 255 255 255
3 257 250 209 255 255 255
3 247 250 257 255 255 255
3 269 251 247 255 255 255
3 165 180 251 255 255 255
3 248 252 165 255 255 255
3 249 131 244 255 255 255
3 245 127 249 255 255 255
3 246 128 132 255 255 255
3 250 129 209 255 255 255
3 251 180 247 255 255 255
3 252 130 251 255 255 255
3 180 153 251 255 255 255
3 125 299 126 255 255 255
3 126 60 125 255 255 255
3 244 131 126 255 255 255
3 249 127 131 255 255 255
3 127 98 131 255 255 255
3 245 132 127 255 255 255
3 128 263 132 255 255 255
3 128 212 263 255 255 255
3 246 59 128 255 255 255
3 129 258 209 255 255 255
3 250 24 129 255 255 255
3 251 159 180 255 255 255
3 130 153 251 255 255 255
3 248 211 252 255 255 255
3 248 281 211 255 255 255
3 125 281 248 255 255 255
3 126 131 60 255 255 255
3 131 98 60 255 255 255
3 127 60 98 255 255 255
3 132 60 127 255 255 255
3 263 35 132 255 255 255
3 128 302 212 255 255 255
3 59 212 128 255 255 255
3 246 49 59 255 255 255
3 258 192 209 255 255 255
3 24 166 129 255 255 255
3 250 59 24 255 255 255
3 130 250 153 255 255 255
3 130 108 250 255 255 255
3 211 130 252 255 255 255
3 211 263 130 255 255 255
3 301 148 211 255 255 255
3 211 281 301 255 255 255
3 125 60 281 255 255 255
3 60 213 281 255 255 255
3 248 77 125 255 255 255
3 132 261 60 255 255 255
3 132 148 261 255 255 255
3 192 214 209 255 255 255
3 129 166 258 255 255 255
3 166 170 258 255 255 255
3 59 166 24 255 255 255
3 301 38 148 255 255 255
3 301 303 38 255 255 255
3 248 299 77 255 255 255
3 299 244 77 255 255 255
3 148 38 261 255 255 255
3 212 108 130 255 255 255
3 302 61 212 255 255 255
3 258 62 192 255 255 255
3 258 170 62 255 255 255
3 166 171 24 255 255 255
3 250 108 59 255 255 255
3 250 52 153 255 255 255
3 301 213 303 255 255 255
3 213 301 281 255 255 255
3 244 249 77 255 255 255
3 299 271 244 255 255 255
3 303 213 38 255 255 255
3 61 49 59 255 255 255
3 214 50 209 255 255 255
3 192 51 214 255 255 255
3 62 51 192 255 255 255
3 62 170 51 255 255 255
3 166 51 170 255 255 255
3 166 50 171 255 255 255
3 250 172 52 255 255 255
3 213 54 303 255 255 255
3 303 53 213 255 255 255
3 49 185 59 255 255 255
3 50 172 209 255 255 255
3 214 185 50 255 255 255
3 51 196 214 255 255 255
3 52 186 153 255 255 255
3 213 55 54 255 255 255
3 53 56 213 255 255 255
3 213 261 38 255 255 255
3 303 57 198 255 255 255
3 54 57 303 255 255 255
3 54 58 57 255 255 255
3 54 104 58 255 255 255
3 214 196 185 255 255 255
3 54 181 104 255 255 255
3 55 104 54 255 255 255
3 56 54 213 255 255 255
3 53 57 56 255 255 255
3 57 267 198 255 255 255
3 58 42 57 255 255 255
3 104 201 58 255 255 255
3 185 171 50 255 255 255
3 196 229 185 255 255 255
3 57 197 56 255 255 255
3 58 264 42 255 255 255
3 201 194 58 255 255 255
3 104 311 201 255 255 255
3 181 189 104 255 255 255
3 56 197 54 255 255 255
3 197 87 54 255 255 255
3 198 213 303 255 255 255
3 267 268 198 255 255 255
3 264 194 42 255 255 255
3 58 182 264 255 255 255
3 194 182 58 255 255 255
3 194 200 182 255 255 255
3 52 265 186 255 255 255
3 189 311 104 255 255 255
3 181 187 189 255 255 255
3 63 195 55 255 255 255
3 55 193 63 255 255 255
3 197 123 87 255 255 255
3 268 176 198 255 255 255
3 267 202 268 255 255 255
3 264 183 194 255 255 255
3 182 160 264 255 255 255
3 200 64 182 255 255 255
3 187 195 189 255 255 255
3 181 63 187 255 255 255
3 195 189 55 255 255 255
3 193 72 63 255 255 255
3 55 162 193 255 255 255
3 123 182 87 255 255 255
3 197 201 123 255 255 255
3 268 184 176 255 255 255
3 202 42 268 255 255 255
3 194 188 42 255 255 255
3 183 200 194 255 255 255
3 183 266 200 255 255 255
3 264 199 183 255 255 255
3 182 123 160 255 255 255
3 200 243 64 255 255 255
3 311 72 201 255 255 255
3 189 178 311 255 255 255
3 186 265 159 255 255 255
3 265 165 159 255 255 255
3 189 104 55 255 255 255
3 63 304 195 255 255 255
3 193 162 72 255 255 255
3 55 197 162 255 255 255
3 182 1 87 255 255 255
3 201 188 123 255 255 255
3 197 104 201 255 255 255
3 184 162 176 255 255 255
3 188 255 42 255 255 255
3 194 278 188 255 255 255
3 266 215 200 255 255 255
3 199 305 183 255 255 255
3 123 243 160 255 255 255
3 243 306 64 255 255 255
3 311 304 72 255 255 255
3 165 252 159 255 255 255
3 265 247 165 255 255 255
3 304 178 195 255 255 255
3 182 199 1 255 255 255
3 188 283 123 255 255 255
3 188 278 283 255 255 255
3 184 268 162 255 255 255
3 255 87 42 255 255 255
3 183 305 266 255 255 255
3 305 216 266 255 255 255
3 243 216 160 255 255 255
3 123 283 243 255 255 255
3 306 160 64 255 255 255
3 200 215 243 255 255 255
3 215 216 243 255 255 255
3 265 153 247 255 255 255
3 304 311 178 255 255 255
3 182 305 199 255 255 255
3 182 64 305 255 255 255
3 64 307 305 255 255 255
3 278 118 283 255 255 255
3 216 284 266 255 255 255
3 199 264 202 255 255 255
3 216 305 160 255 255 255
3 305 15 160 255 255 255
3 216 215 284 255 255 255
3 215 65 284 255 255 255
3 199 217 1 255 255 255
3 307 243 305 255 255 255
3 64 255 307 255 255 255
3 199 53 217 255 255 255
3 202 267 199 255 255 255
3 305 218 15 255 255 255
3 65 203 284 255 255 255
3 215 266 65 255 255 255
3 217 303 1 255 255 255
3 255 283 307 255 255 255
3 64 308 255 255 255 255
3 266 66 65 255 255 255
3 199 267 53 255 255 255
3 218 217 15 255 255 255
3 65 219 203 255 255 255
3 308 202 255 255 255 255
3 64 264 308 255 255 255
3 203 66 284 255 255 255
3 219 67 203 255 255 255
3 66 291 65 255 255 255
3 66 266 284 255 255 255
3 203 291 66 255 255 255
3 67 110 203 255 255 255
3 291 27 65 255 255 255
3 110 239 203 255 255 255
3 67 10 110 255 255 255
3 27 219 65 255 255 255
3 291 203 27 255 255 255
3 110 256 239 255 255 255
3 10 253 110 255 255 255
3 219 227 65 255 255 255
3 27 67 219 255 255 255
3 203 21 27 255 255 255
3 239 134 203 255 255 255
3 110 253 256 255 255 255
3 67 151 10 255 255 255
3 227 16 65 255 255 255
3 27 146 67 255 255 255
3 134 146 203 255 255 255
3 256 134 239 255 255 255
3 10 105 253 255 255 255
3 151 44 10 255 255 255
3 227 179 16 255 255 255
3 146 151 67 255 255 255
3 146 68 151 255 255 255
3 27 17 146 255 255 255
3 146 17 203 255 255 255
3 17 16 203 255 255 255
3 134 256 146 255 255 255
3 134 10 239 255 255 255
3 256 273 146 255 255 255
3 253 309 256 255 255 255
3 253 282 309 255 255 255
3 105 69 253 255 255 255
3 146 273 68 255 255 255
3 273 18 68 255 255 255
3 309 138 256 255 255 255
3 253 69 282 255 255 255
3 105 47 69 255 255 255
3 227 65 179 255 255 255
3 68 288 151 255 255 255
3 273 256 18 255 255 255
3 309 238 138 255 255 255
3 282 294 309 255 255 255
3 69 122 282 255 255 255
3 44 204 47 255 255 255
3 288 2 151 255 255 255
3 68 204 288 255 255 255
3 18 103 68 255 255 255
3 309 294 238 255 255 255
3 294 232 238 255 255 255
3 282 28 294 255 255 255
3 122 220 282 255 255 255
3 47 92 69 255 255 255
3 135 204 47 255 255 255
3 105 44 47 255 255 255
3 44 68 204 255 255 255
3 288 135 2 255 255 255
3 44 289 68 255 255 255
3 18 138 103 255 255 255
3 256 138 18 255 255 255
3 138 220 103 255 255 255
3 232 155 238 255 255 255
3 294 113 232 255 255 255
3 28 92 294 255 255 255
3 220 238 282 255 255 255
3 69 142 122 255 255 255
3 92 28 69 255 255 255
3 105 289 44 255 255 255
3 289 273 68 255 255 255
3 44 2 289 255 255 255
3 220 45 103 255 255 255
3 155 103 238 255 255 255
3 232 45 155 255 255 255
3 294 115 113 255 255 255
3 92 9 294 255 255 255
3 142 22 122 255 255 255
3 69 47 142 255 255 255
3 204 142 47 255 255 255
3 289 134 273 255 255 255
3 45 204 103 255 255 255
3 232 86 45 255 255 255
3 113 149 232 255 255 255
3 92 115 9 255 255 255
3 22 290 122 255 255 255
3 142 86 22 255 255 255
3 69 28 47 255 255 255
3 134 239 273 255 255 255
3 45 142 204 255 255 255
3 220 22 45 255 255 255
3 232 48 86 255 255 255
3 113 78 149 255 255 255
3 115 8 113 255 255 255
3 9 224 294 255 255 255
3 115 156 9 255 255 255
3 22 136 290 255 255 255
3 86 48 22 255 255 255
3 48 152 22 255 255 255
3 45 86 142 255 255 255
3 220 294 22 255 255 255
3 232 19 48 255 255 255
3 149 11 241 255 255 255
3 113 173 78 255 255 255
3 8 116 113 255 255 255
3 115 142 8 255 255 255
3 224 290 294 255 255 255
3 9 136 224 255 255 255
3 9 156 226 255 255 255
3 156 149 226 255 255 255
3 136 75 290 255 255 255
3 152 224 22 255 255 255
3 48 156 152 255 255 255
3 220 122 294 255 255 255
3 122 174 294 255 255 255
3 241 41 149 255 255 255
3 8 89 116 255 255 255
3 115 92 142 255 255 255
3 9 226 136 255 255 255
3 75 19 290 255 255 255
3 136 11 75 255 255 255
3 152 226 224 255 255 255
3 48 8 156 255 255 255
3 174 69 294 255 255 255
3 11 41 241 255 255 255
3 11 3 41 255 255 255
3 89 76 116 255 255 255
3 19 232 290 255 255 255
3 75 149 19 255 255 255
3 152 115 226 255 255 255
3 174 105 69 255 255 255
3 41 191 149 255 255 255
3 11 73 3 255 255 255
3 167 73 11 255 255 255
3 11 295 167 255 255 255
3 89 137 76 255 255 255
3 152 79 115 255 255 255
3 174 68 105 255 255 255
3 41 221 173 255 255 255
3 73 4 3 255 255 255
3 167 154 73 255 255 255
3 11 297 295 255 255 255
3 137 143 76 255 255 255
3 41 173 191 255 255 255
3 221 78 173 255 255 255
3 4 5 3 255 255 255
3 73 233 4 255 255 255
3 154 233 73 255 255 255
3 76 274 116 255 255 255
3 143 168 76 255 255 255
3 221 254 78 255 255 255
3 5 147 3 255 255 255
3 4 81 5 255 255 255
3 167 274 154 255 255 255
3 295 168 167 255 255 255
3 295 221 116 255 255 255
3 154 147 116 255 255 255
3 116 167 154 255 255 255
3 168 46 76 255 255 255
3 143 95 168 255 255 255
3 137 275 143 255 255 255
3 5 275 147 255 255 255
3 81 36 5 255 255 255
3 233 81 4 255 255 255
3 274 95 154 255 255 255
3 221 41 116 255 255 255
3 295 297 221 255 255 255
3 297 75 221 255 255 255
3 168 116 46 255 255 255
3 137 36 275 255 255 255
3 275 137 147 255 255 255
3 81 285 36 255 255 255
3 4 254 154 255 255 255
3 254 310 154 255 255 255
3 4 3 254 255 255 255
3 12 190 276 255 255 255
3 276 236 12 255 255 255
3 12 234 190 255 255 255
3 157 139 12 255 255 255
3 12 236 157 255 255 255
3 190 33 276 255 255 255
3 190 39 33 255 255 255
3 12 163 234 255 255 255
3 139 163 12 255 255 255
3 157 169 139 255 255 255
3 33 90 276 255 255 255
3 190 234 39 255 255 255
3 234 109 39 255 255 255
3 163 23 234 255 255 255
3 139 119 163 255 255 255
3 169 119 139 255 255 255
3 169 91 119 255 255 255
3 157 208 169 255 255 255
3 90 236 276 255 255 255
3 23 109 234 255 255 255
3 23 29 109 255 255 255
3 163 177 23 255 255 255
3 163 13 177 255 255 255
3 91 93 119 255 255 255
3 169 120 91 255 255 255
3 157 236 208 255 255 255
3 90 107 236 255 255 255
3 90 33 39 255 255 255
3 109 29 82 255 255 255
3 29 120 82 255 255 255
3 177 29 23 255 255 255
3 177 93 29 255 255 255
3 93 259 119 255 255 255
3 236 237 276 255 255 255
3 107 208 236 255 255 255
3 39 107 90 255 255 255
3 82 39 109 255 255 255
3 29 91 120 255 255 255
3 177 150 93 255 255 255
3 13 150 177 255 255 255
3 13 117 150 255 255 255
3 259 13 119 255 255 255
3 169 208 120 255 255 255
3 208 82 120 255 255 255
3 107 82 208 255 255 255
3 237 164 276 255 255 255
3 82 107 39 255 255 255
3 150 0 93 255 255 255
3 13 96 117 255 255 255
3 13 163 119 255 255 255
3 259 96 13 255 255 255
3 259 235 96 255 255 255
3 93 32 259 255 255 255
3 0 32 93 255 255 255
3 0 175 32 255 255 255
3 150 117 0 255 255 255
3 96 43 117 255 255 255
3 259 175 235 255 255 255
3 175 161 32 255 255 255
3 96 140 43 255 255 255
3 96 235 140 255 255 255
3 175 25 235 255 255 255
3 175 158 25 255 255 255
3 259 161 175 255 255 255
3 94 43 117 255 255 255
3 117 292 94 255 255 255
3 140 74 43 255 255 255
3 235 296 140 255 255 255
3 25 74 235 255 255 255
3 158 70 25 255 255 255
3 175 222 158 255 255 255
3 94 112 43 255 255 255
3 292 74 94 255 255 255
3 117 32 292 255 255 255
3 74 112 43 255 255 255
3 140 296 74 255 255 255
3 296 34 74 255 255 255
3 235 111 296 255 255 255
3 70 230 25 255 255 255
3 158 0 70 255 255 255
3 74 287 94 255 255 255
3 296 102 34 255 255 255
3 74 34 14 255 255 255
3 34 141 14 255 255 255
3 158 222 0 255 255 255
3 222 175 0 255 255 255
3 74 296 287 255 255 255
3 102 260 34 255 255 255
3 296 83 102 255 255 255
3 111 83 296 255 255 255
3 235 14 111 255 255 255
3 141 84 14 255 255 255
3 34 106 141 255 255 255
3 70 145 230 255 255 255
3 260 70 112 255 255 255
3 112 34 260 255 255 255
3 296 83 287 255 255 255
3 102 141 260 255 255 255
3 83 205 102 255 255 255
3 111 205 83 255 255 255
3 111 84 205 255 255 255
3 14 84 111 255 255 255
3 34 240 106 255 255 255
3 145 84 230 255 255 255
3 70 121 145 255 255 255
3 260 121 70 255 255 255
3 83 102 287 255 255 255
3 141 121 260 255 255 255
3 141 84 121 255 255 255
3 102 6 141 255 255 255
3 205 279 6 255 255 255
3 279 205 84 255 255 255
3 240 121 106 255 255 255
3 298 94 287 255 255 255
3 298 240 94 255 255 255
3 102 298 287 255 255 255
3 84 97 279 255 255 255
3 97 71 279 255 255 255
3 84 228 97 255 255 255
3 277 228 6 255 255 255
3 6 71 277 255 255 255
3 97 20 71 255 255 255
3 97 30 20 255 255 255
3 228 100 97 255 255 255
3 277 30 228 255 255 255
3 71 40 277 255 255 255
3 30 223 20 255 255 255
3 100 7 97 255 255 255
3 228 279 80 255 255 255
3 277 100 30 255 255 255
3 40 26 277 255 255 255
3 71 20 40 255 255 255
3 20 85 40 255 255 255
3 30 225 223 255 255 255
3 7 277 97 255 255 255
3 279 277 80 255 255 255
3 279 71 277 255 255 255
3 100 225 30 255 255 255
3 100 26 225 255 255 255
3 40 85 26 255 255 255
3 223 85 20 255 255 255
3 223 31 85 255 255 255
3 26 85 225 255 255 255
3 223 242 31 255 255 255
3 223 37 242 255 255 255
3 225 144 223 255 255 255
3 31 114 85 255 255 255
3 242 88 31 255 255 255
3 223 144 37 255 255 255
3 144 280 37 255 255 255
3 114 144 85 255 255 255
3 31 88 114 255 255 255
3 280 206 37 255 255 255
3 144 114 280 255 255 255
3 144 286 85 255 255 255
3 242 280 88 255 255 255
3 37 206 242 255 255 255
3 114 88 280 255 255 255
3 286 231 85 255 255 255
3 242 286 280 255 255 255
3 293 207 206 255 255 255
3 206 101 293 255 255 255
3 286 242 231 255 255 255
3 207 280 206 255 255 255
3 206 207 101 255 255 255
3 101 262 293 255 255 255
3 207 99 101 255 255 255
3 207 262 280 255 255 255
3 293 99 207 255 255 255
