ply
format ascii 1.0
element vertex 326
property float x
property float y
property float z
element face 576
property list uchar int vertex_indices
property uchar red
property uchar green
property uchar blue
end_header
-4.44199991226196289 1.99199998378753662 -1
-4.48600006103515625 1.99199998378753662 -1
-4.48899984359741211 1.95599997043609619 -0.987999975681304932
-4.51399993896484375 1.98399996757507324 -1
-4.46600008010864258 2.00300002098083496 -0.996999979019165039
-4.48899984359741211 2.05100011825561523 -1.03299999237060547
-4.46500015258789062 2.05200004577636719 -1.01900005340576172
-4.44299983978271484 2.06200003623962402 -1.02300000190734863
-4.49100017547607422 2.00500011444091797 -1.01800000667572021
-4.46899986267089844 2.03099989891052246 -0.970000028610229492
-4.46000003814697266 2.04999995231628418 -0.959999978542327881
-4.49300003051757812 2.00399994850158691 -1.02199995517730713
-4.47100019454956055 2.06699991226196289 -0.99299997091293335
-4.5130000114440918 1.98199999332427979 -0.999000012874603271
-4.44999980926513672 1.97800004482269287 -1.01800000667572021
-4.44999980926513672 1.97800004482269287 -1.01499998569488525
-4.44500017166137695 1.99800002574920654 -1.00999999046325684
-4.47800016403198242 1.99699997901916504 -1.01199996471405029
-4.47800016403198242 1.99000000953674316 -1.01600003242492676
-4.45599985122680664 1.97500002384185791 -1.02100002765655518
-4.45100021362304688 1.97699999809265137 -1.00699996948242188
-4.44899988174438477 1.98000001907348633 -1.01199996471405029
-4.43900012969970703 1.98899996280670166 -1.00199997425079346
-4.39499998092651367 2.02600002288818359 -1.02999997138977051
-4.39799976348876953 2.02699995040893555 -1.01699995994567871
-4.40000009536743164 2.03200006484985352 -1.01600003242492676
-4.3899998664855957 2.02349996566772461 -1.02149999141693115
-4.40399980545043945 2.02999997138977051 -1.02400004863739014
-4.40399980545043945 2.02600002288818359 -1.02999997138977051
-4.39400005340576172 2.02399992942810059 -1.02900004386901855
-4.40700006484985352 2.02399992942810059 -1.00999999046325684
-4.41499996185302734 2.03299999237060547 -1.03100001811981201
-4.41300010681152344 2.02300000190734863 -1.02499997615814209
-4.50199985504150391 1.97800004482269287 -0.994000017642974854
-4.5149998664855957 1.97300004959106445 -0.989000022411346436
-4.46099996566772461 1.98199999332427979 -0.991999983787536621
-4.49200010299682617 1.94900000095367432 -0.99299997091293335
-4.4869999885559082 1.95799994468688965 -0.981000006198883057
-4.48898935317993164 2.05700087547302246 -1.02299213409423828
-4.47100019454956055 2.01099991798400879 -1.0130000114440918
-4.47499990463256836 2.05999994277954102 -1.00999999046325684
-4.43599987030029297 2.04200005531311035 -1.01199996471405029
-4.49149990081787109 1.96200001239776611 -0.98899996280670166
-4.46299982070922852 2.02600002288818359 -0.986000001430511475
-4.46199989318847656 2.05999994277954102 -0.981999993324279785
-4.47599983215332031 2.04800009727478027 -0.986000001430511475
-4.47499990463256836 2.06200003623962402 -0.990000009536743164
-4.47700023651123047 2.04500007629394531 -0.987999975681304932
-4.47302675247192383 2.04203248023986816 -0.97799980640411377
-4.46500015258789062 2.05999994277954102 -0.977999985218048096
-4.46400022506713867 2.03200006484985352 -0.981999993324279785
-4.47700023651123047 2.04800009727478027 -0.980000019073486328
-4.45200014114379883 2.00999999046325684 -0.986999988555908203
-4.47900009155273438 2.06399989128112793 -0.996999979019165039
-4.49200010299682617 2.0065000057220459 -1.02200007438659668
-4.47550010681152344 2.04262495040893555 -0.965875029563903809
-4.44700002670288086 2.00500011444091797 -1.04100000858306885
-4.45399999618530273 2.03200006484985352 -1.00899994373321533
-4.44999980926513672 2.00500011444091797 -1.03699994087219238
-4.41099977493286133 2.01200008392333984 -1.01699995994567871
-4.41499996185302734 2.03500008583068848 -1.02799999713897705
-4.40999984741210938 2.01600003242492676 -1.00800001621246338
-4.42500019073486328 2.0280001163482666 -1.03299999237060547
-4.42199993133544922 2.0280001163482666 -1.03799998760223389
-4.41200017929077148 2.01900005340576172 -1.00399994850158691
-4.42100000381469727 2.01999998092651367 -1.02300000190734863
-4.42399978637695312 2.00999999046325684 -0.989000022411346436
-4.40199995040893555 2.02200007438659668 -0.982999980449676514
-4.44799995422363281 2.05900001525878906 -1.02699995040893555
-4.50099992752075195 1.96899998188018799 -0.96399998664855957
-4.47700023651123047 1.99800002574920654 -0.995000004768371582
-4.4470677375793457 1.98904824256896973 -0.986026108264923096
-4.46099996566772461 1.99699997901916504 -0.986999988555908203
-4.46000003814697266 1.98899996280670166 -0.990000009536743164
-4.50400161743164062 1.96799993515014648 -0.963999450206756592
-4.51599979400634766 1.97300004959106445 -0.966000020503997803
-4.51100015640258789 1.97099995613098145 -0.955999970436096191
-4.50500011444091797 1.97699999809265137 -0.96799999475479126
-4.51900005340576172 1.97599995136260986 -0.962999999523162842
-4.46000003814697266 2.03800010681152344 -0.977999985218048096
-4.4720001220703125 2.0559999942779541 -0.971000015735626221
-4.46500015258789062 2.02399992942810059 -0.981000006198883057
-4.45800018310546875 2.04600000381469727 -0.964999973773956299
-4.47100019454956055 2.07100009918212891 -0.990999996662139893
-4.46400022506713867 2.04500007629394531 -0.961000025272369385
-4.46999979019165039 2.03399991989135742 -0.96799999475479126
-4.47599983215332031 2.05299997329711914 -0.971000015735626221
-4.5 1.96399998664855957 -0.958000004291534424
-4.49599981307983398 1.96500003337860107 -0.970000028610229492
-4.51200008392333984 1.97500002384185791 -0.954999983310699463
-4.50500011444091797 1.97000002861022949 -0.954999983310699463
-4.49900007247924805 1.95899999141693115 -0.971000015735626221
-4.48299980163574219 1.99100005626678467 -1.0140000581741333
-4.46299982070922852 1.98500001430511475 -1.00600004196166992
-4.46000003814697266 1.97699999809265137 -1.00499999523162842
-4.49200010299682617 1.9989999532699585 -1.02400004863739014
-4.45100021362304688 1.97899997234344482 -1.00199997425079346
-4.48899984359741211 1.99500000476837158 -1.00399994850158691
-4.49200010299682617 1.9989999532699585 -1.00999999046325684
-4.49200010299682617 1.99800002574920654 -1.0140000581741333
-4.48999977111816406 1.99199998378753662 -1.00699996948242188
-4.48799991607666016 1.98800003528594971 -1.00999999046325684
-4.44700002670288086 2.05900001525878906 -1.02999997138977051
-4.39099979400634766 2.02900004386901855 -0.976999998092651367
-4.48799991607666016 2.05399990081787109 -1.03199994564056396
-4.48099994659423828 2.04900002479553223 -0.973999977111816406
-4.44199991226196289 2.08100008964538574 -1.02699995040893555
-4.40399980545043945 2.03099989891052246 -0.995000004768371582
-4.40199995040893555 2.02300000190734863 -0.996999979019165039
-4.4159998893737793 2.01799988746643066 -0.99299997091293335
-4.42000007629394531 2.03699994087219238 -0.998000025749206543
-4.43900012969970703 2.01699995994567871 -1.03600001335144043
-4.42199993133544922 2.01999998092651367 -1.02499997615814209
-4.4310002326965332 2.04500007629394531 -1.0010000467300415
-4.44999980926513672 2.02200007438659668 -1.03900003433227539
-4.43200016021728516 2.02099990844726562 -1.02300000190734863
-4.44500017166137695 2.03699994087219238 -1.0010000467300415
-4.42799997329711914 2.02399992942810059 -1.03199994564056396
-4.45897531509399414 2.0560147762298584 -1.02500569820404053
-4.50299978256225586 1.96399998664855957 -0.99299997091293335
-4.44899988174438477 2.02399992942810059 -1.03199994564056396
-4.4439997673034668 2.04699993133544922 -1.03299999237060547
-4.47499990463256836 2.0429999828338623 -0.976000010967254639
-4.49100017547607422 2.00699996948242188 -1.02699995040893555
-4.47499990463256836 2.03600001335144043 -0.959999978542327881
-4.46000003814697266 2.05900001525878906 -1.00300002098083496
-4.40199995040893555 2.03600001335144043 -1.01900005340576172
-4.51649999618530273 1.98650002479553223 -0.99849998950958252
-4.44199991226196289 1.97399997711181641 -0.989000022411346436
-4.50400018692016602 1.96599996089935303 -0.998000025749206543
-4.50699996948242188 1.96700000762939453 -0.981000006198883057
-4.47100019454956055 2.06800007820129395 -1.00399994850158691
-4.40000009536743164 2.02200007438659668 -1.03600001335144043
-4.49300003051757812 2.00699996948242188 -1.00699996948242188
-4.46000003814697266 2.04600000381469727 -0.957000017166137695
-4.46700000762939453 2.06599998474121094 -1.01100003719329834
-4.44999980926513672 2.05299997329711914 -0.982999980449676514
-4.50699996948242188 1.97599995136260986 -0.980000019073486328
-4.51100015640258789 1.98399996757507324 -0.967000007629394531
-4.50500011444091797 1.97699999809265137 -0.962000012397766113
-4.50299978256225586 1.96399998664855957 -0.989000022411346436
-4.5130000114440918 1.97300004959106445 -0.986000001430511475
-4.50799989700317383 1.97699999809265137 -0.981999993324279785
-4.47150039672851562 2.02199983596801758 -1.03649997711181641
-4.47100019454956055 2.04800009727478027 -1.01600003242492676
-4.46999979019165039 2.0150001049041748 -1.02300000190734863
-4.46950006484985352 2.01749992370605469 -1.03349995613098145
-4.47300004959106445 2.0429999828338623 -1.00300002098083496
-4.43499994277954102 2.07599997520446777 -1.02699995040893555
-4.46299982070922852 2.00399994850158691 -1.02300000190734863
-4.46799993515014648 2.0150001049041748 -1.02900004386901855
-4.43900012969970703 2.07800006866455078 -1.02600002288818359
-4.43649959564208984 2.07999992370605469 -1.02999997138977051
-4.50400018692016602 1.96599996089935303 -0.982999980449676514
-4.46199989318847656 2.03099989891052246 -0.968999981880187988
-4.46999979019165039 2.06599998474121094 -0.985000014305114746
-4.4720001220703125 2.04900002479553223 -0.958999991416931152
-4.48600006103515625 2.0429999828338623 -1.02699995040893555
-4.47700023651123047 2.04399991035461426 -0.972000002861022949
-4.42500019073486328 2.01600003242492676 -0.998000025749206543
-4.3965001106262207 2.02449989318847656 -0.985000014305114746
-4.47499990463256836 2.03600001335144043 -0.991999983787536621
-4.48000001907348633 2.05900001525878906 -0.978999972343444824
-4.51000022888183594 1.97650003433227539 -0.995999991893768311
-4.49800014495849609 1.9570000171661377 -0.97500002384185791
-4.46999979019165039 2.03800010681152344 -0.996999979019165039
-4.45399999618530273 1.99600005149841309 -1.03900003433227539
-4.45699977874755859 1.9989999532699585 -1.03499996662139893
-4.45100021362304688 1.99699997901916504 -1.02499997615814209
-4.45800018310546875 1.99300003051757812 -1.02400004863739014
-4.44099998474121094 1.99300003051757812 -1.02300000190734863
-4.43900012969970703 1.99500000476837158 -1.02300000190734863
-4.46099996566772461 1.99399995803833008 -1.02499997615814209
-4.44099998474121094 1.9859999418258667 -1.01999998092651367
-4.44000005722045898 1.98500001430511475 -1.01600003242492676
-4.46299982070922852 1.98899996280670166 -1.01199996471405029
-4.47300004959106445 2.0409998893737793 -0.973999977111816406
-4.45499992370605469 2.06999993324279785 -1.02199995517730713
-4.48099994659423828 2.05900001525878906 -0.990999996662139893
-4.42500019073486328 2.0280001163482666 -1.02999997138977051
-4.42999982833862305 2.02900004386901855 -1.03600001335144043
-4.4159998893737793 2.0150001049041748 -1.01199996471405029
-4.4159998893737793 2.01699995994567871 -1.0010000467300415
-4.42000007629394531 2.01699995994567871 -1.01199996471405029
-4.43200016021728516 2.02999997138977051 -1.02100002765655518
-4.42899990081787109 2.02399992942810059 -1.04100000858306885
-4.41499996185302734 2.01600003242492676 -1.01800000667572021
-4.42000007629394531 2.03299999237060547 -1.00999999046325684
-4.43400001525878906 2.03999996185302734 -1.01900005340576172
-4.43900012969970703 2.04500007629394531 -1.02900004386901855
-4.46299982070922852 2.02699995040893555 -1.03499996662139893
-4.44500017166137695 2.0150001049041748 -1.03799998760223389
-4.42525005340576172 2.02349996566772461 -1.03049993515014648
-4.43900012969970703 2.00099992752075195 -1.03299999237060547
-4.45902109146118164 2.02486324310302734 -1.02406430244445801
-4.47700023651123047 2.05200004577636719 -1.0010000467300415
-4.41200017929077148 2.03999996185302734 -1.02799999713897705
-4.41200017929077148 2.01200008392333984 -1.0140000581741333
-4.46600008010864258 2.0150001049041748 -1.0010000467300415
-4.4590001106262207 2.01600003242492676 -0.990000009536743164
-4.47300004959106445 2.05200004577636719 -0.967000007629394531
-4.48000001907348633 1.9989999532699585 -0.990999996662139893
-4.47300004959106445 2.05900001525878906 -1.03199994564056396
-4.46299982070922852 2.00699996948242188 -1.02499997615814209
-4.46199989318847656 2.05500006675720215 -0.972999989986419678
-4.51999998092651367 1.97200000286102295 -0.971000015735626221
-4.47499990463256836 2.0559999942779541 -1.00600004196166992
-4.47399997711181641 2.0690000057220459 -0.978999972343444824
-4.48600006103515625 2.04800009727478027 -1.02400004863739014
-4.39900016784667969 2.02300000190734863 -0.994000017642974854
-4.39200019836425781 2.02600002288818359 -0.986999988555908203
-4.40500020980834961 2.03099989891052246 -0.991999983787536621
-4.41499996185302734 2.02200007438659668 -0.990000009536743164
-4.41099977493286133 2.02399992942810059 -0.985000014305114746
-4.40100002288818359 2.02999997138977051 -0.984000027179718018
-4.40199995040893555 2.02999997138977051 -0.981999993324279785
-4.41099977493286133 2.02900004386901855 -0.99299997091293335
-4.45800018310546875 2.05699992179870605 -0.995999991893768311
-4.46299982070922852 2.05999994277954102 -0.99299997091293335
-4.46997499465942383 2.0610206127166748 -1.02106928825378418
-4.46099996566772461 2.06800007820129395 -1.03299999237060547
-4.49300003051757812 1.95000004768371582 -0.990000009536743164
-4.46999979019165039 2.06599998474121094 -0.97500002384185791
-4.46199989318847656 2.03500008583068848 -0.972999989986419678
-4.47700023651123047 2.0429999828338623 -0.989000022411346436
-4.48199987411499023 2.0559999942779541 -1.03299999237060547
-4.48899984359741211 2.05699992179870605 -1.02699995040893555
-4.46700000762939453 2.06699991226196289 -1.03600001335144043
-4.50850009918212891 1.97749996185302734 -0.957499980926513672
-4.50199985504150391 1.96899998188018799 -0.957000017166137695
-4.49800014495849609 1.96599996089935303 -0.986000001430511475
-4.51200008392333984 1.98199999332427979 -0.96399998664855957
-4.50500011444091797 1.97699999809265137 -0.953999996185302734
-4.44500017166137695 2.00099992752075195 -1.0010000467300415
-4.50099992752075195 1.97599995136260986 -0.962000012397766113
-4.45300006866455078 2.01600003242492676 -1.01800000667572021
-4.40799999237060547 2.02999997138977051 -1
-4.44999980926513672 2.04699993133544922 -1
-4.47700023651123047 2.04999995231628418 -1
-4.46000003814697266 2.05900001525878906 -1
-4.49450016021728516 1.95249998569488525 -0.983500003814697266
-4.50699996948242188 1.97699999809265137 -0.985000014305114746
-4.50800037384033203 1.96924996376037598 -0.991999983787536621
-4.49399995803833008 1.96300005912780762 -0.995000004768371582
-4.49800014495849609 1.96599996089935303 -0.990000009536743164
-4.46199989318847656 2.0559999942779541 -1.01600003242492676
-4.5149998664855957 1.98000001907348633 -0.986999988555908203
-4.43499994277954102 2.03200006484985352 -0.989000022411346436
-4.4244999885559082 2.02349996566772461 -0.990999996662139893
-4.43300008773803711 2.03099989891052246 -0.982999980449676514
-4.42999982833862305 2.01699995994567871 -0.990000009536743164
-4.43599987030029297 2.01900005340576172 -0.991999983787536621
-4.43900012969970703 2.03299999237060547 -0.986000001430511475
-4.44899988174438477 2.03099989891052246 -0.995000004768371582
-4.45499992370605469 2.05399990081787109 -0.995999991893768311
-4.4590001106262207 2.04399991035461426 -0.982999980449676514
-4.42399978637695312 2.02699995040893555 -0.990999996662139893
-4.45699977874755859 2.04999995231628418 -0.976000010967254639
-4.50600004196166992 1.97699999809265137 -0.989000022411346436
-4.46299982070922852 2.06699991226196289 -1.02799999713897705
-4.42799997329711914 2.0280001163482666 -1.03199994564056396
-4.5130000114440918 1.98300004005432129 -1.00300002098083496
-4.46600008010864258 1.98399996757507324 -1.0010000467300415
-4.49300003051757812 1.9989999532699585 -1.02199995517730713
-4.51399993896484375 1.98199999332427979 -1.00699996948242188
-4.50299978256225586 1.97599995136260986 -0.995999991893768311
-4.5130000114440918 1.98449993133544922 -1.01099991798400879
-4.45800018310546875 2.06100010871887207 -1.02900004386901855
-4.47900009155273438 2.04900002479553223 -1.00800001621246338
-4.4590001106262207 2.06100010871887207 -0.986999988555908203
-4.48600006103515625 2.00500011444091797 -1.00399994850158691
-4.46650028228759766 2.02600002288818359 -1.03200006484985352
-4.42799997329711914 2.06399989128112793 -1.02499997615814209
-4.44000005722045898 2.00300002098083496 -1.02999997138977051
-4.44899988174438477 2.00799989700317383 -1.03600001335144043
-4.4590001106262207 2.04399991035461426 -1.00600004196166992
-4.42999982833862305 2.06999993324279785 -1.02699995040893555
-4.4439997673034668 2.00399994850158691 -1.03699994087219238
-4.43499994277954102 2.05100011825561523 -1.03299999237060547
-4.46799993515014648 2.04699993133544922 -1.00600004196166992
-4.46500015258789062 2.02399992942810059 -1.02400004863739014
-4.47399997711181641 2.06299996376037598 -1.03199994564056396
-4.46600008010864258 2.06200003623962402 -1.02999997138977051
-4.44600009918212891 2.02500009536743164 -1.00699996948242188
-4.4590001106262207 1.98399996757507324 -0.989500045776367188
-4.49300003051757812 2.00500011444091797 -1.01999998092651367
-4.50400018692016602 1.97699999809265137 -0.966000020503997803
-4.49250030517578125 2 -1.03100001811981201
-4.43499994277954102 2.04399991035461426 -1.01499998569488525
-4.46600008010864258 2.05200004577636719 -0.96399998664855957
-4.5 1.96000003814697266 -0.964999973773956299
-4.43400001525878906 2.06100010871887207 -1.02600002288818359
-4.46600008010864258 2.02099990844726562 -1.02199995517730713
-4.46700000762939453 2.00099992752075195 -0.99299997091293335
-4.47499990463256836 2.04699993133544922 -0.959999978542327881
-4.51399993896484375 1.98300004005432129 -0.993999958038330078
-4.43400001525878906 2.01099991798400879 -0.995999991893768311
-4.46000003814697266 2.06399989128112793 -1.01600003242492676
-4.41800022125244141 2.01999998092651367 -1.02699995040893555
-4.42799997329711914 2.0150001049041748 -1.0140000581741333
-4.46299982070922852 2.00200009346008301 -1.03499996662139893
-4.49100017547607422 2.00799989700317383 -1.03100001811981201
-4.4590001106262207 2.05500006675720215 -1.00600004196166992
1 1 1
-4.46002960205078125 2.01802992820739746 -1.03398668766021729
-4.45100021362304688 2.03900003433227539 -1.0140000581741333
-4.4720001220703125 2.01999998092651367 -1.02499997615814209
-4.47100019454956055 2.01799988746643066 -1.02199995517730713
-4.42799997329711914 2.07100009918212891 -1.03100001811981201
-4.44199991226196289 2.00399994850158691 -1.01800000667572021
-4.47900009155273438 2.04399991035461426 -1.02100002765655518
-4.43499994277954102 2.07299995422363281 -1.02799999713897705
-4.48091411590576172 2.04513359069824219 -1.02798688411712646
-4.46298074722290039 2.00101494789123535 -1.0240103006362915
-4.49100017547607422 1.96099996566772461 -0.976000010967254639
-4.46700000762939453 2.02600002288818359 -0.976000010967254639
-4.45599985122680664 1.97200000286102295 -0.998000025749206543
-4.4439997673034668 1.98300004005432129 -0.998000025749206543
-4.44500017166137695 1.98399996757507324 -0.990000009536743164
-4.46899986267089844 1.98099994659423828 -0.998000025749206543
-4.46099996566772461 1.97800004482269287 -0.994000017642974854
-4.44799995422363281 1.98099994659423828 -0.990000009536743164
-4.47499990463256836 1.99399995803833008 -0.990999996662139893
-4.45699977874755859 1.97399997711181641 -0.990999996662139893
-4.45100021362304688 1.97599995136260986 -0.990000009536743164
-4.45100021362304688 1.99500000476837158 -0.995000004768371582
3 23 126 25 255 255 255
3 25 26 23 255 255 255
3 23 27 126 255 255 255
3 25 24 26 255 255 255
3 27 196 126 255 255 255
3 23 28 27 255 255 255
3 26 29 23 255 255 255
3 24 29 26 255 255 255
3 24 28 29 255 255 255
3 25 30 24 255 255 255
3 28 196 27 255 255 255
3 28 31 196 255 255 255
3 23 132 28 255 255 255
3 29 132 23 255 255 255
3 28 132 29 255 255 255
3 24 32 28 255 255 255
3 30 59 24 255 255 255
3 25 236 30 255 255 255
3 31 60 196 255 255 255
3 28 32 31 255 255 255
3 32 63 31 255 255 255
3 24 59 32 255 255 255
3 59 298 32 255 255 255
3 30 61 59 255 255 255
3 236 108 30 255 255 255
3 60 126 196 255 255 255
3 60 32 126 255 255 255
3 31 62 60 255 255 255
3 61 197 59 255 255 255
3 30 108 61 255 255 255
3 108 64 61 255 255 255
3 236 107 108 255 255 255
3 32 25 126 255 255 255
3 60 65 32 255 255 255
3 62 179 60 255 255 255
3 31 63 62 255 255 255
3 63 180 62 255 255 255
3 61 181 197 255 255 255
3 64 182 61 255 255 255
3 108 109 64 255 255 255
3 107 209 108 255 255 255
3 236 110 107 255 255 255
3 65 183 32 255 255 255
3 60 179 65 255 255 255
3 179 184 65 255 255 255
3 62 260 179 255 255 255
3 180 260 62 255 255 255
3 180 184 260 255 255 255
3 63 185 180 255 255 255
3 181 186 197 255 255 255
3 61 182 181 255 255 255
3 182 183 181 255 255 255
3 64 109 182 255 255 255
3 109 66 182 255 255 255
3 108 67 109 255 255 255
3 107 210 209 255 255 255
3 110 211 107 255 255 255
3 236 187 110 255 255 255
3 183 186 32 255 255 255
3 65 299 183 255 255 255
3 184 299 65 255 255 255
3 179 188 184 255 255 255
3 185 111 180 255 255 255
3 186 59 197 255 255 255
3 186 298 59 255 255 255
3 186 112 298 255 255 255
3 181 299 186 255 255 255
3 182 159 183 255 255 255
3 66 159 182 255 255 255
3 66 296 159 255 255 255
3 109 212 66 255 255 255
3 67 213 109 255 255 255
3 108 209 67 255 255 255
3 209 160 67 255 255 255
3 210 160 209 255 255 255
3 107 214 210 255 255 255
3 211 214 107 255 255 255
3 211 215 214 255 255 255
3 110 216 211 255 255 255
3 187 113 110 255 255 255
3 188 187 184 255 255 255
3 111 120 180 255 255 255
3 112 192 298 255 255 255
3 212 248 66 255 255 255
3 213 212 109 255 255 255
3 213 248 212 255 255 255
3 213 256 248 255 255 255
3 67 215 213 255 255 255
3 210 103 160 255 255 255
3 214 103 210 255 255 255
3 215 103 214 255 255 255
3 211 216 215 255 255 255
3 216 213 215 255 255 255
3 216 256 213 255 255 255
3 216 110 256 255 255 255
3 110 247 256 255 255 255
3 187 41 113 255 255 255
3 187 112 184 255 255 255
3 188 288 187 255 255 255
3 111 114 120 255 255 255
3 112 115 192 255 255 255
3 256 249 248 255 255 255
3 67 103 215 255 255 255
3 67 160 103 255 255 255
3 247 249 256 255 255 255
3 247 252 249 255 255 255
3 110 113 247 255 255 255
3 113 116 247 255 255 255
3 187 288 41 255 255 255
3 188 189 288 255 255 255
3 114 190 120 255 255 255
3 111 191 114 255 255 255
3 115 117 192 255 255 255
3 115 260 117 255 255 255
3 248 250 66 255 255 255
3 249 250 248 255 255 255
3 249 251 250 255 255 255
3 247 116 252 255 255 255
3 116 253 252 255 255 255
3 113 237 116 255 255 255
3 189 291 288 255 255 255
3 190 194 120 255 255 255
3 191 274 114 255 255 255
3 111 277 191 255 255 255
3 192 63 298 255 255 255
3 250 296 66 255 255 255
3 250 251 296 255 255 255
3 251 52 296 255 255 255
3 249 252 251 255 255 255
3 252 253 251 255 255 255
3 253 283 251 255 255 255
3 116 237 253 255 255 255
3 237 275 253 255 255 255
3 189 278 291 255 255 255
3 190 271 194 255 255 255
3 274 304 114 255 255 255
3 191 56 274 255 255 255
3 277 56 191 255 255 255
3 277 166 56 255 255 255
3 111 193 277 255 255 255
3 192 117 185 255 255 255
3 117 111 185 255 255 255
3 253 57 283 255 255 255
3 275 57 253 255 255 255
3 275 305 57 255 255 255
3 237 254 275 255 255 255
3 278 272 291 255 255 255
3 194 235 120 255 255 255
3 271 280 194 255 255 255
3 271 306 280 255 255 255
3 304 190 114 255 255 255
3 304 143 190 255 255 255
3 274 58 304 255 255 255
3 56 58 274 255 255 255
3 56 166 58 255 255 255
3 166 167 58 255 255 255
3 277 193 166 255 255 255
3 193 168 166 255 255 255
3 111 273 193 255 255 255
3 57 235 283 255 255 255
3 305 194 57 255 255 255
3 275 6 305 255 255 255
3 254 279 275 255 255 255
3 237 255 254 255 255 255
3 272 276 291 255 255 255
3 280 292 194 255 255 255
3 306 292 280 255 255 255
3 306 307 292 255 255 255
3 271 143 306 255 255 255
3 190 143 271 255 255 255
3 58 300 304 255 255 255
3 167 300 58 255 255 255
3 167 166 300 255 255 255
3 168 169 166 255 255 255
3 193 170 168 255 255 255
3 273 171 193 255 255 255
3 275 144 6 255 255 255
3 279 165 275 255 255 255
3 254 217 279 255 255 255
3 255 217 254 255 255 255
3 255 218 217 255 255 255
3 276 7 291 255 255 255
3 272 308 276 255 255 255
3 307 39 292 255 255 255
3 306 145 307 255 255 255
3 143 146 306 255 255 255
3 304 146 143 255 255 255
3 169 172 166 255 255 255
3 170 173 168 255 255 255
3 193 171 170 255 255 255
3 171 173 170 255 255 255
3 171 174 173 255 255 255
3 273 309 171 255 255 255
3 144 310 6 255 255 255
3 279 147 165 255 255 255
3 217 218 279 255 255 255
3 218 238 279 255 255 255
3 255 44 218 255 255 255
3 276 311 7 255 255 255
3 308 148 276 255 255 255
3 307 145 39 255 255 255
3 145 149 39 255 255 255
3 306 150 145 255 255 255
3 146 150 306 255 255 255
3 304 150 146 255 255 255
3 304 292 150 255 255 255
3 172 300 166 255 255 255
3 172 313 300 255 255 255
3 169 175 172 255 255 255
3 173 169 168 255 255 255
3 173 14 169 255 255 255
3 174 14 173 255 255 255
3 174 15 14 255 255 255
3 171 16 174 255 255 255
3 309 16 171 255 255 255
3 310 312 6 255 255 255
3 144 147 310 255 255 255
3 147 238 165 255 255 255
3 218 45 238 255 255 255
3 44 46 218 255 255 255
3 311 151 7 255 255 255
3 276 148 311 255 255 255
3 148 151 311 255 255 255
3 148 152 151 255 255 255
3 308 152 148 255 255 255
3 149 17 39 255 255 255
3 145 203 149 255 255 255
3 150 203 145 255 255 255
3 150 300 203 255 255 255
3 175 18 172 255 255 255
3 169 19 175 255 255 255
3 14 19 169 255 255 255
3 14 15 19 255 255 255
3 15 20 19 255 255 255
3 174 21 15 255 255 255
3 16 22 174 255 255 255
3 312 202 6 255 255 255
3 310 157 312 255 255 255
3 147 268 310 255 255 255
3 238 47 165 255 255 255
3 147 279 238 255 255 255
3 45 47 238 255 255 255
3 45 48 47 255 255 255
3 46 195 218 255 255 255
3 44 49 46 255 255 255
3 151 177 7 255 255 255
3 152 106 151 255 255 255
3 17 270 39 255 255 255
3 149 313 17 255 255 255
3 313 203 300 255 255 255
3 313 149 203 255 255 255
3 172 18 313 255 255 255
3 18 17 313 255 255 255
3 18 92 17 255 255 255
3 175 93 18 255 255 255
3 19 94 175 255 255 255
3 20 94 19 255 255 255
3 20 316 94 255 255 255
3 15 21 20 255 255 255
3 21 317 20 255 255 255
3 174 317 21 255 255 255
3 174 22 317 255 255 255
3 22 318 317 255 255 255
3 16 0 22 255 255 255
3 202 118 6 255 255 255
3 312 225 202 255 255 255
3 157 5 312 255 255 255
3 310 208 157 255 255 255
3 268 208 310 255 255 255
3 268 38 208 255 255 255
3 147 195 268 255 255 255
3 47 255 165 255 255 255
3 48 224 47 255 255 255
3 195 239 218 255 255 255
3 46 47 195 255 255 255
3 49 51 46 255 255 255
3 177 297 7 255 255 255
3 151 106 177 255 255 255
3 17 8 270 255 255 255
3 92 95 17 255 255 255
3 18 95 92 255 255 255
3 93 262 18 255 255 255
3 175 94 93 255 255 255
3 94 262 93 255 255 255
3 94 319 262 255 255 255
3 316 320 94 255 255 255
3 20 96 316 255 255 255
3 317 96 20 255 255 255
3 317 128 96 255 255 255
3 318 128 317 255 255 255
3 318 321 128 255 255 255
3 22 0 318 255 255 255
3 0 71 318 255 255 255
3 16 233 0 255 255 255
3 118 245 6 255 255 255
3 202 282 118 255 255 255
3 225 281 202 255 255 255
3 5 225 312 255 255 255
3 5 104 225 255 255 255
3 208 38 157 255 255 255
3 268 40 38 255 255 255
3 195 206 268 255 255 255
3 147 224 195 255 255 255
3 255 50 165 255 255 255
3 48 50 224 255 255 255
3 45 51 48 255 255 255
3 239 269 218 255 255 255
3 195 302 239 255 255 255
3 297 68 7 255 255 255
3 177 259 297 255 255 255
3 8 133 270 255 255 255
3 17 95 8 255 255 255
3 95 54 8 255 255 255
3 319 322 262 255 255 255
3 94 320 319 255 255 255
3 320 35 319 255 255 255
3 316 323 320 255 255 255
3 96 324 316 255 255 255
3 321 324 128 255 255 255
3 318 71 321 255 255 255
3 0 325 71 255 255 255
3 233 325 0 255 255 255
3 233 52 325 255 255 255
3 118 68 245 255 255 255
3 202 227 282 255 255 255
3 281 227 202 255 255 255
3 225 226 281 255 255 255
3 38 5 157 255 255 255
3 226 5 38 255 255 255
3 226 104 5 255 255 255
3 226 225 104 255 255 255
3 38 281 226 255 255 255
3 38 219 281 255 255 255
3 268 206 40 255 255 255
3 206 53 40 255 255 255
3 195 53 206 255 255 255
3 195 178 53 255 255 255
3 147 161 224 255 255 255
3 50 43 165 255 255 255
3 255 79 50 255 255 255
3 51 80 48 255 255 255
3 45 162 51 255 255 255
3 68 189 7 255 255 255
3 297 245 68 255 255 255
3 297 302 245 255 255 255
3 259 135 297 255 255 255
3 177 220 259 255 255 255
3 8 54 133 255 255 255
3 95 287 54 255 255 255
3 322 70 262 255 255 255
3 319 1 322 255 255 255
3 323 35 320 255 255 255
3 323 284 35 255 255 255
3 324 323 316 255 255 255
3 324 284 323 255 255 255
3 324 71 284 255 255 255
3 325 72 71 255 255 255
3 52 72 325 255 255 255
3 52 199 72 255 255 255
3 118 121 68 255 255 255
3 282 267 118 255 255 255
3 282 227 267 255 255 255
3 227 220 267 255 255 255
3 219 259 281 255 255 255
3 38 40 219 255 255 255
3 53 131 40 255 255 255
3 178 46 53 255 255 255
3 50 81 43 255 255 255
3 79 223 50 255 255 255
3 255 257 79 255 255 255
3 80 176 48 255 255 255
3 45 155 162 255 255 255
3 68 121 189 255 255 255
3 302 275 245 255 255 255
3 297 125 302 255 255 255
3 135 125 297 255 255 255
3 135 131 125 255 255 255
3 259 219 135 255 255 255
3 220 227 259 255 255 255
3 227 281 259 255 255 255
3 177 102 220 255 255 255
3 54 287 123 255 255 255
3 287 301 123 255 255 255
3 70 4 262 255 255 255
3 1 70 322 255 255 255
3 1 270 70 255 255 255
3 324 321 71 255 255 255
3 71 72 284 255 255 255
3 72 73 284 255 255 255
3 199 293 72 255 255 255
3 267 102 118 255 255 255
3 131 219 40 255 255 255
3 131 135 219 255 255 255
3 53 83 131 255 255 255
3 46 83 53 255 255 255
3 46 207 83 255 255 255
3 81 199 43 255 255 255
3 79 82 223 255 255 255
3 257 82 79 255 255 255
3 257 204 82 255 255 255
3 255 136 257 255 255 255
3 176 223 48 255 255 255
3 80 289 176 255 255 255
3 125 237 302 255 255 255
3 131 239 125 255 255 255
3 4 73 262 255 255 255
3 1 97 270 255 255 255
3 73 35 284 255 255 255
3 72 293 73 255 255 255
3 293 70 73 255 255 255
3 199 4 293 255 255 255
3 102 121 118 255 255 255
3 102 278 121 255 255 255
3 267 220 102 255 255 255
3 199 198 43 255 255 255
3 82 154 223 255 255 255
3 204 10 82 255 255 255
3 257 136 204 255 255 255
3 136 44 204 255 255 255
3 176 84 223 255 255 255
3 289 84 176 255 255 255
3 289 10 84 255 255 255
3 80 49 289 255 255 255
3 131 12 239 255 255 255
3 97 98 270 255 255 255
3 1 18 97 255 255 255
3 293 201 70 255 255 255
3 154 81 223 255 255 255
3 82 84 154 255 255 255
3 10 134 82 255 255 255
3 136 269 44 255 255 255
3 49 82 289 255 255 255
3 131 83 12 255 255 255
3 83 218 12 255 255 255
3 98 99 270 255 255 255
3 97 100 98 255 255 255
3 154 315 81 255 255 255
3 84 85 154 255 255 255
3 10 156 134 255 255 255
3 269 155 44 255 255 255
3 99 285 270 255 255 255
3 98 100 99 255 255 255
3 100 101 99 255 255 255
3 97 101 100 255 255 255
3 154 9 315 255 255 255
3 85 9 154 255 255 255
3 85 124 9 255 255 255
3 84 124 85 255 255 255
3 84 156 124 255 255 255
3 10 289 156 255 255 255
3 289 200 156 255 255 255
3 155 222 44 255 255 255
3 269 83 155 255 255 255
3 99 95 285 255 255 255
3 101 263 99 255 255 255
3 9 48 315 255 255 255
3 156 294 124 255 255 255
3 84 134 156 255 255 255
3 200 294 156 255 255 255
3 200 86 294 255 255 255
3 155 207 222 255 255 255
3 95 11 285 255 255 255
3 9 122 48 255 255 255
3 294 55 124 255 255 255
3 86 105 294 255 255 255
3 200 80 86 255 255 255
3 11 123 285 255 255 255
3 9 158 122 255 255 255
3 105 55 294 255 255 255
3 105 158 55 255 255 255
3 86 162 105 255 255 255
3 158 105 122 255 255 255
3 9 55 158 255 255 255
3 9 124 55 255 255 255
3 74 76 75 255 255 255
3 75 77 74 255 255 255
3 76 78 75 255 255 255
3 74 87 76 255 255 255
3 77 88 74 255 255 255
3 75 205 77 255 255 255
3 78 205 75 255 255 255
3 76 89 78 255 255 255
3 87 90 76 255 255 255
3 74 290 87 255 255 255
3 88 91 74 255 255 255
3 89 228 78 255 255 255
3 76 90 89 255 255 255
3 90 232 89 255 255 255
3 87 229 90 255 255 255
3 91 290 74 255 255 255
3 88 230 91 255 255 255
3 228 231 78 255 255 255
3 89 232 228 255 255 255
3 90 229 232 255 255 255
3 229 234 232 255 255 255
3 87 69 229 255 255 255
3 230 164 91 255 255 255
3 88 137 230 255 255 255
3 231 138 78 255 255 255
3 228 139 231 255 255 255
3 232 234 228 255 255 255
3 234 139 228 255 255 255
3 234 286 139 255 255 255
3 229 69 234 255 255 255
3 69 88 234 255 255 255
3 230 140 164 255 255 255
3 137 140 230 255 255 255
3 137 141 140 255 255 255
3 88 69 137 255 255 255
3 69 77 137 255 255 255
3 138 205 78 255 255 255
3 138 142 205 255 255 255
3 231 139 138 255 255 255
3 139 286 138 255 255 255
3 88 286 234 255 255 255
3 140 240 164 255 255 255
3 141 242 140 255 255 255
3 137 142 141 255 255 255
3 77 138 137 255 255 255
3 69 286 77 255 255 255
3 142 246 205 255 255 255
3 240 314 164 255 255 255
3 141 34 242 255 255 255
3 137 241 142 255 255 255
3 142 241 246 255 255 255
3 241 295 246 255 255 255
3 314 91 164 255 255 255
3 240 37 314 255 255 255
3 240 2 37 255 255 255
3 140 221 240 255 255 255
3 242 119 140 255 255 255
3 34 163 242 255 255 255
3 141 246 34 255 255 255
3 137 153 241 255 255 255
3 295 127 246 255 255 255
3 241 258 295 255 255 255
3 2 42 37 255 255 255
3 240 221 2 255 255 255
3 221 36 2 255 255 255
3 140 119 221 255 255 255
3 119 36 221 255 255 255
3 119 243 36 255 255 255
3 242 129 119 255 255 255
3 242 163 129 255 255 255
3 153 244 241 255 255 255
3 137 130 153 255 255 255
3 258 33 295 255 255 255
3 42 314 37 255 255 255
3 42 244 314 255 255 255
3 36 243 2 255 255 255
3 243 42 2 255 255 255
3 119 129 243 255 255 255
3 129 265 243 255 255 255
3 34 13 163 255 255 255
3 244 258 241 255 255 255
3 244 33 258 255 255 255
3 244 243 33 255 255 255
3 295 3 127 255 255 255
3 33 13 295 255 255 255
3 244 153 314 255 255 255
3 153 88 314 255 255 255
3 265 33 243 255 255 255
3 129 163 265 255 255 255
3 163 261 265 255 255 255
3 13 264 163 255 255 255
3 34 295 13 255 255 255
3 244 42 243 255 255 255
3 33 261 13 255 255 255
3 261 33 265 255 255 255
3 13 3 264 255 255 255
3 3 261 127 255 255 255
3 261 266 127 255 255 255
3 3 13 261 255 255 255
3 261 264 266 255 255 255
3 261 163 264 255 255 255
3 303 303 303 255 255 255
