ply
format ascii 1.0
element vertex 324
property float x
property float y
property float z
element face 576
property list uchar int vertex_indices
property uchar red
property uchar green
property uchar blue
end_header
-2.6530001163482666 11.7760000228881836 -0.875999987125396729
-2.68799996376037598 11.7469997406005859 -0.875
-2.68300008773803711 11.8120002746582031 -0.674000024795532227
-2.69250011444091797 11.7875003814697266 -0.819000005722045898
-2.6744999885559082 11.7372493743896484 -1.02225005626678467
-2.67199993133544922 11.7399997711181641 -1.02900004386901855
-2.68300008773803711 11.7600002288818359 -1.05400002002716064
-2.71096110343933105 11.7195816040039062 -0.860616087913513184
-2.67199993133544922 11.7399997711181641 -1.04100000858306885
-2.68000006675720215 11.7530002593994141 -1.00399994850158691
-2.62865018844604492 11.702301025390625 -1.03554952144622803
-2.66499996185302734 11.7329998016357422 -0.913999974727630615
-2.65317296981811523 11.7123184204101562 -1.02140498161315918
-2.66199994087219238 11.7600002288818359 -1.0010000467300415
-2.70799994468688965 11.8000001907348633 -0.695999979972839355
-2.6809999942779541 11.7329998016357422 -0.878000020980834961
-2.66652989387512207 11.7223577499389648 -0.882882833480834961
-2.71581435203552246 11.7398624420166016 -0.997582674026489258
-2.65945625305175781 11.793670654296875 -0.85113227367401123
-2.69420099258422852 11.8053464889526367 -0.68579941987991333
-2.71000003814697266 11.7930002212524414 -0.694999992847442627
-2.62111711502075195 11.7753496170043945 -0.972879886627197266
-2.65400004386901855 11.7440004348754883 -0.902999997138977051
-2.65599989891052246 11.7650003433227539 -0.907999992370605469
-2.63499999046325684 11.7609996795654297 -0.929000020027160645
-2.7070000171661377 11.7760000228881836 -0.827000021934509277
-2.72600007057189941 11.7910003662109375 -0.686999976634979248
-2.66392779350280762 11.8208465576171875 -0.668307065963745117
-2.7090001106262207 11.7889995574951172 -0.690999984741210938
-2.63643074035644531 11.7696819305419922 -0.980677127838134766
-2.64544558525085449 11.7899484634399414 -0.821858823299407959
-2.65599989891052246 11.7679996490478516 -0.939999997615814209
-2.6679999828338623 11.7220001220703125 -0.985000014305114746
-2.66309738159179688 11.7985048294067383 -0.991238832473754883
-2.66551303863525391 11.7977895736694336 -0.807746291160583496
-2.69150686264038086 11.7430877685546875 -0.856779754161834717
-2.70077204704284668 11.7584362030029297 -0.824519097805023193
-2.7030644416809082 11.800114631652832 -0.73890453577041626
-2.69899988174438477 11.7360000610351562 -0.833000004291534424
-2.63789534568786621 11.8154296875 -0.799836814403533936
-2.69799995422363281 11.7939996719360352 -0.772000014781951904
-2.70399999618530273 11.7849998474121094 -0.833000004291534424
-2.68700003623962402 11.7209997177124023 -0.843999981880187988
-2.68300008773803711 11.7460002899169922 -0.966000020503997803
-2.64940810203552246 11.7198991775512695 -0.93390578031539917
-2.64934897422790527 11.729853630065918 -0.936399161815643311
-2.69799995422363281 11.7819995880126953 -0.880999982357025146
-2.64499998092651367 11.7569999694824219 -0.920000016689300537
-2.67000007629394531 11.7370004653930664 -0.920000016689300537
-2.65764141082763672 11.7700576782226562 -0.906403481960296631
-2.65416955947875977 11.7897720336914062 -0.882546365261077881
-2.66643834114074707 11.7945289611816406 -0.882909953594207764
-2.7151341438293457 11.7352409362792969 -0.863961398601531982
-2.66422557830810547 11.8009986877441406 -0.866590738296508789
-2.64314937591552734 11.7116565704345703 -0.895359277725219727
-2.69520282745361328 11.7519435882568359 -0.849465906620025635
-2.70490264892578125 11.7771396636962891 -0.831926882266998291
-2.70650005340576172 11.7905006408691406 -0.797999978065490723
-2.6530001163482666 11.7690000534057617 -0.925000011920928955
-2.68373823165893555 11.7913236618041992 -0.674750924110412598
-2.66400003433227539 11.7849998474121094 -0.917999982833862305
-2.66300010681152344 11.758000373840332 -0.887000024318695068
-2.70066976547241211 11.7315139770507812 -0.871283948421478271
-2.64100003242492676 11.7650003433227539 -1.05700004100799561
-2.67400002479553223 11.7489995956420898 -1.03199994564056396
-2.72500300407409668 11.7842168807983398 -0.693373441696166992
-2.71499991416931152 11.7880001068115234 -0.694999992847442627
-2.70691108703613281 11.7716035842895508 -0.858186125755310059
-2.64700007438659668 11.7069997787475586 -0.887000024318695068
-2.64800000190734863 11.7089996337890625 -0.901000022888183594
-2.69099998474121094 11.7749996185302734 -0.851999998092651367
-2.68600010871887207 11.7510004043579102 -0.875
-2.70289158821105957 11.7830877304077148 -0.669679641723632812
-2.70278835296630859 11.7646160125732422 -0.849162161350250244
-2.69803547859191895 11.7248373031616211 -0.846141159534454346
-2.6950075626373291 11.8169660568237305 -0.651848137378692627
-2.69307279586791992 11.7804937362670898 -0.836264848709106445
-2.70300006866455078 11.7829999923706055 -0.808000028133392334
-2.70217204093933105 11.8078079223632812 -0.652307212352752686
-2.68400001525878906 11.7329998016357422 -0.999000012874603271
-2.70987939834594727 11.8111629486083984 -0.681561946868896484
-2.63899993896484375 11.7489995956420898 -0.971000015735626221
-2.67400002479553223 11.7200002670288086 -1
-2.71969246864318848 11.8076276779174805 -0.674441933631896973
-2.70605635643005371 11.7824945449829102 -0.686619877815246582
-2.6315004825592041 11.8002233505249023 -0.811694741249084473
-2.6659998893737793 11.7279996871948242 -0.890999972820281982
-2.70300006866455078 11.7430000305175781 -1
-2.65799999237060547 11.7947502136230469 -0.863250017166137695
-2.63242316246032715 11.7907876968383789 -0.964678764343261719
-2.69251298904418945 11.753596305847168 -0.832390546798706055
-2.66400003433227539 11.75 -0.888999998569488525
-2.70399999618530273 11.7880001068115234 -0.791000008583068848
-2.64800000190734863 11.75 -1.0429999828338623
-2.69499993324279785 11.7469997406005859 -1.02100002765655518
-2.68382716178894043 11.7549924850463867 -1.01686012744903564
-2.64599990844726562 11.7290000915527344 -1.04799997806549072
-2.71957206726074219 11.7567071914672852 -1.00216901302337646
-2.68199992179870605 11.7430000305175781 -1.02999997138977051
-2.63299989700317383 11.7170000076293945 -1.03299999237060547
-2.63611936569213867 11.7137289047241211 -1.01314103603363037
-2.63899993896484375 11.7559995651245117 -1.00300002098083496
-2.73415446281433105 11.7490711212158203 -1.01451373100280762
-2.65726518630981445 11.7895746231079102 -0.864426910877227783
-2.69199991226196289 11.7399997711181641 -0.998000025749206543
-2.68492913246154785 11.7376222610473633 -0.961373448371887207
-2.70435428619384766 11.7472190856933594 -0.861740469932556152
-2.69433689117431641 11.766688346862793 -0.800268352031707764
-2.72275233268737793 11.8001499176025391 -0.690277993679046631
-2.64400005340576172 11.7679996490478516 -0.94300001859664917
-2.70355772972106934 11.8124780654907227 -0.663711071014404297
-2.7070000171661377 11.7760000228881836 -0.819999992847442627
-2.71836686134338379 11.7773952484130859 -0.668935656547546387
-2.69605612754821777 11.7918376922607422 -0.644225776195526123
-2.70714092254638672 11.7418127059936523 -0.837441742420196533
-2.66548800468444824 11.7936801910400391 -0.864944040775299072
-2.69499993324279785 11.7250003814697266 -0.829999983310699463
-2.71624851226806641 11.7968683242797852 -0.664658844470977783
-2.66195917129516602 11.7887105941772461 -0.916773796081542969
-2.63242816925048828 11.7546300888061523 -0.945450067520141602
-2.69604921340942383 11.7713279724121094 -0.895161151885986328
-2.6982121467590332 11.7336654663085938 -0.915339946746826172
-2.63700008392333984 11.744999885559082 -0.927999973297119141
-2.63899993896484375 11.7620000839233398 -0.930999994277954102
-2.68908143043518066 11.7791481018066406 -0.88361811637878418
-2.66091775894165039 11.7836179733276367 -0.902493476867675781
-2.64667987823486328 11.7179050445556641 -0.914191484451293945
-2.66599297523498535 11.7264566421508789 -0.946388721466064453
-2.70205211639404297 11.7619924545288086 -0.859588325023651123
-2.70423340797424316 11.7875690460205078 -0.809033095836639404
-2.69834399223327637 11.7879610061645508 -0.832695722579956055
-2.63599991798400879 11.7410001754760742 -0.93900001049041748
-2.71694612503051758 11.8004150390625 -0.698913455009460449
-2.70199990272521973 11.7709999084472656 -0.81099998950958252
-2.68600010871887207 11.7430000305175781 -0.986999988555908203
-2.64931178092956543 11.7320556640625 -0.995583593845367432
-2.64400005340576172 11.7589998245239258 -0.987999975681304932
-2.68486785888671875 11.7784509658813477 -0.971705257892608643
-2.67860007286071777 11.7347450256347656 -0.98775249719619751
-2.63899993896484375 11.7539997100830078 -0.981000006198883057
-2.69300007820129395 11.7440004348754883 -0.987999975681304932
-2.67808985710144043 11.7283077239990234 -0.995236873626708984
-2.67199993133544922 11.7180004119873047 -0.995000004768371582
-2.62233924865722656 11.7754602432250977 -0.963470757007598877
-2.67082929611206055 11.8129138946533203 -0.646034479141235352
-2.72835278511047363 11.7920103073120117 -0.681688308715820312
-2.70300006866455078 11.7950000762939453 -0.796999990940093994
-2.70499992370605469 11.7740001678466797 -0.814999997615814209
-2.7070000171661377 11.7860002517700195 -0.791999995708465576
-2.68700003623962402 11.7370004653930664 -0.995999991893768311
-2.67000007629394531 11.7329998016357422 -0.907999992370605469
-2.69199991226196289 11.744999885559082 -0.861999988555908203
-2.69655561447143555 11.7856416702270508 -0.658658504486083984
-2.6400001049041748 11.7460002899169922 -0.996999979019165039
-2.67707538604736328 11.7380533218383789 -1.06168675422668457
-2.67012667655944824 11.7436389923095703 -1.05683720111846924
-2.67100000381469727 11.7510004043579102 -1.03900003433227539
-2.68199992179870605 11.7639999389648438 -1.04900002479553223
-2.68899989128112793 11.7589998245239258 -1.05099999904632568
-2.68922877311706543 11.743499755859375 -1.02850437164306641
-2.65396738052368164 11.7444887161254883 -1.04640090465545654
-2.64231014251708984 11.7189626693725586 -1.04043471813201904
-2.63700008392333984 11.7390003204345703 -1.00499999523162842
-2.63697409629821777 11.7539939880371094 -1.00899255275726318
-2.63499999046325684 11.7690000534057617 -0.957000017166137695
-2.65706920623779297 11.7835922241210938 -0.965632021427154541
-2.6623995304107666 11.7827415466308594 -0.953062176704406738
-2.69404482841491699 11.7383460998535156 -0.946852028369903564
-2.64020633697509766 11.7887744903564453 -0.960286438465118408
-2.66728734970092773 11.7718744277954102 -0.939680874347686768
-2.69600009918212891 11.7390003204345703 -0.904999971389770508
-2.69700002670288086 11.7530002593994141 -0.915000021457672119
-2.69499993324279785 11.7969999313354492 -0.767000019550323486
-2.67828488349914551 11.7675676345825195 -0.953002452850341797
-2.70242047309875488 11.7675333023071289 -0.795280814170837402
-2.6809999942779541 11.7440004348754883 -0.980000019073486328
-2.65784382820129395 11.7668304443359375 -0.887147307395935059
-2.69600009918212891 11.7329998016357422 -0.837000012397766113
-2.66403317451477051 11.77691650390625 -0.899109542369842529
-2.68762993812561035 11.7417821884155273 -0.852516829967498779
-2.68543314933776855 11.7808313369750977 -0.811902225017547607
-2.70300006866455078 11.7720003128051758 -0.804000020027160645
-2.66214776039123535 11.8040533065795898 -0.656282663345336914
-2.64599990844726562 11.7709999084472656 -0.986000001430511475
-2.68081998825073242 11.7902307510375977 -0.968261659145355225
-2.68000006675720215 11.7530002593994141 -0.977999985218048096
-2.65700006484985352 11.7170000076293945 -0.995000004768371582
-2.65335655212402344 11.730219841003418 -0.982960760593414307
-2.68904280662536621 11.7581148147583008 -0.957756519317626953
-2.67400002479553223 11.7360000610351562 -0.967000007629394531
-2.62667250633239746 11.7587690353393555 -0.960264086723327637
-2.70037364959716797 11.7520227432250977 -0.944273233413696289
-2.67400002479553223 11.7279996871948242 -0.981000006198883057
-2.70399999618530273 11.7869997024536133 -0.820999979972839355
-2.66840815544128418 11.7880668640136719 -0.650127053260803223
-2.6809999942779541 11.7539997100830078 -0.885999977588653564
-2.69665646553039551 11.7625913619995117 -0.997408568859100342
-2.66126751899719238 11.7688703536987305 -0.993397235870361328
-2.67400002479553223 11.7589998245239258 -0.991999983787536621
-2.68878507614135742 11.7529888153076172 -0.999265849590301514
-2.64800000190734863 11.7670001983642578 -0.994000017642974854
-2.66134548187255859 11.7866811752319336 -0.986200153827667236
-2.67919707298278809 11.7665338516235352 -0.982063055038452148
-2.64199995994567871 11.7569999694824219 -0.998000025749206543
-2.63893723487854004 11.7777881622314453 -0.980833649635314941
-2.68726348876953125 11.8000650405883789 -0.981147289276123047
-2.68000006675720215 11.7320003509521484 -0.904999971389770508
-2.71600008010864258 11.7840003967285156 -0.795000016689300537
-2.67400002479553223 11.7760000228881836 -0.912000000476837158
-2.64899992942810059 11.7299995422363281 -0.944999992847442627
-2.63499999046325684 11.7530002593994141 -0.935000002384185791
-2.70393228530883789 11.7450904846191406 -0.896590769290924072
-2.64599990844726562 11.7700004577636719 -0.921999990940093994
-2.71572375297546387 11.7120027542114258 -0.93508988618850708
-2.67300009727478027 11.7360000610351562 -0.925000011920928955
-2.70019388198852539 11.7569665908813477 -0.887907564640045166
-2.65784454345703125 11.7549829483032227 -0.910427629947662354
-2.64995288848876953 11.7553777694702148 -0.890627443790435791
-2.69799995422363281 11.758000373840332 -0.996999979019165039
-2.7070000171661377 11.7950000762939453 -0.800000011920928955
-2.70099997520446777 11.7969999313354492 -0.695999979972839355
-2.7219998836517334 11.8100004196166992 -0.68900001049041748
-2.66784548759460449 11.7871618270874023 -0.670475482940673828
-2.66650009155273438 11.7259998321533203 -0.968999981880187988
-2.67831134796142578 11.8172521591186523 -0.683172166347503662
-2.70000004768371582 11.7950000762939453 -0.680000007152557373
-2.6400001049041748 11.7659997940063477 -1.06200003623962402
-2.63700008392333984 11.7629995346069336 -1.07500004768371582
-2.68805098533630371 11.7301731109619141 -0.902701139450073242
-2.67499995231628418 11.7279996871948242 -1.00399994850158691
-2.64499998092651367 11.7620000839233398 -1.06200003623962402
-2.66499996185302734 11.7259998321533203 -0.927999973297119141
-2.66000008583068848 11.8000001907348633 -0.864000022411346436
-2.69600009918212891 11.7659997940063477 -0.833999991416931152
-2.69199991226196289 11.7299995422363281 -0.837999999523162842
-2.70499992370605469 11.8000001907348633 -0.694000005722045898
-2.64562487602233887 11.8147220611572266 -0.819614887237548828
-2.67750740051269531 11.7587060928344727 -0.924487173557281494
-2.69093871116638184 11.7745656967163086 -0.910350918769836426
-2.7004401683807373 11.7549228668212891 -0.914342939853668213
-2.65460991859436035 11.7224254608154297 -0.956773281097412109
-2.63700008392333984 11.7430000305175781 -0.949999988079071045
-2.6400001049041748 11.7709999084472656 -0.953000009059906006
-2.63899993896484375 11.7620000839233398 -0.945999979972839355
-2.67447900772094727 11.7778501510620117 -0.960588634014129639
-2.65199995040893555 11.7360000610351562 -0.955999970436096191
-2.63100004196166992 11.758000373840332 -0.954999983310699463
-2.69222092628479004 11.7292795181274414 -0.88231581449508667
-2.70678997039794922 11.811253547668457 -0.678396284580230713
-2.69700002670288086 11.7919998168945312 -0.675999999046325684
-2.69799995422363281 11.7250003814697266 -1.01999998092651367
-2.65229153633117676 11.7518529891967773 -1.05004727840423584
-2.64870858192443848 11.7543125152587891 -1.0504993200302124
-2.65100002288818359 11.7299995422363281 -1.0549999475479126
-2.65518593788146973 11.7508916854858398 -1.0140690803527832
-2.69899988174438477 11.7239999771118164 -1.01199996471405029
-2.66700005531311035 11.7270002365112305 -1.00499999523162842
-2.67259573936462402 11.7221393585205078 -1.07835912704467773
-2.66678524017333984 11.7286596298217773 -1.07125675678253174
-2.64889192581176758 11.7437839508056641 -1.02558004856109619
-2.67731404304504395 11.7202348709106445 -0.893816590309143066
-2.67799997329711914 11.7469997406005859 -0.893000006675720215
-2.69161820411682129 11.7262477874755859 -0.855387330055236816
-2.65830802917480469 11.7180957794189453 -0.888233840465545654
-2.67499995231628418 11.7770004272460938 -0.901000022888183594
-2.66224789619445801 11.7255105972290039 -1.03353679180145264
-2.64299988746643066 11.758000373840332 -1.07299995422363281
-2.66499996185302734 11.7290000915527344 -1.01600003242492676
-2.6481938362121582 11.7526741027832031 -1.04964935779571533
-2.64642882347106934 11.7225751876831055 -1.00424575805664062
-2.66700005531311035 11.7539997100830078 -1.00600004196166992
-2.66400003433227539 11.7480001449584961 -1.02400004863739014
-2.70300006866455078 11.7489995956420898 -1.01699995994567871
-2.71373581886291504 11.7259340286254883 -1.01206254959106445
-2.64800000190734863 11.7530002593994141 -1.05400002002716064
-2.64454555511474609 11.7336406707763672 -0.905301332473754883
-2.69012355804443359 11.7225484848022461 -0.848743021488189697
-2.69600009918212891 11.7670001983642578 -0.816999971866607666
-2.69546413421630859 11.7882652282714844 -0.794723451137542725
-2.67799997329711914 11.7749996185302734 -0.883000016212463379
-2.70300006866455078 11.7760000228881836 -0.800999999046325684
-2.63631176948547363 11.7506723403930664 -0.980521559715270996
-2.6497645378112793 11.7660226821899414 -0.999025583267211914
-2.69199991226196289 11.7460002899169922 -1.02600002288818359
-2.702484130859375 11.7438793182373047 -1.02123343944549561
-2.68708181381225586 11.7346735000610352 -1.0189201831817627
-2.64278650283813477 11.7290716171264648 -1.02481567859649658
-2.65156674385070801 11.7548971176147461 -1.01575887203216553
-2.69508218765258789 11.7560701370239258 -1.0173720121383667
-2.71729636192321777 11.7619304656982422 -1.01457107067108154
-2.68199992179870605 11.744999885559082 -1.04200005531311035
-2.68300008773803711 11.7299995422363281 -1.05099999904632568
-2.67885088920593262 11.7257719039916992 -1.07667052745819092
-2.68899989128112793 11.7650003433227539 -0.865999996662139893
-2.68149995803833008 11.7604999542236328 -0.875999987125396729
-2.68000006675720215 11.741999626159668 -0.892000019550323486
-2.69099998474121094 11.7270002365112305 -0.845000028610229492
-2.7070000171661377 11.7939996719360352 -0.787999987602233887
1 1 1
-2.64400005340576172 11.7279996871948242 -0.896000027656555176
-2.63996362686157227 11.7303047180175781 -0.897443711757659912
-2.69899988174438477 11.7869997024536133 -0.828000009059906006
-2.64899301528930664 11.7927284240722656 -0.789979875087738037
-2.69199991226196289 11.8030004501342773 -0.74299997091293335
-2.65199995040893555 11.7390003204345703 -0.888000011444091797
-2.67566299438476562 11.8086271286010742 -0.671450614929199219
-2.68320679664611816 11.734919548034668 -0.912674546241760254
-2.66670680046081543 11.7176647186279297 -0.885667383670806885
-2.67296814918518066 11.7770462036132812 -0.980729997158050537
-2.71246623992919922 11.7317914962768555 -0.942115187644958496
-2.66347718238830566 11.7153463363647461 -0.939784407615661621
-2.6513969898223877 11.766448974609375 -0.925819277763366699
-2.68075704574584961 11.7316370010375977 -0.935867667198181152
-2.64700007438659668 11.7349996566772461 -0.922999978065490723
-2.65199995040893555 11.7489995956420898 -0.919000029563903809
-2.65799999237060547 11.7209997177124023 -0.906000018119812012
-2.67205715179443359 11.7644147872924805 -0.943062663078308105
-2.6809999942779541 11.7760000228881836 -0.876999974250793457
-2.69762778282165527 11.7796878814697266 -0.855924487113952637
-2.68300008773803711 11.7360000610351562 -0.884999990463256836
-2.68866658210754395 11.7699785232543945 -0.821524560451507568
-2.69600009918212891 11.8090000152587891 -0.674000024795532227
-2.69199991226196289 11.7600002288818359 -0.917999982833862305
-2.7014775276184082 11.7959718704223633 -0.846207261085510254
3 292 154 258 255 255 255
3 292 291 154 255 255 255
3 154 290 155 255 255 255
3 155 258 154 255 255 255
3 154 6 155 255 255 255
3 290 157 155 255 255 255
3 291 290 154 255 255 255
3 154 158 6 255 255 255
3 290 159 157 255 255 255
3 290 158 154 255 255 255
3 291 159 290 255 255 255
3 155 8 258 255 255 255
3 156 160 155 255 255 255
3 155 157 156 255 255 255
3 157 95 156 255 255 255
3 158 157 6 255 255 255
3 159 283 157 255 255 255
3 160 253 155 255 255 255
3 95 160 156 255 255 255
3 257 154 258 255 255 255
3 258 292 257 255 255 255
3 258 8 291 255 255 255
3 160 274 253 255 255 255
3 157 158 95 255 255 255
3 158 283 95 255 255 255
3 159 284 283 255 255 255
3 259 286 160 255 255 255
3 160 95 287 255 255 255
3 95 282 287 255 255 255
3 283 288 95 255 255 255
3 283 284 288 255 255 255
3 284 289 288 255 255 255
3 285 284 159 255 255 255
3 159 98 285 255 255 255
3 286 96 160 255 255 255
3 160 287 259 255 255 255
3 287 163 259 255 255 255
3 287 282 163 255 255 255
3 95 197 282 255 255 255
3 288 196 95 255 255 255
3 289 97 288 255 255 255
3 285 255 284 255 255 255
3 96 251 160 255 255 255
3 286 99 96 255 255 255
3 282 101 163 255 255 255
3 95 198 197 255 255 255
3 196 198 95 255 255 255
3 196 202 198 255 255 255
3 97 199 288 255 255 255
3 284 102 289 255 255 255
3 284 273 102 255 255 255
3 284 250 273 255 255 255
3 98 4 285 255 255 255
3 99 161 96 255 255 255
3 286 100 99 255 255 255
3 259 162 286 255 255 255
3 259 101 162 255 255 255
3 282 200 101 255 255 255
3 197 29 282 255 255 255
3 198 202 197 255 255 255
3 199 9 288 255 255 255
3 98 290 4 255 255 255
3 99 10 161 255 255 255
3 100 10 99 255 255 255
3 286 269 100 255 255 255
3 259 254 101 255 255 255
3 101 203 163 255 255 255
3 200 29 101 255 255 255
3 197 201 29 255 255 255
3 201 204 29 255 255 255
3 202 205 197 255 255 255
3 199 134 9 255 255 255
3 289 102 97 255 255 255
3 102 17 97 255 255 255
3 250 255 273 255 255 255
3 285 79 255 255 255 255
3 290 5 4 255 255 255
3 251 274 252 255 255 255
3 161 253 96 255 255 255
3 100 12 10 255 255 255
3 286 135 269 255 255 255
3 162 254 163 255 255 255
3 163 281 162 255 255 255
3 203 136 163 255 255 255
3 204 21 29 255 255 255
3 201 33 204 255 255 255
3 197 205 201 255 255 255
3 205 33 201 255 255 255
3 196 140 202 255 255 255
3 196 288 97 255 255 255
3 134 138 9 255 255 255
3 199 196 134 255 255 255
3 97 17 199 255 255 255
3 102 273 17 255 255 255
3 285 256 79 255 255 255
3 4 267 285 255 255 255
3 5 267 4 255 255 255
3 5 271 267 255 255 255
3 252 155 251 255 255 255
3 253 268 96 255 255 255
3 161 265 253 255 255 255
3 100 269 12 255 255 255
3 135 187 269 255 255 255
3 259 271 254 255 255 255
3 254 282 163 255 255 255
3 163 136 281 255 255 255
3 136 139 281 255 255 255
3 202 137 205 255 255 255
3 137 184 205 255 255 255
3 196 218 140 255 255 255
3 138 141 9 255 255 255
3 134 185 138 255 255 255
3 199 17 140 255 255 255
3 255 87 273 255 255 255
3 256 142 79 255 255 255
3 285 267 256 255 255 255
3 267 12 256 255 255 255
3 5 8 271 255 255 255
3 268 93 96 255 255 255
3 253 251 268 255 255 255
3 269 187 186 255 255 255
3 270 13 254 255 255 255
3 271 270 254 255 255 255
3 259 93 271 255 255 255
3 254 13 282 255 255 255
3 139 190 281 255 255 255
3 136 183 139 255 255 255
3 204 89 21 255 255 255
3 137 173 184 255 255 255
3 202 188 137 255 255 255
3 140 188 202 255 255 255
3 272 97 288 255 255 255
3 288 94 272 255 255 255
3 141 256 9 255 255 255
3 273 104 17 255 255 255
3 142 138 79 255 255 255
3 256 186 142 255 255 255
3 267 265 12 255 255 255
3 5 98 8 255 255 255
3 252 226 63 255 255 255
3 274 266 252 255 255 255
3 93 259 96 255 255 255
3 268 63 93 255 255 255
3 135 281 187 255 255 255
3 270 9 13 255 255 255
3 93 64 271 255 255 255
3 183 190 139 255 255 255
3 184 33 205 255 255 255
3 137 188 173 255 255 255
3 272 87 97 255 255 255
3 94 283 272 255 255 255
3 141 187 256 255 255 255
3 185 189 138 255 255 255
3 273 149 104 255 255 255
3 138 149 79 255 255 255
3 142 192 138 255 255 255
3 186 32 142 255 255 255
3 256 269 186 255 255 255
3 265 161 12 255 255 255
3 267 285 265 255 255 255
3 252 227 226 255 255 255
3 266 227 252 255 255 255
3 161 10 12 255 255 255
3 187 32 186 255 255 255
3 187 223 32 255 255 255
3 204 168 89 255 255 255
3 184 165 33 255 255 255
3 184 166 165 255 255 255
3 184 173 166 255 255 255
3 188 191 173 255 255 255
3 272 284 87 255 255 255
3 187 269 256 255 255 255
3 138 32 141 255 255 255
3 189 192 138 255 255 255
3 285 5 265 255 255 255
3 267 229 285 255 255 255
3 268 230 63 255 255 255
3 135 153 281 255 255 255
3 190 81 29 255 255 255
3 204 164 168 255 255 255
3 191 237 173 255 255 255
3 188 167 191 255 255 255
3 284 285 87 255 255 255
3 192 175 138 255 255 255
3 189 223 192 255 255 255
3 267 82 229 255 255 255
3 268 266 230 255 255 255
3 281 29 21 255 255 255
3 143 190 21 255 255 255
3 164 109 168 255 255 255
3 204 29 164 255 255 255
3 165 308 33 255 255 255
3 166 168 165 255 255 255
3 191 238 237 255 255 255
3 167 309 191 255 255 255
3 285 104 87 255 255 255
3 82 79 229 255 255 255
3 266 226 230 255 255 255
3 190 241 81 255 255 255
3 190 281 21 255 255 255
3 168 242 89 255 255 255
3 164 243 109 255 255 255
3 204 183 29 255 255 255
3 165 244 308 255 255 255
3 169 31 166 255 255 255
3 166 244 169 255 255 255
3 237 169 173 255 255 255
3 238 169 237 255 255 255
3 239 322 191 255 255 255
3 191 309 239 255 255 255
3 167 213 309 255 255 255
3 188 105 167 255 255 255
3 240 105 223 255 255 255
3 241 245 81 255 255 255
3 190 119 241 255 255 255
3 143 119 190 255 255 255
3 164 119 143 255 255 255
3 164 242 119 255 255 255
3 242 143 89 255 255 255
3 243 31 109 255 255 255
3 164 246 243 255 255 255
3 169 118 31 255 255 255
3 244 173 169 255 255 255
3 238 208 169 255 255 255
3 188 43 105 255 255 255
3 245 240 81 255 255 255
3 240 187 81 255 255 255
3 241 240 245 255 255 255
3 241 209 240 255 255 255
3 242 243 119 255 255 255
3 143 21 89 255 255 255
3 243 210 31 255 255 255
3 246 241 243 255 255 255
3 118 311 31 255 255 255
3 244 166 173 255 255 255
3 169 208 118 255 255 255
3 208 238 118 255 255 255
3 238 239 120 255 255 255
3 239 238 322 255 255 255
3 309 121 239 255 255 255
3 43 134 105 255 255 255
3 188 175 43 255 255 255
3 240 312 105 255 255 255
3 310 312 240 255 255 255
3 240 44 310 255 255 255
3 209 44 240 255 255 255
3 209 45 44 255 255 255
3 241 131 209 255 255 255
3 210 122 119 255 255 255
3 119 24 210 255 255 255
3 243 24 119 255 255 255
3 210 123 31 255 255 255
3 311 58 31 255 255 255
3 118 212 311 255 255 255
3 120 124 238 255 255 255
3 239 211 120 255 255 255
3 238 264 322 255 255 255
3 121 211 239 255 255 255
3 309 213 121 255 255 255
3 167 312 213 255 255 255
3 188 185 175 255 255 255
3 312 167 105 255 255 255
3 122 131 119 255 255 255
3 123 311 31 255 255 255
3 124 264 238 255 255 255
3 124 125 264 255 255 255
3 120 46 124 255 255 255
3 211 215 120 255 255 255
3 44 126 310 255 255 255
3 45 126 44 255 255 255
3 45 313 126 255 255 255
3 45 314 313 255 255 255
3 209 127 45 255 255 255
3 122 313 131 255 255 255
3 311 316 31 255 255 255
3 123 314 311 255 255 255
3 212 109 311 255 255 255
3 125 49 118 255 255 255
3 124 51 125 255 255 255
3 121 228 211 255 255 255
3 213 312 121 255 255 255
3 312 127 214 255 255 255
3 126 315 310 255 255 255
3 310 209 44 255 255 255
3 313 275 126 255 255 255
3 314 47 313 255 255 255
3 45 48 314 255 255 255
3 127 231 45 255 255 255
3 313 44 131 255 255 255
3 122 275 313 255 255 255
3 212 123 109 255 255 255
3 125 50 49 255 255 255
3 125 51 50 255 255 255
3 125 118 264 255 255 255
3 124 317 51 255 255 255
3 46 318 124 255 255 255
3 120 67 46 255 255 255
3 312 306 121 255 255 255
3 214 306 312 255 255 255
3 214 231 306 255 255 255
3 127 11 214 255 255 255
3 189 223 105 255 255 255
3 315 150 310 255 255 255
3 126 69 315 255 255 255
3 310 127 209 255 255 255
3 47 24 313 255 255 255
3 48 216 314 255 255 255
3 127 312 231 255 255 255
3 312 11 231 255 255 255
3 122 47 275 255 255 255
3 316 244 31 255 255 255
3 244 165 31 255 255 255
3 49 212 118 255 255 255
3 50 217 49 255 255 255
3 51 232 50 255 255 255
3 317 53 51 255 255 255
3 317 115 53 255 255 255
3 318 70 124 255 255 255
3 46 67 318 255 255 255
3 215 67 120 255 255 255
3 211 106 215 255 255 255
3 52 106 211 255 255 255
3 211 228 247 255 255 255
3 260 247 228 255 255 255
3 228 306 260 255 255 255
3 315 260 150 255 255 255
3 69 307 315 255 255 255
3 275 300 126 255 255 255
3 300 54 126 255 255 255
3 216 58 314 255 255 255
3 48 150 216 255 255 255
3 11 313 231 255 255 255
3 312 306 11 255 255 255
3 47 22 275 255 255 255
3 217 23 49 255 255 255
3 50 103 0 255 255 255
3 51 53 232 255 255 255
3 318 76 70 255 255 255
3 215 128 67 255 255 255
3 247 7 211 255 255 255
3 260 307 247 255 255 255
3 306 206 121 255 255 255
3 260 206 150 255 255 255
3 315 307 260 255 255 255
3 300 263 54 255 255 255
3 216 23 58 255 255 255
3 150 261 216 255 255 255
3 11 22 313 255 255 255
3 275 217 300 255 255 255
3 23 178 49 255 255 255
3 50 0 217 255 255 255
3 103 18 0 255 255 255
3 50 88 103 255 255 255
3 53 18 232 255 255 255
3 124 293 317 255 255 255
3 70 293 124 255 255 255
3 70 73 293 255 255 255
3 318 323 76 255 255 255
3 215 106 128 255 255 255
3 7 52 211 255 255 255
3 247 262 7 255 255 255
3 307 16 247 255 255 255
3 121 228 170 255 255 255
3 206 295 121 255 255 255
3 206 306 150 255 255 255
3 69 263 307 255 255 255
3 69 68 263 255 255 255
3 23 60 58 255 255 255
3 261 61 216 255 255 255
3 217 304 300 255 255 255
3 217 91 304 255 255 255
3 0 61 217 255 255 255
3 88 103 232 255 255 255
3 50 115 88 255 255 255
3 18 53 115 255 255 255
3 103 18 115 255 255 255
3 293 294 317 255 255 255
3 73 128 293 255 255 255
3 323 130 76 255 255 255
3 128 73 67 255 255 255
3 52 114 106 255 255 255
3 15 62 247 255 255 255
3 247 16 15 255 255 255
3 16 86 15 255 255 255
3 170 171 121 255 255 255
3 206 260 306 255 255 255
3 300 304 263 255 255 255
3 23 264 60 255 255 255
3 261 195 61 255 255 255
3 178 176 49 255 255 255
3 91 86 304 255 255 255
3 61 91 217 255 255 255
3 61 294 91 255 255 255
3 0 279 61 255 255 255
3 103 115 232 255 255 255
3 294 279 317 255 255 255
3 70 56 73 255 255 255
3 55 73 128 255 255 255
3 128 293 55 255 255 255
3 52 7 114 255 255 255
3 262 276 7 255 255 255
3 86 295 15 255 255 255
3 171 322 121 255 255 255
3 170 239 171 255 255 255
3 91 319 86 255 255 255
3 294 71 91 255 255 255
3 0 317 279 255 255 255
3 293 71 294 255 255 255
3 293 151 71 255 255 255
3 56 25 73 255 255 255
3 70 41 56 255 255 255
3 130 320 76 255 255 255
3 73 318 67 255 255 255
3 293 35 55 255 255 255
3 114 128 106 255 255 255
3 7 74 114 255 255 255
3 295 261 15 255 255 255
3 263 299 16 255 255 255
3 16 307 263 255 255 255
3 178 50 176 255 255 255
3 319 206 86 255 255 255
3 91 71 319 255 255 255
3 71 1 319 255 255 255
3 151 179 71 255 255 255
3 56 301 25 255 255 255
3 130 180 320 255 255 255
3 130 301 3 255 255 255
3 323 41 130 255 255 255
3 55 36 73 255 255 255
3 35 179 55 255 255 255
3 276 74 7 255 255 255
3 42 74 276 255 255 255
3 151 106 62 255 255 255
3 62 15 151 255 255 255
3 299 275 16 255 255 255
3 263 54 299 255 255 255
3 1 247 319 255 255 255
3 71 35 1 255 255 255
3 41 193 56 255 255 255
3 320 233 76 255 255 255
3 301 193 3 255 255 255
3 35 15 1 255 255 255
3 151 55 179 255 255 255
3 193 77 56 255 255 255
3 320 90 233 255 255 255
3 130 3 180 255 255 255
3 129 57 3 255 255 255
3 193 129 3 255 255 255
3 193 111 129 255 255 255
3 55 114 36 255 255 255
3 55 177 114 255 255 255
3 114 38 36 255 255 255
3 74 116 114 255 255 255
3 263 69 54 255 255 255
3 35 262 15 255 255 255
3 296 42 179 255 255 255
3 179 234 296 255 255 255
3 55 90 179 255 255 255
3 77 133 56 255 255 255
3 320 36 90 255 255 255
3 320 107 277 255 255 255
3 107 174 277 255 255 255
3 320 180 107 255 255 255
3 57 278 3 255 255 255
3 36 56 25 255 255 255
3 55 296 177 255 255 255
3 277 147 36 255 255 255
3 38 90 36 255 255 255
3 38 177 90 255 255 255
3 35 179 262 255 255 255
3 179 55 234 255 255 255
3 55 73 90 255 255 255
3 77 107 133 255 255 255
3 174 133 277 255 255 255
3 107 278 174 255 255 255
3 180 280 107 255 255 255
3 57 297 278 255 255 255
3 129 207 57 255 255 255
3 111 147 129 255 255 255
3 296 116 177 255 255 255
3 147 111 36 255 255 255
3 277 181 147 255 255 255
3 179 276 262 255 255 255
3 55 38 234 255 255 255
3 73 233 90 255 255 255
3 174 181 133 255 255 255
3 129 280 180 255 255 255
3 297 40 278 255 255 255
3 57 207 297 255 255 255
3 207 148 297 255 255 255
3 129 148 219 255 255 255
3 174 280 181 255 255 255
3 278 92 174 255 255 255
3 148 92 297 255 255 255
3 148 174 92 255 255 255
3 278 297 92 255 255 255
3 278 77 146 255 255 255
3 77 219 146 255 255 255
3 219 297 146 255 255 255
3 77 207 219 255 255 255
3 78 113 144 255 255 255
3 113 194 144 255 255 255
3 144 194 182 255 255 255
3 113 152 194 255 255 255
3 78 152 113 255 255 255
3 27 75 144 255 255 255
3 144 182 27 255 255 255
3 75 110 78 255 255 255
3 27 110 75 255 255 255
3 27 224 110 255 255 255
3 194 222 182 255 255 255
3 194 59 222 255 255 255
3 152 59 194 255 255 255
3 78 72 152 255 255 255
3 78 110 72 255 255 255
3 110 248 72 255 255 255
3 182 222 27 255 255 255
3 222 224 27 255 255 255
3 152 72 59 255 255 255
3 248 225 72 255 255 255
3 110 83 248 255 255 255
3 224 80 110 255 255 255
3 72 84 59 255 255 255
3 83 108 248 255 255 255
3 224 19 80 255 255 255
3 59 19 222 255 255 255
3 72 112 84 255 255 255
3 72 117 112 255 255 255
3 83 145 108 255 255 255
3 80 83 110 255 255 255
3 224 222 19 255 255 255
3 59 225 19 255 255 255
3 28 220 84 255 255 255
3 112 65 84 255 255 255
3 72 249 117 255 255 255
3 248 84 225 255 255 255
3 108 20 248 255 255 255
3 83 117 110 255 255 255
3 59 249 225 255 255 255
3 28 20 220 255 255 255
3 84 66 28 255 255 255
3 84 65 66 255 255 255
3 249 110 117 255 255 255
3 249 321 110 255 255 255
3 20 19 248 255 255 255
3 65 66 108 255 255 255
3 80 108 83 255 255 255
3 19 220 80 255 255 255
3 225 235 19 255 255 255
3 249 28 225 255 255 255
3 20 14 220 255 255 255
3 65 132 66 255 255 255
3 65 26 132 255 255 255
3 145 112 117 255 255 255
3 321 2 110 255 255 255
3 249 59 321 255 255 255
3 59 305 321 255 255 255
3 19 321 248 255 255 255
3 65 112 145 255 255 255
3 145 26 65 255 255 255
3 80 221 108 255 255 255
3 80 14 132 255 255 255
3 2 59 19 255 255 255
3 249 72 28 255 255 255
3 132 221 80 255 255 255
3 132 26 221 255 255 255
3 302 85 39 255 255 255
3 39 34 302 255 255 255
3 302 30 85 255 255 255
3 39 236 34 255 255 255
3 302 34 30 255 255 255
3 39 85 236 255 255 255
3 85 30 236 255 255 255
3 30 34 236 255 255 255
3 172 37 303 255 255 255
3 298 298 298 255 255 255
