ply
format ascii 1.0
element vertex 314
property float x
property float y
property float z
element face 576
property list uchar int vertex_indices
property uchar red
property uchar green
property uchar blue
end_header
-3.48000001907348633 12.005000114440918 -0.986000001430511475
-3.46799993515014648 12.0209999084472656 -0.926999986171722412
-3.46399998664855957 12.0159997940063477 -0.953999996185302734
-3.45877861976623535 12.035400390625 -0.894997358322143555
-3.47499990463256836 12.0270004272460938 -0.875
-3.47112250328063965 12.0074758529663086 -0.859432697296142578
-3.4601593017578125 12.0128078460693359 -0.894025802612304688
-3.46670722961425781 12.022125244140625 -0.840580940246582031
-3.48906183242797852 12.0071783065795898 -0.827614545822143555
-3.48600006103515625 12.0220003128051758 -0.822000026702880859
-3.47108578681945801 12.005122184753418 -0.826469182968139648
-3.4869999885559082 12.0089998245239258 -0.799000024795532227
-3.46099996566772461 12.0120000839233398 -0.999000012874603271
-3.47786712646484375 11.9935750961303711 -1.00473654270172119
-3.46499991416931152 11.9849996566772461 -1.0130000114440918
-3.47475171089172363 11.9503316879272461 -1.04115760326385498
-3.47828936576843262 11.9525356292724609 -1.04601895809173584
-3.46409869194030762 11.9436216354370117 -1.05229365825653076
-3.45743894577026367 11.9519853591918945 -1.06424105167388916
-3.45199990272521973 11.9930000305175781 -1.01499998569488525
-3.47117376327514648 11.9514923095703125 -1.06237888336181641
-3.4920191764831543 11.978602409362793 -1.04200971126556396
-3.48960995674133301 11.9868087768554688 -1.0483475923538208
-3.48399996757507324 11.9809999465942383 -0.962999999523162842
-3.48638057708740234 11.9964351654052734 -0.951233088970184326
-3.49411749839782715 11.9877128601074219 -0.962971091270446777
-3.48201799392700195 11.9959564208984375 -0.958857178688049316
-3.49900007247924805 11.9829998016357422 -0.954999983310699463
-3.48704147338867188 11.9751882553100586 -0.950959324836730957
-3.49699997901916504 11.9729995727539062 -0.947000026702880859
-3.48900008201599121 11.9809999465942383 -0.953000009059906006
-3.48041057586669922 11.9918107986450195 -0.937942385673522949
-3.49173116683959961 11.9923801422119141 -0.910043537616729736
-3.57399988174438477 11.8970003128051758 -1.05999994277954102
-3.49498558044433594 12.0110263824462891 -0.722034275531768799
-3.47351455688476562 12.0370082855224609 -0.707203269004821777
-3.48099994659423828 12.0290002822875977 -0.825999975204467773
-3.48600006103515625 12.0129995346069336 -0.78600001335144043
-3.53399991989135742 11.9020004272460938 -0.966000020503997803
-3.47000002861022949 11.994999885559082 -0.929000020027160645
-3.47799992561340332 11.9879999160766602 -0.797999978065490723
-3.48205971717834473 11.9873008728027344 -0.764163851737976074
-3.4699704647064209 11.9959430694580078 -0.75696098804473877
-3.54399991035461426 11.8940000534057617 -0.985000014305114746
-3.54577875137329102 11.9183578491210938 -0.981322646141052246
-3.55813002586364746 11.8850898742675781 -0.943359971046447754
-3.54800009727478027 11.9029998779296875 -0.93599998950958252
-3.53576445579528809 11.9332771301269531 -0.955250144004821777
-3.52999997138977051 11.8640003204345703 -0.929000020027160645
-3.4590001106262207 12.008000373840332 -0.927999973297119141
-3.49799990653991699 12.0109996795654297 -0.711000025272369385
-3.47237443923950195 12.0256214141845703 -0.749550998210906982
-3.55900001525878906 11.8920001983642578 -0.976250052452087402
-3.528350830078125 11.8796167373657227 -0.968820333480834961
-3.5429999828338623 11.9069995880126953 -0.986000001430511475
-3.54848933219909668 11.90618896484375 -0.972138822078704834
-3.56340122222900391 11.8825578689575195 -0.971522927284240723
-3.55100369453430176 11.8886728286743164 -0.977158308029174805
-3.52900004386901855 11.8809995651245117 -0.949000000953674316
-3.5409998893737793 11.9010000228881836 -0.973999977111816406
-3.55811214447021484 11.8957977294921875 -0.956060647964477539
-3.55699992179870605 11.8959999084472656 -0.984000027179718018
-3.48286342620849609 12.0084314346313477 -0.975642383098602295
-3.46746397018432617 12.0301198959350586 -0.92102205753326416
-3.47499990463256836 12.0260000228881836 -0.887000024318695068
-3.55458664894104004 11.8949470520019531 -1.01975476741790771
-3.54829025268554688 11.8964462280273438 -1.01255416870117188
-3.53699994087219238 11.9079999923706055 -1.02300000190734863
-3.5207517147064209 11.9315118789672852 -1.0221092700958252
-3.49796962738037109 11.9314107894897461 -1.00533914566040039
-3.50192141532897949 11.9578886032104492 -1.02475082874298096
-3.53486418724060059 11.9270248413085938 -1.04224348068237305
-3.55241227149963379 11.8814706802368164 -1.03468108177185059
-3.54600000381469727 11.8950004577636719 -1.04499995708465576
-3.5308382511138916 11.8658790588378906 -1.02590501308441162
-3.49749541282653809 12.0250816345214844 -0.737751901149749756
-3.53937983512878418 11.8847923278808594 -0.946918129920959473
-3.5280001163482666 11.8909997940063477 -0.958999991416931152
-3.52699995040893555 11.9040002822875977 -0.967000007629394531
-3.53900003433227539 11.9049997329711914 -0.958999991416931152
-3.5429999828338623 11.8780002593994141 -0.962000012397766113
-3.53900003433227539 11.8730001449584961 -0.924000024795532227
-3.55811500549316406 11.8827972412109375 -0.920010805130004883
-3.54800009727478027 11.9079999923706055 -0.93199998140335083
-3.55500006675720215 11.8920001983642578 -0.925999999046325684
-3.54800009727478027 11.9079999923706055 -0.940999984741210938
-3.48765373229980469 12.0003633499145508 -0.783340215682983398
-3.46000003814697266 12.0039997100830078 -0.763999998569488525
-3.47399997711181641 11.9870004653930664 -1.02999997138977051
-3.48529696464538574 12.0029726028442383 -0.861439287662506104
-3.4685370922088623 12.0018405914306641 -0.845384657382965088
-3.48000001907348633 12.0209999084472656 -0.859000027179718018
-3.47695136070251465 12.0279531478881836 -0.83505326509475708
-3.48600006103515625 12.0150003433227539 -0.790000021457672119
-3.46890711784362793 12.007537841796875 -0.772902727127075195
-3.47900009155273438 12.0089998245239258 -0.760999977588653564
-3.46677517890930176 12.0058832168579102 -0.723904907703399658
-3.48900008201599121 12.0170001983642578 -0.708000004291534424
-3.49499988555908203 12.0129995346069336 -0.711000025272369385
-3.46700000762939453 12.008000373840332 -0.907999992370605469
-3.49151849746704102 12.0131130218505859 -0.902486026287078857
-3.46600008010864258 12.0159997940063477 -0.93599998950958252
-3.4590001106262207 12.0100002288818359 -0.938000023365020752
-3.47869420051574707 12.0215301513671875 -0.920324563980102539
-3.48300004005432129 12.0170001983642578 -0.913999974727630615
-3.48399996757507324 12.0010004043579102 -0.902999997138977051
-3.46399998664855957 12.0069999694824219 -0.998000025749206543
-3.45240497589111328 12.0199213027954102 -0.999710142612457275
-3.48000001907348633 12.0059995651245117 -0.964999973773956299
-3.47287988662719727 12.0104036331176758 -0.95479506254196167
-3.49352478981018066 12.0167922973632812 -0.984096884727478027
-3.48642110824584961 12.0083608627319336 -0.926076233386993408
-3.4776008129119873 12.007807731628418 -0.94187462329864502
-3.4590001106262207 12.0100002288818359 -0.949999988079071045
-3.51722502708435059 11.8847560882568359 -1.01596164703369141
-3.51999998092651367 11.8959999084472656 -1.02100002765655518
-3.50628447532653809 11.8653783798217773 -1.0330120325088501
-3.5040891170501709 11.8820886611938477 -1.03389096260070801
-3.52472853660583496 11.8955373764038086 -1.0361778736114502
-3.48892474174499512 11.9513950347900391 -1.03711342811584473
-3.4784998893737793 11.9755001068115234 -1.02750003337860107
-3.54600000381469727 11.9025001525878906 -1.04200005531311035
-3.50999999046325684 11.9200000762939453 -1.00800001621246338
-3.53834414482116699 11.9181299209594727 -1.05036389827728271
-3.48826074600219727 11.9965229034423828 -1.01924192905426025
-3.50772261619567871 11.9916744232177734 -1.05411350727081299
-3.48200011253356934 11.991999626159668 -1.04100000858306885
-3.5046086311340332 11.9925222396850586 -1.03151118755340576
-3.49886560440063477 11.9942808151245117 -1.03868448734283447
-3.57349395751953125 11.9046354293823242 -1.06189191341400146
-3.53270387649536133 11.8998069763183594 -1.04675018787384033
-3.52830648422241211 11.8770360946655273 -1.01531636714935303
-3.50900006294250488 11.9519996643066406 -1.01100003719329834
-3.49734616279602051 11.9907093048095703 -1.01960313320159912
-3.48900008201599121 12.0299997329711914 -0.898999989032745361
-3.45899748802185059 11.9992523193359375 -0.940060079097747803
-3.47670483589172363 11.9992475509643555 -0.975302159786224365
-3.47799992561340332 11.994999885559082 -0.976000010967254639
-3.47600007057189941 11.9960002899169922 -0.811999976634979248
-3.47600007057189941 11.9969997406005859 -0.795000016689300537
-3.47000002861022949 12.0200004577636719 -0.799000024795532227
-3.48244810104370117 11.9995346069335938 -0.770228564739227295
-3.46283340454101562 11.9770984649658203 -0.791644752025604248
-3.45384812355041504 11.9863653182983398 -0.780706107616424561
-3.53299999237060547 11.8859996795654297 -0.936999976634979248
-3.46608591079711914 12.0273962020874023 -0.880787372589111328
-3.54500007629394531 11.8850002288818359 -0.915000021457672119
-3.54399991035461426 11.8809995651245117 -0.916000008583068848
-3.47502732276916504 12.0210943222045898 -0.71084904670715332
-3.50099968910217285 11.9674968719482422 -1.0260322093963623
-3.51798009872436523 11.921147346496582 -1.03269100189208984
-3.54827237129211426 11.90802001953125 -1.05697762966156006
-3.54699993133544922 11.8970003128051758 -1.04200005531311035
-3.55806660652160645 11.8947696685791016 -1.00295674800872803
-3.56131410598754883 11.8828210830688477 -1.03205585479736328
-3.55766510963439941 11.8831768035888672 -1.01319563388824463
-3.53025126457214355 11.869420051574707 -1.00621187686920166
-3.53200006484985352 11.8850002288818359 -1.0130000114440918
-3.51590728759765625 11.8819980621337891 -1.03626477718353271
-3.49399995803833008 12.0104999542236328 -0.968500018119812012
-3.47004127502441406 12.0423765182495117 -0.730900943279266357
-3.48566150665283203 12.0211553573608398 -0.742823660373687744
-3.4869999885559082 12.0089998245239258 -0.935000002384185791
-3.4719998836517334 12.0069999694824219 -1
-3.47699999809265137 12.0200004577636719 -0.864000022411346436
-3.48510074615478516 12.0301809310913086 -0.739681661128997803
-3.45994067192077637 12.0179262161254883 -0.876756548881530762
-3.46505022048950195 12.021845817565918 -0.865698456764221191
-3.4939727783203125 12.0313329696655273 -0.846657156944274902
-3.47803139686584473 12.0069503784179688 -0.816009163856506348
-3.47499990463256836 12.0129995346069336 -0.804000020027160645
-3.48600006103515625 12.0209999084472656 -0.800999999046325684
-3.46810626983642578 12.0045604705810547 -0.801085829734802246
-3.46399998664855957 12.0150003433227539 -0.791000008583068848
-3.48600006103515625 12.0150003433227539 -0.758000016212463379
-3.45993971824645996 12.0351638793945312 -0.721071362495422363
-3.49960875511169434 12.0154428482055664 -0.711744844913482666
-3.49487757682800293 12.0107717514038086 -0.984696507453918457
-3.56800007820129395 11.9010000228881836 -1.03400003910064697
-3.45752596855163574 12.0096607208251953 -0.973002433776855469
-3.48900008201599121 12.0100002288818359 -0.81400001049041748
-3.48900008201599121 11.9899997711181641 -1.03799998760223389
-3.47745966911315918 11.9669227600097656 -1.03960168361663818
-3.54200005531311035 11.9160003662109375 -1.02999997138977051
-3.55019545555114746 11.8954877853393555 -1.0338585376739502
-3.52691936492919922 11.9172992706298828 -1.02539336681365967
-3.5 11.9320001602172852 -1.0010000467300415
-3.51900005340576172 11.8870000839233398 -1.00800001621246338
-3.51193881034851074 11.9393348693847656 -1.01140427589416504
-3.51099991798400879 11.9280004501342773 -1.01199996471405029
-3.5 11.9409999847412109 -1.0130000114440918
-3.48897337913513184 11.9875154495239258 -1.02473390102386475
-3.4590001106262207 12.0030002593994141 -0.995999991893768311
-3.48399996757507324 12.0109996795654297 -0.989000022411346436
-3.53020882606506348 11.859410285949707 -1.01847481727600098
-3.51919770240783691 11.9069557189941406 -1.04174363613128662
-3.51418757438659668 11.9065742492675781 -1.01863968372344971
-3.54056620597839355 11.9001703262329102 -1.06543862819671631
-3.56299996376037598 11.8979997634887695 -1.03199994564056396
-3.54135513305664062 11.8830089569091797 -1.00803935527801514
-3.52699995040893555 11.8929996490478516 -1.01499998569488525
-3.54200005531311035 11.8920001983642578 -1.00699996948242188
-3.50999999046325684 11.9130001068115234 -1.02099990844726562
-3.51125264167785645 11.9366607666015625 -1.0245434045791626
-3.47399997711181641 12.0170001983642578 -0.792999982833862305
-3.45421719551086426 12.0014972686767578 -0.968296349048614502
-3.53800010681152344 11.8920001983642578 -0.921999990940093994
-3.55500006675720215 11.8909997940063477 -0.913999974727630615
-3.54874634742736816 11.8870162963867188 -0.909548044204711914
-3.47799992561340332 11.9940004348754883 -0.982999980449676514
-3.53766155242919922 11.8606233596801758 -0.923465430736541748
-3.46540045738220215 11.990962028503418 -0.99831312894821167
-3.55999994277954102 11.8730001449584961 -0.926999986171722412
-3.48458480834960938 11.9960613250732422 -0.971154987812042236
-3.49299430847167969 11.9938516616821289 -0.964905261993408203
-3.49245119094848633 11.9910469055175781 -0.959118485450744629
-3.47350406646728516 11.9964389801025391 -0.94732975959777832
-3.47607755661010742 11.9964485168457031 -0.828565120697021484
-3.47699999809265137 11.9960002899169922 -0.809000015258789062
-3.47454524040222168 11.9767980575561523 -0.799793243408203125
-3.46989870071411133 11.9797763824462891 -0.768648147583007812
-3.49200010299682617 11.9759998321533203 -0.950999975204467773
-3.47900009155273438 11.9870004653930664 -0.944000005722045898
-3.47920727729797363 12.0309066772460938 -0.724538743495941162
-3.49836134910583496 12.0360078811645508 -0.720594406127929688
-3.47904038429260254 12.0070152282714844 -0.706958949565887451
-3.45496416091918945 12.0028600692749023 -0.769953787326812744
-3.47399997711181641 12.0190000534057617 -0.73450005054473877
-3.48558282852172852 12.0100059509277344 -0.725905835628509521
-3.46399998664855957 12.0240001678466797 -0.893000006675720215
-3.48865985870361328 12.0109329223632812 -0.944835662841796875
-3.47600007057189941 12.0129995346069336 -0.925000011920928955
-3.4590001106262207 12.005000114440918 -0.93199998140335083
-3.48440122604370117 12.025054931640625 -0.897453248500823975
-3.48399996757507324 12.0170001983642578 -0.884999990463256836
-3.49348592758178711 12.0006294250488281 -0.897089362144470215
-3.48200011253356934 12.0069999694824219 -0.96799999475479126
-3.46114230155944824 12.0275993347167969 -0.912425041198730469
-3.47198605537414551 12.028782844543457 -0.904507577419281006
-3.48490619659423828 12.0055055618286133 -0.889278292655944824
-3.45399999618530273 12 -0.962000012397766113
-3.47600007057189941 12.0270004272460938 -0.880999982357025146
-3.48995804786682129 12.0184183120727539 -0.863562524318695068
-3.46664524078369141 12.0057821273803711 -0.885869204998016357
-3.48390030860900879 12.0016183853149414 -0.872577846050262451
-3.4869999885559082 12.0249996185302734 -0.870999991893768311
-3.48200011253356934 12.0019998550415039 -0.811999976634979248
-3.47972297668457031 12.011810302734375 -0.809666574001312256
-3.45575380325317383 12.000086784362793 -0.791894376277923584
-3.48300004005432129 12.0159997940063477 -0.795000016689300537
-3.46505308151245117 12.0252561569213867 -0.713287055492401123
-3.54800009727478027 11.8879995346069336 -0.916000008583068848
-3.49387526512145996 11.9631376266479492 -0.947813928127288818
-3.56460714340209961 11.8890304565429688 -0.924929976463317871
-3.5409998893737793 11.866999626159668 -0.924000024795532227
-3.53900003433227539 11.9049997329711914 -0.940999984741210938
-3.5477755069732666 11.9347372055053711 -0.970931589603424072
-3.53200006484985352 11.8970003128051758 -0.925999999046325684
-3.5409998893737793 11.9090003967285156 -0.93900001049041748
-3.53699994087219238 11.8940000534057617 -0.957000017166137695
-3.54381918907165527 11.8942985534667969 -0.999116718769073486
-3.52685642242431641 11.8954639434814453 -0.979250967502593994
-3.54799985885620117 11.9020004272460938 -0.996999979019165039
-3.4849998950958252 12.0260000228881836 -0.864000022411346436
-3.46600008010864258 12.0030002593994141 -0.716000020503997803
-3.50223374366760254 11.9806184768676758 -1.04113125801086426
-3.51399993896484375 11.9930000305175781 -1.04999995231628418
-3.48200011253356934 11.9969997406005859 -1.00699996948242188
-3.46496844291687012 11.97662353515625 -1.04307460784912109
-3.47933793067932129 11.9937019348144531 -1.02503657341003418
-3.49200010299682617 11.991999626159668 -1.02699995040893555
-3.51982951164245605 11.9335393905639648 -1.00710487365722656
-3.46700000762939453 11.9600000381469727 -1.03900003433227539
-3.46735668182373047 11.9754276275634766 -1.05978703498840332
-3.47000002861022949 11.9960002899169922 -1.00999999046325684
-3.47300004959106445 11.9989995956420898 -0.913999974727630615
-3.47900009155273438 12.0129995346069336 -0.788999974727630615
-3.48038530349731445 11.9886903762817383 -0.785860836505889893
-3.45798826217651367 11.9860544204711914 -0.760246813297271729
-3.51900005340576172 11.8839998245239258 -0.925000011920928955
-3.51999998092651367 11.8970003128051758 -0.915000021457672119
-3.56200003623962402 11.9029998779296875 -0.921999990940093994
-3.54800009727478027 11.8879995346069336 -0.921999990940093994
-3.5280001163482666 11.8999996185302734 -0.96799999475479126
-3.47808408737182617 12.0078125 -1.00218844413757324
-3.48687577247619629 12.0012712478637695 -1.00638628005981445
-3.43828964233398438 12.009181022644043 -1.00487363338470459
-3.46799993515014648 12.0179996490478516 -1.00699996948242188
-3.44751882553100586 12.0049772262573242 -1.01345205307006836
-3.44161081314086914 12.0247535705566406 -1.01722848415374756
-3.44183540344238281 12.0107183456420898 -1.02270400524139404
-3.44700002670288086 12.0229997634887695 -1.01100003719329834
-3.43414831161499023 12.0208396911621094 -1.02895820140838623
-3.44228482246398926 12.0130214691162109 -1.03557193279266357
-3.55153417587280273 11.881103515625 -0.919317960739135742
-3.5559999942779541 11.8719997406005859 -0.934000015258789062
-3.52600002288818359 11.8879995346069336 -0.930000007152557373
-3.5218803882598877 11.8889980316162109 -0.915566742420196533
-3.53399991989135742 11.8990001678466797 -0.962999999523162842
-3.55500006675720215 11.8929996490478516 -0.938000023365020752
-3.54800009727478027 11.875 -0.929000020027160645
-3.52492213249206543 11.8895597457885742 -0.934336721897125244
-3.53467655181884766 11.892765998840332 -0.943854987621307373
-3.56399989128112793 11.8950004577636719 -0.929000020027160645
-3.47699999809265137 12.005000114440918 -0.981000006198883057
-3.45300006866455078 12 -1.01499998569488525
-3.44299983978271484 12.0305004119873047 -1.01399993896484375
-3.46499991416931152 12.0200004577636719 -1.01100003719329834
-3.50500011444091797 12 -1.05400002002716064
-3.44000005722045898 12.0319995880126953 -1.02300000190734863
-3.44499993324279785 12.0150003433227539 -1.03100001811981201
-3.46499991416931152 12.008000373840332 -1.00499999523162842
-3.46399998664855957 12.0010004043579102 -0.962000012397766113
-3.50799989700317383 11.9940004348754883 -1.04999995231628418
3 117 116 158 255 255 255
3 158 115 117 255 255 255
3 115 196 117 255 255 255
3 158 118 115 255 255 255
3 158 74 118 255 255 255
3 116 74 158 255 255 255
3 116 194 74 255 255 255
3 116 156 194 255 255 255
3 114 156 116 255 255 255
3 118 196 115 255 255 255
3 72 73 118 255 255 255
3 118 74 72 255 255 255
3 116 117 114 255 255 255
3 118 73 130 255 255 255
3 73 197 130 255 255 255
3 72 154 73 255 255 255
3 74 154 72 255 255 255
3 194 154 74 255 255 255
3 194 155 154 255 255 255
3 114 157 156 255 255 255
3 195 202 196 255 255 255
3 196 118 195 255 255 255
3 118 130 195 255 255 255
3 154 198 73 255 255 255
3 155 198 154 255 255 255
3 155 65 198 255 255 255
3 194 199 155 255 255 255
3 156 199 194 255 255 255
3 157 199 156 255 255 255
3 157 260 199 255 255 255
3 114 200 157 255 255 255
3 195 150 202 255 255 255
3 197 195 130 255 255 255
3 198 152 73 255 255 255
3 155 153 65 255 255 255
3 199 57 155 255 255 255
3 200 201 157 255 255 255
3 114 196 200 255 255 255
3 150 203 202 255 255 255
3 197 123 195 255 255 255
3 151 123 197 255 255 255
3 152 121 73 255 255 255
3 153 66 65 255 255 255
3 199 260 57 255 255 255
3 201 260 157 255 255 255
3 201 262 260 255 255 255
3 202 122 196 255 255 255
3 203 189 202 255 255 255
3 195 123 150 255 255 255
3 197 121 151 255 255 255
3 121 197 73 255 255 255
3 152 184 121 255 255 255
3 155 57 52 255 255 255
3 260 261 57 255 255 255
3 261 53 57 255 255 255
3 262 54 260 255 255 255
3 201 66 262 255 255 255
3 196 67 200 255 255 255
3 122 68 196 255 255 255
3 202 69 122 255 255 255
3 203 70 189 255 255 255
3 123 71 150 255 255 255
3 151 121 123 255 255 255
3 121 183 123 255 255 255
3 65 184 198 255 255 255
3 66 67 65 255 255 255
3 153 262 66 255 255 255
3 153 55 262 255 255 255
3 155 52 153 255 255 255
3 52 55 153 255 255 255
3 53 80 57 255 255 255
3 54 43 260 255 255 255
3 262 44 54 255 255 255
3 201 131 66 255 255 255
3 67 201 200 255 255 255
3 196 185 67 255 255 255
3 68 185 196 255 255 255
3 122 271 68 255 255 255
3 69 186 122 255 255 255
3 70 186 189 255 255 255
3 150 68 203 255 255 255
3 71 68 150 255 255 255
3 123 183 71 255 255 255
3 183 185 71 255 255 255
3 184 65 121 255 255 255
3 55 44 262 255 255 255
3 53 58 80 255 255 255
3 54 59 43 255 255 255
3 201 187 131 255 255 255
3 185 183 67 255 255 255
3 186 271 122 255 255 255
3 186 188 271 255 255 255
3 52 60 55 255 255 255
3 56 61 57 255 255 255
3 57 80 56 255 255 255
3 58 76 80 255 255 255
3 53 77 58 255 255 255
3 261 77 53 255 255 255
3 261 78 77 255 255 255
3 54 78 261 255 255 255
3 59 57 43 255 255 255
3 187 114 131 255 255 255
3 68 71 185 255 255 255
3 186 132 188 255 255 255
3 70 132 186 255 255 255
3 70 149 132 255 255 255
3 68 271 203 255 255 255
3 60 79 55 255 255 255
3 60 302 79 255 255 255
3 61 43 57 255 255 255
3 61 262 43 255 255 255
3 76 45 80 255 255 255
3 58 144 76 255 255 255
3 77 301 58 255 255 255
3 78 298 77 255 255 255
3 59 55 57 255 255 255
3 187 196 114 255 255 255
3 188 203 271 255 255 255
3 188 70 203 255 255 255
3 189 190 69 255 255 255
3 69 202 189 255 255 255
3 70 119 149 255 255 255
3 55 256 44 255 255 255
3 79 38 55 255 255 255
3 60 299 302 255 255 255
3 52 56 60 255 255 255
3 80 45 56 255 255 255
3 76 300 45 255 255 255
3 58 301 144 255 255 255
3 298 79 77 255 255 255
3 190 70 188 255 255 255
3 190 119 70 255 255 255
3 188 69 190 255 255 255
3 191 133 149 255 255 255
3 149 120 191 255 255 255
3 119 120 149 255 255 255
3 119 182 120 255 255 255
3 79 78 38 255 255 255
3 299 144 302 255 255 255
3 60 303 299 255 255 255
3 56 45 60 255 255 255
3 300 253 45 255 255 255
3 76 254 300 255 255 255
3 301 206 144 255 255 255
3 79 302 77 255 255 255
3 302 301 77 255 255 255
3 302 255 301 255 255 255
3 119 272 182 255 255 255
3 299 300 144 255 255 255
3 303 46 299 255 255 255
3 253 303 45 255 255 255
3 300 294 253 255 255 255
3 254 295 300 255 255 255
3 301 296 206 255 255 255
3 301 297 279 255 255 255
3 255 257 301 255 255 255
3 255 258 257 255 255 255
3 302 259 255 255 255 255
3 191 13 133 255 255 255
3 120 14 191 255 255 255
3 182 272 120 255 255 255
3 119 15 272 255 255 255
3 119 16 15 255 255 255
3 256 47 44 255 255 255
3 256 79 47 255 255 255
3 300 81 144 255 255 255
3 299 82 300 255 255 255
3 303 83 46 255 255 255
3 303 60 45 255 255 255
3 294 82 253 255 255 255
3 295 84 300 255 255 255
3 254 210 295 255 255 255
3 296 297 206 255 255 255
3 301 279 296 255 255 255
3 297 280 279 255 255 255
3 257 280 301 255 255 255
3 258 83 257 255 255 255
3 259 298 255 255 255 255
3 302 76 259 255 255 255
3 13 285 133 255 255 255
3 14 13 191 255 255 255
3 14 211 13 255 255 255
3 15 17 272 255 255 255
3 16 17 15 255 255 255
3 79 85 47 255 255 255
3 81 296 144 255 255 255
3 82 294 300 255 255 255
3 83 258 46 255 255 255
3 303 281 83 255 255 255
3 84 282 300 255 255 255
3 295 303 84 255 255 255
3 254 48 210 255 255 255
3 297 301 280 255 255 255
3 257 206 280 255 255 255
3 259 283 298 255 255 255
3 14 19 211 255 255 255
3 17 18 272 255 255 255
3 85 258 47 255 255 255
3 79 259 85 255 255 255
3 81 297 296 255 255 255
3 82 207 253 255 255 255
3 82 208 207 255 255 255
3 206 297 280 255 255 255
3 18 268 272 255 255 255
3 16 20 17 255 255 255
3 119 21 16 255 255 255
3 259 299 85 255 255 255
3 297 280 296 255 255 255
3 81 210 297 255 255 255
3 207 281 253 255 255 255
3 208 206 207 255 255 255
3 82 294 208 255 255 255
3 82 84 212 255 255 255
3 13 177 285 255 255 255
3 209 177 13 255 255 255
3 209 213 177 255 255 255
3 13 211 209 255 255 255
3 19 286 211 255 255 255
3 18 273 268 255 255 255
3 17 20 18 255 255 255
3 20 273 18 255 255 255
3 16 22 20 255 255 255
3 21 22 16 255 255 255
3 119 265 21 255 255 255
3 297 146 280 255 255 255
3 210 279 297 255 255 255
3 207 251 281 255 255 255
3 208 146 206 255 255 255
3 82 212 294 255 255 255
3 82 207 84 255 255 255
3 284 124 285 255 255 255
3 211 107 192 255 255 255
3 22 273 20 255 255 255
3 21 265 22 255 255 255
3 119 149 265 255 255 255
3 297 282 146 255 255 255
3 210 48 279 255 255 255
3 212 81 294 255 255 255
3 124 133 285 255 255 255
3 124 127 133 255 255 255
3 285 193 284 255 255 255
3 213 159 177 255 255 255
3 214 159 213 255 255 255
3 214 215 159 255 255 255
3 213 23 214 255 255 255
3 192 106 211 255 255 255
3 211 286 107 255 255 255
3 286 306 107 255 255 255
3 286 19 288 255 255 255
3 22 268 273 255 255 255
3 22 126 268 255 255 255
3 265 125 22 255 255 255
3 266 125 265 255 255 255
3 149 127 265 255 255 255
3 208 147 146 255 255 255
3 124 128 127 255 255 255
3 284 274 124 255 255 255
3 287 274 284 255 255 255
3 287 307 274 255 255 255
3 284 12 287 255 255 255
3 193 163 284 255 255 255
3 285 177 193 255 255 255
3 215 24 159 255 255 255
3 214 25 215 255 255 255
3 23 25 214 255 255 255
3 213 209 23 255 255 255
3 267 14 211 255 255 255
3 211 284 267 255 255 255
3 106 163 211 255 255 255
3 192 12 106 255 255 255
3 286 289 306 255 255 255
3 268 126 88 255 255 255
3 22 128 126 255 255 255
3 125 308 22 255 255 255
3 149 133 127 255 255 255
3 124 269 128 255 255 255
3 269 126 128 255 255 255
3 124 274 269 255 255 255
3 287 107 307 255 255 255
3 24 230 159 255 255 255
3 214 26 25 255 255 255
3 25 27 214 255 255 255
3 23 28 25 255 255 255
3 267 269 14 255 255 255
3 286 292 289 255 255 255
3 288 290 286 255 255 255
3 126 269 88 255 255 255
3 22 313 128 255 255 255
3 125 266 308 255 255 255
3 266 127 308 255 255 255
3 127 266 265 255 255 255
3 128 308 127 255 255 255
3 107 291 307 255 255 255
3 24 162 230 255 255 255
3 26 23 25 255 255 255
3 27 215 214 255 255 255
3 25 29 27 255 255 255
3 28 252 25 255 255 255
3 267 270 269 255 255 255
3 289 292 306 255 255 255
3 286 290 292 255 255 255
3 290 293 292 255 255 255
3 22 125 313 255 255 255
3 269 120 88 255 255 255
3 291 289 307 255 255 255
3 107 306 291 255 255 255
3 24 31 162 255 255 255
3 215 30 24 255 255 255
3 214 108 26 255 255 255
3 29 30 27 255 255 255
3 292 309 306 255 255 255
3 269 270 120 255 255 255
3 270 181 120 255 255 255
3 289 290 307 255 255 255
3 30 31 24 255 255 255
3 30 221 31 255 255 255
3 108 109 26 255 255 255
3 214 110 108 255 255 255
3 29 28 30 255 255 255
3 23 222 28 255 255 255
3 292 310 309 255 255 255
3 270 128 181 255 255 255
3 290 305 307 255 255 255
3 289 293 290 255 255 255
3 289 309 293 255 255 255
3 31 111 162 255 255 255
3 32 111 31 255 255 255
3 109 112 26 255 255 255
3 108 62 109 255 255 255
3 110 62 108 255 255 255
3 28 222 30 255 255 255
3 29 252 28 255 255 255
3 23 26 222 255 255 255
3 26 216 222 255 255 255
3 292 293 310 255 255 255
3 293 305 310 255 255 255
3 305 311 307 255 255 255
3 32 100 111 255 255 255
3 109 113 112 255 255 255
3 110 193 62 255 255 255
3 216 135 222 255 255 255
3 305 290 310 255 255 255
3 290 291 310 255 255 255
3 293 19 305 255 255 255
3 305 274 311 255 255 255
3 111 103 162 255 255 255
3 32 235 100 255 255 255
3 112 230 26 255 255 255
3 113 102 112 255 255 255
3 109 240 113 255 255 255
3 193 0 62 255 255 255
3 135 39 222 255 255 255
3 290 288 291 255 255 255
3 111 104 103 255 255 255
3 100 104 111 255 255 255
3 100 233 104 255 255 255
3 32 105 235 255 255 255
3 101 231 112 255 255 255
3 102 232 112 255 255 255
3 109 205 240 255 255 255
3 39 31 222 255 255 255
3 135 232 39 255 255 255
3 103 112 162 255 255 255
3 104 238 103 255 255 255
3 100 234 233 255 255 255
3 105 239 235 255 255 255
3 230 236 26 255 255 255
3 231 162 112 255 255 255
3 231 104 162 255 255 255
3 101 237 231 255 255 255
3 109 136 205 255 255 255
3 110 236 159 255 255 255
3 39 32 31 255 255 255
3 232 49 39 255 255 255
3 216 240 135 255 255 255
3 103 1 112 255 255 255
3 103 238 63 255 255 255
3 233 238 104 255 255 255
3 234 134 233 255 255 255
3 100 239 234 255 255 255
3 235 239 100 255 255 255
3 105 243 239 255 255 255
3 105 99 243 255 255 255
3 32 275 105 255 255 255
3 236 136 26 255 255 255
3 230 109 236 255 255 255
3 230 112 109 255 255 255
3 231 275 104 255 255 255
3 237 99 231 255 255 255
3 101 1 237 255 255 255
3 236 108 159 255 255 255
3 110 62 236 255 255 255
3 232 102 49 255 255 255
3 102 63 49 255 255 255
3 216 312 240 255 255 255
3 238 3 63 255 255 255
3 233 3 238 255 255 255
3 234 241 134 255 255 255
3 239 242 234 255 255 255
3 32 39 275 255 255 255
3 39 49 275 255 255 255
3 112 2 109 255 255 255
3 136 179 205 255 255 255
3 236 136 108 255 255 255
3 62 136 236 255 255 255
3 102 101 63 255 255 255
3 237 49 63 255 255 255
3 63 3 237 255 255 255
3 233 145 3 255 255 255
3 64 145 233 255 255 255
3 241 145 134 255 255 255
3 234 242 241 255 255 255
3 242 263 241 255 255 255
3 239 244 242 255 255 255
3 243 244 239 255 255 255
3 243 5 244 255 255 255
3 2 179 109 255 255 255
3 237 6 99 255 255 255
3 136 304 179 255 255 255
3 62 0 136 255 255 255
3 102 2 101 255 255 255
3 3 229 237 255 255 255
3 241 4 145 255 255 255
3 64 4 145 255 255 255
3 244 89 242 255 255 255
3 243 166 5 255 255 255
3 2 205 179 255 255 255
3 237 229 6 255 255 255
3 136 137 304 255 255 255
3 102 113 2 255 255 255
3 113 205 2 255 255 255
3 3 145 229 255 255 255
3 4 166 145 255 255 255
3 241 245 4 255 255 255
3 242 168 263 255 255 255
3 5 89 244 255 255 255
3 5 90 89 255 255 255
3 166 167 5 255 255 255
3 243 6 166 255 255 255
3 6 243 99 255 255 255
3 137 0 304 255 255 255
3 113 135 205 255 255 255
3 4 167 166 255 255 255
3 245 263 4 255 255 255
3 241 64 245 255 255 255
3 89 168 242 255 255 255
3 89 8 168 255 255 255
3 89 90 217 255 255 255
3 6 229 166 255 255 255
3 89 217 8 255 255 255
3 90 10 217 255 255 255
3 5 7 90 255 255 255
3 167 7 5 255 255 255
3 113 232 135 255 255 255
3 167 241 145 255 255 255
3 168 91 263 255 255 255
3 90 7 10 255 255 255
3 167 164 241 255 255 255
3 91 167 263 255 255 255
3 92 7 168 255 255 255
3 7 91 168 255 255 255
3 7 167 91 255 255 255
3 168 36 92 255 255 255
3 8 9 168 255 255 255
3 217 218 8 255 255 255
3 7 92 10 255 255 255
3 92 9 10 255 255 255
3 9 36 168 255 255 255
3 9 247 36 255 255 255
3 8 180 9 255 255 255
3 8 246 180 255 255 255
3 218 246 8 255 255 255
3 217 219 218 255 255 255
3 10 138 217 255 255 255
3 246 11 180 255 255 255
3 218 139 246 255 255 255
3 219 139 218 255 255 255
3 219 277 139 255 255 255
3 138 219 217 255 255 255
3 138 172 219 255 255 255
3 10 169 138 255 255 255
3 169 170 138 255 255 255
3 9 169 10 255 255 255
3 247 169 36 255 255 255
3 11 171 180 255 255 255
3 246 138 11 255 255 255
3 277 86 139 255 255 255
3 138 169 172 255 255 255
3 170 139 138 255 255 255
3 171 204 247 255 255 255
3 171 247 180 255 255 255
3 11 93 171 255 255 255
3 86 93 139 255 255 255
3 172 248 219 255 255 255
3 138 246 169 255 255 255
3 139 40 138 255 255 255
3 170 140 139 255 255 255
3 204 172 247 255 255 255
3 171 249 204 255 255 255
3 11 37 93 255 255 255
3 93 249 139 255 255 255
3 219 220 277 255 255 255
3 277 40 219 255 255 255
3 248 142 219 255 255 255
3 248 143 142 255 255 255
3 40 219 138 255 255 255
3 140 204 139 255 255 255
3 170 247 140 255 255 255
3 172 169 247 255 255 255
3 204 173 172 255 255 255
3 11 86 37 255 255 255
3 249 247 139 255 255 255
3 277 220 86 255 255 255
3 219 142 220 255 255 255
3 172 173 248 255 255 255
3 173 226 248 255 255 255
3 204 276 139 255 255 255
3 204 94 173 255 255 255
3 86 141 37 255 255 255
3 141 94 37 255 255 255
3 220 41 86 255 255 255
3 142 278 220 255 255 255
3 143 278 142 255 255 255
3 248 226 143 255 255 255
3 94 226 173 255 255 255
3 94 276 37 255 255 255
3 86 41 141 255 255 255
3 41 95 141 255 255 255
3 143 226 278 255 255 255
3 94 87 226 255 255 255
3 94 95 87 255 255 255
3 141 42 94 255 255 255
3 95 174 141 255 255 255
3 41 42 95 255 255 255
3 220 42 41 255 255 255
3 278 42 220 255 255 255
3 94 174 95 255 255 255
3 42 87 94 255 255 255
3 174 37 141 255 255 255
3 278 226 42 255 255 255
3 250 148 96 255 255 255
3 96 175 250 255 255 255
3 148 264 96 255 255 255
3 250 175 35 255 255 255
3 148 225 264 255 255 255
3 250 35 148 255 255 255
3 175 160 35 255 255 255
3 227 51 175 255 255 255
3 175 96 227 255 255 255
3 96 228 227 255 255 255
3 35 224 148 255 255 255
3 160 223 35 255 255 255
3 51 160 175 255 255 255
3 227 161 51 255 255 255
3 228 161 227 255 255 255
3 148 97 225 255 255 255
3 148 224 97 255 255 255
3 224 176 97 255 255 255
3 228 34 161 255 255 255
3 96 264 228 255 255 255
3 97 98 225 255 255 255
3 51 161 174 255 255 255
3 228 98 34 255 255 255
3 228 264 225 255 255 255
3 98 50 225 255 255 255
3 160 165 223 255 255 255
3 160 51 165 255 255 255
3 161 75 174 255 255 255
3 34 75 161 255 255 255
3 34 176 75 255 255 255
3 224 165 75 255 255 255
3 224 35 223 255 255 255
3 176 224 75 255 255 255
3 34 50 176 255 255 255
3 224 223 165 255 255 255
3 129 178 33 255 255 255
