ply
format ascii 1.0
element vertex 346
property float x
property float y
property float z
element face 576
property list uchar int vertex_indices
property uchar red
property uchar green
property uchar blue
end_header
0.661797106266021729 0.28333321213722229 -0.896745920181274414
0.695211231708526611 0.326009482145309448 -0.872754275798797607
0.629741251468658447 0.252580553293228149 -0.913980245590209961
0.618938028812408447 0.288527101278305054 -0.950363457202911377
0.620000004768371582 0.289000004529953003 -0.861999988555908203
0.594474613666534424 0.256423383951187134 -0.990366458892822266
0.689806222915649414 0.346890002489089966 -0.855660140514373779
0.654999971389770508 0.344000011682510376 -0.856000006198883057
0.659777939319610596 0.287127047777175903 -0.803690552711486816
0.669091105461120605 0.281928658485412598 -0.852200746536254883
0.628121256828308105 0.303035914897918701 -0.989406168460845947
0.628625452518463135 0.317123115062713623 -0.738067209720611572
0.620621740818023682 0.272869765758514404 -0.809240102767944336
0.625 0.335500001907348633 -0.809000015258789062
0.67101597785949707 0.259748071432113647 -0.852077484130859375
0.650050818920135498 0.232590168714523315 -1.00699567794799805
0.622984707355499268 0.314229458570480347 -1.0272529125213623
0.661006450653076172 0.311164140701293945 -1.03451025485992432
0.623000025749206543 0.307000011205673218 -1.00999999046325684
0.615000009536743164 0.293000012636184692 -1.02100002765655518
0.640007674694061279 0.319152474403381348 -1.02755355834960938
0.652920901775360107 0.24747823178768158 -1.02437496185302734
0.63200002908706665 0.303000003099441528 -1.02999997138977051
0.635999977588653564 0.289999991655349731 -1.0429999828338623
0.60269773006439209 0.249965354800224304 -1.0133521556854248
0.655153214931488037 0.335892170667648315 -0.87161099910736084
0.675652503967285156 0.298897713422775269 -0.851114809513092041
0.607359170913696289 0.286797851324081421 -0.939690053462982178
0.671226441860198975 0.233847647905349731 -0.888272941112518311
0.618123233318328857 0.308413475751876831 -0.764854550361633301
0.599909305572509766 0.300385385751724243 -0.909645199775695801
0.674000024795532227 0.243000000715255737 -0.865999996662139893
0.586712300777435303 0.292368859052658081 -0.803344130516052246
0.628000020980834961 0.279000014066696167 -0.935000002384185791
0.677850067615509033 0.237692058086395264 -0.847271859645843506
0.601996362209320068 0.329208254814147949 -0.837661266326904297
0.670510947704315186 0.297268152236938477 -0.870179533958435059
0.676999986171722412 0.31099998950958252 -0.825999975204467773
0.604678094387054443 0.270177006721496582 -0.806280851364135742
0.606450200080871582 0.279479026794433594 -0.829329788684844971
0.649585604667663574 0.25211024284362793 -0.833523094654083252
0.645661592483520508 0.319838076829910278 -0.812161266803741455
0.587922215461730957 0.298683315515518188 -0.836730778217315674
0.64237743616104126 0.329104393720626831 -0.749969303607940674
0.657132387161254883 0.233208209276199341 -0.929334461688995361
0.684338688850402832 0.32805284857749939 -0.737671136856079102
0.63750004768371582 0.273499995470046997 -0.987500011920928955
0.673502624034881592 0.237134248018264771 -0.978008151054382324
0.643030822277069092 0.3334827721118927 -0.773691296577453613
0.638000011444091797 0.326000005006790161 -0.859000027179718018
0.636677145957946777 0.321773737668991089 -0.924071431159973145
0.621999979019165039 0.284000009298324585 -0.875
0.674202442169189453 0.282522380352020264 -0.960973978042602539
0.627276062965393066 0.279010176658630371 -0.760922372341156006
0.680422008037567139 0.310360193252563477 -0.738387227058410645
0.630927920341491699 0.281767606735229492 -0.740566730499267578
0.63166964054107666 0.26892852783203125 -0.854538381099700928
0.634999990463256836 0.273999989032745361 -0.888999998569488525
0.600351929664611816 0.30464017391204834 -0.836225748062133789
0.600244462490081787 0.294748991727828979 -0.867958664894104004
0.634000003337860107 0.289999991655349731 -0.768999993801116943
0.586000025272369385 0.317999988794326782 -0.813000023365020752
0.672999978065490723 0.319000005722045898 -0.842000007629394531
0.643000006675720215 0.272000014781951904 -0.880999982357025146
0.648000001907348633 0.305999994277954102 -0.860000014305114746
0.671999990940093994 0.330000013113021851 -0.884999990463256836
0.668504595756530762 0.320281237363815308 -0.82041555643081665
0.625 0.287999987602233887 -0.861000001430511475
0.634000003337860107 0.321999996900558472 -0.749000012874603271
0.613696515560150146 0.281492888927459717 -0.878511488437652588
0.632886886596679688 0.319499492645263672 -0.863697826862335205
0.667711615562438965 0.283311843872070312 -0.838683545589447021
0.673824965953826904 0.297946155071258545 -0.733556210994720459
0.663999974727630615 0.25 -0.884999990463256836
0.585000038146972656 0.293500006198883057 -0.823750019073486328
0.643701016902923584 0.236376702785491943 -0.922841966152191162
0.658124327659606934 0.341248273849487305 -0.84426802396774292
0.641267597675323486 0.320664107799530029 -0.9353829026222229
0.669917106628417969 0.243223845958709717 -0.905426144599914551
0.61012643575668335 0.332672148942947388 -0.823187172412872314
0.664535701274871826 0.316475123167037964 -0.955117762088775635
0.643000006675720215 0.344000011682510376 -0.855000019073486328
0.673219799995422363 0.337260961532592773 -0.831618547439575195
0.63517993688583374 0.302106201648712158 -0.973153352737426758
0.656860947608947754 0.33905598521232605 -0.776945590972900391
0.674000024795532227 0.28049999475479126 -0.936499953269958496
0.594169080257415771 0.317866504192352295 -0.797028779983520508
0.652999997138977051 0.319000005722045898 -0.855000019073486328
0.63200002908706665 0.294999986886978149 -0.862999975681304932
0.674000024795532227 0.303000003099441528 -0.834999978542327881
0.615473508834838867 0.275627195835113525 -0.893918097019195557
0.686155200004577637 0.339568972587585449 -0.837393999099731445
0.654000997543334961 0.297921359539031982 -0.799355924129486084
0.664629578590393066 0.214876413345336914 -0.84567105770111084
0.626899123191833496 0.28406447172164917 -0.822306454181671143
0.670000016689300537 0.287999987602233887 -0.785000026226043701
0.624868988990783691 0.307563304901123047 -0.890665173530578613
0.667999982833862305 0.300999999046325684 -0.813000023365020752
0.663244545459747314 0.314073234796524048 -0.801647603511810303
0.665911674499511719 0.300064831972122192 -0.899867057800292969
0.658541023731231689 0.283914119005203247 -0.876637756824493408
0.670691072940826416 0.322886556386947632 -0.926728367805480957
0.63200002908706665 0.321000009775161743 -0.74299997091293335
0.678901195526123047 0.251837551593780518 -0.837615609169006348
0.635953962802886963 0.291144043207168579 -0.817648470401763916
0.658083736896514893 0.286825835704803467 -0.919494807720184326
0.629999995231628418 0.272000014781951904 -0.89999997615814209
0.614373505115509033 0.283385097980499268 -0.968914330005645752
0.676203548908233643 0.337364137172698975 -0.871087014675140381
0.624108493328094482 0.312981724739074707 -0.921667337417602539
0.631714105606079102 0.254075586795806885 -0.841560959815979004
0.590178191661834717 0.292561650276184082 -0.84741663932800293
0.587000012397766113 0.31099998950958252 -0.837999999523162842
0.660263121128082275 0.310007214546203613 -0.918340086936950684
0.663999974727630615 0.277000010013580322 -0.824999988079071045
0.65700000524520874 0.294999986886978149 -0.791000008583068848
0.609673559665679932 0.272897392511367798 -1.03395164012908936
0.640084445476531982 0.314788550138473511 -1.04189658164978027
0.656090974807739258 0.290931940078735352 -1.03845012187957764
0.632657945156097412 0.24877561628818512 -1.01043224334716797
0.615999996662139893 0.252999991178512573 -1.02300000190734863
0.6025276780128479 0.273117750883102417 -1.01784598827362061
0.644196748733520508 0.269191741943359375 -1.05238008499145508
0.612671256065368652 0.25668412446975708 -1.03206121921539307
0.624000012874603271 0.301999986171722412 -1.01100003719329834
0.644136726856231689 0.257009118795394897 -1.00881063938140869
0.628770411014556885 0.251465111970901489 -0.863737821578979492
0.609418511390686035 0.252257615327835083 -0.98450702428817749
0.678017914295196533 0.312531501054763794 -0.845892667770385742
0.656091511249542236 0.289525002241134644 -0.820219337940216064
0.675570189952850342 0.300157129764556885 -0.959020674228668213
0.670918703079223633 0.21975669264793396 -0.835148930549621582
0.654533803462982178 0.232308059930801392 -0.912799596786499023
0.640485167503356934 0.221357673406600952 -0.985580682754516602
0.625816762447357178 0.325711101293563843 -0.842462837696075439
0.648985445499420166 0.219798237085342407 -0.874755263328552246
0.645586490631103516 0.237340450286865234 -0.960263609886169434
0.614000022411346436 0.28600001335144043 -0.855000019073486328
0.645072758197784424 0.288494318723678589 -0.999548077583312988
0.643906652927398682 0.319309443235397339 -0.886659324169158936
0.688517928123474121 0.30824550986289978 -0.753861308097839355
0.616999983787536621 0.317000001668930054 -0.804000020027160645
0.665000021457672119 0.301999986171722412 -0.852999985218048096
0.683786749839782715 0.25204169750213623 -0.989759683609008789
0.637000024318695068 0.268000006675720215 -0.845000028610229492
0.615911483764648438 0.252349495887756348 -0.939891159534454346
0.634999990463256836 0.28200000524520874 -0.977999985218048096
0.622732102870941162 0.321474611759185791 -0.754794478416442871
0.659293413162231445 0.327721476554870605 -0.879211187362670898
0.664915204048156738 0.250127613544464111 -0.89429551362991333
0.622625648975372314 0.304298937320709229 -0.945915699005126953
0.656295537948608398 0.276967942714691162 -0.910580456256866455
0.635387897491455078 0.331205904483795166 -0.842932403087615967
0.643000006675720215 0.342000007629394531 -0.851999998092651367
0.695461094379425049 0.321333438158035278 -0.843947172164916992
0.680666685104370117 0.248198702931404114 -0.943185031414031982
0.632980942726135254 0.315796226263046265 -1.00531697273254395
0.651803731918334961 0.268224924802780151 -1.00248086452484131
0.648502528667449951 0.260041177272796631 -1.02436518669128418
0.650861263275146484 0.252392351627349854 -1.00065040588378906
0.621230900287628174 0.295184314250946045 -1.00421977043151855
0.648750185966491699 0.308453917503356934 -1.01817858219146729
0.646261751651763916 0.284996569156646729 -1.02464878559112549
0.652999997138977051 0.238999992609024048 -1.02199995517730713
0.62106633186340332 0.267583698034286499 -1.05020546913146973
0.634817659854888916 0.272746860980987549 -1.05526208877563477
0.672144234180450439 0.277632743120193481 -0.979170024394989014
0.661739230155944824 0.327088505029678345 -0.860947489738464355
0.67354428768157959 0.280302733182907104 -0.93375474214553833
0.667999982833862305 0.289000004529953003 -0.788999974727630615
0.663423776626586914 0.252293795347213745 -0.919322192668914795
0.665000021457672119 0.32699999213218689 -0.901000022888183594
0.646894395351409912 0.319330215454101562 -0.902906894683837891
0.640408873558044434 0.230040967464447021 -0.842945098876953125
0.611570894718170166 0.265550076961517334 -0.958785355091094971
0.580999970436096191 0.314999997615814209 -0.819000005722045898
0.672438681125640869 0.287454962730407715 -0.766886711120605469
0.619278252124786377 0.265860766172409058 -0.83270418643951416
0.658999979496002197 0.331000000238418579 -0.898000001907348633
0.667547047138214111 0.284778803586959839 -0.786059558391571045
0.662999987602233887 0.335999995470046997 -0.892000019550323486
0.608967125415802002 0.278896480798721313 -0.996438562870025635
0.640355229377746582 0.315470188856124878 -0.735282301902770996
0.683227479457855225 0.309106677770614624 -0.887419402599334717
0.66100001335144043 0.259999990463256836 -0.828999996185302734
0.671000003814697266 0.301999986171722412 -0.778999984264373779
0.614401936531066895 0.314292401075363159 -0.864997804164886475
0.65700000524520874 0.293999999761581421 -0.787999987602233887
0.645369768142700195 0.331712037324905396 -0.924553275108337402
0.634692370891571045 0.330973803997039795 -0.825698792934417725
0.672712862491607666 0.319312155246734619 -0.868974626064300537
0.639999985694885254 0.289999991655349731 -0.879000008106231689
0.643000006675720215 0.268999993801116943 -0.898999989032745361
0.615728080272674561 0.321274399757385254 -0.851099908351898193
0.606671988964080811 0.290068268775939941 -0.925042092800140381
0.623000025749206543 0.291000008583068848 -0.78600001335144043
0.59611433744430542 0.292887747287750244 -0.855416536331176758
0.675000011920928955 0.259999990463256836 -0.86799997091293335
0.620999991893768311 0.259999990463256836 -0.892000019550323486
0.670763731002807617 0.251892924308776855 -0.988057255744934082
0.658524274826049805 0.271080940961837769 -0.754028737545013428
0.599545061588287354 0.262587845325469971 -0.999444842338562012
0.674499988555908203 0.307999998331069946 -0.850999951362609863
0.596819639205932617 0.304156094789505005 -0.801192283630371094
0.663205564022064209 0.329533815383911133 -0.836732625961303711
0.615411698818206787 0.262378543615341187 -0.843841075897216797
0.657912611961364746 0.295368582010269165 -0.988434553146362305
0.648443639278411865 0.218935191631317139 -0.845378696918487549
0.629999995231628418 0.300000011920928955 -0.753000020980834961
0.676763653755187988 0.325716376304626465 -0.898007571697235107
0.679262042045593262 0.31085205078125 -0.857390940189361572
0.609880149364471436 0.311646819114685059 -0.873312711715698242
0.64656364917755127 0.281818985939025879 -0.870114743709564209
0.655678272247314453 0.332174837589263916 -0.922011494636535645
0.652999997138977051 0.273000001907348633 -0.88200002908706665
0.635999977588653564 0.268999993801116943 -0.94300001859664917
0.654712677001953125 0.316168516874313354 -0.733212709426879883
0.662999987602233887 0.256000012159347534 -0.879999995231628418
0.637000024318695068 0.330000013113021851 -0.865999996662139893
0.662438452243804932 0.340050488710403442 -0.757806777954101562
0.640937685966491699 0.293706208467483521 -0.786207139492034912
0.675163745880126953 0.256920009851455688 -0.946500003337860107
0.66742318868637085 0.247046023607254028 -0.932815909385681152
0.657875776290893555 0.327277630567550659 -0.94289851188659668
0.620000004768371582 0.307000011205673218 -0.799000024795532227
0.646088302135467529 0.234663709998130798 -0.971979081630706787
0.673715174198150635 0.23510153591632843 -0.962232828140258789
0.66921001672744751 0.221921399235725403 -0.86835944652557373
0.661161363124847412 0.229487404227256775 -0.996789455413818359
0.632957994937896729 0.234853759407997131 -0.951493382453918457
0.624660670757293701 0.242363050580024719 -0.999486744403839111
0.622500002384185791 0.237000003457069397 -0.965999960899353027
0.676473319530487061 0.238774403929710388 -0.915929019451141357
0.674000024795532227 0.246000006794929504 -0.875
0.648520827293395996 0.247115746140480042 -0.882229804992675781
0.660332560539245605 0.291021525859832764 -0.828966081142425537
0.632094919681549072 0.2441558837890625 -0.909560263156890869
0.654999971389770508 0.28200000524520874 -0.88200002908706665
0.676917135715484619 0.353660702705383301 -0.850456655025482178
0.598999977111816406 0.301999986171722412 -0.852999985218048096
0.603316843509674072 0.291631311178207397 -0.896888792514801025
0.615721464157104492 0.280456095933914185 -0.988751828670501709
0.671197950839996338 0.268820792436599731 -0.834336400032043457
0.63420027494430542 0.220070257782936096 -0.85205310583114624
0.662334561347961426 0.249927714467048645 -0.988049089908599854
0.626861691474914551 0.245049193501472473 -0.926529943943023682
0.629999995231628418 0.319999992847442627 -0.745999991893768311
0.64999997615814209 0.317000001668930054 -0.778999984264373779
0.65350872278213501 0.230598419904708862 -0.948856234550476074
0.621097683906555176 0.240244179964065552 -0.981896638870239258
0.583147764205932617 0.308000832796096802 -0.820702672004699707
0.633000016212463379 0.303000003099441528 -0.75
0.674992144107818604 0.258947461843490601 -0.976016759872436523
0.657506048679351807 0.304039984941482544 -0.972277820110321045
0.620999991893768311 0.280000001192092896 -0.892000019550323486
0.671590447425842285 0.300463885068893433 -0.886482536792755127
0.689989805221557617 0.327779263257980347 -0.841754138469696045
0.670894801616668701 0.302554190158843994 -0.936724960803985596
0.636645793914794922 0.282730638980865479 -0.772695541381835938
0.664018929004669189 0.306648790836334229 -0.877782046794891357
0.671611249446868896 0.287330806255340576 -0.810344874858856201
0.667327940464019775 0.274284660816192627 -0.817498385906219482
0.598449349403381348 0.258116066455841064 -0.972571015357971191
0.667231142520904541 0.346878170967102051 -0.865224361419677734
0.646647751331329346 0.313709557056427002 -0.793598592281341553
0.645078897476196289 0.262189894914627075 -0.830686509609222412
0.701526999473571777 0.337962716817855835 -0.860036015510559082
0.668590009212493896 0.285275429487228394 -0.7433663010597229
0.645686566829681396 0.271177381277084351 -1.03551995754241943
0.638515353202819824 0.242036744952201843 -1.01935243606567383
0.62809377908706665 0.290912896394729614 -1.02534866333007812
0.653344810009002686 0.243970543146133423 -1.04323017597198486
0.637338757514953613 0.235920250415802002 -1.03392148017883301
0.653999984264373779 0.238000005483627319 -1.01900005340576172
0.619440674781799316 0.276910156011581421 -1.04373764991760254
0.63193511962890625 0.25466570258140564 -1.03621840476989746
0.648999989032745361 0.237000003457069397 -1.02199995517730713
0.662000000476837158 0.333000004291534424 -0.89999997615814209
0.616265296936035156 0.303838133811950684 -0.903811097145080566
0.631092488765716553 0.303442478179931641 -0.783730566501617432
0.646060287952423096 0.327643215656280518 -0.772364974021911621
0.599579930305480957 0.280170857906341553 -0.966092407703399658
0.678058624267578125 0.324230849742889404 -0.759546458721160889
0.634000003337860107 0.263999998569488525 -0.973999977111816406
0.648999989032745361 0.316000014543533325 -0.86799997091293335
0.590885341167449951 0.324436157941818237 -0.812412142753601074
0.683747947216033936 0.322978824377059937 -0.876685619354248047
0.651818811893463135 0.260296434164047241 -0.89620506763458252
0.646080434322357178 0.263026982545852661 -0.886988341808319092
0.65468209981918335 0.228567153215408325 -0.892208516597747803
0.643999993801116943 0.280000001192092896 -0.936999976634979248
0.60355687141418457 0.278590291738510132 -0.923919141292572021
0.579088151454925537 0.31503257155418396 -0.803247451782226562
0.635875463485717773 0.290190577507019043 -0.783640205860137939
0.624291956424713135 0.310891568660736084 -0.768669784069061279
0.673980236053466797 0.329903602600097656 -0.891963422298431396
0.693274199962615967 0.311827957630157471 -0.856207072734832764
0.660137474536895752 0.228360891342163086 -0.830536127090454102
0.67717820405960083 0.298119127750396729 -0.800040781497955322
0.621462106704711914 0.266109704971313477 -0.82312244176864624
0.674427509307861328 0.296463489532470703 -0.976441323757171631
0.645869135856628418 0.334502995014190674 -0.762300014495849609
0.634675323963165283 0.243684887886047363 -0.995569825172424316
0.647739708423614502 0.269393056631088257 -0.745340645313262939
0.672606587409973145 0.277223199605941772 -0.867474794387817383
0.69105684757232666 0.25002780556678772 -0.85270315408706665
0.619927823543548584 0.297319322824478149 -0.932478904724121094
0.635514497756958008 0.314932197332382202 -0.793668627738952637
0.584999978542327881 0.303000003099441528 -0.830999970436096191
0.663999974727630615 0.319000005722045898 -0.778999984264373779
0.654999971389770508 0.347000002861022949 -0.865000009536743164
0.624000012874603271 0.277999997138977051 -0.84299999475479126
0.612315177917480469 0.330994784832000732 -0.811054050922393799
0.661444783210754395 0.306421399116516113 -0.793474495410919189
0.634566664695739746 0.315380066633224487 -0.950591385364532471
0.654524087905883789 0.301843315362930298 -0.99904942512512207
0.594268560409545898 0.282634228467941284 -0.834002435207366943
0.612104654312133789 0.265135735273361206 -0.903753221035003662
0.624002218246459961 0.298998922109603882 -0.760002195835113525
0.630744516849517822 0.234371751546859741 -0.871846199035644531
0.667242586612701416 0.274646848440170288 -0.995081424713134766
0.588332474231719971 0.311751455068588257 -0.794594526290893555
0.653999984264373779 0.270999997854232788 -0.879999995231628418
0.623867690563201904 0.254804044961929321 -0.851379573345184326
0.688352763652801514 0.293608397245407104 -0.764359474182128906
0.615000009536743164 0.296000003814697266 -0.754000008106231689
0.583411693572998047 0.322836250066757202 -0.826430559158325195
0.605445683002471924 0.307736009359359741 -0.795858025550842285
0.607946515083312988 0.290914624929428101 -0.980476438999176025
0.616714775562286377 0.294897168874740601 -0.789113342761993408
0.599541842937469482 0.310057669878005981 -0.80531764030456543
0.593391120433807373 0.291043907403945923 -0.822242379188537598
1 1 1
0.679000020027160645 0.268000006675720215 -0.972999989986419678
0.672331690788269043 0.33207237720489502 -0.757714211940765381
0.668571710586547852 0.235810950398445129 -0.866258144378662109
0.641443967819213867 0.238487854599952698 -0.896717369556427002
0.678319096565246582 0.24740995466709137 -0.966523826122283936
0.676999986171722412 0.254000008106231689 -0.96799999475479126
0.614990830421447754 0.248803213238716125 -0.970411062240600586
0.670919477939605713 0.326056092977523804 -0.744024276733398438
0.63616865873336792 0.291364163160324097 -0.833373308181762695
0.659769594669342041 0.320756822824478149 -0.776255309581756592
0.639975905418395996 0.295979857444763184 -0.733611702919006348
0.666000008583068848 0.273000001907348633 -0.934000015258789062
0.607314646244049072 0.281333088874816895 -0.796091318130493164
3 6 256 266 255 255 255
3 108 263 6 255 255 255
3 6 266 108 255 255 255
3 6 91 256 255 255 255
3 263 238 6 255 255 255
3 266 1 108 255 255 255
3 256 154 266 255 255 255
3 1 286 108 255 255 255
3 266 154 296 255 255 255
3 256 128 154 255 255 255
3 91 82 256 255 255 255
3 1 266 296 255 255 255
3 256 62 128 255 255 255
3 108 25 263 255 255 255
3 108 65 25 255 255 255
3 286 295 108 255 255 255
3 296 286 1 255 255 255
3 128 26 154 255 255 255
3 62 37 128 255 255 255
3 25 310 263 255 255 255
3 65 148 25 255 255 255
3 108 295 65 255 255 255
3 295 180 65 255 255 255
3 286 209 295 255 255 255
3 183 209 286 255 255 255
3 296 183 286 255 255 255
3 296 36 183 255 255 255
3 26 296 154 255 255 255
3 128 89 26 255 255 255
3 37 89 128 255 255 255
3 62 66 37 255 255 255
3 25 81 310 255 255 255
3 65 295 148 255 255 255
3 255 99 183 255 255 255
3 36 255 183 255 255 255
3 296 26 36 255 255 255
3 26 9 36 255 255 255
3 62 204 66 255 255 255
3 82 76 204 255 255 255
3 91 238 82 255 255 255
3 81 7 310 255 255 255
3 25 218 81 255 255 255
3 148 139 25 255 255 255
3 148 180 139 255 255 255
3 295 178 148 255 255 255
3 295 277 180 255 255 255
3 209 171 295 255 255 255
3 209 113 101 255 255 255
3 183 99 209 255 255 255
3 99 113 209 255 255 255
3 9 304 36 255 255 255
3 26 71 9 255 255 255
3 89 71 26 255 255 255
3 89 235 71 255 255 255
3 66 97 37 255 255 255
3 76 82 238 255 255 255
3 238 7 76 255 255 255
3 263 76 238 255 255 255
3 7 263 310 255 255 255
3 81 76 7 255 255 255
3 25 70 218 255 255 255
3 139 70 25 255 255 255
3 180 178 139 255 255 255
3 36 259 255 255 255 255
3 66 98 97 255 255 255
3 76 153 152 255 255 255
3 178 172 139 255 255 255
3 180 277 178 255 255 255
3 277 213 178 255 255 255
3 99 257 113 255 255 255
3 235 261 71 255 255 255
3 98 298 97 255 255 255
3 70 49 218 255 255 255
3 172 96 139 255 255 255
3 0 105 99 255 255 255
3 0 151 105 255 255 255
3 304 14 197 255 255 255
3 9 14 304 255 255 255
3 9 71 14 255 255 255
3 71 114 242 255 255 255
3 235 260 261 255 255 255
3 235 97 260 255 255 255
3 98 313 298 255 255 255
3 66 41 98 255 255 255
3 204 41 66 255 255 255
3 76 189 204 255 255 255
3 49 153 218 255 255 255
3 70 167 284 255 255 255
3 113 257 101 255 255 255
3 99 105 257 255 255 255
3 237 214 0 255 255 255
3 259 64 284 255 255 255
3 100 36 304 255 255 255
3 71 242 14 255 255 255
3 114 261 242 255 255 255
3 97 298 260 255 255 255
3 98 41 264 255 255 255
3 41 307 264 255 255 255
3 204 189 41 255 255 255
3 152 189 76 255 255 255
3 152 134 189 255 255 255
3 153 81 152 255 255 255
3 70 134 49 255 255 255
3 167 87 284 255 255 255
3 96 70 139 255 255 255
3 172 109 96 255 255 255
3 213 188 172 255 255 255
3 277 171 213 255 255 255
3 105 168 257 255 255 255
3 0 214 151 255 255 255
3 214 288 151 255 255 255
3 237 100 214 255 255 255
3 304 322 100 255 255 255
3 14 305 197 255 255 255
3 242 103 14 255 255 255
3 184 103 242 255 255 255
3 242 261 184 255 255 255
3 260 8 261 255 255 255
3 98 309 313 255 255 255
3 189 13 41 255 255 255
3 134 152 49 255 255 255
3 70 186 134 255 255 255
3 278 211 96 255 255 255
3 278 30 211 255 255 255
3 172 50 109 255 255 255
3 172 188 50 255 255 255
3 171 101 213 255 255 255
3 151 287 170 255 255 255
3 151 288 287 255 255 255
3 214 322 288 255 255 255
3 237 191 100 255 255 255
3 322 214 100 255 255 255
3 103 305 14 255 255 255
3 103 34 305 255 255 255
3 184 40 103 255 255 255
3 260 169 8 255 255 255
3 185 187 313 255 255 255
3 313 309 185 255 255 255
3 307 279 264 255 255 255
3 41 13 307 255 255 255
3 13 312 307 255 255 255
3 186 193 134 255 255 255
3 70 211 186 255 255 255
3 70 96 211 255 255 255
3 213 77 188 255 255 255
3 223 213 101 255 255 255
3 168 85 257 255 255 255
3 322 217 288 255 255 255
3 191 212 100 255 255 255
3 237 63 191 255 255 255
3 190 210 36 255 255 255
3 36 259 190 255 255 255
3 103 297 34 255 255 255
3 40 297 103 255 255 255
3 8 92 129 255 255 255
3 169 179 8 255 255 255
3 298 169 260 255 255 255
3 298 95 169 255 255 255
3 187 115 313 255 255 255
3 185 169 187 255 255 255
3 279 247 264 255 255 255
3 312 141 307 255 255 255
3 189 312 13 255 255 255
3 188 77 50 255 255 255
3 213 223 77 255 255 255
3 101 80 223 255 255 255
3 257 80 101 255 255 255
3 168 344 85 255 255 255
3 287 149 170 255 255 255
3 149 78 170 255 255 255
3 287 217 149 255 255 255
3 288 234 287 255 255 255
3 63 57 191 255 255 255
3 237 322 63 255 255 255
3 210 202 36 255 255 255
3 297 131 34 255 255 255
3 184 265 40 255 255 255
3 92 104 129 255 255 255
3 179 187 8 255 255 255
3 307 329 279 255 255 255
3 312 327 141 255 255 255
3 189 79 312 255 255 255
3 211 30 240 255 255 255
3 109 30 278 255 255 255
3 77 109 50 255 255 255
3 130 80 257 255 255 255
3 78 232 170 255 255 255
3 234 73 287 255 255 255
3 63 192 57 255 255 255
3 237 100 322 255 255 255
3 202 142 36 255 255 255
3 40 173 297 255 255 255
3 129 261 8 255 255 255
3 129 114 261 255 255 255
3 8 115 92 255 255 255
3 179 293 187 255 255 255
3 279 293 220 255 255 255
3 327 224 141 255 255 255
3 211 239 186 255 255 255
3 240 59 211 255 255 255
3 240 69 59 255 255 255
3 109 194 30 255 255 255
3 223 80 77 255 255 255
3 257 52 130 255 255 255
3 232 222 170 255 255 255
3 149 28 78 255 255 255
3 192 106 57 255 255 255
3 63 288 192 255 255 255
3 305 34 335 255 255 255
3 297 93 131 255 255 255
3 207 93 297 255 255 255
3 297 173 207 255 255 255
3 265 110 40 255 255 255
3 114 184 261 255 255 255
3 104 341 129 255 255 255
3 92 220 104 255 255 255
3 179 176 293 255 255 255
3 176 258 293 255 255 255
3 279 60 293 255 255 255
3 307 224 329 255 255 255
3 193 239 134 255 255 255
3 239 58 186 255 255 255
3 211 59 239 255 255 255
3 59 196 239 255 255 255
3 109 306 194 255 255 255
3 314 306 77 255 255 255
3 80 314 77 255 255 255
3 80 253 314 255 255 255
3 52 300 130 255 255 255
3 52 166 300 255 255 255
3 106 254 57 255 255 255
3 202 89 142 255 255 255
3 210 62 202 255 255 255
3 34 227 335 255 255 255
3 131 227 34 255 255 255
3 131 93 227 255 255 255
3 40 110 173 255 255 255
3 110 243 173 255 255 255
3 110 323 243 255 255 255
3 110 205 323 255 255 255
3 144 110 265 255 255 255
3 144 177 110 255 255 255
3 104 94 341 255 255 255
3 220 195 104 255 255 255
3 176 200 258 255 255 255
3 327 329 224 255 255 255
3 312 86 327 255 255 255
3 79 285 312 255 255 255
3 79 35 326 255 255 255
3 239 111 58 255 255 255
3 240 90 69 255 255 255
3 240 291 90 255 255 255
3 30 291 240 255 255 255
3 194 291 30 255 255 255
3 109 77 306 255 255 255
3 314 150 306 255 255 255
3 314 83 150 255 255 255
3 253 83 314 255 255 255
3 166 206 300 255 255 255
3 221 344 222 255 255 255
3 222 155 221 255 255 255
3 28 132 78 255 255 255
3 106 90 254 255 255 255
3 31 197 335 255 255 255
3 207 243 93 255 255 255
3 173 243 207 255 255 255
3 323 126 243 255 255 255
3 110 177 205 255 255 255
3 299 177 94 255 255 255
3 177 311 94 255 255 255
3 104 12 94 255 255 255
3 220 293 195 255 255 255
3 327 86 321 255 255 255
3 312 292 86 255 255 255
3 285 292 312 255 255 255
3 285 61 292 255 255 255
3 79 326 285 255 255 255
3 111 112 58 255 255 255
3 291 317 90 255 255 255
3 194 27 291 255 255 255
3 306 27 194 255 255 255
3 306 3 27 255 255 255
3 150 3 306 255 255 255
3 166 320 206 255 255 255
3 28 289 132 255 255 255
3 73 28 149 255 255 255
3 73 233 28 255 255 255
3 106 317 90 255 255 255
3 31 233 197 255 255 255
3 335 28 31 255 255 255
3 93 135 227 255 255 255
3 243 135 93 255 255 255
3 243 319 135 255 255 255
3 243 126 319 255 255 255
3 144 311 177 255 255 255
3 144 56 311 255 255 255
3 94 311 341 255 255 255
3 94 12 299 255 255 255
3 104 345 12 255 255 255
3 293 258 195 255 255 255
3 95 185 179 255 255 255
3 329 345 195 255 255 255
3 321 32 327 255 255 255
3 285 326 61 255 255 255
3 111 42 112 255 255 255
3 59 4 196 255 255 255
3 253 10 83 255 255 255
3 206 253 300 255 255 255
3 52 333 166 255 255 255
3 78 132 232 255 255 255
3 56 137 311 255 255 255
3 12 345 38 255 255 255
3 200 53 258 255 255 255
3 185 176 179 255 255 255
3 61 175 292 255 255 255
3 35 112 326 255 255 255
3 112 308 58 255 255 255
3 196 316 111 255 255 255
3 137 316 196 255 255 255
3 137 39 316 255 255 255
3 196 4 137 255 255 255
3 51 4 69 255 255 255
3 69 254 51 255 255 255
3 291 27 145 255 255 255
3 253 206 10 255 255 255
3 206 320 315 255 255 255
3 333 252 166 255 255 255
3 155 337 221 255 255 255
3 132 44 232 255 255 255
3 28 335 227 255 255 255
3 135 289 227 255 255 255
3 299 39 177 255 255 255
3 56 67 137 255 255 255
3 144 126 56 255 255 255
3 299 38 39 255 255 255
3 327 32 345 255 255 255
3 32 38 345 255 255 255
3 345 329 327 255 255 255
3 86 61 321 255 255 255
3 308 331 58 255 255 255
3 316 42 111 255 255 255
3 51 67 4 255 255 255
3 69 90 254 255 255 255
3 90 57 254 255 255 255
3 317 198 90 255 255 255
3 145 2 291 255 255 255
3 27 174 145 255 255 255
3 150 107 3 255 255 255
3 315 156 206 255 255 255
3 315 161 156 255 255 255
3 320 138 315 255 255 255
3 166 157 320 255 255 255
3 252 199 166 255 255 255
3 333 337 252 255 255 255
3 289 28 227 255 255 255
3 319 289 135 255 255 255
3 126 198 319 255 255 255
3 205 144 323 255 255 255
3 39 311 205 255 255 255
3 205 177 39 255 255 255
3 200 303 53 255 255 255
3 303 55 53 255 255 255
3 267 303 200 255 255 255
3 86 330 61 255 255 255
3 175 250 292 255 255 255
3 326 250 175 255 255 255
3 112 250 326 255 255 255
3 308 250 331 255 255 255
3 51 88 67 255 255 255
3 198 106 90 255 255 255
3 317 291 2 255 255 255
3 145 245 2 255 255 255
3 27 281 174 255 255 255
3 3 107 27 255 255 255
3 150 83 107 255 255 255
3 83 328 107 255 255 255
3 83 10 328 255 255 255
3 156 10 206 255 255 255
3 320 157 138 255 255 255
3 166 199 157 255 255 255
3 199 159 157 255 255 255
3 252 143 199 255 255 255
3 132 75 44 255 255 255
3 336 132 289 255 255 255
3 319 336 289 255 255 255
3 323 56 126 255 255 255
3 303 267 343 255 255 255
3 200 324 267 255 255 255
3 32 74 38 255 255 255
3 32 250 74 255 255 255
3 330 250 61 255 255 255
3 316 74 42 255 255 255
3 38 316 39 255 255 255
3 2 245 236 255 255 255
3 174 339 145 255 255 255
3 281 262 174 255 255 255
3 107 281 27 255 255 255
3 107 328 281 255 255 255
3 10 241 328 255 255 255
3 315 138 161 255 255 255
3 138 162 161 255 255 255
3 157 158 138 255 255 255
3 199 244 159 255 255 255
3 337 143 252 255 255 255
3 337 338 221 255 255 255
3 155 226 337 255 255 255
3 44 222 232 255 255 255
3 336 236 132 255 255 255
3 303 343 55 255 255 255
3 324 72 267 255 255 255
3 200 176 324 255 255 255
3 74 316 38 255 255 255
3 32 330 250 255 255 255
3 32 321 330 255 255 255
3 330 203 250 255 255 255
3 42 74 308 255 255 255
3 174 262 339 255 255 255
3 281 181 262 255 255 255
3 156 124 10 255 255 255
3 158 162 138 255 255 255
3 157 125 158 255 255 255
3 159 125 157 255 255 255
3 338 333 221 255 255 255
3 226 47 337 255 255 255
3 155 248 226 255 255 255
3 44 155 222 255 255 255
3 236 75 132 255 255 255
3 318 60 53 255 255 255
3 53 325 318 255 255 255
3 55 208 53 255 255 255
3 203 331 250 255 255 255
3 145 229 245 255 255 255
3 262 127 339 255 255 255
3 262 181 5 255 255 255
3 281 328 181 255 255 255
3 328 241 181 255 255 255
3 10 160 241 255 255 255
3 160 181 241 255 255 255
3 10 18 160 255 255 255
3 156 16 124 255 255 255
3 156 20 16 255 255 255
3 161 20 156 255 255 255
3 161 17 20 255 255 255
3 162 17 161 255 255 255
3 162 118 17 255 255 255
3 158 268 162 255 255 255
3 125 21 158 255 255 255
3 159 302 125 255 255 255
3 15 302 159 255 255 255
3 159 244 15 255 255 255
3 244 228 15 255 255 255
3 199 47 244 255 255 255
3 47 199 143 255 255 255
3 47 143 337 255 255 255
3 248 155 44 255 255 255
3 60 258 53 255 255 255
3 318 208 60 255 255 255
3 325 29 318 255 255 255
3 343 251 55 255 255 255
3 324 54 72 255 255 255
3 236 245 75 255 255 255
3 16 19 124 255 255 255
3 17 117 20 255 255 255
3 125 269 21 255 255 255
3 302 119 125 255 255 255
3 248 136 226 255 255 255
3 44 75 248 255 255 255
3 75 229 248 255 255 255
3 245 229 75 255 255 255
3 29 294 318 255 255 255
3 267 216 343 255 255 255
3 72 216 267 255 255 255
3 324 140 54 255 255 255
3 339 229 145 255 255 255
3 339 249 231 255 255 255
3 127 249 339 255 255 255
3 262 5 127 255 255 255
3 181 201 5 255 255 255
3 181 121 201 255 255 255
3 18 124 160 255 255 255
3 19 160 124 255 255 255
3 20 117 16 255 255 255
3 162 268 118 255 255 255
3 21 271 158 255 255 255
3 125 119 269 255 255 255
3 302 230 119 255 255 255
3 15 133 302 255 255 255
3 182 11 343 255 255 255
3 343 216 182 255 255 255
3 176 140 324 255 255 255
3 339 231 229 255 255 255
3 249 225 231 255 255 255
3 249 133 225 255 255 255
3 127 230 249 255 255 255
3 5 230 127 255 255 255
3 22 270 16 255 255 255
3 16 117 22 255 255 255
3 268 122 118 255 255 255
3 158 275 268 255 255 255
3 269 273 21 255 255 255
3 15 228 133 255 255 255
3 15 273 276 255 255 255
3 72 340 216 255 255 255
3 54 340 72 255 255 255
3 45 340 54 255 255 255
3 5 201 230 255 255 255
3 201 24 230 255 255 255
3 270 19 16 255 255 255
3 271 275 158 255 255 255
3 271 272 275 255 255 255
3 21 163 271 255 255 255
3 272 276 269 255 255 255
3 302 249 230 255 255 255
3 273 163 276 255 255 255
3 15 21 273 255 255 255
3 248 229 136 255 255 255
3 216 43 182 255 255 255
3 330 224 203 255 255 255
3 225 136 231 255 255 255
3 201 121 24 255 255 255
3 121 123 24 255 255 255
3 270 116 19 255 255 255
3 270 274 116 255 255 255
3 22 23 270 255 255 255
3 122 165 118 255 255 255
3 133 249 302 255 255 255
3 229 231 136 255 255 255
3 43 102 182 255 255 255
3 123 120 24 255 255 255
3 121 116 123 255 255 255
3 116 121 19 255 255 255
3 117 17 118 255 255 255
3 118 165 23 255 255 255
3 272 271 276 255 255 255
3 269 119 272 255 255 255
3 119 120 272 255 255 255
3 225 133 228 255 255 255
3 11 246 102 255 255 255
3 340 219 216 255 255 255
3 116 274 123 255 255 255
3 165 274 23 255 255 255
3 246 68 102 255 255 255
3 182 246 11 255 255 255
3 216 219 43 255 255 255
3 340 45 334 255 255 255
3 274 164 123 255 255 255
3 274 165 164 255 255 255
3 147 251 11 255 255 255
3 246 147 11 255 255 255
3 219 301 43 255 255 255
3 334 219 340 255 255 255
3 164 275 123 255 255 255
3 147 29 251 255 255 255
3 301 147 43 255 255 255
3 334 282 342 255 255 255
3 45 282 334 255 255 255
3 164 268 275 255 255 255
3 165 122 164 255 255 255
3 147 301 29 255 255 255
3 147 68 43 255 255 255
3 334 84 219 255 255 255
3 301 294 29 255 255 255
3 84 48 219 255 255 255
3 301 48 294 255 255 255
3 48 301 219 255 255 255
3 282 140 342 255 255 255
3 140 309 342 255 255 255
3 282 54 140 255 255 255
3 84 280 48 255 255 255
3 309 247 342 255 255 255
3 84 342 280 255 255 255
3 247 280 342 255 255 255
3 247 48 280 255 255 255
3 46 146 283 255 255 255
3 33 290 215 255 255 255
3 332 332 332 255 255 255
