ply
format ascii 1.0
element vertex 311
property float x
property float y
property float z
element face 576
property list uchar int vertex_indices
property uchar red
property uchar green
property uchar blue
end_header
-4.2350001335144043 1.82099997997283936 -1
-4.19500017166137695 1.84500002861022949 -1
-4.19799995422363281 1.82200002670288086 -0.903999984264373779
-4.22600460052490234 1.86002981662750244 -0.914969027042388916
-4.20499992370605469 1.84400010108947754 -0.888000011444091797
-4.19124984741210938 1.85137510299682617 -1.01649999618530273
-4.20300006866455078 1.87000000476837158 -1.03499996662139893
-4.24300003051757812 1.88600003719329834 -0.986000001430511475
-4.24200010299682617 1.88199996948242188 -0.970000028610229492
-4.20500993728637695 1.82500791549682617 -0.922005653381347656
-4.23299980163574219 1.86000001430511475 -1.00199997425079346
-4.20399999618530273 1.82299995422363281 -1.00799989700317383
-4.22599983215332031 1.86249995231628418 -1.01200008392333984
-4.21749973297119141 1.82599997520446777 -1.01850008964538574
-4.2220001220703125 1.83000004291534424 -1.01999998092651367
-4.22949981689453125 1.83700001239776611 -1.02349996566772461
-4.22599983215332031 1.85699999332427979 -1.01900005340576172
-4.21749973297119141 1.86349999904632568 -1.00600004196166992
-4.1939997673034668 1.83399999141693115 -1.00999999046325684
-4.2090001106262207 1.82799994945526123 -1.01600003242492676
-4.19799995422363281 1.82500004768371582 -0.93199998140335083
-4.14967584609985352 1.88002645969390869 -0.931407511234283447
-4.18009853363037109 1.87297439575195312 -0.943131983280181885
-4.21000003814697266 1.85399997234344482 -0.925999999046325684
-4.20499992370605469 1.83800005912780762 -0.888000011444091797
-4.19899988174438477 1.85199999809265137 -0.884000003337860107
-4.19099998474121094 1.85800004005432129 -1.02799999713897705
-4.18800020217895508 1.82299995422363281 -0.912000000476837158
-4.21599960327148438 1.83150005340576172 -0.896499991416931152
-4.19501256942749023 1.88175249099731445 -0.919621825218200684
-4.23600006103515625 1.84800004959106445 -0.897000014781951904
-4.19600009918212891 1.87999999523162842 -0.885999977588653564
-4.21899986267089844 1.85000002384185791 -0.896000027656555176
-4.19899988174438477 1.87300002574920654 -0.953000009059906006
-4.21700000762939453 1.84300005435943604 -0.930000007152557373
-4.15000009536743164 1.875 -0.908999979496002197
-4.21299982070922852 1.86300003528594971 -0.897000014781951904
-4.19099998474121094 1.83099997043609619 -0.924000024795532227
-4.19299983978271484 1.86800003051757812 -0.940999984741210938
-4.19999980926513672 1.86300003528594971 -0.945999979972839355
-4.2090001106262207 1.85599994659423828 -0.921000003814697266
-4.17799997329711914 1.81799995899200439 -0.893000006675720215
-4.22100019454956055 1.83899998664855957 -0.887000024318695068
-4.18699979782104492 1.88399994373321533 -0.927999973297119141
-4.20594310760498047 1.88088798522949219 -0.883067786693572998
-4.21700000762939453 1.82099997997283936 -0.919000029563903809
-4.17199993133544922 1.85399997234344482 -0.945999979972839355
-4.20499992370605469 1.86800003051757812 -0.967000007629394531
-4.23899984359741211 1.85500001907348633 -0.953999996185302734
-4.23799991607666016 1.84500002861022949 -0.972000002861022949
-4.23773384094238281 1.851615309715271 -0.990742683410644531
-4.22499990463256836 1.8320000171661377 -0.980000019073486328
-4.20300006866455078 1.83000004291534424 -0.977999985218048096
-4.19099998474121094 1.85249996185302734 -0.981000006198883057
-4.24800014495849609 1.8760000467300415 -0.958999991416931152
-4.24800014495849609 1.87049996852874756 -0.976500034332275391
-4.243499755859375 1.86899995803833008 -0.985249996185302734
-4.18506002426147461 1.8389899730682373 -0.973115384578704834
-4.21999979019165039 1.8619999885559082 -0.998000025749206543
-4.24593734741210938 1.87643754482269287 -0.978187441825866699
-4.24149990081787109 1.86300003528594971 -0.978999972343444824
-4.2402496337890625 1.8567500114440918 -0.973749995231628418
-4.24499988555908203 1.85500001907348633 -0.964999973773956299
-4.19199991226196289 1.87199997901916504 -0.930999994277954102
-4.15287494659423828 1.86574995517730713 -0.92337501049041748
-4.18799972534179688 1.86049997806549072 -0.879999995231628418
-4.18699979782104492 1.83599996566772461 -0.967000007629394531
-4.19500017166137695 1.83299994468688965 -0.985000014305114746
-4.22028827667236328 1.87492883205413818 -0.988877356052398682
-4.18499994277954102 1.84399998188018799 -0.962999999523162842
-4.19199991226196289 1.84350001811981201 -0.984000027179718018
-4.19299983978271484 1.84700000286102295 -0.990999996662139893
-4.21199989318847656 1.86450004577636719 -0.986500024795532227
-4.23000001907348633 1.87000000476837158 -0.984000027179718018
-4.20803499221801758 1.86400175094604492 -0.995987296104431152
-4.22399997711181641 1.86000001430511475 -1.02499997615814209
-4.21799993515014648 1.86899995803833008 -1.0130000114440918
-4.19999980926513672 1.83000004291534424 -1.01900005340576172
-4.19299983978271484 1.84800004959106445 -1.0010000467300415
-4.19500017166137695 1.84099996089935303 -1.02400004863739014
-4.20200014114379883 1.84500002861022949 -1.03299999237060547
-4.22100019454956055 1.85899996757507324 -1.03100001811981201
-4.21099996566772461 1.86500000953674316 -1.00999999046325684
-4.19825029373168945 1.86107754707336426 -1.00694155693054199
-4.19600009918212891 1.85500001907348633 -1.01100003719329834
-4.22100019454956055 1.86500000953674316 -0.906000018119812012
-4.23000001907348633 1.84200000762939453 -0.902000010013580322
-4.20100021362304688 1.82099997997283936 -0.888999998569488525
-4.20499992370605469 1.85699999332427979 -0.93199998140335083
-4.18200016021728516 1.88699996471405029 -0.889999985694885254
-4.21000003814697266 1.83399999141693115 -0.968999981880187988
-4.19499969482421875 1.86050009727478027 -0.97350001335144043
-4.17199993133544922 1.89100003242492676 -0.902000010013580322
-4.2090001106262207 1.82299995422363281 -0.998000025749206543
-4.16199970245361328 1.86100006103515625 -0.906000018119812012
-4.21099996566772461 1.8320000171661377 -0.889999985694885254
-4.16200017929077148 1.86399996280670166 -0.901000022888183594
-4.1939997673034668 1.86300003528594971 -0.884000003337860107
-4.16650009155273438 1.88549995422363281 -0.924000024795532227
-4.18599987030029297 1.87000000476837158 -0.958999991416931152
-4.19999980926513672 1.8320000171661377 -0.890999972820281982
-4.18499994277954102 1.8760000467300415 -0.892000019550323486
-4.19999980926513672 1.87000000476837158 -0.919000029563903809
-4.17100000381469727 1.84000003337860107 -0.898000001907348633
-4.23750019073486328 1.85899996757507324 -0.902999997138977051
-4.23099994659423828 1.83899998664855957 -0.955999970436096191
-4.15349960327148438 1.87999999523162842 -0.920500040054321289
-4.23543024063110352 1.86702549457550049 -0.911873400211334229
-4.19999980926513672 1.86300003528594971 -0.889999985694885254
-4.1939997673034668 1.82799994945526123 -0.926999986171722412
-4.14900016784667969 1.8739999532699585 -0.921000003814697266
-4.21504306793212891 1.81610739231109619 -0.901984453201293945
-4.22800016403198242 1.86000001430511475 -0.940999984741210938
-4.23299980163574219 1.83399999141693115 -1.01699995994567871
-4.16400003433227539 1.87275004386901855 -0.902249991893768311
-4.23199987411499023 1.84800004959106445 -1.02499997615814209
-4.19704723358154297 1.82759189605712891 -1.00199282169342041
-4.22100019454956055 1.86399996280670166 -1.01499998569488525
-4.21600008010864258 1.87100005149841309 -0.957000017166137695
-4.21299982070922852 1.86000001430511475 -0.916000008583068848
-4.22599983215332031 1.85099995136260986 -1.02900004386901855
-4.20300006866455078 1.86500000953674316 -1.01800000667572021
-4.2090001106262207 1.85500001907348633 -0.938000023365020752
-4.2090001106262207 1.87000000476837158 -0.893999993801116943
-4.17899990081787109 1.8880000114440918 -0.889999985694885254
-4.25099992752075195 1.87300002574920654 -0.962999999523162842
-4.17208576202392578 1.87980306148529053 -0.932228326797485352
-4.16800022125244141 1.85599994659423828 -0.906000018119812012
-4.18200016021728516 1.88300001621246338 -0.894999980926513672
-4.22800016403198242 1.84000003337860107 -0.947000026702880859
-4.23600006103515625 1.84299993515014648 -0.991500020027160645
-4.23099994659423828 1.82400000095367432 -0.994000017642974854
-4.23799991607666016 1.83599996566772461 -0.992249965667724609
-4.23299980163574219 1.82099997997283936 -0.982999980449676514
-4.22399997711181641 1.82099997997283936 -0.996999979019165039
-4.2350001335144043 1.84300005435943604 -0.976999998092651367
-4.23899984359741211 1.8320000171661377 -0.989499986171722412
-4.18900012969970703 1.85699999332427979 -0.978999972343444824
-4.19843769073486328 1.85568737983703613 -0.9921875
-4.21400022506713867 1.86899995803833008 -0.976000010967254639
-4.2339320182800293 1.88887548446655273 -0.963029444217681885
-4.2350001335144043 1.88300001621246338 -0.959999978542327881
-4.19600009918212891 1.85949993133544922 -0.981000006198883057
-4.22499990463256836 1.87899994850158691 -0.96799999475479126
-4.17199993133544922 1.84899997711181641 -0.941999971866607666
-4.20599985122680664 1.87199997901916504 -0.964999973773956299
-4.17199993133544922 1.84800004959106445 -0.931500017642974854
-4.17899990081787109 1.84099996089935303 -0.913999974727630615
-4.22700023651123047 1.86600005626678467 -0.902000010013580322
-4.17399978637695312 1.87899994850158691 -0.894999980926513672
-4.20321941375732422 1.87548744678497314 -0.897773027420043945
-4.17199993133544922 1.85399997234344482 -0.898999989032745361
-4.17399978637695312 1.83399999141693115 -0.889999985694885254
-4.15877866744995117 1.88872241973876953 -0.907781898975372314
-4.21899986267089844 1.85699999332427979 -0.940999984741210938
-4.21000003814697266 1.8200000524520874 -0.91100001335144043
-4.17415332794189453 1.8958582878112793 -0.909891963005065918
-4.17199993133544922 1.84750008583068848 -0.923500001430511475
-4.22650003433227539 1.85949993133544922 -0.897000014781951904
-4.17999982833862305 1.87000000476837158 -0.888999998569488525
-4.19999980926513672 1.84099996089935303 -1.03999996185302734
-4.20699977874755859 1.83599996566772461 -1.02199995517730713
-4.21400022506713867 1.83399999141693115 -1.02699995040893555
-4.21239042282104492 1.84893763065338135 -1.03485441207885742
-4.22399997711181641 1.83599996566772461 -1.02699995040893555
-4.2369999885559082 1.84599995613098145 -1.00800001621246338
-4.22300004959106445 1.82400000095367432 -1.00300002098083496
-4.2350001335144043 1.85199999809265137 -1.00399994850158691
-4.21399974822998047 1.82400000095367432 -1.01049995422363281
-4.23299980163574219 1.84300005435943604 -1.02199995517730713
-4.23999977111816406 1.85199999809265137 -1.00999999046325684
-4.22599983215332031 1.86300003528594971 -0.950999975204467773
-4.1875 1.83500003814697266 -0.92649996280670166
-4.18300008773803711 1.81799995899200439 -0.898000001907348633
-4.20499992370605469 1.8320000171661377 -0.954999983310699463
-4.22399997711181641 1.86899995803833008 -0.894999980926513672
-4.19600009918212891 1.87300002574920654 -0.910000026226043701
-4.18799972534179688 1.83449995517730713 -0.888999998569488525
-4.20425033569335938 1.81850004196166992 -0.912750005722045898
-4.16674995422363281 1.85325002670288086 -0.928999960422515869
-4.21199989318847656 1.86600005626678467 -0.906000018119812012
-4.21956300735473633 1.87853610515594482 -0.968282699584960938
-4.21182918548583984 1.8323594331741333 -0.92627030611038208
-4.14799976348876953 1.87100005149841309 -0.930000007152557373
-4.21857452392578125 1.83682632446289062 -0.911381006240844727
-4.19700002670288086 1.88199996948242188 -0.890999972820281982
-4.15199995040893555 1.86399996280670166 -0.914000034332275391
-4.22100019454956055 1.83599996566772461 -0.893000006675720215
-4.22599983215332031 1.8200000524520874 -0.89999997615814209
-4.17847871780395508 1.8668137788772583 -0.895188987255096436
-4.21099996566772461 1.8760000467300415 -0.890999972820281982
-4.21099996566772461 1.85399997234344482 -0.893999993801116943
-4.18400001525878906 1.83399999141693115 -0.959999978542327881
-4.16099977493286133 1.85699999332427979 -0.925999999046325684
-4.18800020217895508 1.82299995422363281 -0.893999993801116943
-4.20430231094360352 1.8172074556350708 -0.895739376544952393
-4.17899990081787109 1.8880000114440918 -0.887000024318695068
-4.16499996185302734 1.88300001621246338 -0.89999997615814209
-4.24399995803833008 1.87800002098083496 -0.984000027179718018
-4.24450016021728516 1.86150002479553223 -0.968500018119812012
-4.25299978256225586 1.8619999885559082 -0.959999978542327881
-4.23099994659423828 1.82899999618530273 -0.984000027179718018
-4.22300004959106445 1.82200002670288086 -0.986999988555908203
-4.21299982070922852 1.8200000524520874 -0.989000022411346436
-4.23649978637695312 1.85199999809265137 -0.981500029563903809
-4.22306156158447266 1.8439708948135376 -0.970963418483734131
-4.21575260162353516 1.82836294174194336 -0.984096050262451172
-4.20699977874755859 1.82799994945526123 -0.971000015735626221
-4.16300010681152344 1.89199995994567871 -0.920000016689300537
-4.22599983215332031 1.84500002861022949 -0.893999993801116943
-4.2369999885559082 1.86399996280670166 -0.986999988555908203
-4.23000001907348633 1.88399994373321533 -0.976999998092651367
-4.23601722717285156 1.88701140880584717 -0.977941274642944336
-4.2369999885559082 1.87999999523162842 -0.957000017166137695
-4.18650007247924805 1.83800005912780762 -0.939499974250793457
-4.18899822235107422 1.86198675632476807 -0.965987682342529297
-4.20699977874755859 1.86300003528594971 -0.973999977111816406
-4.22599983215332031 1.87800002098083496 -0.955999970436096191
-4.23899984359741211 1.87000000476837158 -0.950500011444091797
-4.23799991607666016 1.84599995613098145 -0.952000021934509277
-4.17500019073486328 1.86600005626678467 -0.953999996185302734
-4.16550016403198242 1.85850000381469727 -0.938499987125396729
-4.23299980163574219 1.85099995136260986 -0.904999971389770508
-4.19899988174438477 1.86500000953674316 -0.887000024318695068
-4.19899988174438477 1.87100005149841309 -0.950999975204467773
-4.15700006484985352 1.85949993133544922 -0.914999961853027344
-4.21056652069091797 1.83953666687011719 -0.937259197235107422
-4.21600008010864258 1.84500002861022949 -0.916999995708465576
-4.22800016403198242 1.81599998474121094 -0.912000000476837158
-4.2350001335144043 1.86399996280670166 -0.920000016689300537
-4.23986530303955078 1.83712577819824219 -0.904999911785125732
-4.23400020599365234 1.83399999141693115 -0.89999997615814209
-4.19500017166137695 1.84625005722045898 -1.01450002193450928
-4.19199991226196289 1.85099995136260986 -1.02199995517730713
-4.18699979782104492 1.85899996757507324 -1.02300000190734863
-4.20699977874755859 1.85199999809265137 -1.03400003910064697
-4.21099996566772461 1.87100005149841309 -1.03600001335144043
-4.2090001106262207 1.87699997425079346 -1.03199994564056396
-4.1529998779296875 1.8619999885559082 -0.935000002384185791
-4.2220001220703125 1.83000004291534424 -0.916000008583068848
-4.19950008392333984 1.82050001621246338 -0.927500009536743164
-4.18699979782104492 1.84099996089935303 -0.887000024318695068
-4.21500015258789062 1.84899997711181641 -0.933000028133392334
-4.17700004577636719 1.87000000476837158 -0.945999979972839355
-4.18398046493530273 1.82802939414978027 -0.910189688205718994
-4.18228864669799805 1.88292086124420166 -0.914086997509002686
-4.22300004959106445 1.84899997711181641 -0.894999980926513672
-4.19799995422363281 1.84899997711181641 -0.885999977588653564
-4.1939997673034668 1.88600003719329834 -0.889999985694885254
-4.20800018310546875 1.82799994945526123 -0.939999997615814209
-4.17600011825561523 1.8890000581741333 -0.915000021457672119
-4.2262415885925293 1.82724499702453613 -0.913780152797698975
-4.19299983978271484 1.83099997043609619 -0.949000000953674316
-4.23000001907348633 1.85800004005432129 -0.947000026702880859
-4.15799999237060547 1.84700000286102295 -0.919000029563903809
-4.15200042724609375 1.86549997329711914 -0.907500028610229492
-4.16200017929077148 1.84899997711181641 -0.915000021457672119
-4.21856117248535156 1.8457186222076416 -0.924188911914825439
-4.18400001525878906 1.83099997043609619 -0.890999972820281982
-4.23999977111816406 1.84399998188018799 -0.903999984264373779
-4.18200016021728516 1.87300002574920654 -0.953999996185302734
-4.22900009155273438 1.82700002193450928 -0.901000022888183594
-4.2090001106262207 1.85099995136260986 -0.890999972820281982
-4.22900009155273438 1.83599996566772461 -0.954999983310699463
-4.17999982833862305 1.85699999332427979 -0.892000019550323486
-4.1659998893737793 1.85199999809265137 -0.91100001335144043
-4.15799999237060547 1.88100004196166992 -0.901000022888183594
-4.15700006484985352 1.8599998950958252 -0.929000020027160645
-4.2005000114440918 1.82124996185302734 -0.909500002861022949
-4.20200014114379883 1.81700003147125244 -0.921999990940093994
-4.17500019073486328 1.86699998378753662 -0.952000021934509277
-4.21400022506713867 1.86399996280670166 -0.949000000953674316
-4.19700002670288086 1.83249998092651367 -0.970000028610229492
-4.18599987030029297 1.83000004291534424 -0.890999972820281982
-4.16349983215332031 1.87899994850158691 -0.929499983787536621
-4.17500019073486328 1.83399999141693115 -0.907999992370605469
-4.18400001525878906 1.84300005435943604 -0.890999972820281982
-4.20553827285766602 1.87321746349334717 -0.908616483211517334
-4.1595001220703125 1.86400008201599121 -0.940500020980834961
-4.17799997329711914 1.84599995613098145 -0.893999993801116943
1 1 1
-4.19396543502807617 1.85294258594512939 -0.882052481174468994
-4.14699983596801758 1.86699998378753662 -0.91100001335144043
-4.23199987411499023 1.86800003051757812 -0.919000029563903809
-4.15600013732910156 1.88699996471405029 -0.925000011920928955
-4.20699977874755859 1.8760000467300415 -0.955999970436096191
-4.22206592559814453 1.88094043731689453 -0.978996694087982178
-4.19099998474121094 1.82799994945526123 -0.941999971866607666
-4.19299983978271484 1.86600005626678467 -0.961000025272369385
-4.22800016403198242 1.8739999532699585 -0.954999983310699463
-4.23050022125244141 1.86650002002716064 -0.951499998569488525
-4.19299983978271484 1.82599997520446777 -0.94300001859664917
-4.16800022125244141 1.86699998378753662 -0.941999971866607666
-4.18499994277954102 1.83500003814697266 -0.920000016689300537
-4.18400001525878906 1.84000003337860107 -0.921999990940093994
-4.18400001525878906 1.82099997997283936 -0.912000000476837158
-4.17299985885620117 1.84099996089935303 -0.908999979496002197
-4.18300008773803711 1.88600003719329834 -0.927999973297119141
-4.22900009155273438 1.83800005912780762 -1.03199994564056396
-4.20800018310546875 1.8619999885559082 -0.945999979972839355
-4.2369999885559082 1.83899998664855957 -1.00199997425079346
-4.20800018310546875 1.86300003528594971 -0.985000014305114746
-4.24083662033081055 1.86259889602661133 -0.952792584896087646
-4.24900007247924805 1.87999999523162842 -0.962000012397766113
-4.24800014495849609 1.87300002574920654 -0.955999970436096191
-4.18300008773803711 1.85199999809265137 -0.954999983310699463
-4.24399995803833008 1.88349997997283936 -0.976499974727630615
-4.25195407867431641 1.86504602432250977 -0.965026915073394775
-4.18499994277954102 1.84899997711181641 -0.965250015258789062
-4.1810002326965332 1.84500002861022949 -0.954999983310699463
-4.19000005722045898 1.85099995136260986 -0.972999989986419678
3 164 298 115 255 255 255
3 0 136 132 255 255 255
3 132 300 0 255 255 255
3 0 131 136 255 255 255
3 132 130 300 255 255 255
3 131 133 136 255 255 255
3 0 134 131 255 255 255
3 130 165 300 255 255 255
3 132 135 130 255 255 255
3 133 201 136 255 255 255
3 131 202 133 255 255 255
3 134 202 131 255 255 255
3 134 203 202 255 255 255
3 0 166 134 255 255 255
3 165 113 300 255 255 255
3 130 167 165 255 255 255
3 135 50 130 255 255 255
3 132 136 135 255 255 255
3 136 205 135 255 255 255
3 201 205 136 255 255 255
3 201 51 205 255 255 255
3 133 51 201 255 255 255
3 133 206 51 255 255 255
3 202 206 133 255 255 255
3 203 206 202 255 255 255
3 203 52 206 255 255 255
3 134 93 203 255 255 255
3 166 93 134 255 255 255
3 166 168 93 255 255 255
3 165 169 113 255 255 255
3 167 170 165 255 255 255
3 130 50 167 255 255 255
3 50 10 167 255 255 255
3 135 204 50 255 255 255
3 51 90 205 255 255 255
3 52 207 206 255 255 255
3 168 11 93 255 255 255
3 169 15 113 255 255 255
3 165 170 169 255 255 255
3 170 115 169 255 255 255
3 167 10 170 255 255 255
3 10 12 170 255 255 255
3 50 210 10 255 255 255
3 204 56 50 255 255 255
3 135 49 204 255 255 255
3 205 49 135 255 255 255
3 51 206 90 255 255 255
3 206 207 90 255 255 255
3 207 174 90 255 255 255
3 52 272 207 255 255 255
3 11 116 93 255 255 255
3 166 13 168 255 255 255
3 166 14 13 255 255 255
3 169 298 15 255 255 255
3 170 16 115 255 255 255
3 12 16 170 255 255 255
3 10 17 12 255 255 255
3 50 56 210 255 255 255
3 204 60 56 255 255 255
3 49 61 204 255 255 255
3 49 62 61 255 255 255
3 207 272 174 255 255 255
3 52 57 272 255 255 255
3 11 18 116 255 255 255
3 168 19 11 255 255 255
3 13 19 168 255 255 255
3 14 164 13 255 255 255
3 15 14 113 255 255 255
3 16 75 115 255 255 255
3 12 75 16 255 255 255
3 12 117 75 255 255 255
3 17 76 12 255 255 255
3 10 58 17 255 255 255
3 55 59 56 255 255 255
3 56 60 55 255 255 255
3 204 61 60 255 255 255
3 57 66 272 255 255 255
3 52 67 57 255 255 255
3 18 1 116 255 255 255
3 11 77 18 255 255 255
3 19 77 11 255 255 255
3 19 161 77 255 255 255
3 13 162 19 255 255 255
3 164 162 13 255 255 255
3 164 163 162 255 255 255
3 14 15 164 255 255 255
3 75 120 115 255 255 255
3 12 76 117 255 255 255
3 76 121 117 255 255 255
3 58 74 17 255 255 255
3 56 198 210 255 255 255
3 59 198 56 255 255 255
3 60 199 55 255 255 255
3 61 199 60 255 255 255
3 62 199 61 255 255 255
3 62 200 199 255 255 255
3 66 192 272 255 255 255
3 67 70 57 255 255 255
3 1 67 116 255 255 255
3 18 78 1 255 255 255
3 77 79 18 255 255 255
3 161 79 77 255 255 255
3 161 80 79 255 255 255
3 19 162 161 255 255 255
3 162 80 161 255 255 255
3 162 163 80 255 255 255
3 163 160 80 255 255 255
3 75 81 120 255 255 255
3 76 82 121 255 255 255
3 17 82 76 255 255 255
3 17 74 82 255 255 255
3 74 83 82 255 255 255
3 58 68 74 255 255 255
3 198 73 210 255 255 255
3 59 7 198 255 255 255
3 55 307 59 255 255 255
3 199 307 55 255 255 255
3 199 200 307 255 255 255
3 200 125 307 255 255 255
3 66 69 192 255 255 255
3 57 69 66 255 255 255
3 57 308 69 255 255 255
3 67 71 70 255 255 255
3 1 71 67 255 255 255
3 1 78 71 255 255 255
3 78 138 71 255 255 255
3 18 232 78 255 255 255
3 79 232 18 255 255 255
3 80 160 79 255 255 255
3 81 163 120 255 255 255
3 82 83 121 255 255 255
3 83 84 121 255 255 255
3 74 138 83 255 255 255
3 68 72 74 255 255 255
3 58 73 68 255 255 255
3 59 306 7 255 255 255
3 200 304 125 255 255 255
3 69 309 192 255 255 255
3 57 310 308 255 255 255
3 70 53 57 255 255 255
3 71 53 70 255 255 255
3 78 83 138 255 255 255
3 79 233 232 255 255 255
3 84 234 121 255 255 255
3 72 301 74 255 255 255
3 73 286 68 255 255 255
3 306 212 7 255 255 255
3 59 307 306 255 255 255
3 307 303 306 255 255 255
3 303 8 306 255 255 255
3 307 54 303 255 255 255
3 304 54 125 255 255 255
3 200 302 304 255 255 255
3 309 252 192 255 255 255
3 69 308 309 255 255 255
3 308 305 309 255 255 255
3 310 137 308 255 255 255
3 57 53 310 255 255 255
3 53 137 310 255 255 255
3 71 138 53 255 255 255
3 78 232 83 255 255 255
3 232 84 83 255 255 255
3 232 5 84 255 255 255
3 232 233 5 255 255 255
3 233 234 5 255 255 255
3 81 236 163 255 255 255
3 234 26 121 255 255 255
3 84 5 234 255 255 255
3 301 138 74 255 255 255
3 72 139 301 255 255 255
3 73 211 286 255 255 255
3 306 8 212 255 255 255
3 303 141 8 255 255 255
3 54 213 303 255 255 255
3 304 213 54 255 255 255
3 304 218 213 255 255 255
3 302 218 304 255 255 255
3 309 214 252 255 255 255
3 305 46 309 255 255 255
3 308 215 305 255 255 255
3 137 215 308 255 255 255
3 137 91 215 255 255 255
3 53 142 137 255 255 255
3 138 142 53 255 255 255
3 233 26 234 255 255 255
3 233 235 26 255 255 255
3 235 160 163 255 255 255
3 163 6 235 255 255 255
3 236 6 163 255 255 255
3 236 237 6 255 255 255
3 301 142 138 255 255 255
3 301 216 142 255 255 255
3 139 216 301 255 255 255
3 139 47 216 255 255 255
3 72 68 139 255 255 255
3 68 286 139 255 255 255
3 211 181 286 255 255 255
3 211 143 181 255 255 255
3 73 198 211 255 255 255
3 198 212 211 255 255 255
3 140 211 212 255 255 255
3 212 8 140 255 255 255
3 141 212 8 255 255 255
3 303 213 141 255 255 255
3 213 217 141 255 255 255
3 302 290 218 255 255 255
3 200 62 302 255 255 255
3 62 48 302 255 255 255
3 62 219 48 255 255 255
3 214 287 252 255 255 255
3 46 144 309 255 255 255
3 305 220 46 255 255 255
3 215 99 305 255 255 255
3 137 142 91 255 255 255
3 142 216 91 255 255 255
3 216 47 91 255 255 255
3 47 288 91 255 255 255
3 237 121 6 255 255 255
3 139 145 47 255 255 255
3 286 181 139 255 255 255
3 143 217 181 255 255 255
3 211 140 143 255 255 255
3 198 7 212 255 255 255
3 141 143 212 255 255 255
3 217 140 141 255 255 255
3 213 289 217 255 255 255
3 218 289 213 255 255 255
3 218 290 289 255 255 255
3 302 112 290 255 255 255
3 48 253 302 255 255 255
3 219 253 48 255 255 255
3 219 129 253 255 255 255
3 287 291 252 255 255 255
3 309 144 214 255 255 255
3 144 146 214 255 255 255
3 46 221 144 255 255 255
3 220 270 46 255 255 255
3 305 99 220 255 255 255
3 288 215 91 255 255 255
3 288 99 215 255 255 255
3 288 33 99 255 255 255
3 47 145 288 255 255 255
3 145 33 288 255 255 255
3 145 285 33 255 255 255
3 139 181 145 255 255 255
3 285 145 181 255 255 255
3 217 118 181 255 255 255
3 289 118 217 255 255 255
3 289 171 118 255 255 255
3 290 171 289 255 255 255
3 253 112 302 255 255 255
3 253 154 112 255 255 255
3 219 105 129 255 255 255
3 291 174 252 255 255 255
3 287 20 291 255 255 255
3 214 109 287 255 255 255
3 146 172 214 255 255 255
3 144 221 146 255 255 255
3 221 179 146 255 255 255
3 46 278 221 255 255 255
3 270 292 46 255 255 255
3 220 260 270 255 255 255
3 33 260 99 255 255 255
3 285 224 33 255 255 255
3 118 285 181 255 255 255
3 118 271 285 255 255 255
3 171 271 118 255 255 255
3 171 112 271 255 255 255
3 253 171 154 255 255 255
3 105 263 129 255 255 255
3 291 249 174 255 255 255
3 20 249 291 255 255 255
3 20 240 249 255 255 255
3 287 109 20 255 255 255
3 109 240 20 255 255 255
3 214 172 109 255 255 255
3 146 294 172 255 255 255
3 179 157 146 255 255 255
3 278 238 221 255 255 255
3 292 278 46 255 255 255
3 270 243 292 255 255 255
3 260 243 270 255 255 255
3 260 22 243 255 255 255
3 220 99 260 255 255 255
3 33 224 260 255 255 255
3 224 38 260 255 255 255
3 285 299 224 255 255 255
3 271 299 285 255 255 255
3 271 154 299 255 255 255
3 171 290 112 255 255 255
3 105 205 263 255 255 255
3 249 226 174 255 255 255
3 240 9 249 255 255 255
3 109 27 240 255 255 255
3 172 37 109 255 255 255
3 293 37 172 255 255 255
3 293 295 37 255 255 255
3 172 294 293 255 255 255
3 294 147 293 255 255 255
3 146 157 294 255 255 255
3 179 254 157 255 255 255
3 179 193 254 255 255 255
3 179 267 193 255 255 255
3 221 267 179 255 255 255
3 238 267 221 255 255 255
3 278 21 238 255 255 255
3 292 21 278 255 255 255
3 292 274 21 255 255 255
3 243 22 292 255 255 255
3 22 126 292 255 255 255
3 38 22 260 255 255 255
3 224 39 38 255 255 255
3 299 39 224 255 255 255
3 299 88 39 255 255 255
3 154 122 299 255 255 255
3 271 112 154 255 255 255
3 9 182 249 255 255 255
3 27 269 240 255 255 255
3 109 37 27 255 255 255
3 37 295 27 255 255 255
3 295 173 27 255 255 255
3 293 244 295 255 255 255
3 147 244 293 255 255 255
3 294 157 147 255 255 255
3 157 296 147 255 255 255
3 254 256 157 255 255 255
3 267 225 193 255 255 255
3 238 64 267 255 255 255
3 21 183 238 255 255 255
3 292 126 274 255 255 255
3 126 98 274 255 255 255
3 22 297 126 255 255 255
3 38 63 22 255 255 255
3 39 88 38 255 255 255
3 299 122 88 255 255 255
3 122 23 88 255 255 255
3 154 23 122 255 255 255
3 154 242 23 255 255 255
3 249 182 226 255 255 255
3 9 45 182 255 255 255
3 9 269 45 255 255 255
3 269 9 240 255 255 255
3 27 268 269 255 255 255
3 173 2 27 255 255 255
3 244 173 295 255 255 255
3 244 194 173 255 255 255
3 147 296 244 255 255 255
3 296 275 244 255 255 255
3 296 103 275 255 255 255
3 157 256 296 255 255 255
3 256 265 296 255 255 255
3 254 225 256 255 255 255
3 225 256 193 255 255 255
3 267 64 225 255 255 255
3 238 183 64 255 255 255
3 274 284 21 255 255 255
3 98 284 274 255 255 255
3 98 208 284 255 255 255
3 22 43 297 255 255 255
3 43 245 297 255 255 255
3 22 63 43 255 255 255
3 63 29 43 255 255 255
3 23 40 88 255 255 255
3 242 257 23 255 255 255
3 182 34 226 255 255 255
3 34 242 226 255 255 255
3 182 257 34 255 255 255
3 45 239 182 255 255 255
3 269 178 45 255 255 255
3 268 178 269 255 255 255
3 2 268 27 255 255 255
3 173 194 2 255 255 255
3 194 195 2 255 255 255
3 244 258 194 255 255 255
3 103 152 275 255 255 255
3 296 265 103 255 255 255
3 265 127 103 255 255 255
3 256 94 265 255 255 255
3 64 186 225 255 255 255
3 183 110 64 255 255 255
3 21 110 183 255 255 255
3 21 106 110 255 255 255
3 208 153 284 255 255 255
3 98 250 208 255 255 255
3 126 250 98 255 255 255
3 126 297 250 255 255 255
3 297 245 250 255 255 255
3 245 156 250 255 255 255
3 43 29 245 255 255 255
3 63 102 29 255 255 255
3 40 102 88 255 255 255
3 23 119 40 255 255 255
3 257 119 23 255 255 255
3 257 227 119 255 255 255
3 242 34 257 255 255 255
3 242 88 226 255 255 255
3 239 257 182 255 255 255
3 45 251 239 255 255 255
3 178 155 45 255 255 255
3 268 195 178 255 255 255
3 195 268 2 255 255 255
3 194 87 195 255 255 255
3 258 41 194 255 255 255
3 103 279 152 255 255 255
3 127 151 103 255 255 255
3 265 94 127 255 255 255
3 64 282 186 255 255 255
3 64 110 282 255 255 255
3 110 106 282 255 255 255
3 21 284 106 255 255 255
3 153 106 284 255 255 255
3 208 156 153 255 255 255
3 250 156 208 255 255 255
3 245 92 156 255 255 255
3 102 277 29 255 255 255
3 40 277 102 255 255 255
3 119 277 40 255 255 255
3 119 180 277 255 255 255
3 257 184 227 255 255 255
3 257 239 184 255 255 255
3 242 154 88 255 255 255
3 45 228 251 255 255 255
3 155 228 45 255 255 255
3 155 111 228 255 255 255
3 178 111 155 255 255 255
3 178 195 111 255 255 255
3 87 95 195 255 255 255
3 194 273 87 255 255 255
3 258 152 41 255 255 255
3 279 276 152 255 255 255
3 103 151 279 255 255 255
3 151 264 279 255 255 255
3 127 94 151 255 255 255
3 94 96 151 255 255 255
3 94 255 96 255 255 255
3 186 94 225 255 255 255
3 282 255 186 255 255 255
3 106 35 282 255 255 255
3 153 35 106 255 255 255
3 156 92 153 255 255 255
3 29 176 245 255 255 255
3 180 123 277 255 255 255
3 119 85 180 255 255 255
3 239 251 184 255 255 255
3 251 86 184 255 255 255
3 228 261 251 255 255 255
3 228 188 261 255 255 255
3 111 188 228 255 255 255
3 195 28 111 255 255 255
3 95 28 195 255 255 255
3 95 187 28 255 255 255
3 87 100 95 255 255 255
3 273 177 87 255 255 255
3 194 41 273 255 255 255
3 276 241 152 255 255 255
3 279 264 276 255 255 255
3 264 281 276 255 255 255
3 151 189 264 255 255 255
3 96 189 151 255 255 255
3 96 114 189 255 255 255
3 255 114 96 255 255 255
3 94 186 255 255 255 255
3 35 255 282 255 255 255
3 35 114 255 255 255 255
3 153 266 35 255 255 255
3 92 197 153 255 255 255
3 29 277 176 255 255 255
3 277 150 176 255 255 255
3 123 150 277 255 255 255
3 123 190 150 255 255 255
3 180 175 123 255 255 255
3 85 175 180 255 255 255
3 85 148 175 255 255 255
3 119 3 85 255 255 255
3 251 230 86 255 255 255
3 261 231 251 255 255 255
3 188 111 261 255 255 255
3 111 28 261 255 255 255
3 187 261 28 255 255 255
3 187 231 261 255 255 255
3 187 209 231 255 255 255
3 95 42 187 255 255 255
3 100 24 95 255 255 255
3 87 177 100 255 255 255
3 273 258 177 255 255 255
3 241 177 152 255 255 255
3 276 281 241 255 255 255
3 281 247 241 255 255 255
3 264 65 281 255 255 255
3 114 149 189 255 255 255
3 266 114 35 255 255 255
3 153 197 266 255 255 255
3 197 114 266 255 255 255
3 197 149 114 255 255 255
3 197 124 149 255 255 255
3 92 124 197 255 255 255
3 123 175 190 255 255 255
3 148 158 175 255 255 255
3 85 107 148 255 255 255
3 3 283 85 255 255 255
3 119 227 3 255 255 255
3 230 259 86 255 255 255
3 231 230 251 255 255 255
3 209 230 231 255 255 255
3 209 30 230 255 255 255
3 187 42 209 255 255 255
3 42 246 209 255 255 255
3 95 24 42 255 255 255
3 24 4 42 255 255 255
3 100 177 24 255 255 255
3 177 247 24 255 255 255
3 247 177 241 255 255 255
3 281 25 247 255 255 255
3 264 189 65 255 255 255
3 189 159 65 255 255 255
3 189 149 159 255 255 255
3 149 196 159 255 255 255
3 124 196 149 255 255 255
3 124 89 196 255 255 255
3 190 44 150 255 255 255
3 148 104 158 255 255 255
3 107 104 148 255 255 255
3 85 283 107 255 255 255
3 283 229 107 255 255 255
3 3 229 283 255 255 255
3 259 222 86 255 255 255
3 230 30 259 255 255 255
3 30 104 259 255 255 255
3 209 158 30 255 255 255
3 42 32 246 255 255 255
3 4 262 42 255 255 255
3 247 4 24 255 255 255
3 247 25 4 255 255 255
3 25 262 4 255 255 255
3 159 97 65 255 255 255
3 196 101 159 255 255 255
3 89 101 196 255 255 255
3 89 31 101 255 255 255
3 124 128 89 255 255 255
3 185 101 150 255 255 255
3 150 44 185 255 255 255
3 229 3 107 255 255 255
3 3 222 107 255 255 255
3 222 246 86 255 255 255
3 32 158 246 255 255 255
3 262 32 42 255 255 255
3 262 191 32 255 255 255
3 25 108 262 255 255 255
3 281 223 25 255 255 255
3 65 97 281 255 255 255
3 101 97 159 255 255 255
3 89 248 31 255 255 255
3 128 248 89 255 255 255
3 128 185 248 255 255 255
3 124 92 128 255 255 255
3 185 128 101 255 255 255
3 44 248 185 255 255 255
3 31 248 44 255 255 255
3 44 223 31 255 255 255
3 104 30 158 255 255 255
3 222 104 107 255 255 255
3 32 191 158 255 255 255
3 191 36 158 255 255 255
3 262 108 191 255 255 255
3 108 36 191 255 255 255
3 108 190 36 255 255 255
3 223 108 25 255 255 255
3 223 150 108 255 255 255
3 281 97 223 255 255 255
3 97 31 223 255 255 255
3 222 259 104 255 255 255
3 158 209 246 255 255 255
3 158 36 175 255 255 255
3 190 175 36 255 255 255
3 223 44 150 255 255 255
3 280 280 280 255 255 255
