ply
format ascii 1.0
element vertex 335
property float x
property float y
property float z
element face 576
property list uchar int vertex_indices
property uchar red
property uchar green
property uchar blue
end_header
-6.86700010299682617 4.79899978637695312 -1.0549999475479126
-6.8340001106262207 4.78625011444091797 -1.00975000858306885
-6.81274986267089844 4.78324985504150391 -0.999750018119812012
-6.811187744140625 4.79012489318847656 -0.997906208038330078
-6.87605857849121094 4.84969663619995117 -1.0430828332901001
-6.86675024032592773 4.85524988174438477 -1.03149998188018799
-6.89904975891113281 4.75575828552246094 -0.952434360980987549
-6.89799976348876953 4.74300003051757812 -0.976000010967254639
-6.85779762268066406 4.75351619720458984 -1.07194066047668457
-6.80749988555908203 4.79549980163574219 -1.01600003242492676
-6.84850025177001953 4.82824993133544922 -1.10637497901916504
-6.87699985504150391 4.74400043487548828 -1.01399993896484375
-6.85650014877319336 4.78999996185302734 -1.00849997997283936
-6.86652278900146484 4.8414454460144043 -1.00953757762908936
-6.8899998664855957 4.75799989700317383 -0.968999981880187988
-6.90600013732910156 4.7779998779296875 -0.962999999523162842
-6.91099977493286133 4.74900007247924805 -0.959999978542327881
-6.90306615829467773 4.74178457260131836 -0.966489970684051514
-6.89050006866455078 4.75199985504150391 -0.977499961853027344
-6.90175008773803711 4.74924993515014648 -0.981000006198883057
-6.89822196960449219 4.75876760482788086 -0.98826301097869873
-6.91563034057617188 4.78068351745605469 -0.968418002128601074
-6.91900014877319336 4.77500009536743164 -0.977999985218048096
-6.91400003433227539 4.75500011444091797 -0.953999996185302734
-6.8470001220703125 4.83899974822998047 -1.06349992752075195
-6.80499982833862305 4.78941535949707031 -1.06520473957061768
-6.88399982452392578 4.82700014114379883 -1.08000004291534424
-6.84499979019165039 4.77800226211547852 -1.08500075340270996
-6.80074977874755859 4.81637477874755859 -1.0813748836517334
-6.80700016021728516 4.77299976348876953 -1.03100001811981201
-6.8087773323059082 4.79995346069335938 -1.09726047515869141
-6.86600017547607422 4.75799989700317383 -1.08599996566772461
-6.84712505340576172 4.84787464141845703 -1.03462505340576172
-6.84176015853881836 4.79205131530761719 -1.02045309543609619
-6.87895345687866211 4.78008556365966797 -1.02396738529205322
-6.8060002326965332 4.81798171997070312 -1.09300994873046875
-6.86399984359741211 4.83300018310546875 -1.00800001621246338
-6.85550022125244141 4.83049964904785156 -1.08349990844726562
-6.86700344085693359 4.86198854446411133 -1.04204607009887695
-6.82200002670288086 4.81199979782104492 -1.09599995613098145
-6.89200019836425781 4.75699996948242188 -1.01600003242492676
-6.83500003814697266 4.76399993896484375 -1.0559999942779541
-6.87200021743774414 4.81699991226196289 -1.02999997138977051
-6.80399990081787109 4.78800010681152344 -1.01199996471405029
-6.82800006866455078 4.82600021362304688 -1.0559999942779541
-6.84100008010864258 4.76900005340576172 -1.07799994945526123
-6.81699991226196289 4.78999996185302734 -1.01199996471405029
-6.82399892807006836 4.81199932098388672 -1.05299937725067139
-6.83874988555908203 4.82750034332275391 -1.09825003147125244
-6.83199977874755859 4.77199983596801758 -1.07700002193450928
-6.8880000114440918 4.83300018310546875 -1.06599998474121094
-6.85325002670288086 4.80375003814697266 -1.01550006866455078
-6.84499979019165039 4.76900005340576172 -1.06799995899200439
-6.91200017929077148 4.7649998664855957 -1.0010000467300415
-6.87356281280517578 4.78800010681152344 -1.0143125057220459
-6.86300754547119141 4.75701379776000977 -1.03296744823455811
-6.90786600112915039 4.76642560958862305 -1.03118693828582764
-6.90737152099609375 4.77265834808349609 -1.01350593566894531
-6.90593290328979492 4.77401304244995117 -1.03106343746185303
-6.8591771125793457 4.81408977508544922 -1.01703155040740967
-6.86299991607666016 4.75799989700317383 -1.01499998569488525
-6.87745141983032227 4.79430484771728516 -1.02400577068328857
-6.86499691009521484 4.77906990051269531 -1.00501358509063721
-6.85300016403198242 4.76200008392333984 -1.02799999713897705
-6.91102361679077148 4.76826238632202148 -1.04238641262054443
-6.89300012588500977 4.77400016784667969 -1.03299999237060547
-6.8849024772644043 4.78757095336914062 -1.03371679782867432
-6.86191749572753906 4.78985786437988281 -1.00222444534301758
-6.85268545150756836 4.76620960235595703 -1.00592935085296631
-6.89035511016845703 4.76092433929443359 -1.03879261016845703
-6.8619999885559082 4.74300003051757812 -1.07200002670288086
-6.8700861930847168 4.85629558563232422 -1.06965398788452148
-6.86700010299682617 4.82999992370605469 -1.09399998188018799
-6.87200021743774414 4.74399995803833008 -1.06799995899200439
-6.82699966430664062 4.78524971008300781 -1.00199997425079346
-6.88100004196166992 4.8340001106262207 -1.02100002765655518
-6.82099437713623047 4.80629587173461914 -1.02547991275787354
-6.84600019454956055 4.85099983215332031 -1.04100000858306885
-6.83199977874755859 4.82600021362304688 -1.08000004291534424
-6.87099981307983398 4.79799985885620117 -1.06799995899200439
-6.88461065292358398 4.78366947174072266 -1.09637045860290527
-6.8060002326965332 4.80499982833862305 -1.02999997138977051
-6.83949995040893555 4.80900001525878906 -1.10199999809265137
-6.87450027465820312 4.81649971008300781 -1.09700000286102295
-6.80700016021728516 4.76100015640258789 -1.02400004863739014
-6.84000015258789062 4.83900022506713867 -1.04499995708465576
-6.79644536972045898 4.80294609069824219 -1.0781019926071167
-6.8600001335144043 4.76599979400634766 -1.00499999523162842
-6.81075000762939453 4.78674983978271484 -1.07200002670288086
-6.88000011444091797 4.82899999618530273 -1.07299995422363281
-6.87200021743774414 4.82299995422363281 -1.07500004768371582
-6.8187408447265625 4.76880073547363281 -1.02342283725738525
-6.8470001220703125 4.82200002670288086 -1.02100002765655518
-6.82899999618530273 4.76999998092651367 -1.07400000095367432
-6.85599994659423828 4.78200006484985352 -1.08700001239776611
-6.87050008773803711 4.76700019836425781 -1.09599995613098145
-6.89745759963989258 4.77501535415649414 -1.04964995384216309
-6.84499979019165039 4.83900022506713867 -1.02900004386901855
-6.87299442291259766 4.83881092071533203 -1.07304465770721436
-6.87325000762939453 4.81225013732910156 -1.09350001811981201
-6.875 4.81400012969970703 -1.10399997234344482
-6.84297704696655273 4.78601741790771484 -1.10002195835113525
-6.8370509147644043 4.81441307067871094 -1.04332685470581055
-6.85725021362304688 4.84599971771240234 -1.05900001525878906
-6.8600001335144043 4.82999992370605469 -1.0130000114440918
-6.80299997329711914 4.78800010681152344 -1.04100000858306885
-6.85159635543823242 4.8373417854309082 -1.07332336902618408
-6.8189997673034668 4.78599977493286133 -0.998000025749206543
-6.83699989318847656 4.84599971771240234 -1.04200005531311035
-6.81075000762939453 4.79549980163574219 -1.05224990844726562
-6.83599996566772461 4.78000020980834961 -1.0820000171661377
-6.88600015640258789 4.76100015640258789 -1.08899998664855957
-6.8600001335144043 4.76399993896484375 -1.08299994468688965
-6.88000011444091797 4.78999996185302734 -1.0700000524520874
-6.92150020599365234 4.76249980926513672 -0.957000017166137695
-6.91099977493286133 4.74399995803833008 -0.976000010967254639
-6.91099977493286133 4.77500009536743164 -0.981999993324279785
-6.91071557998657227 4.75399112701416016 -0.98537290096282959
-6.89499998092651367 4.77299976348876953 -0.973999977111816406
-6.90750026702880859 4.74550008773803711 -0.980499982833862305
-6.91200017929077148 4.77600002288818359 -0.984000027179718018
-6.88700008392333984 4.76100015640258789 -0.96799999475479126
-6.9029998779296875 4.77099990844726562 -0.954999983310699463
-6.85089397430419922 4.83944034576416016 -1.05430185794830322
-6.86399221420288086 4.83525800704956055 -1.07421970367431641
-6.80200004577636719 4.78100013732910156 -1.04999995231628418
-6.80100011825561523 4.78000020980834961 -1.02400004863739014
-6.87799978256225586 4.85799980163574219 -1.04400002956390381
-6.86499977111816406 4.8600001335144043 -1.05799996852874756
-6.81279754638671875 4.81730985641479492 -1.099021315574646
-6.82499980926513672 4.77199983596801758 -1.03900003433227539
-6.83074569702148438 4.79151487350463867 -1.09966897964477539
-6.82667970657348633 4.79814767837524414 -1.10661506652832031
-6.84299993515014648 4.80200004577636719 -1.09800004959106445
-6.84949970245361328 4.8125 -1.10599994659423828
-6.81099987030029297 4.81199979782104492 -1.07899999618530273
-6.79500007629394531 4.79349994659423828 -1.02100002765655518
-6.82200002670288086 4.78900003433227539 -1.08700001239776611
-6.84099388122558594 4.83401584625244141 -1.02300655841827393
-6.84855508804321289 4.8371577262878418 -1.09810268878936768
-6.87599992752075195 4.82899999618530273 -1.02799999713897705
-6.85599994659423828 4.76999998092651367 -1.08599996566772461
-6.79650020599365234 4.80299997329711914 -1.08850002288818359
-6.86700010299682617 4.78499984741210938 -1.09500002861022949
-6.86700010299682617 4.85200023651123047 -1.00999999046325684
-6.80800008773803711 4.79400014877319336 -1.06799995899200439
-6.91447925567626953 4.76744985580444336 -1.02246558666229248
-6.86999988555908203 4.80299997329711914 -1.09700000286102295
-6.82299995422363281 4.7909998893737793 -1.01900005340576172
-6.88464498519897461 4.83264350891113281 -1.03859496116638184
-6.86800003051757812 4.75199985504150391 -1.0559999942779541
-6.88250017166137695 4.76100015640258789 -1.05500006675720215
-6.87900018692016602 4.75600004196166992 -1.0690000057220459
-6.90030860900878906 4.77451848983764648 -1.05784702301025391
-6.81974983215332031 4.78549957275390625 -1.00799989700317383
-6.81799983978271484 4.78299999237060547 -1.01399993896484375
-6.84749984741210938 4.7630000114440918 -1.05999994277954102
-6.88768720626831055 4.76466131210327148 -1.07253432273864746
-6.89182329177856445 4.77339506149291992 -1.06798696517944336
-6.86700010299682617 4.80700016021728516 -1.06599998474121094
-6.88500022888183594 4.83300018310546875 -1.02699995040893555
-6.86299991607666016 4.75400018692016602 -1.08500003814697266
-6.87186050415039062 4.83891677856445312 -1.00696325302124023
-6.83500003814697266 4.78100013732910156 -1.10699999332427979
-6.82378005981445312 4.81695413589477539 -1.07103073596954346
-6.84650039672851562 4.79850006103515625 -1.02049994468688965
-6.81186151504516602 4.78467941284179688 -1.0080111026763916
-6.87536144256591797 4.8511962890625 -1.02795672416687012
-6.86800003051757812 4.80700016021728516 -1.0429999828338623
-6.84439468383789062 4.78713655471801758 -1.11057686805725098
-6.80254936218261719 4.77309560775756836 -1.06254422664642334
-6.88131618499755859 4.83543300628662109 -1.05564010143280029
-6.83599996566772461 4.78599977493286133 -1.1109999418258667
-6.82510185241699219 4.81911516189575195 -1.080619215965271
-6.83799982070922852 4.82800006866455078 -1.07700002193450928
-6.88000011444091797 4.75600004196166992 -1.04400002956390381
-6.79500007629394531 4.80100011825561523 -1.02499997615814209
-6.88399982452392578 4.78600025177001953 -1.07800006866455078
-6.88135576248168945 4.75347042083740234 -1.02525913715362549
-6.89599990844726562 4.76900005340576172 -1.04900002479553223
-6.89499998092651367 4.78000020980834961 -1.03600001335144043
-6.86593294143676758 4.80465459823608398 -1.01898348331451416
-6.84432268142700195 4.76906251907348633 -1.00964272022247314
-6.86902570724487305 4.75297403335571289 -1.03405368328094482
-6.90100002288818359 4.7649998664855957 -1.00199997425079346
-6.89699983596801758 4.77199983596801758 -1.01600003242492676
-6.89695310592651367 4.75953245162963867 -1.02724373340606689
-6.91174983978271484 4.76249980926513672 -1.01725006103515625
-6.81949996948242188 4.79125022888183594 -1.08000004291534424
-6.81954050064086914 4.80760669708251953 -1.03591406345367432
-6.79772758483886719 4.7955622673034668 -1.02962648868560791
-6.89289236068725586 4.77101898193359375 -0.977897703647613525
-6.91492891311645508 4.75266313552856445 -0.96363520622253418
-6.9020085334777832 4.76006937026977539 -0.989960730075836182
-6.9159998893737793 4.76200008392333984 -0.984000027179718018
-6.92249965667724609 4.75899982452392578 -0.972499966621398926
-6.90799999237060547 4.76399993896484375 -0.994000017642974854
-6.89400005340576172 4.77199983596801758 -0.986000001430511475
-6.91853141784667969 4.74820137023925781 -0.974487662315368652
-6.89699983596801758 4.77500009536743164 -0.991999983787536621
-6.883697509765625 4.76119279861450195 -0.9969063401222229
-6.875 4.80200004577636719 -1.07700002193450928
-6.80909347534179688 4.78074264526367188 -1.03800129890441895
-6.87198305130004883 4.82299089431762695 -1.08805501461029053
-6.8340001106262207 4.80900001525878906 -1.02499997615814209
-6.875 4.82100009918212891 -1.05099999904632568
-6.83699989318847656 4.78700017929077148 -1.00199997425079346
-6.84139204025268555 4.78240108489990234 -1.0017240047454834
-6.82378244400024414 4.76971769332885742 -1.02699637413024902
-6.84499979019165039 4.75600004196166992 -1.05400002002716064
-6.85847806930541992 4.75370693206787109 -1.05981004238128662
-6.88949966430664062 4.76375007629394531 -1.04799997806549072
-6.87599992752075195 4.78900003433227539 -1.04500007629394531
-6.87201261520385742 4.81907844543457031 -1.01998794078826904
-6.84785842895507812 4.79182672500610352 -1.01205813884735107
-6.83099985122680664 4.78101158142089844 -1.01499056816101074
-6.81500005722045898 4.77762508392333984 -1.06343746185302734
-6.87549972534179688 4.77200031280517578 -1.09649991989135742
-6.87905788421630859 4.8519291877746582 -1.01513969898223877
-6.79085302352905273 4.81032943725585938 -1.08471214771270752
-6.8880000114440918 4.82399988174438477 -1.06700003147125244
-6.91200017929077148 4.76800012588500977 -1.0010000467300415
-6.82849979400634766 4.77250003814697266 -1.11049997806549072
-6.83799982070922852 4.84800004959106445 -1.04100000858306885
-6.80100011825561523 4.78700017929077148 -1.03600001335144043
-6.79800033569335938 4.79850006103515625 -1.01850008964538574
-6.82520389556884766 4.80820989608764648 -1.03645825386047363
-6.88000011444091797 4.85150003433227539 -1.0559999942779541
-6.8535161018371582 4.86081695556640625 -1.04201054573059082
-6.84375762939453125 4.82994174957275391 -1.05381560325622559
-6.82603120803833008 4.81837034225463867 -1.09504210948944092
-6.84762477874755859 4.84399986267089844 -1.10212492942810059
-6.79700946807861328 4.7799835205078125 -1.01601684093475342
-6.82100009918212891 4.80900001525878906 -1.07099997997283936
-6.85799980163574219 4.84999990463256836 -1.05099999904632568
-6.87099981307983398 4.81500005722045898 -1.08700001239776611
-6.88207101821899414 4.78027868270874023 -1.05008792877197266
-6.86103487014770508 4.79607295989990234 -1.00788390636444092
-6.83599996566772461 4.76999998092651367 -1.01999998092651367
-6.85082244873046875 4.76528644561767578 -1.04178261756896973
-6.85449981689453125 4.75600004196166992 -1.04799997806549072
-6.85787010192871094 4.75356149673461914 -1.05266690254211426
-6.875 4.75500011444091797 -1.01800000667572021
-6.89300012588500977 4.7649998664855957 -1.05850005149841309
-6.89007186889648438 4.78076457977294922 -1.05883669853210449
-6.84800004959106445 4.76800012588500977 -1.0140000581741333
-6.87856245040893555 4.75103616714477539 -1.07490360736846924
-6.8861541748046875 4.84919834136962891 -1.02211391925811768
-6.88000011444091797 4.76800012588500977 -0.996999979019165039
-6.91849994659423828 4.74975013732910156 -0.987249970436096191
-6.89316749572753906 4.77487897872924805 -0.991678714752197266
-6.91699981689453125 4.74700021743774414 -0.97500002384185791
-6.9029998779296875 4.77299976348876953 -0.980000019073486328
-6.91400003433227539 4.74800014495849609 -0.986999988555908203
-6.90700006484985352 4.77600002288818359 -0.986000001430511475
-6.8965001106262207 4.77900028228759766 -0.96399998664855957
-6.89099979400634766 4.77099990844726562 -0.96799999475479126
-6.92100000381469727 4.76700019836425781 -0.967000007629394531
-6.88700008392333984 4.82800006866455078 -1.04500007629394531
-6.83799982070922852 4.82100009918212891 -1.01800000667572021
-6.87400007247924805 4.79400014877319336 -1.05799996852874756
-6.86299991607666016 4.82800006866455078 -1.09599995613098145
-6.85547637939453125 4.84747743606567383 -1.02599334716796875
-6.89300012588500977 4.77899980545043945 -1.08099997043609619
-6.86700010299682617 4.77499961853027344 -1.09399998188018799
-6.88464927673339844 4.84190845489501953 -1.00658762454986572
-6.8470001220703125 4.80000019073486328 -1.09300005435943604
-6.90700006484985352 4.75899982452392578 -0.952000021934509277
-6.91400003433227539 4.77199983596801758 -0.954999983310699463
-6.88600015640258789 4.76100015640258789 -0.980000019073486328
-6.90199995040893555 4.77299976348876953 -0.976999998092651367
-6.89503717422485352 4.75851345062255859 -0.951693058013916016
-6.89405488967895508 4.76787996292114258 -0.963155865669250488
-6.89900016784667969 4.74499988555908203 -0.961000025272369385
-6.89300012588500977 4.75400018692016602 -0.966000020503997803
-6.90100002288818359 4.77199983596801758 -0.954999983310699463
-6.87400007247924805 4.83699989318847656 -1.01600003242492676
-6.83024978637695312 4.82950019836425781 -1.0690000057220459
-6.83099985122680664 4.81449985504150391 -1.02499997615814209
-6.87300014495849609 4.79500007629394531 -1.03499996662139893
-6.88100004196166992 4.76100015640258789 -1.0010000467300415
-6.89937496185302734 4.76399993896484375 -1.00087499618530273
-6.87599992752075195 4.7630000114440918 -1.00999999046325684
-6.89534235000610352 4.76229286193847656 -1.01194941997528076
-6.87494993209838867 4.75034904479980469 -1.01423084735870361
-6.88299989700317383 4.75400018692016602 -1.0140000581741333
-6.89900016784667969 4.77199983596801758 -1.00600004196166992
-6.88650751113891602 4.77269458770751953 -1.01422393321990967
-6.875 4.7779998779296875 -1.0140000581741333
-6.80200004577636719 4.77400016784667969 -1.01900005340576172
-6.84204912185668945 4.83679437637329102 -1.02871608734130859
-6.83249998092651367 4.81199979782104492 -1.09899997711181641
-6.83897638320922852 4.84496641159057617 -1.09724235534667969
-6.85099983215332031 4.76800012588500977 -1.03199994564056396
-6.83900022506713867 4.77600002288818359 -1.03400003910064697
-6.82098960876464844 4.77404308319091797 -1.05103790760040283
-6.80806446075439453 4.771026611328125 -1.04997742176055908
-6.87730646133422852 4.75628471374511719 -1.09844934940338135
-6.8880000114440918 4.82600021362304688 -1.03999996185302734
-6.79600000381469727 4.78800010681152344 -1.0549999475479126
-6.79799985885620117 4.80499982833862305 -1.09599995613098145
-6.85716009140014648 4.82270288467407227 -1.09784913063049316
-6.79300022125244141 4.81300020217895508 -1.07599997520446777
-6.85599994659423828 4.85099983215332031 -1.0690000057220459
-6.81100034713745117 4.80899620056152344 -1.10099875926971436
-6.87549161911010742 4.79122734069824219 -1.09835135936737061
1 1 1
-6.81566286087036133 4.7998199462890625 -1.04331874847412109
-6.83125019073486328 4.83074951171875 -1.06174993515014648
-6.80200004577636719 4.81099987030029297 -1.07899999618530273
-6.83300018310546875 4.79600000381469727 -1.1099998950958252
-6.86700010299682617 4.74300003051757812 -1.06099998950958252
-6.84899997711181641 4.7649998664855957 -1.06799995899200439
-6.85500001907348633 4.78900003433227539 -1.09300005435943604
-6.87171745300292969 4.85229253768920898 -1.05887711048126221
-6.89400005340576172 4.83099985122680664 -1.06799995899200439
-6.86899995803833008 4.85300016403198242 -1.01900005340576172
-6.84000015258789062 4.8340001106262207 -1.09399998188018799
-6.81500005722045898 4.76999998092651367 -1.02900004386901855
-6.82800006866455078 4.77500009536743164 -1.06299996376037598
-6.88600015640258789 4.78793716430664062 -1.0865623950958252
-6.82482719421386719 4.78121280670166016 -1.07829451560974121
-6.82149982452392578 4.80099964141845703 -1.02200007438659668
-6.85900020599365234 4.79799985885620117 -1.08899998664855957
-6.81099987030029297 4.80200004577636719 -1.06200003623962402
-6.87699985504150391 4.83799982070922852 -1.06299996376037598
-6.79947662353515625 4.78734588623046875 -1.07069766521453857
-6.8390045166015625 4.78503656387329102 -1.09289014339447021
-6.84100008010864258 4.82700014114379883 -1.03100001811981201
-6.81400012969970703 4.81699991226196289 -1.08500003814697266
-6.84294700622558594 4.82259654998779297 -1.10596930980682373
-6.87053108215332031 4.83458423614501953 -1.08212554454803467
-6.82100009918212891 4.80700016021728516 -1.05700004100799561
-6.80200004577636719 4.76399993896484375 -1.02300000190734863
-6.88249969482421875 4.84600019454956055 -1.03200006484985352
3 272 6 271 255 255 255
3 271 275 272 255 255 255
3 272 274 6 255 255 255
3 274 273 6 255 255 255
3 272 14 274 255 255 255
3 275 15 272 255 255 255
3 273 16 6 255 255 255
3 274 17 273 255 255 255
3 14 18 274 255 255 255
3 272 191 14 255 255 255
3 15 270 272 255 255 255
3 275 268 15 255 255 255
3 16 267 6 255 255 255
3 273 17 16 255 255 255
3 17 192 16 255 255 255
3 274 7 17 255 255 255
3 18 19 274 255 255 255
3 191 269 14 255 255 255
3 272 270 191 255 255 255
3 15 21 270 255 255 255
3 268 257 15 255 255 255
3 275 267 268 255 255 255
3 16 192 267 255 255 255
3 274 19 7 255 255 255
3 18 20 19 255 255 255
3 14 269 18 255 255 255
3 269 20 18 255 255 255
3 269 191 20 255 255 255
3 270 252 191 255 255 255
3 257 21 15 255 255 255
3 257 22 21 255 255 255
3 268 114 257 255 255 255
3 267 114 268 255 255 255
3 267 23 114 255 255 255
3 275 271 267 255 255 255
3 17 115 192 255 255 255
3 19 115 17 255 255 255
3 19 198 115 255 255 255
3 20 193 19 255 255 255
3 191 252 20 255 255 255
3 270 116 252 255 255 255
3 21 116 270 255 255 255
3 21 22 116 255 255 255
3 22 194 116 255 255 255
3 257 195 22 255 255 255
3 23 192 114 255 255 255
3 257 114 192 255 255 255
3 192 195 257 255 255 255
3 192 198 195 255 255 255
3 17 7 19 255 255 255
3 19 117 198 255 255 255
3 193 117 19 255 255 255
3 193 196 117 255 255 255
3 20 197 193 255 255 255
3 194 252 116 255 255 255
3 194 193 252 255 255 255
3 22 195 194 255 255 255
3 195 198 194 255 255 255
3 196 249 117 255 255 255
3 193 199 196 255 255 255
3 197 254 193 255 255 255
3 20 200 197 255 255 255
3 198 117 194 255 255 255
3 199 221 196 255 255 255
3 197 118 254 255 255 255
3 200 248 197 255 255 255
3 192 115 198 255 255 255
3 248 250 197 255 255 255
3 200 280 248 255 255 255
3 20 281 200 255 255 255
3 249 251 117 255 255 255
3 250 252 197 255 255 255
3 280 282 248 255 255 255
3 281 283 200 255 255 255
3 251 119 117 255 255 255
3 249 115 251 255 255 255
3 252 118 197 255 255 255
3 252 255 118 255 255 255
3 250 254 252 255 255 255
3 248 287 250 255 255 255
3 282 287 248 255 255 255
3 280 284 282 255 255 255
3 200 285 280 255 255 255
3 283 40 200 255 255 255
3 249 253 115 255 255 255
3 253 119 115 255 255 255
3 254 120 252 255 255 255
3 250 286 199 255 255 255
3 282 288 287 255 255 255
3 284 60 282 255 255 255
3 285 284 280 255 255 255
3 285 11 284 255 255 255
3 20 196 281 255 255 255
3 255 256 118 255 255 255
3 254 221 120 255 255 255
3 286 184 199 255 255 255
3 250 287 286 255 255 255
3 287 185 286 255 255 255
3 288 34 287 255 255 255
3 60 87 282 255 255 255
3 285 178 11 255 255 255
3 283 186 40 255 255 255
3 184 283 281 255 255 255
3 184 53 283 255 255 255
3 253 117 119 255 255 255
3 256 121 118 255 255 255
3 255 122 256 255 255 255
3 185 57 286 255 255 255
3 288 54 34 255 255 255
3 60 68 87 255 255 255
3 186 178 40 255 255 255
3 283 187 186 255 255 255
3 187 56 186 255 255 255
3 53 187 283 255 255 255
3 60 55 68 255 255 255
3 285 40 178 255 255 255
3 185 58 57 255 255 255
3 54 61 34 255 255 255
3 288 62 54 255 255 255
3 55 63 68 255 255 255
3 56 69 186 255 255 255
3 187 146 56 255 255 255
3 57 58 146 255 255 255
3 58 56 146 255 255 255
3 185 65 58 255 255 255
3 61 66 34 255 255 255
3 62 67 54 255 255 255
3 63 245 68 255 255 255
3 63 293 245 255 255 255
3 55 239 63 255 255 255
3 186 69 178 255 255 255
3 56 64 69 255 255 255
3 64 179 69 255 255 255
3 187 57 146 255 255 255
3 65 180 58 255 255 255
3 66 65 34 255 255 255
3 67 237 54 255 255 255
3 68 62 87 255 255 255
3 245 182 68 255 255 255
3 63 239 293 255 255 255
3 55 240 239 255 255 255
3 55 241 240 255 255 255
3 178 69 183 255 255 255
3 179 211 69 255 255 255
3 58 64 56 255 255 255
3 180 96 58 255 255 255
3 65 66 180 255 255 255
3 66 236 180 255 255 255
3 181 61 54 255 255 255
3 54 237 181 255 255 255
3 68 182 62 255 255 255
3 182 67 62 255 255 255
3 245 238 182 255 255 255
3 55 183 241 255 255 255
3 183 242 178 255 255 255
3 69 175 183 255 255 255
3 69 211 175 255 255 255
3 179 243 211 255 255 255
3 64 96 179 255 255 255
3 58 96 64 255 255 255
3 180 236 96 255 255 255
3 236 244 96 255 255 255
3 61 279 66 255 255 255
3 237 59 181 255 255 255
3 67 182 207 255 255 255
3 182 215 207 255 255 255
3 238 215 182 255 255 255
3 238 208 215 255 255 255
3 239 294 293 255 255 255
3 240 209 239 255 255 255
3 241 210 240 255 255 255
3 242 11 178 255 255 255
3 243 151 211 255 255 255
3 179 153 243 255 255 255
3 244 153 96 255 255 255
3 66 212 236 255 255 255
3 279 212 66 255 255 255
3 59 213 181 255 255 255
3 206 214 207 255 255 255
3 207 74 206 255 255 255
3 208 91 215 255 255 255
3 209 41 239 255 255 255
3 240 210 209 255 255 255
3 210 156 209 255 255 255
3 211 151 175 255 255 255
3 179 96 153 255 255 255
3 212 260 236 255 255 255
3 212 0 260 255 255 255
3 279 168 212 255 255 255
3 213 42 181 255 255 255
3 59 104 213 255 255 255
3 237 51 59 255 255 255
3 237 12 51 255 255 255
3 214 12 207 255 255 255
3 206 1 214 255 255 255
3 207 215 74 255 255 255
3 215 154 74 255 255 255
3 91 155 215 255 255 255
3 150 311 241 255 255 255
3 241 175 150 255 255 255
3 151 150 175 255 255 255
3 151 152 150 255 255 255
3 152 73 150 255 255 255
3 151 157 152 255 255 255
3 243 157 151 255 255 255
3 153 158 243 255 255 255
3 236 260 244 255 255 255
3 260 113 244 255 255 255
3 0 159 260 255 255 255
3 212 168 0 255 255 255
3 213 140 42 255 255 255
3 12 214 51 255 255 255
3 237 67 12 255 255 255
3 12 67 207 255 255 255
3 154 2 74 255 255 255
3 155 154 215 255 255 255
3 208 318 91 255 255 255
3 294 130 208 255 255 255
3 208 238 294 255 255 255
3 156 41 209 255 255 255
3 156 319 41 255 255 255
3 210 8 156 255 255 255
3 311 210 241 255 255 255
3 150 73 311 255 255 255
3 73 70 311 255 255 255
3 152 246 73 255 255 255
3 157 246 152 255 255 255
3 157 111 246 255 255 255
3 158 157 243 255 255 255
3 244 158 153 255 255 255
3 244 113 158 255 255 255
3 113 177 158 255 255 255
3 260 79 113 255 255 255
3 159 79 260 255 255 255
3 159 201 79 255 255 255
3 92 104 59 255 255 255
3 59 51 92 255 255 255
3 214 165 51 255 255 255
3 74 1 206 255 255 255
3 91 289 155 255 255 255
3 318 84 91 255 255 255
3 318 29 84 255 255 255
3 208 130 318 255 255 255
3 319 295 41 255 255 255
3 312 52 156 255 255 255
3 156 8 312 255 255 255
3 210 70 8 255 255 255
3 70 210 311 255 255 255
3 73 246 70 255 255 255
3 158 263 157 255 255 255
3 113 201 177 255 255 255
3 201 113 79 255 255 255
3 213 160 140 255 255 255
3 214 33 165 255 255 255
3 1 33 214 255 255 255
3 154 148 1 255 255 255
3 154 166 2 255 255 255
3 155 166 154 255 255 255
3 289 166 155 255 255 255
3 289 232 166 255 255 255
3 91 333 289 255 255 255
3 84 333 91 255 255 255
3 29 333 84 255 255 255
3 29 126 333 255 255 255
3 318 130 29 255 255 255
3 130 202 29 255 255 255
3 295 296 130 255 255 255
3 312 45 52 255 255 255
3 8 112 312 255 255 255
3 70 161 8 255 255 255
3 70 246 161 255 255 255
3 246 31 161 255 255 255
3 263 80 157 255 255 255
3 158 177 263 255 255 255
3 177 320 263 255 255 255
3 160 298 140 255 255 255
3 213 75 160 255 255 255
3 75 247 160 255 255 255
3 213 276 75 255 255 255
3 165 204 51 255 255 255
3 33 204 165 255 255 255
3 1 148 33 255 255 255
3 154 46 148 255 255 255
3 232 43 166 255 255 255
3 289 126 232 255 255 255
3 126 289 333 255 255 255
3 29 202 126 255 255 255
3 202 224 126 255 255 255
3 296 202 130 255 255 255
3 295 216 296 255 255 255
3 319 216 295 255 255 255
3 319 93 216 255 255 255
3 45 93 52 255 255 255
3 8 161 112 255 255 255
3 161 31 112 255 255 255
3 263 320 80 255 255 255
3 177 305 320 255 255 255
3 75 265 247 255 255 255
3 276 265 75 255 255 255
3 46 322 148 255 255 255
3 166 43 2 255 255 255
3 126 136 232 255 255 255
3 224 136 126 255 255 255
3 202 125 224 255 255 255
3 296 125 202 255 255 255
3 296 170 125 255 255 255
3 296 216 170 255 255 255
3 319 49 93 255 255 255
3 31 141 112 255 255 255
3 95 141 31 255 255 255
3 95 264 141 255 255 255
3 31 297 95 255 255 255
3 247 334 160 255 255 255
3 276 162 265 255 255 255
3 46 9 322 255 255 255
3 2 43 3 255 255 255
3 232 225 43 255 255 255
3 136 225 232 255 255 255
3 136 176 225 255 255 255
3 224 190 136 255 255 255
3 125 105 224 255 255 255
3 170 326 125 255 255 255
3 93 321 216 255 255 255
3 319 321 49 255 255 255
3 297 217 95 255 255 255
3 320 305 80 255 255 255
3 46 43 9 255 255 255
3 225 9 43 255 255 255
3 225 176 9 255 255 255
3 136 190 176 255 255 255
3 105 190 224 255 255 255
3 125 299 105 255 255 255
3 326 299 125 255 255 255
3 170 88 326 255 255 255
3 216 88 170 255 255 255
3 321 88 216 255 255 255
3 321 188 88 255 255 255
3 93 49 321 255 255 255
3 264 94 141 255 255 255
3 95 217 264 255 255 255
3 334 149 160 255 255 255
3 265 162 218 255 255 255
3 276 36 162 255 255 255
3 322 81 76 255 255 255
3 9 81 322 255 255 255
3 9 176 81 255 255 255
3 46 154 43 255 255 255
3 3 107 2 255 255 255
3 3 74 107 255 255 255
3 190 81 176 255 255 255
3 190 307 81 255 255 255
3 94 27 141 255 255 255
3 264 313 94 255 255 255
3 217 305 264 255 255 255
3 80 305 217 255 255 255
3 297 111 217 255 255 255
3 149 298 160 255 255 255
3 149 258 298 255 255 255
3 167 4 334 255 255 255
3 218 247 265 255 255 255
3 218 167 247 255 255 255
3 276 104 36 255 255 255
3 76 278 322 255 255 255
3 81 189 76 255 255 255
3 46 107 154 255 255 255
3 307 189 81 255 255 255
3 105 109 190 255 255 255
3 88 86 326 255 255 255
3 188 145 88 255 255 255
3 188 321 137 255 255 255
3 27 45 141 255 255 255
3 94 313 27 255 255 255
3 313 101 27 255 255 255
3 264 143 313 255 255 255
3 149 171 258 255 255 255
3 149 4 171 255 255 255
3 334 4 149 255 255 255
3 167 127 4 255 255 255
3 167 38 127 255 255 255
3 334 247 167 255 255 255
3 218 316 167 255 255 255
3 218 162 144 255 255 255
3 162 36 13 255 255 255
3 278 204 322 255 255 255
3 189 226 76 255 255 255
3 109 307 190 255 255 255
3 137 30 188 255 255 255
3 321 131 137 255 255 255
3 27 110 45 255 255 255
3 101 327 27 255 255 255
3 143 323 313 255 255 255
3 264 305 143 255 255 255
3 4 227 171 255 255 255
3 127 227 4 255 255 255
3 167 5 38 255 255 255
3 316 5 167 255 255 255
3 218 144 316 255 255 255
3 144 13 316 255 255 255
3 13 144 162 255 255 255
3 278 259 204 255 255 255
3 278 138 259 255 255 255
3 76 226 278 255 255 255
3 226 138 278 255 255 255
3 226 290 138 255 255 255
3 189 47 226 255 255 255
3 307 47 189 255 255 255
3 307 332 47 255 255 255
3 109 332 307 255 255 255
3 109 324 332 255 255 255
3 109 25 324 255 255 255
3 109 299 25 255 255 255
3 131 30 137 255 255 255
3 321 110 327 255 255 255
3 110 93 45 255 255 255
3 101 163 327 255 255 255
3 323 266 313 255 255 255
3 5 262 38 255 255 255
3 316 262 5 255 255 255
3 13 276 316 255 255 255
3 226 328 290 255 255 255
3 102 328 226 255 255 255
3 226 47 102 255 255 255
3 332 164 47 255 255 255
3 324 233 332 255 255 255
3 25 145 324 255 255 255
3 109 105 299 255 255 255
3 131 132 30 255 255 255
3 321 327 131 255 255 255
3 327 163 131 255 255 255
3 163 172 131 255 255 255
3 110 27 327 255 255 255
3 266 101 313 255 255 255
3 266 133 101 255 255 255
3 171 205 258 255 255 255
3 227 325 171 255 255 255
3 227 127 314 255 255 255
3 228 128 38 255 255 255
3 38 262 228 255 255 255
3 138 92 259 255 255 255
3 290 97 138 255 255 255
3 328 85 290 255 255 255
3 332 233 164 255 255 255
3 25 326 145 255 255 255
3 132 304 30 255 255 255
3 172 132 131 255 255 255
3 172 310 132 255 255 255
3 163 222 172 255 255 255
3 101 169 163 255 255 255
3 133 169 101 255 255 255
3 266 134 133 255 255 255
3 325 50 171 255 255 255
3 227 314 325 255 255 255
3 314 98 325 255 255 255
3 228 234 128 255 255 255
3 228 77 234 255 255 255
3 262 32 228 255 255 255
3 138 328 92 255 255 255
3 290 32 97 255 255 255
3 85 108 290 255 255 255
3 233 135 164 255 255 255
3 326 86 145 255 255 255
3 25 299 326 255 255 255
3 304 300 30 255 255 255
3 172 169 310 255 255 255
3 133 310 169 255 255 255
3 134 82 133 255 255 255
3 50 220 171 255 255 255
3 325 98 50 255 255 255
3 314 71 98 255 255 255
3 314 128 71 255 255 255
3 234 103 128 255 255 255
3 77 123 234 255 255 255
3 228 223 77 255 255 255
3 138 97 328 255 255 255
3 32 262 97 255 255 255
3 47 164 44 255 255 255
3 164 308 44 255 255 255
3 135 329 164 255 255 255
3 30 300 142 255 255 255
3 304 35 300 255 255 255
3 172 222 169 255 255 255
3 133 82 310 255 255 255
3 50 315 220 255 255 255
3 98 89 50 255 255 255
3 103 303 128 255 255 255
3 234 123 103 255 255 255
3 77 85 123 255 255 255
3 290 223 32 255 255 255
3 308 229 44 255 255 255
3 164 277 308 255 255 255
3 164 173 277 255 255 255
3 329 173 164 255 255 255
3 329 129 173 255 255 255
3 135 28 329 255 255 255
3 300 219 142 255 255 255
3 35 219 300 255 255 255
3 304 129 35 255 255 255
3 132 39 304 255 255 255
3 310 82 132 255 255 255
3 89 26 50 255 255 255
3 98 331 89 255 255 255
3 71 124 98 255 255 255
3 128 303 71 255 255 255
3 303 124 71 255 255 255
3 303 106 124 255 255 255
3 103 24 303 255 255 255
3 123 24 103 255 255 255
3 85 229 123 255 255 255
3 290 108 223 255 255 255
3 173 78 277 255 255 255
3 173 230 78 255 255 255
3 129 230 173 255 255 255
3 329 35 129 255 255 255
3 28 35 329 255 255 255
3 86 309 142 255 255 255
3 219 86 142 255 255 255
3 35 28 219 255 255 255
3 129 39 230 255 255 255
3 39 129 304 255 255 255
3 132 291 39 255 255 255
3 291 230 39 255 255 255
3 82 291 132 255 255 255
3 82 330 291 255 255 255
3 301 10 134 255 255 255
3 26 315 50 255 255 255
3 89 331 26 255 255 255
3 124 331 98 255 255 255
3 303 24 106 255 255 255
3 229 24 123 255 255 255
3 277 229 308 255 255 255
3 277 106 229 255 255 255
3 78 174 277 255 255 255
3 135 309 28 255 255 255
3 86 302 309 255 255 255
3 291 48 230 255 255 255
3 330 48 291 255 255 255
3 134 10 330 255 255 255
3 330 82 134 255 255 255
3 301 261 10 255 255 255
3 331 203 26 255 255 255
3 106 37 124 255 255 255
3 106 24 229 255 255 255
3 277 174 106 255 255 255
3 174 37 106 255 255 255
3 78 317 174 255 255 255
3 302 28 309 255 255 255
3 86 219 302 255 255 255
3 219 28 302 255 255 255
3 330 10 48 255 255 255
3 261 139 10 255 255 255
3 124 37 331 255 255 255
3 48 317 230 255 255 255
3 10 292 48 255 255 255
3 139 231 10 255 255 255
3 261 37 139 255 255 255
3 261 72 37 255 255 255
3 301 72 261 255 255 255
3 301 83 72 255 255 255
3 331 72 203 255 255 255
3 48 292 317 255 255 255
3 10 231 292 255 255 255
3 72 331 37 255 255 255
3 301 100 83 255 255 255
3 72 83 203 255 255 255
3 139 292 231 255 255 255
3 83 99 203 255 255 255
3 292 139 317 255 255 255
3 235 90 203 255 255 255
3 203 99 235 255 255 255
3 83 100 99 255 255 255
3 90 26 203 255 255 255
3 90 220 26 255 255 255
3 99 201 235 255 255 255
3 100 147 99 255 255 255
3 220 315 26 255 255 255
3 306 306 306 255 255 255
