ply
format ascii 1.0
element vertex 309
property float x
property float y
property float z
element face 576
property list uchar int vertex_indices
property uchar red
property uchar green
property uchar blue
end_header
-1.68900001049041748 11.060999870300293 -1.02799999713897705
-1.68299996852874756 11.0790004730224609 -1.01499998569488525
-1.69749999046325684 11.0594997406005859 -1.02100002765655518
-1.6950000524520874 11.1590003967285156 -1.03400003910064697
-1.72599995136260986 11.0979995727539062 -0.973999977111816406
-1.67100000381469727 11.0920000076293945 -1.02499997615814209
-1.72500002384185791 11.0930004119873047 -1.03900003433227539
-1.73099994659423828 11.1160001754760742 -0.986000001430511475
-1.6950000524520874 11.1560001373291016 -0.99299997091293335
-1.70200002193450928 11.1520004272460938 -1.03299999237060547
-1.70500004291534424 11.0909996032714844 -0.986000001430511475
-1.71800005435943604 11.0839996337890625 -1.06099998950958252
-1.69200003147125244 11.1540002822875977 -1.01999998092651367
-1.71899998188018799 11.1020002365112305 -1.03799998760223389
-1.68900001049041748 11.0880002975463867 -0.936999976634979248
-1.68799996376037598 11.1610002517700195 -1.03299999237060547
-1.6940000057220459 11.074000358581543 -1.03400003910064697
-1.73099994659423828 11.1059999465942383 -0.972999989986419678
-1.69000005722045898 11.0900001525878906 -1.04799997806549072
-1.68499994277954102 11.0719995498657227 -1.02900004386901855
-1.69000005722045898 11.0830001831054688 -0.952000021934509277
-1.73394620418548584 11.1170377731323242 -1.0131230354309082
-1.69599997997283936 11.1569995880126953 -1.02600002288818359
-1.71800005435943604 11.0930004119873047 -0.958999991416931152
-1.69000005722045898 11.1190004348754883 -1.03999996185302734
-1.7059483528137207 11.0810356140136719 -0.956951737403869629
-1.68700003623962402 11.125 -1.02100002765655518
-1.71800005435943604 11.0799999237060547 -1.00600004196166992
-1.6809999942779541 11.0729999542236328 -0.995000004768371582
-1.67900002002716064 11.0900001525878906 -0.996999979019165039
-1.6799999475479126 11.0830001831054688 -0.984000027179718018
-1.68200004100799561 11.0970001220703125 -0.986999988555908203
-1.68900001049041748 11.1059999465942383 -0.990000009536743164
-1.68499994277954102 11.0860004425048828 -0.977999985218048096
-1.66100001335144043 11.116999626159668 -1.03299999237060547
-1.68799996376037598 11.1000003814697266 -0.981999993324279785
-1.72599995136260986 11.0880002975463867 -0.991999983787536621
-1.68650007247924805 11.082000732421875 -0.970499992370605469
-1.67350006103515625 11.1149997711181641 -1.06550002098083496
-1.69000005722045898 11.0819997787475586 -0.989000022411346436
-1.68900001049041748 11.0799999237060547 -0.968999981880187988
-1.69900000095367432 11.1009998321533203 -1.03199994564056396
-1.71300005912780762 11.1070003509521484 -0.976000010967254639
-1.68904292583465576 11.093937873840332 -0.95004349946975708
-1.6950000524520874 11.0939998626708984 -0.954999983310699463
-1.70500004291534424 11.0989999771118164 -0.958000004291534424
-1.71899998188018799 11.1029996871948242 -0.961000025272369385
-1.72099995613098145 11.1079998016357422 -0.972999989986419678
-1.73000001907348633 11.1140003204345703 -0.982999980449676514
-1.70399999618530273 11.064000129699707 -1.02400004863739014
-1.73995840549468994 11.093022346496582 -1.01892852783203125
-1.6809999942779541 11.0719995498657227 -1.00399994850158691
-1.71000003814697266 11.0869998931884766 -0.967000007629394531
-1.7369999885559082 11.1029996871948242 -1.02100002765655518
-1.71302127838134766 11.0970058441162109 -1.04804539680480957
-1.68200004100799561 11.0679998397827148 -1.07099997997283936
-1.66672050952911377 11.1202678680419922 -1.04360318183898926
-1.72399997711181641 11.1120004653930664 -0.996999979019165039
-1.68700003623962402 11.1400003433227539 -1.02999997138977051
-1.73199999332427979 11.0920000076293945 -0.991999983787536621
-1.73500001430511475 11.1029996871948242 -1.0429999828338623
-1.68299996852874756 11.1479997634887695 -1.03600001335144043
-1.72899997234344482 11.0900001525878906 -0.980000019073486328
-1.72403764724731445 11.0869941711425781 -0.98600393533706665
-1.69099998474121094 11.0830001831054688 -0.958000004291534424
-1.69299995899200439 11.0930004119873047 -0.964999973773956299
-1.69299995899200439 11.0979995727539062 -0.971000015735626221
-1.70899999141693115 11.1040000915527344 -0.96799999475479126
-1.70799994468688965 11.1289997100830078 -0.995000004768371582
-1.69799995422363281 11.1639995574951172 -0.984000027179718018
-1.69200003147125244 11.0830001831054688 -1.04900002479553223
-1.70299994945526123 11.0749998092651367 -1.03900003433227539
-1.67949998378753662 11.082000732421875 -1.00349998474121094
-1.68900001049041748 11.1450004577636719 -1.0130000114440918
-1.73300004005432129 11.1024999618530273 -0.973999977111816406
-1.69700002670288086 11.1560001373291016 -1.0140000581741333
-1.69700002670288086 11.1510000228881836 -1.01999998092651367
-1.69000005722045898 11.1379995346069336 -1.02699995040893555
-1.70799994468688965 11.0860004425048828 -1.00999999046325684
-1.70099997520446777 11.1569995880126953 -1.01699995994567871
-1.70299994945526123 11.1789999008178711 -1.00800001621246338
-1.73500001430511475 11.1129999160766602 -1.02600002288818359
-1.68400001525878906 11.1289997100830078 -1.01800000667572021
-1.69599997997283936 11.1160001754760742 -1.02900004386901855
-1.68700003623962402 11.074000358581543 -0.995999991893768311
-1.71399998664855957 11.1180000305175781 -1.02100002765655518
-1.72200000286102295 11.0979995727539062 -0.965999960899353027
-1.69000005722045898 11.0629997253417969 -1.02600002288818359
-1.67599999904632568 11.0909996032714844 -1.0010000467300415
-1.7079845666885376 11.0719575881958008 -1.02109444141387939
-1.71099996566772461 11.069000244140625 -1.02499997615814209
-1.6940000057220459 11.1120004653930664 -1.03100001811981201
-1.66649997234344482 11.1175003051757812 -1.02900004386901855
-1.67499995231628418 11.1099996566772461 -1.07299995422363281
-1.67799997329711914 11.1009998321533203 -1.00399994850158691
-1.67599999904632568 11.1160001754760742 -1.02400004863739014
-1.6809999942779541 11.0670003890991211 -1.05999994277954102
-1.70299994945526123 11.1110000610351562 -1.00499999523162842
-1.73500001430511475 11.1049995422363281 -1.04600000381469727
-1.70200002193450928 11.1639995574951172 -1.0130000114440918
-1.69799995422363281 11.1569995880126953 -1.02199995517730713
-1.71000003814697266 11.1359996795654297 -0.998000025749206543
-1.69599997997283936 11.0769996643066406 -0.944000005722045898
-1.68499994277954102 11.1389999389648438 -1.03199994564056396
-1.71899998188018799 11.0860004425048828 -1.03499996662139893
-1.6940000057220459 11.1490001678466797 -1.03299999237060547
-1.70899999141693115 11.0760002136230469 -0.959999978542327881
-1.6950000524520874 11.1070003509521484 -1.00499999523162842
-1.68799996376037598 11.0850000381469727 -0.94300001859664917
-1.71700000762939453 11.1210002899169922 -0.985000014305114746
-1.70399999618530273 11.1674995422363281 -0.986500024795532227
-1.67700004577636719 11.0989999771118164 -1.01900005340576172
-1.67100000381469727 11.0769996643066406 -1.05299997329711914
-1.68200004100799561 11.1160001754760742 -1.02199995517730713
-1.72300004959106445 11.0939998626708984 -1.05299997329711914
-1.69050002098083496 11.1450004577636719 -1.02200007438659668
-1.70500004291534424 11.1339998245239258 -0.995000004768371582
-1.72899997234344482 11.1020002365112305 -0.981999993324279785
-1.72399997711181641 11.0939998626708984 -0.976999998092651367
-1.72000002861022949 11.0830001831054688 -1.02199995517730713
-1.70599997043609619 11.1319999694824219 -0.985000014305114746
-1.68200004100799561 11.069000244140625 -0.990999996662139893
-1.69299995899200439 11.0950002670288086 -0.947000026702880859
-1.70299994945526123 11.0769996643066406 -0.958999991416931152
-1.6799999475479126 11.0799999237060547 -1.00899994373321533
-1.70500004291534424 11.0830001831054688 -1.04100000858306885
-1.69900000095367432 11.0920000076293945 -0.999000012874603271
-1.69900000095367432 11.1590003967285156 -0.999000012874603271
-1.67100000381469727 11.1210002899169922 -1.02499997615814209
-1.6799999475479126 11.1090002059936523 -1.02300000190734863
-1.70500004291534424 11.060999870300293 -1.01699995994567871
-1.67200005054473877 11.1269998550415039 -1.0429999828338623
-1.71800005435943604 11.0839996337890625 -1.05200004577636719
-1.67499995231628418 11.0979995727539062 -1.04799997806549072
-1.67499995231628418 11.1090002059936523 -1.06700003147125244
-1.70299994945526123 11.0699996948242188 -1.02699995040893555
-1.67400002479553223 11.0869998931884766 -1.05400002002716064
-1.66900002956390381 11.0970001220703125 -1.0690000057220459
-1.72800004482269287 11.0860004425048828 -1.02699995040893555
-1.72500002384185791 11.0880002975463867 -1.01199996471405029
-1.70200002193450928 11.1579999923706055 -0.995000004768371582
-1.73099994659423828 11.1099996566772461 -0.991999983787536621
-1.72899997234344482 11.0979995727539062 -0.984000027179718018
-1.7359999418258667 11.0989999771118164 -0.97500002384185791
-1.69000005722045898 11.0810003280639648 -0.981000006198883057
-1.6940000057220459 11.1040000915527344 -1.00199997425079346
-1.6950000524520874 11.1090002059936523 -1.00999999046325684
-1.69200003147125244 11.1289997100830078 -1.01999998092651367
-1.6950000524520874 11.1630001068115234 -0.984000027179718018
-1.69700002670288086 11.1560001373291016 -1.01800000667572021
-1.72800004482269287 11.1059999465942383 -1.03600001335144043
-1.70000004768371582 11.1750001907348633 -1.0010000467300415
-1.72300004959106445 11.1190004348754883 -1.02300000190734863
-1.74300003051757812 11.1040000915527344 -1.0429999828338623
-1.69700002670288086 11.0959997177124023 -0.944999992847442627
-1.66400003433227539 11.0649995803833008 -1.0559999942779541
-1.66600000858306885 11.074000358581543 -1.07400000095367432
-1.67299997806549072 11.0670003890991211 -1.05299997329711914
-1.66700005531311035 11.0679998397827148 -1.04900002479553223
-1.66299998760223389 11.0769996643066406 -1.0690000057220459
-1.68299996852874756 11.0760002136230469 -1.05099999904632568
-1.6679999828338623 11.0799999237060547 -1.04799997806549072
-1.66100001335144043 11.0719995498657227 -1.05099999904632568
-1.66700005531311035 11.0819997787475586 -1.04900002479553223
-1.67100000381469727 11.0920000076293945 -1.06799995899200439
-1.66700005531311035 11.0950002670288086 -1.06299996376037598
-1.68599998950958252 11.0649995803833008 -1.06599998474121094
-1.68299996852874756 11.0799999237060547 -1.05299997329711914
-1.67799997329711914 11.0780000686645508 -1.03499996662139893
-1.66299998760223389 11.1049995422363281 -1.03100001811981201
-1.66499996185302734 11.1120004653930664 -1.02600002288818359
-1.73000001907348633 11.0900001525878906 -1.01999998092651367
-1.67900002002716064 11.1490001678466797 -1.03100001811981201
-1.69700002670288086 11.1700000762939453 -0.986000001430511475
-1.65807878971099854 11.0660982131958008 -1.06015181541442871
-1.67900002002716064 11.0659999847412109 -1.06500005722045898
-1.67900002002716064 11.0659999847412109 -1.07500004768371582
-1.6679999828338623 11.069000244140625 -1.06799995899200439
-1.68599998950958252 11.1000003814697266 -1.04100000858306885
-1.6940000057220459 11.069000244140625 -1.02499997615814209
-1.72300004959106445 11.0819997787475586 -1.02900004386901855
-1.6799999475479126 11.1309995651245117 -1.01800000667572021
-1.66999995708465576 11.0909996032714844 -1.00899994373321533
-1.66400003433227539 11.1239995956420898 -1.03600001335144043
-1.71800005435943604 11.0799999237060547 -1.02100002765655518
-1.7070000171661377 11.1599998474121094 -0.987999975681304932
-1.69099998474121094 11.0699996948242188 -1.02999997138977051
-1.68900001049041748 11.0790004730224609 -0.953000009059906006
-1.68299996852874756 11.0909996032714844 -1.05299997329711914
-1.67200005054473877 11.1269998550415039 -1.03199994564056396
-1.72300004959106445 11.0880002975463867 -1.05900001525878906
-1.69700002670288086 11.1110000610351562 -1.00699996948242188
-1.74000000953674316 11.1009998321533203 -1.02900004386901855
-1.74199998378753662 11.1129999160766602 -1.02199995517730713
-1.73300004005432129 11.1140003204345703 -0.985000014305114746
-1.70000004768371582 11.1709995269775391 -1.00399994850158691
-1.73099994659423828 11.1059999465942383 -0.968999981880187988
-1.7359999418258667 11.1020002365112305 -1.01600003242492676
-1.68599998950958252 11.1470003128051758 -1.03299999237060547
-1.67900002002716064 11.1549997329711914 -1.03299999237060547
-1.68200004100799561 11.0760002136230469 -0.977999985218048096
-1.69000005722045898 11.0810003280639648 -0.972999989986419678
-1.70000004768371582 11.0850000381469727 -1.04600000381469727
-1.68299996852874756 11.1149997711181641 -1.03799998760223389
-1.69000005722045898 11.1000003814697266 -1.04200005531311035
-1.68400001525878906 11.1400003433227539 -1.02100002765655518
-1.73099994659423828 11.1120004653930664 -1.00199997425079346
-1.6940000057220459 11.1479997634887695 -0.99299997091293335
-1.67100000381469727 11.0920000076293945 -1.01999998092651367
-1.71700000762939453 11.0880002975463867 -1.05900001525878906
-1.71800005435943604 11.0909996032714844 -0.972999989986419678
-1.70200002193450928 11.1000003814697266 -0.962999999523162842
-1.70599997043609619 11.1000003814697266 -0.962999999523162842
-1.72599995136260986 11.116999626159668 -0.99299997091293335
-1.70899999141693115 11.0909996032714844 -0.976000010967254639
-1.70799994468688965 11.119999885559082 -0.984000027179718018
-1.71500003337860107 11.0790004730224609 -1.01699995994567871
-1.70399999618530273 11.0799999237060547 -0.971000015735626221
-1.68700003623962402 11.0810003280639648 -1.00800001621246338
-1.68900001049041748 11.0799999237060547 -0.957000017166137695
-1.73399996757507324 11.0979995727539062 -1.0010000467300415
-1.67799997329711914 11.0790004730224609 -1.02900004386901855
-1.68900001049041748 11.0909996032714844 -0.970000028610229492
-1.69000005722045898 11.1070003509521484 -0.978999972343444824
-1.70200002193450928 11.1070003509521484 -0.990000009536743164
-1.71500003337860107 11.1129999160766602 -1.02400004863739014
-1.73099994659423828 11.0880002975463867 -0.995999991893768311
-1.72899997234344482 11.0900001525878906 -0.987999975681304932
-1.69099998474121094 11.0839996337890625 -0.962999999523162842
-1.69099998474121094 11.1040000915527344 -0.972999989986419678
-1.70200002193450928 11.1160001754760742 -0.980000019073486328
-1.7069624662399292 11.1229467391967773 -0.987887978553771973
-1.71599996089935303 11.1190004348754883 -1.0130000114440918
-1.71200001239776611 11.1029996871948242 -1.03699994087219238
-1.72399997711181641 11.1009998321533203 -0.96399998664855957
-1.69200003147125244 11.0799999237060547 -0.952000021934509277
-1.69700002670288086 11.0850000381469727 -0.94300001859664917
-1.68900001049041748 11.0830001831054688 -1.05400002002716064
-1.69099998474121094 11.0819997787475586 -0.962000012397766113
-1.69449996948242188 11.1655006408691406 -0.986999988555908203
-1.74300003051757812 11.1140003204345703 -1.02900004386901855
-1.66299998760223389 11.1230001449584961 -1.04400002956390381
-1.66999995708465576 11.1110000610351562 -1.03900003433227539
-1.69200003147125244 11.0909996032714844 -0.938000023365020752
-1.72000002861022949 11.0889997482299805 -1.00499999523162842
-1.7359999418258667 11.0970001220703125 -1.03400003910064697
-1.73500001430511475 11.1090002059936523 -1.0140000581741333
-1.70799994468688965 11.0970001220703125 -0.958000004291534424
-1.68900001049041748 11.1499996185302734 -1.0130000114440918
-1.66100001335144043 11.1079998016357422 -1.03400003910064697
-1.73500001430511475 11.1090002059936523 -1.03699994087219238
-1.70099997520446777 11.0729999542236328 -1.0010000467300415
-1.67799997329711914 11.0869998931884766 -1
-1.67900002002716064 11.1000003814697266 -1
-1.70200002193450928 11.1610002517700195 -1
-1.6940000057220459 11.1649999618530273 -1
-1.68099963665008545 11.0740013122558594 -1.03400039672851562
-1.69200003147125244 11.1459999084472656 -1.02900004386901855
-1.69099998474121094 11.0819997787475586 -0.93900001049041748
-1.71300005912780762 11.1309995651245117 -0.995000004768371582
-1.68599998950958252 11.1610002517700195 -0.998000025749206543
-1.69249999523162842 11.1619997024536133 -0.993000030517578125
-1.71200001239776611 11.1079998016357422 -1.02499997615814209
-1.68799996376037598 11.1560001373291016 -1.04100000858306885
-1.66700005531311035 11.1289997100830078 -1.02900004386901855
-1.70299994945526123 11.0749998092651367 -1.00199997425079346
-1.70899999141693115 11.1610002517700195 -0.990000009536743164
-1.69700002670288086 11.1520004272460938 -0.995000004768371582
-1.68700003623962402 11.0830001831054688 -0.945999979972839355
-1.73399996757507324 11.116999626159668 -1.02100002765655518
-1.71200001239776611 11.0880002975463867 -0.954999983310699463
-1.70200002193450928 11.0939998626708984 -0.952000021934509277
-1.68499994277954102 11.0799999237060547 -0.933000028133392334
-1.68700003623962402 11.0749998092651367 -1.05200004577636719
-1.72300004959106445 11.0869998931884766 -1.03699994087219238
-1.6950000524520874 11.0810003280639648 -0.973999977111816406
-1.67700004577636719 11.1110000610351562 -1.06200003623962402
-1.69700002670288086 11.0810003280639648 -0.998000025749206543
-1.72000002861022949 11.0889997482299805 -1.04499995708465576
-1.68599998950958252 11.119999885559082 -1.03600001335144043
-1.70099997520446777 11.1587505340576172 -0.989499986171722412
-1.69000005722045898 11.0749998092651367 -0.936999976634979248
-1.6940000057220459 11.0850000381469727 -0.980000019073486328
-1.69900000095367432 11.0880002975463867 -0.945999979972839355
-1.6679999828338623 11.069000244140625 -1.07400000095367432
-1.71800005435943604 11.0860004425048828 -1.04400002956390381
-1.74199998378753662 11.1049995422363281 -1.02799999713897705
-1.69099998474121094 11.0760002136230469 -1.03699994087219238
-1.66900002956390381 11.0839996337890625 -1.04400002956390381
-1.66400003433227539 11.0869998931884766 -1.03900003433227539
-1.6679999828338623 11.0909996032714844 -1.04499995708465576
-1.66900002956390381 11.0629997253417969 -1.05700004100799561
-1.69799995422363281 11.0880002975463867 -1.05099999904632568
-1.71200001239776611 11.0780000686645508 -1.03100001811981201
-1.67599999904632568 11.0979995727539062 -1.00699996948242188
-1.65999996662139893 11.1180000305175781 -1.03799998760223389
-1.6809999942779541 11.0810003280639648 -1.0140000581741333
-1.67400002479553223 11.0900001525878906 -1.02499997615814209
-1.67400002479553223 11.0869998931884766 -1.01900005340576172
-1.66999995708465576 11.1000003814697266 -1.02600002288818359
-1.66299998760223389 11.1120004653930664 -1.02799999713897705
-1.67799997329711914 11.0585002899169922 -1.07099997997283936
-1.73199999332427979 11.0900001525878906 -1.00699996948242188
-1.72200000286102295 11.0860004425048828 -1.00499999523162842
-1.72099995613098145 11.1160001754760742 -1.02600002288818359
-1.70599997043609619 11.1719999313354492 -0.987999975681304932
-1.67599999904632568 11.1110000610351562 -1.03799998760223389
-1.71300005912780762 11.1040000915527344 -1.03199994564056396
-1.71700000762939453 11.1309995651245117 -0.996999979019165039
3 291 175 177 255 255 255
3 177 174 291 255 255 255
3 175 176 177 255 255 255
3 291 96 175 255 255 255
3 174 155 291 255 255 255
3 177 284 174 255 255 255
3 176 284 177 255 255 255
3 176 156 284 255 255 255
3 175 166 176 255 255 255
3 96 166 175 255 255 255
3 96 273 166 255 255 255
3 291 157 96 255 255 255
3 155 158 291 255 255 255
3 156 159 284 255 255 255
3 176 55 156 255 255 255
3 96 157 273 255 255 255
3 157 160 273 255 255 255
3 291 158 157 255 255 255
3 158 160 157 255 255 255
3 158 161 160 255 255 255
3 155 162 158 255 255 255
3 174 162 155 255 255 255
3 159 174 284 255 255 255
3 159 162 174 255 255 255
3 159 163 162 255 255 255
3 156 164 159 255 255 255
3 176 301 55 255 255 255
3 160 287 273 255 255 255
3 161 288 160 255 255 255
3 158 162 161 255 255 255
3 162 289 161 255 255 255
3 163 289 162 255 255 255
3 163 290 289 255 255 255
3 164 165 159 255 255 255
3 301 166 55 255 255 255
3 287 71 273 255 255 255
3 160 256 287 255 255 255
3 288 167 160 255 255 255
3 161 289 288 255 255 255
3 289 168 288 255 255 255
3 290 169 289 255 255 255
3 163 165 290 255 255 255
3 165 136 159 255 255 255
3 164 137 165 255 255 255
3 166 167 55 255 255 255
3 287 16 71 255 255 255
3 160 168 256 255 255 255
3 167 70 160 255 255 255
3 288 188 167 255 255 255
3 168 112 288 255 255 255
3 289 221 168 255 255 255
3 169 5 289 255 255 255
3 290 249 169 255 255 255
3 165 133 290 255 255 255
3 136 112 159 255 255 255
3 137 134 165 255 255 255
3 166 273 167 255 255 255
3 273 237 167 255 255 255
3 16 135 71 255 255 255
3 287 256 16 255 255 255
3 256 186 16 255 255 255
3 256 0 186 255 255 255
3 168 221 256 255 255 255
3 221 19 256 255 255 255
3 70 16 160 255 255 255
3 167 18 70 255 255 255
3 288 133 188 255 255 255
3 112 163 288 255 255 255
3 168 160 112 255 255 255
3 289 297 221 255 255 255
3 5 297 289 255 255 255
3 5 298 297 255 255 255
3 169 299 5 255 255 255
3 249 300 169 255 255 255
3 290 242 249 255 255 255
3 133 242 290 255 255 255
3 133 306 242 255 255 255
3 165 276 133 255 255 255
3 134 276 165 255 255 255
3 134 38 276 255 255 255
3 137 93 134 255 255 255
3 273 70 237 255 255 255
3 135 90 71 255 255 255
3 0 135 186 255 255 255
3 19 0 256 255 255 255
3 19 87 0 255 255 255
3 221 1 19 255 255 255
3 70 202 16 255 255 255
3 133 18 188 255 255 255
3 297 298 221 255 255 255
3 298 296 221 255 255 255
3 5 208 298 255 255 255
3 299 208 5 255 255 255
3 299 111 208 255 255 255
3 169 170 299 255 255 255
3 300 170 169 255 255 255
3 300 92 170 255 255 255
3 249 34 300 255 255 255
3 242 56 249 255 255 255
3 306 56 242 255 255 255
3 133 178 306 255 255 255
3 93 38 134 255 255 255
3 70 292 237 255 255 255
3 273 71 70 255 255 255
3 71 202 70 255 255 255
3 71 125 202 255 255 255
3 90 293 71 255 255 255
3 135 49 90 255 255 255
3 0 49 135 255 255 255
3 0 2 49 255 255 255
3 87 2 0 255 255 255
3 87 179 2 255 255 255
3 19 1 87 255 255 255
3 221 296 1 255 255 255
3 296 124 1 255 255 255
3 202 125 16 255 255 255
3 298 124 296 255 255 255
3 298 182 124 255 255 255
3 208 182 298 255 255 255
3 208 111 182 255 255 255
3 111 294 182 255 255 255
3 299 170 111 255 255 255
3 170 129 111 255 255 255
3 92 128 170 255 255 255
3 34 92 300 255 255 255
3 34 264 92 255 255 255
3 249 295 34 255 255 255
3 306 203 56 255 255 255
3 178 203 306 255 255 255
3 178 204 203 255 255 255
3 292 188 237 255 255 255
3 70 125 292 255 255 255
3 71 285 125 255 255 255
3 293 285 71 255 255 255
3 293 104 285 255 255 255
3 90 180 293 255 255 255
3 49 130 90 255 255 255
3 179 89 2 255 255 255
3 87 186 179 255 255 255
3 124 51 1 255 255 255
3 182 72 124 255 255 255
3 294 88 182 255 255 255
3 111 94 294 255 255 255
3 129 94 111 255 255 255
3 170 95 129 255 255 255
3 128 95 170 255 255 255
3 128 181 95 255 255 255
3 92 264 128 255 255 255
3 34 183 264 255 255 255
3 295 183 34 255 255 255
3 295 241 183 255 255 255
3 249 56 295 255 255 255
3 56 241 295 255 255 255
3 56 131 241 255 255 255
3 56 203 131 255 255 255
3 203 24 131 255 255 255
3 204 24 203 255 255 255
3 204 91 24 255 255 255
3 125 132 292 255 255 255
3 104 274 285 255 255 255
3 293 180 104 255 255 255
3 180 274 104 255 255 255
3 180 138 274 255 255 255
3 90 184 180 255 255 255
3 130 89 90 255 255 255
3 49 2 130 255 255 255
3 89 130 2 255 255 255
3 179 135 89 255 255 255
3 124 72 51 255 255 255
3 182 252 72 255 255 255
3 88 252 182 255 255 255
3 88 29 252 255 255 255
3 294 253 88 255 255 255
3 94 253 294 255 255 255
3 94 145 253 255 255 255
3 95 113 129 255 255 255
3 181 113 95 255 255 255
3 181 82 113 255 255 255
3 128 264 181 255 255 255
3 183 131 264 255 255 255
3 131 183 241 255 255 255
3 91 83 24 255 255 255
3 204 41 91 255 255 255
3 132 209 292 255 255 255
3 125 285 132 255 255 255
3 285 278 132 255 255 255
3 274 278 285 255 255 255
3 274 6 278 255 255 255
3 138 245 274 255 255 255
3 180 119 138 255 255 255
3 184 119 180 255 255 255
3 184 139 119 255 255 255
3 90 216 184 255 255 255
3 89 216 90 255 255 255
3 89 265 216 255 255 255
3 72 28 51 255 255 255
3 28 121 51 255 255 255
3 72 252 28 255 255 255
3 252 30 28 255 255 255
3 29 30 252 255 255 255
3 29 31 30 255 255 255
3 88 253 29 255 255 255
3 253 31 29 255 255 255
3 253 32 31 255 255 255
3 145 32 253 255 255 255
3 145 107 32 255 255 255
3 94 107 145 255 255 255
3 94 146 107 255 255 255
3 113 91 129 255 255 255
3 82 26 113 255 255 255
3 181 73 82 255 255 255
3 131 189 264 255 255 255
3 83 279 24 255 255 255
3 91 307 83 255 255 255
3 41 233 91 255 255 255
3 132 11 209 255 255 255
3 278 190 132 255 255 255
3 6 114 278 255 255 255
3 274 245 6 255 255 255
3 245 60 6 255 255 255
3 138 50 245 255 255 255
3 119 171 138 255 255 255
3 139 171 119 255 255 255
3 139 302 171 255 255 255
3 184 27 139 255 255 255
3 216 27 184 255 255 255
3 216 265 27 255 255 255
3 28 30 121 255 255 255
3 30 200 121 255 255 255
3 31 33 30 255 255 255
3 32 35 31 255 255 255
3 146 191 107 255 255 255
3 91 178 129 255 255 255
3 26 83 113 255 255 255
3 82 147 26 255 255 255
3 73 147 82 255 255 255
3 73 115 147 255 255 255
3 181 205 73 255 255 255
3 189 181 264 255 255 255
3 189 205 181 255 255 255
3 189 103 205 255 255 255
3 131 279 189 255 255 255
3 279 131 24 255 255 255
3 83 147 279 255 255 255
3 307 262 83 255 255 255
3 190 11 132 255 255 255
3 278 114 190 255 255 255
3 114 54 190 255 255 255
3 6 60 114 255 255 255
3 60 98 114 255 255 255
3 245 153 60 255 255 255
3 50 192 245 255 255 255
3 171 50 138 255 255 255
3 171 302 50 255 255 255
3 302 220 50 255 255 255
3 139 303 302 255 255 255
3 27 303 139 255 255 255
3 27 36 303 255 255 255
3 30 33 200 255 255 255
3 33 37 200 255 255 255
3 31 35 33 255 255 255
3 35 222 33 255 255 255
3 32 223 35 255 255 255
3 191 224 107 255 255 255
3 146 97 191 255 255 255
3 83 146 113 255 255 255
3 73 76 115 255 255 255
3 205 248 73 255 255 255
3 103 172 205 255 255 255
3 279 26 189 255 255 255
3 147 77 279 255 255 255
3 262 225 83 255 255 255
3 307 225 262 255 255 255
3 307 304 225 255 255 255
3 54 209 190 255 255 255
3 60 153 98 255 255 255
3 245 192 153 255 255 255
3 192 286 153 255 255 255
3 50 286 192 255 255 255
3 50 53 286 255 255 255
3 220 197 50 255 255 255
3 302 226 220 255 255 255
3 303 226 302 255 255 255
3 303 36 226 255 255 255
3 36 227 226 255 255 255
3 37 40 200 255 255 255
3 222 37 33 255 255 255
3 222 228 37 255 255 255
3 35 229 222 255 255 255
3 223 229 35 255 255 255
3 223 230 229 255 255 255
3 32 230 223 255 255 255
3 32 224 230 255 255 255
3 224 32 107 255 255 255
3 191 97 224 255 255 255
3 97 231 224 255 255 255
3 146 126 97 255 255 255
3 115 77 147 255 255 255
3 115 257 77 255 255 255
3 76 257 115 255 255 255
3 76 9 257 255 255 255
3 73 75 76 255 255 255
3 248 75 73 255 255 255
3 248 127 75 255 255 255
3 205 12 248 255 255 255
3 103 61 172 255 255 255
3 26 58 189 255 255 255
3 77 103 279 255 255 255
3 225 85 83 255 255 255
3 304 85 225 255 255 255
3 304 152 85 255 255 255
3 307 13 304 255 255 255
3 209 11 190 255 255 255
3 114 13 54 255 255 255
3 286 240 153 255 255 255
3 53 193 286 255 255 255
3 50 197 53 255 255 255
3 197 193 53 255 255 255
3 197 246 193 255 255 255
3 220 246 197 255 255 255
3 220 206 246 255 255 255
3 226 59 220 255 255 255
3 227 59 226 255 255 255
3 227 62 59 255 255 255
3 36 63 227 255 255 255
3 37 219 40 255 255 255
3 228 219 37 255 255 255
3 228 64 219 255 255 255
3 222 65 228 255 255 255
3 229 66 222 255 255 255
3 230 67 229 255 255 255
3 224 231 230 255 255 255
3 231 120 230 255 255 255
3 97 68 231 255 255 255
3 257 105 77 255 255 255
3 9 105 257 255 255 255
3 9 263 105 255 255 255
3 76 79 9 255 255 255
3 75 79 76 255 255 255
3 75 254 79 255 255 255
3 127 254 75 255 255 255
3 127 140 254 255 255 255
3 248 207 127 255 255 255
3 12 149 248 255 255 255
3 205 198 12 255 255 255
3 61 199 172 255 255 255
3 77 58 103 255 255 255
3 152 232 85 255 255 255
3 304 81 152 255 255 255
3 13 150 304 255 255 255
3 307 233 13 255 255 255
3 114 98 13 255 255 255
3 98 150 13 255 255 255
3 98 250 150 255 255 255
3 286 193 240 255 255 255
3 193 269 240 255 255 255
3 246 21 193 255 255 255
3 206 21 246 255 255 255
3 220 141 206 255 255 255
3 59 141 220 255 255 255
3 59 142 141 255 255 255
3 62 143 59 255 255 255
3 227 63 62 255 255 255
3 63 210 62 255 255 255
3 64 20 219 255 255 255
3 228 65 64 255 255 255
3 65 44 64 255 255 255
3 222 66 65 255 255 255
3 66 211 65 255 255 255
3 229 211 66 255 255 255
3 229 67 211 255 255 255
3 67 212 211 255 255 255
3 230 42 67 255 255 255
3 68 116 231 255 255 255
3 263 61 105 255 255 255
3 9 3 263 255 255 255
3 254 99 79 255 255 255
3 140 266 254 255 255 255
3 127 267 140 255 255 255
3 12 100 149 255 255 255
3 198 15 12 255 255 255
3 199 12 172 255 255 255
3 61 263 199 255 255 255
3 263 15 199 255 255 255
3 58 105 103 255 255 255
3 232 97 85 255 255 255
3 152 21 232 255 255 255
3 81 269 152 255 255 255
3 304 250 81 255 255 255
3 233 54 13 255 255 255
3 233 125 54 255 255 255
3 250 304 150 255 255 255
3 98 153 250 255 255 255
3 153 240 250 255 255 255
3 240 81 250 255 255 255
3 269 81 240 255 255 255
3 21 269 193 255 255 255
3 21 152 269 255 255 255
3 206 232 21 255 255 255
3 206 57 232 255 255 255
3 141 213 206 255 255 255
3 142 117 141 255 255 255
3 59 143 142 255 255 255
3 143 117 142 255 255 255
3 143 194 117 255 255 255
3 62 4 143 255 255 255
3 210 118 62 255 255 255
3 63 214 210 255 255 255
3 20 187 219 255 255 255
3 64 43 20 255 255 255
3 65 211 44 255 255 255
3 211 45 44 255 255 255
3 212 45 211 255 255 255
3 212 46 45 255 255 255
3 67 46 212 255 255 255
3 67 47 46 255 255 255
3 42 47 67 255 255 255
3 42 48 47 255 255 255
3 230 215 42 255 255 255
3 231 116 120 255 255 255
3 116 207 120 255 255 255
3 68 101 116 255 255 255
3 61 198 105 255 255 255
3 9 22 3 255 255 255
3 99 100 79 255 255 255
3 254 195 99 255 255 255
3 266 305 254 255 255 255
3 140 280 266 255 255 255
3 267 280 140 255 255 255
3 127 260 267 255 255 255
3 100 99 149 255 255 255
3 99 255 149 255 255 255
3 12 22 100 255 255 255
3 198 61 15 255 255 255
3 263 3 15 255 255 255
3 105 198 103 255 255 255
3 58 77 105 255 255 255
3 206 213 57 255 255 255
3 213 308 57 255 255 255
3 141 7 213 255 255 255
3 117 194 141 255 255 255
3 194 7 141 255 255 255
3 194 48 7 255 255 255
3 4 86 143 255 255 255
3 62 118 4 255 255 255
3 118 86 4 255 255 255
3 210 86 118 255 255 255
3 210 23 86 255 255 255
3 214 217 210 255 255 255
3 63 10 214 255 255 255
3 20 268 187 255 255 255
3 43 268 20 255 255 255
3 43 108 268 255 255 255
3 64 44 43 255 255 255
3 44 122 43 255 255 255
3 45 154 44 255 255 255
3 46 247 45 255 255 255
3 47 196 46 255 255 255
3 48 17 47 255 255 255
3 215 109 42 255 255 255
3 230 120 215 255 255 255
3 120 109 215 255 255 255
3 120 259 109 255 255 255
3 101 267 116 255 255 255
3 68 308 101 255 255 255
3 9 100 22 255 255 255
3 9 79 100 255 255 255
3 195 80 99 255 255 255
3 254 151 195 255 255 255
3 266 110 305 255 255 255
3 280 185 266 255 255 255
3 127 255 260 255 255 255
3 255 248 149 255 255 255
3 213 109 308 255 255 255
3 194 17 48 255 255 255
3 194 74 17 255 255 255
3 86 234 143 255 255 255
3 86 23 234 255 255 255
3 23 46 234 255 255 255
3 210 52 23 255 255 255
3 217 52 210 255 255 255
3 217 106 52 255 255 255
3 214 10 217 255 255 255
3 10 282 217 255 255 255
3 268 281 187 255 255 255
3 108 272 268 255 255 255
3 43 14 108 255 255 255
3 44 154 122 255 255 255
3 154 243 122 255 255 255
3 247 271 45 255 255 255
3 46 23 247 255 255 255
3 23 270 247 255 255 255
3 196 234 46 255 255 255
3 196 74 234 255 255 255
3 47 17 196 255 255 255
3 109 48 42 255 255 255
3 109 7 48 255 255 255
3 109 213 7 255 255 255
3 120 101 259 255 255 255
3 68 232 308 255 255 255
3 195 151 80 255 255 255
3 266 185 110 255 255 255
3 185 69 110 255 255 255
3 109 259 308 255 255 255
3 74 196 17 255 255 255
3 234 74 143 255 255 255
3 74 194 143 255 255 255
3 52 270 23 255 255 255
3 52 106 270 255 255 255
3 106 25 270 255 255 255
3 217 123 106 255 255 255
3 282 275 217 255 255 255
3 10 39 282 255 255 255
3 281 102 187 255 255 255
3 268 272 281 255 255 255
3 108 14 272 255 255 255
3 43 243 14 255 255 255
3 243 43 122 255 255 255
3 154 283 243 255 255 255
3 271 154 45 255 255 255
3 271 283 154 255 255 255
3 271 270 283 255 255 255
3 270 271 247 255 255 255
3 110 173 305 255 255 255
3 69 173 110 255 255 255
3 69 148 173 255 255 255
3 185 280 69 255 255 255
3 25 283 270 255 255 255
3 106 123 25 255 255 255
3 123 235 25 255 255 255
3 217 40 123 255 255 255
3 282 144 275 255 255 255
3 39 144 282 255 255 255
3 39 121 144 255 255 255
3 10 277 39 255 255 255
3 102 235 187 255 255 255
3 283 236 243 255 255 255
3 173 151 305 255 255 255
3 148 239 173 255 255 255
3 69 280 148 255 255 255
3 280 8 148 255 255 255
3 25 102 283 255 255 255
3 235 236 25 255 255 255
3 123 187 235 255 255 255
3 123 219 187 255 255 255
3 123 238 219 255 255 255
3 40 238 123 255 255 255
3 40 219 238 255 255 255
3 217 275 40 255 255 255
3 275 201 40 255 255 255
3 144 201 275 255 255 255
3 144 200 201 255 255 255
3 39 84 121 255 255 255
3 277 84 39 255 255 255
3 277 251 84 255 255 255
3 10 126 277 255 255 255
3 236 258 243 255 255 255
3 173 239 151 255 255 255
3 148 261 239 255 255 255
3 8 261 148 255 255 255
3 235 258 236 255 255 255
3 200 40 201 255 255 255
3 84 51 121 255 255 255
3 84 251 51 255 255 255
3 251 218 51 255 255 255
3 277 265 251 255 255 255
3 126 78 277 255 255 255
3 258 14 243 255 255 255
3 258 272 14 255 255 255
3 258 281 272 255 255 255
3 218 1 51 255 255 255
3 277 78 265 255 255 255
3 78 27 265 255 255 255
3 78 244 27 255 255 255
3 261 8 260 255 255 255
3 244 36 27 255 255 255
