ply
format ascii 1.0
element vertex 324
property float x
property float y
property float z
element face 576
property list uchar int vertex_indices
property uchar red
property uchar green
property uchar blue
end_header
-8.06749916076660156 6.93150043487548828 -1.05649995803833008
1 1 1
-8.14799976348876953 6.85200023651123047 -1.07599997520446777
-7.9869999885559082 6.88299989700317383 -1.07799994945526123
-8.07725048065185547 6.91250038146972656 -1.06700003147125244
-7.96600008010864258 6.87099981307983398 -1.09300005435943604
-7.98600006103515625 6.86600017547607422 -1.10300004482269287
-7.98600006103515625 6.84600019454956055 -1.11000001430511475
-8.11999988555908203 6.90100002288818359 -1.07099997997283936
-8.05306625366210938 6.87118911743164062 -1.08097350597381592
-8.07199954986572266 6.85500001907348633 -1.08399999141693115
-8.07999992370605469 6.92199993133544922 -1.09000003337860107
-8.11999988555908203 6.8880000114440918 -1.07899999618530273
-8.14317035675048828 6.88962841033935547 -1.08804655075073242
-8.06904411315917969 6.904998779296875 -1.03920149803161621
-8.139556884765625 6.88675737380981445 -1.07278347015380859
-8.16399955749511719 6.87400007247924805 -1.07200002670288086
-8.12411689758300781 6.89018630981445312 -1.07100725173950195
-8.07316303253173828 6.90500259399414062 -1.07838630676269531
-8.14599990844726562 6.85200023651123047 -1.0690000057220459
-8.127227783203125 6.90774774551391602 -1.08999216556549072
-8.04432964324951172 6.90803813934326172 -1.05000698566436768
-8.02099990844726562 6.80200004577636719 -1.10099995136260986
-8.17399978637695312 6.85400009155273438 -1.04100000858306885
-8.04699993133544922 6.85500001907348633 -1.08899998664855957
-8.13599967956542969 6.87599992752075195 -1.09500002861022949
-8.07769870758056641 6.93162822723388672 -1.08752000331878662
-8.07499980926513672 6.8899998664855957 -1
-8.05300045013427734 6.90500020980834961 -1.08000004291534424
-8.13199996948242188 6.87599992752075195 -1.09000003337860107
-8.06700038909912109 6.85300016403198242 -1.09000003337860107
-8.03699970245361328 6.8470001220703125 -1.12699997425079346
-8.02000045776367188 6.83500003814697266 -1.11899995803833008
-8.03851032257080078 6.84438085556030273 -1.11368334293365479
-8.03899955749511719 6.82450008392333984 -1.12199997901916504
-8.18500041961669922 6.86700010299682617 -1.02499997615814209
-8.17199993133544922 6.86100006103515625 -1.01699995994567871
-8.17899990081787109 6.85599994659423828 -1.03799998760223389
-8.00950050354003906 6.82275009155273438 -1.12800002098083496
-8.02994251251220703 6.81392717361450195 -1.11306130886077881
-8.03400039672851562 6.84399986267089844 -1.12100005149841309
-8.13899993896484375 6.89200019836425781 -1.04600000381469727
-8.13208770751953125 6.85648775100708008 -1.08482456207275391
-8.13199996948242188 6.8619999885559082 -1.08500003814697266
-8.15799999237060547 6.87200021743774414 -1.05900001525878906
-8.13390254974365234 6.90291738510131836 -1.07311451435089111
-8.10152530670166016 6.87645053863525391 -1.0935978889465332
-8.069915771484375 6.85403585433959961 -1.00108635425567627
-8.04998207092285156 6.91640472412109375 -1.04690432548522949
-8.06200027465820312 6.8470001220703125 -1.03400003910064697
-8.15750026702880859 6.90200042724609375 -1.02562499046325684
-8.06066131591796875 6.87100505828857422 -1.08536696434020996
-8.06299972534179688 6.85900020599365234 -1.07799994945526123
-8.06999969482421875 6.87599992752075195 -1.01800000667572021
-8.14099979400634766 6.90500020980834961 -1.02499997615814209
-8.00699996948242188 6.84600019454956055 -1.10300004482269287
-8.1439056396484375 6.91290044784545898 -1.063018798828125
-8.06499958038330078 6.8470001220703125 -1.08500003814697266
-7.95149993896484375 6.86149978637695312 -1.08750009536743164
-8.06224632263183594 6.85707807540893555 -0.996010959148406982
-8.05700111389160156 6.87179899215698242 -0.994933128356933594
-8.07100009918212891 6.86174964904785156 -0.991500020027160645
-8.06500053405761719 6.86925029754638672 -0.988749980926513672
-8.07709980010986328 6.87107324600219727 -0.98592764139175415
-8.06406879425048828 6.8870091438293457 -0.990982651710510254
-8.07049942016601562 6.88600015640258789 -0.990000009536743164
-8.06253623962402344 6.92908477783203125 -1.04971122741699219
-7.95800018310546875 6.84600019454956055 -1.07500004768371582
-8.14799976348876953 6.89699983596801758 -1.07700002193450928
-8.14799976348876953 6.88000011444091797 -1.04900002479553223
-8.13800048828125 6.84450006484985352 -1.08649992942810059
-8.06961917877197266 6.86484718322753906 -1.04224514961242676
-8.05783939361572266 6.91098260879516602 -1.06873965263366699
-8.05949974060058594 6.9095001220703125 -1.04574990272521973
-8.04749965667724609 6.8567500114440918 -1.09175002574920654
-8.14500045776367188 6.86700010299682617 -1.09000003337860107
-8.180999755859375 6.86699962615966797 -1.03399991989135742
-8.14601516723632812 6.90673065185546875 -1.07685995101928711
-8.1529998779296875 6.88100004196166992 -1.03400003910064697
-8.16904735565185547 6.8875880241394043 -1.02951633930206299
-8.17700672149658203 6.86800670623779297 -1.03600490093231201
-8.18000030517578125 6.8619999885559082 -1.02600002288818359
-8.16100025177001953 6.85099983215332031 -1.02300000190734863
-8.16271781921386719 6.84523439407348633 -1.02852785587310791
-8.16782283782958984 6.85372066497802734 -1.03429579734802246
-8.17850017547607422 6.86149978637695312 -1.04399991035461426
-8.17000007629394531 6.87799978256225586 -1.03499996662139893
-8.16917705535888672 6.8921046257019043 -1.03392636775970459
-8.1529998779296875 6.86100006103515625 -1.07400000095367432
-8.07378959655761719 6.86045312881469727 -1.04095757007598877
-8.05700016021728516 6.83799982070922852 -1.08000004291534424
-8.07562255859375 6.91921186447143555 -1.05905735492706299
-8.14343738555908203 6.90500020980834961 -1.05331254005432129
-8.14799976348876953 6.86800003051757812 -1.08800005912780762
-8.15699958801269531 6.88299989700317383 -1.02600002288818359
-8.15129470825195312 6.89416742324829102 -1.02560889720916748
-8.00112533569335938 6.81949996948242188 -1.12800002098083496
-8.03050041198730469 6.81299972534179688 -1.10249996185302734
-8.03750038146972656 6.84074974060058594 -1.10899996757507324
-8.03899955749511719 6.81599998474121094 -1.12199997901916504
-8.03699970245361328 6.81500005722045898 -1.11899995803833008
-8.02900028228759766 6.80999994277954102 -1.10300004482269287
-8.02750015258789062 6.80700016021728516 -1.09575009346008301
-8.04300022125244141 6.8340001106262207 -1.1109999418258667
-8.07999992370605469 6.85699987411499023 -1.0700000524520874
-8.07384204864501953 6.84602212905883789 -1.0650867223739624
-8.06200027465820312 6.84899997711181641 -1.03100001811981201
-8.0584716796875 6.90929889678955078 -1.08557307720184326
-8.15900039672851562 6.87300014495849609 -1.05200004577636719
-8.04399967193603516 6.84749984741210938 -1.07649993896484375
-8.06124973297119141 6.92199993133544922 -1.07025003433227539
-8.05162429809570312 6.91500234603881836 -1.06566989421844482
-8.055999755859375 6.90000009536743164 -1.04600000381469727
-8.13000011444091797 6.86600017547607422 -1.08500003814697266
-8.06500625610351562 6.8368830680847168 -1.06727743148803711
-8.05399990081787109 6.84399986267089844 -1.06799995899200439
-8.07100009918212891 6.89799976348876953 -1.09399998188018799
-8.01906585693359375 6.82579708099365234 -1.11898529529571533
-8.14414882659912109 6.86596822738647461 -1.06317973136901855
-8.069000244140625 6.86499977111816406 -1.02300000190734863
-8.07600021362304688 6.89599990844726562 -1.08899998664855957
-8.15100002288818359 6.86100006103515625 -1.06700003147125244
-8.05974960327148438 6.93624973297119141 -1.02824997901916504
-8.14299964904785156 6.8619999885559082 -1.09000003337860107
-8.05209255218505859 6.92405271530151367 -1.04405009746551514
-8.06400012969970703 6.93800020217895508 -1.05700004100799561
-8.07500076293945312 6.86950016021728516 -1.00950002670288086
-7.9537501335144043 6.8652501106262207 -1.08025002479553223
-7.952392578125 6.858978271484375 -1.07991325855255127
-7.95912456512451172 6.84893608093261719 -1.08099818229675293
-7.96299982070922852 6.85900020599365234 -1.09599995613098145
-7.95484018325805664 6.85331535339355469 -1.07490706443786621
-7.95898342132568359 6.87796831130981445 -1.08427548408508301
-7.95100021362304688 6.85699987411499023 -1.10300004482269287
-7.96700000762939453 6.84899997711181641 -1.09000003337860107
-7.96899986267089844 6.86399984359741211 -1.07700002193450928
-7.96400022506713867 6.87300014495849609 -1.07700002193450928
-8.12399959564208984 6.89099979400634766 -1.10000002384185791
-8.08727550506591797 6.86532831192016602 -1.07723343372344971
-8.06499958038330078 6.84200000762939453 -1.0549999475479126
-8.03199958801269531 6.80499982833862305 -1.11300003528594971
-8.14800071716308594 6.89999961853027344 -1.05999994277954102
-8.14850044250488281 6.86999988555908203 -1.05500006675720215
-8.12100028991699219 6.86899995803833008 -1.07500004768371582
-8.05657863616943359 6.85878133773803711 -1.07541203498840332
-8.08316898345947266 6.91887426376342773 -1.06958127021789551
-8.06779670715332031 6.9037165641784668 -1.06858277320861816
-8.12399959564208984 6.89799976348876953 -1.09000003337860107
-8.16199970245361328 6.87200021743774414 -1.04400002956390381
-8.06435012817382812 6.85803079605102539 -1.03178632259368896
-8.06380367279052734 6.92255878448486328 -1.08165347576141357
-8.16399955749511719 6.91200017929077148 -1.04400002956390381
-8.12724971771240234 6.90000009536743164 -1.06675004959106445
-8.15200233459472656 6.87197589874267578 -1.09201526641845703
-8.14500045776367188 6.89599990844726562 -1.07299995422363281
-8.12300014495849609 6.91200017929077148 -1.08500003814697266
-8.07600021362304688 6.85900020599365234 -1.08899998664855957
-8.07432270050048828 6.85268878936767578 -1.0552828311920166
-8.16300010681152344 6.85200023651123047 -1.03699994087219238
-8.13189029693603516 6.89372634887695312 -1.09431958198547363
-8.14400005340576172 6.85699987411499023 -1.0820000171661377
-8.1660003662109375 6.91800022125244141 -1.02499997615814209
-8.15600013732910156 6.91400003433227539 -1.02499997615814209
-8.15200328826904297 6.87899541854858398 -1.06200516223907471
-8.15200042724609375 6.89799976348876953 -1.04799997806549072
-8.14370346069335938 6.89026689529418945 -1.05786454677581787
-8.13500022888183594 6.85400009155273438 -1.0700000524520874
-8.13370323181152344 6.89380025863647461 -1.06388342380523682
-8.14999961853027344 6.85799980163574219 -1.07099997997283936
-8.16419601440429688 6.91854095458984375 -1.04011106491088867
-8.13799953460693359 6.84999990463256836 -1.08000004291534424
-8.06068801879882812 6.84631252288818359 -1.0494999885559082
-8.06550025939941406 6.91849994659423828 -1.0494999885559082
-8.06449985504150391 6.85249996185302734 -1.05800008773803711
-8.05850028991699219 6.84474945068359375 -1.04275000095367432
-8.12800025939941406 6.90350008010864258 -1.07349991798400879
-8.12800025939941406 6.8880000114440918 -1.08899998664855957
-8.07600021362304688 6.86499977111816406 -1.07599997520446777
-7.98400020599365234 6.86299991607666016 -1.07899999618530273
-7.98899984359741211 6.85099983215332031 -1.11500000953674316
-8.0475006103515625 6.86250019073486328 -1.09000003337860107
-8.11699962615966797 6.87200021743774414 -1.0700000524520874
-8.03699970245361328 6.85500001907348633 -1.08399999141693115
-8.15200042724609375 6.90399980545043945 -1.05999994277954102
-8.14809036254882812 6.86910629272460938 -1.07589733600616455
-8.06478309631347656 6.86912202835083008 -1.02270472049713135
-8.07125377655029297 6.87811851501464844 -1.01031982898712158
-8.06799983978271484 6.90899991989135742 -1.09300005435943604
-8.12600040435791016 6.88000011444091797 -1.0820000171661377
-8.16199970245361328 6.89400005340576172 -1.04049992561340332
-8.15699958801269531 6.89300012588500977 -1.0429999828338623
-8.08699989318847656 6.86399984359741211 -1.00300002098083496
-8.12399959564208984 6.87400007247924805 -1.07099997997283936
-8.08543777465820312 6.8687443733215332 -0.997950434684753418
-8.14500045776367188 6.89949989318847656 -1.08399999141693115
-8.06389236450195312 6.84433746337890625 -1.07974851131439209
-8.07698535919189453 6.937957763671875 -1.07995927333831787
-8.16499996185302734 6.89799976348876953 -1.03900003433227539
-8.15697669982910156 6.86503124237060547 -1.04903173446655273
-8.09300041198730469 6.87300014495849609 -1.07899999618530273
-8.07100009918212891 6.86100006103515625 -1.06500005722045898
-8.07600021362304688 6.94700002670288086 -1.06599998474121094
-8.03999996185302734 6.81199979782104492 -1.11500000953674316
-8.03949928283691406 6.83837509155273438 -1.11925005912780762
-8.01099967956542969 6.84899997711181641 -1.11000001430511475
-8.00699996948242188 6.84999990463256836 -1.12699997425079346
-8.01200008392333984 6.84350013732910156 -1.12349998950958252
-8.00304698944091797 6.85860776901245117 -1.11995863914489746
-8.00300025939941406 6.84100008010864258 -1.12899994850158691
-8.00981903076171875 6.83972549438476562 -1.11411571502685547
-8.01865959167480469 6.836944580078125 -1.12723004817962646
-8.02654457092285156 6.82876873016357422 -1.1193549633026123
-8.14807510375976562 6.85701704025268555 -1.06006836891174316
-8.05800056457519531 6.87450027465820312 -1.08450007438659668
-8.06717109680175781 6.8914942741394043 -1.0035097599029541
-8.12899971008300781 6.90799999237060547 -1.08299994468688965
-8.07800006866455078 6.86800003051757812 -1.08299994468688965
-8.06299972534179688 6.8619999885559082 -1.01800000667572021
-8.08300018310546875 6.85949993133544922 -1.08150005340576172
-8.03999996185302734 6.83549976348876953 -1.12849998474121094
-8.06978416442871094 6.93305015563964844 -1.06432068347930908
-8.01743793487548828 6.81194067001342773 -1.12752616405487061
-8.14050006866455078 6.90050029754638672 -1.0559999942779541
-8.14700031280517578 6.90799999237060547 -1.0559999942779541
-8.07400035858154297 6.84800004959106445 -1.09500002861022949
-8.06807422637939453 6.8578343391418457 -1.02824091911315918
-8.05999946594238281 6.86499977111816406 -1.00399994850158691
-8.06400012969970703 6.85699987411499023 -1.01199996471405029
-7.99618101119995117 6.85156440734863281 -1.12801682949066162
-7.99692010879516602 6.8603510856628418 -1.11411285400390625
-7.99381256103515625 6.84356260299682617 -1.12687492370605469
-7.9720001220703125 6.87099981307983398 -1.08000004291534424
-7.95699977874755859 6.87599992752075195 -1.09400010108947754
-7.95149993896484375 6.868499755859375 -1.09549999237060547
-7.95399999618530273 6.87400007247924805 -1.10599994659423828
-7.96264076232910156 6.86436891555786133 -1.10302138328552246
-7.96999979019165039 6.8600001335144043 -1.09200000762939453
-7.95300006866455078 6.85799980163574219 -1.09099996089935303
-8.14824199676513672 6.90720462799072266 -1.0324549674987793
-8.06499958038330078 6.88000011444091797 -1.0130000114440918
-8.058013916015625 6.88300228118896484 -1.00101709365844727
-8.06299972534179688 6.90799999237060547 -1.05999994277954102
-8.0410003662109375 6.84899997711181641 -1.1119999885559082
-8.03999996185302734 6.81500005722045898 -1.11300003528594971
-8.06400012969970703 6.84299993515014648 -1.06099998950958252
-8.16399955749511719 6.92299985885620117 -1.02999997138977051
-8.06799983978271484 6.85649967193603516 -1.06550002098083496
-8.06700038909912109 6.90399980545043945 -1.0820000171661377
-8.06799983978271484 6.8470001220703125 -1.09000003337860107
-8.14700031280517578 6.86499977111816406 -1.03799998760223389
-8.14900016784667969 6.85699987411499023 -1.03900003433227539
-8.14700031280517578 6.8470001220703125 -1.04400002956390381
-8.14394187927246094 6.89547109603881836 -1.0353856086730957
-8.15219593048095703 6.88175296783447266 -1.04128730297088623
-8.14900016784667969 6.86499977111816406 -1.05299997329711914
-8.1595458984375 6.84142971038818359 -1.03702628612518311
-8.15100002288818359 6.84299993515014648 -1.04700005054473877
-8.16950035095214844 6.85649967193603516 -1.04200005531311035
-8.17399978637695312 6.90100002288818359 -1.0429999828338623
-8.07900238037109375 6.86191034317016602 -1.00977349281311035
-8.08715248107910156 6.88202238082885742 -1.00358152389526367
-8.05850028991699219 6.93474960327148438 -1.02600002288818359
-8.07499980926513672 6.91099977493286133 -1.08599996566772461
-8.06400012969970703 6.89900016784667969 -1.05200004577636719
-8.12399959564208984 6.89599990844726562 -1.05900001525878906
-8.125 6.88199996948242188 -1.08000004291534424
-8.16100025177001953 6.875 -1.06099998950958252
-8.14299964904785156 6.90600013732910156 -1.06200003623962402
-8.13599967956542969 6.8619999885559082 -1.09300005435943604
-8.09099960327148438 6.87799978256225586 -1.09099996089935303
-8.05767440795898438 6.92800140380859375 -1.05735373497009277
-8.14900016784667969 6.86399984359741211 -1.08299994468688965
-8.13099956512451172 6.87400007247924805 -1.08800005912780762
-8.13169765472412109 6.89089059829711914 -1.10073637962341309
-8.07458782196044922 6.84697818756103516 -1.04832684993743896
-8.05400371551513672 6.87001276016235352 -1.01101577281951904
-8.05399990081787109 6.8470001220703125 -1.03600001335144043
-8.13599967956542969 6.84899997711181641 -1.06500005722045898
-8.07124996185302734 6.85150003433227539 -1.07649993896484375
-8.07170963287353516 6.86198854446411133 -1.05907046794891357
-8.05574989318847656 6.92724990844726562 -1.02524995803833008
-7.9590001106262207 6.86700010299682617 -1.1119999885559082
-7.98600006103515625 6.86100006103515625 -1.07200002670288086
-7.97300004959106445 6.86700010299682617 -1.09000003337860107
-7.9850001335144043 6.86299991607666016 -1.09700000286102295
-7.98733901977539062 6.86555194854736328 -1.10008907318115234
-7.98999977111816406 6.8470001220703125 -1.10399997234344482
-7.98600006103515625 6.84399986267089844 -1.10300004482269287
-7.98600006103515625 6.84749984741210938 -1.11450004577636719
-7.98799991607666016 6.84499979019165039 -1.10800004005432129
-7.98788738250732422 6.85187959671020508 -1.12201869487762451
-8.13799953460693359 6.87400007247924805 -1.08000004291534424
-8.17249965667724609 6.90849971771240234 -1.03600001335144043
-7.97204828262329102 6.85331153869628906 -1.07722306251525879
-7.97900009155273438 6.8600001335144043 -1.07500004768371582
-7.95300006866455078 6.86399984359741211 -1.07200002670288086
-7.9920654296875 6.87624979019165039 -1.07719004154205322
-7.96400022506713867 6.87599992752075195 -1.09000003337860107
-7.96526527404785156 6.88566207885742188 -1.10335731506347656
-7.95744705200195312 6.88236808776855469 -1.10495054721832275
-7.95699977874755859 6.86299991607666016 -1.10599994659423828
-7.99708127975463867 6.847442626953125 -1.10442233085632324
-7.99450016021728516 6.85299968719482422 -1.10800004005432129
-8.125 6.90199995040893555 -1.07700002193450928
-8.055999755859375 6.85500001907348633 -1.08700001239776611
-8.06640720367431641 6.92395830154418945 -1.0961679220199585
-8.03134632110595703 6.83222150802612305 -1.12907981872558594
-8.03400039672851562 6.81149959564208984 -1.10850000381469727
-8.16524410247802734 6.86401844024658203 -1.02410602569580078
-8.17193412780761719 6.87713766098022461 -1.02729463577270508
-8.180999755859375 6.86600017547607422 -1.02100002765655518
-8.17800045013427734 6.85599994659423828 -1.02699995040893555
-8.15999984741210938 6.86649990081787109 -1.02649998664855957
-8.15404415130615234 6.86173248291015625 -1.02500724792480469
-8.03149986267089844 6.82149982452392578 -1.12750005722045898
-8.03400039672851562 6.82999992370605469 -1.11300003528594971
-8.15244674682617188 6.91356039047241211 -1.0463414192199707
-8.04743766784667969 6.85909366607666016 -1.07946872711181641
-8.047882080078125 6.84658050537109375 -1.06981408596038818
-8.06200027465820312 6.84600019454956055 -1.03799998760223389
-8.07400035858154297 6.92700004577636719 -1.06400001049041748
-8.13949966430664062 6.85850000381469727 -1.06200003623962402
-8.07049942016601562 6.90549993515014648 -1.05349993705749512
-8.167022705078125 6.89985179901123047 -1.02699637413024902
3 128 237 127 255 255 255
3 127 295 128 255 255 255
3 237 58 127 255 255 255
3 128 129 237 255 255 255
3 58 132 127 255 255 255
3 237 233 58 255 255 255
3 128 131 129 255 255 255
3 295 131 128 255 255 255
3 237 133 233 255 255 255
3 129 130 237 255 255 255
3 127 136 295 255 255 255
3 130 300 237 255 255 255
3 129 134 130 255 255 255
3 129 293 134 255 255 255
3 131 67 129 255 255 255
3 128 237 58 255 255 255
3 131 293 67 255 255 255
3 295 135 131 255 255 255
3 127 132 136 255 255 255
3 132 231 136 255 255 255
3 132 233 232 255 255 255
3 133 234 233 255 255 255
3 130 235 300 255 255 255
3 134 236 130 255 255 255
3 129 67 293 255 255 255
3 131 135 293 255 255 255
3 135 294 293 255 255 255
3 295 136 135 255 255 255
3 136 231 135 255 255 255
3 231 294 135 255 255 255
3 231 296 294 255 255 255
3 132 297 231 255 255 255
3 232 297 132 255 255 255
3 232 298 297 255 255 255
3 233 299 232 255 255 255
3 234 299 233 255 255 255
3 133 300 234 255 255 255
3 235 281 300 255 255 255
3 236 235 130 255 255 255
3 236 283 235 255 255 255
3 134 293 236 255 255 255
3 293 178 236 255 255 255
3 294 178 293 255 255 255
3 294 282 178 255 255 255
3 296 282 294 255 255 255
3 231 3 296 255 255 255
3 297 283 231 255 255 255
3 298 5 297 255 255 255
3 299 298 232 255 255 255
3 300 281 234 255 255 255
3 281 299 234 255 255 255
3 281 298 299 255 255 255
3 235 298 281 255 255 255
3 235 5 298 255 255 255
3 236 284 283 255 255 255
3 282 296 178 255 255 255
3 296 285 178 255 255 255
3 283 178 231 255 255 255
3 284 6 283 255 255 255
3 285 284 178 255 255 255
3 284 286 6 255 255 255
3 284 236 178 255 255 255
3 286 179 6 255 255 255
3 284 287 286 255 255 255
3 285 302 284 255 255 255
3 286 288 179 255 255 255
3 287 7 286 255 255 255
3 285 229 302 255 255 255
3 286 289 288 255 255 255
3 288 290 179 255 255 255
3 289 287 288 255 255 255
3 290 229 179 255 255 255
3 288 230 290 255 255 255
3 290 228 229 255 255 255
3 301 286 302 255 255 255
3 301 204 55 255 255 255
3 302 229 301 255 255 255
3 228 207 229 255 255 255
3 228 205 207 255 255 255
3 290 230 228 255 255 255
3 204 209 55 255 255 255
3 301 229 204 255 255 255
3 229 207 204 255 255 255
3 205 206 207 255 255 255
3 204 206 209 255 255 255
3 205 208 206 255 255 255
3 228 208 205 255 255 255
3 230 208 228 255 255 255
3 206 210 209 255 255 255
3 204 207 206 255 255 255
3 207 208 206 255 255 255
3 208 210 206 255 255 255
3 209 301 55 255 255 255
3 210 117 209 255 255 255
3 208 38 210 255 255 255
3 209 289 301 255 255 255
3 210 211 117 255 255 255
3 211 39 117 255 255 255
3 306 40 210 255 255 255
3 210 38 306 255 255 255
3 38 96 221 255 255 255
3 208 96 38 255 255 255
3 39 221 117 255 255 255
3 211 315 39 255 255 255
3 210 33 211 255 255 255
3 40 32 210 255 255 255
3 306 31 40 255 255 255
3 314 219 306 255 255 255
3 38 314 306 255 255 255
3 38 221 314 255 255 255
3 39 140 221 255 255 255
3 315 97 39 255 255 255
3 211 32 315 255 255 255
3 211 33 98 255 255 255
3 40 33 32 255 255 255
3 31 33 40 255 255 255
3 306 219 31 255 255 255
3 314 34 219 255 255 255
3 32 98 315 255 255 255
3 33 242 98 255 255 255
3 31 203 33 255 255 255
3 34 203 219 255 255 255
3 314 99 34 255 255 255
3 314 100 99 255 255 255
3 96 117 221 255 255 255
3 39 101 140 255 255 255
3 97 101 39 255 255 255
3 97 102 101 255 255 255
3 98 103 315 255 255 255
3 31 219 203 255 255 255
3 34 103 203 255 255 255
3 99 243 34 255 255 255
3 100 202 99 255 255 255
3 314 140 100 255 255 255
3 101 102 140 255 255 255
3 102 22 101 255 255 255
3 103 34 315 255 255 255
3 34 100 315 255 255 255
3 98 203 103 255 255 255
3 99 202 243 255 255 255
3 202 307 243 255 255 255
3 314 221 140 255 255 255
3 203 242 33 255 255 255
3 307 97 243 255 255 255
3 202 140 307 255 255 255
3 307 102 97 255 255 255
3 308 309 310 255 255 255
3 309 35 310 255 255 255
3 310 311 308 255 255 255
3 308 312 309 255 255 255
3 311 82 308 255 255 255
3 310 81 311 255 255 255
3 309 76 35 255 255 255
3 309 94 79 255 255 255
3 309 312 94 255 255 255
3 312 78 94 255 255 255
3 308 313 312 255 255 255
3 308 36 313 255 255 255
3 311 83 82 255 255 255
3 81 37 311 255 255 255
3 310 35 81 255 255 255
3 35 76 81 255 255 255
3 309 80 76 255 255 255
3 94 95 79 255 255 255
3 78 95 94 255 255 255
3 312 313 78 255 255 255
3 36 82 313 255 255 255
3 308 81 36 255 255 255
3 311 84 83 255 255 255
3 37 84 311 255 255 255
3 80 85 76 255 255 255
3 309 86 80 255 255 255
3 309 79 86 255 255 255
3 79 87 86 255 255 255
3 95 323 79 255 255 255
3 95 50 323 255 255 255
3 78 252 95 255 255 255
3 313 249 78 255 255 255
3 82 83 313 255 255 255
3 83 250 313 255 255 255
3 83 251 250 255 255 255
3 308 80 81 255 255 255
3 84 255 83 255 255 255
3 84 23 255 255 255 255
3 84 37 23 255 255 255
3 37 85 23 255 255 255
3 85 37 76 255 255 255
3 86 148 80 255 255 255
3 87 189 86 255 255 255
3 79 323 87 255 255 255
3 78 253 252 255 255 255
3 249 253 78 255 255 255
3 313 250 249 255 255 255
3 250 254 249 255 255 255
3 251 254 250 255 255 255
3 251 118 254 255 255 255
3 83 255 251 255 255 255
3 85 257 23 255 255 255
3 80 257 85 255 255 255
3 86 253 148 255 255 255
3 87 258 189 255 255 255
3 252 54 95 255 255 255
3 253 41 252 255 255 255
3 249 69 253 255 255 255
3 254 142 249 255 255 255
3 251 321 118 255 255 255
3 255 256 251 255 255 255
3 256 212 251 255 255 255
3 255 158 256 255 255 255
3 257 158 23 255 255 255
3 86 190 253 255 255 255
3 258 197 189 255 255 255
3 87 292 258 255 255 255
3 323 292 87 255 255 255
3 323 161 292 255 255 255
3 50 162 323 255 255 255
3 50 238 162 255 255 255
3 95 238 50 255 255 255
3 41 92 252 255 255 255
3 253 69 41 255 255 255
3 249 142 69 255 255 255
3 254 118 142 255 255 255
3 118 163 142 255 255 255
3 212 321 251 255 255 255
3 255 23 158 255 255 255
3 86 197 190 255 255 255
3 197 164 189 255 255 255
3 258 151 197 255 255 255
3 292 151 258 255 255 255
3 292 169 151 255 255 255
3 161 245 292 255 255 255
3 323 162 161 255 255 255
3 162 245 161 255 255 255
3 162 238 245 255 255 255
3 252 238 54 255 255 255
3 41 222 92 255 255 255
3 69 165 41 255 255 255
3 142 163 69 255 255 255
3 163 165 69 255 255 255
3 118 184 163 255 255 255
3 321 166 118 255 255 255
3 164 190 189 255 255 255
3 169 316 151 255 255 255
3 292 245 169 255 255 255
3 245 238 169 255 255 255
3 92 238 252 255 255 255
3 41 167 222 255 255 255
3 165 167 41 255 255 255
3 165 15 167 255 255 255
3 163 15 165 255 255 255
3 118 291 184 255 255 255
3 166 168 118 255 255 255
3 321 277 166 255 255 255
3 277 170 166 255 255 255
3 321 212 277 255 255 255
3 212 19 277 255 255 255
3 316 164 151 255 255 255
3 169 238 316 255 255 255
3 167 152 222 255 255 255
3 168 88 118 255 255 255
3 166 2 168 255 255 255
3 170 42 166 255 255 255
3 19 170 277 255 255 255
3 316 223 164 255 255 255
3 238 92 316 255 255 255
3 92 56 316 255 255 255
3 222 267 92 255 255 255
3 152 267 222 255 255 255
3 152 175 267 255 255 255
3 15 17 167 255 255 255
3 291 265 15 255 255 255
3 15 184 291 255 255 255
3 16 266 184 255 255 255
3 184 271 16 255 255 255
3 168 160 88 255 255 255
3 42 43 166 255 255 255
3 170 70 42 255 255 255
3 19 2 170 255 255 255
3 212 168 19 255 255 255
3 223 92 164 255 255 255
3 316 56 223 255 255 255
3 56 183 223 255 255 255
3 175 56 267 255 255 255
3 167 17 152 255 255 255
3 15 265 17 255 255 255
3 265 181 17 255 255 255
3 291 143 265 255 255 255
3 184 266 163 255 255 255
3 160 93 88 255 255 255
3 43 291 166 255 255 255
3 2 70 170 255 255 255
3 19 88 2 255 255 255
3 212 121 168 255 255 255
3 183 141 223 255 255 255
3 175 45 56 255 255 255
3 8 175 152 255 255 255
3 8 20 175 255 255 255
3 152 264 8 255 255 255
3 265 143 181 255 255 255
3 291 113 143 255 255 255
3 266 108 163 255 255 255
3 160 43 93 255 255 255
3 43 113 291 255 255 255
3 43 143 113 255 255 255
3 70 268 42 255 255 255
3 88 271 2 255 255 255
3 45 77 56 255 255 255
3 20 215 175 255 255 255
3 8 303 20 255 255 255
3 152 45 264 255 255 255
3 8 264 17 255 255 255
3 17 12 8 255 255 255
3 17 192 12 255 255 255
3 43 75 93 255 255 255
3 70 123 268 255 255 255
3 271 160 2 255 255 255
3 212 198 121 255 255 255
3 183 154 141 255 255 255
3 56 68 183 255 255 255
3 77 68 56 255 255 255
3 77 194 68 255 255 255
3 175 155 45 255 255 255
3 8 17 303 255 255 255
3 192 143 12 255 255 255
3 17 15 192 255 255 255
3 43 272 75 255 255 255
3 123 153 268 255 255 255
3 271 123 160 255 255 255
3 198 44 121 255 255 255
3 183 77 154 255 255 255
3 194 13 68 255 255 255
3 45 215 77 255 255 255
3 20 194 215 255 255 255
3 303 147 20 255 255 255
3 303 176 147 255 255 255
3 17 45 303 255 255 255
3 143 188 12 255 255 255
3 272 93 75 255 255 255
3 272 29 93 255 255 255
3 153 25 268 255 255 255
3 123 70 160 255 255 255
3 271 93 123 255 255 255
3 44 266 121 255 255 255
3 194 159 13 255 255 255
3 45 155 215 255 255 255
3 20 159 194 255 255 255
3 147 159 20 255 255 255
3 176 137 147 255 255 255
3 188 176 12 255 255 255
3 143 272 188 255 255 255
3 29 25 93 255 255 255
3 25 29 268 255 255 255
3 153 13 25 255 255 255
3 93 153 123 255 255 255
3 108 44 198 255 255 255
3 198 148 108 255 255 255
3 13 154 68 255 255 255
3 147 137 159 255 255 255
3 137 273 159 255 255 255
3 176 29 137 255 255 255
3 176 303 12 255 255 255
3 13 273 25 255 255 255
3 148 253 108 255 255 255
3 253 163 108 255 255 255
3 198 257 148 255 255 255
3 273 137 25 255 255 255
3 176 188 29 255 255 255
3 13 159 273 255 255 255
3 198 158 257 255 255 255
3 46 199 269 255 255 255
3 199 216 269 255 255 255
3 46 138 199 255 255 255
3 199 138 216 255 255 255
3 138 177 216 255 255 255
3 46 218 138 255 255 255
3 177 51 216 255 255 255
3 218 104 138 255 255 255
3 51 156 216 255 255 255
3 177 52 51 255 255 255
3 138 200 177 255 255 255
3 104 279 138 255 255 255
3 156 218 216 255 255 255
3 52 9 51 255 255 255
3 177 200 52 255 255 255
3 200 246 52 255 255 255
3 138 279 200 255 255 255
3 104 157 279 255 255 255
3 218 278 104 255 255 255
3 156 224 218 255 255 255
3 51 30 156 255 255 255
3 52 144 9 255 255 255
3 246 144 52 255 255 255
3 200 279 246 255 255 255
3 104 105 157 255 255 255
3 278 105 104 255 255 255
3 156 30 224 255 255 255
3 30 248 224 255 255 255
3 213 180 51 255 255 255
3 9 213 51 255 255 255
3 144 317 9 255 255 255
3 246 173 144 255 255 255
3 279 173 246 255 255 255
3 157 71 279 255 255 255
3 105 274 157 255 255 255
3 218 10 278 255 255 255
3 30 304 248 255 255 255
3 51 74 30 255 255 255
3 180 74 51 255 255 255
3 317 180 9 255 255 255
3 279 171 173 255 255 255
3 157 89 71 255 255 255
3 105 139 274 255 255 255
3 278 195 105 255 255 255
3 195 114 105 255 255 255
3 10 195 278 255 255 255
3 218 216 10 255 255 255
3 304 57 248 255 255 255
3 30 74 304 255 255 255
3 74 24 304 255 255 255
3 9 180 213 255 255 255
3 318 317 144 255 255 255
3 144 115 318 255 255 255
3 279 149 171 255 255 255
3 71 149 279 255 255 255
3 89 225 71 255 255 255
3 157 274 89 255 255 255
3 139 174 274 255 255 255
3 105 114 139 255 255 255
3 195 90 114 255 255 255
3 10 224 195 255 255 255
3 57 90 248 255 255 255
3 24 317 304 255 255 255
3 74 182 24 255 255 255
3 180 182 74 255 255 255
3 317 24 180 255 255 255
3 171 244 173 255 255 255
3 139 171 174 255 255 255
3 90 115 114 255 255 255
3 224 248 195 255 255 255
3 57 304 90 255 255 255
3 109 317 318 255 255 255
3 171 139 244 255 255 255
3 149 319 171 255 255 255
3 71 225 149 255 255 255
3 174 319 274 255 255 255
3 115 244 114 255 255 255
3 90 318 115 255 255 255
3 90 109 318 255 255 255
3 139 114 244 255 255 255
3 149 49 319 255 255 255
3 106 49 149 255 255 255
3 225 217 149 255 255 255
3 89 106 225 255 255 255
3 274 49 89 255 255 255
3 174 276 319 255 255 255
3 115 173 244 255 255 255
3 115 144 173 255 255 255
3 217 227 149 255 255 255
3 217 226 227 255 255 255
3 217 275 226 255 255 255
3 226 59 227 255 255 255
3 275 60 226 255 255 255
3 217 185 275 255 255 255
3 59 47 227 255 255 255
3 60 59 226 255 255 255
3 47 259 227 255 255 255
3 59 61 47 255 255 255
3 60 62 59 255 255 255
3 275 240 60 255 255 255
3 185 239 275 255 255 255
3 259 119 227 255 255 255
3 59 62 61 255 255 255
3 60 240 62 255 255 255
3 239 214 275 255 255 255
3 185 53 239 255 255 255
3 119 225 227 255 255 255
3 61 259 47 255 255 255
3 62 63 61 255 255 255
3 62 64 63 255 255 255
3 62 240 64 255 255 255
3 240 214 64 255 255 255
3 275 214 240 255 255 255
3 53 186 239 255 255 255
3 185 119 53 255 255 255
3 119 185 225 255 255 255
3 259 193 191 255 255 255
3 61 193 259 255 255 255
3 63 193 61 255 255 255
3 64 65 63 255 255 255
3 64 214 65 255 255 255
3 186 214 239 255 255 255
3 186 27 214 255 255 255
3 186 260 27 255 255 255
3 119 126 53 255 255 255
3 65 260 63 255 255 255
3 214 27 65 255 255 255
3 27 260 65 255 255 255
3 53 126 186 255 255 255
3 119 259 126 255 255 255
3 259 260 126 255 255 255
3 63 260 193 255 255 255
3 260 191 193 255 255 255
3 260 259 191 255 255 255
3 186 126 260 255 255 255
3 261 280 122 255 255 255
3 305 107 187 255 255 255
3 187 11 305 255 255 255
3 305 150 107 255 255 255
3 187 262 11 255 255 255
3 107 116 187 255 255 255
3 150 110 107 255 255 255
3 11 26 305 255 255 255
3 262 145 11 255 255 255
3 187 116 262 255 255 255
3 116 120 262 255 255 255
3 107 247 116 255 255 255
3 110 111 107 255 255 255
3 26 196 305 255 255 255
3 145 26 11 255 255 255
3 262 18 145 255 255 255
3 120 18 262 255 255 255
3 247 146 116 255 255 255
3 107 28 247 255 255 255
3 28 72 247 255 255 255
3 107 111 28 255 255 255
3 111 72 28 255 255 255
3 305 196 150 255 255 255
3 145 196 26 255 255 255
3 18 4 145 255 255 255
3 18 146 4 255 255 255
3 120 146 18 255 255 255
3 146 120 116 255 255 255
3 247 72 146 255 255 255
3 110 270 111 255 255 255
3 220 110 150 255 255 255
3 220 270 110 255 255 255
3 150 196 220 255 255 255
3 145 320 196 255 255 255
3 72 241 146 255 255 255
3 241 263 146 255 255 255
3 72 21 241 255 255 255
3 111 21 72 255 255 255
3 270 124 111 255 255 255
3 220 125 270 255 255 255
3 220 201 125 255 255 255
3 145 91 320 255 255 255
3 4 91 145 255 255 255
3 4 322 91 255 255 255
3 146 322 4 255 255 255
3 146 263 322 255 255 255
3 241 21 263 255 255 255
3 21 112 263 255 255 255
3 220 196 201 255 255 255
3 91 0 320 255 255 255
3 322 14 91 255 255 255
3 263 14 322 255 255 255
3 263 112 14 255 255 255
3 48 21 111 255 255 255
3 111 124 48 255 255 255
3 270 66 124 255 255 255
3 270 125 66 255 255 255
3 91 66 0 255 255 255
3 14 172 91 255 255 255
3 124 73 48 255 255 255
3 66 172 124 255 255 255
3 91 172 66 255 255 255
3 48 73 21 255 255 255
3 124 172 73 255 255 255
3 172 14 73 255 255 255
3 14 112 73 255 255 255
3 112 21 73 255 255 255
3 125 201 0 255 255 255
3 201 320 0 255 255 255
3 201 196 320 255 255 255
3 0 66 125 255 255 255
3 1 1 1 255 255 255
