ply
format ascii 1.0
element vertex 324
property float x
property float y
property float z
element face 576
property list uchar int vertex_indices
property uchar red
property uchar green
property uchar blue
end_header
-3.03211331367492676 -5.87572622299194336 -0.961272060871124268
-3.26660442352294922 -5.87216281890869141 -0.988624632358551025
-3.19900178909301758 -5.82948875427246094 -0.964171648025512695
-3.23086142539978027 -5.82231330871582031 -0.994401454925537109
-3.25498366355895996 -5.84991264343261719 -0.993883073329925537
-3.16625118255615234 -5.76088857650756836 -1.01297736167907715
-3.04733395576477051 -5.88324975967407227 -0.969684243202209473
-3.23146343231201172 -5.8660426139831543 -0.994871377944946289
-3.05634880065917969 -5.84181022644042969 -1.00127041339874268
-3.05913615226745605 -5.85596323013305664 -1.00360393524169922
-3.01584339141845703 -5.83325338363647461 -1.00330471992492676
-3.02784585952758789 -5.87131738662719727 -1.00090312957763672
-3.03399491310119629 -5.82125473022460938 -1.01136314868927002
-3.01470184326171875 -5.88043975830078125 -1.00017046928405762
-3.05593395233154297 -5.8582758903503418 -1.02143263816833496
-3.03524374961853027 -5.83866500854492188 -1.01747894287109375
-3.03728103637695312 -5.86061525344848633 -1.01335906982421875
-3.01200008392333984 -5.86100006103515625 -1.00800001621246338
-3.13394308090209961 -5.8223114013671875 -0.944342613220214844
-3.01099991798400879 -5.82399988174438477 -0.879999995231628418
-3.11400008201599121 -5.79199981689453125 -1.00999999046325684
-3.0280001163482666 -5.8619999885559082 -0.934000015258789062
-3.17750787734985352 -5.75868749618530273 -0.977685630321502686
-3.20154356956481934 -5.85194873809814453 -0.997518002986907959
-3.16488909721374512 -5.75438165664672852 -0.999499917030334473
-3.19199991226196289 -5.84899997711181641 -0.967000007629394531
-3.22015690803527832 -5.80779075622558594 -1.00989973545074463
-3.14698266983032227 -5.84037637710571289 -1.01238596439361572
-3.14087557792663574 -5.82166957855224609 -1.00038003921508789
-3.165069580078125 -5.83937978744506836 -1.00100231170654297
-3.10006475448608398 -5.88222885131835938 -0.885699748992919922
-3.25671696662902832 -5.80492925643920898 -1.02593278884887695
-3.24608016014099121 -5.8049321174621582 -1.01240324974060059
-3.21117544174194336 -5.84261894226074219 -1.00626266002655029
-3.26456022262573242 -5.86562395095825195 -1.00901675224304199
-3.2570500373840332 -5.86269998550415039 -1.01438057422637939
-3.25882720947265625 -5.89474248886108398 -0.994302272796630859
-3.02447676658630371 -5.79796838760375977 -0.839386284351348877
-3.08785557746887207 -5.86757087707519531 -0.893178284168243408
-3.01600003242492676 -5.83900022506713867 -0.861999988555908203
-3.17077803611755371 -5.84421539306640625 -0.973090112209320068
-3.19395136833190918 -5.84011745452880859 -0.954450249671936035
-3.21565413475036621 -5.85533380508422852 -0.981804013252258301
-3.12916994094848633 -5.78138494491577148 -0.954150676727294922
-3.20948457717895508 -5.85509014129638672 -0.960691452026367188
-3.23795223236083984 -5.83377838134765625 -0.962450921535491943
-3.2021794319152832 -5.81682062149047852 -0.982985615730285645
-3.22835898399353027 -5.85266542434692383 -1.01020026206970215
-3.23823285102844238 -5.87232255935668945 -1.00882816314697266
-3.27797889709472656 -5.88357830047607422 -1.02175140380859375
-3.26128530502319336 -5.88269996643066406 -1.02357268333435059
-3.07066559791564941 -5.88284683227539062 -0.867545604705810547
-3.19626903533935547 -5.84763813018798828 -0.991863489151000977
-3.21312260627746582 -5.7540898323059082 -1.00429356098175049
-3.17449259757995605 -5.757720947265625 -1.02211618423461914
-3.16748929023742676 -5.77550315856933594 -1.01541674137115479
-3.19183158874511719 -5.80007076263427734 -1.0058063268661499
-3.18189358711242676 -5.78542041778564453 -1.00886332988739014
-3.14948606491088867 -5.79943180084228516 -1.01162862777709961
-3.13339853286743164 -5.77981328964233398 -1.02154958248138428
-3.2329256534576416 -5.77531576156616211 -1.00842726230621338
-3.13744068145751953 -5.77861166000366211 -0.997993826866149902
-3.23084092140197754 -5.7548518180847168 -1.00272274017333984
-3.1650846004486084 -5.82946538925170898 -0.987606644630432129
-3.13467931747436523 -5.82743644714355469 -0.984268009662628174
-3.05200004577636719 -5.86499977111816406 -0.879000008106231689
-3.24221444129943848 -5.88615703582763672 -0.992283463478088379
-3.22986388206481934 -5.8455195426940918 -0.955196142196655273
-3.2814784049987793 -5.8781437873840332 -1.02164065837860107
-3.00830435752868652 -5.80181503295898438 -0.900968730449676514
-3.02336597442626953 -5.85948038101196289 -0.85206073522567749
-3.02253460884094238 -5.81077146530151367 -0.896423459053039551
-3.02353882789611816 -5.8021397590637207 -0.9162101149559021
-3.00300002098083496 -5.81699991226196289 -0.878000020980834961
-3.00002074241638184 -5.84598350524902344 -0.885715782642364502
-3.03450608253479004 -5.84185218811035156 -0.870065093040466309
-3.02954435348510742 -5.8217315673828125 -0.919488608837127686
-3.01817226409912109 -5.87585258483886719 -0.860542416572570801
-3.02483868598937988 -5.8107905387878418 -0.935774743556976318
-3.20803380012512207 -5.76706838607788086 -0.970274627208709717
-3.17600011825561523 -5.83199977874755859 -0.958000004291534424
-3.22594141960144043 -5.86874866485595703 -1.00897717475891113
-3.04655122756958008 -5.87611150741577148 -0.936899900436401367
-3.15499997138977051 -5.82899999618530273 -0.947000026702880859
-3.12607645988464355 -5.79497575759887695 -0.926255643367767334
-3.1490790843963623 -5.82831287384033203 -0.932446002960205078
-3.26151347160339355 -5.84731817245483398 -1.01669919490814209
-3.05881237983703613 -5.87881803512573242 -0.923468232154846191
-3.06732058525085449 -5.89819192886352539 -0.940705537796020508
-3.1747286319732666 -5.80666828155517578 -0.930809378623962402
-3.14700007438659668 -5.80499982833862305 -0.958000004291534424
-3.11998081207275391 -5.7754054069519043 -0.995573163032531738
-3.16945648193359375 -5.79503440856933594 -0.919045150279998779
-3.28093457221984863 -5.88123846054077148 -1.01729011535644531
-3.21142768859863281 -5.84461832046508789 -0.946414351463317871
-3.0070185661315918 -5.8331756591796875 -0.965341925621032715
-3.14590096473693848 -5.77102279663085938 -0.957174360752105713
-3.09024763107299805 -5.89748144149780273 -0.896708488464355469
-3.1908879280090332 -5.79710149765014648 -0.934512734413146973
-3.11533045768737793 -5.79226541519165039 -0.970579445362091064
-3.15904593467712402 -5.77869272232055664 -0.920302271842956543
-3.19377636909484863 -5.85867071151733398 -0.974175810813903809
-3.17100000381469727 -5.83699989318847656 -0.96799999475479126
-3.26433753967285156 -5.85155391693115234 -1.01291525363922119
-3.2328794002532959 -5.74411869049072266 -0.980708599090576172
-3.12213468551635742 -5.81086826324462891 -0.910184383392333984
-3.15620923042297363 -5.83812856674194336 -0.969086170196533203
-3.00576639175415039 -5.87807083129882812 -0.998377084732055664
-3.01099991798400879 -5.85799980163574219 -1.01699995994567871
-3.02600002288818359 -5.84850025177001953 -1.01349997520446777
-3.00099992752075195 -5.85900020599365234 -1.00699996948242188
-3.03963327407836914 -5.87439441680908203 -1.00880610942840576
-3.18760132789611816 -5.73919486999511719 -1.00847446918487549
-3.18164563179016113 -5.74132108688354492 -1.02841472625732422
-3.19479894638061523 -5.75660419464111328 -1.01243448257446289
-3.20426464080810547 -5.76714849472045898 -1.01239156723022461
-3.00770092010498047 -5.85457611083984375 -0.912011623382568359
-3.02760457992553711 -5.87513542175292969 -0.916149139404296875
-3.00095129013061523 -5.87639904022216797 -0.984957695007324219
-3.14885592460632324 -5.82112693786621094 -0.909268438816070557
-3.1659998893737793 -5.83099985122680664 -0.958999991416931152
-3.15755176544189453 -5.82554388046264648 -0.977252423763275146
-3.00507235527038574 -5.86797428131103516 -0.926542997360229492
-3.05508089065551758 -5.889923095703125 -0.980897367000579834
-3.03382444381713867 -5.87495994567871094 -0.992197632789611816
-3.06100010871887207 -5.88100004196166992 -0.906000018119812012
-3.01583623886108398 -5.87200784683227539 -0.88057631254196167
-3.01254606246948242 -5.84327793121337891 -0.934536635875701904
-3.00349688529968262 -5.84408760070800781 -0.919138550758361816
-3.03490161895751953 -5.82240200042724609 -0.949293375015258789
-3.05377388000488281 -5.86400604248046875 -0.889216482639312744
-3.01194381713867188 -5.82868099212646484 -0.93388056755065918
-3.00875091552734375 -5.85080337524414062 -0.954383611679077148
-3.01999998092651367 -5.84299993515014648 -0.878000020980834961
-3.04200005531311035 -5.87099981307983398 -0.936999976634979248
-3.03484869003295898 -5.86278009414672852 -0.867769420146942139
-3.06397771835327148 -5.85879325866699219 -0.938510656356811523
-3.02699995040893555 -5.82200002670288086 -0.949999988079071045
-3.06625890731811523 -5.85910511016845703 -0.882850706577301025
-3.02097225189208984 -5.86722660064697266 -0.902152121067047119
-3.18406486511230469 -5.84324169158935547 -0.970833480358123779
-3.24400520324707031 -5.8063654899597168 -0.977155506610870361
-3.12565946578979492 -5.82134103775024414 -0.966929137706756592
-3.22402262687683105 -5.84198474884033203 -0.973658144474029541
-3.06032657623291016 -5.88486909866333008 -0.867383778095245361
-3.21710968017578125 -5.78753852844238281 -0.954509735107421875
-3.17543840408325195 -5.78183078765869141 -0.922937870025634766
-3.17480611801147461 -5.81472635269165039 -0.989533424377441406
-3.01937985420227051 -5.78831672668457031 -0.842897117137908936
-3.01432371139526367 -5.79673099517822266 -0.878850638866424561
-3.01466488838195801 -5.79823017120361328 -0.866614282131195068
-3.01066899299621582 -5.83559942245483398 -0.910045087337493896
-3.04148650169372559 -5.86577033996582031 -0.927264869213104248
-3.07411003112792969 -5.89976978302001953 -0.877267777919769287
-3.0085294246673584 -5.83641290664672852 -0.994339644908905029
-3.06828689575195312 -5.87900161743164062 -0.947680652141571045
-3.04784941673278809 -5.83072233200073242 -0.976920545101165771
-2.98799991607666016 -5.86100006103515625 -0.970000028610229492
-3.06003642082214355 -5.84994983673095703 -0.973093390464782715
-2.98662447929382324 -5.86708879470825195 -0.985810756683349609
-2.99507498741149902 -5.84841775894165039 -0.994669139385223389
-3.06566095352172852 -5.8767399787902832 -0.898502111434936523
-3.07963109016418457 -5.87327241897583008 -0.920626163482666016
-2.98399996757507324 -5.84299993515014648 -0.989000022411346436
-2.97750449180603027 -5.86739921569824219 -0.98485642671585083
-3.14470696449279785 -5.78238582611083984 -0.946680366992950439
-3.19239473342895508 -5.82459354400634766 -0.946061670780181885
-3.26310348510742188 -5.88396167755126953 -0.979609251022338867
-3.07715845108032227 -5.87214994430541992 -0.933531284332275391
-3.1737673282623291 -5.73937749862670898 -0.996144652366638184
-3 -5.85400009155273438 -1
-3.17100811004638672 -5.86063718795776367 -0.982315659523010254
-3.14920520782470703 -5.76404094696044922 -0.979148447513580322
-3.1179499626159668 -5.81248188018798828 -0.947602331638336182
-3.19010114669799805 -5.81224203109741211 -0.996207475662231445
-3.14371275901794434 -5.77980899810791016 -0.917078971862792969
-3.1719667911529541 -5.82608556747436523 -0.942084312438964844
-3.2299652099609375 -5.81462907791137695 -0.971405208110809326
-3.21783280372619629 -5.80254650115966797 -0.951241552829742432
-3.18546819686889648 -5.8213801383972168 -0.954486191272735596
-3.09276366233825684 -5.87799167633056641 -0.880480349063873291
-3.16199994087219238 -5.82100009918212891 -0.954999983310699463
-3.01265120506286621 -5.85593700408935547 -0.885825395584106445
-3.08137655258178711 -5.90224409103393555 -0.883895516395568848
-3.04654788970947266 -5.83570671081542969 -0.936790764331817627
-3.0814669132232666 -5.85512590408325195 -0.934191644191741943
-3.00719022750854492 -5.82070350646972656 -0.958671092987060547
-3.07092547416687012 -5.86687898635864258 -0.869726121425628662
-3.07107353210449219 -5.8272089958190918 -0.956315517425537109
-3.02253341674804688 -5.83005809783935547 -0.875856697559356689
-3.01099991798400879 -5.81699991226196289 -0.880999982357025146
-3.01800298690795898 -5.80485153198242188 -0.899213612079620361
-3.00527071952819824 -5.85190916061401367 -0.85164487361907959
-3.01508021354675293 -5.8272709846496582 -0.847969114780426025
-2.97891545295715332 -5.78349018096923828 -0.866239070892333984
-2.98323869705200195 -5.79798173904418945 -0.869443297386169434
-2.98265314102172852 -5.81560277938842773 -0.850185394287109375
-2.99515533447265625 -5.80547809600830078 -0.866868257522583008
-3.00500011444091797 -5.80999994277954102 -0.884999990463256836
-2.98012018203735352 -5.8404393196105957 -0.865171194076538086
-2.99555802345275879 -5.8717656135559082 -0.974434256553649902
-2.99790549278259277 -5.84192466735839844 -0.971348762512207031
-2.99200010299682617 -5.84399986267089844 -0.964999973773956299
-3.24056100845336914 -5.78439903259277344 -0.982623934745788574
-3.0022275447845459 -5.84541082382202148 -0.926532208919525146
-3.02099990844726562 -5.82100009918212891 -0.952000021934509277
-3.05220484733581543 -5.88857078552246094 -0.886298894882202148
-3.08966302871704102 -5.8782048225402832 -0.923260211944580078
-3.07353830337524414 -5.88968992233276367 -0.904468059539794922
-3.0475761890411377 -5.86913394927978516 -0.99298405647277832
-3.13170218467712402 -5.80666065216064453 -1.00081419944763184
-3.0883018970489502 -5.89786005020141602 -0.86990058422088623
-3.26617240905761719 -5.89439010620117188 -1.01261579990386963
-3.00357937812805176 -5.84792280197143555 -1.01178133487701416
-3.02500009536743164 -5.86299991607666016 -1.0140000581741333
-3.1473538875579834 -5.7954106330871582 -0.897960186004638672
-3.01100468635559082 -5.84099054336547852 -0.875791549682617188
-3.25600004196166992 -5.82200002670288086 -1.00800001621246338
-3.18958091735839844 -5.86884212493896484 -1.00636827945709229
-3.14499998092651367 -5.82100009918212891 -0.953999996185302734
-3.01999998092651367 -5.875 -0.994000017642974854
-3.16542983055114746 -5.78037643432617188 -0.962510526180267334
-3.23107385635375977 -5.77811336517333984 -0.968142867088317871
-3.1252589225769043 -5.79544353485107422 -0.95059812068939209
-3.00242400169372559 -5.79151487350463867 -0.867406904697418213
-3.18663597106933594 -5.81462383270263672 -0.969443619251251221
-3.00927042961120605 -5.80479145050048828 -0.831235170364379883
-3.04075813293457031 -5.82554054260253906 -0.96435546875
-3.24577140808105469 -5.77663469314575195 -0.988648891448974609
-3.06116175651550293 -5.84309720993041992 -0.948256373405456543
-3.01830625534057617 -5.8165440559387207 -0.905141949653625488
-3.05136370658874512 -5.87674379348754883 -0.882666945457458496
-3.02310919761657715 -5.80846738815307617 -0.884869694709777832
-3.0164339542388916 -5.81174516677856445 -0.933279156684875488
-3.03871917724609375 -5.82003402709960938 -0.933510422706604004
-3.00971293449401855 -5.80515766143798828 -0.919067263603210449
-3.02200007438659668 -5.84000015258789062 -0.919000029563903809
-3.07060885429382324 -5.86496257781982422 -0.956064820289611816
-3.04722309112548828 -5.86853265762329102 -0.979280352592468262
-3.10522294044494629 -5.80965614318847656 -0.969207108020782471
-3.0217137336730957 -5.81563138961791992 -0.86067652702331543
-3.17865490913391113 -5.83469057083129883 -0.961786746978759766
-3.07977581024169922 -5.8964691162109375 -0.921680629253387451
-3.13299989700317383 -5.78399991989135742 -0.976000010967254639
-3.23923754692077637 -5.78809642791748047 -1.02227544784545898
-3.16923379898071289 -5.81013774871826172 -1.01142334938049316
-3.12670683860778809 -5.77414464950561523 -1.01308000087738037
-3.25233888626098633 -5.79558467864990234 -1.00342249870300293
-3.22277188301086426 -5.78809309005737305 -1.00351345539093018
-3.21118259429931641 -5.832061767578125 -1.00187349319458008
-3.14728212356567383 -5.81942415237426758 -1.01855754852294922
-3.14268684387207031 -5.79458379745483398 -1.00874114036560059
-3.24290251731872559 -5.83884620666503906 -0.980282783508300781
-3.125 -5.78100013732910156 -0.958000004291534424
-3.24664497375488281 -5.86461687088012695 -0.988893508911132812
-3.2234189510345459 -5.85607719421386719 -0.997408926486968994
-3.15924596786499023 -5.80733108520507812 -0.909560620784759521
-3.24282670021057129 -5.83578968048095703 -0.989115118980407715
-3.05579352378845215 -5.88492250442504883 -0.944048702716827393
-3.13626980781555176 -5.78588390350341797 -0.92847520112991333
-3.00600004196166992 -5.80399990081787109 -0.884000003337860107
-3.02500009536743164 -5.86100006103515625 -0.921999990940093994
-3.10512256622314453 -5.79776144027709961 -0.998979330062866211
-3.09200000762939453 -5.89300012588500977 -0.890999972820281982
-3.19100856781005859 -5.77762126922607422 -0.966864287853240967
-3.25211572647094727 -5.82049179077148438 -0.996915996074676514
-3.15050673484802246 -5.84614706039428711 -0.989384591579437256
-3.01292061805725098 -5.86159181594848633 -0.910897612571716309
-3.02755379676818848 -5.8396601676940918 -0.924940168857574463
-3.03955721855163574 -5.83297920227050781 -0.954064548015594482
-3.05699992179870605 -5.88399982452392578 -0.879999995231628418
-3.01353359222412109 -5.8493351936340332 -0.901559889316558838
-3.00612831115722656 -5.83682012557983398 -0.962526381015777588
-3.03983449935913086 -5.846221923828125 -0.883547544479370117
-3.03699994087219238 -5.85500001907348633 -0.880999982357025146
-3.02033662796020508 -5.8250274658203125 -0.981550395488739014
-3.03913497924804688 -5.87035560607910156 -0.921138763427734375
-3.00580811500549316 -5.88314723968505859 -0.985565066337585449
-3.15257430076599121 -5.76772785186767578 -1.01412510871887207
-3.02018928527832031 -5.81367969512939453 -0.848106145858764648
-3.20102119445800781 -5.76278972625732422 -0.988252401351928711
-3.03299999237060547 -5.86800003051757812 -0.950999975204467773
-2.99250388145446777 -5.8740382194519043 -0.989347279071807861
-2.9869999885559082 -5.85400009155273438 -0.990999996662139893
-2.9869999885559082 -5.875 -0.978999972343444824
-2.97797846794128418 -5.80498123168945312 -0.853898108005523682
-2.98399996757507324 -5.82499980926513672 -0.875
-3.16340208053588867 -5.85610103607177734 -0.987176775932312012
-3.1324470043182373 -5.7875828742980957 -0.909562230110168457
-2.99815797805786133 -5.88637351989746094 -0.861071288585662842
-2.97990608215332031 -5.8526458740234375 -0.984699428081512451
-2.98399996757507324 -5.84200000762939453 -0.986000001430511475
-3.12176990509033203 -5.76376819610595703 -0.99945908784866333
-3.22600626945495605 -5.763153076171875 -0.983417272567749023
-3.15700006484985352 -5.81799983978271484 -0.953000009059906006
1 1 1
-3.07656431198120117 -5.89341974258422852 -0.942865490913391113
-3.17547917366027832 -5.85149431228637695 -0.995415568351745605
-2.98000001907348633 -5.80399990081787109 -0.861000001430511475
-2.9793095588684082 -5.81590461730957031 -0.87173914909362793
-2.9972836971282959 -5.83396053314208984 -0.84583967924118042
-2.97696208953857422 -5.82848072052001953 -0.87583392858505249
-2.99451804161071777 -5.78722476959228516 -0.833998978137969971
-2.97744011878967285 -5.85118722915649414 -0.883794546127319336
-2.97673320770263672 -5.87204217910766602 -0.86738884449005127
-2.9941558837890625 -5.83169221878051758 -0.870424866676330566
-2.99960660934448242 -5.85811138153076172 -0.887617230415344238
-2.98028731346130371 -5.78020524978637695 -0.855751633644104004
-3.04230046272277832 -5.848480224609375 -0.866877079010009766
-3.01471161842346191 -5.88086891174316406 -0.962848186492919922
-3.00399994850158691 -5.84200000762939453 -0.980000019073486328
-3.13728857040405273 -5.82321310043334961 -0.914283454418182373
-3.1304631233215332 -5.8029632568359375 -0.990594983100891113
-3.18700003623962402 -5.8470001220703125 -0.962000012397766113
-3.04805564880371094 -5.87861299514770508 -0.887190639972686768
-3.07100009918212891 -5.89699983596801758 -0.892000019550323486
-3.21613478660583496 -5.8231806755065918 -0.940750181674957275
-3.17499995231628418 -5.84000015258789062 -0.96799999475479126
-3.20148611068725586 -5.80911159515380859 -0.999417781829833984
-3.04200005531311035 -5.87099981307983398 -0.961000025272369385
-3.01947307586669922 -5.86358499526977539 -0.936939775943756104
-2.98513197898864746 -5.87248897552490234 -0.882240474224090576
-3.15593051910400391 -5.77271699905395508 -0.938284814357757568
-3.17221188545227051 -5.7783360481262207 -0.947104811668395996
3 307 224 148 255 255 255
3 307 194 224 255 255 255
3 302 285 307 255 255 255
3 148 226 302 255 255 255
3 307 148 302 255 255 255
3 224 37 148 255 255 255
3 194 195 224 255 255 255
3 307 298 194 255 255 255
3 302 196 285 255 255 255
3 148 37 226 255 255 255
3 224 150 37 255 255 255
3 194 285 195 255 255 255
3 37 279 226 255 255 255
3 224 149 150 255 255 255
3 195 197 224 255 255 255
3 196 299 285 255 255 255
3 302 300 196 255 255 255
3 226 300 302 255 255 255
3 226 279 300 255 255 255
3 149 232 150 255 255 255
3 197 150 224 255 255 255
3 195 299 197 255 255 255
3 298 299 195 255 255 255
3 279 193 300 255 255 255
3 37 240 279 255 255 255
3 149 71 232 255 255 255
3 149 191 71 255 255 255
3 197 198 150 255 255 255
3 279 240 193 255 255 255
3 150 240 37 255 255 255
3 232 260 150 255 255 255
3 149 69 191 255 255 255
3 198 190 150 255 255 255
3 197 73 198 255 255 255
3 299 301 286 255 255 255
3 196 199 299 255 255 255
3 300 199 196 255 255 255
3 300 193 192 255 255 255
3 240 189 193 255 255 255
3 301 305 286 255 255 255
3 199 301 299 255 255 255
3 300 304 199 255 255 255
3 189 39 193 255 255 255
3 189 75 39 255 255 255
3 190 260 232 255 255 255
3 232 19 190 255 255 255
3 191 72 71 255 255 255
3 149 260 69 255 255 255
3 303 74 301 255 255 255
3 192 193 70 255 255 255
3 193 39 70 255 255 255
3 191 69 72 255 255 255
3 69 230 191 255 255 255
3 198 71 69 255 255 255
3 304 303 199 255 255 255
3 300 192 304 255 255 255
3 70 77 192 255 255 255
3 69 235 72 255 255 255
3 69 235 230 255 255 255
3 303 306 74 255 255 255
3 71 76 230 255 255 255
3 72 76 71 255 255 255
3 71 230 69 255 255 255
3 73 286 305 255 255 255
3 305 19 73 255 255 255
3 74 216 305 255 255 255
3 75 273 308 255 255 255
3 76 151 230 255 255 255
3 72 78 76 255 255 255
3 305 216 19 255 255 255
3 303 321 306 255 255 255
3 192 289 304 255 255 255
3 77 289 192 255 255 255
3 76 236 151 255 255 255
3 78 234 76 255 255 255
3 72 233 78 255 255 255
3 235 233 72 255 255 255
3 230 151 69 255 255 255
3 303 304 321 255 255 255
3 77 126 289 255 255 255
3 273 65 308 255 255 255
3 273 130 65 255 255 255
3 236 271 151 255 255 255
3 76 268 236 255 255 255
3 306 151 74 255 255 255
3 306 116 151 255 255 255
3 304 289 321 255 255 255
3 126 321 289 255 255 255
3 273 274 130 255 255 255
3 75 189 273 255 255 255
3 189 133 273 255 255 255
3 268 127 236 255 255 255
3 76 184 268 255 255 255
3 234 184 76 255 255 255
3 235 131 233 255 255 255
3 69 151 235 255 255 255
3 151 131 235 255 255 255
3 116 128 151 255 255 255
3 306 267 116 255 255 255
3 306 139 267 255 255 255
3 321 126 306 255 255 255
3 77 182 126 255 255 255
3 308 135 75 255 255 255
3 274 231 130 255 255 255
3 271 74 151 255 255 255
3 271 182 74 255 255 255
3 236 116 271 255 255 255
3 127 204 236 255 255 255
3 234 129 184 255 255 255
3 116 204 128 255 255 255
3 116 267 204 255 255 255
3 139 117 267 255 255 255
3 306 182 139 255 255 255
3 306 126 182 255 255 255
3 135 182 77 255 255 255
3 135 77 70 255 255 255
3 231 314 130 255 255 255
3 116 139 271 255 255 255
3 116 267 139 255 255 255
3 236 128 116 255 255 255
3 184 136 152 255 255 255
3 129 269 184 255 255 255
3 234 78 129 255 255 255
3 131 186 233 255 255 255
3 127 205 131 255 255 255
3 131 204 127 255 255 255
3 128 131 151 255 255 255
3 267 122 204 255 255 255
3 231 274 135 255 255 255
3 132 320 127 255 255 255
3 152 261 184 255 255 255
3 184 229 136 255 255 255
3 269 229 184 255 255 255
3 129 227 269 255 255 255
3 78 137 129 255 255 255
3 233 205 78 255 255 255
3 127 137 205 255 255 255
3 131 128 204 255 255 255
3 117 122 267 255 255 255
3 133 216 182 255 255 255
3 231 206 314 255 255 255
3 267 276 139 255 255 255
3 320 122 127 255 255 255
3 127 272 132 255 255 255
3 152 276 261 255 255 255
3 152 87 276 255 255 255
3 136 87 152 255 255 255
3 269 188 229 255 255 255
3 227 188 269 255 255 255
3 137 227 129 255 255 255
3 233 186 205 255 255 255
3 186 275 205 255 255 255
3 271 139 182 255 255 255
3 216 74 182 255 255 255
3 133 39 216 255 255 255
3 138 65 130 255 255 255
3 138 187 65 255 255 255
3 139 276 117 255 255 255
3 320 117 122 255 255 255
3 276 267 261 255 255 255
3 136 162 87 255 255 255
3 185 162 136 255 255 255
3 229 237 136 255 255 255
3 227 156 188 255 255 255
3 275 227 205 255 255 255
3 186 272 95 255 255 255
3 276 21 117 255 255 255
3 231 270 206 255 255 255
3 187 231 65 255 255 255
3 130 161 138 255 255 255
3 320 261 117 255 255 255
3 132 0 320 255 255 255
3 185 168 162 255 255 255
3 188 158 229 255 255 255
3 275 156 227 255 255 255
3 272 201 95 255 255 255
3 276 134 21 255 255 255
3 134 281 21 255 255 255
3 276 82 134 255 255 255
3 270 144 206 255 255 255
3 231 144 270 255 255 255
3 231 187 144 255 255 255
3 187 51 144 255 255 255
3 231 135 65 255 255 255
3 135 274 65 255 255 255
3 161 38 138 255 255 255
3 270 130 314 255 255 255
3 314 153 270 255 255 255
3 206 153 314 255 255 255
3 206 144 153 255 255 255
3 0 281 320 255 255 255
3 132 309 0 255 255 255
3 168 207 162 255 255 255
3 185 237 168 255 255 255
3 229 158 237 255 255 255
3 188 156 158 255 255 255
3 272 202 201 255 255 255
3 82 258 134 255 255 255
3 135 308 274 255 255 255
3 138 38 187 255 255 255
3 153 51 270 255 255 255
3 200 309 132 255 255 255
3 132 201 200 255 255 255
3 162 161 87 255 255 255
3 207 208 162 255 255 255
3 168 296 207 255 255 255
3 237 155 168 255 255 255
3 8 158 156 255 255 255
3 154 275 95 255 255 255
3 275 186 95 255 255 255
3 201 310 95 255 255 255
3 202 290 201 255 255 255
3 51 153 144 255 255 255
3 38 180 187 255 255 255
3 0 319 281 255 255 255
3 161 125 87 255 255 255
3 208 161 162 255 255 255
3 207 242 208 255 255 255
3 207 296 242 255 255 255
3 168 155 296 255 255 255
3 238 237 158 255 255 255
3 8 9 158 255 255 255
3 275 12 156 255 255 255
3 201 291 310 255 255 255
3 202 157 290 255 255 255
3 187 180 51 255 255 255
3 38 30 180 255 255 255
3 153 183 211 255 255 255
3 309 124 0 255 255 255
3 118 124 309 255 255 255
3 309 200 118 255 255 255
3 208 97 161 255 255 255
3 155 88 296 255 255 255
3 156 12 8 255 255 255
3 154 10 275 255 255 255
3 157 164 290 255 255 255
3 82 242 258 255 255 255
3 30 211 180 255 255 255
3 0 238 319 255 255 255
3 124 238 0 255 255 255
3 118 220 124 255 255 255
3 157 159 200 255 255 255
3 97 38 161 255 255 255
3 296 88 242 255 255 255
3 155 123 88 255 255 255
3 158 9 238 255 255 255
3 9 209 238 255 255 255
3 10 12 275 255 255 255
3 154 160 10 255 255 255
3 6 319 258 255 255 255
3 87 242 82 255 255 255
3 51 180 211 255 255 255
3 183 97 208 255 255 255
3 124 209 238 255 255 255
3 220 11 124 255 255 255
3 118 107 220 255 255 255
3 159 282 200 255 255 255
3 208 87 125 255 255 255
3 242 87 208 255 255 255
3 258 242 88 255 255 255
3 155 238 123 255 255 255
3 238 155 237 255 255 255
3 160 213 10 255 255 255
3 310 160 154 255 255 255
3 88 6 258 255 255 255
3 88 123 6 255 255 255
3 30 183 211 255 255 255
3 97 30 38 255 255 255
3 208 263 183 255 255 255
3 183 263 97 255 255 255
3 118 159 107 255 255 255
3 200 277 118 255 255 255
3 159 118 282 255 255 255
3 8 15 9 255 255 255
3 163 290 160 255 255 255
3 160 291 163 255 255 255
3 164 159 290 255 255 255
3 315 183 208 255 255 255
3 263 30 97 255 255 255
3 11 209 124 255 255 255
3 220 13 11 255 255 255
3 159 170 107 255 255 255
3 282 277 200 255 255 255
3 283 160 159 255 255 255
3 159 290 283 255 255 255
3 9 15 14 255 255 255
3 8 12 15 255 255 255
3 12 10 15 255 255 255
3 10 109 15 255 255 255
3 11 17 16 255 255 255
3 13 107 11 255 255 255
3 170 17 107 255 255 255
3 277 282 118 255 255 255
3 14 209 9 255 255 255
3 15 16 14 255 255 255
3 160 170 213 255 255 255
3 16 111 11 255 255 255
3 17 11 107 255 255 255
3 14 111 209 255 255 255
3 16 111 14 255 255 255
3 108 214 109 255 255 255
3 109 213 108 255 255 255
3 110 108 213 255 255 255
3 110 17 108 255 255 255
3 170 110 213 255 255 255
3 284 282 164 255 255 255
3 164 159 284 255 255 255
3 13 220 277 255 255 255
3 277 107 13 255 255 255
3 111 214 11 255 255 255
3 111 16 214 255 255 255
3 112 22 169 255 255 255
3 280 22 112 255 255 255
3 112 114 280 255 255 255
3 113 114 112 255 255 255
3 22 24 169 255 255 255
3 114 115 280 255 255 255
3 113 54 114 255 255 255
3 169 5 112 255 255 255
3 280 264 22 255 255 255
3 115 53 280 255 255 255
3 112 5 113 255 255 255
3 169 24 5 255 255 255
3 280 79 264 255 255 255
3 280 293 79 255 255 255
3 24 278 5 255 255 255
3 278 55 5 255 255 255
3 172 278 24 255 255 255
3 24 22 172 255 255 255
3 221 172 22 255 255 255
3 79 222 264 255 255 255
3 293 222 79 255 255 255
3 53 104 293 255 255 255
3 114 57 115 255 255 255
3 54 55 114 255 255 255
3 55 54 5 255 255 255
3 221 96 172 255 255 255
3 222 145 264 255 255 255
3 114 55 57 255 255 255
3 278 59 55 255 255 255
3 278 246 59 255 255 255
3 56 248 115 255 255 255
3 56 26 248 255 255 255
3 55 58 57 255 255 255
3 278 61 246 255 255 255
3 278 172 61 255 255 255
3 221 323 96 255 255 255
3 221 22 264 255 255 255
3 323 221 264 255 255 255
3 264 98 323 255 255 255
3 145 98 264 255 255 255
3 222 177 145 255 255 255
3 141 177 222 255 255 255
3 222 203 141 255 255 255
3 222 293 203 255 255 255
3 293 228 203 255 255 255
3 293 104 62 255 255 255
3 115 60 53 255 255 255
3 57 56 115 255 255 255
3 57 245 56 255 255 255
3 58 245 57 255 255 255
3 59 251 55 255 255 255
3 172 243 61 255 255 255
3 43 243 96 255 255 255
3 96 322 165 255 255 255
3 323 322 96 255 255 255
3 177 178 145 255 255 255
3 228 247 203 255 255 255
3 293 62 228 255 255 255
3 60 115 248 255 255 255
3 56 318 26 255 255 255
3 55 251 58 255 255 255
3 61 292 246 255 255 255
3 91 292 61 255 255 255
3 243 91 61 255 255 255
3 43 253 243 255 255 255
3 165 43 96 255 255 255
3 165 259 43 255 255 255
3 146 322 323 255 255 255
3 98 146 323 255 255 255
3 203 247 141 255 255 255
3 62 60 228 255 255 255
3 104 53 62 255 255 255
3 244 247 60 255 255 255
3 60 248 244 255 255 255
3 245 174 56 255 255 255
3 58 250 245 255 255 255
3 59 20 251 255 255 255
3 246 91 59 255 255 255
3 243 99 91 255 255 255
3 43 223 253 255 255 255
3 322 259 165 255 255 255
3 98 92 146 255 255 255
3 145 178 98 255 255 255
3 247 228 60 255 255 255
3 244 31 247 255 255 255
3 248 32 244 255 255 255
3 249 26 318 255 255 255
3 318 46 249 255 255 255
3 174 318 56 255 255 255
3 250 27 245 255 255 255
3 58 28 250 255 255 255
3 251 210 58 255 255 255
3 91 20 59 255 255 255
3 91 262 20 255 255 255
3 91 99 262 255 255 255
3 223 99 253 255 255 255
3 259 322 175 255 255 255
3 322 146 100 255 255 255
3 98 89 92 255 255 255
3 62 53 60 255 255 255
3 26 32 248 255 255 255
3 46 2 249 255 255 255
3 318 174 46 255 255 255
3 245 147 174 255 255 255
3 27 29 245 255 255 255
3 28 27 250 255 255 255
3 58 210 28 255 255 255
3 223 239 99 255 255 255
3 322 100 175 255 255 255
3 146 92 100 255 255 255
3 92 175 100 255 255 255
3 178 316 98 255 255 255
3 178 177 316 255 255 255
3 247 265 141 255 255 255
3 29 147 245 255 255 255
3 262 210 20 255 255 255
3 223 173 239 255 255 255
3 223 84 173 255 255 255
3 92 256 175 255 255 255
3 256 215 175 255 255 255
3 316 166 98 255 255 255
3 177 45 316 255 255 255
3 265 177 141 255 255 255
3 2 52 249 255 255 255
3 29 63 147 255 255 255
3 262 312 210 255 255 255
3 239 262 99 255 255 255
3 223 259 84 255 255 255
3 92 89 256 255 255 255
3 98 166 89 255 255 255
3 45 67 316 255 255 255
3 177 252 45 255 255 255
3 177 265 252 255 255 255
3 265 257 252 255 255 255
3 31 217 247 255 255 255
3 32 217 31 255 255 255
3 26 3 32 255 255 255
3 2 140 52 255 255 255
3 27 287 29 255 255 255
3 312 64 28 255 255 255
3 175 215 288 255 255 255
3 3 217 32 255 255 255
3 52 33 249 255 255 255
3 147 241 225 255 255 255
3 241 147 63 255 255 255
3 63 40 241 255 255 255
3 287 297 29 255 255 255
3 28 266 27 255 255 255
3 64 266 28 255 255 255
3 312 28 210 255 255 255
3 84 18 173 255 255 255
3 256 119 215 255 255 255
3 89 85 256 255 255 255
3 89 176 85 255 255 255
3 166 176 89 255 255 255
3 67 94 316 255 255 255
3 45 252 67 255 255 255
3 252 143 67 255 255 255
3 257 4 252 255 255 255
3 3 265 217 255 255 255
3 52 23 33 255 255 255
3 140 297 52 255 255 255
3 2 241 140 255 255 255
3 179 241 2 255 255 255
3 179 80 241 255 255 255
3 40 140 241 255 255 255
3 27 266 287 255 255 255
3 64 106 266 255 255 255
3 312 142 64 255 255 255
3 142 312 239 255 255 255
3 105 311 84 255 255 255
3 84 288 105 255 255 255
3 259 175 84 255 255 255
3 256 85 119 255 255 255
3 176 83 85 255 255 255
3 166 94 41 255 255 255
3 316 94 166 255 255 255
3 252 42 143 255 255 255
3 4 254 252 255 255 255
3 3 257 265 255 255 255
3 52 218 23 255 255 255
3 140 287 297 255 255 255
3 241 317 140 255 255 255
3 241 179 225 255 255 255
3 40 287 140 255 255 255
3 40 266 287 255 255 255
3 287 218 297 255 255 255
3 64 121 106 255 255 255
3 173 142 239 255 255 255
3 84 311 18 255 255 255
3 175 288 84 255 255 255
3 119 311 215 255 255 255
3 83 18 85 255 255 255
3 179 120 176 255 255 255
3 176 166 179 255 255 255
3 67 44 94 255 255 255
3 67 42 44 255 255 255
3 143 42 67 255 255 255
3 252 7 42 255 255 255
3 254 7 252 255 255 255
3 4 34 254 255 255 255
3 317 40 140 255 255 255
3 241 102 317 255 255 255
3 241 166 179 255 255 255
3 287 171 218 255 255 255
3 18 142 173 255 255 255
3 18 219 142 255 255 255
3 83 219 18 255 255 255
3 83 294 219 255 255 255
3 18 311 85 255 255 255
3 311 119 85 255 255 255
3 288 215 105 255 255 255
3 120 181 176 255 255 255
3 166 80 179 255 255 255
3 41 313 166 255 255 255
3 94 44 41 255 255 255
3 4 103 34 255 255 255
3 33 47 249 255 255 255
3 40 25 140 255 255 255
3 287 40 171 255 255 255
3 266 106 287 255 255 255
3 106 102 40 255 255 255
3 121 120 106 255 255 255
3 294 90 219 255 255 255
3 83 181 294 255 255 255
3 41 44 313 255 255 255
3 254 66 7 255 255 255
3 34 1 254 255 255 255
3 4 86 103 255 255 255
3 35 86 4 255 255 255
3 4 47 35 255 255 255
3 25 313 140 255 255 255
3 171 101 218 255 255 255
3 287 106 40 255 255 255
3 44 42 101 255 255 255
3 42 23 101 255 255 255
3 1 66 254 255 255 255
3 33 81 47 255 255 255
3 171 40 101 255 255 255
3 23 218 101 255 255 255
3 42 255 23 255 255 255
3 47 48 35 255 255 255
3 25 44 101 255 255 255
3 42 7 255 255 255 255
3 1 34 93 255 255 255
3 47 81 48 255 255 255
3 7 81 255 255 255 255
3 48 81 7 255 255 255
3 167 36 66 255 255 255
3 34 68 93 255 255 255
3 34 103 35 255 255 255
3 167 93 36 255 255 255
3 1 93 167 255 255 255
3 35 49 34 255 255 255
3 48 50 35 255 255 255
3 48 66 50 255 255 255
3 49 68 34 255 255 255
3 35 50 49 255 255 255
3 48 7 66 255 255 255
3 36 212 66 255 255 255
3 212 36 93 255 255 255
3 50 212 49 255 255 255
3 212 50 66 255 255 255
3 93 49 212 255 255 255
3 295 295 295 255 255 255
