ply
format ascii 1.0
element vertex 346
property float x
property float y
property float z
element face 576
property list uchar int vertex_indices
property uchar red
property uchar green
property uchar blue
end_header
3.57010769844055176 11.3159046173095703 -0.692389011383056641
3.4849998950958252 11.2589998245239258 -0.519999980926513672
3.5544884204864502 11.2818489074707031 -0.527445316314697266
3.59373712539672852 11.2618703842163086 -0.37140345573425293
3.60512280464172363 11.2411537170410156 -0.389274120330810547
3.73950314521789551 11.2881193161010742 -0.740826129913330078
3.48777604103088379 11.2679319381713867 -0.477189540863037109
3.62052774429321289 11.2748012542724609 -0.484694242477416992
3.5821683406829834 11.2563972473144531 -0.728508949279785156
3.56279182434082031 11.2448005676269531 -0.749899148941040039
3.4791572093963623 11.2385549545288086 -0.4285544753074646
3.68678474426269531 11.3020210266113281 -0.898658573627471924
3.76799988746643066 11.2829999923706055 -0.542999982833862305
3.49399995803833008 11.2119998931884766 -0.495000004768371582
3.52459168434143066 11.2696256637573242 -0.748542726039886475
3.49575686454772949 11.211085319519043 -0.530630528926849365
3.51276278495788574 11.1881141662597656 -0.413527905941009521
3.59999990463256836 11.3070001602172852 -0.351000010967254639
3.49471855163574219 11.2051210403442383 -0.506152808666229248
3.60337448120117188 11.3471498489379883 -0.352358520030975342
3.61083531379699707 11.2695751190185547 -0.7963065505027771
3.52300000190734863 11.2239999771118164 -0.762000024318695068
3.76006698608398438 11.3126802444458008 -0.513876616954803467
3.72329854965209961 11.3237161636352539 -0.675717532634735107
3.45452785491943359 11.2102203369140625 -0.49899330735206604
3.59714603424072266 11.305607795715332 -0.454471975564956665
3.58109855651855469 11.2711858749389648 -0.482255369424819946
3.64100003242492676 11.2519998550415039 -0.377000004053115845
3.61700010299682617 11.3129997253417969 -0.354000002145767212
3.49934601783752441 11.2594366073608398 -0.367394089698791504
3.58699989318847656 11.2559995651245117 -0.853999972343444824
3.51012277603149414 11.2042598724365234 -0.818834662437438965
3.50900006294250488 11.2040004730224609 -0.889999985694885254
3.7037055492401123 11.2975244522094727 -0.747358441352844238
3.57724094390869141 11.2675285339355469 -0.857583880424499512
3.73523783683776855 11.2301797866821289 -0.697458386421203613
3.50313496589660645 11.2313070297241211 -0.663784623146057129
3.60599994659423828 11.2930002212524414 -0.728999972343444824
3.72600007057189941 11.2980003356933594 -0.830999970436096191
3.58308029174804688 11.2620182037353516 -0.754056155681610107
3.72600007057189941 11.2760000228881836 -0.814999997615814209
3.63322901725769043 11.3269739151000977 -0.529564738273620605
3.62106776237487793 11.2529430389404297 -0.375174850225448608
3.49955654144287109 11.1972513198852539 -0.438740342855453491
3.4827110767364502 11.1693916320800781 -0.412002414464950562
3.52029204368591309 11.2366170883178711 -0.348837226629257202
3.58159589767456055 11.2857284545898438 -0.482995122671127319
3.51319122314453125 11.2850837707519531 -0.453929513692855835
3.58632898330688477 11.2350635528564453 -0.623173236846923828
3.50320577621459961 11.2408056259155273 -0.609818398952484131
3.56652188301086426 11.2980203628540039 -0.432512581348419189
3.72271132469177246 11.2443532943725586 -0.847743093967437744
3.7219998836517334 11.3050003051757812 -0.81800001859664917
3.66432714462280273 11.2959203720092773 -0.800481438636779785
3.73399996757507324 11.2539997100830078 -0.695999979972839355
3.73618865013122559 11.3128128051757812 -0.694458127021789551
3.75578117370605469 11.2646474838256836 -0.810262024402618408
3.47492623329162598 11.2398281097412109 -0.559686720371246338
3.56511902809143066 11.2935752868652344 -0.597288191318511963
3.60899996757507324 11.2840003967285156 -0.750999987125396729
3.54755330085754395 11.2087821960449219 -0.8284493088722229
3.59800004959106445 11.2969999313354492 -0.589999973773956299
3.48600006103515625 11.2309999465942383 -0.504000008106231689
3.51374053955078125 11.2178182601928711 -0.891323387622833252
3.50049066543579102 11.2443752288818359 -0.38539963960647583
3.63165068626403809 11.2816972732543945 -0.373195230960845947
3.61378026008605957 11.2944345474243164 -0.558943808078765869
3.51066732406616211 11.1763687133789062 -0.402974069118499756
3.80802392959594727 11.3022193908691406 -0.443247377872467041
3.62394428253173828 11.2697200775146484 -0.576257884502410889
3.60440540313720703 11.2393503189086914 -0.641499698162078857
3.55900001525878906 11.2489995956420898 -0.740999996662139893
3.49399995803833008 11.2480001449584961 -0.629000008106231689
3.55283761024475098 11.269134521484375 -0.480097055435180664
3.52431321144104004 11.2222805023193359 -0.916645526885986328
3.72655725479125977 11.2898435592651367 -0.854029834270477295
3.74139571189880371 11.2980308532714844 -0.655112385749816895
3.57303380966186523 11.2946910858154297 -0.338696986436843872
3.72350740432739258 11.2950429916381836 -0.755881130695343018
3.82899999618530273 11.3070001602172852 -0.444999992847442627
3.70569682121276855 11.3096895217895508 -0.883547127246856689
3.64395976066589355 11.2268524169921875 -0.398604631423950195
3.68936896324157715 11.2891569137573242 -0.874737024307250977
3.71186256408691406 11.3029375076293945 -0.795416831970214844
3.56704902648925781 11.3038711547851562 -0.503382682800292969
3.52999997138977051 11.2229995727539062 -0.917999982833862305
3.62298488616943359 11.2461709976196289 -0.792955398559570312
3.6419980525970459 11.2820062637329102 -0.707996606826782227
3.52055096626281738 11.1880836486816406 -0.886088132858276367
3.50600004196166992 11.2019996643066406 -0.888000011444091797
3.73660397529602051 11.300633430480957 -0.644828557968139648
3.60100007057189941 11.2620000839233398 -0.529999971389770508
3.50632691383361816 11.2203359603881836 -0.452119737863540649
3.62166976928710938 11.3462581634521484 -0.377357602119445801
3.7878577709197998 11.2944002151489258 -0.58134925365447998
3.74626278877258301 11.2424583435058594 -0.696014225482940674
3.76063013076782227 11.2775421142578125 -0.547263205051422119
3.71499991416931152 11.3090000152587891 -0.75
3.82100009918212891 11.3050003051757812 -0.465999990701675415
3.61893725395202637 11.2812967300415039 -0.747659444808959961
3.53002309799194336 11.2002773284912109 -0.38724362850189209
3.49644374847412109 11.2384252548217773 -0.549745678901672363
3.53740382194519043 11.2092742919921875 -0.84064948558807373
3.58553409576416016 11.2925338745117188 -0.658791959285736084
3.56699991226196289 11.300999641418457 -0.676999986171722412
3.60359740257263184 11.2595787048339844 -0.870386779308319092
3.71837401390075684 11.2334365844726562 -0.855726897716522217
3.50088596343994141 11.2033061981201172 -0.63748401403427124
3.48889398574829102 11.1886959075927734 -0.667047441005706787
3.50158262252807617 11.2124795913696289 -0.602044999599456787
3.51174020767211914 11.2443065643310547 -0.748612344264984131
3.61502742767333984 11.2621192932128906 -0.890102803707122803
3.74924087524414062 11.2860193252563477 -0.70037311315536499
3.4765617847442627 11.2032527923583984 -0.407277822494506836
3.64230728149414062 11.2922544479370117 -0.850913107395172119
3.71303987503051758 11.2911815643310547 -0.866447985172271729
3.75706124305725098 11.3075380325317383 -0.5442047119140625
3.73000001907348633 11.2410001754760742 -0.805999994277954102
3.60299992561340332 11.2659997940063477 -0.509000003337860107
3.83299994468688965 11.3050003051757812 -0.453999996185302734
3.59100008010864258 11.2989997863769531 -0.495999991893768311
3.56599998474121094 11.2620000839233398 -0.726000010967254639
3.49618768692016602 11.2496156692504883 -0.615953922271728516
3.50607419013977051 11.2029228210449219 -0.535856246948242188
3.82100009918212891 11.3030004501342773 -0.469000011682510376
3.66056418418884277 11.3101749420166016 -0.87804180383682251
3.5182044506072998 11.2310352325439453 -0.369101643562316895
3.58823275566101074 11.2382392883300781 -0.646583139896392822
3.48369860649108887 11.1806707382202148 -0.797610998153686523
3.50107693672180176 11.2202835083007812 -0.625440835952758789
3.49499988555908203 11.2049999237060547 -0.444000005722045898
3.52316784858703613 11.2721662521362305 -0.435763835906982422
3.47162032127380371 11.2075471878051758 -0.649575471878051758
3.49349761009216309 11.1868114471435547 -0.681265592575073242
3.46399998664855957 11.194000244140625 -0.651000022888183594
3.45141410827636719 11.181121826171875 -0.524591207504272461
3.57688760757446289 11.2972650527954102 -0.455608487129211426
3.74745845794677734 11.2596073150634766 -0.843824982643127441
3.48974037170410156 11.2434301376342773 -0.577026963233947754
3.48920130729675293 11.2353630065917969 -0.608046889305114746
3.56354236602783203 11.2708368301391602 -0.438367486000061035
3.56063437461853027 11.2678184509277344 -0.513766646385192871
3.69734549522399902 11.2898960113525391 -0.858303427696228027
3.57475900650024414 11.3062496185302734 -0.658980488777160645
3.5833745002746582 11.2935695648193359 -0.689087033271789551
3.62646675109863281 11.2771272659301758 -0.863982796669006348
3.51974344253540039 11.1943120956420898 -0.913255512714385986
3.47939825057983398 11.2420177459716797 -0.481736987829208374
3.48673772811889648 11.2950944900512695 -0.432211726903915405
3.62054657936096191 11.2572059631347656 -0.407075017690658569
3.59229612350463867 11.2435808181762695 -0.754860222339630127
3.62599992752075195 11.2790002822875977 -0.694000005722045898
3.75500011444091797 11.314000129699707 -0.68900001049041748
3.47789716720581055 11.2119379043579102 -0.786792337894439697
3.74196147918701172 11.2692594528198242 -0.807733595371246338
3.48510622978210449 11.1759891510009766 -0.678966343402862549
3.65264105796813965 11.305018424987793 -0.891776859760284424
3.72937250137329102 11.2400102615356445 -0.863022387027740479
3.73066616058349609 11.2497739791870117 -0.803765356540679932
3.73260235786437988 11.2542552947998047 -0.859056770801544189
3.75163936614990234 11.2965526580810547 -0.603085577487945557
3.59524726867675781 11.2430944442749023 -0.576314985752105713
3.50699996948242188 11.2559995651245117 -0.448000013828277588
3.62308740615844727 11.2767562866210938 -0.533177196979522705
3.57899999618530273 11.2709999084472656 -0.586000025272369385
3.75300002098083496 11.2880001068115234 -0.546999990940093994
3.78399991989135742 11.2939996719360352 -0.559000015258789062
3.76665973663330078 11.3051490783691406 -0.624631047248840332
3.50809669494628906 11.219059944152832 -0.830465853214263916
3.61400008201599121 11.2989997863769531 -0.349000006914138794
3.60280442237854004 11.2683792114257812 -0.610447227954864502
3.48663234710693359 11.1869916915893555 -0.485712051391601562
3.53190255165100098 11.2212953567504883 -0.801324009895324707
3.49043750762939453 11.1852703094482422 -0.422049641609191895
3.49300003051757812 11.2200002670288086 -0.486000001430511475
3.49699997901916504 11.2340002059936523 -0.441000014543533325
3.50467920303344727 11.246124267578125 -0.422993719577789307
3.52600002288818359 11.2270002365112305 -0.902000010013580322
3.51795554161071777 11.2010688781738281 -0.85888904333114624
3.54057693481445312 11.2823171615600586 -0.45526924729347229
3.59800004959106445 11.2860002517700195 -0.499000012874603271
3.60565757751464844 11.2744178771972656 -0.623720705509185791
3.44028210639953613 11.1820268630981445 -0.557946979999542236
3.66171646118164062 11.298640251159668 -0.914928197860717773
3.72699999809265137 11.2790002822875977 -0.855000019073486328
3.4924170970916748 11.1928272247314453 -0.565229892730712891
3.43892788887023926 11.1762447357177734 -0.490302085876464844
3.68486905097961426 11.3298311233520508 -0.76474761962890625
3.61777734756469727 11.2752704620361328 -0.66376805305480957
3.72479438781738281 11.2909908294677734 -0.628877401351928711
3.46559810638427734 11.2452001571655273 -0.379611730575561523
3.62921810150146484 11.2623043060302734 -0.818500280380249023
3.63515639305114746 11.2914304733276367 -0.855760633945465088
3.47407269477844238 11.2303142547607422 -0.446491450071334839
3.52999997138977051 11.2290000915527344 -0.913999974727630615
3.52571868896484375 11.2089834213256836 -0.648565471172332764
3.49726581573486328 11.1992654800415039 -0.724412143230438232
3.47165751457214355 11.2027482986450195 -0.639486253261566162
3.63012981414794922 11.2703132629394531 -0.693670451641082764
3.7569739818572998 11.3215875625610352 -0.58728402853012085
3.71603155136108398 11.282379150390625 -0.545168578624725342
3.49838376045227051 11.2431516647338867 -0.510712087154388428
3.49615645408630371 11.2127590179443359 -0.469019830226898193
3.58460283279418945 11.2768955230712891 -0.874306380748748779
3.78460335731506348 11.2969274520874023 -0.537295043468475342
3.55181455612182617 11.3096094131469727 -0.468096166849136353
3.64220762252807617 11.2459945678710938 -0.404842764139175415
3.47850465774536133 11.2336664199829102 -0.346093565225601196
3.63797736167907715 11.2881450653076172 -0.521973311901092529
3.46781182289123535 11.2266159057617188 -0.686989903450012207
3.50032782554626465 11.2502040863037109 -0.558027863502502441
3.72387266159057617 11.2819652557373047 -0.519957423210144043
3.57992887496948242 11.2575054168701172 -0.495156168937683105
3.59070777893066406 11.2901535034179688 -0.548807501792907715
3.63400006294250488 11.2880001068115234 -0.712000012397766113
3.75249171257019043 11.3098316192626953 -0.640208840370178223
3.48078060150146484 11.1867446899414062 -0.379997611045837402
3.55939507484436035 11.2534732818603516 -0.725103497505187988
3.66000008583068848 11.2869997024536133 -0.870000004768371582
3.48799991607666016 11.2279996871948242 -0.509000003337860107
3.60548114776611328 11.374791145324707 -0.761550784111022949
3.61120748519897461 11.2775163650512695 -0.335652917623519897
3.60153603553771973 11.3103885650634766 -0.473213523626327515
3.56500005722045898 11.2819995880126953 -0.474999994039535522
3.57261395454406738 11.2775325775146484 -0.713964641094207764
3.57306718826293945 11.2402019500732422 -0.727142632007598877
3.61584186553955078 11.2459917068481445 -0.824039280414581299
3.4770655632019043 11.1831035614013672 -0.587509453296661377
3.47259283065795898 11.1769552230834961 -0.527568161487579346
3.61800003051757812 11.2910003662109375 -0.740999996662139893
3.52168560028076172 11.2484617233276367 -0.718863308429718018
3.61680722236633301 11.2786064147949219 -0.839723169803619385
3.73300004005432129 11.2460002899169922 -0.810000002384185791
3.50729727745056152 11.1892299652099609 -0.707591116428375244
3.49200010299682617 11.1969995498657227 -0.537000000476837158
3.76124119758605957 11.3054637908935547 -0.670358955860137939
3.53127670288085938 11.2954874038696289 -0.426432669162750244
3.80928969383239746 11.3074016571044922 -0.469198822975158691
3.61883831024169922 11.2822637557983398 -0.775659084320068359
3.76711630821228027 11.283534049987793 -0.52408522367477417
3.7269129753112793 11.3106184005737305 -0.536412954330444336
3.6809999942779541 11.2889995574951172 -0.889999985694885254
3.47209787368774414 11.2712697982788086 -0.442894011735916138
3.5681912899017334 11.2992439270019531 -0.472921639680862427
3.50399994850158691 11.2130002975463867 -0.391999989748001099
3.74282693862915039 11.2375631332397461 -0.824536144733428955
3.50900006294250488 11.1960000991821289 -0.699999988079071045
3.5 11.2019996643066406 -0.672999978065490723
3.59778618812561035 11.2826862335205078 -0.799116969108581543
3.50049734115600586 11.208989143371582 -0.856448709964752197
3.58895373344421387 11.2705602645874023 -0.894111454486846924
3.70306110382080078 11.3204536437988281 -0.761280417442321777
3.7456355094909668 11.2990703582763672 -0.578037261962890625
3.5150001049041748 11.2399997711181641 -0.444000005722045898
3.72630190849304199 11.2829351425170898 -0.802836596965789795
3.58598971366882324 11.3067865371704102 -0.690864443778991699
3.5559999942779541 11.2390003204345703 -0.856999993324279785
3.7254784107208252 11.3287906646728516 -0.600089311599731445
3.48052978515625 11.2064485549926758 -0.837147235870361328
3.59100008010864258 11.2670001983642578 -0.842000007629394531
3.7243497371673584 11.316563606262207 -0.79681086540222168
3.60855507850646973 11.291438102722168 -0.466376543045043945
3.56699991226196289 11.2869997024536133 -0.657999992370605469
3.49231433868408203 11.2085647583007812 -0.403941631317138672
3.58500003814697266 11.2639999389648438 -0.513000011444091797
3.60290813446044922 11.2509336471557617 -0.617807865142822266
3.68178868293762207 11.3379335403442383 -0.778387308120727539
3.47389793395996094 11.2980308532714844 -0.461034029722213745
3.6119999885559082 11.2989997863769531 -0.344999998807907104
3.62831377983093262 11.2822494506835938 -0.719604671001434326
3.60620975494384766 11.308929443359375 -0.498570382595062256
3.57299995422363281 11.2829999923706055 -0.453000009059906006
3.51129698753356934 11.2098712921142578 -0.752733409404754639
3.58935427665710449 11.2515850067138672 -0.56177443265914917
3.5490720272064209 11.227238655090332 -0.84171980619430542
3.62949991226196289 11.2875003814697266 -0.693499982357025146
3.72380709648132324 11.2660951614379883 -0.834790408611297607
3.5760350227355957 11.3141937255859375 -0.360517919063568115
3.50699996948242188 11.2290000915527344 -0.861000001430511475
3.61800003051757812 11.305999755859375 -0.755999982357025146
3.50099992752075195 11.2209997177124023 -0.597000002861022949
3.73662972450256348 11.2542304992675781 -0.715860068798065186
3.79429984092712402 11.2844305038452148 -0.463401228189468384
3.47674870491027832 11.246150016784668 -0.526105284690856934
3.48200011253356934 11.2019996643066406 -0.379999995231628418
3.64491152763366699 11.2559795379638672 -0.394037127494812012
3.70648908615112305 11.2550878524780273 -0.844530701637268066
3.76726722717285156 11.3062591552734375 -0.583284497261047363
3.45561432838439941 11.1857585906982422 -0.817168593406677246
3.54539823532104492 11.2355737686157227 -0.82897341251373291
3.51987361907958984 11.2112302780151367 -0.696999669075012207
3.46612048149108887 11.21173095703125 -0.578429102897644043
3.50844836235046387 11.2246103286743164 -0.737254023551940918
3.73998236656188965 11.2810726165771484 -0.688352346420288086
3.46463584899902344 11.2131900787353516 -0.380749672651290894
3.59607553482055664 11.2880830764770508 -0.4300517737865448
3.48927211761474609 11.2639532089233398 -0.340193241834640503
3.5149543285369873 11.1684055328369141 -0.39447137713432312
3.60567235946655273 11.3000974655151367 -0.38668176531791687
3.58669328689575195 11.2652587890625 -0.826877415180206299
3.46909809112548828 11.3058834075927734 -0.446883410215377808
3.54788684844970703 11.2537479400634766 -0.437582224607467651
3.5969998836517334 11.300999641418457 -0.47999998927116394
3.51796770095825195 11.2288675308227539 -0.35899469256401062
3.46984410285949707 11.2238330841064453 -0.53365170955657959
3.56319713592529297 11.2681980133056641 -0.48685726523399353
3.57488632202148438 11.2933788299560547 -0.362037509679794312
3.59320902824401855 11.3213472366333008 -0.351993650197982788
3.72099995613098145 11.300999641418457 -0.824999988079071045
3.49026727676391602 11.2466621398925781 -0.490879356861114502
3.48465061187744141 11.197357177734375 -0.856792569160461426
3.6136174201965332 11.2850751876831055 -0.588939070701599121
3.74657750129699707 11.2890615463256836 -0.569226086139678955
3.50603175163269043 11.2420339584350586 -0.870237648487091064
3.73836755752563477 11.3142194747924805 -0.731551229953765869
3.59536218643188477 11.2609882354736328 -0.695388853549957275
3.61400508880615234 11.2880964279174805 -0.730337679386138916
3.73279285430908203 11.3038978576660156 -0.780044138431549072
3.73399996757507324 11.3100004196166992 -0.688000023365020752
3.49459433555603027 11.1925935745239258 -0.769772827625274658
3.57599997520446777 11.2840003967285156 -0.477999985218048096
3.62533116340637207 11.2954072952270508 -0.600972950458526611
3.6009068489074707 11.244959831237793 -0.589935183525085449
3.48218846321105957 11.1962852478027344 -0.474792599678039551
3.46544647216796875 11.2509136199951172 -0.364171802997589111
3.57200002670288086 11.2799997329711914 -0.662000000476837158
3.61378717422485352 11.2728404998779297 -0.729462087154388428
3.73648548126220703 11.289067268371582 -0.69491887092590332
3.61902093887329102 11.3030967712402344 -0.760796904563903809
3.49229836463928223 11.2250404357910156 -0.689375519752502441
1 1 1
3.58654427528381348 11.2730579376220703 -0.621652066707611084
3.68683552742004395 11.2646703720092773 -0.820081174373626709
3.73616385459899902 11.2333583831787109 -0.714042723178863525
3.54298663139343262 11.2171592712402344 -0.881280422210693359
3.53099989891052246 11.2049999237060547 -0.901000022888183594
3.57891058921813965 11.2656230926513672 -0.603650331497192383
3.62276697158813477 11.3406829833984375 -0.773672878742218018
3.7369999885559082 11.3030004501342773 -0.677999973297119141
3.56363511085510254 11.2966251373291016 -0.584703624248504639
3.60976815223693848 11.2671880722045898 -0.552054286003112793
3.72666573524475098 11.2677221298217773 -0.801726222038269043
3.82158589363098145 11.2795639038085938 -0.469996541738510132
3.5794680118560791 11.2698631286621094 -0.648378252983093262
3.53295469284057617 11.2264404296875 -0.904755651950836182
3.60309791564941406 11.286341667175293 -0.693739593029022217
3 292 14 110 255 255 255
3 292 230 14 255 255 255
3 110 21 292 255 255 255
3 292 196 329 255 255 255
3 196 209 329 255 255 255
3 292 272 230 255 255 255
3 14 230 110 255 255 255
3 196 133 209 255 255 255
3 132 329 209 255 255 255
3 132 36 329 255 255 255
3 133 134 209 255 255 255
3 196 233 133 255 255 255
3 134 132 209 255 255 255
3 132 129 36 255 255 255
3 196 290 233 255 255 255
3 36 195 290 255 255 255
3 132 197 129 255 255 255
3 197 139 129 255 255 255
3 272 290 196 255 255 255
3 129 72 36 255 255 255
3 197 291 139 255 255 255
3 290 329 36 255 255 255
3 36 129 195 255 255 255
3 139 49 129 255 255 255
3 197 109 291 255 255 255
3 197 107 109 255 255 255
3 197 108 107 255 255 255
3 291 57 139 255 255 255
3 290 246 233 255 255 255
3 272 172 21 255 255 255
3 272 153 319 255 255 255
3 195 107 247 255 255 255
3 139 49 122 255 255 255
3 109 227 291 255 255 255
3 195 247 290 255 255 255
3 272 319 172 255 255 255
3 107 108 247 255 255 255
3 138 49 139 255 255 255
3 109 185 227 255 255 255
3 197 134 108 255 255 255
3 319 60 172 255 255 255
3 128 31 319 255 255 255
3 272 292 153 255 255 255
3 108 133 247 255 255 255
3 129 109 107 255 255 255
3 291 304 57 255 255 255
3 291 182 304 255 255 255
3 133 246 247 255 255 255
3 108 155 133 255 255 255
3 139 57 138 255 255 255
3 185 182 227 255 255 255
3 31 60 319 255 255 255
3 49 139 280 255 255 255
3 57 210 138 255 255 255
3 57 283 210 255 255 255
3 182 291 227 255 255 255
3 310 31 128 255 255 255
3 319 288 128 255 255 255
3 319 153 288 255 255 255
3 182 135 304 255 255 255
3 168 153 172 255 255 255
3 31 102 60 255 255 255
3 128 288 310 255 255 255
3 304 24 283 255 255 255
3 185 228 182 255 255 255
3 123 234 185 255 255 255
3 135 24 304 255 255 255
3 135 186 24 255 255 255
3 185 234 228 255 255 255
3 334 274 102 255 255 255
3 102 88 334 255 255 255
3 249 102 31 255 255 255
3 310 249 31 255 255 255
3 168 258 153 255 255 255
3 101 185 210 255 255 255
3 15 234 304 255 255 255
3 283 201 304 255 255 255
3 24 147 283 255 255 255
3 101 123 185 255 255 255
3 210 283 101 255 255 255
3 283 6 1 255 255 255
3 228 186 135 255 255 255
3 228 171 186 255 255 255
3 171 18 123 255 255 255
3 123 228 171 255 255 255
3 304 201 15 255 255 255
3 172 289 168 255 255 255
3 288 153 258 255 255 255
3 185 139 210 255 255 255
3 283 147 6 255 255 255
3 147 202 193 255 255 255
3 24 202 147 255 255 255
3 24 323 202 255 255 255
3 24 186 323 255 255 255
3 201 123 15 255 255 255
3 123 101 15 255 255 255
3 289 102 168 255 255 255
3 60 289 172 255 255 255
3 288 258 310 255 255 255
3 258 168 310 255 255 255
3 6 201 1 255 255 255
3 186 171 323 255 255 255
3 334 256 274 255 255 255
3 249 178 310 255 255 255
3 168 313 310 255 255 255
3 147 242 6 255 255 255
3 193 242 147 255 255 255
3 171 13 18 255 255 255
3 102 278 168 255 255 255
3 274 256 289 255 255 255
3 102 249 178 255 255 255
3 6 309 201 255 255 255
3 193 10 242 255 255 255
3 193 130 10 255 255 255
3 202 130 193 255 255 255
3 202 43 92 255 255 255
3 13 219 18 255 255 255
3 88 335 334 255 255 255
3 146 335 88 255 255 255
3 178 334 102 255 255 255
3 178 88 310 255 255 255
3 62 219 201 255 255 255
3 201 309 62 255 255 255
3 130 173 10 255 255 255
3 219 201 18 255 255 255
3 171 174 13 255 255 255
3 102 256 60 255 255 255
3 178 32 334 255 255 255
3 178 89 88 255 255 255
3 313 334 63 255 255 255
3 242 267 6 255 255 255
3 173 263 10 255 255 255
3 130 43 173 255 255 255
3 309 24 202 255 255 255
3 219 15 201 255 255 255
3 174 62 13 255 255 255
3 202 174 171 255 255 255
3 335 344 334 255 255 255
3 146 85 335 255 255 255
3 249 278 313 255 255 255
3 334 344 63 255 255 255
3 267 47 6 255 255 255
3 242 300 267 255 255 255
3 201 1 309 255 255 255
3 309 202 201 255 255 255
3 10 148 242 255 255 255
3 10 176 131 255 255 255
3 10 175 176 255 255 255
3 173 113 263 255 255 255
3 130 10 92 255 255 255
3 313 102 334 255 255 255
3 88 74 146 255 255 255
3 89 74 88 255 255 255
3 32 89 63 255 255 255
3 63 74 32 255 255 255
3 344 74 63 255 255 255
3 148 300 242 255 255 255
3 43 92 10 255 255 255
3 43 44 173 255 255 255
3 175 162 92 255 255 255
3 63 177 74 255 255 255
3 6 47 162 255 255 255
3 10 236 148 255 255 255
3 131 236 10 255 255 255
3 162 253 92 255 255 255
3 344 85 194 255 255 255
3 236 179 47 255 255 255
3 236 47 148 255 255 255
3 253 131 176 255 255 255
3 253 47 131 255 255 255
3 176 92 253 255 255 255
3 113 294 263 255 255 255
3 177 194 74 255 255 255
3 179 301 47 255 255 255
3 47 267 148 255 255 255
3 131 301 236 255 255 255
3 113 216 294 255 255 255
3 177 344 194 255 255 255
3 179 73 301 255 255 255
3 179 205 73 255 255 255
3 294 64 263 255 255 255
3 113 173 216 255 255 255
3 173 44 216 255 255 255
3 73 140 301 255 255 255
3 205 84 73 255 255 255
3 236 50 179 255 255 255
3 236 140 50 255 255 255
3 294 190 64 255 255 255
3 205 243 84 255 255 255
3 179 50 205 255 255 255
3 140 295 50 255 255 255
3 236 301 140 255 255 255
3 73 141 212 255 255 255
3 84 2 73 255 255 255
3 243 46 84 255 255 255
3 205 25 243 255 255 255
3 50 25 205 255 255 255
3 50 295 25 255 255 255
3 64 100 263 255 255 255
3 44 297 216 255 255 255
3 73 26 140 255 255 255
3 212 26 73 255 255 255
3 141 264 212 255 255 255
3 243 302 46 255 255 255
3 25 222 243 255 255 255
3 216 284 263 255 255 255
3 263 173 216 255 255 255
3 263 16 44 255 255 255
3 64 45 100 255 255 255
3 190 29 64 255 255 255
3 294 207 324 255 255 255
3 213 264 141 255 255 255
3 141 2 213 255 255 255
3 84 213 2 255 255 255
3 270 213 84 255 255 255
3 84 120 270 255 255 255
3 243 25 302 255 255 255
3 222 302 243 255 255 255
3 295 261 25 255 255 255
3 271 261 140 255 255 255
3 140 223 271 255 255 255
3 284 294 263 255 255 255
3 45 126 100 255 255 255
3 190 324 29 255 255 255
3 44 16 297 255 255 255
3 223 305 26 255 255 255
3 26 320 223 255 255 255
3 212 7 26 255 255 255
3 180 264 46 255 255 255
3 243 136 25 255 255 255
3 222 120 302 255 255 255
3 295 140 261 255 255 255
3 271 320 261 255 255 255
3 294 244 263 255 255 255
3 100 297 263 255 255 255
3 296 29 324 255 255 255
3 216 126 207 255 255 255
3 320 243 223 255 255 255
3 46 261 26 255 255 255
3 26 180 46 255 255 255
3 26 118 180 255 255 255
3 264 118 212 255 255 255
3 270 41 213 255 255 255
3 120 46 302 255 255 255
3 244 100 263 255 255 255
3 64 296 45 255 255 255
3 126 45 207 255 255 255
3 216 244 126 255 255 255
3 264 91 118 255 255 255
3 261 222 25 255 255 255
3 3 306 295 255 255 255
3 16 67 263 255 255 255
3 324 207 296 255 255 255
3 126 303 45 255 255 255
3 297 100 216 255 255 255
3 305 46 26 255 255 255
3 41 66 213 255 255 255
3 270 208 41 255 255 255
3 7 270 261 255 255 255
3 295 306 298 255 255 255
3 296 207 45 255 255 255
3 306 277 298 255 255 255
3 7 208 270 255 255 255
3 298 65 3 255 255 255
3 340 273 213 255 255 255
3 213 66 340 255 255 255
3 321 61 66 255 255 255
3 41 69 66 255 255 255
3 208 163 41 255 255 255
3 65 4 3 255 255 255
3 3 295 298 255 255 255
3 7 212 208 255 255 255
3 340 161 273 255 255 255
3 311 340 66 255 255 255
3 311 69 340 255 255 255
3 41 163 69 255 255 255
3 77 307 306 255 255 255
3 306 3 77 255 255 255
3 65 149 4 255 255 255
3 340 69 161 255 255 255
3 69 163 340 255 255 255
3 311 322 69 255 255 255
3 66 69 321 255 255 255
3 277 93 298 255 255 255
3 277 19 93 255 255 255
3 206 149 65 255 255 255
3 65 27 206 255 255 255
3 69 322 161 255 255 255
3 69 322 321 255 255 255
3 163 91 340 255 255 255
3 307 17 306 255 255 255
3 3 221 77 255 255 255
3 27 285 206 255 255 255
3 322 170 161 255 255 255
3 66 61 311 255 255 255
3 61 170 311 255 255 255
3 322 181 321 255 255 255
3 163 212 91 255 255 255
3 93 28 298 255 255 255
3 17 221 306 255 255 255
3 77 221 307 255 255 255
3 3 42 221 255 255 255
3 27 81 285 255 255 255
3 27 42 81 255 255 255
3 164 339 273 255 255 255
3 273 161 164 255 255 255
3 336 273 161 255 255 255
3 161 170 336 255 255 255
3 322 311 170 255 255 255
3 28 169 298 255 255 255
3 93 19 28 255 255 255
3 277 307 19 255 255 255
3 307 28 17 255 255 255
3 3 4 42 255 255 255
3 149 81 4 255 255 255
3 164 58 339 255 255 255
3 331 336 170 255 255 255
3 170 181 331 255 255 255
3 322 265 181 255 255 255
3 169 221 298 255 255 255
3 28 268 169 255 255 255
3 17 169 221 255 255 255
3 4 81 42 255 255 255
3 27 285 42 255 255 255
3 331 164 336 255 255 255
3 285 149 42 255 255 255
3 58 61 339 255 255 255
3 164 331 58 255 255 255
3 273 322 161 255 255 255
3 221 65 298 255 255 255
3 42 65 221 255 255 255
3 265 70 181 255 255 255
3 69 273 322 255 255 255
3 331 103 343 255 255 255
3 181 103 331 255 255 255
3 181 188 103 255 255 255
3 265 48 70 255 255 255
3 265 331 48 255 255 255
3 181 70 188 255 255 255
3 127 315 70 255 255 255
3 262 325 343 255 255 255
3 103 325 343 255 255 255
3 70 315 188 255 255 255
3 127 48 331 255 255 255
3 331 343 127 255 255 255
3 325 315 343 255 255 255
3 325 144 315 255 255 255
3 262 104 325 255 255 255
3 103 143 325 255 255 255
3 103 255 143 255 255 255
3 315 198 188 255 255 255
3 315 127 343 255 255 255
3 262 143 104 255 255 255
3 0 104 143 255 255 255
3 143 255 0 255 255 255
3 103 345 255 255 255 255
3 345 144 255 255 255 255
3 103 144 345 255 255 255
3 144 224 315 255 255 255
3 345 269 144 255 255 255
3 198 87 275 255 255 255
3 104 0 144 255 255 255
3 269 326 144 255 255 255
3 345 151 269 255 255 255
3 198 275 188 255 255 255
3 224 8 315 255 255 255
3 224 217 8 255 255 255
3 275 214 269 255 255 255
3 326 269 315 255 255 255
3 315 8 326 255 255 255
3 8 150 326 255 255 255
3 217 225 8 255 255 255
3 326 224 144 255 255 255
3 345 275 151 255 255 255
3 214 316 269 255 255 255
3 198 269 87 255 255 255
3 198 326 269 255 255 255
3 8 225 150 255 255 255
3 326 8 224 255 255 255
3 316 8 326 255 255 255
3 326 99 316 255 255 255
3 224 121 217 255 255 255
3 316 229 8 255 255 255
3 71 9 8 255 255 255
3 121 71 8 255 255 255
3 229 59 8 255 255 255
3 326 86 99 255 255 255
3 150 20 326 255 255 255
3 225 9 150 255 255 255
3 9 225 8 255 255 255
3 71 225 217 255 255 255
3 8 37 39 255 255 255
3 229 328 59 255 255 255
3 37 269 316 255 255 255
3 316 229 37 255 255 255
3 238 328 99 255 255 255
3 86 238 99 255 255 255
3 86 20 238 255 255 255
3 20 86 326 255 255 255
3 150 248 20 255 255 255
3 71 9 225 255 255 255
3 37 59 39 255 255 255
3 328 279 59 255 255 255
3 316 279 229 255 255 255
3 150 39 248 255 255 255
3 59 238 39 255 255 255
3 86 191 20 255 255 255
3 39 150 9 255 255 255
3 39 238 248 255 255 255
3 59 328 238 255 255 255
3 20 226 86 255 255 255
3 20 299 226 255 255 255
3 226 191 86 255 255 255
3 238 20 248 255 255 255
3 191 226 145 255 255 255
3 191 114 231 255 255 255
3 145 114 191 255 255 255
3 226 105 145 255 255 255
3 191 231 20 255 255 255
3 231 299 20 255 255 255
3 145 192 114 255 255 255
3 299 30 226 255 255 255
3 299 34 30 255 255 255
3 111 250 145 255 255 255
3 105 111 145 255 255 255
3 226 30 105 255 255 255
3 34 203 30 255 255 255
3 105 259 231 255 255 255
3 231 250 105 255 255 255
3 231 191 192 255 255 255
3 250 203 145 255 255 255
3 191 250 231 255 255 255
3 259 30 299 255 255 255
3 299 231 259 255 255 255
3 105 203 259 255 255 255
3 114 218 192 255 255 255
3 250 111 105 255 255 255
3 56 245 137 255 255 255
3 245 157 137 255 255 255
3 137 159 56 255 255 255
3 154 341 56 255 255 255
3 56 159 154 255 255 255
3 159 245 154 255 255 255
3 157 159 137 255 255 255
3 157 245 106 255 255 255
3 56 158 245 255 255 255
3 154 317 341 255 255 255
3 40 254 154 255 255 255
3 154 158 341 255 255 255
3 245 158 154 255 255 255
3 159 276 137 255 255 255
3 158 117 245 255 255 255
3 56 341 158 255 255 255
3 154 254 317 255 255 255
3 254 260 317 255 255 255
3 341 254 154 255 255 255
3 159 157 245 255 255 255
3 317 254 341 255 255 255
3 254 52 260 255 255 255
3 159 286 276 255 255 255
3 158 232 117 255 255 255
3 317 83 254 255 255 255
3 254 308 52 255 255 255
3 232 245 117 255 255 255
3 254 158 341 255 255 255
3 254 38 308 255 255 255
3 159 106 51 255 255 255
3 254 40 158 255 255 255
3 83 317 260 255 255 255
3 260 52 83 255 255 255
3 317 5 78 255 255 255
3 276 332 106 255 255 255
3 286 157 106 255 255 255
3 51 286 106 255 255 255
3 317 314 5 255 255 255
3 276 53 332 255 255 255
3 106 53 276 255 255 255
3 106 332 53 255 255 255
3 276 286 106 255 255 255
3 317 33 97 255 255 255
3 5 33 78 255 255 255
3 314 112 5 255 255 255
3 33 317 78 255 255 255
3 78 97 33 255 255 255
3 112 281 5 255 255 255
3 112 314 55 255 255 255
3 55 235 112 255 255 255
3 55 235 152 255 255 255
3 337 220 53 255 255 255
3 112 333 281 255 255 255
3 235 293 112 255 255 255
3 55 23 235 255 255 255
3 112 95 333 255 255 255
3 23 215 235 255 255 255
3 281 54 95 255 255 255
3 112 35 95 255 255 255
3 293 54 112 255 255 255
3 235 76 293 255 255 255
3 23 76 215 255 255 255
3 55 293 23 255 255 255
3 281 333 35 255 255 255
3 235 215 76 255 255 255
3 76 90 215 255 255 255
3 293 338 23 255 255 255
3 281 95 333 255 255 255
3 95 35 333 255 255 255
3 76 189 90 255 255 255
3 90 257 215 255 255 255
3 76 338 293 255 255 255
3 215 199 167 255 255 255
3 257 199 215 255 255 255
3 90 215 189 255 255 255
3 327 338 293 255 255 255
3 215 76 189 255 255 255
3 338 318 293 255 255 255
3 167 287 160 255 255 255
3 160 189 167 255 255 255
3 167 199 287 255 255 255
3 287 252 160 255 255 255
3 199 116 287 255 255 255
3 287 312 252 255 255 255
3 287 94 312 255 255 255
3 257 252 199 255 255 255
3 252 257 160 255 255 255
3 116 252 287 255 255 255
3 199 22 116 255 255 255
3 287 116 94 255 255 255
3 116 165 252 255 255 255
3 199 240 22 255 255 255
3 94 96 312 255 255 255
3 94 239 96 255 255 255
3 239 12 96 255 255 255
3 94 204 239 255 255 255
3 116 204 94 255 255 255
3 165 312 252 255 255 255
3 116 12 165 255 255 255
3 312 96 200 255 255 255
3 165 96 312 255 255 255
3 116 22 204 255 255 255
3 240 211 22 255 255 255
3 312 240 252 255 255 255
3 96 166 312 255 255 255
3 116 166 12 255 255 255
3 240 199 252 255 255 255
3 211 239 22 255 255 255
3 200 211 240 255 255 255
3 211 200 96 255 255 255
3 204 22 239 255 255 255
3 266 251 187 255 255 255
3 187 97 251 255 255 255
3 251 317 187 255 255 255
3 241 183 11 255 255 255
3 241 218 183 255 255 255
3 218 156 183 255 255 255
3 218 125 156 255 255 255
3 241 82 218 255 255 255
3 218 114 125 255 255 255
3 241 156 125 255 255 255
3 342 237 282 255 255 255
3 237 68 282 255 255 255
3 237 124 68 255 255 255
3 68 342 282 255 255 255
3 68 98 342 255 255 255
3 98 124 342 255 255 255
3 68 119 98 255 255 255
3 68 79 119 255 255 255
3 237 119 342 255 255 255
3 80 142 115 255 255 255
3 115 82 80 255 255 255
3 80 82 142 255 255 255
3 115 142 82 255 255 255
3 142 184 75 255 255 255
3 115 184 142 255 255 255
3 38 276 75 255 255 255
3 115 52 75 255 255 255
3 330 330 330 255 255 255
