ply
format ascii 1.0
element vertex 326
property float x
property float y
property float z
element face 576
property list uchar int vertex_indices
property uchar red
property uchar green
property uchar blue
end_header
3.55649995803833008 10.3444995880126953 -0.87650001049041748
3.65250015258789062 10.2495002746582031 -0.833999991416931152
3.55200004577636719 10.3030004501342773 -0.91100001335144043
3.48797202110290527 10.3029975891113281 -0.911842942237854004
3.54250001907348633 10.3080005645751953 -0.868000030517578125
3.64499998092651367 10.2609996795654297 -0.842000007629394531
3.61599993705749512 10.2510004043579102 -0.853999972343444824
3.64800000190734863 10.2390003204345703 -0.837999999523162842
3.59321713447570801 10.2912120819091797 -0.806521117687225342
3.55700016021728516 10.3540000915527344 -0.84224998950958252
3.65617823600769043 10.2458038330078125 -0.826711952686309814
3.5409998893737793 10.2819995880126953 -0.851999998092651367
3.55500006675720215 10.314000129699707 -0.939999997615814209
3.54900002479553223 10.3199996948242188 -0.926999986171722412
3.63591718673706055 10.2414522171020508 -0.838407695293426514
3.55200004577636719 10.3030004501342773 -0.879999995231628418
3.54600000381469727 10.3020000457763672 -0.919000029563903809
3.51600003242492676 10.2239999771118164 -0.824000000953674316
3.6030123233795166 10.2809991836547852 -0.885912954807281494
3.62800002098083496 10.2589998245239258 -0.869000017642974854
3.5280001163482666 10.2629995346069336 -0.856000006198883057
3.56800007820129395 10.3649997711181641 -0.845000028610229492
3.63499999046325684 10.2200002670288086 -0.898000001907348633
3.55699992179870605 10.2760000228881836 -0.843999981880187988
3.5345001220703125 10.2659997940063477 -0.867499947547912598
3.53541183471679688 10.2601890563964844 -0.873979687690734863
3.53600001335144043 10.2600002288818359 -0.824000000953674316
3.51099991798400879 10.25 -0.856999993324279785
3.55513095855712891 10.2768821716308594 -0.846451401710510254
3.52699995040893555 10.2379999160766602 -0.81400001049041748
3.52544760704040527 10.232813835144043 -0.819213509559631348
3.53200006484985352 10.3079996109008789 -0.866999983787536621
3.5429999828338623 10.3000001907348633 -0.853999972343444824
3.56100010871887207 10.3039999008178711 -0.93900001049041748
3.52999997138977051 10.3179998397827148 -0.94300001859664917
3.51699995994567871 10.2349996566772461 -0.80699998140335083
3.56299996376037598 10.1999998092651367 -0.912999987602233887
3.54800009727478027 10.2889995574951172 -0.927999973297119141
3.60987758636474609 10.2980489730834961 -0.80298304557800293
3.51399993896484375 10.2559995651245117 -0.856999993324279785
3.56599998474121094 10.2969999313354492 -0.884999990463256836
3.54999995231628418 10.3459997177124023 -0.887000024318695068
3.56100010871887207 10.2874994277954102 -0.814999997615814209
3.58099985122680664 10.2965002059936523 -0.932000041007995605
3.53099989891052246 10.3540000915527344 -0.85000002384185791
3.58500003814697266 10.3000001907348633 -0.927999973297119141
3.59464383125305176 10.3031539916992188 -0.840989291667938232
3.5429999828338623 10.3290004730224609 -0.910000026226043701
3.53604245185852051 10.3358983993530273 -0.889099776744842529
3.6309196949005127 10.2520828247070312 -0.851094901561737061
3.53715324401855469 10.2291946411132812 -0.799043595790863037
3.63066339492797852 10.2578334808349609 -0.848636269569396973
3.60451292991638184 10.2961587905883789 -0.797994613647460938
3.62800002098083496 10.2010002136230469 -0.907999992370605469
3.61500000953674316 10.2620000839233398 -0.86799997091293335
3.55900001525878906 10.3070001602172852 -0.906000018119812012
3.64299988746643066 10.244999885559082 -0.824000000953674316
3.58599996566772461 10.2069997787475586 -0.89999997615814209
3.53200006484985352 10.3350000381469727 -0.892000019550323486
3.44999980926513672 10.3040008544921875 -0.852499961853027344
3.64233016967773438 10.2516317367553711 -0.839222371578216553
3.62665700912475586 10.253148078918457 -0.869461596012115479
3.6138768196105957 10.2829513549804688 -0.794995546340942383
3.57699990272521973 10.2980003356933594 -0.857999980449676514
3.66232919692993164 10.2429819107055664 -0.832551062107086182
3.53399991989135742 10.3070001602172852 -0.870999991893768311
3.57399988174438477 10.2959995269775391 -0.936999976634979248
3.59307622909545898 10.2859745025634766 -0.813904464244842529
3.62199616432189941 10.2759990692138672 -0.882009923458099365
3.58999991416931152 10.305999755859375 -0.830999970436096191
3.61400008201599121 10.189000129699707 -0.892000019550323486
3.55218076705932617 10.2952489852905273 -0.912297546863555908
3.56155943870544434 10.3501873016357422 -0.882716238498687744
3.55875015258789062 10.1999998092651367 -0.90074998140335083
3.50500011444091797 10.2290000915527344 -0.802999973297119141
3.52399992942810059 10.3129997253417969 -0.944000005722045898
3.59499979019165039 10.3115005493164062 -0.828500032424926758
3.59800004959106445 10.2819995880126953 -0.90700000524520874
3.53399991989135742 10.3409996032714844 -0.880999982357025146
3.48116445541381836 10.316065788269043 -0.894071996212005615
3.60002684593200684 10.3067874908447266 -0.81323707103729248
3.52999997138977051 10.2600002288818359 -0.851999998092651367
3.52500009536743164 10.2559995651245117 -0.865999996662139893
3.51900005340576172 10.2609996795654297 -0.865999996662139893
3.53999996185302734 10.2469997406005859 -0.833000004291534424
3.55299997329711914 10.2880001068115234 -0.862999975681304932
3.53500008583068848 10.2749996185302734 -0.864000022411346436
3.53299999237060547 10.2609996795654297 -0.843999981880187988
3.53343343734741211 10.2669076919555664 -0.87491995096206665
3.55699992179870605 10.2869997024536133 -0.825999975204467773
3.55500006675720215 10.2849998474121094 -0.837999999523162842
3.55200004577636719 10.3170003890991211 -0.939999997615814209
3.63599991798400879 10.2480001449584961 -0.822000026702880859
3.53399991989135742 10.2679996490478516 -0.824999988079071045
3.54496860504150391 10.2680187225341797 -0.874976813793182373
3.57699990272521973 10.2980003356933594 -0.861999988555908203
3.57315206527709961 10.2862558364868164 -0.934592604637145996
3.53900003433227539 10.3310003280639648 -0.893000006675720215
3.5409998893737793 10.2639999389648438 -0.833999991416931152
3.59800004959106445 10.2770004272460938 -0.892000019550323486
3.65599989891052246 10.2569999694824219 -0.836000025272369385
3.48200011253356934 10.3185005187988281 -0.878999948501586914
3.48449993133544922 10.3125 -0.903999984264373779
3.53399991989135742 10.2539997100830078 -0.823000013828277588
3.53399991989135742 10.2309999465942383 -0.829999983310699463
3.55104541778564453 10.2821331024169922 -0.828003466129302979
3.54399991035461426 10.2569999694824219 -0.829999983310699463
3.53170299530029297 10.2558050155639648 -0.860046923160552979
3.54768562316894531 10.2630653381347656 -0.831130802631378174
3.52399992942810059 10.2370004653930664 -0.833000004291534424
3.51799988746643066 10.2259998321533203 -0.829999983310699463
3.52500009536743164 10.2229995727539062 -0.810000002384185791
3.53200006484985352 10.2279996871948242 -0.833000004291534424
3.61575007438659668 10.2904996871948242 -0.798250019550323486
3.63100004196166992 10.2250003814697266 -0.896000027656555176
3.51900005340576172 10.2559995651245117 -0.856000006198883057
3.6276848316192627 10.1953754425048828 -0.892138481140136719
3.53500008583068848 10.3620004653930664 -0.848999977111816406
3.55299997329711914 10.3030004501342773 -0.936999976634979248
3.63499999046325684 10.2469997406005859 -0.828000009059906006
3.56299996376037598 10.3070001602172852 -0.93599998950958252
3.58787727355957031 10.2866449356079102 -0.917322516441345215
3.59899997711181641 10.2740001678466797 -0.89999997615814209
3.53900003433227539 10.3260002136230469 -0.912999987602233887
3.54900002479553223 10.2950000762939453 -0.908999979496002197
3.53800678253173828 10.2919855117797852 -0.881010830402374268
3.55275630950927734 10.2877492904663086 -0.929846584796905518
3.59350013732910156 10.2889995574951172 -0.921500027179718018
3.54164528846740723 10.2817020416259766 -0.938405275344848633
3.55100011825561523 10.3409996032714844 -0.879999995231628418
3.53600001335144043 10.2860002517700195 -0.873000025749206543
3.54600000381469727 10.3269996643066406 -0.922999978065490723
3.55200004577636719 10.3420000076293945 -0.902999997138977051
3.61599993705749512 10.2609996795654297 -0.873000025749206543
3.64400005340576172 10.2609996795654297 -0.837000012397766113
3.53299999237060547 10.3450002670288086 -0.869000017642974854
3.65100002288818359 10.2404994964599609 -0.830000042915344238
3.61800003051757812 10.2899999618530273 -0.783999979496002197
3.58899998664855957 10.2939996719360352 -0.827000021934509277
3.63730740547180176 10.2409086227416992 -0.842671871185302734
3.53495526313781738 10.3528461456298828 -0.851618409156799316
3.64559125900268555 10.2542877197265625 -0.830621123313903809
3.53200006484985352 10.2569999694824219 -0.827000021934509277
3.51699995994567871 10.2410001754760742 -0.824999988079071045
3.51849985122680664 10.2450008392333984 -0.812999963760375977
3.53099989891052246 10.2519998550415039 -0.816999971866607666
3.54399991035461426 10.2810001373291016 -0.855000019073486328
3.53200006484985352 10.2690000534057617 -0.851000010967254639
3.55100011825561523 10.2910003662109375 -0.866999983787536621
3.53099989891052246 10.2880001068115234 -0.880999982357025146
3.55413413047790527 10.2937994003295898 -0.881229817867279053
3.51524996757507324 10.2547492980957031 -0.863250017166137695
3.51200008392333984 10.2329998016357422 -0.808000028133392334
3.55399990081787109 10.3039999008178711 -0.933000028133392334
3.54169583320617676 10.3372735977172852 -0.895121335983276367
3.60700011253356934 10.2840003967285156 -0.904999971389770508
3.52999997138977051 10.2819995880126953 -0.93900001049041748
3.56299996376037598 10.3489999771118164 -0.878000020980834961
3.64126920700073242 10.2352161407470703 -0.825574040412902832
3.63700008392333984 10.2510004043579102 -0.848999977111816406
3.45799994468688965 10.3039999008178711 -0.869000017642974854
3.52549982070922852 10.2274999618530273 -0.802500009536743164
3.5280001163482666 10.2250003814697266 -0.808000028133392334
3.52699995040893555 10.2530002593994141 -0.845000028610229492
3.53999996185302734 10.2930002212524414 -0.898000001907348633
3.56100010871887207 10.2899999618530273 -0.841000020503997803
3.54699993133544922 10.3000001907348633 -0.875999987125396729
3.54699993133544922 10.2989997863769531 -0.885999977588653564
3.55900001525878906 10.2930002212524414 -0.889999985694885254
3.53699994087219238 10.2650003433227539 -0.878000020980834961
3.53999996185302734 10.3360004425048828 -0.91100001335144043
3.63597679138183594 10.204960823059082 -0.900015592575073242
3.54477190971374512 10.28509521484375 -0.932693123817443848
3.62866926193237305 10.2187833786010742 -0.91287541389465332
3.52866482734680176 10.3214807510375977 -0.918815732002258301
3.55299997329711914 10.3079996109008789 -0.938000023365020752
3.61266779899597168 10.1730775833129883 -0.878802359104156494
3.55375003814697266 10.307499885559082 -0.943500041961669922
3.5690000057220459 10.3380002975463867 -0.890999972820281982
3.61318492889404297 10.1901617050170898 -0.882667660713195801
3.56996750831604004 10.3533401489257812 -0.845424056053161621
3.62608003616333008 10.2161331176757812 -0.894692063331604004
3.62450003623962402 10.2165002822875977 -0.906000018119812012
3.62376785278320312 10.1756601333618164 -0.893138587474822998
3.55399990081787109 10.3290004730224609 -0.930000007152557373
3.60749983787536621 10.2859992980957031 -0.784875035285949707
3.56500005722045898 10.3039999008178711 -0.860000014305114746
3.56661152839660645 10.2935914993286133 -0.938231766223907471
3.63413786888122559 10.2623081207275391 -0.83687359094619751
3.62100005149841309 10.2589998245239258 -0.869000017642974854
3.5559999942779541 10.3260002136230469 -0.94300001859664917
3.60700011253356934 10.2690000534057617 -0.898000001907348633
3.51122069358825684 10.2422904968261719 -0.814620494842529297
3.53699994087219238 10.2460002899169922 -0.83899998664855957
3.53600001335144043 10.2889995574951172 -0.875
3.56300020217895508 10.3010005950927734 -0.891000032424926758
3.55049991607666016 10.3015003204345703 -0.904500007629394531
3.5409998893737793 10.2969999313354492 -0.851999998092651367
3.54699993133544922 10.2950000762939453 -0.917999982833862305
3.54699993133544922 10.2880001068115234 -0.848999977111816406
3.55399990081787109 10.2989997863769531 -0.927999973297119141
3.54800009727478027 10.2889995574951172 -0.924000024795532227
3.55299997329711914 10.2980003356933594 -0.902000010013580322
3.55100011825561523 10.3159999847412109 -0.935000002384185791
3.52900004386901855 10.25 -0.833999991416931152
3.52600002288818359 10.2860002517700195 -0.856000006198883057
3.58099985122680664 10.2915000915527344 -0.930999994277954102
3.54600000381469727 10.3244991302490234 -0.920500040054321289
3.56100010871887207 10.3640003204345703 -0.848999977111816406
3.45475006103515625 10.3157501220703125 -0.855499982833862305
3.56113290786743164 10.2953882217407227 -0.831275641918182373
3.59599995613098145 10.2939996719360352 -0.819999992847442627
3.55100011825561523 10.3260002136230469 -0.945999979972839355
3.6127316951751709 10.2783412933349609 -0.894590437412261963
3.62199997901916504 10.1979999542236328 -0.902000010013580322
3.5429999828338623 10.2659997940063477 -0.823000013828277588
3.53299999237060547 10.3620004653930664 -0.861999988555908203
3.61894392967224121 10.219970703125 -0.919984042644500732
3.55399990081787109 10.3045005798339844 -0.890500009059906006
3.55299997329711914 10.3229999542236328 -0.933000028133392334
3.55207300186157227 10.3027935028076172 -0.924522042274475098
3.56850004196166992 10.3365001678466797 -0.886500000953674316
3.53699994087219238 10.3570003509521484 -0.860000014305114746
3.56200003623962402 10.3570003509521484 -0.853999972343444824
3.55100011825561523 10.3020000457763672 -0.915000021457672119
3.55299997329711914 10.3179998397827148 -0.944000005722045898
3.60299968719482422 10.300999641418457 -0.831000983715057373
3.6090092658996582 10.287139892578125 -0.806215226650238037
3.56200003623962402 10.2040004730224609 -0.89999997615814209
3.53395652770996094 10.3509750366210938 -0.878830254077911377
3.55584335327148438 10.2948770523071289 -0.854863524436950684
3.52900004386901855 10.2930002212524414 -0.857999980449676514
3.53600001335144043 10.2760000228881836 -0.873000025749206543
3.51099991798400879 10.2220001220703125 -0.828000009059906006
3.45358371734619141 10.3197336196899414 -0.87024688720703125
3.46300005912780762 10.314000129699707 -0.86799997091293335
3.4570000171661377 10.3239994049072266 -0.856500029563903809
3.45550012588500977 10.3164997100830078 -0.869500041007995605
3.4570000171661377 10.3100004196166992 -0.860000014305114746
3.4482114315032959 10.312016487121582 -0.859112560749053955
3.58835983276367188 10.2870473861694336 -0.914182066917419434
3.61800003051757812 10.2480001449584961 -0.857999980449676514
3.63100004196166992 10.2519998550415039 -0.846000015735626221
3.52200007438659668 10.2430000305175781 -0.834999978542327881
3.61999988555908203 10.2690000534057617 -0.888000011444091797
3.60128116607666016 10.2678260803222656 -0.882015705108642578
3.625 10.1840000152587891 -0.888000011444091797
3.55299997329711914 10.3400001525878906 -0.88200002908706665
3.59908318519592285 10.2790603637695312 -0.911931693553924561
3.62000656127929688 10.2575902938842773 -0.863874375820159912
3.52699995040893555 10.2480001449584961 -0.847999989986419678
3.53600001335144043 10.3430004119873047 -0.885999977588653564
3.45284032821655273 10.3039970397949219 -0.870907068252563477
3.46449995040893555 10.32550048828125 -0.858999967575073242
3.5409998893737793 10.3520002365112305 -0.884999990463256836
3.61700010299682617 10.2049999237060547 -0.916000008583068848
3.55999994277954102 10.3030004501342773 -0.893000006675720215
3.55699992179870605 10.2939996719360352 -0.84299999475479126
3.56150007247924805 10.3540000915527344 -0.865999996662139893
3.53900003433227539 10.3360004425048828 -0.898000001907348633
3.58299994468688965 10.2060003280639648 -0.904999971389770508
3.61500000953674316 10.2030000686645508 -0.91100001335144043
3.55200004577636719 10.2729997634887695 -0.851000010967254639
3.53900003433227539 10.2460002899169922 -0.828000009059906006
3.52900004386901855 10.2299995422363281 -0.834999978542327881
3.52699995040893555 10.2279996871948242 -0.795000016689300537
3.51399993896484375 10.2279996871948242 -0.81800001859664917
3.54399991035461426 10.2959995269775391 -0.893999993801116943
3.55503153800964355 10.3038244247436523 -0.870243966579437256
3.54999995231628418 10.2810001373291016 -0.893999993801116943
3.54699993133544922 10.2980003356933594 -0.897000014781951904
3.55200004577636719 10.3030004501342773 -0.857999980449676514
3.61500000953674316 10.2670001983642578 -0.879000008106231689
3.5559999942779541 10.3509998321533203 -0.873000025749206543
3.62099981307983398 10.2040004730224609 -0.899500012397766113
3.6027991771697998 10.2911453247070312 -0.796653270721435547
3.63400006294250488 10.2089996337890625 -0.907999992370605469
3.46899986267089844 10.3105001449584961 -0.881500005722045898
3.53125 10.3540000915527344 -0.863499999046325684
3.52900004386901855 10.3470001220703125 -0.865000009536743164
3.63199996948242188 10.244999885559082 -0.833999991416931152
3.58899998664855957 10.2130002975463867 -0.902999997138977051
3.52387285232543945 10.3339996337890625 -0.883334577083587646
3.52900004386901855 10.258000373840332 -0.81800001859664917
3.62256288528442383 10.201197624206543 -0.885837972164154053
3.55129599571228027 10.3024358749389648 -0.945120692253112793
3.54800009727478027 10.3430004119873047 -0.906000018119812012
3.60802769660949707 10.2590208053588867 -0.887987494468688965
3.61700010299682617 10.2670001983642578 -0.883000016212463379
3.55500006675720215 10.2849998474121094 -0.846000015735626221
3.56599998474121094 10.2980003356933594 -0.856000006198883057
3.5580601692199707 10.2885913848876953 -0.868175089359283447
3.54505014419555664 10.3059778213500977 -0.863037645816802979
3.54500007629394531 10.2860002517700195 -0.902000010013580322
3.53099989891052246 10.2709999084472656 -0.861999988555908203
3.54008293151855469 10.2776937484741211 -0.889724493026733398
3.53299999237060547 10.2740001678466797 -0.884999990463256836
3.54200005531311035 10.2770004272460938 -0.880999982357025146
3.5360713005065918 10.2858209609985352 -0.896294295787811279
3.53800010681152344 10.3540000915527344 -0.870999991893768311
3.56200003623962402 10.1949996948242188 -0.907999992370605469
3.62156796455383301 10.2568273544311523 -0.873191475868225098
3.61599993705749512 10.1829996109008789 -0.896000027656555176
3.60899996757507324 10.2040004730224609 -0.913999974727630615
3.55500006675720215 10.2849998474121094 -0.89999997615814209
3.53299999237060547 10.2860002517700195 -0.944999992847442627
3.58800292015075684 10.2951545715332031 -0.821999132633209229
3.59100008010864258 10.3039999008178711 -0.925999999046325684
3.60400009155273438 10.2860002517700195 -0.907999992370605469
3.60599994659423828 10.2919998168945312 -0.782999992370605469
3.55999994277954102 10.348750114440918 -0.861000001430511475
3.53200006484985352 10.2860002517700195 -0.856000006198883057
3.54999995231628418 10.2860002517700195 -0.890999972820281982
3.56800007820129395 10.2959995269775391 -0.860000014305114746
3.51900005340576172 10.2299995422363281 -0.809000015258789062
3.52399992942810059 10.2410001754760742 -0.837999999523162842
3.52500009536743164 10.2519998550415039 -0.822000026702880859
3.53299999237060547 10.2480001449584961 -0.851000010967254639
3.52900004386901855 10.25 -0.837000012397766113
3.53699994087219238 10.2589998245239258 -0.851999998092651367
3.51999998092651367 10.2519998550415039 -0.851999998092651367
3.58699989318847656 10.2939996719360352 -0.92649996280670166
3.55900001525878906 10.3599996566772461 -0.862999975681304932
3.55380892753601074 10.3454656600952148 -0.862152457237243652
3.6020808219909668 10.2962512969970703 -0.814389705657958984
3.52500009536743164 10.319000244140625 -0.936999976634979248
3 238 239 237 255 255 255
3 237 235 238 255 255 255
3 234 235 237 255 255 255
3 234 253 235 255 255 255
3 238 59 239 255 255 255
3 237 252 234 255 255 255
3 234 236 253 255 255 255
3 234 239 236 255 255 255
3 237 235 252 255 255 255
3 238 209 59 255 255 255
3 236 209 253 255 255 255
3 236 239 209 255 255 255
3 234 252 239 255 255 255
3 235 160 252 255 255 255
3 239 59 209 255 255 255
3 160 238 252 255 255 255
3 161 314 162 255 255 255
3 162 50 161 255 255 255
3 314 266 162 255 255 255
3 161 152 314 255 255 255
3 265 152 161 255 255 255
3 161 50 265 255 255 255
3 266 17 162 255 255 255
3 314 74 266 255 255 255
3 162 30 50 255 255 255
3 266 233 17 255 255 255
3 314 111 74 255 255 255
3 233 110 17 255 255 255
3 162 111 30 255 255 255
3 110 112 17 255 255 255
3 111 17 30 255 255 255
3 162 265 111 255 255 255
3 112 30 17 255 255 255
3 110 264 112 255 255 255
3 29 50 30 255 255 255
3 30 109 29 255 255 255
3 264 193 112 255 255 255
3 110 315 264 255 255 255
3 29 35 50 255 255 255
3 109 316 29 255 255 255
3 30 112 109 255 255 255
3 112 193 109 255 255 255
3 193 204 109 255 255 255
3 264 317 193 255 255 255
3 315 250 264 255 255 255
3 110 243 315 255 255 255
3 29 144 35 255 255 255
3 316 283 29 255 255 255
3 109 318 316 255 255 255
3 193 142 204 255 255 255
3 317 319 193 255 255 255
3 315 320 250 255 255 255
3 110 143 243 255 255 255
3 29 145 144 255 255 255
3 316 26 283 255 255 255
3 318 142 316 255 255 255
3 109 264 318 255 255 255
3 193 106 142 255 255 255
3 319 108 193 255 255 255
3 317 107 319 255 255 255
3 320 107 250 255 255 255
3 315 27 320 255 255 255
3 143 316 243 255 255 255
3 110 233 143 255 255 255
3 233 266 143 255 255 255
3 266 192 143 255 255 255
3 144 192 35 255 255 255
3 145 283 144 255 255 255
3 29 263 145 255 255 255
3 26 215 283 255 255 255
3 109 17 264 255 255 255
3 106 26 142 255 255 255
3 193 108 106 255 255 255
3 319 28 108 255 255 255
3 107 24 319 255 255 255
3 107 317 250 255 255 255
3 320 151 107 255 255 255
3 27 151 320 255 255 255
3 315 243 27 255 255 255
3 316 204 243 255 255 255
3 143 192 316 255 255 255
3 192 144 316 255 255 255
3 192 152 35 255 255 255
3 263 103 145 255 255 255
3 29 104 263 255 255 255
3 106 215 26 255 255 255
3 106 108 215 255 255 255
3 108 105 215 255 255 255
3 28 23 108 255 255 255
3 319 262 28 255 255 255
3 107 25 24 255 255 255
3 317 318 250 255 255 255
3 151 82 107 255 255 255
3 151 83 82 255 255 255
3 266 74 192 255 255 255
3 152 74 35 255 255 255
3 103 26 145 255 255 255
3 263 215 103 255 255 255
3 104 84 263 255 255 255
3 29 162 104 255 255 255
3 105 93 215 255 255 255
3 108 23 105 255 255 255
3 23 89 105 255 255 255
3 262 85 28 255 255 255
3 319 86 262 255 255 255
3 24 86 319 255 255 255
3 24 94 86 255 255 255
3 24 25 94 255 255 255
3 25 169 94 255 255 255
3 318 243 250 255 255 255
3 317 87 318 255 255 255
3 82 25 107 255 255 255
3 83 88 82 255 255 255
3 152 192 74 255 255 255
3 263 84 215 255 255 255
3 84 98 215 255 255 255
3 23 90 89 255 255 255
3 28 289 23 255 255 255
3 85 289 28 255 255 255
3 85 230 289 255 255 255
3 262 146 85 255 255 255
3 86 94 262 255 255 255
3 318 84 243 255 255 255
3 87 98 318 255 255 255
3 317 81 87 255 255 255
3 88 169 82 255 255 255
3 83 294 88 255 255 255
3 89 42 105 255 255 255
3 90 165 89 255 255 255
3 23 165 90 255 255 255
3 289 165 23 255 255 255
3 289 230 165 255 255 255
3 85 291 230 255 255 255
3 146 148 85 255 255 255
3 262 147 146 255 255 255
3 169 295 94 255 255 255
3 87 147 98 255 255 255
3 317 20 81 255 255 255
3 294 232 88 255 255 255
3 83 20 294 255 255 255
3 89 210 42 255 255 255
3 165 210 89 255 255 255
3 230 290 165 255 255 255
3 290 63 165 255 255 255
3 230 291 290 255 255 255
3 291 95 290 255 255 255
3 85 148 291 255 255 255
3 146 311 148 255 255 255
3 147 311 146 255 255 255
3 262 81 147 255 255 255
3 295 297 94 255 255 255
3 147 93 98 255 255 255
3 317 115 20 255 255 255
3 88 295 169 255 255 255
3 88 296 295 255 255 255
3 232 296 88 255 255 255
3 232 149 296 255 255 255
3 294 130 232 255 255 255
3 83 39 20 255 255 255
3 290 313 63 255 255 255
3 291 40 95 255 255 255
3 148 166 291 255 255 255
3 311 231 148 255 255 255
3 81 294 147 255 255 255
3 297 232 94 255 255 255
3 296 298 295 255 255 255
3 149 298 296 255 255 255
3 294 311 130 255 255 255
3 83 151 39 255 255 255
3 151 27 39 255 255 255
3 27 163 39 255 255 255
3 313 95 63 255 255 255
3 291 150 40 255 255 255
3 291 166 150 255 255 255
3 166 167 150 255 255 255
3 148 292 166 255 255 255
3 231 292 148 255 255 255
3 311 205 231 255 255 255
3 294 11 147 255 255 255
3 295 312 297 255 255 255
3 298 293 295 255 255 255
3 149 125 298 255 255 255
3 163 115 39 255 255 255
3 27 250 163 255 255 255
3 313 186 95 255 255 255
3 150 168 40 255 255 255
3 167 267 150 255 255 255
3 292 31 166 255 255 255
3 312 150 297 255 255 255
3 150 130 297 255 255 255
3 293 304 295 255 255 255
3 298 164 293 255 255 255
3 164 124 293 255 255 255
3 149 194 125 255 255 255
3 313 268 186 255 255 255
3 168 195 40 255 255 255
3 150 312 168 255 255 255
3 312 269 168 255 255 255
3 267 168 150 255 255 255
3 167 218 267 255 255 255
3 31 125 166 255 255 255
3 292 32 31 255 255 255
3 295 304 312 255 255 255
3 293 124 304 255 255 255
3 124 71 304 255 255 255
3 164 196 124 255 255 255
3 298 267 164 255 255 255
3 125 167 298 255 255 255
3 194 166 125 255 255 255
3 268 292 186 255 255 255
3 195 268 40 255 255 255
3 269 304 168 255 255 255
3 267 270 168 255 255 255
3 32 197 31 255 255 255
3 71 202 304 255 255 255
3 124 224 71 255 255 255
3 196 2 124 255 255 255
3 164 270 196 255 255 255
3 292 271 186 255 255 255
3 268 4 292 255 255 255
3 195 218 268 255 255 255
3 168 202 195 255 255 255
3 267 124 270 255 255 255
3 167 15 218 255 255 255
3 197 205 31 255 255 255
3 32 11 197 255 255 255
3 71 55 202 255 255 255
3 224 2 71 255 255 255
3 124 198 224 255 255 255
3 270 218 196 255 255 255
3 271 290 186 255 255 255
3 268 15 4 255 255 255
3 268 150 40 255 255 255
3 195 256 218 255 255 255
3 202 55 195 255 255 255
3 55 256 195 255 255 255
3 124 202 270 255 255 255
3 15 268 218 255 255 255
3 32 199 11 255 255 255
3 224 55 2 255 255 255
3 198 200 224 255 255 255
3 124 201 198 255 255 255
3 271 257 290 255 255 255
3 15 65 4 255 255 255
3 256 196 218 255 255 255
3 202 256 270 255 255 255
3 199 262 11 255 255 255
3 32 271 199 255 255 255
3 224 220 55 255 255 255
3 200 220 224 255 255 255
3 198 201 200 255 255 255
3 201 126 200 255 255 255
3 271 32 257 255 255 255
3 4 32 292 255 255 255
3 65 31 4 255 255 255
3 199 165 262 255 255 255
3 200 120 220 255 255 255
3 126 187 200 255 255 255
3 65 231 31 255 255 255
3 199 257 165 255 255 255
3 203 16 220 255 255 255
3 120 12 220 255 255 255
3 200 187 120 255 255 255
3 187 43 120 255 255 255
3 126 96 187 255 255 255
3 201 172 126 255 255 255
3 65 194 231 255 255 255
3 257 210 165 255 255 255
3 220 12 203 255 255 255
3 12 190 203 255 255 255
3 120 177 12 255 255 255
3 96 206 187 255 255 255
3 128 285 126 255 255 255
3 172 128 126 255 255 255
3 172 156 128 255 255 255
3 194 149 231 255 255 255
3 190 13 203 255 255 255
3 12 225 190 255 255 255
3 177 225 12 255 255 255
3 120 33 177 255 255 255
3 43 45 120 255 255 255
3 187 206 43 255 255 255
3 96 121 206 255 255 255
3 285 33 126 255 255 255
3 156 305 128 255 255 255
3 13 153 203 255 255 255
3 190 131 13 255 255 255
3 225 212 190 255 255 255
3 33 285 177 255 255 255
3 120 66 33 255 255 255
3 206 45 43 255 255 255
3 305 285 128 255 255 255
3 201 37 172 255 255 255
3 153 33 203 255 255 255
3 13 220 153 255 255 255
3 131 207 13 255 255 255
3 190 212 131 255 255 255
3 66 96 33 255 255 255
3 206 121 45 255 255 255
3 121 307 45 255 255 255
3 240 307 121 255 255 255
3 172 305 156 255 255 255
3 172 285 305 255 255 255
3 172 118 285 255 255 255
3 37 118 172 255 255 255
3 201 16 37 255 255 255
3 33 91 203 255 255 255
3 220 37 153 255 255 255
3 13 207 220 255 255 255
3 131 170 207 255 255 255
3 96 126 33 255 255 255
3 121 77 240 255 255 255
3 16 153 37 255 255 255
3 91 212 203 255 255 255
3 33 225 91 255 255 255
3 47 123 207 255 255 255
3 207 132 47 255 255 255
3 170 286 207 255 255 255
3 131 174 170 255 255 255
3 121 122 77 255 255 255
3 127 248 121 255 255 255
3 121 321 127 255 255 255
3 285 91 177 255 255 255
3 118 175 285 255 255 255
3 225 219 91 255 255 255
3 47 97 123 255 255 255
3 132 154 47 255 255 255
3 286 132 207 255 255 255
3 286 41 132 255 255 255
3 170 259 286 255 255 255
3 77 308 240 255 255 255
3 122 99 77 255 255 255
3 248 122 121 255 255 255
3 127 308 248 255 255 255
3 121 45 321 255 255 255
3 175 203 285 255 255 255
3 118 153 175 255 255 255
3 97 58 123 255 255 255
3 47 154 97 255 255 255
3 132 247 154 255 255 255
3 41 72 132 255 255 255
3 286 254 41 255 255 255
3 259 154 286 255 255 255
3 170 123 259 255 255 255
3 131 325 174 255 255 255
3 77 155 308 255 255 255
3 99 155 77 255 255 255
3 99 18 155 255 255 255
3 122 245 99 255 255 255
3 248 245 122 255 255 255
3 248 191 245 255 255 255
3 248 155 191 255 255 255
3 45 66 321 255 255 255
3 97 282 58 255 255 255
3 154 41 97 255 255 255
3 132 178 247 255 255 255
3 72 178 132 255 255 255
3 72 157 178 255 255 255
3 259 48 154 255 255 255
3 123 58 259 255 255 255
3 58 48 259 255 255 255
3 58 251 48 255 255 255
3 170 174 123 255 255 255
3 131 34 325 255 255 255
3 127 307 240 255 255 255
3 18 213 155 255 255 255
3 99 245 18 255 255 255
3 191 287 245 255 255 255
3 155 213 191 255 255 255
3 213 244 191 255 255 255
3 321 307 127 255 255 255
3 282 251 58 255 255 255
3 41 48 97 255 255 255
3 178 221 247 255 255 255
3 157 221 178 255 255 255
3 48 254 154 255 255 255
3 34 75 325 255 255 255
3 131 219 34 255 255 255
3 287 133 245 255 255 255
3 287 301 133 255 255 255
3 191 244 287 255 255 255
3 244 288 287 255 255 255
3 213 68 244 255 255 255
3 282 229 251 255 255 255
3 97 48 282 255 255 255
3 48 78 282 255 255 255
3 221 0 247 255 255 255
3 157 0 221 255 255 255
3 72 273 157 255 255 255
3 131 184 219 255 255 255
3 213 18 68 255 255 255
3 245 272 18 255 255 255
3 288 301 287 255 255 255
3 288 244 301 255 255 255
3 244 19 301 255 255 255
3 78 135 282 255 255 255
3 48 251 78 255 255 255
3 0 129 247 255 255 255
3 157 258 0 255 255 255
3 258 310 0 255 255 255
3 157 322 258 255 255 255
3 272 68 18 255 255 255
3 245 133 272 255 255 255
3 133 189 272 255 255 255
3 301 54 133 255 255 255
3 19 61 301 255 255 255
3 244 68 19 255 255 255
3 282 279 229 255 255 255
3 135 279 282 255 255 255
3 135 140 279 255 255 255
3 78 299 135 255 255 255
3 129 251 247 255 255 255
3 0 323 129 255 255 255
3 0 310 323 255 255 255
3 272 54 68 255 255 255
3 133 249 189 255 255 255
3 301 241 54 255 255 255
3 61 241 301 255 255 255
3 61 49 241 255 255 255
3 19 51 61 255 255 255
3 279 278 229 255 255 255
3 299 222 135 255 255 255
3 129 78 251 255 255 255
3 322 208 258 255 255 255
3 54 189 68 255 255 255
3 249 19 189 255 255 255
3 133 241 249 255 255 255
3 241 6 54 255 255 255
3 49 242 241 255 255 255
3 51 49 61 255 255 255
3 19 249 51 255 255 255
3 229 278 299 255 255 255
3 278 216 299 255 255 255
3 279 44 278 255 255 255
3 140 44 279 255 255 255
3 140 117 44 255 255 255
3 222 140 135 255 255 255
3 222 117 140 255 255 255
3 222 216 117 255 255 255
3 258 180 310 255 255 255
3 208 180 258 255 255 255
3 49 14 242 255 255 255
3 51 5 49 255 255 255
3 278 44 216 255 255 255
3 44 117 216 255 255 255
3 310 180 323 255 255 255
3 208 21 180 255 255 255
3 249 6 51 255 255 255
3 14 280 242 255 255 255
3 49 159 14 255 255 255
3 5 60 49 255 255 255
3 51 188 5 255 255 255
3 180 9 323 255 255 255
3 6 242 51 255 255 255
3 280 188 242 255 255 255
3 14 158 280 255 255 255
3 159 7 14 255 255 255
3 60 139 49 255 255 255
3 5 1 60 255 255 255
3 188 134 5 255 255 255
3 280 119 188 255 255 255
3 158 119 280 255 255 255
3 7 158 14 255 255 255
3 159 60 7 255 255 255
3 5 100 1 255 255 255
3 134 100 5 255 255 255
3 134 10 100 255 255 255
3 119 141 188 255 255 255
3 242 188 51 255 255 255
3 158 92 119 255 255 255
3 158 56 92 255 255 255
3 7 136 158 255 255 255
3 60 1 7 255 255 255
3 159 134 60 255 255 255
3 100 64 1 255 255 255
3 134 141 10 255 255 255
3 188 141 134 255 255 255
3 119 56 141 255 255 255
3 273 129 323 255 255 255
3 323 322 273 255 255 255
3 9 223 323 255 255 255
3 92 141 119 255 255 255
3 158 136 56 255 255 255
3 136 10 56 255 255 255
3 1 64 7 255 255 255
3 139 60 7 255 255 255
3 10 64 100 255 255 255
3 56 10 141 255 255 255
3 323 223 322 255 255 255
3 208 223 9 255 255 255
3 141 60 119 255 255 255
3 136 64 10 255 255 255
3 185 137 309 255 255 255
3 137 38 309 255 255 255
3 137 113 38 255 255 255
3 185 62 137 255 255 255
3 185 275 62 255 255 255
3 38 52 309 255 255 255
3 137 62 113 255 255 255
3 52 275 309 255 255 255
3 113 324 38 255 255 255
3 62 227 113 255 255 255
3 62 275 227 255 255 255
3 275 8 227 255 255 255
3 275 185 309 255 255 255
3 113 227 324 255 255 255
3 227 67 324 255 255 255
3 8 67 227 255 255 255
3 275 52 8 255 255 255
3 38 80 52 255 255 255
3 67 211 324 255 255 255
3 67 138 211 255 255 255
3 8 306 67 255 255 255
3 52 306 8 255 255 255
3 80 306 52 255 255 255
3 38 324 80 255 255 255
3 138 226 211 255 255 255
3 306 138 67 255 255 255
3 306 69 138 255 255 255
3 80 69 306 255 255 255
3 80 76 69 255 255 255
3 324 226 80 255 255 255
3 138 46 226 255 255 255
3 69 46 138 255 255 255
3 76 46 69 255 255 255
3 226 76 80 255 255 255
3 226 46 76 255 255 255
3 260 300 36 255 255 255
3 300 73 36 255 255 255
3 260 228 300 255 255 255
3 228 73 300 255 255 255
3 260 57 228 255 255 255
3 73 228 36 255 255 255
3 260 281 57 255 255 255
3 260 303 281 255 255 255
3 79 277 101 255 255 255
3 79 3 277 255 255 255
3 79 102 3 255 255 255
3 176 246 179 255 255 255
3 246 284 179 255 255 255
3 176 183 246 255 255 255
3 246 116 284 255 255 255
3 183 116 246 255 255 255
3 116 181 284 255 255 255
3 171 181 116 255 255 255
3 116 53 171 255 255 255
3 116 214 53 255 255 255
3 183 214 116 255 255 255
3 183 302 214 255 255 255
3 53 276 171 255 255 255
3 214 261 53 255 255 255
3 302 70 214 255 255 255
3 171 114 181 255 255 255
3 276 22 171 255 255 255
3 53 173 276 255 255 255
3 261 255 53 255 255 255
3 214 274 261 255 255 255
3 70 274 214 255 255 255
3 302 176 70 255 255 255
3 183 176 302 255 255 255
3 276 173 22 255 255 255
3 53 255 173 255 255 255
3 255 217 173 255 255 255
3 261 303 255 255 255 255
3 181 261 274 255 255 255
3 181 182 261 255 255 255
3 70 284 274 255 255 255
3 176 179 70 255 255 255
3 274 284 181 255 255 255
3 181 114 182 255 255 255
3 114 173 182 255 255 255
3 173 114 22 255 255 255
3 217 182 173 255 255 255
3 303 217 255 255 255 255
3 182 217 261 255 255 255
3 179 284 70 255 255 255
