ply
format ascii 1.0
element vertex 340
property float x
property float y
property float z
element face 576
property list uchar int vertex_indices
property uchar red
property uchar green
property uchar blue
end_header
2.5374448299407959 -0.613059580326080322 -0.978466212749481201
2.60237908363342285 -0.643408358097076416 -0.805825889110565186
2.63438272476196289 -0.654903650283813477 -0.683080375194549561
2.57899999618530273 -0.638000011444091797 -0.666000008583068848
2.51390194892883301 -0.614542305469512939 -0.628442645072937012
2.66422915458679199 -0.631973505020141602 -0.904050946235656738
2.63783550262451172 -0.592343688011169434 -0.950081110000610352
2.65557956695556641 -0.606007814407348633 -0.902702629566192627
2.6352393627166748 -0.711145758628845215 -0.58429718017578125
2.52697420120239258 -0.637005388736724854 -0.993800699710845947
2.49699997901916504 -0.56800001859664917 -0.555000007152557373
2.64935111999511719 -0.614868402481079102 -0.915528714656829834
2.54934430122375488 -0.676910221576690674 -0.883346796035766602
2.54435086250305176 -0.634091675281524658 -0.899862110614776611
2.55236101150512695 -0.654666602611541748 -0.559403598308563232
2.66184306144714355 -0.622350096702575684 -0.886619269847869873
2.49699997901916504 -0.609000027179718018 -0.656000018119812012
2.52480149269104004 -0.558091580867767334 -0.560898065567016602
2.58525228500366211 -0.717051923274993896 -0.59022897481918335
2.60156869888305664 -0.658754467964172363 -0.67846834659576416
2.57333636283874512 -0.579823434352874756 -0.784565627574920654
2.61541104316711426 -0.585425198078155518 -0.764512121677398682
2.54833364486694336 -0.620842039585113525 -0.669697821140289307
2.55785727500915527 -0.622884750366210938 -0.650657773017883301
2.61736011505126953 -0.580146372318267822 -0.702578604221343994
2.65038084983825684 -0.602587997913360596 -0.80631643533706665
2.62490558624267578 -0.60007476806640625 -0.790082335472106934
2.58104181289672852 -0.591010570526123047 -0.863894104957580566
2.61189889907836914 -0.660674452781677246 -0.718315839767456055
2.5359797477722168 -0.620839178562164307 -0.694781839847564697
2.50889205932617188 -0.598778069019317627 -0.588001012802124023
2.5288081169128418 -0.624825775623321533 -0.877885341644287109
2.61519026756286621 -0.727845609188079834 -0.586120486259460449
2.63899993896484375 -0.625 -0.962999999523162842
2.5969998836517334 -0.58899998664855957 -0.735000014305114746
2.61676907539367676 -0.654242992401123047 -0.559128344058990479
2.56999993324279785 -0.654999971389770508 -0.680999994277954102
2.60709762573242188 -0.599448859691619873 -0.8937264084815979
2.53963398933410645 -0.689072370529174805 -0.92926400899887085
2.52341365814208984 -0.649968624114990234 -0.971504151821136475
2.59872913360595703 -0.700548231601715088 -0.63665539026260376
2.48465347290039062 -0.603197395801544189 -0.525581121444702148
2.55877375602722168 -0.605281829833984375 -0.903210461139678955
2.58441925048828125 -0.688267230987548828 -0.854830324649810791
2.60744118690490723 -0.619175195693969727 -0.54208827018737793
2.6006615161895752 -0.673964798450469971 -0.546478450298309326
2.58500003814697266 -0.625999987125396729 -0.947000026702880859
2.58692812919616699 -0.595534741878509521 -0.522663712501525879
2.60044598579406738 -0.593555450439453125 -0.992396771907806396
2.49900007247924805 -0.606000006198883057 -0.648999989032745361
2.54459238052368164 -0.63486248254776001 -0.713578104972839355
2.62599992752075195 -0.614000022411346436 -0.970000028610229492
2.54478192329406738 -0.579279482364654541 -0.531949639320373535
2.59617877006530762 -0.54208296537399292 -0.735044777393341064
2.5615088939666748 -0.610921680927276611 -0.811284661293029785
2.63869380950927734 -0.605342209339141846 -0.79305797815322876
2.59338736534118652 -0.595637917518615723 -0.738628149032592773
2.5773928165435791 -0.620647251605987549 -0.713164567947387695
2.57825708389282227 -0.585254848003387451 -0.738575160503387451
2.56599998474121094 -0.573000013828277588 -0.744000017642974854
2.60999011993408203 -0.621473908424377441 -0.790559947490692139
2.59592270851135254 -0.557979106903076172 -0.717981994152069092
2.60514736175537109 -0.590737521648406982 -0.684916794300079346
2.49093842506408691 -0.597204208374023438 -0.630517363548278809
2.55500006675720215 -0.640999972820281982 -0.680999994277954102
2.62706136703491211 -0.703303337097167969 -0.64549410343170166
2.55236911773681641 -0.617075860500335693 -0.959985911846160889
2.59511876106262207 -0.665996015071868896 -0.560175418853759766
2.57993841171264648 -0.62142103910446167 -0.637785732746124268
2.66768527030944824 -0.659360349178314209 -0.568902313709259033
2.60323381423950195 -0.650836706161499023 -0.687578141689300537
2.60590052604675293 -0.65910571813583374 -0.898575663566589355
2.5915529727935791 -0.634231984615325928 -0.994183897972106934
2.52415204048156738 -0.633861899375915527 -0.88595890998840332
2.6116020679473877 -0.661785542964935303 -0.63222426176071167
2.57636713981628418 -0.62678295373916626 -0.5972633957862854
2.56204724311828613 -0.684356153011322021 -0.993015468120574951
2.56261825561523438 -0.653526186943054199 -0.706783175468444824
2.5840001106262207 -0.635999977588653564 -0.660000026226043701
2.53262186050415039 -0.594515085220336914 -0.520520865917205811
2.56414222717285156 -0.632087528705596924 -0.610050499439239502
2.56023836135864258 -0.626983344554901123 -0.70286327600479126
2.52528476715087891 -0.642155945301055908 -0.751269280910491943
2.55915975570678711 -0.622740864753723145 -0.782625854015350342
2.55304884910583496 -0.589452087879180908 -0.822969436645507812
2.55195713043212891 -0.6076393723487854 -0.846628487110137939
2.61398053169250488 -0.65982663631439209 -0.748501777648925781
2.65953445434570312 -0.587975442409515381 -0.823884785175323486
2.50549674034118652 -0.608722567558288574 -0.701682925224304199
2.64303088188171387 -0.561808407306671143 -0.708159685134887695
2.59100008010864258 -0.52499997615814209 -0.68900001049041748
2.62901854515075684 -0.564777016639709473 -0.673806428909301758
2.51362848281860352 -0.618686676025390625 -0.667272806167602539
2.55399990081787109 -0.646000027656555176 -0.688000023365020752
2.51712727546691895 -0.670375347137451172 -0.928375422954559326
2.66602540016174316 -0.631992876529693604 -0.916982293128967285
2.59160256385803223 -0.668670475482940674 -0.985903620719909668
2.59299993515014648 -0.523000001907348633 -0.691999971866607666
2.60086250305175781 -0.558428168296813965 -0.77409285306930542
2.64100003242492676 -0.513000011444091797 -0.708000004291534424
2.61371254920959473 -0.598209798336029053 -0.775192022323608398
2.50462698936462402 -0.625473082065582275 -0.731958746910095215
2.59451675415039062 -0.587843239307403564 -0.845279574394226074
2.57756876945495605 -0.614245176315307617 -0.69082409143447876
2.58500003814697266 -0.612999975681304932 -0.666000008583068848
2.54111623764038086 -0.650877535343170166 -0.803838849067687988
2.57804059982299805 -0.65904688835144043 -0.684500038623809814
2.52772116661071777 -0.669540703296661377 -0.852748513221740723
2.6589970588684082 -0.613959431648254395 -0.945072174072265625
2.48836183547973633 -0.593762218952178955 -0.560221552848815918
2.65938496589660645 -0.691500246524810791 -0.562538981437683105
2.48513674736022949 -0.568124592304229736 -0.519026458263397217
2.52600002288818359 -0.629000008106231689 -0.663999974727630615
2.56842851638793945 -0.637640833854675293 -0.572447419166564941
2.59005498886108398 -0.68331223726272583 -0.846072196960449219
2.64100003242492676 -0.560500025749206543 -0.72350001335144043
2.60580658912658691 -0.652470171451568604 -0.861509442329406738
2.5352180004119873 -0.673963963985443115 -0.889573335647583008
2.62678027153015137 -0.676062583923339844 -0.724290430545806885
2.59891581535339355 -0.708161532878875732 -0.668270111083984375
2.55887818336486816 -0.687878191471099854 -0.776615798473358154
2.64499998092651367 -0.638000011444091797 -0.555999994277954102
2.51216864585876465 -0.598799765110015869 -0.579145669937133789
2.61388778686523438 -0.637027442455291748 -0.987897515296936035
2.58681559562683105 -0.637730538845062256 -0.694213747978210449
2.50790929794311523 -0.626326680183410645 -0.700683116912841797
2.62508821487426758 -0.591547846794128418 -0.857541501522064209
2.61860561370849609 -0.651492536067962646 -0.76446300745010376
2.61273908615112305 -0.638664066791534424 -0.77915114164352417
2.58858299255371094 -0.613723933696746826 -0.740073978900909424
2.59200000762939453 -0.619000017642974854 -0.758000016212463379
2.63845205307006836 -0.578511893749237061 -0.835774362087249756
2.62598109245300293 -0.617901742458343506 -0.807111024856567383
2.6491844654083252 -0.634792745113372803 -0.812677383422851562
2.52845001220703125 -0.632613837718963623 -0.685622632503509521
2.57280230522155762 -0.637082457542419434 -0.64510047435760498
2.61061596870422363 -0.588231980800628662 -0.974693775177001953
2.60206055641174316 -0.699937760829925537 -0.755747199058532715
2.52901196479797363 -0.588463783264160156 -0.648193776607513428
2.56731247901916504 -0.615184545516967773 -0.934501349925994873
2.56895112991333008 -0.610786080360412598 -0.582413554191589355
2.54961204528808594 -0.650573909282684326 -0.988731205463409424
2.66078281402587891 -0.639014899730682373 -0.916137039661407471
2.64175820350646973 -0.671727955341339111 -0.546127557754516602
2.63343405723571777 -0.668430984020233154 -0.618433952331542969
2.58299994468688965 -0.633000016212463379 -0.735000014305114746
2.63700008392333984 -0.550999999046325684 -0.722000002861022949
2.63066577911376953 -0.626011073589324951 -0.840313971042633057
2.63299989700317383 -0.52499997615814209 -0.714999973773956299
2.5909571647644043 -0.636228322982788086 -0.628420531749725342
2.61421012878417969 -0.713010013103485107 -0.61982119083404541
2.61591315269470215 -0.629866182804107666 -0.938161134719848633
2.65899991989135742 -0.686999976634979248 -0.580999970436096191
2.51949071884155273 -0.550089001655578613 -0.539895057678222656
2.66700005531311035 -0.68599998950958252 -0.582000017166137695
2.5868525505065918 -0.674985587596893311 -0.7282257080078125
2.60756516456604004 -0.582314193248748779 -0.934456408023834229
2.58740091323852539 -0.696509599685668945 -0.723874509334564209
2.57999992370605469 -0.625 -0.665000021457672119
2.51170611381530762 -0.58553999662399292 -0.614274442195892334
2.55999994277954102 -0.653999984264373779 -0.686999976634979248
2.61594390869140625 -0.666971862316131592 -0.576517820358276367
2.55202722549438477 -0.652704954147338867 -0.5332069993019104
2.59529328346252441 -0.674211561679840088 -0.671977221965789795
2.59776210784912109 -0.679906606674194336 -0.895262002944946289
2.55486583709716797 -0.559921205043792725 -0.753911375999450684
2.61947894096374512 -0.556648135185241699 -0.762814640998840332
2.62498569488525391 -0.547857224941253662 -0.719879269599914551
2.64499998092651367 -0.531000018119812012 -0.69300001859664917
2.58501434326171875 -0.60706937313079834 -0.730606734752655029
2.59818482398986816 -0.582013785839080811 -0.726523756980895996
2.56433343887329102 -0.60011744499206543 -0.779515087604522705
2.64700007438659668 -0.532999992370605469 -0.694999992847442627
2.57999992370605469 -0.583000004291534424 -0.741999983787536621
2.55378580093383789 -0.613321304321289062 -0.763642072677612305
2.6302955150604248 -0.689030051231384277 -0.704435348510742188
2.61350774765014648 -0.641455292701721191 -0.838372230529785156
2.56473875045776367 -0.671235978603363037 -0.821460485458374023
2.53002238273620605 -0.637699246406555176 -0.828991174697875977
2.54524111747741699 -0.659673392772674561 -0.843585550785064697
2.51095342636108398 -0.602964639663696289 -0.608123600482940674
2.56328773498535156 -0.665353119373321533 -0.98552548885345459
2.63248300552368164 -0.619920909404754639 -0.941596865653991699
2.53254079818725586 -0.628938794136047363 -0.53450852632522583
2.50500011444091797 -0.596000015735626221 -0.584999978542327881
2.57500004768371582 -0.606000006198883057 -0.558000028133392334
2.57387924194335938 -0.70018923282623291 -0.998120486736297607
2.6135103702545166 -0.585793375968933105 -0.951372265815734863
2.55222916603088379 -0.621039807796478271 -0.590762674808502197
2.59899997711181641 -0.52499997615814209 -0.68599998950958252
2.68242502212524414 -0.600318729877471924 -0.809836328029632568
2.59394621849060059 -0.574879944324493408 -0.81671375036239624
2.58453798294067383 -0.670737683773040771 -0.797671377658843994
2.55498123168945312 -0.612801671028137207 -0.726468443870544434
2.57157731056213379 -0.602889895439147949 -0.897241950035095215
2.64618158340454102 -0.581423282623291016 -0.853515386581420898
2.51812338829040527 -0.601911246776580811 -0.682346642017364502
2.52792525291442871 -0.59727931022644043 -0.688189983367919922
2.54973506927490234 -0.655954599380493164 -0.768160820007324219
2.65319490432739258 -0.598936200141906738 -0.845714986324310303
2.66643333435058594 -0.619199395179748535 -0.866741180419921875
2.56773161888122559 -0.65355449914932251 -0.740256130695343018
2.60131263732910156 -0.647372841835021973 -0.551871716976165771
2.57200002670288086 -0.68199998140335083 -0.933000028133392334
2.58905839920043945 -0.666944444179534912 -0.60053020715713501
2.58422398567199707 -0.533419311046600342 -0.697734236717224121
2.48919486999511719 -0.577663660049438477 -0.588061809539794922
2.60725069046020508 -0.635493695735931396 -0.864325165748596191
2.61112284660339355 -0.579613447189331055 -0.852509498596191406
2.54746508598327637 -0.593292057514190674 -0.728492200374603271
2.63703417778015137 -0.538595676422119141 -0.689530134201049805
2.5858609676361084 -0.544717907905578613 -0.676717758178710938
2.58540582656860352 -0.57072746753692627 -0.697976827621459961
2.57979011535644531 -0.564760208129882812 -0.743297159671783447
2.61902880668640137 -0.528563439846038818 -0.732658028602600098
2.59338808059692383 -0.569243311882019043 -0.679697155952453613
2.60467267036437988 -0.565329611301422119 -0.703499257564544678
2.59100008010864258 -0.53600001335144043 -0.689999997615814209
2.61339354515075684 -0.522531688213348389 -0.702184677124023438
2.62578463554382324 -0.552727103233337402 -0.709467411041259766
2.6129152774810791 -0.542801976203918457 -0.710321545600891113
2.60599994659423828 -0.529999971389770508 -0.722999989986419678
2.58360409736633301 -0.566291749477386475 -0.709560036659240723
2.60801863670349121 -0.540603697299957275 -0.679738521575927734
2.64763331413269043 -0.54143756628036499 -0.702542364597320557
2.49376678466796875 -0.608681261539459229 -0.609795212745666504
2.63519120216369629 -0.713096082210540771 -0.55373615026473999
2.56752967834472656 -0.551146924495697021 -0.766169428825378418
2.53803062438964844 -0.622509419918060303 -0.57343977689743042
2.50900006294250488 -0.615000009536743164 -0.53200000524520874
2.64229917526245117 -0.606171131134033203 -0.998748838901519775
2.64781332015991211 -0.611126542091369629 -0.955183446407318115
2.5491173267364502 -0.597282290458679199 -0.554588735103607178
2.51472234725952148 -0.578317105770111084 -0.59833294153213501
2.50777482986450195 -0.546703040599822998 -0.55484849214553833
2.46965599060058594 -0.587671399116516113 -0.539724230766296387
2.58435606956481934 -0.654221951961517334 -0.712148487567901611
2.64199995994567871 -0.638000011444091797 -0.913999974727630615
2.5826728343963623 -0.626056790351867676 -0.654122352600097656
2.52345943450927734 -0.672774791717529297 -0.949557185173034668
2.54482412338256836 -0.618618607521057129 -0.937084853649139404
2.56599998474121094 -0.614000022411346436 -0.990000009536743164
2.51412510871887207 -0.6349601149559021 -0.956668198108673096
2.52061367034912109 -0.648085236549377441 -0.771213889122009277
2.60100007057189941 -0.68599998950958252 -0.708999991416931152
2.60112953186035156 -0.709036290645599365 -0.626783192157745361
2.63249516487121582 -0.693908035755157471 -0.618642330169677734
2.58695101737976074 -0.602613508701324463 -0.96332240104675293
2.52363419532775879 -0.628253817558288574 -0.551920950412750244
2.61506414413452148 -0.678264617919921875 -0.607285141944885254
2.59612345695495605 -0.698284626007080078 -0.681901752948760986
2.5857546329498291 -0.692043066024780273 -0.884412527084350586
2.49600005149841309 -0.59299999475479126 -0.584999978542327881
2.63120794296264648 -0.658084213733673096 -0.637348651885986328
2.59721922874450684 -0.521573305130004883 -0.708348453044891357
2.61470437049865723 -0.641650080680847168 -0.89052283763885498
2.6530001163482666 -0.68900001049041748 -0.595000028610229492
2.48245763778686523 -0.582082569599151611 -0.554706156253814697
2.58140301704406738 -0.618071079254150391 -0.96480858325958252
2.63900947570800781 -0.655840635299682617 -0.586233377456665039
2.5901792049407959 -0.634206831455230713 -0.523365259170532227
2.55213618278503418 -0.637022495269775391 -0.70291060209274292
2.61274480819702148 -0.627023577690124512 -0.92902451753616333
2.5614314079284668 -0.623414039611816406 -0.619237065315246582
2.64801788330078125 -0.648927509784698486 -0.562393486499786377
2.62504148483276367 -0.646869063377380371 -0.552093684673309326
2.62932610511779785 -0.649652421474456787 -0.572653293609619141
2.58827733993530273 -0.678553998470306396 -0.682200014591217041
2.49717926979064941 -0.596772253513336182 -0.658628880977630615
2.61561679840087891 -0.618112564086914062 -0.969392001628875732
2.56792974472045898 -0.594232439994812012 -0.748095095157623291
2.61613202095031738 -0.66828078031539917 -0.67291104793548584
2.61586189270019531 -0.675543725490570068 -0.945549428462982178
2.60503721237182617 -0.657198965549468994 -0.878635764122009277
2.58255958557128906 -0.625694811344146729 -0.562158524990081787
2.63114380836486816 -0.510778129100799561 -0.709151148796081543
2.62033462524414062 -0.690427839756011963 -0.751173257827758789
2.53414011001586914 -0.627590417861938477 -0.776349246501922607
2.5692751407623291 -0.577370762825012207 -0.828184425830841064
2.6145775318145752 -0.566025912761688232 -0.796535611152648926
2.51807045936584473 -0.603048622608184814 -0.736211061477661133
2.60293364524841309 -0.610141396522521973 -0.781979858875274658
2.67568778991699219 -0.624459564685821533 -0.848195075988769531
2.61715579032897949 -0.589621961116790771 -0.890270113945007324
2.64281868934631348 -0.652626216411590576 -0.838157057762145996
2.53696322441101074 -0.634166419506072998 -0.671052694320678711
2.58683562278747559 -0.662460684776306152 -0.819707393646240234
2.60500001907348633 -0.686999976634979248 -0.564999997615814209
2.46806764602661133 -0.552673220634460449 -0.540941417217254639
2.58100008964538574 -0.647000014781951904 -0.737999975681304932
2.5540916919708252 -0.683086514472961426 -0.857079207897186279
2.5 -0.623000025749206543 -0.658999979496002197
2.56859087944030762 -0.640884995460510254 -0.62770611047744751
2.49699997901916504 -0.572000026702880859 -0.564999997615814209
2.52857446670532227 -0.679866313934326172 -0.962547183036804199
2.62882876396179199 -0.582881033420562744 -1.00233900547027588
2.55280947685241699 -0.630854606628417969 -1.00341415405273438
2.57100009918212891 -0.60000002384185791 -0.746999979019165039
2.5655982494354248 -0.64492487907409668 -1.00322055816650391
2.6305086612701416 -0.617188692092895508 -1.00051724910736084
2.5840001106262207 -0.620999991893768311 -0.941999971866607666
2.49854278564453125 -0.621437489986419678 -0.557573616504669189
2.60357141494750977 -0.646601200103759766 -0.947704315185546875
2.52123093605041504 -0.598160743713378906 -0.691805601119995117
2.62822103500366211 -0.58376234769821167 -0.910572648048400879
2.63599991798400879 -0.61799997091293335 -0.968999981880187988
2.59420514106750488 -0.680434703826904297 -0.765534758567810059
2.5550849437713623 -0.63370513916015625 -0.517272353172302246
2.52999997138977051 -0.644999980926513672 -0.919000029563903809
2.60119795799255371 -0.662046611309051514 -0.635478734970092773
2.51137900352478027 -0.575419187545776367 -0.5186806321144104
2.64400005340576172 -0.643999993801116943 -0.555999994277954102
2.51399993896484375 -0.610000014305114746 -0.561999976634979248
2.63559055328369141 -0.681723594665527344 -0.663130521774291992
2.61717653274536133 -0.6509818434715271 -0.921486914157867432
2.58416533470153809 -0.676740884780883789 -0.91646122932434082
2.5713200569152832 -0.579161226749420166 -0.529325187206268311
2.51586246490478516 -0.617527484893798828 -0.649655044078826904
2.50137972831726074 -0.607568144798278809 -0.676181137561798096
2.55921792984008789 -0.690547823905944824 -0.969388127326965332
2.61714053153991699 -0.670031070709228516 -0.98335498571395874
2.62920427322387695 -0.701269626617431641 -0.671796202659606934
2.53731060028076172 -0.621344864368438721 -0.804792881011962891
2.59245634078979492 -0.701569318771362305 -0.575281262397766113
2.55227947235107422 -0.671523690223693848 -0.93540877103805542
2.58272266387939453 -0.694444656372070312 -0.599697589874267578
2.48562455177307129 -0.545256376266479492 -0.522910118103027344
2.60599994659423828 -0.615000009536743164 -0.898000001907348633
2.49099993705749512 -0.586000025272369385 -0.603999972343444824
2.53197431564331055 -0.649846732616424561 -0.934902787208557129
2.49997782707214355 -0.600704193115234375 -0.621004879474639893
2.53248476982116699 -0.579917311668395996 -0.563079416751861572
2.48773503303527832 -0.561818838119506836 -0.553875386714935303
2.56879138946533203 -0.645088672637939453 -0.677413582801818848
2.50953578948974609 -0.567057907581329346 -0.591946899890899658
2.58305048942565918 -0.634224474430084229 -0.616189360618591309
2.61449265480041504 -0.65803837776184082 -0.540645182132720947
2.63283896446228027 -0.626803159713745117 -0.819854021072387695
2.56800007820129395 -0.639999985694885254 -0.671999990940093994
2.58599996566772461 -0.633000016212463379 -0.667999982833862305
3 220 218 221 255 255 255
3 218 254 221 255 255 255
3 221 254 220 255 255 255
3 218 220 254 255 255 255
3 219 167 220 255 255 255
3 220 210 219 255 255 255
3 220 61 223 255 255 255
3 219 146 167 255 255 255
3 61 222 223 255 255 255
3 222 217 223 255 255 255
3 220 53 61 255 255 255
3 223 217 189 255 255 255
3 222 212 217 255 255 255
3 224 89 210 255 255 255
3 61 58 222 255 255 255
3 53 213 61 255 255 255
3 210 148 224 255 255 255
3 211 205 212 255 255 255
3 212 215 211 255 255 255
3 61 213 58 255 255 255
3 213 59 58 255 255 255
3 213 165 59 255 255 255
3 53 227 213 255 255 255
3 214 166 53 255 255 255
3 211 217 205 255 255 255
3 212 62 215 255 255 255
3 213 227 165 255 255 255
3 215 223 211 255 255 255
3 212 24 62 255 255 255
3 216 24 212 255 255 255
3 53 220 214 255 255 255
3 219 210 89 255 255 255
3 217 90 205 255 255 255
3 216 170 24 255 255 255
3 212 222 216 255 255 255
3 165 227 59 255 255 255
3 166 227 53 255 255 255
3 166 98 227 255 255 255
3 214 148 167 255 255 255
3 220 275 214 255 255 255
3 89 224 219 255 255 255
3 90 97 205 255 255 255
3 223 189 211 255 255 255
3 215 91 223 255 255 255
3 62 91 215 255 255 255
3 214 167 166 255 255 255
3 214 275 148 255 255 255
3 97 218 205 255 255 255
3 189 90 211 255 255 255
3 98 20 227 255 255 255
3 189 97 90 255 255 255
3 62 24 91 255 255 255
3 166 21 98 255 255 255
3 275 99 148 255 255 255
3 20 171 227 255 255 255
3 21 279 98 255 255 255
3 21 100 279 255 255 255
3 99 168 148 255 255 255
3 20 54 171 255 255 255
3 98 191 20 255 255 255
3 98 279 191 255 255 255
3 100 26 279 255 255 255
3 167 170 166 255 255 255
3 168 172 148 255 255 255
3 169 34 170 255 255 255
3 170 58 169 255 255 255
3 170 216 167 255 255 255
3 171 174 270 255 255 255
3 20 278 54 255 255 255
3 20 191 278 255 255 255
3 100 55 26 255 255 255
3 166 34 21 255 255 255
3 172 224 148 255 255 255
3 275 172 99 255 255 255
3 169 56 34 255 255 255
3 169 193 57 255 255 255
3 173 59 58 255 255 255
3 174 297 270 255 255 255
3 171 277 174 255 255 255
3 54 322 171 255 255 255
3 55 25 26 255 255 255
3 100 60 55 255 255 255
3 167 219 24 255 255 255
3 56 129 21 255 255 255
3 169 129 56 255 255 255
3 57 129 169 255 255 255
3 57 145 129 255 255 255
3 58 297 169 255 255 255
3 59 270 58 255 255 255
3 60 26 55 255 255 255
3 100 281 60 255 255 255
3 24 170 167 255 255 255
3 59 171 270 255 255 255
3 277 280 174 255 255 255
3 278 84 54 255 255 255
3 102 278 191 255 255 255
3 191 208 102 255 255 255
3 279 208 191 255 255 255
3 279 131 208 255 255 255
3 25 132 26 255 255 255
3 26 132 55 255 255 255
3 21 129 100 255 255 255
3 167 115 219 255 255 255
3 280 209 174 255 255 255
3 281 128 60 255 255 255
3 129 128 100 255 255 255
3 130 127 129 255 255 255
3 57 81 103 255 255 255
3 277 171 83 255 255 255
3 171 322 83 255 255 255
3 131 126 208 255 255 255
3 132 25 55 255 255 255
3 132 133 25 255 255 255
3 129 127 128 255 255 255
3 277 82 280 255 255 255
3 278 102 27 255 255 255
3 131 195 126 255 255 255
3 133 190 25 255 255 255
3 100 130 281 255 255 255
3 81 22 103 255 255 255
3 57 193 81 255 255 255
3 82 101 280 255 255 255
3 277 243 82 255 255 255
3 83 322 277 255 255 255
3 84 85 54 255 255 255
3 278 85 84 255 255 255
3 85 278 27 255 255 255
3 208 27 102 255 255 255
3 25 87 131 255 255 255
3 25 190 87 255 255 255
3 124 236 57 255 255 255
3 22 23 103 255 255 255
3 81 29 22 255 255 255
3 81 193 29 255 255 255
3 193 209 29 255 255 255
3 54 178 322 255 255 255
3 54 85 178 255 255 255
3 131 199 195 255 255 255
3 87 199 131 255 255 255
3 128 1 60 255 255 255
3 103 23 104 255 255 255
3 82 125 101 255 255 255
3 85 27 194 255 255 255
3 208 37 27 255 255 255
3 126 283 208 255 255 255
3 87 190 199 255 255 255
3 190 284 282 255 255 255
3 190 133 284 255 255 255
3 127 1 128 255 255 255
3 127 192 1 255 255 255
3 86 276 127 255 255 255
3 124 106 236 255 255 255
3 57 103 124 255 255 255
3 104 339 103 255 255 255
3 23 68 104 255 255 255
3 280 88 209 255 255 255
3 280 125 88 255 255 255
3 101 125 280 255 255 255
3 277 105 243 255 255 255
3 27 37 194 255 255 255
3 208 283 37 255 255 255
3 190 282 199 255 255 255
3 192 286 1 255 255 255
3 127 306 192 255 255 255
3 127 276 306 255 255 255
3 276 137 306 255 255 255
3 124 19 106 255 255 255
3 103 339 124 255 255 255
3 209 303 29 255 255 255
3 88 303 209 255 255 255
3 88 197 303 255 255 255
3 125 82 50 255 255 255
3 105 198 243 255 255 255
3 85 194 31 255 255 255
3 194 42 31 255 255 255
3 282 200 199 255 255 255
3 133 337 284 255 255 255
3 133 132 337 255 255 255
3 132 60 337 255 255 255
3 86 118 276 255 255 255
3 28 118 86 255 255 255
3 106 267 236 255 255 255
3 124 3 19 255 255 255
3 22 317 23 255 255 255
3 29 303 196 255 255 255
3 283 304 37 255 255 255
3 195 7 126 255 255 255
3 199 200 195 255 255 255
3 284 337 147 255 255 255
3 60 1 337 255 255 255
3 306 120 192 255 255 255
3 70 267 19 255 255 255
3 3 78 19 255 255 255
3 23 263 68 255 255 255
3 22 138 317 255 255 255
3 285 92 22 255 255 255
3 196 22 29 255 255 255
3 197 88 196 255 255 255
3 198 82 243 255 255 255
3 105 192 198 255 255 255
3 304 156 37 255 255 255
3 200 282 284 255 255 255
3 284 147 200 255 255 255
3 337 176 147 255 255 255
3 192 177 286 255 255 255
3 28 175 118 255 255 255
3 267 28 236 255 255 255
3 267 70 28 255 255 255
3 68 263 149 255 255 255
3 317 285 23 255 255 255
3 285 112 92 255 255 255
3 22 64 285 255 255 255
3 196 138 22 255 255 255
3 50 134 125 255 255 255
3 50 261 134 255 255 255
3 105 177 192 255 255 255
3 42 13 31 255 255 255
3 156 327 37 255 255 255
3 195 200 7 255 255 255
3 286 176 1 255 255 255
3 137 155 306 255 255 255
3 137 276 157 255 255 255
3 175 244 118 255 255 255
3 28 2 175 255 255 255
3 28 289 236 255 255 255
3 28 145 289 255 255 255
3 70 2 28 255 255 255
3 267 106 19 255 255 255
3 149 238 68 255 255 255
3 263 335 149 255 255 255
3 317 92 285 255 255 255
3 285 134 112 255 255 255
3 64 134 285 255 255 255
3 196 268 138 255 255 255
3 88 318 196 255 255 255
3 125 318 88 255 255 255
3 50 77 261 255 255 255
3 105 178 177 255 255 255
3 13 73 31 255 255 255
3 194 139 42 255 255 255
3 304 7 11 255 255 255
3 15 7 200 255 255 255
3 176 116 147 255 255 255
3 177 114 286 255 255 255
3 137 157 155 255 255 255
3 145 236 289 255 255 255
3 70 271 2 255 255 255
3 70 19 271 255 255 255
3 263 80 335 255 255 255
3 138 4 317 255 255 255
3 134 92 112 255 255 255
3 64 93 134 255 255 255
3 196 318 268 255 255 255
3 318 16 268 255 255 255
3 125 92 318 255 255 255
3 50 201 77 255 255 255
3 198 192 120 255 255 255
3 178 179 177 255 255 255
3 11 6 304 255 255 255
3 116 207 147 255 255 255
3 286 116 176 255 255 255
3 306 201 120 255 255 255
3 175 321 250 255 255 255
3 2 313 175 255 255 255
3 149 135 238 255 255 255
3 80 75 335 255 255 255
3 285 338 23 255 255 255
3 138 159 4 255 255 255
3 134 196 92 255 255 255
3 64 333 93 255 255 255
3 318 291 317 255 255 255
3 77 93 261 255 255 255
3 155 160 77 255 255 255
3 201 155 77 255 255 255
3 120 201 198 255 255 255
3 105 322 178 255 255 255
3 13 117 73 255 255 255
3 139 240 42 255 255 255
3 304 187 156 255 255 255
3 177 290 114 255 255 255
3 244 155 157 255 255 255
3 313 321 175 255 255 255
3 2 271 313 255 255 255
3 271 253 313 255 255 255
3 238 158 104 255 255 255
3 78 339 238 255 255 255
3 238 135 78 255 255 255
3 335 263 75 255 255 255
3 80 140 75 255 255 255
3 263 140 80 255 255 255
3 135 292 23 255 255 255
3 23 338 135 255 255 255
3 338 3 135 255 255 255
3 64 338 285 255 255 255
3 4 291 317 255 255 255
3 318 317 92 255 255 255
3 333 160 93 255 255 255
3 138 63 159 255 255 255
3 16 63 268 255 255 255
3 291 16 317 255 255 255
3 285 92 134 255 255 255
3 304 6 187 255 255 255
3 15 95 7 255 255 255
3 5 95 15 255 255 255
3 43 251 114 255 255 255
3 114 290 43 255 255 255
3 155 201 306 255 255 255
3 250 321 119 255 255 255
3 271 309 253 255 255 255
3 309 74 253 255 255 255
3 271 163 309 255 255 255
3 339 158 238 255 255 255
3 335 292 149 255 255 255
3 292 263 23 255 255 255
3 338 333 3 255 255 255
3 63 49 4 255 255 255
3 138 268 63 255 255 255
3 73 107 31 255 255 255
3 13 308 117 255 255 255
3 13 329 308 255 255 255
3 11 108 6 255 255 255
3 7 95 11 255 255 255
3 5 142 95 255 255 255
3 116 273 207 255 255 255
3 321 65 119 255 255 255
3 321 313 65 255 255 255
3 74 309 149 255 255 255
3 274 113 75 255 255 255
3 75 140 274 255 255 255
3 263 188 140 255 255 255
3 4 330 63 255 255 255
3 4 180 225 255 255 255
3 333 36 160 255 255 255
3 63 330 159 255 255 255
3 107 290 179 255 255 255
3 179 31 107 255 255 255
3 31 179 178 255 255 255
3 117 12 73 255 255 255
3 240 139 66 255 255 255
3 136 247 187 255 255 255
3 5 237 142 255 255 255
3 273 255 207 255 255 255
3 65 40 119 255 255 255
3 313 246 65 255 255 255
3 253 246 313 255 255 255
3 135 149 292 255 255 255
3 335 80 292 255 255 255
3 225 330 4 255 255 255
3 4 159 180 255 255 255
3 159 30 180 255 255 255
3 30 225 180 255 255 255
3 333 19 36 255 255 255
3 333 338 124 255 255 255
3 330 180 159 255 255 255
3 225 328 63 255 255 255
3 107 12 290 255 255 255
3 300 247 139 255 255 255
3 136 48 247 255 255 255
3 237 95 142 255 255 255
3 237 5 95 255 255 255
3 273 71 255 255 255 255
3 116 114 273 255 255 255
3 114 251 273 255 255 255
3 251 164 273 255 255 255
3 43 12 251 255 255 255
3 253 144 246 255 255 255
3 74 144 253 255 255 255
3 163 40 309 255 255 255
3 330 225 63 255 255 255
3 159 233 30 255 255 255
3 338 158 124 255 255 255
3 159 334 233 255 255 255
3 159 328 334 255 255 255
3 180 233 159 255 255 255
3 330 225 180 255 255 255
3 12 43 290 255 255 255
3 329 94 308 255 255 255
3 300 187 247 255 255 255
3 150 245 65 255 255 255
3 65 246 150 255 255 255
3 74 249 144 255 255 255
3 163 119 40 255 255 255
3 122 30 233 255 255 255
3 233 334 122 255 255 255
3 328 206 334 255 255 255
3 180 30 233 255 255 255
3 117 38 12 255 255 255
3 117 94 38 255 255 255
3 48 258 247 255 255 255
3 108 231 6 255 255 255
3 30 252 225 255 255 255
3 122 184 30 255 255 255
3 334 331 122 255 255 255
3 329 239 94 255 255 255
3 66 242 240 255 255 255
3 242 329 240 255 255 255
3 48 241 258 255 255 255
3 6 230 136 255 255 255
3 230 295 136 255 255 255
3 231 230 6 255 255 255
3 12 38 251 255 255 255
3 245 40 65 255 255 255
3 246 8 150 255 255 255
3 144 256 246 255 255 255
3 144 161 259 255 255 255
3 249 161 144 255 255 255
3 274 202 113 255 255 255
3 274 44 202 255 255 255
3 140 185 274 255 255 255
3 122 252 184 255 255 255
3 94 239 38 255 255 255
3 71 314 255 255 255 255
3 251 315 164 255 255 255
3 161 266 259 255 255 255
3 249 204 161 255 255 255
3 67 14 113 255 255 255
3 202 67 113 255 255 255
3 140 188 228 255 255 255
3 122 109 252 255 255 255
3 334 17 331 255 255 255
3 66 0 242 255 255 255
3 295 48 136 255 255 255
3 187 6 136 255 255 255
3 230 305 299 255 255 255
3 231 51 305 255 255 255
3 150 18 245 255 255 255
3 8 32 150 255 255 255
3 245 325 40 255 255 255
3 122 301 109 255 255 255
3 232 312 331 255 255 255
3 17 52 331 255 255 255
3 38 319 324 255 255 255
3 239 294 38 255 255 255
3 242 239 329 255 255 255
3 242 9 39 255 255 255
3 0 9 242 255 255 255
3 66 296 0 255 255 255
3 258 46 247 255 255 255
3 305 123 299 255 255 255
3 51 33 305 255 255 255
3 314 262 255 255 255 255
3 164 315 71 255 255 255
3 315 314 71 255 255 255
3 203 272 315 255 255 255
3 161 35 266 255 255 255
3 161 67 35 255 255 255
3 204 287 161 255 255 255
3 249 325 204 255 255 255
3 245 18 325 255 255 255
3 67 287 45 255 255 255
3 202 35 67 255 255 255
3 202 44 35 255 255 255
3 44 265 35 255 255 255
3 109 206 252 255 255 255
3 232 248 312 255 255 255
3 331 52 232 255 255 255
3 17 153 52 255 255 255
3 234 153 17 255 255 255
3 241 296 66 255 255 255
3 258 139 46 255 255 255
3 305 33 123 255 255 255
3 315 272 314 255 255 255
3 150 32 18 255 255 255
3 8 226 32 255 255 255
3 204 325 287 255 255 255
3 14 228 113 255 255 255
3 67 45 162 255 255 255
3 265 121 35 255 255 255
3 188 113 228 255 255 255
3 122 312 301 255 255 255
3 248 301 312 255 255 255
3 232 228 248 255 255 255
3 17 332 234 255 255 255
3 38 294 319 255 255 255
3 294 39 319 255 255 255
3 39 294 242 255 255 255
3 296 9 0 255 255 255
3 241 298 296 255 255 255
3 314 151 262 255 255 255
3 259 264 69 255 255 255
3 259 266 264 255 255 255
3 266 121 264 255 255 255
3 35 311 266 255 255 255
3 325 323 287 255 255 255
3 14 248 228 255 255 255
3 67 162 14 255 255 255
3 45 260 162 255 255 255
3 260 336 44 255 255 255
3 52 316 232 255 255 255
3 39 181 319 255 255 255
3 141 181 39 255 255 255
3 39 9 141 255 255 255
3 296 141 9 255 255 255
3 296 298 141 255 255 255
3 151 182 262 255 255 255
3 32 323 18 255 255 255
3 110 226 8 255 255 255
3 256 152 8 255 255 255
3 325 18 323 255 255 255
3 162 248 14 255 255 255
3 162 183 248 255 255 255
3 287 226 45 255 255 255
3 336 265 44 255 255 255
3 44 47 260 255 255 255
3 44 316 47 255 255 255
3 109 257 206 255 255 255
3 301 235 109 255 255 255
3 310 52 153 255 255 255
3 153 111 310 255 255 255
3 181 76 319 255 255 255
3 141 298 181 255 255 255
3 295 230 299 255 255 255
3 269 302 123 255 255 255
3 182 11 262 255 255 255
3 272 320 302 255 255 255
3 32 226 323 255 255 255
3 8 152 110 255 255 255
3 256 154 152 255 255 255
3 69 152 259 255 255 255
3 183 229 248 255 255 255
3 153 326 111 255 255 255
3 234 326 153 255 255 255
3 76 186 319 255 255 255
3 181 298 76 255 255 255
3 72 76 298 255 255 255
3 123 72 299 255 255 255
3 123 302 320 255 255 255
3 269 151 302 255 255 255
3 123 51 269 255 255 255
3 182 108 11 255 255 255
3 182 33 108 255 255 255
3 272 319 320 255 255 255
3 162 307 183 255 255 255
3 45 143 336 255 255 255
3 226 143 45 255 255 255
3 47 316 260 255 255 255
3 316 185 232 255 255 255
3 257 293 206 255 255 255
3 310 79 52 255 255 255
3 123 320 72 255 255 255
3 269 182 151 255 255 255
3 11 327 262 255 255 255
3 302 314 272 255 255 255
3 319 186 320 255 255 255
3 69 143 110 255 255 255
3 69 110 154 255 255 255
3 162 260 307 255 255 255
3 336 143 265 255 255 255
3 257 332 293 255 255 255
3 41 235 301 255 255 255
3 301 229 41 255 255 255
3 326 234 288 255 255 255
3 234 332 288 255 255 255
3 76 96 186 255 255 255
3 320 96 72 255 255 255
3 320 186 96 255 255 255
3 110 143 226 255 255 255
3 307 79 183 255 255 255
3 260 316 307 255 255 255
3 293 334 206 255 255 255
3 109 235 257 255 255 255
3 79 307 316 255 255 255
3 79 316 52 255 255 255
3 288 111 326 255 255 255
3 203 324 319 255 255 255
3 76 72 96 255 255 255
3 69 264 143 255 255 255
3 264 311 143 255 255 255
3 332 10 293 255 255 255
3 235 288 257 255 255 255
3 41 79 310 255 255 255
3 332 10 257 255 255 255
3 311 265 143 255 255 255
3 111 41 310 255 255 255
3 111 235 41 255 255 255
3 288 235 111 255 255 255
