ply
format ascii 1.0
element vertex 312
property float x
property float y
property float z
element face 576
property list uchar int vertex_indices
property uchar red
property uchar green
property uchar blue
end_header
8.22900009155273438 -0.732999980449676514 -0.78200000524520874
8.23476409912109375 -0.654814004898071289 -0.885159015655517578
8.24804973602294922 -0.726095378398895264 -0.664227902889251709
8.25651931762695312 -0.633038341999053955 -0.874182760715484619
8.22500038146972656 -0.730000019073486328 -0.800000011920928955
8.23866367340087891 -0.72223973274230957 -0.678355276584625244
8.23542022705078125 -0.698542296886444092 -0.775046408176422119
8.28899955749511719 -0.671999990940093994 -0.870000004768371582
8.24649620056152344 -0.681639134883880615 -0.8812408447265625
8.25194072723388672 -0.637897849082946777 -0.86373978853225708
8.24033069610595703 -0.639619231224060059 -0.845965743064880371
8.27700042724609375 -0.699999988079071045 -0.870999991893768311
8.21109771728515625 -0.726958692073822021 -0.662006020545959473
8.22949981689453125 -0.698000013828277588 -0.631000041961669922
8.21189403533935547 -0.704190373420715332 -0.646893918514251709
8.22578620910644531 -0.652243673801422119 -0.871153771877288818
8.23451328277587891 -0.726417958736419678 -0.640860617160797119
8.23116970062255859 -0.739419341087341309 -0.637939691543579102
8.24101734161376953 -0.646711051464080811 -0.837664604187011719
8.25282001495361328 -0.720389068126678467 -0.683053970336914062
8.25300025939941406 -0.709999978542327881 -0.805999994277954102
8.27063655853271484 -0.692705929279327393 -0.86466747522354126
8.26049995422363281 -0.725499987602233887 -0.67649996280670166
8.21086692810058594 -0.644656479358673096 -0.861800670623779297
8.27299976348876953 -0.753000020980834961 -0.874000012874603271
8.27999973297119141 -0.764999985694885254 -0.819999992847442627
8.27996253967285156 -0.679802596569061279 -0.885955631732940674
8.23596572875976562 -0.73981243371963501 -0.825261175632476807
8.25324916839599609 -0.734922945499420166 -0.865016043186187744
8.29305458068847656 -0.682916700839996338 -0.870994269847869873
8.24149990081787109 -0.725499987602233887 -0.819499969482421875
8.28922080993652344 -0.729001462459564209 -0.853357255458831787
8.30258750915527344 -0.758428514003753662 -0.844421267509460449
8.27661418914794922 -0.733269035816192627 -0.842260062694549561
8.25599956512451172 -0.722999989986419678 -0.800000011920928955
8.26740074157714844 -0.667642891407012939 -0.864834606647491455
8.22506046295166016 -0.735142946243286133 -0.748110473155975342
8.24112987518310547 -0.752673685550689697 -0.689148068428039551
8.22989177703857422 -0.73903423547744751 -0.687005579471588135
8.2619476318359375 -0.735629737377166748 -0.688712775707244873
8.22099971771240234 -0.731000006198883057 -0.75
8.24499988555908203 -0.66100001335144043 -0.847000002861022949
8.31397533416748047 -0.670953452587127686 -0.858435451984405518
8.24367237091064453 -0.671048939228057861 -0.878353297710418701
8.23950004577636719 -0.728500008583068848 -0.743000030517578125
8.20700645446777344 -0.703013241291046143 -0.632377803325653076
8.24448394775390625 -0.705034196376800537 -0.638444960117340088
8.231781005859375 -0.711465179920196533 -0.84415203332901001
8.32094955444335938 -0.760021984577178955 -0.864895880222320557
8.22515964508056641 -0.715013802051544189 -0.7891654372215271
8.22399997711181641 -0.699999988079071045 -0.648000001907348633
8.21949958801269531 -0.642500042915344238 -0.855499982833862305
8.22590351104736328 -0.721107661724090576 -0.684967994689941406
8.30927848815917969 -0.679095685482025146 -0.861772537231445312
8.23596763610839844 -0.747865736484527588 -0.672932744026184082
8.28199958801269531 -0.662999987602233887 -0.879999995231628418
8.22501945495605469 -0.683881282806396484 -0.849048137664794922
8.22700023651123047 -0.727999985218048096 -0.759999990463256836
8.28249931335449219 -0.761999964714050293 -0.828999996185302734
8.32576179504394531 -0.666089832782745361 -0.871841132640838623
8.22898578643798828 -0.736729800701141357 -0.754313945770263672
8.24443149566650391 -0.707100331783294678 -0.632851779460906982
8.28199958801269531 -0.767000019550323486 -0.816999971866607666
8.28899955749511719 -0.699000000953674316 -0.851000010967254639
8.29599952697753906 -0.711000025272369385 -0.853999972343444824
8.24600028991699219 -0.721000015735626221 -0.833999991416931152
8.27563285827636719 -0.708700478076934814 -0.884668469429016113
8.2737579345703125 -0.682629823684692383 -0.889875352382659912
8.27900028228759766 -0.675999999046325684 -0.862999975681304932
8.27462863922119141 -0.74439537525177002 -0.882782995700836182
8.26390266418457031 -0.732466399669647217 -0.882703781127929688
8.28799819946289062 -0.770221114158630371 -0.811349451541900635
8.24784278869628906 -0.714883089065551758 -0.833900153636932373
8.27364063262939453 -0.753658115863800049 -0.859737515449523926
8.32499980926513672 -0.680000007152557373 -0.865999996662139893
8.23599815368652344 -0.739005625247955322 -0.697991907596588135
8.22997188568115234 -0.723973751068115234 -0.667845189571380615
8.21546077728271484 -0.731878042221069336 -0.833333849906921387
8.27095699310302734 -0.726470291614532471 -0.670496642589569092
8.25360298156738281 -0.720709383487701416 -0.784724056720733643
8.22051334381103516 -0.726250052452087402 -0.828079819679260254
8.23720169067382812 -0.747681319713592529 -0.75110018253326416
8.27099990844726562 -0.66100001335144043 -0.870000004768371582
8.24783229827880859 -0.707944929599761963 -0.787733733654022217
8.22478485107421875 -0.722145438194274902 -0.755125522613525391
8.24544143676757812 -0.736406385898590088 -0.691987693309783936
8.32400035858154297 -0.75700002908706665 -0.870000004768371582
8.22015094757080078 -0.730926156044006348 -0.691197037696838379
8.22649955749511719 -0.736500024795532227 -0.667999982833862305
8.22484302520751953 -0.716619491577148438 -0.705245018005371094
8.22920131683349609 -0.645529329776763916 -0.871268272399902344
8.26099967956542969 -0.763000011444091797 -0.81099998950958252
8.23550033569335938 -0.730000019073486328 -0.808499991893768311
8.21790122985839844 -0.749788522720336914 -0.818234443664550781
8.21800041198730469 -0.703000009059906006 -0.647000014781951904
8.23499965667724609 -0.731999993324279785 -0.634000003337860107
8.22900009155273438 -0.75 -0.68199998140335083
8.22794532775878906 -0.737013339996337891 -0.650937914848327637
8.22974967956542969 -0.718999981880187988 -0.630499958992004395
8.2220001220703125 -0.705999970436096191 -0.85000002384185791
8.20300006866455078 -0.720000028610229492 -0.629000008106231689
8.28733158111572266 -0.662615537643432617 -0.876762270927429199
8.24699974060058594 -0.676999986171722412 -0.856000006198883057
8.22770595550537109 -0.730078756809234619 -0.84066474437713623
8.23900032043457031 -0.683000028133392334 -0.871999979019165039
8.23800182342529297 -0.722056686878204346 -0.755957722663879395
8.20866584777832031 -0.729285657405853271 -0.635017633438110352
8.22999954223632812 -0.722000002861022949 -0.837000012397766113
8.22099971771240234 -0.739000022411346436 -0.677999973297119141
8.23236465454101562 -0.699554443359375 -0.785146951675415039
8.24825382232666016 -0.737610280513763428 -0.667019188404083252
8.22500038146972656 -0.72500002384185791 -0.816999971866607666
8.25434398651123047 -0.716771125793457031 -0.674117624759674072
8.28219509124755859 -0.763929486274719238 -0.807783722877502441
8.29300022125244141 -0.777999997138977051 -0.799000024795532227
8.23444461822509766 -0.711865365505218506 -0.829804539680480957
8.21205615997314453 -0.655015766620635986 -0.866131067276000977
8.23099994659423828 -0.698000013828277588 -0.638000011444091797
8.22799968719482422 -0.714999973773956299 -0.674000024795532227
8.32156753540039062 -0.676460206508636475 -0.87441021203994751
8.21900558471679688 -0.710532128810882568 -0.653988420963287354
8.29199981689453125 -0.75700002908706665 -0.861999988555908203
8.29049968719482422 -0.782500028610229492 -0.800999999046325684
8.25565910339355469 -0.666592717170715332 -0.861332237720489502
8.22299957275390625 -0.717000007629394531 -0.823000013828277588
8.22322368621826172 -0.72110062837600708 -0.743456006050109863
8.31043434143066406 -0.663212835788726807 -0.880665600299835205
8.24253463745117188 -0.653357565402984619 -0.850056469440460205
8.27999973297119141 -0.753000020980834961 -0.815999984741210938
8.25016307830810547 -0.704014897346496582 -0.843044161796569824
8.28899955749511719 -0.767000019550323486 -0.800000011920928955
8.24532985687255859 -0.726119458675384521 -0.866621434688568115
8.26200008392333984 -0.689999997615814209 -0.851000010967254639
8.28199958801269531 -0.753000020980834961 -0.855000019073486328
8.25048351287841797 -0.730749368667602539 -0.837342262268066406
8.22899913787841797 -0.746962308883666992 -0.828905344009399414
8.29300022125244141 -0.77649998664855957 -0.800500035285949707
8.23900032043457031 -0.732999980449676514 -0.795000016689300537
8.31006240844726562 -0.664886176586151123 -0.872047662734985352
8.21000003814697266 -0.735000014305114746 -0.781000018119812012
8.21700000762939453 -0.724132001399993896 -0.684149265289306641
8.22299957275390625 -0.704999983310699463 -0.651000022888183594
8.25288486480712891 -0.728954136371612549 -0.692966759204864502
8.27600002288818359 -0.764999985694885254 -0.814999997615814209
8.23400020599365234 -0.671000003814697266 -0.85000002384185791
8.26299953460693359 -0.718999981880187988 -0.887000024318695068
8.27744865417480469 -0.740947484970092773 -0.886085629463195801
8.28499984741210938 -0.745499968528747559 -0.879500031471252441
8.2622222900390625 -0.756559848785400391 -0.82210087776184082
8.26700019836425781 -0.745999991893768311 -0.856000006198883057
8.28357028961181641 -0.720734179019927979 -0.874006927013397217
8.2910003662109375 -0.735499978065490723 -0.880499958992004395
8.30473709106445312 -0.745382130146026611 -0.873123645782470703
8.28399658203125 -0.758014202117919922 -0.822000682353973389
8.26599979400634766 -0.721000015735626221 -0.847000002861022949
8.24148845672607422 -0.72048342227935791 -0.784787476062774658
8.24192714691162109 -0.637771666049957275 -0.869163751602172852
8.20100021362304688 -0.71799999475479126 -0.639500021934509277
8.29650592803955078 -0.756195485591888428 -0.859855234622955322
8.31700038909912109 -0.755999982357025146 -0.86799997091293335
8.20501708984375 -0.716241598129272461 -0.654821515083312988
8.19801807403564453 -0.719000518321990967 -0.778020918369293213
8.252166748046875 -0.648214161396026611 -0.889174461364746094
8.21500492095947266 -0.741936028003692627 -0.823969185352325439
8.19325447082519531 -0.726453542709350586 -0.78124314546585083
8.22500038146972656 -0.741999983787536621 -0.680000007152557373
8.23699951171875 -0.709500014781951904 -0.649000048637390137
8.2324371337890625 -0.682687520980834961 -0.841812491416931152
8.26099967956542969 -0.644999980926513672 -0.876999974250793457
8.22603321075439453 -0.63403552770614624 -0.845028936862945557
8.21100044250488281 -0.71799999475479126 -0.787999987602233887
8.23700046539306641 -0.748000025749206543 -0.669000029563903809
8.25800037384033203 -0.671999990940093994 -0.859000027179718018
8.23925304412841797 -0.719442307949066162 -0.651777923107147217
8.30949974060058594 -0.759999990463256836 -0.854499995708465576
8.28787422180175781 -0.712548911571502686 -0.848023295402526855
8.28499984741210938 -0.704999983310699463 -0.847999989986419678
8.26891613006591797 -0.712266862392425537 -0.849733352661132812
8.28006744384765625 -0.752981901168823242 -0.834053397178649902
8.319000244140625 -0.750999987125396729 -0.866999983787536621
8.28699970245361328 -0.708000004291534424 -0.856999993324279785
8.28699970245361328 -0.688000023365020752 -0.879999995231628418
8.24699974060058594 -0.723999977111816406 -0.856000006198883057
8.25517082214355469 -0.724368870258331299 -0.885289967060089111
8.26265716552734375 -0.645246565341949463 -0.853551626205444336
8.24800014495849609 -0.71799999475479126 -0.647000014781951904
8.26718616485595703 -0.736459434032440186 -0.676101922988891602
8.30408000946044922 -0.674912452697753906 -0.861911177635192871
8.23400020599365234 -0.72500002384185791 -0.848999977111816406
8.2313690185546875 -0.711822628974914551 -0.770611584186553955
8.22700023651123047 -0.666000008583068848 -0.853999972343444824
8.23900032043457031 -0.663999974727630615 -0.853999972343444824
8.20677852630615234 -0.721543312072753906 -0.792076528072357178
8.24153709411621094 -0.726092100143432617 -0.671970069408416748
8.27900028228759766 -0.703000009059906006 -0.855000019073486328
8.22506809234619141 -0.711975574493408203 -0.812081813812255859
8.24199390411376953 -0.733999311923980713 -0.756966173648834229
8.23458480834960938 -0.629964590072631836 -0.858973860740661621
8.25 -0.744000017642974854 -0.841000020503997803
8.21949958801269531 -0.716500043869018555 -0.673500001430511475
8.21976947784423828 -0.716189265251159668 -0.771258294582366943
8.22000026702880859 -0.698000013828277588 -0.643000006675720215
8.21399974822998047 -0.720000028610229492 -0.796000003814697266
8.23861026763916016 -0.670085549354553223 -0.869442164897918701
8.25800037384033203 -0.711000025272369385 -0.680999994277954102
8.219482421875 -0.700428307056427002 -0.634045124053955078
8.24171543121337891 -0.735302925109863281 -0.834718048572540283
8.28413867950439453 -0.76444166898727417 -0.83395993709564209
8.24418449401855469 -0.737698078155517578 -0.843183815479278564
8.26299953460693359 -0.727999985218048096 -0.848999977111816406
8.26200008392333984 -0.69300001859664917 -0.853999972343444824
8.27365207672119141 -0.701323628425598145 -0.884886682033538818
8.25698375701904297 -0.758515536785125732 -0.809122920036315918
8.25300025939941406 -0.731000006198883057 -0.842000007629394531
8.27264976501464844 -0.737604260444641113 -0.850940167903900146
8.24400043487548828 -0.727999985218048096 -0.799000024795532227
8.25603675842285156 -0.696573078632354736 -0.881350398063659668
8.30200004577636719 -0.674000024795532227 -0.870999991893768311
8.21905994415283203 -0.725777268409729004 -0.794379830360412598
8.22299957275390625 -0.72500002384185791 -0.808000028133392334
8.23319339752197266 -0.639795899391174316 -0.837680280208587646
8.22999954223632812 -0.745000004768371582 -0.670000016689300537
8.27000045776367188 -0.679000020027160645 -0.855000019073486328
8.23900032043457031 -0.694000005722045898 -0.873000025749206543
8.32338237762451172 -0.671844065189361572 -0.886728227138519287
8.24998855590820312 -0.712014079093933105 -0.798148393630981445
8.24004650115966797 -0.711350739002227783 -0.864942669868469238
8.21745872497558594 -0.658204793930053711 -0.861555516719818115
8.25699996948242188 -0.739000022411346436 -0.671000003814697266
8.25698566436767578 -0.657284379005432129 -0.880086779594421387
8.22789478302001953 -0.709258675575256348 -0.855292558670043945
8.22482395172119141 -0.733585953712463379 -0.626056909561157227
8.28743743896484375 -0.767562508583068848 -0.823687493801116943
8.27400016784667969 -0.75700002908706665 -0.801999986171722412
8.26832771301269531 -0.763922810554504395 -0.800475120544433594
8.25176048278808594 -0.691766619682312012 -0.844736754894256592
8.24400043487548828 -0.720000028610229492 -0.80699998140335083
8.28199958801269531 -0.764999985694885254 -0.859000027179718018
8.23928928375244141 -0.72153085470199585 -0.856958627700805664
8.28499984741210938 -0.766999900341033936 -0.800000011920928955
8.27200031280517578 -0.720000028610229492 -0.888000011444091797
8.2574615478515625 -0.698827385902404785 -0.888146758079528809
8.22035598754882812 -0.716880977153778076 -0.630108535289764404
8.20844650268554688 -0.734406113624572754 -0.643922746181488037
8.24899959564208984 -0.751999974250793457 -0.677999973297119141
8.31400012969970703 -0.754999995231628418 -0.851000010967254639
8.30000019073486328 -0.767000019550323486 -0.800000011920928955
8.24612617492675781 -0.717445611953735352 -0.637012898921966553
8.30268955230712891 -0.687317609786987305 -0.878064632415771484
8.22999954223632812 -0.722000002861022949 -0.762000024318695068
8.20730209350585938 -0.739256560802459717 -0.811968386173248291
8.22999954223632812 -0.722000002861022949 -0.708999991416931152
8.30799961090087891 -0.672999978065490723 -0.880999982357025146
8.31099987030029297 -0.763000011444091797 -0.869000017642974854
8.30000019073486328 -0.763000011444091797 -0.86799997091293335
8.30754661560058594 -0.753572165966033936 -0.85792386531829834
8.27700042724609375 -0.776000022888183594 -0.800999999046325684
8.27200031280517578 -0.767000019550323486 -0.810000002384185791
8.29399967193603516 -0.759999990463256836 -0.866999983787536621
8.30525016784667969 -0.733279705047607422 -0.858266174793243408
8.26200008392333984 -0.727999985218048096 -0.84299999475479126
8.28902626037597656 -0.755982816219329834 -0.846647739410400391
8.29002094268798828 -0.724287033081054688 -0.868605673313140869
8.32111930847167969 -0.756471991539001465 -0.866803884506225586
8.31750011444091797 -0.758499979972839355 -0.856999993324279785
8.30491733551025391 -0.744733035564422607 -0.849232673645019531
8.308746337890625 -0.758898556232452393 -0.856824934482574463
8.24100017547607422 -0.703999996185302734 -0.824999988079071045
8.26299953460693359 -0.677999973297119141 -0.884999990463256836
8.23204326629638672 -0.727060437202453613 -0.776970267295837402
8.20063495635986328 -0.724953651428222656 -0.770768463611602783
8.23600006103515625 -0.732499957084655762 -0.652999997138977051
8.23099994659423828 -0.704999983310699463 -0.805000007152557373
8.22649955749511719 -0.692499995231628418 -0.852499961853027344
8.24100017547607422 -0.721000015735626221 -0.815999984741210938
8.29570388793945312 -0.771625757217407227 -0.778925538063049316
8.23799991607666016 -0.709999978542327881 -0.802999973297119141
8.21846580505371094 -0.733451604843139648 -0.776123702526092529
8.21409511566162109 -0.72458803653717041 -0.771731913089752197
8.22628402709960938 -0.66762012243270874 -0.868840515613555908
8.28999996185302734 -0.772500038146972656 -0.779500007629394531
8.23750019073486328 -0.703999996185302734 -0.792500019073486328
8.26900005340576172 -0.64999997615814209 -0.860000014305114746
8.23400020599365234 -0.643499970436096191 -0.848999977111816406
8.2663726806640625 -0.664033830165863037 -0.875737309455871582
8.22799873352050781 -0.680991291999816895 -0.860038220882415771
8.23900032043457031 -0.736999988555908203 -0.658999979496002197
8.24100017547607422 -0.72500002384185791 -0.69300001859664917
8.25168418884277344 -0.712379932403564453 -0.893342137336730957
8.24189472198486328 -0.678650736808776855 -0.846559286117553711
8.28476524353027344 -0.760280132293701172 -0.866373598575592041
8.26599979400634766 -0.768999993801116943 -0.81099998950958252
8.28301239013671875 -0.766782879829406738 -0.783028900623321533
8.28100013732910156 -0.771000027656555176 -0.776000022888183594
8.21700000762939453 -0.739000022411346436 -0.684000015258789062
8.23300743103027344 -0.736003696918487549 -0.736971437931060791
8.25897598266601562 -0.747162222862243652 -0.673823773860931396
8.24327468872070312 -0.716421008110046387 -0.8235931396484375
8.29121685028076172 -0.772744476795196533 -0.791504561901092529
8.27894210815429688 -0.748679459095001221 -0.88587874174118042
8.29899978637695312 -0.75700002908706665 -0.851000010967254639
8.29450416564941406 -0.752185225486755371 -0.868154287338256836
8.22499847412109375 -0.741994082927703857 -0.812999546527862549
8.23601818084716797 -0.697016119956970215 -0.834910154342651367
8.29549980163574219 -0.677999973297119141 -0.879500031471252441
8.2910003662109375 -0.669000029563903809 -0.884999990463256836
8.25396442413330078 -0.683974623680114746 -0.891785621643066406
8.21500015258789062 -0.734000027179718018 -0.814999997615814209
8.27299976348876953 -0.773000001907348633 -0.800999999046325684
8.26489162445068359 -0.742056310176849365 -0.681816220283508301
8.22000026702880859 -0.694000005722045898 -0.640999972820281982
8.20800018310546875 -0.748999953269958496 -0.819000005722045898
3 265 245 264 255 255 255
3 264 266 265 255 255 255
3 263 266 264 255 255 255
3 263 253 266 255 255 255
3 253 254 266 255 255 255
3 263 86 253 255 255 255
3 266 158 265 255 255 255
3 266 254 158 255 255 255
3 254 258 158 255 255 255
3 255 259 265 255 255 255
3 258 301 158 255 255 255
3 254 301 258 255 255 255
3 259 31 265 255 255 255
3 255 179 259 255 255 255
3 31 261 265 255 255 255
3 255 264 179 255 255 255
3 31 33 261 255 255 255
3 259 262 31 255 255 255
3 261 32 265 255 255 255
3 262 175 31 255 255 255
3 32 245 265 255 255 255
3 32 174 245 255 255 255
3 33 178 261 255 255 255
3 31 175 33 255 255 255
3 262 180 175 255 255 255
3 174 48 245 255 255 255
3 175 177 33 255 255 255
3 176 177 175 255 255 255
3 262 150 180 255 255 255
3 259 179 152 255 255 255
3 179 159 152 255 255 255
3 178 153 261 255 255 255
3 260 214 33 255 255 255
3 33 154 260 255 255 255
3 177 154 33 255 255 255
3 175 64 176 255 255 255
3 180 63 175 255 255 255
3 150 11 180 255 255 255
3 151 150 262 255 255 255
3 259 152 262 255 255 255
3 152 151 262 255 255 255
3 152 147 151 255 255 255
3 179 86 159 255 255 255
3 253 48 174 255 255 255
3 174 254 253 255 255 255
3 174 158 254 255 255 255
3 261 232 32 255 255 255
3 153 232 261 255 255 255
3 178 128 153 255 255 255
3 154 65 260 255 255 255
3 177 129 154 255 255 255
3 176 194 177 255 255 255
3 64 63 176 255 255 255
3 180 194 63 255 255 255
3 150 66 11 255 255 255
3 151 146 150 255 255 255
3 152 301 147 255 255 255
3 174 300 158 255 255 255
3 153 71 232 255 255 255
3 128 113 153 255 255 255
3 178 148 128 255 255 255
3 260 209 214 255 255 255
3 65 134 260 255 255 255
3 129 72 154 255 255 255
3 177 210 129 255 255 255
3 180 177 194 255 255 255
3 66 211 11 255 255 255
3 150 240 66 255 255 255
3 146 240 150 255 255 255
3 151 147 146 255 255 255
3 147 299 146 255 255 255
3 152 159 253 255 255 255
3 174 32 300 255 255 255
3 32 207 300 255 255 255
3 128 233 113 255 255 255
3 148 212 128 255 255 255
3 149 73 214 255 255 255
3 214 209 149 255 255 255
3 209 198 149 255 255 255
3 260 213 209 255 255 255
3 134 213 260 255 255 255
3 134 198 213 255 255 255
3 72 213 154 255 255 255
3 210 132 129 255 255 255
3 211 181 11 255 255 255
3 146 70 240 255 255 255
3 299 69 146 255 255 255
3 147 301 299 255 255 255
3 152 254 301 255 255 255
3 300 121 158 255 255 255
3 32 232 207 255 255 255
3 128 212 233 255 255 255
3 212 234 233 255 255 255
3 73 133 214 255 255 255
3 213 182 209 255 255 255
3 134 206 198 255 255 255
3 65 297 134 255 255 255
3 132 235 129 255 255 255
3 210 194 132 255 255 255
3 181 29 11 255 255 255
3 211 67 181 255 255 255
3 66 241 211 255 255 255
3 240 145 66 255 255 255
3 70 145 240 255 255 255
3 70 183 145 255 255 255
3 146 69 70 255 255 255
3 24 69 299 255 255 255
3 24 149 69 255 255 255
3 299 290 24 255 255 255
3 301 290 299 255 255 255
3 254 290 301 255 255 255
3 254 237 290 255 255 255
3 300 133 121 255 255 255
3 71 122 232 255 255 255
3 130 246 71 255 255 255
3 71 239 130 255 255 255
3 71 153 113 255 255 255
3 233 239 113 255 255 255
3 149 24 73 255 255 255
3 24 290 73 255 255 255
3 182 154 209 255 255 255
3 213 208 182 255 255 255
3 134 27 206 255 255 255
3 297 30 134 255 255 255
3 65 72 297 255 255 255
3 72 129 297 255 255 255
3 29 21 11 255 255 255
3 67 26 181 255 255 255
3 66 288 241 255 255 255
3 145 288 66 255 255 255
3 183 288 145 255 255 255
3 70 28 183 255 255 255
3 69 149 70 255 255 255
3 149 28 70 255 255 255
3 237 73 290 255 255 255
3 133 73 121 255 255 255
3 207 25 58 255 255 255
3 71 136 122 255 255 255
3 130 239 246 255 255 255
3 71 143 239 255 255 255
3 239 246 113 255 255 255
3 233 234 239 255 255 255
3 234 308 239 255 255 255
3 154 214 209 255 255 255
3 208 238 182 255 255 255
3 206 27 198 255 255 255
3 134 30 27 255 255 255
3 129 267 297 255 255 255
3 129 303 267 255 255 255
3 235 303 129 255 255 255
3 29 68 21 255 255 255
3 181 248 29 255 255 255
3 26 248 181 255 255 255
3 26 304 248 255 255 255
3 211 306 67 255 255 255
3 241 306 211 255 255 255
3 25 153 58 255 255 255
3 207 232 25 255 255 255
3 232 62 25 255 255 255
3 239 298 246 255 255 255
3 256 298 239 255 255 255
3 239 257 256 255 255 255
3 71 62 143 255 255 255
3 212 91 234 255 255 255
3 154 33 214 255 255 255
3 238 131 182 255 255 255
3 208 188 238 255 255 255
3 27 302 135 255 255 255
3 30 92 27 255 255 255
3 236 92 30 255 255 255
3 236 215 92 255 255 255
3 297 274 30 255 255 255
3 235 167 303 255 255 255
3 68 222 21 255 255 255
3 29 7 68 255 255 255
3 29 248 53 255 255 255
3 26 305 304 255 255 255
3 183 226 288 255 255 255
3 131 183 28 255 255 255
3 131 226 183 255 255 255
3 28 182 131 255 255 255
3 207 58 178 255 255 255
3 25 143 153 255 255 255
3 298 275 246 255 255 255
3 256 136 298 255 255 255
3 257 291 256 255 255 255
3 234 291 308 255 255 255
3 212 148 91 255 255 255
3 208 103 188 255 255 255
3 135 208 27 255 255 255
3 302 93 135 255 255 255
3 27 92 302 255 255 255
3 215 137 92 255 255 255
3 215 79 137 255 255 255
3 236 34 215 255 255 255
3 236 274 297 255 255 255
3 297 276 236 255 255 255
3 303 115 267 255 255 255
3 132 172 235 255 255 255
3 68 35 222 255 255 255
3 7 101 68 255 255 255
3 29 187 7 255 255 255
3 53 187 29 255 255 255
3 304 252 248 255 255 255
3 304 305 252 255 255 255
3 305 126 252 255 255 255
3 26 55 305 255 255 255
3 306 268 67 255 255 255
3 216 241 288 255 255 255
3 288 226 216 255 255 255
3 136 122 114 255 255 255
3 298 292 275 255 255 255
3 257 91 291 255 255 255
3 188 230 238 255 255 255
3 103 107 188 255 255 255
3 135 103 208 255 255 255
3 302 250 93 255 255 255
3 92 4 302 255 255 255
3 137 4 92 255 255 255
3 137 0 4 255 255 255
3 79 155 137 255 255 255
3 34 79 215 255 255 255
3 236 20 34 255 255 255
3 276 225 236 255 255 255
3 297 267 276 255 255 255
3 267 272 276 255 255 255
3 115 72 267 255 255 255
3 167 56 303 255 255 255
3 289 167 235 255 255 255
3 172 102 235 255 255 255
3 132 222 172 255 255 255
3 222 132 21 255 255 255
3 68 82 35 255 255 255
3 101 82 68 255 255 255
3 101 55 82 255 255 255
3 53 42 187 255 255 255
3 248 119 53 255 255 255
3 252 224 248 255 255 255
3 305 101 126 255 255 255
3 268 284 67 255 255 255
3 306 8 268 255 255 255
3 306 216 8 255 255 255
3 216 306 241 255 255 255
3 216 223 8 255 255 255
3 226 223 216 255 255 255
3 131 238 226 255 255 255
3 280 292 298 255 255 255
3 188 47 230 255 255 255
3 107 47 188 255 255 255
3 103 77 107 255 255 255
3 163 77 103 255 255 255
3 103 93 163 255 255 255
3 93 103 135 255 255 255
3 302 307 250 255 255 255
3 0 218 4 255 255 255
3 137 155 0 255 255 255
3 155 269 0 255 255 255
3 272 281 276 255 255 255
3 267 195 272 255 255 255
3 235 102 289 255 255 255
3 102 41 289 255 255 255
3 172 41 102 255 255 255
3 172 123 41 255 255 255
3 222 35 172 255 255 255
3 82 282 35 255 255 255
3 55 284 82 255 255 255
3 119 74 53 255 255 255
3 248 224 119 255 255 255
3 252 126 224 255 255 255
3 101 138 126 255 255 255
3 284 26 67 255 255 255
3 8 43 268 255 255 255
3 8 104 43 255 255 255
3 223 104 8 255 255 255
3 223 285 104 255 255 255
3 226 230 223 255 255 255
3 238 230 226 255 255 255
3 280 293 292 255 255 255
3 47 99 230 255 255 255
3 107 115 47 255 255 255
3 115 303 47 255 255 255
3 77 80 107 255 255 255
3 93 311 163 255 255 255
3 250 311 93 255 255 255
3 307 77 250 255 255 255
3 302 163 307 255 255 255
3 0 139 218 255 255 255
3 155 189 269 255 255 255
3 155 83 189 255 255 255
3 79 83 155 255 255 255
3 276 281 225 255 255 255
3 281 83 225 255 255 255
3 195 49 272 255 255 255
3 107 65 115 255 255 255
3 303 99 47 255 255 255
3 303 273 99 255 255 255
3 56 273 303 255 255 255
3 289 144 167 255 255 255
3 289 41 144 255 255 255
3 41 191 144 255 255 255
3 123 184 41 255 255 255
3 35 123 172 255 255 255
3 35 184 123 255 255 255
3 282 184 35 255 255 255
3 82 168 282 255 255 255
3 284 229 82 255 255 255
3 55 26 284 255 255 255
3 7 217 101 255 255 255
3 42 59 187 255 255 255
3 53 74 42 255 255 255
3 74 59 42 255 255 255
3 119 59 74 255 255 255
3 224 59 119 255 255 255
3 138 59 126 255 255 255
3 101 217 138 255 255 255
3 217 187 138 255 255 255
3 217 7 187 255 255 255
3 268 229 284 255 255 255
3 268 43 229 255 255 255
3 43 162 229 255 255 255
3 43 203 1 255 255 255
3 104 203 43 255 255 255
3 223 230 285 255 255 255
3 230 273 285 255 255 255
3 77 307 80 255 255 255
3 307 124 80 255 255 255
3 163 311 77 255 255 255
3 218 219 4 255 255 255
3 139 192 218 255 255 255
3 0 277 139 255 255 255
3 269 277 0 255 255 255
3 189 249 269 255 255 255
3 189 105 249 255 255 255
3 83 6 189 255 255 255
3 272 109 281 255 255 255
3 49 109 272 255 255 255
3 195 202 49 255 255 255
3 273 230 99 255 255 255
3 167 190 56 255 255 255
3 144 190 167 255 255 255
3 144 191 190 255 255 255
3 191 127 190 255 255 255
3 41 127 191 255 255 255
3 184 18 41 255 255 255
3 168 9 282 255 255 255
3 82 229 168 255 255 255
3 229 162 168 255 255 255
3 59 138 187 255 255 255
3 126 59 224 255 255 255
3 43 1 162 255 255 255
3 203 279 1 255 255 255
3 203 104 279 255 255 255
3 104 285 279 255 255 255
3 285 227 279 255 255 255
3 273 56 285 255 255 255
3 56 190 285 255 255 255
3 190 227 285 255 255 255
3 280 298 275 255 255 255
3 80 124 107 255 255 255
3 307 111 124 255 255 255
3 311 250 77 255 255 255
3 219 302 4 255 255 255
3 219 111 302 255 255 255
3 218 202 219 255 255 255
3 277 270 139 255 255 255
3 269 60 277 255 255 255
3 269 196 60 255 255 255
3 105 196 249 255 255 255
3 34 20 225 255 255 255
3 79 34 225 255 255 255
3 225 83 79 255 255 255
3 281 109 83 255 255 255
3 202 170 49 255 255 255
3 195 219 202 255 255 255
3 127 227 190 255 255 255
3 41 18 127 255 255 255
3 18 220 127 255 255 255
3 184 197 18 255 255 255
3 168 3 9 255 255 255
3 162 3 168 255 255 255
3 227 116 279 255 255 255
3 111 195 124 255 255 255
3 218 192 202 255 255 255
3 139 164 192 255 255 255
3 270 164 139 255 255 255
3 278 270 277 255 255 255
3 277 57 278 255 255 255
3 196 269 249 255 255 255
3 105 44 196 255 255 255
3 6 200 189 255 255 255
3 83 109 6 255 255 255
3 49 6 109 255 255 255
3 170 200 49 255 255 255
3 202 192 170 255 255 255
3 195 115 124 255 255 255
3 220 283 127 255 255 255
3 220 51 283 255 255 255
3 197 10 18 255 255 255
3 184 9 197 255 255 255
3 9 184 282 255 255 255
3 162 156 3 255 255 255
3 1 156 162 255 255 255
3 1 90 156 255 255 255
3 15 90 1 255 255 255
3 1 279 15 255 255 255
3 116 15 279 255 255 255
3 116 23 15 255 255 255
3 227 23 116 255 255 255
3 111 219 195 255 255 255
3 57 84 278 255 255 255
3 277 60 57 255 255 255
3 60 40 57 255 255 255
3 81 36 60 255 255 255
3 60 196 81 255 255 255
3 44 81 196 255 255 255
3 44 295 81 255 255 255
3 200 6 49 255 255 255
3 170 270 200 255 255 255
3 192 161 170 255 255 255
3 192 164 161 255 255 255
3 51 227 283 255 255 255
3 220 169 51 255 255 255
3 18 10 220 255 255 255
3 9 3 197 255 255 255
3 15 23 90 255 255 255
3 227 51 23 255 255 255
3 227 127 283 255 255 255
3 57 36 84 255 255 255
3 60 36 40 255 255 255
3 10 169 220 255 255 255
3 197 169 10 255 255 255
3 156 197 3 255 255 255
3 197 90 23 255 255 255
3 197 156 90 255 255 255
3 23 51 197 255 255 255
3 51 169 197 255 255 255
3 84 200 278 255 255 255
3 200 270 278 255 255 255
3 36 125 84 255 255 255
3 44 125 295 255 255 255
3 105 125 44 255 255 255
3 105 84 125 255 255 255
3 84 189 200 255 255 255
3 84 105 189 255 255 255
3 164 270 161 255 255 255
3 36 295 125 255 255 255
3 36 81 295 255 255 255
3 231 242 106 255 255 255
3 242 100 106 255 255 255
3 231 98 242 255 255 255
3 100 157 106 255 255 255
3 231 95 98 255 255 255
3 231 106 17 255 255 255
3 106 243 17 255 255 255
3 100 45 157 255 255 255
3 242 205 100 255 255 255
3 98 95 61 255 255 255
3 95 247 61 255 255 255
3 231 17 95 255 255 255
3 243 97 17 255 255 255
3 106 157 243 255 255 255
3 157 160 243 255 255 255
3 45 14 157 255 255 255
3 100 205 45 255 255 255
3 98 13 242 255 255 255
3 95 16 247 255 255 255
3 97 271 17 255 255 255
3 243 12 97 255 255 255
3 243 160 12 255 255 255
3 157 14 160 255 255 255
3 242 13 205 255 255 255
3 98 61 13 255 255 255
3 271 16 17 255 255 255
3 97 286 271 255 255 255
3 12 88 97 255 255 255
3 160 199 12 255 255 255
3 13 310 205 255 255 255
3 247 46 61 255 255 255
3 16 185 247 255 255 255
3 271 185 16 255 255 255
3 95 17 16 255 255 255
3 286 2 271 255 255 255
3 97 221 286 255 255 255
3 88 171 97 255 255 255
3 12 108 88 255 255 255
3 199 140 12 255 255 255
3 160 120 199 255 255 255
3 160 14 120 255 255 255
3 45 310 14 255 255 255
3 205 201 45 255 255 255
3 13 117 310 255 255 255
3 61 46 13 255 255 255
3 46 117 13 255 255 255
3 46 166 117 255 255 255
3 46 173 166 255 255 255
3 247 185 46 255 255 255
3 185 173 46 255 255 255
3 185 2 173 255 255 255
3 2 185 271 255 255 255
3 286 110 2 255 255 255
3 221 54 286 255 255 255
3 88 54 171 255 255 255
3 12 140 108 255 255 255
3 140 294 108 255 255 255
3 14 141 120 255 255 255
3 94 141 14 255 255 255
3 94 50 141 255 255 255
3 14 201 94 255 255 255
3 205 117 201 255 255 255
3 117 50 310 255 255 255
3 54 110 286 255 255 255
3 221 96 54 255 255 255
3 88 165 54 255 255 255
3 88 108 221 255 255 255
3 108 165 221 255 255 255
3 140 87 294 255 255 255
3 120 118 199 255 255 255
3 141 166 120 255 255 255
3 173 120 166 255 255 255
3 2 193 173 255 255 255
3 110 78 2 255 255 255
3 54 244 110 255 255 255
3 96 37 54 255 255 255
3 54 244 171 255 255 255
3 165 96 221 255 255 255
3 165 294 96 255 255 255
3 87 38 294 255 255 255
3 199 52 140 255 255 255
3 118 52 199 255 255 255
3 193 76 173 255 255 255
3 110 228 78 255 255 255
3 228 186 78 255 255 255
3 110 296 228 255 255 255
3 244 296 110 255 255 255
3 37 296 54 255 255 255
3 96 38 37 255 255 255
3 244 228 171 255 255 255
3 165 108 294 255 255 255
3 38 96 294 255 255 255
3 140 89 87 255 255 255
3 52 89 140 255 255 255
3 193 118 76 255 255 255
3 2 112 193 255 255 255
3 2 78 112 255 255 255
3 244 54 296 255 255 255
3 75 37 38 255 255 255
3 38 87 75 255 255 255
3 87 251 75 255 255 255
3 52 287 89 255 255 255
3 52 19 287 255 255 255
3 118 5 52 255 255 255
3 193 112 118 255 255 255
3 78 204 112 255 255 255
3 309 186 296 255 255 255
3 309 39 186 255 255 255
3 296 37 309 255 255 255
3 75 85 37 255 255 255
3 251 85 75 255 255 255
3 251 287 85 255 255 255
3 87 89 251 255 255 255
3 287 251 89 255 255 255
3 19 142 287 255 255 255
3 52 5 19 255 255 255
3 118 112 5 255 255 255
3 112 19 5 255 255 255
3 204 19 112 255 255 255
3 186 39 78 255 255 255
3 37 85 309 255 255 255
3 287 142 85 255 255 255
3 39 22 78 255 255 255
3 309 85 39 255 255 255
3 142 39 85 255 255 255
3 19 39 142 255 255 255
3 19 22 39 255 255 255
3 19 204 22 255 255 255
3 204 78 22 255 255 255
