ply
format ascii 1.0
element vertex 332
property float x
property float y
property float z
element face 576
property list uchar int vertex_indices
property uchar red
property uchar green
property uchar blue
end_header
0.289410859346389771 5.97074794769287109 -0.919852793216705322
0.350762903690338135 5.93067169189453125 -0.54170602560043335
0.381000012159347534 5.98799991607666016 -0.810000002384185791
0.360000014305114746 5.90600013732910156 -0.546999990940093994
0.270427346229553223 5.97027301788330078 -0.404239892959594727
0.25 5.97399997711181641 -0.544000029563903809
0.307000011205673218 6.01599979400634766 -0.583999991416931152
0.325431495904922485 6.0248870849609375 -0.539890766143798828
0.326951503753662109 6.00780296325683594 -0.615453958511352539
0.317534714937210083 6.01124954223632812 -0.623224735260009766
0.317381948232650757 5.91724300384521484 -0.82056736946105957
0.332361191511154175 5.98300504684448242 -0.910675644874572754
0.35123869776725769 5.96189546585083008 -0.907313942909240723
0.355041354894638062 5.94916582107543945 -0.940239667892456055
0.330803006887435913 5.88054847717285156 -0.88019108772277832
0.357509046792984009 5.96328020095825195 -0.65675729513168335
0.241469711065292358 5.95385885238647461 -0.683157205581665039
0.328487962484359741 5.91901493072509766 -0.639815092086791992
0.355983942747116089 5.93451070785522461 -0.67445838451385498
0.252972811460494995 5.98319578170776367 -0.928710579872131348
0.365954875946044922 5.90763473510742188 -0.558964371681213379
0.343881905078887939 5.9831390380859375 -0.403091698884963989
0.335999995470046997 5.94899988174438477 -0.625
0.350976169109344482 5.93335390090942383 -0.455505639314651489
0.259999990463256836 5.96099996566772461 -0.920000016689300537
0.313487738370895386 5.97050237655639648 -0.861277759075164795
0.293172925710678101 5.96231889724731445 -0.419277220964431763
0.31099998950958252 5.98600006103515625 -0.462999999523162842
0.355791658163070679 5.92032241821289062 -0.590171337127685547
0.324013233184814453 5.90441417694091797 -0.473646849393844604
0.244187355041503906 5.93938636779785156 -0.723035871982574463
0.345231890678405762 5.90299844741821289 -0.565822482109069824
0.290070593357086182 5.97217273712158203 -0.535406827926635742
0.332653403282165527 5.97044134140014648 -0.406875699758529663
0.351999998092651367 5.94999980926513672 -0.686999976634979248
0.232149600982666016 5.97266340255737305 -0.55199587345123291
0.330000013113021851 5.94500017166137695 -0.460000008344650269
0.302915483713150024 5.96648502349853516 -0.390502214431762695
0.312999993562698364 6.01200008392333984 -0.90700000524520874
0.33370053768157959 6.00130844116210938 -0.451520651578903198
0.380519628524780273 5.96193218231201172 -0.892427921295166016
0.367794930934906006 5.94164085388183594 -0.860380470752716064
0.298962891101837158 5.93359470367431641 -0.89083784818649292
0.311453044414520264 5.95594596862792969 -0.641532957553863525
0.341123342514038086 5.92645072937011719 -0.789045572280883789
0.287000000476837158 5.92000007629394531 -0.765999972820281982
0.297377705574035645 5.95796918869018555 -0.861563563346862793
0.260077416896820068 5.92070245742797852 -0.92505943775177002
0.310113966464996338 5.99797201156616211 -0.608984649181365967
0.313068568706512451 5.96650981903076172 -0.631511032581329346
0.268999993801116943 5.94899988174438477 -0.59299999475479126
0.349398374557495117 5.92342376708984375 -0.569010496139526367
0.287999987602233887 5.9159998893737793 -0.767000019550323486
0.264999985694885254 5.95699977874755859 -0.518999993801116943
0.287999987602233887 5.95399999618530273 -0.772000014781951904
0.35499998927116394 5.9439997673034668 -0.619000017642974854
0.331703454256057739 5.9240260124206543 -0.843069195747375488
0.231499999761581421 5.94799995422363281 -0.819000005722045898
0.241999998688697815 5.95200014114379883 -0.648999989032745361
0.325566262006759644 6.02353334426879883 -0.405358344316482544
0.33899998664855957 5.97800016403198242 -0.832000017166137695
0.323101818561553955 5.91229152679443359 -0.755171418190002441
0.328000009059906006 5.95599985122680664 -0.699000000953674316
0.343966186046600342 5.94507265090942383 -0.539055705070495605
0.337549597024917603 5.98127937316894531 -0.921747267246246338
0.340346693992614746 6.02193450927734375 -0.728698909282684326
0.298737555742263794 6.01822948455810547 -0.894514679908752441
0.326596230268478394 6.02647256851196289 -0.898402571678161621
0.326066374778747559 6.00722551345825195 -0.893969118595123291
0.308999985456466675 6.01200008392333984 -0.908999979496002197
0.348037123680114746 5.89912128448486328 -0.630955874919891357
0.373584061861038208 5.91104793548583984 -0.468391001224517822
0.367000013589859009 5.92399978637695312 -0.476000010967254639
0.312571465969085693 5.96816730499267578 -0.585995495319366455
0.347518116235733032 5.90649747848510742 -0.657898604869842529
0.28217276930809021 5.99594497680664062 -0.418457865715026855
0.320199519395828247 5.98499965667724609 -0.535457372665405273
0.29409220814704895 5.93251848220825195 -0.881637454032897949
0.357890874147415161 5.95697832107543945 -0.829853415489196777
0.370946198701858521 5.99030160903930664 -0.713201165199279785
0.250875264406204224 5.94089174270629883 -0.807462334632873535
0.286583393812179565 5.89437198638916016 -0.90050274133682251
0.306758314371109009 5.98117923736572266 -0.610628128051757812
0.333239704370498657 5.94761943817138672 -0.695883035659790039
0.275000005960464478 5.92700004577636719 -0.91100001335144043
0.32707330584526062 5.99411487579345703 -0.892579615116119385
0.306007653474807739 5.97162199020385742 -0.584393858909606934
0.330000013113021851 5.97700023651123047 -0.834999978542327881
0.300548404455184937 5.96271657943725586 -0.830121755599975586
0.242083609104156494 5.94735527038574219 -0.659073114395141602
0.349000006914138794 5.90100002288818359 -0.432000011205673218
0.317079722881317139 5.95441961288452148 -0.389832347631454468
0.363000005483627319 5.90000009536743164 -0.639999985694885254
0.347999989986419678 5.94600009918212891 -0.544000029563903809
0.249236851930618286 5.97370576858520508 -0.554456174373626709
0.33899998664855957 5.97800016403198242 -0.68599998950958252
0.241761431097984314 5.93791294097900391 -0.708474278450012207
0.246376678347587585 5.89840316772460938 -0.936018049716949463
0.248609587550163269 5.86149787902832031 -0.9758109450340271
0.338771224021911621 5.9146575927734375 -0.957657158374786377
0.298652887344360352 5.989471435546875 -0.669751286506652832
0.33899998664855957 5.93200016021728516 -0.816999971866607666
0.348654687404632568 5.93629693984985352 -0.757637560367584229
0.300369173288345337 5.90210199356079102 -0.850278019905090332
0.261000007390975952 5.92500019073486328 -0.773000001907348633
0.258447438478469849 5.93312788009643555 -0.796976685523986816
0.336758583784103394 5.95580673217773438 -0.712167739868164062
0.365552693605422974 5.98928928375244141 -0.676914453506469727
0.333999991416931152 5.92500019073486328 -0.820999979972839355
0.321741670370101929 5.88634490966796875 -0.911791861057281494
0.349712342023849487 5.92048883438110352 -0.594002842903137207
0.318736642599105835 6.02259206771850586 -0.583851039409637451
0.247319221496582031 5.95619630813598633 -0.581389129161834717
0.362650007009506226 5.90402889251708984 -0.658768117427825928
0.257121950387954712 5.94269323348999023 -0.528144598007202148
0.322170525789260864 5.98296308517456055 -0.506504654884338379
0.313516855239868164 6.0019688606262207 -0.517704606056213379
0.303375542163848877 6.00319004058837891 -0.447173714637756348
0.31346362829208374 6.01932573318481445 -0.547856330871582031
0.344654202461242676 5.91329765319824219 -0.416376978158950806
0.389407515525817871 5.94769573211669922 -0.427338123321533203
0.282498598098754883 5.96611881256103516 -0.631148755550384521
0.345292150974273682 5.89948892593383789 -0.858771562576293945
0.342947244644165039 5.9539790153503418 -0.845274627208709717
0.351000010967254639 5.97800016403198242 -0.837000012397766113
0.293390333652496338 5.97264862060546875 -0.695467710494995117
0.291999995708465576 5.92799997329711914 -0.896000027656555176
0.268231332302093506 5.9720911979675293 -0.876600146293640137
0.342534363269805908 5.92538690567016602 -0.713108062744140625
0.211881637573242188 5.94688510894775391 -0.59583204984664917
0.247552633285522461 5.94403886795043945 -0.643033921718597412
0.291000008583068848 5.91200017929077148 -0.939999997615814209
0.308412820100784302 5.99432754516601562 -0.734252750873565674
0.349348604679107666 5.98136663436889648 -0.76592487096786499
0.361067920923233032 5.96958398818969727 -0.749793708324432373
0.366084367036819458 5.95297765731811523 -0.796880185604095459
0.334276527166366577 5.95904731750488281 -0.831818819046020508
0.323197722434997559 5.98834848403930664 -0.705321609973907471
0.292161375284194946 5.91128063201904297 -0.718212604522705078
0.333531588315963745 5.91081953048706055 -0.69721907377243042
0.318372458219528198 5.96279144287109375 -0.877580344676971436
0.268671125173568726 5.93900489807128906 -0.897901833057403564
0.291636943817138672 5.89418888092041016 -0.938273429870605469
0.381567716598510742 5.93394804000854492 -0.602897584438323975
0.362797170877456665 5.93134355545043945 -0.526059865951538086
0.207649827003479004 5.96358442306518555 -0.523605585098266602
0.347000002861022949 5.94799995422363281 -0.790000021457672119
0.297633975744247437 5.99498558044433594 -0.534315168857574463
0.245579883456230164 5.94372415542602539 -0.681190192699432373
0.27000001072883606 5.9590001106262207 -0.910000026226043701
0.359656959772109985 5.97646093368530273 -0.451610088348388672
0.273295968770980835 5.87743902206420898 -0.934897422790527344
0.316110461950302124 5.9758453369140625 -0.545512914657592773
0.291000008583068848 5.90199995040893555 -0.962000012397766113
0.261999994516372681 5.97499990463256836 -0.893999993801116943
0.352748841047286987 5.98790121078491211 -0.468406021595001221
0.277188003063201904 5.96678972244262695 -0.581673502922058105
0.344603478908538818 5.8956608772277832 -0.679985642433166504
0.335089057683944702 5.95613336563110352 -0.897189497947692871
0.367000013589859009 5.9159998893737793 -0.646000027656555176
0.332928121089935303 5.91210174560546875 -0.669706761837005615
0.32653510570526123 5.93881130218505859 -0.948265314102172852
0.333586156368255615 5.90185117721557617 -0.969161927700042725
0.224604174494743347 5.99071407318115234 -0.528570950031280518
0.337999999523162842 5.93699979782104492 -0.601999998092651367
0.374785840511322021 5.91600894927978516 -0.520176887512207031
0.370328336954116821 5.97974777221679688 -0.818237066268920898
0.323884040117263794 5.98081302642822266 -0.650825202465057373
0.350277811288833618 5.90383481979370117 -0.892294347286224365
0.284999996423721313 5.94500017166137695 -0.846000015735626221
0.294668704271316528 5.89833593368530273 -0.70871204137802124
0.277602344751358032 5.96477603912353516 -0.644759416580200195
0.331428885459899902 5.92813348770141602 -0.726140618324279785
0.271108895540237427 5.94321155548095703 -0.774417459964752197
0.287000000476837158 5.95300006866455078 -0.78600001335144043
0.280687004327774048 5.94518852233886719 -0.762810885906219482
0.361279666423797607 5.94059562683105469 -0.650808930397033691
0.297331273555755615 5.93192338943481445 -0.678102254867553711
0.260215908288955688 5.92993640899658203 -0.651755392551422119
0.296882957220077515 5.9254918098449707 -0.745350241661071777
0.261060267686843872 5.93588972091674805 -0.768107593059539795
0.237762793898582458 5.96881961822509766 -0.639358460903167725
0.362097114324569702 5.99412393569946289 -0.736184656620025635
0.294139355421066284 5.95443248748779297 -0.790702223777770996
0.34489026665687561 5.96849203109741211 -0.794430196285247803
0.292398631572723389 5.96583461761474609 -0.738583922386169434
0.327779382467269897 5.97402143478393555 -0.777765452861785889
0.334695518016815186 5.97937345504760742 -0.802825272083282471
0.357632309198379517 5.99348640441894531 -0.814051806926727295
0.300485402345657349 5.92656612396240234 -0.813942372798919678
0.317534953355789185 5.95684385299682617 -0.811273455619812012
0.253288060426712036 5.9665675163269043 -0.677395045757293701
0.277999997138977051 5.88199996948242188 -0.982999980449676514
0.256023645401000977 5.95247983932495117 -0.500965416431427002
0.339687496423721313 5.92204809188842773 -0.567059934139251709
0.314701825380325317 5.99754476547241211 -0.587013840675354004
0.32988402247428894 5.91031455993652344 -0.811904966831207275
0.288728594779968262 5.9724583625793457 -0.52085644006729126
0.380002051591873169 5.93097734451293945 -0.942263305187225342
0.35499998927116394 5.9029998779296875 -0.551999986171722412
0.381877303123474121 5.98693990707397461 -0.846071183681488037
0.249008700251579285 5.96339654922485352 -0.554047465324401855
0.236438140273094177 5.98295927047729492 -0.681689560413360596
0.296999990940093994 5.90500020980834961 -0.936999976634979248
0.377488225698471069 5.98729515075683594 -0.867093801498413086
0.274101942777633667 5.88293886184692383 -0.967093586921691895
0.252000004053115845 5.99599981307983398 -0.518000006675720215
0.317999988794326782 5.99399995803833008 -0.456000000238418579
0.238000005483627319 5.96099996566772461 -0.541999995708465576
0.361759066581726074 5.95593118667602539 -0.441712945699691772
0.226449728012084961 5.96112775802612305 -0.572584569454193115
0.361679285764694214 5.89560079574584961 -0.519257307052612305
0.30440869927406311 6.00538253784179688 -0.379380404949188232
0.365747272968292236 5.98465394973754883 -0.669198572635650635
0.285066545009613037 5.91487264633178711 -0.687196433544158936
0.347000002861022949 5.95800018310546875 -0.671000003814697266
0.30190807580947876 5.92113304138183594 -0.889688313007354736
0.323995232582092285 5.94177675247192383 -0.820115566253662109
0.328999996185302734 5.92199993133544922 -0.764999985694885254
0.323000013828277588 5.96799993515014648 -0.836000025272369385
0.299303054809570312 5.88324737548828125 -0.926225543022155762
0.265605032444000244 5.94973945617675781 -0.902216732501983643
0.303390383720397949 5.91969537734985352 -0.916859865188598633
0.331000000238418579 5.99499988555908203 -0.688000023365020752
0.329571425914764404 5.99107789993286133 -0.617662668228149414
0.376468688249588013 5.98899745941162109 -0.815133392810821533
0.348636776208877563 5.87896585464477539 -0.456377178430557251
0.352999985218048096 5.89799976348876953 -0.453000009059906006
0.318796724081039429 5.94018411636352539 -0.613031268119812012
0.244058862328529358 5.92885494232177734 -0.801225960254669189
0.270999997854232788 5.91900014877319336 -0.769999980926513672
0.361000001430511475 5.96000003814697266 -0.46799999475479126
0.293248176574707031 5.99131917953491211 -0.887480676174163818
0.257404536008834839 5.90299224853515625 -0.963324069976806641
0.311399728059768677 5.98587131500244141 -0.571658790111541748
0.348298877477645874 6.08026695251464844 -0.474809169769287109
0.356237411499023438 5.93410253524780273 -0.579934239387512207
0.361463755369186401 6.01429605484008789 -0.465988487005233765
0.340265244245529175 6.05702877044677734 -0.446742802858352661
0.316591024398803711 6.00316858291625977 -0.422707498073577881
0.2786712646484375 6.02213907241821289 -0.39893728494644165
0.361101865768432617 6.00903749465942383 -0.730160295963287354
0.294999986886978149 5.91499996185302734 -0.936999976634979248
0.354539930820465088 5.98007631301879883 -1.01578927040100098
0.344999998807907104 5.94000005722045898 -0.708999991416931152
0.325557738542556763 5.89453983306884766 -1.02541005611419678
0.292413711547851562 5.93402910232543945 -1.02263188362121582
0.322494983673095703 5.92725849151611328 -1.03755617141723633
0.355858653783798218 5.88631534576416016 -0.493074089288711548
0.383861273527145386 5.98365116119384766 -1.02925646305084229
0.339211851358413696 5.93216657638549805 -0.687031567096710205
0.368453443050384521 5.93183708190917969 -0.459446489810943604
0.363999992609024048 5.98999977111816406 -0.843999981880187988
0.33049049973487854 5.93295478820800781 -0.64425361156463623
0.32699999213218689 5.96299982070922852 -0.852999985218048096
0.264852732419967651 5.89605951309204102 -0.904470622539520264
0.350975543260574341 5.92302989959716797 -0.990766048431396484
0.301161617040634155 5.96822357177734375 -0.599795401096343994
0.31616327166557312 5.97175884246826172 -0.926697909832000732
0.279000014066696167 5.90000009536743164 -0.959999978542327881
0.30702480673789978 5.93596982955932617 -0.87303239107131958
0.260749608278274536 5.98857021331787109 -0.527731418609619141
0.263000011444091797 5.90000009536743164 -0.959999978542327881
0.334137260913848877 5.9067387580871582 -0.513838887214660645
0.358373433351516724 5.94039106369018555 -0.477040350437164307
0.366877198219299316 5.88061380386352539 -0.454511523246765137
0.340000003576278687 5.90999984741210938 -0.547999978065490723
0.250999987125396729 5.91800022125244141 -0.712000012397766113
0.25507470965385437 5.93496179580688477 -0.784029841423034668
0.304690629243850708 5.90748023986816406 -0.789466738700866699
0.258651435375213623 5.94233036041259766 -0.733048617839813232
0.320352137088775635 5.99716281890869141 -0.673599898815155029
0.322564482688903809 5.90944910049438477 -0.782227993011474609
0.344000011682510376 5.92899990081787109 -0.790000021457672119
0.273000001907348633 5.91699981689453125 -0.773999989032745361
0.276578307151794434 5.91156864166259766 -0.792946815490722656
0.257022678852081299 5.92980527877807617 -0.792154550552368164
0.265593767166137695 5.96826744079589844 -0.672259151935577393
0.351854324340820312 6.01345539093017578 -0.701271176338195801
0.390489488840103149 6.02096796035766602 -0.675721883773803711
0.351908653974533081 6.0281682014465332 -0.670794188976287842
0.309455513954162598 6.00231647491455078 -0.62904125452041626
0.363839566707611084 6.03365659713745117 -0.700734853744506836
0.30538591742515564 6.00296926498413086 -0.635510385036468506
0.263621777296066284 6.00061368942260742 -0.918505072593688965
0.293000012636184692 6.0149998664855957 -0.912999987602233887
0.326252549886703491 6.0052189826965332 -0.577340543270111084
0.305999994277954102 6.00400018692016602 -0.607999980449676514
0.375773787498474121 5.88606929779052734 -0.419985145330429077
0.304016023874282837 5.93725156784057617 -0.920980215072631836
0.348153740167617798 5.93674039840698242 -0.421460211277008057
0.368999987840652466 5.91800022125244141 -0.634999990463256836
0.351999998092651367 5.9029998779296875 -0.540000021457672119
0.322785109281539917 6.03379487991333008 -0.54836660623550415
0.377524316310882568 5.99856138229370117 -0.70082402229309082
0.262640714645385742 5.95227670669555664 -0.609756290912628174
0.27387547492980957 5.92222499847412109 -0.780796825885772705
0.244800090789794922 5.96895742416381836 -0.613355934619903564
0.365999996662139893 5.98400020599365234 -0.860000014305114746
0.240999996662139893 5.95499992370605469 -0.666000008583068848
0.303778290748596191 5.97156333923339844 -0.911290585994720459
0.360000014305114746 5.95200014114379883 -0.90700000524520874
0.221223711967468262 5.95633888244628906 -0.636519134044647217
0.21543276309967041 5.97393417358398438 -0.594922006130218506
0.281829357147216797 5.9858245849609375 -0.925984978675842285
0.266999989748001099 5.96600008010864258 -0.916999995708465576
0.275000005960464478 5.96000003814697266 -0.907999992370605469
0.358000010251998901 5.93400001525878906 -0.558000028133392334
0.3136710524559021 5.94682931900024414 -0.889901638031005859
0.273000001907348633 5.87900018692016602 -0.977999985218048096
0.334111839532852173 6.04697084426879883 -0.489003568887710571
0.311602950096130371 6.06012201309204102 -0.476625174283981323
0.309953600168228149 6.01769590377807617 -0.448232591152191162
0.325878113508224487 6.02701616287231445 -0.485185831785202026
0.351319670677185059 5.8873438835144043 -1.0093618631362915
0.3580913245677948 5.90748262405395508 -1.02848303318023682
0.304776161909103394 5.91766119003295898 -1.00946629047393799
0.320365488529205322 5.94449996948242188 -1.00896430015563965
0.304972797632217407 5.98262834548950195 -0.560719549655914307
0.346830815076828003 5.94681024551391602 -1.02282369136810303
0.296643584966659546 5.93595170974731445 -1.03979456424713135
0.353713780641555786 5.96799039840698242 -1.0368039608001709
0.368382841348648071 5.99870157241821289 -1.03147494792938232
0.268525451421737671 5.98065567016601562 -0.507983148097991943
0.356792747974395752 5.91256570816040039 -0.574835121631622314
0.362951666116714478 5.93880558013916016 -0.623878300189971924
0.338124096393585205 5.99912214279174805 -0.5219687819480896
0.365999996662139893 5.99100017547607422 -0.808000028133392334
0.395855933427810669 5.90609836578369141 -0.442999482154846191
0.239357054233551025 5.95133543014526367 -0.696514368057250977
0.270999997854232788 5.96700000762939453 -0.527999997138977051
0.346571445465087891 5.98731088638305664 -0.83538353443145752
3 186 190 187 255 255 255
3 187 184 186 255 255 255
3 183 217 190 255 255 255
3 186 185 183 255 255 255
3 184 134 186 255 255 255
3 187 188 184 255 255 255
3 183 189 217 255 255 255
3 185 175 183 255 255 255
3 186 132 185 255 255 255
3 186 134 133 255 255 255
3 184 44 134 255 255 255
3 188 166 184 255 255 255
3 189 10 217 255 255 255
3 183 173 189 255 255 255
3 183 174 173 255 255 255
3 190 186 183 255 255 255
3 184 217 44 255 255 255
3 166 135 184 255 255 255
3 217 136 190 255 255 255
3 173 296 189 255 255 255
3 174 175 173 255 255 255
3 175 174 183 255 255 255
3 132 137 185 255 255 255
3 133 182 186 255 255 255
3 134 172 106 255 255 255
3 134 44 172 255 255 255
3 217 272 44 255 255 255
3 135 146 184 255 255 255
3 188 225 166 255 255 255
3 136 187 190 255 255 255
3 185 270 175 255 255 255
3 137 125 185 255 255 255
3 182 132 186 255 255 255
3 182 137 132 255 255 255
3 182 79 137 255 255 255
3 134 79 182 255 255 255
3 172 218 179 255 255 255
3 44 218 172 255 255 255
3 44 61 218 255 255 255
3 166 78 135 255 255 255
3 187 331 188 255 255 255
3 187 87 60 255 255 255
3 78 124 136 255 255 255
3 296 269 189 255 255 255
3 173 45 296 255 255 255
3 175 268 173 255 255 255
3 137 271 125 255 255 255
3 134 106 79 255 255 255
3 44 272 61 255 255 255
3 187 219 87 255 255 255
3 124 60 136 255 255 255
3 78 166 124 255 255 255
3 10 272 217 255 255 255
3 189 269 10 255 255 255
3 189 276 275 255 255 255
3 45 269 296 255 255 255
3 175 270 268 255 255 255
3 179 269 175 255 255 255
3 125 277 185 255 255 255
3 79 107 137 255 255 255
3 218 272 179 255 255 255
3 44 196 272 255 255 255
3 331 124 188 255 255 255
3 124 331 60 255 255 255
3 331 188 60 255 255 255
3 10 269 272 255 255 255
3 268 276 173 255 255 255
3 269 45 175 255 255 255
3 179 175 270 255 255 255
3 270 138 179 255 255 255
3 185 96 270 255 255 255
3 271 100 125 255 255 255
3 137 95 271 255 255 255
3 272 269 179 255 255 255
3 44 273 196 255 255 255
3 273 101 196 255 255 255
3 44 102 273 255 255 255
3 124 166 188 255 255 255
3 166 327 188 255 255 255
3 331 166 188 255 255 255
3 78 56 41 255 255 255
3 189 42 103 255 255 255
3 274 52 275 255 255 255
3 275 104 274 255 255 255
3 276 105 275 255 255 255
3 189 105 276 255 255 255
3 173 268 105 255 255 255
3 268 274 276 255 255 255
3 185 277 96 255 255 255
3 277 148 96 255 255 255
3 100 171 125 255 255 255
3 271 167 100 255 255 255
3 137 106 95 255 255 255
3 79 294 107 255 255 255
3 218 44 272 255 255 255
3 101 108 196 255 255 255
3 102 146 273 255 255 255
3 44 218 102 255 255 255
3 188 200 225 255 255 255
3 166 2 327 255 255 255
3 331 136 166 255 255 255
3 187 327 166 255 255 255
3 166 184 187 255 255 255
3 78 101 56 255 255 255
3 103 196 189 255 255 255
3 189 169 42 255 255 255
3 274 45 52 255 255 255
3 104 230 274 255 255 255
3 105 173 276 255 255 255
3 105 174 173 255 255 255
3 173 180 268 255 255 255
3 125 171 277 255 255 255
3 106 62 95 255 255 255
3 107 213 95 255 255 255
3 172 179 138 255 255 255
3 108 189 196 255 255 255
3 40 140 41 255 255 255
3 41 56 122 255 255 255
3 108 122 56 255 255 255
3 169 77 42 255 255 255
3 104 180 230 255 255 255
3 174 54 173 255 255 255
3 170 214 138 255 255 255
3 96 267 270 255 255 255
3 96 30 267 255 255 255
3 171 295 277 255 255 255
3 213 215 95 255 255 255
3 138 214 139 255 255 255
3 214 177 139 255 255 255
3 218 61 102 255 255 255
3 188 298 200 255 255 255
3 140 123 41 255 255 255
3 122 168 41 255 255 255
3 42 216 103 255 255 255
3 169 141 77 255 255 255
3 189 88 169 255 255 255
3 180 175 230 255 255 255
3 105 268 180 255 255 255
3 268 80 105 255 255 255
3 214 267 148 255 255 255
3 148 177 214 255 255 255
3 277 89 148 255 255 255
3 277 130 89 255 255 255
3 295 181 277 255 255 255
3 271 213 167 255 255 255
3 215 34 95 255 255 255
3 40 158 140 255 255 255
3 122 14 168 255 255 255
3 103 216 14 255 255 255
3 216 81 14 255 255 255
3 169 127 141 255 255 255
3 189 217 88 255 255 255
3 148 178 177 255 255 255
3 148 89 178 255 255 255
3 181 58 277 255 255 255
3 295 130 181 255 255 255
3 171 181 121 255 255 255
3 181 297 121 255 255 255
3 171 277 181 255 255 255
3 43 49 167 255 255 255
3 167 215 43 255 255 255
3 107 213 271 255 255 255
3 271 223 107 255 255 255
3 294 279 107 255 255 255
3 252 298 200 255 255 255
3 123 78 41 255 255 255
3 41 168 40 255 255 255
3 168 198 40 255 255 255
3 109 198 168 255 255 255
3 103 14 122 255 255 255
3 77 216 42 255 255 255
3 141 126 77 255 255 255
3 217 136 88 255 255 255
3 105 268 229 255 255 255
3 80 229 268 255 255 255
3 178 171 177 255 255 255
3 121 82 171 255 255 255
3 297 295 121 255 255 255
3 43 171 49 255 255 255
3 253 17 43 255 255 255
3 43 176 253 255 255 255
3 79 294 241 255 255 255
3 278 241 79 255 255 255
3 139 170 138 255 255 255
3 250 128 139 255 255 255
3 139 177 250 255 255 255
3 298 204 200 255 255 255
3 123 140 254 255 255 255
3 140 87 254 255 255 255
3 158 300 140 255 255 255
3 40 198 12 255 255 255
3 168 14 109 255 255 255
3 122 196 103 255 255 255
3 81 216 255 255 255 255
3 126 216 77 255 255 255
3 127 221 141 255 255 255
3 229 57 268 255 255 255
3 80 105 229 255 255 255
3 96 329 30 255 255 255
3 299 191 89 255 255 255
3 82 49 171 255 255 255
3 294 282 279 255 255 255
3 294 278 241 255 255 255
3 278 65 241 255 255 255
3 128 172 139 255 255 255
3 250 83 128 255 255 255
3 254 219 123 255 255 255
3 11 300 158 255 255 255
3 11 85 300 255 255 255
3 12 158 40 255 255 255
3 13 64 12 255 255 255
3 12 198 13 255 255 255
3 14 220 109 255 255 255
3 126 84 216 255 255 255
3 216 260 77 255 255 255
3 169 46 127 255 255 255
3 229 80 57 255 255 255
3 171 43 177 255 255 255
3 299 16 191 255 255 255
3 279 280 107 255 255 255
3 280 282 278 255 255 255
3 83 244 128 255 255 255
3 219 136 123 255 255 255
3 140 232 25 255 255 255
3 300 85 140 255 255 255
3 301 13 12 255 255 255
3 13 258 64 255 255 255
3 126 289 84 255 255 255
3 129 302 130 255 255 255
3 130 295 129 255 255 255
3 297 156 295 255 255 255
3 121 257 82 255 255 255
3 121 43 228 255 255 255
3 181 303 297 255 255 255
3 281 283 167 255 255 255
3 253 160 17 255 255 255
3 15 213 167 255 255 255
3 282 280 279 255 255 255
3 278 223 280 255 255 255
3 128 106 172 255 255 255
3 83 106 244 255 255 255
3 170 139 214 255 255 255
3 198 222 99 255 255 255
3 109 222 198 255 255 255
3 255 220 81 255 255 255
3 126 77 289 255 255 255
3 127 19 221 255 255 255
3 46 232 127 255 255 255
3 16 329 191 255 255 255
3 302 58 130 255 255 255
3 295 112 129 255 255 255
3 156 257 295 255 255 255
3 228 73 121 255 255 255
3 121 49 43 255 255 255
3 181 302 303 255 255 255
3 181 89 302 255 255 255
3 167 224 281 255 255 255
3 17 228 43 255 255 255
3 176 74 253 255 255 255
3 18 74 176 255 255 255
3 15 34 213 255 255 255
3 167 18 15 255 255 255
3 83 62 106 255 255 255
3 219 88 136 255 255 255
3 198 314 256 255 255 255
3 220 142 109 255 255 255
3 255 151 220 255 255 255
3 47 97 255 255 255 255
3 77 308 289 255 255 255
3 221 47 141 255 255 255
3 19 24 221 255 255 255
3 303 302 129 255 255 255
3 295 50 112 255 255 255
3 82 73 49 255 255 255
3 48 224 82 255 255 255
3 82 281 48 255 255 255
3 121 73 257 255 255 255
3 303 94 297 255 255 255
3 224 48 281 255 255 255
3 167 49 224 255 255 255
3 253 74 160 255 255 255
3 18 160 74 255 255 255
3 157 70 160 255 255 255
3 139 18 157 255 255 255
3 139 244 18 255 255 255
3 62 137 106 255 255 255
3 232 66 127 255 255 255
3 198 256 13 255 255 255
3 314 315 256 255 255 255
3 198 99 314 255 255 255
3 222 203 161 255 255 255
3 109 203 222 255 255 255
3 255 97 151 255 255 255
3 255 84 47 255 255 255
3 308 258 289 255 255 255
3 77 260 308 255 255 255
3 127 284 19 255 255 255
3 297 94 156 255 255 255
3 228 22 49 255 255 255
3 49 73 228 255 255 255
3 82 257 73 255 255 255
3 48 283 224 255 255 255
3 82 283 281 255 255 255
3 73 86 257 255 255 255
3 17 70 228 255 255 255
3 160 74 17 255 255 255
3 18 250 157 255 255 255
3 232 140 85 255 255 255
3 11 12 64 255 255 255
3 64 85 11 255 255 255
3 256 161 13 255 255 255
3 99 162 314 255 255 255
3 161 162 222 255 255 255
3 220 151 142 255 255 255
3 84 141 47 255 255 255
3 329 202 191 255 255 255
3 112 210 129 255 255 255
3 50 156 112 255 255 255
3 156 86 257 255 255 255
3 94 201 156 255 255 255
3 73 234 86 255 255 255
3 257 234 73 255 255 255
3 283 167 224 255 255 255
3 70 110 228 255 255 255
3 74 113 160 255 255 255
3 18 83 250 255 255 255
3 157 113 70 255 255 255
3 85 66 232 255 255 255
3 85 67 66 255 255 255
3 64 67 85 255 255 255
3 258 11 64 255 255 255
3 256 317 161 255 255 255
3 161 316 162 255 255 255
3 142 153 203 255 255 255
3 151 259 142 255 255 255
3 151 98 205 255 255 255
3 97 98 151 255 255 255
3 47 131 97 255 255 255
3 329 16 202 255 255 255
3 112 35 210 255 255 255
3 112 201 35 255 255 255
3 50 295 156 255 255 255
3 86 234 257 255 255 255
3 94 303 35 255 255 255
3 86 318 234 255 255 255
3 234 152 86 255 255 255
3 236 164 228 255 255 255
3 228 110 236 255 255 255
3 74 70 113 255 255 255
3 250 160 157 255 255 255
3 85 68 67 255 255 255
3 161 289 258 255 255 255
3 256 319 317 255 255 255
3 315 319 256 255 255 255
3 162 245 314 255 255 255
3 153 131 203 255 255 255
3 142 205 153 255 255 255
3 151 205 259 255 255 255
3 97 233 98 255 255 255
3 259 233 97 255 255 255
3 47 242 131 255 255 255
3 260 46 308 255 255 255
3 35 163 94 255 255 255
3 228 55 22 255 255 255
3 303 129 210 255 255 255
3 70 143 110 255 255 255
3 113 157 160 255 255 255
3 70 159 113 255 255 255
3 113 92 70 255 255 255
3 74 291 113 255 255 255
3 284 304 66 255 255 255
3 85 11 68 255 255 255
3 11 67 64 255 255 255
3 13 161 258 255 255 255
3 142 151 205 255 255 255
3 205 153 259 255 255 255
3 46 25 308 255 255 255
3 318 286 234 255 255 255
3 35 145 163 255 255 255
3 152 147 318 255 255 255
3 236 143 164 255 255 255
3 110 51 236 255 255 255
3 110 194 51 255 255 255
3 304 69 66 255 255 255
3 285 304 66 255 255 255
3 85 38 11 255 255 255
3 85 69 38 255 255 255
3 161 317 316 255 255 255
3 316 245 162 255 255 255
3 242 289 161 255 255 255
3 19 284 304 255 255 255
3 286 195 234 255 255 255
3 201 210 112 255 255 255
3 261 197 94 255 255 255
3 143 28 110 255 255 255
3 70 291 143 255 255 255
3 291 325 113 255 255 255
3 317 246 316 255 255 255
3 205 192 309 255 255 255
3 201 145 35 255 255 255
3 286 6 195 255 255 255
3 318 76 286 255 255 255
3 201 35 210 255 255 255
3 197 114 94 255 255 255
3 163 206 94 255 255 255
3 152 76 147 255 255 255
3 152 234 76 255 255 255
3 291 159 325 255 255 255
3 304 305 0 255 255 255
3 319 247 317 255 255 255
3 314 245 315 255 255 255
3 205 98 192 255 255 255
3 309 98 233 255 255 255
3 233 205 309 255 255 255
3 304 0 19 255 255 255
3 35 208 201 255 255 255
3 201 114 145 255 255 255
3 201 94 114 255 255 255
3 195 86 234 255 255 255
3 147 116 318 255 255 255
3 35 303 210 255 255 255
3 261 323 197 255 255 255
3 206 323 261 255 255 255
3 32 197 147 255 255 255
3 194 307 236 255 255 255
3 194 1 307 255 255 255
3 28 324 110 255 255 255
3 143 236 28 255 255 255
3 305 154 0 255 255 255
3 320 246 317 255 255 255
3 317 247 320 255 255 255
3 321 243 319 255 255 255
3 316 247 245 255 255 255
3 0 305 19 255 255 255
3 208 5 201 255 255 255
3 195 82 86 255 255 255
3 318 147 76 255 255 255
3 197 32 114 255 255 255
3 147 76 32 255 255 255
3 76 116 147 255 255 255
3 286 111 7 255 255 255
3 20 31 324 255 255 255
3 236 51 28 255 255 255
3 113 325 143 255 255 255
3 305 24 154 255 255 255
3 321 249 243 255 255 255
3 320 247 316 255 255 255
3 233 262 205 255 255 255
3 0 149 305 255 255 255
3 287 48 195 255 255 255
3 195 111 287 255 255 255
3 6 111 195 255 255 255
3 145 323 163 255 255 255
3 7 111 293 255 255 255
3 8 283 9 255 255 255
3 8 286 224 255 255 255
3 9 111 8 255 255 255
3 110 20 194 255 255 255
3 55 143 325 255 255 255
3 55 164 143 255 255 255
3 322 249 321 255 255 255
3 321 243 322 255 255 255
3 0 306 149 255 255 255
3 326 76 116 255 255 255
3 323 193 197 255 255 255
3 145 114 193 255 255 255
3 76 115 32 255 255 255
3 326 115 76 255 255 255
3 111 286 8 255 255 255
3 287 6 9 255 255 255
3 9 281 287 255 255 255
3 236 307 20 255 255 255
3 194 266 1 255 255 255
3 194 324 266 255 255 255
3 20 3 199 255 255 255
3 324 236 20 255 255 255
3 243 249 322 255 255 255
3 306 221 149 255 255 255
3 114 53 193 255 255 255
3 323 145 193 255 255 255
3 330 53 32 255 255 255
3 115 197 32 255 255 255
3 266 263 1 255 255 255
3 199 266 31 255 255 255
3 199 292 20 255 255 255
3 115 326 116 255 255 255
3 116 117 115 255 255 255
3 117 313 115 255 255 255
3 53 197 32 255 255 255
3 118 111 7 255 255 255
3 307 144 20 255 255 255
3 63 93 1 255 255 255
3 1 144 63 255 255 255
3 51 3 20 255 255 255
3 51 20 194 255 255 255
3 115 116 197 255 255 255
3 307 93 144 255 255 255
3 263 144 1 255 255 255
3 165 3 20 255 255 255
3 111 118 293 255 255 255
3 144 165 20 255 255 255
3 263 264 144 255 255 255
3 29 264 263 255 255 255
3 29 23 264 255 255 255
3 165 211 3 255 255 255
3 211 292 3 255 255 255
3 144 71 165 255 255 255
3 263 248 29 255 255 255
3 263 211 248 255 255 255
3 211 263 292 255 255 255
3 310 7 293 255 255 255
3 144 251 71 255 255 255
3 264 251 144 255 255 255
3 248 226 29 255 255 255
3 264 231 251 255 255 255
3 248 265 226 255 255 255
3 248 71 265 255 255 255
3 29 227 23 255 255 255
3 29 90 227 255 255 255
3 251 120 71 255 255 255
3 251 209 120 255 255 255
3 264 155 231 255 255 255
3 36 290 23 255 255 255
3 311 235 310 255 255 255
3 251 23 209 255 255 255
3 155 150 231 255 255 255
3 265 227 226 255 255 255
3 265 328 288 255 255 255
3 71 328 265 255 255 255
3 209 231 150 255 255 255
3 288 90 265 255 255 255
3 312 311 313 255 255 255
3 313 310 155 255 255 255
3 235 237 310 255 255 255
3 311 238 235 255 255 255
3 71 251 328 255 255 255
3 155 237 150 255 255 255
3 288 119 90 255 255 255
3 310 237 155 255 255 255
3 251 120 328 255 255 255
3 71 72 251 255 255 255
3 290 209 23 255 255 255
3 310 313 311 255 255 255
3 313 117 312 255 255 255
3 235 238 237 255 255 255
3 312 238 311 255 255 255
3 328 120 288 255 255 255
3 237 39 150 255 255 255
3 119 288 120 255 255 255
3 312 117 239 255 255 255
3 117 75 239 255 255 255
3 238 39 237 255 255 255
3 120 290 119 255 255 255
3 290 23 119 255 255 255
3 75 59 239 255 255 255
3 238 312 39 255 255 255
3 312 239 39 255 255 255
3 75 240 59 255 255 255
3 117 26 75 255 255 255
3 4 240 75 255 255 255
3 239 207 39 255 255 255
3 240 212 59 255 255 255
3 26 4 75 255 255 255
3 4 212 240 255 255 255
3 207 27 39 255 255 255
3 239 117 207 255 255 255
3 239 26 117 255 255 255
3 239 33 26 255 255 255
3 4 37 212 255 255 255
3 26 91 4 255 255 255
3 26 33 91 255 255 255
3 239 21 33 255 255 255
3 37 33 212 255 255 255
3 21 290 33 255 255 255
3 33 239 212 255 255 255
3 91 33 37 255 255 255
