ply
format ascii 1.0
element vertex 306
property float x
property float y
property float z
element face 576
property list uchar int vertex_indices
property uchar red
property uchar green
property uchar blue
end_header
-8.70400047302246094 2.12800002098083496 -0.865000009536743164
-8.70000076293945312 2.16550016403198242 -0.866500020027160645
-8.68241310119628906 2.12600278854370117 -0.862735331058502197
-8.71183586120605469 2.16586613655090332 -0.842942714691162109
-8.65993213653564453 2.16976189613342285 -0.959009408950805664
-8.65200424194335938 2.18581676483154297 -0.940994024276733398
-8.67875289916992188 2.18377828598022461 -0.928732633590698242
-8.69103145599365234 2.17381715774536133 -0.930128335952758789
-8.69600009918212891 2.13574981689453125 -1.00112497806549072
-8.69499969482421875 2.12700009346008301 -0.973999977111816406
-8.69200038909912109 2.17600011825561523 -0.917999982833862305
-8.68253707885742188 2.1123497486114502 -0.953831195831298828
-8.68117523193359375 2.13678240776062012 -0.939605474472045898
-8.71303844451904297 2.17221879959106445 -0.911704778671264648
-8.68645381927490234 2.16934919357299805 -0.891150295734405518
-8.69021224975585938 2.11136245727539062 -0.856188774108886719
-8.697265625 2.16362333297729492 -0.855503976345062256
-8.74150180816650391 2.16434574127197266 -1.08178412914276123
-8.66804695129394531 2.1466217041015625 -0.829449772834777832
-8.69499969482421875 2.21300005912780762 -1.06400001049041748
-8.66542625427246094 2.16807055473327637 -0.928283095359802246
-8.72199630737304688 2.12898659706115723 -0.852030098438262939
-8.68400001525878906 2.14299988746643066 -1.01699995994567871
-8.67279338836669922 2.16347336769104004 -1.00017154216766357
-8.72000217437744141 2.16203069686889648 -1.00201296806335449
-8.71620750427246094 2.15503120422363281 -1.07063305377960205
-8.68835258483886719 2.16046738624572754 -1.09298765659332275
-8.69724845886230469 2.18216896057128906 -1.01061928272247314
-8.70307445526123047 2.18030810356140137 -1.0216069221496582
-8.71603107452392578 2.18239355087280273 -1.01431524753570557
-8.72418594360351562 2.18346357345581055 -1.03986752033233643
-8.72579288482666016 2.17524099349975586 -1.04618370532989502
-8.66909885406494141 2.17201948165893555 -1.03367054462432861
-8.67899990081787109 2.13400006294250488 -1
-8.69000339508056641 2.12917566299438477 -0.97990119457244873
-8.67892742156982422 2.1345982551574707 -0.965093374252319336
-8.66348648071289062 2.18238043785095215 -0.943770945072174072
-8.67098045349121094 2.1875154972076416 -0.949417829513549805
-8.68396663665771484 2.16144657135009766 -1.00549161434173584
-8.66751480102539062 2.14129996299743652 -0.849578738212585449
-8.72138595581054688 2.11715531349182129 -0.84232407808303833
-8.71011734008789062 2.14136648178100586 -1.03948593139648438
-8.67348957061767578 2.13365387916564941 -0.947195529937744141
-8.68700027465820312 2.15400004386901855 -0.874000012874603271
-8.72799968719482422 2.16300010681152344 -0.857999980449676514
-8.67199993133544922 2.20099997520446777 -1.09700000286102295
-8.70276546478271484 2.12123584747314453 -0.921303629875183105
-8.72509098052978516 2.18282914161682129 -0.878075718879699707
-8.66628646850585938 2.12028813362121582 -0.859532475471496582
-8.69612503051757812 2.11642336845397949 -0.837492048740386963
-8.70499992370605469 2.1530001163482666 -1.07299995422363281
-8.71000003814697266 2.12400007247924805 -0.917500019073486328
-8.73351478576660156 2.17829656600952148 -0.850581645965576172
-8.69299983978271484 2.15199995040893555 -1.08399999141693115
-8.68844413757324219 2.11801671981811523 -0.831498861312866211
-8.71827507019042969 2.17241954803466797 -0.895425498485565186
-8.67000007629394531 2.14199995994567871 -0.864000022411346436
-8.72799968719482422 2.16100001335144043 -1.08000004291534424
-8.70199966430664062 2.13199996948242188 -0.981999993324279785
-8.68250083923339844 2.14849996566772461 -1.08150005340576172
-8.72760295867919922 2.15073227882385254 -0.848739147186279297
-8.66466045379638672 2.18251776695251465 -0.95969313383102417
-8.70824527740478516 2.18478918075561523 -0.911529004573822021
-8.71500015258789062 2.14499998092651367 -0.939999997615814209
-8.71000003814697266 2.13499999046325684 -0.94300001859664917
-8.70492076873779297 2.12093472480773926 -0.946570336818695068
-8.69092941284179688 2.11539506912231445 -0.96648639440536499
-8.68675041198730469 2.11774992942810059 -0.967750012874603271
-8.65235996246337891 2.17383694648742676 -0.931013524532318115
-8.70561408996582031 2.14688301086425781 -0.919418752193450928
-8.68862247467041016 2.14844274520874023 -0.92157977819442749
-8.68320369720458984 2.15997672080993652 -0.893588662147521973
-8.68537330627441406 2.14580726623535156 -0.825384020805358887
-8.6959991455078125 2.13849997520446777 -0.874500036239624023
-8.71599960327148438 2.13899993896484375 -0.973999977111816406
-8.68286228179931641 2.16425108909606934 -0.849531352519989014
-8.69700050354003906 2.13299989700317383 -0.830999970436096191
-8.71328067779541016 2.17881417274475098 -0.854611694812774658
-8.72690010070800781 2.15717458724975586 -1.01668882369995117
-8.70199966430664062 2.16300010681152344 -1.09899997711181641
-8.7089996337890625 2.17899990081787109 -0.898000001907348633
-8.69750022888183594 2.17899990081787109 -0.90149998664855957
-8.68799972534179688 2.10899996757507324 -0.861999988555908203
-8.68812656402587891 2.13924360275268555 -1.01176798343658447
-8.70997714996337891 2.14899611473083496 -1.02009618282318115
-8.73443794250488281 2.16134452819824219 -0.870540022850036621
-8.68799972534179688 2.13899993896484375 -1.02799999713897705
-8.73151588439941406 2.18487000465393066 -0.867372572422027588
-8.67853832244873047 2.15066361427307129 -1.08958864212036133
-8.71150016784667969 2.1595001220703125 -1.09599995613098145
-8.67224979400634766 2.1191248893737793 -0.84375
-8.72384834289550781 2.17663073539733887 -0.847800910472869873
-8.7089996337890625 2.16300010681152344 -1.09099996089935303
-8.71743106842041016 2.20571303367614746 -1.10124635696411133
-8.72900009155273438 2.17899990081787109 -1.00999999046325684
-8.72091197967529297 2.19737482070922852 -1.08878731727600098
-8.71899986267089844 2.19799995422363281 -1.10199999809265137
-8.66242313385009766 2.20347213745117188 -1.08707284927368164
-8.71517753601074219 2.19728302955627441 -1.07482147216796875
-8.67434597015380859 2.19602036476135254 -1.04765200614929199
-8.69088268280029297 2.20816755294799805 -1.05828619003295898
-8.67599964141845703 2.20099997520446777 -1.06599998474121094
-8.69695663452148438 2.2219235897064209 -1.07765793800354004
-8.67412662506103516 2.16107654571533203 -0.925975561141967773
-8.66499996185302734 2.19600009918212891 -1.08750009536743164
-8.73193359375 2.17463207244873047 -1.04227018356323242
-8.71899986267089844 2.18199992179870605 -0.880999982357025146
-8.69269561767578125 2.11926794052124023 -0.935191810131072998
-8.72299957275390625 2.15700006484985352 -1.09399998188018799
-8.70600032806396484 2.15199995040893555 -0.897000014781951904
-8.67352008819580078 2.12773513793945312 -0.872655749320983887
-8.66800022125244141 2.1380000114440918 -0.837999999523162842
-8.70250034332275391 2.21649980545043945 -1.09924995899200439
-8.69699954986572266 2.18300008773803711 -0.940999984741210938
-8.71327972412109375 2.17977762222290039 -0.945838630199432373
-8.71200656890869141 2.17299914360046387 -0.946143031120300293
-8.7089996337890625 2.14400005340576172 -0.961000025272369385
-8.70446872711181641 2.13826370239257812 -0.991167604923248291
-8.68200016021728516 2.13700008392333984 -0.987999975681304932
-8.67049980163574219 2.18300008773803711 -0.930999994277954102
-8.70462417602539062 2.17458796501159668 -0.929008960723876953
-8.71199989318847656 2.15700006484985352 -0.94850003719329834
-8.68325042724609375 2.12337493896484375 -0.953125
-8.69630813598632812 2.14077568054199219 -0.888322293758392334
-8.73424816131591797 2.15077972412109375 -0.863013088703155518
-8.67540264129638672 2.1504967212677002 -0.836375892162322998
-8.694000244140625 2.12599992752075195 -0.980000019073486328
-8.68919849395751953 2.18190193176269531 -1.09736537933349609
-8.73262405395507812 2.15485048294067383 -1.03877401351928711
-8.68849945068359375 2.15999984741210938 -0.90149998664855957
-8.72137451171875 2.14825010299682617 -0.873687505722045898
-8.71456718444824219 2.12578868865966797 -0.838450133800506592
-8.66888332366943359 2.17880034446716309 -1.00639176368713379
-8.70731163024902344 2.18117046356201172 -0.960844278335571289
-8.71266841888427734 2.16439723968505859 -0.967103242874145508
-8.71700000762939453 2.16100001335144043 -1.08399999141693115
-8.71313953399658203 2.16267657279968262 -0.959401905536651611
-8.71399974822998047 2.14599990844726562 -0.972000002861022949
-8.68149948120117188 2.13875007629394531 -0.97500002384185791
-8.67418861389160156 2.14164948463439941 -0.951294183731079102
-8.70432853698730469 2.1867530345916748 -0.953552484512329102
-8.70600032806396484 2.15400004386901855 -0.982999980449676514
-8.694000244140625 2.13700008392333984 -0.990000009536743164
-8.73265743255615234 2.1585087776184082 -1.02759432792663574
-8.67708206176757812 2.14532613754272461 -0.877146601676940918
-8.68200016021728516 2.15499997138977051 -1.03900003433227539
-8.72213459014892578 2.14044404029846191 -0.842734098434448242
-8.68254661560058594 2.15628623962402344 -0.853684365749359131
-8.702117919921875 2.15009450912475586 -0.830754399299621582
-8.72569656372070312 2.18523311614990234 -0.856568515300750732
-8.71500015258789062 2.1679999828338623 -1.00300002098083496
-8.72000026702880859 2.15199995040893555 -0.93900001049041748
-8.66510486602783203 2.17468547821044922 -0.933594346046447754
-8.67800045013427734 2.17700004577636719 -0.922999978065490723
-8.70972824096679688 2.16281414031982422 -0.934779524803161621
-8.70800018310546875 2.15599989891052246 -1.09000003337860107
-8.67767047882080078 2.14291787147521973 -0.936816811561584473
-8.68900012969970703 2.17300009727478027 -0.922999978065490723
-8.71604824066162109 2.16669392585754395 -0.926471590995788574
-8.67050743103027344 2.16398906707763672 -0.988480687141418457
-8.67525005340576172 2.1692500114440918 -0.983000040054321289
-8.67992591857910156 2.14999008178710938 -0.980011701583862305
-8.67701053619384766 2.18416118621826172 -0.975805580615997314
-8.69639110565185547 2.18528056144714355 -0.97312241792678833
-8.69162273406982422 2.18328261375427246 -0.961841881275177002
-8.716156005859375 2.16462588310241699 -0.980362772941589355
-8.67700004577636719 2.1400001049041748 -0.985000014305114746
-8.67275047302246094 2.15883612632751465 -0.969930350780487061
-8.68550014495849609 2.1380000114440918 -0.993999958038330078
-8.71581745147705078 2.15566015243530273 -0.909839153289794922
-8.70934391021728516 2.14332866668701172 -0.87638324499130249
-8.72050285339355469 2.14919900894165039 -1.04110085964202881
-8.68900012969970703 2.13299989700317383 -1.03199994564056396
-8.69699954986572266 2.15000009536743164 -1.09099996089935303
-8.70172023773193359 2.16629600524902344 -0.851167798042297363
-8.67938613891601562 2.10369992256164551 -0.851378321647644043
-8.71484088897705078 2.15888237953186035 -0.843940079212188721
-8.67572212219238281 2.16319465637207031 -1.07920551300048828
-8.72939395904541016 2.15694260597229004 -1.0452876091003418
-8.70188617706298828 2.20302772521972656 -1.10658955574035645
-8.71355819702148438 2.18965339660644531 -1.05029439926147461
-8.71109867095947266 2.22142362594604492 -1.09670829772949219
-8.68306922912597656 2.18875575065612793 -1.02882897853851318
-8.69600009918212891 2.19199991226196289 -1.03100001811981201
-8.70699977874755859 2.19600009918212891 -1.02900004386901855
-8.71800041198730469 2.18400001525878906 -1.02999997138977051
-8.72994899749755859 2.2022244930267334 -1.03691756725311279
-8.71824264526367188 2.17550873756408691 -1.06328010559082031
-8.7089996337890625 2.14299988746643066 -0.922999978065490723
-8.69449996948242188 2.17849993705749512 -0.90474998950958252
-8.68449974060058594 2.1529998779296875 -1.07150006294250488
-8.70300006866455078 2.16199994087219238 -0.88200002908706665
-8.66899967193603516 2.18700003623962402 -1.09899997711181641
-8.69600009918212891 2.18000006675720215 -1.09399998188018799
-8.66899967193603516 2.18000006675720215 -1.01199996471405029
-8.68516254425048828 2.18608903884887695 -1.0182645320892334
-8.72487831115722656 2.18475580215454102 -1.02857744693756104
-8.73211288452148438 2.20221924781799316 -1.08127427101135254
-8.73200893402099609 2.21292948722839355 -1.1000065803527832
-8.67507171630859375 2.18700623512268066 -1.07784616947174072
-8.67666912078857422 2.17951369285583496 -1.06900262832641602
-8.67057037353515625 2.18704390525817871 -1.03143835067749023
-8.66449928283691406 2.17400002479553223 -1.01800000667572021
-8.68700027465820312 2.17799997329711914 -1.09200000762939453
-8.72999954223632812 2.15849995613098145 -1.07700002193450928
-8.7078399658203125 2.18953704833984375 -1.09084939956665039
-8.69230270385742188 2.15442180633544922 -1.06254637241363525
-8.703125 2.13770508766174316 -1.01398217678070068
-8.70346927642822266 2.1477360725402832 -1.00008118152618408
-8.66047286987304688 2.13174676895141602 -0.849245905876159668
-8.68139743804931641 2.21135187149047852 -1.08489143848419189
-8.70300006866455078 2.14899992942810059 -1.09700000286102295
-8.67897415161132812 2.11981916427612305 -0.830293595790863037
-8.72700023651123047 2.17100000381469727 -1.07500004768371582
-8.67399978637695312 2.21000003814697266 -1.09500002861022949
-8.72637462615966797 2.16199994087219238 -1.06875002384185791
-8.71464920043945312 2.18530440330505371 -1.08332455158233643
-8.68799972534179688 2.20799994468688965 -1.08700001239776611
-8.66445732116699219 2.15931439399719238 -1.06045937538146973
-8.71980476379394531 2.17960524559020996 -1.00400233268737793
-8.7220001220703125 2.16499996185302734 -1.09100008010864258
-8.67000007629394531 2.15400004386901855 -1.06749999523162842
-8.6768951416015625 2.1577763557434082 -1.04455292224884033
-8.71800041198730469 2.15499997138977051 -1.00999999046325684
-8.71800041198730469 2.15700006484985352 -0.884000003337860107
-8.694000244140625 2.17199993133544922 -0.919000029563903809
-8.7089996337890625 2.13100004196166992 -0.873000025749206543
-8.6660003662109375 2.15199995040893555 -0.966000020503997803
-8.67905426025390625 2.18289613723754883 -0.967305839061737061
-8.70607566833496094 2.13393092155456543 -1.03329277038574219
-8.69171237945556641 2.1838836669921875 -0.950116932392120361
-8.67224025726318359 2.16347098350524902 -1.03888845443725586
-8.66800880432128906 2.17100405693054199 -1.01903104782104492
-8.68400001525878906 2.19499993324279785 -1.09899997711181641
-8.72900009155273438 2.17400002479553223 -1.02100002765655518
-8.67700004577636719 2.15199995040893555 -1.03199994564056396
-8.72226238250732422 2.16873836517333984 -1.08889472484588623
-8.66300010681152344 2.19799995422363281 -1.09899997711181641
-8.66800022125244141 2.17799997329711914 -1.0130000114440918
-8.72884941101074219 2.15564632415771484 -1.06195449829101562
-8.69717693328857422 2.22441577911376953 -1.09345531463623047
-8.66878128051757812 2.18660950660705566 -1.05063974857330322
-8.67523193359375 2.16534137725830078 -1.02218103408813477
-8.69512462615966797 2.12607502937316895 -0.964006900787353516
-8.66898441314697266 2.15275025367736816 -0.942736208438873291
-8.71350002288818359 2.13925004005432129 -0.949750006198883057
-8.70499992370605469 2.13599991798400879 -0.954999983310699463
-8.72200202941894531 2.15398716926574707 -0.921991169452667236
-8.72757530212402344 2.16137075424194336 -0.911213934421539307
-8.71383190155029297 2.12375497817993164 -0.943850815296173096
-8.7318115234375 2.16497254371643066 -0.899494707584381104
-8.70199966430664062 2.17100000381469727 -0.898999989032745361
-8.72599983215332031 2.17199993133544922 -0.888999998569488525
-8.69911098480224609 2.15057635307312012 -0.903655588626861572
-8.68809700012207031 2.13613271713256836 -0.918199360370635986
-8.73000335693359375 2.16217923164367676 -0.881051957607269287
-8.69283199310302734 2.14491653442382812 -1.09145998954772949
-8.70499992370605469 2.14899992942810059 -0.889999985694885254
-8.71035861968994141 2.11520743370056152 -0.84736025333404541
-8.68799972534179688 2.2070000171661377 -1.06599998474121094
-8.70750045776367188 2.17150020599365234 -0.877499997615814209
-8.69398021697998047 2.11701083183288574 -0.92400282621383667
-8.67301273345947266 2.18469953536987305 -1.05987679958343506
-8.71840190887451172 2.15190267562866211 -1.06181466579437256
-8.68999958038330078 2.14700007438659668 -1.04799997806549072
-8.70300006866455078 2.15199995040893555 -1.05099999904632568
-8.68771457672119141 2.1452183723449707 -1.00948858261108398
-8.67000007629394531 2.14462494850158691 -0.852499961853027344
-8.67768096923828125 2.11394643783569336 -0.852486371994018555
-8.69259262084960938 2.15694642066955566 -0.828918516635894775
-8.72399997711181641 2.14899992942810059 -0.924000024795532227
-8.68799972534179688 2.11700010299682617 -0.973999977111816406
-8.68262481689453125 2.17925000190734863 -0.999125003814697266
-8.68504619598388672 2.18411755561828613 -0.982976794242858887
-8.69621658325195312 2.17736959457397461 -0.98751598596572876
-8.70442676544189453 2.17546844482421875 -0.998792290687561035
-8.71027851104736328 2.16458439826965332 -0.989426374435424805
-8.69666004180908203 2.20322799682617188 -1.10217916965484619
-8.66461181640625 2.21136665344238281 -1.10103213787078857
-8.67399978637695312 2.18899989128112793 -1.09300005435943604
-8.70021915435791016 2.21763920783996582 -1.06707298755645752
-8.71190547943115234 2.20720481872558594 -1.06392180919647217
-8.68630027770996094 2.14692378044128418 -0.911901473999023438
-8.72344398498535156 2.1333770751953125 -0.864539861679077148
-8.69350051879882812 2.11899995803833008 -0.858000040054321289
-8.65900039672851562 2.17499995231628418 -1.02900004386901855
-8.72599983215332031 2.17000007629394531 -0.879000008106231689
-8.68235492706298828 2.20589041709899902 -1.03883790969848633
-8.73571109771728516 2.17308545112609863 -0.868165254592895508
-8.71399974822998047 2.15700006484985352 -0.894999980926513672
-8.70120429992675781 2.1620783805847168 -1.10284936428070068
-8.7021484375 2.17180180549621582 -0.869546771049499512
-8.69299983978271484 2.20399999618530273 -1.03199994564056396
-8.71378898620605469 2.20026874542236328 -1.03608894348144531
-8.72299957275390625 2.20099997520446777 -1.0429999828338623
-8.73150253295898438 2.18743133544921875 -1.07805967330932617
-8.71560382843017578 2.21376228332519531 -1.08359479904174805
-8.68499946594238281 2.21231245994567871 -1.07106256484985352
-8.67029953002929688 2.20765876770019531 -1.0805974006652832
-8.70908832550048828 2.20078325271606445 -1.050223708152771
-8.71300029754638672 2.19000005722045898 -1.06200003623962402
-8.66962432861328125 2.19843745231628418 -1.07624995708465576
-8.70499992370605469 2.1400001049041748 -1.00399994850158691
-8.68901824951171875 2.14346051216125488 -0.896362125873565674
-8.71100044250488281 2.15799999237060547 -1.08500003814697266
-8.71199989318847656 2.12800002098083496 -0.926999986171722412
3 280 100 102 255 255 255
3 280 281 100 255 255 255
3 102 100 259 255 255 255
3 100 101 259 255 255 255
3 101 297 259 255 255 255
3 100 99 101 255 255 255
3 99 241 101 255 255 255
3 100 287 99 255 255 255
3 281 299 100 255 255 255
3 101 298 297 255 255 255
3 241 262 101 255 255 255
3 281 180 299 255 255 255
3 280 296 281 255 255 255
3 102 240 280 255 255 255
3 262 301 101 255 255 255
3 287 201 99 255 255 255
3 100 299 287 255 255 255
3 180 294 299 255 255 255
3 281 300 180 255 255 255
3 281 296 98 255 255 255
3 296 197 98 255 255 255
3 280 240 296 255 255 255
3 297 19 259 255 255 255
3 298 210 297 255 255 255
3 101 301 298 255 255 255
3 99 32 241 255 255 255
3 287 182 201 255 255 255
3 299 292 287 255 255 255
3 299 293 292 255 255 255
3 299 294 293 255 255 255
3 300 187 180 255 255 255
3 281 98 300 255 255 255
3 98 295 300 255 255 255
3 240 181 296 255 255 255
3 102 210 240 255 255 255
3 102 19 297 255 255 255
3 262 199 301 255 255 255
3 99 201 32 255 255 255
3 287 292 182 255 255 255
3 292 183 182 255 255 255
3 293 184 292 255 255 255
3 293 185 184 255 255 255
3 294 186 293 255 255 255
3 295 187 300 255 255 255
3 295 213 187 255 255 255
3 296 198 197 255 255 255
3 181 198 296 255 255 255
3 102 297 210 255 255 255
3 298 214 210 255 255 255
3 262 200 199 255 255 255
3 241 218 262 255 255 255
3 182 194 201 255 255 255
3 183 195 182 255 255 255
3 292 184 183 255 255 255
3 184 28 183 255 255 255
3 185 28 184 255 255 255
3 293 196 185 255 255 255
3 186 196 293 255 255 255
3 186 30 196 255 255 255
3 294 30 186 255 255 255
3 180 30 294 255 255 255
3 187 31 180 255 255 255
3 213 215 187 255 255 255
3 98 197 295 255 255 255
3 240 217 277 255 255 255
3 214 217 210 255 255 255
3 298 97 214 255 255 255
3 97 278 214 255 255 255
3 298 301 97 255 255 255
3 97 237 278 255 255 255
3 301 104 97 255 255 255
3 262 218 200 255 255 255
3 241 231 218 255 255 255
3 32 231 241 255 255 255
3 194 202 201 255 255 255
3 194 238 202 255 255 255
3 182 132 194 255 255 255
3 195 132 182 255 255 255
3 195 272 132 255 255 255
3 183 28 195 255 255 255
3 185 29 28 255 255 255
3 196 29 185 255 255 255
3 180 31 30 255 255 255
3 187 178 31 255 255 255
3 295 216 213 255 255 255
3 197 198 295 255 255 255
3 198 95 295 255 255 255
3 240 210 217 255 255 255
3 214 233 217 255 255 255
3 301 199 104 255 255 255
3 199 279 104 255 255 255
3 200 203 199 255 255 255
3 201 232 32 255 255 255
3 202 285 201 255 255 255
3 194 132 238 255 255 255
3 195 27 272 255 255 255
3 27 195 28 255 255 255
3 28 29 27 255 255 255
3 29 275 27 255 255 255
3 196 94 29 255 255 255
3 196 234 94 255 255 255
3 30 105 196 255 255 255
3 30 31 105 255 255 255
3 31 178 105 255 255 255
3 187 239 178 255 255 255
3 215 239 187 255 255 255
3 213 17 215 255 255 255
3 216 236 213 255 255 255
3 295 95 216 255 255 255
3 198 93 95 255 255 255
3 93 96 95 255 255 255
3 217 233 277 255 255 255
3 214 45 233 255 255 255
3 278 45 214 255 255 255
3 278 237 45 255 255 255
3 237 192 45 255 255 255
3 97 192 237 255 255 255
3 97 104 192 255 255 255
3 279 45 104 255 255 255
3 203 279 199 255 255 255
3 203 127 279 255 255 255
3 200 26 203 255 255 255
3 200 218 177 255 255 255
3 218 221 177 255 255 255
3 231 222 218 255 255 255
3 32 242 231 255 255 255
3 232 242 32 255 255 255
3 201 238 232 255 255 255
3 202 232 285 255 255 255
3 238 23 202 255 255 255
3 272 159 132 255 255 255
3 29 219 275 255 255 255
3 94 219 29 255 255 255
3 234 78 94 255 255 255
3 196 105 234 255 255 255
3 178 128 105 255 255 255
3 213 236 17 255 255 255
3 95 205 216 255 255 255
3 96 205 95 255 255 255
3 96 179 205 255 255 255
3 93 179 96 255 255 255
3 93 112 179 255 255 255
3 198 181 93 255 255 255
3 179 112 277 255 255 255
3 233 127 277 255 255 255
3 279 233 45 255 255 255
3 127 192 279 255 255 255
3 26 127 203 255 255 255
3 26 290 127 255 255 255
3 200 177 26 255 255 255
3 221 88 177 255 255 255
3 221 59 88 255 255 255
3 222 221 218 255 255 255
3 231 235 222 255 255 255
3 235 145 222 255 255 255
3 235 86 145 255 255 255
3 231 242 235 255 255 255
3 232 23 242 255 255 255
3 202 23 232 255 255 255
3 27 274 272 255 255 255
3 27 275 274 255 255 255
3 219 276 275 255 255 255
3 94 24 219 255 255 255
3 234 143 78 255 255 255
3 178 171 128 255 255 255
3 215 204 239 255 255 255
3 220 17 236 255 255 255
3 220 108 17 255 255 255
3 236 92 220 255 255 255
3 93 181 112 255 255 255
3 277 205 179 255 255 255
3 127 193 277 255 255 255
3 221 190 59 255 255 255
3 222 190 221 255 255 255
3 222 206 190 255 255 255
3 222 145 206 255 255 255
3 235 22 86 255 255 255
3 23 38 242 255 255 255
3 23 132 159 255 255 255
3 272 273 159 255 255 255
3 273 160 159 255 255 255
3 273 162 160 255 255 255
3 274 273 272 255 255 255
3 275 165 274 255 255 255
3 276 165 275 255 255 255
3 219 150 276 255 255 255
3 24 150 219 255 255 255
3 24 276 150 255 255 255
3 128 143 105 255 255 255
3 178 239 171 255 255 255
3 239 41 171 255 255 255
3 25 263 239 255 255 255
3 239 204 25 255 255 255
3 17 204 215 255 255 255
3 220 89 108 255 255 255
3 92 79 220 255 255 255
3 236 135 92 255 255 255
3 193 205 277 255 255 255
3 127 79 193 255 255 255
3 26 256 290 255 255 255
3 177 88 26 255 255 255
3 88 256 26 255 255 255
3 59 256 88 255 255 255
3 190 53 59 255 255 255
3 22 83 86 255 255 255
3 159 161 23 255 255 255
3 274 163 273 255 255 255
3 171 143 128 255 255 255
3 239 263 41 255 255 255
3 263 265 41 255 255 255
3 25 50 263 255 255 255
3 204 135 25 255 255 255
3 17 108 204 255 255 255
3 108 57 204 255 255 255
3 92 155 79 255 255 255
3 135 304 92 255 255 255
3 236 57 135 255 255 255
3 205 193 216 255 255 255
3 181 240 112 255 255 255
3 240 277 112 255 255 255
3 127 290 79 255 255 255
3 290 89 79 255 255 255
3 256 211 290 255 255 255
3 53 256 59 255 255 255
3 206 50 190 255 255 255
3 83 172 86 255 255 255
3 23 161 38 255 255 255
3 160 167 159 255 255 255
3 273 163 162 255 255 255
3 274 165 163 255 255 255
3 78 223 24 255 255 255
3 171 41 143 255 255 255
3 25 304 50 255 255 255
3 89 155 108 255 255 255
3 290 211 89 255 255 255
3 155 173 79 255 255 255
3 53 173 256 255 255 255
3 50 53 190 255 255 255
3 206 265 263 255 255 255
3 206 264 265 255 255 255
3 264 41 265 255 255 255
3 206 145 264 255 255 255
3 172 264 86 255 255 255
3 83 229 172 255 255 255
3 22 33 83 255 255 255
3 161 168 38 255 255 255
3 161 138 166 255 255 255
3 159 167 161 255 255 255
3 162 167 160 255 255 255
3 163 164 162 255 255 255
3 164 228 162 255 255 255
3 165 133 163 255 255 255
3 165 134 133 255 255 255
3 78 84 223 255 255 255
3 143 84 78 255 255 255
3 143 41 84 255 255 255
3 41 229 84 255 255 255
3 229 207 84 255 255 255
3 89 211 155 255 255 255
3 173 211 256 255 255 255
3 83 207 229 255 255 255
3 33 8 83 255 255 255
3 266 22 38 255 255 255
3 161 166 168 255 255 255
3 166 33 168 255 255 255
3 161 227 138 255 255 255
3 167 227 161 255 255 255
3 167 4 227 255 255 255
3 167 61 4 255 255 255
3 162 61 167 255 255 255
3 164 230 228 255 255 255
3 163 133 164 255 255 255
3 165 137 134 255 255 255
3 24 208 276 255 255 255
3 223 208 24 255 255 255
3 223 302 208 255 255 255
3 84 207 223 255 255 255
3 207 302 223 255 255 255
3 207 8 302 255 255 255
3 83 8 207 255 255 255
3 33 168 8 255 255 255
3 168 266 38 255 255 255
3 227 139 138 255 255 255
3 162 228 61 255 255 255
3 228 37 61 255 255 255
3 230 37 228 255 255 255
3 164 140 230 255 255 255
3 133 140 164 255 255 255
3 133 114 140 255 255 255
3 134 114 133 255 255 255
3 136 114 134 255 255 255
3 137 136 134 255 255 255
3 165 141 137 255 255 255
3 168 142 8 255 255 255
3 138 34 166 255 255 255
3 139 35 138 255 255 255
3 139 42 35 255 255 255
3 140 113 230 255 255 255
3 136 115 114 255 255 255
3 137 116 136 255 255 255
3 141 117 137 255 255 255
3 165 276 141 255 255 255
3 302 117 208 255 255 255
3 8 117 302 255 255 255
3 142 117 8 255 255 255
3 142 58 117 255 255 255
3 168 118 142 255 255 255
3 34 118 166 255 255 255
3 35 34 138 255 255 255
3 35 67 34 255 255 255
3 36 5 37 255 255 255
3 37 119 36 255 255 255
3 230 6 37 255 255 255
3 113 6 230 255 255 255
3 114 120 140 255 255 255
3 115 120 114 255 255 255
3 136 245 121 255 255 255
3 116 245 136 255 255 255
3 116 246 245 255 255 255
3 137 74 116 255 255 255
3 117 74 137 255 255 255
3 117 58 74 255 255 255
3 141 208 117 255 255 255
3 208 141 276 255 255 255
3 142 34 58 255 255 255
3 118 34 142 255 255 255
3 35 122 67 255 255 255
3 139 244 42 255 255 255
3 139 4 244 255 255 255
3 227 4 139 255 255 255
3 37 5 61 255 255 255
3 119 5 36 255 255 255
3 37 6 119 255 255 255
3 113 7 6 255 255 255
3 140 120 113 255 255 255
3 120 7 113 255 255 255
3 115 158 120 255 255 255
3 121 115 136 255 255 255
3 116 243 246 255 255 255
3 34 9 58 255 255 255
3 34 271 126 255 255 255
3 122 11 67 255 255 255
3 244 156 42 255 255 255
3 4 68 244 255 255 255
3 61 5 4 255 255 255
3 5 68 4 255 255 255
3 119 152 5 255 255 255
3 6 153 119 255 255 255
3 7 10 6 255 255 255
3 7 120 10 255 255 255
3 120 62 10 255 255 255
3 120 158 13 255 255 255
3 121 154 115 255 255 255
3 151 154 121 255 255 255
3 121 245 151 255 255 255
3 245 63 151 255 255 255
3 245 64 63 255 255 255
3 246 65 245 255 255 255
3 9 243 58 255 255 255
3 122 35 42 255 255 255
3 152 68 5 255 255 255
3 152 20 68 255 255 255
3 153 152 119 255 255 255
3 153 20 152 255 255 255
3 6 10 153 255 255 255
3 10 157 153 255 255 255
3 62 189 10 255 255 255
3 154 158 115 255 255 255
3 154 151 158 255 255 255
3 151 247 158 255 255 255
3 63 270 151 255 255 255
3 64 305 63 255 255 255
3 245 249 64 255 255 255
3 65 249 245 255 255 255
3 246 243 65 255 255 255
3 9 66 243 255 255 255
3 66 271 67 255 255 255
3 67 11 66 255 255 255
3 122 107 11 255 255 255
3 156 12 42 255 255 255
3 68 20 244 255 255 255
3 153 103 20 255 255 255
3 157 103 153 255 255 255
3 10 225 157 255 255 255
3 62 81 189 255 255 255
3 158 55 13 255 255 255
3 247 248 158 255 255 255
3 151 270 247 255 255 255
3 63 188 270 255 255 255
3 64 249 305 255 255 255
3 66 65 243 255 255 255
3 11 107 66 255 255 255
3 122 12 107 255 255 255
3 12 122 42 255 255 255
3 244 20 103 255 255 255
3 225 282 157 255 255 255
3 10 189 225 255 255 255
3 62 120 13 255 255 255
3 13 80 62 255 255 255
3 158 250 55 255 255 255
3 248 250 158 255 255 255
3 270 69 247 255 255 255
3 188 69 270 255 255 255
3 249 51 305 255 255 255
3 9 126 66 255 255 255
3 244 70 156 255 255 255
3 103 70 244 255 255 255
3 282 70 157 255 255 255
3 225 129 282 255 255 255
3 62 80 81 255 255 255
3 80 251 81 255 255 255
3 80 55 251 255 255 255
3 13 55 80 255 255 255
3 250 252 55 255 255 255
3 169 248 247 255 255 255
3 69 169 247 255 255 255
3 69 253 169 255 255 255
3 51 188 305 255 255 255
3 249 46 51 255 255 255
3 12 261 107 255 255 255
3 12 156 261 255 255 255
3 156 70 254 255 255 255
3 70 282 254 255 255 255
3 129 71 282 255 255 255
3 189 251 225 255 255 255
3 81 14 189 255 255 255
3 251 14 81 255 255 255
3 55 289 251 255 255 255
3 252 106 55 255 255 255
3 253 109 169 255 255 255
3 188 254 69 255 255 255
3 156 254 261 255 255 255
3 254 46 261 255 255 255
3 282 253 254 255 255 255
3 251 191 14 255 255 255
3 55 224 289 255 255 255
3 106 260 55 255 255 255
3 252 47 106 255 255 255
3 250 286 252 255 255 255
3 248 224 250 255 255 255
3 169 289 248 255 255 255
3 253 123 109 255 255 255
3 254 253 69 255 255 255
3 188 46 254 255 255 255
3 46 107 261 255 255 255
3 46 249 107 255 255 255
3 65 66 107 255 255 255
3 107 249 65 255 255 255
3 282 303 253 255 255 255
3 14 129 189 255 255 255
3 191 71 14 255 255 255
3 251 260 191 255 255 255
3 55 286 224 255 255 255
3 106 291 260 255 255 255
3 47 291 106 255 255 255
3 286 47 252 255 255 255
3 286 288 47 255 255 255
3 250 255 286 255 255 255
3 224 255 250 255 255 255
3 224 130 255 255 255 255
3 169 109 289 255 255 255
3 109 257 289 255 255 255
3 123 257 109 255 255 255
3 188 51 46 255 255 255
3 303 257 253 255 255 255
3 129 14 71 255 255 255
3 71 43 144 255 255 255
3 260 291 191 255 255 255
3 288 87 47 255 255 255
3 123 170 257 255 255 255
3 282 144 303 255 255 255
3 71 144 282 255 255 255
3 291 1 191 255 255 255
3 149 77 291 255 255 255
3 291 47 149 255 255 255
3 47 87 149 255 255 255
3 130 85 255 255 255 255
3 170 130 257 255 255 255
3 123 73 170 255 255 255
3 43 147 144 255 255 255
3 1 43 191 255 255 255
3 291 174 1 255 255 255
3 77 174 291 255 255 255
3 87 288 52 255 255 255
3 288 85 52 255 255 255
3 130 124 85 255 255 255
3 283 124 130 255 255 255
3 130 170 283 255 255 255
3 170 73 226 255 255 255
3 303 144 123 255 255 255
3 144 110 123 255 255 255
3 147 56 144 255 255 255
3 147 267 56 255 255 255
3 1 16 43 255 255 255
3 174 16 1 255 255 255
3 77 3 174 255 255 255
3 149 91 77 255 255 255
3 87 52 149 255 255 255
3 52 91 149 255 255 255
3 85 44 52 255 255 255
3 85 60 44 255 255 255
3 85 288 255 255 255 255
3 226 283 170 255 255 255
3 73 0 226 255 255 255
3 123 110 73 255 255 255
3 56 110 144 255 255 255
3 267 39 56 255 255 255
3 16 147 43 255 255 255
3 77 91 3 255 255 255
3 44 91 52 255 255 255
3 85 124 60 255 255 255
3 124 283 60 255 255 255
3 283 146 60 255 255 255
3 226 0 283 255 255 255
3 73 2 0 255 255 255
3 110 2 73 255 255 255
3 56 48 110 255 255 255
3 147 75 267 255 255 255
3 16 75 147 255 255 255
3 174 75 16 255 255 255
3 174 269 75 255 255 255
3 3 269 174 255 255 255
3 91 176 3 255 255 255
3 44 176 91 255 255 255
3 60 176 44 255 255 255
3 283 21 146 255 255 255
3 21 131 146 255 255 255
3 283 258 21 255 255 255
3 2 284 0 255 255 255
3 2 82 284 255 255 255
3 110 48 2 255 255 255
3 56 39 48 255 255 255
3 39 111 209 255 255 255
3 75 125 267 255 255 255
3 269 125 75 255 255 255
3 176 148 3 255 255 255
3 60 146 176 255 255 255
3 21 40 131 255 255 255
3 82 15 284 255 255 255
3 2 268 82 255 255 255
3 48 268 2 255 255 255
3 209 48 39 255 255 255
3 39 267 111 255 255 255
3 267 125 111 255 255 255
3 125 18 111 255 255 255
3 269 72 125 255 255 255
3 3 148 269 255 255 255
3 176 146 148 255 255 255
3 131 148 146 255 255 255
3 21 258 40 255 255 255
3 284 258 0 255 255 255
3 15 258 284 255 255 255
3 268 175 82 255 255 255
3 48 90 268 255 255 255
3 48 209 90 255 255 255
3 18 212 111 255 255 255
3 72 18 125 255 255 255
3 269 148 72 255 255 255
3 131 76 148 255 255 255
3 40 49 131 255 255 255
3 15 49 258 255 255 255
3 82 175 15 255 255 255
3 268 90 175 255 255 255
3 90 212 175 255 255 255
3 209 212 90 255 255 255
3 111 212 209 255 255 255
3 18 72 212 255 255 255
3 131 49 76 255 255 255
3 40 258 49 255 255 255
3 15 175 49 255 255 255
3 72 54 212 255 255 255
3 76 72 148 255 255 255
3 49 54 76 255 255 255
3 175 54 49 255 255 255
3 54 175 212 255 255 255
3 54 72 76 255 255 255
