ply
format ascii 1.0
element vertex 373
property float x
property float y
property float z
element face 576
property list uchar int vertex_indices
property uchar red
property uchar green
property uchar blue
end_header
-4.85500001907348633 -4.3189997673034668 -1.01800000667572021
-4.90199995040893555 -4.28200006484985352 -1.05799996852874756
-4.89499998092651367 -4.26999998092651367 -1.05799996852874756
-4.79650020599365234 -4.31299972534179688 -1.01100003719329834
-4.89300012588500977 -4.27400016784667969 -1.03100001811981201
-4.87812519073486328 -4.3001251220703125 -1.05799996852874756
-4.85699987411499023 -4.26800012588500977 -1.05099999904632568
-4.83300018310546875 -4.32700014114379883 -1.03100001811981201
-4.88700008392333984 -4.30399990081787109 -0.999000012874603271
-4.8619999885559082 -4.33900022506713867 -1.01100003719329834
-4.80800008773803711 -4.32800006866455078 -1.02100002765655518
-4.81799983978271484 -4.28399991989135742 -0.926999986171722412
-4.83349990844726562 -4.29500007629394531 -0.936500012874603271
-4.82299995422363281 -4.33300018310546875 -0.972999989986419678
-4.79600000381469727 -4.243499755859375 -1.01750004291534424
-4.84950017929077148 -4.2779998779296875 -1.05850005149841309
-4.84325027465820312 -4.26200008392333984 -1.00025010108947754
-4.85500001907348633 -4.30000019073486328 -1.04499995708465576
-4.82499980926513672 -4.3060002326965332 -1.05700004100799561
-4.79899978637695312 -4.28399991989135742 -1.00600004196166992
-4.8060002326965332 -4.26100015640258789 -1.03799998760223389
-4.88000011444091797 -4.2909998893737793 -1.05999994277954102
-4.8978581428527832 -4.27384042739868164 -1.04419350624084473
-4.9029998779296875 -4.27699995040893555 -1.04100000858306885
-4.81699991226196289 -4.32600021362304688 -1.02699995040893555
-4.90399980545043945 -4.27299976348876953 -1.04600000381469727
-4.85599994659423828 -4.34299993515014648 -1.0010000467300415
-4.85500001907348633 -4.27699995040893555 -1.00300002098083496
-4.82600021362304688 -4.32100009918212891 -1.0130000114440918
-4.82499980926513672 -4.32700014114379883 -0.968999981880187988
-4.83650016784667969 -4.31599998474121094 -0.919499993324279785
-4.81099987030029297 -4.29899978637695312 -0.97500002384185791
-4.88899993896484375 -4.27699995040893555 -0.995000004768371582
-4.90799999237060547 -4.30000019073486328 -0.981999993324279785
-4.84399986267089844 -4.33300018310546875 -1.03299999237060547
-4.79500007629394531 -4.32200002670288086 -1.03400003910064697
-4.85400009155273438 -4.31300020217895508 -0.922999978065490723
-4.89300012588500977 -4.27699995040893555 -0.981999993324279785
-4.89885520935058594 -4.28656673431396484 -0.987695574760437012
-4.90000009536743164 -4.29199981689453125 -0.955999970436096191
-4.87859725952148438 -4.28222799301147461 -0.958246111869812012
-4.89745903015136719 -4.28724241256713867 -1.00869035720825195
-4.87650012969970703 -4.2714996337890625 -1.02600002288818359
-4.82700014114379883 -4.30700016021728516 -1.05999994277954102
-4.90500020980834961 -4.28900003433227539 -0.96799999475479126
-4.88690423965454102 -4.27329730987548828 -0.957495152950286865
-4.81300020217895508 -4.27099990844726562 -1.04600000381469727
-4.79899978637695312 -4.31999969482421875 -1.01550006866455078
-4.79600000381469727 -4.27500009536743164 -1.02600002288818359
-4.81199979782104492 -4.29899978637695312 -0.96799999475479126
-4.89900016784667969 -4.29199981689453125 -1.05900001525878906
-4.89350318908691406 -4.31550884246826172 -0.985994398593902588
-4.90734195709228516 -4.30383205413818359 -0.987307608127593994
-4.86491870880126953 -4.30510330200195312 -0.9860115647315979
-4.8060002326965332 -4.31599998474121094 -1.04999995231628418
-4.88244342803955078 -4.28398323059082031 -0.996046125888824463
-4.84000015258789062 -4.31400012969970703 -0.915000021457672119
-4.89300346374511719 -4.29130411148071289 -1.04007577896118164
-4.85300016403198242 -4.34299993515014648 -0.990000009536743164
-4.81699991226196289 -4.27099990844726562 -1.05200004577636719
-4.90067338943481445 -4.31342887878417969 -1.00302040576934814
-4.85599994659423828 -4.25799989700317383 -1.02799999713897705
-4.78299999237060547 -4.28100013732910156 -1.01900005340576172
-4.7909998893737793 -4.28200006484985352 -1.00499999523162842
-4.77600002288818359 -4.24450016021728516 -1.02550005912780762
-4.86800003051757812 -4.30200004577636719 -1.03100001811981201
-4.82849979400634766 -4.26999998092651367 -0.985000014305114746
-4.84800004959106445 -4.31949996948242188 -0.96399998664855957
-4.80999994277954102 -4.30700016021728516 -0.990000009536743164
-4.84499979019165039 -4.33500003814697266 -0.996999979019165039
-4.81500005722045898 -4.28599977493286133 -0.917999982833862305
-4.82587528228759766 -4.30325031280517578 -0.921499967575073242
-4.8404998779296875 -4.29549980163574219 -0.917999982833862305
-4.80900001525878906 -4.32499980926513672 -0.950999975204467773
-4.81199979782104492 -4.32200002670288086 -0.976999998092651367
-4.85200023651123047 -4.3060002326965332 -0.930999994277954102
-4.83199977874755859 -4.32399988174438477 -1.00300002098083496
-4.89099979400634766 -4.28599977493286133 -0.957000017166137695
-4.81799983978271484 -4.30999994277954102 -1.03699994087219238
-4.79500007629394531 -4.32100009918212891 -1.02900004386901855
-4.84600019454956055 -4.32999992370605469 -1.02499997615814209
-4.78800010681152344 -4.31649971008300781 -1.00950002670288086
-4.84499979019165039 -4.34100008010864258 -1.00699996948242188
-4.87900018692016602 -4.26999998092651367 -0.981000006198883057
-4.85300016403198242 -4.27400016784667969 -0.995999991893768311
-4.89499998092651367 -4.27600002288818359 -0.972000002861022949
-4.88339900970458984 -4.28849411010742188 -0.959628105163574219
-4.86999988555908203 -4.28000020980834961 -0.972000002861022949
-4.87300014495849609 -4.26399993896484375 -0.96799999475479126
-4.88500022888183594 -4.2630000114440918 -0.966000020503997803
-4.90000009536743164 -4.28200006484985352 -0.97500002384185791
-4.86700010299682617 -4.26774978637695312 -0.972000002861022949
-4.87799978256225586 -4.28900003433227539 -0.961000025272369385
-4.79799985885620117 -4.31099987030029297 -1.02199995517730713
-4.7909998893737793 -4.29699993133544922 -1.01900005340576172
-4.81397867202758789 -4.25505828857421875 -1.0221792459487915
-4.78849554061889648 -4.3143310546875 -1.01933062076568604
-4.87200021743774414 -4.29199981689453125 -1.0010000467300415
-4.89501047134399414 -4.28698587417602539 -1.02998554706573486
-4.84999990463256836 -4.26900005340576172 -1.03400003910064697
-4.77899980545043945 -4.27600002288818359 -1.02199995517730713
-4.77199983596801758 -4.25500011444091797 -1.02199995517730713
-4.86100006103515625 -4.3340001106262207 -1.00800001621246338
-4.84000015258789062 -4.26649999618530273 -0.992500007152557373
-4.83199977874755859 -4.32600021362304688 -0.949999988079071045
-4.82547664642333984 -4.29658937454223633 -0.958664596080780029
-4.90700006484985352 -4.28700017929077148 -0.982999980449676514
-4.84800004959106445 -4.30499982833862305 -0.910000026226043701
-4.77699995040893555 -4.32200002670288086 -1.01999998092651367
-4.82644033432006836 -4.29716062545776367 -1.05973505973815918
-4.82800006866455078 -4.2630000114440918 -0.991999983787536621
-4.81590747833251953 -4.2929224967956543 -0.924029231071472168
-4.84899997711181641 -4.29500007629394531 -0.925999999046325684
-4.82000017166137695 -4.29300022125244141 -0.93900001049041748
-4.82299995422363281 -4.27750015258789062 -0.988499999046325684
-4.80700016021728516 -4.31099987030029297 -0.961000025272369385
-4.90399980545043945 -4.28700017929077148 -1.04600000381469727
-4.89799976348876953 -4.28999996185302734 -1.01999998092651367
-4.78324985504150391 -4.3157501220703125 -1.01250004768371582
-4.78900003433227539 -4.3189997673034668 -1.02300000190734863
-4.80999994277954102 -4.28100013732910156 -1.00999999046325684
-4.88500022888183594 -4.27699995040893555 -1.05999994277954102
-4.85799980163574219 -4.27199983596801758 -1.03699994087219238
-4.82000017166137695 -4.28499984741210938 -0.919000029563903809
-4.82399988174438477 -4.30399990081787109 -1.04900002479553223
-4.80399990081787109 -4.30000019073486328 -1.00300002098083496
-4.90000009536743164 -4.26599979400634766 -1.01600003242492676
-4.84200000762939453 -4.27899980545043945 -1.03699994087219238
-4.86100006103515625 -4.31199979782104492 -1.00049996376037598
-4.86600017547607422 -4.30000019073486328 -1.0429999828338623
-4.85599994659423828 -4.26900005340576172 -1.0429999828338623
-4.81599998474121094 -4.27199983596801758 -1.03699994087219238
-4.84499979019165039 -4.32000017166137695 -0.958000004291534424
-4.89699983596801758 -4.28000020980834961 -0.964999973773956299
-4.86100006103515625 -4.30800008773803711 -0.971000015735626221
-4.8600001335144043 -4.3340001106262207 -0.990999996662139893
-4.8255000114440918 -4.27849960327148438 -1.04800009727478027
-4.90199995040893555 -4.29300022125244141 -0.971000015735626221
-4.86399984359741211 -4.28399991989135742 -0.990999996662139893
-4.83500003814697266 -4.29199981689453125 -0.925000011920928955
-4.84600019454956055 -4.30299997329711914 -0.958000004291534424
-4.819000244140625 -4.28250026702880859 -0.990999996662139893
-4.90046548843383789 -4.298248291015625 -1.050606369972229
-4.88625001907348633 -4.2962498664855957 -1.05974996089935303
-4.88299989700317383 -4.28999996185302734 -1.05900001525878906
-4.7779998779296875 -4.28000020980834961 -1.0140000581741333
-4.80200004577636719 -4.24900007247924805 -1.02100002765655518
-4.80800008773803711 -4.31500005722045898 -1.00800001621246338
-4.83500003814697266 -4.30299997329711914 -1.04999995231628418
-4.81050014495849609 -4.31699991226196289 -1.05750000476837158
-4.79302501678466797 -4.30300140380859375 -1.0119861364364624
-4.89300012588500977 -4.28200006484985352 -1.05799996852874756
-4.81400012969970703 -4.24800014495849609 -1.03400003910064697
-4.8470001220703125 -4.31799983978271484 -0.947000026702880859
-4.85099983215332031 -4.30000019073486328 -0.921000003814697266
-4.8600001335144043 -4.30200004577636719 -0.967000007629394531
-4.82800006866455078 -4.32399988174438477 -0.967000007629394531
-4.84350013732910156 -4.29675006866455078 -0.929749965667724609
-4.81099987030029297 -4.31099987030029297 -1.03400003910064697
-4.88899993896484375 -4.27699995040893555 -1.00499999523162842
-4.86756229400634766 -4.2649998664855957 -0.96399998664855957
-4.82762479782104492 -4.32200002670288086 -1.05049991607666016
-4.81599998474121094 -4.27600002288818359 -1.00899994373321533
-4.83900022506713867 -4.29500007629394531 -1.05400002002716064
-4.85141992568969727 -4.27245807647705078 -1.00321996212005615
-4.81099987030029297 -4.28900003433227539 -0.970000028610229492
-4.83099985122680664 -4.28599977493286133 -0.978999972343444824
-4.89149999618530273 -4.26949977874755859 -0.965499997138977051
-4.88749980926513672 -4.2714996337890625 -0.976499974727630615
-4.8910679817199707 -4.28984165191650391 -0.962687492370605469
-4.87118721008300781 -4.27243757247924805 -0.980000019073486328
-4.87599992752075195 -4.27299976348876953 -0.962000012397766113
-4.8899998664855957 -4.27299976348876953 -0.959999978542327881
-4.875 -4.27500009536743164 -0.966000020503997803
-4.89200019836425781 -4.27699995040893555 -0.962000012397766113
-4.87575006484985352 -4.26574993133544922 -0.974500000476837158
-4.87799978256225586 -4.28000020980834961 -0.959999978542327881
-4.82100009918212891 -4.28800010681152344 -1.03999996185302734
-4.88317775726318359 -4.30271482467651367 -1.01174962520599365
-4.82299995422363281 -4.27699995040893555 -1.04400002956390381
-4.89400005340576172 -4.27199983596801758 -1.05449998378753662
-4.87900018692016602 -4.30000019073486328 -1.04400002956390381
-4.83699989318847656 -4.30299997329711914 -1.04400002956390381
-4.78993844985961914 -4.26326084136962891 -1.03042066097259521
-4.82999992370605469 -4.32299995422363281 -1.05700004100799561
-4.81799983978271484 -4.3189997673034668 -1.01800000667572021
-4.86700010299682617 -4.30100011825561523 -1.04100000858306885
-4.85300016403198242 -4.31099987030029297 -0.966000020503997803
-4.82999992370605469 -4.26100015640258789 -0.999000012874603271
-4.85224056243896484 -4.31613063812255859 -0.935276925563812256
-4.84001398086547852 -4.28348875045776367 -0.981280267238616943
-4.85500001907348633 -4.28200006484985352 -0.986000001430511475
-4.84200000762939453 -4.33300018310546875 -1.02300000190734863
-4.84999990463256836 -4.29300022125244141 -0.970000028610229492
-4.82299995422363281 -4.32600021362304688 -0.96399998664855957
-4.78582525253295898 -4.24912214279174805 -1.03810739517211914
-4.90600013732910156 -4.2909998893737793 -0.977999985218048096
-4.89699983596801758 -4.29699993133544922 -0.972999989986419678
-4.90524959564208984 -4.29574966430664062 -0.976000010967254639
-4.90050029754638672 -4.2779998779296875 -0.966500043869018555
-4.85067272186279297 -4.33205986022949219 -0.976976513862609863
-4.8535003662109375 -4.32299995422363281 -0.970000028610229492
-4.8470001220703125 -4.30800008773803711 -0.959999978542327881
-4.8503270149230957 -4.343414306640625 -0.991430342197418213
-4.83699989318847656 -4.3340001106262207 -0.976000010967254639
-4.83699989318847656 -4.32700014114379883 -0.970000028610229492
-4.82398462295532227 -4.32799673080444336 -0.984982609748840332
-4.82000017166137695 -4.32399988174438477 -0.962000012397766113
-4.88600015640258789 -4.30700016021728516 -0.981999993324279785
-4.80700016021728516 -4.30100011825561523 -0.949000000953674316
-4.81300020217895508 -4.25500011444091797 -1.03600001335144043
-4.78700017929077148 -4.2630000114440918 -1.00699996948242188
-4.78499984741210938 -4.24700021743774414 -1.02999997138977051
-4.80550432205200195 -4.26164722442626953 -1.00587296485900879
-4.80999994277954102 -4.31599998474121094 -0.987999975681304932
-4.78499984741210938 -4.26200008392333984 -0.995999991893768311
-4.83199977874755859 -4.29699993133544922 -0.910000026226043701
-4.81761646270751953 -4.30884218215942383 -0.939377486705780029
-4.80999994277954102 -4.30200004577636719 -0.936999976634979248
-4.80389738082885742 -4.31370830535888672 -0.948285758495330811
-4.81244993209838867 -4.29033374786376953 -0.93864673376083374
-4.81599998474121094 -4.33099985122680664 -0.980000019073486328
-4.84200000762939453 -4.29500007629394531 -0.971000015735626221
-4.82200002670288086 -4.32800006866455078 -0.954999983310699463
-4.84399986267089844 -4.33599996566772461 -0.986999988555908203
-4.82899999618530273 -4.30999994277954102 -1.05999994277954102
-4.84200000762939453 -4.27849960327148438 -1.05299997329711914
-4.80313014984130859 -4.25199270248413086 -1.03196430206298828
-4.79199981689453125 -4.25799989700317383 -1.03999996185302734
-4.78600025177001953 -4.27400016784667969 -1.00600004196166992
-4.81400012969970703 -4.26700019836425781 -1.0130000114440918
-4.86899995803833008 -4.2779998779296875 -1.03299999237060547
-4.83562469482421875 -4.29825019836425781 -1.05887496471405029
-4.80000019073486328 -4.32000017166137695 -1.03199994564056396
-4.84100008010864258 -4.32750034332275391 -1.04850006103515625
-4.85599994659423828 -4.31199979782104492 -1.03699994087219238
-4.86800003051757812 -4.30200004577636719 -1.00499999523162842
-4.88100004196166992 -4.28000020980834961 -1.01600003242492676
-4.88817024230957031 -4.29818153381347656 -1.04975342750549316
-4.88249969482421875 -4.30049991607666016 -1.05174994468688965
-4.87400007247924805 -4.29699993133544922 -1.0549999475479126
-4.87800025939941406 -4.27593755722045898 -1.03799998760223389
-4.83445262908935547 -4.32117366790771484 -0.932559549808502197
-4.81599998474121094 -4.31099987030029297 -0.972000002861022949
-4.8782501220703125 -4.27849960327148438 -1.05399990081787109
-4.82899999618530273 -4.27299976348876953 -1
-4.81300020217895508 -4.32399988174438477 -1
-4.90199995040893555 -4.28800010681152344 -1
-4.82899999618530273 -4.29899978637695312 -0.970000028610229492
-4.78800010681152344 -4.31999969482421875 -1.01499998569488525
-4.88700008392333984 -4.28999996185302734 -1.05900001525878906
-4.82499980926513672 -4.31099987030029297 -1.05900001525878906
-4.77517986297607422 -4.25238656997680664 -1.0389714241027832
-4.83909893035888672 -4.26225900650024414 -1.00609934329986572
-4.8600001335144043 -4.32800006866455078 -1.00499999523162842
-4.89824962615966797 -4.27099990844726562 -1.05799996852874756
-4.88299989700317383 -4.30200004577636719 -1.01999998092651367
-4.8880000114440918 -4.26700019836425781 -1.02499997615814209
-4.87381076812744141 -4.31147003173828125 -1.01521658897399902
-4.88298273086547852 -4.26919126510620117 -1.02406084537506104
-4.89400005340576172 -4.27400016784667969 -1.03499996662139893
-4.87511873245239258 -4.30358266830444336 -1.0358656644821167
-4.82600688934326172 -4.27778530120849609 -1.05972874164581299
-4.82746076583862305 -4.28399181365966797 -1.05989992618560791
-4.84100008010864258 -4.31799983978271484 -0.950999975204467773
-4.80700016021728516 -4.32499980926513672 -0.957000017166137695
-4.90170383453369141 -4.30893516540527344 -0.98270726203918457
-4.86075019836425781 -4.3255000114440918 -0.989249944686889648
-4.85998201370239258 -4.31489324569702148 -0.975005388259887695
-4.80900001525878906 -4.29300022125244141 -0.990000009536743164
-4.82600021362304688 -4.28299999237060547 -1.05299997329711914
-4.83199977874755859 -4.33199977874755859 -1.02199995517730713
-4.81199979782104492 -4.29500007629394531 -1.02799999713897705
-4.84978961944580078 -4.33672618865966797 -1.0314638614654541
-4.88100004196166992 -4.26900005340576172 -1.01199996471405029
-4.78999996185302734 -4.25300025939941406 -1.00524997711181641
-4.81300020217895508 -4.32000017166137695 -1.04100000858306885
-4.80999994277954102 -4.3189997673034668 -1.00800001621246338
-4.81799983978271484 -4.27600002288818359 -1.04799997806549072
-4.79799985885620117 -4.26800012588500977 -1.04100000858306885
-4.88600015640258789 -4.29400014877319336 -1.02199995517730713
-4.88939523696899414 -4.30071592330932617 -1.05367720127105713
-4.87799978256225586 -4.2779998779296875 -1.05400002002716064
-4.85500001907348633 -4.33099985122680664 -1.01499998569488525
-4.83699989318847656 -4.33300018310546875 -0.989000022411346436
-4.82700014114379883 -4.32999992370605469 -0.982999980449676514
-4.89400005340576172 -4.27400016784667969 -0.995999991893768311
-4.82980537414550781 -4.27045154571533203 -0.979099929332733154
-4.88562488555908203 -4.27368736267089844 -1.04468750953674316
-4.84100008010864258 -4.29400014877319336 -0.91100001335144043
-4.83300018310546875 -4.32200002670288086 -1.05200004577636719
-4.85099983215332031 -4.28837490081787109 -1.05800008773803711
-4.83699989318847656 -4.32700014114379883 -1.04050004482269287
-4.82299995422363281 -4.32050037384033203 -1.04100000858306885
-4.85799980163574219 -4.34800004959106445 -1.0140000581741333
-4.84399986267089844 -4.32200002670288086 -1.04700005054473877
-4.82600021362304688 -4.32200002670288086 -1.05799996852874756
-4.82100009918212891 -4.32000017166137695 -1.04799997806549072
-4.81300020217895508 -4.31799983978271484 -1.05799996852874756
-4.81400012969970703 -4.32000017166137695 -1.04700005054473877
-4.85949993133544922 -4.32149982452392578 -1.0010000467300415
-4.88600015640258789 -4.29400014877319336 -1.02999997138977051
-4.86499977111816406 -4.25600004196166992 -0.966000020503997803
-4.88100004196166992 -4.26700019836425781 -0.958000004291534424
-4.8010411262512207 -4.30301809310913086 -0.937292575836181641
-4.81850004196166992 -4.31974983215332031 -0.945500016212463379
-4.84292316436767578 -4.27486753463745117 -0.983793437480926514
-4.81199979782104492 -4.30800008773803711 -0.99299997091293335
-4.82200002670288086 -4.27500009536743164 -0.978999972343444824
-4.88424968719482422 -4.27850008010864258 -0.94850003719329834
-4.82499980926513672 -4.32700014114379883 -0.999000012874603271
-4.81400012969970703 -4.31599998474121094 -0.976000010967254639
-4.82700014114379883 -4.2909998893737793 -0.912999987602233887
-4.82750034332275391 -4.30700016021728516 -0.912999987602233887
-4.86999988555908203 -4.30399990081787109 -0.978999972343444824
-4.85500001907348633 -4.32999992370605469 -0.985000014305114746
-4.88299989700317383 -4.29500007629394531 -0.991999983787536621
-4.81799983978271484 -4.32999992370605469 -0.945999979972839355
-4.81799983978271484 -4.29300022125244141 -0.972000002861022949
-4.84800004959106445 -4.3340001106262207 -1.02300000190734863
-4.81699991226196289 -4.29199981689453125 -0.958999991416931152
-4.84952354431152344 -4.31826400756835938 -0.918700098991394043
-4.78425025939941406 -4.26637506484985352 -1.01125001907348633
-4.89499998092651367 -4.29699993133544922 -1.01100003719329834
-4.83300018310546875 -4.33699989318847656 -1.01699995994567871
-4.90000009536743164 -4.29899978637695312 -1.00399994850158691
-4.84907102584838867 -4.33906412124633789 -1.02300381660461426
-4.83799982070922852 -4.27899980545043945 -1.04499995708465576
-4.77699995040893555 -4.26800012588500977 -1.02999997138977051
-4.80700016021728516 -4.31400012969970703 -1.04400002956390381
-4.78900384902954102 -4.26100015640258789 -1.03999662399291992
-4.77649974822998047 -4.26099967956542969 -1.03649997711181641
-4.80700016021728516 -4.31099987030029297 -1.02900004386901855
-4.79600000381469727 -4.24200010299682617 -1.02799999713897705
-4.80399990081787109 -4.31699991226196289 -1.04200005531311035
-4.81799983978271484 -4.31099987030029297 -1.04499995708465576
-4.85449981689453125 -4.26850032806396484 -1.04450011253356934
-4.82937765121459961 -4.31643390655517578 -0.931828558444976807
-4.8619999885559082 -4.34100008010864258 -1.01600003242492676
-4.79565906524658203 -4.26175832748413086 -1.00347018241882324
-4.84800004959106445 -4.3060002326965332 -1.03699994087219238
-4.78599977493286133 -4.25600004196166992 -1.00049996376037598
-4.87400007247924805 -4.2779998779296875 -1.0429999828338623
-4.8060002326965332 -4.27400016784667969 -1.0429999828338623
-4.84399986267089844 -4.34800004959106445 -1.00999999046325684
-4.80800008773803711 -4.31500005722045898 -1.04900002479553223
-4.83199977874755859 -4.33300018310546875 -0.944999992847442627
-4.85498571395874023 -4.30500936508178711 -0.941004097461700439
-4.89050006866455078 -4.29050016403198242 -0.94762498140335083
-4.86399984359741211 -4.29699993133544922 -0.990999996662139893
-4.82800006866455078 -4.32600021362304688 -0.944999992847442627
-4.8470001220703125 -4.26399993896484375 -1.01600003242492676
-4.77699995040893555 -4.2779998779296875 -1.02100002765655518
-4.8307499885559082 -4.32299995422363281 -1.03725004196166992
-4.80800008773803711 -4.24800014495849609 -1.01499998569488525
-4.7909998893737793 -4.32000017166137695 -1.02799999713897705
-4.90000009536743164 -4.2779998779296875 -1.02199995517730713
-4.79199981689453125 -4.29400014877319336 -1.00399994850158691
-4.89300012588500977 -4.29199981689453125 -1.01800000667572021
-4.82600021362304688 -4.26599979400634766 -1.01999998092651367
-4.79819631576538086 -4.27234411239624023 -1.0100933313369751
-4.81191873550415039 -4.29573965072631836 -0.94591522216796875
-4.79600000381469727 -4.30900001525878906 -0.947000026702880859
-4.88500022888183594 -4.30399990081787109 -0.973999977111816406
-4.81699991226196289 -4.32499980926513672 -0.986999988555908203
-4.82100009918212891 -4.32499980926513672 -0.967000007629394531
-4.81300020217895508 -4.31799983978271484 -0.980000019073486328
-4.81199979782104492 -4.2909998893737793 -0.973999977111816406
-4.88399982452392578 -4.26200008392333984 -1.01900005340576172
-4.86499977111816406 -4.27699995040893555 -1.01999998092651367
-4.80399990081787109 -4.25099992752075195 -1.00800001621246338
-4.9029998779296875 -4.28499984741210938 -1.03499996662139893
-4.78800010681152344 -4.2630000114440918 -1
3 173 172 171 255 255 255
3 171 175 173 255 255 255
3 172 303 171 255 255 255
3 173 174 172 255 255 255
3 171 303 175 255 255 255
3 172 167 303 255 255 255
3 174 167 172 255 255 255
3 174 85 167 255 255 255
3 173 176 174 255 255 255
3 175 83 173 255 255 255
3 176 86 174 255 255 255
3 173 87 176 255 255 255
3 83 87 173 255 255 255
3 83 170 87 255 255 255
3 175 170 83 255 255 255
3 85 168 167 255 255 255
3 174 169 85 255 255 255
3 86 169 174 255 255 255
3 176 92 86 255 255 255
3 87 92 176 255 255 255
3 91 170 175 255 255 255
3 175 88 91 255 255 255
3 168 89 167 255 255 255
3 169 90 85 255 255 255
3 170 91 87 255 255 255
3 88 302 91 255 255 255
3 175 89 88 255 255 255
3 89 303 167 255 255 255
3 85 37 168 255 255 255
3 90 37 85 255 255 255
3 90 38 37 255 255 255
3 169 137 90 255 255 255
3 169 39 137 255 255 255
3 92 40 86 255 255 255
3 91 160 87 255 255 255
3 302 160 91 255 255 255
3 88 160 302 255 255 255
3 303 45 167 255 255 255
3 37 55 168 255 255 255
3 38 55 37 255 255 255
3 90 196 38 255 255 255
3 39 44 137 255 255 255
3 169 348 39 255 255 255
3 86 348 169 255 255 255
3 40 348 86 255 255 255
3 90 197 196 255 255 255
3 44 198 137 255 255 255
3 39 199 44 255 255 255
3 45 133 167 255 255 255
3 196 106 38 255 255 255
3 197 198 196 255 255 255
3 198 197 137 255 255 255
3 197 90 137 255 255 255
3 199 196 44 255 255 255
3 39 133 199 255 255 255
3 40 309 348 255 255 255
3 45 309 40 255 255 255
3 45 77 133 255 255 255
3 32 55 38 255 255 255
3 32 159 55 255 255 255
3 38 247 32 255 255 255
3 196 198 44 255 255 255
3 199 106 196 255 255 255
3 45 40 77 255 255 255
3 40 92 77 255 255 255
3 32 286 159 255 255 255
3 247 286 32 255 255 255
3 286 247 159 255 255 255
3 247 41 159 255 255 255
3 348 77 39 255 255 255
3 247 325 41 255 255 255
3 325 323 41 255 255 255
3 323 358 41 255 255 255
3 325 178 323 255 255 255
3 358 117 41 255 255 255
3 323 178 358 255 255 255
3 325 8 178 255 255 255
3 117 356 41 255 255 255
3 358 98 117 255 255 255
3 178 280 358 255 255 255
3 8 316 178 255 255 255
3 325 60 8 255 255 255
3 117 98 356 255 255 255
3 98 4 356 255 255 255
3 358 280 98 255 255 255
3 280 301 98 255 255 255
3 178 256 280 255 255 255
3 8 208 316 255 255 255
3 4 257 356 255 255 255
3 301 57 98 255 255 255
3 280 256 301 255 255 255
3 256 261 301 255 255 255
3 178 258 256 255 255 255
3 8 51 208 255 255 255
3 325 52 60 255 255 255
3 257 126 356 255 255 255
3 4 259 257 255 255 255
3 98 260 4 255 255 255
3 98 57 260 255 255 255
3 301 238 57 255 255 255
3 301 261 238 255 255 255
3 256 258 261 255 255 255
3 258 65 261 255 255 255
3 51 266 208 255 255 255
3 52 266 60 255 255 255
3 257 368 126 255 255 255
3 259 274 257 255 255 255
3 260 259 4 255 255 255
3 260 288 259 255 255 255
3 261 181 238 255 255 255
3 186 181 261 255 255 255
3 186 129 181 255 255 255
3 261 65 186 255 255 255
3 65 235 186 255 255 255
3 178 236 258 255 255 255
3 266 363 208 255 255 255
3 266 51 60 255 255 255
3 52 33 266 255 255 255
3 274 368 257 255 255 255
3 259 237 274 255 255 255
3 288 241 259 255 255 255
3 181 239 238 255 255 255
3 181 240 239 255 255 255
3 129 240 181 255 255 255
3 186 17 129 255 255 255
3 235 17 186 255 255 255
3 235 340 17 255 255 255
3 236 128 258 255 255 255
3 363 314 208 255 255 255
3 237 159 274 255 255 255
3 259 42 237 255 255 255
3 259 241 42 255 255 255
3 260 22 288 255 255 255
3 238 142 57 255 255 255
3 239 143 238 255 255 255
3 240 144 239 255 255 255
3 241 369 42 255 255 255
3 260 23 22 255 255 255
3 142 116 57 255 255 255
3 143 142 238 255 255 255
3 143 50 142 255 255 255
3 239 21 143 255 255 255
3 144 250 239 255 255 255
3 240 21 144 255 255 255
3 236 349 128 255 255 255
3 241 231 369 255 255 255
3 241 342 231 255 255 255
3 22 180 288 255 255 255
3 22 255 180 255 255 255
3 23 116 22 255 255 255
3 260 371 23 255 255 255
3 116 23 57 255 255 255
3 142 50 116 255 255 255
3 144 244 250 255 255 255
3 240 5 21 255 255 255
3 349 53 128 255 255 255
3 236 97 349 255 255 255
3 342 122 231 255 255 255
3 241 244 342 255 255 255
3 288 121 244 255 255 255
3 180 121 288 255 255 255
3 180 2 121 255 255 255
3 255 151 180 255 255 255
3 22 25 255 255 255 255
3 116 1 22 255 255 255
3 260 57 371 255 255 255
3 50 151 116 255 255 255
3 250 281 239 255 255 255
3 128 53 300 255 255 255
3 97 138 349 255 255 255
3 241 288 244 255 255 255
3 121 250 244 255 255 255
3 2 255 121 255 255 255
3 50 250 151 255 255 255
3 254 0 300 255 255 255
3 300 267 254 255 255 255
3 53 267 300 255 255 255
3 53 268 267 255 255 255
3 53 134 268 255 255 255
3 349 314 53 255 255 255
3 250 282 151 255 255 255
3 50 281 250 255 255 255
3 5 143 21 255 255 255
3 239 281 5 255 255 255
3 281 143 5 255 255 255
3 254 283 0 255 255 255
3 267 135 254 255 255 255
3 134 187 268 255 255 255
3 314 134 53 255 255 255
3 314 155 134 255 255 255
3 25 180 255 255 255 255
3 282 121 151 255 255 255
3 283 80 0 255 255 255
3 254 102 283 255 255 255
3 135 26 254 255 255 255
3 267 315 135 255 255 255
3 315 203 135 255 255 255
3 267 268 315 255 255 255
3 268 200 315 255 255 255
3 268 201 200 255 255 255
3 187 201 268 255 255 255
3 187 67 201 255 255 255
3 134 155 187 255 255 255
3 155 202 187 255 255 255
3 180 2 255 255 255 255
3 283 319 80 255 255 255
3 102 82 283 255 255 255
3 254 26 102 255 255 255
3 315 224 203 255 255 255
3 200 224 315 255 255 255
3 200 204 224 255 255 255
3 201 205 200 255 255 255
3 187 202 67 255 255 255
3 202 132 67 255 255 255
3 155 140 202 255 255 255
3 319 192 80 255 255 255
3 283 82 319 255 255 255
3 82 192 319 255 255 255
3 102 26 82 255 255 255
3 26 69 82 255 255 255
3 203 26 135 255 255 255
3 204 284 224 255 255 255
3 200 205 204 255 255 255
3 205 285 204 255 255 255
3 201 67 205 255 255 255
3 67 132 205 255 255 255
3 202 264 132 255 255 255
3 155 193 140 255 255 255
3 192 7 80 255 255 255
3 26 58 69 255 255 255
3 284 69 224 255 255 255
3 204 285 284 255 255 255
3 285 206 284 255 255 255
3 205 29 285 255 255 255
3 264 104 132 255 255 255
3 202 140 264 255 255 255
3 193 222 140 255 255 255
3 7 34 80 255 255 255
3 192 271 7 255 255 255
3 58 224 69 255 255 255
3 206 310 284 255 255 255
3 285 29 206 255 255 255
3 29 221 206 255 255 255
3 205 156 29 255 255 255
3 34 273 80 255 255 255
3 7 353 34 255 255 255
3 271 24 7 255 255 255
3 192 324 271 255 255 255
3 310 76 284 255 255 255
3 206 364 310 255 255 255
3 29 74 221 255 255 255
3 156 365 29 255 255 255
3 273 326 80 255 255 255
3 353 292 34 255 255 255
3 24 353 7 255 255 255
3 324 28 271 255 255 255
3 310 28 76 255 255 255
3 364 246 310 255 255 255
3 206 366 364 255 255 255
3 365 74 29 255 255 255
3 365 311 74 255 255 255
3 156 207 365 255 255 255
3 292 234 34 255 255 255
3 353 161 292 255 255 255
3 353 293 161 255 255 255
3 24 293 353 255 255 255
3 366 214 364 255 255 255
3 311 366 74 255 255 255
3 365 243 311 255 255 255
3 207 243 365 255 255 255
3 292 295 234 255 255 255
3 292 290 295 255 255 255
3 161 290 292 255 255 255
3 24 158 293 255 255 255
3 364 214 246 255 255 255
3 366 68 214 255 255 255
3 366 206 74 255 255 255
3 311 68 366 255 255 255
3 338 294 326 255 255 255
3 326 273 338 255 255 255
3 161 296 290 255 255 255
3 293 297 161 255 255 255
3 293 335 297 255 255 255
3 78 335 293 255 255 255
3 78 124 335 255 255 255
3 293 158 78 255 255 255
3 24 332 158 255 255 255
3 214 307 246 255 255 255
3 68 307 214 255 255 255
3 68 269 307 255 255 255
3 206 221 74 255 255 255
3 294 344 326 255 255 255
3 338 9 294 255 255 255
3 295 290 234 255 255 255
3 290 184 234 255 255 255
3 296 43 290 255 255 255
3 297 298 161 255 255 255
3 124 297 335 255 255 255
3 124 251 297 255 255 255
3 332 272 158 255 255 255
3 269 125 307 255 255 255
3 344 82 326 255 255 255
3 290 225 184 255 255 255
3 298 296 161 255 255 255
3 298 225 296 255 255 255
3 297 299 298 255 255 255
3 251 296 297 255 255 255
3 124 18 251 255 255 255
3 298 43 225 255 255 255
3 299 345 298 255 255 255
3 297 276 299 255 255 255
3 296 184 297 255 255 255
3 124 148 18 255 255 255
3 345 149 298 255 255 255
3 299 78 345 255 255 255
3 276 329 299 255 255 255
3 124 182 148 255 255 255
3 149 251 298 255 255 255
3 345 54 149 255 255 255
3 78 329 345 255 255 255
3 276 158 329 255 255 255
3 182 163 148 255 255 255
3 329 54 345 255 255 255
3 329 334 54 255 255 255
3 163 232 148 255 255 255
3 54 299 149 255 255 255
3 163 291 232 255 255 255
3 54 334 299 255 255 255
3 232 263 109 255 255 255
3 291 263 232 255 255 255
3 291 15 263 255 255 255
3 15 262 263 255 255 255
3 15 226 262 255 255 255
3 15 6 226 255 255 255
3 136 59 262 255 255 255
3 262 327 136 255 255 255
3 6 336 226 255 255 255
3 262 59 263 255 255 255
3 59 278 263 255 255 255
3 327 179 136 255 255 255
3 262 226 327 255 255 255
3 226 127 327 255 255 255
3 6 130 336 255 255 255
3 263 278 270 255 255 255
3 278 136 270 255 255 255
3 59 46 278 255 255 255
3 136 179 59 255 255 255
3 136 177 270 255 255 255
3 46 343 278 255 255 255
3 179 46 59 255 255 255
3 179 131 46 255 255 255
3 130 122 336 255 255 255
3 136 278 177 255 255 255
3 46 20 343 255 255 255
3 131 20 46 255 255 255
3 131 210 20 255 255 255
3 179 177 131 255 255 255
3 122 99 336 255 255 255
3 20 279 343 255 255 255
3 210 227 20 255 255 255
3 179 270 177 255 255 255
3 179 327 270 255 255 255
3 122 61 99 255 255 255
3 20 228 279 255 255 255
3 227 228 20 255 255 255
3 228 330 279 255 255 255
3 210 152 227 255 255 255
3 330 183 279 255 255 255
3 228 195 330 255 255 255
3 183 48 279 255 255 255
3 330 331 183 255 255 255
3 195 331 330 255 255 255
3 331 328 183 255 255 255
3 195 252 331 255 255 255
3 195 212 252 255 255 255
3 328 100 183 255 255 255
3 331 101 328 255 255 255
3 252 101 331 255 255 255
3 252 64 101 255 255 255
3 252 212 64 255 255 255
3 195 333 212 255 255 255
3 328 352 100 255 255 255
3 212 101 64 255 255 255
3 333 14 212 255 255 255
3 352 62 100 255 255 255
3 62 48 100 255 255 255
3 352 145 62 255 255 255
3 333 146 14 255 255 255
3 145 63 62 255 255 255
3 14 370 275 255 255 255
3 146 354 14 255 255 255
3 333 227 146 255 255 255
3 145 229 63 255 255 255
3 14 354 370 255 255 255
3 354 213 370 255 255 255
3 146 95 354 255 255 255
3 227 152 146 255 255 255
3 152 95 146 255 255 255
3 152 210 95 255 255 255
3 145 322 229 255 255 255
3 370 339 275 255 255 255
3 354 95 213 255 255 255
3 229 360 63 255 255 255
3 145 352 322 255 255 255
3 339 341 275 255 255 255
3 339 372 341 255 255 255
3 370 213 339 255 255 255
3 95 230 213 255 255 255
3 95 359 230 255 255 255
3 360 19 63 255 255 255
3 372 215 229 255 255 255
3 229 211 372 255 255 255
3 341 322 275 255 255 255
3 339 360 372 255 255 255
3 213 230 339 255 255 255
3 230 360 339 255 255 255
3 359 162 230 255 255 255
3 19 357 63 255 255 255
3 229 322 211 255 255 255
3 341 211 322 255 255 255
3 215 211 341 255 255 255
3 230 120 360 255 255 255
3 19 125 357 255 255 255
3 360 120 19 255 255 255
3 230 162 120 255 255 255
3 125 150 357 255 255 255
3 150 94 357 255 255 255
3 150 96 94 255 255 255
3 125 147 150 255 255 255
3 150 118 96 255 255 255
3 3 81 150 255 255 255
3 147 3 150 255 255 255
3 147 277 3 255 255 255
3 96 93 94 255 255 255
3 150 81 118 255 255 255
3 3 47 81 255 255 255
3 277 47 3 255 255 255
3 277 10 47 255 255 255
3 147 246 277 255 255 255
3 118 119 96 255 255 255
3 81 249 118 255 255 255
3 47 249 81 255 255 255
3 10 79 47 255 255 255
3 277 185 10 255 255 255
3 119 355 96 255 255 255
3 118 108 119 255 255 255
3 249 108 118 255 255 255
3 47 119 249 255 255 255
3 10 233 79 255 255 255
3 185 24 10 255 255 255
3 96 233 93 255 255 255
3 355 79 96 255 255 255
3 233 35 79 255 255 255
3 233 332 93 255 255 255
3 233 334 35 255 255 255
3 233 276 334 255 255 255
3 216 71 312 255 255 255
3 312 289 216 255 255 255
3 71 111 312 255 255 255
3 216 313 71 255 255 255
3 312 72 289 255 255 255
3 111 70 312 255 255 255
3 312 139 72 255 255 255
3 70 123 312 255 255 255
3 111 11 70 255 255 255
3 71 217 111 255 255 255
3 313 337 71 255 255 255
3 72 154 289 255 255 255
3 139 157 72 255 255 255
3 312 123 139 255 255 255
3 70 11 123 255 255 255
3 111 220 11 255 255 255
3 217 218 111 255 255 255
3 71 337 217 255 255 255
3 313 30 337 255 255 255
3 154 107 289 255 255 255
3 72 112 154 255 255 255
3 157 112 72 255 255 255
3 218 361 111 255 255 255
3 337 305 217 255 255 255
3 30 242 337 255 255 255
3 154 321 107 255 255 255
3 112 75 154 255 255 255
3 157 75 112 255 255 255
3 157 347 75 255 255 255
3 139 12 157 255 255 255
3 111 361 220 255 255 255
3 218 304 361 255 255 255
3 217 304 218 255 255 255
3 217 219 304 255 255 255
3 305 219 217 255 255 255
3 30 321 242 255 255 255
3 313 56 30 255 255 255
3 154 36 321 255 255 255
3 304 209 361 255 255 255
3 305 73 219 255 255 255
3 337 350 305 255 255 255
3 242 350 337 255 255 255
3 242 346 350 255 255 255
3 321 189 242 255 255 255
3 321 56 107 255 255 255
3 154 75 36 255 255 255
3 75 189 36 255 255 255
3 75 347 189 255 255 255
3 304 362 209 255 255 255
3 219 362 304 255 255 255
3 73 265 219 255 255 255
3 305 317 73 255 255 255
3 305 350 317 255 255 255
3 350 346 317 255 255 255
3 321 30 56 255 255 255
3 36 189 321 255 255 255
3 347 153 189 255 255 255
3 113 11 220 255 255 255
3 220 105 113 255 255 255
3 361 320 220 255 255 255
3 362 219 209 255 255 255
3 219 115 209 255 255 255
3 265 115 219 255 255 255
3 73 223 265 255 255 255
3 189 153 242 255 255 255
3 153 264 242 255 255 255
3 220 320 105 255 255 255
3 361 49 320 255 255 255
3 223 207 265 255 255 255
3 73 317 223 255 255 255
3 317 346 223 255 255 255
3 346 104 223 255 255 255
3 320 165 105 255 255 255
3 49 165 320 255 255 255
3 49 31 165 255 255 255
3 223 194 207 255 255 255
3 104 194 223 255 255 255
3 104 156 194 255 255 255
3 346 242 104 255 255 255
3 105 318 248 255 255 255
3 165 318 105 255 255 255
3 165 367 318 255 255 255
3 31 367 165 255 255 255
3 31 269 367 255 255 255
3 49 243 31 255 255 255
3 194 311 207 255 255 255
3 156 13 194 255 255 255
3 318 166 248 255 255 255
3 49 115 243 255 255 255
3 156 205 13 255 255 255
3 166 222 248 255 255 255
3 166 190 222 255 255 255
3 166 287 190 255 255 255
3 287 306 190 255 255 255
3 166 308 287 255 255 255
3 306 191 190 255 255 255
3 306 84 191 255 255 255
3 166 114 308 255 255 255
3 84 138 191 255 255 255
3 306 103 84 255 255 255
3 287 103 306 255 255 255
3 166 141 114 255 255 255
3 84 27 138 255 255 255
3 103 16 84 255 255 255
3 287 66 103 255 255 255
3 84 164 27 255 255 255
3 16 164 84 255 255 255
3 16 351 164 255 255 255
3 103 110 16 255 255 255
3 66 110 103 255 255 255
3 287 308 66 255 255 255
3 308 114 66 255 255 255
3 114 110 66 255 255 255
3 16 253 351 255 255 255
3 188 253 16 255 255 255
3 16 110 188 255 255 255
3 114 245 110 255 255 255
3 245 188 110 255 255 255
3 245 253 188 255 255 255
3 114 141 245 255 255 255
