ply
format ascii 1.0
element vertex 299
property float x
property float y
property float z
element face 576
property list uchar int vertex_indices
property uchar red
property uchar green
property uchar blue
end_header
1.55383050441741943 -5.22751760482788086 -0.987643539905548096
1.6202549934387207 -5.19689273834228516 -0.968953311443328857
1.60800004005432129 -5.19799995422363281 -0.962999999523162842
1.580832839012146 -5.23959064483642578 -0.9801139235496521
1.54073822498321533 -5.20715951919555664 -0.954123377799987793
1.56543552875518799 -5.18155145645141602 -0.958961129188537598
1.56576180458068848 -5.16535758972167969 -0.965493440628051758
1.57944715023040771 -5.17186450958251953 -0.96771705150604248
1.6095435619354248 -5.20374298095703125 -0.98599398136138916
1.54450595378875732 -5.25161838531494141 -0.981714248657226562
1.51282656192779541 -5.15880012512207031 -0.995180368423461914
1.50357425212860107 -5.16889286041259766 -0.895555078983306885
1.51104342937469482 -5.09353351593017578 -0.930960655212402344
1.47582495212554932 -5.03460884094238281 -0.99429631233215332
1.45565474033355713 -5.18642568588256836 -0.990183234214782715
1.47200000286102295 -5.03999996185302734 -0.995000004768371582
1.42400002479553223 -5.17399978637695312 -0.944999992847442627
1.42799997329711914 -5.20699977874755859 -0.962000012397766113
1.45659422874450684 -5.12400007247924805 -0.938461482524871826
1.46659719944000244 -5.14727163314819336 -0.902836382389068604
1.43638134002685547 -5.21408605575561523 -0.963508367538452148
1.49440979957580566 -5.0682835578918457 -0.946361124515533447
1.33599996566772461 -5.15199995040893555 -0.977999985218048096
1.49199998378753662 -5.10900020599365234 -0.901000022888183594
1.37927615642547607 -5.19922685623168945 -0.987874984741210938
1.2892221212387085 -5.1321873664855957 -0.989711284637451172
1.42565321922302246 -5.19871282577514648 -0.938454568386077881
1.44356369972229004 -5.20540094375610352 -0.976475179195404053
1.13102030754089355 -5.12855815887451172 -0.979672491550445557
1.17084360122680664 -5.13457012176513672 -0.950510799884796143
1.21957707405090332 -5.13181543350219727 -0.958363950252532959
1.15384948253631592 -5.10550212860107422 -0.955542385578155518
1.62330806255340576 -5.23328495025634766 -0.984451770782470703
1.55218732357025146 -5.19008588790893555 -0.957639157772064209
1.56222343444824219 -5.21014070510864258 -0.981466710567474365
1.50075733661651611 -5.20625734329223633 -0.940167784690856934
1.48360133171081543 -5.21229124069213867 -0.947378933429718018
1.50221574306488037 -5.14893865585327148 -0.981887161731719971
1.46399998664855957 -5.14300012588500977 -0.907999992370605469
1.3313748836517334 -5.26705169677734375 -0.982173919677734375
1.28876829147338867 -5.12256479263305664 -0.982418417930603027
1.44278335571289062 -5.04459905624389648 -0.993543684482574463
1.50804078578948975 -5.10049057006835938 -0.916819393634796143
1.46161007881164551 -5.05733394622802734 -0.987413108348846436
1.29700005054473877 -5.13000011444091797 -0.981000006198883057
1.5005115270614624 -5.06217193603515625 -0.976082205772399902
1.30388760566711426 -5.16471767425537109 -0.989260256290435791
1.3501441478729248 -5.13821268081665039 -0.966770291328430176
1.32032191753387451 -5.21007776260375977 -0.977303028106689453
1.53900003433227539 -5.10200023651123047 -0.912999987602233887
1.46599996089935303 -5.02899980545043945 -0.994000017642974854
1.47451543807983398 -4.97232437133789062 -1.00459849834442139
1.38050007820129395 -5.15350008010864258 -0.895500004291534424
1.20721197128295898 -5.12232637405395508 -0.998913824558258057
1.51600003242492676 -5.19700002670288086 -0.925000011920928955
1.33860397338867188 -5.2098393440246582 -0.962370038032531738
1.28910458087921143 -5.13498163223266602 -0.986050605773925781
1.49038112163543701 -5.02558755874633789 -0.989939987659454346
1.35950672626495361 -5.21244335174560547 -0.970336496829986572
1.35793673992156982 -5.19090175628662109 -0.997210323810577393
1.36194920539855957 -5.23974895477294922 -0.972622096538543701
1.47200000286102295 -5.03100013732910156 -0.991999983787536621
1.50204825401306152 -5.06486082077026367 -0.958881139755249023
1.51100003719329834 -5.11999988555908203 -0.977999985218048096
1.46120357513427734 -5.1762843132019043 -0.952608883380889893
1.46822118759155273 -5.08679580688476562 -0.966651737689971924
1.49100005626678467 -5.0840001106262207 -0.934000015258789062
1.30039393901824951 -5.14482975006103516 -0.981290340423583984
1.46857476234436035 -5.11617231369018555 -0.929142415523529053
1.40604007244110107 -5.18712425231933594 -0.933711111545562744
1.49699997901916504 -5.12900018692016602 -0.973999977111816406
1.42720222473144531 -5.18294525146484375 -0.944946527481079102
1.46500003337860107 -5.02500009536743164 -0.991999983787536621
1.50477445125579834 -5.10993194580078125 -0.895904242992401123
1.5011131763458252 -5.14069700241088867 -0.877111315727233887
1.55799996852874756 -5.19500017166137695 -0.972999989986419678
1.46930849552154541 -5.14242029190063477 -0.914251506328582764
1.52999997138977051 -5.19000005722045898 -0.954999983310699463
1.38399994373321533 -5.15000009536743164 -0.898999989032745361
1.464752197265625 -5.1174626350402832 -0.942897677421569824
1.45163416862487793 -5.08159303665161133 -0.970357060432434082
1.26738166809082031 -5.13071298599243164 -0.992526888847351074
1.2640000581741333 -5.13000011444091797 -0.984000027179718018
1.4859999418258667 -5.12400007247924805 -0.916000008583068848
1.44078242778778076 -5.05334568023681641 -0.978209614753723145
1.50600004196166992 -5.17299985885620117 -0.91100001335144043
1.43068337440490723 -5.16729545593261719 -0.953575432300567627
1.54524290561676025 -5.11851263046264648 -0.901159226894378662
1.5 -5.13299989700317383 -0.902000010013580322
1.44599997997283936 -5.18800020217895508 -0.976999998092651367
1.46350002288818359 -5.08150005340576172 -0.96950000524520874
1.51885640621185303 -5.14454841613769531 -0.981922030448913574
1.48800003528594971 -5.11899995803833008 -0.916000008583068848
1.54400002956390381 -5.15999984741210938 -0.933000028133392334
1.48763537406921387 -5.10843086242675781 -0.916778683662414551
1.58299994468688965 -5.2350001335144043 -0.981999993324279785
1.6260000467300415 -5.1810002326965332 -0.977999985218048096
1.56299996376037598 -5.19299983978271484 -0.959999978542327881
1.5475696325302124 -5.17207241058349609 -0.955545186996459961
1.5820000171661377 -5.15100002288818359 -0.968999981880187988
1.5395578145980835 -5.20764017105102539 -0.976488351821899414
1.63845252990722656 -5.19254636764526367 -0.995616316795349121
1.59046709537506104 -5.22632408142089844 -0.984791278839111328
1.54841017723083496 -5.10966348648071289 -0.940295577049255371
1.54054594039916992 -5.14478921890258789 -0.972604870796203613
1.48321354389190674 -5.17287635803222656 -0.96414417028427124
1.48614931106567383 -5.20432519912719727 -0.921230435371398926
1.5480952262878418 -5.16206884384155273 -0.918879151344299316
1.46386027336120605 -5.15134763717651367 -0.953862011432647705
1.48594903945922852 -5.07134580612182617 -0.958703160285949707
1.43483805656433105 -5.15650081634521484 -0.938662827014923096
1.48000001907348633 -5.02199983596801758 -0.990999996662139893
1.56164133548736572 -5.13719511032104492 -0.944958746433258057
1.46099996566772461 -5.02500009536743164 -0.994000017642974854
1.41074502468109131 -5.13885068893432617 -0.982789099216461182
1.49500000476837158 -5.10400009155273438 -0.916000008583068848
1.55339086055755615 -5.23563194274902344 -0.953898370265960693
1.47132360935211182 -5.1846461296081543 -0.92921900749206543
1.34386050701141357 -5.19388771057128906 -0.968530237674713135
1.54306495189666748 -5.16766500473022461 -0.941218197345733643
1.51984429359436035 -5.12405776977539062 -0.971725881099700928
1.51493096351623535 -5.19995975494384766 -0.973178982734680176
1.56820917129516602 -5.1768341064453125 -0.977036178112030029
1.63302624225616455 -5.17893123626708984 -0.985658049583435059
1.60864663124084473 -5.18345355987548828 -0.986109912395477295
1.64222800731658936 -5.20741367340087891 -0.980249404907226562
1.62468421459197998 -5.21300601959228516 -0.993236720561981201
1.57984757423400879 -5.24701356887817383 -0.990804612636566162
1.54200005531311035 -5.18800020217895508 -0.953999996185302734
1.49041342735290527 -5.15553617477416992 -0.966469109058380127
1.44205999374389648 -5.18452024459838867 -0.960588514804840088
1.3162379264831543 -5.19238471984863281 -0.975476384162902832
1.54711282253265381 -5.09814119338989258 -0.909757435321807861
1.5 -5.09100008010864258 -0.926999986171722412
1.47753608226776123 -5.08472442626953125 -0.952566921710968018
1.50749993324279785 -5.09150028228759766 -0.938500046730041504
1.54917275905609131 -5.11195659637451172 -0.921175539493560791
1.51800000667572021 -5.07499980926513672 -0.961000025272369385
1.43623983860015869 -5.17317056655883789 -0.983627617359161377
1.50300002098083496 -5.12400007247924805 -0.980000019073486328
1.50199997425079346 -5.10699987411499023 -0.904999971389770508
1.47838461399078369 -5.22022056579589844 -0.941273629665374756
1.4345780611038208 -5.1398158073425293 -0.942108094692230225
1.39662730693817139 -5.17504596710205078 -0.93645399808883667
1.50291275978088379 -5.19836664199829102 -0.95637434720993042
1.56893515586853027 -5.12388896942138672 -0.963010549545288086
1.19264900684356689 -5.15565967559814453 -0.954816460609436035
1.54100000858306885 -5.18400001525878906 -0.936999976634979248
1.53988945484161377 -5.12492895126342773 -0.96824955940246582
1.51971042156219482 -5.20254135131835938 -0.927940487861633301
1.52085626125335693 -5.18382024765014648 -0.924010396003723145
1.532875657081604 -5.17291927337646484 -0.93381810188293457
1.51540040969848633 -5.18283939361572266 -0.972996294498443604
1.48314034938812256 -5.2020106315612793 -0.912193953990936279
1.54819989204406738 -5.17937946319580078 -0.97927558422088623
1.57899999618530273 -5.23600006103515625 -0.986000001430511475
1.57830488681793213 -5.20796108245849609 -0.976863503456115723
1.50120937824249268 -5.09584522247314453 -0.971743404865264893
1.50569808483123779 -5.07765007019042969 -0.947135388851165771
1.47626972198486328 -5.1342320442199707 -0.951628565788269043
1.47620165348052979 -5.12624645233154297 -0.911454439163208008
1.4926983118057251 -5.12263965606689453 -0.895562052726745605
1.50499999523162842 -5.08300018310546875 -0.973999977111816406
1.49052989482879639 -5.04628801345825195 -0.993090271949768066
1.38327717781066895 -5.13413667678833008 -0.946189403533935547
1.38483858108520508 -5.16510820388793945 -0.999271571636199951
1.3118433952331543 -5.24355316162109375 -0.974142611026763916
1.34738242626190186 -5.15271854400634766 -0.976066708564758301
1.4528203010559082 -5.14139366149902344 -0.929264962673187256
1.4082186222076416 -5.15881967544555664 -0.989759683609008789
1.4309999942779541 -5.17999982833862305 -0.957000017166137695
1.49699997901916504 -5.0689997673034668 -0.939999997615814209
1.53376150131225586 -5.09795808792114258 -0.955175697803497314
1.37474596500396729 -5.13460540771484375 -0.98549342155456543
1.48000001907348633 -5.08599996566772461 -0.93900001049041748
1.3226783275604248 -5.18100404739379883 -0.988878786563873291
1.56700003147125244 -5.19600009918212891 -0.958999991416931152
1.16440582275390625 -5.09308385848999023 -0.981247067451477051
1.18290066719055176 -5.16008758544921875 -0.964896678924560547
1.16226255893707275 -5.14943695068359375 -0.985129058361053467
1.21395409107208252 -5.06798028945922852 -0.973893344402313232
1.2170785665512085 -5.10198783874511719 -0.945372343063354492
1.61149215698242188 -5.23308086395263672 -0.958343923091888428
1.56311142444610596 -5.21426534652709961 -0.948211371898651123
1.625 -5.17899990081787109 -0.973999977111816406
1.55508041381835938 -5.19812202453613281 -0.9622802734375
1.57831859588623047 -5.19096231460571289 -0.950773060321807861
1.53973734378814697 -5.17554712295532227 -0.978644788265228271
1.52326977252960205 -5.1626734733581543 -0.978750050067901611
1.47795116901397705 -5.08808374404907227 -0.94363778829574585
1.4567180871963501 -5.15439510345458984 -0.951142668724060059
1.45191395282745361 -5.1356353759765625 -0.949216842651367188
1.45299994945526123 -5.03200006484985352 -0.986999988555908203
1.50714290142059326 -5.12741756439208984 -0.980433762073516846
1.48086106777191162 -5.12854814529418945 -0.899671852588653564
1.51199996471405029 -5.20300006866455078 -0.952000021934509277
1.56412696838378906 -5.1572418212890625 -0.941196322441101074
1.54841554164886475 -5.15224027633666992 -0.916420459747314453
1.52283644676208496 -5.19044065475463867 -0.94529116153717041
1.22348237037658691 -5.07778310775756836 -0.998716592788696289
1.24348819255828857 -5.109039306640625 -0.979588806629180908
1.21446001529693604 -5.13259077072143555 -0.981405138969421387
1.58289980888366699 -5.22644948959350586 -0.95035022497177124
1.60442209243774414 -5.21920919418334961 -0.944909572601318359
1.59634113311767578 -5.1676793098449707 -0.976026773452758789
1.47040843963623047 -4.96793889999389648 -1.00031936168670654
1.45965254306793213 -4.97179985046386719 -1.00292789936065674
1.54774606227874756 -5.10573768615722656 -0.957837998867034912
1.46247613430023193 -5.12710094451904297 -0.927420556545257568
1.46797192096710205 -5.04286766052246094 -0.991664648056030273
1.34307467937469482 -5.15914440155029297 -0.985474169254302979
1.55327939987182617 -5.09981632232666016 -0.906073808670043945
1.26860582828521729 -5.12854623794555664 -0.986476302146911621
1.35526835918426514 -5.16661596298217773 -0.954994261264801025
1.28002417087554932 -5.15263462066650391 -0.98898780345916748
1.32274019718170166 -5.23574590682983398 -0.992256104946136475
1.48365581035614014 -5.0636296272277832 -0.99009394645690918
1.47803878784179688 -5.07613086700439453 -0.977669179439544678
1.50199997425079346 -5.18699979782104492 -0.922999978065490723
1.54687607288360596 -5.11016130447387695 -0.967694461345672607
1.45306658744812012 -5.16481494903564453 -0.942347109317779541
1.47476017475128174 -5.03712320327758789 -0.978910624980926514
1.45064687728881836 -5.08252716064453125 -0.976108372211456299
1.51699995994567871 -5.20300006866455078 -0.961000025272369385
1.41999995708465576 -5.16900014877319336 -0.934000015258789062
1.56799995899200439 -5.17399978637695312 -0.971000015735626221
1.5617140531539917 -5.21627521514892578 -0.981306135654449463
1.52889823913574219 -5.12174034118652344 -0.894960105419158936
1.49399995803833008 -5.07100009918212891 -0.950999975204467773
1.49074363708496094 -5.11208724975585938 -0.901302576065063477
1.36898171901702881 -5.19214391708374023 -0.952461838722229004
1.46200001239776611 -5.05999994277954102 -0.959999978542327881
1.52863025665283203 -5.09193515777587891 -0.927121281623840332
1.3592689037322998 -5.21303653717041016 -0.986484408378601074
1.27369070053100586 -5.15314102172851562 -0.991787552833557129
1.47190141677856445 -5.15603208541870117 -0.892055034637451172
1.50300002098083496 -5.10099983215332031 -0.91100001335144043
1.36239171028137207 -5.14425086975097656 -0.948486864566802979
1.4869999885559082 -5.08500003814697266 -0.934000015258789062
1.42190790176391602 -5.19990777969360352 -0.949830412864685059
1.57604694366455078 -5.16053628921508789 -0.981135249137878418
1.47399997711181641 -5.20200014114379883 -0.93900001049041748
1.55299997329711914 -5.10099983215332031 -0.912999987602233887
1.52135014533996582 -5.13645744323730469 -0.890078842639923096
1.47500002384185791 -5.10699987411499023 -0.953000009059906006
1.51026523113250732 -5.11937284469604492 -0.912979841232299805
1.38720393180847168 -5.20817422866821289 -0.979417979717254639
1.31900465488433838 -5.15704250335693359 -0.978703558444976807
1.40401589870452881 -5.19478034973144531 -0.958536982536315918
1.55200004577636719 -5.0970001220703125 -0.907999992370605469
1.44300007820129395 -5.14849996566772461 -0.934499979019165039
1.50943028926849365 -5.07179450988769531 -0.962538182735443115
1.49477052688598633 -5.0712285041809082 -0.974505722522735596
1.49366307258605957 -5.10155725479125977 -0.967969357967376709
1.56799995899200439 -5.19899988174438477 -0.958000004291534424
1.57447385787963867 -5.11890268325805664 -0.956446409225463867
1.58700001239776611 -5.21999979019165039 -0.978999972343444824
1.51183748245239258 -5.21604347229003906 -0.938895702362060547
1.49600005149841309 -5.19500017166137695 -0.917999982833862305
1.47978866100311279 -5.18952560424804688 -0.953843474388122559
1.51669347286224365 -5.17245578765869141 -0.901836991310119629
1.47661459445953369 -5.18946218490600586 -0.908045649528503418
1.49183738231658936 -5.12622261047363281 -0.96294867992401123
1.54999995231628418 -5.10799980163574219 -0.917999982833862305
1.4594724178314209 -5.20772314071655273 -0.940507173538208008
1.54557669162750244 -5.09468793869018555 -0.927110135555267334
1.4603571891784668 -5.16486930847167969 -0.91285097599029541
1.51100003719329834 -5.19600009918212891 -0.924000024795532227
1.46500003337860107 -5.03999996185302734 -0.982999980449676514
1.5014575719833374 -5.06677389144897461 -0.954853355884552002
1.47200000286102295 -4.98400020599365234 -0.990999996662139893
1.48794269561767578 -4.98457241058349609 -0.990537822246551514
1.46800005435943604 -4.98999977111816406 -0.990999996662139893
1.26699995994567871 -5.13299989700317383 -0.990000009536743164
1.45963263511657715 -4.98474550247192383 -0.99039614200592041
1.46907913684844971 -4.99458742141723633 -0.999265193939208984
1.5130000114440918 -5.09200000762939453 -0.940999984741210938
1.53997242450714111 -5.1310725212097168 -0.905877351760864258
1.27826225757598877 -5.17443513870239258 -0.980971574783325195
1.49300003051757812 -5.10200023651123047 -0.917999982833862305
1.46424710750579834 -5.05487871170043945 -1.00379526615142822
1.49209117889404297 -5.11334562301635742 -0.909559786319732666
1.40999996662139893 -5.16900014877319336 -0.939999997615814209
1.15635442733764648 -5.12147378921508789 -1.00116503238677979
1.5700000524520874 -5.13100004196166992 -0.962999999523162842
1.38600003719329834 -5.15700006484985352 -0.904999971389770508
1 1 1
1.59063756465911865 -5.18056631088256836 -0.992988407611846924
1.45647156238555908 -5.06020832061767578 -0.965008318424224854
1.53100001811981201 -5.08599996566772461 -0.938000023365020752
1.49199998378753662 -5.09800004959106445 -0.925999999046325684
1.44541656970977783 -5.13439846038818359 -0.943878293037414551
1.49303507804870605 -5.05271387100219727 -0.972335875034332275
1.3191828727722168 -5.14403820037841797 -0.991352438926696777
1.51811099052429199 -5.09506702423095703 -0.963241040706634521
1.53600001335144043 -5.18200016021728516 -0.939999997615814209
1.5142132043838501 -5.16467523574829102 -0.899847030639648438
1.55200004577636719 -5.10300016403198242 -0.90700000524520874
1.42292952537536621 -5.15260410308837891 -0.970124959945678711
3 271 272 275 255 255 255
3 271 274 272 255 255 255
3 272 274 275 255 255 255
3 271 206 274 255 255 255
3 272 270 274 255 255 255
3 271 205 206 255 255 255
3 271 51 205 255 255 255
3 271 275 51 255 255 255
3 270 205 274 255 255 255
3 206 275 274 255 255 255
3 205 51 206 255 255 255
3 270 51 205 255 255 255
3 51 275 206 255 255 255
3 206 272 274 255 255 255
3 206 270 272 255 255 255
3 206 51 270 255 255 255
3 28 178 29 255 255 255
3 29 31 28 255 255 255
3 29 181 31 255 255 255
3 30 181 29 255 255 255
3 29 146 30 255 255 255
3 28 179 178 255 255 255
3 31 177 28 255 255 255
3 31 180 177 255 255 255
3 177 283 28 255 255 255
3 31 181 180 255 255 255
3 178 201 146 255 255 255
3 179 201 178 255 255 255
3 179 53 201 255 255 255
3 179 283 53 255 255 255
3 28 283 179 255 255 255
3 177 53 283 255 255 255
3 177 180 53 255 255 255
3 180 199 53 255 255 255
3 30 200 181 255 255 255
3 181 200 180 255 255 255
3 199 200 53 255 255 255
3 200 201 53 255 255 255
3 201 200 30 255 255 255
3 202 182 203 255 255 255
3 203 186 202 255 255 255
3 204 186 203 255 255 255
3 203 184 204 255 255 255
3 182 2 203 255 255 255
3 202 3 182 255 255 255
3 202 116 3 255 255 255
3 183 116 202 255 255 255
3 202 186 183 255 255 255
3 184 123 204 255 255 255
3 182 1 2 255 255 255
3 185 4 183 255 255 255
3 186 6 5 255 255 255
3 204 7 186 255 255 255
3 1 123 124 255 255 255
3 2 8 203 255 255 255
3 1 203 2 255 255 255
3 3 116 9 255 255 255
3 4 257 183 255 255 255
3 183 254 185 255 255 255
3 186 97 254 255 255 255
3 5 33 186 255 255 255
3 6 154 5 255 255 255
3 186 7 6 255 255 255
3 7 122 6 255 255 255
3 204 99 7 255 255 255
3 184 125 123 255 255 255
3 1 125 123 255 255 255
3 32 125 182 255 255 255
3 3 9 127 255 255 255
3 183 257 116 255 255 255
3 185 128 4 255 255 255
3 33 97 186 255 255 255
3 5 98 33 255 255 255
3 6 187 154 255 255 255
3 122 99 6 255 255 255
3 123 287 204 255 255 255
3 124 287 123 255 255 255
3 125 96 123 255 255 255
3 1 182 125 255 255 255
3 126 125 32 255 255 255
3 182 102 32 255 255 255
3 127 95 3 255 255 255
3 128 198 4 255 255 255
3 185 33 128 255 255 255
3 33 295 128 255 255 255
3 98 119 33 255 255 255
3 187 33 154 255 255 255
3 99 112 6 255 255 255
3 124 8 287 255 255 255
3 96 1 123 255 255 255
3 126 101 125 255 255 255
3 182 95 102 255 255 255
3 127 155 95 255 255 255
3 4 116 257 255 255 255
3 128 147 198 255 255 255
3 33 98 295 255 255 255
3 99 255 112 255 255 255
3 196 5 7 255 255 255
3 8 156 287 255 255 255
3 101 123 125 255 255 255
3 1 8 123 255 255 255
3 126 156 8 255 255 255
3 0 116 4 255 255 255
3 4 100 0 255 255 255
3 147 295 198 255 255 255
3 5 196 98 255 255 255
3 6 188 187 255 255 255
3 7 112 196 255 255 255
3 124 123 8 255 255 255
3 123 126 8 255 255 255
3 102 156 32 255 255 255
3 155 127 102 255 255 255
3 9 0 127 255 255 255
3 196 119 98 255 255 255
3 6 112 148 255 255 255
3 5 122 7 255 255 255
3 122 240 287 255 255 255
3 287 34 122 255 255 255
3 123 125 126 255 255 255
3 98 151 295 255 255 255
3 5 97 176 255 255 255
3 6 120 188 255 255 255
3 148 120 6 255 255 255
3 5 154 122 255 255 255
3 122 154 240 255 255 255
3 34 75 122 255 255 255
3 102 34 156 255 255 255
3 0 34 127 255 255 255
3 35 141 257 255 255 255
3 149 106 257 255 255 255
3 119 93 151 255 255 255
3 196 93 119 255 255 255
3 196 197 93 255 255 255
3 120 91 188 255 255 255
3 255 103 112 255 255 255
3 154 104 240 255 255 255
3 34 4 75 255 255 255
3 100 187 34 255 255 255
3 156 34 287 255 255 255
3 34 0 100 255 255 255
3 121 187 100 255 255 255
3 4 128 100 255 255 255
3 36 144 257 255 255 255
3 144 195 257 255 255 255
3 141 36 257 255 255 255
3 35 36 141 255 255 255
3 257 258 35 255 255 255
3 149 258 106 255 255 255
3 35 121 198 255 255 255
3 150 149 198 255 255 255
3 151 147 119 255 255 255
3 197 107 93 255 255 255
3 152 187 188 255 255 255
3 188 129 152 255 255 255
3 37 129 188 255 255 255
3 122 7 240 255 255 255
3 256 226 156 255 255 255
3 121 152 187 255 255 255
3 100 77 121 255 255 255
3 4 33 128 255 255 255
3 141 264 36 255 255 255
3 35 144 36 255 255 255
3 258 153 35 255 255 255
3 121 77 198 255 255 255
3 35 195 121 255 255 255
3 198 149 35 255 255 255
3 196 93 98 255 255 255
3 37 262 129 255 255 255
3 120 193 91 255 255 255
3 148 294 120 255 255 255
3 294 253 120 255 255 255
3 225 5 122 255 255 255
3 256 102 226 255 255 255
3 144 259 36 255 255 255
3 153 141 35 255 255 255
3 258 153 106 255 255 255
3 195 223 121 255 255 255
3 151 198 295 255 255 255
3 151 260 150 255 255 255
3 187 77 98 255 255 255
3 37 193 262 255 255 255
3 193 37 91 255 255 255
3 120 262 193 255 255 255
3 148 207 294 255 255 255
3 197 136 277 255 255 255
3 226 34 156 255 255 255
3 144 121 195 255 255 255
3 259 241 36 255 255 255
3 141 144 35 255 255 255
3 153 264 141 255 255 255
3 153 261 264 255 255 255
3 149 150 260 255 255 255
3 197 277 107 255 255 255
3 37 188 91 255 255 255
3 207 103 232 255 255 255
3 148 255 207 255 255 255
3 103 265 136 255 255 255
3 197 112 136 255 255 255
3 188 91 104 255 255 255
3 104 154 188 255 255 255
3 154 10 188 255 255 255
3 121 152 195 255 255 255
3 105 152 144 255 255 255
3 259 117 241 255 255 255
3 144 105 259 255 255 255
3 144 257 35 255 255 255
3 35 149 106 255 255 255
3 106 241 35 255 255 255
3 258 218 153 255 255 255
3 260 11 149 255 255 255
3 151 107 260 255 255 255
3 243 296 107 255 255 255
3 107 277 243 255 255 255
3 277 227 107 255 255 255
3 37 10 188 255 255 255
3 157 253 294 255 255 255
3 157 158 253 255 255 255
3 294 158 157 255 255 255
3 207 232 294 255 255 255
3 136 87 277 255 255 255
3 226 100 34 255 255 255
3 10 154 152 255 255 255
3 152 105 10 255 255 255
3 105 64 259 255 255 255
3 261 117 264 255 255 255
3 153 218 261 255 255 255
3 260 107 296 255 255 255
3 277 227 243 255 255 255
3 277 87 227 255 255 255
3 144 198 152 255 255 255
3 262 159 129 255 255 255
3 158 251 253 255 255 255
3 294 12 158 255 255 255
3 232 289 294 255 255 255
3 112 145 255 255 255 255
3 255 148 112 255 255 255
3 112 103 136 255 255 255
3 64 117 259 255 255 255
3 296 11 260 255 255 255
3 129 108 105 255 255 255
3 159 190 129 255 255 255
3 253 189 262 255 255 255
3 262 120 253 255 255 255
3 158 269 251 255 255 255
3 294 172 12 255 255 255
3 132 249 265 255 255 255
3 219 207 255 255 255 255
3 263 242 87 255 255 255
3 37 193 10 255 255 255
3 226 187 100 255 255 255
3 144 64 105 255 255 255
3 264 259 36 255 255 255
3 239 130 264 255 255 255
3 105 108 64 255 255 255
3 117 64 264 255 255 255
3 11 296 74 255 255 255
3 243 74 296 255 255 255
3 129 190 108 255 255 255
3 159 108 190 255 255 255
3 262 68 159 255 255 255
3 251 252 253 255 255 255
3 269 21 251 255 255 255
3 265 263 232 255 255 255
3 145 219 255 255 255 255
3 132 211 249 255 255 255
3 211 227 87 255 255 255
3 193 91 10 255 255 255
3 105 159 129 255 255 255
3 108 220 64 255 255 255
3 108 190 220 255 255 255
3 117 220 64 255 255 255
3 261 266 117 255 255 255
3 261 235 266 255 255 255
3 11 296 243 255 255 255
3 108 191 190 255 255 255
3 159 208 108 255 255 255
3 68 208 159 255 255 255
3 189 68 262 255 255 255
3 251 269 252 255 255 255
3 21 109 251 255 255 255
3 158 45 294 255 255 255
3 251 45 158 255 255 255
3 172 289 12 255 255 255
3 12 133 232 255 255 255
3 232 49 227 255 255 255
3 263 49 232 255 255 255
3 263 297 49 255 255 255
3 145 148 219 255 255 255
3 211 136 249 255 255 255
3 105 108 159 255 255 255
3 190 168 220 255 255 255
3 220 190 64 255 255 255
3 235 261 11 255 255 255
3 11 74 235 255 255 255
3 11 85 296 255 255 255
3 227 74 243 255 255 255
3 191 142 190 255 255 255
3 208 168 108 255 255 255
3 208 76 168 255 255 255
3 68 83 208 255 255 255
3 189 94 68 255 255 255
3 189 158 290 255 255 255
3 253 134 189 255 255 255
3 252 157 253 255 255 255
3 109 45 251 255 255 255
3 45 172 294 255 255 255
3 12 133 158 255 255 255
3 12 232 42 255 255 255
3 12 135 133 255 255 255
3 232 245 42 255 255 255
3 227 245 232 255 255 255
3 211 87 136 255 255 255
3 130 20 27 255 255 255
3 266 220 117 255 255 255
3 11 218 85 255 255 255
3 227 73 74 255 255 255
3 142 110 190 255 255 255
3 191 291 142 255 255 255
3 83 160 208 255 255 255
3 94 160 68 255 255 255
3 290 94 189 255 255 255
3 290 281 94 255 255 255
3 252 65 157 255 255 255
3 65 222 157 255 255 255
3 109 252 45 255 255 255
3 171 21 269 255 255 255
3 133 290 158 255 255 255
3 45 137 172 255 255 255
3 145 284 148 255 255 255
3 132 49 211 255 255 255
3 129 70 37 255 255 255
3 26 69 239 255 255 255
3 220 291 190 255 255 255
3 74 161 235 255 255 255
3 218 150 85 255 255 255
3 160 76 208 255 255 255
3 160 194 76 255 255 255
3 94 281 160 255 255 255
3 281 92 94 255 255 255
3 134 109 189 255 255 255
3 252 217 65 255 255 255
3 252 292 217 255 255 255
3 292 216 252 255 255 255
3 134 65 109 255 255 255
3 171 66 21 255 255 255
3 21 158 269 255 255 255
3 228 21 158 255 255 255
3 158 109 228 255 255 255
3 158 238 174 255 255 255
3 172 158 289 255 255 255
3 137 158 172 255 255 255
3 45 62 137 255 255 255
3 281 42 245 255 255 255
3 132 232 49 255 255 255
3 70 139 37 255 255 255
3 17 130 239 255 255 255
3 17 20 130 255 255 255
3 291 191 190 255 255 255
3 220 86 291 255 255 255
3 266 38 168 255 255 255
3 73 229 161 255 255 255
3 161 74 73 255 255 255
3 218 267 150 255 255 255
3 191 18 291 255 255 255
3 108 79 191 255 255 255
3 76 19 266 255 255 255
3 281 83 92 255 255 255
3 70 63 157 255 255 255
3 65 80 222 255 255 255
3 65 292 109 255 255 255
3 66 174 21 255 255 255
3 21 66 158 255 255 255
3 290 135 12 255 255 255
3 12 115 290 255 255 255
3 245 161 281 255 255 255
3 148 63 219 255 255 255
3 27 14 130 255 255 255
3 20 130 239 255 255 255
3 130 71 239 255 255 255
3 17 248 20 255 255 255
3 69 248 239 255 255 255
3 86 298 291 255 255 255
3 161 160 235 255 255 255
3 161 281 194 255 255 255
3 281 160 161 255 255 255
3 79 18 191 255 255 255
3 76 161 19 255 255 255
3 216 217 252 255 255 255
3 134 244 65 255 255 255
3 21 238 66 255 255 255
3 115 279 290 255 255 255
3 45 252 62 255 255 255
3 14 138 130 255 255 255
3 27 138 14 255 255 255
3 71 26 239 255 255 255
3 38 76 168 255 255 255
3 160 38 235 255 255 255
3 161 229 281 255 255 255
3 267 54 150 255 255 255
3 73 23 161 255 255 255
3 23 229 73 255 255 255
3 73 236 23 255 255 255
3 16 26 110 255 255 255
3 110 69 16 255 255 255
3 142 224 110 255 255 255
3 162 137 157 255 255 255
3 65 90 80 255 255 255
3 217 80 65 255 255 255
3 292 231 217 255 255 255
3 292 163 216 255 255 255
3 292 13 163 255 255 255
3 65 217 292 255 255 255
3 279 94 290 255 255 255
3 42 140 115 255 255 255
3 236 73 42 255 255 255
3 42 279 236 255 255 255
3 248 17 239 255 255 255
3 17 20 239 255 255 255
3 143 248 69 255 255 255
3 291 79 191 255 255 255
3 220 170 86 255 255 255
3 168 291 250 255 255 255
3 26 71 110 255 255 255
3 71 220 110 255 255 255
3 16 224 26 255 255 255
3 110 282 69 255 255 255
3 142 282 224 255 255 255
3 79 291 18 255 255 255
3 281 88 194 255 255 255
3 157 217 162 255 255 255
3 80 217 222 255 255 255
3 288 222 217 255 255 255
3 292 221 231 255 255 255
3 163 209 216 255 255 255
3 163 268 209 255 255 255
3 163 57 292 255 255 255
3 65 222 90 255 255 255
3 134 79 244 255 255 255
3 276 12 135 255 255 255
3 135 158 276 255 255 255
3 138 86 130 255 255 255
3 248 246 27 255 255 255
3 291 298 142 255 255 255
3 220 64 170 255 255 255
3 291 191 250 255 255 255
3 282 143 69 255 255 255
3 164 143 142 255 255 255
3 217 251 162 255 255 255
3 288 231 222 255 255 255
3 217 43 288 255 255 255
3 216 43 217 255 255 255
3 216 209 43 255 255 255
3 231 288 217 255 255 255
3 288 231 221 255 255 255
3 221 84 288 255 255 255
3 268 43 209 255 255 255
3 292 57 13 255 255 255
3 57 221 292 255 255 255
3 292 45 163 255 255 255
3 65 217 222 255 255 255
3 138 298 86 255 255 255
3 89 130 14 255 255 255
3 248 143 230 255 255 255
3 64 130 170 255 255 255
3 191 110 250 255 255 255
3 142 298 114 255 255 255
3 209 84 43 255 255 255
3 57 111 221 255 255 255
3 43 280 209 255 255 255
3 61 15 13 255 255 255
3 13 111 61 255 255 255
3 45 217 163 255 255 255
3 138 169 298 255 255 255
3 27 169 138 255 255 255
3 246 169 27 255 255 255
3 130 138 170 255 255 255
3 142 114 164 255 255 255
3 222 231 84 255 255 255
3 209 192 84 255 255 255
3 268 209 221 255 255 255
3 221 192 268 255 255 255
3 61 50 221 255 255 255
3 111 72 221 255 255 255
3 280 163 209 255 255 255
3 15 209 13 255 255 255
3 169 114 298 255 255 255
3 246 165 169 255 255 255
3 246 233 24 255 255 255
3 58 233 246 255 255 255
3 230 246 248 255 255 255
3 58 246 230 255 255 255
3 138 86 170 255 255 255
3 157 222 217 255 255 255
3 43 65 222 255 255 255
3 222 84 43 255 255 255
3 192 41 84 255 255 255
3 192 113 41 255 255 255
3 221 72 192 255 255 255
3 50 113 221 255 255 255
3 163 13 57 255 255 255
3 90 222 217 255 255 255
3 246 24 165 255 255 255
3 58 60 233 255 255 255
3 143 237 230 255 255 255
3 84 41 43 255 255 255
3 24 59 165 255 255 255
3 237 213 230 255 255 255
3 173 47 114 255 255 255
3 280 41 13 255 255 255
3 59 210 165 255 255 255
3 59 246 233 255 255 255
3 233 60 215 255 255 255
3 58 118 55 255 255 255
3 143 164 237 255 255 255
3 47 164 114 255 255 255
3 43 41 280 255 255 255
3 60 39 215 255 255 255
3 58 55 60 255 255 255
3 58 213 118 255 255 255
3 173 210 47 255 255 255
3 165 210 173 255 255 255
3 173 114 165 255 255 255
3 59 175 210 255 255 255
3 166 39 60 255 255 255
3 60 55 166 255 255 255
3 167 118 213 255 255 255
3 167 131 118 255 255 255
3 237 47 213 255 255 255
3 48 175 59 255 255 255
3 215 48 233 255 255 255
3 131 55 118 255 255 255
3 47 167 213 255 255 255
3 210 167 47 255 255 255
3 210 293 167 255 255 255
3 48 59 233 255 255 255
3 131 167 247 255 255 255
3 167 22 247 255 255 255
3 167 67 47 255 255 255
3 215 166 48 255 255 255
3 39 166 215 255 255 255
3 48 166 55 255 255 255
3 55 131 48 255 255 255
3 131 175 167 255 255 255
3 167 47 22 255 255 255
3 67 247 47 255 255 255
3 131 247 278 255 255 255
3 210 46 293 255 255 255
3 48 131 175 255 255 255
3 293 25 67 255 255 255
3 46 25 293 255 255 255
3 131 46 175 255 255 255
3 247 67 278 255 255 255
3 25 44 67 255 255 255
3 131 278 46 255 255 255
3 67 234 278 255 255 255
3 25 40 67 255 255 255
3 46 56 25 255 255 255
3 46 67 56 255 255 255
3 56 214 25 255 255 255
3 46 278 25 255 255 255
3 67 25 234 255 255 255
3 67 212 214 255 255 255
3 81 40 25 255 255 255
3 278 234 46 255 255 255
3 212 234 214 255 255 255
3 40 81 67 255 255 255
3 40 44 25 255 255 255
3 81 273 234 255 255 255
3 67 81 212 255 255 255
3 81 234 212 255 255 255
3 273 212 234 255 255 255
3 234 46 214 255 255 255
3 234 82 212 255 255 255
3 273 25 212 255 255 255
3 52 78 285 255 255 255
3 286 286 286 255 255 255
