ply
format ascii 1.0
element vertex 325
property float x
property float y
property float z
element face 576
property list uchar int vertex_indices
property uchar red
property uchar green
property uchar blue
end_header
6.55000019073486328 -2.86450004577636719 -0.876999974250793457
6.56379842758178711 -2.84691500663757324 -0.915790438652038574
6.5130000114440918 -2.92887496948242188 -0.893499970436096191
6.48000001907348633 -2.92093753814697266 -0.881562530994415283
6.5560002326965332 -2.88400006294250488 -0.796000003814697266
6.51599979400634766 -2.85199999809265137 -0.835500001907348633
6.5130000114440918 -2.86800003051757812 -0.842000007629394531
6.52471542358398438 -2.87796878814697266 -0.799346685409545898
6.51700019836425781 -2.87299990653991699 -0.875
6.56500005722045898 -2.88299989700317383 -0.825999975204467773
6.52899980545043945 -2.90499997138977051 -0.832000017166137695
6.55200004577636719 -2.87550020217895508 -0.881500005722045898
6.55399990081787109 -2.86599993705749512 -0.894000053405761719
6.51999998092651367 -2.89400005340576172 -0.861999988555908203
6.51999998092651367 -2.87899994850158691 -0.865000009536743164
6.52600002288818359 -2.89100003242492676 -0.78200000524520874
6.53900003433227539 -2.8900001049041748 -0.921999990940093994
6.54699993133544922 -2.83899998664855957 -0.915000021457672119
6.52391147613525391 -2.9259955883026123 -0.900150835514068604
6.51599979400634766 -2.90000009536743164 -0.846000015735626221
6.56699991226196289 -2.88499999046325684 -0.919499993324279785
6.55399990081787109 -2.88100004196166992 -0.781000018119812012
6.50099992752075195 -2.92300009727478027 -0.901000022888183594
6.52899980545043945 -2.89800000190734863 -0.805000007152557373
6.44687509536743164 -2.91562509536743164 -0.876999974250793457
6.54193782806396484 -2.8950192928314209 -0.805969119071960449
6.52600002288818359 -2.88700008392333984 -0.791000008583068848
6.55049991607666016 -2.84350013732910156 -0.888999998569488525
6.51399993896484375 -2.87700009346008301 -0.841000020503997803
6.53399991989135742 -2.85699987411499023 -0.84375
6.52400016784667969 -2.87599992752075195 -0.824000000953674316
6.55000019073486328 -2.88400006294250488 -0.887000024318695068
6.53561305999755859 -2.89444899559020996 -0.873003602027893066
6.5625 -2.90549993515014648 -0.848999977111816406
6.5689997673034668 -2.86599993705749512 -0.83899998664855957
6.57750034332275391 -2.87400007247924805 -0.841000020503997803
6.56400012969970703 -2.88599991798400879 -0.829999983310699463
6.57000017166137695 -2.88899993896484375 -0.837999999523162842
6.55999994277954102 -2.89299988746643066 -0.916000008583068848
6.53599977493286133 -2.84899997711181641 -0.897000014781951904
6.54799985885620117 -2.84849977493286133 -0.88050001859664917
6.53399991989135742 -2.84599995613098145 -0.90700000524520874
6.55900001525878906 -2.83699989318847656 -0.910000026226043701
6.55399990081787109 -2.89400005340576172 -0.81400001049041748
6.46600008010864258 -2.91899991035461426 -0.876999974250793457
6.55499982833862305 -2.88199996948242188 -0.796000003814697266
6.5560002326965332 -2.89599990844726562 -0.828999996185302734
6.51417064666748047 -2.91896438598632812 -0.895765304565429688
6.54650020599365234 -2.86350011825561523 -0.822000026702880859
6.53499984741210938 -2.89599990844726562 -0.788999974727630615
6.56400012969970703 -2.86100006103515625 -0.823000013828277588
6.54699993133544922 -2.88599991798400879 -0.887000024318695068
6.55299997329711914 -2.89199995994567871 -0.809000015258789062
6.52099990844726562 -2.8880000114440918 -0.81800001859664917
6.53699970245361328 -2.89249992370605469 -0.897000014781951904
6.57499980926513672 -2.87400007247924805 -0.834999978542327881
6.55299997329711914 -2.88299989700317383 -0.862999975681304932
6.55499982833862305 -2.87100005149841309 -0.869000017642974854
6.53900003433227539 -2.86899995803833008 -0.820999979972839355
6.55399990081787109 -2.87100005149841309 -0.814999997615814209
6.54699993133544922 -2.85599994659423828 -0.870000004768371582
6.53499984741210938 -2.89700007438659668 -0.802999973297119141
6.52699995040893555 -2.85400009155273438 -0.91100001335144043
6.55525016784667969 -2.8242499828338623 -0.897249996662139893
6.48960351943969727 -2.93418765068054199 -0.891729116439819336
6.57399988174438477 -2.875 -0.910000026226043701
6.54199981689453125 -2.85899996757507324 -0.926999986171722412
6.54600000381469727 -2.87699985504150391 -0.784500002861022949
6.55000019073486328 -2.84200000762939453 -0.925999999046325684
6.5130000114440918 -2.86100006103515625 -0.847000002861022949
6.54075002670288086 -2.85199999809265137 -0.887250006198883057
6.44099998474121094 -2.90999984741210938 -0.86949998140335083
6.52500009536743164 -2.90000009536743164 -0.800000011920928955
6.42799997329711914 -2.91949987411499023 -0.871999979019165039
6.55900001525878906 -2.88249993324279785 -0.914499998092651367
6.45543813705444336 -2.9163053035736084 -0.87333369255065918
6.55200004577636719 -2.88700008392333984 -0.915000021457672119
6.4310002326965332 -2.91100001335144043 -0.865999996662139893
6.56010580062866211 -2.82114410400390625 -0.908536195755004883
6.5279998779296875 -2.90499997138977051 -0.834999978542327881
6.4590001106262207 -2.90899991989135742 -0.879999995231628418
6.52299976348876953 -2.88100004196166992 -0.800999999046325684
6.54602909088134766 -2.86426472663879395 -0.935911297798156738
6.53200006484985352 -2.85299992561340332 -0.921999990940093994
6.54300022125244141 -2.84100008010864258 -0.925000011920928955
6.5560002326965332 -2.89299988746643066 -0.819000005722045898
6.51700019836425781 -2.86299991607666016 -0.847999989986419678
6.55399990081787109 -2.88400006294250488 -0.805000007152557373
6.54199981689453125 -2.86999988555908203 -0.788999974727630615
6.46049976348876953 -2.9244999885559082 -0.883000016212463379
6.55299997329711914 -2.87700009346008301 -0.800000011920928955
6.5409998893737793 -2.90799999237060547 -0.829999983310699463
6.55299997329711914 -2.88499999046325684 -0.782999992370605469
6.55299997329711914 -2.8900001049041748 -0.86799997091293335
6.54799985885620117 -2.89599990844726562 -0.814999997615814209
6.55399990081787109 -2.90600013732910156 -0.828000009059906006
6.53779458999633789 -2.85468435287475586 -0.864226996898651123
6.54300022125244141 -2.89899992942810059 -0.824999988079071045
6.53100013732910156 -2.88400006294250488 -0.884000003337860107
6.53019952774047852 -2.9028475284576416 -0.864586055278778076
6.54699993133544922 -2.92100000381469727 -0.847999989986419678
6.52600002288818359 -2.88599991798400879 -0.795000016689300537
6.53200006484985352 -2.87899994850158691 -0.791999995708465576
6.51999998092651367 -2.8900001049041748 -0.808000028133392334
6.53399991989135742 -2.87800002098083496 -0.788999974727630615
6.53529930114746094 -2.8791501522064209 -0.933981478214263916
6.5409998893737793 -2.8880000114440918 -0.902999997138977051
6.5332188606262207 -2.85494399070739746 -0.841879189014434814
6.52299976348876953 -2.89400005340576172 -0.832000017166137695
6.5409998893737793 -2.88599991798400879 -0.875999987125396729
6.54705286026000977 -2.90756940841674805 -0.863075375556945801
6.55749988555908203 -2.9095001220703125 -0.84224998950958252
6.56300020217895508 -2.90400004386901855 -0.837000012397766113
6.52699995040893555 -2.85899996757507324 -0.875999987125396729
6.52099990844726562 -2.85700011253356934 -0.879999995231628418
6.52294063568115234 -2.85048317909240723 -0.833681762218475342
6.53252458572387695 -2.88235378265380859 -0.91046375036239624
6.51999998092651367 -2.87899994850158691 -0.871999979019165039
6.54500007629394531 -2.83800005912780762 -0.906000018119812012
6.49650001525878906 -2.91349983215332031 -0.890500009059906006
6.54199981689453125 -2.87299990653991699 -0.787000000476837158
6.56899881362915039 -2.88009309768676758 -0.914912283420562744
6.48750019073486328 -2.92050004005432129 -0.882500052452087402
6.53499984741210938 -2.89599990844726562 -0.792999982833862305
6.53599977493286133 -2.84899997711181641 -0.924000024795532227
6.55200004577636719 -2.87100005149841309 -0.880999982357025146
6.54300022125244141 -2.85199999809265137 -0.880999982357025146
6.53599977493286133 -2.87599992752075195 -0.787999987602233887
6.55800008773803711 -2.85443758964538574 -0.896000027656555176
6.49550008773803711 -2.92400002479553223 -0.886500000953674316
6.48299980163574219 -2.93000006675720215 -0.889999985694885254
6.46987485885620117 -2.91575002670288086 -0.876624941825866699
6.43699979782104492 -2.91300010681152344 -0.866999983787536621
6.44649982452392578 -2.90499997138977051 -0.87349998950958252
6.55200004577636719 -2.8619999885559082 -0.888000011444091797
6.55023622512817383 -2.87320232391357422 -0.792082726955413818
6.52499961853027344 -2.84899997711181641 -0.840499997138977051
6.55399990081787109 -2.84649991989135742 -0.886500000953674316
6.49900007247924805 -2.92799997329711914 -0.896000027656555176
6.54349994659423828 -2.85524988174438477 -0.86399996280670166
6.53399991989135742 -2.88000011444091797 -0.921999990940093994
6.51700019836425781 -2.86400008201599121 -0.839999973773956299
6.55399990081787109 -2.89900016784667969 -0.82500004768371582
6.52400016784667969 -2.85299992561340332 -0.913999974727630615
6.55100011825561523 -2.83899998664855957 -0.920000016689300537
6.55100011825561523 -2.8340001106262207 -0.903999984264373779
6.52699995040893555 -2.89199995994567871 -0.791000008583068848
6.53900003433227539 -2.875 -0.93900001049041748
6.50899982452392578 -2.92700004577636719 -0.893000006675720215
6.52500009536743164 -2.88199996948242188 -0.852999985218048096
6.55100011825561523 -2.87899994850158691 -0.783999979496002197
6.5345001220703125 -2.8470001220703125 -0.921000003814697266
6.47300004959106445 -2.9179999828338623 -0.884000003337860107
6.56599998474121094 -2.87199997901916504 -0.824999988079071045
6.54600000381469727 -2.88499999046325684 -0.785000026226043701
6.55200004577636719 -2.82999992370605469 -0.898999989032745361
6.52099990844726562 -2.89899992942810059 -0.853999972343444824
6.5560002326965332 -2.84200000762939453 -0.902999997138977051
6.51337528228759766 -2.84537506103515625 -0.837875008583068848
6.53250026702880859 -2.84500002861022949 -0.912000000476837158
6.51000022888183594 -2.93600010871887207 -0.898999989032745361
6.54300022125244141 -2.87199997901916504 -0.802999973297119141
6.56099987030029297 -2.85899996757507324 -0.913999974727630615
6.48899984359741211 -2.91499996185302734 -0.884000003337860107
6.55000019073486328 -2.86299991607666016 -0.879999995231628418
6.54500007629394531 -2.84625005722045898 -0.893000006675720215
6.5279998779296875 -2.86500000953674316 -0.902999997138977051
6.55150032043457031 -2.85050010681152344 -0.879999995231628418
6.57899999618530273 -2.87599992752075195 -0.916499972343444824
6.47700023651123047 -2.93400001525878906 -0.893000006675720215
6.5409998893737793 -2.87199997901916504 -0.800999999046325684
6.43499994277954102 -2.91199994087219238 -0.866999983787536621
6.52899980545043945 -2.91400003433227539 -0.836000025272369385
6.5560002326965332 -2.85299992561340332 -0.920000016689300537
6.54600000381469727 -2.88899993896484375 -0.78600001335144043
6.57200002670288086 -2.87299990653991699 -0.830999970436096191
6.56474971771240234 -2.86100006103515625 -0.81875002384185791
6.55279254913330078 -2.89754796028137207 -0.853243470191955566
6.55700016021728516 -2.89400005340576172 -0.830999970436096191
6.55948972702026367 -2.87767982482910156 -0.81463921070098877
6.55201101303100586 -2.89907217025756836 -0.866972565650939941
6.53599977493286133 -2.8599998950958252 -0.85000002384185791
6.55499982833862305 -2.90899991989135742 -0.833999991416931152
6.53900003433227539 -2.88700008392333984 -0.889999985694885254
6.54194879531860352 -2.91878795623779297 -0.832982897758483887
6.53999996185302734 -2.8900001049041748 -0.926999986171722412
6.52711057662963867 -2.88505244255065918 -0.9000435471534729
6.55499982833862305 -2.88599991798400879 -0.816999971866607666
6.54400014877319336 -2.83899998664855957 -0.902000010013580322
6.50224971771240234 -2.93200016021728516 -0.896499991416931152
6.4244999885559082 -2.91200017929077148 -0.866999983787536621
6.57399988174438477 -2.87199997901916504 -0.832000017166137695
6.55154943466186523 -2.85700273513793945 -0.884155213832855225
6.55000019073486328 -2.83999991416931152 -0.897000014781951904
6.53050041198730469 -2.85299992561340332 -0.840999960899353027
6.42500019073486328 -2.90499997138977051 -0.866999983787536621
6.46299982070922852 -2.9159998893737793 -0.88200002908706665
6.4869999885559082 -2.92000007629394531 -0.890999972820281982
6.55499982833862305 -2.84500002861022949 -0.894999980926513672
6.55814409255981445 -2.87307143211364746 -0.917876720428466797
6.46199989318847656 -2.92899990081787109 -0.878000020980834961
6.52500009536743164 -2.9030001163482666 -0.847999989986419678
6.54500007629394531 -2.84299993515014648 -0.897000014781951904
6.54300022125244141 -2.84299993515014648 -0.89999997615814209
6.55499982833862305 -2.88400006294250488 -0.792999982833862305
6.54799985885620117 -2.89899992942810059 -0.799000024795532227
6.52199983596801758 -2.85599994659423828 -0.855000019073486328
6.55700016021728516 -2.84100008010864258 -0.921000003814697266
6.54600000381469727 -2.86800003051757812 -0.795000016689300537
6.52199983596801758 -2.86800003051757812 -0.862999975681304932
6.52400016784667969 -2.87700009346008301 -0.811999976634979248
6.52199983596801758 -2.85299992561340332 -0.890999972820281982
6.53299999237060547 -2.87599992752075195 -0.916000008583068848
6.58099985122680664 -2.88400006294250488 -0.833999991416931152
6.51700019836425781 -2.92700004577636719 -0.898999989032745361
6.46150016784667969 -2.91524982452392578 -0.874000012874603271
6.5527496337890625 -2.87625002861022949 -0.886250019073486328
6.54500007629394531 -2.87400007247924805 -0.78600001335144043
6.52299976348876953 -2.86800003051757812 -0.897000014781951904
6.55700016021728516 -2.86299991607666016 -0.919000029563903809
6.56099987030029297 -2.86500000953674316 -0.833000004291534424
6.56075000762939453 -2.86924982070922852 -0.84375
6.55000019073486328 -2.86899995803833008 -0.842000007629394531
6.57049989700317383 -2.86549997329711914 -0.825999975204467773
6.54899978637695312 -2.86400008201599121 -0.830999970436096191
6.56799983978271484 -2.86599993705749512 -0.823000013828277588
6.54800033569335938 -2.87400007247924805 -0.800500035285949707
6.55249977111816406 -2.88399982452392578 -0.893499970436096191
6.55257463455200195 -2.9119422435760498 -0.856015563011169434
6.53499984741210938 -2.87450003623962402 -0.795000016689300537
6.57999992370605469 -2.88549995422363281 -0.848000049591064453
6.53849983215332031 -2.84150004386901855 -0.913999974727630615
6.55049991607666016 -2.84350013732910156 -0.891499996185302734
6.54718780517578125 -2.83693742752075195 -0.909062504768371582
6.57600021362304688 -2.87400007247924805 -0.837000012397766113
6.55100011825561523 -2.88100004196166992 -0.778999984264373779
6.55749988555908203 -2.84325003623962402 -0.90625
6.55399990081787109 -2.83100008964538574 -0.907999992370605469
6.53100013732910156 -2.89700007438659668 -0.808000028133392334
6.51898908615112305 -2.8746788501739502 -0.886479794979095459
6.56160593032836914 -2.87896323204040527 -0.853949368000030518
6.55399990081787109 -2.87199997901916504 -0.852999985218048096
6.54199981689453125 -2.85899996757507324 -0.839999973773956299
6.55999994277954102 -2.8619999885559082 -0.828999996185302734
6.57499980926513672 -2.8880000114440918 -0.845000028610229492
6.56699991226196289 -2.875 -0.846000015735626221
6.55483102798461914 -2.88663458824157715 -0.856375396251678467
6.54451990127563477 -2.86500906944274902 -0.847882330417633057
6.55900001525878906 -2.86100006103515625 -0.824000000953674316
6.56974983215332031 -2.86124992370605469 -0.826999962329864502
6.57204151153564453 -2.87227439880371094 -0.912961840629577637
6.53700017929077148 -2.85199999809265137 -0.924000024795532227
6.53000020980834961 -2.90000009536743164 -0.81800001859664917
6.55399990081787109 -2.8880000114440918 -0.805000007152557373
6.54500007629394531 -2.83999991416931152 -0.925999999046325684
6.43925046920776367 -2.91674995422363281 -0.870875000953674316
6.55399990081787109 -2.84200000762939453 -0.896000027656555176
6.53299999237060547 -2.85700011253356934 -0.834999978542327881
6.54600000381469727 -2.91000008583068848 -0.828999996185302734
6.56500005722045898 -2.86500000953674316 -0.819999992847442627
6.53200006484985352 -2.85800004005432129 -0.879000008106231689
6.56300020217895508 -2.90100002288818359 -0.846000015735626221
6.53200006484985352 -2.8619999885559082 -0.833000004291534424
6.52202844619750977 -2.87458586692810059 -0.829879105091094971
6.54500007629394531 -2.86999988555908203 -0.816999971866607666
6.55499982833862305 -2.86100006103515625 -0.819999992847442627
6.55100011825561523 -2.86700010299682617 -0.88200002908706665
6.53399991989135742 -2.89699983596801758 -0.819000005722045898
6.53700017929077148 -2.875 -0.802999973297119141
6.56599998474121094 -2.91000008583068848 -0.837000012397766113
6.53599977493286133 -2.85700011253356934 -0.874000012874603271
6.52699995040893555 -2.85400009155273438 -0.865000009536743164
6.52899980545043945 -2.85599994659423828 -0.833999991416931152
6.52400016784667969 -2.8599998950958252 -0.828999996185302734
6.53600025177001953 -2.87400007247924805 -0.811500012874603271
6.54400014877319336 -2.87299990653991699 -0.81099998950958252
6.55550003051757812 -2.89449977874755859 -0.825500011444091797
6.52750015258789062 -2.88849997520446777 -0.869000017642974854
6.52069091796875 -2.87366938591003418 -0.903526961803436279
6.52899980545043945 -2.90799999237060547 -0.846000015735626221
6.53100013732910156 -2.89800000190734863 -0.795000016689300537
6.4785003662109375 -2.91550016403198242 -0.883499979972839355
6.53000020980834961 -2.90899991989135742 -0.856999993324279785
6.53324985504150391 -2.91074991226196289 -0.830250024795532227
6.5494999885559082 -2.88199996948242188 -0.779999971389770508
6.55100011825561523 -2.87800002098083496 -0.927999973297119141
6.55150032043457031 -2.87449979782104492 -0.795500040054321289
6.55700016021728516 -2.87599992752075195 -0.903999984264373779
6.52364587783813477 -2.85226941108703613 -0.891755521297454834
6.52699995040893555 -2.93600010871887207 -0.901000022888183594
6.52299976348876953 -2.90100002288818359 -0.851999998092651367
6.52699995040893555 -2.88100004196166992 -0.912999987602233887
6.55675029754638672 -2.84774994850158691 -0.902999997138977051
6.55399990081787109 -2.83799982070922852 -0.925999999046325684
6.50449991226196289 -2.92175006866455078 -0.887750029563903809
6.53609848022460938 -2.86704134941101074 -0.934905111789703369
6.54799985885620117 -2.88899993896484375 -0.925999999046325684
6.54899978637695312 -2.8619999885559082 -0.86799997091293335
6.54500007629394531 -2.87199997901916504 -0.787999987602233887
6.52299976348876953 -2.85299992561340332 -0.847000002861022949
6.54450035095214844 -2.84999990463256836 -0.885500013828277588
6.53174972534179688 -2.91225004196166992 -0.84850001335144043
6.55999994277954102 -2.83150005340576172 -0.904000043869018555
6.51905250549316406 -2.88254785537719727 -0.834234416484832764
6.53800010681152344 -2.88100004196166992 -0.787999987602233887
6.5581512451171875 -2.86307549476623535 -0.904056191444396973
6.54794692993164062 -2.83976602554321289 -0.931795954704284668
6.4720001220703125 -2.92100000381469727 -0.879999995231628418
6.42999982833862305 -2.91499996185302734 -0.873000025749206543
6.50950002670288086 -2.84749984741210938 -0.840000033378601074
6.52099990844726562 -2.88199996948242188 -0.802999973297119141
6.53999996185302734 -2.89299988746643066 -0.791999995708465576
6.53299999237060547 -2.86299991607666016 -0.920000016689300537
6.43800020217895508 -2.9030001163482666 -0.873000025749206543
6.42749977111816406 -2.91900014877319336 -0.875
6.55299997329711914 -2.82999992370605469 -0.902000010013580322
6.57200002670288086 -2.86599993705749512 -0.830999970436096191
6.55000019073486328 -2.85700011253356934 -0.875
6.5279998779296875 -2.90599989891052246 -0.842000007629394531
6.42299985885620117 -2.90799999237060547 -0.871999979019165039
6.55499982833862305 -2.88899993896484375 -0.802999973297119141
6.55800008773803711 -2.88599991798400879 -0.921999990940093994
6.53900003433227539 -2.87400007247924805 -0.787000000476837158
6.54699993133544922 -2.86599993705749512 -0.927999973297119141
6.46837520599365234 -2.92824983596801758 -0.884500026702880859
3 37 35 245 255 255 255
3 245 36 37 255 255 255
3 37 213 35 255 255 255
3 35 34 245 255 255 255
3 37 36 213 255 255 255
3 36 9 213 255 255 255
3 34 221 245 255 255 255
3 35 316 34 255 255 255
3 34 220 221 255 255 255
3 220 222 221 255 255 255
3 34 223 220 255 255 255
3 221 240 245 255 255 255
3 222 240 221 255 255 255
3 220 224 222 255 255 255
3 223 225 220 255 255 255
3 34 234 223 255 255 255
3 222 241 240 255 255 255
3 224 242 222 255 255 255
3 220 243 224 255 255 255
3 225 259 220 255 255 255
3 223 191 225 255 255 255
3 240 244 245 255 255 255
3 240 241 246 255 255 255
3 241 56 246 255 255 255
3 222 247 241 255 255 255
3 242 247 222 255 255 255
3 224 262 242 255 255 255
3 243 248 224 255 255 255
3 220 153 243 255 255 255
3 225 249 259 255 255 255
3 244 55 245 255 255 255
3 240 230 244 255 255 255
3 246 56 240 255 255 255
3 241 57 56 255 255 255
3 247 297 241 255 255 255
3 242 262 247 255 255 255
3 224 58 262 255 255 255
3 248 59 224 255 255 255
3 243 259 248 255 255 255
3 220 175 153 255 255 255
3 249 176 259 255 255 255
3 225 223 249 255 255 255
3 55 175 245 255 255 255
3 244 213 55 255 255 255
3 56 57 240 255 255 255
3 57 241 240 255 255 255
3 246 93 56 255 255 255
3 246 261 177 255 255 255
3 247 96 297 255 255 255
3 247 181 96 255 255 255
3 247 29 181 255 255 255
3 58 263 262 255 255 255
3 224 264 58 255 255 255
3 59 264 224 255 255 255
3 59 179 264 255 255 255
3 259 265 248 255 255 255
3 175 9 153 255 255 255
3 176 59 259 255 255 255
3 244 230 213 255 255 255
3 93 11 56 255 255 255
3 246 177 93 255 255 255
3 177 180 93 255 255 255
3 177 228 180 255 255 255
3 261 33 177 255 255 255
3 247 262 29 255 255 255
3 262 272 29 255 255 255
3 263 141 262 255 255 255
3 58 30 263 255 255 255
3 264 274 58 255 255 255
3 179 187 264 255 255 255
3 265 48 248 255 255 255
3 9 179 153 255 255 255
3 175 55 9 255 255 255
3 59 153 259 255 255 255
3 176 265 59 255 255 255
3 93 31 11 255 255 255
3 180 32 93 255 255 255
3 177 33 228 255 255 255
3 261 269 33 255 255 255
3 96 270 297 255 255 255
3 181 271 96 255 255 255
3 181 206 271 255 255 255
3 29 299 181 255 255 255
3 262 273 272 255 255 255
3 30 303 263 255 255 255
3 58 274 30 255 255 255
3 264 275 274 255 255 255
3 265 264 48 255 255 255
3 9 187 179 255 255 255
3 9 36 187 255 255 255
3 36 276 187 255 255 255
3 249 50 176 255 255 255
3 223 316 249 255 255 255
3 31 216 11 255 255 255
3 31 227 216 255 255 255
3 93 51 31 255 255 255
3 32 109 93 255 255 255
3 180 110 32 255 255 255
3 33 111 228 255 255 255
3 269 111 33 255 255 255
3 261 112 269 255 255 255
3 270 0 297 255 255 255
3 96 113 270 255 255 255
3 271 113 96 255 255 255
3 271 114 113 255 255 255
3 181 86 206 255 255 255
3 29 115 299 255 255 255
3 272 115 29 255 255 255
3 273 5 272 255 255 255
3 262 263 273 255 255 255
3 263 28 141 255 255 255
3 274 53 30 255 255 255
3 275 226 274 255 255 255
3 276 94 187 255 255 255
3 36 178 276 255 255 255
3 50 248 176 255 255 255
3 249 243 50 255 255 255
3 31 51 227 255 255 255
3 51 54 227 255 255 255
3 93 109 51 255 255 255
3 109 32 51 255 255 255
3 110 99 32 255 255 255
3 180 228 110 255 255 255
3 111 100 228 255 255 255
3 269 182 111 255 255 255
3 112 95 269 255 255 255
3 261 178 112 255 255 255
3 113 260 270 255 255 255
3 114 8 113 255 255 255
3 181 107 86 255 255 255
3 115 5 299 255 255 255
3 263 6 273 255 255 255
3 28 6 141 255 255 255
3 30 53 303 255 255 255
3 53 108 303 255 255 255
3 53 267 108 255 255 255
3 268 7 274 255 255 255
3 274 226 268 255 255 255
3 226 229 268 255 255 255
3 264 274 48 255 255 255
3 94 52 187 255 255 255
3 276 97 94 255 255 255
3 36 112 178 255 255 255
3 227 12 216 255 255 255
3 54 106 227 255 255 255
3 54 116 106 255 255 255
3 51 183 54 255 255 255
3 32 183 51 255 255 255
3 32 98 183 255 255 255
3 228 100 110 255 255 255
3 111 184 100 255 255 255
3 182 184 111 255 255 255
3 269 95 182 255 255 255
3 95 258 182 255 255 255
3 270 164 0 255 255 255
3 260 70 270 255 255 255
3 8 209 113 255 255 255
3 114 239 8 255 255 255
3 107 141 86 255 255 255
3 5 309 299 255 255 255
3 6 86 273 255 255 255
3 108 19 303 255 255 255
3 267 10 108 255 255 255
3 7 210 274 255 255 255
3 268 101 7 255 255 255
3 229 102 268 255 255 255
3 226 135 229 255 255 255
3 275 90 226 255 255 255
3 52 87 187 255 255 255
3 94 25 52 255 255 255
3 97 267 94 255 255 255
3 276 46 97 255 255 255
3 178 46 276 255 255 255
3 178 182 46 255 255 255
3 227 287 12 255 255 255
3 106 76 227 255 255 255
3 183 98 54 255 255 255
3 98 186 54 255 255 255
3 32 277 98 255 255 255
3 32 13 277 255 255 255
3 99 13 32 255 255 255
3 99 156 13 255 255 255
3 99 110 282 255 255 255
3 100 301 110 255 255 255
3 184 301 100 255 255 255
3 95 97 258 255 255 255
3 112 142 95 255 255 255
3 266 125 0 255 255 255
3 0 164 266 255 255 255
3 164 134 266 255 255 255
3 270 126 164 255 255 255
3 70 126 270 255 255 255
3 70 192 126 255 255 255
3 8 14 209 255 255 255
3 107 262 141 255 255 255
3 5 158 309 255 255 255
3 6 28 86 255 255 255
3 108 201 19 255 255 255
3 10 79 108 255 255 255
3 53 238 267 255 255 255
3 7 103 210 255 255 255
3 101 310 7 255 255 255
3 268 102 101 255 255 255
3 102 304 101 255 255 255
3 229 104 102 255 255 255
3 135 322 229 255 255 255
3 90 45 226 255 255 255
3 52 25 87 255 255 255
3 267 25 94 255 255 255
3 267 238 25 255 255 255
3 238 61 25 255 255 255
3 97 10 267 255 255 255
3 97 91 10 255 255 255
3 182 142 46 255 255 255
3 11 216 125 255 255 255
3 12 134 216 255 255 255
3 287 305 12 255 255 255
3 227 76 287 255 255 255
3 76 74 287 255 255 255
3 106 16 76 255 255 255
3 116 16 106 255 255 255
3 116 291 16 255 255 255
3 54 186 116 255 255 255
3 98 239 186 255 255 255
3 13 117 277 255 255 255
3 156 149 13 255 255 255
3 99 282 156 255 255 255
3 282 290 156 255 255 255
3 110 301 282 255 255 255
3 184 172 301 255 255 255
3 184 283 172 255 255 255
3 95 142 97 255 255 255
3 112 46 142 255 255 255
3 164 192 134 255 255 255
3 192 317 126 255 255 255
3 260 288 70 255 255 255
3 14 149 209 255 255 255
3 8 117 14 255 255 255
3 98 277 239 255 255 255
3 5 115 158 255 255 255
3 201 290 19 255 255 255
3 108 318 201 255 255 255
3 79 318 108 255 255 255
3 79 283 318 255 255 255
3 10 91 79 255 255 255
3 53 103 238 255 255 255
3 103 53 210 255 255 255
3 101 103 310 255 255 255
3 304 49 101 255 255 255
3 102 229 304 255 255 255
3 104 26 102 255 255 255
3 229 127 104 255 255 255
3 135 217 322 255 255 255
3 226 45 135 255 255 255
3 45 204 135 255 255 255
3 90 4 45 255 255 255
3 238 23 61 255 255 255
3 97 142 91 255 255 255
3 182 258 142 255 255 255
3 258 91 142 255 255 255
3 12 128 134 255 255 255
3 12 305 128 255 255 255
3 287 250 305 255 255 255
3 76 38 74 255 255 255
3 16 296 76 255 255 255
3 291 140 16 255 255 255
3 116 186 291 255 255 255
3 239 278 186 255 255 255
3 117 239 277 255 255 255
3 117 8 239 255 255 255
3 13 14 117 255 255 255
3 149 14 13 255 255 255
3 282 301 290 255 255 255
3 172 279 301 255 255 255
3 184 258 283 255 255 255
3 142 43 97 255 255 255
3 317 60 126 255 255 255
3 70 165 192 255 255 255
3 70 39 165 255 255 255
3 288 39 70 255 255 255
3 288 211 39 255 255 255
3 115 194 136 255 255 255
3 318 279 201 255 255 255
3 103 81 238 255 255 255
3 101 61 103 255 255 255
3 304 174 49 255 255 255
3 102 7 229 255 255 255
3 104 15 26 255 255 255
3 127 67 104 255 255 255
3 229 217 127 255 255 255
3 67 120 135 255 255 255
3 45 320 204 255 255 255
3 61 311 25 255 255 255
3 61 101 311 255 255 255
3 23 146 61 255 255 255
3 305 162 128 255 255 255
3 287 65 250 255 255 255
3 74 121 287 255 255 255
3 74 38 121 255 255 255
3 38 20 121 255 255 255
3 76 296 38 255 255 255
3 16 185 296 255 255 255
3 140 185 16 255 255 255
3 140 105 185 255 255 255
3 291 212 140 255 255 255
3 186 278 291 255 255 255
3 239 218 278 255 255 255
3 283 79 172 255 255 255
3 142 85 43 255 255 255
3 164 317 192 255 255 255
3 317 297 60 255 255 255
3 165 137 192 255 255 255
3 39 203 165 255 255 255
3 260 114 288 255 255 255
3 115 136 158 255 255 255
3 136 299 158 255 255 255
3 115 272 194 255 255 255
3 272 257 194 255 255 255
3 81 101 238 255 255 255
3 61 252 103 255 255 255
3 174 205 49 255 255 255
3 304 154 174 255 255 255
3 229 170 304 255 255 255
3 15 123 26 255 255 255
3 229 298 217 255 255 255
3 120 208 135 255 255 255
3 135 284 67 255 255 255
3 204 92 135 255 255 255
3 45 253 320 255 255 255
3 311 253 25 255 255 255
3 146 123 61 255 255 255
3 23 310 146 255 255 255
3 162 292 128 255 255 255
3 162 1 292 255 255 255
3 305 219 162 255 255 255
3 65 168 250 255 255 255
3 287 121 65 255 255 255
3 185 105 296 255 255 255
3 140 295 105 255 255 255
3 212 295 140 255 255 255
3 291 278 212 255 255 255
3 278 166 212 255 255 255
3 218 166 278 255 255 255
3 218 211 166 255 255 255
3 85 187 43 255 255 255
3 142 46 85 255 255 255
3 317 167 192 255 255 255
3 60 139 126 255 255 255
3 297 139 60 255 255 255
3 39 41 203 255 255 255
3 136 194 299 255 255 255
3 194 206 299 255 255 255
3 81 7 101 255 255 255
3 205 25 49 255 255 255
3 174 204 205 255 255 255
3 170 298 304 255 255 255
3 7 170 229 255 255 255
3 15 174 123 255 255 255
3 127 120 67 255 255 255
3 127 229 120 255 255 255
3 298 67 217 255 255 255
3 229 88 298 255 255 255
3 208 286 135 255 255 255
3 120 88 208 255 255 255
3 135 92 284 255 255 255
3 45 87 253 255 255 255
3 311 320 253 255 255 255
3 146 102 123 255 255 255
3 23 238 310 255 255 255
3 292 198 128 255 255 255
3 1 236 292 255 255 255
3 219 1 162 255 255 255
3 121 168 65 255 255 255
3 105 285 296 255 255 255
3 147 285 105 255 255 255
3 147 82 285 255 255 255
3 105 295 147 255 255 255
3 212 312 295 255 255 255
3 166 312 212 255 255 255
3 166 62 312 255 255 255
3 187 253 43 255 255 255
3 46 36 85 255 255 255
3 40 27 192 255 255 255
3 192 167 40 255 255 255
3 165 232 137 255 255 255
3 203 202 165 255 255 255
3 41 233 203 255 255 255
3 39 62 41 255 255 255
3 206 69 299 255 255 255
3 107 181 194 255 255 255
3 194 257 107 255 255 255
3 257 262 107 255 255 255
3 205 320 25 255 255 255
3 298 67 304 255 255 255
3 170 161 298 255 255 255
3 150 92 67 255 255 255
3 67 120 217 255 255 255
3 208 90 286 255 255 255
3 284 235 67 255 255 255
3 102 311 123 255 255 255
3 146 81 102 255 255 255
3 137 167 128 255 255 255
3 128 192 137 255 255 255
3 128 198 192 255 255 255
3 292 236 157 255 255 255
3 1 42 236 255 255 255
3 219 173 1 255 255 255
3 219 323 173 255 255 255
3 250 219 305 255 255 255
3 250 199 219 255 255 255
3 285 321 296 255 255 255
3 82 323 285 255 255 255
3 147 295 82 255 255 255
3 83 251 295 255 255 255
3 295 312 83 255 255 255
3 312 143 83 255 255 255
3 62 143 312 255 255 255
3 62 159 143 255 255 255
3 165 193 232 255 255 255
3 202 198 165 255 255 255
3 203 256 202 255 255 255
3 41 231 233 255 255 255
3 62 151 41 255 255 255
3 67 154 304 255 255 255
3 298 150 67 255 255 255
3 170 275 161 255 255 255
3 150 21 92 255 255 255
3 146 72 81 255 255 255
3 167 27 128 255 255 255
3 137 27 167 255 255 255
3 198 137 192 255 255 255
3 157 256 292 255 255 255
3 236 302 157 255 255 255
3 236 42 302 255 255 255
3 42 78 302 255 255 255
3 1 207 42 255 255 255
3 173 207 1 255 255 255
3 173 293 207 255 255 255
3 323 66 173 255 255 255
3 219 199 323 255 255 255
3 199 285 323 255 255 255
3 199 321 285 255 255 255
3 199 20 321 255 255 255
3 321 38 296 255 255 255
3 321 20 38 255 255 255
3 82 66 323 255 255 255
3 251 66 295 255 255 255
3 83 124 251 255 255 255
3 143 151 83 255 255 255
3 40 167 27 255 255 255
3 233 118 203 255 255 255
3 231 17 233 255 255 255
3 151 231 41 255 255 255
3 151 251 231 255 255 255
3 62 83 151 255 255 255
3 150 235 21 255 255 255
3 286 4 135 255 255 255
3 146 280 72 255 255 255
3 157 145 256 255 255 255
3 42 233 78 255 255 255
3 293 144 207 255 255 255
3 173 68 293 255 255 255
3 66 68 173 255 255 255
3 66 306 68 255 255 255
3 199 121 20 255 255 255
3 199 250 121 255 255 255
3 250 168 121 255 255 255
3 66 82 295 255 255 255
3 251 84 66 255 255 255
3 143 159 151 255 255 255
3 118 193 203 255 255 255
3 231 84 17 255 255 255
3 157 237 145 255 255 255
3 144 42 207 255 255 255
3 144 237 42 255 255 255
3 68 306 293 255 255 255
3 231 151 159 255 255 255
3 159 118 231 255 255 255
3 300 126 40 255 255 255
3 17 144 233 255 255 255
3 231 151 84 255 255 255
3 157 42 237 255 255 255
3 42 157 233 255 255 255
3 306 254 293 255 255 255
3 118 233 231 255 255 255
3 159 188 118 255 255 255
3 78 63 302 255 255 255
3 254 17 293 255 255 255
3 188 145 118 255 255 255
3 159 203 188 255 255 255
3 63 155 302 255 255 255
3 145 233 118 255 255 255
3 188 315 145 255 255 255
3 63 315 155 255 255 255
3 63 78 315 255 255 255
3 78 237 315 255 255 255
3 47 2 18 255 255 255
3 18 189 47 255 255 255
3 289 160 18 255 255 255
3 189 294 47 255 255 255
3 18 160 189 255 255 255
3 2 214 18 255 255 255
3 47 294 2 255 255 255
3 189 129 294 255 255 255
3 2 160 214 255 255 255
3 294 148 2 255 255 255
3 294 129 148 255 255 255
3 189 64 129 255 255 255
3 2 189 160 255 255 255
3 2 148 189 255 255 255
3 129 138 148 255 255 255
3 138 22 148 255 255 255
3 64 130 129 255 255 255
3 129 119 138 255 255 255
3 130 122 129 255 255 255
3 64 169 130 255 255 255
3 169 324 130 255 255 255
3 119 22 138 255 255 255
3 129 122 119 255 255 255
3 122 163 119 255 255 255
3 324 152 130 255 255 255
3 122 281 163 255 255 255
3 130 3 122 255 255 255
3 152 197 130 255 255 255
3 122 3 281 255 255 255
3 3 152 281 255 255 255
3 152 131 281 255 255 255
3 3 307 152 255 255 255
3 324 196 152 255 255 255
3 89 196 324 255 255 255
3 89 24 196 255 255 255
3 152 196 131 255 255 255
3 196 215 131 255 255 255
3 24 80 196 255 255 255
3 75 24 89 255 255 255
3 75 255 24 255 255 255
3 89 200 75 255 255 255
3 307 131 152 255 255 255
3 200 215 75 255 255 255
3 89 324 200 255 255 255
3 324 307 200 255 255 255
3 131 3 281 255 255 255
3 196 75 215 255 255 255
3 131 44 307 255 255 255
3 44 196 307 255 255 255
3 24 133 80 255 255 255
3 131 215 44 255 255 255
3 44 215 196 255 255 255
3 163 281 3 255 255 255
3 3 197 163 255 255 255
3 24 313 133 255 255 255
3 197 119 163 255 255 255
3 3 130 197 255 255 255
3 24 308 313 255 255 255
3 255 308 24 255 255 255
3 255 73 308 255 255 255
3 308 77 313 255 255 255
3 75 132 255 255 255 255
3 71 132 75 255 255 255
3 71 171 132 255 255 255
3 75 133 71 255 255 255
3 75 80 133 255 255 255
3 308 190 77 255 255 255
3 73 319 308 255 255 255
3 255 190 73 255 255 255
3 132 77 255 255 255 255
3 133 313 71 255 255 255
3 313 171 71 255 255 255
3 308 314 190 255 255 255
3 319 171 308 255 255 255
3 73 190 319 255 255 255
3 77 190 255 255 255 255
3 77 195 190 255 255 255
3 190 195 319 255 255 255
3 308 132 314 255 255 255
3 195 313 319 255 255 255
