ply
format ascii 1.0
element vertex 334
property float x
property float y
property float z
element face 576
property list uchar int vertex_indices
property uchar red
property uchar green
property uchar blue
end_header
6.77338695526123047 -3.33962416648864746 -0.0147139504551887512
6.75499391555786133 -3.45572090148925781 -0.0336579754948616028
6.79676055908203125 -3.39949703216552734 -0.0149547532200813293
6.7897491455078125 -3.3428494930267334 0.0446583889424800873
6.74300003051757812 -3.40599989891052246 0.0390000008046627045
6.88563203811645508 -3.29496169090270996 0.0358113907277584076
6.84181356430053711 -3.39871907234191895 -0.0266882944852113724
6.82851409912109375 -3.36453032493591309 0.0419577211141586304
6.80845832824707031 -3.30521655082702637 0.0127401119098067284
6.84336566925048828 -3.27700901031494141 0.00828603561967611313
6.82999992370605469 -3.36400008201599121 -0.0390000008046627045
6.75567007064819336 -3.44591760635375977 -0.0092383483424782753
6.83300018310546875 -3.35899996757507324 0.00800000037997961044
6.85636806488037109 -3.30291843414306641 -0.0131015339866280556
6.72693729400634766 -3.36438083648681641 -0.0407089143991470337
6.81991767883300781 -3.338134765625 -0.0178425125777721405
6.85118627548217773 -3.34485578536987305 0.0395012088119983673
6.82962894439697266 -3.39016985893249512 -0.00344471912831068039
6.77518558502197266 -3.44794297218322754 -0.0209400467574596405
6.85109519958496094 -3.36150836944580078 -0.0273446850478649139
6.81199979782104492 -3.28999996185302734 -0.0250000003725290298
6.82399988174438477 -3.28500008583068848 -0.0250000003725290298
6.77472448348999023 -3.42961359024047852 -0.0202090553939342499
6.72288990020751953 -3.4294581413269043 0.0042764618992805481
6.80566883087158203 -3.3657982349395752 -0.00985705014318227768
6.75110626220703125 -3.42970824241638184 0.0370473787188529968
6.7090001106262207 -3.2070000171661377 -0.052000001072883606
6.80051565170288086 -3.30421781539916992 -0.0346673913300037384
6.83568191528320312 -3.25821518898010254 -0.00894250348210334778
6.88500022888183594 -3.29399991035461426 0.0309999994933605194
6.85599994659423828 -3.31399989128112793 0.0309999994933605194
6.76522922515869141 -3.45994734764099121 0.0345176905393600464
6.77066326141357422 -3.37147974967956543 0.0502305030822753906
6.84191989898681641 -3.38513827323913574 -0.0382847785949707031
6.75151681900024414 -3.3847355842590332 -0.0307214111089706421
6.75031375885009766 -3.41178584098815918 -0.0322484821081161499
6.76680707931518555 -3.38340902328491211 -0.0350979231297969818
6.81919765472412109 -3.25163769721984863 -0.0258830450475215912
6.80378293991088867 -3.35043931007385254 -0.00866922363638877869
6.8528141975402832 -3.36273717880249023 0.0520130731165409088
6.8600001335144043 -3.28200006484985352 0.0350000001490116119
6.8766932487487793 -3.29768729209899902 0.0247606374323368073
6.79851675033569336 -3.41642379760742188 0.0304654669016599655
6.75324821472167969 -3.40602707862854004 -0.0471705570816993713
6.77154731750488281 -3.30685544013977051 0.00344598130322992802
6.73695945739746094 -3.45137929916381836 0.0345657691359519958
6.78999996185302734 -3.40700006484985352 0.0109999999403953552
6.80203390121459961 -3.41131305694580078 -0.0195330753922462463
6.89023828506469727 -3.28266334533691406 0.0162877235561609268
6.71528863906860352 -3.46392512321472168 0.0194919966161251068
6.75966215133666992 -3.42217850685119629 -0.0435977019369602203
6.8150639533996582 -3.37398552894592285 -0.0362260378897190094
6.84259319305419922 -3.35385894775390625 0.0117349587380886078
6.76481819152832031 -3.42280340194702148 -0.00404649926349520683
6.85175657272338867 -3.38402581214904785 -0.0202197767794132233
6.83123302459716797 -3.33355379104614258 -0.0286151021718978882
6.68880510330200195 -3.2201230525970459 -0.0567826926708221436
6.71161222457885742 -3.22137331962585449 -0.0437069907784461975
6.72042655944824219 -3.24219655990600586 -0.0240009352564811707
6.71099996566772461 -3.21700000762939453 -0.0579999983310699463
6.69412326812744141 -3.23156452178955078 -0.0587304309010505676
6.76599979400634766 -3.29399991035461426 -0.0450000017881393433
6.71886444091796875 -3.34531402587890625 -0.0183137953281402588
6.71320438385009766 -3.31261730194091797 -0.0428076088428497314
6.74717378616333008 -3.27594876289367676 -0.0439763665199279785
6.76396083831787109 -3.32265138626098633 -0.0537962093949317932
6.77971887588500977 -3.37580657005310059 -0.0488535873591899872
6.75064229965209961 -3.46065926551818848 0.0214686878025531769
6.8478083610534668 -3.37359023094177246 -0.0255623999983072281
6.77513694763183594 -3.29298877716064453 -0.0451933853328227997
6.77240753173828125 -3.42420458793640137 -0.0591171011328697205
6.80747699737548828 -3.29571247100830078 0.0024248387198895216
6.77055883407592773 -3.44878792762756348 -0.0437132008373737335
6.79192304611206055 -3.3166348934173584 0.0208535492420196533
6.79918193817138672 -3.3206329345703125 -0.0282969176769256592
6.83904075622558594 -3.30063629150390625 0.00558902742341160774
6.76992416381835938 -3.44104719161987305 0.0469143688678741455
6.76037073135375977 -3.33909010887145996 -0.0537662208080291748
6.83037090301513672 -3.26107096672058105 0.000964783073868602514
6.84335422515869141 -3.33418369293212891 0.0425006784498691559
6.82264947891235352 -3.38228702545166016 0.0419191755354404449
6.87512826919555664 -3.27600884437561035 0.0310849584639072418
6.85699987411499023 -3.31699991226196289 0.0419999994337558746
6.71571969985961914 -3.33173346519470215 0.00156366045121103525
6.7909998893737793 -3.34100008010864258 0.00100000004749745131
6.78800010681152344 -3.39800000190734863 0.00100000004749745131
6.80496692657470703 -3.34617996215820312 0.0576893016695976257
6.87599992752075195 -3.32299995422363281 0.0410000011324882507
6.7595367431640625 -3.46606278419494629 -0.0167754963040351868
6.78100013732910156 -3.41199994087219238 -0.00100000004749745131
6.79993343353271484 -3.24915909767150879 0.000892615062184631824
6.83320140838623047 -3.38606834411621094 0.0233422443270683289
6.75799989700317383 -3.38400006294250488 -0.0489999987185001373
6.8285670280456543 -3.26861977577209473 -0.0353071428835391998
6.86717653274536133 -3.31913399696350098 0.0425262711942195892
6.73030662536621094 -3.35652732849121094 -0.00291707995347678661
6.78687906265258789 -3.30196475982666016 -0.0315775536000728607
6.733612060546875 -3.37367582321166992 0.0112173650413751602
6.76399993896484375 -3.27200007438659668 -0.0489999987185001373
6.70599985122680664 -3.24200010299682617 -0.0439999997615814209
6.69459342956542969 -3.28037071228027344 -0.0210199169814586639
6.72503995895385742 -3.23952555656433105 -0.0423987135291099548
6.69580364227294922 -3.25952625274658203 -0.0236258376389741898
6.70060157775878906 -3.26252198219299316 -0.0349912643432617188
6.70580911636352539 -3.2492368221282959 -0.035348597913980484
6.79080295562744141 -3.311767578125 0.00491589400917291641
6.76465797424316406 -3.32712888717651367 -0.0422673970460891724
6.80900001525878906 -3.33299994468688965 -0.00800000037997961044
6.83399629592895508 -3.31206560134887695 0.0195585936307907104
6.79550409317016602 -3.38479828834533691 0.060093957930803299
6.84658384323120117 -3.34450769424438477 0.057974591851234436
6.80156517028808594 -3.39589905738830566 -0.0514182262122631073
6.83099985122680664 -3.28399991989135742 -0.0219999998807907104
6.7881169319152832 -3.37026691436767578 -0.0329233817756175995
6.79028844833374023 -3.40686988830566406 0.0311601236462593079
6.82706117630004883 -3.3710627555847168 -0.0458795949816703796
6.85550069808959961 -3.30681872367858887 -0.00389609881676733494
6.816802978515625 -3.29769420623779297 -0.011213391087949276
6.87395620346069336 -3.3226172924041748 0.0273671988397836685
6.82800006866455078 -3.3059999942779541 -0.0120000001043081284
6.74549531936645508 -3.3730924129486084 -0.0355252623558044434
6.72904205322265625 -3.46508622169494629 0.00702325021848082542
6.87201833724975586 -3.34194254875183105 0.0523918271064758301
6.77472448348999023 -3.42674922943115234 0.0252984166145324707
6.87699270248413086 -3.29728078842163086 0.00504407798871397972
6.86648797988891602 -3.33183026313781738 0.0381446480751037598
6.83349990844726562 -3.35400009155273438 -0.00249999994412064552
6.82593011856079102 -3.24294018745422363 -0.0494127534329891205
6.76118612289428711 -3.4245448112487793 -0.0623467229306697845
6.73182964324951172 -3.45906949043273926 -0.0093792453408241272
6.83045721054077148 -3.28646731376647949 -0.00375149375759065151
6.8064265251159668 -3.41167449951171875 -0.0429225936532020569
6.78700017929077148 -3.4179999828338623 0.0480000004172325134
6.86438369750976562 -3.30937957763671875 0.0189659222960472107
6.833343505859375 -3.36541438102722168 0.0606160722672939301
6.80731773376464844 -3.39654326438903809 -0.0309824384748935699
6.71700000762939453 -3.23600006103515625 -0.0419999994337558746
6.85274267196655273 -3.34282279014587402 -0.0355190671980381012
6.75725650787353516 -3.44102835655212402 -0.0544957853853702545
6.85799980163574219 -3.32399988174438477 0.052000001072883606
6.75183200836181641 -3.2812657356262207 -0.0258520375937223434
6.75287675857543945 -3.35040736198425293 0.0152047816663980484
6.72939300537109375 -3.38864827156066895 -0.0195846464484930038
6.77553510665893555 -3.24526143074035645 -0.00764908455312252045
6.74182748794555664 -3.37829327583312988 0.0304230470210313797
6.72857093811035156 -3.4172523021697998 0.0203682426363229752
6.85437631607055664 -3.28737974166870117 0.0216670800000429153
6.82310104370117188 -3.3601839542388916 -0.0246515702456235886
6.85928916931152344 -3.27240085601806641 0.0178969651460647583
6.86935758590698242 -3.28602981567382812 0.00842012651264667511
6.88752079010009766 -3.30237865447998047 0.0277858097106218338
6.7274470329284668 -3.33084321022033691 -0.0465165488421916962
6.84572362899780273 -3.35102319717407227 -0.042931925505399704
6.75770473480224609 -3.37397098541259766 0.0329695120453834534
6.75359439849853516 -3.30458569526672363 0.00238948757760226727
6.73391437530517578 -3.38375282287597656 0.00237944419495761395
6.8340001106262207 -3.32500004768371582 -0.00800000037997961044
6.7909998893737793 -3.41700005531311035 -0.00800000037997961044
6.80571699142456055 -3.36936330795288086 0.0599967949092388153
6.77348470687866211 -3.3811337947845459 -0.0539796836674213409
6.81546401977539062 -3.28766560554504395 -0.0464181005954742432
6.7268366813659668 -3.40192699432373047 -0.00647498806938529015
6.73799991607666016 -3.29200005531311035 -0.00300000002607703209
6.78489589691162109 -3.41585874557495117 0.0236179102212190628
6.77610588073730469 -3.42413568496704102 0.0514855422079563141
6.75957679748535156 -3.45181679725646973 -0.0420574098825454712
6.72399997711181641 -3.24099993705749512 -0.0469999983906745911
6.78881692886352539 -3.43585395812988281 -0.0272588636726140976
6.82436609268188477 -3.32253408432006836 -0.0193111803382635117
6.83194637298583984 -3.34244513511657715 0.0584138296544551849
6.73535633087158203 -3.35461282730102539 -0.053401067852973938
6.79181671142578125 -3.26415252685546875 -0.0486306101083755493
6.79201602935791016 -3.2872617244720459 0.00789120513945817947
6.72300004959106445 -3.37100005149841309 -0.017000000923871994
6.78072357177734375 -3.28072810173034668 -0.0400023721158504486
6.74685287475585938 -3.36429262161254883 0.0187387652695178986
6.75409793853759766 -3.28400278091430664 -0.0611920282244682312
6.75855350494384766 -3.32171797752380371 0.0018919964786618948
6.70768499374389648 -3.34905529022216797 -0.0365388579666614532
6.77600002288818359 -3.28699994087219238 -0.043000001460313797
6.82717275619506836 -3.31469869613647461 -0.0116565944626927376
6.76621341705322266 -3.43871355056762695 0.00999111216515302658
6.75298070907592773 -3.48090004920959473 -0.0267728138715028763
6.84729146957397461 -3.32546401023864746 0.00805506389588117599
6.79447746276855469 -3.42647099494934082 -0.0147958444431424141
6.74300003051757812 -3.38899993896484375 -0.0309999994933605194
6.70750093460083008 -3.20999979972839355 -0.0599359087646007538
6.75299978256225586 -3.35700011253356934 -0.0399999991059303284
6.82440900802612305 -3.27235269546508789 -0.0495699457824230194
6.84800004959106445 -3.34949994087219238 -0.0134999994188547134
6.78778648376464844 -3.32699060440063477 -0.00279062450863420963
6.74617338180541992 -3.47070193290710449 -0.0156775470823049545
6.72599983215332031 -3.25300002098083496 -0.0329999998211860657
6.87799978256225586 -3.28800010681152344 0.0280000008642673492
6.78299999237060547 -3.42400002479553223 -0.043000001460313797
6.77699995040893555 -3.4159998893737793 0.00499999988824129105
6.75925350189208984 -3.37547159194946289 -0.0308545827865600586
6.82899999618530273 -3.30900001525878906 0.00400000018998980522
6.77666807174682617 -3.3218376636505127 0.016406618058681488
6.78656339645385742 -3.26284503936767578 -0.000586137059144675732
6.7838740348815918 -3.25775027275085449 -0.024095119908452034
6.76898097991943359 -3.30688762664794922 -0.0398983359336853027
6.74781417846679688 -3.2780764102935791 -0.00732967117801308632
6.7350001335144043 -3.2929999828338623 0.00300000002607703209
6.74499988555908203 -3.30900001525878906 0.00300000002607703209
6.76405477523803711 -3.29964351654052734 -0.00482186349108815193
6.70981836318969727 -3.26114368438720703 -0.0354383215308189392
6.71511602401733398 -3.27758169174194336 -0.0370762571692466736
6.71999979019165039 -3.25500011444091797 -0.0439999997615814209
6.73669719696044922 -3.2485506534576416 -0.0195070970803499222
6.71199989318847656 -3.26699995994567871 -0.0209999997168779373
6.72300004959106445 -3.26200008392333984 -0.0120000001043081284
6.70741415023803711 -3.31578493118286133 0.00347825977951288223
6.72716093063354492 -3.34096431732177734 0.0118353487923741341
6.74857807159423828 -3.3279569149017334 0.0116817066445946693
6.70966958999633789 -3.35757231712341309 -0.0295044742524623871
6.82499980926513672 -3.29699993133544922 -0.0149999996647238731
6.75241994857788086 -3.45298171043395996 0.0087733464315533638
6.84911155700683594 -3.31544184684753418 -0.00681127794086933136
6.84053182601928711 -3.28103995323181152 -0.0167887676507234573
6.78221511840820312 -3.26999258995056152 -0.0335750430822372437
6.69471216201782227 -3.24770355224609375 -0.0454738549888134003
6.69394922256469727 -3.23114657402038574 -0.0451896451413631439
6.71000003814697266 -3.2090001106262207 -0.0529999993741512299
6.73799991607666016 -3.31650018692016602 0.00899999961256980896
6.74776220321655273 -3.29276800155639648 -0.0498897470533847809
6.71863460540771484 -3.33838725090026855 -0.038849223405122757
6.75294685363769531 -3.30011200904846191 -0.0596811287105083466
6.73985815048217773 -3.31819772720336914 -0.0570388026535511017
6.74393892288208008 -3.35056257247924805 -0.0531704388558864594
6.75519800186157227 -3.34035921096801758 -0.0404844097793102264
6.81099987030029297 -3.32299995422363281 -0.0240000002086162567
6.83642101287841797 -3.31670045852661133 0.0410365350544452667
6.85799980163574219 -3.35800004005432129 -0.0289999991655349731
6.84848976135253906 -3.38478469848632812 -0.0273447688668966293
6.80900001525878906 -3.30900001525878906 -0.0130000002682209015
6.78628396987915039 -3.43673181533813477 -0.0476820357143878937
6.7301945686340332 -3.4350426197052002 0.0269559305161237717
6.8289799690246582 -3.39261817932128906 -0.0287107545882463455
6.76119613647460938 -3.33659243583679199 0.0245205461978912354
6.75436878204345703 -3.41322207450866699 0.0538975298404693604
6.74662399291992188 -3.4409792423248291 -0.0271664559841156006
6.76634502410888672 -3.44849944114685059 -0.0543161332607269287
6.78289413452148438 -3.41067147254943848 -0.0586911141872406006
6.82100009918212891 -3.38000011444091797 -0.0439999997615814209
6.81300020217895508 -3.25900006294250488 -0.0439999997615814209
6.7414393424987793 -3.4642338752746582 -0.0308582037687301636
6.84281110763549805 -3.2994074821472168 0.030169311910867691
6.76599979400634766 -3.44099998474121094 -0.00899999961256980896
6.8340001106262207 -3.37449979782104492 -0.00899999961256980896
6.81046056747436523 -3.3218986988067627 0.0408912040293216705
6.79600000381469727 -3.3190000057220459 -0.0320000015199184418
6.70926856994628906 -3.2872617244720459 -0.0355360321700572968
6.7176361083984375 -3.29660129547119141 -0.0315918698906898499
6.73489189147949219 -3.31111359596252441 -0.0478765405714511871
6.73000001907348633 -3.26600003242492676 -0.0309999994933605194
6.70684003829956055 -3.28096771240234375 -0.0120219802483916283
6.71527528762817383 -3.30887913703918457 -0.0209732633084058762
6.73418807983398438 -3.28159427642822266 -0.0325326360762119293
6.73299980163574219 -3.26699995994567871 -0.0270000007003545761
6.73999977111816406 -3.25799989700317383 -0.0179999992251396179
6.70925188064575195 -3.21995782852172852 -0.0516022071242332458
6.81557893753051758 -3.2714228630065918 0.00210853968746960163
6.79861879348754883 -3.28818178176879883 -0.0468553043901920319
6.84077215194702148 -3.29256200790405273 0.0386316701769828796
6.80131101608276367 -3.37724137306213379 -0.0392430759966373444
6.83900022506713867 -3.35100007057189941 -0.00800000037997961044
6.80829143524169922 -3.3067469596862793 -0.0416322797536849976
6.860015869140625 -3.34182548522949219 0.017277223989367485
6.84664154052734375 -3.33772683143615723 -0.0140075189992785454
6.75841951370239258 -3.3965601921081543 -0.0475682765245437622
6.80499982833862305 -3.25600004196166992 -0.00600000005215406418
6.82526254653930664 -3.24818611145019531 -0.00901332031935453415
6.78473567962646484 -3.34841561317443848 -0.0085830269381403923
6.78030300140380859 -3.4032137393951416 0.0634358376264572144
6.80399990081787109 -3.31699991226196289 -0.0289999991655349731
6.84101343154907227 -3.29960513114929199 -0.00541015993803739548
6.85857200622558594 -3.34867072105407715 0.0571501702070236206
6.78399991989135742 -3.31999993324279785 -0.017000000923871994
6.82000017166137695 -3.29200005531311035 -0.017000000923871994
6.85352516174316406 -3.31446266174316406 0.00941473711282014847
6.88131570816040039 -3.2764279842376709 0.0102232052013278008
6.7909998893737793 -3.42100000381469727 -0.00700000021606683731
6.84856700897216797 -3.31057572364807129 0.0419598892331123352
6.85024356842041016 -3.2827003002166748 -0.00326384627260267735
6.83900022506713867 -3.35500001907348633 -0.0179999992251396179
6.72123908996582031 -3.30885529518127441 0.00220373249612748623
6.83410024642944336 -3.36423659324645996 -0.017008339986205101
6.74800014495849609 -3.2780001163482666 -0.0179999992251396179
6.75799989700317383 -3.27699995040893555 -0.0410000011324882507
6.76608133316040039 -3.35306406021118164 0.0343282632529735565
6.78202104568481445 -3.40092110633850098 -0.0615717954933643341
6.82209634780883789 -3.36622118949890137 0.0252342633903026581
6.84157228469848633 -3.27964997291564941 0.00860589742660522461
6.71099996566772461 -3.22099995613098145 -0.0399999991059303284
6.78417348861694336 -3.44722962379455566 0.0360406376421451569
6.74018955230712891 -3.25565481185913086 -0.0118560520932078362
6.84609079360961914 -3.255828857421875 -0.0416788198053836823
6.78304719924926758 -3.35721707344055176 0.0457823500037193298
6.71752548217773438 -3.44594717025756836 0.0160255655646324158
6.86499977111816406 -3.30200004577636719 -0.00899999961256980896
6.7779998779296875 -3.42600011825561523 0.00899999961256980896
6.86628103256225586 -3.3301396369934082 0.0511862598359584808
6.80455398559570312 -3.39424800872802734 0.0259099137037992477
6.79247713088989258 -3.37552237510681152 -0.0527295321226119995
6.79760313034057617 -3.24472475051879883 -0.00951831229031085968
6.74900007247924805 -3.28999996185302734 -0.0140000004321336746
6.75894594192504883 -3.2926638126373291 -0.0247849691659212112
6.77300882339477539 -3.29128193855285645 -0.0190352145582437515
6.73153209686279297 -3.28147554397583008 -0.00287181325256824493
6.77443075180053711 -3.31159734725952148 -0.026040123775601387
6.76639842987060547 -3.35327291488647461 -0.0292384717613458633
6.8101649284362793 -3.25506973266601562 -0.0282784495502710342
6.74095296859741211 -3.3994755744934082 -0.0192439872771501541
6.82329368591308594 -3.32099795341491699 -0.0178002882748842239
6.83881044387817383 -3.35346055030822754 0.0263931639492511749
6.72300004959106445 -3.37199997901916504 -0.0109999999403953552
6.73982667922973633 -3.39478158950805664 0.0148519650101661682
6.82800006866455078 -3.30200004577636719 -0.0109999999403953552
6.7651519775390625 -3.45706868171691895 0.0185641422867774963
6.84499979019165039 -3.38199996948242188 -0.0109999999403953552
6.89699983596801758 -3.28099989891052246 0.0209999997168779373
6.83199977874755859 -3.35899996757507324 -0.0109999999403953552
6.80300569534301758 -3.38618111610412598 0.0445492975413799286
6.73406171798706055 -3.40913796424865723 -0.0194152314215898514
6.78855705261230469 -3.37203884124755859 -0.0229564625769853592
6.80735683441162109 -3.27883815765380859 0.0122158229351043701
6.77589941024780273 -3.28081297874450684 0.00209689373150467873
6.7680816650390625 -3.38835000991821289 0.0456247031688690186
6.78423357009887695 -3.4335331916809082 0.0318891704082489014
6.80542325973510742 -3.39389204978942871 0.00730101251974701881
6.73009443283081055 -3.46577906608581543 0.0265608299523591995
6.8600001335144043 -3.28200006484985352 0.0280000008642673492
6.71150398254394531 -3.29310131072998047 -0.000695189519319683313
3 222 261 56 255 255 255
3 261 26 56 255 255 255
3 261 294 26 255 255 255
3 222 294 261 255 255 255
3 221 222 56 255 255 255
3 56 60 221 255 255 255
3 223 186 56 255 255 255
3 57 59 222 255 255 255
3 222 58 57 255 255 255
3 56 186 60 255 255 255
3 57 223 59 255 255 255
3 58 101 57 255 255 255
3 222 104 58 255 255 255
3 222 102 104 255 255 255
3 59 60 186 255 255 255
3 57 294 223 255 255 255
3 222 221 102 255 255 255
3 60 104 221 255 255 255
3 99 104 60 255 255 255
3 60 222 99 255 255 255
3 101 166 57 255 255 255
3 102 206 104 255 255 255
3 103 102 221 255 255 255
3 104 103 221 255 255 255
3 104 206 103 255 255 255
3 99 136 104 255 255 255
3 58 192 101 255 255 255
3 58 209 192 255 255 255
3 102 103 206 255 255 255
3 103 100 102 255 255 255
3 103 207 100 255 255 255
3 101 208 166 255 255 255
3 206 192 104 255 255 255
3 102 256 103 255 255 255
3 207 252 100 255 255 255
3 208 99 166 255 255 255
3 209 211 296 255 255 255
3 58 211 209 255 255 255
3 58 210 211 255 255 255
3 210 255 206 255 255 255
3 206 102 210 255 255 255
3 211 202 296 255 255 255
3 206 255 192 255 255 255
3 207 253 252 255 255 255
3 102 100 256 255 255 255
3 207 255 258 255 255 255
3 260 209 296 255 255 255
3 211 256 202 255 255 255
3 100 333 256 255 255 255
3 252 257 100 255 255 255
3 253 257 252 255 255 255
3 254 63 253 255 255 255
3 253 258 254 255 255 255
3 207 258 253 255 255 255
3 255 259 258 255 255 255
3 207 208 255 255 255 255
3 260 259 209 255 255 255
3 256 309 202 255 255 255
3 256 333 309 255 255 255
3 257 212 100 255 255 255
3 258 225 254 255 255 255
3 259 140 258 255 255 255
3 255 209 259 255 255 255
3 260 211 259 255 255 255
3 309 203 202 255 255 255
3 333 286 309 255 255 255
3 100 212 333 255 255 255
3 258 64 225 255 255 255
3 306 288 202 255 255 255
3 202 162 306 255 255 255
3 309 286 203 255 255 255
3 333 212 286 255 255 255
3 254 151 63 255 255 255
3 225 176 227 255 255 255
3 225 64 176 255 255 255
3 140 64 258 255 255 255
3 306 307 288 255 255 255
3 202 203 162 255 255 255
3 203 204 162 255 255 255
3 62 83 257 255 255 255
3 257 63 62 255 255 255
3 63 151 226 255 255 255
3 254 228 151 255 255 255
3 225 228 254 255 255 255
3 307 140 288 255 255 255
3 140 259 288 255 255 255
3 306 205 307 255 255 255
3 204 154 162 255 255 255
3 212 83 286 255 255 255
3 212 257 83 255 255 255
3 63 178 62 255 255 255
3 226 178 63 255 255 255
3 225 227 228 255 255 255
3 227 65 228 255 255 255
3 64 98 176 255 255 255
3 64 220 98 255 255 255
3 140 289 64 255 255 255
3 306 154 205 255 255 255
3 83 224 286 255 255 255
3 62 95 83 255 255 255
3 228 229 151 255 255 255
3 98 179 176 255 255 255
3 140 307 289 255 255 255
3 307 61 289 255 255 255
3 205 308 307 255 255 255
3 224 204 286 255 255 255
3 213 224 83 255 255 255
3 229 170 151 255 255 255
3 228 77 229 255 255 255
3 228 65 77 255 255 255
3 176 61 227 255 255 255
3 61 179 289 255 255 255
3 308 174 307 255 255 255
3 205 327 308 255 255 255
3 154 327 205 255 255 255
3 44 327 154 255 255 255
3 224 214 204 255 255 255
3 83 95 213 255 255 255
3 178 215 62 255 255 255
3 226 14 178 255 255 255
3 61 65 227 255 255 255
3 61 201 65 255 255 255
3 179 98 289 255 255 255
3 174 179 307 255 255 255
3 308 220 174 255 255 255
3 308 327 220 255 255 255
3 44 172 327 255 255 255
3 214 177 204 255 255 255
3 214 198 177 255 255 255
3 141 214 213 255 255 255
3 95 97 213 255 255 255
3 95 316 97 255 255 255
3 215 173 62 255 255 255
3 178 14 215 255 255 255
3 226 151 14 255 255 255
3 170 14 151 255 255 255
3 229 187 170 255 255 255
3 61 69 201 255 255 255
3 200 171 220 255 255 255
3 44 105 172 255 255 255
3 177 198 44 255 255 255
3 214 239 198 255 255 255
3 213 97 141 255 255 255
3 316 155 97 255 255 255
3 95 173 316 255 255 255
3 171 174 220 255 255 255
3 327 199 220 255 255 255
3 172 199 327 255 255 255
3 105 73 172 255 255 255
3 198 105 44 255 255 255
3 44 154 177 255 255 255
3 97 175 141 255 255 255
3 173 142 316 255 255 255
3 65 201 106 255 255 255
3 96 310 201 255 255 255
3 201 69 96 255 255 255
3 171 263 174 255 255 255
3 220 199 200 255 255 255
3 199 143 200 255 255 255
3 172 326 199 255 255 255
3 8 326 172 255 255 255
3 198 73 105 255 255 255
3 214 141 239 255 255 255
3 141 290 239 255 255 255
3 141 153 290 255 255 255
3 175 153 141 255 255 255
3 106 77 65 255 255 255
3 106 230 77 255 255 255
3 201 310 106 255 255 255
3 305 312 200 255 255 255
3 200 143 305 255 255 255
3 326 262 199 255 255 255
3 8 71 326 255 255 255
3 198 3 73 255 255 255
3 239 3 198 255 255 255
3 153 32 290 255 255 255
3 175 144 153 255 255 255
3 175 97 144 255 255 255
3 155 317 97 255 255 255
3 173 120 142 255 255 255
3 230 187 77 255 255 255
3 278 190 310 255 255 255
3 310 96 278 255 255 255
3 263 69 174 255 255 255
3 305 271 312 255 255 255
3 199 90 143 255 255 255
3 199 271 90 255 255 255
3 326 71 262 255 255 255
3 172 73 8 255 255 255
3 73 250 8 255 255 255
3 239 290 3 255 255 255
3 290 298 3 255 255 255
3 290 32 298 255 255 255
3 97 317 144 255 255 255
3 155 142 161 255 255 255
3 230 311 187 255 255 255
3 106 311 230 255 255 255
3 106 0 311 255 255 255
3 278 74 190 255 255 255
3 27 251 96 255 255 255
3 96 263 27 255 255 255
3 263 96 69 255 255 255
3 271 272 312 255 255 255
3 271 272 90 255 255 255
3 199 262 271 255 255 255
3 262 78 271 255 255 255
3 130 78 262 255 255 255
3 262 279 130 255 255 255
3 71 117 262 255 255 255
3 250 232 8 255 255 255
3 3 250 73 255 255 255
3 32 158 298 255 255 255
3 153 328 32 255 255 255
3 161 317 155 255 255 255
3 142 324 161 255 255 255
3 311 196 187 255 255 255
3 278 251 74 255 255 255
3 263 267 27 255 255 255
3 312 245 200 255 255 255
3 272 37 312 255 255 255
3 143 90 305 255 255 255
3 71 235 117 255 255 255
3 8 232 108 255 255 255
3 158 3 298 255 255 255
3 144 4 153 255 255 255
3 161 23 317 255 255 255
3 120 185 142 255 255 255
3 185 313 142 255 255 255
3 120 34 185 255 255 255
3 74 107 190 255 255 255
3 27 74 251 255 255 255
3 27 267 74 255 255 255
3 263 160 267 255 255 255
3 312 127 245 255 255 255
3 130 9 78 255 255 255
3 130 293 9 255 255 255
3 279 117 130 255 255 255
3 3 86 250 255 255 255
3 32 109 158 255 255 255
3 328 240 32 255 255 255
3 153 4 328 255 255 255
3 4 240 328 255 255 255
3 317 23 145 255 255 255
3 142 313 324 255 255 255
3 120 92 34 255 255 255
3 196 120 187 255 255 255
3 311 36 196 255 255 255
3 0 273 311 255 255 255
3 107 84 190 255 255 255
3 263 188 160 255 255 255
3 127 188 245 255 255 255
3 305 90 272 255 255 255
3 9 28 78 255 255 255
3 130 75 293 255 255 255
3 235 180 117 255 255 255
3 108 197 8 255 255 255
3 3 158 86 255 255 255
3 32 274 109 255 255 255
3 161 324 23 255 255 255
3 313 35 324 255 255 255
3 185 270 313 255 255 255
3 34 270 185 255 255 255
3 92 270 34 255 255 255
3 196 92 120 255 255 255
3 196 36 92 255 255 255
3 36 159 92 255 255 255
3 311 66 36 255 255 255
3 311 273 113 255 255 255
3 273 325 113 255 255 255
3 273 24 325 255 255 255
3 0 190 273 255 255 255
3 84 273 190 255 255 255
3 84 38 273 255 255 255
3 74 314 107 255 255 255
3 231 314 74 255 255 255
3 231 168 314 255 255 255
3 130 318 75 255 255 255
3 279 20 117 255 255 255
3 180 119 117 255 255 255
3 235 314 180 255 255 255
3 75 197 108 255 255 255
3 75 318 197 255 255 255
3 318 117 197 255 255 255
3 250 169 232 255 255 255
3 32 240 274 255 255 255
3 23 237 145 255 255 255
3 23 299 237 255 255 255
3 313 270 35 255 255 255
3 270 43 35 255 255 255
3 92 159 270 255 255 255
3 36 66 159 255 255 255
3 273 38 24 255 255 255
3 314 15 107 255 255 255
3 160 20 267 255 255 255
3 160 188 93 255 255 255
3 37 127 312 255 255 255
3 272 28 37 255 255 255
3 28 272 78 255 255 255
3 9 284 28 255 255 255
3 247 293 75 255 255 255
3 75 108 247 255 255 255
3 279 21 20 255 255 255
3 235 231 314 255 255 255
3 264 293 247 255 255 255
3 169 79 232 255 255 255
3 274 323 109 255 255 255
3 240 164 274 255 255 255
3 145 237 25 255 255 255
3 324 129 23 255 255 255
3 324 241 129 255 255 255
3 35 241 324 255 255 255
3 35 50 241 255 255 255
3 43 50 35 255 255 255
3 270 70 43 255 255 255
3 66 291 159 255 255 255
3 325 265 113 255 255 255
3 38 107 15 255 255 255
3 275 74 267 255 255 255
3 93 21 160 255 255 255
3 297 93 188 255 255 255
3 127 297 188 255 255 255
3 28 297 37 255 255 255
3 284 219 28 255 255 255
3 9 75 284 255 255 255
3 279 112 21 255 255 255
3 314 156 180 255 255 255
3 235 275 231 255 255 255
3 283 264 232 255 255 255
3 232 82 283 255 255 255
3 169 110 79 255 255 255
3 86 134 169 255 255 255
3 158 134 86 255 255 255
3 109 134 158 255 255 255
3 109 80 134 255 255 255
3 274 114 323 255 255 255
3 240 25 164 255 255 255
3 45 25 237 255 255 255
3 237 331 45 255 255 255
3 43 128 50 255 255 255
3 70 128 43 255 255 255
3 270 291 70 255 255 255
3 159 291 270 255 255 255
3 291 243 70 255 255 255
3 66 304 291 255 255 255
3 265 304 113 255 255 255
3 15 24 38 255 255 255
3 15 147 24 255 255 255
3 75 276 284 255 255 255
3 9 146 75 255 255 255
3 264 146 293 255 255 255
3 180 156 197 255 255 255
3 247 283 264 255 255 255
3 283 139 94 255 255 255
3 232 79 82 255 255 255
3 79 139 82 255 255 255
3 110 302 79 255 255 255
3 80 7 134 255 255 255
3 323 80 109 255 255 255
3 323 303 80 255 255 255
3 114 42 323 255 255 255
3 25 76 164 255 255 255
3 25 31 76 255 255 255
3 25 4 145 255 255 255
3 45 31 25 255 255 255
3 23 129 299 255 255 255
3 241 246 129 255 255 255
3 50 138 241 255 255 255
3 291 111 243 255 255 255
3 291 304 111 255 255 255
3 297 28 93 255 255 255
3 284 276 219 255 255 255
3 276 130 219 255 255 255
3 146 9 293 255 255 255
3 264 332 146 255 255 255
3 94 30 283 255 255 255
3 79 302 139 255 255 255
3 110 277 302 255 255 255
3 277 122 302 255 255 255
3 134 110 169 255 255 255
3 303 91 80 255 255 255
3 164 329 132 255 255 255
3 164 295 329 255 255 255
3 76 295 164 255 255 255
3 237 49 331 255 255 255
3 237 299 49 255 255 255
3 129 49 299 255 255 255
3 241 1 246 255 255 255
3 1 182 246 255 255 255
3 241 165 1 255 255 255
3 138 165 241 255 255 255
3 50 128 138 255 255 255
3 242 138 128 255 255 255
3 128 70 242 255 255 255
3 70 236 242 255 255 255
3 304 265 111 255 255 255
3 66 113 304 255 255 255
3 130 216 219 255 255 255
3 332 148 146 255 255 255
3 264 40 332 255 255 255
3 247 133 283 255 255 255
3 110 39 277 255 255 255
3 39 110 134 255 255 255
3 7 39 134 255 255 255
3 80 292 7 255 255 255
3 303 330 91 255 255 255
3 329 42 132 255 255 255
3 76 31 295 255 255 255
3 45 67 31 255 255 255
3 121 49 129 255 255 255
3 138 242 165 255 255 255
3 265 51 111 255 255 255
3 147 115 51 255 255 255
3 147 10 115 255 255 255
3 216 112 219 255 255 255
3 283 30 82 255 255 255
3 247 146 133 255 255 255
3 122 87 302 255 255 255
3 7 315 39 255 255 255
3 80 91 292 255 255 255
3 114 132 42 255 255 255
3 31 319 295 255 255 255
3 45 331 67 255 255 255
3 236 72 242 255 255 255
3 243 194 70 255 255 255
3 51 244 111 255 255 255
3 51 115 244 255 255 255
3 10 152 115 255 255 255
3 148 149 146 255 255 255
3 283 280 30 255 255 255
3 94 133 30 255 255 255
3 87 94 302 255 255 255
3 315 16 39 255 255 255
3 7 292 315 255 255 255
3 330 17 91 255 255 255
3 295 123 329 255 255 255
3 49 121 331 255 255 255
3 121 67 331 255 255 255
3 242 72 165 255 255 255
3 70 194 236 255 255 255
3 194 131 236 255 255 255
3 244 135 111 255 255 255
3 149 41 146 255 255 255
3 148 281 149 255 255 255
3 81 281 148 255 255 255
3 40 81 148 255 255 255
3 148 146 40 255 255 255
3 280 118 30 255 255 255
3 94 41 133 255 255 255
3 16 277 39 255 255 255
3 16 122 277 255 255 255
3 16 125 122 255 255 255
3 303 46 330 255 255 255
3 319 123 295 255 255 255
3 319 181 123 255 255 255
3 319 217 181 255 255 255
3 31 67 319 255 255 255
3 67 217 319 255 255 255
3 191 246 182 255 255 255
3 72 88 1 255 255 255
3 236 167 72 255 255 255
3 167 18 72 255 255 255
3 131 167 236 255 255 255
3 131 47 167 255 255 255
3 111 135 131 255 255 255
3 115 238 244 255 255 255
3 40 193 81 255 255 255
3 94 5 41 255 255 255
3 94 150 5 255 255 255
3 87 118 94 255 255 255
3 16 268 125 255 255 255
3 292 52 315 255 255 255
3 46 85 330 255 255 255
3 123 42 329 255 255 255
3 123 163 42 255 255 255
3 181 301 123 255 255 255
3 217 11 181 255 255 255
3 182 88 191 255 255 255
3 191 129 246 255 255 255
3 88 182 1 255 255 255
3 131 135 47 255 255 255
3 135 2 47 255 255 255
3 135 238 2 255 255 255
3 115 33 238 255 255 255
3 149 124 41 255 255 255
3 193 281 81 255 255 255
3 280 133 118 255 255 255
3 41 150 133 255 255 255
3 118 150 94 255 255 255
3 16 315 268 255 255 255
3 315 52 268 255 255 255
3 292 12 52 255 255 255
3 17 12 91 255 255 255
3 330 2 17 255 255 255
3 85 2 330 255 255 255
3 46 89 85 255 255 255
3 303 163 46 255 255 255
3 123 301 163 255 255 255
3 11 248 181 255 255 255
3 217 88 11 255 255 255
3 217 191 88 255 255 255
3 47 184 167 255 255 255
3 238 51 244 255 255 255
3 124 150 41 255 255 255
3 193 48 281 255 255 255
3 118 87 125 255 255 255
3 133 124 280 255 255 255
3 125 268 118 255 255 255
3 17 6 320 255 255 255
3 2 238 17 255 255 255
3 89 157 85 255 255 255
3 46 157 89 255 255 255
3 163 195 46 255 255 255
3 42 163 303 255 255 255
3 301 195 163 255 255 255
3 301 282 195 255 255 255
3 181 53 301 255 255 255
3 248 53 181 255 255 255
3 191 217 129 255 255 255
3 18 11 88 255 255 255
3 18 248 11 255 255 255
3 167 184 18 255 255 255
3 47 157 184 255 255 255
3 6 17 238 255 255 255
3 238 33 6 255 255 255
3 19 137 152 255 255 255
3 149 116 124 255 255 255
3 193 29 48 255 255 255
3 183 116 280 255 255 255
3 280 108 183 255 255 255
3 150 321 5 255 255 255
3 118 133 150 255 255 255
3 12 126 52 255 255 255
3 6 54 320 255 255 255
3 248 22 53 255 255 255
3 18 22 248 255 255 255
3 18 184 22 255 255 255
3 184 282 22 255 255 255
3 47 2 157 255 255 255
3 33 234 6 255 255 255
3 19 233 137 255 255 255
3 68 287 19 255 255 255
3 19 234 68 255 255 255
3 116 280 124 255 255 255
3 29 321 48 255 255 255
3 193 5 29 255 255 255
3 183 218 116 255 255 255
3 124 48 150 255 255 255
3 124 281 48 255 255 255
3 126 266 52 255 255 255
3 234 54 6 255 255 255
3 287 285 19 255 255 255
3 234 33 68 255 255 255
3 149 13 116 255 255 255
3 193 41 5 255 255 255
3 183 156 218 255 255 255
3 266 189 52 255 255 255
3 126 322 266 255 255 255
3 233 269 137 255 255 255
3 285 269 19 255 255 255
3 68 249 287 255 255 255
3 149 300 13 255 255 255
3 266 285 189 255 255 255
3 233 19 269 255 255 255
3 287 147 285 255 255 255
3 249 322 287 255 255 255
3 13 276 116 255 255 255
3 218 300 116 255 255 255
3 285 55 269 255 255 255
3 287 24 147 255 255 255
3 320 249 68 255 255 255
3 218 13 300 255 255 255
3 218 276 13 255 255 255
3 318 216 276 255 255 255
3 276 119 318 255 255 255
3 55 137 269 255 255 255
3 55 152 137 255 255 255
