ply
format ascii 1.0
element vertex 322
property float x
property float y
property float z
element face 576
property list uchar int vertex_indices
property uchar red
property uchar green
property uchar blue
end_header
0.95850902795791626 2.53214502334594727 -0.591409742832183838
0.910000026226043701 2.53600001335144043 -0.575999975204467773
0.925000011920928955 2.53500008583068848 -0.580999970436096191
0.952705323696136475 2.53622627258300781 -0.568901598453521729
0.887874841690063477 2.54162073135375977 -0.562634170055389404
0.913424015045166016 2.4803471565246582 -0.666892647743225098
0.948485016822814941 2.52761340141296387 -0.634607076644897461
0.910000026226043701 2.48200011253356934 -0.630999982357025146
0.939319133758544922 2.51445174217224121 -0.58657914400100708
0.89816361665725708 2.50585627555847168 -0.485000967979431152
0.897125899791717529 2.52112555503845215 -0.608896076679229736
0.949136435985565186 2.50472497940063477 -0.949865400791168213
0.879395127296447754 2.41090226173400879 -0.830740511417388916
0.875415503978729248 2.48275518417358398 -0.732903122901916504
0.939851820468902588 2.50982999801635742 -0.565469205379486084
0.856000006198883057 2.55100011825561523 -0.573000013828277588
0.907999992370605469 2.42799997329711914 -0.874000012874603271
0.918767094612121582 2.48953151702880859 -0.733636915683746338
0.944999992847442627 2.52999997138977051 -0.699000000953674316
0.898000001907348633 2.48399996757507324 -0.453999996185302734
0.950973868370056152 2.51155900955200195 -0.461216181516647339
0.934982180595397949 2.51299738883972168 -0.692634999752044678
0.980867683887481689 2.56383800506591797 -0.520050644874572754
0.925423502922058105 2.37955331802368164 -0.948505103588104248
0.921000003814697266 2.49200010299682617 -0.777000010013580322
1.00555038452148438 2.53982305526733398 -0.588498771190643311
0.874365925788879395 2.53616738319396973 -0.613719761371612549
0.914635360240936279 2.52034926414489746 -0.550116419792175293
1.0031435489654541 2.54545426368713379 -0.570526838302612305
1.00957310199737549 2.49244976043701172 -0.523546874523162842
1.01351666450500488 2.50511622428894043 -0.518161594867706299
1.00737106800079346 2.50092935562133789 -0.490028828382492065
1.01355922222137451 2.54781818389892578 -0.495668619871139526
1.00115764141082764 2.54769778251647949 -0.53043830394744873
0.953620553016662598 2.52599239349365234 -0.710650622844696045
0.990999996662139893 2.52500009536743164 -0.544000029563903809
0.89999997615814209 2.52500009536743164 -0.563000023365020752
0.969269096851348877 2.47785782814025879 -0.697516679763793945
0.925000011920928955 2.43199992179870605 -0.799000024795532227
0.934862017631530762 2.50227642059326172 -0.529880762100219727
0.934249699115753174 2.48744082450866699 -0.811665356159210205
0.884311318397521973 2.48214173316955566 -0.847307443618774414
0.892324388027191162 2.4266204833984375 -0.908377349376678467
0.927989542484283447 2.39217209815979004 -0.960758328437805176
0.93900001049041748 2.40799999237060547 -0.874000012874603271
0.941018462181091309 2.41486835479736328 -0.864866554737091064
0.959014534950256348 2.43703961372375488 -0.791675150394439697
0.939999997615814209 2.49399995803833008 -0.78200000524520874
0.863960385322570801 2.44907689094543457 -0.891961216926574707
0.943050861358642578 2.44967293739318848 -0.737193465232849121
0.959749758243560791 2.53935074806213379 -0.592931449413299561
0.951976478099822998 2.53601694107055664 -0.477568686008453369
0.901754677295684814 2.46122837066650391 -0.885025203227996826
0.964394271373748779 2.49283838272094727 -0.602208077907562256
0.871548712253570557 2.55896854400634766 -0.580194056034088135
0.889262676239013672 2.45351171493530273 -0.754145979881286621
0.926999986171722412 2.40799999237060547 -0.869000017642974854
0.904871940612792969 2.50049471855163574 -0.786623716354370117
0.953999996185302734 2.42799997329711914 -0.779999971389770508
0.927382707595825195 2.49714469909667969 -0.877076804637908936
0.912910342216491699 2.47458457946777344 -0.916648566722869873
0.917650103569030762 2.49544620513916016 -0.933119416236877441
0.92757880687713623 2.48079657554626465 -0.973359405994415283
0.903402328491210938 2.48038029670715332 -0.980613768100738525
0.927984058856964111 2.44683718681335449 -0.982765257358551025
0.955202698707580566 2.39467120170593262 -0.974337577819824219
0.946582615375518799 2.43985176086425781 -0.981164991855621338
0.973964333534240723 2.45643043518066406 -0.928972721099853516
0.983512580394744873 2.43779182434082031 -0.836789309978485107
0.900900304317474365 2.38220906257629395 -0.933193385601043701
0.921238958835601807 2.39788341522216797 -0.880969107151031494
0.919000029563903809 2.42600011825561523 -0.894999980926513672
0.899489223957061768 2.42827582359313965 -0.855506002902984619
0.892804741859436035 2.48067283630371094 -0.745299816131591797
0.920459926128387451 2.43836069107055664 -0.753027856349945068
0.966581046581268311 2.53952312469482422 -0.720949113368988037
0.921938419342041016 2.54100608825683594 -0.5824471116065979
0.903172612190246582 2.50219392776489258 -0.597714781761169434
0.84518885612487793 2.44516849517822266 -0.87149810791015625
0.955970227718353271 2.51907110214233398 -0.594996452331542969
0.895005762577056885 2.51302480697631836 -0.723071157932281494
0.903999984264373779 2.48099994659423828 -0.762000024318695068
0.953000009059906006 2.53600001335144043 -0.578000009059906006
0.876631021499633789 2.52613735198974609 -0.610987365245819092
0.906984865665435791 2.54947948455810547 -0.47074049711227417
0.899117708206176758 2.49841809272766113 -0.652931690216064453
0.947000026702880859 2.4869999885559082 -0.809000015258789062
0.926999986171722412 2.41499996185302734 -0.896000027656555176
0.885338306427001953 2.47189688682556152 -0.780226409435272217
0.864234447479248047 2.4132544994354248 -0.852850615978240967
0.893126189708709717 2.53036594390869141 -0.646953940391540527
0.937796175479888916 2.47397112846374512 -0.715233862400054932
0.984668254852294922 2.50308871269226074 -0.702298939228057861
0.925677299499511719 2.45453286170959473 -0.814515888690948486
0.925006568431854248 2.51972556114196777 -0.64497452974319458
0.918231844902038574 2.4857633113861084 -0.490336775779724121
0.939584493637084961 2.35215449333190918 -1.04299497604370117
0.944089353084564209 2.38642454147338867 -1.04309475421905518
0.898221969604492188 2.52390313148498535 -0.6839408278465271
0.93914496898651123 2.52560734748840332 -0.529502213001251221
0.951970756053924561 2.42877864837646484 -1.03124582767486572
0.900067687034606934 2.54904842376708984 -0.647260189056396484
0.961909830570220947 2.36761593818664551 -1.01792395114898682
0.93900001049041748 2.44000005722045898 -1.02699995040893555
0.932887136936187744 2.3931279182434082 -1.02550804615020752
0.908999979496002197 2.41199994087219238 -0.879999995231628418
0.962999999523162842 2.5 -0.591000020503997803
0.913999974727630615 2.54399991035461426 -0.460999995470046997
0.89993441104888916 2.5421600341796875 -0.605447471141815186
0.953753173351287842 2.43853282928466797 -0.763502955436706543
0.91150665283203125 2.49757504463195801 -0.499371320009231567
0.934007048606872559 2.54314088821411133 -0.487199693918228149
0.899332940578460693 2.52483940124511719 -0.4801921546459198
0.87098228931427002 2.49413323402404785 -0.66012120246887207
0.976286530494689941 2.43415331840515137 -0.930274903774261475
0.897028744220733643 2.48706603050231934 -0.626237750053405762
0.910888671875 2.55386090278625488 -0.460353195667266846
0.901249587535858154 2.50601577758789062 -0.449886590242385864
0.936331689357757568 2.49898624420166016 -0.678736984729766846
0.903722941875457764 2.54030418395996094 -0.61350017786026001
0.883858323097229004 2.47285938262939453 -0.714982748031616211
0.975825309753417969 2.53560018539428711 -0.615525603294372559
0.970400631427764893 2.48558330535888672 -0.567431092262268066
0.884000003337860107 2.50999999046325684 -0.59299999475479126
0.884435594081878662 2.45754170417785645 -0.73410797119140625
0.88200002908706665 2.55500006675720215 -0.583000004291534424
0.91100001335144043 2.49300003051757812 -0.652999997138977051
0.958999991416931152 2.44350004196166992 -0.778499960899353027
0.90883946418762207 2.44829154014587402 -0.784705579280853271
0.993316233158111572 2.53010392189025879 -0.567271709442138672
0.917999982833862305 2.52900004386901855 -0.56099998950958252
0.987258315086364746 2.4863131046295166 -0.674573957920074463
0.97329026460647583 2.5517115592956543 -0.57190251350402832
0.948766052722930908 2.50500392913818359 -0.492158174514770508
0.891085445880889893 2.56107258796691895 -0.583462297916412354
0.921469509601593018 2.46487188339233398 -0.472328305244445801
0.934000015258789062 2.43199992179870605 -1
0.898429512977600098 2.3836512565612793 -0.957001864910125732
0.947682380676269531 2.50457286834716797 -0.712449848651885986
0.926963329315185547 2.48007011413574219 -0.649409592151641846
0.925000011920928955 2.53299999237060547 -0.583999991416931152
0.913999974727630615 2.52600002288818359 -0.625999987125396729
0.917715251445770264 2.52542257308959961 -0.547247231006622314
0.933080911636352539 2.46087503433227539 -0.991502821445465088
0.932047069072723389 2.50366950035095215 -0.829651832580566406
0.940854907035827637 2.48991656303405762 -0.922472178936004639
0.966776013374328613 2.51758217811584473 -0.954997003078460693
0.944704890251159668 2.44574093818664551 -0.952249228954315186
0.949999988079071045 2.49000000953674316 -0.815999984741210938
0.93599998950958252 2.40400004386901855 -0.890999972820281982
0.922966361045837402 2.42741036415100098 -0.786022603511810303
0.904455602169036865 2.39956521987915039 -0.983567476272583008
0.916857421398162842 2.397247314453125 -0.952625036239624023
0.989744067192077637 2.51076054573059082 -0.660141885280609131
0.869205772876739502 2.5355224609375 -0.486391454935073853
0.940999984741210938 2.50699996948242188 -0.652000010013580322
0.921000003814697266 2.53299999237060547 -0.606000006198883057
0.890502035617828369 2.5170900821685791 -0.615073859691619873
0.896199166774749756 2.40074419975280762 -0.914960503578186035
0.89384007453918457 2.43245148658752441 -0.862816989421844482
0.911088764667510986 2.49715924263000488 -0.571068286895751953
0.894800245761871338 2.53555536270141602 -0.490831524133682251
0.853041768074035645 2.4237663745880127 -0.878790318965911865
0.941598951816558838 2.50728082656860352 -0.606929898262023926
0.907999992370605469 2.48099994659423828 -0.456999987363815308
0.966596364974975586 2.51847720146179199 -0.533863842487335205
0.988344430923461914 2.52437615394592285 -0.660423219203948975
0.878020167350769043 2.50041508674621582 -0.582005560398101807
0.898356258869171143 2.45040225982666016 -0.957892417907714844
0.959846854209899902 2.50855088233947754 -0.847452640533447266
0.984273314476013184 2.49854445457458496 -0.482242465019226074
0.954623639583587646 2.52028036117553711 -0.658437371253967285
0.906623959541320801 2.44784426689147949 -0.710308611392974854
0.930000007152557373 2.49799990653991699 -0.481999993324279785
0.897000014781951904 2.53399991989135742 -0.453000009059906006
0.959090471267700195 2.47958707809448242 -0.733793377876281738
0.881789922714233398 2.47225022315979004 -0.828824341297149658
0.93672478199005127 2.38372707366943359 -0.999427914619445801
0.934845209121704102 2.41160678863525391 -0.853693783283233643
0.886562466621398926 2.42751026153564453 -0.976813673973083496
0.932438671588897705 2.51564788818359375 -0.731983363628387451
0.953000009059906006 2.41400003433227539 -0.870999991893768311
0.964461803436279297 2.51009964942932129 -0.935455381870269775
0.981341361999511719 2.47950005531311035 -0.935549437999725342
0.973191678524017334 2.47969365119934082 -0.880427420139312744
0.900451600551605225 2.5499577522277832 -0.676056444644927979
0.943202018737792969 2.48604607582092285 -0.627157390117645264
0.980044186115264893 2.49448490142822266 -0.601267337799072266
0.956202149391174316 2.48350214958190918 -0.834884047508239746
0.964999973773956299 2.41199994087219238 -0.875999987125396729
0.959950804710388184 2.42146921157836914 -0.900079607963562012
0.892701685428619385 2.46804666519165039 -0.934857547283172607
0.928556501865386963 2.45392727851867676 -0.962288975715637207
0.951483547687530518 2.42614841461181641 -0.973174631595611572
0.950880825519561768 2.40758299827575684 -0.939956247806549072
0.955004334449768066 2.41764402389526367 -0.867490828037261963
0.952732205390930176 2.50724935531616211 -0.818093061447143555
0.90354841947555542 2.48950695991516113 -0.85345226526260376
0.948000013828277588 2.48000001907348633 -0.683000028133392334
0.879125714302062988 2.54343628883361816 -0.642392277717590332
0.912324726581573486 2.53449654579162598 -0.517991006374359131
0.983792722225189209 2.52907633781433105 -0.550070345401763916
0.918414950370788574 2.52077841758728027 -0.532706141471862793
0.944999992847442627 2.42100000381469727 -0.846000015735626221
0.876312851905822754 2.4511716365814209 -0.811043202877044678
0.964469611644744873 2.48289585113525391 -0.650641918182373047
0.9189644455909729 2.50304698944091797 -0.712760269641876221
0.883811891078948975 2.47130298614501953 -0.742237567901611328
0.865222036838531494 2.49449610710144043 -0.689661145210266113
0.982572197914123535 2.53480148315429688 -0.479767262935638428
0.914074420928955078 2.44249510765075684 -0.729364871978759766
0.978205382823944092 2.42524361610412598 -0.854145944118499756
0.948000013828277588 2.4030001163482666 -0.890999972820281982
0.930000007152557373 2.5150001049041748 -0.694999992847442627
0.974863171577453613 2.43008542060852051 -0.861793994903564453
0.991443634033203125 2.48330950736999512 -0.552123606204986572
0.893533110618591309 2.47971963882446289 -0.674013018608093262
0.85982823371887207 2.52112555503845215 -0.564116954803466797
0.908895134925842285 2.4230494499206543 -0.916931211948394775
0.950526058673858643 2.41518807411193848 -0.899908006191253662
0.945746481418609619 2.50200438499450684 -0.84948199987411499
0.974055707454681396 2.46878290176391602 -0.856157600879669189
0.988758862018585205 2.43430423736572266 -0.888130128383636475
0.876052618026733398 2.39771819114685059 -0.943959236145019531
0.917999982833862305 2.40499997138977051 -0.875
0.854384779930114746 2.43907737731933594 -0.826684832572937012
0.904033303260803223 2.41802191734313965 -0.81165778636932373
0.958642184734344482 2.45446443557739258 -0.708473503589630127
0.951836228370666504 2.46448159217834473 -0.693517565727233887
0.985997915267944336 2.51133322715759277 -0.617075026035308838
0.912823200225830078 2.41958308219909668 -0.871616244316101074
0.901000022888183594 2.50399994850158691 -0.635999977588653564
0.991180181503295898 2.51026821136474609 -0.573739349842071533
0.916617095470428467 2.50813746452331543 -0.469450294971466064
0.888541281223297119 2.48256802558898926 -0.478723764419555664
0.957557976245880127 2.50637483596801758 -0.671506583690643311
0.967754125595092773 2.46853923797607422 -0.676441371440887451
0.970621585845947266 2.54911303520202637 -0.489656448364257812
0.937733173370361328 2.45311307907104492 -0.794102966785430908
0.885153353214263916 2.50848102569580078 -0.56626427173614502
0.948282837867736816 2.49145984649658203 -0.530610263347625732
0.940243005752563477 2.48724460601806641 -0.73572993278503418
0.938202083110809326 2.5145409107208252 -0.547588884830474854
0.918118000030517578 2.48515796661376953 -0.6090201735496521
0.944413721561431885 2.53276920318603516 -0.711866199970245361
0.878894567489624023 2.53062272071838379 -0.653784394264221191
0.915220975875854492 2.50003695487976074 -0.756318628787994385
0.920547187328338623 2.47857236862182617 -0.753693640232086182
0.967000007629394531 2.47900009155273438 -0.68599998950958252
0.877281248569488525 2.5405116081237793 -0.687649250030517578
0.93199998140335083 2.51600003242492676 -0.598999977111816406
0.863393425941467285 2.51055192947387695 -0.594999074935913086
0.965155243873596191 2.53020429611206055 -0.566098928451538086
0.949318945407867432 2.53649449348449707 -0.512194454669952393
0.870000004768371582 2.39299988746643066 -0.953999996185302734
0.919471919536590576 2.52685713768005371 -0.743156671524047852
0.918852388858795166 2.46701407432556152 -0.688096404075622559
0.980223596096038818 2.47436428070068359 -0.83672487735748291
0.946266829967498779 2.43872666358947754 -0.820889592170715332
0.962416470050811768 2.51929688453674316 -0.69067692756652832
0.914592385292053223 2.48005056381225586 -0.490459710359573364
0.977602779865264893 2.49049472808837891 -0.622878611087799072
0.912999987602233887 2.53299999237060547 -0.601999998092651367
0.89480125904083252 2.48675346374511719 -0.460189610719680786
0.90700000524520874 2.53200006484985352 -0.60000002384185791
0.914851903915405273 2.48122954368591309 -0.452670007944107056
0.906032383441925049 2.52869629859924316 -0.648093581199645996
0.980735421180725098 2.46844983100891113 -0.820140361785888672
0.893041253089904785 2.44364070892333984 -0.906138360500335693
0.888678908348083496 2.43320989608764648 -0.886515200138092041
0.975413858890533447 2.43302130699157715 -0.818183958530426025
0.960527360439300537 2.49305582046508789 -0.760714054107666016
0.970110476016998291 2.48223304748535156 -0.810886859893798828
0.933830320835113525 2.3910377025604248 -0.898189723491668701
0.962999999523162842 2.42100000381469727 -0.888000011444091797
0.960611641407012939 2.42568206787109375 -0.790805280208587646
0.886726200580596924 2.49727416038513184 -0.81712496280670166
0.898874998092651367 2.45049333572387695 -0.744417786598205566
0.929108202457427979 2.46970987319946289 -0.717319011688232422
0.868551194667816162 2.51873612403869629 -0.637429654598236084
0.875924587249755859 2.5610651969909668 -0.593442618846893311
0.87628406286239624 2.4852149486541748 -0.696896672248840332
0.895790159702301025 2.480621337890625 -0.766624510288238525
0.979825198650360107 2.48563337326049805 -0.515782177448272705
0.887800753116607666 2.41400241851806641 -0.934087038040161133
0.912369370460510254 2.50511765480041504 -0.520089387893676758
0.982079029083251953 2.46401643753051758 -0.528971314430236816
0.937829911708831787 2.48481154441833496 -0.475312888622283936
0.90722048282623291 2.41423869132995605 -1.03836941719055176
0.879180431365966797 2.4978797435760498 -0.627720654010772705
0.950745940208435059 2.37862920761108398 -1.053192138671875
0.964981138706207275 2.40526461601257324 -1.00782358646392822
0.906905710697174072 2.42933297157287598 -1.00776779651641846
0.959635138511657715 2.43393349647521973 -1.00656974315643311
0.969399154186248779 2.38616585731506348 -1.02144396305084229
0.947000026702880859 2.43499994277954102 -1.01199996471405029
0.982390224933624268 2.37191152572631836 -1.03355622291564941
0.891995787620544434 2.39997124671936035 -1.01116836071014404
0.972099423408508301 2.40373539924621582 -1.03699600696563721
0.962391257286071777 2.38468647003173828 -1.04070496559143066
0.983603954315185547 2.39445281028747559 -1.02434110641479492
0.845231533050537109 2.53834843635559082 -0.584052622318267822
0.949000000953674316 2.43600010871887207 -0.81400001049041748
0.986901581287384033 2.49860119819641113 -0.559489428997039795
0.878463864326477051 2.42137956619262695 -0.809558987617492676
0.908270955085754395 2.48647403717041016 -0.682647764682769775
0.952005326747894287 2.49074506759643555 -0.796076178550720215
0.908128619194030762 2.49610781669616699 -0.797434389591217041
0.972549557685852051 2.46941256523132324 -0.90018308162689209
0.984000027179718018 2.49200010299682617 -0.907999992370605469
0.964306890964508057 2.49992275238037109 -0.909837484359741211
0.960371196269989014 2.48597502708435059 -0.963428258895874023
0.994018673896789551 2.46021485328674316 -0.90118640661239624
0.981999993324279785 2.4570000171661377 -0.888999998569488525
0.985966205596923828 2.44418835639953613 -0.910391449928283691
0.945999979972839355 2.42799997329711914 -0.795000016689300537
0.922565758228302002 2.4077150821685791 -0.818894147872924805
0.95945209264755249 2.4585258960723877 -0.769360542297363281
0.875605225563049316 2.45829916000366211 -0.715404927730560303
0.907999992370605469 2.49000000953674316 -0.634000003337860107
0.950147092342376709 2.49744153022766113 -0.657236814498901367
0.941214084625244141 2.49029254913330078 -0.448468208312988281
3 182 309 183 255 255 255
3 309 308 183 255 255 255
3 182 310 309 255 255 255
3 308 312 183 255 255 255
3 308 184 312 255 255 255
3 309 310 308 255 255 255
3 182 183 146 255 255 255
3 183 311 146 255 255 255
3 184 313 312 255 255 255
3 184 220 221 255 255 255
3 308 310 184 255 255 255
3 310 220 184 255 255 255
3 311 11 146 255 255 255
3 310 59 220 255 255 255
3 183 314 67 255 255 255
3 312 222 314 255 255 255
3 313 222 312 255 255 255
3 184 221 222 255 255 255
3 310 145 59 255 255 255
3 183 67 311 255 255 255
3 314 114 67 255 255 255
3 184 257 221 255 255 255
3 220 257 221 255 255 255
3 220 169 188 255 255 255
3 310 182 145 255 255 255
3 145 60 59 255 255 255
3 182 11 145 255 255 255
3 146 11 182 255 255 255
3 311 62 11 255 255 255
3 67 147 311 255 255 255
3 221 68 222 255 255 255
3 220 188 257 255 255 255
3 145 61 60 255 255 255
3 145 11 61 255 255 255
3 311 192 62 255 255 255
3 147 192 311 255 255 255
3 314 190 114 255 255 255
3 222 190 314 255 255 255
3 68 214 222 255 255 255
3 257 267 221 255 255 255
3 188 267 221 255 255 255
3 144 196 169 255 255 255
3 67 194 147 255 255 255
3 67 114 194 255 255 255
3 189 190 222 255 255 255
3 222 214 189 255 255 255
3 188 272 267 255 255 255
3 188 196 272 255 255 255
3 147 193 192 255 255 255
3 147 194 193 255 255 255
3 190 194 114 255 255 255
3 68 211 214 255 255 255
3 257 188 267 255 255 255
3 188 169 196 255 255 255
3 191 268 60 255 255 255
3 192 143 62 255 255 255
3 192 64 143 255 255 255
3 192 193 64 255 255 255
3 193 66 64 255 255 255
3 194 65 193 255 255 255
3 189 212 190 255 255 255
3 195 211 214 255 255 255
3 68 270 211 255 255 255
3 196 306 272 255 255 255
3 220 197 144 255 255 255
3 197 220 59 255 255 255
3 59 52 197 255 255 255
3 191 42 268 255 255 255
3 60 61 191 255 255 255
3 61 63 191 255 255 255
3 62 61 11 255 255 255
3 63 61 62 255 255 255
3 62 143 63 255 255 255
3 64 66 143 255 255 255
3 65 291 193 255 255 255
3 190 212 273 255 255 255
3 68 267 270 255 255 255
3 267 272 270 255 255 255
3 144 86 196 255 255 255
3 59 60 52 255 255 255
3 268 52 60 255 255 255
3 268 48 52 255 255 255
3 191 168 42 255 255 255
3 291 293 193 255 255 255
3 190 273 194 255 255 255
3 195 45 211 255 255 255
3 270 178 211 255 255 255
3 270 46 275 255 255 255
3 271 317 272 255 255 255
3 272 306 271 255 255 255
3 197 276 144 255 255 255
3 63 168 191 255 255 255
3 193 293 66 255 255 255
3 65 194 43 255 255 255
3 194 69 23 255 255 255
3 273 69 194 255 255 255
3 274 219 195 255 255 255
3 270 316 178 255 255 255
3 275 316 270 255 255 255
3 270 272 46 255 255 255
3 144 40 86 255 255 255
3 276 307 144 255 255 255
3 197 41 276 255 255 255
3 268 42 48 255 255 255
3 143 292 63 255 255 255
3 194 23 43 255 255 255
3 219 44 195 255 255 255
3 306 47 271 255 255 255
3 40 306 86 255 255 255
3 276 57 307 255 255 255
3 41 225 176 255 255 255
3 41 48 225 255 255 255
3 42 168 284 255 255 255
3 65 177 291 255 255 255
3 43 177 65 255 255 255
3 195 44 45 255 255 255
3 44 56 45 255 255 255
3 219 87 44 255 255 255
3 45 195 178 255 255 255
3 275 315 316 255 255 255
3 46 58 275 255 255 255
3 46 317 127 255 255 255
3 271 175 317 255 255 255
3 47 180 271 255 255 255
3 306 40 47 255 255 255
3 306 148 86 255 255 255
3 307 40 144 255 255 255
3 42 269 48 255 255 255
3 292 168 63 255 255 255
3 292 179 168 255 255 255
3 66 136 143 255 255 255
3 66 295 136 255 255 255
3 293 100 103 255 255 255
3 293 291 100 255 255 255
3 294 102 296 255 255 255
3 294 177 102 255 255 255
3 177 294 291 255 255 255
3 178 203 45 255 255 255
3 45 230 178 255 255 255
3 56 230 45 255 255 255
3 44 149 56 255 255 255
3 45 181 195 255 255 255
3 178 44 45 255 255 255
3 315 150 316 255 255 255
3 275 58 315 255 255 255
3 58 109 275 255 255 255
3 46 127 58 255 255 255
3 175 49 317 255 255 255
3 47 255 180 255 255 255
3 148 40 86 255 255 255
3 41 176 276 255 255 255
3 48 78 225 255 255 255
3 48 162 78 255 255 255
3 269 162 48 255 255 255
3 179 284 168 255 255 255
3 295 103 136 255 255 255
3 291 298 100 255 255 255
3 296 300 294 255 255 255
3 43 151 177 255 255 255
3 69 137 23 255 255 255
3 69 273 158 255 255 255
3 273 149 70 255 255 255
3 56 87 230 255 255 255
3 149 224 56 255 255 255
3 44 212 149 255 255 255
3 181 189 195 255 255 255
3 316 226 178 255 255 255
3 150 226 316 255 255 255
3 315 275 150 255 255 255
3 317 109 127 255 255 255
3 49 109 317 255 255 255
3 180 175 271 255 255 255
3 57 24 307 255 255 255
3 276 88 57 255 255 255
3 176 88 276 255 255 255
3 297 151 179 255 255 255
3 298 299 100 255 255 255
3 291 300 298 255 255 255
3 177 96 102 255 255 255
3 177 104 96 255 255 255
3 177 151 104 255 255 255
3 43 152 151 255 255 255
3 70 158 273 255 255 255
3 71 16 230 255 255 255
3 87 71 230 255 255 255
3 87 218 71 255 255 255
3 44 181 212 255 255 255
3 72 230 178 255 255 255
3 178 226 72 255 255 255
3 275 109 150 255 255 255
3 175 37 49 255 255 255
3 180 138 175 255 255 255
3 57 246 24 255 255 255
3 176 204 88 255 255 255
3 223 158 284 255 255 255
3 284 179 223 255 255 255
3 179 292 297 255 255 255
3 299 97 100 255 255 255
3 300 299 294 255 255 255
3 151 297 104 255 255 255
3 152 137 151 255 255 255
3 137 152 23 255 255 255
3 69 254 137 255 255 255
3 158 223 69 255 255 255
3 273 42 158 255 255 255
3 70 105 158 255 255 255
3 224 105 70 255 255 255
3 218 268 71 255 255 255
3 181 274 212 255 255 255
3 72 105 230 255 255 255
3 150 304 226 255 255 255
3 109 74 150 255 255 255
3 49 74 109 255 255 255
3 180 34 138 255 255 255
3 246 255 24 255 255 255
3 225 204 176 255 255 255
3 269 89 162 255 255 255
3 269 159 89 255 255 255
3 42 284 158 255 255 255
3 179 254 223 255 255 255
3 298 296 299 255 255 255
3 297 288 104 255 255 255
3 159 16 72 255 255 255
3 226 12 72 255 255 255
3 12 89 72 255 255 255
3 226 304 12 255 255 255
3 37 227 49 255 255 255
3 175 92 37 255 255 255
3 34 75 138 255 255 255
3 57 88 282 255 255 255
3 88 73 282 255 255 255
3 88 204 128 255 255 255
3 162 225 78 255 255 255
3 179 151 137 255 255 255
3 292 288 297 255 255 255
3 299 97 294 255 255 255
3 96 296 102 255 255 255
3 72 89 159 255 255 255
3 49 210 74 255 255 255
3 138 92 175 255 255 255
3 138 75 92 255 255 255
3 246 80 255 255 255 255
3 73 246 282 255 255 255
3 88 55 73 255 255 255
3 204 150 128 255 255 255
3 204 225 304 255 255 255
3 296 96 299 255 255 255
3 298 300 296 255 255 255
3 96 97 290 255 255 255
3 74 128 150 255 255 255
3 49 172 210 255 255 255
3 37 236 227 255 255 255
3 255 80 180 255 255 255
3 246 73 80 255 255 255
3 73 13 80 255 255 255
3 124 13 73 255 255 255
3 128 55 88 255 255 255
3 128 74 55 255 255 255
3 204 304 150 255 255 255
3 225 12 304 255 255 255
3 89 12 225 255 255 255
3 225 162 89 255 255 255
3 97 104 288 255 255 255
3 299 290 97 255 255 255
3 96 290 299 255 255 255
3 269 42 268 255 255 255
3 268 52 269 255 255 255
3 227 172 49 255 255 255
3 228 172 227 255 255 255
3 228 256 172 255 255 255
3 37 131 236 255 255 255
3 92 131 37 255 255 255
3 75 259 92 255 255 255
3 34 244 75 255 255 255
3 80 206 180 255 255 255
3 80 98 206 255 255 255
3 73 207 13 255 255 255
3 74 210 55 255 255 255
3 210 277 55 255 255 255
3 80 249 98 255 255 255
3 80 13 208 255 255 255
3 73 277 124 255 255 255
3 228 139 256 255 255 255
3 205 139 228 255 255 255
3 228 236 205 255 255 255
3 34 18 244 255 255 255
3 206 17 180 255 255 255
3 98 21 206 255 255 255
3 13 281 208 255 255 255
3 124 318 13 255 255 255
3 124 172 318 255 255 255
3 277 210 124 255 255 255
3 277 207 73 255 255 255
3 73 247 277 255 255 255
3 73 81 247 255 255 255
3 277 124 55 255 255 255
3 305 120 256 255 255 255
3 139 5 256 255 255 255
3 131 205 236 255 255 255
3 75 244 259 255 255 255
3 18 213 244 255 255 255
3 21 213 206 255 255 255
3 13 318 281 255 255 255
3 207 120 13 255 255 255
3 73 282 81 255 255 255
3 128 238 93 255 255 255
3 256 5 305 255 255 255
3 131 153 205 255 255 255
3 98 118 21 255 255 255
3 318 120 281 255 255 255
3 120 318 13 255 255 255
3 73 55 207 255 255 255
3 172 120 318 255 255 255
3 93 38 128 255 255 255
3 238 38 93 255 255 255
3 120 172 256 255 255 255
3 305 281 120 255 255 255
3 305 216 281 255 255 255
3 5 216 305 255 255 255
3 205 186 139 255 255 255
3 153 261 205 255 255 255
3 34 21 259 255 255 255
3 244 18 259 255 255 255
3 34 244 259 255 255 255
3 118 259 21 255 255 255
3 249 185 98 255 255 255
3 247 47 241 255 255 255
3 81 24 247 255 255 255
3 258 302 93 255 255 255
3 238 315 38 255 255 255
3 216 208 281 255 255 255
3 139 85 5 255 255 255
3 139 319 85 255 255 255
3 205 261 186 255 255 255
3 131 166 153 255 255 255
3 98 94 118 255 255 255
3 98 266 94 255 255 255
3 98 185 266 255 255 255
3 17 278 247 255 255 255
3 247 241 17 255 255 255
3 238 302 315 255 255 255
3 216 113 208 255 255 255
3 139 243 319 255 255 255
3 261 53 186 255 255 255
3 153 166 261 255 255 255
3 259 171 235 255 255 255
3 94 155 118 255 255 255
3 94 171 155 255 255 255
3 185 101 266 255 255 255
3 278 73 247 255 255 255
3 302 258 315 255 255 255
3 85 113 5 255 255 255
3 319 115 85 255 255 255
3 243 115 319 255 255 255
3 186 243 139 255 255 255
3 261 187 53 255 255 255
3 166 229 261 255 255 255
3 320 198 235 255 255 255
3 171 166 235 255 255 255
3 118 155 235 255 255 255
3 94 6 171 255 255 255
3 185 199 101 255 255 255
3 113 279 208 255 255 255
3 278 277 73 255 255 255
3 17 91 278 255 255 255
3 85 115 113 255 255 255
3 319 7 115 255 255 255
3 243 77 115 255 255 255
3 186 53 163 255 255 255
3 198 248 235 255 255 255
3 101 199 119 255 255 255
3 199 185 249 255 255 255
3 17 241 91 255 255 255
3 5 126 216 255 255 255
3 115 289 113 255 255 255
3 319 126 7 255 255 255
3 77 289 115 255 255 255
3 186 163 243 255 255 255
3 187 122 53 255 255 255
3 261 229 187 255 255 255
3 229 53 187 255 255 255
3 166 121 229 255 255 255
3 198 236 248 255 255 255
3 101 119 266 255 255 255
3 119 141 266 255 255 255
3 199 26 119 255 255 255
3 249 245 199 255 255 255
3 249 208 245 255 255 255
3 208 279 245 255 255 255
3 113 289 279 255 255 255
3 319 231 126 255 255 255
3 163 14 243 255 255 255
3 187 303 122 255 255 255
3 53 106 187 255 255 255
3 229 25 187 255 255 255
3 171 6 166 255 255 255
3 141 94 266 255 255 255
3 119 156 141 255 255 255
3 26 108 119 255 255 255
3 319 115 231 255 255 255
3 14 160 243 255 255 255
3 53 14 163 255 255 255
3 53 122 14 255 255 255
3 53 79 106 255 255 255
3 121 25 229 255 255 255
3 6 121 166 255 255 255
3 26 280 108 255 255 255
3 199 279 26 255 255 255
3 279 199 245 255 255 255
3 77 157 289 255 255 255
3 303 215 122 255 255 255
3 6 50 121 255 255 255
3 108 280 134 255 255 255
3 90 157 245 255 255 255
3 289 83 279 255 255 255
3 91 198 278 255 255 255
3 77 10 157 255 255 255
3 243 160 77 255 255 255
3 187 232 303 255 255 255
3 25 232 187 255 255 255
3 26 251 301 255 255 255
3 90 231 157 255 255 255
3 83 26 279 255 255 255
3 289 157 83 255 255 255
3 10 83 157 255 255 255
3 77 160 167 255 255 255
3 14 39 160 255 255 255
3 25 28 232 255 255 255
3 25 121 132 255 255 255
3 134 76 108 255 255 255
3 26 301 280 255 255 255
3 83 251 26 255 255 255
3 77 167 10 255 255 255
3 160 239 167 255 255 255
3 160 39 27 255 255 255
3 39 285 27 255 255 255
3 215 286 122 255 255 255
3 50 132 121 255 255 255
3 50 3 132 255 255 255
3 0 82 50 255 255 255
3 50 8 0 255 255 255
3 76 156 108 255 255 255
3 280 54 134 255 255 255
3 10 264 83 255 255 255
3 251 123 167 255 255 255
3 239 217 167 255 255 255
3 27 239 160 255 255 255
3 122 39 14 255 255 255
3 0 8 79 255 255 255
3 28 129 232 255 255 255
3 132 28 25 255 255 255
3 0 8 82 255 255 255
3 50 79 8 255 255 255
3 134 4 76 255 255 255
3 54 280 301 255 255 255
3 251 217 301 255 255 255
3 264 108 83 255 255 255
3 10 262 264 255 255 255
3 27 36 239 255 255 255
3 285 142 27 255 255 255
3 39 133 285 255 255 255
3 122 240 39 255 255 255
3 122 286 240 255 255 255
3 215 29 286 255 255 255
3 0 3 8 255 255 255
3 8 2 82 255 255 255
3 76 140 156 255 255 255
3 1 130 76 255 255 255
3 76 4 1 255 255 255
3 4 36 1 255 255 255
3 301 15 54 255 255 255
3 264 1 108 255 255 255
3 262 140 264 255 255 255
3 123 239 167 255 255 255
3 167 217 251 255 255 255
3 133 110 285 255 255 255
3 286 283 240 255 255 255
3 303 30 215 255 255 255
3 8 106 79 255 255 255
3 0 252 3 255 255 255
3 129 35 232 255 255 255
3 28 201 129 255 255 255
3 3 252 132 255 255 255
3 252 201 132 255 255 255
3 3 2 8 255 255 255
3 2 3 82 255 255 255
3 140 8 156 255 255 255
3 76 2 140 255 255 255
3 4 239 36 255 255 255
3 134 125 4 255 255 255
3 10 141 262 255 255 255
3 110 200 285 255 255 255
3 286 29 283 255 255 255
3 29 31 283 255 255 255
3 303 35 30 255 255 255
3 8 250 156 255 255 255
3 76 130 2 255 255 255
3 125 54 4 255 255 255
3 4 217 239 255 255 255
3 285 200 142 255 255 255
3 283 170 240 255 255 255
3 35 33 30 255 255 255
3 4 15 217 255 255 255
3 110 95 260 255 255 255
3 110 133 95 255 255 255
3 39 240 133 255 255 255
3 252 165 201 255 255 255
3 142 130 27 255 255 255
3 200 242 142 255 255 255
3 200 99 242 255 255 255
3 110 161 200 255 255 255
3 154 161 110 255 255 255
3 110 234 154 255 255 255
3 260 234 110 255 255 255
3 133 287 95 255 255 255
3 240 170 133 255 255 255
3 30 31 29 255 255 255
3 201 165 22 255 255 255
3 252 99 165 255 255 255
3 130 36 27 255 255 255
3 170 20 133 255 255 255
3 22 33 201 255 255 255
3 253 22 165 255 255 255
3 99 253 165 255 255 255
3 252 242 99 255 255 255
3 234 263 154 255 255 255
3 260 287 135 255 255 255
3 20 287 133 255 255 255
3 31 209 170 255 255 255
3 31 30 32 255 255 255
3 200 202 99 255 255 255
3 287 321 135 255 255 255
3 287 20 321 255 255 255
3 170 209 20 255 255 255
3 31 32 209 255 255 255
3 30 33 32 255 255 255
3 135 263 234 255 255 255
3 321 265 135 255 255 255
3 95 233 173 255 255 255
3 209 51 20 255 255 255
3 253 99 111 255 255 255
3 84 111 161 255 255 255
3 161 154 84 255 255 255
3 154 116 84 255 255 255
3 263 117 154 255 255 255
3 265 164 135 255 255 255
3 321 117 265 255 255 255
3 95 9 233 255 255 255
3 22 32 33 255 255 255
3 253 237 22 255 255 255
3 111 200 161 255 255 255
3 154 117 174 255 255 255
3 263 19 117 255 255 255
3 135 164 263 255 255 255
3 164 19 263 255 255 255
3 209 237 51 255 255 255
3 32 237 209 255 255 255
3 22 237 32 255 255 255
3 99 142 202 255 255 255
3 154 174 116 255 255 255
3 117 116 174 255 255 255
3 19 265 117 255 255 255
3 9 112 233 255 255 255
3 321 116 117 255 255 255
3 20 116 321 255 255 255
3 51 116 20 255 255 255
3 51 237 111 255 255 255
3 84 116 111 255 255 255
3 112 117 233 255 255 255
3 51 111 116 255 255 255
3 237 253 111 255 255 255
3 116 174 112 255 255 255
3 117 263 233 255 255 255
3 112 9 117 255 255 255
3 116 107 174 255 255 255
3 117 265 263 255 255 255
