ply
format ascii 1.0
element vertex 306
property float x
property float y
property float z
element face 576
property list uchar int vertex_indices
property uchar red
property uchar green
property uchar blue
end_header
-12.9519996643066406 2.92100000381469727 -1.07200002670288086
-12.9540004730224609 2.96600008010864258 -0.96399998664855957
-12.9619998931884766 2.96000003814697266 -1.09099996089935303
-12.9779996871948242 2.94600009918212891 -1.04400002956390381
-12.9720001220703125 2.95099997520446777 -1.02799999713897705
-12.9770002365112305 2.96499991416931152 -0.980000019073486328
-12.9820003509521484 2.97000002861022949 -0.986999988555908203
-12.9840002059936523 2.97499990463256836 -0.990999996662139893
-12.9879999160766602 2.97300004959106445 -0.986000001430511475
-12.9849996566772461 2.96399998664855957 -0.985000014305114746
-12.9639997482299805 2.95199990272521973 -1.00600004196166992
-12.9770002365112305 2.94300007820129395 -0.962999999523162842
-12.9040002822875977 2.90000009536743164 -1.05700004100799561
-12.9720001220703125 2.94899988174438477 -1.08299994468688965
-12.9630002975463867 2.93899989128112793 -0.949000000953674316
-12.9650001525878906 2.97000002861022949 -1.09899997711181641
-12.9580001831054688 2.94799995422363281 -1.00800001621246338
-12.8999996185302734 2.89700007438659668 -1.09300005435943604
-12.9049997329711914 2.9179999828338623 -1.10099995136260986
-12.925999641418457 2.89299988746643066 -1.10699999332427979
-12.930999755859375 2.90599989891052246 -1.10099995136260986
-12.9460000991821289 2.94300007820129395 -1.05700004100799561
-12.9219999313354492 2.91499996185302734 -1.03499996662139893
-12.8979997634887695 2.91100001335144043 -1.04700005054473877
-12.9610004425048828 2.93499994277954102 -1.07799994945526123
-12.9659996032714844 2.9440000057220459 -1.08000004291534424
-12.8970003128051758 2.89499998092651367 -1.06799995899200439
-12.9639997482299805 2.95000004768371582 -1.02100002765655518
-12.9600000381469727 2.9570000171661377 -1.02699995040893555
-12.9589996337890625 2.9570000171661377 -0.985000014305114746
-12.9740047454833984 2.97099518775939941 -0.995970606803894043
-12.9940004348754883 2.96099996566772461 -0.989000022411346436
-12.9809999465942383 2.95399999618530273 -0.990999996662139893
-12.9560003280639648 2.95300006866455078 -0.984000027179718018
-12.9519996643066406 2.95799994468688965 -0.97500002384185791
-12.9600000381469727 2.96000003814697266 -0.972999989986419678
-12.9709997177124023 2.96600008010864258 -0.981999993324279785
-12.9899997711181641 2.98000001907348633 -0.998000025749206543
-12.9930000305175781 2.9719998836517334 -0.989000022411346436
-12.9930000305175781 2.95600008964538574 -0.982999980449676514
-12.9770002365112305 2.95300006866455078 -0.982999980449676514
-12.9700002670288086 2.93700003623962402 -1.03999996185302734
-12.9670000076293945 2.9440000057220459 -0.976000010967254639
-12.9980001449584961 2.95499992370605469 -1.04700005054473877
-12.9519996643066406 2.94799995422363281 -0.972999989986419678
-12.9759998321533203 2.95499992370605469 -0.959999978542327881
-12.9580001831054688 2.96000003814697266 -0.958999991416931152
-12.9790000915527344 2.93899989128112793 -0.962999999523162842
-12.9689998626708984 2.93799996376037598 -0.966000020503997803
-12.9530000686645508 2.94499993324279785 -0.962999999523162842
-12.9630002975463867 2.96099996566772461 -0.949999988079071045
-12.9739999771118164 2.93799996376037598 -1.09500002861022949
-12.9799995422363281 2.9570000171661377 -1.04999995231628418
-12.9809999465942383 2.95099997520446777 -1.03699994087219238
-12.9530000686645508 2.95200014114379883 -0.998000264167785645
-12.9879999160766602 2.97499990463256836 -0.999000012874603271
-12.991999626159668 2.9590001106262207 -0.995999991893768311
-12.9630002975463867 2.96399998664855957 -0.990000009536743164
-12.9689998626708984 2.95600008964538574 -0.994000017642974854
-12.9689750671386719 2.96303105354309082 -1.07510340213775635
-12.9369831085205078 2.89303135871887207 -1.09599661827087402
-12.9280004501342773 2.8880000114440918 -1.09599995613098145
-12.9289999008178711 2.89299988746643066 -1.09200000762939453
-12.9060001373291016 2.90000009536743164 -1.10000002384185791
-12.8889999389648438 2.90000009536743164 -1.09899997711181641
-12.8992290496826172 2.91191434860229492 -1.08678245544433594
-12.9189996719360352 2.9159998893737793 -1.08399999141693115
-12.9180002212524414 2.90899991989135742 -1.08500003814697266
-12.9085006713867188 2.91400003433227539 -1.03600001335144043
-12.9540004730224609 2.9309999942779541 -1.07099997997283936
-12.8950004577636719 2.91100001335144043 -1.10599994659423828
-12.9099998474121094 2.90000009536743164 -1.10899996757507324
-12.8929996490478516 2.90000009536743164 -1.03600001335144043
-12.883000373840332 2.89599990844726562 -1.04200005531311035
-12.9650001525878906 2.93400001525878906 -1.08899998664855957
-12.9700002670288086 2.9440000057220459 -1.10599994659423828
-12.9809999465942383 2.94700002670288086 -1.04999995231628418
-12.9569997787475586 2.94899988174438477 -0.958999991416931152
-12.9329996109008789 2.92400002479553223 -1.0559999942779541
-12.8999996185302734 2.90799999237060547 -1.0549999475479126
-12.9029998779296875 2.91000008583068848 -1.05900001525878906
-12.930999755859375 2.9159998893737793 -1.0549999475479126
-12.9079999923706055 2.91199994087219238 -1.05700004100799561
-12.9200000762939453 2.90899991989135742 -1.07200002670288086
-12.9189996719360352 2.90899991989135742 -1.07799994945526123
-12.9090003967285156 2.90100002288818359 -1.08500003814697266
-12.9029998779296875 2.89899992942810059 -1.08800005912780762
-12.8970003128051758 2.90799999237060547 -1.10599994659423828
-12.9739999771118164 2.9440000057220459 -1.10199999809265137
-12.9670000076293945 2.96399998664855957 -1.00399994850158691
-12.9969997406005859 2.9590001106262207 -1.03499996662139893
-12.9130001068115234 2.9030001163482666 -1.03699994087219238
-12.9549999237060547 2.95399999618530273 -1.04400002956390381
-12.9280004501342773 2.92300009727478027 -1.04600000381469727
-12.9659996032714844 2.96600008010864258 -1.0820000171661377
-12.9729995727539062 2.9570000171661377 -0.94300001859664917
-12.9709997177124023 2.96000003814697266 -0.958999991416931152
-12.9639997482299805 2.93199992179870605 -1.0700000524520874
-12.9600000381469727 2.9570000171661377 -1.03100001811981201
-12.9049997329711914 2.92100000381469727 -1.09800004959106445
-12.9860000610351562 2.95300006866455078 -0.949999988079071045
-12.9790000915527344 2.93600010871887207 -1.07599997520446777
-12.9759998321533203 2.93600010871887207 -0.958999991416931152
-12.9720001220703125 2.93000006675720215 -1.09200000762939453
-12.9130001068115234 2.92600011825561523 -1.10899996757507324
-12.9709997177124023 2.94499993324279785 -1.1109999418258667
-12.9630002975463867 2.93199992179870605 -1.08800005912780762
-12.9819793701171875 2.95102667808532715 -1.05396151542663574
-12.9829998016357422 2.95499992370605469 -0.998000025749206543
-12.9650001525878906 2.94799995422363281 -1.06400001049041748
-12.9589996337890625 2.9570000171661377 -1.00899994373321533
-12.9750003814697266 2.94700002670288086 -1.08899998664855957
-12.9720001220703125 2.97499990463256836 -1.01600003242492676
-12.930999755859375 2.92899990081787109 -1.0429999828338623
-12.9250001907348633 2.90199995040893555 -1.04200005531311035
-12.9090003967285156 2.9179999828338623 -1.04200005531311035
-12.9189996719360352 2.92100000381469727 -1.03900003433227539
-12.8850002288818359 2.90100002288818359 -1.04200005531311035
-12.9610004425048828 2.94799995422363281 -1.07299995422363281
-12.9469995498657227 2.9159998893737793 -1.07299995422363281
-12.8999996185302734 2.91000008583068848 -1.03400003910064697
-12.9010000228881836 2.90400004386901855 -1.03499996662139893
-12.9519996643066406 2.95099997520446777 -1.07799994945526123
-12.9270000457763672 2.92199993133544922 -1.03900003433227539
-12.9600000381469727 2.93199992179870605 -1.08500003814697266
-12.9700002670288086 2.94600009918212891 -1.03699994087219238
-12.9239997863769531 2.88899993896484375 -1.09899997711181641
-12.9239997863769531 2.90599989891052246 -1.0559999942779541
-12.9715003967285156 2.94250011444091797 -0.972000002861022949
-12.9729995727539062 2.93400001525878906 -0.950999975204467773
-12.9720001220703125 2.94899988174438477 -1.08700001239776611
-12.9960002899169922 2.97300004959106445 -0.990000009536743164
-12.9750003814697266 2.9720001220703125 -1.01900005340576172
-12.9870004653930664 2.95300006866455078 -1.01100003719329834
-12.8909997940063477 2.91000008583068848 -1.10800004005432129
-12.9040002822875977 2.90000009536743164 -1.08299994468688965
-12.9239997863769531 2.90799999237060547 -1.05999994277954102
-12.9160003662109375 2.90599989891052246 -1.0820000171661377
-12.9149999618530273 2.91499996185302734 -1.06500005722045898
-12.9119997024536133 2.90899991989135742 -1.05999994277954102
-12.8909997940063477 2.91100001335144043 -1.0429999828338623
-12.944000244140625 2.94600009918212891 -1.0559999942779541
-12.9010000228881836 2.91199994087219238 -1.03999996185302734
-12.8999996185302734 2.89899992942810059 -1.05299997329711914
-12.8920001983642578 2.9030001163482666 -1.03999996185302734
-12.9130001068115234 2.91300010681152344 -1.0820000171661377
-12.925999641418457 2.91499996185302734 -1.03699994087219238
-12.8970003128051758 2.90700006484985352 -1.03699994087219238
-12.8979997634887695 2.91899991035461426 -1.09099996089935303
-12.9280004501342773 2.91700005531311035 -1.10300004482269287
-12.9289999008178711 2.90499997138977051 -1.09599995613098145
-12.935999870300293 2.89299988746643066 -1.10599994659423828
-12.9340000152587891 2.89100003242492676 -1.09899997711181641
-12.9209995269775391 2.89199995994567871 -1.09500002861022949
-12.8979997634887695 2.91100001335144043 -1.09099996089935303
-12.9120264053344727 2.91899704933166504 -1.08802437782287598
-12.9169998168945312 2.90499997138977051 -1.10899996757507324
-12.880000114440918 2.90100002288818359 -1.04600000381469727
-12.9079999923706055 2.91000008583068848 -1.02999997138977051
-12.9759998321533203 2.94700002670288086 -1.05900001525878906
-12.9600000381469727 2.94700002670288086 -1.03299999237060547
-12.9799995422363281 2.9570000171661377 -1.02300000190734863
-12.9770002365112305 2.94300007820129395 -1.00399994850158691
-12.9799995422363281 2.97300004959106445 -1.0140000581741333
-12.9090003967285156 2.90799999237060547 -1.07200002670288086
-12.9689998626708984 2.94799995422363281 -1.09000003337860107
-12.9560003280639648 2.96099996566772461 -1.09099996089935303
-12.9589996337890625 2.92899990081787109 -1.07599997520446777
-12.9729995727539062 2.94899988174438477 -1.09599995613098145
-12.9670000076293945 2.95499992370605469 -1.06200003623962402
-12.8979997634887695 2.90199995040893555 -1.08899998664855957
-12.9680004119873047 2.96199989318847656 -0.952000021934509277
-12.9959068298339844 2.95898652076721191 -1.04801702499389648
-12.9750003814697266 2.96099996566772461 -1.05299997329711914
-12.8909997940063477 2.90599989891052246 -1.10800004005432129
-12.9770002365112305 2.94600009918212891 -0.97500002384185791
-12.9810018539428711 2.96099257469177246 -1.03801333904266357
-12.9619998931884766 2.96499991416931152 -1.10099995136260986
-12.9689998626708984 2.94099998474121094 -1.10300004482269287
-12.8950004577636719 2.89700007438659668 -1.06799995899200439
-12.9720001220703125 2.92799997329711914 -1.0690000057220459
-12.9739999771118164 2.94199991226196289 -1.0429999828338623
-12.9820003509521484 2.97000002861022949 -0.982999980449676514
-12.9630002975463867 2.93799996376037598 -0.968999981880187988
-12.9610004425048828 2.96099996566772461 -1.08000004291534424
-12.9530000686645508 2.9590001106262207 -1.02100002765655518
-12.9820003509521484 2.94199991226196289 -1.05400002002716064
-12.9200000762939453 2.91499996185302734 -1.05299997329711914
-12.9180002212524414 2.90000009536743164 -1.08899998664855957
-12.9060001373291016 2.90199995040893555 -1.10599994659423828
-12.9079999923706055 2.91199994087219238 -1.07899999618530273
-12.9130001068115234 2.91300010681152344 -1.1119999885559082
-12.9130001068115234 2.91899991035461426 -1.04499995708465576
-12.944000244140625 2.92499995231628418 -1.07500004768371582
-12.949000358581543 2.93499994277954102 -1.06500005722045898
-12.9069995880126953 2.91499996185302734 -1.04400002956390381
-12.9139995574951172 2.90400004386901855 -1.02999997138977051
-12.9350004196166992 2.92499995231628418 -1.06099998950958252
-12.9350004196166992 2.9159998893737793 -1.05999994277954102
-12.9079999923706055 2.92100000381469727 -1.10699999332427979
-12.9130001068115234 2.92199993133544922 -1.10500001907348633
-12.9630002975463867 2.93899989128112793 -1.04100000858306885
-12.9469966888427734 2.9500124454498291 -0.967999637126922607
-12.9750003814697266 2.9570000171661377 -1.05999994277954102
-12.9600000381469727 2.96499991416931152 -1.08399999141693115
-12.9589996337890625 2.96099996566772461 -1.01499998569488525
-12.9630002975463867 2.96399998664855957 -0.954999983310699463
-12.9569997787475586 2.93799996376037598 -0.96799999475479126
-12.9600000381469727 2.9570000171661377 -0.954999983310699463
-12.9610004425048828 2.95199990272521973 -0.948000013828277588
-12.9770002365112305 2.96499991416931152 -0.948000013828277588
-12.9790000915527344 2.94499993324279785 -0.948000013828277588
-12.9680004119873047 2.97000002861022949 -1.09599995613098145
-12.9899997711181641 2.94600009918212891 -1.00699996948242188
-12.9770002365112305 2.95399999618530273 -0.948000013828277588
-12.9779996871948242 2.9440000057220459 -1.0820000171661377
-12.9729995727539062 2.95000004768371582 -0.945999979972839355
-12.9659996032714844 2.94799995422363281 -1.02799999713897705
-12.9840002059936523 2.96000003814697266 -0.949999988079071045
-12.9680004119873047 2.93600010871887207 -1.09300005435943604
-12.9689998626708984 2.92700004577636719 -1.0700000524520874
-12.9549999237060547 2.93300008773803711 -1.06400001049041748
-12.9700002670288086 2.95799994468688965 -1.03499996662139893
-12.991999626159668 2.95000004768371582 -1.00800001621246338
-12.9750003814697266 2.95199990272521973 -0.985000014305114746
-12.949000358581543 2.94099998474121094 -0.97500002384185791
-12.949000358581543 2.96099996566772461 -0.96799999475479126
-12.9569997787475586 2.9570000171661377 -1.08599996566772461
-12.9619998931884766 2.93899989128112793 -1.03299999237060547
-12.9709997177124023 2.96000003814697266 -0.945999979972839355
-12.9449996948242188 2.92000007629394531 -1.07899999618530273
-12.9680004119873047 2.96700000762939453 -1.02199995517730713
-12.9099998474121094 2.90000009536743164 -1.03999996185302734
-12.9829998016357422 2.9570000171661377 -1.02999997138977051
-12.9580001831054688 2.93499994277954102 -1.03199994564056396
-12.9670000076293945 2.9590001106262207 -1.04900002479553223
-12.9580001831054688 2.94199991226196289 -1.03699994087219238
-12.9540004730224609 2.95199990272521973 -1.00699996948242188
-12.8940000534057617 2.90700006484985352 -1.04900002479553223
-12.9029998779296875 2.90199995040893555 -1.04799997806549072
-12.8889999389648438 2.89899992942810059 -1.09399998188018799
-12.9519996643066406 2.9570000171661377 -1.07599997520446777
-12.9110002517700195 2.91499996185302734 -1.04799997806549072
-12.9610004425048828 2.94499993324279785 -1.04799997806549072
-12.9890003204345703 2.9570000171661377 -1.00800001621246338
-12.9239997863769531 2.92400002479553223 -1.10699999332427979
-12.9680004119873047 2.95000004768371582 -0.984000027179718018
-12.9160003662109375 2.90899991989135742 -1.10899996757507324
-12.9250001907348633 2.90499997138977051 -1.03900003433227539
-12.9729995727539062 2.95300006866455078 -1.07500004768371582
-12.9809999465942383 2.93799996376037598 -1.00600004196166992
-12.9860000610351562 2.94899988174438477 -1.00999999046325684
-12.939000129699707 2.94000005722045898 -1.05200004577636719
-12.9549999237060547 2.95499992370605469 -1.02199995517730713
-12.9870004653930664 2.95399999618530273 -1.00199997425079346
-12.9600000381469727 2.93199992179870605 -0.953999996185302734
-12.9580001831054688 2.94499993324279785 -1.03699994087219238
-12.9799995422363281 2.94899988174438477 -0.949000000953674316
-12.9569997787475586 2.96399998664855957 -1.08700001239776611
-12.9770002365112305 2.93499994277954102 -1.08399999141693115
-12.9809999465942383 2.92899990081787109 -1.07099997997283936
-12.9600000381469727 2.9570000171661377 -1.03499996662139893
-12.9759998321533203 2.95199990272521973 -1.02100002765655518
-12.9600000381469727 2.96399998664855957 -1.09200000762939453
-12.9689998626708984 2.9590001106262207 -1.04200005531311035
-12.9689998626708984 2.93799996376037598 -0.949999988079071045
-12.9180002212524414 2.89700007438659668 -1.04600000381469727
-12.9630002975463867 2.96199989318847656 -0.967000007629394531
-12.9759998321533203 2.93499994277954102 -0.967000007629394531
-12.9826526641845703 2.94805002212524414 -0.953684568405151367
-12.9849996566772461 2.97099995613098145 -1
-12.9759998321533203 2.93499994277954102 -0.96399998664855957
-12.9580001831054688 2.94600009918212891 -0.953999996185302734
-12.9770002365112305 2.93600010871887207 -0.950999975204467773
-12.9270000457763672 2.91400003433227539 -1.10500001907348633
-12.9680004119873047 2.9440000057220459 -1.04900002479553223
-12.9610004425048828 2.95799994468688965 -1.04200005531311035
-12.9820003509521484 2.94700002670288086 -1.08599996566772461
-12.9860000610351562 2.97499990463256836 -0.995999991893768311
-12.9499998092651367 2.95799994468688965 -1.08000004291534424
-12.9659996032714844 2.96300005912780762 -0.949000000953674316
-12.9685001373291016 2.94449996948242188 -0.949499964714050293
1 1 1
-12.9060001373291016 2.90199995040893555 -1.05400002002716064
-12.9759998321533203 2.94700002670288086 -1.00899994373321533
-12.9790000915527344 2.95099997520446777 -1.01199996471405029
-12.9130001068115234 2.90899991989135742 -1.06799995899200439
-12.9700002670288086 2.94499993324279785 -1.10000002384185791
-12.966090202331543 2.96192121505737305 -0.973233997821807861
-12.9720001220703125 2.95600008964538574 -0.97500002384185791
-12.9829998016357422 2.96199989318847656 -0.984000027179718018
-12.9239997863769531 2.9179999828338623 -1.10899996757507324
-12.9409999847412109 2.92000007629394531 -1.05999994277954102
-12.9739999771118164 2.92799997329711914 -1.07299995422363281
-12.9630002975463867 2.96199989318847656 -1.01999998092651367
-12.9670000076293945 2.94099998474121094 -0.972999989986419678
-12.9479999542236328 2.9570000171661377 -0.967000007629394531
-12.9560003280639648 2.96000003814697266 -0.962000012397766113
-12.9689998626708984 2.96700000762939453 -1.07899999618530273
-12.9750003814697266 2.95300006866455078 -1.06400001049041748
-12.9650001525878906 2.97300004959106445 -1.01800000667572021
-12.9790000915527344 2.94600009918212891 -1.00499999523162842
-12.9449996948242188 2.92700004577636719 -1.0549999475479126
-12.9820003509521484 2.94700002670288086 -1.0559999942779541
-12.9560003280639648 2.95199990272521973 -1.01900005340576172
-12.9589996337890625 2.95199990272521973 -1.03100001811981201
3 71 70 174 255 255 255
3 70 134 174 255 255 255
3 71 191 70 255 255 255
3 191 199 70 255 255 255
3 71 156 191 255 255 255
3 199 18 70 255 255 255
3 191 104 199 255 255 255
3 156 247 191 255 255 255
3 71 19 156 255 255 255
3 18 99 70 255 255 255
3 199 99 18 255 255 255
3 199 104 99 255 255 255
3 191 291 104 255 255 255
3 247 291 191 255 255 255
3 247 156 291 255 255 255
3 156 274 291 255 255 255
3 19 20 156 255 255 255
3 71 126 19 255 255 255
3 99 148 70 255 255 255
3 291 245 104 255 255 255
3 274 149 291 255 255 255
3 156 20 274 255 255 255
3 20 149 274 255 255 255
3 20 150 149 255 255 255
3 19 151 20 255 255 255
3 126 152 19 255 255 255
3 71 153 126 255 255 255
3 148 154 70 255 255 255
3 99 155 148 255 255 255
3 291 149 245 255 255 255
3 149 155 245 255 255 255
3 150 66 149 255 255 255
3 20 60 150 255 255 255
3 151 60 20 255 255 255
3 151 152 60 255 255 255
3 152 151 19 255 255 255
3 126 61 152 255 255 255
3 153 61 126 255 255 255
3 153 62 61 255 255 255
3 71 63 153 255 255 255
3 154 134 70 255 255 255
3 154 64 134 255 255 255
3 148 65 154 255 255 255
3 155 65 148 255 255 255
3 99 200 155 255 255 255
3 155 200 245 255 255 255
3 200 104 245 255 255 255
3 200 99 104 255 255 255
3 149 66 155 255 255 255
3 150 67 66 255 255 255
3 60 62 150 255 255 255
3 61 60 152 255 255 255
3 62 60 61 255 255 255
3 153 188 62 255 255 255
3 63 17 153 255 255 255
3 71 189 63 255 255 255
3 64 174 134 255 255 255
3 64 189 174 255 255 255
3 154 240 64 255 255 255
3 65 170 154 255 255 255
3 66 145 155 255 255 255
3 66 83 145 255 255 255
3 67 84 66 255 255 255
3 150 188 67 255 255 255
3 188 150 62 255 255 255
3 153 85 188 255 255 255
3 17 86 153 255 255 255
3 63 64 17 255 255 255
3 189 87 174 255 255 255
3 64 63 189 255 255 255
3 65 135 170 255 255 255
3 190 135 65 255 255 255
3 190 164 135 255 255 255
3 65 155 190 255 255 255
3 155 145 190 255 255 255
3 145 286 190 255 255 255
3 83 286 145 255 255 255
3 83 136 286 255 255 255
3 84 83 66 255 255 255
3 84 137 83 255 255 255
3 67 188 84 255 255 255
3 85 137 188 255 255 255
3 153 86 85 255 255 255
3 86 135 85 255 255 255
3 17 170 86 255 255 255
3 64 240 17 255 255 255
3 87 154 174 255 255 255
3 135 86 170 255 255 255
3 190 138 164 255 255 255
3 136 139 286 255 255 255
3 83 198 136 255 255 255
3 137 164 83 255 255 255
3 84 188 137 255 255 255
3 17 240 170 255 255 255
3 87 189 154 255 255 255
3 138 80 164 255 255 255
3 139 82 286 255 255 255
3 136 242 139 255 255 255
3 198 81 136 255 255 255
3 137 85 164 255 255 255
3 85 135 164 255 255 255
3 80 179 164 255 255 255
3 138 82 80 255 255 255
3 139 187 82 255 255 255
3 136 81 242 255 255 255
3 81 192 242 255 255 255
3 198 197 81 255 255 255
3 80 79 179 255 255 255
3 82 23 80 255 255 255
3 138 242 82 255 255 255
3 192 195 242 255 255 255
3 81 93 192 255 255 255
3 197 78 81 255 255 255
3 198 193 197 255 255 255
3 79 238 179 255 255 255
3 80 23 79 255 255 255
3 23 238 79 255 255 255
3 23 140 238 255 255 255
3 82 195 23 255 255 255
3 138 187 242 255 255 255
3 192 115 195 255 255 255
3 93 116 192 255 255 255
3 81 78 93 255 255 255
3 78 113 93 255 255 255
3 197 252 78 255 255 255
3 193 194 197 255 255 255
3 198 119 193 255 255 255
3 140 157 238 255 255 255
3 23 142 140 255 255 255
3 195 142 23 255 255 255
3 195 115 142 255 255 255
3 115 68 142 255 255 255
3 138 78 187 255 255 255
3 192 116 115 255 255 255
3 116 68 115 255 255 255
3 93 113 116 255 255 255
3 197 194 252 255 255 255
3 194 21 252 255 255 255
3 193 69 194 255 255 255
3 119 230 193 255 255 255
3 157 143 238 255 255 255
3 140 117 157 255 255 255
3 142 120 140 255 255 255
3 68 120 142 255 255 255
3 68 158 120 255 255 255
3 68 22 158 255 255 255
3 138 198 78 255 255 255
3 116 22 68 255 255 255
3 116 123 22 255 255 255
3 21 141 252 255 255 255
3 194 122 21 255 255 255
3 69 118 194 255 255 255
3 193 124 69 255 255 255
3 230 124 193 255 255 255
3 143 12 238 255 255 255
3 157 73 143 255 255 255
3 117 73 157 255 255 255
3 117 72 73 255 255 255
3 140 144 117 255 255 255
3 120 147 140 255 255 255
3 158 121 120 255 255 255
3 22 196 158 255 255 255
3 198 292 78 255 255 255
3 123 146 22 255 255 255
3 116 113 123 255 255 255
3 141 92 252 255 255 255
3 21 122 141 255 255 255
3 122 241 141 255 255 255
3 118 141 194 255 255 255
3 69 24 118 255 255 255
3 124 24 69 255 255 255
3 124 25 24 255 255 255
3 143 26 12 255 255 255
3 73 72 143 255 255 255
3 72 239 143 255 255 255
3 117 144 72 255 255 255
3 144 147 72 255 255 255
3 147 144 140 255 255 255
3 120 72 147 255 255 255
3 120 121 72 255 255 255
3 121 232 72 255 255 255
3 158 196 121 255 255 255
3 196 232 121 255 255 255
3 196 91 232 255 255 255
3 22 248 196 255 255 255
3 292 194 78 255 255 255
3 198 230 292 255 255 255
3 146 248 22 255 255 255
3 146 127 248 255 255 255
3 122 279 241 255 255 255
3 24 25 118 255 255 255
3 25 227 118 255 255 255
3 124 74 25 255 255 255
3 26 164 12 255 255 255
3 239 283 143 255 255 255
3 72 232 239 255 255 255
3 232 266 239 255 255 255
3 91 266 232 255 255 255
3 91 114 266 255 255 255
3 196 114 91 255 255 255
3 196 248 114 255 255 255
3 248 127 114 255 255 255
3 127 266 114 255 255 255
3 127 283 266 255 255 255
3 279 204 241 255 255 255
3 122 227 279 255 255 255
3 25 165 227 255 255 255
3 74 165 25 255 255 255
3 74 219 165 255 255 255
3 124 106 74 255 255 255
3 283 12 266 255 255 255
3 127 139 283 255 255 255
3 204 184 241 255 255 255
3 279 258 204 255 255 255
3 227 166 279 255 255 255
3 165 2 227 255 255 255
3 219 287 165 255 255 255
3 74 106 219 255 255 255
3 106 103 219 255 255 255
3 124 167 106 255 255 255
3 184 59 241 255 255 255
3 204 298 184 255 255 255
3 258 263 204 255 255 255
3 279 166 258 255 255 255
3 166 263 258 255 255 255
3 166 177 263 255 255 255
3 227 2 166 255 255 255
3 2 177 166 255 255 255
3 2 168 177 255 255 255
3 165 287 2 255 255 255
3 219 178 287 255 255 255
3 103 178 219 255 255 255
3 106 293 103 255 255 255
3 167 293 106 255 255 255
3 167 220 293 255 255 255
3 124 0 167 255 255 255
3 184 298 59 255 255 255
3 204 94 298 255 255 255
3 263 212 204 255 255 255
3 177 15 263 255 255 255
3 168 75 177 255 255 255
3 178 75 287 255 255 255
3 293 259 103 255 255 255
3 220 180 293 255 255 255
3 167 0 220 255 255 255
3 59 169 241 255 255 255
3 94 212 298 255 255 255
3 212 94 204 255 255 255
3 263 15 212 255 255 255
3 75 105 177 255 255 255
3 75 168 287 255 255 255
3 168 2 287 255 255 255
3 178 105 75 255 255 255
3 259 51 103 255 255 255
3 293 260 259 255 255 255
3 180 260 293 255 255 255
3 180 186 260 255 255 255
3 220 97 180 255 255 255
3 169 109 241 255 255 255
3 59 203 169 255 255 255
3 51 178 103 255 255 255
3 51 88 178 255 255 255
3 259 277 51 255 255 255
3 260 101 259 255 255 255
3 180 159 186 255 255 255
3 97 109 180 255 255 255
3 220 221 97 255 255 255
3 109 118 241 255 255 255
3 169 243 109 255 255 255
3 203 173 169 255 255 255
3 88 105 178 255 255 255
3 51 277 88 255 255 255
3 259 101 277 255 255 255
3 260 159 101 255 255 255
3 159 275 186 255 255 255
3 109 101 180 255 255 255
3 97 221 109 255 255 255
3 221 275 109 255 255 255
3 220 0 221 255 255 255
3 0 302 221 255 255 255
3 109 249 118 255 255 255
3 169 92 243 255 255 255
3 173 235 169 255 255 255
3 203 107 173 255 255 255
3 159 299 101 255 255 255
3 275 181 186 255 255 255
3 221 243 275 255 255 255
3 0 292 302 255 255 255
3 249 13 118 255 255 255
3 92 236 243 255 255 255
3 169 235 92 255 255 255
3 235 276 92 255 255 255
3 173 176 235 255 255 255
3 107 52 173 255 255 255
3 299 215 101 255 255 255
3 159 303 299 255 255 255
3 181 3 186 255 255 255
3 275 41 181 255 255 255
3 243 201 275 255 255 255
3 0 119 292 255 255 255
3 249 277 13 255 255 255
3 236 201 243 255 255 255
3 236 234 201 255 255 255
3 92 256 236 255 255 255
3 276 261 92 255 255 255
3 235 264 276 255 255 255
3 176 264 235 255 255 255
3 173 52 176 255 255 255
3 52 172 176 255 255 255
3 203 299 107 255 255 255
3 299 249 215 255 255 255
3 303 107 299 255 255 255
3 3 76 186 255 255 255
3 181 53 3 255 255 255
3 41 125 181 255 255 255
3 275 201 41 255 255 255
3 201 234 41 255 255 255
3 277 111 13 255 255 255
3 236 160 234 255 255 255
3 256 160 236 255 255 255
3 256 305 160 255 255 255
3 92 305 256 255 255 255
3 276 264 261 255 255 255
3 264 222 261 255 255 255
3 176 222 264 255 255 255
3 176 161 222 255 255 255
3 52 107 172 255 255 255
3 107 43 172 255 255 255
3 303 76 107 255 255 255
3 299 59 249 255 255 255
3 76 303 186 255 255 255
3 3 53 76 255 255 255
3 53 107 76 255 255 255
3 53 176 107 255 255 255
3 181 125 53 255 255 255
3 125 4 53 255 255 255
3 41 228 125 255 255 255
3 111 130 13 255 255 255
3 160 27 234 255 255 255
3 305 253 160 255 255 255
3 222 98 261 255 255 255
3 161 294 222 255 255 255
3 176 233 161 255 255 255
3 172 90 176 255 255 255
3 43 90 172 255 255 255
3 59 298 249 255 255 255
3 299 203 59 255 255 255
3 53 233 176 255 255 255
3 53 262 233 255 255 255
3 4 262 53 255 255 255
3 4 217 262 255 255 255
3 125 217 4 255 255 255
3 125 228 217 255 255 255
3 228 27 217 255 255 255
3 41 234 228 255 255 255
3 111 88 130 255 255 255
3 160 253 27 255 255 255
3 253 16 27 255 255 255
3 305 185 253 255 255 255
3 98 305 261 255 255 255
3 222 294 98 255 255 255
3 294 28 98 255 255 255
3 161 300 294 255 255 255
3 233 133 161 255 255 255
3 27 262 217 255 255 255
3 27 284 262 255 255 255
3 228 234 27 255 255 255
3 16 284 27 255 255 255
3 16 162 284 255 255 255
3 253 237 16 255 255 255
3 185 304 253 255 255 255
3 305 98 185 255 255 255
3 28 185 98 255 255 255
3 28 294 185 255 255 255
3 294 300 185 255 255 255
3 161 163 300 255 255 255
3 133 244 161 255 255 255
3 284 285 262 255 255 255
3 162 250 284 255 255 255
3 237 54 16 255 255 255
3 185 237 304 255 255 255
3 161 244 163 255 255 255
3 244 270 163 255 255 255
3 133 223 244 255 255 255
3 285 251 262 255 255 255
3 284 250 285 255 255 255
3 250 251 285 255 255 255
3 250 213 251 255 255 255
3 237 110 54 255 255 255
3 185 205 237 255 255 255
3 270 55 163 255 255 255
3 244 56 270 255 255 255
3 223 56 244 255 255 255
3 223 213 56 255 255 255
3 133 251 223 255 255 255
3 251 133 262 255 255 255
3 133 233 262 255 255 255
3 213 223 251 255 255 255
3 54 10 16 255 255 255
3 110 57 54 255 255 255
3 237 205 110 255 255 255
3 205 89 110 255 255 255
3 185 300 205 255 255 255
3 300 89 205 255 255 255
3 300 112 89 255 255 255
3 55 37 163 255 255 255
3 270 56 55 255 255 255
3 56 131 55 255 255 255
3 213 254 56 255 255 255
3 10 162 16 255 255 255
3 10 58 162 255 255 255
3 54 58 10 255 255 255
3 54 246 58 255 255 255
3 57 29 54 255 255 255
3 110 89 57 255 255 255
3 89 30 57 255 255 255
3 112 30 89 255 255 255
3 112 163 30 255 255 255
3 300 132 112 255 255 255
3 55 131 37 255 255 255
3 56 31 131 255 255 255
3 254 32 56 255 255 255
3 213 108 254 255 255 255
3 58 246 162 255 255 255
3 54 33 246 255 255 255
3 29 33 54 255 255 255
3 29 34 33 255 255 255
3 57 35 29 255 255 255
3 30 36 57 255 255 255
3 163 278 30 255 255 255
3 112 132 163 255 255 255
3 300 231 132 255 255 255
3 31 38 131 255 255 255
3 56 39 31 255 255 255
3 32 39 56 255 255 255
3 32 40 39 255 255 255
3 254 108 32 255 255 255
3 213 301 108 255 255 255
3 33 42 246 255 255 255
3 34 44 33 255 255 255
3 29 35 34 255 255 255
3 35 1 34 255 255 255
3 57 288 35 255 255 255
3 36 288 57 255 255 255
3 36 5 288 255 255 255
3 30 6 36 255 255 255
3 163 37 278 255 255 255
3 37 7 278 255 255 255
3 300 253 231 255 255 255
3 38 8 131 255 255 255
3 31 39 38 255 255 255
3 39 8 38 255 255 255
3 39 9 8 255 255 255
3 40 175 39 255 255 255
3 32 224 40 255 255 255
3 301 32 108 255 255 255
3 301 162 32 255 255 255
3 213 250 301 255 255 255
3 42 175 246 255 255 255
3 33 225 42 255 255 255
3 44 225 33 255 255 255
3 44 202 225 255 255 255
3 34 202 44 255 255 255
3 1 226 34 255 255 255
3 35 288 1 255 255 255
3 5 289 288 255 255 255
3 36 182 5 255 255 255
3 6 182 36 255 255 255
3 6 7 182 255 255 255
3 7 30 278 255 255 255
3 7 6 30 255 255 255
3 37 8 7 255 255 255
3 253 261 231 255 255 255
3 8 37 131 255 255 255
3 9 182 8 255 255 255
3 39 290 9 255 255 255
3 40 224 175 255 255 255
3 224 246 175 255 255 255
3 224 5 246 255 255 255
3 162 224 32 255 255 255
3 301 250 162 255 255 255
3 42 128 175 255 255 255
3 225 295 42 255 255 255
3 34 296 202 255 255 255
3 226 296 34 255 255 255
3 226 1 296 255 255 255
3 1 297 296 255 255 255
3 288 267 1 255 255 255
3 289 45 288 255 255 255
3 5 290 289 255 255 255
3 7 8 182 255 255 255
3 290 182 9 255 255 255
3 39 224 290 255 255 255
3 42 295 128 255 255 255
3 295 268 128 255 255 255
3 225 183 295 255 255 255
3 296 77 202 255 255 255
3 297 77 296 255 255 255
3 297 46 77 255 255 255
3 1 46 297 255 255 255
3 1 206 46 255 255 255
3 267 206 1 255 255 255
3 267 96 206 255 255 255
3 288 96 267 255 255 255
3 45 206 288 255 255 255
3 290 175 289 255 255 255
3 5 182 290 255 255 255
3 128 268 175 255 255 255
3 268 47 175 255 255 255
3 295 183 268 255 255 255
3 183 48 268 255 255 255
3 225 207 183 255 255 255
3 77 49 202 255 255 255
3 46 208 77 255 255 255
3 206 50 46 255 255 255
3 96 171 206 255 255 255
3 175 45 289 255 255 255
3 175 11 45 255 255 255
3 47 11 175 255 255 255
3 47 269 11 255 255 255
3 268 271 47 255 255 255
3 48 271 268 255 255 255
3 48 102 271 255 255 255
3 183 255 48 255 255 255
3 207 255 183 255 255 255
3 207 49 255 255 255 255
3 49 225 202 255 255 255
3 49 207 225 255 255 255
3 77 272 49 255 255 255
3 208 272 77 255 255 255
3 208 209 272 255 255 255
3 46 50 208 255 255 255
3 50 209 208 255 255 255
3 50 229 209 255 255 255
3 206 280 50 255 255 255
3 96 210 171 255 255 255
3 11 269 45 255 255 255
3 269 100 45 255 255 255
3 271 102 47 255 255 255
3 102 273 47 255 255 255
3 48 129 102 255 255 255
3 49 272 255 255 255 255
3 272 14 255 255 255 255
3 209 14 272 255 255 255
3 209 281 14 255 255 255
3 229 95 209 255 255 255
3 50 280 229 255 255 255
3 280 210 229 255 255 255
3 210 280 171 255 255 255
3 96 218 210 255 255 255
3 100 218 45 255 255 255
3 269 211 100 255 255 255
3 47 273 269 255 255 255
3 273 211 269 255 255 255
3 273 265 211 255 255 255
3 102 129 273 255 255 255
3 129 265 273 255 255 255
3 129 14 265 255 255 255
3 14 129 255 255 255 255
3 129 48 255 255 255 255
3 209 216 281 255 255 255
3 95 216 209 255 255 255
3 95 257 216 255 255 255
3 229 210 95 255 255 255
3 96 45 218 255 255 255
3 211 257 100 255 255 255
3 265 281 211 255 255 255
3 281 265 14 255 255 255
3 216 211 281 255 255 255
3 257 211 216 255 255 255
3 95 214 257 255 255 255
3 257 214 100 255 255 255
3 214 95 100 255 255 255
3 95 218 100 255 255 255
3 95 210 218 255 255 255
3 282 282 282 255 255 255
