ply
format ascii 1.0
element vertex 324
property float x
property float y
property float z
element face 576
property list uchar int vertex_indices
property uchar red
property uchar green
property uchar blue
end_header
-1.97997486591339111 16.4284572601318359 -0.87850642204284668
-1.97667956352233887 16.4508628845214844 -0.911404252052307129
-1.8890000581741333 16.3850002288818359 -0.865999996662139893
-1.94099998474121094 16.4109992980957031 -0.845000028610229492
-1.94299995899200439 16.430999755859375 -0.768000006675720215
-1.87199997901916504 16.3819999694824219 -0.625
-1.87000000476837158 16.4599990844726562 -0.926999986171722412
-2.00200009346008301 16.5009994506835938 -0.897000014781951904
-2.00799989700317383 16.4969997406005859 -0.893999993801116943
-1.85800004005432129 16.4920005798339844 -0.945999979972839355
-1.97653853893280029 16.5223464965820312 -0.82112884521484375
-1.90335464477539062 16.3477973937988281 -0.891788899898529053
-1.89699995517730713 16.3560009002685547 -0.888999998569488525
-1.92878246307373047 16.4204254150390625 -0.7912445068359375
-1.92922031879425049 16.37982177734375 -0.846555054187774658
-1.93566286563873291 16.3989601135253906 -0.808028340339660645
-1.92299997806549072 16.3990001678466797 -0.804000020027160645
-1.93299996852874756 16.4489994049072266 -0.750999987125396729
-1.91483175754547119 16.4121246337890625 -0.891627669334411621
-1.88650000095367432 16.4039993286132812 -0.860000014305114746
-1.9309999942779541 16.3969993591308594 -0.802999973297119141
-1.92599999904632568 16.4470005035400391 -0.751999974250793457
-1.91378414630889893 16.4003982543945312 -0.839664876461029053
-1.89139628410339355 16.3756923675537109 -0.670970797538757324
-1.93570291996002197 16.4214401245117188 -0.785083353519439697
-1.91511571407318115 16.3628768920898438 -0.884621024131774902
-1.89698934555053711 16.4590206146240234 -0.938864707946777344
-1.92700004577636719 16.3810005187988281 -0.898999989032745361
-1.91299998760223389 16.4039993286132812 -0.782999992370605469
-1.8593829870223999 16.380523681640625 -0.636998653411865234
-1.89235031604766846 16.3602561950683594 -0.64314723014831543
-1.92900002002716064 16.4340000152587891 -0.773999989032745361
-1.92375779151916504 16.4507923126220703 -0.711357533931732178
-2.00174808502197266 16.5266017913818359 -0.907928764820098877
-1.97199571132659912 16.4690074920654297 -0.909062445163726807
-1.90806317329406738 16.3716773986816406 -0.907833099365234375
-1.96899998188018799 16.2950000762939453 -0.944000005722045898
-1.95674014091491699 16.3027896881103516 -0.931078732013702393
-1.97110986709594727 16.2758541107177734 -0.952120125293731689
-1.98638653755187988 16.5537281036376953 -0.867724180221557617
-1.97088706493377686 16.3860301971435547 -0.930433571338653564
-1.95883345603942871 16.401947021484375 -0.920947849750518799
-1.92997074127197266 16.3835830688476562 -0.918671250343322754
-1.93622469902038574 16.4037971496582031 -0.901281535625457764
-1.96742439270019531 16.3855552673339844 -0.934914588928222656
-1.93700003623962402 16.3969993591308594 -0.924000024795532227
-1.9450000524520874 16.3910007476806641 -0.81800001859664917
-1.96766042709350586 16.4327297210693359 -0.893246591091156006
-1.92100000381469727 16.3969993591308594 -0.86799997091293335
-1.92064321041107178 16.4147510528564453 -0.787922203540802002
-1.90709757804870605 16.3987350463867188 -0.747658431529998779
-1.90883398056030273 16.4495105743408203 -0.923525333404541016
-1.91876041889190674 16.4411087036132812 -0.734722673892974854
-1.96599996089935303 16.4230003356933594 -0.879000008106231689
-1.92700004577636719 16.4489994049072266 -0.749000012874603271
-1.90400004386901855 16.3379993438720703 -0.908999979496002197
-1.88407778739929199 16.3715972900390625 -0.624129831790924072
-1.94807577133178711 16.4001197814941406 -0.840915501117706299
-1.89600002765655518 16.3939990997314453 -0.870999991893768311
-1.90799999237060547 16.3920001983642578 -0.847000002861022949
-1.9309999942779541 16.4039993286132812 -0.856999993324279785
-1.90100002288818359 16.3810005187988281 -0.778999984264373779
-1.89248716831207275 16.4409713745117188 -0.912657678127288818
-1.97623622417449951 16.4210033416748047 -0.888654470443725586
-1.88699996471405029 16.3829994201660156 -0.635999977588653564
-1.90299999713897705 16.3789997100830078 -0.888999998569488525
-1.96717095375061035 16.4242916107177734 -0.87137913703918457
-1.89249992370605469 16.3894996643066406 -0.865499973297119141
-1.99461305141448975 16.520782470703125 -0.887388408184051514
-1.84786474704742432 16.4077911376953125 -0.905019223690032959
-1.99158561229705811 16.5526828765869141 -0.852223336696624756
-1.95806849002838135 16.3948879241943359 -0.933522641658782959
-1.9299999475479126 16.3889999389648438 -0.926999986171722412
-1.90976393222808838 16.4109458923339844 -0.917109429836273193
-1.97699999809265137 16.5090007781982422 -0.921999990940093994
-1.9024350643157959 16.4186363220214844 -0.914301931858062744
-1.90799999237060547 16.4260005950927734 -0.925000011920928955
-1.90041851997375488 16.4504470825195312 -0.914462387561798096
-1.9179999828338623 16.3829994201660156 -0.856000006198883057
-1.90600001811981201 16.3920001983642578 -0.788999974727630615
-1.89999997615814209 16.4130001068115234 -0.737999975681304932
-1.8609999418258667 16.3610000610351562 -0.625999987125396729
-1.90499997138977051 16.4150009155273438 -0.907999992370605469
-1.91351842880249023 16.4101333618164062 -0.742125749588012695
-1.85099995136260986 16.3959999084472656 -0.888000011444091797
-1.98399996757507324 16.5400009155273438 -0.859000027179718018
-1.91199994087219238 16.3349990844726562 -0.913999974727630615
-1.90751791000366211 16.3487930297851562 -0.905960202217102051
-1.91199994087219238 16.3990001678466797 -0.847000002861022949
-1.91400003433227539 16.4060001373291016 -0.804000020027160645
-1.92900002002716064 16.4090003967285156 -0.767000019550323486
-1.9005587100982666 16.397308349609375 -0.71583479642868042
-1.93654179573059082 16.3867168426513672 -0.950283348560333252
-1.95178127288818359 16.3919811248779297 -0.831905364990234375
-1.99756491184234619 16.4738216400146484 -0.911860108375549316
-1.89742803573608398 16.3768959045410156 -0.683359503746032715
-1.88395261764526367 16.4013309478759766 -0.680864691734313965
-1.90199995040893555 16.4060001373291016 -0.890999972820281982
-1.91299998760223389 16.4060001373291016 -0.88200002908706665
-1.90595376491546631 16.3949489593505859 -0.731913149356842041
-1.95157730579376221 16.3951206207275391 -0.855342745780944824
-1.93615961074829102 16.404296875 -0.804022848606109619
-1.94809162616729736 16.415985107421875 -0.820633351802825928
-1.87300002574920654 16.3780002593994141 -0.660000026226043701
-1.87653052806854248 16.3876953125 -0.671859502792358398
-1.89894664287567139 16.4004249572753906 -0.876888573169708252
-1.93525063991546631 16.4078521728515625 -0.779650509357452393
-1.93599998950958252 16.4319992065429688 -0.763999998569488525
-1.99860739707946777 16.5112190246582031 -0.914598643779754639
-1.94599997997283936 16.3959999084472656 -0.820999979972839355
-1.91700005531311035 16.4260005950927734 -0.731999993324279785
-1.89195334911346436 16.3827877044677734 -0.660843431949615479
-1.93881487846374512 16.4477500915527344 -0.7343483567237854
-1.94099998474121094 16.4150009155273438 -0.833000004291534424
-1.91949999332427979 16.4015007019042969 -0.76250004768371582
-1.91299998760223389 16.417999267578125 -0.723999977111816406
-1.89296472072601318 16.3946876525878906 -0.660364627838134766
-1.8766857385635376 16.3978004455566406 -0.648202180862426758
-1.94112610816955566 16.3777980804443359 -0.84059375524520874
-1.87999999523162842 16.3789997100830078 -0.625999987125396729
-1.88938450813293457 16.3559856414794922 -0.627287030220031738
-1.87199997901916504 16.3929996490478516 -0.65700000524520874
-1.9179999828338623 16.4029998779296875 -0.802999973297119141
-1.89249992370605469 16.3794994354248047 -0.643499970436096191
-1.85058999061584473 16.4509811401367188 -0.908239305019378662
-1.85673236846923828 16.4272327423095703 -0.90561830997467041
-1.85228514671325684 16.4238643646240234 -0.907891213893890381
-1.85115158557891846 16.4530200958251953 -0.926550745964050293
-1.93700003623962402 16.3840007781982422 -0.912000000476837158
-1.93245816230773926 16.4048671722412109 -0.87892758846282959
-1.92415940761566162 16.3639125823974609 -0.897106409072875977
-1.98481392860412598 16.5128421783447266 -0.896573722362518311
-1.91600584983825684 16.3978939056396484 -0.905928373336791992
-1.98358058929443359 16.3954868316650391 -0.936298847198486328
-1.93510317802429199 16.3933086395263672 -0.822737395763397217
-1.89982712268829346 16.4029102325439453 -0.769233286380767822
-1.90844321250915527 16.4292526245117188 -0.769857108592987061
-1.90159344673156738 16.3884792327880859 -0.656030416488647461
-1.90250837802886963 16.3830318450927734 -0.657563209533691406
-1.86672425270080566 16.3536090850830078 -0.633918941020965576
-1.91901946067810059 16.3839797973632812 -0.845964968204498291
-1.98500001430511475 16.5389995574951172 -0.847999989986419678
-1.93647563457489014 16.4237442016601562 -0.745106220245361328
-1.92009186744689941 16.3948955535888672 -0.820468544960021973
-1.89800000190734863 16.4099998474121094 -0.736000001430511475
-1.91914916038513184 16.3735370635986328 -0.854939460754394531
-1.90191948413848877 16.3851280212402344 -0.691973567008972168
-1.9804999828338623 16.4489994049072266 -0.908500015735626221
-1.91301071643829346 16.4427089691162109 -0.737970530986785889
-1.89699995517730713 16.3770008087158203 -0.894999980926513672
-1.91600000858306885 16.4120006561279297 -0.921000003814697266
-1.93490374088287354 16.4263916015625 -0.740479052066802979
-1.97732532024383545 16.4728984832763672 -0.873584091663360596
-1.92737138271331787 16.3828964233398438 -0.936542868614196777
-1.99199223518371582 16.5026702880859375 -0.941345453262329102
-1.86817097663879395 16.4829139709472656 -0.941388726234436035
-1.85099995136260986 16.4430007934570312 -0.91100001335144043
-1.87100005149841309 16.4680004119873047 -0.916000008583068848
-1.85484409332275391 16.4598865509033203 -0.931191086769104004
-1.94542968273162842 16.4049396514892578 -0.93904423713684082
-1.91749763488769531 16.3939781188964844 -0.918690323829650879
-1.99245059490203857 16.3820419311523438 -0.948017597198486328
-1.91955125331878662 16.3831005096435547 -0.872622489929199219
-1.9324333667755127 16.3964900970458984 -0.903983473777770996
-1.98646640777587891 16.5055656433105469 -0.92651522159576416
-1.96224439144134521 16.4286766052246094 -0.8830069899559021
-1.92186212539672852 16.411376953125 -0.808347582817077637
-1.92925000190734863 16.4220008850097656 -0.751999974250793457
-1.89904379844665527 16.4047641754150391 -0.687199532985687256
-1.95009052753448486 16.4143829345703125 -0.869742751121520996
-1.89699995517730713 16.3950004577636719 -0.879999995231628418
-1.98383176326751709 16.5086078643798828 -0.937132477760314941
-1.93700003623962402 16.4009990692138672 -0.908999979496002197
-1.96899998188018799 16.3689994812011719 -0.924000024795532227
-1.93400001525878906 16.38800048828125 -0.906000018119812012
-1.86000001430511475 16.4860000610351562 -0.945999979972839355
-1.86510086059570312 16.4261856079101562 -0.905723035335540771
-1.85765421390533447 16.4474735260009766 -0.921113848686218262
-1.86289405822753906 16.4431705474853516 -0.901211380958557129
-1.86509048938751221 16.4461650848388672 -0.915439009666442871
-1.84700000286102295 16.4449996948242188 -0.916000008583068848
-1.87699997425079346 16.3819999694824219 -0.619000017642974854
-1.85326755046844482 16.3624458312988281 -0.64463353157043457
-1.94316625595092773 16.3821525573730469 -0.864877820014953613
-1.93400001525878906 16.4160003662109375 -0.723999977111816406
-1.96099996566772461 16.2700004577636719 -0.958999991416931152
-1.9278179407119751 16.4218425750732422 -0.846622288227081299
-1.89785540103912354 16.4039478302001953 -0.847097218036651611
-1.97864282131195068 16.5517978668212891 -0.841824650764465332
-1.89999997615814209 16.3939990997314453 -0.718999981880187988
-1.88699996471405029 16.38800048828125 -0.656000018119812012
-1.91546988487243652 16.3872528076171875 -0.788099050521850586
-1.89800000190734863 16.3969993591308594 -0.773000001907348633
-1.87199997901916504 16.3819999694824219 -0.656000018119812012
-1.90557014942169189 16.4185466766357422 -0.887427270412445068
-1.90900003910064697 16.3889999389648438 -0.903999984264373779
-1.90334343910217285 16.3994369506835938 -0.855806887149810791
-1.89604973793029785 16.3930244445800781 -0.728064119815826416
-1.95468223094940186 16.3795318603515625 -0.867159426212310791
-1.90799999237060547 16.4130001068115234 -0.732999980449676514
-1.93585538864135742 16.3902740478515625 -0.883246123790740967
-1.90699994564056396 16.3889999389648438 -0.883000016212463379
-1.92499995231628418 16.3670005798339844 -0.855000019073486328
-1.90839695930480957 16.3883304595947266 -0.66643446683883667
-1.92200005054473877 16.3999996185302734 -0.828000009059906006
-1.90534329414367676 16.4052658081054688 -0.708275139331817627
-1.96200001239776611 16.3910007476806641 -0.926999986171722412
-1.92499995231628418 16.4340000152587891 -0.767000019550323486
-1.92672860622406006 16.3988380432128906 -0.853441953659057617
-1.92499995231628418 16.4080009460449219 -0.919000029563903809
-1.90622687339782715 16.4075355529785156 -0.751601874828338623
-1.96599996089935303 16.4519996643066406 -0.885999977588653564
-1.96418654918670654 16.2647438049316406 -0.962836086750030518
-1.91900002956390381 16.4239997863769531 -0.721000015735626221
-1.93700003623962402 16.3840007781982422 -0.83899998664855957
-1.91499996185302734 16.4150009155273438 -0.723999977111816406
-1.90400004386901855 16.3929996490478516 -0.777000010013580322
-1.89417850971221924 16.3999404907226562 -0.706868827342987061
-1.88999998569488525 16.3740005493164062 -0.660000026226043701
-1.86549997329711914 16.3784999847412109 -0.61949998140335083
-1.90799999237060547 16.3330001831054688 -0.906000018119812012
-1.91654431819915771 16.4361133575439453 -0.758810043334960938
-1.99810695648193359 16.5088863372802734 -0.958927035331726074
-1.98934531211853027 16.3884468078613281 -0.946563839912414551
-1.93200004100799561 16.4130001068115234 -0.763999998569488525
-1.88499999046325684 16.375 -0.630999982357025146
-1.89331626892089844 16.3938865661621094 -0.667141199111938477
-1.88315343856811523 16.3584060668945312 -0.650466680526733398
-1.92200005054473877 16.3980007171630859 -0.815999984741210938
-1.93905317783355713 16.4003829956054688 -0.777591228485107422
-1.90169858932495117 16.4140434265136719 -0.862469136714935303
-1.95399999618530273 16.4130001068115234 -0.875
-1.94674479961395264 16.3817996978759766 -0.84748542308807373
-1.9935765266418457 16.5223159790039062 -0.922228991985321045
-1.85287797451019287 16.4675636291503906 -0.928287804126739502
-1.87199997901916504 16.4829998016357422 -0.930000007152557373
-1.86337244510650635 16.401947021484375 -0.894044935703277588
-1.95500004291534424 16.4060001373291016 -0.875999987125396729
-1.97008824348449707 16.3502674102783203 -0.941367566585540771
-1.93499994277954102 16.3889999389648438 -0.939999997615814209
-1.97592854499816895 16.3469791412353516 -0.938480079174041748
-1.92275464534759521 16.37176513671875 -0.888767778873443604
-1.91299998760223389 16.4050006866455078 -0.925000011920928955
-1.93499994277954102 16.4130001068115234 -0.819999992847442627
-1.91152465343475342 16.4538650512695312 -0.751070976257324219
-1.91689670085906982 16.3861370086669922 -0.865330815315246582
-1.87372303009033203 16.4638710021972656 -0.921964406967163086
-1.90600001811981201 16.3829994201660156 -0.902999997138977051
-1.89600276947021484 16.3911991119384766 -0.787132322788238525
-1.92700004577636719 16.4109992980957031 -0.797999978065490723
-1.92599999904632568 16.4519996643066406 -0.753000020980834961
-1.89602255821228027 16.3706111907958984 -0.640270888805389404
-1.93093645572662354 16.4023609161376953 -0.835493266582489014
-1.91100001335144043 16.3400001525878906 -0.896000027656555176
-1.96296429634094238 16.4290676116943359 -0.87527620792388916
-1.92799997329711914 16.3799991607666016 -0.906000018119812012
-1.94099998474121094 16.3869991302490234 -0.916999995708465576
-1.92599999904632568 16.4020004272460938 -0.922999978065490723
-1.95099997520446777 16.3859996795654297 -0.921000003814697266
-1.85738074779510498 16.4170055389404297 -0.889244019985198975
-1.875 16.4750003814697266 -0.935000002384185791
-1.84800004959106445 16.4020004272460938 -0.885500013828277588
-1.9592670202255249 16.2831096649169922 -0.943488538265228271
-1.94372320175170898 16.3136539459228516 -0.943298041820526123
-1.96500003337860107 16.292999267578125 -0.944000005722045898
-1.91239452362060547 16.4145755767822266 -0.793945848941802979
-1.92707538604736328 16.42401123046875 -0.711144030094146729
-1.93754863739013672 16.3993930816650391 -0.794614732265472412
-1.93799996376037598 16.4549999237060547 -0.745999991893768311
-1.85049998760223389 16.3899993896484375 -0.875500023365020752
-1.89999997615814209 16.3789997100830078 -0.640999972820281982
-1.90900003910064697 16.3950004577636719 -0.771000027656555176
-1.87022745609283447 16.3571014404296875 -0.652286231517791748
-1.99300003051757812 16.4750003814697266 -0.890500009059906006
-1.90799999237060547 16.4260005950927734 -0.740999996662139893
-1.99000000953674316 16.5330009460449219 -0.879000008106231689
-1.93599998950958252 16.3980007171630859 -0.916000008583068848
-1.91299998760223389 16.3889999389648438 -0.906000018119812012
-1.97532045841217041 16.3680496215820312 -0.920880019664764404
-1.94796538352966309 16.3910560607910156 -0.934784948825836182
-1.98273098468780518 16.5455703735351562 -0.863806784152984619
-1.98899996280670166 16.5470008850097656 -0.862999975681304932
-1.97345125675201416 16.5409488677978516 -0.837906897068023682
-1.98099994659423828 16.5249996185302734 -0.884000003337860107
-1.98663961887359619 16.5324573516845703 -0.892136752605438232
-1.9790949821472168 16.5205135345458984 -0.907604634761810303
-1.97500002384185791 16.3549995422363281 -0.945999979972839355
-1.94037449359893799 16.4432029724121094 -0.723352789878845215
-1.96033656597137451 16.4131374359130859 -0.858530700206756592
-1.93209397792816162 16.4447402954101562 -0.757114589214324951
-1.91301095485687256 16.3449172973632812 -0.912689924240112305
-1.90340244770050049 16.4025402069091797 -0.731172084808349609
-1.86399996280670166 16.4920005798339844 -0.940999984741210938
-1.87760317325592041 16.3808822631835938 -0.64234548807144165
-1.9892570972442627 16.5535964965820312 -0.84331434965133667
-1.94599997997283936 16.3980007171630859 -0.93199998140335083
1 1 1
-1.92200005054473877 16.3700008392333984 -0.929000020027160645
-1.92899990081787109 16.4130001068115234 -0.842000007629394531
-1.96688938140869141 16.3101291656494141 -0.930018424987792969
-1.83599996566772461 16.4099998474121094 -0.892000019550323486
-1.89600002765655518 16.4039993286132812 -0.864000022411346436
-1.84802854061126709 16.3920955657958984 -0.885589599609375
-1.92599999904632568 16.3969993591308594 -0.782999992370605469
-1.90999996662139893 16.3840007781982422 -0.779999971389770508
-1.89155018329620361 16.4216156005859375 -0.698460817337036133
-1.86800003051757812 16.3630008697509766 -0.620999991893768311
-1.97499990463256836 16.412750244140625 -0.922500014305114746
-1.93499994277954102 16.4039993286132812 -0.94300001859664917
-1.93200004100799561 16.4230003356933594 -0.763999998569488525
-1.93599998950958252 16.3959999084472656 -0.873000025749206543
-1.91600000858306885 16.3990001678466797 -0.919000029563903809
-1.96271514892578125 16.3544635772705078 -0.923229753971099854
-1.97399997711181641 16.4489994049072266 -0.884999990463256836
-1.98668873310089111 16.4335098266601562 -0.889279782772064209
-1.95200002193450928 16.4239997863769531 -0.865000009536743164
-1.90099132061004639 16.3802337646484375 -0.875058889389038086
-1.90362334251403809 16.4226894378662109 -0.750598788261413574
-1.88265001773834229 16.3834095001220703 -0.674576282501220703
-1.9859999418258667 16.38800048828125 -0.950999975204467773
-1.93499994277954102 16.430999755859375 -0.745999991893768311
-1.9179999828338623 16.417999267578125 -0.884999990463256836
-1.86246490478515625 16.4515495300292969 -0.918866157531738281
-1.94000005722045898 16.3999996185302734 -0.90700000524520874
3 179 124 177 255 255 255
3 179 178 124 255 255 255
3 177 176 179 255 255 255
3 177 234 127 255 255 255
3 179 176 178 255 255 255
3 177 126 176 255 255 255
3 177 246 234 255 255 255
3 178 125 124 255 255 255
3 176 259 178 255 255 255
3 177 180 126 255 255 255
3 246 260 234 255 255 255
3 180 127 124 255 255 255
3 124 156 180 255 255 255
3 125 126 124 255 255 255
3 176 236 259 255 255 255
3 176 69 236 255 255 255
3 126 69 176 255 255 255
3 127 234 124 255 255 255
3 155 235 234 255 255 255
3 234 158 155 255 255 255
3 177 179 246 255 255 255
3 180 177 127 255 255 255
3 156 179 180 255 255 255
3 179 156 176 255 255 255
3 179 124 322 255 255 255
3 69 302 236 255 255 255
3 235 157 234 255 255 255
3 155 292 235 255 255 255
3 177 180 179 255 255 255
3 126 300 69 255 255 255
3 125 259 126 255 255 255
3 322 6 179 255 255 255
3 69 300 302 255 255 255
3 157 322 234 255 255 255
3 155 175 292 255 255 255
3 158 260 155 255 255 255
3 126 259 300 255 255 255
3 236 261 259 255 255 255
3 302 269 236 255 255 255
3 322 158 234 255 255 255
3 175 9 292 255 255 255
3 158 6 260 255 255 255
3 259 261 300 255 255 255
3 260 235 155 255 255 255
3 236 84 261 255 255 255
3 322 124 177 255 255 255
3 302 261 269 255 255 255
3 260 157 235 255 255 255
3 260 246 157 255 255 255
3 261 84 269 255 255 255
3 262 264 263 255 255 255
3 263 37 262 255 255 255
3 264 36 263 255 255 255
3 262 38 264 255 255 255
3 36 299 263 255 255 255
3 264 38 36 255 255 255
3 262 212 38 255 255 255
3 37 36 262 255 255 255
3 37 263 299 255 255 255
3 36 38 262 255 255 255
3 38 185 262 255 255 255
3 37 299 36 255 255 255
3 38 212 185 255 255 255
3 39 70 188 255 255 255
3 188 280 39 255 255 255
3 70 294 188 255 255 255
3 39 281 70 255 255 255
3 280 275 39 255 255 255
3 188 282 280 255 255 255
3 70 141 294 255 255 255
3 281 85 70 255 255 255
3 280 283 275 255 255 255
3 280 282 85 255 255 255
3 282 141 85 255 255 255
3 281 280 85 255 255 255
3 283 284 275 255 255 255
3 282 10 141 255 255 255
3 188 39 294 255 255 255
3 283 285 284 255 255 255
3 284 68 275 255 255 255
3 283 131 285 255 255 255
3 188 10 282 255 255 255
3 284 33 68 255 255 255
3 285 33 284 255 255 255
3 285 233 33 255 255 255
3 283 68 131 255 255 255
3 68 7 131 255 255 255
3 33 7 68 255 255 255
3 33 108 7 255 255 255
3 33 233 108 255 255 255
3 233 285 171 255 255 255
3 164 74 131 255 255 255
3 131 108 164 255 255 255
3 171 154 233 255 255 255
3 171 164 154 255 255 255
3 74 171 285 255 255 255
3 131 7 108 255 255 255
3 233 164 108 255 255 255
3 164 171 74 255 255 255
3 154 171 222 255 255 255
3 278 133 223 255 255 255
3 133 161 223 255 255 255
3 278 40 133 255 255 255
3 161 286 223 255 255 255
3 240 312 278 255 255 255
3 286 278 223 255 255 255
3 286 240 278 255 255 255
3 161 133 319 255 255 255
3 133 44 319 255 255 255
3 40 307 133 255 255 255
3 40 41 307 255 255 255
3 240 286 238 255 255 255
3 133 71 44 255 255 255
3 238 312 240 255 255 255
3 286 44 238 255 255 255
3 44 161 319 255 255 255
3 41 71 307 255 255 255
3 40 206 41 255 255 255
3 238 173 312 255 255 255
3 44 173 238 255 255 255
3 44 258 173 255 255 255
3 71 279 44 255 255 255
3 159 92 71 255 255 255
3 133 307 71 255 255 255
3 41 159 71 255 255 255
3 41 45 159 255 255 255
3 258 256 41 255 255 255
3 41 206 258 255 255 255
3 173 278 312 255 255 255
3 173 206 278 255 255 255
3 44 279 258 255 255 255
3 279 42 258 255 255 255
3 45 257 159 255 255 255
3 41 323 45 255 255 255
3 256 276 41 255 255 255
3 258 128 256 255 255 255
3 42 128 258 255 255 255
3 42 255 128 255 255 255
3 159 308 92 255 255 255
3 159 257 308 255 255 255
3 257 242 308 255 255 255
3 45 276 257 255 255 255
3 323 209 45 255 255 255
3 256 163 276 255 255 255
3 128 323 256 255 255 255
3 255 241 128 255 255 255
3 279 153 42 255 255 255
3 276 172 257 255 255 255
3 45 295 276 255 255 255
3 323 43 209 255 255 255
3 256 174 163 255 255 255
3 128 174 323 255 255 255
3 255 130 241 255 255 255
3 279 239 153 255 255 255
3 172 43 257 255 255 255
3 45 239 295 255 255 255
3 43 132 209 255 255 255
3 163 209 276 255 255 255
3 174 200 163 255 255 255
3 174 241 200 255 255 255
3 128 27 174 255 255 255
3 42 277 255 255 255 255
3 153 160 42 255 255 255
3 239 71 295 255 255 255
3 45 72 239 255 255 255
3 132 73 209 255 255 255
3 323 200 43 255 255 255
3 277 247 255 255 255 255
3 42 160 277 255 255 255
3 160 247 277 255 255 255
3 72 153 239 255 255 255
3 73 150 209 255 255 255
3 129 18 43 255 255 255
3 43 237 129 255 255 255
3 130 25 241 255 255 255
3 297 72 153 255 255 255
3 132 75 73 255 255 255
3 237 169 129 255 255 255
3 162 200 241 255 255 255
3 241 145 162 255 255 255
3 242 311 160 255 255 255
3 297 160 72 255 255 255
3 73 76 150 255 255 255
3 75 77 73 255 255 255
3 75 62 77 255 255 255
3 129 194 18 255 255 255
3 169 186 129 255 255 255
3 237 165 169 255 255 255
3 310 237 200 255 255 255
3 145 183 162 255 255 255
3 130 290 25 255 255 255
3 311 132 160 255 255 255
3 76 75 150 255 255 255
3 73 51 76 255 255 255
3 77 51 73 255 255 255
3 129 230 194 255 255 255
3 165 315 169 255 255 255
3 310 100 237 255 255 255
3 145 14 183 255 255 255
3 11 316 25 255 255 255
3 25 290 253 255 255 255
3 132 35 160 255 255 255
3 51 26 76 255 255 255
3 129 186 230 255 255 255
3 169 288 186 255 255 255
3 315 288 169 255 255 255
3 315 66 288 255 255 255
3 165 254 315 255 255 255
3 237 63 165 255 255 255
3 100 288 237 255 255 255
3 14 118 183 255 255 255
3 145 140 14 255 255 255
3 241 25 145 255 255 255
3 316 162 25 255 255 255
3 290 11 253 255 255 255
3 76 62 75 255 255 255
3 51 77 26 255 255 255
3 82 150 18 255 255 255
3 18 194 82 255 255 255
3 230 105 194 255 255 255
3 288 3 186 255 255 255
3 315 254 66 255 255 255
3 165 47 254 255 255 255
3 165 63 47 255 255 255
3 288 66 237 255 255 255
3 100 57 288 255 255 255
3 310 232 100 255 255 255
3 140 134 14 255 255 255
3 145 59 140 255 255 255
3 316 245 162 255 255 255
3 11 12 316 255 255 255
3 11 87 12 255 255 255
3 25 253 11 255 255 255
3 253 220 11 255 255 255
3 11 86 253 255 255 255
3 290 220 11 255 255 255
3 130 35 290 255 255 255
3 35 255 160 255 255 255
3 132 149 35 255 255 255
3 62 26 77 255 255 255
3 76 26 62 255 255 255
3 186 187 230 255 255 255
3 186 22 187 255 255 255
3 3 113 186 255 255 255
3 288 57 3 255 255 255
3 315 231 254 255 255 255
3 63 314 47 255 255 255
3 66 53 237 255 255 255
3 93 57 100 255 255 255
3 100 198 93 255 255 255
3 310 208 232 255 255 255
3 118 198 183 255 255 255
3 14 134 118 255 255 255
3 59 22 140 255 255 255
3 245 25 162 255 255 255
3 316 67 245 255 255 255
3 12 149 316 255 255 255
3 87 35 12 255 255 255
3 220 55 11 255 255 255
3 253 86 220 255 255 255
3 35 130 255 255 255 255
3 132 201 149 255 255 255
3 201 58 149 255 255 255
3 132 170 201 255 255 255
3 105 97 194 255 255 255
3 230 19 105 255 255 255
3 230 187 19 255 255 255
3 231 53 254 255 255 255
3 315 288 231 255 255 255
3 47 211 254 255 255 255
3 66 0 53 255 255 255
3 208 214 232 255 255 255
3 134 93 118 255 255 255
3 22 143 140 255 255 255
3 78 208 162 255 255 255
3 67 196 245 255 255 255
3 316 2 67 255 255 255
3 149 170 316 255 255 255
3 87 290 35 255 255 255
3 87 55 290 255 255 255
3 201 98 58 255 255 255
3 132 18 170 255 255 255
3 97 82 194 255 255 255
3 97 195 82 255 255 255
3 19 58 105 255 255 255
3 254 313 66 255 255 255
3 47 147 211 255 255 255
3 0 63 66 255 255 255
3 198 118 93 255 255 255
3 134 46 93 255 255 255
3 46 109 93 255 255 255
3 22 59 187 255 255 255
3 78 140 208 255 255 255
3 170 2 316 255 255 255
3 149 97 170 255 255 255
3 35 65 12 255 255 255
3 55 86 290 255 255 255
3 98 301 58 255 255 255
3 18 105 170 255 255 255
3 195 311 82 255 255 255
3 97 247 195 255 255 255
3 19 67 58 255 255 255
3 298 204 22 255 255 255
3 22 88 298 255 255 255
3 313 0 66 255 255 255
3 313 314 0 255 255 255
3 63 0 314 255 255 255
3 93 102 57 255 255 255
3 198 310 183 255 255 255
3 232 57 100 255 255 255
3 214 93 232 255 255 255
3 208 252 214 255 255 255
3 46 101 109 255 255 255
3 134 20 46 255 255 255
3 134 228 20 255 255 255
3 134 22 228 255 255 255
3 22 166 143 255 255 255
3 59 196 187 255 255 255
3 140 252 208 255 255 255
3 78 202 140 255 255 255
3 18 98 105 255 255 255
3 67 2 58 255 255 255
3 214 134 93 255 255 255
3 59 252 208 255 255 255
3 208 48 59 255 255 255
3 101 102 109 255 255 255
3 20 267 46 255 255 255
3 228 16 20 255 255 255
3 134 252 22 255 255 255
3 166 89 143 255 255 255
3 19 187 67 255 255 255
3 196 301 187 255 255 255
3 252 3 208 255 255 255
3 88 78 196 255 255 255
3 18 321 98 255 255 255
3 298 113 204 255 255 255
3 0 66 254 255 255 255
3 48 196 59 255 255 255
3 46 15 101 255 255 255
3 20 303 267 255 255 255
3 228 122 16 255 255 255
3 166 265 89 255 255 255
3 196 67 301 255 255 255
3 3 60 208 255 255 255
3 321 48 98 255 255 255
3 298 186 113 255 255 255
3 102 113 57 255 255 255
3 15 20 101 255 255 255
3 303 229 267 255 255 255
3 122 249 16 255 255 255
3 228 89 122 255 255 255
3 265 28 89 255 255 255
3 252 102 3 255 255 255
3 321 60 48 255 255 255
3 101 166 102 255 255 255
3 267 13 101 255 255 255
3 303 191 229 255 255 255
3 122 49 249 255 255 255
3 228 166 89 255 255 255
3 134 109 252 255 255 255
3 28 122 89 255 255 255
3 249 265 166 255 255 255
3 166 101 249 255 255 255
3 243 102 166 255 255 255
3 229 106 267 255 255 255
3 101 15 267 255 255 255
3 303 16 191 255 255 255
3 49 13 249 255 255 255
3 122 265 49 255 255 255
3 228 204 166 255 255 255
3 265 135 28 255 255 255
3 249 13 265 255 255 255
3 267 106 13 255 255 255
3 229 224 106 255 255 255
3 114 224 229 255 255 255
3 229 191 114 255 255 255
3 16 79 191 255 255 255
3 303 101 16 255 255 255
3 204 243 166 255 255 255
3 204 252 243 255 255 255
3 135 216 28 255 255 255
3 265 24 49 255 255 255
3 13 136 265 255 255 255
3 106 31 13 255 255 255
3 114 142 224 255 255 255
3 79 61 191 255 255 255
3 303 106 101 255 255 255
3 49 24 13 255 255 255
3 216 304 28 255 255 255
3 135 192 216 255 255 255
3 265 136 135 255 255 255
3 106 289 31 255 255 255
3 4 289 106 255 255 255
3 50 83 114 255 255 255
3 304 114 191 255 255 255
3 304 271 114 255 255 255
3 191 61 304 255 255 255
3 79 248 61 255 255 255
3 106 24 101 255 255 255
3 303 90 106 255 255 255
3 304 303 28 255 255 255
3 192 61 216 255 255 255
3 248 49 135 255 255 255
3 31 107 24 255 255 255
3 24 207 31 255 255 255
3 114 83 142 255 255 255
3 50 99 83 255 255 255
3 114 135 50 255 255 255
3 271 135 114 255 255 255
3 271 192 135 255 255 255
3 106 224 24 255 255 255
3 224 309 24 255 255 255
3 303 271 90 255 255 255
3 136 317 135 255 255 255
3 107 4 24 255 255 255
3 250 221 289 255 255 255
3 4 112 289 255 255 255
3 83 291 142 255 255 255
3 224 167 309 255 255 255
3 248 79 49 255 255 255
3 136 221 317 255 255 255
3 107 320 4 255 255 255
3 221 207 289 255 255 255
3 250 244 221 255 255 255
3 289 268 250 255 255 255
3 112 268 289 255 255 255
3 4 142 112 255 255 255
3 184 287 142 255 255 255
3 142 215 184 255 255 255
3 291 215 142 255 255 255
3 50 197 99 255 255 255
3 135 210 50 255 255 255
3 210 144 50 255 255 255
3 135 317 210 255 255 255
3 221 244 317 255 255 255
3 107 167 320 255 255 255
3 221 136 207 255 255 255
3 268 17 289 255 255 255
3 4 309 142 255 255 255
3 287 112 142 255 255 255
3 215 266 184 255 255 255
3 291 91 215 255 255 255
3 83 210 291 255 255 255
3 91 199 99 255 255 255
3 197 189 99 255 255 255
3 50 144 197 255 255 255
3 210 80 144 255 255 255
3 317 274 80 255 255 255
3 244 148 317 255 255 255
3 184 266 287 255 255 255
3 91 205 215 255 255 255
3 291 189 91 255 255 255
3 210 197 291 255 255 255
3 199 83 99 255 255 255
3 91 146 205 255 255 255
3 189 91 99 255 255 255
3 144 91 197 255 255 255
3 144 205 91 255 255 255
3 80 199 144 255 255 255
3 210 317 80 255 255 255
3 151 320 167 255 255 255
3 274 115 80 255 255 255
3 317 148 274 255 255 255
3 148 110 274 255 255 255
3 287 266 32 255 255 255
3 215 115 266 255 255 255
3 199 274 83 255 255 255
3 146 168 205 255 255 255
3 205 217 91 255 255 255
3 199 291 144 255 255 255
3 148 52 110 255 255 255
3 210 83 167 255 255 255
3 83 151 167 255 255 255
3 83 110 151 255 255 255
3 167 224 210 255 255 255
3 115 213 266 255 255 255
3 274 52 83 255 255 255
3 168 305 205 255 255 255
3 217 95 91 255 255 255
3 205 305 217 255 255 255
3 151 289 320 255 255 255
3 52 213 110 255 255 255
3 32 266 52 255 255 255
3 148 112 52 255 255 255
3 244 54 148 255 255 255
3 224 90 210 255 255 255
3 274 148 52 255 255 255
3 146 203 168 255 255 255
3 146 95 203 255 255 255
3 95 146 91 255 255 255
3 217 104 95 255 255 255
3 305 96 217 255 255 255
3 244 250 54 255 255 255
3 274 21 148 255 255 255
3 168 96 305 255 255 255
3 226 96 168 255 255 255
3 226 116 96 255 255 255
3 95 23 203 255 255 255
3 95 104 318 255 255 255
3 217 96 104 255 255 255
3 21 250 148 255 255 255
3 116 121 96 255 255 255
3 168 203 226 255 255 255
3 23 138 203 255 255 255
3 318 23 95 255 255 255
3 112 287 52 255 255 255
3 116 117 121 255 255 255
3 116 137 117 255 255 255
3 137 190 226 255 255 255
3 138 226 203 255 255 255
3 23 218 138 255 255 255
3 318 218 23 255 255 255
3 96 190 104 255 255 255
3 137 123 117 255 255 255
3 116 226 137 255 255 255
3 190 121 226 255 255 255
3 218 123 138 255 255 255
3 318 227 218 255 255 255
3 104 272 318 255 255 255
3 190 193 104 255 255 255
3 117 29 121 255 255 255
3 117 293 29 255 255 255
3 137 270 123 255 255 255
3 190 293 121 255 255 255
3 137 23 138 255 255 255
3 218 227 123 255 255 255
3 318 272 227 255 255 255
3 193 103 104 255 255 255
3 29 193 121 255 255 255
3 293 119 29 255 255 255
3 117 64 293 255 255 255
3 123 293 117 255 255 255
3 190 64 293 255 255 255
3 138 270 137 255 255 255
3 23 111 138 255 255 255
3 104 182 272 255 255 255
3 193 272 103 255 255 255
3 119 181 29 255 255 255
3 64 225 293 255 255 255
3 123 225 293 255 255 255
3 190 116 64 255 255 255
3 138 251 270 255 255 255
3 29 182 193 255 255 255
3 181 219 29 255 255 255
3 225 56 293 255 255 255
3 64 56 225 255 255 255
3 225 5 293 255 255 255
3 225 181 5 255 255 255
3 123 270 225 255 255 255
3 5 29 293 255 255 255
3 138 30 251 255 255 255
3 182 139 272 255 255 255
3 29 81 182 255 255 255
3 56 306 293 255 255 255
3 56 119 225 255 255 255
3 5 219 29 255 255 255
3 227 139 30 255 255 255
3 272 139 227 255 255 255
3 182 81 139 255 255 255
3 306 81 219 255 255 255
3 56 120 306 255 255 255
3 30 56 251 255 255 255
3 30 139 120 255 255 255
3 306 139 81 255 255 255
3 120 139 306 255 255 255
3 56 123 251 255 255 255
3 30 120 56 255 255 255
3 123 138 251 255 255 255
3 34 273 152 255 255 255
3 152 211 34 255 255 255
3 34 94 273 255 255 255
3 211 1 34 255 255 255
3 152 313 211 255 255 255
3 94 8 273 255 255 255
3 34 1 94 255 255 255
3 296 296 296 255 255 255
