ply
format ascii 1.0
element vertex 346
property float x
property float y
property float z
element face 576
property list uchar int vertex_indices
property uchar red
property uchar green
property uchar blue
end_header
-2.78438615798950195 -1.62120711803436279 -0.808541774749755859
-2.82144474983215332 -1.53484833240509033 -0.730631709098815918
-2.84100008010864258 -1.56500005722045898 -0.759999990463256836
-2.93458271026611328 -1.73687422275543213 -0.954436302185058594
-2.96173667907714844 -1.78129541873931885 -0.858971059322357178
-2.95169329643249512 -1.77012848854064941 -0.851146817207336426
-2.82399988174438477 -1.59099996089935303 -0.796000003814697266
-2.80281877517700195 -1.62680447101593018 -0.920952975749969482
-2.91652607917785645 -1.71770656108856201 -0.971505820751190186
-2.79824018478393555 -1.60418486595153809 -0.911640167236328125
-2.80582571029663086 -1.5806732177734375 -0.732072591781616211
-2.84175634384155273 -1.60152232646942139 -0.800250887870788574
-2.88843536376953125 -1.67374265193939209 -1.00503301620483398
-2.91179633140563965 -1.6565864086151123 -1.03775060176849365
-2.88100004196166992 -1.69700002670288086 -1.04400002956390381
-2.94930624961853027 -1.69544041156768799 -1.04334676265716553
-2.95799994468688965 -1.69000005722045898 -1.01999998092651367
-2.96300005912780762 -1.71300005912780762 -1.00899994373321533
-2.84197378158569336 -1.65375661849975586 -1.03695476055145264
-2.91889309883117676 -1.66085457801818848 -1.0327533483505249
-2.91706490516662598 -1.70298647880554199 -1.03030002117156982
-2.95970487594604492 -1.70406758785247803 -1.03005766868591309
-2.78748369216918945 -1.67890870571136475 -0.855443120002746582
-2.80328202247619629 -1.64370453357696533 -1.03948867321014404
-2.80264806747436523 -1.630057692527771 -1.00876867771148682
-2.82245326042175293 -1.67385649681091309 -1.0283663272857666
-2.82818269729614258 -1.62464535236358643 -1.01318097114562988
-2.93499994277954102 -1.70899999141693115 -1.01199996471405029
-2.90812253952026367 -1.70097637176513672 -1.00316619873046875
-2.94970822334289551 -1.7142711877822876 -1.01790404319763184
-2.95351862907409668 -1.67760586738586426 -1.00334084033966064
-2.90817880630493164 -1.6805950403213501 -1.02100598812103271
-2.90100002288818359 -1.68200004100799561 -1.00699996948242188
-2.80750918388366699 -1.66772341728210449 -0.853633105754852295
-2.82471942901611328 -1.60831701755523682 -0.793275892734527588
-2.96678066253662109 -1.6958240270614624 -1.01425278186798096
-2.93712568283081055 -1.69037008285522461 -1.03408253192901611
-2.92334842681884766 -1.67199552059173584 -1.03258645534515381
-2.89533257484436035 -1.65774917602539062 -1.00274670124053955
-2.77825808525085449 -1.66333925724029541 -1.00532782077789307
-2.81643557548522949 -1.6876215934753418 -1.00253212451934814
-2.78098249435424805 -1.62405180931091309 -1.00144362449645996
-2.78521180152893066 -1.63245248794555664 -1.03422844409942627
-2.78501272201538086 -1.69417262077331543 -1.01109838485717773
-2.79317688941955566 -1.67759537696838379 -1.02717280387878418
-2.82228565216064453 -1.5990755558013916 -0.792624473571777344
-2.9567418098449707 -1.74637496471405029 -0.919284164905548096
-2.96250557899475098 -1.75259184837341309 -0.901951074600219727
-2.96599793434143066 -1.69040906429290771 -0.9721718430519104
-2.92060971260070801 -1.70208406448364258 -1.03886973857879639
-2.95799994468688965 -1.71200001239776611 -1.02600002288818359
-2.87902927398681641 -1.71183180809020996 -1.05196726322174072
-2.87424993515014648 -1.71375000476837158 -1.04600000381469727
-2.81438946723937988 -1.63377654552459717 -0.823472023010253906
-2.83043026924133301 -1.63701248168945312 -0.934264779090881348
-2.84805631637573242 -1.66416549682617188 -0.989255309104919434
-2.78388047218322754 -1.66788327693939209 -0.822000980377197266
-2.78403282165527344 -1.60105085372924805 -0.983187079429626465
-2.91433954238891602 -1.69804918766021729 -0.986119270324707031
-2.82395482063293457 -1.59590363502502441 -0.89941251277923584
-2.92949247360229492 -1.75958621501922607 -0.89396214485168457
-2.83599996566772461 -1.63199996948242188 -0.985000014305114746
-2.78600001335144043 -1.65999996662139893 -0.791000008583068848
-2.80500006675720215 -1.55900001525878906 -0.72500002384185791
-2.81010079383850098 -1.67728209495544434 -0.825549006462097168
-2.8219754695892334 -1.64415502548217773 -0.871114075183868408
-2.9447939395904541 -1.74383914470672607 -0.938651144504547119
-2.82352638244628906 -1.62662851810455322 -0.779134690761566162
-2.95000004768371582 -1.72899997234344482 -0.90700000524520874
-2.84214091300964355 -1.57620954513549805 -0.789678633213043213
-2.81074905395507812 -1.60341370105743408 -0.872486531734466553
-2.81871223449707031 -1.65474772453308105 -0.938164770603179932
-2.7927396297454834 -1.70570516586303711 -0.806929647922515869
-2.82543301582336426 -1.61977136135101318 -0.938171327114105225
-2.95128893852233887 -1.77216911315917969 -0.893382608890533447
-2.81015992164611816 -1.65487027168273926 -0.911191761493682861
-2.79222273826599121 -1.69060027599334717 -0.979603707790374756
-2.82979321479797363 -1.59169256687164307 -0.742092013359069824
-2.77699995040893555 -1.625 -0.953999996185302734
-2.80699992179870605 -1.57599997520446777 -0.71799999475479126
-2.84549999237060547 -1.54550004005432129 -0.74449998140335083
-2.77420496940612793 -1.64380085468292236 -0.944112181663513184
-2.95117402076721191 -1.72409820556640625 -0.962818264961242676
-2.81121253967285156 -1.60102057456970215 -0.952169954776763916
-2.82100009918212891 -1.64499998092651367 -0.944999992847442627
-2.90241789817810059 -1.72814154624938965 -0.872529447078704834
-2.95000004768371582 -1.7369999885559082 -0.916999995708465576
-2.95692253112792969 -1.73670065402984619 -0.927892327308654785
-2.84500002861022949 -1.56599998474121094 -0.750999987125396729
-2.78600001335144043 -1.61300003528594971 -0.930000007152557373
-2.80959010124206543 -1.53023660182952881 -0.751333117485046387
-2.80083036422729492 -1.6236342191696167 -0.965053081512451172
-2.83385086059570312 -1.6155928373336792 -0.978064179420471191
-2.81200003623962402 -1.55999994277954102 -0.726999998092651367
-2.81399989128112793 -1.68799996376037598 -0.875
-2.83746933937072754 -1.57008039951324463 -0.819288372993469238
-2.78494906425476074 -1.67024469375610352 -0.913302183151245117
-2.82399988174438477 -1.6260000467300415 -0.93900001049041748
-2.81800007820129395 -1.61600005626678467 -0.945999979972839355
-2.9198911190032959 -1.71230411529541016 -0.885467767715454102
-2.82999992370605469 -1.63300001621246338 -0.919000029563903809
-2.82399988174438477 -1.63699996471405029 -0.902999997138977051
-2.83611607551574707 -1.66861486434936523 -1.0186617374420166
-2.83899998664855957 -1.64499998092651367 -1.00399994850158691
-2.91348481178283691 -1.68473052978515625 -1.04004204273223877
-2.91419458389282227 -1.64126789569854736 -1.00700676441192627
-2.87443685531616211 -1.70086038112640381 -1.0483325719833374
-2.76669716835021973 -1.64621579647064209 -1.00366175174713135
-2.84815669059753418 -1.63596904277801514 -1.02529609203338623
-2.91217565536499023 -1.71375489234924316 -1.01434636116027832
-2.90858030319213867 -1.65580177307128906 -1.00188267230987549
-2.9492490291595459 -1.70936596393585205 -1.03468608856201172
-2.77903938293457031 -1.67969119548797607 -0.889848768711090088
-2.84421849250793457 -1.60065793991088867 -0.878428161144256592
-2.80340933799743652 -1.69151484966278076 -0.910208523273468018
-2.84400010108947754 -1.5429999828338623 -0.749000012874603271
-2.77650713920593262 -1.69036722183227539 -0.920428454875946045
-2.79415440559387207 -1.65994620323181152 -0.84269946813583374
-2.81699991226196289 -1.64699995517730713 -0.879000008106231689
-2.93300008773803711 -1.77600002288818359 -0.861000001430511475
-2.80502223968505859 -1.6799461841583252 -0.803400695323944092
-2.82200002670288086 -1.56599998474121094 -0.709999978542327881
-2.81867575645446777 -1.66886007785797119 -0.919315636157989502
-2.79188227653503418 -1.63544201850891113 -0.796815097332000732
-2.83874607086181641 -1.57089471817016602 -0.767097234725952148
-2.82103514671325684 -1.59775173664093018 -0.716836929321289062
-2.81234073638916016 -1.70438599586486816 -0.830222904682159424
-2.84984636306762695 -1.56471860408782959 -0.731925129890441895
-2.80962681770324707 -1.64783632755279541 -0.842121720314025879
-2.81072783470153809 -1.69954121112823486 -0.895022571086883545
-2.84600019454956055 -1.55324995517730713 -0.74374997615814209
-2.7930760383605957 -1.59105920791625977 -0.798199832439422607
-2.78353452682495117 -1.64583146572113037 -0.770307362079620361
-2.9603123664855957 -1.70189690589904785 -0.991389572620391846
-2.81404662132263184 -1.69365847110748291 -0.804643511772155762
-2.83574986457824707 -1.64453291893005371 -0.953974485397338867
-2.92312383651733398 -1.68691003322601318 -0.956350207328796387
-2.92615294456481934 -1.67126178741455078 -0.908318996429443359
-2.84923100471496582 -1.61055231094360352 -0.832204639911651611
-2.80850005149841309 -1.62599992752075195 -0.907999992370605469
-2.83857941627502441 -1.68328666687011719 -0.981337547302246094
-2.89499998092651367 -1.71599996089935303 -0.865000009536743164
-2.79183721542358398 -1.58666682243347168 -0.937421679496765137
-2.83545231819152832 -1.5544586181640625 -0.787672936916351318
-2.84325098991394043 -1.67773711681365967 -0.951907813549041748
-2.92499995231628418 -1.74199998378753662 -0.944000005722045898
-2.8206334114074707 -1.58139598369598389 -0.790142536163330078
-2.82949995994567871 -1.57249999046325684 -0.712000012397766113
-2.78754019737243652 -1.64119267463684082 -0.889020562171936035
-2.78960824012756348 -1.65737199783325195 -0.963988661766052246
-2.90780854225158691 -1.71635925769805908 -0.935816764831542969
-2.79804015159606934 -1.64661824703216553 -0.904909849166870117
-2.95399999618530273 -1.68700003623962402 -0.991999983787536621
-2.81965923309326172 -1.57853150367736816 -0.830438017845153809
-2.84221601486206055 -1.6679912805557251 -0.914152860641479492
-2.94439435005187988 -1.728676438331604 -0.971511721611022949
-2.80805730819702148 -1.60928571224212646 -0.933958470821380615
-2.91226696968078613 -1.75723552703857422 -0.874519646167755127
-2.95224428176879883 -1.72872507572174072 -0.943661332130432129
-2.95642971992492676 -1.6739964485168457 -0.909987390041351318
-2.96382331848144531 -1.68274068832397461 -0.904311180114746094
-2.88899993896484375 -1.67499995231628418 -0.996999979019165039
-2.81375861167907715 -1.66832911968231201 -0.894273459911346436
-2.78945040702819824 -1.7009657621383667 -0.796228110790252686
-2.78969740867614746 -1.63531851768493652 -0.84577709436416626
-2.80299997329711914 -1.64900004863739014 -0.834999978542327881
-2.85800004005432129 -1.5549999475479126 -0.736000001430511475
-2.82601428031921387 -1.61786496639251709 -0.966862857341766357
-2.93469047546386719 -1.78419399261474609 -0.85711294412612915
-2.7929999828338623 -1.64800000190734863 -0.856000006198883057
-2.81815528869628906 -1.65645158290863037 -0.86569589376449585
-2.76600122451782227 -1.60738146305084229 -0.946116626262664795
-2.78937602043151855 -1.67918598651885986 -0.962445199489593506
-2.94099998474121094 -1.6809999942779541 -0.889999985694885254
-2.91907310485839844 -1.71854233741760254 -0.916076421737670898
-2.91100001335144043 -1.70099997520446777 -0.940999984741210938
-2.94038677215576172 -1.7219092845916748 -0.891986489295959473
-2.79399991035461426 -1.65199995040893555 -0.936999976634979248
-2.81568789482116699 -1.68993210792541504 -0.821816802024841309
-2.82056879997253418 -1.6478419303894043 -0.902074515819549561
-2.77980613708496094 -1.63168466091156006 -0.906441688537597656
-2.93667006492614746 -1.72295224666595459 -0.868128061294555664
-2.9469296932220459 -1.6864854097366333 -0.952432513236999512
-2.82200002670288086 -1.68299996852874756 -0.958999991416931152
-2.79200005531311035 -1.65499997138977051 -0.944000005722045898
-2.94363260269165039 -1.68523812294006348 -0.98164820671081543
-2.92194366455078125 -1.68579113483428955 -0.909157633781433105
-2.78746724128723145 -1.65883779525756836 -0.927962005138397217
-2.81904935836791992 -1.60263895988464355 -0.764073848724365234
-2.83243799209594727 -1.56282579898834229 -0.719165444374084473
-2.78327536582946777 -1.6343308687210083 -0.927203536033630371
-2.90211606025695801 -1.71565520763397217 -0.992239594459533691
-2.81378340721130371 -1.62952780723571777 -0.796815156936645508
-2.80095314979553223 -1.56133592128753662 -0.737044453620910645
-2.84168529510498047 -1.64092397689819336 -0.897522211074829102
-2.9273991584777832 -1.7373356819152832 -0.902389287948608398
-2.90800285339355469 -1.72778189182281494 -0.879480481147766113
-2.91196489334106445 -1.70881032943725586 -0.859372854232788086
-2.81406331062316895 -1.63110721111297607 -0.836934685707092285
-2.82299995422363281 -1.61000001430511475 -0.926999986171722412
-2.82740116119384766 -1.64130175113677979 -0.954964220523834229
-2.8161311149597168 -1.69675493240356445 -0.860851466655731201
-2.8320000171661377 -1.5559999942779541 -0.772000014781951904
-2.77978610992431641 -1.61919593811035156 -0.891874492168426514
-2.82021927833557129 -1.58880960941314697 -0.844322025775909424
-2.8173675537109375 -1.57064604759216309 -0.715252339839935303
-2.80399274826049805 -1.61254239082336426 -0.976337850093841553
-2.80197572708129883 -1.61607956886291504 -0.838734090328216553
-2.82599997520446777 -1.56500005722045898 -0.716000020503997803
-2.81599998474121094 -1.61699998378753662 -0.964999973773956299
-2.80299997329711914 -1.61899995803833008 -0.813000023365020752
-2.81104421615600586 -1.6193464994430542 -0.933319747447967529
-2.92704534530639648 -1.68383193016052246 -0.932169497013092041
-2.83087825775146484 -1.55158567428588867 -0.764813899993896484
-2.8180243968963623 -1.64506995677947998 -0.863042771816253662
-2.95000004768371582 -1.72300004959106445 -0.980000019073486328
-2.82399988174438477 -1.64199995994567871 -0.952000021934509277
-2.84087681770324707 -1.61482048034667969 -0.904547035694122314
-2.8121488094329834 -1.62956798076629639 -0.983209311962127686
-2.92281937599182129 -1.74608910083770752 -0.940906941890716553
-2.77778959274291992 -1.65879547595977783 -0.964613974094390869
-2.9590001106262207 -1.70000004768371582 -0.964999973773956299
-2.82500004768371582 -1.62699997425079346 -0.93199998140335083
-2.94700002670288086 -1.74399995803833008 -0.897000014781951904
-2.80372786521911621 -1.58685386180877686 -0.769912362098693848
-2.79800009727478027 -1.65199995040893555 -0.822000026702880859
-2.92663407325744629 -1.74979305267333984 -0.848998486995697021
-2.80299997329711914 -1.6109999418258667 -0.815999984741210938
-2.82599997520446777 -1.56299996376037598 -0.776000022888183594
-2.82800006866455078 -1.6380000114440918 -0.926999986171722412
-2.90899991989135742 -1.71099996566772461 -0.949000000953674316
-2.8469998836517334 -1.53999996185302734 -0.740999996662139893
-2.82326698303222656 -1.56559371948242188 -0.752658069133758545
-2.78255987167358398 -1.58922398090362549 -0.779252052307128906
-2.89899992942810059 -1.72099995613098145 -0.860000014305114746
-2.94899988174438477 -1.75499999523162842 -0.851999998092651367
-2.81140255928039551 -1.60913896560668945 -0.79358828067779541
-2.83728432655334473 -1.52745413780212402 -0.744186758995056152
-2.82801246643066406 -1.559012770652771 -0.765986204147338867
-2.82399988174438477 -1.56500005722045898 -0.77499997615814209
-2.8571319580078125 -1.54618096351623535 -0.717616677284240723
-2.83906126022338867 -1.64718031883239746 -0.906597733497619629
-2.8190000057220459 -1.64300000667572021 -0.888000011444091797
-2.90130972862243652 -1.7475048303604126 -0.867804646492004395
-2.94362950325012207 -1.75528335571289062 -0.9154624342918396
-2.77457928657531738 -1.6315162181854248 -0.961496531963348389
-2.94195961952209473 -1.7992788553237915 -0.881297886371612549
-2.94576930999755859 -1.66360211372375488 -0.906225383281707764
-2.96581482887268066 -1.77617967128753662 -0.878530919551849365
-2.79290962219238281 -1.64873838424682617 -0.905934631824493408
-2.93982338905334473 -1.67471885681152344 -0.890608668327331543
-2.8360598087310791 -1.67685437202453613 -0.972955167293548584
-2.95399379730224609 -1.70707428455352783 -0.897668123245239258
-2.80900001525878906 -1.62999999523162842 -0.827000021934509277
-2.82455730438232422 -1.55427646636962891 -0.721727609634399414
-2.77902674674987793 -1.61773419380187988 -0.972194373607635498
-2.90812587738037109 -1.74411237239837646 -0.863297760486602783
-2.82285070419311523 -1.64766228199005127 -0.914976596832275391
-2.77280092239379883 -1.62056577205657959 -0.763175666332244873
-2.80244040489196777 -1.65620064735412598 -0.768656551837921143
-2.84296965599060059 -1.5653996467590332 -0.830322802066802979
-2.78500008583068848 -1.65600001811981201 -0.795000016689300537
-2.80075931549072266 -1.66517841815948486 -0.807705819606781006
-2.84853172302246094 -1.58704876899719238 -0.817464888095855713
-2.81076645851135254 -1.674721360206604 -0.879070460796356201
-2.80939936637878418 -1.60988199710845947 -0.807113766670227051
-2.78999447822570801 -1.61878299713134766 -0.957673192024230957
-2.90599989891052246 -1.71500003337860107 -0.945999979972839355
-2.80999994277954102 -1.66900002956390381 -0.93199998140335083
-2.9481961727142334 -1.74507796764373779 -0.890212118625640869
-2.9590001106262207 -1.79850006103515625 -0.853000044822692871
-2.94238567352294922 -1.78317713737487793 -0.851140856742858887
-2.77901387214660645 -1.66332292556762695 -0.793004810810089111
-2.78421807289123535 -1.6217951774597168 -0.987970232963562012
-2.90442276000976562 -1.67357051372528076 -0.989563703536987305
-2.79800009727478027 -1.66600000858306885 -0.830999970436096191
-2.79900002479553223 -1.6260000467300415 -0.926999986171722412
-2.83999991416931152 -1.54900002479553223 -0.753000020980834961
-2.83533954620361328 -1.64735019207000732 -0.984607040882110596
-2.84579849243164062 -1.6597672700881958 -0.939032912254333496
-2.83968997001647949 -1.63261222839355469 -0.984704732894897461
-2.80039429664611816 -1.62421095371246338 -0.756238579750061035
-2.78545117378234863 -1.68074381351470947 -0.798841118812561035
-2.83500337600708008 -1.54438686370849609 -0.721518516540527344
-2.77725052833557129 -1.62242746353149414 -0.924558401107788086
-2.82002162933349609 -1.69454848766326904 -0.93197929859161377
-2.79800009727478027 -1.66900002956390381 -0.827000021934509277
-2.79730534553527832 -1.64298403263092041 -0.813738465309143066
-2.83643937110900879 -1.57377338409423828 -0.841977357864379883
-2.78999996185302734 -1.64999997615814209 -0.940999984741210938
-2.8208165168762207 -1.61634647846221924 -0.857713401317596436
-2.81815409660339355 -1.57861196994781494 -0.809738695621490479
-2.86747622489929199 -1.67095792293548584 -0.979652225971221924
-2.95409607887268066 -1.74633610248565674 -0.876415789127349854
-2.93878722190856934 -1.74662339687347412 -0.913438618183135986
-2.9440000057220459 -1.79200005531311035 -0.887000024318695068
-2.8900001049041748 -1.66100001335144043 -0.999000012874603271
-2.78418660163879395 -1.6318289041519165 -0.833161413669586182
-2.81924772262573242 -1.6213068962097168 -0.922613084316253662
-2.9030001163482666 -1.68900001049041748 -0.990999996662139893
-2.80844664573669434 -1.6142350435256958 -0.945721685886383057
-2.80980610847473145 -1.68098640441894531 -0.853012025356292725
-2.92360186576843262 -1.75845837593078613 -0.860135316848754883
-2.96134161949157715 -1.71808898448944092 -0.926527619361877441
-2.95208644866943359 -1.68473148345947266 -0.946573376655578613
-2.8010859489440918 -1.60016191005706787 -0.825608730316162109
-2.81108689308166504 -1.58453011512756348 -0.754153847694396973
-2.78499984741210938 -1.6400001049041748 -0.830500006675720215
-2.79723739624023438 -1.61482095718383789 -0.849303841590881348
-2.83957123756408691 -1.62173593044281006 -0.874093770980834961
-2.80999994277954102 -1.67900002002716064 -0.944000005722045898
-2.90255022048950195 -1.66846203804016113 -0.990770697593688965
-2.8335411548614502 -1.58693921566009521 -0.774518728256225586
-2.95000004768371582 -1.76999998092651367 -0.847000002861022949
-2.80999994277954102 -1.66499996185302734 -0.93900001049041748
-2.93449997901916504 -1.78099989891052246 -0.870999991893768311
-2.82918667793273926 -1.62222170829772949 -0.99196857213973999
-2.80341529846191406 -1.59863066673278809 -0.968646466732025146
-2.9252474308013916 -1.73542678356170654 -0.852503299713134766
-2.94648241996765137 -1.66147315502166748 -0.904467880725860596
-2.81599998474121094 -1.69000005722045898 -0.841000020503997803
-2.8340001106262207 -1.67799997329711914 -1
-2.79547214508056641 -1.63101136684417725 -0.978695213794708252
-2.9513099193572998 -1.71601486206054688 -0.999913036823272705
-2.77622222900390625 -1.64090991020202637 -0.793279469013214111
-2.81800007820129395 -1.65900003910064697 -0.939999997615814209
-2.78682565689086914 -1.62125813961029053 -0.872551858425140381
-2.92599010467529297 -1.67119860649108887 -0.998776257038116455
-2.95078682899475098 -1.68172132968902588 -0.97203296422958374
-2.79605221748352051 -1.69930076599121094 -0.871060192584991455
-2.814208984375 -1.64146006107330322 -0.815504252910614014
-2.93919610977172852 -1.79971468448638916 -0.870006263256072998
-2.80653119087219238 -1.66088986396789551 -0.857910215854644775
-2.80016469955444336 -1.65974414348602295 -0.972892403602600098
-2.84400010108947754 -1.54100000858306885 -0.728999972343444824
-2.9279019832611084 -1.73461604118347168 -0.930337131023406982
-2.95799994468688965 -1.68200004100799561 -0.987999975681304932
-2.89764690399169922 -1.73155331611633301 -0.86416471004486084
-2.91469717025756836 -1.70546424388885498 -0.959711968898773193
-2.90700006484985352 -1.71099996566772461 -0.939999997615814209
-2.91948556900024414 -1.72342777252197266 -0.99998784065246582
-2.80900001525878906 -1.67700004577636719 -0.898999989032745361
-2.96727347373962402 -1.79928791522979736 -0.87925189733505249
1 1 1
-2.84399700164794922 -1.63934206962585449 -0.929314672946929932
-2.90174031257629395 -1.7300335168838501 -0.858908176422119141
3 258 281 132 255 255 255
3 132 324 258 255 255 255
3 281 259 132 255 255 255
3 258 324 233 255 255 255
3 132 272 324 255 255 255
3 132 259 272 255 255 255
3 281 67 259 255 255 255
3 281 188 67 255 255 255
3 258 233 281 255 255 255
3 233 306 281 255 255 255
3 324 0 233 255 255 255
3 324 123 0 255 255 255
3 281 306 188 255 255 255
3 282 56 272 255 255 255
3 192 62 259 255 255 255
3 67 192 259 255 255 255
3 233 0 131 255 255 255
3 123 287 0 255 255 255
3 272 62 282 255 255 255
3 131 146 233 255 255 255
3 0 305 131 255 255 255
3 287 297 0 255 255 255
3 261 324 272 255 255 255
3 272 262 261 255 255 255
3 56 262 272 255 255 255
3 192 261 62 255 255 255
3 67 236 192 255 255 255
3 233 224 306 255 255 255
3 233 146 224 255 255 255
3 305 291 131 255 255 255
3 123 330 287 255 255 255
3 117 225 56 255 255 255
3 236 265 192 255 255 255
3 67 34 236 255 255 255
3 67 312 34 255 255 255
3 306 224 188 255 255 255
3 306 10 77 255 255 255
3 0 207 305 255 255 255
3 297 287 307 255 255 255
3 287 225 307 255 255 255
3 56 287 262 255 255 255
3 117 164 225 255 255 255
3 282 72 56 255 255 255
3 163 72 282 255 255 255
3 134 178 120 255 255 255
3 282 163 120 255 255 255
3 265 330 192 255 255 255
3 34 45 236 255 255 255
3 77 232 306 255 255 255
3 306 232 193 255 255 255
3 146 291 6 255 255 255
3 291 305 153 255 255 255
3 307 164 297 255 255 255
3 72 22 56 255 255 255
3 34 6 45 255 255 255
3 34 312 11 255 255 255
3 77 124 232 255 255 255
3 10 125 77 255 255 255
3 193 79 306 255 255 255
3 193 205 79 255 255 255
3 146 312 224 255 255 255
3 146 143 312 255 255 255
3 164 308 297 255 255 255
3 22 117 56 255 255 255
3 178 64 120 255 255 255
3 45 146 236 255 255 255
3 312 69 11 255 255 255
3 10 79 125 255 255 255
3 193 63 205 255 255 255
3 193 1 63 255 255 255
3 90 1 193 255 255 255
3 232 90 193 255 255 255
3 312 188 224 255 255 255
3 143 228 312 255 255 255
3 153 95 291 255 255 255
3 305 204 153 255 255 255
3 0 210 207 255 255 255
3 308 207 297 255 255 255
3 117 169 164 255 255 255
3 117 22 169 255 255 255
3 72 329 22 255 255 255
3 163 134 72 255 255 255
3 120 56 262 255 255 255
3 64 286 120 255 255 255
3 236 131 265 255 255 255
3 11 69 263 255 255 255
3 124 238 232 255 255 255
3 125 127 77 255 255 255
3 10 63 79 255 255 255
3 124 69 312 255 255 255
3 312 143 124 255 255 255
3 95 143 291 255 255 255
3 204 288 153 255 255 255
3 210 253 207 255 255 255
3 164 326 308 255 255 255
3 169 326 164 255 255 255
3 329 112 22 255 255 255
3 64 301 286 255 255 255
3 53 262 330 255 255 255
3 330 210 53 255 255 255
3 124 239 238 255 255 255
3 10 93 63 255 255 255
3 238 90 232 255 255 255
3 143 238 124 255 255 255
3 143 202 228 255 255 255
3 143 146 291 255 255 255
3 95 153 260 255 255 255
3 72 126 329 255 255 255
3 178 126 64 255 255 255
3 262 287 330 255 255 255
3 53 198 262 255 255 255
3 198 165 262 255 255 255
3 253 198 53 255 255 255
3 330 265 210 255 255 255
3 265 227 210 255 255 255
3 239 228 238 255 255 255
3 205 254 121 255 255 255
3 238 213 90 255 255 255
3 238 202 213 255 255 255
3 301 275 286 255 255 255
3 126 320 64 255 255 255
3 165 275 262 255 255 255
3 198 128 165 255 255 255
3 263 138 11 255 255 255
3 263 95 260 255 255 255
3 205 93 254 255 255 255
3 1 283 254 255 255 255
3 90 237 1 255 255 255
3 202 124 213 255 255 255
3 238 2 124 255 255 255
3 326 70 308 255 255 255
3 301 33 275 255 255 255
3 126 178 320 255 255 255
3 290 128 198 255 255 255
3 198 207 290 255 255 255
3 263 288 138 255 255 255
3 69 143 95 255 255 255
3 127 240 166 255 255 255
3 189 283 127 255 255 255
3 127 147 189 255 255 255
3 127 125 147 255 255 255
3 147 121 125 255 255 255
3 93 1 254 255 255 255
3 283 208 254 255 255 255
3 202 143 124 255 255 255
3 263 260 288 255 255 255
3 148 203 326 255 255 255
3 329 116 112 255 255 255
3 329 301 201 255 255 255
3 332 169 33 255 255 255
3 128 33 165 255 255 255
3 69 124 143 255 255 255
3 166 130 127 255 255 255
3 283 240 127 255 255 255
3 283 189 208 255 255 255
3 283 1 334 255 255 255
3 237 231 1 255 255 255
3 2 88 124 255 255 255
3 204 113 288 255 255 255
3 112 148 22 255 255 255
3 112 96 148 255 255 255
3 129 116 329 255 255 255
3 94 129 201 255 255 255
3 329 320 301 255 255 255
3 33 264 332 255 255 255
3 264 162 332 255 255 255
3 301 201 33 255 255 255
3 128 290 214 255 255 255
3 290 65 214 255 255 255
3 130 88 127 255 255 255
3 166 80 130 255 255 255
3 240 334 166 255 255 255
3 147 208 205 255 255 255
3 1 231 334 255 255 255
3 90 115 237 255 255 255
3 2 277 88 255 255 255
3 113 309 288 255 255 255
3 70 113 204 255 255 255
3 70 59 113 255 255 255
3 70 290 308 255 255 255
3 326 9 70 255 255 255
3 326 203 9 255 255 255
3 203 148 180 255 255 255
3 129 329 201 255 255 255
3 290 309 65 255 255 255
3 288 309 138 255 255 255
3 166 231 80 255 255 255
3 277 90 213 255 255 255
3 9 59 70 255 255 255
3 70 204 290 255 255 255
3 114 116 129 255 255 255
3 162 118 170 255 255 255
3 264 341 162 255 255 255
3 33 94 264 255 255 255
3 115 130 80 255 255 255
3 148 187 180 255 255 255
3 148 96 187 255 255 255
3 129 341 114 255 255 255
3 170 332 162 255 255 255
3 170 214 332 255 255 255
3 162 179 118 255 255 255
3 204 138 290 255 255 255
3 116 172 96 255 255 255
3 116 114 285 255 255 255
3 179 242 118 255 255 255
3 162 75 179 255 255 255
3 65 309 118 255 255 255
3 194 242 309 255 255 255
3 290 138 309 255 255 255
3 113 217 309 255 255 255
3 96 172 187 255 255 255
3 116 285 172 255 255 255
3 122 285 114 255 255 255
3 309 217 194 255 255 255
3 284 7 180 255 255 255
3 180 245 284 255 255 255
3 187 81 180 255 255 255
3 187 81 289 255 255 255
3 114 162 122 255 255 255
3 179 101 242 255 255 255
3 59 217 113 255 255 255
3 9 156 59 255 255 255
3 9 142 156 255 255 255
3 9 276 284 255 255 255
3 142 9 284 255 255 255
3 171 142 284 255 255 255
3 180 81 245 255 255 255
3 172 81 187 255 255 255
3 122 154 285 255 255 255
3 179 139 101 255 255 255
3 75 249 151 255 255 255
3 217 241 194 255 255 255
3 7 249 180 255 255 255
3 284 245 171 255 255 255
3 81 220 245 255 255 255
3 220 81 172 255 255 255
3 154 144 285 255 255 255
3 151 179 75 255 255 255
3 217 344 241 255 255 255
3 54 344 217 255 255 255
3 59 156 199 255 255 255
3 7 151 249 255 255 255
3 7 139 151 255 255 255
3 7 298 139 255 255 255
3 285 310 172 255 255 255
3 122 241 154 255 255 255
3 75 187 249 255 255 255
3 241 162 194 255 255 255
3 241 344 154 255 255 255
3 156 73 199 255 255 255
3 156 142 83 255 255 255
3 190 187 81 255 255 255
3 172 183 76 255 255 255
3 310 183 172 255 255 255
3 144 183 285 255 255 255
3 190 7 249 255 255 255
3 75 268 187 255 255 255
3 122 268 75 255 255 255
3 73 54 199 255 255 255
3 245 255 171 255 255 255
3 220 322 245 255 255 255
3 172 76 220 255 255 255
3 144 251 183 255 255 255
3 190 284 7 255 255 255
3 268 314 187 255 255 255
3 279 154 344 255 255 255
3 279 144 154 255 255 255
3 54 135 344 255 255 255
3 73 135 54 255 255 255
3 156 83 73 255 255 255
3 83 167 73 255 255 255
3 83 171 317 255 255 255
3 142 171 83 255 255 255
3 298 211 199 255 255 255
3 7 276 298 255 255 255
3 245 91 255 255 255 255
3 322 273 245 255 255 255
3 190 249 187 255 255 255
3 81 78 190 255 255 255
3 39 107 220 255 255 255
3 76 43 220 255 255 255
3 144 135 251 255 255 255
3 190 89 284 255 255 255
3 314 177 187 255 255 255
3 268 310 314 255 255 255
3 57 317 171 255 255 255
3 171 255 57 255 255 255
3 211 98 199 255 255 255
3 276 211 298 255 255 255
3 255 273 57 255 255 255
3 255 41 273 255 255 255
3 273 41 245 255 255 255
3 220 333 322 255 255 255
3 220 43 39 255 255 255
3 76 140 40 255 255 255
3 279 135 144 255 255 255
3 314 184 177 255 255 255
3 73 167 135 255 255 255
3 317 206 83 255 255 255
3 211 300 98 255 255 255
3 273 41 57 255 255 255
3 40 43 76 255 255 255
3 76 251 140 255 255 255
3 251 292 140 255 255 255
3 251 135 55 255 255 255
3 135 280 278 255 255 255
3 83 209 167 255 255 255
3 206 167 83 255 255 255
3 317 57 206 255 255 255
3 300 83 98 255 255 255
3 211 89 300 255 255 255
3 245 78 81 255 255 255
3 135 278 55 255 255 255
3 84 200 135 255 255 255
3 135 71 84 255 255 255
3 135 167 280 255 255 255
3 206 92 167 255 255 255
3 317 91 206 255 255 255
3 41 42 57 255 255 255
3 245 149 220 255 255 255
3 245 81 149 255 255 255
3 39 42 107 255 255 255
3 40 25 43 255 255 255
3 292 55 140 255 255 255
3 135 279 71 255 255 255
3 167 218 200 255 255 255
3 317 266 91 255 255 255
3 42 24 57 255 255 255
3 149 333 220 255 255 255
3 43 44 39 255 255 255
3 55 321 140 255 255 255
3 55 292 251 255 255 255
3 84 97 200 255 255 255
3 71 229 84 255 255 255
3 218 61 200 255 255 255
3 92 206 316 255 255 255
3 41 107 42 255 255 255
3 44 23 39 255 255 255
3 40 102 25 255 255 255
3 40 321 102 255 255 255
3 92 61 280 255 255 255
3 97 98 200 255 255 255
3 71 257 229 255 255 255
3 92 280 316 255 255 255
3 102 18 25 255 255 255
3 98 167 200 255 255 255
3 257 54 229 255 255 255
3 200 216 135 255 255 255
3 91 266 255 255 255 255
3 266 78 255 255 255 255
3 44 25 23 255 255 255
3 103 278 280 255 255 255
3 280 26 103 255 255 255
3 98 209 167 255 255 255
3 54 222 229 255 255 255
3 257 100 54 255 255 255
3 206 24 26 255 255 255
3 91 273 206 255 255 255
3 23 26 24 255 255 255
3 24 42 23 255 255 255
3 25 18 23 255 255 255
3 26 108 103 255 255 255
3 222 97 229 255 255 255
3 200 84 216 255 255 255
3 26 280 316 255 255 255
3 23 108 26 255 255 255
3 102 103 18 255 255 255
3 257 101 100 255 255 255
3 200 325 84 255 255 255
3 23 18 108 255 255 255
3 333 149 200 255 255 255
3 99 195 196 255 255 255
3 99 176 195 255 255 255
3 197 181 99 255 255 255
3 195 60 196 255 255 255
3 181 176 99 255 255 255
3 99 196 197 255 255 255
3 195 269 60 255 255 255
3 293 269 176 255 255 255
3 176 181 293 255 255 255
3 197 318 181 255 255 255
3 196 85 197 255 255 255
3 85 345 197 255 255 255
3 195 223 269 255 255 255
3 269 223 176 255 255 255
3 197 345 318 255 255 255
3 196 337 85 255 255 255
3 60 157 196 255 255 255
3 195 294 223 255 255 255
3 181 318 293 255 255 255
3 196 243 337 255 255 255
3 196 157 243 255 255 255
3 318 256 302 255 255 255
3 345 256 318 255 255 255
3 157 302 243 255 255 255
3 294 68 223 255 255 255
3 293 248 269 255 255 255
3 318 5 293 255 255 255
3 256 226 318 255 255 255
3 337 234 85 255 255 255
3 234 141 85 255 255 255
3 269 74 60 255 255 255
3 294 86 68 255 255 255
3 293 5 248 255 255 255
3 318 302 5 255 255 255
3 302 271 5 255 255 255
3 302 226 256 255 255 255
3 256 157 302 255 255 255
3 345 243 256 255 255 255
3 337 141 234 255 255 255
3 337 85 141 255 255 255
3 269 47 74 255 255 255
3 302 315 119 255 255 255
3 345 85 243 255 255 255
3 337 243 85 255 255 255
3 302 235 226 255 255 255
3 195 174 294 255 255 255
3 248 5 4 255 255 255
3 315 246 119 255 255 255
3 302 157 315 255 255 255
3 269 223 47 255 255 255
3 5 331 4 255 255 255
3 5 246 331 255 255 255
3 271 246 5 255 255 255
3 246 271 119 255 255 255
3 74 248 246 255 255 255
3 47 46 74 255 255 255
3 223 244 47 255 255 255
3 174 335 294 255 255 255
3 248 342 74 255 255 255
3 47 244 46 255 255 255
3 174 150 335 255 255 255
3 342 295 74 255 255 255
3 342 331 246 255 255 255
3 244 86 46 255 255 255
3 335 244 294 255 255 255
3 246 315 74 255 255 255
3 46 66 244 255 255 255
3 86 87 46 255 255 255
3 335 66 244 255 255 255
3 46 244 74 255 255 255
3 86 303 87 255 255 255
3 66 87 244 255 255 255
3 335 145 66 255 255 255
3 150 3 335 255 255 255
3 342 4 331 255 255 255
3 270 271 331 255 255 255
3 87 66 46 255 255 255
3 145 3 66 255 255 255
3 342 248 4 255 255 255
3 219 244 66 255 255 255
3 303 158 87 255 255 255
3 3 158 66 255 255 255
3 339 175 150 255 255 255
3 66 145 219 255 255 255
3 150 230 3 255 255 255
3 339 230 175 255 255 255
3 150 267 339 255 255 255
3 271 168 331 255 255 255
3 82 66 158 255 255 255
3 230 338 3 255 255 255
3 150 267 230 255 255 255
3 230 338 175 255 255 255
3 4 313 271 255 255 255
3 82 3 66 255 255 255
3 3 338 8 255 255 255
3 3 82 158 255 255 255
3 8 155 3 255 255 255
3 168 315 331 255 255 255
3 4 235 313 255 255 255
3 155 82 3 255 255 255
3 8 323 155 255 255 255
3 8 340 323 255 255 255
3 338 58 8 255 255 255
3 168 119 315 255 255 255
3 323 215 155 255 255 255
3 338 136 58 255 255 255
3 323 82 215 255 255 255
3 315 295 331 255 255 255
3 155 323 82 255 255 255
3 8 58 191 255 255 255
3 215 155 82 255 255 255
3 221 133 82 255 255 255
3 8 191 340 255 255 255
3 136 185 58 255 255 255
3 136 328 185 255 255 255
3 136 182 328 255 255 255
3 136 212 182 255 255 255
3 133 323 82 255 255 255
3 221 48 133 255 255 255
3 221 328 48 255 255 255
3 191 109 340 255 255 255
3 191 28 109 255 255 255
3 327 299 58 255 255 255
3 185 327 58 255 255 255
3 185 336 152 255 255 255
3 182 212 304 255 255 255
3 48 336 133 255 255 255
3 221 304 328 255 255 255
3 27 29 323 255 255 255
3 323 340 27 255 255 255
3 191 299 28 255 255 255
3 152 30 185 255 255 255
3 328 48 185 255 255 255
3 212 137 304 255 255 255
3 28 20 109 255 255 255
3 327 110 32 255 255 255
3 185 30 327 255 255 255
3 212 175 186 255 255 255
3 152 35 133 255 255 255
3 29 35 323 255 255 255
3 28 31 20 255 255 255
3 30 36 327 255 255 255
3 304 221 182 255 255 255
3 323 35 133 255 255 255
3 31 37 20 255 255 255
3 32 31 28 255 255 255
3 327 37 110 255 255 255
3 30 16 36 255 255 255
3 137 159 247 255 255 255
3 186 137 212 255 255 255
3 35 17 133 255 255 255
3 36 27 20 255 255 255
3 37 49 20 255 255 255
3 32 12 31 255 255 255
3 38 274 110 255 255 255
3 110 19 38 255 255 255
3 37 31 110 255 255 255
3 36 37 327 255 255 255
3 30 35 16 255 255 255
3 137 319 159 255 255 255
3 186 250 137 255 255 255
3 111 21 29 255 255 255
3 38 161 274 255 255 255
3 12 161 38 255 255 255
3 38 31 12 255 255 255
3 31 19 110 255 255 255
3 31 13 19 255 255 255
3 319 250 159 255 255 255
3 137 250 319 255 255 255
3 35 50 17 255 255 255
3 29 21 35 255 255 255
3 111 36 21 255 255 255
3 37 104 49 255 255 255
3 13 110 19 255 255 255
3 36 104 37 255 255 255
3 250 160 159 255 255 255
3 35 16 21 255 255 255
3 37 19 104 255 255 255
3 36 20 104 255 255 255
3 15 111 21 255 255 255
3 19 13 104 255 255 255
3 20 49 104 255 255 255
3 186 252 250 255 255 255
3 160 319 250 255 255 255
3 250 173 160 255 255 255
3 21 36 15 255 255 255
3 49 109 20 255 255 255
3 110 105 19 255 255 255
3 38 296 110 255 255 255
3 110 13 38 255 255 255
3 252 160 250 255 255 255
3 111 50 21 255 255 255
3 36 111 15 255 255 255
3 105 13 19 255 255 255
3 252 159 160 255 255 255
3 50 29 21 255 255 255
3 296 311 110 255 255 255
3 296 161 311 255 255 255
3 106 52 51 255 255 255
3 51 14 106 255 255 255
3 14 52 106 255 255 255
3 14 51 52 255 255 255
3 343 343 343 255 255 255
3 343 343 343 255 255 255
3 343 343 343 255 255 255
