ply
format ascii 1.0
element vertex 323
property float x
property float y
property float z
element face 576
property list uchar int vertex_indices
property uchar red
property uchar green
property uchar blue
end_header
-3.2369999885559082 11.5769996643066406 -0.913999974727630615
-3.20701265335083008 11.4350051879882812 -0.978941380977630615
-3.21000003814697266 11.4630002975463867 -0.887000024318695068
-3.2070000171661377 11.4540004730224609 -0.902999997138977051
-3.2650001049041748 11.5760002136230469 -0.91250002384185791
-3.34589552879333496 11.4452438354492188 -0.898042619228363037
-3.26099991798400879 11.5769996643066406 -0.913999974727630615
-3.21535348892211914 11.4351940155029297 -1.02957844734191895
-3.22900009155273438 11.4519996643066406 -0.884999990463256836
-3.21799993515014648 11.4460000991821289 -0.957000017166137695
-3.21499991416931152 11.4340000152587891 -1.04200005531311035
-3.19962215423583984 11.4251575469970703 -1.0398561954498291
-3.19300007820129395 11.4580001831054688 -0.885999977588653564
-3.21278882026672363 11.4278011322021484 -0.991224825382232666
-3.21300005912780762 11.4370002746582031 -1.0429999828338623
-3.24849987030029297 11.4580001831054688 -1.02900004386901855
-3.23777294158935547 11.4567584991455078 -1.04544937610626221
-3.24600005149841309 11.574000358581543 -0.902000010013580322
-3.29399991035461426 11.4739999771118164 -0.958000004291534424
-3.30399990081787109 11.4680004119873047 -0.976999998092651367
-3.27699995040893555 11.4680004119873047 -0.94300001859664917
-3.2780001163482666 11.4820003509521484 -0.935000002384185791
-3.28784847259521484 11.4966821670532227 -0.933367908000946045
-3.26828479766845703 11.526519775390625 -0.962985634803771973
-3.26999998092651367 11.5380001068115234 -0.957000017166137695
-3.27099990844726562 11.5249996185302734 -0.940999984741210938
-3.26902961730957031 11.5322360992431641 -0.941240012645721436
-3.2780001163482666 11.5030002593994141 -0.921000003814697266
-3.2630000114440918 11.5729999542236328 -0.887000024318695068
-3.2090001106262207 11.4399995803833008 -0.892000019550323486
-3.25200009346008301 11.5600004196166992 -0.922999978065490723
-3.2630000114440918 11.4650001525878906 -1
-3.26099991798400879 11.5719995498657227 -0.889999985694885254
-3.25500011444091797 11.6049995422363281 -0.897000014781951904
-3.24185514450073242 11.5779972076416016 -0.896579921245574951
-3.1940000057220459 11.4580001831054688 -0.880999982357025146
-3.21300005912780762 11.4600000381469727 -0.880999982357025146
-3.25719618797302246 11.5666751861572266 -0.892639458179473877
-3.22123599052429199 11.4581356048583984 -0.922478973865509033
-3.2090001106262207 11.439000129699707 -0.883000016212463379
-3.284271240234375 11.4678773880004883 -0.991650521755218506
-3.20776748657226562 11.4275541305541992 -0.904025554656982422
-3.29917383193969727 11.4847688674926758 -0.933411955833435059
-3.32399988174438477 11.4689998626708984 -0.916000008583068848
-3.29200005531311035 11.5069999694824219 -0.912999987602233887
-3.32299995422363281 11.4560003280639648 -0.929000020027160645
-3.29900002479553223 11.5069999694824219 -0.916000008583068848
-3.30200004577636719 11.4890003204345703 -0.902999997138977051
-3.32100009918212891 11.4860000610351562 -0.906000018119812012
-3.35229754447937012 11.4455499649047852 -0.916072249412536621
-3.31699991226196289 11.4610004425048828 -0.912999987602233887
-3.2767646312713623 11.5554323196411133 -0.937506794929504395
-3.35100007057189941 11.4589996337890625 -0.902999997138977051
-3.19099998474121094 11.435999870300293 -0.884000003337860107
-3.27625775337219238 11.4556341171264648 -0.843753278255462646
-3.28299999237060547 11.4700002670288086 -0.916999995708465576
-3.28349995613098145 11.4774999618530273 -0.993000030517578125
-3.20600008964538574 11.4420003890991211 -0.964999973773956299
-3.26526856422424316 11.5711488723754883 -0.922173559665679932
-3.2725374698638916 11.4598255157470703 -0.860885918140411377
-3.3190000057220459 11.4680004119873047 -0.919000029563903809
-3.29915475845336914 11.4933938980102539 -0.922371149063110352
-3.32699990272521973 11.4779996871948242 -0.93900001049041748
-3.33800005912780762 11.4790000915527344 -0.944999992847442627
-3.33601903915405273 11.4599895477294922 -0.948006808757781982
-3.30816817283630371 11.4615039825439453 -0.946684181690216064
-3.30781936645507812 11.4691810607910156 -0.960950613021850586
-3.28214597702026367 11.4702386856079102 -0.955307483673095703
-3.27399992942810059 11.4750003814697266 -0.94300001859664917
-3.28021383285522461 11.4893522262573242 -0.946867048740386963
-3.27798223495483398 11.5349874496459961 -0.957960009574890137
-3.21600008010864258 11.4549999237060547 -0.893999993801116943
-3.24019241333007812 11.4406013488769531 -0.907004654407501221
-3.21765255928039551 11.4353599548339844 -0.923325300216674805
-3.3097989559173584 11.4730587005615234 -1.02640664577484131
-3.31169605255126953 11.4685888290405273 -1.04446375370025635
-3.28699994087219238 11.4750003814697266 -1.03600001335144043
-3.29500007629394531 11.5019998550415039 -1.00600004196166992
-3.3225555419921875 11.4738893508911133 -1.0009685754776001
-3.27519583702087402 11.5616350173950195 -0.896597027778625488
-3.21097421646118164 11.4291172027587891 -0.934284806251525879
-3.21199989318847656 11.4475002288818359 -0.975499987602233887
-3.21304059028625488 11.4514551162719727 -1.00595664978027344
-3.27620315551757812 11.527226448059082 -0.937582254409790039
-3.2780001163482666 11.4709997177124023 -0.894999980926513672
-3.29850006103515625 11.5014991760253906 -0.897000014781951904
-3.28099989891052246 11.5360002517700195 -0.955999970436096191
-3.31091189384460449 11.4728221893310547 -0.999536633491516113
-3.28285789489746094 11.502863883972168 -0.987581014633178711
-3.31974124908447266 11.4869289398193359 -0.990306437015533447
-3.33851432800292969 11.4764060974121094 -0.983811140060424805
-3.30143022537231445 11.4934654235839844 -0.984974980354309082
-3.31521034240722656 11.4906148910522461 -0.967865705490112305
-3.32800006866455078 11.4930000305175781 -0.987999975681304932
-3.27600002288818359 11.4910001754760742 -0.986000001430511475
-3.30100011825561523 11.5100002288818359 -0.966000020503997803
-3.23200011253356934 11.4569997787475586 -0.890999972820281982
-3.19300007820129395 11.4510002136230469 -0.893000006675720215
-3.20399999618530273 11.4519996643066406 -0.916000008583068848
-3.21344828605651855 11.4484310150146484 -0.938660800457000732
-3.27049994468688965 11.4685001373291016 -0.84299999475479126
-3.27999997138977051 11.5089998245239258 -0.924000024795532227
-3.26368832588195801 11.5484857559204102 -0.895885169506072998
-3.19899988174438477 11.4420003890991211 -0.876999974250793457
-3.17899990081787109 11.4460000991821289 -0.884999990463256836
-3.22725868225097656 11.4581155776977539 -0.90382838249206543
-3.27399992942810059 11.5430002212524414 -0.927999973297119141
-3.24376845359802246 11.4490871429443359 -0.967098593711853027
-3.3059999942779541 11.4980001449584961 -0.945999979972839355
-3.24799990653991699 11.5830001831054688 -0.897000014781951904
-3.22699999809265137 11.4420003890991211 -0.995999991893768311
-3.28099989891052246 11.4750003814697266 -1.00199997425079346
-3.26799988746643066 11.4709997177124023 -1.00199997425079346
-3.32044386863708496 11.4754762649536133 -1.04575455188751221
-3.29900002479553223 11.4910001754760742 -1.03100001811981201
-3.31699991226196289 11.4770002365112305 -1.02799999713897705
-3.31449031829833984 11.4918537139892578 -1.016288161277771
-3.33596205711364746 11.4635839462280273 -1.03379738330841064
-3.29215049743652344 11.4932241439819336 -1.05398833751678467
-3.30051136016845703 11.4933681488037109 -1.00314784049987793
-3.31323432922363281 11.4811534881591797 -1.01581621170043945
-3.25026988983154297 11.570826530456543 -0.912942886352539062
-3.1940000057220459 11.4320001602172852 -0.876999974250793457
-3.19899988174438477 11.4460000991821289 -0.898999989032745361
-3.19899988174438477 11.435999870300293 -0.958000004291534424
-3.2847750186920166 11.4704303741455078 -0.922177374362945557
-3.33299994468688965 11.4600000381469727 -0.90700000524520874
-3.2090001106262207 11.4329996109008789 -1.01100003719329834
-3.21099996566772461 11.4399995803833008 -1.03499996662139893
-3.29240250587463379 11.5010786056518555 -0.974962711334228516
-3.23788142204284668 11.4459257125854492 -0.890030860900878906
-3.20667123794555664 11.4168272018432617 -1.04790866374969482
-3.20192050933837891 11.4196386337280273 -1.05245745182037354
-3.25419187545776367 11.5887870788574219 -0.888674795627593994
-3.27500009536743164 11.4589996337890625 -0.954999983310699463
-3.22499990463256836 11.4409999847412109 -0.889999985694885254
-3.19000005722045898 11.4610004425048828 -0.889999985694885254
-3.19799995422363281 11.4630002975463867 -0.888000011444091797
-3.20099997520446777 11.4449996948242188 -0.970000028610229492
-3.29399991035461426 11.5419998168945312 -0.949999988079071045
-3.27900004386901855 11.4589996337890625 -0.949999988079071045
-3.28514480590820312 11.5492153167724609 -0.951587855815887451
-3.2780001163482666 11.4809999465942383 -0.910000026226043701
-3.28149008750915527 11.4811697006225586 -0.918322980403900146
-3.2780001163482666 11.4899997711181641 -0.90700000524520874
-3.34378385543823242 11.4555683135986328 -0.922221124172210693
-3.32777047157287598 11.4472522735595703 -0.912825286388397217
-3.33679652214050293 11.4448919296264648 -0.900153577327728271
-3.29399991035461426 11.5069999694824219 -0.90700000524520874
-3.19550752639770508 11.4446296691894531 -0.878896594047546387
-3.2130277156829834 11.4399480819702148 -0.8717917799949646
-3.18275713920593262 11.4426870346069336 -0.88925325870513916
-3.23600006103515625 11.5799999237060547 -0.919000029563903809
-3.28833937644958496 11.5238246917724609 -0.907112598419189453
-3.25799989700317383 11.5670003890991211 -0.920000016689300537
-3.30000877380371094 11.5145435333251953 -0.872824668884277344
-3.29609775543212891 11.4922285079956055 -1.06504583358764648
-3.31019425392150879 11.4999933242797852 -1.05348038673400879
-3.29708099365234375 11.4941692352294922 -1.04408550262451172
-3.29899978637695312 11.4925003051757812 -1.02149999141693115
-3.29434561729431152 11.4748468399047852 -1.01600706577301025
-3.27615499496459961 11.5006608963012695 -1.0060809850692749
-3.28469705581665039 11.5079450607299805 -1.00021755695343018
-3.29999995231628418 11.4680004119873047 -1.00999999046325684
-3.28900003433227539 11.4759998321533203 -1.01600003242492676
-3.2714693546295166 11.4851875305175781 -1.01154053211212158
-3.27017545700073242 11.5505218505859375 -0.89903104305267334
-3.26019001007080078 11.5457401275634766 -0.885460734367370605
-3.20424723625183105 11.4408359527587891 -0.952368736267089844
-3.27399992942810059 11.5089998245239258 -0.921999990940093994
-3.24398326873779297 11.5868844985961914 -0.909074366092681885
-3.29600000381469727 11.5439996719360352 -0.948000013828277588
-3.21102190017700195 11.4169855117797852 -0.889012932777404785
-3.24799990653991699 11.5760002136230469 -0.912999987602233887
-3.20600008964538574 11.4560003280639648 -0.878000020980834961
-3.19600009918212891 11.4610004425048828 -0.879000008106231689
-3.25950002670288086 11.6009998321533203 -0.906000018119812012
-3.25600004196166992 11.5930004119873047 -0.903999984264373779
-3.21146893501281738 11.4347324371337891 -0.950776517391204834
-3.30271172523498535 11.5179586410522461 -0.902816236019134521
-3.21300005912780762 11.4460000991821289 -1.03100001811981201
-3.20799994468688965 11.4370002746582031 -0.96399998664855957
-3.25205230712890625 11.4632720947265625 -1.04586899280548096
-3.29270100593566895 11.4703531265258789 -1.03880000114440918
-3.2802281379699707 11.4823942184448242 -1.04095804691314697
-3.2780001163482666 11.4899997711181641 -1.03299999237060547
-3.2929999828338623 11.4739999771118164 -1.03400003910064697
-3.27715468406677246 11.4885740280151367 -1.04830503463745117
-3.29399991035461426 11.494999885559082 -1.03299999237060547
-3.28299999237060547 11.4890003204345703 -1.03100001811981201
-3.28900003433227539 11.4989995956420898 -1.01800000667572021
-3.3156287670135498 11.4905214309692383 -1.03344953060150146
-3.30905055999755859 11.4857349395751953 -1.05943870544433594
-3.2780001163482666 11.5659999847412109 -0.915000021457672119
-3.25806045532226562 11.5659523010253906 -0.909048020839691162
-3.20573163032531738 11.4332981109619141 -1.00295746326446533
-3.20116686820983887 11.4457721710205078 -1.00885772705078125
-3.27082085609436035 11.5755596160888672 -0.909949779510498047
-3.20799994468688965 11.4209995269775391 -1.00600004196166992
-3.21570515632629395 11.4175710678100586 -1.01202452182769775
-3.21900010108947754 11.4449996948242188 -1.00899994373321533
-3.2101283073425293 11.452946662902832 -0.87209707498550415
-3.21300005912780762 11.4289999008178711 -1.01699995994567871
-3.20554351806640625 11.445225715637207 -1.01396572589874268
-3.20576715469360352 11.4382438659667969 -1.02168464660644531
-3.19627761840820312 11.4461984634399414 -0.893343091011047363
-3.30100011825561523 11.4700002670288086 -0.922999978065490723
-3.32999992370605469 11.4890003204345703 -0.970000028610229492
-3.32978224754333496 11.4670572280883789 -0.987457633018493652
-3.30142903327941895 11.4685344696044922 -0.988066554069519043
-3.28333139419555664 11.5028896331787109 -0.970912754535675049
-3.32100009918212891 11.4860000610351562 -0.957000017166137695
-3.32800006866455078 11.4829998016357422 -0.972000002861022949
-3.30399990081787109 11.4569997787475586 -0.978999972343444824
-3.27926373481750488 11.4797534942626953 -0.971122384071350098
-3.28850007057189941 11.5404996871948242 -0.953999996185302734
-3.27632975578308105 11.5126247406005859 -0.959214210510253906
-3.29790377616882324 11.4740839004516602 -0.940930843353271484
-3.3320000171661377 11.4569997787475586 -0.927999973297119141
-3.34599995613098145 11.449000358581543 -0.930999994277954102
-3.27500009536743164 11.5179996490478516 -0.924000024795532227
-3.34125590324401855 11.4342269897460938 -0.92583012580871582
-3.2686154842376709 11.5410442352294922 -0.92638087272644043
-3.30151796340942383 11.5140094757080078 -0.916289091110229492
-3.26999998092651367 11.5220003128051758 -0.934000015258789062
-3.22261238098144531 11.4363498687744141 -0.904567897319793701
-3.27900004386901855 11.5410003662109375 -0.921999990940093994
-3.23998093605041504 11.4599637985229492 -0.893978655338287354
-3.32899999618530273 11.4709997177124023 -0.961000025272369385
-3.2220001220703125 11.4530000686645508 -0.879500031471252441
-3.22300052642822266 11.4399337768554688 -0.953090131282806396
-3.24398040771484375 11.4511661529541016 -0.902968406677246094
-3.21227002143859863 11.4285564422607422 -0.918505430221557617
-3.20099997520446777 11.4300003051757812 -0.902000010013580322
-3.19981241226196289 11.4320077896118164 -0.922774136066436768
-3.21099996566772461 11.4239997863769531 -0.93199998140335083
-3.24200010299682617 11.5760002136230469 -0.919000029563903809
-3.28399991989135742 11.4729995727539062 -0.952000021934509277
-3.22399997711181641 11.4340000152587891 -0.892000019550323486
-3.27687335014343262 11.4677972793579102 -0.836449742317199707
-3.27300000190734863 11.5220003128051758 -0.927999973297119141
-3.21600008010864258 11.4639997482299805 -0.88200002908706665
-3.19700789451599121 11.4439897537231445 -0.917026817798614502
-3.22399997711181641 11.4379997253417969 -0.995000004768371582
-3.20009875297546387 11.4386968612670898 -0.900272548198699951
-3.21565437316894531 11.4429807662963867 -0.981724262237548828
-3.28200006484985352 11.4779996871948242 -0.892000019550323486
-3.22000002861022949 11.4280004501342773 -0.889999985694885254
-3.23338079452514648 11.4609785079956055 -0.894327998161315918
-3.20199990272521973 11.4530000686645508 -0.897000014781951904
-3.2073211669921875 11.4210195541381836 -0.988294780254364014
-3.27915549278259277 11.5489253997802734 -0.885129451751708984
-3.31800007820129395 11.4779996871948242 -0.907999992370605469
-3.29399991035461426 11.5019998550415039 -0.907999992370605469
-3.27500009536743164 11.5200004577636719 -0.935000002384185791
-3.24279093742370605 11.5987215042114258 -0.905339062213897705
-3.31999993324279785 11.4650001525878906 -0.972000002861022949
-3.24900007247924805 11.5659999847412109 -0.929000020027160645
-3.20300006866455078 11.4519996643066406 -0.90700000524520874
-3.29800009727478027 11.4770002365112305 -0.93599998950958252
-3.32800006866455078 11.4709997177124023 -0.941999971866607666
-3.302001953125 11.512181282043457 -0.952139496803283691
-3.3059999942779541 11.4879999160766602 -0.93900001049041748
-3.32292294502258301 11.4586162567138672 -0.961560487747192383
-3.28348731994628906 11.4732904434204102 -0.975257396697998047
-3.27500009536743164 11.4910001754760742 -0.958000004291534424
-3.27649474143981934 11.5045652389526367 -0.953621327877044678
-3.28399991989135742 11.5120000839233398 -0.954999983310699463
-3.2970585823059082 11.5080347061157227 -0.949509859085083008
-3.24799990653991699 11.569000244140625 -0.902000010013580322
-3.22099995613098145 11.4469995498657227 -0.97500002384185791
-3.22600007057189941 11.4460000991821289 -0.888999998569488525
-3.2350001335144043 11.4565000534057617 -1.03550004959106445
-3.27600002288818359 11.4899997711181641 -1.0130000114440918
-3.27242112159729004 11.4739007949829102 -1.02290678024291992
-3.26999998092651367 11.4709997177124023 -1.02999997138977051
-3.2099454402923584 11.4438486099243164 -0.991519927978515625
-3.34599995613098145 11.4540004730224609 -0.926999986171722412
-3.2090001106262207 11.430999755859375 -0.94300001859664917
-3.18800020217895508 11.442500114440918 -1.01250004768371582
-3.19300007820129395 11.4429998397827148 -1.00600004196166992
-3.24200010299682617 11.4469995498657227 -0.962000012397766113
-3.27202558517456055 11.5482749938964844 -0.881355881690979004
-3.18799996376037598 11.4329996109008789 -0.870999991893768311
-3.22110986709594727 11.453120231628418 -0.902288436889648438
-3.19523048400878906 11.4276647567749023 -0.912917613983154297
-3.33800005912780762 11.4510002136230469 -0.93199998140335083
-3.28923988342285156 11.4747400283813477 -0.915557444095611572
-3.27155709266662598 11.5671815872192383 -0.938244640827178955
-3.28399991989135742 11.4860000610351562 -0.912000000476837158
-3.27977919578552246 11.5582351684570312 -0.952103912830352783
-3.34622740745544434 11.4594058990478516 -0.909113466739654541
-3.29500007629394531 11.491999626159668 -0.898999989032745361
-3.26999998092651367 11.560999870300293 -0.925000011920928955
-3.29900002479553223 11.5100002288818359 -0.888999998569488525
-3.29900002479553223 11.5069999694824219 -0.879000008106231689
-3.21900010108947754 11.4399995803833008 -0.994000017642974854
-3.26316308975219727 11.5729560852050781 -0.893961906433105469
-3.20447087287902832 11.4370508193969727 -0.9342193603515625
-3.2960808277130127 11.4980974197387695 -0.931721925735473633
-3.33599996566772461 11.4709997177124023 -0.94300001859664917
-3.35001730918884277 11.449371337890625 -0.931826412677764893
-3.29699993133544922 11.4720001220703125 -0.944999992847442627
-3.27078962326049805 11.5147924423217773 -0.956370770931243896
-3.34113287925720215 11.4710206985473633 -0.945153236389160156
-3.31400012969970703 11.4565000534057617 -0.955999970436096191
-3.28299999237060547 11.4960002899169922 -0.941999971866607666
-3.31999993324279785 11.4729995727539062 -0.93900001049041748
-3.29056882858276367 11.5359039306640625 -0.950263381004333496
-3.25713109970092773 11.6031980514526367 -0.909092843532562256
-3.20099997520446777 11.4270000457763672 -0.991999983787536621
1 1 1
-3.33029890060424805 11.4450092315673828 -0.925033509731292725
-3.29742026329040527 11.5069036483764648 -0.859558224678039551
-3.29190373420715332 11.5031728744506836 -0.88552480936050415
-3.27630186080932617 11.5642614364624023 -0.932523131370544434
-3.22185754776000977 11.4308538436889648 -0.882797598838806152
-3.32899999618530273 11.4729995727539062 -0.952000021934509277
-3.28595590591430664 11.4699783325195312 -0.961947798728942871
-3.31599998474121094 11.4790000915527344 -0.906000018119812012
-3.26299381256103516 11.5859813690185547 -0.89499366283416748
-3.21649980545043945 11.4160003662109375 -0.888499975204467773
-3.30706119537353516 11.5059700012207031 -0.89933311939239502
3 157 191 158 255 255 255
3 191 114 158 255 255 255
3 191 159 114 255 255 255
3 157 113 191 255 255 255
3 192 113 157 255 255 255
3 156 192 157 255 255 255
3 158 118 157 255 255 255
3 159 188 114 255 255 255
3 113 115 191 255 255 255
3 192 75 113 255 255 255
3 157 118 156 255 255 255
3 158 187 118 255 255 255
3 114 159 158 255 255 255
3 191 116 159 255 255 255
3 115 116 191 255 255 255
3 113 117 115 255 255 255
3 113 75 117 255 255 255
3 192 183 75 255 255 255
3 156 183 192 255 255 255
3 156 118 183 255 255 255
3 158 188 187 255 255 255
3 159 189 158 255 255 255
3 159 190 188 255 255 255
3 116 119 159 255 255 255
3 115 120 116 255 255 255
3 117 74 115 255 255 255
3 118 184 183 255 255 255
3 187 184 118 255 255 255
3 188 185 187 255 255 255
3 189 185 158 255 255 255
3 159 273 189 255 255 255
3 190 189 188 255 255 255
3 119 190 159 255 255 255
3 120 119 116 255 255 255
3 120 89 119 255 255 255
3 74 120 115 255 255 255
3 117 75 74 255 255 255
3 75 183 74 255 255 255
3 183 186 74 255 255 255
3 184 76 183 255 255 255
3 185 184 187 255 255 255
3 185 274 184 255 255 255
3 185 184 158 255 255 255
3 189 274 185 255 255 255
3 159 77 273 255 255 255
3 119 162 190 255 255 255
3 120 78 89 255 255 255
3 74 87 120 255 255 255
3 186 160 74 255 255 255
3 183 76 186 255 255 255
3 76 274 186 255 255 255
3 184 274 275 255 255 255
3 185 76 184 255 255 255
3 189 164 274 255 255 255
3 77 161 273 255 255 255
3 119 91 162 255 255 255
3 78 208 90 255 255 255
3 87 78 120 255 255 255
3 74 163 87 255 255 255
3 160 163 74 255 255 255
3 186 164 160 255 255 255
3 76 275 274 255 255 255
3 161 165 273 255 255 255
3 77 162 161 255 255 255
3 88 161 162 255 255 255
3 162 91 88 255 255 255
3 119 89 91 255 255 255
3 89 92 91 255 255 255
3 89 90 93 255 255 255
3 90 89 78 255 255 255
3 163 209 87 255 255 255
3 160 40 163 255 255 255
3 164 111 160 255 255 255
3 165 185 273 255 255 255
3 88 94 161 255 255 255
3 91 129 88 255 255 255
3 91 92 129 255 255 255
3 92 95 129 255 255 255
3 89 93 92 255 255 255
3 93 207 92 255 255 255
3 87 208 78 255 255 255
3 163 40 209 255 255 255
3 160 111 40 255 255 255
3 111 112 40 255 255 255
3 94 165 161 255 255 255
3 95 210 129 255 255 255
3 207 211 92 255 255 255
3 93 90 207 255 255 255
3 90 212 207 255 255 255
3 208 263 90 255 255 255
3 87 209 208 255 255 255
3 209 213 208 255 255 255
3 209 40 213 255 255 255
3 112 31 40 255 255 255
3 94 112 165 255 255 255
3 88 214 94 255 255 255
3 210 88 129 255 255 255
3 92 261 95 255 255 255
3 211 108 92 255 255 255
3 207 317 211 255 255 255
3 212 228 207 255 255 255
3 90 228 212 255 255 255
3 90 263 228 255 255 255
3 213 256 208 255 255 255
3 112 274 165 255 255 255
3 94 56 112 255 255 255
3 88 210 214 255 255 255
3 210 265 214 255 255 255
3 95 261 210 255 255 255
3 92 108 261 255 255 255
3 211 262 108 255 255 255
3 207 228 317 255 255 255
3 213 263 256 255 255 255
3 94 264 56 255 255 255
3 214 264 94 255 255 255
3 210 266 265 255 255 255
3 216 266 210 255 255 255
3 216 303 266 255 255 255
3 210 267 216 255 255 255
3 210 261 267 255 255 255
3 261 268 267 255 255 255
3 262 61 108 255 255 255
3 211 62 262 255 255 255
3 263 304 228 255 255 255
3 213 305 263 255 255 255
3 264 40 56 255 255 255
3 214 134 264 255 255 255
3 265 67 214 255 255 255
3 266 69 265 255 255 255
3 216 23 303 255 255 255
3 216 70 23 255 255 255
3 267 86 216 255 255 255
3 268 306 267 255 255 255
3 61 299 108 255 255 255
3 262 42 61 255 255 255
3 62 307 262 255 255 255
3 211 63 62 255 255 255
3 304 63 228 255 255 255
3 263 64 304 255 255 255
3 263 65 64 255 255 255
3 305 65 263 255 255 255
3 305 66 65 255 255 255
3 213 66 305 255 255 255
3 214 67 134 255 255 255
3 265 68 67 255 255 255
3 266 306 69 255 255 255
3 216 86 70 255 255 255
3 267 308 86 255 255 255
3 306 266 267 255 255 255
3 268 22 306 255 255 255
3 61 223 299 255 255 255
3 262 259 42 255 255 255
3 307 259 262 255 255 255
3 307 206 259 255 255 255
3 62 60 307 255 255 255
3 63 300 62 255 255 255
3 63 317 228 255 255 255
3 64 301 304 255 255 255
3 65 260 64 255 255 255
3 66 302 65 255 255 255
3 213 19 66 255 255 255
3 67 68 134 255 255 255
3 68 20 134 255 255 255
3 69 68 265 255 255 255
3 69 21 68 255 255 255
3 306 21 69 255 255 255
3 306 22 21 255 255 255
3 70 24 23 255 255 255
3 86 215 70 255 255 255
3 266 303 267 255 255 255
3 303 70 267 255 255 255
3 268 299 22 255 255 255
3 215 86 308 255 255 255
3 308 139 215 255 255 255
3 299 268 108 255 255 255
3 259 206 42 255 255 255
3 62 43 60 255 255 255
3 300 260 62 255 255 255
3 63 304 300 255 255 255
3 304 218 300 255 255 255
3 301 277 304 255 255 255
3 64 286 301 255 255 255
3 260 300 64 255 255 255
3 307 260 65 255 255 255
3 65 217 307 255 255 255
3 302 217 65 255 255 255
3 66 18 302 255 255 255
3 18 140 302 255 255 255
3 66 19 18 255 255 255
3 19 318 18 255 255 255
3 213 264 19 255 255 255
3 20 140 134 255 255 255
3 68 21 20 255 255 255
3 21 125 20 255 255 255
3 22 143 21 255 255 255
3 23 25 303 255 255 255
3 23 26 25 255 255 255
3 24 26 23 255 255 255
3 70 141 290 255 255 255
3 215 141 70 255 255 255
3 303 25 70 255 255 255
3 25 26 70 255 255 255
3 26 141 70 255 255 255
3 27 143 22 255 255 255
3 22 44 27 255 255 255
3 299 101 22 255 255 255
3 139 141 215 255 255 255
3 308 171 139 255 255 255
3 42 287 61 255 255 255
3 43 252 60 255 255 255
3 62 218 43 255 255 255
3 304 219 218 255 255 255
3 286 219 301 255 255 255
3 64 45 286 255 255 255
3 217 206 307 255 255 255
3 302 20 217 255 255 255
3 18 318 140 255 255 255
3 19 264 318 255 255 255
3 140 318 134 255 255 255
3 24 290 26 255 255 255
3 141 139 70 255 255 255
3 27 144 143 255 255 255
3 44 220 27 255 255 255
3 22 46 44 255 255 255
3 299 46 101 255 255 255
3 261 108 268 255 255 255
3 287 289 61 255 255 255
3 42 206 287 255 255 255
3 43 48 252 255 255 255
3 218 145 43 255 255 255
3 62 260 218 255 255 255
3 219 145 218 255 255 255
3 301 49 277 255 255 255
3 219 221 301 255 255 255
3 286 312 219 255 255 255
3 45 312 286 255 255 255
3 20 125 217 255 255 255
3 302 237 20 255 255 255
3 264 134 318 255 255 255
3 142 125 143 255 255 255
3 288 222 26 255 255 255
3 26 290 288 255 255 255
3 26 51 141 255 255 255
3 143 144 142 255 255 255
3 144 246 142 255 255 255
3 220 169 27 255 255 255
3 44 153 220 255 255 255
3 46 223 44 255 255 255
3 61 322 223 255 255 255
3 47 322 61 255 255 255
3 47 292 322 255 255 255
3 289 253 61 255 255 255
3 287 142 289 255 255 255
3 217 287 42 255 255 255
3 48 319 252 255 255 255
3 145 291 43 255 255 255
3 218 277 145 255 255 255
3 49 145 277 255 255 255
3 221 49 301 255 255 255
3 45 50 312 255 255 255
3 142 55 125 255 255 255
3 142 84 55 255 255 255
3 222 224 26 255 255 255
3 288 293 222 255 255 255
3 290 51 288 255 255 255
3 26 106 51 255 255 255
3 144 292 246 255 255 255
3 223 153 44 255 255 255
3 223 179 153 255 255 255
3 223 322 179 255 255 255
3 47 289 292 255 255 255
3 289 144 253 255 255 255
3 287 84 142 255 255 255
3 217 125 287 255 255 255
3 48 47 319 255 255 255
3 291 126 43 255 255 255
3 221 147 49 255 255 255
3 221 146 147 255 255 255
3 146 221 312 255 255 255
3 50 146 312 255 255 255
3 45 60 50 255 255 255
3 224 83 26 255 255 255
3 222 240 224 255 255 255
3 51 315 288 255 255 255
3 290 141 51 255 255 255
3 51 293 315 255 255 255
3 26 83 106 255 255 255
3 83 226 106 255 255 255
3 322 294 179 255 255 255
3 292 314 322 255 255 255
3 289 142 292 255 255 255
3 144 27 253 255 255 255
3 27 148 253 255 255 255
3 287 125 55 255 255 255
3 291 52 126 255 255 255
3 291 49 52 255 255 255
3 147 5 49 255 255 255
3 50 147 146 255 255 255
3 45 307 60 255 255 255
3 45 260 307 255 255 255
3 224 254 83 255 255 255
3 240 169 224 255 255 255
3 222 106 240 255 255 255
3 293 193 222 255 255 255
3 288 58 293 255 255 255
3 83 240 226 255 255 255
3 294 153 179 255 255 255
3 322 295 294 255 255 255
3 322 314 295 255 255 255
3 148 85 253 255 255 255
3 27 101 148 255 255 255
3 52 147 126 255 255 255
3 50 126 147 255 255 255
3 293 154 193 255 255 255
3 315 58 288 255 255 255
3 315 4 58 255 255 255
3 240 220 226 255 255 255
3 295 155 294 255 255 255
3 52 5 147 255 255 255
3 50 252 126 255 255 255
3 154 58 193 255 255 255
3 293 30 154 255 255 255
3 315 197 4 255 255 255
3 240 254 220 255 255 255
3 148 294 85 255 255 255
3 5 52 49 255 255 255
3 308 86 83 255 255 255
3 58 4 193 255 255 255
3 30 194 154 255 255 255
3 193 197 315 255 255 255
3 193 79 197 255 255 255
3 240 83 254 255 255 255
3 295 313 155 255 255 255
3 294 314 85 255 255 255
3 79 297 197 255 255 255
3 193 166 79 255 255 255
3 6 58 4 255 255 255
3 197 297 4 255 255 255
3 79 251 297 255 255 255
3 314 313 295 255 255 255
3 294 155 314 255 255 255
3 155 313 314 255 255 255
3 6 154 58 255 255 255
3 251 28 297 255 255 255
3 251 282 28 255 255 255
3 79 166 251 255 255 255
3 154 257 58 255 255 255
3 6 173 154 255 255 255
3 28 320 297 255 255 255
3 282 32 28 255 255 255
3 251 167 282 255 255 255
3 154 236 257 255 255 255
3 6 170 173 255 255 255
3 28 133 320 255 255 255
3 282 37 32 255 255 255
3 251 102 167 255 255 255
3 170 236 173 255 255 255
3 282 167 37 255 255 255
3 251 166 102 255 255 255
3 170 152 236 255 255 255
3 170 255 152 255 255 255
3 6 177 170 255 255 255
3 166 194 102 255 255 255
3 177 176 170 255 255 255
3 194 37 102 255 255 255
3 170 309 255 255 255 255
3 133 33 320 255 255 255
3 37 167 102 255 255 255
3 194 269 37 255 255 255
3 170 173 309 255 255 255
3 177 320 176 255 255 255
3 33 176 320 255 255 255
3 33 309 176 255 255 255
3 133 255 33 255 255 255
3 133 109 255 255 255 255
3 269 34 37 255 255 255
3 194 121 269 255 255 255
3 109 34 255 255 255 255
3 309 33 255 255 255 255
3 177 109 320 255 255 255
3 34 133 37 255 255 255
3 121 0 269 255 255 255
3 194 30 121 255 255 255
3 109 297 320 255 255 255
3 109 269 297 255 255 255
3 133 28 37 255 255 255
3 269 17 34 255 255 255
3 30 257 121 255 255 255
3 34 0 255 255 255 255
3 109 170 269 255 255 255
3 0 152 255 255 255 255
3 34 17 0 255 255 255
3 149 39 150 255 255 255
3 150 122 149 255 255 255
3 122 53 149 255 255 255
3 150 316 122 255 255 255
3 39 135 150 255 255 255
3 149 29 39 255 255 255
3 150 229 316 255 255 255
3 39 71 135 255 255 255
3 149 205 29 255 255 255
3 205 3 29 255 255 255
3 149 97 205 255 255 255
3 53 151 149 255 255 255
3 172 122 316 255 255 255
3 316 321 172 255 255 255
3 229 135 316 255 255 255
3 150 201 229 255 255 255
3 71 96 135 255 255 255
3 39 174 71 255 255 255
3 3 284 29 255 255 255
3 205 12 3 255 255 255
3 201 103 149 255 255 255
3 149 175 201 255 255 255
3 53 244 151 255 255 255
3 135 130 316 255 255 255
3 229 271 135 255 255 255
3 96 130 135 255 255 255
3 71 241 96 255 255 255
3 174 241 71 255 255 255
3 174 175 241 255 255 255
3 284 271 29 255 255 255
3 12 136 3 255 255 255
3 97 258 205 255 255 255
3 201 150 103 255 255 255
3 150 122 103 255 255 255
3 149 35 175 255 255 255
3 151 35 149 255 255 255
3 151 136 35 255 255 255
3 53 39 244 255 255 255
3 229 8 271 255 255 255
3 229 96 8 255 255 255
3 201 241 229 255 255 255
3 96 227 130 255 255 255
3 241 248 96 255 255 255
3 175 2 241 255 255 255
3 174 201 175 255 255 255
3 174 36 201 255 255 255
3 3 98 284 255 255 255
3 136 258 3 255 255 255
3 12 175 136 255 255 255
3 205 29 123 255 255 255
3 122 283 103 255 255 255
3 39 233 244 255 255 255
3 8 130 271 255 255 255
3 201 36 241 255 255 255
3 231 72 130 255 255 255
3 227 231 130 255 255 255
3 241 105 248 255 255 255
3 175 137 2 255 255 255
3 98 38 284 255 255 255
3 258 98 3 255 255 255
3 258 242 98 255 255 255
3 12 36 175 255 255 255
3 283 149 103 255 255 255
3 283 104 149 255 255 255
3 123 97 151 255 255 255
3 151 244 123 255 255 255
3 233 285 244 255 255 255
3 8 227 130 255 255 255
3 137 249 2 255 255 255
3 284 38 105 255 255 255
3 242 298 98 255 255 255
3 12 249 36 255 255 255
3 104 35 149 255 255 255
3 285 234 244 255 255 255
3 98 99 38 255 255 255
3 298 99 98 255 255 255
3 298 168 99 255 255 255
3 242 234 298 255 255 255
3 234 242 244 255 255 255
3 233 41 285 255 255 255
3 227 105 231 255 255 255
3 105 227 248 255 255 255
3 285 235 234 255 255 255
3 225 238 72 255 255 255
3 38 72 105 255 255 255
3 38 99 73 255 255 255
3 99 80 73 255 255 255
3 234 235 298 255 255 255
3 242 205 244 255 255 255
3 41 232 285 255 255 255
3 225 247 238 255 255 255
3 72 73 225 255 255 255
3 231 105 72 255 255 255
3 73 72 38 255 255 255
3 235 278 298 255 255 255
3 80 298 234 255 255 255
3 234 232 80 255 255 255
3 41 225 232 255 255 255
3 225 41 247 255 255 255
3 41 321 247 255 255 255
3 247 316 238 255 255 255
3 73 232 225 255 255 255
3 99 178 80 255 255 255
3 99 9 230 255 255 255
3 9 1 230 255 255 255
3 168 9 99 255 255 255
3 298 178 168 255 255 255
3 232 73 80 255 255 255
3 41 172 321 255 255 255
3 178 278 80 255 255 255
3 99 230 178 255 255 255
3 9 245 1 255 255 255
3 168 57 9 255 255 255
3 168 124 57 255 255 255
3 124 1 57 255 255 255
3 41 233 172 255 255 255
3 9 81 245 255 255 255
3 57 81 9 255 255 255
3 57 138 81 255 255 255
3 1 276 57 255 255 255
3 178 124 278 255 255 255
3 230 181 178 255 255 255
3 1 181 230 255 255 255
3 138 276 81 255 255 255
3 245 13 1 255 255 255
3 81 276 245 255 255 255
3 13 250 1 255 255 255
3 245 243 13 255 255 255
3 270 296 245 255 255 255
3 245 181 270 255 255 255
3 276 296 245 255 255 255
3 1 195 276 255 255 255
3 296 13 245 255 255 255
3 276 82 296 255 255 255
3 1 310 195 255 255 255
3 243 199 13 255 255 255
3 82 110 296 255 255 255
3 195 196 276 255 255 255
3 1 250 310 255 255 255
3 82 200 110 255 255 255
3 276 196 82 255 255 255
3 196 203 82 255 255 255
3 195 279 196 255 255 255
3 310 198 195 255 255 255
3 198 310 250 255 255 255
3 250 199 198 255 255 255
3 199 250 13 255 255 255
3 200 243 110 255 255 255
3 82 203 200 255 255 255
3 198 127 195 255 255 255
3 199 202 198 255 255 255
3 202 204 198 255 255 255
3 199 200 202 255 255 255
3 243 245 110 255 255 255
3 200 127 243 255 255 255
3 203 7 200 255 255 255
3 204 128 203 255 255 255
3 203 279 204 255 255 255
3 196 279 203 255 255 255
3 200 7 202 255 255 255
3 204 11 128 255 255 255
3 203 280 279 255 255 255
3 202 7 204 255 255 255
3 7 11 204 255 255 255
3 203 195 280 255 255 255
3 7 131 11 255 255 255
3 10 131 7 255 255 255
3 10 132 131 255 255 255
3 7 180 10 255 255 255
3 11 14 128 255 255 255
3 10 14 132 255 255 255
3 7 203 180 255 255 255
3 14 180 128 255 255 255
3 14 11 132 255 255 255
3 15 182 16 255 255 255
3 16 272 15 255 255 255
3 272 182 15 255 255 255
3 272 16 182 255 255 255
3 59 100 54 255 255 255
3 54 239 59 255 255 255
3 59 239 100 255 255 255
3 100 239 54 255 255 255
3 107 270 281 255 255 255
3 311 311 311 255 255 255
