ply
format ascii 1.0
element vertex 300
property float x
property float y
property float z
element face 576
property list uchar int vertex_indices
property uchar red
property uchar green
property uchar blue
end_header
-1.3609999418258667 0.209000006318092346 -1.00399994850158691
-1.31500005722045898 0.158000007271766663 -1.01999998092651367
-1.37699997425079346 0.206000000238418579 -1.01199996471405029
-1.37899994850158691 0.209999993443489075 -1.00699996948242188
-1.43900001049041748 0.148000001907348633 -1.03499996662139893
-1.33099997043609619 0.189999997615814209 -0.954999983310699463
-1.34300005435943604 0.194999992847442627 -0.936999976634979248
-1.36600005626678467 0.185000002384185791 -0.936999976634979248
-1.35399997234344482 0.189999997615814209 -0.93199998140335083
-1.35599994659423828 0.203999996185302734 -0.96399998664855957
-1.34700000286102295 0.185000002384185791 -0.936999976634979248
-1.35800004005432129 0.197999998927116394 -1.02699995040893555
-1.30200004577636719 0.151999995112419128 -1.02600002288818359
-1.38499999046325684 0.182999998331069946 -1.01699995994567871
-1.35800004005432129 0.167999997735023499 -0.958999991416931152
-1.30299997329711914 0.142000004649162292 -1.01900005340576172
-1.3760000467300415 0.177000001072883606 -1.0140000581741333
-1.31500005722045898 0.165000006556510925 -1.02600002288818359
-1.37199997901916504 0.202000007033348083 -0.99299997091293335
-1.37300002574920654 0.206000000238418579 -0.976000010967254639
-1.37899994850158691 0.192000001668930054 -0.987999975681304932
-1.375 0.178000003099441528 -0.996999979019165039
-1.36600005626678467 0.204999998211860657 -0.982999980449676514
-1.37100005149841309 0.210999995470046997 -0.973999977111816406
-1.37999999523162842 0.195999994874000549 -0.972000002861022949
-1.37800002098083496 0.192000001668930054 -0.984000027179718018
-1.3760000467300415 0.193000003695487976 -0.97500002384185791
-1.37000000476837158 0.180000007152557373 -0.986000001430511475
-1.36899995803833008 0.182999998331069946 -0.93900001049041748
-1.33599996566772461 0.184000000357627869 -0.957000017166137695
-1.33099997043609619 0.188999995589256287 -0.950999975204467773
-1.34700000286102295 0.197999998927116394 -0.936999976634979248
-1.35800004005432129 0.197999998927116394 -0.938000023365020752
-1.44200003147125244 0.123999997973442078 -1.02100002765655518
-1.38699996471405029 0.202000007033348083 -1.02499997615814209
-1.38600003719329834 0.193000003695487976 -1.00399994850158691
-1.39900004863739014 0.184000000357627869 -1.0140000581741333
-1.3880000114440918 0.197999998927116394 -1.03600001335144043
-1.42599999904632568 0.165999993681907654 -1.02999997138977051
-1.42200005054473877 0.166999995708465576 -1.01999998092651367
-1.44299995899200439 0.138999998569488525 -1.0140000581741333
-1.4570000171661377 0.14100000262260437 -1.01699995994567871
-1.45599997043609619 0.149000003933906555 -1.03699994087219238
-1.44200003147125244 0.166999995708465576 -1.04200005531311035
-1.44099998474121094 0.15700000524520874 -1.02400004863739014
-1.31700003147125244 0.158999994397163391 -1.02600002288818359
-1.3890000581741333 0.194000005722045898 -1.00800001621246338
-1.34200000762939453 0.202000007033348083 -0.958000004291534424
-1.35000002384185791 0.201000005006790161 -0.962999999523162842
-1.35500001907348633 0.202999994158744812 -0.958000004291534424
-1.36899995803833008 0.201000005006790161 -0.948000013828277588
-1.36899995803833008 0.182999998331069946 -0.955999970436096191
-1.37100005149841309 0.178000003099441528 -0.953000009059906006
-1.35800004005432129 0.189999997615814209 -1.02199995517730713
-1.37000000476837158 0.172999992966651917 -0.958999991416931152
-1.35500001907348633 0.172999992966651917 -0.96399998664855957
-1.34200000762939453 0.175999999046325684 -0.977999985218048096
-1.39199995994567871 0.175999999046325684 -1.00399994850158691
-1.35099995136260986 0.178000003099441528 -0.982999980449676514
-1.36000001430511475 0.182999998331069946 -0.935000002384185791
-1.35300004482269287 0.182999998331069946 -0.93199998140335083
-1.44200003147125244 0.153999999165534973 -1.03400003910064697
-1.45000004768371582 0.149000003933906555 -1.02999997138977051
-1.42949998378753662 0.170500010251998901 -1.04399991035461426
-1.42499995231628418 0.165999993681907654 -1.03499996662139893
-1.42700004577636719 0.156000003218650818 -1.02300000190734863
-1.44596230983734131 0.147005394101142883 -1.01198482513427734
-1.45500004291534424 0.151999995112419128 -1.03699994087219238
-1.44900000095367432 0.13500000536441803 -1.01999998092651367
-1.39600002765655518 0.192000001668930054 -1.0140000581741333
-1.39499998092651367 0.187999993562698364 -1.00999999046325684
-1.38600003719329834 0.185000002384185791 -1.02699995040893555
-1.43700003623962402 0.131999999284744263 -1.03499996662139893
-1.35994863510131836 0.179993405938148499 -1.02907252311706543
-1.38499999046325684 0.196999996900558472 -0.995999991893768311
-1.38600003719329834 0.186000004410743713 -0.998000025749206543
-1.45200002193450928 0.13500000536441803 -1.02199995517730713
-1.38399994373321533 0.187999993562698364 -0.995999991893768311
-1.39300000667572021 0.174999997019767761 -0.996999979019165039
-1.37899994850158691 0.196999996900558472 -0.987999975681304932
-1.38100004196166992 0.194000005722045898 -0.99299997091293335
-1.37899994850158691 0.182999998331069946 -0.987999975681304932
-1.38300001621246338 0.177000001072883606 -0.999000012874603271
-1.36399996280670166 0.209999993443489075 -0.994000017642974854
-1.31700003147125244 0.152999997138977051 -1.01199996471405029
-1.34000003337860107 0.177000001072883606 -0.945999979972839355
-1.45399999618530273 0.14100000262260437 -1.03499996662139893
-1.35599994659423828 0.187000006437301636 -1.00800001621246338
-1.34700000286102295 0.172000005841255188 -0.935000002384185791
-1.31500005722045898 0.150999993085861206 -1.00899994373321533
-1.31099998950958252 0.164000004529953003 -1.00699996948242188
-1.31700003147125244 0.168999999761581421 -1.01800000667572021
-1.43400001525878906 0.164000004529953003 -1.04400002956390381
-1.29600000381469727 0.150000005960464478 -1.0140000581741333
-1.31500005722045898 0.174999997019767761 -1.02199995517730713
-1.39499998092651367 0.195999994874000549 -1.02400004863739014
-1.39999997615814209 0.192000001668930054 -1.01499998569488525
-1.39600002765655518 0.180000007152557373 -1.02300000190734863
-1.39900004863739014 0.175999999046325684 -1.02300000190734863
-1.44900000095367432 0.150000005960464478 -1.03600001335144043
-1.38600003719329834 0.195999994874000549 -1.03299999237060547
-1.43499994277954102 0.15700000524520874 -1.03699994087219238
-1.43149995803833008 0.171999990940093994 -1.03799998760223389
-1.43299996852874756 0.165999993681907654 -1.02699995040893555
-1.43599998950958252 0.162000000476837158 -1.02699995040893555
-1.36500000953674316 0.189999997615814209 -1.04100000858306885
-1.36399996280670166 0.166999995708465576 -0.947000026702880859
-1.3609999418258667 0.166999995708465576 -0.953999996185302734
-1.34300005435943604 0.180999994277954102 -0.959999978542327881
-1.34700000286102295 0.185000002384185791 -0.985000014305114746
-1.34700000286102295 0.185000002384185791 -0.981999993324279785
-1.4364999532699585 0.172499999403953552 -1.04250001907348633
-1.37300002574920654 0.179000005125999451 -1.02300000190734863
-1.35800004005432129 0.184000000357627869 -1.03900003433227539
-1.36000001430511475 0.179000005125999451 -1.03299999237060547
-1.43700003623962402 0.160999998450279236 -1.03999996185302734
-1.35500001907348633 0.209999993443489075 -1.00600004196166992
-1.36800003051757812 0.214000001549720764 -1.00699996948242188
-1.35899996757507324 0.185000002384185791 -1.00699996948242188
-1.35800004005432129 0.165999993681907654 -0.949999988079071045
-1.35199999809265137 0.165999993681907654 -0.953000009059906006
-1.34899997711181641 0.165000006556510925 -0.944000005722045898
-1.34200000762939453 0.174999997019767761 -0.947000026702880859
-1.36000001430511475 0.188999995589256287 -0.935000002384185791
-1.45299994945526123 0.143000006675720215 -1.03699994087219238
-1.30999994277954102 0.152999997138977051 -1.00899994373321533
-1.31500005722045898 0.175999999046325684 -1.02499997615814209
-1.43299996852874756 0.152999997138977051 -1.03299999237060547
-1.36300003528594971 0.178000003099441528 -0.994000017642974854
-1.35800004005432129 0.181999996304512024 -1.04100000858306885
-1.35199999809265137 0.204999998211860657 -0.999000012874603271
-1.3619999885559082 0.209000006318092346 -0.976999998092651367
-1.35899996757507324 0.210999995470046997 -0.967000007629394531
-1.3739999532699585 0.197999998927116394 -0.964999973773956299
-1.37100005149841309 0.186000004410743713 -0.961000025272369385
-1.37199997901916504 0.185000002384185791 -0.966000020503997803
-1.36699998378753662 0.180999994277954102 -0.976000010967254639
-1.36800003051757812 0.179000005125999451 -0.987999975681304932
-1.34099996089935303 0.192000001668930054 -0.96799999475479126
-1.36699998378753662 0.192999988794326782 -0.939499974250793457
-1.35399997234344482 0.168999999761581421 -0.93199998140335083
-1.34500002861022949 0.168999999761581421 -0.936999976634979248
-1.34099996089935303 0.196999996900558472 -0.949999988079071045
-1.34800004959106445 0.164000004529953003 -0.938000023365020752
-1.43799996376037598 0.167999997735023499 -1.04799997806549072
-1.43599998950958252 0.163000002503395081 -1.05099999904632568
-1.43299996852874756 0.140000000596046448 -1.02100002765655518
-1.44200003147125244 0.13500000536441803 -1.01699995994567871
-1.37999999523162842 0.195999994874000549 -1.04400002956390381
-1.3739999532699585 0.190999999642372131 -1.04600000381469727
-1.30099999904632568 0.167999997735023499 -1.00999999046325684
-1.3059999942779541 0.163000002503395081 -1.02600002288818359
-1.3219980001449585 0.172008052468299866 -1.01700305938720703
-1.35000002384185791 0.177000001072883606 -0.930000007152557373
-1.42799997329711914 0.167999997735023499 -1.03349995613098145
-1.42799997329711914 0.165999993681907654 -1.02600002288818359
-1.42299997806549072 0.156000003218650818 -1.0140000581741333
-1.42900002002716064 0.150999993085861206 -1.01199996471405029
-1.45096707344055176 0.145003199577331543 -1.01599466800689697
-1.45500004291534424 0.148000001907348633 -1.03100001811981201
-1.4570000171661377 0.151999995112419128 -1.03900003433227539
-1.43400001525878906 0.149000003933906555 -1.03299999237060547
-1.4299999475479126 0.165999993681907654 -1.04100000858306885
-1.44299995899200439 0.138999998569488525 -1.03499996662139893
-1.36800003051757812 0.190999999642372131 -0.950999975204467773
-1.43799996376037598 0.161500006914138794 -1.03349995613098145
-1.39100003242492676 0.182999998331069946 -1.02199995517730713
-1.36899995803833008 0.178000003099441528 -1.02900004386901855
-1.37349998950958252 0.194499999284744263 -1.04499995708465576
-1.37000000476837158 0.190999999642372131 -1.03799998760223389
-1.36699998378753662 0.182999998331069946 -1.02300000190734863
-1.3619999885559082 0.206000000238418579 -1.0140000581741333
-1.34700000286102295 0.201000005006790161 -1.00199997425079346
-1.34300005435943604 0.196999996900558472 -0.944999992847442627
-1.34850001335144043 0.171000003814697266 -0.954500019550323486
-1.35000002384185791 0.165000006556510925 -0.939999997615814209
-1.38100004196166992 0.185000002384185791 -1.02900004386901855
-1.35099995136260986 0.185000002384185791 -0.994000017642974854
-1.36500000953674316 0.194000005722045898 -0.93599998950958252
-1.35800004005432129 0.175999999046325684 -0.934000015258789062
-1.33299994468688965 0.180000007152557373 -0.941999971866607666
-1.35800004005432129 0.194999992847442627 -0.936999976634979248
-1.34000003337860107 0.180999994277954102 -0.940999984741210938
-1.43299996852874756 0.174999997019767761 -1.04900002479553223
-1.35899996757507324 0.193000003695487976 -1.02699995040893555
-1.35500001907348633 0.193000003695487976 -1.0130000114440918
-1.30099999904632568 0.151999995112419128 -1.02300000190734863
-1.34200000762939453 0.179000005125999451 -0.952499985694885254
-1.43400001525878906 0.140000000596046448 -1.03400003910064697
-1.42200005054473877 0.15700000524520874 -1.03100001811981201
-1.43400001525878906 0.143999993801116943 -1.01499998569488525
-1.44799995422363281 0.136000007390975952 -1.01800000667572021
-1.45399999618530273 0.140000000596046448 -1.02900004386901855
-1.3890000581741333 0.179000005125999451 -1.01100003719329834
-1.39100003242492676 0.190999999642372131 -1.02699995040893555
-1.39800000190734863 0.187999993562698364 -1.02699995040893555
-1.37999999523162842 0.209999993443489075 -1.00399994850158691
-1.42549991607666016 0.163000002503395081 -1.03649997711181641
-1.30200004577636719 0.159999996423721313 -1.00499999523162842
-1.43900001049041748 0.152999997138977051 -1.01800000667572021
-1.3760000467300415 0.178000003099441528 -1.00999999046325684
-1.36399996280670166 0.182999998331069946 -1.0010000467300415
-1.37199997901916504 0.189999997615814209 -1.03499996662139893
-1.33899998664855957 0.197999998927116394 -0.959999978542327881
-1.34000003337860107 0.188999995589256287 -0.962000012397766113
-1.43599998950958252 0.166999995708465576 -1.03499996662139893
-1.39999997615814209 0.185000002384185791 -1.02300000190734863
-1.3880000114440918 0.185000002384185791 -1.00199997425079346
-1.45299994945526123 0.134000003337860107 -1.02799999713897705
-1.37100005149841309 0.180000007152557373 -1.00300002098083496
-1.37150001525878906 0.180000007152557373 -1.01699995994567871
-1.37000000476837158 0.177000001072883606 -0.933000028133392334
-1.3059999942779541 0.150000005960464478 -1.00999999046325684
-1.42799997329711914 0.162000000476837158 -1.01100003719329834
-1.43400001525878906 0.134000003337860107 -1.02699995040893555
-1.34899997711181641 0.206000000238418579 -0.948000013828277588
-1.33099997043609619 0.192000001668930054 -0.940999984741210938
-1.33599996566772461 0.187000006437301636 -0.940999984741210938
-1.34899997711181641 0.182999998331069946 -0.935000002384185791
-1.34300005435943604 0.182999998331069946 -0.962999999523162842
-1.42799997329711914 0.153999999165534973 -1.02799999713897705
-1.38699996471405029 0.200000002980232239 -1.03900003433227539
-1.37100005149841309 0.204999998211860657 -1.01600003242492676
-1.36600005626678467 0.181999996304512024 -1.01100003719329834
-1.32200002670288086 0.158999994397163391 -1.00999999046325684
-1.30900001525878906 0.150000005960464478 -1.01900005340576172
-1.44099998474121094 0.13099999725818634 -1.03199994564056396
-1.3890000581741333 0.209999993443489075 -1.0130000114440918
-1.39699995517730713 0.177000001072883606 -1.0130000114440918
-1.30400002002716064 0.153999999165534973 -1.00999999046325684
-1.37999999523162842 0.181999996304512024 -0.991999983787536621
-1.36400437355041504 0.177004426717758179 -0.971990466117858887
-1.35699999332427979 0.172999992966651917 -0.981999993324279785
-1.35300004482269287 0.175999999046325684 -0.985000014305114746
-1.35399997234344482 0.180999994277954102 -0.998000025749206543
-1.43700003623962402 0.136000007390975952 -1.03499996662139893
-1.3619999885559082 0.196999996900558472 -1.03999996185302734
-1.3609999418258667 0.187000006437301636 -1.02199995517730713
-1.34700000286102295 0.196999996900558472 -0.990999996662139893
-1.35800004005432129 0.208000004291534424 -1.02699995040893555
-1.34599995613098145 0.200000002980232239 -0.968999981880187988
-1.34399998188018799 0.187999993562698364 -0.93900001049041748
-1.30999994277954102 0.148499995470046997 -1.01450002193450928
1 1 1
-1.3739999532699585 0.211999997496604919 -1
-1.37999999523162842 0.209999993443489075 -1
-1.35500001907348633 0.189999997615814209 -1.0010000467300415
-1.30400002002716064 0.167999997735023499 -1.00499999523162842
-1.42299997806549072 0.158999994397163391 -1.02999997138977051
-1.35300004482269287 0.208000004291534424 -0.940999984741210938
-1.37000000476837158 0.194000005722045898 -0.944999992847442627
-1.34099996089935303 0.199000000953674316 -0.953000009059906006
-1.36699998378753662 0.166999995708465576 -0.93599998950958252
-1.35949993133544922 0.166999995708465576 -0.944499969482421875
-1.34399998188018799 0.171000003814697266 -0.941999971866607666
-1.37199997901916504 0.202000007033348083 -1.04200005531311035
-1.38499999046325684 0.184000000357627869 -1.02199995517730713
-1.36800003051757812 0.207000002264976501 -1.0140000581741333
-1.4299999475479126 0.172999992966651917 -1.04999995231628418
-1.30900001525878906 0.148000001907348633 -1.00899994373321533
-1.38399994373321533 0.200000002980232239 -1.03100001811981201
-1.43799996376037598 0.126000002026557922 -1.01499998569488525
-1.35500001907348633 0.199000000953674316 -1.00699996948242188
-1.35099995136260986 0.197999998927116394 -0.934000015258789062
-1.34599995613098145 0.165999993681907654 -0.941999971866607666
-1.37199997901916504 0.202999994158744812 -1.02300000190734863
-1.37300002574920654 0.199000000953674316 -1.04499995708465576
-1.35800004005432129 0.175999999046325684 -0.986000001430511475
-1.34599995613098145 0.201000005006790161 -0.989000022411346436
-1.35699999332427979 0.207000002264976501 -0.972999989986419678
-1.35099995136260986 0.202000007033348083 -0.96799999475479126
-1.36699998378753662 0.209000006318092346 -0.96399998664855957
-1.36699998378753662 0.207000002264976501 -0.961000025272369385
-1.37100005149841309 0.194999992847442627 -0.957000017166137695
-1.37000000476837158 0.182999998331069946 -0.961000025272369385
-1.3739999532699585 0.187000006437301636 -0.984000027179718018
-1.36000001430511475 0.210999995470046997 -1.02600002288818359
-1.43700003623962402 0.143999993801116943 -1.03400003910064697
-1.36800003051757812 0.182999998331069946 -0.952000021934509277
-1.34899997711181641 0.173999994993209839 -0.962999999523162842
-1.34700000286102295 0.182999998331069946 -0.976999998092651367
-1.34899997711181641 0.201000005006790161 -0.934000015258789062
-1.36800003051757812 0.196999996900558472 -0.94300001859664917
-1.4309999942779541 0.129999995231628418 -1.02300000190734863
-1.39900004863739014 0.190999999642372131 -1.02199995517730713
-1.39600002765655518 0.199000000953674316 -1.02999997138977051
-1.40100002288818359 0.187999993562698364 -1.0130000114440918
-1.39300000667572021 0.196999996900558472 -1.0140000581741333
-1.44000005722045898 0.125 -1.02400004863739014
-1.39800000190734863 0.182999998331069946 -1.02799999713897705
-1.44900000095367432 0.134000003337860107 -1.03400003910064697
-1.44299995899200439 0.133000001311302185 -1.03600001335144043
-1.4364999532699585 0.174500003457069397 -1.04699993133544922
-1.39000725746154785 0.207989588379859924 -1.0320051908493042
-1.34300005435943604 0.195999994874000549 -0.985000014305114746
-1.36699998378753662 0.186000004410743713 -0.944000005722045898
-1.30099999904632568 0.149000003933906555 -1.01900005340576172
-1.38249993324279785 0.180500000715255737 -1.0130000114440918
-1.35300004482269287 0.186000004410743713 -0.998000025749206543
-1.43499994277954102 0.133500009775161743 -1.01749992370605469
3 43 111 292 255 255 255
3 292 144 43 255 255 255
3 43 205 111 255 255 255
3 144 145 43 255 255 255
3 111 183 292 255 255 255
3 43 165 205 255 255 255
3 145 115 43 255 255 255
3 144 183 145 255 255 255
3 183 258 292 255 255 255
3 111 102 183 255 255 255
3 205 102 111 255 255 255
3 43 61 165 255 255 255
3 145 101 115 255 255 255
3 205 103 102 255 255 255
3 205 165 103 255 255 255
3 165 104 103 255 255 255
3 44 104 165 255 255 255
3 44 199 104 255 255 255
3 165 61 44 255 255 255
3 61 62 44 255 255 255
3 43 99 61 255 255 255
3 101 61 115 255 255 255
3 102 64 63 255 255 255
3 103 154 102 255 255 255
3 104 65 103 255 255 255
3 44 66 199 255 255 255
3 62 158 44 255 255 255
3 61 67 62 255 255 255
3 43 160 99 255 255 255
3 61 99 115 255 255 255
3 101 277 61 255 255 255
3 63 258 102 255 255 255
3 64 197 63 255 255 255
3 102 154 64 255 255 255
3 103 155 154 255 255 255
3 65 155 103 255 255 255
3 65 156 155 255 255 255
3 66 157 199 255 255 255
3 44 158 66 255 255 255
3 62 159 158 255 255 255
3 62 67 159 255 255 255
3 67 160 159 255 255 255
3 101 161 277 255 255 255
3 197 162 63 255 255 255
3 154 38 64 255 255 255
3 154 155 38 255 255 255
3 155 39 38 255 255 255
3 156 39 155 255 255 255
3 65 199 156 255 255 255
3 157 213 199 255 255 255
3 158 40 66 255 255 255
3 159 41 158 255 255 255
3 160 42 159 255 255 255
3 67 99 160 255 255 255
3 161 188 277 255 255 255
3 101 127 161 255 255 255
3 162 92 63 255 255 255
3 197 92 162 255 255 255
3 197 101 92 255 255 255
3 64 189 197 255 255 255
3 38 248 64 255 255 255
3 39 248 38 255 255 255
3 39 156 248 255 255 255
3 156 189 248 255 255 255
3 65 104 199 255 255 255
3 157 156 213 255 255 255
3 66 190 157 255 255 255
3 40 190 66 255 255 255
3 40 299 190 255 255 255
3 158 41 40 255 255 255
3 41 191 40 255 255 255
3 159 192 41 255 255 255
3 42 86 159 255 255 255
3 160 124 42 255 255 255
3 188 235 277 255 255 255
3 161 220 188 255 255 255
3 101 197 127 255 255 255
3 101 145 92 255 255 255
3 145 63 92 255 255 255
3 189 127 197 255 255 255
3 189 161 127 255 255 255
3 64 248 189 255 255 255
3 156 220 189 255 255 255
3 190 146 157 255 255 255
3 40 261 299 255 255 255
3 191 147 40 255 255 255
3 41 76 191 255 255 255
3 192 208 41 255 255 255
3 159 86 192 255 255 255
3 86 208 192 255 255 255
3 86 290 208 255 255 255
3 42 124 86 255 255 255
3 124 290 86 255 255 255
3 124 291 290 255 255 255
3 235 163 277 255 255 255
3 188 72 235 255 255 255
3 220 146 188 255 255 255
3 161 189 220 255 255 255
3 156 157 220 255 255 255
3 146 220 157 255 255 255
3 190 299 146 255 255 255
3 299 283 146 255 255 255
3 261 283 299 255 255 255
3 261 288 283 255 255 255
3 147 261 40 255 255 255
3 147 191 261 255 255 255
3 191 33 261 255 255 255
3 76 68 191 255 255 255
3 41 208 76 255 255 255
3 208 68 76 255 255 255
3 208 226 68 255 255 255
3 290 226 208 255 255 255
3 290 291 226 255 255 255
3 291 72 226 255 255 255
3 124 163 291 255 255 255
3 163 4 277 255 255 255
3 235 291 163 255 255 255
3 72 291 235 255 255 255
3 188 214 72 255 255 255
3 146 214 188 255 255 255
3 146 283 214 255 255 255
3 283 72 214 255 255 255
3 283 288 72 255 255 255
3 288 226 72 255 255 255
3 288 33 226 255 255 255
3 33 288 261 255 255 255
3 191 68 33 255 255 255
3 68 226 33 255 255 255
3 124 99 163 255 255 255
3 99 4 163 255 255 255
3 95 96 287 255 255 255
3 287 34 95 255 255 255
3 96 69 287 255 255 255
3 95 284 96 255 255 255
3 34 285 95 255 255 255
3 287 46 34 255 255 255
3 69 46 287 255 255 255
3 69 70 46 255 255 255
3 96 70 69 255 255 255
3 96 286 70 255 255 255
3 284 286 96 255 255 255
3 284 206 286 255 255 255
3 95 285 284 255 255 255
3 285 195 284 255 255 255
3 34 293 285 255 255 255
3 70 35 46 255 255 255
3 286 36 70 255 255 255
3 206 36 286 255 255 255
3 206 98 36 255 255 255
3 284 195 206 255 255 255
3 195 289 206 255 255 255
3 285 37 195 255 255 255
3 34 227 293 255 255 255
3 35 74 46 255 255 255
3 70 207 35 255 255 255
3 36 228 70 255 255 255
3 98 228 36 255 255 255
3 98 193 228 255 255 255
3 206 289 98 255 255 255
3 195 194 289 255 255 255
3 37 194 195 255 255 255
3 37 100 194 255 255 255
3 285 293 37 255 255 255
3 74 196 46 255 255 255
3 35 207 74 255 255 255
3 207 75 74 255 255 255
3 70 57 207 255 255 255
3 193 57 228 255 255 255
3 98 97 193 255 255 255
3 194 71 289 255 255 255
3 100 71 194 255 255 255
3 100 176 71 255 255 255
3 37 148 100 255 255 255
3 293 221 37 255 255 255
3 293 255 221 255 255 255
3 196 3 46 255 255 255
3 74 245 196 255 255 255
3 75 77 74 255 255 255
3 207 78 75 255 255 255
3 70 228 57 255 255 255
3 193 200 57 255 255 255
3 97 166 193 255 255 255
3 98 289 97 255 255 255
3 289 71 97 255 255 255
3 71 166 97 255 255 255
3 71 256 166 255 255 255
3 176 256 71 255 255 255
3 176 112 256 255 255 255
3 100 148 176 255 255 255
3 148 149 176 255 255 255
3 37 221 148 255 255 255
3 221 255 148 255 255 255
3 255 266 148 255 255 255
3 3 2 46 255 255 255
3 196 244 3 255 255 255
3 74 79 245 255 255 255
3 77 80 74 255 255 255
3 75 230 77 255 255 255
3 78 230 75 255 255 255
3 78 81 230 255 255 255
3 207 57 78 255 255 255
3 200 82 57 255 255 255
3 193 16 200 255 255 255
3 166 13 193 255 255 255
3 256 13 166 255 255 255
3 256 16 13 255 255 255
3 176 167 112 255 255 255
3 149 202 176 255 255 255
3 148 168 149 255 255 255
3 266 168 148 255 255 255
3 255 236 266 255 255 255
3 2 34 46 255 255 255
3 2 265 34 255 255 255
3 3 117 2 255 255 255
3 244 117 3 255 255 255
3 244 83 117 255 255 255
3 196 245 244 255 255 255
3 245 18 244 255 255 255
3 79 18 245 255 255 255
3 79 19 18 255 255 255
3 74 20 79 255 255 255
3 80 20 74 255 255 255
3 80 77 20 255 255 255
3 77 81 20 255 255 255
3 81 77 230 255 255 255
3 82 78 57 255 255 255
3 82 81 78 255 255 255
3 82 21 81 255 255 255
3 200 21 82 255 255 255
3 200 209 21 255 255 255
3 16 210 200 255 255 255
3 13 297 193 255 255 255
3 16 297 13 255 255 255
3 256 112 16 255 255 255
3 112 210 16 255 255 255
3 167 210 112 255 255 255
3 167 170 210 255 255 255
3 176 202 167 255 255 255
3 202 169 167 255 255 255
3 149 169 202 255 255 255
3 149 105 169 255 255 255
3 168 105 149 255 255 255
3 168 236 105 255 255 255
3 236 168 266 255 255 255
3 255 239 236 255 255 255
3 2 222 265 255 255 255
3 117 257 2 255 255 255
3 83 0 117 255 255 255
3 244 18 83 255 255 255
3 18 22 83 255 255 255
3 19 22 18 255 255 255
3 19 23 22 255 255 255
3 79 24 19 255 255 255
3 20 25 79 255 255 255
3 81 25 20 255 255 255
3 81 26 25 255 255 255
3 21 27 81 255 255 255
3 209 128 21 255 255 255
3 200 223 209 255 255 255
3 210 223 200 255 255 255
3 210 170 223 255 255 255
3 16 193 297 255 255 255
3 167 73 170 255 255 255
3 169 105 167 255 255 255
3 105 129 167 255 255 255
3 236 113 105 255 255 255
3 239 11 236 255 255 255
3 255 276 239 255 255 255
3 222 276 265 255 255 255
3 2 257 222 255 255 255
3 0 116 117 255 255 255
3 83 116 0 255 255 255
3 83 130 116 255 255 255
3 22 131 83 255 255 255
3 23 131 22 255 255 255
3 23 132 131 255 255 255
3 19 133 23 255 255 255
3 24 133 19 255 255 255
3 24 134 133 255 255 255
3 79 25 24 255 255 255
3 25 26 24 255 255 255
3 26 135 24 255 255 255
3 27 136 81 255 255 255
3 21 137 27 255 255 255
3 128 137 21 255 255 255
3 128 267 137 255 255 255
3 209 201 128 255 255 255
3 223 201 209 255 255 255
3 223 118 201 255 255 255
3 170 73 223 255 255 255
3 167 114 73 255 255 255
3 129 114 167 255 255 255
3 129 113 114 255 255 255
3 113 129 105 255 255 255
3 236 184 113 255 255 255
3 11 184 236 255 255 255
3 11 53 184 255 255 255
3 239 171 11 255 255 255
3 276 116 239 255 255 255
3 255 265 276 255 255 255
3 255 260 265 255 255 255
3 222 257 276 255 255 255
3 257 117 276 255 255 255
3 116 171 117 255 255 255
3 130 172 116 255 255 255
3 83 268 130 255 255 255
3 131 268 83 255 255 255
3 131 269 268 255 255 255
3 132 269 131 255 255 255
3 132 270 269 255 255 255
3 23 271 132 255 255 255
3 133 271 23 255 255 255
3 133 272 271 255 255 255
3 134 273 133 255 255 255
3 24 135 134 255 255 255
3 135 274 134 255 255 255
3 26 275 135 255 255 255
3 136 275 81 255 255 255
3 27 231 136 255 255 255
3 137 232 27 255 255 255
3 267 232 137 255 255 255
3 267 233 232 255 255 255
3 128 234 267 255 255 255
3 201 234 128 255 255 255
3 201 118 234 255 255 255
3 118 87 234 255 255 255
3 223 237 118 255 255 255
3 114 113 73 255 255 255
3 184 73 113 255 255 255
3 184 53 73 255 255 255
3 53 237 73 255 255 255
3 11 185 53 255 255 255
3 171 185 11 255 255 255
3 171 262 185 255 255 255
3 260 293 265 255 255 255
3 171 276 117 255 255 255
3 116 276 171 255 255 255
3 172 262 116 255 255 255
3 130 268 172 255 255 255
3 268 238 172 255 255 255
3 269 240 268 255 255 255
3 270 240 269 255 255 255
3 270 47 240 255 255 255
3 132 48 270 255 255 255
3 271 272 132 255 255 255
3 272 49 132 255 255 255
3 133 273 272 255 255 255
3 273 50 272 255 255 255
3 134 51 273 255 255 255
3 274 52 134 255 255 255
3 135 54 274 255 255 255
3 275 136 135 255 255 255
3 136 231 135 255 255 255
3 231 54 135 255 255 255
3 26 81 275 255 255 255
3 27 232 231 255 255 255
3 232 55 231 255 255 255
3 233 56 232 255 255 255
3 267 234 233 255 255 255
3 234 177 233 255 255 255
3 87 298 234 255 255 255
3 237 87 118 255 255 255
3 237 53 87 255 255 255
3 53 185 87 255 255 255
3 185 172 87 255 255 255
3 223 73 237 255 255 255
3 172 185 262 255 255 255
3 238 177 172 255 255 255
3 268 294 238 255 255 255
3 240 294 268 255 255 255
3 240 138 294 255 255 255
3 47 203 240 255 255 255
3 270 48 47 255 255 255
3 48 49 47 255 255 255
3 132 9 48 255 255 255
3 49 9 132 255 255 255
3 49 48 9 255 255 255
3 272 50 49 255 255 255
3 50 249 49 255 255 255
3 273 250 50 255 255 255
3 51 164 273 255 255 255
3 134 52 51 255 255 255
3 52 278 51 255 255 255
3 274 54 52 255 255 255
3 54 106 52 255 255 255
3 231 107 54 255 255 255
3 55 14 231 255 255 255
3 55 279 14 255 255 255
3 232 56 55 255 255 255
3 56 279 55 255 255 255
3 56 108 279 255 255 255
3 233 58 56 255 255 255
3 177 109 233 255 255 255
3 234 298 177 255 255 255
3 298 172 177 255 255 255
3 298 246 172 255 255 255
3 87 246 298 255 255 255
3 87 172 246 255 255 255
3 238 109 177 255 255 255
3 238 294 109 255 255 255
3 294 110 109 255 255 255
3 138 110 294 255 255 255
3 138 280 110 255 255 255
3 240 203 138 255 255 255
3 203 5 138 255 255 255
3 47 251 203 255 255 255
3 49 215 47 255 255 255
3 249 215 49 255 255 255
3 249 281 215 255 255 255
3 50 282 249 255 255 255
3 250 282 50 255 255 255
3 250 139 282 255 255 255
3 273 164 250 255 255 255
3 164 278 250 255 255 255
3 278 164 51 255 255 255
3 52 295 278 255 255 255
3 106 252 52 255 255 255
3 54 107 106 255 255 255
3 107 119 106 255 255 255
3 231 14 107 255 255 255
3 14 120 107 255 255 255
3 279 120 14 255 255 255
3 279 174 120 255 255 255
3 108 174 279 255 255 255
3 108 187 174 255 255 255
3 56 219 108 255 255 255
3 58 109 56 255 255 255
3 109 58 233 255 255 255
3 110 56 109 255 255 255
3 110 280 56 255 255 255
3 280 138 56 255 255 255
3 138 219 56 255 255 255
3 138 204 219 255 255 255
3 5 204 138 255 255 255
3 5 29 204 255 255 255
3 203 251 5 255 255 255
3 251 30 5 255 255 255
3 47 215 251 255 255 255
3 215 173 251 255 255 255
3 281 31 215 255 255 255
3 249 32 281 255 255 255
3 282 32 249 255 255 255
3 282 178 32 255 255 255
3 139 178 282 255 255 255
3 250 28 139 255 255 255
3 278 295 250 255 255 255
3 295 28 250 255 255 255
3 295 52 28 255 255 255
3 52 211 28 255 255 255
3 252 211 52 255 255 255
3 252 179 211 255 255 255
3 106 253 252 255 255 255
3 119 253 106 255 255 255
3 107 120 119 255 255 255
3 120 121 119 255 255 255
3 108 29 187 255 255 255
3 29 219 204 255 255 255
3 29 108 219 255 255 255
3 5 30 29 255 255 255
3 30 180 29 255 255 255
3 251 142 30 255 255 255
3 173 142 251 255 255 255
3 173 216 142 255 255 255
3 215 31 173 255 255 255
3 31 6 173 255 255 255
3 281 6 31 255 255 255
3 32 263 281 255 255 255
3 178 181 32 255 255 255
3 139 7 178 255 255 255
3 28 7 139 255 255 255
3 28 211 7 255 255 255
3 211 59 7 255 255 255
3 179 59 211 255 255 255
3 179 60 59 255 255 255
3 252 140 179 255 255 255
3 253 175 252 255 255 255
3 253 121 175 255 255 255
3 121 253 119 255 255 255
3 120 174 121 255 255 255
3 174 264 121 255 255 255
3 187 122 174 255 255 255
3 29 85 187 255 255 255
3 180 85 29 255 255 255
3 180 254 85 255 255 255
3 30 216 180 255 255 255
3 216 30 142 255 255 255
3 173 6 216 255 255 255
3 6 217 216 255 255 255
3 263 6 281 255 255 255
3 263 8 6 255 255 255
3 32 181 263 255 255 255
3 181 8 263 255 255 255
3 181 178 8 255 255 255
3 178 123 8 255 255 255
3 7 123 178 255 255 255
3 7 59 123 255 255 255
3 59 8 123 255 255 255
3 59 60 8 255 255 255
3 60 218 8 255 255 255
3 179 153 60 255 255 255
3 140 153 179 255 255 255
3 140 88 153 255 255 255
3 252 175 140 255 255 255
3 175 143 140 255 255 255
3 121 143 175 255 255 255
3 121 264 143 255 255 255
3 264 141 143 255 255 255
3 174 122 264 255 255 255
3 122 254 264 255 255 255
3 187 85 122 255 255 255
3 254 122 85 255 255 255
3 180 141 254 255 255 255
3 216 217 180 255 255 255
3 217 182 180 255 255 255
3 6 241 217 255 255 255
3 8 10 6 255 255 255
3 218 10 8 255 255 255
3 218 182 10 255 255 255
3 60 153 218 255 255 255
3 141 140 143 255 255 255
3 141 88 140 255 255 255
3 264 254 141 255 255 255
3 180 88 141 255 255 255
3 217 10 182 255 255 255
3 217 241 10 255 255 255
3 241 6 10 255 255 255
3 218 153 182 255 255 255
3 153 88 182 255 255 255
3 88 180 182 255 255 255
3 212 89 242 255 255 255
3 242 296 212 255 255 255
3 89 84 242 255 255 255
3 89 224 84 255 255 255
3 212 125 89 255 255 255
3 296 93 212 255 255 255
3 242 225 296 255 255 255
3 84 225 242 255 255 255
3 84 1 225 255 255 255
3 224 1 84 255 255 255
3 224 45 1 255 255 255
3 89 90 224 255 255 255
3 125 90 89 255 255 255
3 125 198 90 255 255 255
3 212 198 125 255 255 255
3 212 229 198 255 255 255
3 93 229 212 255 255 255
3 93 198 229 255 255 255
3 93 150 198 255 255 255
3 296 186 93 255 255 255
3 225 12 296 255 255 255
3 1 45 225 255 255 255
3 45 12 225 255 255 255
3 45 151 12 255 255 255
3 224 152 45 255 255 255
3 90 152 224 255 255 255
3 90 91 152 255 255 255
3 198 247 90 255 255 255
3 150 247 198 255 255 255
3 150 94 247 255 255 255
3 93 186 150 255 255 255
3 186 151 150 255 255 255
3 296 15 186 255 255 255
3 151 186 12 255 255 255
3 186 15 12 255 255 255
3 45 17 151 255 255 255
3 152 17 45 255 255 255
3 152 126 17 255 255 255
3 91 94 152 255 255 255
3 90 247 91 255 255 255
3 94 91 247 255 255 255
3 150 151 94 255 255 255
3 151 126 94 255 255 255
3 296 259 15 255 255 255
3 126 151 17 255 255 255
3 94 126 152 255 255 255
3 243 243 243 255 255 255
