ply
format ascii 1.0
element vertex 317
property float x
property float y
property float z
element face 576
property list uchar int vertex_indices
property uchar red
property uchar green
property uchar blue
end_header
-11.369999885559082 11.555999755859375 -1.11899995803833008
-11.3780002593994141 11.5970001220703125 -1.06200003623962402
-11.391484260559082 11.5842351913452148 -1.04678022861480713
-11.4099998474121094 11.6020002365112305 -1.01600003242492676
-11.4079999923706055 11.5810003280639648 -1.02699995040893555
-11.4088964462280273 11.6010560989379883 -1.00890779495239258
-11.4113616943359375 11.5934724807739258 -1.02808737754821777
-11.383000373840332 11.5880002975463867 -1.09000003337860107
-11.3795318603515625 11.6190633773803711 -1.10635137557983398
-11.3827924728393555 11.5800056457519531 -1.08650124073028564
-11.4060001373291016 11.6009998321533203 -1.10699999332427979
-11.3488321304321289 11.5485553741455078 -1.11663675308227539
-11.3989801406860352 11.5602588653564453 -0.931555867195129395
-11.4350004196166992 11.5459995269775391 -1.00600004196166992
-11.4310474395751953 11.5995674133300781 -1.08770155906677246
-11.4354000091552734 11.6032495498657227 -1.1084449291229248
-11.4422521591186523 11.5502958297729492 -1.12228667736053467
-11.2866106033325195 11.631291389465332 -0.742929995059967041
-11.4069995880126953 11.569000244140625 -1.12100005149841309
-11.2804012298583984 11.6304206848144531 -0.713705003261566162
-11.3761234283447266 11.6339292526245117 -0.799411177635192871
-11.3889179229736328 11.7079601287841797 -0.83556973934173584
-11.3649997711181641 11.6120004653930664 -0.91100001335144043
-11.4029998779296875 11.6079998016357422 -0.981000006198883057
-11.4066877365112305 11.552952766418457 -0.7106475830078125
-11.314000129699707 11.6470003128051758 -0.690999984741210938
-11.3902969360351562 11.5774402618408203 -1.12991678714752197
-11.4126520156860352 11.6197633743286133 -0.916468501091003418
-11.4338445663452148 11.5558528900146484 -1.10720551013946533
-11.4342374801635742 11.5648374557495117 -1.10631036758422852
-11.4269933700561523 11.5849456787109375 -0.92333531379699707
-11.3790988922119141 11.6313915252685547 -0.809755980968475342
-11.3929615020751953 11.6756515502929688 -0.900469839572906494
-11.4003391265869141 11.5642852783203125 -1.12671077251434326
-11.4139995574951172 11.5670003890991211 -1.12999999523162842
-11.4415969848632812 11.5459814071655273 -0.790456891059875488
-11.3850002288818359 11.6110000610351562 -0.861999988555908203
-11.366999626159668 11.6370000839233398 -0.802999973297119141
-11.3879995346069336 11.619999885559082 -0.893999993801116943
-11.3629226684570312 11.6500463485717773 -0.916795313358306885
-11.3936424255371094 11.6464443206787109 -0.905436813831329346
-11.3917255401611328 11.5765218734741211 -0.912136614322662354
-11.3980960845947266 11.5935277938842773 -0.944476187229156494
-11.3807840347290039 11.5978946685791016 -0.908833563327789307
-11.3701210021972656 11.6365680694580078 -0.902174532413482666
-11.4139995574951172 11.5810003280639648 -0.912000000476837158
-11.4285202026367188 11.5858993530273438 -0.900466263294219971
-11.3637151718139648 11.6542530059814453 -1.01665914058685303
-11.4079999923706055 11.5839996337890625 -1.03799998760223389
-11.3634433746337891 11.5773763656616211 -1.09688186645507812
-11.3700923919677734 11.6652412414550781 -1.02499091625213623
-11.3327674865722656 11.619786262512207 -1.00098979473114014
-11.3929996490478516 11.6070003509521484 -1.01600003242492676
-11.4070539474487305 11.5986118316650391 -1.05087482929229736
-11.3369884490966797 11.634796142578125 -1.00233364105224609
-11.3946409225463867 11.5897321701049805 -1.02322959899902344
-11.3992128372192383 11.6223964691162109 -1.01338422298431396
-11.3801240921020508 11.6316804885864258 -0.858668506145477295
-11.4213428497314453 11.5806999206542969 -0.900581002235412598
-11.4099998474121094 11.5430002212524414 -0.726000010967254639
-11.3720798492431641 11.608403205871582 -1.09151017665863037
-11.46356201171875 11.5362777709960938 -0.649603486061096191
-11.467686653137207 11.5175838470458984 -0.666467487812042236
-11.4403533935546875 11.5356616973876953 -0.649620890617370605
-11.4603662490844727 11.5405588150024414 -0.680948913097381592
-11.4393606185913086 11.548924446105957 -0.67827904224395752
-11.4424057006835938 11.521977424621582 -0.671717703342437744
-11.4137372970581055 11.5899534225463867 -0.965109288692474365
-11.3996057510375977 11.5960826873779297 -0.946240007877349854
-11.3649997711181641 11.6120004653930664 -0.971000015735626221
-11.4122762680053711 11.566802978515625 -0.990791440010070801
-11.3841657638549805 11.6287727355957031 -0.905702590942382812
-11.3458461761474609 11.6394071578979492 -0.8241158127784729
-11.4270000457763672 11.574000358581543 -0.879999995231628418
-11.3895168304443359 11.6359891891479492 -0.837078332901000977
-11.2923336029052734 11.6161069869995117 -0.811365783214569092
-11.2814159393310547 11.6069440841674805 -0.778795897960662842
-11.3880882263183594 11.6386089324951172 -0.861310362815856934
-11.3765373229980469 11.6491813659667969 -0.814301967620849609
-11.2860002517700195 11.616999626159668 -0.697000026702880859
-11.3753957748413086 11.6913337707519531 -0.838112354278564453
-11.3846225738525391 11.6587085723876953 -0.835554063320159912
-11.4099998474121094 11.5749998092651367 -1.03499996662139893
-11.4459371566772461 11.5476951599121094 -0.816085219383239746
-11.4200000762939453 11.560999870300293 -0.919000029563903809
-11.4361515045166016 11.6614885330200195 -0.807810842990875244
-11.3339996337890625 11.6280002593994141 -0.80699998140335083
-11.3721866607666016 11.6477060317993164 -0.947299659252166748
-11.3710002899169922 11.6269998550415039 -0.962000012397766113
-11.3512964248657227 11.6232538223266602 -0.98726344108581543
-11.3900051116943359 11.6052589416503906 -0.973730564117431641
-11.3905048370361328 11.6075649261474609 -0.989186942577362061
-11.4022350311279297 11.6251659393310547 -0.993056416511535645
-11.3411922454833984 11.6170997619628906 -0.979615211486816406
-11.383000373840332 11.6160001754760742 -0.986000001430511475
-11.4049997329711914 11.6120004653930664 -0.977999985218048096
-11.401667594909668 11.6049556732177734 -0.987164318561553955
-11.2799997329711914 11.6110000610351562 -0.765999972820281982
-11.2930440902709961 11.6330556869506836 -0.718096375465393066
-11.4110002517700195 11.5780000686645508 -1.02100002765655518
-11.4119997024536133 11.6180000305175781 -0.916000008583068848
-11.3959999084472656 11.6190004348754883 -0.922999978065490723
-11.444000244140625 11.5570001602172852 -0.763999998569488525
-11.2749767303466797 11.6153688430786133 -0.768836855888366699
-11.4417104721069336 11.5475530624389648 -0.835479080677032471
-11.3179998397827148 11.6289997100830078 -0.832000017166137695
-11.268610954284668 11.6297950744628906 -0.725224733352661133
-11.412348747253418 11.5267457962036133 -0.712917566299438477
-11.2642946243286133 11.6110019683837891 -0.693927466869354248
-11.3922262191772461 11.558741569519043 -0.906284987926483154
-11.4063968658447266 11.5659542083740234 -1.03184020519256592
-11.3598136901855469 11.5666093826293945 -1.10832679271697998
-11.3920001983642578 11.625 -0.908999979496002197
-11.4469995498657227 11.5450000762939453 -1.00899994373321533
-11.4022550582885742 11.6634759902954102 -0.899810552597045898
-11.4049997329711914 11.5979995727539062 -0.921000003814697266
-11.3979625701904297 11.621953010559082 -0.902009010314941406
-11.3460807800292969 11.6359615325927734 -0.901697635650634766
-11.3866682052612305 11.6262855529785156 -0.980930030345916748
-11.3900003433227539 11.6219997406005859 -0.995000004768371582
-11.3990001678466797 11.6090002059936523 -0.953999996185302734
-11.4090003967285156 11.6090002059936523 -0.972999989986419678
-11.3511695861816406 11.6364917755126953 -0.954943716526031494
-11.3870391845703125 11.6371421813964844 -0.920588016510009766
-11.3889999389648438 11.6529998779296875 -0.927999973297119141
-11.383000373840332 11.6289997100830078 -0.944000005722045898
-11.3472890853881836 11.6189775466918945 -0.964413106441497803
-11.3933391571044922 11.6285600662231445 -0.992728173732757568
-11.3001155853271484 11.6145162582397461 -0.862036526203155518
-11.4350004196166992 11.5790004730224609 -1.12000000476837158
-11.3149566650390625 11.6135730743408203 -0.81835860013961792
-11.4149999618530273 11.6029996871948242 -1.01800000667572021
-11.3789997100830078 11.5749998092651367 -1.10300004482269287
-11.4304876327514648 11.5756683349609375 -0.918537735939025879
-11.4298791885375977 11.5603036880493164 -0.879615426063537598
-11.2636318206787109 11.6204071044921875 -0.71826326847076416
-11.321223258972168 11.6336431503295898 -0.851678907871246338
-11.4265642166137695 11.5566205978393555 -0.925147056579589844
-11.3590002059936523 11.6260004043579102 -0.907999992370605469
-11.44903564453125 11.5641794204711914 -0.833234727382659912
-11.4341812133789062 11.5598592758178711 -0.854237020015716553
-11.4403543472290039 11.5507135391235352 -0.748542249202728271
-11.270599365234375 11.6104011535644531 -0.756366550922393799
-11.3809995651245117 11.6120004653930664 -0.853999972343444824
-11.2699184417724609 11.6349773406982422 -0.715703845024108887
-11.4288549423217773 11.676335334777832 -0.805936217308044434
-11.3622055053710938 11.6133441925048828 -0.9421425461769104
-11.3629999160766602 11.6309995651245117 -0.944000005722045898
-11.3532018661499023 11.6146249771118164 -0.915808141231536865
-11.3815679550170898 11.6554536819458008 -0.910209834575653076
-11.3849315643310547 11.5979833602905273 -0.938932597637176514
-11.420130729675293 11.5906944274902344 -0.941316962242126465
-11.3520002365112305 11.6110000610351562 -0.925000011920928955
-11.4006357192993164 11.6093969345092773 -0.93025583028793335
-11.3719825744628906 11.6013078689575195 -0.922529637813568115
-11.3540000915527344 11.6549997329711914 -0.907999992370605469
-11.4099998474121094 11.5839996337890625 -1.11399996280670166
-11.4034175872802734 11.6062984466552734 -1.00996613502502441
-11.4090003967285156 11.6059999465942383 -1.01999998092651367
-11.3925390243530273 11.5959005355834961 -1.06257057189941406
-11.4025678634643555 11.6018867492675781 -1.07994318008422852
-11.3940925598144531 11.6017084121704102 -1.07853960990905762
-11.3810033798217773 11.5742301940917969 -1.07477676868438721
-11.3614368438720703 11.5883655548095703 -1.07503652572631836
-11.3806190490722656 11.6037626266479492 -1.10117566585540771
-11.3636417388916016 11.5844211578369141 -1.08467543125152588
-11.3710002899169922 11.574000358581543 -1.0820000171661377
-11.3590335845947266 11.5663251876831055 -1.09253513813018799
-11.4160089492797852 11.5938796997070312 -1.06025326251983643
-11.4074020385742188 11.5759382247924805 -1.05828440189361572
-11.3260002136230469 11.6379995346069336 -0.828000009059906006
-11.3876228332519531 11.658538818359375 -0.817041277885437012
-11.3240423202514648 11.5918474197387695 -0.856590628623962402
-11.3489999771118164 11.6160001754760742 -0.795000016689300537
-11.418889045715332 11.6067209243774414 -0.913668036460876465
-11.4300003051757812 11.555999755859375 -0.768000006675720215
-11.4421958923339844 11.5700263977050781 -1.12316322326660156
-11.4323368072509766 11.5693540573120117 -0.86383742094039917
-11.3249998092651367 11.6160001754760742 -0.851000010967254639
-11.4488945007324219 11.5449638366699219 -0.777948558330535889
-11.381373405456543 11.7066736221313477 -0.851338624954223633
-11.4055795669555664 11.6112031936645508 -1.10039496421813965
-11.3476152420043945 11.6169242858886719 -1.11138534545898438
-11.3789997100830078 11.5810003280639648 -1.10199999809265137
-11.3760004043579102 11.5629997253417969 -1.10000002384185791
-11.4198703765869141 11.5877323150634766 -1.10141682624816895
-11.4016923904418945 11.5972518920898438 -1.11262238025665283
-11.3996124267578125 11.5771341323852539 -1.11390697956085205
-11.4102144241333008 11.5868654251098633 -1.11529600620269775
-11.3979997634887695 11.6140003204345703 -1.09899997711181641
-11.3512163162231445 11.554072380065918 -1.12754380702972412
-11.4229650497436523 11.5624141693115234 -0.901616096496582031
-11.3028421401977539 11.6160087585449219 -0.833653450012207031
-11.3524875640869141 11.6092805862426758 -0.984759747982025146
-11.4510002136230469 11.5439996719360352 -0.986000001430511475
-11.4024486541748047 11.5806741714477539 -0.944021105766296387
-11.2879562377929688 11.6223182678222656 -0.796770930290222168
-11.4429168701171875 11.5486431121826172 -0.992180705070495605
-11.3106145858764648 11.5823736190795898 -0.873009145259857178
-11.2760000228881836 11.6429996490478516 -0.689999997615814209
-11.4169998168945312 11.5500001907348633 -0.728999972343444824
-11.3438434600830078 11.6169872283935547 -0.794624567031860352
-11.4010000228881836 11.6000003814697266 -1.12300002574920654
-11.3929033279418945 11.6059360504150391 -0.884252667427062988
-11.4337387084960938 11.5579071044921875 -0.772519230842590332
-11.3929996490478516 11.6009998321533203 -0.876999974250793457
-11.4049997329711914 11.6120004653930664 -0.902000010013580322
-11.3885154724121094 11.6332006454467773 -0.901794970035552979
-11.4110002517700195 11.5930004119873047 -1.06200003623962402
-11.3128395080566406 11.6443729400634766 -0.715217292308807373
-11.3220634460449219 11.6029424667358398 -0.807393550872802734
-11.2612819671630859 11.63531494140625 -0.687760889530181885
-11.3159999847412109 11.6280002593994141 -0.828000009059906006
-11.4170427322387695 11.5799674987792969 -0.944575011730194092
-11.3640174865722656 11.5817804336547852 -0.917286336421966553
-11.3235816955566406 11.6036100387573242 -0.886933982372283936
-11.4141712188720703 11.5589666366577148 -0.926912248134613037
-11.4020442962646484 11.5705347061157227 -0.903321921825408936
-11.426396369934082 11.5515213012695312 -0.906614720821380615
-11.4130001068115234 11.6110000610351562 -0.903999984264373779
-11.4170255661010742 11.5719842910766602 -0.896748244762420654
-11.4355239868164062 11.5782079696655273 -0.880829751491546631
-11.425999641418457 11.5749998092651367 -0.916999995708465576
-11.3660001754760742 11.6339998245239258 -1.02799999713897705
-11.3910646438598633 11.6143054962158203 -0.861060857772827148
-11.3439998626708984 11.6149997711181641 -0.794000029563903809
-11.3685331344604492 11.6082315444946289 -0.904643654823303223
-11.4391937255859375 11.5611019134521484 -0.820693612098693848
-11.4127388000488281 11.5395097732543945 -0.694462597370147705
-11.305999755859375 11.6289997100830078 -0.829999983310699463
-11.4313468933105469 11.5418510437011719 -0.726086974143981934
-11.3641862869262695 11.7067689895629883 -0.850020408630371094
-11.3628740310668945 11.6266889572143555 -0.796222150325775146
-11.439457893371582 11.5457010269165039 -0.760415494441986084
-11.3810243606567383 11.6036701202392578 -0.961696386337280273
-11.4426565170288086 11.5905370712280273 -1.1190485954284668
-11.4510002136230469 11.5329999923706055 -0.675000011920928955
-11.3719997406005859 11.5909996032714844 -1.08599996566772461
-11.3649997711181641 11.564000129699707 -1.10500001907348633
-11.3212041854858398 11.6167678833007812 -0.848572432994842529
-11.2983455657958984 11.6240358352661133 -0.797948002815246582
-11.2775506973266602 11.6231269836425781 -0.671174764633178711
-11.4243154525756836 11.5651798248291016 -0.84091717004776001
-11.4020004272460938 11.6059999465942383 -1.02900004386901855
-11.3111495971679688 11.6373481750488281 -0.856140255928039551
-11.348912239074707 11.6085319519042969 -0.863520145416259766
-11.3690004348754883 11.6210002899169922 -0.986999988555908203
-11.2779998779296875 11.6040000915527344 -0.769999980926513672
-11.4499998092651367 11.5260000228881836 -0.670000016689300537
-11.3842678070068359 11.6133079528808594 -0.87621152400970459
-11.3302021026611328 11.6225290298461914 -0.811492323875427246
-11.4560003280639648 11.5249996185302734 -0.669000029563903809
-11.2959995269775391 11.6459999084472656 -0.675000011920928955
-11.3920001983642578 11.6049995422363281 -0.925000011920928955
-11.4490013122558594 11.5673484802246094 -0.771076023578643799
-11.284510612487793 11.6198883056640625 -0.769354581832885742
-11.2919998168945312 11.6160001754760742 -0.699999988079071045
-11.4036178588867188 11.6220302581787109 -0.881244361400604248
-11.4230003356933594 11.5474996566772461 -0.731999993324279785
-11.3879995346069336 11.6040000915527344 -0.952000021934509277
-11.4429998397827148 11.5469999313354492 -0.987999975681304932
-11.3805818557739258 11.5782022476196289 -1.06786715984344482
-11.3748083114624023 11.6293659210205078 -1.03405368328094482
-11.3578557968139648 11.6341314315795898 -1.03465962409973145
-11.3971233367919922 11.6327495574951172 -1.02764594554901123
-11.386082649230957 11.6095132827758789 -1.02606832981109619
-11.392578125 11.6134614944458008 -1.00201332569122314
-11.3874959945678711 11.608489990234375 -1.04814934730529785
-11.3830184936523438 11.629612922668457 -1.01970088481903076
-11.3601608276367188 11.6476688385009766 -1.04253840446472168
-11.3479299545288086 11.6326179504394531 -1.00925397872924805
-11.3859996795654297 11.574000358581543 -1.0820000171661377
-11.3955192565917969 11.6304149627685547 -0.961638331413269043
-11.4340000152587891 11.5939998626708984 -0.888999998569488525
-11.3090000152587891 11.6409997940063477 -0.688000023365020752
-11.2962989807128906 11.6200494766235352 -0.68409276008605957
-11.3280000686645508 11.6230001449584961 -0.805999994277954102
-11.3184108734130859 11.606292724609375 -0.808561980724334717
-11.3990001678466797 11.5489997863769531 -0.712999999523162842
-11.4425802230834961 11.5582265853881836 -0.99817192554473877
-11.3524541854858398 11.622096061706543 -0.892096638679504395
-11.4250001907348633 11.5890007019042969 -0.892500042915344238
-11.4340000152587891 11.5799999237060547 -0.870999991893768311
-11.2800636291503906 11.6229143142700195 -0.7401084303855896
-11.3672399520874023 11.6420888900756836 -0.90661466121673584
-11.3780002593994141 11.6370000839233398 -0.944000005722045898
-11.3760004043579102 11.6319999694824219 -0.949000000953674316
-11.3673410415649414 11.6312475204467773 -0.92183840274810791
-11.3969993591308594 11.6319980621337891 -0.961020827293395996
-11.4062948226928711 11.6239833831787109 -0.959816575050354004
-11.3729343414306641 11.6045436859130859 -0.949315011501312256
-11.4425621032714844 11.5257511138916016 -0.662124752998352051
-11.4362459182739258 11.547541618347168 -0.652173936367034912
-11.4574804306030273 11.5460424423217773 -0.648818314075469971
-11.4610004425048828 11.5279998779296875 -0.652000010013580322
-11.3260002136230469 11.6339998245239258 -0.833999991416931152
-11.3130369186401367 11.6301565170288086 -0.817793607711791992
-11.4336214065551758 11.5412511825561523 -0.802620947360992432
-11.4164581298828125 11.5316495895385742 -0.724072277545928955
-11.2805757522583008 11.6402788162231445 -0.687855899333953857
-11.4239997863769531 11.5850000381469727 -0.910000026226043701
-11.3956670761108398 11.5405569076538086 -0.717379331588745117
-11.4249544143676758 11.6560401916503906 -0.812113404273986816
-11.3940000534057617 11.6160001754760742 -0.948000013828277588
-11.3680000305175781 11.6129999160766602 -0.976999998092651367
-11.4149999618530273 11.5989999771118164 -0.964999973773956299
-11.417109489440918 11.5845985412597656 -0.988211274147033691
-11.421147346496582 11.5776090621948242 -0.980782866477966309
-11.3550987243652344 11.6324911117553711 -0.967757940292358398
-11.3744659423828125 11.6227998733520508 -0.981186389923095703
-11.3629999160766602 11.6079998016357422 -0.987999975681304932
-11.4007415771484375 11.5972299575805664 -0.989809036254882812
-11.380000114440918 11.6230001449584961 -0.977999985218048096
-11.3826942443847656 11.6096839904785156 -0.975229263305664062
-11.2899818420410156 11.6365585327148438 -0.713790178298950195
-11.3252658843994141 11.62530517578125 -0.867053866386413574
-11.2725868225097656 11.610107421875 -0.696873009204864502
3 61 291 293 255 255 255
3 293 291 292 255 255 255
3 293 294 291 255 255 255
3 292 64 293 255 255 255
3 291 65 292 255 255 255
3 294 62 291 255 255 255
3 62 66 291 255 255 255
3 61 62 291 255 255 255
3 61 64 62 255 255 255
3 293 64 61 255 255 255
3 293 64 294 255 255 255
3 293 65 64 255 255 255
3 292 65 64 255 255 255
3 63 292 293 255 255 255
3 62 66 248 255 255 255
3 64 251 62 255 255 255
3 65 66 64 255 255 255
3 66 251 248 255 255 255
3 293 291 63 255 255 255
3 64 236 251 255 255 255
3 291 65 63 255 255 255
3 47 269 50 255 255 255
3 50 268 47 255 255 255
3 47 263 269 255 255 255
3 268 223 47 255 255 255
3 50 262 268 255 255 255
3 269 262 50 255 255 255
3 47 270 263 255 255 255
3 270 54 263 255 255 255
3 268 263 223 255 255 255
3 262 264 268 255 255 255
3 269 263 262 255 255 255
3 263 265 262 255 255 255
3 268 265 263 255 255 255
3 264 266 268 255 255 255
3 265 267 262 255 255 255
3 270 308 54 255 255 255
3 268 55 265 255 255 255
3 264 56 266 255 255 255
3 262 267 264 255 255 255
3 268 52 55 255 255 255
3 266 52 268 255 255 255
3 266 91 52 255 255 255
3 266 92 91 255 255 255
3 267 53 264 255 255 255
3 51 270 54 255 255 255
3 270 89 308 255 255 255
3 52 311 55 255 255 255
3 53 158 264 255 255 255
3 265 2 267 255 255 255
3 54 93 51 255 255 255
3 54 89 93 255 255 255
3 89 309 308 255 255 255
3 89 310 309 255 255 255
3 55 2 265 255 255 255
3 52 157 311 255 255 255
3 90 311 91 255 255 255
3 91 94 90 255 255 255
3 92 95 91 255 255 255
3 56 96 266 255 255 255
3 157 96 56 255 255 255
3 158 56 264 255 255 255
3 53 131 158 255 255 255
3 267 159 53 255 255 255
3 267 2 1 255 255 255
3 51 89 270 255 255 255
3 93 193 51 255 255 255
3 89 126 93 255 255 255
3 89 193 310 255 255 255
3 270 89 54 255 255 255
3 55 110 2 255 255 255
3 52 3 157 255 255 255
3 94 234 90 255 255 255
3 95 90 91 255 255 255
3 92 127 56 255 255 255
3 96 90 266 255 255 255
3 96 92 56 255 255 255
3 53 6 131 255 255 255
3 53 168 6 255 255 255
3 159 161 53 255 255 255
3 267 1 159 255 255 255
3 1 261 159 255 255 255
3 2 163 1 255 255 255
3 51 193 89 255 255 255
3 89 308 126 255 255 255
3 308 122 126 255 255 255
3 309 88 308 255 255 255
3 310 94 309 255 255 255
3 311 5 55 255 255 255
3 3 131 157 255 255 255
3 52 265 3 255 255 255
3 94 312 234 255 255 255
3 90 313 91 255 255 255
3 90 313 266 255 255 255
3 158 3 157 255 255 255
3 53 160 168 255 255 255
3 2 261 163 255 255 255
3 89 193 93 255 255 255
3 312 88 309 255 255 255
3 312 118 88 255 255 255
3 94 119 309 255 255 255
3 55 99 110 255 255 255
3 4 110 55 255 255 255
3 55 157 4 255 255 255
3 3 243 131 255 255 255
3 52 266 265 255 255 255
3 312 313 234 255 255 255
3 313 119 91 255 255 255
3 95 121 90 255 255 255
3 96 121 90 255 255 255
3 96 127 92 255 255 255
3 96 91 127 255 255 255
3 157 23 96 255 255 255
3 5 306 157 255 255 255
3 56 52 157 255 255 255
3 6 99 131 255 255 255
3 168 48 6 255 255 255
3 169 110 168 255 255 255
3 168 160 169 255 255 255
3 53 161 160 255 255 255
3 159 1 161 255 255 255
3 261 169 159 255 255 255
3 93 290 193 255 255 255
3 308 87 122 255 255 255
3 118 272 88 255 255 255
3 119 127 309 255 255 255
3 94 266 119 255 255 255
3 5 6 55 255 255 255
3 311 157 5 255 255 255
3 311 307 306 255 255 255
3 90 67 311 255 255 255
3 313 290 234 255 255 255
3 119 127 91 255 255 255
3 313 246 119 255 255 255
3 120 303 90 255 255 255
3 121 305 90 255 255 255
3 118 246 127 255 255 255
3 127 272 118 255 255 255
3 6 82 99 255 255 255
3 168 110 48 255 255 255
3 160 159 169 255 255 255
3 161 181 160 255 255 255
3 161 164 181 255 255 255
3 159 2 1 255 255 255
3 162 271 261 255 255 255
3 163 60 1 255 255 255
3 261 166 163 255 255 255
3 261 2 169 255 255 255
3 2 110 169 255 255 255
3 93 126 290 255 255 255
3 87 287 122 255 255 255
3 88 286 308 255 255 255
3 119 56 127 255 255 255
3 4 82 110 255 255 255
3 311 67 307 255 255 255
3 311 306 67 255 255 255
3 90 213 67 255 255 255
3 290 68 234 255 255 255
3 304 89 313 255 255 255
3 313 88 304 255 255 255
3 305 213 90 255 255 255
3 305 67 213 255 255 255
3 127 92 272 255 255 255
3 306 311 157 255 255 255
3 311 95 157 255 255 255
3 5 70 306 255 255 255
3 164 8 181 255 255 255
3 161 60 164 255 255 255
3 161 163 60 255 255 255
3 2 261 1 255 255 255
3 159 160 208 255 255 255
3 261 163 162 255 255 255
3 165 60 163 255 255 255
3 166 167 163 255 255 255
3 290 310 193 255 255 255
3 126 146 290 255 255 255
3 126 122 146 255 255 255
3 308 286 87 255 255 255
3 286 125 87 255 255 255
3 304 69 89 255 255 255
3 88 126 304 255 255 255
3 305 306 67 255 255 255
3 92 289 272 255 255 255
3 161 261 163 255 255 255
3 159 48 2 255 255 255
3 261 9 162 255 255 255
3 163 166 162 255 255 255
3 165 49 60 255 255 255
3 165 167 49 255 255 255
3 163 167 165 255 255 255
3 167 49 163 255 255 255
3 122 147 146 255 255 255
3 287 146 122 255 255 255
3 87 285 147 255 255 255
3 123 124 87 255 255 255
3 285 123 87 255 255 255
3 125 123 87 255 255 255
3 288 125 272 255 255 255
3 290 150 68 255 255 255
3 126 93 304 255 255 255
3 289 288 272 255 255 255
3 161 208 160 255 255 255
3 48 55 2 255 255 255
3 167 111 49 255 255 255
3 49 237 163 255 255 255
3 287 148 146 255 255 255
3 124 149 87 255 255 255
3 125 153 123 255 255 255
3 289 153 288 255 255 255
3 307 197 70 255 255 255
3 67 195 213 255 255 255
3 67 68 195 255 255 255
3 68 90 234 255 255 255
3 290 214 150 255 255 255
3 69 93 89 255 255 255
3 93 310 304 255 255 255
3 306 279 307 255 255 255
3 70 279 306 255 255 255
3 7 237 161 255 255 255
3 160 189 161 255 255 255
3 8 186 181 255 255 255
3 8 60 182 255 255 255
3 9 184 162 255 255 255
3 261 7 9 255 255 255
3 49 183 237 255 255 255
3 146 152 290 255 255 255
3 147 286 146 255 255 255
3 148 154 146 255 255 255
3 149 39 87 255 255 255
3 70 311 307 255 255 255
3 150 42 68 255 255 255
3 69 290 93 255 255 255
3 151 305 213 255 255 255
3 160 186 189 255 255 255
3 10 185 181 255 255 255
3 181 186 10 255 255 255
3 8 202 186 255 255 255
3 182 164 8 255 255 255
3 9 132 184 255 255 255
3 183 132 9 255 255 255
3 183 111 132 255 255 255
3 183 164 237 255 255 255
3 184 11 167 255 255 255
3 184 190 11 255 255 255
3 152 154 290 255 255 255
3 148 214 154 255 255 255
3 124 40 149 255 255 255
3 123 40 124 255 255 255
3 153 27 123 255 255 255
3 289 151 153 255 255 255
3 67 120 68 255 255 255
3 151 289 305 255 255 255
3 160 187 186 255 255 255
3 185 187 160 255 255 255
3 185 160 181 255 255 255
3 186 188 10 255 255 255
3 181 202 186 255 255 255
3 8 164 60 255 255 255
3 167 11 111 255 255 255
3 164 60 237 255 255 255
3 154 214 290 255 255 255
3 155 117 284 255 255 255
3 284 149 155 255 255 255
3 39 287 87 255 255 255
3 149 40 284 255 255 255
3 40 114 149 255 255 255
3 123 27 40 255 255 255
3 27 116 40 255 255 255
3 70 197 279 255 255 255
3 307 279 197 255 255 255
3 120 259 68 255 255 255
3 150 154 42 255 255 255
3 213 30 151 255 255 255
3 213 216 137 255 255 255
3 187 188 186 255 255 255
3 185 156 187 255 255 255
3 185 14 29 255 255 255
3 188 185 10 255 255 255
3 226 43 214 255 255 255
3 214 148 226 255 255 255
3 287 117 148 255 255 255
3 287 284 117 255 255 255
3 40 71 284 255 255 255
3 114 32 149 255 255 255
3 195 216 213 255 255 255
3 195 12 216 255 255 255
3 195 41 12 255 255 255
3 41 109 12 255 255 255
3 115 195 42 255 255 255
3 42 253 115 255 255 255
3 154 253 42 255 255 255
3 214 253 150 255 255 255
3 151 137 133 255 255 255
3 213 195 30 255 255 255
3 189 10 164 255 255 255
3 190 0 111 255 255 255
3 11 190 111 255 255 255
3 148 117 215 255 255 255
3 284 71 44 255 255 255
3 40 112 71 255 255 255
3 40 32 114 255 255 255
3 116 38 40 255 255 255
3 153 174 27 255 255 255
3 151 174 153 255 255 255
3 151 30 174 255 255 255
3 12 84 216 255 255 255
3 195 45 41 255 255 255
3 115 30 195 255 255 255
3 43 154 214 255 255 255
3 13 113 279 255 255 255
3 188 33 156 255 255 255
3 156 33 187 255 255 255
3 11 238 0 255 255 255
3 215 280 148 255 255 255
3 117 315 215 255 255 255
3 287 226 284 255 255 255
3 44 117 284 255 255 255
3 71 226 44 255 255 255
3 40 149 32 255 255 255
3 151 133 30 255 255 255
3 12 217 84 255 255 255
3 41 217 109 255 255 255
3 41 220 217 255 255 255
3 45 58 41 255 255 255
3 115 300 30 255 255 255
3 216 218 137 255 255 255
3 188 26 33 255 255 255
3 14 15 29 255 255 255
3 164 182 60 255 255 255
3 22 280 226 255 255 255
3 284 226 71 255 255 255
3 226 22 71 255 255 255
3 71 116 226 255 255 255
3 133 46 174 255 255 255
3 217 218 84 255 255 255
3 41 281 220 255 255 255
3 115 58 300 255 255 255
3 137 218 133 255 255 255
3 279 13 197 255 255 255
3 15 235 29 255 255 255
3 22 148 280 255 255 255
3 44 138 117 255 255 255
3 116 203 226 255 255 255
3 46 273 174 255 255 255
3 217 191 218 255 255 255
3 12 41 217 255 255 255
3 58 222 300 255 255 255
3 46 133 221 255 255 255
3 218 221 133 255 255 255
3 218 191 134 255 255 255
3 260 194 197 255 255 255
3 26 188 187 255 255 255
3 187 28 33 255 255 255
3 15 188 235 255 255 255
3 215 172 280 255 255 255
3 284 138 44 255 255 255
3 284 117 138 255 255 255
3 280 315 117 255 255 255
3 117 138 280 255 255 255
3 273 219 174 255 255 255
3 58 46 281 255 255 255
3 218 134 221 255 255 255
3 26 187 33 255 255 255
3 188 129 235 255 255 255
3 188 156 129 255 255 255
3 156 18 129 255 255 255
3 14 185 15 255 255 255
3 172 245 280 255 255 255
3 203 43 226 255 255 255
3 219 27 174 255 255 255
3 220 134 191 255 255 255
3 220 73 134 255 255 255
3 281 73 220 255 255 255
3 221 282 281 255 255 255
3 281 273 221 255 255 255
3 134 177 221 255 255 255
3 28 16 33 255 255 255
3 28 176 29 255 255 255
3 28 29 16 255 255 255
3 235 176 29 255 255 255
3 129 176 235 255 255 255
3 215 198 172 255 255 255
3 315 128 215 255 255 255
3 244 128 315 255 255 255
3 280 245 315 255 255 255
3 203 249 43 255 255 255
3 249 205 43 255 255 255
3 116 206 203 255 255 255
3 71 112 116 255 255 255
3 191 222 220 255 255 255
3 281 46 273 255 255 255
3 16 34 33 255 255 255
3 176 129 29 255 255 255
3 29 176 16 255 255 255
3 128 198 215 255 255 255
3 315 136 244 255 255 255
3 249 224 205 255 255 255
3 206 219 203 255 255 255
3 112 100 116 255 255 255
3 71 101 112 255 255 255
3 220 281 58 255 255 255
3 222 45 220 255 255 255
3 221 177 282 255 255 255
3 16 176 34 255 255 255
3 129 185 29 255 255 255
3 172 178 245 255 255 255
3 245 239 315 255 255 255
3 45 217 220 255 255 255
3 177 242 140 255 255 255
3 129 15 185 255 255 255
3 178 136 245 255 255 255
3 172 239 178 255 255 255
3 136 295 244 255 255 255
3 239 136 315 255 255 255
3 224 257 205 255 255 255
3 177 73 282 255 255 255
3 242 104 140 255 255 255
3 239 136 178 255 255 255
3 172 198 128 255 255 255
3 244 105 128 255 255 255
3 295 170 244 255 255 255
3 239 295 136 255 255 255
3 257 203 205 255 255 255
3 177 139 242 255 255 255
3 239 130 136 255 255 255
3 172 128 239 255 255 255
3 143 57 224 255 255 255
3 242 227 104 255 255 255
3 128 105 192 255 255 255
3 224 77 257 255 255 255
3 227 83 104 255 255 255
3 130 250 136 255 255 255
3 192 239 128 255 255 255
3 77 207 257 255 255 255
3 224 74 77 255 255 255
3 57 77 224 255 255 255
3 105 212 192 255 255 255
3 224 143 74 255 255 255
3 83 139 104 255 255 255
3 250 72 136 255 255 255
3 130 210 250 255 255 255
3 192 296 75 255 255 255
3 212 296 192 255 255 255
3 105 170 212 255 255 255
3 77 38 207 255 255 255
3 74 171 77 255 255 255
3 224 36 143 255 255 255
3 57 36 249 255 255 255
3 83 297 35 255 255 255
3 227 139 83 255 255 255
3 250 86 72 255 255 255
3 210 201 250 255 255 255
3 192 210 130 255 255 255
3 296 240 75 255 255 255
3 192 229 296 255 255 255
3 170 296 212 255 255 255
3 38 71 207 255 255 255
3 171 81 77 255 255 255
3 74 31 171 255 255 255
3 224 249 36 255 255 255
3 227 242 139 255 255 255
3 86 232 72 255 255 255
3 192 75 210 255 255 255
3 240 196 75 255 255 255
3 170 86 296 255 255 255
3 224 57 249 255 255 255
3 140 104 139 255 255 255
3 35 254 83 255 255 255
3 232 31 72 255 255 255
3 250 173 86 255 255 255
3 75 277 210 255 255 255
3 192 277 130 255 255 255
3 229 105 296 255 255 255
3 86 201 296 255 255 255
3 31 20 171 255 255 255
3 297 254 35 255 255 255
3 35 179 254 255 255 255
3 173 201 86 255 255 255
3 250 31 173 255 255 255
3 277 130 210 255 255 255
3 75 196 277 255 255 255
3 296 276 240 255 255 255
3 171 78 81 255 255 255
3 20 78 171 255 255 255
3 204 233 35 255 255 255
3 254 204 35 255 255 255
3 173 232 201 255 255 255
3 31 232 173 255 255 255
3 103 76 196 255 255 255
3 196 255 103 255 255 255
3 196 240 255 255 255 255
3 20 232 78 255 255 255
3 233 179 35 255 255 255
3 204 175 233 255 255 255
3 31 37 232 255 255 255
3 210 130 201 255 255 255
3 130 276 201 255 255 255
3 103 247 76 255 255 255
3 78 74 81 255 255 255
3 204 254 175 255 255 255
3 141 254 179 255 255 255
3 232 20 201 255 255 255
3 225 173 201 255 255 255
3 76 255 196 255 255 255
3 103 142 247 255 255 255
3 74 77 81 255 255 255
3 78 31 74 255 255 255
3 233 141 179 255 255 255
3 254 141 175 255 255 255
3 141 233 230 255 255 255
3 232 31 78 255 255 255
3 255 283 103 255 255 255
3 240 76 255 255 255 255
3 204 102 254 255 255 255
3 283 142 103 255 255 255
3 255 17 283 255 255 255
3 97 142 255 255 255 255
3 255 247 97 255 255 255
3 141 102 179 255 255 255
3 141 258 233 255 255 255
3 283 17 142 255 255 255
3 233 298 230 255 255 255
3 17 106 283 255 255 255
3 258 298 233 255 255 255
3 258 59 298 255 255 255
3 230 258 141 255 255 255
3 298 107 230 255 255 255
3 283 19 17 255 255 255
3 258 230 200 255 255 255
3 19 98 17 255 255 255
3 283 106 19 255 255 255
3 106 135 19 255 255 255
3 59 278 298 255 255 255
3 230 24 200 255 255 255
3 278 107 298 255 255 255
3 230 228 24 255 255 255
3 19 106 17 255 255 255
3 17 314 19 255 255 255
3 135 316 19 255 255 255
3 24 59 200 255 255 255
3 107 301 228 255 255 255
3 19 144 106 255 255 255
3 17 98 314 255 255 255
3 98 209 314 255 255 255
3 98 275 209 255 255 255
3 316 256 19 255 255 255
3 278 24 228 255 255 255
3 228 301 278 255 255 255
3 98 256 275 255 255 255
3 256 98 19 255 255 255
3 98 106 19 255 255 255
3 275 274 209 255 255 255
3 209 274 314 255 255 255
3 274 299 314 255 255 255
3 274 252 299 255 255 255
3 256 79 275 255 255 255
3 106 144 135 255 255 255
3 314 199 144 255 255 255
3 299 199 314 255 255 255
3 252 241 299 255 255 255
3 274 25 252 255 255 255
3 79 316 275 255 255 255
3 144 299 211 255 255 255
3 299 211 199 255 255 255
3 252 275 241 255 255 255
3 275 316 241 255 255 255
3 316 108 241 255 255 255
3 316 135 108 255 255 255
3 144 19 299 255 255 255
3 241 108 211 255 255 255
3 108 144 211 255 255 255
3 302 85 145 255 255 255
3 80 231 21 255 255 255
3 231 180 21 255 255 255
3 80 180 231 255 255 255
3 80 21 180 255 255 255
