ply
format ascii 1.0
element vertex 316
property float x
property float y
property float z
element face 576
property list uchar int vertex_indices
property uchar red
property uchar green
property uchar blue
end_header
-3.03600001335144043 11.9989995956420898 -0.819000005722045898
-3.01900005340576172 11.991999626159668 -0.84299999475479126
-3.07100009918212891 11.9890003204345703 -0.861999988555908203
-3.07999992370605469 11.9729995727539062 -0.846000015735626221
-3.04999995231628418 11.9770002365112305 -0.822000026702880859
-3.03699994087219238 11.9849996566772461 -1.00300002098083496
-3.0690000057220459 11.9619998931884766 -1.02499997615814209
-3.0690000057220459 11.9530000686645508 -1.03199994564056396
-3.07200002670288086 11.9540004730224609 -1.04900002479553223
-3.02600002288818359 11.9759998321533203 -1.00600004196166992
-3.02900004386901855 11.9670000076293945 -1.01100003719329834
-3.02500009536743164 11.9720001220703125 -1.00699996948242188
-3.07699990272521973 11.9709997177124023 -1.02699995040893555
-3.05399990081787109 11.9779996871948242 -0.878000020980834961
-3.07200002670288086 11.9870004653930664 -1.0130000114440918
-3.01900005340576172 11.9940004348754883 -0.829999983310699463
-3.05699992179870605 11.9969997406005859 -0.954999983310699463
-3.0409998893737793 11.9729995727539062 -0.990000009536743164
-3.06100010871887207 11.9799995422363281 -0.945999979972839355
-3.06200003623962402 11.9759998321533203 -0.94300001859664917
-3.05800008773803711 11.949000358581543 -0.929000020027160645
-3.04362940788269043 11.9507007598876953 -0.918986082077026367
-3.05200004577636719 11.9680004119873047 -0.947000026702880859
-3.05399990081787109 11.9720001220703125 -0.933000028133392334
-3.05999994277954102 11.9860000610351562 -0.954999983310699463
-3.05900001525878906 11.9700002670288086 -0.930000007152557373
-3.02099990844726562 11.9899997711181641 -0.819999992847442627
-3.05299997329711914 11.9689998626708984 -0.822000026702880859
-3.05200004577636719 11.9554996490478516 -0.93900001049041748
-3.05464911460876465 11.9581079483032227 -0.796059072017669678
-3.06800007820129395 11.9910001754760742 -0.89999997615814209
-3.03100013732910156 11.9799995422363281 -0.814499974250793457
-3.07699990272521973 11.9639997482299805 -0.870999991893768311
-3.08100008964538574 11.9659996032714844 -0.851000010967254639
-3.06800007820129395 11.9619998931884766 -0.805999994277954102
-3.08800005912780762 11.9779996871948242 -0.845000028610229492
-3.06718969345092773 11.9594049453735352 -0.934406638145446777
-3.06299996376037598 11.9589996337890625 -0.929000020027160645
-3.04800009727478027 11.9619998931884766 -0.925999999046325684
-3.05999994277954102 11.9600000381469727 -0.912999987602233887
-3.05500006675720215 11.9549999237060547 -0.906000018119812012
-3.04200005531311035 11.9499998092651367 -0.912999987602233887
-3.05399990081787109 11.9739999771118164 -0.916000008583068848
-3.03999996185302734 11.9399995803833008 -0.896000027656555176
-3.04600000381469727 11.935999870300293 -0.89999997615814209
-3.04900002479553223 11.9350004196166992 -0.902999997138977051
-3.04800009727478027 11.9639997482299805 -0.796999990940093994
-3.08599996566772461 11.9689998626708984 -0.852999985218048096
-3.07800006866455078 11.9670000076293945 -0.856000006198883057
-3.02500009536743164 11.9879999160766602 -0.815999984741210938
-3.07599997520446777 11.9680004119873047 -0.851999998092651367
-3.04200005531311035 11.9820003509521484 -0.991999983787536621
-3.05500006675720215 11.9880008697509766 -0.990999996662139893
-3.07800006866455078 11.9770002365112305 -0.998000025749206543
-3.07699990272521973 11.9759998321533203 -0.986999988555908203
-3.07999992370605469 11.9940004348754883 -0.989000022411346436
-3.07699990272521973 11.9720001220703125 -0.991999983787536621
-3.07305741310119629 11.9657793045043945 -0.995858311653137207
-3.07699990272521973 11.9650001525878906 -0.982999980449676514
-3.07299995422363281 11.9569997787475586 -0.982999980449676514
-3.07899999618530273 11.9879999160766602 -0.991999983787536621
-3.02300000190734863 11.9940004348754883 -0.823000013828277588
-3.03200006484985352 11.9720001220703125 -0.833000004291534424
-3.03800010681152344 11.9969997406005859 -0.842000007629394531
-3.07399988174438477 11.9799995422363281 -1.0559999942779541
-3.0612635612487793 11.9849796295166016 -1.0382082462310791
-3.05200004577636719 11.9739999771118164 -1.03600001335144043
-3.05800008773803711 11.9600000381469727 -1.02499997615814209
-3.06599998474121094 11.9530000686645508 -1.02999997138977051
-3.07599997520446777 11.9700002670288086 -1.00199997425079346
-3.0409998893737793 11.9759998321533203 -1.00300002098083496
-3.0690000057220459 11.9639997482299805 -1.01999998092651367
-3.07200002670288086 11.9540004730224609 -1.03799998760223389
-3.07803750038146973 11.9619693756103516 -1.05164337158203125
-3.05399990081787109 11.9639997482299805 -0.906000018119812012
-3.05800008773803711 11.9759998321533203 -0.851999998092651367
-3.04999995231628418 11.9759998321533203 -0.874000012874603271
-3.07200002670288086 11.9729995727539062 -0.973999977111816406
-3.06599998474121094 11.9619998931884766 -0.987999975681304932
-3.06500005722045898 11.9689998626708984 -0.995999991893768311
-3.08100008964538574 11.9600000381469727 -0.990000009536743164
-3.06299996376037598 11.9580001831054688 -0.96799999475479126
-3.07100009918212891 11.9840002059936523 -0.982999980449676514
-3.05299997329711914 11.9709997177124023 -0.991999983787536621
-3.07999992370605469 11.9659996032714844 -0.996999979019165039
-3.05699992179870605 11.9589996337890625 -0.962000012397766113
-3.06100010871887207 11.9750003814697266 -0.966000020503997803
-3.06800007820129395 11.9709997177124023 -0.805000007152557373
-3.02600002288818359 11.9840002059936523 -0.840499997138977051
-3.0409998893737793 11.9600000381469727 -0.815999984741210938
-3.0500636100769043 11.9570627212524414 -0.808159470558166504
-3.0559999942779541 11.9709997177124023 -0.837999999523162842
-3.07100009918212891 11.9510002136230469 -0.980000019073486328
-3.01600003242492676 11.9890003204345703 -0.84299999475479126
-3.08100008964538574 11.9840002059936523 -0.862999975681304932
-3.06500005722045898 11.9809999465942383 -0.912000000476837158
-3.07500004768371582 11.9799995422363281 -0.83899998664855957
-3.04500007629394531 11.991999626159668 -0.991999983787536621
-3.05999994277954102 11.9729995727539062 -0.998000025749206543
-3.06399989128112793 11.9849996566772461 -0.84299999475479126
-3.08699989318847656 11.9700002670288086 -0.860000014305114746
-3.0820000171661377 11.9799995422363281 -0.874000012874603271
-3.07200002670288086 11.9720001220703125 -0.962999999523162842
-3.01999998092651367 11.994999885559082 -0.83899998664855957
-3.03200006484985352 12.0010004043579102 -0.839999973773956299
-3.06699991226196289 12.0010004043579102 -0.853999972343444824
-3.07200002670288086 12.0389995574951172 -0.962000012397766113
-3.04399991035461426 11.9829998016357422 -0.813000023365020752
-3.0690000057220459 12.0019998550415039 -0.991999983787536621
-3.02900004386901855 12.0010004043579102 -0.829999983310699463
-3.07299995422363281 12.0369997024536133 -0.958000004291534424
-3.0840001106262207 12.0229997634887695 -0.995999991893768311
-3.05800008773803711 12.0010004043579102 -0.952000021934509277
-3.0559999942779541 12 -0.959999978542327881
-3.0280001163482666 12.005000114440918 -0.828999996185302734
-3.0409998893737793 11.9899997711181641 -0.834999978542327881
-3.07599997520446777 11.9969997406005859 -0.864000022411346436
-3.07800006866455078 11.9700002670288086 -1.03699994087219238
-3.07100009918212891 11.9840002059936523 -1.05400002002716064
-3.06200003623962402 11.9809999465942383 -1.04799997806549072
-3.06100010871887207 11.9739999771118164 -1.02699995040893555
-3.07699990272521973 11.9849996566772461 -1.01800000667572021
-3.06999993324279785 11.9849996566772461 -1.04400002956390381
-3.06100010871887207 11.9639997482299805 -1.01999998092651367
-3.05699992179870605 11.9589996337890625 -1.0130000114440918
-3.0840001106262207 11.9849996566772461 -1.0010000467300415
-3.07999992370605469 11.9840002059936523 -1.03199994564056396
-3.04399991035461426 11.9829998016357422 -0.801999986171722412
-3.05900001525878906 11.9779996871948242 -0.847000002861022949
-3.06999993324279785 11.9829998016357422 -0.862999975681304932
-3.02699995040893555 11.9980001449584961 -0.81800001859664917
-3.07100009918212891 11.9720001220703125 -1.01800000667572021
-3.06399989128112793 11.9770002365112305 -1.01199996471405029
-3.07399988174438477 11.9739999771118164 -1.00899994373321533
-3.08500003814697266 11.9779996871948242 -0.865000009536743164
-3.06200003623962402 11.9399995803833008 -1.04400002956390381
-3.02999997138977051 11.9689998626708984 -1.00499999523162842
-3.05399990081787109 11.9420003890991211 -0.924000024795532227
-3.0592498779296875 11.9600000381469727 -0.804250001907348633
-3.07100009918212891 11.9750003814697266 -0.875
-3.05299997329711914 11.9799995422363281 -0.874000012874603271
-3.03200006484985352 11.9849996566772461 -0.815999984741210938
-3.08299994468688965 11.9750003814697266 -0.84299999475479126
-3.09999990463256836 12.0069999694824219 -1
-3.06200003623962402 11.9639997482299805 -0.926999986171722412
-3.06699991226196289 11.9650001525878906 -0.90700000524520874
-3.06500005722045898 11.9600000381469727 -0.90700000524520874
-3.07100009918212891 11.9689998626708984 -0.903999984264373779
-3.0429999828338623 11.939000129699707 -0.903999984264373779
-3.07299995422363281 11.9799995422363281 -0.910000026226043701
-3.06399989128112793 11.9799995422363281 -0.90700000524520874
-3.06699991226196289 11.9870004653930664 -0.903999984264373779
-3.05800008773803711 11.9469995498657227 -0.913999974727630615
-3.07299995422363281 11.9739999771118164 -0.839999973773956299
-3.07599997520446777 11.9969997406005859 -0.989000022411346436
-3.03200006484985352 11.9899997711181641 -0.84299999475479126
-3.0429999828338623 11.9770002365112305 -0.800999999046325684
-3.0429999828338623 11.9860000610351562 -0.833999991416931152
-3.08500003814697266 11.9750003814697266 -0.874000012874603271
-3.06100010871887207 11.9720001220703125 -0.976000010967254639
-3.04600000381469727 11.9799995422363281 -0.796000003814697266
-3.06500005722045898 11.9809999465942383 -0.861999988555908203
-3.08599996566772461 11.9899997711181641 -0.894999980926513672
-3.06399989128112793 11.9960002899169922 -0.903999984264373779
-3.07299995422363281 11.9709997177124023 -1.00699996948242188
-3.07399988174438477 11.9779996871948242 -1.00999999046325684
-3.06299996376037598 11.9739999771118164 -1.02300000190734863
-3.05699992179870605 11.991999626159668 -1.00600004196166992
-3.0690000057220459 11.9840002059936523 -1.02900004386901855
-3.06200003623962402 11.9610004425048828 -1.01199996471405029
-3.05200004577636719 11.9910001754760742 -1.00399994850158691
-3.05999994277954102 11.9829998016357422 -1.00699996948242188
-3.07899999618530273 11.9879999160766602 -1.02799999713897705
-3.0820000171661377 11.9790000915527344 -1.00399994850158691
-3.06399989128112793 11.9499998092651367 -0.90700000524520874
-3.04900002479553223 11.9799995422363281 -0.819999992847442627
-3.03099989891052246 11.9739999771118164 -0.842000007629394531
-3.04500007629394531 11.994999885559082 -0.995999991893768311
-3.08100008964538574 11.9969997406005859 -0.866999983787536621
-3.05399990081787109 11.9610004425048828 -0.816999971866607666
-3.06999993324279785 11.9659996032714844 -0.800000011920928955
-3.05200004577636719 11.9680004119873047 -0.837000012397766113
-3.02900004386901855 11.9770002365112305 -0.998000025749206543
-3.05200004577636719 11.9709997177124023 -0.795000016689300537
-3.03900003433227539 11.9630002975463867 -0.994000017642974854
-3.08500003814697266 11.9899997711181641 -0.855000019073486328
-3.06100010871887207 11.9860000610351562 -0.843999981880187988
-3.06200003623962402 11.9759998321533203 -0.801999986171722412
-3.05999994277954102 11.9739999771118164 -0.805999994277954102
-3.07599997520446777 11.9989995956420898 -0.855000019073486328
-3.0820000171661377 11.9709997177124023 -0.848999977111816406
-3.03200006484985352 11.9720001220703125 -0.994000017642974854
-3.0141150951385498 11.9880189895629883 -0.830036520957946777
-3.05800008773803711 11.9689998626708984 -0.834999978542327881
-3.04200005531311035 11.9910001754760742 -0.819000005722045898
-3.05900001525878906 11.9729995727539062 -1.04100000858306885
-3.05824995040893555 11.9587497711181641 -1.03474998474121094
-3.06200003623962402 11.949000358581543 -1.03999996185302734
-3.07500004768371582 11.9670000076293945 -1.02999997138977051
-3.07299995422363281 11.9779996871948242 -1.06500005722045898
-3.06999993324279785 11.9809999465942383 -1.05900001525878906
-3.06100010871887207 11.9630002975463867 -1.04799997806549072
-3.0559999942779541 11.9510002136230469 -1.04600000381469727
-3.0690000057220459 11.9449996948242188 -1.02900004386901855
-3.07500004768371582 11.9860000610351562 -1.00499999523162842
-3.06599998474121094 12.0030002593994141 -0.990999996662139893
-3.06699991226196289 12.0010004043579102 -0.998000025749206543
-3.07100009918212891 12.0010004043579102 -0.989000022411346436
-3.07399988174438477 12.0030002593994141 -0.989000022411346436
-3.08500003814697266 12.005000114440918 -0.990000009536743164
-3.08999991416931152 12.0120000839233398 -0.987999975681304932
-3.08100008964538574 12.0249996185302734 -0.991999983787536621
-3.09885072708129883 12.0050172805786133 -0.993734061717987061
-3.07299995422363281 11.9750003814697266 -1.05900001525878906
-3.07800006866455078 11.9619998931884766 -1.05999994277954102
-3.06699991226196289 11.9610004425048828 -1.06299996376037598
-3.06299996376037598 11.9479999542236328 -1.05400002002716064
-3.02300000190734863 11.9980001449584961 -0.828999996185302734
-3.05987858772277832 11.9538087844848633 -0.941522061824798584
-3.05399990081787109 11.9700002670288086 -0.953999996185302734
-3.05699992179870605 11.9910001754760742 -0.949999988079071045
-3.04600000381469727 11.9809999465942383 -0.990000009536743164
-3.04399991035461426 11.9680004119873047 -0.999000012874603271
-3.07299995422363281 11.9790000915527344 -0.964999973773956299
-3.0690000057220459 11.9700002670288086 -0.941999971866607666
-3.05699992179870605 11.9510002136230469 -0.93900001049041748
-3.04699993133544922 11.9540004730224609 -0.94300001859664917
-3.0559999942779541 11.9829998016357422 -0.957000017166137695
-3.05500006675720215 11.9460000991821289 -0.917999982833862305
-3.04900002479553223 11.9750003814697266 -0.924000024795532227
-3.06299996376037598 11.9630002975463867 -0.91100001335144043
-3.06404685974121094 11.9741125106811523 -0.914736032485961914
-3.06699991226196289 11.9729995727539062 -0.894999980926513672
-3.07399988174438477 11.9759998321533203 -0.904999971389770508
-3.07999992370605469 11.993499755859375 -0.901000022888183594
-3.08299994468688965 11.9820003509521484 -0.888000011444091797
-3.07399988174438477 11.9779996871948242 -0.873000025749206543
-3.03999996185302734 11.9300003051757812 -0.903999984264373779
-3.06999993324279785 11.9969997406005859 -0.856999993324279785
-3.06800007820129395 11.9729995727539062 -0.852999985218048096
-3.03800010681152344 11.9870004653930664 -0.814999997615814209
-3.07800006866455078 11.9589996337890625 -0.999000012874603271
-3.03500008583068848 11.9820003509521484 -0.83899998664855957
-3.04900002479553223 11.9829998016357422 -0.801999986171722412
-3.05399990081787109 11.9729995727539062 -0.811999976634979248
-3.07200002670288086 12.0319995880126953 -0.964999973773956299
-3.06200003623962402 11.9770002365112305 -0.912999987602233887
-3.08599996566772461 11.9899997711181641 -0.85000002384185791
-3.08899998664855957 11.9759998321533203 -0.884999990463256836
-3.02500009536743164 11.9779996871948242 -0.814999997615814209
-3.08217954635620117 11.9632682800292969 -0.859932899475097656
-3.01600003242492676 11.9759998321533203 -0.836000025272369385
-3.0820000171661377 11.9799995422363281 -0.880999982357025146
-3.05500006675720215 11.9600000381469727 -0.967000007629394531
-3.07392430305480957 11.9858665466308594 -0.844990074634552002
-3.02300000190734863 11.9729995727539062 -0.820999979972839355
-3.0130000114440918 11.9910001754760742 -0.833000004291534424
-3.04800009727478027 11.9650001525878906 -0.995000004768371582
-3.04900002479553223 11.9829998016357422 -0.987999975681304932
-3.07899999618530273 11.9680004119873047 -0.990000009536743164
-3.06100010871887207 11.9600000381469727 -0.953000009059906006
-3.05500006675720215 11.9720001220703125 -0.958999991416931152
-3.06800007820129395 11.9779996871948242 -0.968999981880187988
-3.08100008964538574 11.9910001754760742 -0.994000017642974854
-3.05500006675720215 11.9580001831054688 -0.958999991416931152
-3.0559999942779541 11.9930000305175781 -0.958000004291534424
-3.03600001335144043 11.9680004119873047 -0.994000017642974854
-3.04999995231628418 11.9600000381469727 -0.816999971866607666
-3.06291770935058594 11.9767589569091797 -0.905201256275177002
-3.06399989128112793 11.9770002365112305 -1.00600004196166992
-3.05900001525878906 11.9540004730224609 -1.04600000381469727
-3.06800007820129395 11.9670000076293945 -1.05200004577636719
-3.07500004768371582 11.9829998016357422 -1.03299999237060547
-3.06999993324279785 11.949000358581543 -1.0429999828338623
-3.07599997520446777 11.9580001831054688 -1.06299996376037598
-3.07100009918212891 11.9569997787475586 -1.06299996376037598
-3.06200003623962402 11.9659996032714844 -1.02300000190734863
-3.03600001335144043 11.9600000381469727 -0.819999992847442627
-3.05500006675720215 11.9670000076293945 -0.819000005722045898
-3.04999995231628418 11.9729995727539062 -0.93900001049041748
-3.06100010871887207 11.9619998931884766 -0.811999976634979248
-3.07100009918212891 11.9639997482299805 -0.861999988555908203
-3.06800007820129395 11.9630002975463867 -0.96399998664855957
-3.04500007629394531 11.9610004425048828 -0.921999990940093994
-3.03200006484985352 11.9639997482299805 -0.994000017642974854
-3.04200005531311035 11.9589996337890625 -0.915000021457672119
-3.05100011825561523 11.9670000076293945 -0.908999979496002197
-3.04800009727478027 11.944000244140625 -0.908999979496002197
-3.04200005531311035 11.9589996337890625 -0.908999979496002197
-3.04999995231628418 11.9600000381469727 -0.898999989032745361
-3.06599998474121094 11.9670000076293945 -0.902000010013580322
-3.04900002479553223 11.944000244140625 -0.921999990940093994
-3.03409934043884277 11.9699459075927734 -0.802896797657012939
-3.09500002861022949 12.005000114440918 -1.00199997425079346
-3.10299992561340332 12.0030002593994141 -1.00499999523162842
-3.05999994277954102 11.9709997177124023 -0.96399998664855957
-3.04800009727478027 11.9729995727539062 -0.990999996662139893
-3.04399991035461426 11.9879999160766602 -0.995999991893768311
-3.06100010871887207 11.9809999465942383 -0.982999980449676514
-3.06800007820129395 11.9700002670288086 -0.950999975204467773
-3.07299995422363281 11.9540004730224609 -0.986000001430511475
-3.06299996376037598 11.9680004119873047 -0.982999980449676514
-3.07100009918212891 11.9700002670288086 -0.968999981880187988
-3.07399988174438477 11.9759998321533203 -0.976999998092651367
-3.06299996376037598 11.9779996871948242 -0.966000020503997803
-3.08699989318847656 11.9910001754760742 -0.994000017642974854
-3.0429999828338623 11.9540004730224609 -0.800000011920928955
-3.04800009727478027 11.9849996566772461 -0.827000021934509277
-3.06699991226196289 11.9720001220703125 -0.870000004768371582
-3.04307818412780762 11.9700212478637695 -0.790014505386352539
-3.08699989318847656 11.9750003814697266 -0.847999989986419678
-3.06399989128112793 11.9680004119873047 -0.808000028133392334
-3.04699993133544922 11.9460000991821289 -0.903999984264373779
-3.08786368370056152 11.9761056900024414 -0.869002342224121094
-3.06399989128112793 11.9650001525878906 -0.790000021457672119
-3.02200007438659668 11.9870004653930664 -0.81400001049041748
3 205 55 108 255 255 255
3 55 60 108 255 255 255
3 60 205 108 255 255 255
3 55 54 60 255 255 255
3 54 53 60 255 255 255
3 53 204 60 255 255 255
3 54 56 53 255 255 255
3 204 206 60 255 255 255
3 53 164 204 255 255 255
3 56 57 53 255 255 255
3 54 57 56 255 255 255
3 54 58 57 255 255 255
3 206 207 60 255 255 255
3 204 14 206 255 255 255
3 164 165 204 255 255 255
3 53 57 164 255 255 255
3 57 241 164 255 255 255
3 58 59 57 255 255 255
3 207 154 60 255 255 255
3 206 205 207 255 255 255
3 204 165 14 255 255 255
3 165 166 14 255 255 255
3 164 131 165 255 255 255
3 57 78 241 255 255 255
3 59 300 57 255 255 255
3 58 77 59 255 255 255
3 207 208 154 255 255 255
3 206 167 205 255 255 255
3 166 168 14 255 255 255
3 164 169 131 255 255 255
3 78 300 241 255 255 255
3 57 301 78 255 255 255
3 59 92 300 255 255 255
3 77 302 59 255 255 255
3 58 54 77 255 255 255
3 54 303 77 255 255 255
3 208 209 154 255 255 255
3 167 170 205 255 255 255
3 206 171 167 255 255 255
3 168 172 14 255 255 255
3 166 120 168 255 255 255
3 169 123 131 255 255 255
3 164 79 169 255 255 255
3 300 80 241 255 255 255
3 301 59 78 255 255 255
3 59 81 92 255 255 255
3 302 282 59 255 255 255
3 77 295 302 255 255 255
3 303 82 77 255 255 255
3 54 82 303 255 255 255
3 209 55 154 255 255 255
3 208 210 209 255 255 255
3 170 97 205 255 255 255
3 167 171 170 255 255 255
3 171 97 170 255 255 255
3 206 269 171 255 255 255
3 172 121 14 255 255 255
3 168 122 172 255 255 255
3 120 65 168 255 255 255
3 166 123 120 255 255 255
3 169 124 123 255 255 255
3 79 83 169 255 255 255
3 80 84 241 255 255 255
3 300 92 80 255 255 255
3 301 159 59 255 255 255
3 81 253 92 255 255 255
3 302 85 282 255 255 255
3 77 86 295 255 255 255
3 82 86 77 255 255 255
3 82 304 86 255 255 255
3 55 82 154 255 255 255
3 209 305 55 255 255 255
3 210 212 209 255 255 255
3 208 211 210 255 255 255
3 206 165 269 255 255 255
3 121 125 14 255 255 255
3 172 126 121 255 255 255
3 122 126 172 255 255 255
3 122 64 126 255 255 255
3 168 65 122 255 255 255
3 120 66 65 255 255 255
3 120 67 66 255 255 255
3 123 67 120 255 255 255
3 123 124 67 255 255 255
3 124 68 67 255 255 255
3 166 132 123 255 255 255
3 83 124 169 255 255 255
3 83 257 124 255 255 255
3 79 258 83 255 255 255
3 84 69 241 255 255 255
3 80 259 84 255 255 255
3 301 83 159 255 255 255
3 85 260 282 255 255 255
3 302 86 85 255 255 255
3 86 261 295 255 255 255
3 304 227 86 255 255 255
3 82 262 304 255 255 255
3 305 54 55 255 255 255
3 305 125 54 255 255 255
3 209 212 305 255 255 255
3 210 143 212 255 255 255
3 211 111 210 255 255 255
3 165 69 269 255 255 255
3 125 263 14 255 255 255
3 121 173 125 255 255 255
3 126 12 121 255 255 255
3 64 117 126 255 255 255
3 122 118 64 255 255 255
3 65 119 122 255 255 255
3 66 119 65 255 255 255
3 66 195 119 255 255 255
3 67 196 66 255 255 255
3 68 197 67 255 255 255
3 166 171 132 255 255 255
3 257 184 124 255 255 255
3 83 296 257 255 255 255
3 258 297 83 255 255 255
3 79 298 258 255 255 255
3 69 164 241 255 255 255
3 69 133 164 255 255 255
3 84 173 69 255 255 255
3 259 54 84 255 255 255
3 83 17 159 255 255 255
3 260 299 282 255 255 255
3 85 264 260 255 255 255
3 302 262 86 255 255 255
3 261 253 295 255 255 255
3 304 265 227 255 255 255
3 262 24 304 255 255 255
3 82 223 262 255 255 255
3 305 293 125 255 255 255
3 212 294 305 255 255 255
3 143 294 212 255 255 255
3 143 293 294 255 255 255
3 210 111 143 255 255 255
3 69 79 269 255 255 255
3 263 206 14 255 255 255
3 263 208 206 255 255 255
3 173 84 125 255 255 255
3 121 133 173 255 255 255
3 126 117 12 255 255 255
3 117 198 12 255 255 255
3 64 73 117 255 255 255
3 118 199 64 255 255 255
3 122 119 118 255 255 255
3 119 200 118 255 255 255
3 195 201 119 255 255 255
3 66 201 195 255 255 255
3 66 202 201 255 255 255
3 196 270 66 255 255 255
3 197 196 67 255 255 255
3 68 203 197 255 255 255
3 171 98 132 255 255 255
3 257 266 184 255 255 255
3 296 51 257 255 255 255
3 83 52 296 255 255 255
3 297 70 83 255 255 255
3 258 177 297 255 255 255
3 298 97 258 255 255 255
3 69 173 133 255 255 255
3 259 78 54 255 255 255
3 299 102 282 255 255 255
3 260 218 299 255 255 255
3 264 218 260 255 255 255
3 261 219 253 255 255 255
3 265 220 227 255 255 255
3 143 111 293 255 255 255
3 79 98 269 255 255 255
3 69 259 79 255 255 255
3 263 305 208 255 255 255
3 121 131 133 255 255 255
3 198 71 12 255 255 255
3 117 72 198 255 255 255
3 64 213 73 255 255 255
3 199 213 64 255 255 255
3 199 214 213 255 255 255
3 118 200 199 255 255 255
3 200 215 199 255 255 255
3 119 271 200 255 255 255
3 201 271 119 255 255 255
3 201 215 271 255 255 255
3 202 216 201 255 255 255
3 197 202 196 255 255 255
3 203 135 197 255 255 255
3 68 123 203 255 255 255
3 171 296 98 255 255 255
3 266 284 184 255 255 255
3 257 51 266 255 255 255
3 51 182 266 255 255 255
3 296 297 51 255 255 255
3 52 221 296 255 255 255
3 70 222 83 255 255 255
3 297 5 70 255 255 255
3 259 300 78 255 255 255
3 299 223 102 255 255 255
3 218 224 299 255 255 255
3 264 226 218 255 255 255
3 219 264 253 255 255 255
3 261 227 219 255 255 255
3 220 22 227 255 255 255
3 265 16 220 255 255 255
3 79 301 98 255 255 255
3 121 272 131 255 255 255
3 71 164 12 255 255 255
3 198 6 71 255 255 255
3 72 7 198 255 255 255
3 117 73 72 255 255 255
3 73 273 72 255 255 255
3 213 214 73 255 255 255
3 214 274 73 255 255 255
3 199 274 214 255 255 255
3 215 274 199 255 255 255
3 215 275 274 255 255 255
3 200 271 215 255 255 255
3 201 216 215 255 255 255
3 216 275 215 255 255 255
3 216 274 275 255 255 255
3 216 8 274 255 255 255
3 202 135 216 255 255 255
3 202 270 196 255 255 255
3 123 71 203 255 255 255
3 68 276 123 255 255 255
3 266 182 284 255 255 255
3 297 182 51 255 255 255
3 297 9 182 255 255 255
3 221 17 296 255 255 255
3 52 177 221 255 255 255
3 222 184 83 255 255 255
3 70 136 222 255 255 255
3 5 9 70 255 255 255
3 223 302 102 255 255 255
3 299 18 223 255 255 255
3 224 18 299 255 255 255
3 224 19 18 255 255 255
3 218 36 224 255 255 255
3 225 36 218 255 255 255
3 225 20 36 255 255 255
3 218 226 225 255 255 255
3 226 20 225 255 255 255
3 226 21 20 255 255 255
3 219 22 264 255 255 255
3 227 279 219 255 255 255
3 220 18 22 255 255 255
3 16 112 220 255 255 255
3 265 113 16 255 255 255
3 301 258 98 255 255 255
3 164 133 12 255 255 255
3 71 124 164 255 255 255
3 6 68 71 255 255 255
3 198 7 6 255 255 255
3 7 203 6 255 255 255
3 8 273 73 255 255 255
3 8 216 273 255 255 255
3 73 274 8 255 255 255
3 202 197 135 255 255 255
3 123 132 71 255 255 255
3 68 72 276 255 255 255
3 9 10 182 255 255 255
3 17 191 296 255 255 255
3 222 136 184 255 255 255
3 9 136 70 255 255 255
3 9 11 136 255 255 255
3 18 24 223 255 255 255
3 19 23 18 255 255 255
3 224 25 19 255 255 255
3 20 37 36 255 255 255
3 21 228 20 255 255 255
3 226 283 21 255 255 255
3 22 226 264 255 255 255
3 22 279 226 255 255 255
3 18 23 22 255 255 255
3 23 38 22 255 255 255
3 16 113 112 255 255 255
3 72 6 276 255 255 255
3 10 191 182 255 255 255
3 52 206 177 255 255 255
3 11 284 136 255 255 255
3 24 265 223 255 255 255
3 18 220 24 255 255 255
3 220 112 24 255 255 255
3 19 25 23 255 255 255
3 25 229 23 255 255 255
3 224 36 25 255 255 255
3 36 144 25 255 255 255
3 36 37 144 255 255 255
3 37 230 144 255 255 255
3 20 228 37 255 255 255
3 228 39 37 255 255 255
3 283 285 21 255 255 255
3 226 38 283 255 255 255
3 22 219 279 255 255 255
3 38 28 22 255 255 255
3 23 229 38 255 255 255
3 229 283 38 255 255 255
3 229 285 283 255 255 255
3 229 286 285 255 255 255
3 6 166 276 255 255 255
3 52 154 206 255 255 255
3 284 10 136 255 255 255
3 25 246 229 255 255 255
3 144 42 25 255 255 255
3 230 145 144 255 255 255
3 37 146 230 255 255 255
3 39 146 37 255 255 255
3 228 146 39 255 255 255
3 228 40 146 255 255 255
3 21 287 228 255 255 255
3 285 41 21 255 255 255
3 226 279 38 255 255 255
3 286 288 285 255 255 255
3 229 42 286 255 255 255
3 6 12 166 255 255 255
3 25 231 246 255 255 255
3 145 231 144 255 255 255
3 230 146 145 255 255 255
3 146 147 145 255 255 255
3 40 289 146 255 255 255
3 228 287 40 255 255 255
3 287 312 40 255 255 255
3 21 148 287 255 255 255
3 41 148 21 255 255 255
3 41 43 148 255 255 255
3 285 288 41 255 255 255
3 288 312 41 255 255 255
3 286 289 288 255 255 255
3 42 268 286 255 255 255
3 229 95 42 255 255 255
3 12 272 166 255 255 255
3 231 149 246 255 255 255
3 147 231 145 255 255 255
3 147 149 231 255 255 255
3 146 290 147 255 255 255
3 289 290 146 255 255 255
3 289 232 290 255 255 255
3 287 44 312 255 255 255
3 148 45 287 255 255 255
3 43 237 148 255 255 255
3 286 268 289 255 255 255
3 42 150 268 255 255 255
3 149 151 246 255 255 255
3 147 233 149 255 255 255
3 290 232 147 255 255 255
3 232 233 147 255 255 255
3 232 30 233 255 255 255
3 44 43 312 255 255 255
3 287 237 44 255 255 255
3 45 152 287 255 255 255
3 148 44 45 255 255 255
3 150 151 268 255 255 255
3 151 163 246 255 255 255
3 233 234 149 255 255 255
3 287 137 237 255 255 255
3 152 41 287 255 255 255
3 45 174 152 255 255 255
3 151 30 268 255 255 255
3 150 163 151 255 255 255
3 150 95 163 255 255 255
3 234 163 149 255 255 255
3 233 162 234 255 255 255
3 174 74 152 255 255 255
3 30 232 268 255 255 255
3 232 231 268 255 255 255
3 233 235 162 255 255 255
3 74 288 152 255 255 255
3 235 248 162 255 255 255
3 233 248 235 255 255 255
3 288 291 152 255 255 255
3 291 137 152 255 255 255
3 249 141 31 255 255 255
3 31 292 249 255 255 255
3 31 156 292 255 255 255
3 141 240 31 255 255 255
3 249 26 141 255 255 255
3 292 255 249 255 255 255
3 156 160 292 255 255 255
3 31 240 156 255 255 255
3 240 160 156 255 255 255
3 240 243 160 255 255 255
3 141 315 240 255 255 255
3 26 130 141 255 255 255
3 249 192 26 255 255 255
3 255 192 249 255 255 255
3 255 251 192 255 255 255
3 292 277 255 255 255 255
3 160 309 292 255 255 255
3 243 187 160 255 255 255
3 240 194 243 255 255 255
3 141 255 315 255 255 255
3 26 61 130 255 255 255
3 251 256 192 255 255 255
3 255 62 251 255 255 255
3 160 183 309 255 255 255
3 187 183 160 255 255 255
3 187 314 183 255 255 255
3 243 188 187 255 255 255
3 240 0 194 255 255 255
3 255 192 315 255 255 255
3 141 107 255 255 255 255
3 61 217 130 255 255 255
3 26 15 61 255 255 255
3 192 15 26 255 255 255
3 251 93 256 255 255 255
3 62 176 251 255 255 255
3 292 306 277 255 255 255
3 309 306 292 255 255 255
3 309 46 306 255 255 255
3 183 314 309 255 255 255
3 187 180 314 255 255 255
3 188 87 187 255 255 255
3 243 175 188 255 255 255
3 0 115 194 255 255 255
3 240 130 0 255 255 255
3 192 61 315 255 255 255
3 107 175 255 255 255 255
3 141 127 107 255 255 255
3 217 114 130 255 255 255
3 93 103 256 255 255 255
3 251 88 93 255 255 255
3 176 88 251 255 255 255
3 62 181 176 255 255 255
3 306 89 277 255 255 255
3 46 29 306 255 255 255
3 309 29 46 255 255 255
3 309 314 29 255 255 255
3 187 87 180 255 255 255
3 87 34 180 255 255 255
3 188 311 87 255 255 255
3 175 244 188 255 255 255
3 115 307 194 255 255 255
3 0 63 115 255 255 255
3 130 114 0 255 255 255
3 240 49 130 255 255 255
3 175 62 255 255 255 255
3 175 307 62 255 255 255
3 127 244 107 255 255 255
3 217 103 114 255 255 255
3 103 15 256 255 255 255
3 93 1 103 255 255 255
3 88 1 93 255 255 255
3 88 155 1 255 255 255
3 176 155 88 255 255 255
3 176 242 155 255 255 255
3 181 75 176 255 255 255
3 62 277 181 255 255 255
3 89 267 277 255 255 255
3 306 90 89 255 255 255
3 34 29 180 255 255 255
3 87 311 34 255 255 255
3 311 280 34 255 255 255
3 244 311 188 255 255 255
3 244 278 311 255 255 255
3 175 4 244 255 255 255
3 115 157 307 255 255 255
3 63 157 115 255 255 255
3 63 242 157 255 255 255
3 0 109 63 255 255 255
3 49 315 130 255 255 255
3 307 157 62 255 255 255
3 175 194 307 255 255 255
3 244 27 107 255 255 255
3 127 243 244 255 255 255
3 103 104 114 255 255 255
3 103 217 15 255 255 255
3 1 104 103 255 255 255
3 1 155 104 255 255 255
3 155 63 104 255 255 255
3 181 91 75 255 255 255
3 277 267 181 255 255 255
3 267 179 181 255 255 255
3 89 90 267 255 255 255
3 90 179 267 255 255 255
3 306 29 90 255 255 255
3 29 138 90 255 255 255
3 29 314 180 255 255 255
3 34 138 29 255 255 255
3 280 138 34 255 255 255
3 280 90 138 255 255 255
3 311 278 280 255 255 255
3 278 179 280 255 255 255
3 175 157 4 255 255 255
3 63 155 242 255 255 255
3 109 104 63 255 255 255
3 109 114 104 255 255 255
3 109 0 114 255 255 255
3 49 240 315 255 255 255
3 27 4 107 255 255 255
3 244 90 27 255 255 255
3 91 239 75 255 255 255
3 181 193 91 255 255 255
3 179 193 181 255 255 255
3 90 280 179 255 255 255
3 278 27 179 255 255 255
3 157 91 4 255 255 255
3 239 281 75 255 255 255
3 91 193 4 255 255 255
3 157 128 91 255 255 255
3 281 308 75 255 255 255
3 239 50 281 255 255 255
3 128 96 91 255 255 255
3 308 76 75 255 255 255
3 281 32 308 255 255 255
3 50 33 281 255 255 255
3 239 153 50 255 255 255
3 128 254 96 255 255 255
3 308 13 76 255 255 255
3 32 139 308 255 255 255
3 281 250 32 255 255 255
3 33 250 281 255 255 255
3 50 3 33 255 255 255
3 239 128 153 255 255 255
3 128 2 254 255 255 255
3 308 232 13 255 255 255
3 32 252 139 255 255 255
3 250 158 32 255 255 255
3 33 47 250 255 255 255
3 3 142 33 255 255 255
3 50 96 3 255 255 255
3 128 99 153 255 255 255
3 2 189 254 255 255 255
3 128 161 2 255 255 255
3 308 139 232 255 255 255
3 252 236 139 255 255 255
3 32 158 252 255 255 255
3 158 313 252 255 255 255
3 250 313 158 255 255 255
3 250 100 313 255 255 255
3 47 100 250 255 255 255
3 47 310 100 255 255 255
3 33 142 47 255 255 255
3 142 310 47 255 255 255
3 142 35 310 255 255 255
3 3 153 142 255 255 255
3 128 186 99 255 255 255
3 254 35 96 255 255 255
3 254 189 247 255 255 255
3 189 185 247 255 255 255
3 2 116 189 255 255 255
3 161 129 2 255 255 255
3 128 75 161 255 255 255
3 236 161 139 255 255 255
3 252 101 236 255 255 255
3 313 101 252 255 255 255
3 313 94 101 255 255 255
3 310 134 100 255 255 255
3 35 185 310 255 255 255
3 186 105 99 255 255 255
3 35 142 96 255 255 255
3 254 247 35 255 255 255
3 185 35 247 255 255 255
3 189 178 185 255 255 255
3 116 178 189 255 255 255
3 116 236 178 255 255 255
3 75 140 161 255 255 255
3 161 239 139 255 255 255
3 236 129 161 255 255 255
3 236 2 129 255 255 255
3 236 116 2 255 255 255
3 101 94 236 255 255 255
3 313 185 94 255 255 255
3 134 313 100 255 255 255
3 310 94 134 255 255 255
3 236 313 178 255 255 255
3 75 76 140 255 255 255
3 76 13 140 255 255 255
3 13 236 140 255 255 255
3 239 48 139 255 255 255
3 185 238 94 255 255 255
3 94 178 134 255 255 255
3 48 134 139 255 255 255
3 185 105 238 255 255 255
3 94 238 178 255 255 255
3 48 190 134 255 255 255
3 185 99 105 255 255 255
3 185 142 99 255 255 255
3 48 50 190 255 255 255
3 110 106 245 255 255 255
