ply
format ascii 1.0
element vertex 311
property float x
property float y
property float z
element face 576
property list uchar int vertex_indices
property uchar red
property uchar green
property uchar blue
end_header
10.2227516174316406 -5.27856922149658203 -0.700600504875183105
10.2329998016357422 -5.30399990081787109 -0.81400001049041748
10.2670001983642578 -5.28000020980834961 -0.735000014305114746
10.255000114440918 -5.25 -0.754999995231628418
10.2049999237060547 -5.32399988174438477 -0.720000028610229492
10.2321557998657227 -5.30296754837036133 -0.715124130249023438
10.1969995498657227 -5.3189997673034668 -0.694000005722045898
10.2060003280639648 -5.32000017166137695 -0.680999994277954102
10.2069997787475586 -5.31199979782104492 -0.707000017166137695
10.1969995498657227 -5.31400012969970703 -0.703999996185302734
10.1969995498657227 -5.32200002670288086 -0.680999994277954102
10.2100000381469727 -5.29199981689453125 -0.759999990463256836
10.2250003814697266 -5.29699993133544922 -0.730000019073486328
10.2489995956420898 -5.3060002326965332 -0.717000007629394531
10.2569999694824219 -5.31400012969970703 -0.773000001907348633
10.2609996795654297 -5.25600004196166992 -0.765999972820281982
10.2519998550415039 -5.2649998664855957 -0.759000003337860107
10.2519998550415039 -5.30800008773803711 -0.824000000953674316
10.2139997482299805 -5.31699991226196289 -0.763999998569488525
10.2220001220703125 -5.32999992370605469 -0.726000010967254639
10.2110004425048828 -5.32899999618530273 -0.744000017642974854
10.2010002136230469 -5.32100009918212891 -0.749000012874603271
10.1899995803833008 -5.30299997329711914 -0.741999983787536621
10.2220001220703125 -5.26700019836425781 -0.734000027179718018
10.2069997787475586 -5.32499980926513672 -0.753000020980834961
10.194000244140625 -5.28900003433227539 -0.740000009536743164
10.2100000381469727 -5.28599977493286133 -0.744000017642974854
10.2189998626708984 -5.30800008773803711 -0.744000017642974854
10.1832599639892578 -5.30330753326416016 -0.727944672107696533
10.1920003890991211 -5.28200006484985352 -0.730000019073486328
10.2030000686645508 -5.2909998893737793 -0.721000015735626221
10.2159996032714844 -5.28499984741210938 -0.71399998664855957
10.2340002059936523 -5.31300020217895508 -0.726999998092651367
10.2170000076293945 -5.32800006866455078 -0.741999983787536621
10.2220001220703125 -5.32800006866455078 -0.759999990463256836
10.1999998092651367 -5.32999992370605469 -0.749000012874603271
10.2489995956420898 -5.29400014877319336 -0.754999995231628418
10.2700004577636719 -5.29300022125244141 -0.708000004291534424
10.2690000534057617 -5.30000019073486328 -0.727999985218048096
10.25 -5.25299978256225586 -0.754000008106231689
10.2410001754760742 -5.32499980926513672 -0.828000009059906006
10.2220001220703125 -5.31199979782104492 -0.777999997138977051
10.2229995727539062 -5.26100015640258789 -0.745000004768371582
10.2270002365112305 -5.30999994277954102 -0.837000012397766113
10.2180004119873047 -5.32399988174438477 -0.711000025272369385
10.2659997940063477 -5.29500007629394531 -0.677999973297119141
10.2725000381469727 -5.29899978637695312 -0.71950000524520874
10.2603006362915039 -5.24635934829711914 -0.7487296462059021
10.2349996566772461 -5.31799983978271484 -0.813000023365020752
10.2399997711181641 -5.27500009536743164 -0.708000004291534424
10.2220001220703125 -5.26999998092651367 -0.753000020980834961
10.2290000915527344 -5.25899982452392578 -0.740000009536743164
10.2440004348754883 -5.30900001525878906 -0.805999994277954102
10.2110004425048828 -5.3060002326965332 -0.69300001859664917
10.2539997100830078 -5.28700017929077148 -0.758000016212463379
10.1999998092651367 -5.29899978637695312 -0.746999979019165039
10.1875 -5.29650020599365234 -0.742500007152557373
10.182499885559082 -5.29549980163574219 -0.728999972343444824
10.189000129699707 -5.28700017929077148 -0.741999983787536621
10.199000358581543 -5.28399991989135742 -0.730000019073486328
10.2159996032714844 -5.28100013732910156 -0.727999985218048096
10.2151107788085938 -5.27794647216796875 -0.713045358657836914
10.2119998931884766 -5.30700016021728516 -0.686999976634979248
10.2010002136230469 -5.30499982833862305 -0.716000020503997803
10.2080001831054688 -5.33300018310546875 -0.698000013828277588
10.2279996871948242 -5.3189997673034668 -0.781000018119812012
10.2239999771118164 -5.32800006866455078 -0.688000023365020752
10.2040004730224609 -5.33199977874755859 -0.705999970436096191
10.2049999237060547 -5.32600021362304688 -0.730000019073486328
10.1919994354248047 -5.30099964141845703 -0.72350001335144043
10.1920003890991211 -5.29300022125244141 -0.716000020503997803
10.2270002365112305 -5.31400012969970703 -0.703999996185302734
10.2189998626708984 -5.32800006866455078 -0.72500002384185791
10.1930046081542969 -5.3220062255859375 -0.723002791404724121
10.1979999542236328 -5.31400012969970703 -0.736000001430511475
10.2010002136230469 -5.29699993133544922 -0.716000020503997803
10.2200002670288086 -5.2909998893737793 -0.694999992847442627
10.2309999465942383 -5.29699993133544922 -0.726999998092651367
10.241999626159668 -5.27899980545043945 -0.727999985218048096
10.2309999465942383 -5.29799985885620117 -0.773000001907348633
10.2480001449584961 -5.28100013732910156 -0.700999975204467773
10.2670001983642578 -5.31099987030029297 -0.700999975204467773
10.2558422088623047 -5.25799942016601562 -0.77494204044342041
10.2220001220703125 -5.30299997329711914 -0.769999980926513672
10.2760000228881836 -5.30550003051757812 -0.710999965667724609
10.2409992218017578 -5.3255000114440918 -0.806499958038330078
10.2609996795654297 -5.28900003433227539 -0.736000001430511475
10.2519998550415039 -5.30700016021728516 -0.787000000476837158
10.2569999694824219 -5.28299999237060547 -0.695999979972839355
10.2569999694824219 -5.29799985885620117 -0.794000029563903809
10.2159996032714844 -5.32399988174438477 -0.683000028133392334
10.2130002975463867 -5.33599996566772461 -0.689999997615814209
10.2010002136230469 -5.32999992370605469 -0.686999976634979248
10.1928339004516602 -5.31435251235961914 -0.727888524532318115
10.2270002365112305 -5.32999992370605469 -0.759000003337860107
10.2180004119873047 -5.27199983596801758 -0.739000022411346436
10.2410001754760742 -5.30999994277954102 -0.726999998092651367
10.2298383712768555 -5.3258824348449707 -0.766078412532806396
10.2460002899169922 -5.30999994277954102 -0.699999988079071045
10.2239999771118164 -5.28299999237060547 -0.759000003337860107
10.2700004577636719 -5.27500009536743164 -0.753000020980834961
10.252690315246582 -5.30004119873046875 -0.82027745246887207
10.2530002593994141 -5.30200004577636719 -0.679000020027160645
10.2819204330444336 -5.26693058013916016 -0.741047978401184082
10.2320003509521484 -5.31400012969970703 -0.837000012397766113
10.2229995727539062 -5.3189997673034668 -0.765999972820281982
10.2239999771118164 -5.31599998474121094 -0.754000008106231689
10.2649021148681641 -5.3081507682800293 -0.718333423137664795
10.2440004348754883 -5.32899999618530273 -0.815999984741210938
10.2469997406005859 -5.26399993896484375 -0.730000019073486328
10.24822998046875 -5.2847599983215332 -0.684116780757904053
10.2559995651245117 -5.25099992752075195 -0.749000012874603271
10.2600002288818359 -5.24700021743774414 -0.741999983787536621
10.2779998779296875 -5.30399990081787109 -0.702000021934509277
10.2279996871948242 -5.30999994277954102 -0.819999992847442627
10.2349996566772461 -5.27199983596801758 -0.707000017166137695
10.2659997940063477 -5.30100011825561523 -0.734000027179718018
10.25 -5.32100009918212891 -0.78600001335144043
10.2774038314819336 -5.28398227691650391 -0.687982380390167236
10.2609996795654297 -5.26700019836425781 -0.765999972820281982
10.2770004272460938 -5.26100015640258789 -0.740000009536743164
10.2790002822875977 -5.29400014877319336 -0.680999994277954102
10.2609996795654297 -5.28900003433227539 -0.745000004768371582
10.2160625457763672 -5.26019525527954102 -0.743079900741577148
10.2229995727539062 -5.28700017929077148 -0.685000002384185791
10.2679996490478516 -5.28499984741210938 -0.698000013828277588
10.1979999542236328 -5.32200002670288086 -0.751999974250793457
10.2010002136230469 -5.31500005722045898 -0.744000017642974854
10.2130002975463867 -5.31799983978271484 -0.760999977588653564
10.2180004119873047 -5.27199983596801758 -0.726999998092651367
10.2150001525878906 -5.27600002288818359 -0.736000001430511475
10.2170000076293945 -5.28599977493286133 -0.705999970436096191
10.2080001831054688 -5.28950023651123047 -0.751999974250793457
10.2170000076293945 -5.31300020217895508 -0.731000006198883057
10.2060003280639648 -5.30700016021728516 -0.751999974250793457
10.1999998092651367 -5.31500005722045898 -0.712000012397766113
10.2229995727539062 -5.2779998779296875 -0.755999982357025146
10.2320003509521484 -5.27400016784667969 -0.749000012874603271
10.2430000305175781 -5.32800006866455078 -0.787000000476837158
10.2620000839233398 -5.30299997329711914 -0.800000011920928955
10.2550907135009766 -5.31426143646240234 -0.775299310684204102
10.2309999465942383 -5.30700016021728516 -0.68900001049041748
10.2530002593994141 -5.30100011825561523 -0.785000026226043701
10.2519998550415039 -5.30100011825561523 -0.731999993324279785
10.2430000305175781 -5.29400014877319336 -0.764999985694885254
10.2370004653930664 -5.29500007629394531 -0.68599998950958252
10.2100000381469727 -5.32999992370605469 -0.679000020027160645
10.2220001220703125 -5.30700016021728516 -0.745000004768371582
10.2530002593994141 -5.28200006484985352 -0.782999992370605469
10.2659997940063477 -5.29199981689453125 -0.711000025272369385
10.2849998474121094 -5.30499982833862305 -0.690999984741210938
10.2550506591796875 -5.2863163948059082 -0.793204307556152344
10.2589998245239258 -5.29199981689453125 -0.741999983787536621
10.2340002059936523 -5.31599998474121094 -0.804499983787536621
10.2430000305175781 -5.31199979782104492 -0.81400001049041748
10.2299995422363281 -5.32000017166137695 -0.754000008106231689
10.2510004043579102 -5.30000019073486328 -0.773999989032745361
10.2609996795654297 -5.28999996185302734 -0.683000028133392334
10.2489995956420898 -5.32399988174438477 -0.805999994277954102
10.2320003509521484 -5.3060002326965332 -0.832000017166137695
10.2299995422363281 -5.30499982833862305 -0.778999984264373779
10.2150001525878906 -5.32800006866455078 -0.699999988079071045
10.2440004348754883 -5.33300018310546875 -0.813000023365020752
10.2480001449584961 -5.25600004196166992 -0.758000016212463379
10.2384529113769531 -5.29169368743896484 -0.795541763305664062
10.2779998779296875 -5.2630000114440918 -0.730000019073486328
10.2279996871948242 -5.30100011825561523 -0.828999996185302734
10.2620000839233398 -5.2630000114440918 -0.769999980926513672
10.2080001831054688 -5.32600021362304688 -0.717000007629394531
10.2740001678466797 -5.26700019836425781 -0.722000002861022949
10.2220001220703125 -5.30100011825561523 -0.702000021934509277
10.1969995498657227 -5.30700016021728516 -0.718999981880187988
10.1999998092651367 -5.31500005722045898 -0.68900001049041748
10.2080001831054688 -5.31099987030029297 -0.699000000953674316
10.2259998321533203 -5.32100009918212891 -0.777999997138977051
10.2139997482299805 -5.30800008773803711 -0.771000027656555176
10.2089996337890625 -5.28399991989135742 -0.751999974250793457
10.2180004119873047 -5.26800012588500977 -0.745000004768371582
10.2250003814697266 -5.28399991989135742 -0.68599998950958252
10.2399997711181641 -5.29400014877319336 -0.735000014305114746
10.2840003967285156 -5.27400016784667969 -0.736500024795532227
10.2632770538330078 -5.24969148635864258 -0.762197673320770264
10.2690000534057617 -5.30900001525878906 -0.712000012397766113
10.194000244140625 -5.32100009918212891 -0.695999979972839355
10.2360000610351562 -5.30499982833862305 -0.704999983310699463
10.2410001754760742 -5.28700017929077148 -0.684000015258789062
10.2370004653930664 -5.27299976348876953 -0.730000019073486328
10.2639999389648438 -5.26999998092651367 -0.728999972343444824
10.2259998321533203 -5.26399993896484375 -0.734000027179718018
10.2349996566772461 -5.29600000381469727 -0.754000008106231689
10.2320003509521484 -5.3060002326965332 -0.787000000476837158
10.2709999084472656 -5.26000022888183594 -0.740999996662139893
10.214381217956543 -5.27808809280395508 -0.743756532669067383
10.2410001754760742 -5.2909998893737793 -0.737999975681304932
10.2263202667236328 -5.30989885330200195 -0.79561692476272583
10.2410001754760742 -5.28399991989135742 -0.68199998140335083
10.2340002059936523 -5.28599977493286133 -0.686999976634979248
10.2679996490478516 -5.26599979400634766 -0.754000008106231689
10.2309999465942383 -5.31799983978271484 -0.825999975204467773
10.2430257797241211 -5.25599765777587891 -0.763970553874969482
10.2344999313354492 -5.31599998474121094 -0.797999978065490723
10.2779998779296875 -5.29500007629394531 -0.699000000953674316
10.2200002670288086 -5.3189997673034668 -0.700999975204467773
10.2209997177124023 -5.27699995040893555 -0.71799999475479126
10.2370004653930664 -5.31799983978271484 -0.763999998569488525
10.2309999465942383 -5.30000019073486328 -0.804000020027160645
10.2360000610351562 -5.30499982833862305 -0.685000002384185791
10.2620000839233398 -5.30499982833862305 -0.736999988555908203
10.243499755859375 -5.32499980926513672 -0.782999992370605469
10.2720003128051758 -5.30049991607666016 -0.680500030517578125
10.2659997940063477 -5.28900003433227539 -0.727999985218048096
10.2119998931884766 -5.33699989318847656 -0.683000028133392334
10.2440004348754883 -5.27400016784667969 -0.728999972343444824
10.2600002288818359 -5.27299976348876953 -0.728999972343444824
10.255000114440918 -5.28200006484985352 -0.702000021934509277
10.2349996566772461 -5.30000019073486328 -0.820999979972839355
10.2489995956420898 -5.28399991989135742 -0.708000004291534424
10.2679996490478516 -5.26800012588500977 -0.726999998092651367
10.2410001754760742 -5.30999994277954102 -0.833000004291534424
10.2749996185302734 -5.30700016021728516 -0.680000007152557373
10.2510004043579102 -5.30200004577636719 -0.805000007152557373
10.2299995422363281 -5.30399990081787109 -0.751999974250793457
10.2290000915527344 -5.2779998779296875 -0.711000025272369385
10.2779998779296875 -5.27299976348876953 -0.74299997091293335
10.2364997863769531 -5.2994999885559082 -0.811500012874603271
10.2010002136230469 -5.31500005722045898 -0.684000015258789062
10.2279996871948242 -5.27899980545043945 -0.754999995231628418
10.2589998245239258 -5.2909998893737793 -0.722000002861022949
10.2270002365112305 -5.27199983596801758 -0.727999985218048096
10.2329998016357422 -5.29799985885620117 -0.787000000476837158
10.25 -5.30900001525878906 -0.767000019550323486
10.2410001754760742 -5.31599998474121094 -0.694000005722045898
10.2679996490478516 -5.26100015640258789 -0.739000022411346436
10.2690000534057617 -5.29300022125244141 -0.72500002384185791
10.2790002822875977 -5.29199981689453125 -0.704999983310699463
10.2399997711181641 -5.30100011825561523 -0.836000025272369385
10.2720003128051758 -5.28000020980834961 -0.697000026702880859
10.258000373840332 -5.30499982833862305 -0.795000016689300537
10.2469997406005859 -5.29300022125244141 -0.814999997615814209
10.2282505035400391 -5.28100013732910156 -0.694249987602233887
10.2659997940063477 -5.31099987030029297 -0.728999972343444824
10.2480001449584961 -5.28999996185302734 -0.781000018119812012
10.2200002670288086 -5.31400012969970703 -0.68199998140335083
10.2139997482299805 -5.30499982833862305 -0.688000023365020752
10.2010002136230469 -5.32700014114379883 -0.708000004291534424
10.2010002136230469 -5.31300020217895508 -0.698000013828277588
10.2049999237060547 -5.30800008773803711 -0.691999971866607666
10.2089996337890625 -5.30299997329711914 -0.754000008106231689
10.2130002975463867 -5.30900001525878906 -0.760999977588653564
10.2060003280639648 -5.32999992370605469 -0.703999996185302734
10.2139997482299805 -5.33300018310546875 -0.697000026702880859
10.2220001220703125 -5.31300020217895508 -0.714999973773956299
10.2139997482299805 -5.33199977874755859 -0.739000022411346436
10.2080001831054688 -5.32899999618530273 -0.740000009536743164
10.194000244140625 -5.30999994277954102 -0.732999980449676514
10.1829996109008789 -5.29500007629394531 -0.721000015735626221
10.1949996948242188 -5.2909998893737793 -0.720000028610229492
10.2130002975463867 -5.30399990081787109 -0.712000012397766113
10.2258138656616211 -5.32332515716552734 -0.725380003452301025
10.2389039993286133 -5.27491903305053711 -0.693144857883453369
10.2609996795654297 -5.32000017166137695 -0.699000000953674316
10.2460002899169922 -5.28900003433227539 -0.758000016212463379
10.2370004653930664 -5.28800010681152344 -0.763000011444091797
10.2594690322875977 -5.31878995895385742 -0.689983367919921875
10.2180004119873047 -5.33099985122680664 -0.684000015258789062
10.25 -5.29699993133544922 -0.763000011444091797
10.2370004653930664 -5.32000017166137695 -0.814999997615814209
10.2250003814697266 -5.29300022125244141 -0.760999977588653564
10.2670001983642578 -5.28599977493286133 -0.721000015735626221
10.2329998016357422 -5.31799983978271484 -0.78600001335144043
10.2519998550415039 -5.29899978637695312 -0.760999977588653564
10.2364997863769531 -5.27400016784667969 -0.699999988079071045
10.2399997711181641 -5.2909998893737793 -0.805000007152557373
10.2559995651245117 -5.31099987030029297 -0.705999970436096191
10.2779998779296875 -5.28499984741210938 -0.699000000953674316
10.2306966781616211 -5.26762056350708008 -0.754159152507781982
10.2360000610351562 -5.32399988174438477 -0.836000025272369385
10.2519998550415039 -5.31699991226196289 -0.703999996185302734
10.2610082626342773 -5.27012872695922852 -0.769824504852294922
10.2480001449584961 -5.30700016021728516 -0.689999997615814209
10.263153076171875 -5.3228754997253418 -0.693882346153259277
10.2220001220703125 -5.30800008773803711 -0.68199998140335083
10.2679996490478516 -5.25600004196166992 -0.753000020980834961
10.2530002593994141 -5.27299976348876953 -0.746999979019165039
10.2480001449584961 -5.29500007629394531 -0.805000007152557373
10.2370004653930664 -5.2779998779296875 -0.745000004768371582
10.25 -5.29699993133544922 -0.81099998950958252
10.2340002059936523 -5.32000017166137695 -0.830999970436096191
10.2060003280639648 -5.31599998474121094 -0.751999974250793457
10.25 -5.25699996948242188 -0.745999991893768311
10.2749996185302734 -5.26700019836425781 -0.727999985218048096
10.2460002899169922 -5.28200006484985352 -0.782999992370605469
1 1 1
10.2650032043457031 -5.2819972038269043 -0.722003936767578125
10.2349996566772461 -5.31500005722045898 -0.755999982357025146
10.2309999465942383 -5.31699991226196289 -0.820999979972839355
10.2430000305175781 -5.2909998893737793 -0.81400001049041748
10.2568387985229492 -5.26583385467529297 -0.736095786094665527
10.2200002670288086 -5.27299976348876953 -0.708000004291534424
10.2489995956420898 -5.30399990081787109 -0.726999998092651367
10.2690000534057617 -5.30999994277954102 -0.680999994277954102
10.2019996643066406 -5.31099987030029297 -0.694000005722045898
10.2370004653930664 -5.28000020980834961 -0.686999976634979248
10.2760000228881836 -5.31199979782104492 -0.686999976634979248
10.2790002822875977 -5.29600000381469727 -0.714999973773956299
10.2589998245239258 -5.28499984741210938 -0.699999988079071045
10.2749996185302734 -5.27400016784667969 -0.731999993324279785
10.2770004272460938 -5.28900003433227539 -0.691999971866607666
10.2530002593994141 -5.28100013732910156 -0.790000021457672119
10.2430000305175781 -5.27899980545043945 -0.688000023365020752
10.244999885559082 -5.31500005722045898 -0.795000016689300537
3 173 172 6 255 255 255
3 6 245 173 255 255 255
3 172 7 6 255 255 255
3 173 246 172 255 255 255
3 245 8 173 255 255 255
3 6 9 245 255 255 255
3 7 10 6 255 255 255
3 172 246 7 255 255 255
3 246 62 7 255 255 255
3 173 62 246 255 255 255
3 173 53 62 255 255 255
3 8 202 173 255 255 255
3 245 9 8 255 255 255
3 9 135 8 255 255 255
3 6 183 9 255 255 255
3 10 183 6 255 255 255
3 7 146 10 255 255 255
3 62 90 7 255 255 255
3 173 170 53 255 255 255
3 8 44 202 255 255 255
3 135 168 8 255 255 255
3 9 171 135 255 255 255
3 7 91 146 255 255 255
3 90 92 7 255 255 255
3 62 242 90 255 255 255
3 170 243 53 255 255 255
3 8 244 44 255 255 255
3 135 4 168 255 255 255
3 171 93 135 255 255 255
3 9 63 171 255 255 255
3 91 211 146 255 255 255
3 92 225 7 255 255 255
3 90 64 92 255 255 255
3 242 66 90 255 255 255
3 243 242 53 255 255 255
3 170 141 243 255 255 255
3 244 67 44 255 255 255
3 4 68 168 255 255 255
3 135 73 4 255 255 255
3 93 73 135 255 255 255
3 171 69 93 255 255 255
3 63 70 171 255 255 255
3 92 301 225 255 255 255
3 64 183 92 255 255 255
3 90 161 64 255 255 255
3 66 161 90 255 255 255
3 243 141 242 255 255 255
3 170 71 141 255 255 255
3 67 202 44 255 255 255
3 67 64 202 255 255 255
3 68 72 168 255 255 255
3 4 73 68 255 255 255
3 93 74 73 255 255 255
3 69 28 93 255 255 255
3 70 69 171 255 255 255
3 70 255 69 255 255 255
3 63 75 70 255 255 255
3 64 249 183 255 255 255
3 71 202 141 255 255 255
3 64 250 202 255 255 255
3 72 251 168 255 255 255
3 68 252 72 255 255 255
3 73 74 68 255 255 255
3 74 253 68 255 255 255
3 93 254 74 255 255 255
3 69 255 28 255 255 255
3 75 256 70 255 255 255
3 63 257 75 255 255 255
3 249 9 183 255 255 255
3 250 66 202 255 255 255
3 251 8 168 255 255 255
3 72 258 251 255 255 255
3 252 19 72 255 255 255
3 68 253 252 255 255 255
3 253 20 252 255 255 255
3 74 21 253 255 255 255
3 254 22 74 255 255 255
3 93 28 254 255 255 255
3 255 57 28 255 255 255
3 256 255 70 255 255 255
3 256 29 255 255 255 255
3 75 30 256 255 255 255
3 257 31 75 255 255 255
3 63 8 257 255 255 255
3 250 264 66 255 255 255
3 258 32 251 255 255 255
3 19 258 72 255 255 255
3 252 33 19 255 255 255
3 20 33 252 255 255 255
3 20 34 33 255 255 255
3 253 35 20 255 255 255
3 21 35 253 255 255 255
3 21 126 35 255 255 255
3 74 127 21 255 255 255
3 22 127 74 255 255 255
3 22 55 127 255 255 255
3 254 28 22 255 255 255
3 28 56 22 255 255 255
3 255 29 57 255 255 255
3 29 58 57 255 255 255
3 256 59 29 255 255 255
3 30 59 256 255 255 255
3 30 60 59 255 255 255
3 75 31 30 255 255 255
3 31 61 30 255 255 255
3 257 131 31 255 255 255
3 250 91 264 255 255 255
3 32 5 251 255 255 255
3 33 133 19 255 255 255
3 34 94 33 255 255 255
3 20 24 34 255 255 255
3 35 24 20 255 255 255
3 35 126 24 255 255 255
3 126 128 24 255 255 255
3 21 127 126 255 255 255
3 127 134 126 255 255 255
3 55 134 127 255 255 255
3 55 247 134 255 255 255
3 22 56 55 255 255 255
3 56 58 55 255 255 255
3 57 56 28 255 255 255
3 58 56 57 255 255 255
3 29 25 58 255 255 255
3 59 25 29 255 255 255
3 59 26 25 255 255 255
3 60 130 59 255 255 255
3 30 61 60 255 255 255
3 61 129 60 255 255 255
3 31 131 61 255 255 255
3 257 170 131 255 255 255
3 91 92 264 255 255 255
3 5 71 251 255 255 255
3 133 258 19 255 255 255
3 133 32 258 255 255 255
3 133 12 32 255 255 255
3 33 27 133 255 255 255
3 94 155 33 255 255 255
3 34 97 94 255 255 255
3 24 128 34 255 255 255
3 128 18 34 255 255 255
3 126 288 128 255 255 255
3 134 288 126 255 255 255
3 134 248 288 255 255 255
3 247 248 134 255 255 255
3 247 11 248 255 255 255
3 55 132 247 255 255 255
3 58 25 55 255 255 255
3 25 132 55 255 255 255
3 26 176 25 255 255 255
3 59 192 26 255 255 255
3 130 192 59 255 255 255
3 130 95 192 255 255 255
3 60 129 130 255 255 255
3 129 95 130 255 255 255
3 129 23 95 255 255 255
3 131 0 61 255 255 255
3 170 76 131 255 255 255
3 5 184 71 255 255 255
3 32 96 5 255 255 255
3 12 77 32 255 255 255
3 133 147 12 255 255 255
3 27 147 133 255 255 255
3 27 106 147 255 255 255
3 33 106 27 255 255 255
3 33 155 106 255 255 255
3 94 97 155 255 255 255
3 34 105 97 255 255 255
3 18 105 34 255 255 255
3 18 174 105 255 255 255
3 128 248 18 255 255 255
3 248 128 288 255 255 255
3 11 175 248 255 255 255
3 247 132 11 255 255 255
3 132 176 11 255 255 255
3 26 192 176 255 255 255
3 95 177 192 255 255 255
3 23 123 95 255 255 255
3 129 188 23 255 255 255
3 298 203 61 255 255 255
3 61 0 298 255 255 255
3 131 76 0 255 255 255
3 76 178 0 255 255 255
3 184 231 71 255 255 255
3 5 13 184 255 255 255
3 13 98 184 255 255 255
3 5 96 13 255 255 255
3 96 299 13 255 255 255
3 77 96 32 255 255 255
3 77 179 96 255 255 255
3 12 179 77 255 255 255
3 106 155 147 255 255 255
3 155 221 147 255 255 255
3 97 204 155 255 255 255
3 97 174 204 255 255 255
3 174 97 105 255 255 255
3 18 41 174 255 255 255
3 248 175 18 255 255 255
3 175 41 18 255 255 255
3 11 83 175 255 255 255
3 176 99 11 255 255 255
3 132 25 176 255 255 255
3 192 136 176 255 255 255
3 177 50 192 255 255 255
3 95 123 177 255 255 255
3 123 50 177 255 255 255
3 123 42 50 255 255 255
3 188 123 23 255 255 255
3 188 51 123 255 255 255
3 129 228 188 255 255 255
3 203 129 61 255 255 255
3 203 228 129 255 255 255
3 203 222 228 255 255 255
3 298 222 203 255 255 255
3 298 115 222 255 255 255
3 178 239 0 255 255 255
3 76 124 178 255 255 255
3 184 98 231 255 255 255
3 98 277 231 255 255 255
3 13 277 98 255 255 255
3 13 273 277 255 255 255
3 299 107 13 255 255 255
3 96 143 299 255 255 255
3 179 143 96 255 255 255
3 179 193 143 255 255 255
3 155 294 221 255 255 255
3 204 294 155 255 255 255
3 204 230 294 255 255 255
3 174 65 204 255 255 255
3 41 65 174 255 255 255
3 41 194 65 255 255 255
3 83 41 175 255 255 255
3 83 160 41 255 255 255
3 11 267 83 255 255 255
3 99 267 11 255 255 255
3 99 262 267 255 255 255
3 176 136 99 255 255 255
3 136 226 99 255 255 255
3 192 50 136 255 255 255
3 50 275 136 255 255 255
3 42 275 50 255 255 255
3 123 51 42 255 255 255
3 188 186 51 255 255 255
3 228 186 188 255 255 255
3 228 222 186 255 255 255
3 222 78 186 255 255 255
3 115 49 222 255 255 255
3 0 115 298 255 255 255
3 0 271 115 255 255 255
3 259 271 0 255 255 255
3 0 239 259 255 255 255
3 124 196 178 255 255 255
3 277 263 231 255 255 255
3 273 260 277 255 255 255
3 13 107 273 255 255 255
3 107 182 273 255 255 255
3 299 240 107 255 255 255
3 143 207 299 255 255 255
3 193 152 143 255 255 255
3 179 189 193 255 255 255
3 294 189 221 255 255 255
3 204 140 230 255 255 255
3 65 160 204 255 255 255
3 194 269 65 255 255 255
3 160 190 41 255 255 255
3 83 79 160 255 255 255
3 267 79 83 255 255 255
3 267 262 79 255 255 255
3 262 144 79 255 255 255
3 99 226 262 255 255 255
3 226 285 262 255 255 255
3 136 275 226 255 255 255
3 42 51 275 255 255 255
3 51 137 275 255 255 255
3 78 212 186 255 255 255
3 115 271 49 255 255 255
3 259 80 271 255 255 255
3 178 302 239 255 255 255
3 196 302 178 255 255 255
3 196 195 302 255 255 255
3 124 145 196 255 255 255
3 263 279 231 255 255 255
3 277 260 263 255 255 255
3 260 280 263 255 255 255
3 273 182 260 255 255 255
3 182 81 260 255 255 255
3 299 207 240 255 255 255
3 207 116 240 255 255 255
3 143 152 207 255 255 255
3 152 116 207 255 255 255
3 152 122 116 255 255 255
3 193 36 152 255 255 255
3 189 36 193 255 255 255
3 189 270 36 255 255 255
3 140 14 230 255 255 255
3 204 208 140 255 255 255
3 65 269 160 255 255 255
3 269 190 160 255 255 255
3 269 310 190 255 255 255
3 194 200 269 255 255 255
3 190 194 41 255 255 255
3 79 229 160 255 255 255
3 144 241 79 255 255 255
3 262 261 144 255 255 255
3 285 261 262 255 255 255
3 226 137 285 255 255 255
3 137 226 275 255 255 255
3 212 109 186 255 255 255
3 78 49 212 255 255 255
3 271 80 49 255 255 255
3 80 216 49 255 255 255
3 259 309 80 255 255 255
3 239 302 259 255 255 255
3 302 309 259 255 255 255
3 302 195 309 255 255 255
3 195 110 309 255 255 255
3 196 185 195 255 255 255
3 145 185 196 255 255 255
3 145 102 185 255 255 255
3 124 76 145 255 255 255
3 76 141 145 255 255 255
3 279 206 231 255 255 255
3 260 81 280 255 255 255
3 81 303 280 255 255 255
3 182 84 81 255 255 255
3 107 84 182 255 255 255
3 240 38 107 255 255 255
3 116 38 240 255 255 255
3 116 210 38 255 255 255
3 152 36 122 255 255 255
3 36 54 122 255 255 255
3 270 54 36 255 255 255
3 270 265 54 255 255 255
3 189 265 270 255 255 255
3 189 144 265 255 255 255
3 14 156 230 255 255 255
3 208 117 140 255 255 255
3 310 87 190 255 255 255
3 269 117 310 255 255 255
3 194 153 200 255 255 255
3 190 229 194 255 255 255
3 79 241 229 255 255 255
3 241 291 229 255 255 255
3 261 54 144 255 255 255
3 137 186 285 255 255 255
3 212 213 109 255 255 255
3 80 214 216 255 255 255
3 309 110 80 255 255 255
3 195 185 110 255 255 255
3 185 102 110 255 255 255
3 102 157 110 255 255 255
3 102 45 157 255 255 255
3 145 206 102 255 255 255
3 279 102 206 255 255 255
3 279 263 102 255 255 255
3 263 300 102 255 255 255
3 280 300 263 255 255 255
3 280 303 300 255 255 255
3 303 219 300 255 255 255
3 81 113 303 255 255 255
3 84 113 81 255 255 255
3 107 46 84 255 255 255
3 46 304 84 255 255 255
3 107 38 46 255 255 255
3 210 233 38 255 255 255
3 116 86 210 255 255 255
3 54 100 122 255 255 255
3 144 230 265 255 255 255
3 156 265 230 255 255 255
3 156 241 265 255 255 255
3 14 140 156 255 255 255
3 140 142 156 255 255 255
3 117 87 140 255 255 255
3 208 138 117 255 255 255
3 200 138 269 255 255 255
3 194 205 153 255 255 255
3 205 1 153 255 255 255
3 229 205 194 255 255 255
3 229 164 205 255 255 255
3 291 164 229 255 255 255
3 291 151 164 255 255 255
3 241 148 291 255 255 255
3 261 283 54 255 255 255
3 213 187 109 255 255 255
3 214 149 216 255 255 255
3 80 88 214 255 255 255
3 110 88 80 255 255 255
3 110 157 88 255 255 255
3 157 118 88 255 255 255
3 45 118 157 255 255 255
3 45 121 118 255 255 255
3 102 209 45 255 255 255
3 145 281 206 255 255 255
3 300 209 102 255 255 255
3 300 219 209 255 255 255
3 303 150 219 255 255 255
3 113 150 303 255 255 255
3 113 201 150 255 255 255
3 84 304 113 255 255 255
3 304 234 113 255 255 255
3 46 233 304 255 255 255
3 233 46 38 255 255 255
3 210 268 233 255 255 255
3 86 2 210 255 255 255
3 116 122 86 255 255 255
3 122 2 86 255 255 255
3 122 100 2 255 255 255
3 100 223 2 255 255 255
3 156 142 241 255 255 255
3 142 148 241 255 255 255
3 142 151 148 255 255 255
3 87 142 140 255 255 255
3 87 237 142 255 255 255
3 138 158 117 255 255 255
3 208 269 138 255 255 255
3 200 85 138 255 255 255
3 1 48 153 255 255 255
3 205 224 1 255 255 255
3 164 272 205 255 255 255
3 291 308 151 255 255 255
3 148 308 291 255 255 255
3 148 151 308 255 255 255
3 187 297 109 255 255 255
3 213 293 187 255 255 255
3 149 227 216 255 255 255
3 214 305 149 255 255 255
3 88 236 214 255 255 255
3 118 236 88 255 255 255
3 45 209 121 255 255 255
3 219 121 209 255 255 255
3 219 150 121 255 255 255
3 150 307 121 255 255 255
3 201 307 150 255 255 255
3 201 274 307 255 255 255
3 113 234 201 255 255 255
3 234 274 201 255 255 255
3 234 37 274 255 255 255
3 233 268 304 255 255 255
3 268 37 304 255 255 255
3 210 306 268 255 255 255
3 2 306 210 255 255 255
3 2 180 306 255 255 255
3 223 180 2 255 255 255
3 223 103 180 255 255 255
3 100 197 223 255 255 255
3 142 89 151 255 255 255
3 237 89 142 255 255 255
3 237 139 89 255 255 255
3 158 310 117 255 255 255
3 158 52 310 255 255 255
3 138 85 158 255 255 255
3 200 153 85 255 255 255
3 153 48 85 255 255 255
3 1 295 48 255 255 255
3 224 215 1 255 255 255
3 205 272 224 255 255 255
3 164 284 272 255 255 255
3 293 217 187 255 255 255
3 149 293 227 255 255 255
3 305 125 149 255 255 255
3 214 236 305 255 255 255
3 236 125 305 255 255 255
3 236 274 125 255 255 255
3 307 118 121 255 255 255
3 274 118 307 255 255 255
3 274 236 118 255 255 255
3 37 125 274 255 255 255
3 37 149 125 255 255 255
3 37 268 149 255 255 255
3 234 304 37 255 255 255
3 103 165 180 255 255 255
3 223 197 103 255 255 255
3 197 120 103 255 255 255
3 100 119 197 255 255 255
3 89 284 151 255 255 255
3 52 237 310 255 255 255
3 158 154 52 255 255 255
3 85 162 158 255 255 255
3 85 266 162 255 255 255
3 48 266 85 255 255 255
3 48 295 266 255 255 255
3 295 40 266 255 255 255
3 1 166 295 255 255 255
3 215 166 1 255 255 255
3 215 235 166 255 255 255
3 224 296 215 255 255 255
3 272 296 224 255 255 255
3 284 296 272 255 255 255
3 284 238 296 255 255 255
3 187 217 297 255 255 255
3 217 165 297 255 255 255
3 293 169 217 255 255 255
3 213 227 293 255 255 255
3 180 290 306 255 255 255
3 165 290 180 255 255 255
3 165 169 290 255 255 255
3 197 282 120 255 255 255
3 119 181 197 255 255 255
3 100 278 119 255 255 255
3 284 164 151 255 255 255
3 89 139 284 255 255 255
3 139 286 284 255 255 255
3 52 220 237 255 255 255
3 154 101 52 255 255 255
3 158 108 154 255 255 255
3 266 108 162 255 255 255
3 295 198 40 255 255 255
3 166 198 295 255 255 255
3 166 43 198 255 255 255
3 235 159 166 255 255 255
3 215 101 235 255 255 255
3 296 238 215 255 255 255
3 238 101 215 255 255 255
3 238 286 101 255 255 255
3 165 232 297 255 255 255
3 169 306 290 255 255 255
3 169 293 306 255 255 255
3 293 268 306 255 255 255
3 293 149 268 255 255 255
3 103 120 165 255 255 255
3 197 181 282 255 255 255
3 119 167 181 255 255 255
3 278 167 119 255 255 255
3 278 82 167 255 255 255
3 286 238 284 255 255 255
3 220 139 237 255 255 255
3 220 286 139 255 255 255
3 52 101 220 255 255 255
3 154 17 101 255 255 255
3 108 40 154 255 255 255
3 158 162 108 255 255 255
3 198 287 40 255 255 255
3 43 104 198 255 255 255
3 159 43 166 255 255 255
3 159 235 43 255 255 255
3 235 104 43 255 255 255
3 235 218 104 255 255 255
3 101 17 235 255 255 255
3 286 220 101 255 255 255
3 232 289 297 255 255 255
3 165 191 232 255 255 255
3 181 47 282 255 255 255
3 167 15 181 255 255 255
3 167 82 15 255 255 255
3 154 218 17 255 255 255
3 287 276 40 255 255 255
3 198 104 287 255 255 255
3 104 276 287 255 255 255
3 218 276 104 255 255 255
3 235 17 218 255 255 255
3 289 109 297 255 255 255
3 232 111 289 255 255 255
3 191 112 232 255 255 255
3 165 120 191 255 255 255
3 120 282 191 255 255 255
3 282 112 191 255 255 255
3 282 47 112 255 255 255
3 181 3 47 255 255 255
3 181 15 3 255 255 255
3 15 163 3 255 255 255
3 82 199 15 255 255 255
3 278 199 82 255 255 255
3 154 266 218 255 255 255
3 111 39 289 255 255 255
3 232 47 111 255 255 255
3 3 111 47 255 255 255
3 3 39 111 255 255 255
3 3 163 39 255 255 255
3 163 199 39 255 255 255
3 199 163 15 255 255 255
3 278 16 199 255 255 255
3 16 39 199 255 255 255
3 16 289 39 255 255 255
3 16 283 289 255 255 255
3 266 114 218 255 255 255
3 283 109 289 255 255 255
3 292 292 292 255 255 255
