ply
format ascii 1.0
element vertex 339
property float x
property float y
property float z
element face 576
property list uchar int vertex_indices
property uchar red
property uchar green
property uchar blue
end_header
-8.50448036193847656 6.26276636123657227 -0.843301236629486084
-8.54056262969970703 6.32195425033569336 -1.11341285705566406
-8.62435436248779297 6.09906673431396484 -1.09520673751831055
-8.46683406829833984 6.15366268157958984 -1.10046720504760742
-8.50919342041015625 6.19000673294067383 -1.10906028747558594
-8.57267951965332031 6.21714305877685547 -1.11848306655883789
-8.57499980926513672 6.19700002670288086 -1.13199996948242188
-8.66777420043945312 6.17380905151367188 -1.1076284646987915
-8.49699974060058594 6.17199993133544922 -1.09099996089935303
-8.49100017547607422 6.27400016784667969 -1.12300002574920654
-8.47067928314208984 6.17284440994262695 -1.10006272792816162
-8.53968620300292969 6.24239683151245117 -0.978556573390960693
-8.57600021362304688 6.23999977111816406 -1.05900001525878906
-8.62173271179199219 6.23949289321899414 -1.11007928848266602
-8.54300022125244141 6.23799991607666016 -1.03299999237060547
-8.59139251708984375 6.18485593795776367 -1.02082502841949463
-8.60874366760253906 6.08554220199584961 -1.07235777378082275
-8.46700000762939453 6.14699983596801758 -1.07400000095367432
-8.48499965667724609 6.17199993133544922 -1.11399996280670166
-8.50508308410644531 6.16255378723144531 -1.09489941596984863
-8.50042629241943359 6.20241737365722656 -1.12129771709442139
-8.66714954376220703 6.14570236206054688 -1.06523454189300537
-8.56515789031982422 6.27406883239746094 -1.03716599941253662
-8.54732418060302734 6.27484273910522461 -1.0491635799407959
-8.55460262298583984 6.25107002258300781 -1.03379762172698975
-8.55200004577636719 6.23400020599365234 -1.00699996948242188
-8.55538082122802734 6.24673795700073242 -1.05306816101074219
-8.54949951171875 6.24724960327148438 -1.01775002479553223
-8.49105930328369141 6.25851964950561523 -1.00191211700439453
-8.56438922882080078 6.27912759780883789 -1.04214930534362793
-8.53100013732910156 6.24499988555908203 -1.03499996662139893
-8.57688426971435547 6.3083038330078125 -1.03911340236663818
-8.59243583679199219 6.32357072830200195 -1.05183637142181396
-8.53299999237060547 6.20200014114379883 -0.86799997091293335
-8.64243984222412109 6.23945808410644531 -1.09488058090209961
-8.54500007629394531 6.23600006103515625 -1.04100000858306885
-8.51799964904785156 6.20200014114379883 -0.980000019073486328
-8.50500011444091797 6.21500015258789062 -0.845000028610229492
-8.48153781890869141 6.18167304992675781 -1.12218320369720459
-8.49385833740234375 6.25727558135986328 -0.828330099582672119
-8.53436565399169922 6.22488546371459961 -0.830582320690155029
-8.56515598297119141 6.21236038208007812 -1.04059600830078125
-8.65896224975585938 6.15076780319213867 -1.08121705055236816
-8.62199974060058594 6.07999992370605469 -1.10199999809265137
-8.47700023651123047 6.15799999237060547 -1.10899996757507324
-8.49279308319091797 6.17267751693725586 -1.10641598701477051
-8.57999992370605469 6.19000005722045898 -1.12899994850158691
-8.53499984741210938 6.22599983215332031 -1.04999995231628418
-8.53843116760253906 6.22806215286254883 -0.854027628898620605
-8.51692485809326172 6.22186565399169922 -0.844093203544616699
-8.50865459442138672 6.1961674690246582 -0.879568696022033691
-8.51004219055175781 6.27350664138793945 -0.846665263175964355
-8.51915931701660156 6.2732090950012207 -0.841022372245788574
-8.50389671325683594 6.21038675308227539 -0.83314669132232666
-8.50800037384033203 6.21999979019165039 -0.860000014305114746
-8.48348522186279297 6.19265508651733398 -0.839863181114196777
-8.48724937438964844 6.20447731018066406 -0.828769326210021973
-8.53139209747314453 6.25288724899291992 -0.954853355884552002
-8.50983905792236328 6.21346378326416016 -0.942233026027679443
-8.51063442230224609 6.23792505264282227 -0.92396777868270874
-8.50293159484863281 6.29563617706298828 -0.949856877326965332
-8.53703594207763672 6.23259782791137695 -0.924203276634216309
-8.51877593994140625 6.20710611343383789 -0.961931467056274414
-8.50399971008300781 6.19799995422363281 -0.967000007629394531
-8.51451492309570312 6.2503046989440918 -0.891735970973968506
-8.57204341888427734 6.26001501083374023 -0.896186590194702148
-8.55672645568847656 6.24581480026245117 -0.912524819374084473
-8.57820510864257812 6.22897815704345703 -1.04484951496124268
-8.67170524597167969 6.18375015258789062 -1.08926308155059814
-8.49651622772216797 6.20261907577514648 -1.10541403293609619
-8.49199962615966797 6.20800018310546875 -1.10099995136260986
-8.55450057983398438 6.17749977111816406 -1.12699997425079346
-8.66892337799072266 6.24094390869140625 -1.07799458503723145
-8.61955451965332031 6.13244485855102539 -1.08121085166931152
-8.50544929504394531 6.1519618034362793 -1.09023356437683105
-8.55799961090087891 6.25799989700317383 -0.977999985218048096
-8.6239013671875 6.07979297637939453 -1.10072028636932373
-8.555999755859375 6.17399978637695312 -1.11699998378753662
-8.67700386047363281 6.17317438125610352 -1.06583404541015625
-8.57499980926513672 6.30299997329711914 -1.05099999904632568
-8.50827693939208984 6.27538681030273438 -1.00466811656951904
-8.56438636779785156 6.26085233688354492 -1.09444773197174072
-8.56584072113037109 6.27239418029785156 -1.10093998908996582
-8.52299308776855469 6.30233621597290039 -1.08801662921905518
-8.58507919311523438 6.28785943984985352 -1.10222935676574707
-8.56280899047851562 6.24815845489501953 -1.09287023544311523
-8.53911590576171875 6.23068475723266602 -1.0809779167175293
-8.53133964538574219 6.28638172149658203 -1.0831834077835083
-8.58706760406494141 6.30406332015991211 -1.08252382278442383
-8.60805511474609375 6.09762811660766602 -1.09936249256134033
-8.52400016784667969 6.3060002326965332 -0.990999996662139893
-8.53499984741210938 6.21899986267089844 -0.880999982357025146
-8.53699970245361328 6.22499990463256836 -0.832000017166137695
-8.52600002288818359 6.26900005340576172 -0.847000002861022949
-8.58100032806396484 6.26700019836425781 -1.08800005912780762
-8.61120128631591797 6.23899364471435547 -1.0741117000579834
-8.57080554962158203 6.24691200256347656 -1.08040285110473633
-8.57903385162353516 6.29661083221435547 -1.04643046855926514
-8.56830215454101562 6.2717585563659668 -1.05561089515686035
-8.56999969482421875 6.30499982833862305 -1.0429999828338623
-8.53150367736816406 6.23671674728393555 -1.0684964656829834
-8.57615280151367188 6.29094982147216797 -1.07770073413848877
-8.55475330352783203 6.28014993667602539 -1.07490718364715576
-8.52900028228759766 6.23199987411499023 -1.04600000381469727
-8.51517295837402344 6.26845121383666992 -1.07461237907409668
-8.60388565063476562 6.32445335388183594 -1.04977142810821533
-8.50876712799072266 6.1465153694152832 -1.11533582210540771
-8.63616752624511719 6.222503662109375 -1.08642089366912842
-8.54437446594238281 6.24758577346801758 -0.973433434963226318
-8.56864643096923828 6.27026176452636719 -0.948926568031311035
-8.53299999237060547 6.24599981307983398 -0.976999998092651367
-8.52994728088378906 6.21928834915161133 -0.91242825984954834
-8.51281547546386719 6.22947263717651367 -0.896509110927581787
-8.57914066314697266 6.2703709602355957 -0.911723792552947998
-8.47631549835205078 6.29099416732788086 -0.94251096248626709
-8.48534965515136719 6.27596616744995117 -0.953235387802124023
-8.52959442138671875 6.20984983444213867 -0.896218717098236084
-8.53356456756591797 6.26270866394042969 -0.900269091129302979
-8.51752281188964844 6.29405069351196289 -0.884009122848510742
-8.58758544921875 6.27056074142456055 -0.898941159248352051
-8.60782527923583984 6.26849365234375 -0.871730208396911621
-8.54599952697753906 6.21600008010864258 -1.04999995231628418
-8.50123119354248047 6.2568511962890625 -1.05630135536193848
-8.52400016784667969 6.32000017166137695 -1.08500003814697266
-8.64359855651855469 6.24913835525512695 -1.08245944976806641
-8.49987983703613281 6.25084638595581055 -1.00804054737091064
-8.64400482177734375 6.13061380386352539 -1.08291637897491455
-8.47115135192871094 6.19842290878295898 -1.10669624805450439
-8.53230190277099609 6.35040616989135742 -1.08500802516937256
-8.51399993896484375 6.26800012588500977 -0.866999983787536621
-8.54220676422119141 6.19988822937011719 -1.0545804500579834
-8.63277721405029297 6.22968816757202148 -1.05940556526184082
-8.66399955749511719 6.17399978637695312 -1.10199999809265137
-8.51125335693359375 6.24006509780883789 -0.838951408863067627
-8.53951168060302734 6.24321651458740234 -0.843461096286773682
-8.51213264465332031 6.24706506729125977 -0.827048361301422119
-8.56991481781005859 6.29042196273803711 -0.877774298191070557
-8.50808238983154297 6.18568325042724609 -0.856233417987823486
-8.49223518371582031 6.20384836196899414 -0.855028450489044189
-8.47900009155273438 6.20399999618530273 -0.846000015735626221
-8.51299953460693359 6.20100021362304688 -0.839999973773956299
-8.4927978515625 6.18983030319213867 -0.84241873025894165
-8.57838821411132812 6.20603609085083008 -1.04591023921966553
-8.46632575988769531 6.17285346984863281 -1.07536590099334717
-8.46201801300048828 6.14295864105224609 -1.06188201904296875
-8.5279998779296875 6.31199979782104492 -1.09800004959106445
-8.48200035095214844 6.16499996185302734 -1.11000001430511475
-8.62389850616455078 6.24293851852416992 -1.07797300815582275
-8.52823543548583984 6.32162046432495117 -1.08645117282867432
-8.51100921630859375 6.15710067749023438 -1.12412559986114502
-8.55900001525878906 6.26700019836425781 -1.04700005054473877
-8.63054466247558594 6.163543701171875 -1.11646378040313721
-8.56866264343261719 6.2150578498840332 -1.11423850059509277
-8.64299964904785156 6.23000001907348633 -1.06200003623962402
-8.65569019317626953 6.17993021011352539 -1.09269022941589355
-8.54556179046630859 6.19833850860595703 -1.05679357051849365
-8.58058643341064453 6.27190351486206055 -1.09224259853363037
-8.51700019836425781 6.26800012588500977 -1.05400002002716064
-8.53118991851806641 6.19816064834594727 -1.05232322216033936
-8.62793731689453125 6.23321866989135742 -1.09635341167449951
-8.61135768890380859 6.23703384399414062 -1.05715644359588623
-8.60798835754394531 6.23766613006591797 -1.04880750179290771
-8.52099990844726562 6.31500005722045898 -1.10099995136260986
-8.55680465698242188 6.1921696662902832 -1.03322792053222656
-8.59604549407958984 6.24364233016967773 -1.10029947757720947
-8.67579460144042969 6.16043949127197266 -1.08234453201293945
-8.65234851837158203 6.25197124481201172 -1.07714498043060303
-8.48606777191162109 6.14605331420898438 -1.0849308967590332
-8.5279998779296875 6.25099992752075195 -0.837000012397766113
-8.52004814147949219 6.18703794479370117 -1.04505527019500732
-8.53521347045898438 6.31926918029785156 -1.11539328098297119
-8.65917587280273438 6.24552392959594727 -1.08801186084747314
-8.47125053405761719 6.14699983596801758 -1.06799995899200439
-8.52600002288818359 6.25500011444091797 -0.982999980449676514
-8.51500034332275391 6.29899978637695312 -0.995000004768371582
-8.48999977111816406 6.27400016784667969 -1.11899995803833008
-8.57475566864013672 6.2480006217956543 -0.928589463233947754
-8.51484489440917969 6.29592180252075195 -0.988048374652862549
-8.50376510620117188 6.24348926544189453 -0.995614469051361084
-8.50552272796630859 6.26477479934692383 -0.990244925022125244
-8.54439353942871094 6.23974418640136719 -0.990069925785064697
-8.54009056091308594 6.25299215316772461 -0.997621715068817139
-8.55752944946289062 6.25689554214477539 -0.97761911153793335
-8.52610492706298828 6.25411558151245117 -0.996591567993164062
-8.55778408050537109 6.2493433952331543 -0.988212704658508301
-8.57155036926269531 6.25733661651611328 -0.994544506072998047
-8.53791046142578125 6.34080886840820312 -1.08286952972412109
-8.56570339202880859 6.18221092224121094 -0.996465146541595459
-8.68035793304443359 6.17581701278686523 -1.08759737014770508
-8.63551998138427734 6.11551094055175781 -1.07295036315917969
-8.49429416656494141 6.13628625869750977 -1.09058332443237305
-8.54199981689453125 6.25400018692016602 -0.959999978542327881
-8.49845123291015625 6.21242570877075195 -0.963458120822906494
-8.49009323120117188 6.27988386154174805 -0.98122096061706543
-8.60818386077880859 6.08611917495727539 -1.09095251560211182
-8.53600025177001953 6.3340001106262207 -1.08599996566772461
-8.48986911773681641 6.17141532897949219 -1.08722436428070068
-8.64999961853027344 6.17299985885620117 -1.08299994468688965
-8.64907169342041016 6.15366029739379883 -1.0646054744720459
-8.64484500885009766 6.1424713134765625 -1.0932161808013916
-8.57999992370605469 6.24300003051757812 -1.0700000524520874
-8.48799991607666016 6.20499992370605469 -0.839999973773956299
-8.53774547576904297 6.24252748489379883 -0.896072745323181152
-8.49512577056884766 6.30097246170043945 -0.952502310276031494
-8.56517505645751953 6.28182744979858398 -0.893106520175933838
-8.52232837677001953 6.23365020751953125 -0.96386110782623291
-8.51307582855224609 6.27867412567138672 -0.99542391300201416
-8.52505970001220703 6.24006319046020508 -0.993828475475311279
-8.51826190948486328 6.21787071228027344 -0.970584213733673096
-8.51195240020751953 6.28631877899169922 -0.985357522964477539
-8.53699970245361328 6.25299978256225586 -0.978999972343444824
-8.53651523590087891 6.23726320266723633 -0.949222207069396973
-8.6356201171875 6.24919414520263672 -1.0870051383972168
-8.61700057983398438 6.23900032043457031 -1.06949996948242188
-8.52529335021972656 6.33635234832763672 -1.08981084823608398
-8.65064048767089844 6.15864181518554688 -1.07816553115844727
-8.61704444885253906 6.10939550399780273 -1.07494199275970459
-8.49699974060058594 6.27550029754638672 -1.12050008773803711
-8.58100032806396484 6.31300020217895508 -1.05099999904632568
-8.60566902160644531 6.31849956512451172 -1.06511843204498291
-8.59293174743652344 6.29798412322998047 -1.07868266105651855
-8.58179855346679688 6.23964548110961914 -1.00229227542877197
-8.52436256408691406 6.24542999267578125 -1.01922321319580078
-8.55900001525878906 6.26700019836425781 -1.02100002765655518
-8.54373264312744141 6.25598239898681641 -1.02445566654205322
-8.51853656768798828 6.26456451416015625 -1.01047515869140625
-8.54866790771484375 6.2454380989074707 -1.02224302291870117
-8.57807064056396484 6.26056480407714844 -1.00750398635864258
-8.47360992431640625 6.17470455169677734 -1.11484396457672119
-8.48870372772216797 6.15686559677124023 -1.10350275039672852
-8.55200004577636719 6.28499984741210938 -0.879000008106231689
-8.52999973297119141 6.21600008010864258 -0.864000022411346436
-8.48723125457763672 6.31517171859741211 -0.914146184921264648
-8.55974578857421875 6.23658657073974609 -0.867400169372558594
-8.52419471740722656 6.19208383560180664 -0.863906383514404297
-8.52306938171386719 6.25809717178344727 -0.836225509643554688
-8.49499988555908203 6.20699977874755859 -0.848999977111816406
-8.53799057006835938 6.29267692565917969 -0.852518558502197266
-8.50699996948242188 6.19799995422363281 -0.842000007629394531
-8.53140354156494141 6.22821855545043945 -0.822577476501464844
-8.67182731628417969 6.23624801635742188 -1.07491099834442139
-8.67340469360351562 6.25531673431396484 -1.07666003704071045
-8.59475231170654297 6.23085975646972656 -1.08681964874267578
-8.62800025939941406 6.1399998664855957 -1.07700002193450928
-8.63422107696533203 6.13637399673461914 -1.06115949153900146
-8.51238632202148438 6.15869998931884766 -1.11721897125244141
-8.53999996185302734 6.27099990844726562 -1.03299999237060547
-8.55538558959960938 6.24949216842651367 -1.07033085823059082
-8.52499961853027344 6.28499984741210938 -0.836000025272369385
-8.62600040435791016 6.23400020599365234 -1.05400002002716064
-8.53439235687255859 6.26814126968383789 -1.03930246829986572
-8.55886650085449219 6.25098371505737305 -0.954641520977020264
-8.62968826293945312 6.15001344680786133 -1.08364081382751465
-8.52700042724609375 6.24599981307983398 -1.0429999828338623
-8.51290225982666016 6.28910970687866211 -0.843994557857513428
-8.57969760894775391 6.21185827255249023 -1.03605926036834717
-8.51005744934082031 6.19662237167358398 -1.10761630535125732
-8.45721244812011719 6.14885759353637695 -1.05850684642791748
-8.65102005004882812 6.2239227294921875 -1.07145452499389648
-8.64200019836425781 6.22599983215332031 -1.06500005722045898
-8.55300045013427734 6.25799989700317383 -1.11600005626678467
-8.54481220245361328 6.22968244552612305 -0.829785287380218506
-8.55510711669921875 6.25209140777587891 -1.1234668493270874
-8.58633041381835938 6.23868989944458008 -1.09882271289825439
-8.47500038146972656 6.21600008010864258 -0.839999973773956299
-8.53945636749267578 6.19618797302246094 -1.08256304264068604
-8.571136474609375 6.16279745101928711 -0.988249480724334717
-8.65499973297119141 6.2350001335144043 -1.09099996089935303
-8.63950538635253906 6.21792078018188477 -1.06884860992431641
-8.5410003662109375 6.2369999885559082 -1.00399994850158691
-8.54899978637695312 6.17500019073486328 -1.12300002574920654
-8.51700019836425781 6.19000005722045898 -0.855000019073486328
-8.55562210083007812 6.24460411071777344 -1.11253917217254639
-8.55108261108398438 6.22617053985595703 -1.08495926856994629
-8.57491111755371094 6.22963809967041016 -1.08383989334106445
-8.57707691192626953 6.21934413909912109 -1.0663754940032959
-8.52800750732421875 6.26720046997070312 -1.07839679718017578
-8.54244327545166016 6.26563453674316406 -1.09126341342926025
-8.54568576812744141 6.24640655517578125 -1.1159670352935791
-8.55550003051757812 6.22424983978271484 -1.1099998950958252
-8.52900600433349609 6.2199554443359375 -1.06848299503326416
-8.54375553131103516 6.26764106750488281 -1.11543941497802734
-8.64309501647949219 6.24862384796142578 -1.07443082332611084
-8.58576011657714844 6.18549966812133789 -0.989994645118713379
-8.58011150360107422 6.17621040344238281 -1.00305557250976562
-8.69205856323242188 6.1863398551940918 -1.0717930793762207
-8.49809455871582031 6.14987516403198242 -1.11418485641479492
-8.51399993896484375 6.20699977874755859 -0.837999999523162842
-8.54199981689453125 6.21799993515014648 -1.05099999904632568
-8.63223075866699219 6.23951387405395508 -1.07063746452331543
-8.65899944305419922 6.16516494750976562 -1.06837868690490723
-8.47740936279296875 6.14677906036376953 -1.09727692604064941
-8.50610256195068359 6.22021961212158203 -1.10779690742492676
-8.54534149169921875 6.27327919006347656 -0.91825944185256958
-8.62916660308837891 6.1763768196105957 -1.08846855163574219
-8.57800006866455078 6.19799995422363281 -1.12999999523162842
-8.57432270050048828 6.2012939453125 -1.00325524806976318
-8.55790996551513672 6.18905210494995117 -1.00633800029754639
-8.48700046539306641 6.21199989318847656 -1.11000001430511475
-8.50399398803710938 6.28507709503173828 -1.09018278121948242
-8.62300014495849609 6.23400020599365234 -1.04600000381469727
-8.58581352233886719 6.21298122406005859 -1.03766882419586182
-8.65137481689453125 6.1365818977355957 -1.07720434665679932
-8.64624595642089844 6.15990114212036133 -1.10287106037139893
-8.55468940734863281 6.20082902908325195 -1.07052075862884521
-8.47026729583740234 6.30089807510375977 -0.89718472957611084
-8.58699989318847656 6.25099992752075195 -1.09599995613098145
-8.54071044921875 6.20317554473876953 -1.04100966453552246
-8.51299953460693359 6.23099994659423828 -0.864000022411346436
-8.60620403289794922 6.29233789443969727 -0.872558534145355225
-8.58623886108398438 6.26601886749267578 -0.854126870632171631
-8.54292106628417969 6.25603103637695312 -0.858067691326141357
-8.55280971527099609 6.2630000114440918 -0.858339250087738037
-8.52029228210449219 6.20953083038330078 -0.845861613750457764
-8.53543663024902344 6.29217720031738281 -0.872040688991546631
-8.52202892303466797 6.2308049201965332 -0.826449334621429443
-8.56710433959960938 6.2471165657043457 -1.00411272048950195
-8.52765560150146484 6.26991796493530273 -1.0274893045425415
-8.51488399505615234 6.2572789192199707 -1.0250551700592041
-8.56796073913574219 6.23593997955322266 -1.05169022083282471
-8.55230998992919922 6.28626012802124023 -1.05989503860473633
-8.5288238525390625 6.28270673751831055 -1.0618051290512085
-8.516082763671875 6.26183986663818359 -1.05385279655456543
-8.56406307220458984 6.26786375045776367 -1.0632857084274292
-8.5279998779296875 6.28000020980834961 -1.01499998569488525
-8.59655094146728516 6.25372505187988281 -1.01956319808959961
-8.49427509307861328 6.28840255737304688 -0.922765374183654785
-8.47190380096435547 6.26531457901000977 -0.909880280494689941
-8.53699970245361328 6.24100017547607422 -0.879999995231628418
-8.50142860412597656 6.20539712905883789 -0.885402143001556396
-8.51467704772949219 6.23898410797119141 -0.859604597091674805
-8.56392478942871094 6.25860214233398438 -0.872185766696929932
-8.50251579284667969 6.21174764633178711 -0.882622182369232178
-8.52299976348876953 6.25699996948242188 -0.869000017642974854
-8.51278972625732422 6.24422788619995117 -0.879378259181976318
-8.663787841796875 6.26067399978637695 -1.07044386863708496
-8.57775783538818359 6.28707599639892578 -1.09655570983886719
-8.46167373657226562 6.29926013946533203 -0.917427539825439453
-8.56406784057617188 6.22461032867431641 -1.10574126243591309
3 182 185 184 255 255 255
3 182 75 185 255 255 255
3 181 316 184 255 255 255
3 182 109 108 255 255 255
3 316 75 184 255 255 255
3 181 222 224 255 255 255
3 183 225 181 255 255 255
3 180 207 181 255 255 255
3 221 316 184 255 255 255
3 184 185 221 255 255 255
3 182 251 109 255 255 255
3 316 227 185 255 255 255
3 222 226 224 255 255 255
3 181 225 318 255 255 255
3 181 108 180 255 255 255
3 180 108 184 255 255 255
3 184 25 180 255 255 255
3 184 316 25 255 255 255
3 185 227 221 255 255 255
3 108 57 205 255 255 255
3 109 191 108 255 255 255
3 223 227 224 255 255 255
3 224 250 223 255 255 255
3 225 80 318 255 255 255
3 183 206 225 255 255 255
3 183 173 179 255 255 255
3 207 173 181 255 255 255
3 180 110 207 255 255 255
3 180 11 108 255 255 255
3 181 182 108 255 255 255
3 223 22 227 255 255 255
3 224 317 250 255 255 255
3 226 24 224 255 255 255
3 225 206 80 255 255 255
3 206 324 225 255 255 255
3 179 206 183 255 255 255
3 183 181 173 255 255 255
3 110 210 207 255 255 255
3 182 191 108 255 255 255
3 227 325 221 255 255 255
3 205 208 108 255 255 255
3 109 57 191 255 255 255
3 316 325 227 255 255 255
3 223 29 22 255 255 255
3 222 207 226 255 255 255
3 317 250 318 255 255 255
3 318 80 317 255 255 255
3 324 317 225 255 255 255
3 181 210 173 255 255 255
3 325 316 221 255 255 255
3 208 251 108 255 255 255
3 23 150 250 255 255 255
3 317 324 250 255 255 255
3 24 35 26 255 255 255
3 226 14 24 255 255 255
3 25 27 226 255 255 255
3 226 269 25 255 255 255
3 207 269 226 255 255 255
3 222 178 207 255 255 255
3 317 246 250 255 255 255
3 317 318 225 255 255 255
3 209 177 206 255 255 255
3 206 179 209 255 255 255
3 210 180 173 255 255 255
3 211 176 251 255 255 255
3 211 66 176 255 255 255
3 176 109 251 255 255 255
3 26 150 24 255 255 255
3 24 14 35 255 255 255
3 27 224 226 255 255 255
3 180 269 207 255 255 255
3 222 14 30 255 255 255
3 317 224 246 255 255 255
3 317 246 318 255 255 255
3 177 174 206 255 255 255
3 28 193 179 255 255 255
3 179 178 28 255 255 255
3 179 207 178 255 255 255
3 211 61 66 255 255 255
3 208 211 251 255 255 255
3 205 192 208 255 255 255
3 29 98 22 255 255 255
3 26 98 150 255 255 255
3 30 103 222 255 255 255
3 80 125 318 255 255 255
3 178 125 28 255 255 255
3 208 62 211 255 255 255
3 205 57 58 255 255 255
3 57 117 59 255 255 255
3 57 293 117 255 255 255
3 176 113 109 255 255 255
3 29 97 98 255 255 255
3 26 323 98 255 255 255
3 23 322 250 255 255 255
3 318 324 80 255 255 255
3 206 209 80 255 255 255
3 177 90 174 255 255 255
3 179 60 209 255 255 255
3 211 62 61 255 255 255
3 208 36 62 255 255 255
3 58 192 205 255 255 255
3 57 59 58 255 255 255
3 57 109 293 255 255 255
3 23 320 29 255 255 255
3 23 321 320 255 255 255
3 178 318 125 255 255 255
3 80 193 28 255 255 255
3 209 174 80 255 255 255
3 179 115 60 255 255 255
3 179 193 115 255 255 255
3 183 222 207 255 255 255
3 109 113 293 255 255 255
3 320 97 29 255 255 255
3 321 102 320 255 255 255
3 26 247 323 255 255 255
3 322 253 250 255 255 255
3 222 269 207 255 255 255
3 183 181 222 255 255 255
3 208 63 36 255 255 255
3 59 117 64 255 255 255
3 176 65 113 255 255 255
3 176 66 65 255 255 255
3 97 220 98 255 255 255
3 320 99 97 255 255 255
3 322 100 253 255 255 255
3 23 321 322 255 255 255
3 60 193 209 255 255 255
3 61 58 111 255 255 255
3 58 61 62 255 255 255
3 62 192 58 255 255 255
3 63 192 62 255 255 255
3 59 112 111 255 255 255
3 64 112 59 255 255 255
3 65 119 113 255 255 255
3 98 101 323 255 255 255
3 99 31 97 255 255 255
3 26 319 247 255 255 255
3 100 103 253 255 255 255
3 322 276 100 255 255 255
3 66 202 65 255 255 255
3 202 66 61 255 255 255
3 61 111 202 255 255 255
3 98 220 101 255 255 255
3 97 219 220 255 255 255
3 97 31 105 255 255 255
3 99 218 31 255 255 255
3 101 79 320 255 255 255
3 102 101 320 255 255 255
3 103 35 253 255 255 255
3 100 47 103 255 255 255
3 104 122 322 255 255 255
3 322 276 104 255 255 255
3 60 114 193 255 255 255
3 203 193 60 255 255 255
3 60 326 203 255 255 255
3 202 331 65 255 255 255
3 111 116 202 255 255 255
3 112 329 111 255 255 255
3 64 334 112 255 255 255
3 113 204 293 255 255 255
3 65 331 119 255 255 255
3 105 219 97 255 255 255
3 97 99 32 255 255 255
3 218 32 31 255 255 255
3 102 82 101 255 255 255
3 83 87 321 255 255 255
3 102 23 323 255 255 255
3 81 82 323 255 255 255
3 323 85 81 255 255 255
3 319 96 247 255 255 255
3 321 276 104 255 255 255
3 114 115 193 255 255 255
3 203 114 193 255 255 255
3 60 115 326 255 255 255
3 115 114 327 255 255 255
3 202 328 331 255 255 255
3 116 91 202 255 255 255
3 112 334 328 255 255 255
3 117 118 64 255 255 255
3 204 230 293 255 255 255
3 101 84 336 255 255 255
3 220 84 101 255 255 255
3 220 88 84 255 255 255
3 219 88 220 255 255 255
3 32 219 97 255 255 255
3 79 218 97 255 255 255
3 31 32 105 255 255 255
3 82 102 323 255 255 255
3 96 85 247 255 255 255
3 319 200 96 255 255 255
3 321 87 276 255 255 255
3 203 326 114 255 255 255
3 326 232 114 255 255 255
3 327 326 115 255 255 255
3 114 337 327 255 255 255
3 328 233 331 255 255 255
3 329 50 111 255 255 255
3 112 332 329 255 255 255
3 330 333 334 255 255 255
3 331 120 119 255 255 255
3 84 82 336 255 255 255
3 85 272 81 255 255 255
3 96 274 85 255 255 255
3 319 275 200 255 255 255
3 319 41 275 255 255 255
3 86 280 100 255 255 255
3 100 276 86 255 255 255
3 104 299 122 255 255 255
3 87 277 276 255 255 255
3 328 48 233 255 255 255
3 111 50 116 255 255 255
3 332 138 329 255 255 255
3 333 64 334 255 255 255
3 330 129 333 255 255 255
3 334 308 330 255 255 255
3 118 129 64 255 255 255
3 117 314 118 255 255 255
3 119 204 113 255 255 255
3 120 309 119 255 255 255
3 82 156 336 255 255 255
3 219 32 88 255 255 255
3 88 97 101 255 255 255
3 83 299 87 255 255 255
3 81 260 82 255 255 255
3 272 278 81 255 255 255
3 273 272 85 255 255 255
3 273 279 272 255 255 255
3 85 338 273 255 255 255
3 274 338 85 255 255 255
3 275 273 274 255 255 255
3 276 277 86 255 255 255
3 277 278 86 255 255 255
3 87 299 104 255 255 255
3 104 321 87 255 255 255
3 329 50 332 255 255 255
3 112 54 332 255 255 255
3 308 49 330 255 255 255
3 117 230 314 255 255 255
3 309 136 119 255 255 255
3 310 120 331 255 255 255
3 219 105 32 255 255 255
3 81 277 260 255 255 255
3 278 277 81 255 255 255
3 275 41 304 255 255 255
3 86 273 280 255 255 255
3 232 337 114 255 255 255
3 326 305 232 255 255 255
3 311 312 233 255 255 255
3 233 48 311 255 255 255
3 332 50 138 255 255 255
3 112 308 54 255 255 255
3 118 51 129 255 255 255
3 119 136 204 255 255 255
3 233 312 331 255 255 255
3 277 281 260 255 255 255
3 279 278 272 255 255 255
3 274 200 275 255 255 255
3 275 304 273 255 255 255
3 280 304 155 255 255 255
3 327 305 326 255 255 255
3 48 134 311 255 255 255
3 48 261 134 255 255 255
3 329 138 50 255 255 255
3 133 0 330 255 255 255
3 330 49 133 255 255 255
3 49 315 133 255 255 255
3 312 310 331 255 255 255
3 101 84 88 255 255 255
3 84 101 82 255 255 255
3 281 262 260 255 255 255
3 338 152 279 255 255 255
3 279 273 338 255 255 255
3 242 263 274 255 255 255
3 41 155 304 255 255 255
3 41 121 155 255 255 255
3 280 155 47 255 255 255
3 155 158 280 255 255 255
3 280 273 304 255 255 255
3 232 305 337 255 255 255
3 48 40 261 255 255 255
3 313 40 48 255 255 255
3 313 49 40 255 255 255
3 133 135 0 255 255 255
3 314 51 118 255 255 255
3 314 254 51 255 255 255
3 94 306 156 255 255 255
3 156 85 94 255 255 255
3 281 278 262 255 255 255
3 279 338 278 255 255 255
3 121 288 155 255 255 255
3 155 288 47 255 255 255
3 321 157 299 255 255 255
3 134 235 311 255 255 255
3 49 92 40 255 255 255
3 234 33 50 255 255 255
3 135 235 0 255 255 255
3 235 0 133 255 255 255
3 315 235 133 255 255 255
3 49 40 315 255 255 255
3 314 237 254 255 255 255
3 278 260 262 255 255 255
3 279 5 338 255 255 255
3 242 164 263 255 255 255
3 155 130 158 255 255 255
3 157 122 299 255 255 255
3 83 321 299 255 255 255
3 261 315 134 255 255 255
3 50 138 137 255 255 255
3 235 52 0 255 255 255
3 235 168 133 255 255 255
3 40 92 315 255 255 255
3 48 231 313 255 255 255
3 49 37 313 255 255 255
3 51 235 0 255 255 255
3 136 310 312 255 255 255
3 136 309 310 255 255 255
3 278 281 260 255 255 255
3 242 13 164 255 255 255
3 130 307 158 255 255 255
3 130 163 307 255 255 255
3 137 234 50 255 255 255
3 138 141 137 255 255 255
3 235 93 52 255 255 255
3 135 39 235 255 255 255
3 48 33 231 255 255 255
3 49 54 37 255 255 255
3 235 39 0 255 255 255
3 51 52 235 255 255 255
3 279 152 5 255 255 255
3 242 95 13 255 255 255
3 280 158 265 255 255 255
3 137 271 234 255 255 255
3 52 51 0 255 255 255
3 33 91 231 255 255 255
3 53 238 313 255 255 255
3 54 236 37 255 255 255
3 254 237 248 255 255 255
3 311 237 312 255 255 255
3 123 148 83 255 255 255
3 152 338 5 255 255 255
3 158 307 169 255 255 255
3 163 121 307 255 255 255
3 40 239 261 255 255 255
3 138 139 141 255 255 255
3 139 55 141 255 255 255
3 52 248 235 255 255 255
3 313 141 271 255 255 255
3 236 238 37 255 255 255
3 54 138 236 255 255 255
3 237 311 248 255 255 255
3 123 214 148 255 255 255
3 13 159 34 255 255 255
3 158 155 265 255 255 255
3 135 235 133 255 255 255
3 53 141 238 255 255 255
3 238 140 37 255 255 255
3 138 141 236 255 255 255
3 311 52 248 255 255 255
3 123 162 214 255 255 255
3 131 107 95 255 255 255
3 95 160 131 255 255 255
3 130 169 307 255 255 255
3 130 158 169 255 255 255
3 239 92 261 255 255 255
3 140 287 37 255 255 255
3 138 50 141 255 255 255
3 159 107 34 255 255 255
3 212 107 159 255 255 255
3 159 147 212 255 255 255
3 131 160 249 255 255 255
3 163 142 255 255 255 255
3 139 264 55 255 255 255
3 135 133 39 255 255 255
3 53 55 141 255 255 255
3 140 313 287 255 255 255
3 34 164 13 255 255 255
3 212 34 107 255 255 255
3 159 95 147 255 255 255
3 160 161 249 255 255 255
3 161 300 249 255 255 255
3 55 56 141 255 255 255
3 141 236 201 255 255 255
3 162 170 214 255 255 255
3 164 263 306 255 255 255
3 34 159 164 255 255 255
3 212 124 34 255 255 255
3 147 124 212 255 255 255
3 131 268 107 255 255 255
3 249 282 131 255 255 255
3 236 139 201 255 255 255
3 56 141 53 255 255 255
3 162 145 170 255 255 255
3 124 267 34 255 255 255
3 147 289 124 255 255 255
3 289 282 124 255 255 255
3 131 259 268 255 255 255
3 56 201 53 255 255 255
3 141 140 53 255 255 255
3 170 1 214 255 255 255
3 162 83 145 255 255 255
3 282 258 124 255 255 255
3 289 259 282 255 255 255
3 147 213 289 255 255 255
3 258 107 268 255 255 255
3 259 153 268 255 255 255
3 255 301 296 255 255 255
3 170 83 1 255 255 255
3 289 131 153 255 255 255
3 153 131 268 255 255 255
3 296 297 255 255 255 255
3 186 128 214 255 255 255
3 267 159 107 255 255 255
3 213 249 289 255 255 255
3 297 163 255 255 255 255
3 301 15 296 255 255 255
3 142 67 255 255 255 255
3 213 160 249 255 255 255
3 67 301 255 255 255 255
3 142 319 67 255 255 255
3 240 171 258 255 255 255
3 258 131 240 255 255 255
3 131 282 166 255 255 255
3 15 283 296 255 255 255
3 15 284 283 255 255 255
3 142 12 319 255 255 255
3 214 195 186 255 255 255
3 148 195 214 255 255 255
3 214 1 148 255 255 255
3 240 241 72 255 255 255
3 131 166 240 255 255 255
3 258 268 131 255 255 255
3 166 335 240 255 255 255
3 1 123 148 255 255 255
3 72 166 240 255 255 255
3 240 335 241 255 255 255
3 187 284 297 255 255 255
3 297 283 187 255 255 255
3 283 297 296 255 255 255
3 15 163 284 255 255 255
3 319 12 67 255 255 255
3 142 200 12 255 255 255
3 148 186 195 255 255 255
3 171 212 34 255 255 255
3 72 241 166 255 255 255
3 282 171 166 255 255 255
3 163 15 142 255 255 255
3 297 284 163 255 255 255
3 283 266 187 255 255 255
3 283 284 297 255 255 255
3 284 266 283 255 255 255
3 171 282 212 255 255 255
3 282 124 212 255 255 255
3 15 301 142 255 255 255
3 282 147 124 255 255 255
3 171 240 241 255 255 255
3 301 67 142 255 255 255
3 241 335 171 255 255 255
3 335 166 171 255 255 255
3 266 284 187 255 255 255
3 285 78 188 255 255 255
3 78 165 188 255 255 255
3 165 78 285 255 255 255
3 68 7 188 255 255 255
3 165 285 188 255 255 255
3 188 68 154 255 255 255
3 78 42 165 255 255 255
3 290 42 78 255 255 255
3 78 154 290 255 255 255
3 68 132 7 255 255 255
3 290 215 42 255 255 255
3 290 197 215 255 255 255
3 154 165 290 255 255 255
3 21 78 165 255 255 255
3 42 215 165 255 255 255
3 78 21 198 255 255 255
3 132 303 7 255 255 255
3 42 21 198 255 255 255
3 42 302 21 255 255 255
3 132 154 303 255 255 255
3 154 294 151 255 255 255
3 197 294 154 255 255 255
3 198 244 42 255 255 255
3 42 302 215 255 255 255
3 154 151 303 255 255 255
3 197 252 294 255 255 255
3 244 252 42 255 255 255
3 21 244 198 255 255 255
3 21 302 244 255 255 255
3 302 199 126 255 255 255
3 42 252 302 255 255 255
3 302 189 244 255 255 255
3 42 199 302 255 255 255
3 252 151 294 255 255 255
3 244 73 252 255 255 255
3 252 199 302 255 255 255
3 189 216 244 255 255 255
3 126 243 302 255 255 255
3 42 215 199 255 255 255
3 243 73 244 255 255 255
3 199 73 126 255 255 255
3 215 303 199 255 255 255
3 199 252 73 255 255 255
3 303 252 199 255 255 255
3 215 154 303 255 255 255
3 73 189 126 255 255 255
3 303 151 252 255 255 255
3 154 7 303 255 255 255
3 189 16 216 255 255 255
3 73 2 189 255 255 255
3 189 76 16 255 255 255
3 73 216 2 255 255 255
3 76 2 16 255 255 255
3 2 76 189 255 255 255
3 216 89 2 255 255 255
3 16 194 216 255 255 255
3 216 194 89 255 255 255
3 16 2 194 255 255 255
3 2 76 194 255 255 255
3 43 2 76 255 255 255
3 194 43 76 255 255 255
3 89 194 2 255 255 255
3 143 196 10 255 255 255
3 167 196 143 255 255 255
3 10 44 3 255 255 255
3 143 144 167 255 255 255
3 143 257 144 255 255 255
3 10 229 44 255 255 255
3 167 229 196 255 255 255
3 144 17 167 255 255 255
3 3 228 10 255 255 255
3 10 196 229 255 255 255
3 167 291 229 255 255 255
3 167 17 291 255 255 255
3 3 44 228 255 255 255
3 291 3 229 255 255 255
3 228 127 10 255 255 255
3 44 146 228 255 255 255
3 3 291 44 255 255 255
3 45 8 229 255 255 255
3 229 146 45 255 255 255
3 146 38 228 255 255 255
3 146 18 45 255 255 255
3 38 45 228 255 255 255
3 45 256 8 255 255 255
3 38 18 45 255 255 255
3 228 69 127 255 255 255
3 69 298 127 255 255 255
3 69 20 298 255 255 255
3 69 256 20 255 255 255
3 19 256 45 255 255 255
3 149 245 45 255 255 255
3 45 286 149 255 255 255
3 256 45 20 255 255 255
3 45 245 19 255 255 255
3 245 74 19 255 255 255
3 45 229 286 255 255 255
3 20 292 298 255 255 255
3 4 256 20 255 255 255
3 74 8 19 255 255 255
3 245 106 74 255 255 255
3 292 70 298 255 255 255
3 106 286 74 255 255 255
3 286 106 149 255 255 255
3 70 127 298 255 255 255
3 292 69 70 255 255 255
3 20 256 292 255 255 255
3 292 256 69 255 255 255
3 74 196 8 255 255 255
3 286 190 74 255 255 255
3 190 257 74 255 255 255
3 190 172 257 255 255 255
3 190 17 172 255 255 255
3 257 172 144 255 255 255
3 270 77 71 255 255 255
3 217 175 9 255 255 255
3 46 295 6 255 255 255
