ply
format ascii 1.0
element vertex 392
property float x
property float y
property float z
element face 576
property list uchar int vertex_indices
property uchar red
property uchar green
property uchar blue
end_header
-0.778999984264373779 -1.06200003623962402 -0.602999985218048096
-0.783982753753662109 -1.02588605880737305 -0.810794472694396973
-1.033927321434021 -0.882231056690216064 -0.573110699653625488
-1.03040087223052979 -0.902158260345458984 -0.606177330017089844
-1.03386270999908447 -0.841579556465148926 -0.539143741130828857
-1.02499997615814209 -0.954999983310699463 -0.657999992370605469
-1.04593455791473389 -0.967061102390289307 -0.693256974220275879
-1.08100283145904541 -0.987471818923950195 -0.705429375171661377
-1.04620814323425293 -0.988103926181793213 -0.593809425830841064
-1.0617440938949585 -0.993099749088287354 -0.800276637077331543
-1.01978886127471924 -0.956603586673736572 -0.814516901969909668
-1.03556275367736816 -0.979194223880767822 -0.752284765243530273
-0.83302009105682373 -0.953301548957824707 -0.347617119550704956
-0.780407726764678955 -0.919108390808105469 -0.435038357973098755
-0.869000017642974854 -1.08599996566772461 -0.884999990463256836
-1.01476335525512695 -0.923244059085845947 -0.683810114860534668
-1.01785552501678467 -0.930554509162902832 -0.716676414012908936
-1.06409752368927002 -0.951708018779754639 -0.665123283863067627
-1.11663711071014404 -0.982289791107177734 -0.652247130870819092
-1.06877040863037109 -0.979540228843688965 -0.737769365310668945
-1.01717424392700195 -0.958550035953521729 -0.759350597858428955
-1.05900001525878906 -0.962000012397766113 -0.493000000715255737
-1.0088428258895874 -0.958702325820922852 -0.524064362049102783
-1.01600003242492676 -0.961000025272369385 -0.555999994277954102
-1.01800000667572021 -0.902999997138977051 -0.532999992370605469
-0.967000007629394531 -0.990000009536743164 -0.677999973297119141
-0.98766016960144043 -0.9486083984375 -0.597658634185791016
-0.751022934913635254 -0.858186483383178711 -0.658669352531433105
-0.990999996662139893 -1 -0.560000002384185791
-0.781585514545440674 -1.07988059520721436 -0.710663795471191406
-1.07955360412597656 -1.02391219139099121 -0.623751461505889893
-1.01114773750305176 -1.01372814178466797 -0.728471696376800537
-1.06700003147125244 -1.01100003719329834 -0.829999983310699463
-1.03767991065979004 -1.0305553674697876 -0.79212796688079834
-1.11876094341278076 -1.01889598369598389 -0.826352477073669434
-1.00899994373321533 -1.02600002288818359 -0.797999978065490723
-1.01591789722442627 -1.0175931453704834 -0.686979949474334717
-1.01699995994567871 -1.06400001049041748 -0.949999988079071045
-1.03775930404663086 -1.07565271854400635 -0.801783919334411621
-1.08099997043609619 -1.00399994850158691 -0.866999983787536621
-0.599184572696685791 -1.00709545612335205 -0.625071346759796143
-0.808687925338745117 -1.07650518417358398 -0.345575928688049316
-0.775322973728179932 -1.05128598213195801 -0.691636979579925537
-0.660858869552612305 -1.07981324195861816 -0.755532145500183105
-0.957000017166137695 -1.09899997711181641 -0.574000000953674316
-0.88200002908706665 -1.10000002384185791 -0.349000006914138794
-0.794073641300201416 -1.02550089359283447 -0.830039620399475098
-0.888163089752197266 -1.0835036039352417 -0.699611842632293701
-0.82071155309677124 -0.986431896686553955 -0.569411814212799072
-0.81987917423248291 -0.986455023288726807 -0.603066444396972656
-0.629235923290252686 -0.987859427928924561 -0.516863465309143066
-0.574000000953674316 -0.976000010967254639 -0.546999990940093994
-0.771874785423278809 -0.931200563907623291 -0.691382944583892822
-0.549593031406402588 -0.98062509298324585 -0.516873061656951904
-0.824686288833618164 -0.921856522560119629 -0.688963592052459717
-0.777855217456817627 -0.906621634960174561 -0.698331773281097412
-0.779699802398681641 -0.925409317016601562 -0.649581313133239746
-0.79036247730255127 -0.972411453723907471 -0.359250813722610474
-0.703308165073394775 -1.06438362598419189 -0.840505838394165039
-0.824513256549835205 -1.00285792350769043 -0.722150683403015137
-0.912395000457763672 -1.09409832954406738 -0.619702756404876709
-0.609272539615631104 -1.1060478687286377 -0.470222592353820801
-0.968282461166381836 -1.12071263790130615 -0.639115869998931885
-0.691999971866607666 -1.2630000114440918 -0.703999996185302734
-0.974526166915893555 -1.06255066394805908 -0.50349891185760498
-0.738872289657592773 -1.18107843399047852 -0.830935001373291016
-0.689999997615814209 -1.05299997329711914 -0.660000026226043701
-0.98281937837600708 -1.00614464282989502 -0.937618374824523926
-0.588623881340026855 -1.02054071426391602 -0.454252332448959351
-0.622108280658721924 -1.0939098596572876 -0.441692739725112915
-0.587999999523162842 -1.09700000286102295 -0.418000012636184692
-0.925634860992431641 -1.07935929298400879 -0.358464449644088745
-0.79831928014755249 -1.02751052379608154 -0.372990608215332031
-0.805466353893280029 -1.07141637802124023 -1.00451934337615967
-0.745710432529449463 -1.05003714561462402 -1.01323997974395752
-0.76295769214630127 -1.09970390796661377 -1.02802085876464844
-0.807737946510314941 -1.15728163719177246 -1.03018319606781006
-0.762559890747070312 -1.18321406841278076 -1.01619839668273926
-0.709722340106964111 -1.21006941795349121 -0.752863645553588867
-0.876410067081451416 -1.12250041961669922 -0.804964780807495117
-0.786667406558990479 -1.0587388277053833 -0.630216240882873535
-0.815013885498046875 -1.16087329387664795 -0.907846629619598389
-0.665000021457672119 -1.07899999618530273 -0.552999973297119141
-0.816999971866607666 -1.08899998664855957 -0.575999975204467773
-0.829678654670715332 -1.08868110179901123 -0.566275656223297119
-0.657196044921875 -1.09095132350921631 -0.629083812236785889
-0.826210677623748779 -1.05007481575012207 -0.799324154853820801
-0.603033781051635742 -1.05392789840698242 -0.580560505390167236
-0.839783251285552979 -1.00514113903045654 -0.64393693208694458
-0.721000015735626221 -1.21200001239776611 -0.797999978065490723
-0.803415954113006592 -0.81929314136505127 -0.478790968656539917
-1.07598364353179932 -0.921835184097290039 -0.508611202239990234
-1.0140000581741333 -0.987999975681304932 -0.753000020980834961
-1.05700111389160156 -0.889177978038787842 -0.50089108943939209
-1.03734159469604492 -0.932210862636566162 -0.468265146017074585
-0.865000009536743164 -1.0700000524520874 -0.801999986171722412
-1.04900002479553223 -0.91100001335144043 -0.662000000476837158
-1.06599998474121094 -0.935000002384185791 -0.625
-1.03999996185302734 -0.987999975681304932 -0.834999978542327881
-1.03999996185302734 -0.967000007629394531 -0.683000028133392334
-1.04400002956390381 -0.964999973773956299 -0.680000007152557373
-0.786690950393676758 -1.03979015350341797 -1.01717782020568848
-0.873722434043884277 -1.10373616218566895 -1.00366604328155518
-0.98003077507019043 -1.02793407440185547 -1.01360654830932617
-0.738838732242584229 -1.05974447727203369 -1.02094757556915283
-0.962181627750396729 -1.08337116241455078 -1.00938236713409424
-0.847336649894714355 -1.04634106159210205 -0.945816397666931152
-0.855139076709747314 -1.0955054759979248 -0.509127140045166016
-0.824743449687957764 -1.07818818092346191 -0.330237209796905518
-0.707000017166137695 -1.0549999475479126 -0.865000009536743164
-0.853584945201873779 -1.09541845321655273 -0.42172396183013916
-0.833000004291534424 -1.09300005435943604 -0.504000008106231689
-0.847531020641326904 -1.04035103321075439 -0.324773728847503662
-0.769590556621551514 -1.19651937484741211 -0.842081606388092041
-0.988933920860290527 -1.05479550361633301 -0.454225361347198486
-0.852833807468414307 -1.06810486316680908 -0.454266160726547241
-0.946044206619262695 -1.07322251796722412 -0.401526838541030884
-0.801891207695007324 -1.06314396858215332 -0.597190499305725098
-0.962999999523162842 -1.10800004005432129 -0.584999978542327881
-0.778999984264373779 -1.02999997138977051 -0.768999993801116943
-0.691482663154602051 -1.09282577037811279 -0.640937328338623047
-0.904785811901092529 -1.0930856466293335 -0.827385008335113525
-0.675847530364990234 -1.06295502185821533 -0.68755638599395752
-0.651382505893707275 -1.03421628475189209 -0.561475694179534912
-0.621999979019165039 -1.0700000524520874 -0.547999978065490723
-0.823128998279571533 -0.885294020175933838 -0.594370067119598389
-0.828089296817779541 -0.98712003231048584 -0.619460463523864746
-0.790303707122802734 -0.946125149726867676 -0.619745910167694092
-1.0749586820602417 -1.02645480632781982 -1.00922107696533203
-1.02294480800628662 -1.04443180561065674 -1.01896309852600098
-1.01671731472015381 -1.0539393424987793 -1.0306544303894043
-1.00666987895965576 -1.10683143138885498 -1.01373374462127686
-0.841441333293914795 -0.939765095710754395 -0.346190959215164185
-0.559000015258789062 -0.948000013828277588 -0.526000022888183594
-0.764999985694885254 -0.876999974250793457 -0.634000003337860107
-0.727852523326873779 -0.888222455978393555 -0.591448664665222168
-0.770820260047912598 -0.924288749694824219 -0.563033401966094971
-0.944237172603607178 -0.995736181735992432 -0.546150565147399902
-0.808000028133392334 -0.99299997091293335 -0.386000007390975952
-0.789901077747344971 -0.949347555637359619 -0.454123467206954956
-0.751127421855926514 -0.999045133590698242 -0.453867942094802856
-0.734151065349578857 -0.886264920234680176 -0.582403421401977539
-0.829058349132537842 -0.950320422649383545 -0.550208687782287598
-0.748000025749206543 -0.990000009536743164 -0.822000026702880859
-0.871999979019165039 -1.09399998188018799 -0.959999978542327881
-0.707896649837493896 -1.08154404163360596 -0.820945501327514648
-0.846936166286468506 -1.07686829566955566 -0.347829461097717285
-0.985358774662017822 -1.1219182014465332 -0.370784282684326172
-0.868629693984985352 -1.06238138675689697 -0.910763204097747803
-0.703999996185302734 -1.0549999475479126 -0.765999972820281982
-0.862742900848388672 -1.10825169086456299 -0.941666305065155029
-0.990210890769958496 -1.05604839324951172 -0.85715717077255249
-0.974555432796478271 -0.999471783638000488 -0.552816450595855713
-0.703000009059906006 -1.03699994087219238 -0.675999999046325684
-1.07182705402374268 -0.99201434850692749 -1.01209104061126709
-0.752039968967437744 -1.0944896936416626 -0.886293292045593262
-0.703996419906616211 -1.23934412002563477 -0.742356359958648682
-0.990000009536743164 -0.962999999523162842 -0.887000024318695068
-0.685000002384185791 -1.03299999237060547 -0.68199998140335083
-0.830999970436096191 -1.06400001049041748 -0.80699998140335083
-0.91817176342010498 -1.1208728551864624 -0.707608342170715332
-0.9071236252784729 -1.09754109382629395 -0.851748526096343994
-0.797165989875793457 -1.01540851593017578 -0.949281215667724609
-0.782830119132995605 -1.02057647705078125 -0.921801567077636719
-0.813760578632354736 -1.0461651086807251 -0.862789452075958252
-0.771243155002593994 -1.20630133152008057 -0.913475751876831055
-0.740577280521392822 -1.03802907466888428 -0.866541862487792969
-0.728999972343444824 -1.05099999904632568 -0.890999972820281982
-0.698096036911010742 -1.04489099979400635 -0.651294231414794922
-0.770036399364471436 -1.01502299308776855 -0.454856216907501221
-0.778376758098602295 -0.941249966621398926 -0.813042521476745605
-0.722194194793701172 -0.96408689022064209 -0.796305954456329346
-0.78200000524520874 -0.912999987602233887 -0.412999987602233887
-0.945999979972839355 -1.05299997329711914 -0.437000006437301636
-0.920901060104370117 -1.12569582462310791 -0.498958796262741089
-0.779390454292297363 -1.03217875957489014 -0.566774725914001465
-0.836000025272369385 -1.07799994945526123 -0.490999996662139893
-0.640778839588165283 -1.05506372451782227 -0.712519526481628418
-0.731000006198883057 -0.888000011444091797 -0.712999999523162842
-0.826564431190490723 -0.912361741065979004 -0.568523645401000977
-0.849324464797973633 -0.99426954984664917 -0.538289368152618408
-0.842290699481964111 -0.998528659343719482 -0.498587369918823242
-0.988102197647094727 -0.999986410140991211 -0.761983156204223633
-0.983417868614196777 -0.983372271060943604 -0.706701338291168213
-0.994000017642974854 -0.964999973773956299 -0.56099998950958252
-0.985953032970428467 -0.964376986026763916 -0.628507137298583984
-0.6983756422996521 -0.834145188331604004 -0.702906668186187744
-0.783601164817810059 -0.932655453681945801 -0.523750066757202148
-0.677999973297119141 -1.08099997043609619 -0.694999992847442627
-0.891326725482940674 -1.08728992938995361 -0.735964059829711914
-0.831742644309997559 -1.0403512716293335 -0.6394156813621521
-0.736710667610168457 -1.04991090297698975 -0.754240214824676514
-0.632537841796875 -1.087868332862854 -0.650786221027374268
-0.658982455730438232 -1.07604360580444336 -0.589321613311767578
-0.570327520370483398 -1.02546215057373047 -0.535167872905731201
-0.628000020980834961 -1.07700002193450928 -0.609000027179718018
-0.780416131019592285 -1.01424968242645264 -0.503082096576690674
-0.688000023365020752 -1.09300005435943604 -0.71399998664855957
-0.763999998569488525 -0.926999986171722412 -0.597000002861022949
-0.584718823432922363 -0.967895030975341797 -0.357650518417358398
-0.70456540584564209 -1.10514628887176514 -0.758083164691925049
-0.778999984264373779 -1.01900005340576172 -0.469999998807907104
-0.968999981880187988 -1.0690000057220459 -0.552999973297119141
-0.785041332244873047 -1.02381563186645508 -0.857895195484161377
-0.650550663471221924 -1.08197879791259766 -0.680354416370391846
-0.600974678993225098 -1.12195897102355957 -0.482041478157043457
-0.787000000476837158 -1.0549999475479126 -0.837999999523162842
-0.626999974250793457 -1.07200002670288086 -0.603999972343444824
-0.776886343955993652 -0.971007287502288818 -0.432883381843566895
-0.784086227416992188 -0.991335868835449219 -0.91369253396987915
-0.849543392658233643 -0.920581161975860596 -0.590962588787078857
-0.675262153148651123 -1.03936910629272461 -0.68736732006072998
-0.783206164836883545 -0.855772674083709717 -0.762028396129608154
-0.990999996662139893 -0.978999972343444824 -0.869000017642974854
-0.724413096904754639 -0.918580412864685059 -0.740892648696899414
-0.787388265132904053 -0.864981174468994141 -0.545309305191040039
-0.784061908721923828 -0.82839667797088623 -0.456168711185455322
-0.796519935131072998 -0.925304710865020752 -0.491457641124725342
-0.830255329608917236 -0.91177523136138916 -0.361548900604248047
-0.995015501976013184 -0.961438775062561035 -0.822305381298065186
-0.942111611366271973 -0.978723764419555664 -0.604853689670562744
-0.589999973773956299 -0.986000001430511475 -0.56800001859664917
-0.787000000476837158 -0.978999972343444824 -0.808000028133392334
-0.675999999046325684 -1.08599996566772461 -0.660000026226043701
-1.00899994373321533 -1.02199995517730713 -0.42300000786781311
-1.0411524772644043 -1.02422678470611572 -0.709703445434570312
-0.719374537467956543 -1.01507174968719482 -0.379015952348709106
-1.02300000190734863 -1.08800005912780762 -0.977999985218048096
-0.828521847724914551 -1.09917640686035156 -0.627984464168548584
-0.673808097839355469 -1.11145687103271484 -0.742377161979675293
-0.640999972820281982 -1.03299999237060547 -0.596000015735626221
-0.980967938899993896 -1.05402910709381104 -0.357596337795257568
-0.663566648960113525 -1.08954858779907227 -0.713793933391571045
-0.600872457027435303 -1.0617595911026001 -0.510292947292327881
-0.618117809295654297 -1.05969059467315674 -0.647624492645263672
-0.711000025272369385 -1.03199994564056396 -0.702000021934509277
-0.71304398775100708 -1.23799610137939453 -0.735685765743255615
-0.717000007629394531 -1.1799999475479126 -0.736999988555908203
-0.679000020027160645 -1.24100005626678467 -0.68599998950958252
-0.990000009536743164 -0.991999983787536621 -0.537000000476837158
-0.572951853275299072 -0.979484140872955322 -0.335525572299957275
-0.995000004768371582 -1.03699994087219238 -0.839999973773956299
-0.827000021934509277 -1.05799996852874756 -0.791999995708465576
-0.818821549415588379 -1.12083554267883301 -0.846839249134063721
-0.836097657680511475 -1.11237668991088867 -0.52988433837890625
-0.74299997091293335 -1.11500000953674316 -0.924000024795532227
-0.925975680351257324 -1.12578153610229492 -0.57295304536819458
-0.697000026702880859 -1.03999996185302734 -0.69300001859664917
-0.902851998805999756 -1.09802258014678955 -0.750841736793518066
-1.14487481117248535 -0.999358177185058594 -0.830282449722290039
-1.12027275562286377 -0.986397087574005127 -0.902362167835235596
-1.00906157493591309 -0.945746541023254395 -0.499750256538391113
-0.722358524799346924 -0.880620598793029785 -0.764413177967071533
-0.742944061756134033 -0.969036519527435303 -0.928757548332214355
-0.990899085998535156 -0.998388707637786865 -0.645268380641937256
-0.80699998140335083 -0.961000025272369385 -0.398000001907348633
-1.00999999046325684 -0.873000025749206543 -0.505999982357025146
-0.889999985694885254 -1.12100005149841309 -0.684000015258789062
-0.744545578956604004 -1.01856517791748047 -0.886107563972473145
-0.762481868267059326 -1.11564195156097412 -0.782678544521331787
-0.71980750560760498 -1.13844394683837891 -0.883238792419433594
-0.904731869697570801 -1.04736769199371338 -0.357278764247894287
-0.969000637531280518 -1.06585490703582764 -0.930816471576690674
-0.569000005722045898 -1.09500002861022949 -0.444000005722045898
-0.736999988555908203 -1.08500003814697266 -0.945999979972839355
-0.837000012397766113 -1.08000004291534424 -0.984000027179718018
-0.794131577014923096 -1.17715251445770264 -0.918088853359222412
-0.820809781551361084 -1.15836060047149658 -0.96780472993850708
-0.577000021934509277 -1.09700000286102295 -0.446000009775161743
-0.770223259925842285 -0.988226890563964844 -0.418318897485733032
-0.708000004291534424 -1.20799994468688965 -0.800000011920928955
-0.737917244434356689 -1.11019563674926758 -0.98240429162979126
-0.675999999046325684 -1.09899997711181641 -0.768000006675720215
-0.8383750319480896 -1.0642707347869873 -0.366337954998016357
-0.775020182132720947 -1.01469206809997559 -0.58489757776260376
-0.762013792991638184 -1.04958260059356689 -0.810411930084228516
-0.826009452342987061 -1.06979811191558838 -0.970231831073760986
-0.739378392696380615 -1.05519723892211914 -0.698697984218597412
-0.859196662902832031 -1.10068714618682861 -0.76126396656036377
-0.879439890384674072 -1.13630390167236328 -0.852759182453155518
-0.96008676290512085 -0.990713596343994141 -0.843084931373596191
-0.706803679466247559 -0.836240172386169434 -0.667642652988433838
-0.759454667568206787 -0.94762188196182251 -0.845759451389312744
-0.711000025272369385 -0.879000008106231689 -0.680000007152557373
-1.02261650562286377 -1.06885087490081787 -0.526749312877655029
-1.02346789836883545 -1.11056363582611084 -0.544701099395751953
-1.05307638645172119 -1.02422451972961426 -0.439843714237213135
-1.03900003433227539 -1.0700000524520874 -0.493999987840652466
-1.0393446683883667 -1.00284945964813232 -0.746050655841827393
-1.05778777599334717 -1.02097845077514648 -0.677446484565734863
-1.08154213428497314 -1.02508389949798584 -0.812233567237854004
-1.01199996471405029 -1.08599996566772461 -0.879000008106231689
-1.02600002288818359 -1.07200002670288086 -0.917999982833862305
-1.04799997806549072 -1.06400001049041748 -0.462999999523162842
-1.05550646781921387 -1.01768624782562256 -0.889649808406829834
-1.02217280864715576 -1.08505856990814209 -0.848570108413696289
-1.04815232753753662 -1.00562405586242676 -0.508136332035064697
-1.04227173328399658 -1.01689720153808594 -0.942231416702270508
-1.08684933185577393 -1.00121462345123291 -0.917795777320861816
-1.08599185943603516 -1.01774322986602783 -0.966384351253509521
-1.12571537494659424 -1.03472304344177246 -0.894138753414154053
-1.03442192077636719 -1.10000371932983398 -0.425250023603439331
-1.05318069458007812 -1.05632340908050537 -0.41120755672454834
-1.01950764656066895 -1.08551859855651855 -0.481789231300354004
-0.795000016689300537 -0.996999979019165039 -0.53200000524520874
-0.986000001430511475 -0.971000015735626221 -0.901000022888183594
-0.851367294788360596 -0.948045253753662109 -0.509167492389678955
-0.881849884986877441 -1.11014437675476074 -0.991053521633148193
-0.823000013828277588 -1.09300005435943604 -0.527000010013580322
-0.992352902889251709 -1.08413076400756836 -0.452381014823913574
-0.925059974193572998 -1.09896564483642578 -0.540173768997192383
-0.979439675807952881 -1.11236941814422607 -0.949118971824645996
-0.947060227394104004 -1.05713737010955811 -0.531181633472442627
-0.703000009059906006 -1.20500004291534424 -0.779999971389770508
-0.764668524265289307 -1.1985698938369751 -0.722628653049468994
-0.699000000953674316 -1.21099996566772461 -0.718999981880187988
-0.721000015735626221 -1.04499995708465576 -0.802999973297119141
-0.938000023365020752 -1.08599996566772461 -0.477999985218048096
-1.00890719890594482 -0.988725364208221436 -0.819745481014251709
-1.05920219421386719 -0.932586848735809326 -0.544518649578094482
-1.04300689697265625 -0.952560663223266602 -0.73851466178894043
-1.01800000667572021 -0.996999979019165039 -0.842000007629394531
-1.04866230487823486 -0.985889554023742676 -0.895178735256195068
-1.01846146583557129 -0.935409307479858398 -0.564166486263275146
-1.0140000581741333 -0.99299997091293335 -0.846000015735626221
-1.08017575740814209 -0.975663900375366211 -0.512251615524291992
-1.05572617053985596 -0.938192307949066162 -0.595952451229095459
-1.14100003242492676 -0.998000025749206543 -0.846000015735626221
-0.776000022888183594 -1.19299995899200439 -0.957000017166137695
-0.769999980926513672 -1.05099999904632568 -0.763000011444091797
-0.985419929027557373 -1.04837274551391602 -0.400116503238677979
-0.785153329372406006 -1.03571116924285889 -0.646358907222747803
-0.837146222591400146 -1.12201237678527832 -0.857927381992340088
-0.721000015735626221 -1.07500004768371582 -0.861000001430511475
-0.642331480979919434 -1.08258712291717529 -0.515606045722961426
-0.731330811977386475 -1.19220340251922607 -0.788321912288665771
-0.806521415710449219 -0.999872386455535889 -0.768234848976135254
-0.769636988639831543 -0.894512355327606201 -0.796151995658874512
-0.689058125019073486 -1.06872248649597168 -0.808210015296936035
-0.603999972343444824 -1.13499999046325684 -0.400999993085861206
-0.949000000953674316 -1.06099998950958252 -0.45199999213218689
-0.948000013828277588 -1.0700000524520874 -0.474000006914138794
-0.569562017917633057 -1.00271761417388916 -0.361680775880813599
-0.844056010246276855 -1.09389305114746094 -0.470225393772125244
-0.646030843257904053 -1.02739250659942627 -0.66537320613861084
-0.799115180969238281 -1.03786242008209229 -0.718127548694610596
-0.829993486404418945 -1.1076122522354126 -0.585268557071685791
-0.716000020503997803 -1.06799995899200439 -0.860000014305114746
-0.92850649356842041 -1.12897670269012451 -0.634108245372772217
-0.694999992847442627 -1.24000000953674316 -0.679000020027160645
-0.810711801052093506 -0.882635891437530518 -0.532114148139953613
-0.80365830659866333 -0.9964866042137146 -0.697347283363342285
-0.988212823867797852 -1.00044345855712891 -0.640553176403045654
-0.748000025749206543 -1.1380000114440918 -0.954999983310699463
-0.872373104095458984 -1.02175331115722656 -0.364782005548477173
-0.613128185272216797 -1.12186884880065918 -0.405282884836196899
-0.907999992370605469 -1.07400000095367432 -0.493999987840652466
-0.796632587909698486 -1.0937572717666626 -0.735584616661071777
-0.775135993957519531 -0.989336192607879639 -0.480362623929977417
-0.835808515548706055 -0.933192193508148193 -0.61508488655090332
-0.833000004291534424 -0.966000020503997803 -0.666000008583068848
-0.778999984264373779 -0.94300001859664917 -0.753000020980834961
-0.78200000524520874 -0.985000014305114746 -0.510999977588653564
-0.780994713306427002 -0.915349721908569336 -0.366719990968704224
-0.782682359218597412 -0.879506349563598633 -0.728402078151702881
-0.584949493408203125 -0.98783409595489502 -0.48240247368812561
-0.776000022888183594 -0.953999996185302734 -0.643000006675720215
-0.586174666881561279 -0.949923932552337646 -0.515468418598175049
-0.74299997091293335 -0.892000019550323486 -0.635999977588653564
1 1 1
-0.81837230920791626 -0.900540292263031006 -0.626059234142303467
-0.759999990463256836 -0.924000024795532227 -0.620999991893768311
-0.736756265163421631 -0.881630182266235352 -0.666795134544372559
-0.791320443153381348 -0.915591299533843994 -0.756066679954528809
-0.793375372886657715 -0.879302978515625 -0.594961643218994141
-0.812363207340240479 -0.925601541996002197 -0.586739063262939453
-0.791565060615539551 -0.884487807750701904 -0.331077158451080322
-0.800999999046325684 -0.990999996662139893 -0.801999986171722412
-0.991471171379089355 -0.985494852066040039 -0.586975753307342529
-0.733907997608184814 -0.976207554340362549 -0.855354487895965576
-0.711781203746795654 -1.20475530624389648 -0.776412844657897949
-0.986000001430511475 -1.11500000953674316 -0.584999978542327881
-0.96398770809173584 -1.05955374240875244 -0.59307551383972168
-0.71399998664855957 -1.05400002002716064 -0.830999970436096191
-0.681245505809783936 -1.08282697200775146 -0.772777378559112549
-0.713102996349334717 -1.09698450565338135 -0.712352335453033447
-0.726999998092651367 -1.17900002002716064 -0.777999997138977051
-0.67580026388168335 -1.08957958221435547 -0.682796180248260498
-0.903999984264373779 -1.11899995803833008 -0.676999986171722412
-0.619987547397613525 -1.09732902050018311 -0.565801322460174561
-0.845000028610229492 -1.13199996948242188 -0.898999989032745361
-0.847753047943115234 -0.945031225681304932 -0.592641949653625488
3 74 104 75 255 255 255
3 75 73 74 255 255 255
3 75 265 73 255 255 255
3 76 102 75 255 255 255
3 162 101 73 255 255 255
3 73 276 162 255 255 255
3 265 276 73 255 255 255
3 76 307 102 255 255 255
3 75 77 76 255 255 255
3 276 106 162 255 255 255
3 265 102 276 255 255 255
3 77 267 76 255 255 255
3 75 271 77 255 255 255
3 101 162 74 255 255 255
3 353 77 271 255 255 255
3 162 264 74 255 255 255
3 106 148 162 255 255 255
3 307 144 102 255 255 255
3 75 74 271 255 255 255
3 264 271 74 255 255 255
3 266 81 267 255 255 255
3 106 102 148 255 255 255
3 267 150 102 255 255 255
3 266 332 81 255 255 255
3 328 267 77 255 255 255
3 163 209 162 255 255 255
3 102 150 148 255 255 255
3 81 150 267 255 255 255
3 81 390 150 255 255 255
3 266 113 332 255 255 255
3 266 165 113 255 255 255
3 150 14 148 255 255 255
3 209 253 162 255 255 255
3 163 258 209 255 255 255
3 266 328 165 255 255 255
3 253 163 162 255 255 255
3 164 203 163 255 255 255
3 165 65 113 255 255 255
3 253 258 163 255 255 255
3 209 282 253 255 255 255
3 165 260 65 255 255 255
3 164 46 203 255 255 255
3 253 379 258 255 255 255
3 166 379 258 255 255 255
3 167 166 258 255 255 255
3 253 282 379 255 255 255
3 258 155 167 255 255 255
3 259 243 65 255 255 255
3 260 259 65 255 255 255
3 165 245 260 255 255 255
3 282 171 379 255 255 255
3 170 337 282 255 255 255
3 166 383 58 255 255 255
3 155 333 167 255 255 255
3 165 353 245 255 255 255
3 171 143 379 255 255 255
3 58 109 166 255 255 255
3 383 338 58 255 255 255
3 333 347 167 255 255 255
3 260 145 259 255 255 255
3 245 155 260 255 255 255
3 143 282 379 255 255 255
3 338 145 58 255 255 255
3 383 316 338 255 255 255
3 347 109 167 255 255 255
3 260 58 145 255 255 255
3 258 264 155 255 255 255
3 260 333 58 255 255 255
3 171 282 170 255 255 255
3 264 245 155 255 255 255
3 384 145 338 255 255 255
3 384 43 145 255 255 255
3 338 149 384 255 255 255
3 259 357 243 255 255 255
3 259 29 357 255 255 255
3 222 377 170 255 255 255
3 43 272 145 255 255 255
3 222 1 377 255 255 255
3 43 229 272 255 255 255
3 357 278 243 255 255 255
3 29 345 357 255 255 255
3 259 329 29 255 255 255
3 1 46 377 255 255 255
3 222 143 1 255 255 255
3 384 272 43 255 255 255
3 243 278 79 255 255 255
3 191 277 29 255 255 255
3 329 277 29 255 255 255
3 229 200 272 255 255 255
3 43 232 229 255 255 255
3 43 122 177 255 255 255
3 243 279 332 255 255 255
3 79 279 243 255 255 255
3 357 242 278 255 255 255
3 277 42 29 255 255 255
3 229 385 200 255 255 255
3 43 177 232 255 255 255
3 122 211 177 255 255 255
3 43 197 122 255 255 255
3 79 121 279 255 255 255
3 278 248 79 255 255 255
3 80 228 29 255 255 255
3 29 42 80 255 255 255
3 42 331 80 255 255 255
3 275 206 46 255 255 255
3 232 197 229 255 255 255
3 197 385 122 255 255 255
3 121 161 279 255 255 255
3 278 160 248 255 255 255
3 275 166 206 255 255 255
3 46 1 275 255 255 255
3 1 119 275 255 255 255
3 232 387 197 255 255 255
3 177 204 232 255 255 255
3 211 344 177 255 255 255
3 211 158 344 255 255 255
3 385 277 122 255 255 255
3 278 189 160 255 255 255
3 228 190 29 255 255 255
3 331 0 80 255 255 255
3 331 117 0 255 255 255
3 168 235 277 255 255 255
3 277 120 168 255 255 255
3 277 191 149 255 255 255
3 119 191 275 255 255 255
3 120 277 385 255 255 255
3 385 387 120 255 255 255
3 387 223 120 255 255 255
3 211 247 158 255 255 255
3 122 153 211 255 255 255
3 332 113 243 255 255 255
3 279 390 332 255 255 255
3 0 117 80 255 255 255
3 117 274 0 255 255 255
3 331 80 117 255 255 255
3 153 235 168 255 255 255
3 153 158 235 255 255 255
3 247 235 277 255 255 255
3 191 316 149 255 255 255
3 223 85 120 255 255 255
3 387 204 223 255 255 255
3 122 66 153 255 255 255
3 188 223 122 255 255 255
3 122 387 188 255 255 255
3 161 14 279 255 255 255
3 274 175 0 255 255 255
3 331 190 80 255 255 255
3 345 29 42 255 255 255
3 277 345 42 255 255 255
3 329 275 191 255 255 255
3 177 122 344 255 255 255
3 189 121 248 255 255 255
3 189 47 160 255 255 255
3 228 80 190 255 255 255
3 228 117 346 255 255 255
3 120 85 168 255 255 255
3 40 234 344 255 255 255
3 121 161 248 255 255 255
3 189 95 121 255 255 255
3 248 47 189 255 255 255
3 228 346 84 255 255 255
3 117 175 274 255 255 255
3 117 0 175 255 255 255
3 117 84 83 255 255 255
3 277 119 345 255 255 255
3 234 192 344 255 255 255
3 160 47 248 255 255 255
3 117 228 84 255 255 255
3 88 126 190 255 255 255
3 119 336 345 255 255 255
3 192 85 344 255 255 255
3 40 87 234 255 255 255
3 346 244 84 255 255 255
3 117 83 346 255 255 255
3 126 49 190 255 255 255
3 193 230 85 255 255 255
3 192 168 85 255 255 255
3 388 47 160 255 255 255
3 160 257 388 255 255 255
3 257 160 47 255 255 255
3 244 308 84 255 255 255
3 82 123 193 255 255 255
3 40 194 87 255 255 255
3 257 47 388 255 255 255
3 83 84 346 255 255 255
3 84 308 346 255 255 255
3 126 127 49 255 255 255
3 351 360 88 255 255 255
3 345 59 351 255 255 255
3 336 59 345 255 255 255
3 230 40 85 255 255 255
3 82 334 123 255 255 255
3 85 207 389 255 255 255
3 234 87 85 255 255 255
3 194 233 87 255 255 255
3 40 221 194 255 255 255
3 244 107 308 255 255 255
3 127 48 49 255 255 255
3 123 124 193 255 255 255
3 389 82 85 255 255 255
3 207 87 389 255 255 255
3 351 88 59 255 255 255
3 59 55 351 255 255 255
3 86 59 336 255 255 255
3 86 242 59 255 255 255
3 336 377 86 255 255 255
3 40 344 85 255 255 255
3 87 124 389 255 255 255
3 192 204 234 255 255 255
3 59 54 55 255 255 255
3 207 195 193 255 255 255
3 124 334 389 255 255 255
3 87 233 124 255 255 255
3 233 194 68 255 255 255
3 107 111 343 255 255 255
3 142 180 48 255 255 255
3 48 179 142 255 255 255
3 127 375 48 255 255 255
3 195 85 193 255 255 255
3 123 334 50 255 255 255
3 334 68 50 255 255 255
3 205 334 389 255 255 255
3 107 343 176 255 255 255
3 107 308 111 255 255 255
3 49 88 190 255 255 255
3 48 375 179 255 255 255
3 86 159 242 255 255 255
3 50 230 123 255 255 255
3 334 233 68 255 255 255
3 205 61 334 255 255 255
3 51 53 194 255 255 255
3 51 133 53 255 255 255
3 343 115 176 255 255 255
3 111 176 343 255 255 255
3 49 126 88 255 255 255
3 52 54 55 255 255 255
3 86 95 159 255 255 255
3 53 365 194 255 255 255
3 111 107 176 255 255 255
3 334 61 233 255 255 255
3 194 365 68 255 255 255
3 343 110 115 255 255 255
3 54 359 55 255 255 255
3 55 372 52 255 255 255
3 68 365 50 255 255 255
3 205 233 61 255 255 255
3 55 359 360 255 255 255
3 56 54 52 255 255 255
3 52 366 56 255 255 255
3 54 370 55 255 255 255
3 364 178 55 255 255 255
3 50 365 367 255 255 255
3 365 133 367 255 255 255
3 366 127 56 255 255 255
3 364 214 178 255 255 255
3 364 361 373 255 255 255
3 54 359 370 255 255 255
3 367 51 50 255 255 255
3 69 268 61 255 255 255
3 268 263 205 255 255 255
3 127 126 56 255 255 255
3 368 371 372 255 255 255
3 370 374 55 255 255 255
3 51 221 50 255 255 255
3 69 70 268 255 255 255
3 61 355 69 255 255 255
3 110 261 115 255 255 255
3 371 366 372 255 255 255
3 372 368 27 255 255 255
3 364 252 214 255 255 255
3 364 373 212 255 255 255
3 373 337 212 255 255 255
3 374 134 55 255 255 255
3 370 210 125 255 255 255
3 61 70 355 255 255 255
3 372 178 283 255 255 255
3 368 134 27 255 255 255
3 337 373 170 255 255 255
3 374 135 134 255 255 255
3 210 179 125 255 255 255
3 370 359 210 255 255 255
3 70 339 355 255 255 255
3 364 212 252 255 255 255
3 125 350 374 255 255 255
3 179 350 125 255 255 255
3 359 391 210 255 255 255
3 359 49 391 255 255 255
3 252 361 214 255 255 255
3 374 215 135 255 255 255
3 339 205 355 255 255 255
3 261 354 273 255 255 255
3 215 141 135 255 255 255
3 215 136 141 255 255 255
3 350 216 374 255 255 255
3 216 90 374 255 255 255
3 350 215 216 255 255 255
3 391 142 210 255 255 255
3 141 198 135 255 255 255
3 374 90 215 255 255 255
3 350 187 215 255 255 255
3 391 180 142 255 255 255
3 354 41 273 255 255 255
3 261 273 146 255 255 255
3 198 371 135 255 255 255
3 215 375 136 255 255 255
3 41 45 273 255 255 255
3 112 108 354 255 255 255
3 116 231 261 255 255 255
3 261 71 116 255 255 255
3 146 45 261 255 255 255
3 198 127 371 255 255 255
3 350 217 187 255 255 255
3 142 180 306 255 255 255
3 41 112 45 255 255 255
3 41 108 112 255 255 255
3 354 261 112 255 255 255
3 116 330 231 255 255 255
3 71 231 116 255 255 255
3 198 375 127 255 255 255
3 215 90 216 255 255 255
3 231 147 116 255 255 255
3 198 136 375 255 255 255
3 180 181 306 255 255 255
3 147 330 116 255 255 255
3 71 261 231 255 255 255
3 217 362 187 255 255 255
3 217 139 13 255 255 255
3 147 301 330 255 255 255
3 217 196 362 255 255 255
3 181 196 306 255 255 255
3 330 114 224 255 255 255
3 309 114 330 255 255 255
3 330 301 309 255 255 255
3 231 302 147 255 255 255
3 139 172 13 255 255 255
3 309 340 114 255 255 255
3 147 302 301 255 255 255
3 330 302 231 255 255 255
3 340 173 114 255 255 255
3 208 140 139 255 255 255
3 114 303 309 255 255 255
3 301 114 309 255 255 255
3 302 293 301 255 255 255
3 140 358 139 255 255 255
3 139 363 208 255 255 255
3 196 201 358 255 255 255
3 64 284 114 255 255 255
3 114 312 64 255 255 255
3 303 285 309 255 255 255
3 358 362 139 255 255 255
3 363 269 208 255 255 255
3 358 139 196 255 255 255
3 358 208 139 255 255 255
3 284 287 114 255 255 255
3 312 202 64 255 255 255
3 285 341 309 255 255 255
3 302 286 293 255 255 255
3 363 226 269 255 255 255
3 358 140 208 255 255 255
3 358 169 140 255 255 255
3 284 285 287 255 255 255
3 341 114 309 255 255 255
3 285 317 341 255 255 255
3 286 224 302 255 255 255
3 358 304 362 255 255 255
3 169 201 140 255 255 255
3 363 57 226 255 255 255
3 287 293 114 255 255 255
3 285 303 287 255 255 255
3 312 382 202 255 255 255
3 317 340 341 255 255 255
3 312 60 382 255 255 255
3 284 382 285 255 255 255
3 382 284 202 255 255 255
3 60 44 382 255 255 255
3 312 310 60 255 255 255
3 363 172 218 255 255 255
3 381 285 382 255 255 255
3 310 246 60 255 255 255
3 269 226 72 255 255 255
3 57 72 226 255 255 255
3 363 12 57 255 255 255
3 363 132 12 255 255 255
3 218 376 363 255 255 255
3 363 376 132 255 255 255
3 246 348 60 255 255 255
3 72 255 269 255 255 255
3 138 72 57 255 255 255
3 57 255 138 255 255 255
3 376 218 132 255 255 255
3 246 62 348 255 255 255
3 57 218 255 255 255 255
3 246 118 62 255 255 255
3 57 132 218 255 255 255
3 60 348 62 255 255 255
3 60 348 47 255 255 255
3 118 381 62 255 255 255
3 246 44 118 255 255 255
3 310 317 356 255 255 255
3 310 174 317 255 255 255
3 6 96 15 255 255 255
3 15 16 6 255 255 255
3 6 17 96 255 255 255
3 16 288 6 255 255 255
3 6 7 17 255 255 255
3 16 19 288 255 255 255
3 288 225 6 255 255 255
3 17 7 18 255 255 255
3 6 289 7 255 255 255
3 16 20 19 255 255 255
3 18 97 17 255 255 255
3 6 225 289 255 255 255
3 19 290 288 255 255 255
3 20 9 19 255 255 255
3 7 289 18 255 255 255
3 289 30 18 255 255 255
3 290 31 288 255 255 255
3 19 9 290 255 255 255
3 219 10 20 255 255 255
3 30 97 18 255 255 255
3 8 18 30 255 255 255
3 9 34 290 255 255 255
3 10 32 9 255 255 255
3 8 326 18 255 255 255
3 30 289 8 255 255 255
3 289 254 8 255 255 255
3 31 11 288 255 255 255
3 290 9 31 255 255 255
3 290 32 33 255 255 255
3 32 34 9 255 255 255
3 10 98 32 255 255 255
3 9 318 31 255 255 255
3 290 33 9 255 255 255
3 32 38 33 255 255 255
3 32 39 34 255 255 255
3 10 219 98 255 255 255
3 219 318 280 255 255 255
3 289 352 254 255 255 255
3 11 9 288 255 255 255
3 31 320 11 255 255 255
3 318 182 31 255 255 255
3 33 318 35 255 255 255
3 32 290 38 255 255 255
3 34 39 290 255 255 255
3 318 241 280 255 255 255
3 319 2 326 255 255 255
3 9 318 288 255 255 255
3 35 182 33 255 255 255
3 318 241 35 255 255 255
3 33 321 318 255 255 255
3 34 327 249 255 255 255
3 219 213 322 255 255 255
3 280 157 219 255 255 255
3 241 151 280 255 255 255
3 289 36 352 255 255 255
3 320 20 11 255 255 255
3 36 99 31 255 255 255
3 35 318 182 255 255 255
3 321 324 318 255 255 255
3 33 98 321 255 255 255
3 322 294 219 255 255 255
3 213 157 322 255 255 255
3 280 305 157 255 255 255
3 20 92 11 255 255 255
3 36 100 99 255 255 255
3 182 183 31 255 255 255
3 318 9 35 255 255 255
3 9 33 35 255 255 255
3 324 213 318 255 255 255
3 321 219 324 255 255 255
3 241 38 151 255 255 255
3 325 91 319 255 255 255
3 319 296 325 255 255 255
3 378 28 8 255 255 255
3 36 31 183 255 255 255
3 34 249 300 255 255 255
3 38 295 151 255 255 255
3 183 25 36 255 255 255
3 182 20 183 255 255 255
3 39 290 294 255 255 255
3 294 250 39 255 255 255
3 295 291 151 255 255 255
3 378 152 28 255 255 255
3 326 319 8 255 255 255
3 182 92 20 255 255 255
3 290 295 38 255 255 255
3 327 250 300 255 255 255
3 322 67 297 255 255 255
3 319 93 323 255 255 255
3 91 93 319 255 255 255
3 319 323 8 255 255 255
3 92 219 20 255 255 255
3 322 305 67 255 255 255
3 9 33 318 255 255 255
3 93 24 323 255 255 255
3 91 21 94 255 255 255
3 94 21 296 255 255 255
3 296 22 94 255 255 255
3 378 220 152 255 255 255
3 323 23 8 255 255 255
3 294 298 250 255 255 255
3 297 298 322 255 255 255
3 67 129 297 255 255 255
3 326 96 3 255 255 255
3 94 93 91 255 255 255
3 21 325 296 255 255 255
3 22 251 94 255 255 255
3 296 23 22 255 255 255
3 220 137 152 255 255 255
3 23 184 8 255 255 255
3 67 103 129 255 255 255
3 24 22 323 255 255 255
3 23 239 22 255 255 255
3 184 28 8 255 255 255
3 323 22 184 255 255 255
3 16 15 183 255 255 255
3 183 31 16 255 255 255
3 298 294 322 255 255 255
3 299 298 297 255 255 255
3 2 93 4 255 255 255
3 24 251 22 255 255 255
3 254 220 378 255 255 255
3 298 300 250 255 255 255
3 67 105 103 255 255 255
3 3 2 326 255 255 255
3 4 256 2 255 255 255
3 94 4 93 255 255 255
3 137 239 152 255 255 255
3 352 25 254 255 255 255
3 378 185 254 255 255 255
3 298 299 300 255 255 255
3 297 128 299 255 255 255
3 103 130 129 255 255 255
3 67 262 105 255 255 255
3 2 319 3 255 255 255
3 2 256 24 255 255 255
3 185 26 220 255 255 255
3 300 297 298 255 255 255
3 128 154 299 255 255 255
3 185 378 26 255 255 255
3 220 254 185 255 255 255
3 378 15 185 255 255 255
3 37 297 129 255 255 255
3 129 227 37 255 255 255
3 378 5 15 255 255 255
3 94 251 256 255 255 255
3 5 183 15 255 255 255
3 262 311 105 255 255 255
3 5 100 183 255 255 255
3 311 131 105 255 255 255
3 5 17 100 255 255 255
3 311 227 131 255 255 255
3 291 311 262 255 255 255
3 292 37 311 255 255 255
3 130 105 131 255 255 255
3 131 129 130 255 255 255
3 314 380 78 255 255 255
3 78 236 314 255 255 255
3 314 335 380 255 255 255
3 78 156 236 255 255 255
3 386 270 335 255 255 255
3 313 335 78 255 255 255
3 78 386 313 255 255 255
3 270 89 335 255 255 255
3 314 237 335 255 255 255
3 314 315 237 255 255 255
3 63 349 236 255 255 255
3 78 237 386 255 255 255
3 63 238 349 255 255 255
3 78 315 156 255 255 255
3 315 236 156 255 255 255
3 281 186 27 255 255 255
3 186 281 283 255 255 255
3 281 27 372 255 255 255
3 342 199 240 255 255 255
3 369 369 369 255 255 255
