ply
format ascii 1.0
element vertex 312
property float x
property float y
property float z
element face 576
property list uchar int vertex_indices
property uchar red
property uchar green
property uchar blue
end_header
4.0689997673034668 11.4519996643066406 -0.825999975204467773
4.0689997673034668 11.4420003890991211 -0.845000028610229492
4.07000017166137695 11.4370002746582031 -0.845000028610229492
1 1 1
4.0840001106262207 11.4180002212524414 -0.902999997138977051
4.09100008010864258 11.4525003433227539 -0.711499989032745361
4.09253644943237305 11.4101581573486328 -0.650241374969482422
4.08099985122680664 11.4270000457763672 -0.736999988555908203
4.06799983978271484 11.4534997940063477 -0.751000046730041504
4.08199977874755859 11.4589996337890625 -0.85000002384185791
4.07413911819458008 11.4784421920776367 -0.858008027076721191
4.06699991226196289 11.4250001907348633 -0.902999997138977051
4.07064676284790039 11.4371395111083984 -0.786797106266021729
4.07000017166137695 11.4340000152587891 -0.810000002384185791
4.04799985885620117 11.4320001602172852 -0.816999971866607666
4.06993722915649414 11.4252872467041016 -0.828228533267974854
4.07899999618530273 11.4160003662109375 -0.908999979496002197
4.06500005722045898 11.430999755859375 -0.898000001907348633
4.1119999885559082 11.4610004425048828 -0.805000007152557373
4.08300018310546875 11.4289999008178711 -0.740999996662139893
4.08799982070922852 11.449000358581543 -0.787000000476837158
4.0560002326965332 11.4130001068115234 -0.819999992847442627
4.07000017166137695 11.4379997253417969 -0.809000015258789062
4.05411005020141602 11.4656248092651367 -0.880248069763183594
4.08699989318847656 11.4219999313354492 -0.894999980926513672
4.07000017166137695 11.4449996948242188 -0.755999982357025146
4.06500005722045898 11.4720001220703125 -0.847999989986419678
4.07899999618530273 11.4580001831054688 -0.847999989986419678
4.07399988174438477 11.4479999542236328 -0.830999970436096191
4.0655512809753418 11.4229660034179688 -0.833270668983459473
4.07100009918212891 11.3889999389648438 -0.652999997138977051
4.05100011825561523 11.4230003356933594 -0.874000012874603271
4.06110286712646484 11.4040603637695312 -0.821068346500396729
4.06699991226196289 11.425999641418457 -0.862999975681304932
4.0840001106262207 11.4619998931884766 -0.628000020980834961
4.0689997673034668 11.4799995422363281 -0.851999998092651367
4.08099985122680664 11.4405002593994141 -0.770500004291534424
4.04799985885620117 11.4139995574951172 -0.80699998140335083
4.05299997329711914 11.4060001373291016 -0.833000004291534424
4.06799983978271484 11.4659996032714844 -0.852999985218048096
4.06599998474121094 11.4289999008178711 -0.875
4.03036117553710938 11.4207372665405273 -0.885576248168945312
4.07299995422363281 11.4169998168945312 -0.885999977588653564
4.05399990081787109 11.4040002822875977 -0.842000007629394531
4.09399986267089844 11.4350004196166992 -0.788999974727630615
4.05100011825561523 11.4160003662109375 -0.876999974250793457
4.0687870979309082 11.4668436050415039 -0.834459841251373291
4.07419490814208984 11.4490108489990234 -0.879748404026031494
4.07600021362304688 11.4209995269775391 -0.88200002908706665
4.05499982833862305 11.4130001068115234 -0.816999971866607666
4.08599996566772461 11.4469995498657227 -0.71399998664855957
4.06400012969970703 11.4119997024536133 -0.792999982833862305
4.06299972534179688 11.4305000305175781 -0.79999995231628418
4.06599998474121094 11.444000244140625 -0.824999988079071045
4.04199981689453125 11.4449996948242188 -0.890999972820281982
4.07800006866455078 11.4230003356933594 -0.860000014305114746
4.08099985122680664 11.4300003051757812 -0.717000007629394531
4.08099985122680664 11.4420003890991211 -0.754999995231628418
4.05999994277954102 11.4720001220703125 -0.863000035285949707
4.08099985122680664 11.4510002136230469 -0.787000000476837158
4.05658721923828125 11.4129343032836914 -0.829160511493682861
4.06300020217895508 11.4340000152587891 -0.875
4.08199977874755859 11.4169998168945312 -0.677999973297119141
4.0904998779296875 11.4204998016357422 -0.700500011444091797
4.07000017166137695 11.449000358581543 -0.75
4.11100006103515625 11.4569997787475586 -0.802999973297119141
4.07700014114379883 11.4460000991821289 -0.749000012874603271
4.07394647598266602 11.4706010818481445 -0.843232572078704834
4.07299995422363281 11.4630002975463867 -0.855000019073486328
4.08300018310546875 11.430999755859375 -0.663999974727630615
4.08699989318847656 11.439000129699707 -0.614000022411346436
4.10599994659423828 11.4420003890991211 -0.643999993801116943
4.09999990463256836 11.3979997634887695 -0.660000026226043701
4.08306169509887695 11.4435625076293945 -0.703015983104705811
4.08978939056396484 11.4366340637207031 -0.7314261794090271
4.09200000762939453 11.4239997863769531 -0.736000001430511475
4.08500003814697266 11.439000129699707 -0.749000012874603271
4.07800006866455078 11.4580001831054688 -0.620999991893768311
4.08099985122680664 11.435999870300293 -0.759000003337860107
4.07499980926513672 11.4540004730224609 -0.751999974250793457
4.07283496856689453 11.4399986267089844 -0.813177347183227539
4.10699987411499023 11.4200000762939453 -0.638999998569488525
4.1119999885559082 11.4560003280639648 -0.63200002908706665
4.06500005722045898 11.4759998321533203 -0.874000012874603271
4.07899999618530273 11.4010000228881836 -0.666999995708465576
4.09299993515014648 11.4320001602172852 -0.732999980449676514
4.07399988174438477 11.4449996948242188 -0.860000014305114746
4.11412191390991211 11.459752082824707 -0.79295426607131958
4.05482339859008789 11.4319782257080078 -0.816624462604522705
4.05399990081787109 11.4090003967285156 -0.819999992847442627
4.03999996185302734 11.4200000762939453 -0.885999977588653564
4.08300018310546875 11.4449996948242188 -0.690999984741210938
4.07499980926513672 11.4340000152587891 -0.751999974250793457
4.08599996566772461 11.4479999542236328 -0.651000022888183594
4.09000015258789062 11.4589996337890625 -0.703000009059906006
4.09299993515014648 11.430999755859375 -0.672999978065490723
4.08900022506713867 11.4189996719360352 -0.633000016212463379
4.09593725204467773 11.4088916778564453 -0.641202032566070557
4.08599996566772461 11.4289999008178711 -0.689999997615814209
4.07499980926513672 11.3950004577636719 -0.654999971389770508
4.08599996566772461 11.4300003051757812 -0.720000028610229492
4.09299993515014648 11.3929996490478516 -0.666999995708465576
4.08799982070922852 11.4519996643066406 -0.69300001859664917
4.07800006866455078 11.4370002746582031 -0.763999998569488525
4.05499982833862305 11.4219999313354492 -0.801999986171722412
4.05700016021728516 11.4149999618530273 -0.824000000953674316
4.0684051513671875 11.4358797073364258 -0.89448082447052002
4.08099985122680664 11.4230003356933594 -0.876999974250793457
4.07000017166137695 11.4289999008178711 -0.898000001907348633
4.08422946929931641 11.4026584625244141 -0.884468793869018555
4.07999992370605469 11.4169998168945312 -0.915000021457672119
4.09044122695922852 11.4187202453613281 -0.871117472648620605
4.09600019454956055 11.4099998474121094 -0.662000000476837158
4.08096933364868164 11.4350194931030273 -0.711007118225097656
4.04899978637695312 11.4219999313354492 -0.888000011444091797
4.08900022506713867 11.4409999847412109 -0.78200000524520874
4.09600019454956055 11.4409999847412109 -0.788999974727630615
4.06977367401123047 11.4365167617797852 -0.796952188014984131
4.07399988174438477 11.4479999542236328 -0.758000016212463379
4.07800006866455078 11.435999870300293 -0.745000004768371582
4.04799985885620117 11.3979997634887695 -0.830999970436096191
4.08699989318847656 11.4300003051757812 -0.876999974250793457
4.08799982070922852 11.449000358581543 -0.737999975681304932
4.10099983215332031 11.4479999542236328 -0.621999979019165039
4.06798601150512695 11.4572076797485352 -0.837603509426116943
4.07999992370605469 11.449000358581543 -0.695999979972839355
4.07700014114379883 11.4020004272460938 -0.648999989032745361
4.10699987411499023 11.4589996337890625 -0.795000016689300537
4.07200002670288086 11.4689998626708984 -0.861000001430511475
4.08099985122680664 11.4350004196166992 -0.750999987125396729
4.08500003814697266 11.4139995574951172 -0.915000021457672119
4.09299993515014648 11.4069995880126953 -0.680999994277954102
4.0797271728515625 11.3950366973876953 -0.65929102897644043
4.08300018310546875 11.4589996337890625 -0.845000028610229492
4.07200002670288086 11.4510002136230469 -0.871999979019165039
4.09100008010864258 11.4519996643066406 -0.648000001907348633
4.04799985885620117 11.4049997329711914 -0.83899998664855957
4.05900001525878906 11.4250001907348633 -0.884999990463256836
4.06099987030029297 11.4499998092651367 -0.827000021934509277
4.08513307571411133 11.445988655090332 -0.86096656322479248
4.08699989318847656 11.4180002212524414 -0.866999983787536621
4.08199977874755859 11.3950004577636719 -0.648999989032745361
4.07087564468383789 11.4541444778442383 -0.841690361499786377
4.08500003814697266 11.4300003051757812 -0.714999973773956299
4.08099985122680664 11.4219999313354492 -0.683000028133392334
4.08898305892944336 11.4430532455444336 -0.673933863639831543
4.09999990463256836 11.4040002822875977 -0.652999997138977051
4.10599994659423828 11.439000129699707 -0.623000025749206543
4.09126901626586914 11.4241390228271484 -0.675397992134094238
4.07600021362304688 11.4020004272460938 -0.666000008583068848
4.08840751647949219 11.389129638671875 -0.648929953575134277
4.0904998779296875 11.4235000610351562 -0.689499974250793457
4.08099985122680664 11.430999755859375 -0.731000006198883057
4.08799982070922852 11.4409999847412109 -0.731999993324279785
4.07999992370605469 11.4530000686645508 -0.728999972343444824
4.07600021362304688 11.4499998092651367 -0.738000035285949707
4.07100009918212891 11.4689998626708984 -0.871999979019165039
4.09399986267089844 11.4409999847412109 -0.619000017642974854
4.08599996566772461 11.430999755859375 -0.730000019073486328
4.06378698348999023 11.4675178527832031 -0.868022143840789795
4.06799983978271484 11.4320001602172852 -0.864000022411346436
4.08790731430053711 11.4200601577758789 -0.885115981101989746
4.07499980926513672 11.449000358581543 -0.787000000476837158
4.06300020217895508 11.4350004196166992 -0.828999996185302734
4.08099985122680664 11.435999870300293 -0.644999980926513672
4.07100009918212891 11.4300003051757812 -0.815999984741210938
4.08599996566772461 11.4300003051757812 -0.703000009059906006
4.06699991226196289 11.4289999008178711 -0.837000012397766113
4.04899978637695312 11.4209995269775391 -0.883000016212463379
4.05541038513183594 11.4093875885009766 -0.797705709934234619
4.11299991607666016 11.4519996643066406 -0.792999982833862305
4.04799985885620117 11.4040002822875977 -0.799000024795532227
4.07000017166137695 11.4375 -0.833750009536743164
4.03399991989135742 11.4280004501342773 -0.887000024318695068
4.06073713302612305 11.4667215347290039 -0.886256873607635498
4.06599998474121094 11.4399995803833008 -0.833999991416931152
4.10400009155273438 11.4239997863769531 -0.639999985694885254
4.09100008010864258 11.4399995803833008 -0.684000015258789062
4.08699989318847656 11.3940000534057617 -0.665000021457672119
4.07600021362304688 11.4049997329711914 -0.662000000476837158
4.07700014114379883 11.4289999008178711 -0.667999982833862305
4.09663677215576172 11.388697624206543 -0.650204241275787354
4.08099985122680664 11.4149999618530273 -0.646000027656555176
4.07999992370605469 11.3970003128051758 -0.666000008583068848
4.09099054336547852 11.4289979934692383 -0.695001721382141113
4.08099985122680664 11.4069995880126953 -0.674000024795532227
4.09100008010864258 11.4429998397827148 -0.717000007629394531
4.06799983978271484 11.4420003890991211 -0.751999974250793457
4.10099983215332031 11.4449996948242188 -0.804000020027160645
4.08699989318847656 11.4340000152587891 -0.777000010013580322
4.08099985122680664 11.4469995498657227 -0.862999975681304932
4.05399990081787109 11.3970003128051758 -0.836000025272369385
4.08199977874755859 11.4469995498657227 -0.615000009536743164
4.05200004577636719 11.4090003967285156 -0.841000020503997803
4.06699991226196289 11.4399995803833008 -0.865999996662139893
4.09000015258789062 11.4549999237060547 -0.736999988555908203
4.06300020217895508 11.4189996719360352 -0.796000003814697266
4.05415201187133789 11.4269132614135742 -0.807795047760009766
4.05999994277954102 11.4720001220703125 -0.888000011444091797
4.09499979019165039 11.4119997024536133 -0.676999986171722412
4.05999994277954102 11.4320001602172852 -0.81099998950958252
4.09999990463256836 11.4379997253417969 -0.620000004768371582
4.09100008010864258 11.4560003280639648 -0.625
4.05399990081787109 11.3970003128051758 -0.841000020503997803
4.05399990081787109 11.435999870300293 -0.823000013828277588
4.06699991226196289 11.4280004501342773 -0.870000004768371582
4.0840001106262207 11.4130001068115234 -0.908999979496002197
4.07000017166137695 11.4429998397827148 -0.740000009536743164
4.08500003814697266 11.4239997863769531 -0.637000024318695068
4.05499982833862305 11.4709997177124023 -0.856000006198883057
4.03999996185302734 11.4270000457763672 -0.878000020980834961
4.09069633483886719 11.4455022811889648 -0.698262989521026611
4.09087705612182617 11.4306716918945312 -0.887209236621856689
4.07857084274291992 11.4358625411987305 -0.779907643795013428
4.07000017166137695 11.439000129699707 -0.880999982357025146
4.07999992370605469 11.4149999618530273 -0.893999993801116943
4.10799980163574219 11.4239997863769531 -0.638999998569488525
4.07899999618530273 11.4280004501342773 -0.665000021457672119
4.08799982070922852 11.4409999847412109 -0.652000010013580322
4.08729124069213867 11.3962182998657227 -0.679030954837799072
4.08799982070922852 11.4569997787475586 -0.704999983310699463
4.08599996566772461 11.4300003051757812 -0.620000004768371582
4.10099983215332031 11.430999755859375 -0.629999995231628418
4.10400009155273438 11.4560003280639648 -0.629999995231628418
4.08599996566772461 11.4469995498657227 -0.66100001335144043
4.08799982070922852 11.4230003356933594 -0.667999982833862305
4.08199977874755859 11.4160003662109375 -0.671000003814697266
4.09899997711181641 11.4040002822875977 -0.669000029563903809
4.10400009155273438 11.4460000991821289 -0.642000019550323486
4.09999990463256836 11.4409999847412109 -0.642000019550323486
4.10500001907348633 11.4370002746582031 -0.63200002908706665
4.08206462860107422 11.4413547515869141 -0.726789712905883789
4.09200000762939453 11.4449996948242188 -0.620000004768371582
4.05200004577636719 11.4040002822875977 -0.813000023365020752
4.06300020217895508 11.4289999008178711 -0.892000019550323486
4.08900022506713867 11.4270000457763672 -0.708999991416931152
4.09100008010864258 11.4540004730224609 -0.61799997091293335
4.07899999618530273 11.4300003051757812 -0.633000016212463379
4.07299995422363281 11.4420003890991211 -0.634000003337860107
4.07999992370605469 11.4329996109008789 -0.639999985694885254
4.07299995422363281 11.4510002136230469 -0.635999977588653564
4.07700014114379883 11.4580001831054688 -0.629999995231628418
4.09000015258789062 11.4270000457763672 -0.624000012874603271
4.07769870758056641 11.446681022644043 -0.617959558963775635
4.09399986267089844 11.425999641418457 -0.643999993801116943
4.09200000762939453 11.4300003051757812 -0.723999977111816406
4.05299997329711914 11.4209995269775391 -0.81099998950958252
4.09600019454956055 11.4169998168945312 -0.638000011444091797
4.09299993515014648 11.4540004730224609 -0.718999981880187988
4.0970001220703125 11.4479999542236328 -0.796999990940093994
4.06158876419067383 11.4463968276977539 -0.83382946252822876
4.0840001106262207 11.4499998092651367 -0.777000010013580322
4.07000017166137695 11.4230003356933594 -0.81099998950958252
4.07200002670288086 11.4479999542236328 -0.779999971389770508
4.07321500778198242 11.4274463653564453 -0.800215959548950195
4.08099985122680664 11.4230003356933594 -0.865000009536743164
4.06718969345092773 11.4087677001953125 -0.816984117031097412
4.06102895736694336 11.4032211303710938 -0.813904464244842529
4.07999992370605469 11.4300003051757812 -0.857999980449676514
4.0689997673034668 11.4209995269775391 -0.897000014781951904
4.0789642333984375 11.4439563751220703 -0.67776864767074585
4.04799985885620117 11.4420003890991211 -0.879999995231628418
4.07299995422363281 11.4499998092651367 -0.734000027179718018
4.06799983978271484 11.4420003890991211 -0.855000019073486328
4.09000015258789062 11.435999870300293 -0.795000016689300537
4.04699993133544922 11.449000358581543 -0.887000024318695068
4.0409998893737793 11.425999641418457 -0.888999998569488525
4.07600021362304688 11.3850002288818359 -0.652000010013580322
4.06300020217895508 11.4670000076293945 -0.856000006198883057
4.06099987030029297 11.4110002517700195 -0.805999994277954102
4.05399990081787109 11.3990001678466797 -0.832000017166137695
4.08500003814697266 11.439000129699707 -0.871999979019165039
4.07399988174438477 11.4329996109008789 -0.75700002908706665
4.0689997673034668 11.4379997253417969 -0.851000010967254639
4.07600021362304688 11.444000244140625 -0.647000014781951904
4.07465410232543945 11.4407815933227539 -0.771840453147888184
4.06815242767333984 11.4312782287597656 -0.849707484245300293
4.07399988174438477 11.4250001907348633 -0.860000014305114746
4.07999992370605469 11.4549999237060547 -0.630999982357025146
4.10500001907348633 11.4409999847412109 -0.638999998569488525
4.09999990463256836 11.4510002136230469 -0.643999993801116943
4.09100008010864258 11.425999641418457 -0.680999994277954102
4.08099985122680664 11.4090003967285156 -0.663999974727630615
4.08199977874755859 11.444000244140625 -0.652999997138977051
4.09000015258789062 11.4219999313354492 -0.684000015258789062
4.08799982070922852 11.4169998168945312 -0.68599998950958252
4.09800004959106445 11.4060001373291016 -0.680999994277954102
4.08799982070922852 11.4499998092651367 -0.640999972820281982
4.09200000762939453 11.3915004730224609 -0.66100001335144043
4.07000017166137695 11.3979997634887695 -0.648000001907348633
4.09967422485351562 11.4000825881958008 -0.67512357234954834
4.08099985122680664 11.4200000762939453 -0.68900001049041748
4.08699989318847656 11.3970003128051758 -0.643000006675720215
4.07600021362304688 11.4139995574951172 -0.651000022888183594
4.10890436172485352 11.4468822479248047 -0.800567746162414551
4.06699991226196289 11.425999641418457 -0.799000024795532227
4.08799982070922852 11.4270000457763672 -0.898000001907348633
4.05200004577636719 11.4250001907348633 -0.884999990463256836
4.06300020217895508 11.4370002746582031 -0.897000014781951904
4.07499980926513672 11.4340000152587891 -0.857999980449676514
4.09063339233398438 11.4285869598388672 -0.860163092613220215
4.1100001335144043 11.4510002136230469 -0.629999995231628418
4.04600000381469727 11.4420003890991211 -0.885999977588653564
4.05200004577636719 11.4729995727539062 -0.861999988555908203
4.08949995040893555 11.449000358581543 -0.654500007629394531
4.08172225952148438 11.4136476516723633 -0.642431735992431641
4.08085346221923828 11.4341897964477539 -0.705260753631591797
4.08699989318847656 11.4320001602172852 -0.736999988555908203
4.06799983978271484 11.4340000152587891 -0.796000003814697266
4.06199979782104492 11.425999641418457 -0.901000022888183594
4.09213924407958984 11.4406528472900391 -0.705121994018554688
4.09999990463256836 11.4499998092651367 -0.791000008583068848
3 240 238 239 255 255 255
3 239 274 240 255 255 255
3 238 237 239 255 255 255
3 240 241 238 255 255 255
3 239 218 274 255 255 255
3 237 242 239 255 255 255
3 238 243 237 255 255 255
3 241 243 238 255 255 255
3 239 244 218 255 255 255
3 242 244 239 255 255 255
3 242 176 244 255 255 255
3 237 221 242 255 255 255
3 243 221 237 255 255 255
3 243 201 221 255 255 255
3 241 236 243 255 255 255
3 241 34 236 255 255 255
3 244 69 218 255 255 255
3 176 6 244 255 255 255
3 242 216 176 255 255 255
3 221 70 242 255 255 255
3 243 123 201 255 255 255
3 236 70 243 255 255 255
3 34 123 236 255 255 255
3 69 145 218 255 255 255
3 244 6 69 255 255 255
3 176 81 6 255 255 255
3 216 71 176 255 255 255
3 70 147 242 255 255 255
3 123 222 201 255 255 255
3 123 157 236 255 255 255
3 34 223 123 255 255 255
3 145 224 218 255 255 255
3 69 225 145 255 255 255
3 6 226 69 255 255 255
3 146 227 6 255 255 255
3 6 81 146 255 255 255
3 71 228 176 255 255 255
3 216 301 71 255 255 255
3 147 229 242 255 255 255
3 70 236 147 255 255 255
3 236 223 147 255 255 255
3 222 242 201 255 255 255
3 123 230 222 255 255 255
3 223 228 123 255 255 255
3 224 304 218 255 255 255
3 225 148 145 255 255 255
3 69 217 225 255 255 255
3 226 281 69 255 255 255
3 6 227 226 255 255 255
3 227 131 226 255 255 255
3 146 72 227 255 255 255
3 228 218 176 255 255 255
3 229 208 242 255 255 255
3 236 278 223 255 255 255
3 230 279 222 255 255 255
3 123 279 230 255 255 255
3 123 280 279 255 255 255
3 223 82 228 255 255 255
3 304 71 218 255 255 255
3 224 145 304 255 255 255
3 148 281 145 255 255 255
3 217 282 225 255 255 255
3 69 283 217 255 255 255
3 226 284 281 255 255 255
3 131 285 226 255 255 255
3 227 286 131 255 255 255
3 72 290 227 255 255 255
3 146 181 72 255 255 255
3 218 247 176 255 255 255
3 228 287 218 255 255 255
3 278 280 223 255 255 255
3 279 176 222 255 255 255
3 280 135 279 255 255 255
3 71 229 218 255 255 255
3 281 177 145 255 255 255
3 148 199 281 255 255 255
3 148 227 199 255 255 255
3 225 112 148 255 255 255
3 282 112 225 255 255 255
3 282 178 112 255 255 255
3 217 179 282 255 255 255
3 283 180 217 255 255 255
3 284 151 281 255 255 255
3 226 285 284 255 255 255
3 285 151 284 255 255 255
3 131 286 285 255 255 255
3 286 151 285 255 255 255
3 146 97 181 255 255 255
3 218 182 247 255 255 255
3 287 274 218 255 255 255
3 287 240 274 255 255 255
3 287 278 240 255 255 255
3 228 202 287 255 255 255
3 278 135 280 255 255 255
3 278 218 135 255 255 255
3 176 96 222 255 255 255
3 229 164 218 255 255 255
3 177 102 145 255 255 255
3 148 112 227 255 255 255
3 178 101 112 255 255 255
3 282 179 178 255 255 255
3 179 183 178 255 255 255
3 217 180 179 255 255 255
3 180 62 179 255 255 255
3 283 260 180 255 255 255
3 151 184 281 255 255 255
3 284 199 151 255 255 255
3 285 63 151 255 255 255
3 151 62 285 255 255 255
3 181 288 72 255 255 255
3 182 305 247 255 255 255
3 218 283 182 255 255 255
3 278 192 240 255 255 255
3 287 202 278 255 255 255
3 218 279 135 255 255 255
3 176 247 96 255 255 255
3 177 211 102 255 255 255
3 183 219 178 255 255 255
3 179 149 183 255 255 255
3 62 185 179 255 255 255
3 180 144 62 255 255 255
3 283 304 260 255 255 255
3 184 95 281 255 255 255
3 285 291 63 255 255 255
3 101 219 290 255 255 255
3 290 72 101 255 255 255
3 72 288 101 255 255 255
3 181 150 288 255 255 255
3 97 292 181 255 255 255
3 97 305 292 255 255 255
3 146 247 97 255 255 255
3 182 293 305 255 255 255
3 283 293 182 255 255 255
3 283 69 293 255 255 255
3 69 180 293 255 255 255
3 218 93 283 255 255 255
3 102 260 145 255 255 255
3 211 94 102 255 255 255
3 177 184 211 255 255 255
3 149 84 183 255 255 255
3 179 185 149 255 255 255
3 185 84 149 255 255 255
3 62 291 185 255 255 255
3 180 98 144 255 255 255
3 304 145 260 255 255 255
3 151 63 184 255 255 255
3 291 306 63 255 255 255
3 219 286 290 255 255 255
3 101 178 219 255 255 255
3 288 132 101 255 255 255
3 150 132 288 255 255 255
3 181 292 150 255 255 255
3 292 267 150 255 255 255
3 146 112 247 255 255 255
3 293 289 305 255 255 255
3 180 185 293 255 255 255
3 102 125 260 255 255 255
3 184 310 211 255 255 255
3 183 84 219 255 255 255
3 180 95 98 255 255 255
3 93 280 304 255 255 255
3 304 283 93 255 255 255
3 63 310 184 255 255 255
3 63 235 310 255 255 255
3 132 84 101 255 255 255
3 292 141 267 255 255 255
3 305 126 292 255 255 255
3 293 99 289 255 255 255
3 102 94 125 255 255 255
3 94 220 125 255 255 255
3 211 310 94 255 255 255
3 95 184 98 255 255 255
3 184 166 98 255 255 255
3 180 69 95 255 255 255
3 235 100 310 255 255 255
3 63 306 235 255 255 255
3 306 56 235 255 255 255
3 291 98 306 255 255 255
3 132 99 84 255 255 255
3 141 289 267 255 255 255
3 96 208 305 255 255 255
3 305 97 96 255 255 255
3 99 30 289 255 255 255
3 220 50 125 255 255 255
3 94 248 220 255 255 255
3 310 5 94 255 255 255
3 184 235 166 255 255 255
3 100 186 310 255 255 255
3 100 74 186 255 255 255
3 306 113 56 255 255 255
3 98 73 306 255 255 255
3 291 144 98 255 255 255
3 132 267 99 255 255 255
3 289 30 267 255 255 255
3 141 292 289 255 255 255
3 96 221 208 255 255 255
3 50 73 125 255 255 255
3 220 5 50 255 255 255
3 5 248 94 255 255 255
3 186 5 310 255 255 255
3 235 113 166 255 255 255
3 184 151 235 255 255 255
3 100 75 74 255 255 255
3 306 73 113 255 255 255
3 73 50 113 255 255 255
3 132 150 267 255 255 255
3 221 164 208 255 255 255
3 5 186 248 255 255 255
3 186 74 248 255 255 255
3 74 195 248 255 255 255
3 235 231 113 255 255 255
3 75 307 74 255 255 255
3 113 152 56 255 255 255
3 221 232 164 255 255 255
3 73 91 125 255 255 255
3 74 122 195 255 255 255
3 122 79 195 255 255 255
3 235 245 231 255 255 255
3 74 76 122 255 255 255
3 307 153 74 255 255 255
3 75 76 307 255 255 255
3 152 100 56 255 255 255
3 113 231 152 255 255 255
3 231 19 152 255 255 255
3 221 192 232 255 255 255
3 91 260 125 255 255 255
3 91 98 260 255 255 255
3 73 166 91 255 255 255
3 153 154 231 255 255 255
3 231 245 153 255 255 255
3 245 74 153 255 255 255
3 245 85 74 255 255 255
3 76 57 122 255 255 255
3 307 19 153 255 255 255
3 100 143 56 255 255 255
3 152 7 100 255 255 255
3 19 7 152 255 255 255
3 19 129 7 255 255 255
3 192 77 232 255 255 255
3 154 262 231 255 255 255
3 153 195 154 255 255 255
3 245 75 85 255 255 255
3 76 78 57 255 255 255
3 129 272 7 255 255 255
3 77 202 232 255 255 255
3 262 207 231 255 255 255
3 78 36 57 255 255 255
3 76 129 78 255 255 255
3 129 66 272 255 255 255
3 77 34 202 255 255 255
3 207 158 231 255 255 255
3 262 8 207 255 255 255
3 36 118 57 255 255 255
3 66 64 272 255 255 255
3 158 56 231 255 255 255
3 8 187 207 255 255 255
3 118 79 57 255 255 255
3 36 251 118 255 255 255
3 78 189 36 255 255 255
3 64 25 272 255 255 255
3 66 155 64 255 255 255
3 187 92 207 255 255 255
3 79 66 57 255 255 255
3 118 8 79 255 255 255
3 36 115 251 255 255 255
3 189 115 36 255 255 255
3 189 116 115 255 255 255
3 25 275 272 255 255 255
3 155 262 64 255 255 255
3 92 119 207 255 255 255
3 187 272 92 255 255 255
3 8 25 187 255 255 255
3 79 155 66 255 255 255
3 115 20 251 255 255 255
3 116 311 115 255 255 255
3 189 44 116 255 255 255
3 275 213 272 255 255 255
3 92 7 119 255 255 255
3 8 118 25 255 255 255
3 20 59 251 255 255 255
3 116 170 311 255 255 255
3 44 294 116 255 255 255
3 189 213 44 255 255 255
3 25 118 275 255 255 255
3 7 207 119 255 255 255
3 59 253 251 255 255 255
3 20 249 59 255 255 255
3 170 87 311 255 255 255
3 116 294 170 255 255 255
3 44 264 294 255 255 255
3 213 264 44 255 255 255
3 213 12 264 255 255 255
3 275 12 213 255 255 255
3 253 12 275 255 255 255
3 253 117 12 255 255 255
3 275 251 253 255 255 255
3 275 103 251 255 255 255
3 59 162 253 255 255 255
3 20 311 249 255 255 255
3 87 127 311 255 255 255
3 294 65 170 255 255 255
3 264 188 294 255 255 255
3 12 308 264 255 255 255
3 12 196 308 255 255 255
3 189 103 213 255 255 255
3 117 52 12 255 255 255
3 253 162 117 255 255 255
3 162 22 117 255 255 255
3 103 78 251 255 255 255
3 311 127 249 255 255 255
3 127 65 249 255 255 255
3 87 18 127 255 255 255
3 65 87 170 255 255 255
3 65 18 87 255 255 255
3 65 188 18 255 255 255
3 308 13 264 255 255 255
3 196 252 308 255 255 255
3 12 51 196 255 255 255
3 22 88 117 255 255 255
3 162 80 22 255 255 255
3 103 25 78 255 255 255
3 65 294 188 255 255 255
3 13 80 264 255 255 255
3 308 52 13 255 255 255
3 196 51 252 255 255 255
3 51 256 252 255 255 255
3 88 200 117 255 255 255
3 80 88 22 255 255 255
3 80 53 88 255 255 255
3 162 59 80 255 255 255
3 59 264 80 255 255 255
3 59 249 264 255 255 255
3 249 188 264 255 255 255
3 13 165 80 255 255 255
3 52 165 13 255 255 255
3 52 197 165 255 255 255
3 51 169 256 255 255 255
3 117 200 52 255 255 255
3 200 197 52 255 255 255
3 200 14 197 255 255 255
3 53 204 88 255 255 255
3 80 28 53 255 255 255
3 197 88 165 255 255 255
3 256 15 252 255 255 255
3 169 257 256 255 255 255
3 14 37 197 255 255 255
3 88 14 200 255 255 255
3 88 204 14 255 255 255
3 53 250 204 255 255 255
3 28 46 53 255 255 255
3 80 172 28 255 255 255
3 165 15 80 255 255 255
3 88 163 165 255 255 255
3 15 165 252 255 255 255
3 165 254 252 255 255 255
3 256 60 15 255 255 255
3 257 32 256 255 255 255
3 53 0 250 255 255 255
3 46 138 53 255 255 255
3 28 67 46 255 255 255
3 80 15 172 255 255 255
3 163 172 165 255 255 255
3 165 308 254 255 255 255
3 60 29 15 255 255 255
3 256 32 60 255 255 255
3 169 233 257 255 255 255
3 171 233 169 255 255 255
3 51 295 169 255 255 255
3 138 163 53 255 255 255
3 28 133 67 255 255 255
3 254 269 252 255 255 255
3 165 52 308 255 255 255
3 29 167 15 255 255 255
3 29 276 167 255 255 255
3 60 193 29 255 255 255
3 32 38 60 255 255 255
3 233 120 257 255 255 255
3 169 295 104 255 255 255
3 295 308 104 255 255 255
3 51 254 295 255 255 255
3 104 52 197 255 255 255
3 197 37 104 255 255 255
3 37 169 104 255 255 255
3 37 171 169 255 255 255
3 0 46 250 255 255 255
3 138 250 163 255 255 255
3 67 26 46 255 255 255
3 133 9 67 255 255 255
3 28 1 133 255 255 255
3 172 1 28 255 255 255
3 172 2 1 255 255 255
3 163 2 172 255 255 255
3 269 49 252 255 255 255
3 254 51 269 255 255 255
3 276 2 167 255 255 255
3 60 38 193 255 255 255
3 38 203 193 255 255 255
3 32 270 38 255 255 255
3 257 270 32 255 255 255
3 37 233 171 255 255 255
3 37 89 233 255 255 255
3 142 1 250 255 255 255
3 250 124 142 255 255 255
3 46 124 250 255 255 255
3 46 26 124 255 255 255
3 26 268 124 255 255 255
3 250 29 163 255 255 255
3 67 35 26 255 255 255
3 9 128 67 255 255 255
3 133 139 9 255 255 255
3 1 27 133 255 255 255
3 2 273 1 255 255 255
3 15 167 172 255 255 255
3 269 89 49 255 255 255
3 276 258 2 255 255 255
3 38 191 203 255 255 255
3 270 43 38 255 255 255
3 105 21 32 255 255 255
3 32 193 105 255 255 255
3 270 191 32 255 255 255
3 257 120 270 255 255 255
3 89 32 233 255 255 255
3 37 49 89 255 255 255
3 37 246 49 255 255 255
3 1 175 250 255 255 255
3 26 303 268 255 255 255
3 29 204 163 255 255 255
3 250 175 29 255 255 255
3 175 167 29 255 255 255
3 35 209 26 255 255 255
3 67 10 35 255 255 255
3 139 190 9 255 255 255
3 273 263 1 255 255 255
3 2 276 273 255 255 255
3 21 49 32 255 255 255
3 105 246 21 255 255 255
3 32 43 193 255 255 255
3 32 269 233 255 255 255
3 246 105 49 255 255 255
3 303 159 268 255 255 255
3 35 303 209 255 255 255
3 190 128 9 255 255 255
3 190 47 128 255 255 255
3 139 271 190 255 255 255
3 273 258 263 255 255 255
3 276 86 273 255 255 255
3 276 55 258 255 255 255
3 32 203 43 255 255 255
3 303 23 159 255 255 255
3 29 105 204 255 255 255
3 10 58 35 255 255 255
3 47 156 128 255 255 255
3 190 271 47 255 255 255
3 258 194 263 255 255 255
3 276 277 86 255 255 255
3 55 300 258 255 255 255
3 33 277 276 255 255 255
3 33 55 277 255 255 255
3 159 68 268 255 255 255
3 105 14 204 255 255 255
3 29 38 105 255 255 255
3 83 58 10 255 255 255
3 156 10 128 255 255 255
3 47 174 156 255 255 255
3 271 212 47 255 255 255
3 139 300 271 255 255 255
3 258 255 194 255 255 255
3 277 160 86 255 255 255
3 300 139 258 255 255 255
3 55 140 300 255 255 255
3 33 255 55 255 255 255
3 68 124 268 255 255 255
3 159 156 68 255 255 255
3 23 134 159 255 255 255
3 265 134 23 255 255 255
3 265 214 134 255 255 255
3 38 89 105 255 255 255
3 29 136 38 255 255 255
3 10 68 128 255 255 255
3 156 83 10 255 255 255
3 212 106 47 255 255 255
3 300 111 271 255 255 255
3 255 40 194 255 255 255
3 160 194 86 255 255 255
3 277 205 160 255 255 255
3 139 299 258 255 255 255
3 140 111 300 255 255 255
3 255 140 55 255 255 255
3 255 107 140 255 255 255
3 33 205 255 255 255 255
3 68 142 124 255 255 255
3 134 39 159 255 255 255
3 214 160 134 255 255 255
3 265 302 214 255 255 255
3 38 120 89 255 255 255
3 10 27 68 255 255 255
3 47 106 174 255 255 255
3 106 298 174 255 255 255
3 271 111 212 255 255 255
3 40 134 194 255 255 255
3 255 48 40 255 255 255
3 139 86 299 255 255 255
3 107 111 140 255 255 255
3 107 161 111 255 255 255
3 255 277 107 255 255 255
3 33 31 205 255 255 255
3 39 209 159 255 255 255
3 160 263 134 255 255 255
3 214 40 160 255 255 255
3 265 54 302 255 255 255
3 10 67 27 255 255 255
3 198 83 174 255 255 255
3 298 265 174 255 255 255
3 212 296 106 255 255 255
3 296 108 106 255 255 255
3 212 161 296 255 255 255
3 134 139 194 255 255 255
3 48 234 40 255 255 255
3 107 24 161 255 255 255
3 39 26 209 255 255 255
3 160 276 263 255 255 255
3 40 31 160 255 255 255
3 214 137 40 255 255 255
3 54 173 302 255 255 255
3 265 23 174 255 255 255
3 23 198 174 255 255 255
3 298 54 265 255 255 255
3 298 266 54 255 255 255
3 106 17 298 255 255 255
3 108 17 106 255 255 255
3 108 11 17 255 255 255
3 296 16 108 255 255 255
3 161 24 296 255 255 255
3 234 61 40 255 255 255
3 48 17 234 255 255 255
3 24 4 161 255 255 255
3 160 33 276 255 255 255
3 160 61 33 255 255 255
3 40 297 31 255 255 255
3 214 298 137 255 255 255
3 173 261 302 255 255 255
3 266 173 54 255 255 255
3 266 41 173 255 255 255
3 298 309 266 255 255 255
3 108 16 11 255 255 255
3 296 4 16 255 255 255
3 212 111 161 255 255 255
3 48 259 17 255 255 255
3 297 210 31 255 255 255
3 298 114 137 255 255 255
3 173 210 261 255 255 255
3 266 90 41 255 255 255
3 309 114 266 255 255 255
3 298 11 309 255 255 255
3 4 130 16 255 255 255
3 48 161 259 255 255 255
3 297 266 210 255 255 255
3 173 41 210 255 255 255
3 309 259 114 255 255 255
3 161 215 259 255 255 255
3 48 121 161 255 255 255
3 297 234 266 255 255 255
3 41 45 210 255 255 255
3 41 90 45 255 255 255
3 259 137 114 255 255 255
3 259 42 137 255 255 255
3 48 107 121 255 255 255
3 42 168 137 255 255 255
3 259 215 42 255 255 255
3 215 109 42 255 255 255
3 215 206 109 255 255 255
3 109 48 42 255 255 255
3 215 16 206 255 255 255
3 16 110 206 255 255 255
3 110 130 206 255 255 255
3 3 3 3 255 255 255
