ply
format ascii 1.0
element vertex 303
property float x
property float y
property float z
element face 576
property list uchar int vertex_indices
property uchar red
property uchar green
property uchar blue
end_header
6.26999998092651367 8.62699985504150391 -0.158999994397163391
6.27099990844726562 8.66800022125244141 -0.21799999475479126
6.22599697113037109 8.61222362518310547 -0.11500094085931778
6.22100019454956055 8.64900016784667969 -0.153999999165534973
6.24300003051757812 8.59499931335449219 -0.129500001668930054
6.23199987411499023 8.61600017547607422 -0.126000002026557922
6.21999979019165039 8.59399986267089844 -0.104999996721744537
6.23527145385742188 8.63602542877197266 -0.124059863388538361
6.19099998474121094 8.62899971008300781 -0.168999999761581421
6.21570062637329102 8.59858798980712891 -0.11183369904756546
6.19999980926513672 8.65100002288818359 -0.168999999761581421
6.22399997711181641 8.59599971771240234 -0.107000000774860382
6.2369999885559082 8.65400028228759766 -0.127000004053115845
6.27899980545043945 8.59599971771240234 -0.187000006437301636
6.28700017929077148 8.58799934387207031 -0.172999992966651917
6.21600008010864258 8.63199996948242188 -0.162000000476837158
6.23299980163574219 8.57699966430664062 -0.115999996662139893
6.2649998664855957 8.63899993896484375 -0.138999998569488525
6.23299980163574219 8.68400001525878906 -0.185000002384185791
6.21899986267089844 8.68900012969970703 -0.185000002384185791
6.22049999237060547 8.69750022888183594 -0.185000002384185791
6.22800016403198242 8.70300006866455078 -0.194999992847442627
6.27449989318847656 8.6464996337890625 -0.185000002384185791
6.25400018692016602 8.67600059509277344 -0.237500011920928955
6.27299976348876953 8.62600040435791016 -0.208000004291534424
6.26800012588500977 8.68799972534179688 -0.193000003695487976
6.23199987411499023 8.59300041198730469 -0.119999997317790985
6.28682565689086914 8.65374755859375 -0.230825632810592651
6.24900007247924805 8.68700027465820312 -0.186000004410743713
6.27199983596801758 8.65999984741210938 -0.210999995470046997
6.23880100250244141 8.67431449890136719 -0.129355147480964661
6.25199985504150391 8.64099979400634766 -0.177000001072883606
6.2369999885559082 8.69200038909912109 -0.200000002980232239
6.25799989700317383 8.66899967193603516 -0.153999999165534973
6.23999977111816406 8.67800045013427734 -0.209999993443489075
6.23899984359741211 8.67700004577636719 -0.223000004887580872
6.26999998092651367 8.63599967956542969 -0.174999997019767761
6.27400016784667969 8.63099956512451172 -0.200000002980232239
6.25899982452392578 8.64599990844726562 -0.232999995350837708
6.25400018692016602 8.67399978637695312 -0.209999993443489075
6.29199981689453125 8.63199996948242188 -0.182999998331069946
6.27699995040893555 8.64500045776367188 -0.194000005722045898
6.26700019836425781 8.65399932861328125 -0.193000003695487976
6.28299999237060547 8.59000015258789062 -0.185000002384185791
6.23099994659423828 8.625 -0.160999998450279236
6.24900007247924805 8.62800025939941406 -0.131999999284744263
6.28179216384887695 8.62874412536621094 -0.195015355944633484
6.20300006866455078 8.6529998779296875 -0.168999999761581421
6.24599981307983398 8.625 -0.136000007390975952
6.26800012588500977 8.64200019836425781 -0.145999997854232788
6.24100017547607422 8.68000030517578125 -0.13949999213218689
6.25899982452392578 8.65699958801269531 -0.136000007390975952
6.23400020599365234 8.68900012969970703 -0.192000001668930054
6.22599983215332031 8.68500041961669922 -0.182999998331069946
6.23999977111816406 8.67800045013427734 -0.168999999761581421
6.23400020599365234 8.67700004577636719 -0.166999995708465576
6.25400018692016602 8.63099956512451172 -0.180000007152557373
6.25699996948242188 8.6529998779296875 -0.174999997019767761
6.28599977493286133 8.59599971771240234 -0.177000001072883606
6.27500009536743164 8.61600017547607422 -0.189999997615814209
6.25299978256225586 8.64200019836425781 -0.151999995112419128
6.22129106521606445 8.5848388671875 -0.118656933307647705
6.22499990463256836 8.64900016784667969 -0.143999993801116943
6.23999977111816406 8.60599994659423828 -0.129999995231628418
6.22815465927124023 8.64807987213134766 -0.179856419563293457
6.19299983978271484 8.63599967956542969 -0.171000003814697266
6.22599983215332031 8.65400028228759766 -0.152999997138977051
6.2369999885559082 8.65600013732910156 -0.129999995231628418
6.22597742080688477 8.64501953125 -0.13002777099609375
6.23099994659423828 8.61699962615966797 -0.145999997854232788
6.29199981689453125 8.63700008392333984 -0.192000001668930054
6.25500011444091797 8.61699962615966797 -0.206000000238418579
6.23099994659423828 8.58100032806396484 -0.119999997317790985
6.2350001335144043 8.64799976348876953 -0.128999993205070496
6.24100017547607422 8.59000015258789062 -0.119999997317790985
6.23274993896484375 8.59149932861328125 -0.130499988794326782
6.23549652099609375 8.62496185302734375 -0.115458473563194275
6.21899986267089844 8.58600044250488281 -0.123999997973442078
6.25 8.64299964904785156 -0.160999998450279236
6.19199991226196289 8.63399982452392578 -0.163000002503395081
6.20499992370605469 8.64900016784667969 -0.172000005841255188
6.24107742309570312 8.61999416351318359 -0.131051048636436462
6.26000022888183594 8.66199970245361328 -0.197999998927116394
6.25400018692016602 8.67700004577636719 -0.231000006198883057
6.26900005340576172 8.66699981689453125 -0.214000001549720764
6.28599977493286133 8.61900043487548828 -0.187000006437301636
6.19299983978271484 8.62199974060058594 -0.173999994993209839
6.22594451904296875 8.58898353576660156 -0.111287698149681091
6.2649998664855957 8.68500041961669922 -0.179000005125999451
6.28000020980834961 8.65100002288818359 -0.224000006914138794
6.22300004959106445 8.69200038909912109 -0.192000001668930054
6.22630453109741211 8.67092037200927734 -0.153222441673278809
6.2630000114440918 8.64900016784667969 -0.129999995231628418
6.22800016403198242 8.68500041961669922 -0.175999999046325684
6.25204563140869141 8.67899227142333984 -0.163877606391906738
6.23799991607666016 8.680999755859375 -0.175999999046325684
6.2350001335144043 8.69799995422363281 -0.199000000953674316
6.26175022125244141 8.61999988555908203 -0.18900001049041748
6.26900005340576172 8.61699962615966797 -0.166999995708465576
6.27500009536743164 8.65200042724609375 -0.199000000953674316
6.2779998779296875 8.64000034332275391 -0.182500004768371582
6.27500009536743164 8.65799999237060547 -0.237000003457069397
6.25500011444091797 8.67199993133544922 -0.231000006198883057
6.24300003051757812 8.67899990081787109 -0.215000003576278687
6.25799989700317383 8.65200042724609375 -0.160999998450279236
6.28000020980834961 8.63300037384033203 -0.181999996304512024
6.24399995803833008 8.64599990844726562 -0.165999993681907654
6.23600006103515625 8.69499969482421875 -0.203999996185302734
6.28149986267089844 8.60000038146972656 -0.172999992966651917
6.27500009536743164 8.6529998779296875 -0.224999994039535522
6.22682809829711914 8.67657184600830078 -0.144694104790687561
6.2630000114440918 8.68200016021728516 -0.190999999642372131
6.25299978256225586 8.67700004577636719 -0.13500000536441803
6.26800012588500977 8.68900012969970703 -0.190999999642372131
6.25600004196166992 8.69600009918212891 -0.190999999642372131
6.25899982452392578 8.69799995422363281 -0.190999999642372131
6.25899982452392578 8.65900039672851562 -0.237000003457069397
6.27400016784667969 8.63199996948242188 -0.167999997735023499
6.27199983596801758 8.60900020599365234 -0.190999999642372131
6.27600002288818359 8.65400028228759766 -0.212999999523162842
6.26100015640258789 8.60200023651123047 -0.202000007033348083
6.26200008392333984 8.67700004577636719 -0.180999994277954102
6.25699996948242188 8.65699958801269531 -0.209000006318092346
6.27699995040893555 8.61499977111816406 -0.187999993562698364
6.25199985504150391 8.65400028228759766 -0.193000003695487976
6.28030538558959961 8.62325286865234375 -0.1613331139087677
6.24699497222900391 8.665252685546875 -0.118750162422657013
6.26671075820922852 8.64999198913574219 -0.2369576096534729
6.23000001907348633 8.68000030517578125 -0.159999996423721313
6.2220001220703125 8.65499973297119141 -0.165000006556510925
6.21899986267089844 8.63599967956542969 -0.166999995708465576
6.21899986267089844 8.6529998779296875 -0.180000007152557373
6.23273324966430664 8.65916919708251953 -0.14775596559047699
6.2350001335144043 8.62899971008300781 -0.155000001192092896
6.21977710723876953 8.64427375793457031 -0.17386309802532196
6.19950008392333984 8.63899993896484375 -0.168500006198883057
6.20200014114379883 8.63899993896484375 -0.155000001192092896
6.21999979019165039 8.64700031280517578 -0.136000007390975952
6.22100019454956055 8.63700008392333984 -0.136999994516372681
6.21400022506713867 8.62699985504150391 -0.134000003337860107
6.23199987411499023 8.63399982452392578 -0.127000004053115845
6.25899982452392578 8.63199996948242188 -0.136999994516372681
6.23799991607666016 8.66800022125244141 -0.136999994516372681
6.27099990844726562 8.60900020599365234 -0.166999995708465576
6.28100013732910156 8.59899997711181641 -0.182999998331069946
6.25899982452392578 8.65999984741210938 -0.14699999988079071
6.26399993896484375 8.62800025939941406 -0.159999996423721313
6.2649998664855957 8.62699985504150391 -0.206000000238418579
6.21000289916992188 8.60700035095214844 -0.143991038203239441
6.21999979019165039 8.61800003051757812 -0.151999995112419128
6.20980262756347656 8.63603878021240234 -0.16737036406993866
6.24100017547607422 8.62800025939941406 -0.142000004649162292
6.24100017547607422 8.66100025177001953 -0.128999993205070496
6.25699996948242188 8.63599967956542969 -0.128999993205070496
6.23401021957397461 8.68497467041015625 -0.139104887843132019
6.26700019836425781 8.65100002288818359 -0.142000004649162292
6.25899982452392578 8.66199970245361328 -0.128999993205070496
6.25299978256225586 8.66300010681152344 -0.142000004649162292
6.28399991989135742 8.64500045776367188 -0.224999994039535522
6.26000022888183594 8.65799999237060547 -0.119249999523162842
6.24200010299682617 8.67700004577636719 -0.14699999988079071
6.25568580627441406 8.66415977478027344 -0.206043407320976257
6.23899984359741211 8.59300041198730469 -0.123000003397464752
6.22700023651123047 8.66800022125244141 -0.160999998450279236
6.25899982452392578 8.62899971008300781 -0.173999994993209839
6.24700021743774414 8.680999755859375 -0.131999999284744263
6.25299978256225586 8.63099956512451172 -0.143999993801116943
6.22172307968139648 8.61691379547119141 -0.150974929332733154
6.21000003814697266 8.62699985504150391 -0.134000003337860107
6.21799993515014648 8.66699981689453125 -0.180000007152557373
6.24700021743774414 8.65999984741210938 -0.180000007152557373
6.25 8.67099952697753906 -0.134000003337860107
6.25099992752075195 8.66100025177001953 -0.180000007152557373
6.22100019454956055 8.70100021362304688 -0.189999997615814209
6.22399997711181641 8.625 -0.12200000137090683
6.20399999618530273 8.62100028991699219 -0.129999995231628418
6.2090001106262207 8.60900020599365234 -0.129999995231628418
6.21500015258789062 8.60099983215332031 -0.127000004053115845
6.21600008010864258 8.59200000762939453 -0.127000004053115845
6.21999979019165039 8.58800029754638672 -0.133000001311302185
6.2369999885559082 8.61100006103515625 -0.13500000536441803
6.23999977111816406 8.61900043487548828 -0.136999994516372681
6.23400020599365234 8.62199974060058594 -0.143000006675720215
6.21600008010864258 8.64900016784667969 -0.173999994993209839
6.27500009536743164 8.60200023651123047 -0.180999994277954102
6.23099994659423828 8.62800025939941406 -0.115000002086162567
6.24900007247924805 8.66199970245361328 -0.218999996781349182
6.24900007247924805 8.62399959564208984 -0.126000002026557922
6.22800016403198242 8.66199970245361328 -0.181999996304512024
6.24599981307983398 8.63199996948242188 -0.126000002026557922
6.2369999885559082 8.68299961090087891 -0.149000003933906555
6.24896907806396484 8.67890834808349609 -0.193984106183052063
6.2630000114440918 8.62399959564208984 -0.181999996304512024
6.26800012588500977 8.63500022888183594 -0.204999998211860657
6.24700021743774414 8.67700004577636719 -0.230000004172325134
6.24900007247924805 8.69600009918212891 -0.204999998211860657
6.25899982452392578 8.61600017547607422 -0.204999998211860657
6.28299999237060547 8.58699989318847656 -0.177000001072883606
6.25299978256225586 8.65600013732910156 -0.215000003576278687
6.23457765579223633 8.64861488342285156 -0.167256951332092285
6.26000022888183594 8.68000030517578125 -0.238999992609024048
6.26700019836425781 8.67300033569335938 -0.238999992609024048
6.25997591018676758 8.64593219757080078 -0.222734391689300537
6.24450016021728516 8.67399978637695312 -0.217000007629394531
6.28699970245361328 8.64900016784667969 -0.23399999737739563
6.20800018310546875 8.62800025939941406 -0.150999993085861206
6.2220001220703125 8.59899997711181641 -0.144499987363815308
6.19799995422363281 8.64500045776367188 -0.173999994993209839
6.19700002670288086 8.64200019836425781 -0.16749998927116394
6.22599983215332031 8.67599964141845703 -0.173999994993209839
6.27299976348876953 8.64700031280517578 -0.150999993085861206
6.26599979400634766 8.61600017547607422 -0.173999994993209839
6.26599979400634766 8.64400005340576172 -0.173999994993209839
6.2715001106262207 8.60499954223632812 -0.173999994993209839
6.25500011444091797 8.65900039672851562 -0.230000004172325134
6.28000020980834961 8.65100002288818359 -0.237000003457069397
6.26599979400634766 8.64700031280517578 -0.225999996066093445
6.28200006484985352 8.57999992370605469 -0.175999999046325684
6.27299976348876953 8.64099979400634766 -0.150000005960464478
6.26700019836425781 8.65400028228759766 -0.14699999988079071
6.28599977493286133 8.63700008392333984 -0.193000003695487976
6.20897817611694336 8.61003589630126953 -0.119092725217342377
6.25 8.64900016784667969 -0.12200000137090683
6.29300022125244141 8.63199996948242188 -0.187999993562698364
6.26700019836425781 8.67399978637695312 -0.24400000274181366
6.2505950927734375 8.69909954071044922 -0.192955121397972107
6.28800010681152344 8.64999961853027344 -0.224000006914138794
6.19899988174438477 8.61999988555908203 -0.133000001311302185
6.23899984359741211 8.680999755859375 -0.188999995589256287
6.24200010299682617 8.59599971771240234 -0.137999996542930603
6.25 8.69799995422363281 -0.202000007033348083
6.24100017547607422 8.70100021362304688 -0.202000007033348083
6.25699996948242188 8.69799995422363281 -0.202000007033348083
6.26200008392333984 8.60599994659423828 -0.188999995589256287
6.25864553451538086 8.62528038024902344 -0.202985897660255432
6.28299999237060547 8.61600017547607422 -0.165999993681907654
6.27602624893188477 8.59504604339599609 -0.174024686217308044
6.27600002288818359 8.62399959564208984 -0.204999998211860657
6.25449991226196289 8.64700031280517578 -0.126000002026557922
6.26100015640258789 8.60700035095214844 -0.195999994874000549
6.26399993896484375 8.65200042724609375 -0.180000007152557373
6.26800012588500977 8.60799980163574219 -0.199000000953674316
6.20593976974487305 8.64402389526367188 -0.163985356688499451
6.28100013732910156 8.60799980163574219 -0.186000004410743713
6.26999998092651367 8.64999961853027344 -0.224000006914138794
6.23956966400146484 8.70267295837402344 -0.189971849322319031
6.21500015258789062 8.61299991607666016 -0.148000001907348633
6.22807693481445312 8.60820198059082031 -0.120911121368408203
6.2369999885559082 8.58600044250488281 -0.125
6.22749996185302734 8.67449951171875 -0.180999994277954102
6.24785709381103516 8.65656089782714844 -0.114160299301147461
6.23999977111816406 8.67300033569335938 -0.180999994277954102
6.21799993515014648 8.69099998474121094 -0.180999994277954102
6.2154998779296875 8.63599967956542969 -0.144500002264976501
6.21749973297119141 8.59599971771240234 -0.134499996900558472
6.23000001907348633 8.60599994659423828 -0.148000001907348633
6.23600006103515625 8.62300014495849609 -0.162000000476837158
6.20499992370605469 8.63700008392333984 -0.153999999165534973
6.21299982070922852 8.64500045776367188 -0.151999995112419128
6.20699977874755859 8.625 -0.13099999725818634
6.20800018310546875 8.60700035095214844 -0.133000001311302185
6.23205471038818359 8.5930023193359375 -0.143939509987831116
6.20800018310546875 8.61400032043457031 -0.137999996542930603
6.27199983596801758 8.66199970245361328 -0.238999992609024048
6.25504875183105469 8.63600826263427734 -0.196047306060791016
6.26000022888183594 8.64999961853027344 -0.203999996185302734
6.25400018692016602 8.61400032043457031 -0.202999994158744812
6.25300359725952148 8.64900875091552734 -0.233000680804252625
6.24800014495849609 8.6529998779296875 -0.116999998688697815
6.21700000762939453 8.67199993133544922 -0.172999992966651917
6.23600006103515625 8.67700004577636719 -0.186000004410743713
6.22700023651123047 8.67500019073486328 -0.163000002503395081
6.25249958038330078 8.64999961853027344 -0.179499998688697815
6.25299978256225586 8.67599964141845703 -0.186000004410743713
6.21799993515014648 8.69200038909912109 -0.195999994874000549
6.26200008392333984 8.66300010681152344 -0.163000002503395081
6.23799991607666016 8.68400001525878906 -0.209000006318092346
6.22900009155273438 8.69799995422363281 -0.186000004410743713
6.28494644165039062 8.60709953308105469 -0.170214265584945679
6.25343132019042969 8.68206501007080078 -0.180814981460571289
6.25899982452392578 8.67000007629394531 -0.241999998688697815
6.27199983596801758 8.61200046539306641 -0.194000005722045898
6.27400016784667969 8.61900043487548828 -0.160999998450279236
6.24399995803833008 8.67399978637695312 -0.143999993801116943
6.27899980545043945 8.64799976348876953 -0.211999997496604919
1 1 1
6.231292724609375 8.65486907958984375 -0.17571905255317688
6.21999979019165039 8.67300033569335938 -0.178000003099441528
6.23899984359741211 8.67899990081787109 -0.155000001192092896
6.25699996948242188 8.63899993896484375 -0.187999993562698364
6.24200010299682617 8.680999755859375 -0.201000005006790161
6.21879196166992188 8.69635009765625 -0.173700600862503052
6.26000022888183594 8.62899971008300781 -0.187999993562698364
6.26599979400634766 8.60750007629394531 -0.181499987840652466
6.25199985504150391 8.67000007629394531 -0.227499991655349731
6.25199985504150391 8.67800045013427734 -0.210999995470046997
6.29199981689453125 8.58899974822998047 -0.182999998331069946
6.22800016403198242 8.58100032806396484 -0.112000003457069397
6.24599981307983398 8.65499973297119141 -0.225999996066093445
6.21700000762939453 8.60900020599365234 -0.112999998033046722
6.23899984359741211 8.68599987030029297 -0.186000004410743713
6.24100017547607422 8.63199996948242188 -0.14699999988079071
6.2779998779296875 8.62499904632568359 -0.174969285726547241
3 205 149 246 255 255 255
3 246 262 205 255 255 255
3 149 167 246 255 255 255
3 205 15 149 255 255 255
3 262 168 205 255 255 255
3 246 148 262 255 255 255
3 167 148 246 255 255 255
3 167 206 148 255 255 255
3 15 44 149 255 255 255
3 205 150 15 255 255 255
3 168 253 205 255 255 255
3 262 227 168 255 255 255
3 206 254 148 255 255 255
3 149 44 167 255 255 255
3 44 256 167 255 255 255
3 15 130 44 255 255 255
3 150 130 15 255 255 255
3 150 134 130 255 255 255
3 205 257 150 255 255 255
3 253 257 205 255 255 255
3 253 258 257 255 255 255
3 227 259 168 255 255 255
3 262 260 227 255 255 255
3 148 260 262 255 255 255
3 148 254 260 255 255 255
3 254 177 260 255 255 255
3 206 261 254 255 255 255
3 167 255 206 255 255 255
3 255 261 206 255 255 255
3 167 69 255 255 255 255
3 256 69 167 255 255 255
3 256 133 69 255 255 255
3 257 135 150 255 255 255
3 258 136 257 255 255 255
3 253 137 258 255 255 255
3 253 138 137 255 255 255
3 168 138 253 255 255 255
3 168 139 138 255 255 255
3 259 139 168 255 255 255
3 259 174 139 255 255 255
3 227 175 259 255 255 255
3 260 176 227 255 255 255
3 254 178 177 255 255 255
3 261 179 254 255 255 255
3 261 75 179 255 255 255
3 261 229 75 255 255 255
3 255 229 261 255 255 255
3 255 180 229 255 255 255
3 69 180 255 255 255 255
3 69 181 180 255 255 255
3 133 182 69 255 255 255
3 134 199 130 255 255 255
3 150 183 134 255 255 255
3 135 207 150 255 255 255
3 257 79 135 255 255 255
3 136 79 257 255 255 255
3 136 208 79 255 255 255
3 258 242 136 255 255 255
3 137 62 258 255 255 255
3 138 68 137 255 255 255
3 139 174 138 255 255 255
3 174 140 138 255 255 255
3 259 221 174 255 255 255
3 175 221 259 255 255 255
3 227 176 175 255 255 255
3 176 221 175 255 255 255
3 176 177 221 255 255 255
3 177 176 260 255 255 255
3 178 9 177 255 255 255
3 254 179 178 255 255 255
3 179 77 178 255 255 255
3 180 63 229 255 255 255
3 181 63 180 255 255 255
3 181 81 63 255 255 255
3 69 182 181 255 255 255
3 182 151 181 255 255 255
3 133 151 182 255 255 255
3 133 301 151 255 255 255
3 134 64 199 255 255 255
3 134 131 64 255 255 255
3 183 131 134 255 255 255
3 183 80 131 255 255 255
3 150 80 183 255 255 255
3 150 207 80 255 255 255
3 207 10 80 255 255 255
3 79 8 135 255 255 255
3 208 65 79 255 255 255
3 136 242 208 255 255 255
3 258 3 242 255 255 255
3 62 3 258 255 255 255
3 62 66 3 255 255 255
3 137 67 62 255 255 255
3 138 140 68 255 255 255
3 140 7 68 255 255 255
3 174 185 140 255 255 255
3 221 2 174 255 255 255
3 221 299 2 255 255 255
3 177 9 221 255 255 255
3 178 61 9 255 255 255
3 178 77 61 255 255 255
3 179 72 77 255 255 255
3 75 4 248 255 255 255
3 229 4 75 255 255 255
3 63 4 229 255 255 255
3 81 5 63 255 255 255
3 181 48 81 255 255 255
3 151 48 181 255 255 255
3 151 166 48 255 255 255
3 301 166 151 255 255 255
3 301 60 166 255 255 255
3 133 78 301 255 255 255
3 64 286 199 255 255 255
3 80 47 131 255 255 255
3 207 208 10 255 255 255
3 135 65 207 255 255 255
3 8 86 135 255 255 255
3 65 8 79 255 255 255
3 65 86 8 255 255 255
3 208 207 65 255 255 255
3 47 10 242 255 255 255
3 3 130 242 255 255 255
3 66 129 3 255 255 255
3 62 132 66 255 255 255
3 67 132 62 255 255 255
3 137 68 67 255 255 255
3 68 12 67 255 255 255
3 7 73 68 255 255 255
3 140 185 7 255 255 255
3 174 76 185 255 255 255
3 299 11 2 255 255 255
3 221 9 299 255 255 255
3 9 6 299 255 255 255
3 61 87 9 255 255 255
3 77 72 61 255 255 255
3 72 16 61 255 255 255
3 179 75 72 255 255 255
3 75 248 72 255 255 255
3 248 16 72 255 255 255
3 248 74 16 255 255 255
3 4 74 248 255 255 255
3 63 162 4 255 255 255
3 5 247 63 255 255 255
3 81 76 5 255 255 255
3 166 141 48 255 255 255
3 60 146 166 255 255 255
3 301 78 60 255 255 255
3 78 146 60 255 255 255
3 64 188 286 255 255 255
3 64 169 188 255 255 255
3 131 169 64 255 255 255
3 47 129 131 255 255 255
3 10 208 242 255 255 255
3 130 80 242 255 255 255
3 66 163 129 255 255 255
3 132 91 66 255 255 255
3 132 110 91 255 255 255
3 67 142 132 255 255 255
3 12 152 67 255 255 255
3 68 73 12 255 255 255
3 73 268 12 255 255 255
3 7 222 73 255 255 255
3 174 2 76 255 255 255
3 11 247 2 255 255 255
3 299 6 11 255 255 255
3 6 87 11 255 255 255
3 9 87 6 255 255 255
3 16 297 61 255 255 255
3 74 297 16 255 255 255
3 74 87 297 255 255 255
3 4 162 74 255 255 255
3 162 26 74 255 255 255
3 63 247 162 255 255 255
3 247 26 162 255 255 255
3 76 247 5 255 255 255
3 76 2 247 255 255 255
3 81 187 76 255 255 255
3 81 45 187 255 255 255
3 48 45 81 255 255 255
3 48 141 45 255 255 255
3 141 187 45 255 255 255
3 141 153 187 255 255 255
3 166 17 141 255 255 255
3 286 170 199 255 255 255
3 169 249 188 255 255 255
3 47 242 129 255 255 255
3 163 269 129 255 255 255
3 66 91 163 255 255 255
3 132 142 110 255 255 255
3 142 154 110 255 255 255
3 67 152 142 255 255 255
3 152 30 142 255 255 255
3 12 126 152 255 255 255
3 268 250 12 255 255 255
3 73 222 268 255 255 255
3 222 250 268 255 255 255
3 7 189 222 255 255 255
3 76 7 185 255 255 255
3 11 87 247 255 255 255
3 61 297 87 255 255 255
3 74 26 87 255 255 255
3 26 247 87 255 255 255
3 187 189 76 255 255 255
3 141 17 153 255 255 255
3 17 92 153 255 255 255
3 166 49 17 255 255 255
3 170 106 199 255 255 255
3 188 270 286 255 255 255
3 249 270 188 255 255 255
3 169 287 249 255 255 255
3 269 169 129 255 255 255
3 163 271 269 255 255 255
3 91 271 163 255 255 255
3 91 128 271 255 255 255
3 110 128 91 255 255 255
3 110 190 128 255 255 255
3 30 154 142 255 255 255
3 152 126 30 255 255 255
3 12 250 126 255 255 255
3 222 159 250 255 255 255
3 189 238 222 255 255 255
3 189 7 76 255 255 255
3 187 153 189 255 255 255
3 153 238 189 255 255 255
3 92 238 153 255 255 255
3 92 159 238 255 255 255
3 17 155 92 255 255 255
3 49 218 17 255 255 255
3 170 272 106 255 255 255
3 286 251 170 255 255 255
3 270 251 286 255 255 255
3 270 191 251 255 255 255
3 249 18 270 255 255 255
3 287 19 249 255 255 255
3 169 269 287 255 255 255
3 269 252 287 255 255 255
3 169 131 129 255 255 255
3 271 209 269 255 255 255
3 128 93 271 255 255 255
3 190 288 128 255 255 255
3 110 154 190 255 255 255
3 154 50 190 255 255 255
3 126 171 30 255 255 255
3 250 159 126 255 255 255
3 222 238 159 255 255 255
3 92 156 159 255 255 255
3 155 51 92 255 255 255
3 272 31 106 255 255 255
3 251 273 170 255 255 255
3 191 273 251 255 255 255
3 191 111 273 255 255 255
3 270 228 191 255 255 255
3 18 52 270 255 255 255
3 249 53 18 255 255 255
3 19 53 249 255 255 255
3 19 90 53 255 255 255
3 287 252 19 255 255 255
3 252 20 19 255 255 255
3 209 53 269 255 255 255
3 271 93 209 255 255 255
3 93 252 209 255 255 255
3 288 54 128 255 255 255
3 190 160 288 255 255 255
3 50 160 190 255 255 255
3 50 112 160 255 255 255
3 30 165 154 255 255 255
3 171 165 30 255 255 255
3 171 112 165 255 255 255
3 126 156 171 255 255 255
3 92 51 156 255 255 255
3 51 157 156 255 255 255
3 155 219 51 255 255 255
3 31 78 106 255 255 255
3 272 289 31 255 255 255
3 170 124 272 255 255 255
3 273 172 170 255 255 255
3 111 121 273 255 255 255
3 191 114 111 255 255 255
3 228 290 191 255 255 255
3 52 228 270 255 255 255
3 52 290 228 255 255 255
3 52 32 290 255 255 255
3 53 52 18 255 255 255
3 19 274 90 255 255 255
3 20 274 19 255 255 255
3 20 173 274 255 255 255
3 252 291 20 255 255 255
3 93 291 252 255 255 255
3 54 55 128 255 255 255
3 288 94 54 255 255 255
3 160 94 288 255 255 255
3 160 33 94 255 255 255
3 112 283 160 255 255 255
3 50 165 112 255 255 255
3 50 154 165 255 255 255
3 156 112 171 255 255 255
3 156 126 159 255 255 255
3 157 112 156 255 255 255
3 157 33 112 255 255 255
3 51 145 157 255 255 255
3 219 145 51 255 255 255
3 219 275 145 255 255 255
3 155 210 219 255 255 255
3 31 164 78 255 255 255
3 289 56 31 255 255 255
3 272 124 289 255 255 255
3 124 264 289 255 255 255
3 172 124 170 255 255 255
3 172 82 124 255 255 255
3 273 121 172 255 255 255
3 111 88 121 255 255 255
3 191 230 114 255 255 255
3 32 276 290 255 255 255
3 52 90 32 255 255 255
3 274 32 90 255 255 255
3 274 107 32 255 255 255
3 173 21 274 255 255 255
3 55 93 128 255 255 255
3 55 95 93 255 255 255
3 54 95 55 255 255 255
3 54 279 95 255 255 255
3 94 279 54 255 255 255
3 33 275 94 255 255 255
3 160 283 33 255 255 255
3 283 112 33 255 255 255
3 157 145 33 255 255 255
3 275 33 145 255 255 255
3 219 104 275 255 255 255
3 210 104 219 255 255 255
3 155 49 210 255 255 255
3 31 56 164 255 255 255
3 56 192 164 255 255 255
3 289 264 56 255 255 255
3 124 265 264 255 255 255
3 82 161 124 255 255 255
3 111 113 88 255 255 255
3 230 232 114 255 255 255
3 191 195 230 255 255 255
3 290 34 191 255 255 255
3 276 34 290 255 255 255
3 276 35 34 255 255 255
3 32 107 276 255 255 255
3 21 96 274 255 255 255
3 173 277 21 255 255 255
3 20 277 173 255 255 255
3 20 291 277 255 255 255
3 291 93 277 255 255 255
3 95 300 93 255 255 255
3 279 28 95 255 255 255
3 279 114 28 255 255 255
3 104 57 275 255 255 255
3 192 211 164 255 255 255
3 56 97 192 255 255 255
3 264 292 56 255 255 255
3 265 193 264 255 255 255
3 124 122 265 255 255 255
3 161 122 124 255 255 255
3 161 198 122 255 255 255
3 82 191 161 255 255 255
3 113 115 88 255 255 255
3 111 25 113 255 255 255
3 230 195 232 255 255 255
3 34 203 191 255 255 255
3 35 203 34 255 255 255
3 96 107 274 255 255 255
3 96 231 107 255 255 255
3 21 231 96 255 255 255
3 21 245 231 255 255 255
3 277 245 21 255 255 255
3 93 300 277 255 255 255
3 300 245 277 255 255 255
3 300 225 245 255 255 255
3 95 28 300 255 255 255
3 28 225 300 255 255 255
3 114 225 28 255 255 255
3 279 115 114 255 255 255
3 94 88 279 255 255 255
3 57 240 275 255 255 255
3 104 212 57 255 255 255
3 211 98 164 255 255 255
3 192 97 211 255 255 255
3 97 293 211 255 255 255
3 292 97 56 255 255 255
3 264 234 292 255 255 255
3 193 234 264 255 255 255
3 265 99 193 255 255 255
3 122 198 265 255 255 255
3 198 202 265 255 255 255
3 161 186 198 255 255 255
3 115 279 88 255 255 255
3 113 25 115 255 255 255
3 25 232 115 255 255 255
3 191 203 161 255 255 255
3 203 186 161 255 255 255
3 203 294 186 255 255 255
3 35 294 203 255 255 255
3 35 194 294 255 255 255
3 231 195 107 255 255 255
3 245 225 231 255 255 255
3 57 212 240 255 255 255
3 212 22 240 255 255 255
3 98 146 164 255 255 255
3 211 143 98 255 255 255
3 293 213 211 255 255 255
3 97 233 293 255 255 255
3 292 234 97 255 255 255
3 234 266 97 255 255 255
3 193 147 234 255 255 255
3 99 284 193 255 255 255
3 186 298 198 255 255 255
3 232 225 115 255 255 255
3 294 298 186 255 255 255
3 194 23 294 255 255 255
3 195 276 107 255 255 255
3 195 103 276 255 255 255
3 22 42 240 255 255 255
3 212 100 22 255 255 255
3 146 36 164 255 255 255
3 98 282 146 255 255 255
3 143 282 98 255 255 255
3 143 278 282 255 255 255
3 211 213 143 255 255 255
3 233 184 293 255 255 255
3 97 239 233 255 255 255
3 239 120 233 255 255 255
3 266 239 97 255 255 255
3 266 120 239 255 255 255
3 234 71 266 255 255 255
3 234 147 71 255 255 255
3 147 196 71 255 255 255
3 193 24 147 255 255 255
3 198 298 202 255 255 255
3 298 267 202 255 255 255
3 232 231 225 255 255 255
3 294 214 298 255 255 255
3 23 214 294 255 255 255
3 23 116 214 255 255 255
3 103 35 276 255 255 255
3 103 194 35 255 255 255
3 103 295 194 255 255 255
3 195 295 103 255 255 255
3 42 172 240 255 255 255
3 212 36 100 255 255 255
3 36 212 164 255 255 255
3 146 117 36 255 255 255
3 282 0 146 255 255 255
3 278 235 282 255 255 255
3 213 108 143 255 255 255
3 293 236 213 255 255 255
3 184 236 293 255 255 255
3 233 13 184 255 255 255
3 196 266 71 255 255 255
3 196 120 266 255 255 255
3 196 241 120 255 255 255
3 147 24 196 255 255 255
3 24 237 196 255 255 255
3 193 37 24 255 255 255
3 267 38 202 255 255 255
3 214 267 298 255 255 255
3 214 116 267 255 255 255
3 116 38 267 255 255 255
3 116 127 38 255 255 255
3 23 280 116 255 255 255
3 23 200 280 255 255 255
3 295 83 194 255 255 255
3 42 82 172 255 255 255
3 22 99 42 255 255 255
3 100 220 22 255 255 255
3 36 117 100 255 255 255
3 117 105 100 255 255 255
3 117 302 105 255 255 255
3 282 125 0 255 255 255
3 235 125 282 255 255 255
3 143 108 278 255 255 255
3 236 108 213 255 255 255
3 184 13 236 255 255 255
3 13 43 236 255 255 255
3 241 233 120 255 255 255
3 241 118 233 255 255 255
3 196 237 241 255 255 255
3 237 281 241 255 255 255
3 24 37 237 255 255 255
3 37 46 237 255 255 255
3 193 41 37 255 255 255
3 38 216 202 255 255 255
3 116 263 127 255 255 255
3 280 263 116 255 255 255
3 280 224 263 255 255 255
3 200 224 280 255 255 255
3 23 83 200 255 255 255
3 83 23 194 255 255 255
3 295 39 83 255 255 255
3 42 29 82 255 255 255
3 99 29 42 255 255 255
3 99 119 29 255 255 255
3 22 41 99 255 255 255
3 100 70 220 255 255 255
3 105 40 100 255 255 255
3 117 125 302 255 255 255
3 125 117 0 255 255 255
3 117 218 0 255 255 255
3 235 302 125 255 255 255
3 108 58 278 255 255 255
3 236 14 108 255 255 255
3 43 197 236 255 255 255
3 118 59 233 255 255 255
3 241 281 118 255 255 255
3 281 243 118 255 255 255
3 237 59 281 255 255 255
3 37 220 46 255 255 255
3 193 284 41 255 255 255
3 216 244 202 255 255 255
3 38 127 216 255 255 255
3 127 215 216 255 255 255
3 127 101 215 255 255 255
3 263 101 127 255 255 255
3 83 201 200 255 255 255
3 39 102 83 255 255 255
3 295 191 39 255 255 255
3 29 84 82 255 255 255
3 119 1 29 255 255 255
3 41 284 99 255 255 255
3 70 46 220 255 255 255
3 70 223 46 255 255 255
3 100 40 70 255 255 255
3 40 223 70 255 255 255
3 40 85 223 255 255 255
3 302 40 105 255 255 255
3 302 85 40 255 255 255
3 302 235 85 255 255 255
3 58 243 278 255 255 255
3 108 14 58 255 255 255
3 14 296 58 255 255 255
3 197 217 236 255 255 255
3 43 217 197 255 255 255
3 118 123 59 255 255 255
3 243 13 118 255 255 255
3 281 123 243 255 255 255
3 237 46 59 255 255 255
3 46 85 59 255 255 255
3 37 41 220 255 255 255
3 41 22 220 255 255 255
3 216 158 244 255 255 255
3 101 27 215 255 255 255
3 201 224 200 255 255 255
3 201 263 224 255 255 255
3 83 102 201 255 255 255
3 84 39 82 255 255 255
3 29 1 84 255 255 255
3 119 109 1 255 255 255
3 85 46 223 255 255 255
3 58 144 243 255 255 255
3 296 144 58 255 255 255
3 296 43 144 255 255 255
3 14 217 296 255 255 255
3 243 144 13 255 255 255
3 144 43 13 255 255 255
3 123 85 243 255 255 255
3 158 89 244 255 255 255
3 216 215 158 255 255 255
3 215 204 158 255 255 255
3 101 109 27 255 255 255
3 119 89 109 255 255 255
3 217 43 296 255 255 255
3 85 278 243 255 255 255
3 89 119 244 255 255 255
3 119 84 244 255 255 255
3 215 27 204 255 255 255
3 27 226 204 255 255 255
3 109 89 27 255 255 255
3 89 226 27 255 255 255
3 101 244 109 255 255 255
3 84 1 244 255 255 255
3 1 109 244 255 255 255
3 204 226 158 255 255 255
3 226 119 158 255 255 255
3 285 285 285 255 255 255
