ply
format ascii 1.0
element vertex 305
property float x
property float y
property float z
element face 576
property list uchar int vertex_indices
property uchar red
property uchar green
property uchar blue
end_header
-11.7189998626708984 1.8059999942779541 -1.10500001907348633
-11.6829996109008789 1.80900001525878906 -1.12199997901916504
-11.7142505645751953 1.79824995994567871 -0.986000001430511475
-11.7220001220703125 1.7489999532699585 -1.04799997806549072
-11.6960000991821289 1.80999994277954102 -0.995999991893768311
-11.6919994354248047 1.81749999523162842 -0.990000009536743164
-11.7128734588623047 1.8112109899520874 -0.995083630084991455
-11.7290000915527344 1.80299997329711914 -0.987999975681304932
-11.7299995422363281 1.78199994564056396 -1.09599995613098145
-11.7139997482299805 1.8059999942779541 -1.0700000524520874
-11.7017879486083984 1.79773736000061035 -0.994729995727539062
-11.6821393966674805 1.8089594841003418 -0.990006566047668457
-11.7830429077148438 1.80004334449768066 -1.05202889442443848
-11.7620000839233398 1.7510000467300415 -1.08500003814697266
-11.7139997482299805 1.7510000467300415 -1.10599994659423828
-11.7170000076293945 1.78400003910064697 -1.13199996948242188
-11.7220001220703125 1.81400001049041748 -1.09700000286102295
-11.7030000686645508 1.75449991226196289 -1.09000003337860107
-11.6780004501342773 1.81500005722045898 -1.10599994659423828
-11.7250003814697266 1.80700004100799561 -1.05999994277954102
-11.6929998397827148 1.8059999942779541 -1.09399998188018799
-11.7040004730224609 1.81200003623962402 -1.11399996280670166
-11.7480001449584961 1.77300000190734863 -1.12000000476837158
-11.7570610046386719 1.75395512580871582 -1.10400211811065674
-11.7159996032714844 1.7630000114440918 -1.11699998378753662
-11.7360000610351562 1.8059999942779541 -1.05200004577636719
-11.7130002975463867 1.81799995899200439 -1.03799998760223389
-11.7159996032714844 1.74775004386901855 -1.08599996566772461
-11.7130002975463867 1.8059999942779541 -1.02600002288818359
-11.7150001525878906 1.77600002288818359 -1.10899996757507324
-11.7165002822875977 1.80850005149841309 -1.04750001430511475
-11.7048959732055664 1.81260800361633301 -1.00260245800018311
-11.75 1.75399994850158691 -1.11600005626678467
-11.7030000686645508 1.81099998950958252 -1.08000004291534424
-11.7119998931884766 1.8059999942779541 -1.01699995994567871
-11.7019996643066406 1.80299997329711914 -1.1109999418258667
-11.7170000076293945 1.75699996948242188 -1.08399999141693115
-11.743901252746582 1.75786459445953369 -1.09917330741882324
-11.7117509841918945 1.77929365634918213 -1.12669062614440918
-11.7229995727539062 1.80099999904632568 -1.06700003147125244
-11.7170000076293945 1.8059999942779541 -1.05299997329711914
-11.7030000686645508 1.81599998474121094 -1.12100005149841309
-11.7150001525878906 1.80299997329711914 -1.03600001335144043
-11.7130002975463867 1.80700004100799561 -1.00199997425079346
-11.7779998779296875 1.84899997711181641 -1.09599995613098145
-11.7510004043579102 1.75899994373321533 -1.11699998378753662
-11.7309999465942383 1.79799997806549072 -0.987999975681304932
-11.685999870300293 1.8190000057220459 -1.1109999418258667
-11.7469997406005859 1.78600001335144043 -1.10199999809265137
-11.7440004348754883 1.76199996471405029 -1.1109999418258667
-11.7360000610351562 1.80900001525878906 -1.09000003337860107
-11.7299995422363281 1.80099999904632568 -1.10599994659423828
-11.6949996948242188 1.80299997329711914 -1.11000001430511475
-11.6860828399658203 1.80811142921447754 -1.13183033466339111
-11.7790002822875977 1.84000003337860107 -1.02799999713897705
-11.7934999465942383 1.81949996948242188 -1.05124998092651367
-11.7799997329711914 1.83099997043609619 -1.03199994564056396
-11.7887496948242188 1.84800004959106445 -1.01550006866455078
-11.7749996185302734 1.84099996089935303 -1.02999997138977051
-11.7869997024536133 1.81200003623962402 -1.04799997806549072
-11.7950067520141602 1.8299785852432251 -1.05500912666320801
-11.7770004272460938 1.82799994945526123 -1.05099999904632568
-11.7829999923706055 1.82099997997283936 -1.04700005054473877
-11.7969999313354492 1.84800004959106445 -1.03450000286102295
-11.7810001373291016 1.84000003337860107 -1.03400003910064697
-11.7110004425048828 1.79400002956390381 -1.10899996757507324
-11.7267494201660156 1.80299997329711914 -1.04200005531311035
-11.7383642196655273 1.7477792501449585 -1.04882407188415527
-11.7298994064331055 1.7544482946395874 -1.03145861625671387
-11.7620849609375 1.83010673522949219 -1.10517024993896484
-11.7220001220703125 1.76199996471405029 -1.10300004482269287
-11.7349996566772461 1.75499999523162842 -1.08399999141693115
-11.7299995422363281 1.75999999046325684 -1.0559999942779541
-11.7349996566772461 1.79600000381469727 -1.09700000286102295
-11.7080001831054688 1.75800001621246338 -1.08800005912780762
-11.7469997406005859 1.82400000095367432 -1.11000001430511475
-11.7889995574951172 1.83299994468688965 -1.09099996089935303
-11.74981689453125 1.85809767246246338 -1.08831167221069336
-11.75 1.81700003147125244 -1.07899999618530273
-11.7620000839233398 1.80799996852874756 -1.10199999809265137
-11.7510004043579102 1.81299996376037598 -1.09700000286102295
-11.7510004043579102 1.79400002956390381 -1.10399997234344482
-11.7539997100830078 1.82700002193450928 -1.1109999418258667
-11.7539997100830078 1.80700004100799561 -1.09700000286102295
-11.7312498092651367 1.81025004386901855 -1.07850003242492676
-11.7390003204345703 1.75800001621246338 -1.05200004577636719
-11.7080326080322266 1.80837738513946533 -1.00531721115112305
-11.7709999084472656 1.81500041484832764 -1.10899996757507324
-11.755000114440918 1.8190000057220459 -1.09300005435943604
-11.7849998474121094 1.83800005912780762 -1.02100002765655518
-11.7860450744628906 1.84913349151611328 -1.03094184398651123
-11.7860002517700195 1.84899997711181641 -1.02199995517730713
-11.7590293884277344 1.83556580543518066 -1.0899733304977417
-11.7539997100830078 1.80700004100799561 -1.1109999418258667
-11.7951202392578125 1.8360435962677002 -1.03094780445098877
-11.744999885559082 1.8059999942779541 -1.08099997043609619
-11.7296857833862305 1.80596375465393066 -1.06358063220977783
-11.7232227325439453 1.82128417491912842 -1.07911479473114014
-11.7229995727539062 1.80200004577636719 -1.05700004100799561
-11.7026386260986328 1.81099426746368408 -1.02358412742614746
-11.7534999847412109 1.75499999523162842 -1.09450006484985352
-11.7299995422363281 1.75600004196166992 -1.06599998474121094
-11.7329998016357422 1.81200003623962402 -1.04600000381469727
-11.7019996643066406 1.79799997806549072 -1.08399999141693115
-11.7170000076293945 1.79999995231628418 -1.03900003433227539
-11.7220001220703125 1.75300002098083496 -1.05999994277954102
-11.7434654235839844 1.77575123310089111 -1.12095057964324951
-11.7340002059936523 1.80900001525878906 -1.09500002861022949
-11.703221321105957 1.82911431789398193 -0.985579490661621094
-11.7075004577636719 1.81400001049041748 -1.09249997138977051
-11.6910018920898438 1.82199883460998535 -1.11199080944061279
-11.7225332260131836 1.81766700744628906 -0.983666658401489258
-11.7092494964599609 1.80174994468688965 -0.993499994277954102
-11.7159996032714844 1.82200002670288086 -0.991999983787536621
-11.7105484008789062 1.78928446769714355 -0.983145713806152344
-11.6880950927734375 1.80356526374816895 -0.981275677680969238
-11.6933670043945312 1.81930875778198242 -0.9691886305809021
-11.680999755859375 1.79799997806549072 -1.10000002384185791
-11.7209997177124023 1.75399994850158691 -1.10199999809265137
-11.7119998931884766 1.80700004100799561 -1.07700002193450928
-11.7318639755249023 1.75162577629089355 -1.12517666816711426
-11.7270002365112305 1.78100001811981201 -1.10599994659423828
-11.685999870300293 1.8059999942779541 -1.09800004959106445
-11.7019996643066406 1.80700004100799561 -1.01900005340576172
-11.6999998092651367 1.7489999532699585 -1.09800004959106445
-11.7390003204345703 1.77400004863739014 -1.11800003051757812
-11.7510004043579102 1.8609999418258667 -1.10099995136260986
-11.7229995727539062 1.79100000858306885 -1.1109999418258667
-11.6979999542236328 1.8190000057220459 -1.10599994659423828
-11.7139997482299805 1.80700004100799561 -1.04700005054473877
-11.6918926239013672 1.82200491428375244 -1.12770569324493408
-11.7370004653930664 1.7489999532699585 -1.10699999332427979
-11.6920003890991211 1.83800005912780762 -0.972000002861022949
-11.7170000076293945 1.81200003623962402 -0.965499997138977051
-11.7204666137695312 1.74000370502471924 -1.09145689010620117
-11.7167501449584961 1.81949996948242188 -1.08599996566772461
-11.6910648345947266 1.81997787952423096 -1.09990084171295166
-11.6979999542236328 1.81299996376037598 -1.08700001239776611
-11.729313850402832 1.76127898693084717 -1.0633244514465332
-11.7480001449584961 1.75399994850158691 -1.06099998950958252
-11.7384147644042969 1.7489006519317627 -1.05840790271759033
-11.7250289916992188 1.78139269351959229 -1.09896218776702881
-11.6899995803833008 1.81400001049041748 -1.10000002384185791
-11.7010002136230469 1.75300002098083496 -1.07899999618530273
-11.7480630874633789 1.75718319416046143 -1.09129893779754639
-11.7720003128051758 1.84899997711181641 -1.02900004386901855
-11.7740001678466797 1.80200004577636719 -1.04999995231628418
-11.7670001983642578 1.84500002861022949 -1.09800004959106445
-11.7200002670288086 1.81299996376037598 -1.07099997997283936
-11.7021722793579102 1.7606738805770874 -1.09590411186218262
-11.7275991439819336 1.74487876892089844 -1.04953515529632568
-11.7159996032714844 1.81099998950958252 -1.03499996662139893
-11.7170343399047852 1.75961828231811523 -1.09664106369018555
-11.7510004043579102 1.75600004196166992 -1.07200002670288086
-11.7539997100830078 1.7510000467300415 -1.09300005435943604
-11.7800788879394531 1.81643211841583252 -1.05269014835357666
-11.7840003967285156 1.84700000286102295 -1.00999999046325684
-11.7680416107177734 1.82863485813140869 -1.05567371845245361
-11.7957258224487305 1.80981850624084473 -1.05507683753967285
-11.7948179244995117 1.81976449489593506 -1.05829668045043945
-11.7941579818725586 1.83737301826477051 -1.06427204608917236
-11.7860002517700195 1.83800005912780762 -1.05400002002716064
-11.7849998474121094 1.83700001239776611 -1.06099998950958252
-11.7720003128051758 1.83399999141693115 -1.0700000524520874
-11.7810001373291016 1.8190000057220459 -1.05900001525878906
-11.7469997406005859 1.79200005531311035 -1.10699999332427979
-11.7180004119873047 1.79999995231628418 -1.08000004291534424
-11.71600341796875 1.79999732971191406 -1.0529778003692627
-11.7350044250488281 1.74900031089782715 -1.11198997497558594
-11.7469997406005859 1.7510000467300415 -1.10399997234344482
-11.7049999237060547 1.81700003147125244 -1.03799998760223389
-11.7378425598144531 1.75553679466247559 -1.0755385160446167
-11.7150001525878906 1.80200004577636719 -1.02199995517730713
-11.7480001449584961 1.74500000476837158 -1.09800004959106445
-11.7238969802856445 1.7589113712310791 -1.09473049640655518
-11.7370119094848633 1.76399338245391846 -1.0880134105682373
-11.7139997482299805 1.76803421974182129 -1.1229935884475708
-11.6887493133544922 1.80649995803833008 -1.12724995613098145
-11.7595281600952148 1.81913495063781738 -1.08359420299530029
-11.6920003890991211 1.8320000171661377 -0.972999989986419678
-11.7110004425048828 1.79999995231628418 -1.10800004005432129
-11.7024993896484375 1.83174991607666016 -0.978249967098236084
-11.7062110900878906 1.83019518852233887 -0.969949007034301758
-11.7229995727539062 1.79999995231628418 -0.976000010967254639
-11.7101659774780273 1.82983672618865967 -0.986002683639526367
-11.7286481857299805 1.79924857616424561 -0.980473458766937256
-11.7480001449584961 1.75899994373321533 -1.12199997901916504
-11.7299995422363281 1.79700005054473877 -0.981999993324279785
-11.6939573287963867 1.74645304679870605 -1.07989704608917236
-11.6954078674316406 1.79386496543884277 -0.979440689086914062
-11.6929998397827148 1.80999994277954102 -0.968999981880187988
-11.7065000534057617 1.79449999332427979 -0.974750041961669922
-11.6960000991821289 1.79799997806549072 -0.980000019073486328
-11.7040004730224609 1.8190000057220459 -0.96799999475479126
-11.7299995422363281 1.75600004196166992 -1.12300002574920654
-11.7670001983642578 1.85000002384185791 -1.09500002861022949
-11.7799997329711914 1.82899999618530273 -1.09899997711181641
-11.7700004577636719 1.80400002002716064 -1.11000001430511475
-11.7860002517700195 1.81200003623962402 -1.06099998950958252
-11.7860002517700195 1.83000004291534424 -1.06700003147125244
-11.7740001678466797 1.83899998664855957 -1.06700003147125244
-11.7779998779296875 1.82700002193450928 -1.06599998474121094
-11.7639999389648438 1.84300005435943604 -1.0820000171661377
-11.7824172973632812 1.82912051677703857 -1.07690000534057617
-11.7899999618530273 1.83299994468688965 -1.08299994468688965
-11.7200002670288086 1.79600000381469727 -1.08700001239776611
-11.7170000076293945 1.80299997329711914 -1.02799999713897705
-11.7089862823486328 1.82204282283782959 -0.963020503520965576
-11.7081546783447266 1.7953106164932251 -0.96167987585067749
-11.7130002975463867 1.78900003433227539 -1.09200000762939453
-11.7030000686645508 1.81200003623962402 -1.10199999809265137
-11.6989994049072266 1.7434999942779541 -1.07850003242492676
-11.7072000503540039 1.79476034641265869 -1.08834290504455566
-11.7370004653930664 1.8059999942779541 -1.07299995422363281
-11.7344999313354492 1.81050002574920654 -1.04100000858306885
-11.6829996109008789 1.81500005722045898 -1.12199997901916504
-11.6789999008178711 1.80299997329711914 -1.09599995613098145
-11.7197589874267578 1.78971123695373535 -0.975882291793823242
-11.7569999694824219 1.85049998760223389 -1.08399999141693115
-11.739375114440918 1.79712510108947754 -1.07787489891052246
-11.7154998779296875 1.80850005149841309 -1.06999993324279785
-11.7167491912841797 1.80700004100799561 -1.02199995517730713
-11.7129993438720703 1.81012487411499023 -1.00937509536743164
-11.7192497253417969 1.75125002861022949 -1.09925007820129395
-11.7299995422363281 1.75899994373321533 -1.08899998664855957
-11.7119998931884766 1.80999994277954102 -1.02799999713897705
-11.7069997787475586 1.74699997901916504 -1.09099996089935303
-11.7218475341796875 1.77494502067565918 -1.13108909130096436
-11.7629995346069336 1.80700004100799561 -1.1109999418258667
-11.7370004653930664 1.79999995231628418 -1.0690000057220459
-11.7480001449584961 1.80700004100799561 -1.09300005435943604
-11.7519998550415039 1.82299995422363281 -1.0820000171661377
-11.7887201309204102 1.84278690814971924 -1.03939521312713623
-11.7931222915649414 1.8516545295715332 -1.02718281745910645
-11.7819995880126953 1.83299994468688965 -1.03299999237060547
-11.7939205169677734 1.84201967716217041 -1.01854503154754639
-11.7829113006591797 1.84104728698730469 -1.01912140846252441
-11.7840003967285156 1.84099996089935303 -1.04499995708465576
-11.7242498397827148 1.8059999942779541 -1.05225002765655518
-11.7208747863769531 1.81025004386901855 -1.04124999046325684
-11.6999998092651367 1.80400002002716064 -1.10199999809265137
-11.7080001831054688 1.8200000524520874 -1.11500000953674316
-11.7100000381469727 1.74199998378753662 -1.08700001239776611
-11.7080001831054688 1.75499999523162842 -1.10000002384185791
-11.7320003509521484 1.74600005149841309 -1.09800004959106445
-11.75 1.75337505340576172 -1.08287501335144043
-11.7469997406005859 1.81400001049041748 -1.10699999332427979
-11.7284021377563477 1.79291737079620361 -1.07374763488769531
-11.6950998306274414 1.81125223636627197 -1.08437681198120117
-11.7100000381469727 1.75499999523162842 -1.11500000953674316
-11.7119998931884766 1.74800002574920654 -1.09949994087219238
-11.7300710678100586 1.74406087398529053 -1.03047144412994385
-11.7430839538574219 1.75923073291778564 -1.06109344959259033
-11.7139997482299805 1.8059999942779541 -1.02900004386901855
-11.7139997482299805 1.75899994373321533 -1.11500000953674316
-11.7220001220703125 1.80400002002716064 -1.04900002479553223
-11.7200965881347656 1.80588388442993164 -1.03464305400848389
-11.7237997055053711 1.75299286842346191 -1.08044016361236572
-11.7379999160766602 1.7489999532699585 -1.03900003433227539
-11.7760000228881836 1.82700002193450928 -1.08599996566772461
-11.7425003051757812 1.85249996185302734 -1.09599995613098145
-11.6940078735351562 1.81504857540130615 -1.0807873010635376
-11.6929998397827148 1.80999994277954102 -1.12100005149841309
-11.7349996566772461 1.75399994850158691 -1.11899995803833008
-11.7329998016357422 1.75800001621246338 -1.12999999523162842
-11.7120304107666016 1.76180434226989746 -1.10786342620849609
-11.7677497863769531 1.84899997711181641 -1.0872499942779541
-11.773472785949707 1.81599891185760498 -1.09557437896728516
-11.7779998779296875 1.81799995899200439 -1.09800004959106445
-11.7578859329223633 1.84276092052459717 -1.08849799633026123
-11.7559995651245117 1.81299996376037598 -1.08899998664855957
-11.7495002746582031 1.85399997234344482 -1.09999990463256836
-11.7614545822143555 1.80766570568084717 -1.11903524398803711
-11.7770528793334961 1.83403110504150391 -1.09522223472595215
-11.7790002822875977 1.82299995422363281 -1.10199999809265137
-11.7460002899169922 1.80999994277954102 -1.08899998664855957
-11.7299995422363281 1.78699994087219238 -1.10800004005432129
-11.7280292510986328 1.7953188419342041 -1.0816948413848877
-11.7360000610351562 1.74699997901916504 -1.09599995613098145
-11.7569999694824219 1.75300002098083496 -1.07599997520446777
-11.7467718124389648 1.74860811233520508 -1.06769275665283203
-11.745875358581543 1.7434999942779541 -1.06049990653991699
-11.7340002059936523 1.79900002479553223 -1.11300003528594971
-11.7093181610107422 1.82298672199249268 -1.07389998435974121
-11.7080001831054688 1.80900001525878906 -1.03100001811981201
-11.733311653137207 1.7513885498046875 -1.04466521739959717
-11.7106266021728516 1.77197718620300293 -1.11277163028717041
-11.7660007476806641 1.82349991798400879 -1.11000001430511475
-11.7469997406005859 1.79700005054473877 -1.10399997234344482
-11.7489995956420898 1.8200000524520874 -1.11500000953674316
-11.7856254577636719 1.83537507057189941 -1.07025003433227539
-11.7760000228881836 1.83800005912780762 -1.07500004768371582
-11.7744998931884766 1.85049998760223389 -1.08599996566772461
-11.7840061187744141 1.82777166366577148 -1.08751046657562256
-11.7934503555297852 1.82291042804718018 -1.09796953201293945
-11.7790002822875977 1.84800004959106445 -1.09099996089935303
-11.7574996948242188 1.85450005531311035 -1.09649991989135742
-11.741999626159668 1.74800002574920654 -1.09300005435943604
-11.7110004425048828 1.75499999523162842 -1.10800004005432129
-11.7209539413452148 1.81445324420928955 -0.968435049057006836
-11.7170000076293945 1.8059999942779541 -0.96799999475479126
-11.7025880813598633 1.79874110221862793 -0.960730016231536865
-11.6960000991821289 1.81299996376037598 -1.07599997520446777
-11.7569999694824219 1.75899994373321533 -1.08000004291534424
-11.7230863571166992 1.78313696384429932 -1.11489272117614746
3 63 232 94 255 255 255
3 94 233 63 255 255 255
3 232 234 94 255 255 255
3 233 232 63 255 255 255
3 94 235 233 255 255 255
3 94 89 235 255 255 255
3 234 89 94 255 255 255
3 234 56 89 255 255 255
3 232 237 234 255 255 255
3 89 236 235 255 255 255
3 234 62 56 255 255 255
3 232 90 237 255 255 255
3 90 64 237 255 255 255
3 232 233 90 255 255 255
3 233 91 90 255 255 255
3 233 57 91 255 255 255
3 235 57 233 255 255 255
3 236 156 235 255 255 255
3 89 54 236 255 255 255
3 234 237 62 255 255 255
3 237 55 62 255 255 255
3 64 56 237 255 255 255
3 90 145 64 255 255 255
3 91 54 90 255 255 255
3 54 58 236 255 255 255
3 55 59 62 255 255 255
3 237 60 55 255 255 255
3 56 61 237 255 255 255
3 64 58 56 255 255 255
3 57 156 91 255 255 255
3 58 145 236 255 255 255
3 59 155 62 255 255 255
3 60 159 55 255 255 255
3 237 161 60 255 255 255
3 61 161 237 255 255 255
3 61 157 161 255 255 255
3 56 62 61 255 255 255
3 62 155 61 255 255 255
3 155 157 61 255 255 255
3 90 236 145 255 255 255
3 156 236 91 255 255 255
3 55 158 59 255 255 255
3 60 160 159 255 255 255
3 157 162 161 255 255 255
3 155 164 157 255 255 255
3 59 12 155 255 255 255
3 158 12 59 255 255 255
3 55 159 158 255 255 255
3 159 198 158 255 255 255
3 160 199 159 255 255 255
3 161 160 60 255 255 255
3 161 162 160 255 255 255
3 162 290 160 255 255 255
3 157 200 162 255 255 255
3 163 200 157 255 255 255
3 163 202 200 255 255 255
3 157 201 163 255 255 255
3 164 201 157 255 255 255
3 155 198 164 255 255 255
3 155 12 146 255 255 255
3 198 12 158 255 255 255
3 199 201 159 255 255 255
3 200 290 162 255 255 255
3 200 291 290 255 255 255
3 201 203 163 255 255 255
3 164 159 201 255 255 255
3 198 159 164 255 255 255
3 198 146 12 255 255 255
3 198 155 146 255 255 255
3 199 203 201 255 255 255
3 160 203 199 255 255 255
3 160 204 203 255 255 255
3 200 202 291 255 255 255
3 202 292 291 255 255 255
3 203 259 163 255 255 255
3 204 293 203 255 255 255
3 290 204 160 255 255 255
3 290 291 204 255 255 255
3 291 293 204 255 255 255
3 291 273 293 255 255 255
3 202 266 292 255 255 255
3 203 293 259 255 255 255
3 291 295 273 255 255 255
3 292 295 291 255 255 255
3 292 44 295 255 255 255
3 202 218 266 255 255 255
3 293 267 259 255 255 255
3 294 268 293 255 255 255
3 295 76 273 255 255 255
3 292 195 44 255 255 255
3 296 195 266 255 255 255
3 266 218 296 255 255 255
3 202 269 218 255 255 255
3 267 178 259 255 255 255
3 268 267 293 255 255 255
3 273 76 293 255 255 255
3 76 294 293 255 255 255
3 195 147 44 255 255 255
3 292 266 195 255 255 255
3 218 77 296 255 255 255
3 202 92 269 255 255 255
3 267 270 178 255 255 255
3 268 87 267 255 255 255
3 294 274 268 255 255 255
3 76 196 294 255 255 255
3 195 296 147 255 255 255
3 296 271 147 255 255 255
3 77 126 296 255 255 255
3 269 260 218 255 255 255
3 92 147 269 255 255 255
3 270 78 178 255 255 255
3 87 197 267 255 255 255
3 268 274 87 255 255 255
3 294 196 274 255 255 255
3 196 287 274 255 255 255
3 76 259 196 255 255 255
3 271 269 147 255 255 255
3 271 260 269 255 255 255
3 296 126 271 255 255 255
3 126 77 271 255 255 255
3 260 77 218 255 255 255
3 92 69 147 255 255 255
3 270 95 78 255 255 255
3 267 83 270 255 255 255
3 197 79 267 255 255 255
3 87 272 197 255 255 255
3 274 287 87 255 255 255
3 77 260 271 255 255 255
3 69 287 147 255 255 255
3 78 231 178 255 255 255
3 95 213 78 255 255 255
3 270 230 95 255 255 255
3 83 230 270 255 255 255
3 83 81 230 255 255 255
3 267 79 83 255 255 255
3 197 228 79 255 255 255
3 287 272 87 255 255 255
3 69 82 287 255 255 255
3 287 196 147 255 255 255
3 92 88 69 255 255 255
3 78 275 231 255 255 255
3 213 84 78 255 255 255
3 95 229 213 255 255 255
3 230 219 95 255 255 255
3 81 288 230 255 255 255
3 83 79 81 255 255 255
3 79 228 81 255 255 255
3 228 93 81 255 255 255
3 197 272 228 255 255 255
3 287 289 272 255 255 255
3 82 289 287 255 255 255
3 82 75 289 255 255 255
3 88 82 69 255 255 255
3 88 75 82 255 255 255
3 88 80 75 255 255 255
3 231 88 92 255 255 255
3 231 275 88 255 255 255
3 275 80 88 255 255 255
3 275 107 80 255 255 255
3 92 178 231 255 255 255
3 78 84 275 255 255 255
3 213 96 84 255 255 255
3 229 96 213 255 255 255
3 95 219 229 255 255 255
3 230 73 219 255 255 255
3 288 73 230 255 255 255
3 288 48 73 255 255 255
3 81 48 288 255 255 255
3 93 165 81 255 255 255
3 228 272 93 255 255 255
3 272 289 93 255 255 255
3 289 246 93 255 255 255
3 75 246 289 255 255 255
3 75 80 246 255 255 255
3 80 107 246 255 255 255
3 275 50 107 255 255 255
3 84 50 275 255 255 255
3 84 97 50 255 255 255
3 96 148 84 255 255 255
3 73 277 219 255 255 255
3 48 8 73 255 255 255
3 165 48 81 255 255 255
3 165 276 48 255 255 255
3 50 16 107 255 255 255
3 97 16 50 255 255 255
3 97 135 16 255 255 255
3 84 148 97 255 255 255
3 148 283 97 255 255 255
3 96 19 148 255 255 255
3 229 247 96 255 255 255
3 219 247 229 255 255 255
3 219 277 247 255 255 255
3 73 8 277 255 255 255
3 8 205 277 255 255 255
3 276 8 48 255 255 255
3 276 121 8 255 255 255
3 165 282 276 255 255 255
3 16 51 107 255 255 255
3 97 283 135 255 255 255
3 19 220 148 255 255 255
3 96 238 19 255 255 255
3 98 25 96 255 255 255
3 96 39 98 255 255 255
3 247 39 96 255 255 255
3 247 166 39 255 255 255
3 277 205 247 255 255 255
3 205 166 247 255 255 255
3 205 212 166 255 255 255
3 8 209 205 255 255 255
3 121 141 8 255 255 255
3 276 125 121 255 255 255
3 282 304 276 255 255 255
3 16 0 51 255 255 255
3 135 109 16 255 255 255
3 283 109 135 255 255 255
3 148 220 283 255 255 255
3 19 40 220 255 255 255
3 96 25 238 255 255 255
3 25 102 238 255 255 255
3 39 167 98 255 255 255
3 166 9 39 255 255 255
3 212 103 166 255 255 255
3 205 209 212 255 255 255
3 8 141 209 255 255 255
3 121 70 141 255 255 255
3 304 125 276 255 255 255
3 282 127 304 255 255 255
3 0 127 51 255 255 255
3 16 210 0 255 255 255
3 109 210 16 255 255 255
3 283 137 109 255 255 255
3 220 302 283 255 255 255
3 9 119 220 255 255 255
3 220 238 9 255 255 255
3 19 238 40 255 255 255
3 102 239 238 255 255 255
3 25 214 102 255 255 255
3 167 255 98 255 255 255
3 9 167 39 255 255 255
3 9 40 167 255 255 255
3 166 119 9 255 255 255
3 166 103 119 255 255 255
3 103 33 119 255 255 255
3 212 20 103 255 255 255
3 209 65 212 255 255 255
3 141 65 209 255 255 255
3 141 29 65 255 255 255
3 141 70 29 255 255 255
3 70 152 29 255 255 255
3 127 65 304 255 255 255
3 282 51 127 255 255 255
3 282 165 51 255 255 255
3 0 180 127 255 255 255
3 210 241 0 255 255 255
3 109 128 210 255 255 255
3 137 136 109 255 255 255
3 283 261 137 255 255 255
3 302 261 283 255 255 255
3 220 33 302 255 255 255
3 238 30 40 255 255 255
3 239 30 238 255 255 255
3 214 239 102 255 255 255
3 255 66 98 255 255 255
3 167 104 255 255 255 255
3 33 220 119 255 255 255
3 103 302 33 255 255 255
3 20 248 103 255 255 255
3 212 240 20 255 255 255
3 65 240 212 255 255 255
3 65 35 240 255 255 255
3 70 174 152 255 255 255
3 65 29 304 255 255 255
3 127 180 65 255 255 255
3 180 35 65 255 255 255
3 180 21 35 255 255 255
3 0 21 180 255 255 255
3 0 241 21 255 255 255
3 241 41 21 255 255 255
3 210 128 241 255 255 255
3 128 110 241 255 255 255
3 109 136 128 255 255 255
3 261 136 137 255 255 255
3 302 248 261 255 255 255
3 239 26 30 255 255 255
3 66 25 98 255 255 255
3 66 214 25 255 255 255
3 104 66 255 255 255 255
3 40 129 167 255 255 255
3 40 30 129 255 255 255
3 30 151 129 255 255 255
3 248 302 103 255 255 255
3 20 122 248 255 255 255
3 240 122 20 255 255 255
3 240 117 122 255 255 255
3 35 52 240 255 255 255
3 21 262 35 255 255 255
3 41 262 21 255 255 255
3 41 130 262 255 255 255
3 110 41 241 255 255 255
3 110 130 41 255 255 255
3 128 136 110 255 255 255
3 248 136 261 255 255 255
3 248 142 136 255 255 255
3 248 122 142 255 255 255
3 122 18 142 255 255 255
3 26 170 30 255 255 255
3 239 151 26 255 255 255
3 214 256 239 255 255 255
3 214 66 256 255 255 255
3 104 256 66 255 255 255
3 129 104 167 255 255 255
3 129 42 104 255 255 255
3 117 216 122 255 255 255
3 240 52 117 255 255 255
3 35 262 52 255 255 255
3 262 177 52 255 255 255
3 174 36 152 255 255 255
3 130 177 262 255 255 255
3 130 53 177 255 255 255
3 110 215 130 255 255 255
3 142 18 136 255 255 255
3 122 216 18 255 255 255
3 26 225 170 255 255 255
3 151 225 26 255 255 255
3 239 256 151 255 255 255
3 256 221 151 255 255 255
3 104 42 256 255 255 255
3 42 172 256 255 255 255
3 177 1 52 255 255 255
3 36 74 152 255 255 255
3 174 224 36 255 255 255
3 224 257 36 255 255 255
3 174 175 224 255 255 255
3 215 53 130 255 255 255
3 110 47 215 255 255 255
3 110 18 47 255 255 255
3 225 99 170 255 255 255
3 221 225 151 255 255 255
3 256 206 221 255 255 255
3 1 47 52 255 255 255
3 152 149 265 255 255 255
3 74 149 152 255 255 255
3 36 143 74 255 255 255
3 257 27 36 255 255 255
3 224 171 257 255 255 255
3 175 171 224 255 255 255
3 174 37 175 255 255 255
3 215 1 53 255 255 255
3 110 136 18 255 255 255
3 177 53 1 255 255 255
3 74 17 149 255 255 255
3 143 17 74 255 255 255
3 143 188 17 255 255 255
3 36 27 143 255 255 255
3 175 144 171 255 255 255
3 174 131 37 255 255 255
3 215 18 1 255 255 255
3 225 222 99 255 255 255
3 221 222 225 255 255 255
3 206 172 221 255 255 255
3 188 124 17 255 255 255
3 27 211 143 255 255 255
3 171 138 257 255 255 255
3 252 138 171 255 255 255
3 37 100 175 255 255 255
3 131 49 37 255 255 255
3 174 70 131 255 255 255
3 70 168 131 255 255 255
3 123 284 99 255 255 255
3 99 31 123 255 255 255
3 222 31 99 255 255 255
3 172 34 221 255 255 255
3 17 124 149 255 255 255
3 124 243 149 255 255 255
3 211 188 143 255 255 255
3 242 211 27 255 255 255
3 27 134 242 255 255 255
3 257 134 27 255 255 255
3 257 278 134 255 255 255
3 171 153 252 255 255 255
3 171 144 153 255 255 255
3 144 303 153 255 255 255
3 144 100 303 255 255 255
3 175 100 144 255 255 255
3 37 23 100 255 255 255
3 131 168 49 255 255 255
3 168 263 49 255 255 255
3 284 170 99 255 255 255
3 284 30 170 255 255 255
3 284 42 30 255 255 255
3 123 28 284 255 255 255
3 34 222 221 255 255 255
3 34 43 222 255 255 255
3 172 123 34 255 255 255
3 243 265 149 255 255 255
3 243 298 265 255 255 255
3 124 298 243 255 255 255
3 211 242 188 255 255 255
3 242 226 188 255 255 255
3 278 244 134 255 255 255
3 257 297 278 255 255 255
3 71 297 257 255 255 255
3 71 245 297 255 255 255
3 257 101 71 255 255 255
3 72 105 138 255 255 255
3 138 85 72 255 255 255
3 252 85 138 255 255 255
3 252 67 85 255 255 255
3 153 139 252 255 255 255
3 303 279 153 255 255 255
3 100 13 303 255 255 255
3 37 45 23 255 255 255
3 49 45 37 255 255 255
3 49 22 45 255 255 255
3 263 125 49 255 255 255
3 168 194 263 255 255 255
3 284 253 42 255 255 255
3 28 253 284 255 255 255
3 28 206 253 255 255 255
3 222 6 31 255 255 255
3 43 6 222 255 255 255
3 43 2 6 255 255 255
3 34 86 43 255 255 255
3 123 86 34 255 255 255
3 172 28 123 255 255 255
3 298 249 265 255 255 255
3 226 124 188 255 255 255
3 226 250 124 255 255 255
3 242 134 226 255 255 255
3 244 223 134 255 255 255
3 278 168 244 255 255 255
3 297 173 278 255 255 255
3 71 280 245 255 255 255
3 101 280 71 255 255 255
3 101 140 280 255 255 255
3 257 105 101 255 255 255
3 72 3 105 255 255 255
3 85 285 72 255 255 255
3 252 139 67 255 255 255
3 153 280 139 255 255 255
3 279 280 153 255 255 255
3 303 13 279 255 255 255
3 100 154 13 255 255 255
3 22 186 45 255 255 255
3 49 106 22 255 255 255
3 125 106 49 255 255 255
3 263 194 125 255 255 255
3 2 7 6 255 255 255
3 43 112 2 255 255 255
3 86 112 43 255 255 255
3 249 286 265 255 255 255
3 298 14 249 255 255 255
3 250 298 124 255 255 255
3 250 14 298 255 255 255
3 226 134 250 255 255 255
3 134 223 250 255 255 255
3 244 118 223 255 255 255
3 278 169 168 255 255 255
3 173 169 278 255 255 255
3 173 23 169 255 255 255
3 297 154 173 255 255 255
3 105 140 101 255 255 255
3 105 150 140 255 255 255
3 3 150 105 255 255 255
3 72 285 3 255 255 255
3 85 258 285 255 255 255
3 67 258 85 255 255 255
3 139 281 67 255 255 255
3 280 281 139 255 255 255
3 186 32 45 255 255 255
3 22 106 186 255 255 255
3 4 86 31 255 255 255
3 4 10 86 255 255 255
3 5 4 31 255 255 255
3 5 11 4 255 255 255
3 31 108 5 255 255 255
3 6 108 31 255 255 255
3 7 111 6 255 255 255
3 2 46 7 255 255 255
3 86 123 31 255 255 255
3 249 176 286 255 255 255
3 250 223 14 255 255 255
3 223 118 14 255 255 255
3 169 23 168 255 255 255
3 297 245 154 255 255 255
3 140 281 280 255 255 255
3 150 281 140 255 255 255
3 3 251 150 255 255 255
3 285 68 3 255 255 255
3 258 68 285 255 255 255
3 258 251 68 255 255 255
3 186 120 32 255 255 255
3 106 264 186 255 255 255
3 10 112 86 255 255 255
3 10 114 112 255 255 255
3 11 115 4 255 255 255
3 108 181 5 255 255 255
3 111 113 6 255 255 255
3 7 185 111 255 255 255
3 112 114 2 255 255 255
3 286 29 265 255 255 255
3 118 265 14 255 255 255
3 32 168 23 255 255 255
3 23 45 32 255 255 255
3 245 13 154 255 255 255
3 279 13 245 255 255 255
3 245 280 279 255 255 255
3 3 68 251 255 255 255
3 264 120 186 255 255 255
3 10 189 114 255 255 255
3 4 115 10 255 255 255
3 11 116 115 255 255 255
3 108 184 181 255 255 255
3 108 113 184 255 255 255
3 113 108 6 255 255 255
3 111 184 113 255 255 255
3 111 182 184 255 255 255
3 7 46 185 255 255 255
3 2 114 46 255 255 255
3 114 187 46 255 255 255
3 29 152 265 255 255 255
3 286 38 29 255 255 255
3 176 38 286 255 255 255
3 118 70 265 255 255 255
3 32 120 168 255 255 255
3 115 189 10 255 255 255
3 116 190 115 255 255 255
3 11 5 116 255 255 255
3 184 182 181 255 255 255
3 185 299 111 255 255 255
3 187 185 46 255 255 255
3 187 217 185 255 255 255
3 114 217 187 255 255 255
3 114 191 217 255 255 255
3 38 304 29 255 255 255
3 38 15 304 255 255 255
3 258 67 150 255 255 255
3 67 281 150 255 255 255
3 150 251 258 255 255 255
3 189 191 114 255 255 255
3 190 192 115 255 255 255
3 116 193 190 255 255 255
3 111 299 182 255 255 255
3 185 183 299 255 255 255
3 191 208 217 255 255 255
3 176 227 38 255 255 255
3 189 208 191 255 255 255
3 192 189 115 255 255 255
3 192 301 189 255 255 255
3 190 301 192 255 255 255
3 193 301 190 255 255 255
3 116 182 193 255 255 255
3 179 116 181 255 255 255
3 181 132 179 255 255 255
3 182 132 181 255 255 255
3 182 299 207 255 255 255
3 183 300 299 255 255 255
3 185 217 183 255 255 255
3 38 227 15 255 255 255
3 189 301 208 255 255 255
3 193 207 301 255 255 255
3 116 179 182 255 255 255
3 179 132 182 255 255 255
3 299 133 207 255 255 255
3 300 133 299 255 255 255
3 183 217 300 255 255 255
3 227 304 15 255 255 255
3 227 176 304 255 255 255
3 301 300 208 255 255 255
3 207 133 301 255 255 255
3 193 182 207 255 255 255
3 300 301 133 255 255 255
3 217 208 300 255 255 255
3 176 24 304 255 255 255
3 176 194 24 255 255 255
3 194 254 24 255 255 255
