ply
format ascii 1.0
element vertex 313
property float x
property float y
property float z
element face 576
property list uchar int vertex_indices
property uchar red
property uchar green
property uchar blue
end_header
1.17333900928497314 2.00322842597961426 -0.958936154842376709
1.17459380626678467 2.00410318374633789 -0.972837507724761963
1.08867669105529785 2.0067598819732666 -0.934857189655303955
1.20941448211669922 2.00618076324462891 -0.989540755748748779
1.08002364635467529 2.01401257514953613 -0.921019852161407471
1.0762096643447876 2.0037693977355957 -0.932804346084594727
1.08500003814697266 2.00200009346008301 -0.940999984741210938
1.09899997711181641 2.00099992752075195 -0.958999991416931152
1.1239999532699585 2 -0.949000000953674316
1.09500455856323242 2.00038003921508789 -0.94827955961227417
1.19904983043670654 1.97029757499694824 -0.964238107204437256
1.09151387214660645 1.97959291934967041 -0.922591030597686768
1.19667696952819824 1.99348151683807373 -0.95943748950958252
1.20709013938903809 1.8477853536605835 -0.933705389499664307
1.20039129257202148 1.9940650463104248 -0.994344711303710938
1.08249998092651367 1.99399995803833008 -0.978000044822692871
1.04121840000152588 1.93988919258117676 -0.855353057384490967
1.12278068065643311 1.97403788566589355 -1.03281497955322266
1.0906141996383667 1.99067234992980957 -1.01570141315460205
1.10460400581359863 1.98552048206329346 -1.00912642478942871
1.1457366943359375 1.95286667346954346 -1.01251709461212158
1.1514972448348999 1.97016763687133789 -1.01839578151702881
1.12985539436340332 1.96116149425506592 -1.0270458459854126
1.11470210552215576 1.94802021980285645 -1.00512409210205078
1.10500001907348633 1.96800005435943604 -1.01499998569488525
1.10500001907348633 1.96800005435943604 -1.00499999523162842
1.12354123592376709 1.94869410991668701 -1.01688265800476074
1.10603833198547363 1.9841841459274292 -1.03307414054870605
1.09500002861022949 1.98399996757507324 -0.913999974727630615
1.02944409847259521 1.92623138427734375 -0.840723395347595215
1.14072000980377197 1.95437312126159668 -1.02661406993865967
1.14900004863739014 1.9869999885559082 -1.02999997138977051
1.08710455894470215 1.9851611852645874 -1.00073254108428955
1.15400004386901855 1.93599998950958252 -1.0140000581741333
1.16319537162780762 1.99739766120910645 -1.01814258098602295
1.20330023765563965 1.99142944812774658 -1.00357437133789062
1.21715700626373291 1.99181771278381348 -1.00980460643768311
1.21487331390380859 1.99891960620880127 -1.03205025196075439
1.05788087844848633 1.98219025135040283 -0.9904937744140625
1.07968413829803467 1.98655533790588379 -0.98870396614074707
1.06497764587402344 1.97353827953338623 -0.974288702011108398
1.08773493766784668 1.98632717132568359 -0.969440639019012451
1.1110985279083252 1.98420977592468262 -0.982455670833587646
1.14724195003509521 1.95018482208251953 -0.986897468566894531
1.15992522239685059 1.98475527763366699 -1.01933062076568604
1.16930913925170898 1.99693381786346436 -1.03812134265899658
1.04747366905212402 2.0010986328125 -0.992044627666473389
1.06586301326751709 2.00061345100402832 -0.996077477931976318
1.09809517860412598 1.99097883701324463 -1.01902520656585693
1.13176965713500977 1.95102310180664062 -1.00112736225128174
1.13073229789733887 1.93022835254669189 -1.01980233192443848
1.13999998569488525 1.96800005435943604 -1.02699995040893555
1.11728942394256592 1.98581254482269287 -1.0419001579284668
1.10889780521392822 1.95397365093231201 -1.00578892230987549
1.11703848838806152 2.00595760345458984 -0.995264053344726562
1.08899998664855957 2.00399994850158691 -0.994000017642974854
1.0508497953414917 1.94651782512664795 -0.896089136600494385
1.15399694442749023 1.89578413963317871 -0.984080672264099121
1.10561108589172363 1.99701797962188721 -0.998459517955780029
1.0429999828338623 1.97500002384185791 -0.996999979019165039
1.09327375888824463 1.98222672939300537 -0.949333906173706055
1.08800005912780762 1.99500000476837158 -0.977999985218048096
1.09805536270141602 1.97787308692932129 -0.95901864767074585
1.10983574390411377 1.9700169563293457 -0.953543901443481445
1.10498523712158203 1.95699179172515869 -0.938078403472900391
1.12045633792877197 1.98348903656005859 -0.955788552761077881
1.16114175319671631 1.97958827018737793 -0.962968349456787109
1.18149328231811523 1.96839046478271484 -0.959853291511535645
1.10399997234344482 2.00099992752075195 -0.93900001049041748
1.15699994564056396 2.01699995994567871 -1.01900005340576172
1.15699994564056396 2.00900006294250488 -1.01900005340576172
1.08790504932403564 1.9969789981842041 -0.914996206760406494
1.02302682399749756 1.95614945888519287 -0.848994851112365723
1.1950000524520874 1.86500000953674316 -0.93900001049041748
1.06700003147125244 1.97500002384185791 -0.888999998569488525
1.17131900787353516 1.92275035381317139 -0.989472091197967529
1.21048402786254883 1.97010087966918945 -0.970940113067626953
1.1950000524520874 1.87199997901916504 -0.949000000953674316
1.04200005531311035 1.96500003337860107 -0.898999989032745361
1.15301656723022461 1.89920723438262939 -0.975894689559936523
1.0639423131942749 1.97954857349395752 -0.900049746036529541
1.04693031311035156 1.97105598449707031 -0.970675468444824219
1.09899997711181641 1.99699997901916504 -0.972999989986419678
1.10329794883728027 1.98852384090423584 -0.996207773685455322
1.12016534805297852 1.97301065921783447 -0.995715141296386719
1.13199996948242188 1.9570000171661377 -0.995999991893768311
1.12279438972473145 1.93292415142059326 -0.996805667877197266
1.10000002384185791 1.98300004005432129 -0.981000006198883057
1.1390000581741333 1.97000002861022949 -0.990999996662139893
1.13880276679992676 1.93804597854614258 -0.989753782749176025
1.13543355464935303 1.9189002513885498 -0.996532201766967773
1.17026185989379883 1.86287140846252441 -0.953289508819580078
1.17162466049194336 1.89432072639465332 -0.980072081089019775
1.08000004291534424 1.99000000953674316 -0.962999999523162842
1.09733045101165771 1.964164137840271 -0.945248663425445557
1.16499996185302734 1.97000002861022949 -0.96799999475479126
1.11997878551483154 1.99193596839904785 -0.93866652250289917
1.16587138175964355 1.98032057285308838 -0.947924554347991943
1.20054221153259277 1.98165440559387207 -0.998092949390411377
1.06268441677093506 1.98238253593444824 -0.936268508434295654
1.19544816017150879 1.87557649612426758 -0.968988239765167236
1.0724632740020752 1.97274935245513916 -0.919290482997894287
1.06200003623962402 1.96300005912780762 -0.898999989032745361
1.18900001049041748 1.85099995136260986 -0.953000009059906006
1.03944540023803711 1.94433772563934326 -0.838157773017883301
1.17700004577636719 1.87699997425079346 -0.970000028610229492
1.07799994945526123 1.99000000953674316 -0.940999984741210938
1.22681939601898193 1.98324286937713623 -1.01501059532165527
1.22447741031646729 1.99468696117401123 -1.03057456016540527
1.23585665225982666 1.98804008960723877 -1.008736252784729
1.22446262836456299 1.9997556209564209 -1.04708731174468994
1.22886860370635986 1.99763691425323486 -0.986778736114501953
1.23708629608154297 1.9943232536315918 -1.04328417778015137
1.24625325202941895 1.99742531776428223 -1.00570189952850342
1.11129927635192871 1.96938884258270264 -1.03375530242919922
1.11439645290374756 1.93475866317749023 -1.0038830041885376
1.10831868648529053 1.99363076686859131 -1.03364455699920654
1.2305753231048584 1.97469699382781982 -0.973626673221588135
1.05976498126983643 1.97542190551757812 -0.884810268878936768
1.19073247909545898 1.9977947473526001 -0.973295688629150391
1.04556334018707275 1.94181466102600098 -0.840371131896972656
1.18596744537353516 1.86804378032684326 -0.946829378604888916
1.05562674999237061 1.98907935619354248 -0.909399211406707764
1.20286118984222412 1.86505568027496338 -0.935528218746185303
1.04347872734069824 1.92260289192199707 -0.853249669075012207
1.20000004768371582 1.86600005626678467 -0.955999970436096191
1.13985550403594971 1.9128258228302002 -0.987371981143951416
1.13006305694580078 1.9742964506149292 -0.975652933120727539
1.14999997615814209 1.97000002861022949 -0.982999980449676514
1.14358103275299072 1.93882644176483154 -0.981531381607055664
1.16400003433227539 1.95299994945526123 -0.996999979019165039
1.16199994087219238 1.96200001239776611 -0.989000022411346436
1.15058434009552002 1.98172938823699951 -0.956219077110290527
1.17050004005432129 1.96650004386901855 -0.986000001430511475
1.15900003910064697 1.91700005531311035 -0.97500002384185791
1.13947033882141113 1.89526951313018799 -0.98340684175491333
1.18209397792816162 2.00287842750549316 -0.96302485466003418
1.17499995231628418 2.01200008392333984 -0.984000027179718018
1.1679999828338623 2.00600004196166992 -0.968999981880187988
1.1940000057220459 1.87199997901916504 -0.962999999523162842
1.16299998760223389 2.00500011444091797 -1.00300002098083496
1.20975267887115479 2.00255012512207031 -1.0225672721862793
1.21370792388916016 2.01241850852966309 -1.01114082336425781
1.22699999809265137 2.00999999046325684 -1.01699995994567871
1.23498046398162842 2.00998544692993164 -1.03480100631713867
1.09500002861022949 1.96899998188018799 -0.915000021457672119
1.2433159351348877 2.00711894035339355 -1.02090740203857422
1.24715662002563477 2.00640964508056641 -1.04394423961639404
1.24136674404144287 2.0099327564239502 -1.01245129108428955
1.06414878368377686 2.00603723526000977 -1.01091372966766357
1.14999997615814209 2.00300002098083496 -1.03400003910064697
1.08490991592407227 2.00478577613830566 -1.00932931900024414
1.09302759170532227 2.00328969955444336 -1.03427159786224365
1.11314988136291504 2.00399684906005859 -1.03722798824310303
1.10300004482269287 2.00900006294250488 -1.04400002956390381
1.08700001239776611 2.01250004768371582 -1.02750003337860107
1.10500466823577881 2.02236032485961914 -1.02787697315216064
1.08600008487701416 2.01311278343200684 -1.01876330375671387
1.13192844390869141 2.00059080123901367 -1.03205192089080811
1.12469387054443359 2.01712274551391602 -1.03241527080535889
1.03389310836791992 1.95999574661254883 -0.849459290504455566
1.14982473850250244 1.99801266193389893 -1.03757321834564209
1.17234325408935547 1.92239773273468018 -1.00109767913818359
1.16400003433227539 1.98399996757507324 -1.00199997425079346
1.15690255165100098 1.97021186351776123 -1.00709080696105957
1.13518130779266357 1.98219656944274902 -1.02882063388824463
1.15912187099456787 1.94965922832489014 -1.0090329647064209
1.06046342849731445 1.99451208114624023 -1.01599979400634766
1.15623831748962402 1.92025792598724365 -1.00790262222290039
1.15711259841918945 1.98770248889923096 -1.0422966480255127
1.15490198135375977 1.90524613857269287 -1.00182795524597168
1.18084847927093506 1.86079561710357666 -0.945914924144744873
1.03394186496734619 1.97969532012939453 -0.920829117298126221
1.06560993194580078 1.95919501781463623 -0.878703415393829346
1.03647994995117188 1.95762407779693604 -0.862266123294830322
1.07200002670288086 1.98800003528594971 -0.934000015258789062
1.07899999618530273 1.9859999418258667 -0.949999988079071045
1.16600000858306885 1.96599996089935303 -0.985000014305114746
1.15864908695220947 1.9373633861541748 -0.994889557361602783
1.15610969066619873 1.92261338233947754 -0.982837140560150146
1.07406866550445557 1.97782087326049805 -0.965498626232147217
1.07799994945526123 1.9869999885559082 -0.962999999523162842
1.04999995231628418 1.99399995803833008 -0.990999996662139893
1.12493181228637695 1.97354590892791748 -0.966993927955627441
1.15574491024017334 1.97417068481445312 -0.967733800411224365
1.16342711448669434 1.93620657920837402 -0.998872101306915283
1.16999995708465576 1.9450000524520874 -0.996999979019165039
1.1124037504196167 1.97450613975524902 -0.935752153396606445
1.06112134456634521 1.9616549015045166 -0.909602224826812744
1.19300007820129395 1.85399997234344482 -0.936999976634979248
1.18104326725006104 1.9151616096496582 -1.00075840950012207
1.15932548046112061 2.00997757911682129 -1.0067903995513916
1.05949044227600098 1.95691204071044922 -0.882181107997894287
1.03547632694244385 1.92365527153015137 -0.863785326480865479
1.17799997329711914 1.96500003337860107 -0.996999979019165039
1.16120409965515137 1.8990626335144043 -0.97674870491027832
1.07804608345031738 1.97812402248382568 -0.93707120418548584
1.10000002384185791 1.9989999532699585 -0.950999975204467773
1.17900002002716064 1.88699996471405029 -0.976999998092651367
1.05640804767608643 1.98126578330993652 -0.968326210975646973
1.1951831579208374 1.88467669486999512 -0.965743660926818848
1.17499995231628418 1.98199999332427979 -0.981999993324279785
1.18829774856567383 1.98389840126037598 -0.979763507843017578
1.19926178455352783 1.97716248035430908 -0.981970310211181641
1.09668838977813721 1.97462368011474609 -0.93195807933807373
1.20000004768371582 1.88399994373321533 -0.94300001859664917
1.14348042011260986 1.98707020282745361 -0.952968001365661621
1.1906282901763916 1.98749780654907227 -0.94633328914642334
1.06599998474121094 1.98199999332427979 -0.888000011444091797
1.17293870449066162 1.87536191940307617 -0.967746436595916748
1.04330348968505859 1.98288476467132568 -0.926940858364105225
1.19726550579071045 1.85134685039520264 -0.944854259490966797
1.05406498908996582 1.95040690898895264 -0.870989441871643066
1.20183515548706055 1.87385332584381104 -0.943642675876617432
1.20632672309875488 1.98360979557037354 -0.94714045524597168
1.04976558685302734 1.96897780895233154 -0.90483403205871582
1.07639575004577637 1.96776866912841797 -0.893372952938079834
1.17700004577636719 2.00600004196166992 -0.987999975681304932
1.15699994564056396 1.95500004291534424 -1
1.17299997806549072 1.97000002861022949 -1
1.19299995899200439 1.97000002861022949 -0.977999985218048096
1.13431882858276367 2.01546740531921387 -1.02280592918395996
1.10607552528381348 2.00721549987792969 -1.01176559925079346
1.12800002098083496 2.01799988746643066 -1.01600003242492676
1.10500001907348633 2 -1.00600004196166992
1.16558480262756348 2.00670719146728516 -1.02153110504150391
1.16817450523376465 2.02492761611938477 -1.02751398086547852
1.13999998569488525 2.00500011444091797 -1.01699995994567871
1.18047726154327393 2.00338840484619141 -1.00576210021972656
1.18162596225738525 2.02518177032470703 -1.02425038814544678
1.18591082096099854 2.02483534812927246 -1.01320946216583252
1.19900000095367432 1.9989999532699585 -0.985000014305114746
1.19582855701446533 1.96131384372711182 -0.951141953468322754
1.22477567195892334 1.98034036159515381 -0.99367833137512207
1.04600059986114502 1.98001039028167725 -0.904027819633483887
1.19200003147125244 1.85399997234344482 -0.939999997615814209
1.18050146102905273 1.95679664611816406 -0.962947964668273926
1.07400000095367432 1.98300004005432129 -0.904999971389770508
1.04215824604034424 1.96609210968017578 -0.878793239593505859
1.21236956119537354 1.9724348783493042 -0.964165747165679932
1.18659090995788574 1.88385498523712158 -0.954876303672790527
1.04036343097686768 1.9675745964050293 -0.886096298694610596
1.16499996185302734 1.95500004291534424 -0.987999975681304932
1.07399988174438477 1.9921499490737915 -0.909211635589599609
1.04178202152252197 1.93629884719848633 -0.834780335426330566
1.14260363578796387 2.01174163818359375 -0.993824958801269531
1.12117242813110352 2.01113653182983398 -0.984115660190582275
1.10894370079040527 2.00235772132873535 -0.952926099300384521
1.14937877655029297 2.00363636016845703 -0.987262368202209473
1.13380742073059082 2.02079439163208008 -0.98770064115524292
1.12999999523162842 2.00799989700317383 -0.97500002384185791
1.10699999332427979 2.00399994850158691 -0.968999981880187988
1.14780676364898682 2.00214195251464844 -0.965410232543945312
1.11732697486877441 2.00698161125183105 -0.961687982082366943
1.17799997329711914 2.00799989700317383 -0.999000012874603271
1.08007431030273438 1.9732125997543335 -0.912098348140716553
1.23334920406341553 1.98449063301086426 -0.980225980281829834
1.02859747409820557 1.94660794734954834 -0.88242727518081665
1.04049992561340332 1.9804999828338623 -0.990000009536743164
1.06400001049041748 1.96200001239776611 -0.880999982357025146
1.2160956859588623 1.98527443408966064 -0.959094345569610596
1.18796956539154053 1.8649667501449585 -0.957765936851501465
1.19099998474121094 1.97099995613098145 -0.976000010967254639
1.16194605827331543 1.88184785842895508 -0.975014388561248779
1.16919374465942383 1.88769257068634033 -0.96953970193862915
1.1738591194152832 1.89307475090026855 -0.974953591823577881
1.10500001907348633 1.99600005149841309 -0.986000001430511475
1.16600000858306885 1.875 -0.981000006198883057
1.1109999418258667 1.98899996280670166 -0.930000007152557373
1.15969789028167725 1.99424612522125244 -0.948431432247161865
1.18599998950958252 1.96200001239776611 -0.962999999523162842
1.1673896312713623 1.87424945831298828 -0.972605407238006592
1.07233893871307373 1.9807124137878418 -0.962804675102233887
1.04320919513702393 1.97923874855041504 -0.982623398303985596
1.0820000171661377 1.96700000762939453 -0.912999987602233887
1.18837094306945801 1.97674357891082764 -0.947240352630615234
1.05299997329711914 1.96700000762939453 -0.879000008106231689
1.08399999141693115 2.00200009346008301 -0.945999979972839355
1.22056245803833008 1.99987292289733887 -0.97371208667755127
1.18352746963500977 1.97430706024169922 -0.968788266181945801
1.15183115005493164 1.91317307949066162 -0.987752854824066162
1.15674996376037598 1.8815000057220459 -0.981750011444091797
1.17081642150878906 1.91012322902679443 -0.983630180358886719
1.09500002861022949 1.99399995803833008 -0.989000022411346436
1.08390939235687256 1.99734747409820557 -0.991248250007629395
1.05698442459106445 1.99564754962921143 -0.978028178215026855
1.04400002956390381 1.98399996757507324 -0.976000010967254639
1.05500006675720215 1.97187495231628418 -0.957374989986419678
1.08767938613891602 1.96647930145263672 -0.92978668212890625
1.09855449199676514 1.99280261993408203 -0.925024211406707764
1.19599997997283936 1.88700008392333984 -0.946500003337860107
1.04856443405151367 1.97602713108062744 -0.889683961868286133
1.04799997806549072 1.95000004768371582 -0.856999993324279785
1.20660126209259033 1.86567282676696777 -0.948046207427978516
1.06049227714538574 1.98768937587738037 -0.924839437007904053
1.12800002098083496 2.01099991798400879 -1
1.02172791957855225 1.95702970027923584 -0.867951631546020508
1.07001256942749023 1.99984061717987061 -0.920017778873443604
1.04604816436767578 1.93994927406311035 -0.876608550548553467
1.08606636524200439 1.95905745029449463 -0.92001807689666748
1.01897859573364258 1.93094539642333984 -0.854889452457427979
1.03834426403045654 1.94605720043182373 -0.901878833770751953
1.02326691150665283 1.95941758155822754 -0.892516732215881348
1.05200004577636719 1.97300004959106445 -0.962999999523162842
1 1 1
1.06618940830230713 1.97258567810058594 -0.954191207885742188
1.18020164966583252 1.98939681053161621 -0.997170746326446533
1.06516909599304199 1.98494648933410645 -1.0022132396697998
1.16299998760223389 1.875 -0.982999980449676514
1.15900003910064697 2.00600004196166992 -0.981000006198883057
1.12571609020233154 1.98565220832824707 -0.948499679565429688
1.18662762641906738 1.85394978523254395 -0.959243178367614746
1.06400001049041748 1.98199999332427979 -0.885999977588653564
3 22 26 23 255 255 255
3 23 24 22 255 255 255
3 24 114 22 255 255 255
3 23 53 24 255 255 255
3 22 30 26 255 255 255
3 24 27 114 255 255 255
3 53 25 24 255 255 255
3 23 115 53 255 255 255
3 30 50 26 255 255 255
3 25 19 24 255 255 255
3 26 50 23 255 255 255
3 24 19 27 255 255 255
3 25 83 19 255 255 255
3 53 49 25 255 255 255
3 23 50 115 255 255 255
3 22 51 30 255 255 255
3 27 52 114 255 255 255
3 48 152 27 255 255 255
3 48 18 152 255 255 255
3 27 19 48 255 255 255
3 83 32 19 255 255 255
3 49 84 25 255 255 255
3 50 86 115 255 255 255
3 51 21 30 255 255 255
3 51 44 21 255 255 255
3 22 17 51 255 255 255
3 52 17 114 255 255 255
3 27 116 52 255 255 255
3 27 152 116 255 255 255
3 152 153 116 255 255 255
3 152 154 153 255 255 255
3 18 155 152 255 255 255
3 19 18 48 255 255 255
3 19 32 18 255 255 255
3 83 39 32 255 255 255
3 25 84 83 255 255 255
3 49 85 84 255 255 255
3 50 90 86 255 255 255
3 20 50 30 255 255 255
3 21 20 30 255 255 255
3 51 31 44 255 255 255
3 17 165 51 255 255 255
3 22 114 17 255 255 255
3 153 52 116 255 255 255
3 18 157 155 255 255 255
3 83 87 39 255 255 255
3 84 42 83 255 255 255
3 84 127 42 255 255 255
3 85 88 84 255 255 255
3 49 89 85 255 255 255
3 86 53 115 255 255 255
3 21 164 20 255 255 255
3 31 169 44 255 255 255
3 51 165 31 255 255 255
3 17 52 165 255 255 255
3 154 156 153 255 255 255
3 152 156 154 255 255 255
3 18 149 157 255 255 255
3 18 167 149 255 255 255
3 32 167 18 255 255 255
3 32 307 167 255 255 255
3 32 39 307 255 255 255
3 87 41 39 255 255 255
3 83 42 87 255 255 255
3 88 127 84 255 255 255
3 85 43 88 255 255 255
3 89 129 85 255 255 255
3 49 86 89 255 255 255
3 86 90 89 255 255 255
3 90 126 89 255 255 255
3 50 168 90 255 255 255
3 33 50 20 255 255 255
3 33 168 50 255 255 255
3 20 166 33 255 255 255
3 20 164 166 255 255 255
3 164 218 166 255 255 255
3 31 165 169 255 255 255
3 165 161 169 255 255 255
3 52 158 165 255 255 255
3 153 158 52 255 255 255
3 153 159 158 255 255 255
3 153 156 159 255 255 255
3 152 155 156 255 255 255
3 155 157 156 255 255 255
3 38 167 307 255 255 255
3 39 40 307 255 255 255
3 40 38 307 255 255 255
3 39 180 40 255 255 255
3 41 180 39 255 255 255
3 87 62 41 255 255 255
3 42 62 87 255 255 255
3 88 128 127 255 255 255
3 43 128 88 255 255 255
3 85 129 43 255 255 255
3 126 129 89 255 255 255
3 90 135 126 255 255 255
3 166 185 33 255 255 255
3 218 130 166 255 255 255
3 218 131 130 255 255 255
3 165 158 161 255 255 255
3 156 222 159 255 255 255
3 157 151 156 255 255 255
3 167 46 149 255 255 255
3 167 182 46 255 255 255
3 38 182 167 255 255 255
3 42 127 62 255 255 255
3 127 183 62 255 255 255
3 128 184 127 255 255 255
3 43 131 128 255 255 255
3 129 242 43 255 255 255
3 126 179 129 255 255 255
3 90 170 135 255 255 255
3 168 170 90 255 255 255
3 33 185 168 255 255 255
3 166 186 185 255 255 255
3 130 186 166 255 255 255
3 130 194 186 255 255 255
3 131 194 130 255 255 255
3 169 45 44 255 255 255
3 169 161 45 255 255 255
3 158 150 161 255 255 255
3 159 221 158 255 255 255
3 221 150 158 255 255 255
3 159 223 221 255 255 255
3 222 223 159 255 255 255
3 156 151 222 255 255 255
3 46 47 149 255 255 255
3 182 258 46 255 255 255
3 38 273 182 255 255 255
3 40 81 38 255 255 255
3 183 63 62 255 255 255
3 184 183 127 255 255 255
3 131 177 128 255 255 255
3 43 242 131 255 255 255
3 129 178 242 255 255 255
3 126 280 179 255 255 255
3 170 57 135 255 255 255
3 185 162 168 255 255 255
3 186 178 185 255 255 255
3 21 163 164 255 255 255
3 44 163 21 255 255 255
3 44 306 163 255 255 255
3 45 34 44 255 255 255
3 45 225 34 255 255 255
3 161 225 45 255 255 255
3 150 70 161 255 255 255
3 222 295 223 255 255 255
3 222 224 54 255 255 255
3 151 224 222 255 255 255
3 151 55 224 255 255 255
3 151 47 55 255 255 255
3 157 149 151 255 255 255
3 47 151 149 255 255 255
3 46 285 47 255 255 255
3 182 59 258 255 255 255
3 81 273 38 255 255 255
3 41 181 180 255 255 255
3 183 65 63 255 255 255
3 184 132 183 255 255 255
3 128 177 184 255 255 255
3 177 95 184 255 255 255
3 177 133 95 255 255 255
3 178 186 242 255 255 255
3 129 179 178 255 255 255
3 168 162 170 255 255 255
3 162 190 170 255 255 255
3 162 75 190 255 255 255
3 179 75 178 255 255 255
3 163 219 164 255 255 255
3 44 34 306 255 255 255
3 161 69 225 255 255 255
3 150 227 70 255 255 255
3 223 295 221 255 255 255
3 295 245 221 255 255 255
3 222 54 295 255 255 255
3 54 246 295 255 255 255
3 224 58 54 255 255 255
3 55 58 224 255 255 255
3 180 305 40 255 255 255
3 181 176 180 255 255 255
3 41 60 181 255 255 255
3 82 7 41 255 255 255
3 41 61 82 255 255 255
3 183 132 65 255 255 255
3 132 310 65 255 255 255
3 132 206 310 255 255 255
3 132 269 206 255 255 255
3 184 66 132 255 255 255
3 133 279 95 255 255 255
3 177 242 133 255 255 255
3 179 134 75 255 255 255
3 134 190 75 255 255 255
3 179 280 134 255 255 255
3 126 135 280 255 255 255
3 135 79 280 255 255 255
3 135 281 79 255 255 255
3 57 281 135 255 255 255
3 57 195 281 255 255 255
3 170 92 57 255 255 255
3 162 178 75 255 255 255
3 219 218 164 255 255 255
3 219 194 218 255 255 255
3 163 306 219 255 255 255
3 34 228 306 255 255 255
3 34 225 228 255 255 255
3 225 229 228 255 255 255
3 226 229 225 255 255 255
3 225 69 226 255 255 255
3 227 69 70 255 255 255
3 150 221 227 255 255 255
3 245 191 221 255 255 255
3 245 248 191 255 255 255
3 295 249 245 255 255 255
3 246 249 295 255 255 255
3 58 283 54 255 255 255
3 47 284 55 255 255 255
3 47 285 284 255 255 255
3 46 286 285 255 255 255
3 59 273 258 255 255 255
3 81 286 273 255 255 255
3 40 305 287 255 255 255
3 180 272 305 255 255 255
3 60 176 181 255 255 255
3 41 62 60 255 255 255
3 82 247 7 255 255 255
3 61 283 82 255 255 255
3 62 288 60 255 255 255
3 63 94 62 255 255 255
3 64 94 63 255 255 255
3 65 310 63 255 255 255
3 66 97 132 255 255 255
3 279 236 95 255 255 255
3 133 262 279 255 255 255
3 134 282 190 255 255 255
3 280 79 134 255 255 255
3 281 263 79 255 255 255
3 170 190 92 255 255 255
3 282 92 190 255 255 255
3 282 265 92 255 255 255
3 228 35 306 255 255 255
3 229 230 228 255 255 255
3 227 221 69 255 255 255
3 283 266 54 255 255 255
3 58 284 283 255 255 255
3 284 61 55 255 255 255
3 285 15 284 255 255 255
3 285 199 272 255 255 255
3 286 199 285 255 255 255
3 286 81 199 255 255 255
3 286 199 273 255 255 255
3 287 303 40 255 255 255
3 180 93 272 255 255 255
3 60 196 176 255 255 255
3 288 196 60 255 255 255
3 247 197 7 255 255 255
3 82 251 247 255 255 255
3 62 94 288 255 255 255
3 310 187 63 255 255 255
3 206 8 310 255 255 255
3 132 97 269 255 255 255
3 66 67 97 255 255 255
3 262 236 279 255 255 255
3 134 195 282 255 255 255
3 79 263 195 255 255 255
3 263 264 195 255 255 255
3 195 264 281 255 255 255
3 264 267 281 255 255 255
3 92 263 57 255 255 255
3 265 198 92 255 255 255
3 35 98 306 255 255 255
3 230 254 228 255 255 255
3 248 140 191 255 255 255
3 249 248 245 255 255 255
3 249 250 248 255 255 255
3 250 252 248 255 255 255
3 249 246 250 255 255 255
3 246 253 250 255 255 255
3 246 251 253 255 255 255
3 54 266 246 255 255 255
3 266 82 246 255 255 255
3 284 15 61 255 255 255
3 285 93 15 255 255 255
3 81 303 199 255 255 255
3 93 176 272 255 255 255
3 196 305 176 255 255 255
3 197 9 7 255 255 255
3 251 253 247 255 255 255
3 94 64 288 255 255 255
3 187 64 63 255 255 255
3 310 96 187 255 255 255
3 310 8 96 255 255 255
3 67 275 97 255 255 255
3 95 67 66 255 255 255
3 95 236 67 255 255 255
3 66 184 95 255 255 255
3 263 271 264 255 255 255
3 267 308 281 255 255 255
3 264 105 267 255 255 255
3 263 308 57 255 255 255
3 198 267 92 255 255 255
3 229 226 230 255 255 255
3 248 309 140 255 255 255
3 252 309 248 255 255 255
3 253 252 250 255 255 255
3 15 41 61 255 255 255
3 196 99 305 255 255 255
3 199 287 272 255 255 255
3 288 101 196 255 255 255
3 247 96 197 255 255 255
3 96 268 187 255 255 255
3 268 204 187 255 255 255
3 96 68 268 255 255 255
3 206 253 8 255 255 255
3 269 207 0 255 255 255
3 97 207 269 255 255 255
3 275 207 97 255 255 255
3 270 232 236 255 255 255
3 195 134 79 255 255 255
3 271 209 264 255 255 255
3 267 271 308 255 255 255
3 264 265 105 255 255 255
3 265 200 198 255 255 255
3 98 202 306 255 255 255
3 35 36 98 255 255 255
3 254 217 228 255 255 255
3 140 254 191 255 255 255
3 253 206 252 255 255 255
3 253 7 247 255 255 255
3 196 101 99 255 255 255
3 287 305 272 255 255 255
3 288 299 101 255 255 255
3 197 68 9 255 255 255
3 268 11 204 255 255 255
3 68 289 268 255 255 255
3 96 247 68 255 255 255
3 269 252 206 255 255 255
3 136 138 0 255 255 255
3 236 232 67 255 255 255
3 270 10 232 255 255 255
3 271 263 308 255 255 255
3 200 100 198 255 255 255
3 265 240 200 255 255 255
3 264 240 265 255 255 255
3 201 219 306 255 255 255
3 306 202 201 255 255 255
3 202 262 201 255 255 255
3 203 202 98 255 255 255
3 203 220 202 255 255 255
3 35 141 36 255 255 255
3 254 137 217 255 255 255
3 254 230 191 255 255 255
3 252 138 309 255 255 255
3 188 210 99 255 255 255
3 99 101 188 255 255 255
3 68 289 9 255 255 255
3 187 204 64 255 255 255
3 268 28 11 255 255 255
3 68 2 289 255 255 255
3 275 214 207 255 255 255
3 67 232 275 255 255 255
3 263 281 308 255 255 255
3 100 261 198 255 255 255
3 264 209 240 255 255 255
3 202 220 262 255 255 255
3 220 270 262 255 255 255
3 36 233 98 255 255 255
3 36 107 233 255 255 255
3 141 37 36 255 255 255
3 142 141 35 255 255 255
3 35 14 142 255 255 255
3 137 1 217 255 255 255
3 254 140 137 255 255 255
3 230 226 191 255 255 255
3 138 137 309 255 255 255
3 252 0 138 255 255 255
3 188 172 210 255 255 255
3 101 299 188 255 255 255
3 289 6 9 255 255 255
3 204 288 64 255 255 255
3 204 145 288 255 255 255
3 28 145 11 255 255 255
3 289 28 268 255 255 255
3 0 12 136 255 255 255
3 207 12 0 255 255 255
3 214 12 207 255 255 255
3 232 214 275 255 255 255
3 91 240 209 255 255 255
3 91 121 240 255 255 255
3 261 105 198 255 255 255
3 200 139 100 255 255 255
3 220 10 270 255 255 255
3 203 10 220 255 255 255
3 203 233 76 255 255 255
3 98 233 203 255 255 255
3 36 108 107 255 255 255
3 37 108 36 255 255 255
3 14 3 142 255 255 255
3 1 119 217 255 255 255
3 137 138 1 255 255 255
3 289 106 6 255 255 255
3 145 299 288 255 255 255
3 145 274 299 255 255 255
3 204 11 145 255 255 255
3 2 4 289 255 255 255
3 12 119 136 255 255 255
3 10 76 232 255 255 255
3 91 171 121 255 255 255
3 139 125 100 255 255 255
3 240 290 200 255 255 255
3 107 109 233 255 255 255
3 108 109 107 255 255 255
3 37 110 108 255 255 255
3 3 111 142 255 255 255
3 14 231 3 255 255 255
3 119 231 217 255 255 255
3 1 136 119 255 255 255
3 188 215 172 255 255 255
3 56 78 188 255 255 255
3 274 188 299 255 255 255
3 274 216 188 255 255 255
3 145 255 274 255 255 255
3 71 28 289 255 255 255
3 214 239 260 255 255 255
3 232 239 214 255 255 255
3 76 239 232 255 255 255
3 10 203 76 255 255 255
3 261 271 105 255 255 255
3 261 311 209 255 255 255
3 139 77 125 255 255 255
3 290 213 205 255 255 255
3 233 117 76 255 255 255
3 233 256 117 255 255 255
3 109 256 233 255 255 255
3 108 112 109 255 255 255
3 110 112 108 255 255 255
3 141 143 37 255 255 255
3 111 148 142 255 255 255
3 119 12 231 255 255 255
3 188 78 215 255 255 255
3 188 102 56 255 255 255
3 255 216 274 255 255 255
3 255 237 216 255 255 255
3 71 243 28 255 255 255
3 289 4 71 255 255 255
3 4 297 71 255 255 255
3 2 5 4 255 255 255
3 12 260 278 255 255 255
3 12 214 260 255 255 255
3 239 117 260 255 255 255
3 76 260 239 255 255 255
3 121 77 240 255 255 255
3 261 209 271 255 255 255
3 311 91 209 255 255 255
3 77 213 125 255 255 255
3 37 144 110 255 255 255
3 143 144 37 255 255 255
3 143 146 144 255 255 255
3 141 142 143 255 255 255
3 142 148 143 255 255 255
3 3 278 111 255 255 255
3 231 278 3 255 255 255
3 12 278 231 255 255 255
3 215 234 172 255 255 255
3 215 291 234 255 255 255
3 56 301 78 255 255 255
3 102 216 56 255 255 255
3 216 102 188 255 255 255
3 237 74 216 255 255 255
3 255 243 237 255 255 255
3 243 255 28 255 255 255
3 255 145 28 255 255 255
3 297 243 71 255 255 255
3 260 256 278 255 255 255
3 260 10 239 255 255 255
3 121 73 77 255 255 255
3 109 113 256 255 255 255
3 112 113 109 255 255 255
3 144 147 110 255 255 255
3 143 148 146 255 255 255
3 234 122 172 255 255 255
3 215 238 291 255 255 255
3 301 302 78 255 255 255
3 56 216 192 255 255 255
3 216 173 192 255 255 255
3 74 173 216 255 255 255
3 237 208 74 255 255 255
3 243 80 237 255 255 255
3 297 122 243 255 255 255
3 278 256 111 255 255 255
3 256 260 117 255 255 255
3 171 189 121 255 255 255
3 311 171 91 255 255 255
3 261 125 311 255 255 255
3 213 293 125 255 255 255
3 112 147 113 255 255 255
3 110 147 112 255 255 255
3 146 147 144 255 255 255
3 172 122 210 255 255 255
3 234 291 122 255 255 255
3 238 241 291 255 255 255
3 302 241 78 255 255 255
3 301 257 302 255 255 255
3 56 298 301 255 255 255
3 56 192 298 255 255 255
3 74 259 173 255 255 255
3 208 312 74 255 255 255
3 80 312 237 255 255 255
3 122 80 243 255 255 255
3 122 291 80 255 255 255
3 291 208 80 255 255 255
3 297 294 122 255 255 255
3 121 13 123 255 255 255
3 189 73 121 255 255 255
3 311 103 171 255 255 255
3 123 293 213 255 255 255
3 123 13 293 255 255 255
3 113 111 256 255 255 255
3 147 146 113 255 255 255
3 146 148 113 255 255 255
3 148 111 113 255 255 255
3 122 294 210 255 255 255
3 74 118 259 255 255 255
3 312 118 74 255 255 255
3 312 291 118 255 255 255
3 103 235 171 255 255 255
3 103 189 235 255 255 255
3 13 211 293 255 255 255
3 241 234 78 255 255 255
3 302 296 241 255 255 255
3 257 296 302 255 255 255
3 192 212 298 255 255 255
3 297 5 294 255 255 255
3 189 211 13 255 255 255
3 301 193 257 255 255 255
3 298 193 301 255 255 255
3 173 276 192 255 255 255
3 173 118 276 255 255 255
3 297 4 5 255 255 255
3 211 103 293 255 255 255
3 291 276 118 255 255 255
3 291 238 276 255 255 255
3 174 238 296 255 255 255
3 298 124 193 255 255 255
3 212 292 298 255 255 255
3 192 259 212 255 255 255
3 5 175 294 255 255 255
3 2 6 5 255 255 255
3 238 212 276 255 255 255
3 174 212 238 255 255 255
3 296 72 174 255 255 255
3 257 300 296 255 255 255
3 257 193 300 255 255 255
3 298 16 124 255 255 255
3 292 16 298 255 255 255
3 212 174 292 255 255 255
3 175 99 294 255 255 255
3 5 106 175 255 255 255
3 6 277 5 255 255 255
3 72 160 174 255 255 255
3 296 300 72 255 255 255
3 124 300 193 255 255 255
3 174 160 292 255 255 255
3 160 104 292 255 255 255
3 5 277 106 255 255 255
3 300 104 72 255 255 255
3 124 29 300 255 255 255
3 244 29 124 255 255 255
3 16 120 124 255 255 255
3 16 292 120 255 255 255
3 292 104 120 255 255 255
3 104 160 72 255 255 255
3 124 120 244 255 255 255
3 300 29 104 255 255 255
3 104 244 120 255 255 255
3 104 29 244 255 255 255
3 304 304 304 255 255 255
