ply
format ascii 1.0
element vertex 335
property float x
property float y
property float z
element face 576
property list uchar int vertex_indices
property uchar red
property uchar green
property uchar blue
end_header
5.86073160171508789 8.3689727783203125 -0.810900866985321045
5.83324480056762695 8.37132835388183594 -0.751287221908569336
5.82207441329956055 8.32543182373046875 -0.692183256149291992
5.88022327423095703 8.28672504425048828 -0.772199630737304688
5.92730379104614258 8.30192089080810547 -0.736388206481933594
5.93159246444702148 8.36722755432128906 -0.705908775329589844
5.89910602569580078 8.33763790130615234 -0.726977348327636719
5.85699987411499023 8.31299972534179688 -0.773000001907348633
5.90011692047119141 8.32632350921630859 -0.816911697387695312
5.8503413200378418 8.32748222351074219 -0.752305746078491211
5.90000009536743164 8.33800029754638672 -0.828999996185302734
5.90499973297119141 8.30862045288085938 -0.764527082443237305
5.88700008392333984 8.30700016021728516 -0.765999972820281982
5.93599987030029297 8.34300041198730469 -0.753000020980834961
5.94299983978271484 8.32400035858154297 -0.745000004768371582
5.94801902770996094 8.32447052001953125 -0.727642655372619629
5.96976518630981445 8.33435916900634766 -0.708969652652740479
5.9509425163269043 8.3429107666015625 -0.709702789783477783
5.93300008773803711 8.35000038146972656 -0.734000027179718018
5.93355798721313477 8.31314373016357422 -0.714383542537689209
5.9447779655456543 8.35008144378662109 -0.722919762134552002
5.84000015258789062 8.34899997711181641 -0.75
5.87923192977905273 8.29357242584228516 -0.852589428424835205
5.84258365631103516 8.34698677062988281 -0.76530158519744873
5.85799980163574219 8.32699966430664062 -0.722000002861022949
5.88257503509521484 8.28283309936523438 -0.871392130851745605
5.81803655624389648 8.3183135986328125 -0.705757498741149902
5.8467564582824707 8.32481002807617188 -0.783132255077362061
5.85300016403198242 8.36800003051757812 -0.772000014781951904
5.85506343841552734 8.32197856903076172 -0.73626631498336792
5.87699985504150391 8.31299972534179688 -0.785000026226043701
5.8340001106262207 8.39200019836425781 -0.746999979019165039
5.87758493423461914 8.36825847625732422 -0.819273650646209717
5.90093564987182617 8.32957077026367188 -0.840079843997955322
5.85932111740112305 8.32355976104736328 -0.730976641178131104
5.86791515350341797 8.33800411224365234 -0.842956185340881348
5.89449977874755859 8.31349945068359375 -0.830999970436096191
5.87049484252929688 8.37871456146240234 -0.784075379371643066
5.85834550857543945 8.35261249542236328 -0.818792462348937988
5.84276914596557617 8.3056182861328125 -0.802154660224914551
5.84404134750366211 8.36602592468261719 -0.736108243465423584
5.87176990509033203 8.29472827911376953 -0.843432366847991943
5.89646053314208984 8.3421478271484375 -0.709414660930633545
5.89706563949584961 8.33782482147216797 -0.695034980773925781
5.92500019073486328 8.34099960327148438 -0.759999990463256836
5.88193893432617188 8.34165287017822266 -0.762067973613739014
5.9228668212890625 8.32282066345214844 -0.704005002975463867
5.94580411911010742 8.33475685119628906 -0.688873469829559326
5.92500019073486328 8.31099987030029297 -0.740000009536743164
5.94234132766723633 8.29743003845214844 -0.736918866634368896
5.94372415542602539 8.29423809051513672 -0.717960476875305176
5.91332578659057617 8.35909748077392578 -0.712689518928527832
5.91170787811279297 8.35772228240966797 -0.723443925380706787
5.91400003433227539 8.32299995422363281 -0.75
5.91218805313110352 8.32561302185058594 -0.749115228652954102
5.91508865356445312 8.3286590576171875 -0.769751429557800293
5.85900020599365234 8.27600002288818359 -0.800999999046325684
5.87338542938232422 8.34217548370361328 -0.873007476329803467
5.89599990844726562 8.35400009155273438 -0.865000009536743164
5.84299993515014648 8.32600021362304688 -0.763999998569488525
5.8470001220703125 8.37699985504150391 -0.758000016212463379
5.87697267532348633 8.37899875640869141 -0.848858892917633057
5.8619999885559082 8.30500030517578125 -0.834999978542327881
5.87599992752075195 8.34200000762939453 -0.861000001430511475
5.88000011444091797 8.35400009155273438 -0.856999993324279785
5.85349273681640625 8.35384654998779297 -0.803469598293304443
5.86999988555908203 8.32999992370605469 -0.848999977111816406
5.90500020980834961 8.31499958038330078 -0.763000011444091797
5.90947723388671875 8.36458396911621094 -0.881051301956176758
5.85400009155273438 8.38500022888183594 -0.787000000476837158
5.84490680694580078 8.35337162017822266 -0.781761646270751953
5.84999990463256836 8.34799957275390625 -0.735000014305114746
5.87400007247924805 8.34300041198730469 -0.860000014305114746
5.93927669525146484 8.32241249084472656 -0.686855912208557129
5.81699991226196289 8.35099983215332031 -0.712999999523162842
5.90400028228759766 8.36649990081787109 -0.884999990463256836
5.83938741683959961 8.27735328674316406 -0.803606569766998291
5.83716297149658203 8.31081771850585938 -0.717345833778381348
5.91630697250366211 8.35889339447021484 -0.880010366439819336
5.88767433166503906 8.29994487762451172 -0.863802433013916016
5.84499979019165039 8.38399982452392578 -0.776000022888183594
5.90199995040893555 8.34399986267089844 -0.781000018119812012
5.90745925903320312 8.32123851776123047 -0.783090412616729736
5.86378765106201172 8.34019279479980469 -0.765401244163513184
5.82899999618530273 8.36800003051757812 -0.728999972343444824
5.88100004196166992 8.30000019073486328 -0.873000025749206543
5.91728878021240234 8.34384727478027344 -0.701424956321716309
5.81699991226196289 8.34899997711181641 -0.726000010967254639
5.92999982833862305 8.33100032806396484 -0.759999990463256836
5.86321592330932617 8.36123561859130859 -0.837963700294494629
5.94664096832275391 8.31846904754638672 -0.698032200336456299
5.94216156005859375 8.34419441223144531 -0.739314138889312744
5.93282890319824219 8.30601882934570312 -0.7464333176612854
5.85400009155273438 8.35299968719482422 -0.752999842166900635
5.87486600875854492 8.30677032470703125 -0.771173536777496338
5.89524698257446289 8.30233860015869141 -0.770462572574615479
5.88700008392333984 8.32800006866455078 -0.80699998140335083
5.86700010299682617 8.33699989318847656 -0.734000027179718018
5.85910463333129883 8.37650680541992188 -0.748157083988189697
5.85880422592163086 8.39586257934570312 -0.757211744785308838
5.84200000762939453 8.28400039672851562 -0.81099998950958252
5.81756305694580078 8.34542465209960938 -0.72387993335723877
5.86050033569335938 8.28699970245361328 -0.809000015258789062
5.85059690475463867 8.37910270690917969 -0.782447338104248047
5.86071252822875977 8.35397052764892578 -0.870583474636077881
5.8521728515625 8.31325531005859375 -0.835051536560058594
5.82599020004272461 8.3852081298828125 -0.750972270965576172
5.91859245300292969 8.31424140930175781 -0.725811779499053955
5.90941667556762695 8.33073616027832031 -0.735404491424560547
5.92513036727905273 8.33269214630126953 -0.720411241054534912
5.92000007629394531 8.33600044250488281 -0.709999978542327881
5.96578741073608398 8.32469558715820312 -0.720329582691192627
5.95201826095581055 8.30729484558105469 -0.738878488540649414
5.94099998474121094 8.31599998474121094 -0.740000009536743164
5.96282958984375 8.31937217712402344 -0.692925393581390381
5.97658967971801758 8.32793617248535156 -0.716418147087097168
5.95771694183349609 8.30868053436279297 -0.722898185253143311
5.86972236633300781 8.37205219268798828 -0.793628871440887451
5.84970951080322266 8.31531143188476562 -0.703691661357879639
5.83699989318847656 8.32600021362304688 -0.763999998569488525
5.87174463272094727 8.33049964904785156 -0.725655138492584229
5.88000011444091797 8.35200023651123047 -0.842000007629394531
5.88605403900146484 8.30219745635986328 -0.832801461219787598
5.86800003051757812 8.34000015258789062 -0.731999993324279785
5.89599990844726562 8.31700038909912109 -0.883000016212463379
5.85599994659423828 8.37699985504150391 -0.856999993324279785
5.84600019454956055 8.28100013732910156 -0.808000028133392334
5.85575008392333984 8.3443756103515625 -0.880124986171722412
5.85500001907348633 8.37100028991699219 -0.847999989986419678
5.84399986267089844 8.38399982452392578 -0.763000011444091797
5.84999990463256836 8.34899997711181641 -0.727999985218048096
5.86262798309326172 8.32228851318359375 -0.840687572956085205
5.85358905792236328 8.30372333526611328 -0.819599270820617676
5.85625791549682617 8.36205959320068359 -0.839410006999969482
5.85711336135864258 8.29881477355957031 -0.762655436992645264
5.89699983596801758 8.35099983215332031 -0.857999980449676514
5.87099981307983398 8.33199977874755859 -0.732999980449676514
5.88172245025634766 8.34036350250244141 -0.889151275157928467
5.90098953247070312 8.33460903167724609 -0.820821046829223633
5.8960108757019043 8.33852386474609375 -0.846599340438842773
5.87200021743774414 8.31599998474121094 -0.845000028610229492
5.85194206237792969 8.38785171508789062 -0.806262016296386719
5.86887741088867188 8.37477397918701172 -0.861322939395904541
5.89598178863525391 8.31374073028564453 -0.854455113410949707
5.85213756561279297 8.32214832305908203 -0.81287616491317749
5.87699985504150391 8.33699989318847656 -0.731999993324279785
5.82200002670288086 8.34399986267089844 -0.736999988555908203
5.87415361404418945 8.37674617767333984 -0.806766986846923828
5.83273983001708984 8.31095600128173828 -0.690379440784454346
5.87708282470703125 8.3569488525390625 -0.876313507556915283
5.84878301620483398 8.39493370056152344 -0.736167311668395996
5.88899993896484375 8.31599998474121094 -0.879999995231628418
5.88091373443603516 8.28888893127441406 -0.886241137981414795
5.86647224426269531 8.28704547882080078 -0.859149932861328125
5.89159631729125977 8.32816982269287109 -0.700916528701782227
5.85921287536621094 8.35584163665771484 -0.881481587886810303
5.90100002288818359 8.31599998474121094 -0.88200002908706665
5.88000011444091797 8.34000015258789062 -0.86799997091293335
5.83799982070922852 8.36200046539306641 -0.751999974250793457
5.84499979019165039 8.32900047302246094 -0.755999982357025146
5.83239126205444336 8.36079311370849609 -0.707063138484954834
5.89545822143554688 8.33895111083984375 -0.890241563320159912
5.84193563461303711 8.26856040954589844 -0.801664769649505615
5.87200021743774414 8.31200027465820312 -0.861000001430511475
5.86667346954345703 8.37551021575927734 -0.847463250160217285
5.85072660446166992 8.31037425994873047 -0.826788783073425293
5.82899999618530273 8.37399959564208984 -0.75700002908706665
5.86989879608154297 8.38221168518066406 -0.759426772594451904
5.86041784286499023 8.26675319671630859 -0.77513045072555542
5.85300016403198242 8.34000015258789062 -0.785000026226043701
5.87300014495849609 8.36699962615966797 -0.805000007152557373
5.84500026702880859 8.31100082397460938 -0.837999999523162842
5.91100645065307617 8.34567928314208984 -0.866875827312469482
5.87917709350585938 8.34698867797851562 -0.884006202220916748
5.81144380569458008 8.35679054260253906 -0.720338582992553711
5.88650035858154297 8.32399940490722656 -0.77499997615814209
5.90600013732910156 8.33699989318847656 -0.787999987602233887
5.90500020980834961 8.33100032806396484 -0.791000008583068848
5.89897584915161133 8.35586833953857422 -0.780218720436096191
5.88069915771484375 8.28490352630615234 -0.764456868171691895
5.9029998779296875 8.33899974822998047 -0.787999987602233887
5.87322807312011719 8.27218246459960938 -0.779307246208190918
5.92897796630859375 8.327239990234375 -0.698114752769470215
5.90518045425415039 8.33595561981201172 -0.707430243492126465
5.93043136596679688 8.34728336334228516 -0.704495072364807129
5.84729337692260742 8.31692790985107422 -0.728880882263183594
5.86120796203613281 8.34600448608398438 -0.829154431819915771
5.84999990463256836 8.35799980163574219 -0.763000011444091797
5.92074298858642578 8.34571552276611328 -0.735357403755187988
5.81515264511108398 8.35183334350585938 -0.736671984195709229
5.90600013732910156 8.35099983215332031 -0.885999977588653564
5.83199977874755859 8.319000244140625 -0.721000015735626221
5.84273147583007812 8.33622264862060547 -0.761261820793151855
5.84200000762939453 8.30000019073486328 -0.781000018119812012
5.83699989318847656 8.35000038146972656 -0.718999981880187988
5.84148025512695312 8.27064418792724609 -0.777127325534820557
5.85383749008178711 8.32914161682128906 -0.800571560859680176
5.86416101455688477 8.39234733581542969 -0.772683262825012207
5.86600017547607422 8.30099964141845703 -0.85000002384185791
5.868499755859375 8.34650039672851562 -0.860499978065490723
5.83997678756713867 8.33386993408203125 -0.748345792293548584
5.87386941909790039 8.38692665100097656 -0.806972920894622803
5.84577560424804688 8.38022136688232422 -0.808807313442230225
5.8672337532043457 8.36490249633789062 -0.815678060054779053
5.8400421142578125 8.28715038299560547 -0.773984432220458984
5.87178659439086914 8.29483699798583984 -0.800939559936523438
5.9310002326965332 8.33699989318847656 -0.758000016212463379
5.85200023651123047 8.28999996185302734 -0.814999997615814209
5.84599971771240234 8.33749961853027344 -0.776999950408935547
5.88600015640258789 8.31599998474121094 -0.787000000476837158
5.84499979019165039 8.30500030517578125 -0.787999987602233887
5.82180070877075195 8.33435630798339844 -0.694593310356140137
5.82187271118164062 8.32217502593994141 -0.717325568199157715
5.84800004959106445 8.37800025939941406 -0.785000026226043701
5.88199996948242188 8.31000041961669922 -0.864000022411346436
5.86480093002319336 8.34210300445556641 -0.873071849346160889
5.82800006866455078 8.38300037384033203 -0.740000009536743164
5.82003164291381836 8.37978076934814453 -0.72918391227722168
5.84448432922363281 8.32687473297119141 -0.741611897945404053
5.90600013732910156 8.33600044250488281 -0.71799999475479126
5.85138654708862305 8.39783000946044922 -0.74314272403717041
5.85119915008544922 8.37975788116455078 -0.806679189205169678
5.93200016021728516 8.32299995422363281 -0.751999974250793457
5.8396453857421875 8.30476188659667969 -0.7081146240234375
5.88600015640258789 8.35200023651123047 -0.85000002384185791
5.85794878005981445 8.34304714202880859 -0.72483140230178833
5.84977293014526367 8.33746051788330078 -0.704896867275238037
5.87599992752075195 8.35700035095214844 -0.804000020027160645
5.8189997673034668 8.33199977874755859 -0.708999991416931152
5.89939498901367188 8.35612869262695312 -0.879629969596862793
5.8340001106262207 8.32199954986572266 -0.735000014305114746
5.87799978256225586 8.34399986267089844 -0.794000029563903809
5.86720943450927734 8.29754924774169922 -0.818897426128387451
5.89421415328979492 8.32325458526611328 -0.885025143623352051
5.83599996566772461 8.28899955749511719 -0.799000024795532227
5.95000839233398438 8.33127975463867188 -0.730731725692749023
5.9159998893737793 8.34099960327148438 -0.778999984264373779
5.88712358474731445 8.30196285247802734 -0.776030123233795166
5.88700008392333984 8.30399990081787109 -0.763999998569488525
5.89599990844726562 8.32199954986572266 -0.790000021457672119
5.86530351638793945 8.3516998291015625 -0.769081652164459229
5.91549968719482422 8.32649993896484375 -0.777000010013580322
5.92873477935791016 8.33101367950439453 -0.766797661781311035
5.8752288818359375 8.31716823577880859 -0.766724228858947754
5.85410308837890625 8.3172149658203125 -0.771697103977203369
5.8592991828918457 8.33245277404785156 -0.756119847297668457
5.86378765106201172 8.37157344818115234 -0.766430497169494629
5.82612085342407227 8.33207225799560547 -0.724496006965637207
5.83427858352661133 8.34549140930175781 -0.704650342464447021
5.85045576095581055 8.39192962646484375 -0.763590812683105469
5.86399984359741211 8.38099956512451172 -0.809000015258789062
5.88100004196166992 8.35000038146972656 -0.788999974727630615
5.92615985870361328 8.3576202392578125 -0.742640018463134766
5.81410694122314453 8.36856651306152344 -0.727643787860870361
5.88100004196166992 8.34500026702880859 -0.808000028133392334
5.90758609771728516 8.35718917846679688 -0.848218917846679688
5.87277078628540039 8.31039237976074219 -0.798905253410339355
5.90700006484985352 8.34099960327148438 -0.873000025749206543
5.90799999237060547 8.35400009155273438 -0.865000009536743164
5.88399982452392578 8.34899997711181641 -0.832000017166137695
5.84604692459106445 8.33201026916503906 -0.691512823104858398
5.86834716796875 8.36600780487060547 -0.841338276863098145
5.92569732666015625 8.30391979217529297 -0.748649299144744873
5.88039493560791016 8.35299777984619141 -0.778783261775970459
5.90479040145874023 8.34929943084716797 -0.772610604763031006
5.93932723999023438 8.35687065124511719 -0.716304004192352295
5.92287397384643555 8.36266613006591797 -0.718243777751922607
5.94566917419433594 8.35162544250488281 -0.703787267208099365
5.93699979782104492 8.3339996337890625 -0.759000003337860107
5.85907220840454102 8.33693504333496094 -0.748983323574066162
5.86083412170410156 8.36940765380859375 -0.753403365612030029
5.8694300651550293 8.28871726989746094 -0.765648305416107178
5.84499979019165039 8.36999988555908203 -0.797999978065490723
5.90500020980834961 8.34099960327148438 -0.785000026226043701
5.89699983596801758 8.33500003814697266 -0.791999995708465576
5.89200019836425781 8.34799957275390625 -0.779999971389770508
5.85667753219604492 8.35622787475585938 -0.746536970138549805
5.91552019119262695 8.33427715301513672 -0.751015126705169678
5.92000007629394531 8.32299995422363281 -0.754999995231628418
5.90100002288818359 8.31400012969970703 -0.768000006675720215
5.92116975784301758 8.33079814910888672 -0.76861107349395752
5.89599990844726562 8.33199977874755859 -0.778999984264373779
5.9102168083190918 8.34176921844482422 -0.774054348468780518
5.84044075012207031 8.35997772216796875 -0.718553841114044189
5.86100006103515625 8.38450050354003906 -0.787999987602233887
5.85799980163574219 8.37899971008300781 -0.861999988555908203
5.85824728012084961 8.37370491027832031 -0.852924704551696777
5.83300018310546875 8.32100009918212891 -0.727999985218048096
5.84941434860229492 8.36328887939453125 -0.809123098850250244
5.88813209533691406 8.32503700256347656 -0.862176954746246338
5.90354442596435547 8.33636283874511719 -0.861524522304534912
5.9304957389831543 8.30101585388183594 -0.717998087406158447
5.83957910537719727 8.32765960693359375 -0.770880281925201416
5.83099985122680664 8.3339996337890625 -0.745000004768371582
5.87200021743774414 8.36499977111816406 -0.78200000524520874
5.8340001106262207 8.38099956512451172 -0.755999982357025146
5.84350013732910156 8.33850002288818359 -0.759500026702880859
5.88748931884765625 8.31394386291503906 -0.819027423858642578
5.83487462997436523 8.28236293792724609 -0.779734611511230469
5.80771350860595703 8.35957813262939453 -0.733457386493682861
5.87699985504150391 8.32999992370605469 -0.768000006675720215
5.84899997711181641 8.31599998474121094 -0.768000006675720215
5.85375070571899414 8.37450408935546875 -0.861808657646179199
5.84299993515014648 8.37699985504150391 -0.737999975681304932
5.86620569229125977 8.29086494445800781 -0.801728308200836182
5.84299993515014648 8.37800025939941406 -0.75700002908706665
5.82100009918212891 8.34399986267089844 -0.708500027656555176
5.86999988555908203 8.35400009155273438 -0.843999981880187988
5.88100004196166992 8.34000015258789062 -0.861000001430511475
5.82560825347900391 8.34990024566650391 -0.743719637393951416
5.87899971008300781 8.35499954223632812 -0.809000015258789062
5.83799982070922852 8.29300022125244141 -0.790000021457672119
5.863800048828125 8.26448154449462891 -0.793810188770294189
5.87706518173217773 8.35603427886962891 -0.820297062397003174
1 1 1
5.89606285095214844 8.33745098114013672 -0.808412849903106689
5.8661198616027832 8.29354476928710938 -0.86428678035736084
5.85712528228759766 8.33331966400146484 -0.718752741813659668
5.87699985504150391 8.31999969482421875 -0.853999972343444824
5.88429164886474609 8.33721637725830078 -0.876227438449859619
5.84266948699951172 8.39925861358642578 -0.759097814559936523
5.84845495223999023 8.33061790466308594 -0.828062295913696289
5.89799976348876953 8.34899997711181641 -0.884999990463256836
5.8837285041809082 8.27866268157958984 -0.789816141128540039
5.87699985504150391 8.31000041961669922 -0.862999975681304932
5.85099983215332031 8.32600021362304688 -0.764999985694885254
5.86888790130615234 8.28616714477539062 -0.829845070838928223
5.82489824295043945 8.37372016906738281 -0.741174817085266113
5.88299989700317383 8.35299968719482422 -0.876999974250793457
5.82200002670288086 8.34000015258789062 -0.716000020503997803
5.85799980163574219 8.38500022888183594 -0.795000016689300537
5.82600021362304688 8.38599967956542969 -0.736000001430511475
5.85200023651123047 8.27700042724609375 -0.802999973297119141
5.83272218704223633 8.34021759033203125 -0.742748558521270752
5.89099979400634766 8.30399990081787109 -0.77499997615814209
3 112 15 116 255 255 255
3 15 111 116 255 255 255
3 112 113 15 255 255 255
3 112 14 113 255 255 255
3 15 235 111 255 255 255
3 113 235 15 255 255 255
3 111 114 116 255 255 255
3 113 14 235 255 255 255
3 14 91 235 255 255 255
3 114 50 116 255 255 255
3 114 90 50 255 255 255
3 115 114 111 255 255 255
3 116 49 112 255 255 255
3 116 50 49 255 255 255
3 90 19 50 255 255 255
3 111 16 115 255 255 255
3 91 20 235 255 255 255
3 49 92 112 255 255 255
3 114 73 90 255 255 255
3 115 16 114 255 255 255
3 49 262 92 255 255 255
3 50 19 291 255 255 255
3 91 18 20 255 255 255
3 13 18 91 255 255 255
3 49 4 262 255 255 255
3 50 4 49 255 255 255
3 50 291 4 255 255 255
3 90 46 19 255 255 255
3 114 47 73 255 255 255
3 16 17 114 255 255 255
3 17 47 114 255 255 255
3 16 20 17 255 255 255
3 18 265 20 255 255 255
3 19 4 291 255 255 255
3 90 73 46 255 255 255
3 20 267 17 255 255 255
3 20 265 267 255 255 255
3 19 107 4 255 255 255
3 19 109 107 255 255 255
3 46 110 19 255 255 255
3 47 182 73 255 255 255
3 17 267 47 255 255 255
3 48 107 92 255 255 255
3 92 222 48 255 255 255
3 48 222 262 255 255 255
3 262 4 48 255 255 255
3 107 48 4 255 255 255
3 108 54 107 255 255 255
3 109 108 107 255 255 255
3 19 110 109 255 255 255
3 110 219 109 255 255 255
3 46 183 110 255 255 255
3 182 86 46 255 255 255
3 46 73 182 255 255 255
3 47 267 182 255 255 255
3 265 5 267 255 255 255
3 266 5 265 255 255 255
3 92 14 222 255 255 255
3 4 262 92 255 255 255
3 110 183 219 255 255 255
3 183 6 219 255 255 255
3 182 184 86 255 255 255
3 182 267 184 255 255 255
3 267 5 184 255 255 255
3 14 268 222 255 255 255
3 5 51 184 255 255 255
3 268 206 222 255 255 255
3 108 277 54 255 255 255
3 108 219 6 255 255 255
3 183 154 6 255 255 255
3 184 51 86 255 255 255
3 5 266 51 255 255 255
3 266 52 51 255 255 255
3 268 13 206 255 255 255
3 108 188 277 255 255 255
3 6 188 108 255 255 255
3 183 43 154 255 255 255
3 183 86 43 255 255 255
3 51 42 86 255 255 255
3 52 42 51 255 255 255
3 13 44 206 255 255 255
3 53 278 54 255 255 255
3 54 67 53 255 255 255
3 55 67 54 255 255 255
3 54 277 55 255 255 255
3 6 52 188 255 255 255
3 42 52 6 255 255 255
3 43 6 154 255 255 255
3 42 43 86 255 255 255
3 42 6 43 255 255 255
3 44 277 206 255 255 255
3 277 88 206 255 255 255
3 278 222 54 255 255 255
3 53 55 278 255 255 255
3 55 279 67 255 255 255
3 277 282 55 255 255 255
3 44 282 277 255 255 255
3 52 252 188 255 255 255
3 279 11 67 255 255 255
3 55 82 279 255 255 255
3 55 280 278 255 255 255
3 55 281 82 255 255 255
3 280 242 278 255 255 255
3 55 241 280 255 255 255
3 55 11 241 255 255 255
3 279 12 11 255 255 255
3 281 175 82 255 255 255
3 282 264 81 255 255 255
3 11 82 241 255 255 255
3 12 238 11 255 255 255
3 281 45 175 255 255 255
3 264 275 81 255 255 255
3 18 188 252 255 255 255
3 241 236 280 255 255 255
3 11 279 82 255 255 255
3 11 95 279 255 255 255
3 238 95 11 255 255 255
3 12 243 238 255 255 255
3 175 239 82 255 255 255
3 45 300 175 255 255 255
3 275 180 81 255 255 255
3 264 45 275 255 255 255
3 241 282 236 255 255 255
3 95 12 279 255 255 255
3 95 334 12 255 255 255
3 238 3 95 255 255 255
3 12 175 243 255 255 255
3 175 209 239 255 255 255
3 180 273 81 255 255 255
3 282 236 264 255 255 255
3 242 268 88 255 255 255
3 280 44 242 255 255 255
3 236 282 280 255 255 255
3 282 55 280 255 255 255
3 282 176 236 255 255 255
3 241 82 282 255 255 255
3 334 237 12 255 255 255
3 238 179 3 255 255 255
3 175 334 209 255 255 255
3 45 83 300 255 255 255
3 55 242 280 255 255 255
3 176 273 236 255 255 255
3 239 177 82 255 255 255
3 239 274 177 255 255 255
3 237 94 12 255 255 255
3 3 323 95 255 255 255
3 175 300 243 255 255 255
3 273 264 236 255 255 255
3 177 176 82 255 255 255
3 274 315 177 255 255 255
3 239 281 274 255 255 255
3 237 30 94 255 255 255
3 243 7 94 255 255 255
3 45 240 83 255 255 255
3 240 93 83 255 255 255
3 178 263 45 255 255 255
3 45 264 178 255 255 255
3 264 81 178 255 255 255
3 177 180 176 255 255 255
3 274 96 315 255 255 255
3 237 209 30 255 255 255
3 179 181 3 255 255 255
3 94 238 243 255 255 255
3 94 179 238 255 255 255
3 94 271 179 255 255 255
3 7 134 94 255 255 255
3 243 244 7 255 255 255
3 83 93 245 255 255 255
3 93 276 245 255 255 255
3 45 263 240 255 255 255
3 263 294 240 255 255 255
3 96 8 315 255 255 255
3 181 323 3 255 255 255
3 179 168 181 255 255 255
3 94 134 271 255 255 255
3 7 301 134 255 255 255
3 244 301 7 255 255 255
3 244 325 301 255 255 255
3 245 325 83 255 255 255
3 276 269 245 255 255 255
3 240 270 93 255 255 255
3 246 270 240 255 255 255
3 263 251 294 255 255 255
3 96 297 8 255 255 255
3 181 312 323 255 255 255
3 179 271 168 255 255 255
3 325 9 301 255 255 255
3 244 27 325 255 255 255
3 245 9 325 255 255 255
3 269 9 245 255 255 255
3 270 276 93 255 255 255
3 246 167 270 255 255 255
3 8 138 315 255 255 255
3 271 195 168 255 255 255
3 27 208 325 255 255 255
3 218 29 269 255 255 255
3 269 200 218 255 255 255
3 167 98 270 255 255 255
3 263 275 251 255 255 255
3 8 33 138 255 255 255
3 96 256 297 255 255 255
3 168 312 181 255 255 255
3 271 134 204 255 255 255
3 27 169 208 255 255 255
3 9 29 218 255 255 255
3 269 97 9 255 255 255
3 218 34 29 255 255 255
3 269 296 200 255 255 255
3 167 99 98 255 255 255
3 263 178 275 255 255 255
3 10 259 138 255 255 255
3 138 33 10 255 255 255
3 36 33 8 255 255 255
3 8 297 36 255 255 255
3 271 204 195 255 255 255
3 208 296 325 255 255 255
3 169 70 208 255 255 255
3 27 196 169 255 255 255
3 244 210 27 255 255 255
3 218 192 9 255 255 255
3 97 145 9 255 255 255
3 200 333 218 255 255 255
3 296 21 200 255 255 255
3 296 23 21 255 255 255
3 71 21 276 255 255 255
3 276 130 71 255 255 255
3 276 98 40 255 255 255
3 98 276 270 255 255 255
3 99 220 98 255 255 255
3 246 37 167 255 255 255
3 138 254 315 255 255 255
3 33 139 10 255 255 255
3 297 122 36 255 255 255
3 256 205 297 255 255 255
3 312 205 304 255 255 255
3 312 168 162 255 255 255
3 168 195 162 255 255 255
3 298 162 195 255 255 255
3 298 76 162 255 255 255
3 195 204 298 255 255 255
3 134 244 204 255 255 255
3 208 23 296 255 255 255
3 70 23 208 255 255 255
3 27 39 196 255 255 255
3 210 39 27 255 255 255
3 244 193 210 255 255 255
3 192 159 9 255 255 255
3 34 185 29 255 255 255
3 97 123 145 255 255 255
3 218 185 34 255 255 255
3 21 333 200 255 255 255
3 23 187 21 255 255 255
3 71 333 21 255 255 255
3 130 225 71 255 255 255
3 276 283 130 255 255 255
3 40 283 276 255 255 255
3 150 303 98 255 255 255
3 98 220 150 255 255 255
3 37 197 167 255 255 255
3 246 294 37 255 255 255
3 122 143 36 255 255 255
3 232 122 297 255 255 255
3 297 205 232 255 255 255
3 312 56 205 255 255 255
3 204 193 298 255 255 255
3 134 301 244 255 255 255
3 296 159 325 255 255 255
3 23 28 187 255 255 255
3 70 28 23 255 255 255
3 70 103 28 255 255 255
3 169 65 70 255 255 255
3 196 65 169 255 255 255
3 210 311 39 255 255 255
3 159 59 9 255 255 255
3 192 119 159 255 255 255
3 218 293 192 255 255 255
3 185 230 29 255 255 255
3 97 225 123 255 255 255
3 187 158 21 255 255 255
3 225 269 71 255 255 255
3 283 194 130 255 255 255
3 283 160 194 255 255 255
3 40 84 283 255 255 255
3 98 303 40 255 255 255
3 294 117 37 255 255 255
3 143 33 36 255 255 255
3 232 326 122 255 255 255
3 205 102 232 255 255 255
3 256 304 205 255 255 255
3 56 102 205 255 255 255
3 312 162 56 255 255 255
3 298 234 76 255 255 255
3 311 234 298 255 255 255
3 28 246 187 255 255 255
3 196 38 65 255 255 255
3 144 38 196 255 255 255
3 144 321 38 255 255 255
3 196 39 144 255 255 255
3 59 301 9 255 255 255
3 59 292 301 255 255 255
3 293 296 192 255 255 255
3 185 287 230 255 255 255
3 185 118 77 255 255 255
3 333 230 218 255 255 255
3 247 287 333 255 255 255
3 158 309 21 255 255 255
3 160 248 194 255 255 255
3 84 160 283 255 255 255
3 40 303 84 255 255 255
3 303 217 84 255 255 255
3 220 320 150 255 255 255
3 167 197 99 255 255 255
3 37 284 197 255 255 255
3 201 284 37 255 255 255
3 117 201 37 255 255 255
3 117 147 201 255 255 255
3 33 290 139 255 255 255
3 41 22 122 255 255 255
3 122 326 41 255 255 255
3 102 326 232 255 255 255
3 56 332 102 255 255 255
3 76 126 162 255 255 255
3 234 100 76 255 255 255
3 103 80 28 255 255 255
3 38 0 65 255 255 255
3 38 321 186 255 255 255
3 39 132 144 255 255 255
3 100 207 39 255 255 255
3 100 126 207 255 255 255
3 59 119 292 255 255 255
3 293 333 296 255 255 255
3 185 77 287 255 255 255
3 77 118 223 255 255 255
3 185 24 118 255 255 255
3 247 191 287 255 255 255
3 333 146 247 255 255 255
3 158 1 309 255 255 255
3 248 329 194 255 255 255
3 84 253 160 255 255 255
3 303 216 217 255 255 255
3 320 31 150 255 255 255
3 99 197 320 255 255 255
3 201 330 284 255 255 255
3 139 135 255 255 255 255
3 143 289 33 255 255 255
3 122 22 143 255 255 255
3 326 132 41 255 255 255
3 102 207 326 255 255 255
3 56 312 304 255 255 255
3 126 332 162 255 255 255
3 213 284 103 255 255 255
3 103 272 213 255 255 255
3 0 288 65 255 255 255
3 38 203 0 255 255 255
3 321 35 186 255 255 255
3 321 131 35 255 255 255
3 321 105 131 255 255 255
3 144 105 321 255 255 255
3 144 165 105 255 255 255
3 207 132 39 255 255 255
3 100 234 126 255 255 255
3 293 309 333 255 255 255
3 24 120 118 255 255 255
3 185 29 24 255 255 255
3 101 329 247 255 255 255
3 146 101 247 255 255 255
3 329 101 194 255 255 255
3 248 228 329 255 255 255
3 306 211 160 255 255 255
3 160 74 306 255 255 255
3 253 174 160 255 255 255
3 84 217 253 255 255 255
3 216 331 217 255 255 255
3 216 31 331 255 255 255
3 320 106 31 255 255 255
3 320 220 99 255 255 255
3 197 80 249 255 255 255
3 284 69 197 255 255 255
3 117 32 147 255 255 255
3 135 172 255 255 255 255
3 139 290 135 255 255 255
3 290 172 135 255 255 255
3 290 257 172 255 255 255
3 289 290 33 255 255 255
3 22 79 143 255 255 255
3 22 25 79 255 255 255
3 41 153 22 255 255 255
3 62 198 41 255 255 255
3 132 62 41 255 255 255
3 132 165 62 255 255 255
3 126 102 332 255 255 255
3 272 221 213 255 255 255
3 38 227 203 255 255 255
3 186 313 38 255 255 255
3 165 62 105 255 255 255
3 132 165 144 255 255 255
3 119 192 292 255 255 255
3 293 146 309 255 255 255
3 29 120 24 255 255 255
3 146 87 101 255 255 255
3 1 189 309 255 255 255
3 1 299 189 255 255 255
3 158 305 1 255 255 255
3 228 247 329 255 255 255
3 248 260 226 255 255 255
3 211 248 160 255 255 255
3 306 228 211 255 255 255
3 160 174 74 255 255 255
3 217 299 253 255 255 255
3 216 303 31 255 255 255
3 249 129 320 255 255 255
3 320 197 249 255 255 255
3 69 103 197 255 255 255
3 201 141 330 255 255 255
3 117 170 32 255 255 255
3 170 310 32 255 255 255
3 143 214 289 255 255 255
3 79 214 143 255 255 255
3 79 85 214 255 255 255
3 85 151 214 255 255 255
3 79 25 85 255 255 255
3 22 153 25 255 255 255
3 198 316 41 255 255 255
3 62 131 198 255 255 255
3 165 171 62 255 255 255
3 221 330 213 255 255 255
3 0 272 288 255 255 255
3 35 307 186 255 255 255
3 131 66 35 255 255 255
3 192 325 292 255 255 255
3 146 189 309 255 255 255
3 293 247 146 255 255 255
3 223 191 77 255 255 255
3 223 118 148 255 255 255
3 226 260 118 255 255 255
3 118 317 226 255 255 255
3 87 74 101 255 255 255
3 1 327 299 255 255 255
3 327 253 299 255 255 255
3 327 331 253 255 255 255
3 1 295 327 255 255 255
3 158 60 305 255 255 255
3 228 26 247 255 255 255
3 211 260 248 255 255 255
3 2 260 211 255 255 255
3 306 101 228 255 255 255
3 299 87 174 255 255 255
3 253 299 174 255 255 255
3 320 295 106 255 255 255
3 129 1 320 255 255 255
3 249 60 129 255 255 255
3 141 69 330 255 255 255
3 310 313 32 255 255 255
3 170 227 310 255 255 255
3 257 190 172 255 255 255
3 289 319 290 255 255 255
3 214 324 289 255 255 255
3 25 152 85 255 255 255
3 41 316 153 255 255 255
3 198 163 316 255 255 255
3 171 105 62 255 255 255
3 221 250 330 255 255 255
3 272 0 221 255 255 255
3 170 117 0 255 255 255
3 0 203 170 255 255 255
3 313 310 38 255 255 255
3 186 307 313 255 255 255
3 307 121 313 255 255 255
3 35 121 307 255 255 255
3 66 72 35 255 255 255
3 131 140 66 255 255 255
3 140 318 66 255 255 255
3 131 62 140 255 255 255
3 223 212 191 255 255 255
3 148 2 223 255 255 255
3 118 260 148 255 255 255
3 118 120 317 255 255 255
3 327 303 331 255 255 255
3 228 211 26 255 255 255
3 2 148 260 255 255 255
3 295 166 106 255 255 255
3 141 202 69 255 255 255
3 250 141 201 255 255 255
3 250 0 141 255 255 255
3 201 147 250 255 255 255
3 258 255 172 255 255 255
3 172 68 258 255 255 255
3 190 78 172 255 255 255
3 257 322 190 255 255 255
3 289 157 319 255 255 255
3 324 318 289 255 255 255
3 153 316 25 255 255 255
3 198 140 163 255 255 255
3 171 165 105 255 255 255
3 272 202 288 255 255 255
3 313 121 259 255 255 255
3 72 199 35 255 255 255
3 66 63 72 255 255 255
3 2 26 223 255 255 255
3 120 123 317 255 255 255
3 136 145 120 255 255 255
3 120 9 136 255 255 255
3 26 212 247 255 255 255
3 225 130 317 255 255 255
3 166 327 106 255 255 255
3 202 213 69 255 255 255
3 227 251 310 255 255 255
3 172 78 68 255 255 255
3 322 161 190 255 255 255
3 157 57 319 255 255 255
3 289 308 157 255 255 255
3 324 163 318 255 255 255
3 152 316 85 255 255 255
3 316 152 25 255 255 255
3 316 324 85 255 255 255
3 202 221 288 255 255 255
3 72 64 199 255 255 255
3 66 308 63 255 255 255
3 212 223 26 255 255 255
3 123 225 317 255 255 255
3 120 29 9 255 255 255
3 26 77 212 255 255 255
3 203 147 32 255 255 255
3 310 231 254 255 255 255
3 251 231 310 255 255 255
3 190 75 78 255 255 255
3 324 316 163 255 255 255
3 202 141 221 255 255 255
3 72 224 64 255 255 255
3 190 229 75 255 255 255
3 322 319 161 255 255 255
3 157 63 57 255 255 255
3 64 149 199 255 255 255
3 75 229 68 255 255 255
3 319 233 161 255 255 255
3 322 328 319 255 255 255
3 57 72 215 255 255 255
3 199 104 215 255 255 255
3 149 104 199 255 255 255
3 229 258 68 255 255 255
3 229 58 258 255 255 255
3 319 290 233 255 255 255
3 322 229 328 255 255 255
3 322 257 229 255 255 255
3 257 58 229 255 255 255
3 57 137 319 255 255 255
3 57 215 137 255 255 255
3 215 173 137 255 255 255
3 104 127 215 255 255 255
3 64 328 149 255 255 255
3 58 255 258 255 255 255
3 161 233 137 255 255 255
3 127 173 215 255 255 255
3 149 155 104 255 255 255
3 149 173 155 255 255 255
3 151 124 233 255 255 255
3 173 319 137 255 255 255
3 127 155 173 255 255 255
3 151 156 124 255 255 255
3 156 233 124 255 255 255
3 142 261 164 255 255 255
3 164 285 142 255 255 255
3 128 285 164 255 255 255
3 164 133 128 255 255 255
3 261 89 164 255 255 255
3 285 302 142 255 255 255
3 164 89 133 255 255 255
3 261 121 89 255 255 255
3 61 261 142 255 255 255
3 61 286 261 255 255 255
3 286 128 261 255 255 255
3 285 125 302 255 255 255
3 128 133 261 255 255 255
3 286 125 128 255 255 255
3 61 142 286 255 255 255
3 314 314 314 255 255 255
