ply
format ascii 1.0
element vertex 306
property float x
property float y
property float z
element face 576
property list uchar int vertex_indices
property uchar red
property uchar green
property uchar blue
end_header
1.37000000476837158 4.97099971771240234 -0.858000040054321289
1.31400001049041748 5.03999996185302734 -0.875
1.36800003051757812 4.96500015258789062 -0.856999993324279785
1.32799994945526123 5.02099990844726562 -0.874000012874603271
1.31599998474121094 5.05000019073486328 -0.892000019550323486
1.37049996852874756 5.03600025177001953 -0.977999985218048096
1.3320000171661377 5.00199985504150391 -0.916999995708465576
1.33584845066070557 5.02791881561279297 -0.970161259174346924
1.36600005626678467 5 -0.912000000476837158
1.3320000171661377 5.03000020980834961 -0.962999999523162842
1.33800005912780762 5.02099990844726562 -0.962999999523162842
1.33899998664855957 5.01200008392333984 -0.926999986171722412
1.34800004959106445 5.00799989700317383 -0.913999974727630615
1.34700000286102295 5.01000022888183594 -0.898999989032745361
1.34834468364715576 5.00009584426879883 -0.886752426624298096
1.30999994277954102 5.0279998779296875 -0.916000008583068848
1.36899995803833008 4.97399997711181641 -0.958999991416931152
1.38836121559143066 4.98662710189819336 -0.964197039604187012
1.39100003242492676 4.99650001525878906 -0.97350001335144043
1.34800004959106445 4.96299982070922852 -0.991999983787536621
1.35599994659423828 4.97800016403198242 -0.966000020503997803
1.37699997425079346 4.98899984359741211 -0.958000004291534424
1.34399998188018799 4.98600006103515625 -0.970000028610229492
1.35699999332427979 4.97800016403198242 -0.959999978542327881
1.36874997615814209 4.98600006103515625 -0.956749975681304932
1.3739999532699585 4.99599981307983398 -0.955999970436096191
1.3200000524520874 5.00400018692016602 -0.916000008583068848
1.33899998664855957 5.03200006484985352 -0.913999974727630615
1.37300002574920654 4.98899984359741211 -0.894999980926513672
1.34099996089935303 5.00799989700317383 -0.938000023365020752
1.34000003337860107 5.01800012588500977 -0.906000018119812012
1.29400002956390381 5.02699995040893555 -0.893000006675720215
1.38399994373321533 5.01800012588500977 -0.998000025749206543
1.38074994087219238 5.04500007629394531 -0.965000033378601074
1.3609999418258667 5.00699996948242188 -0.99299997091293335
1.34200000762939453 4.99300003051757812 -0.990000009536743164
1.32701957225799561 4.96702289581298828 -0.990036666393280029
1.33899998664855957 4.97900009155273438 -0.994000017642974854
1.35380327701568604 4.98877525329589844 -0.945376873016357422
1.34399998188018799 4.98799991607666016 -0.938000023365020752
1.36049997806549072 4.99925041198730469 -0.941499948501586914
1.37693476676940918 5.04358196258544922 -0.952534675598144531
1.32299995422363281 4.97599983215332031 -0.987999975681304932
1.33000004291534424 4.97100019454956055 -0.99299997091293335
1.30049991607666016 5.03700017929077148 -0.898000001907348633
1.35899996757507324 4.96400022506713867 -0.887000024318695068
1.30346560478210449 5.03136587142944336 -0.884617269039154053
1.32500004768371582 5.03900003433227539 -0.888999998569488525
1.30799996852874756 5.05087471008300781 -0.879124999046325684
1.30949997901916504 5.03250026702880859 -0.903999984264373779
1.32899999618530273 4.98600006103515625 -0.995000004768371582
1.37849998474121094 4.95650005340576172 -0.853500008583068848
1.33899998664855957 5.00600004196166992 -0.93900001049041748
1.36800003051757812 4.99324989318847656 -0.90474998950958252
1.34500002861022949 4.99499988555908203 -0.893000006675720215
1.34099996089935303 4.98600006103515625 -0.888000011444091797
1.36575007438659668 4.96800041198730469 -0.889999985694885254
1.37199997901916504 4.97399997711181641 -0.896000027656555176
1.37333345413208008 4.98270750045776367 -0.891210675239562988
1.37487828731536865 4.9710545539855957 -0.887953042984008789
1.38100004196166992 4.98400020599365234 -0.873000025749206543
1.36199402809143066 4.96886539459228516 -0.884759783744812012
1.38302171230316162 4.95953845977783203 -0.876163005828857422
1.35199999809265137 4.96099996566772461 -0.876999974250793457
1.30250000953674316 5.04850006103515625 -0.889999985694885254
1.29799997806549072 5.02899980545043945 -0.896000027656555176
1.34700000286102295 5.01350021362304688 -0.928499996662139893
1.38549995422363281 5.0494999885559082 -0.957249999046325684
1.37212502956390381 5.05224990844726562 -0.962999999523162842
1.375 5.04400014877319336 -0.96799999475479126
1.36910343170166016 5.02499771118164062 -0.996842443943023682
1.36800003051757812 5.02899980545043945 -0.986999988555908203
1.34899997711181641 5.01700019836425781 -0.984000027179718018
1.33299994468688965 5.00799989700317383 -0.958999991416931152
1.36000001430511475 5.00699996948242188 -0.936999976634979248
1.35500001907348633 5.01800012588500977 -0.94300001859664917
1.35710203647613525 5.03264045715332031 -0.956025123596191406
1.39100003242492676 4.96850013732910156 -0.868999958038330078
1.30624997615814209 5.05325031280517578 -0.884999990463256836
1.34899997711181641 4.97100019454956055 -0.919000029563903809
1.34031808376312256 5.02234077453613281 -0.927562534809112549
1.37700009346008301 5.006500244140625 -0.991999983787536621
1.40199995040893555 5.01100015640258789 -0.982999980449676514
1.40000009536743164 5.02099990844726562 -0.981999993324279785
1.39199995994567871 5.00099992752075195 -0.981000006198883057
1.3957899808883667 5.00121116638183594 -0.987040102481842041
1.39400005340576172 5.00600004196166992 -0.97500002384185791
1.38300001621246338 5.02400016784667969 -0.972000002861022949
1.37999999523162842 5.03700017929077148 -0.987999975681304932
1.37599992752075195 5.00800037384033203 -0.964500010013580322
1.375 5.02199983596801758 -0.959999978542327881
1.31200003623962402 5.04600000381469727 -0.898000001907348633
1.35399997234344482 5.01900005340576172 -0.980000019073486328
1.35300004482269287 5.01200008392333984 -0.934000015258789062
1.34599995613098145 5.02899980545043945 -0.949000000953674316
1.3483506441116333 5.0288543701171875 -0.96184086799621582
1.3347848653793335 5.01779747009277344 -0.960448980331420898
1.34000003337860107 5.01999998092651367 -0.944000005722045898
1.3294442892074585 5.00775718688964844 -0.922844171524047852
1.3560175895690918 5.00484848022460938 -0.908419013023376465
1.33500003814697266 5.02600002288818359 -0.955999970436096191
1.34700000286102295 5.0130000114440918 -0.904999971389770508
1.33299994468688965 5.02500009536743164 -0.898999989032745361
1.37999999523162842 4.98299980163574219 -0.870000004768371582
1.34200000762939453 5.01000022888183594 -0.959999978542327881
1.37699997425079346 5.02099990844726562 -1.00699996948242188
1.33384811878204346 4.99238777160644531 -1.01252639293670654
1.3200000524520874 4.96799993515014648 -1.00699996948242188
1.33150005340576172 5.02750015258789062 -0.966499984264373779
1.34099996089935303 5.03700017929077148 -0.915000021457672119
1.29550004005432129 5.04049968719482422 -0.886500000953674316
1.37800002098083496 4.9720001220703125 -0.888000011444091797
1.39499998092651367 4.95800018310546875 -0.841000020503997803
1.3619999885559082 4.96199989318847656 -0.870000004768371582
1.31500005722045898 5.03000020980834961 -0.889999985694885254
1.38199996948242188 4.96700000762939453 -0.847000002861022949
1.38499999046325684 4.96250009536743164 -0.846500039100646973
1.32599997520446777 5.03299999237060547 -0.916000008583068848
1.3320000171661377 5.03399991989135742 -0.884999990463256836
1.34700000286102295 4.96999979019165039 -1.0010000467300415
1.33001923561096191 4.98501062393188477 -1.00601673126220703
1.32999026775360107 4.97957277297973633 -1.01165568828582764
1.34099996089935303 4.97599983215332031 -1.00899994373321533
1.35599994659423828 4.96899986267089844 -1.00699996948242188
1.36600005626678467 4.96500015258789062 -1.00800001621246338
1.38999998569488525 4.98799991607666016 -1.01600003242492676
1.39199995994567871 4.99100017547607422 -1.02199995517730713
1.37000000476837158 4.99399995803833008 -1.02799999713897705
1.36300003528594971 4.99300003051757812 -1.02900004386901855
1.31199610233306885 5.01773214340209961 -0.901604712009429932
1.36399996280670166 4.99100017547607422 -0.890999972820281982
1.3609999418258667 4.98000001907348633 -0.880999982357025146
1.36292850971221924 4.96003055572509766 -0.8810386061668396
1.35899996757507324 5.00099992752075195 -0.894999980926513672
1.37199997901916504 4.97700023651123047 -0.865999996662139893
1.39661812782287598 4.96551084518432617 -0.850014269351959229
1.37300002574920654 4.95699977874755859 -0.857999980449676514
1.38199996948242188 4.95300006866455078 -0.84299999475479126
1.3652108907699585 4.96337032318115234 -0.997527599334716797
1.34500002861022949 4.98999977111816406 -0.885999977588653564
1.37100005149841309 4.96099996566772461 -0.880999982357025146
1.37699997425079346 4.96199989318847656 -0.845000028610229492
1.37899994850158691 4.95100021362304688 -0.865000009536743164
1.37100005149841309 4.99499988555908203 -1.00999999046325684
1.37100005149841309 4.99399995803833008 -1.02100002765655518
1.35699999332427979 4.99700021743774414 -1.02199995517730713
1.36600005626678467 4.98400020599365234 -1.02199995517730713
1.35000002384185791 4.98899984359741211 -1.02799999713897705
1.36194181442260742 4.98199367523193359 -1.03007316589355469
1.3609999418258667 4.98299980163574219 -1.02199995517730713
1.36899995803833008 4.99300003051757812 -1.01800000667572021
1.35199999809265137 4.99399995803833008 -1.02100002765655518
1.34800004959106445 4.98299980163574219 -1.02799999713897705
1.3190000057220459 5.04199981689453125 -0.903999984264373779
1.38999998569488525 4.95399999618530273 -0.848999977111816406
1.37999999523162842 4.99700021743774414 -0.964999973773956299
1.32799994945526123 5.03999996185302734 -0.878000020980834961
1.38049995899200439 4.96150016784667969 -0.879999995231628418
1.33000004291534424 5.02299976348876953 -0.89999997615814209
1.37275004386901855 4.96374988555908203 -0.853250026702880859
1.31925010681152344 5.02775001525878906 -0.894749999046325684
1.35199999809265137 5.00500011444091797 -0.917999982833862305
1.33099997043609619 5.02400016784667969 -0.896000027656555176
1.36899995803833008 5.03299999237060547 -0.96799999475479126
1.37699997425079346 5.03599977493286133 -0.99299997091293335
1.36000001430511475 5.00500011444091797 -0.933000028133392334
1.34700000286102295 5.01900005340576172 -0.94300001859664917
1.31615686416625977 5.02102422714233398 -0.916622698307037354
1.32799994945526123 5.00799989700317383 -0.913999974727630615
1.31599998474121094 5.01599979400634766 -0.902000010013580322
1.35399997234344482 4.99399995803833008 -0.981000006198883057
1.33941459655761719 4.98545598983764648 -0.920490920543670654
1.35300004482269287 4.98950004577636719 -0.921500027179718018
1.34599995613098145 4.99100017547607422 -0.910000026226043701
1.35500001907348633 4.98299980163574219 -0.906000018119812012
1.35099995136260986 4.98600006103515625 -0.919000029563903809
1.35599994659423828 4.98899984359741211 -0.910000026226043701
1.36000001430511475 4.99599981307983398 -0.922999978065490723
1.34476697444915771 4.99518918991088867 -0.903198361396789551
1.36500000953674316 4.9869999885559082 -0.906000018119812012
1.37699997425079346 4.99100017547607422 -0.866999983787536621
1.38987493515014648 4.97212505340576172 -0.858625054359436035
1.3890000581741333 4.96799993515014648 -0.847000002861022949
1.31200003623962402 5.05100011825561523 -0.88200002908706665
1.38499999046325684 5.0149998664855957 -1.01100003719329834
1.37199997901916504 5.01200008392333984 -1.03199994564056396
1.3619999885559082 5.01999998092651367 -0.973999977111816406
1.33500003814697266 5.03700017929077148 -0.894999980926513672
1.38199996948242188 5.01800012588500977 -1.0010000467300415
1.39800000190734863 5.00099992752075195 -1.01600003242492676
1.3320000171661377 5.03250026702880859 -0.913500010967254639
1.35500001907348633 5 -1.00699996948242188
1.36800003051757812 5.02500009536743164 -0.953999996185302734
1.37000000476837158 5.0279998779296875 -1.01800000667572021
1.33800947666168213 5.01200151443481445 -0.94699704647064209
1.35399997234344482 4.98099994659423828 -1.0140000581741333
1.36386537551879883 4.97754430770874023 -1.01084530353546143
1.37199997901916504 4.97399997711181641 -1.00499999523162842
1.34099996089935303 4.99499988555908203 -1.00899994373321533
1.34000003337860107 4.9869999885559082 -1.0140000581741333
1.31940913200378418 4.97305870056152344 -1.00138998031616211
1.32872867584228516 5.0341486930847168 -0.87802588939666748
1.37100005149841309 4.99800014495849609 -1.03100001811981201
1.37299621105194092 4.98599576950073242 -1.00199711322784424
1.375 4.95399999618530273 -0.861999988555908203
1.36600005626678467 4.96899986267089844 -0.86799997091293335
1.3619999885559082 4.96600008010864258 -0.874000012874603271
1.31400001049041748 5.05949974060058594 -0.888499975204467773
1.34899997711181641 5.01200008392333984 -0.985000014305114746
1.36800003051757812 5.00300025939941406 -0.955999970436096191
1.37199997901916504 5.04799985885620117 -0.952000021934509277
1.35899996757507324 5.01399993896484375 -0.986999988555908203
1.34500002861022949 5.00199985504150391 -0.962000012397766113
1.33806908130645752 5.00199270248413086 -0.951043069362640381
1.34099996089935303 5 -0.945999979972839355
1.35500001907348633 5.01200008392333984 -0.944000005722045898
1.36142611503601074 5.03252696990966797 -0.95486682653427124
1.36894094944000244 5.05577516555786133 -0.957772612571716309
1.3619999885559082 4.98099994659423828 -0.90149998664855957
1.38499999046325684 4.97599983215332031 -0.878499984741210938
1.31836032867431641 5.04418277740478516 -0.880662262439727783
1.3307499885559082 5.01774978637695312 -0.921750009059906006
1.38399994373321533 5.00899982452392578 -0.986000001430511475
1.38699996471405029 5.01700019836425781 -0.986999988555908203
1.40199995040893555 5.01800012588500977 -0.986999988555908203
1.3739999532699585 5.00500011444091797 -1.00300002098083496
1.37800002098083496 5.0130000114440918 -1.0010000467300415
1.37699997425079346 5.00099992752075195 -1.02199995517730713
1.37199997901916504 5.01100015640258789 -1.01800000667572021
1.37199997901916504 5.0149998664855957 -1.02600002288818359
1.37800002098083496 5.01999998092651367 -1.01100003719329834
1.37100005149841309 5.00099992752075195 -1.00199997425079346
1.3619999885559082 5.0279998779296875 -1.01499998569488525
1.3619999885559082 5.02299976348876953 -1.01600003242492676
1.37300002574920654 5.02600002288818359 -1.01199996471405029
1.34599995613098145 5.02600002288818359 -0.944999992847442627
1.31799995899200439 5.04850006103515625 -0.896499991416931152
1.375 4.98600006103515625 -0.870999991893768311
1.32099997997283936 5.00400018692016602 -0.921000003814697266
1.33899998664855957 5.02500009536743164 -0.955999970436096191
1.32164192199707031 5.03973865509033203 -0.898924589157104492
1.37299990653991699 4.99450016021728516 -0.99449998140335083
1.38399994373321533 4.99599981307983398 -0.986999988555908203
1.38100004196166992 4.98799991607666016 -0.985000014305114746
1.39249670505523682 4.98681068420410156 -0.973098516464233398
1.38199996948242188 4.97599983215332031 -0.970000028610229492
1.37199997901916504 4.97800016403198242 -0.990999996662139893
1.36500000953674316 4.97499990463256836 -0.97500002384185791
1.37300002574920654 4.97300004959106445 -0.996999979019165039
1.37048351764678955 4.97563457489013672 -0.980581462383270264
1.3609999418258667 4.96500015258789062 -0.987999975681304932
1.35000002384185791 5.0130000114440918 -0.978999972343444824
1.36450004577636719 5.00150012969970703 -0.927999973297119141
1.36600005626678467 5.00199985504150391 -0.922999978065490723
1.35000002384185791 4.99300003051757812 -0.967000007629394531
1.3405376672744751 5.02533245086669922 -0.920680820941925049
1.34099996089935303 4.98999977111816406 -0.995000004768371582
1.34899997711181641 4.96400022506713867 -0.999000012874603271
1.35300004482269287 4.9850001335144043 -0.966000020503997803
1.35399997234344482 4.98600006103515625 -0.955999970436096191
1.36300003528594971 4.9850001335144043 -0.952000021934509277
1.33300769329071045 4.96308517456054688 -0.998647391796112061
1.35244262218475342 4.97852277755737305 -0.988501906394958496
1.34300005435943604 4.9869999885559082 -0.987999975681304932
1.35300004482269287 4.98999977111816406 -0.953999996185302734
1.36214125156402588 4.99956274032592773 -0.949487805366516113
1.3207097053527832 4.97823238372802734 -0.98833543062210083
1.35000002384185791 4.99800014495849609 -0.955999970436096191
1.34300005435943604 4.99300003051757812 -0.94300001859664917
1.33500003814697266 4.99900007247924805 -0.934000015258789062
1.34800004959106445 4.98600006103515625 -0.933000028133392334
1.3210834264755249 4.98886680603027344 -0.996134400367736816
1.33800005912780762 4.98400020599365234 -0.927999973297119141
1.34599995613098145 4.97700023651123047 -0.921999990940093994
1.35850000381469727 4.9941253662109375 -0.931749999523162842
1.31299996376037598 5.0279998779296875 -0.907999992370605469
1.38399994373321533 5.03800010681152344 -0.966000020503997803
1.37520086765289307 5.04777288436889648 -0.975814223289489746
1.35699999332427979 5.00199985504150391 -0.995000004768371582
1.39900004863739014 5.0130000114440918 -0.976000010967254639
1.40249991416931152 5.02299976348876953 -0.993999958038330078
1.38300001621246338 5.00500011444091797 -0.967000007629394531
1.38999998569488525 5.01200008392333984 -0.976000010967254639
1.3890000581741333 5.02400016784667969 -0.973999977111816406
1.38199996948242188 5.03200006484985352 -0.981000006198883057
1.39600002765655518 5.02500009536743164 -0.989000022411346436
1.3200000524520874 5.04600000381469727 -0.875
1.38699996471405029 4.97499990463256836 -0.853999972343444824
1.32700002193450928 4.96099996566772461 -1
1.37300002574920654 4.95399999618530273 -0.847000002861022949
1 1 1
1.2929999828338623 5.03900003433227539 -0.892000019550323486
1.34575009346008301 4.98849964141845703 -0.897000014781951904
1.35399997234344482 4.97399997711181641 -0.898999989032745361
1.35599994659423828 4.9869999885559082 -0.890999972820281982
1.3890000581741333 4.96899986267089844 -0.875999987125396729
1.38999998569488525 4.97499990463256836 -0.865999996662139893
1.37199914455413818 4.99101400375366211 -0.873963654041290283
1.39699995517730713 4.96600008010864258 -0.859000027179718018
1.37199997901916504 4.95300006866455078 -0.870999991893768311
1.37199997901916504 4.95300006866455078 -0.864000022411346436
1.3880000114440918 4.95599985122680664 -0.864000022411346436
1.34500002861022949 5.01000022888183594 -0.904999971389770508
1.35599994659423828 4.97300004959106445 -0.97500002384185791
1.36800003051757812 5.01700019836425781 -1.00199997425079346
1.37800002098083496 4.9720001220703125 -0.852999985218048096
3 225 227 228 255 255 255
3 228 226 225 255 255 255
3 227 229 228 255 255 255
3 225 143 227 255 255 255
3 226 81 225 255 255 255
3 228 230 226 255 255 255
3 229 184 228 255 255 255
3 227 185 229 255 255 255
3 143 125 227 255 255 255
3 225 231 143 255 255 255
3 226 32 81 255 255 255
3 230 188 226 255 255 255
3 227 202 185 255 255 255
3 125 126 227 255 255 255
3 143 203 125 255 255 255
3 231 241 143 255 255 255
3 225 241 231 255 255 255
3 81 241 225 255 255 255
3 81 242 241 255 255 255
3 81 222 242 255 255 255
3 32 222 81 255 255 255
3 32 223 222 255 255 255
3 226 184 32 255 255 255
3 227 127 202 255 255 255
3 126 189 227 255 255 255
3 143 241 203 255 255 255
3 241 243 203 255 255 255
3 242 243 241 255 255 255
3 242 244 243 255 255 255
3 222 85 242 255 255 255
3 223 85 222 255 255 255
3 223 224 85 255 255 255
3 32 280 223 255 255 255
3 127 128 202 255 255 255
3 227 144 127 255 255 255
3 243 246 203 255 255 255
3 244 245 243 255 255 255
3 242 85 244 255 255 255
3 224 82 85 255 255 255
3 223 280 224 255 255 255
3 128 145 202 255 255 255
3 127 148 128 255 255 255
3 144 146 127 255 255 255
3 243 249 246 255 255 255
3 245 249 243 255 255 255
3 245 247 249 255 255 255
3 224 83 82 255 255 255
3 145 144 202 255 255 255
3 128 147 145 255 255 255
3 127 146 148 255 255 255
3 146 149 148 255 255 255
3 144 150 146 255 255 255
3 246 248 203 255 255 255
3 246 249 248 255 255 255
3 247 250 249 255 255 255
3 245 16 247 255 255 255
3 244 17 245 255 255 255
3 82 86 85 255 255 255
3 83 279 82 255 255 255
3 145 150 144 255 255 255
3 145 191 150 255 255 255
3 147 151 145 255 255 255
3 128 148 147 255 255 255
3 148 152 147 255 255 255
3 148 149 152 255 255 255
3 149 195 152 255 255 255
3 146 196 149 255 255 255
3 150 196 146 255 255 255
3 248 197 203 255 255 255
3 249 138 248 255 255 255
3 250 138 249 255 255 255
3 250 19 138 255 255 255
3 247 303 250 255 255 255
3 16 20 247 255 255 255
3 245 17 16 255 255 255
3 17 21 16 255 255 255
3 18 17 244 255 255 255
3 18 281 17 255 255 255
3 244 84 18 255 255 255
3 84 244 85 255 255 255
3 85 86 84 255 255 255
3 86 18 84 255 255 255
3 82 279 86 255 255 255
3 279 282 86 255 255 255
3 83 283 279 255 255 255
3 83 284 283 255 255 255
3 224 280 83 255 255 255
3 280 285 83 255 255 255
3 145 151 191 255 255 255
3 151 198 191 255 255 255
3 147 199 151 255 255 255
3 152 199 147 255 255 255
3 152 122 199 255 255 255
3 195 122 152 255 255 255
3 195 123 122 255 255 255
3 149 196 195 255 255 255
3 196 123 195 255 255 255
3 196 124 123 255 255 255
3 196 197 124 255 255 255
3 150 203 196 255 255 255
3 197 196 203 255 255 255
3 248 124 197 255 255 255
3 248 138 124 255 255 255
3 19 257 138 255 255 255
3 250 303 19 255 255 255
3 247 20 303 255 255 255
3 20 22 303 255 255 255
3 16 23 20 255 255 255
3 21 24 16 255 255 255
3 17 155 21 255 255 255
3 281 155 17 255 255 255
3 281 25 155 255 255 255
3 86 281 18 255 255 255
3 86 282 281 255 255 255
3 282 89 281 255 255 255
3 279 283 282 255 255 255
3 283 87 282 255 255 255
3 284 276 283 255 255 255
3 83 285 284 255 255 255
3 285 88 284 255 255 255
3 280 32 285 255 255 255
3 198 256 191 255 255 255
3 151 106 198 255 255 255
3 199 106 151 255 255 255
3 122 121 199 255 255 255
3 123 119 122 255 255 255
3 124 138 123 255 255 255
3 19 261 257 255 255 255
3 22 262 303 255 255 255
3 20 258 22 255 255 255
3 23 258 20 255 255 255
3 23 259 258 255 255 255
3 16 260 23 255 255 255
3 24 260 16 255 255 255
3 21 25 24 255 255 255
3 25 21 155 255 255 255
3 281 89 25 255 255 255
3 282 87 89 255 255 255
3 87 90 89 255 255 255
3 87 276 90 255 255 255
3 284 277 276 255 255 255
3 88 277 284 255 255 255
3 256 278 191 255 255 255
3 198 120 256 255 255 255
3 199 121 106 255 255 255
3 122 261 121 255 255 255
3 119 261 122 255 255 255
3 123 257 119 255 255 255
3 257 123 138 255 255 255
3 19 36 261 255 255 255
3 22 263 262 255 255 255
3 258 259 22 255 255 255
3 259 264 22 255 255 255
3 23 260 259 255 255 255
3 260 38 259 255 255 255
3 25 265 24 255 255 255
3 89 209 25 255 255 255
3 90 209 89 255 255 255
3 90 192 209 255 255 255
3 276 41 90 255 255 255
3 87 283 276 255 255 255
3 277 33 276 255 255 255
3 278 34 191 255 255 255
3 256 35 278 255 255 255
3 120 50 256 255 255 255
3 121 120 106 255 255 255
3 261 107 121 255 255 255
3 119 257 261 255 255 255
3 261 36 288 255 255 255
3 262 19 303 255 255 255
3 263 37 262 255 255 255
3 264 254 22 255 255 255
3 259 38 264 255 255 255
3 260 40 38 255 255 255
3 24 265 260 255 255 255
3 265 40 260 255 255 255
3 90 41 192 255 255 255
3 33 67 276 255 255 255
3 277 68 33 255 255 255
3 34 304 191 255 255 255
3 278 208 34 255 255 255
3 35 208 278 255 255 255
3 256 50 35 255 255 255
3 198 106 120 255 255 255
3 121 200 120 255 255 255
3 261 288 107 255 255 255
3 36 200 288 255 255 255
3 200 107 288 255 255 255
3 36 42 200 255 255 255
3 262 37 19 255 255 255
3 37 43 19 255 255 255
3 263 266 37 255 255 255
3 264 267 254 255 255 255
3 38 268 264 255 255 255
3 39 268 38 255 255 255
3 39 269 268 255 255 255
3 38 270 39 255 255 255
3 40 274 38 255 255 255
3 25 209 265 255 255 255
3 41 216 192 255 255 255
3 34 70 304 255 255 255
3 208 211 34 255 255 255
3 200 271 120 255 255 255
3 121 107 200 255 255 255
3 42 266 200 255 255 255
3 43 36 19 255 255 255
3 43 42 36 255 255 255
3 43 37 42 255 255 255
3 266 42 37 255 255 255
3 267 212 254 255 255 255
3 264 268 267 255 255 255
3 268 213 267 255 255 255
3 269 214 268 255 255 255
3 39 272 269 255 255 255
3 270 272 39 255 255 255
3 270 273 272 255 255 255
3 38 274 270 255 255 255
3 209 215 265 255 255 255
3 210 216 41 255 255 255
3 210 217 216 255 255 255
3 41 67 210 255 255 255
3 41 276 67 255 255 255
3 33 68 67 255 255 255
3 277 69 68 255 255 255
3 34 211 70 255 255 255
3 211 71 70 255 255 255
3 208 72 211 255 255 255
3 271 50 120 255 255 255
3 200 266 271 255 255 255
3 266 50 271 255 255 255
3 266 263 50 255 255 255
3 263 35 50 255 255 255
3 263 170 35 255 255 255
3 212 22 254 255 255 255
3 267 213 212 255 255 255
3 213 73 212 255 255 255
3 268 214 213 255 255 255
3 214 269 213 255 255 255
3 272 171 269 255 255 255
3 273 171 272 255 255 255
3 270 172 273 255 255 255
3 274 172 270 255 255 255
3 40 252 274 255 255 255
3 265 74 40 255 255 255
3 265 215 74 255 255 255
3 215 75 74 255 255 255
3 216 75 192 255 255 255
3 217 76 216 255 255 255
3 67 217 210 255 255 255
3 67 68 217 255 255 255
3 68 76 217 255 255 255
3 68 69 76 255 255 255
3 69 163 76 255 255 255
3 277 5 69 255 255 255
3 70 232 304 255 255 255
3 71 164 70 255 255 255
3 211 92 71 255 255 255
3 72 92 211 255 255 255
3 72 95 92 255 255 255
3 208 251 72 255 255 255
3 170 208 35 255 255 255
3 170 251 208 255 255 255
3 263 22 170 255 255 255
3 22 212 170 255 255 255
3 73 104 212 255 255 255
3 213 194 73 255 255 255
3 171 6 269 255 255 255
3 171 173 6 255 255 255
3 273 173 171 255 255 255
3 273 174 173 255 255 255
3 172 175 273 255 255 255
3 172 176 175 255 255 255
3 274 177 172 255 255 255
3 40 74 252 255 255 255
3 74 165 252 255 255 255
3 75 93 74 255 255 255
3 215 166 75 255 255 255
3 216 235 75 255 255 255
3 76 94 216 255 255 255
3 163 95 76 255 255 255
3 69 5 163 255 255 255
3 5 186 163 255 255 255
3 232 233 304 255 255 255
3 164 234 70 255 255 255
3 71 5 164 255 255 255
3 92 186 71 255 255 255
3 72 7 95 255 255 255
3 251 7 72 255 255 255
3 73 96 104 255 255 255
3 6 238 269 255 255 255
3 173 178 6 255 255 255
3 174 292 173 255 255 255
3 273 79 174 255 255 255
3 175 79 273 255 255 255
3 175 174 79 255 255 255
3 175 176 174 255 255 255
3 176 179 174 255 255 255
3 172 177 176 255 255 255
3 177 179 176 255 255 255
3 177 53 179 255 255 255
3 274 252 177 255 255 255
3 252 253 177 255 255 255
3 253 8 177 255 255 255
3 165 253 252 255 255 255
3 165 161 253 255 255 255
3 74 93 165 255 255 255
3 93 66 165 255 255 255
3 166 94 75 255 255 255
3 215 194 166 255 255 255
3 94 235 216 255 255 255
3 94 97 235 255 255 255
3 76 95 94 255 255 255
3 95 239 94 255 255 255
3 186 95 163 255 255 255
3 5 71 186 255 255 255
3 277 88 5 255 255 255
3 88 164 5 255 255 255
3 233 228 304 255 255 255
3 234 232 70 255 255 255
3 234 193 232 255 255 255
3 7 9 95 255 255 255
3 251 10 7 255 255 255
3 96 10 104 255 255 255
3 194 96 73 255 255 255
3 213 52 194 255 255 255
3 269 52 213 255 255 255
3 269 98 52 255 255 255
3 6 26 238 255 255 255
3 178 302 6 255 255 255
3 173 292 178 255 255 255
3 174 293 292 255 255 255
3 179 218 174 255 255 255
3 177 8 53 255 255 255
3 8 99 53 255 255 255
3 161 99 253 255 255 255
3 93 166 66 255 255 255
3 215 29 194 255 255 255
3 97 80 235 255 255 255
3 94 100 97 255 255 255
3 95 9 239 255 255 255
3 9 100 239 255 255 255
3 186 92 95 255 255 255
3 234 230 193 255 255 255
3 7 108 9 255 255 255
3 10 108 7 255 255 255
3 10 96 108 255 255 255
3 251 104 10 255 255 255
3 251 212 104 255 255 255
3 194 97 96 255 255 255
3 98 11 52 255 255 255
3 269 238 98 255 255 255
3 26 167 238 255 255 255
3 6 168 26 255 255 255
3 302 168 6 255 255 255
3 302 30 168 255 255 255
3 292 54 178 255 255 255
3 293 55 292 255 255 255
3 174 218 293 255 255 255
3 179 58 218 255 255 255
3 53 58 179 255 255 255
3 53 28 58 255 255 255
3 99 133 53 255 255 255
3 99 8 253 255 255 255
3 161 12 99 255 255 255
3 215 93 29 255 255 255
3 97 11 80 255 255 255
3 100 96 97 255 255 255
3 100 108 96 255 255 255
3 100 9 108 255 255 255
3 94 239 100 255 255 255
3 230 229 193 255 255 255
3 234 105 230 255 255 255
3 194 29 97 255 255 255
3 11 29 52 255 255 255
3 98 221 11 255 255 255
3 167 98 238 255 255 255
3 26 169 167 255 255 255
3 168 169 26 255 255 255
3 168 158 169 255 255 255
3 30 158 168 255 255 255
3 30 162 158 255 255 255
3 302 13 30 255 255 255
3 178 13 302 255 255 255
3 178 54 13 255 255 255
3 54 14 13 255 255 255
3 292 55 54 255 255 255
3 55 14 54 255 255 255
3 218 56 293 255 255 255
3 218 57 56 255 255 255
3 53 130 28 255 255 255
3 133 130 53 255 255 255
3 133 14 130 255 255 255
3 99 13 133 255 255 255
3 12 101 99 255 255 255
3 161 80 12 255 255 255
3 166 80 66 255 255 255
3 11 221 80 255 255 255
3 229 233 193 255 255 255
3 234 304 105 255 255 255
3 11 97 29 255 255 255
3 169 129 167 255 255 255
3 158 129 169 255 255 255
3 162 129 158 255 255 255
3 162 160 129 255 255 255
3 13 162 30 255 255 255
3 14 133 13 255 255 255
3 56 45 293 255 255 255
3 57 59 56 255 255 255
3 218 58 57 255 255 255
3 130 58 28 255 255 255
3 130 131 58 255 255 255
3 14 294 130 255 255 255
3 99 101 13 255 255 255
3 101 102 13 255 255 255
3 80 101 12 255 255 255
3 80 255 101 255 255 255
3 161 66 80 255 255 255
3 166 235 80 255 255 255
3 221 255 80 255 255 255
3 233 232 193 255 255 255
3 304 188 105 255 255 255
3 98 167 221 255 255 255
3 167 117 221 255 255 255
3 15 117 167 255 255 255
3 15 153 117 255 255 255
3 167 129 15 255 255 255
3 129 275 15 255 255 255
3 162 118 160 255 255 255
3 58 111 57 255 255 255
3 131 59 58 255 255 255
3 130 294 131 255 255 255
3 294 139 131 255 255 255
3 14 139 294 255 255 255
3 14 55 139 255 255 255
3 55 293 139 255 255 255
3 102 162 13 255 255 255
3 102 187 162 255 255 255
3 255 27 101 255 255 255
3 221 117 255 255 255 255
3 117 190 255 255 255 255
3 304 32 188 255 255 255
3 153 240 117 255 255 255
3 15 49 153 255 255 255
3 275 49 15 255 255 255
3 129 49 275 255 255 255
3 129 65 49 255 255 255
3 160 65 129 255 255 255
3 160 114 65 255 255 255
3 160 118 114 255 255 255
3 118 156 114 255 255 255
3 162 3 118 255 255 255
3 56 132 45 255 255 255
3 59 157 56 255 255 255
3 57 111 59 255 255 255
3 58 219 111 255 255 255
3 219 295 111 255 255 255
3 58 60 219 255 255 255
3 59 111 58 255 255 255
3 131 61 59 255 255 255
3 102 27 187 255 255 255
3 255 109 27 255 255 255
3 190 109 255 255 255 255
3 117 240 190 255 255 255
3 240 187 190 255 255 255
3 49 91 153 255 255 255
3 65 44 49 255 255 255
3 114 46 65 255 255 255
3 156 1 114 255 255 255
3 3 201 118 255 255 255
3 132 63 45 255 255 255
3 56 140 132 255 255 255
3 157 140 56 255 255 255
3 157 299 140 255 255 255
3 295 157 111 255 255 255
3 60 296 219 255 255 255
3 58 297 60 255 255 255
3 61 140 59 255 255 255
3 131 206 61 255 255 255
3 27 109 187 255 255 255
3 187 109 190 255 255 255
3 240 236 187 255 255 255
3 153 236 240 255 255 255
3 91 236 153 255 255 255
3 49 44 91 255 255 255
3 44 64 91 255 255 255
3 46 31 65 255 255 255
3 114 1 46 255 255 255
3 156 286 1 255 255 255
3 3 220 201 255 255 255
3 157 62 299 255 255 255
3 295 62 157 255 255 255
3 219 77 295 255 255 255
3 296 77 219 255 255 255
3 60 103 296 255 255 255
3 61 113 140 255 255 255
3 131 205 206 255 255 255
3 91 207 236 255 255 255
3 91 64 207 255 255 255
3 64 78 207 255 255 255
3 44 291 64 255 255 255
3 65 31 44 255 255 255
3 31 291 44 255 255 255
3 31 110 291 255 255 255
3 48 46 1 255 255 255
3 1 286 48 255 255 255
3 201 47 118 255 255 255
3 132 113 63 255 255 255
3 62 142 299 255 255 255
3 77 62 295 255 255 255
3 77 301 62 255 255 255
3 296 298 77 255 255 255
3 103 181 296 255 255 255
3 60 180 103 255 255 255
3 297 180 60 255 255 255
3 131 134 205 255 255 255
3 78 48 207 255 255 255
3 291 110 64 255 255 255
3 31 46 110 255 255 255
3 46 48 110 255 255 255
3 48 78 110 255 255 255
3 201 220 47 255 255 255
3 220 4 47 255 255 255
3 132 299 113 255 255 255
3 142 300 299 255 255 255
3 62 301 142 255 255 255
3 77 298 301 255 255 255
3 298 135 301 255 255 255
3 296 181 298 255 255 255
3 103 287 181 255 255 255
3 180 134 103 255 255 255
3 61 63 113 255 255 255
3 61 45 63 255 255 255
3 134 0 205 255 255 255
3 131 237 134 255 255 255
3 64 110 78 255 255 255
3 286 183 48 255 255 255
3 4 236 47 255 255 255
3 220 183 4 255 255 255
3 299 300 113 255 255 255
3 300 2 113 255 255 255
3 142 204 300 255 255 255
3 301 154 142 255 255 255
3 135 154 301 255 255 255
3 134 305 103 255 255 255
3 0 136 205 255 255 255
3 183 207 48 255 255 255
3 183 220 207 255 255 255
3 2 205 113 255 255 255
3 300 136 2 255 255 255
3 204 289 300 255 255 255
3 142 51 204 255 255 255
3 154 51 142 255 255 255
3 135 112 154 255 255 255
3 181 135 298 255 255 255
3 287 135 181 255 255 255
3 134 0 305 255 255 255
3 136 204 205 255 255 255
3 0 159 136 255 255 255
3 2 0 205 255 255 255
3 136 159 2 255 255 255
3 154 137 51 255 255 255
3 154 112 137 255 255 255
3 135 287 182 255 255 255
3 287 115 182 255 255 255
3 204 299 205 255 255 255
3 159 51 136 255 255 255
3 137 289 51 255 255 255
3 182 112 135 255 255 255
3 182 116 112 255 255 255
3 115 116 182 255 255 255
3 287 305 115 255 255 255
3 2 159 0 255 255 255
3 116 137 112 255 255 255
3 116 141 137 255 255 255
3 116 115 141 255 255 255
3 290 290 290 255 255 255
