ply
format ascii 1.0
element vertex 339
property float x
property float y
property float z
element face 576
property list uchar int vertex_indices
property uchar red
property uchar green
property uchar blue
end_header
-2.15920376777648926 -2.29066061973571777 -0.93636631965637207
-2.11585688591003418 -2.45845246315002441 -0.942146956920623779
-2.05737709999084473 -2.39079022407531738 -0.824793219566345215
-2.00329709053039551 -2.36936330795288086 -0.833741724491119385
-1.94799995422363281 -2.67499995231628418 -0.723999977111816406
-1.8955390453338623 -2.67975091934204102 -0.734880566596984863
-1.98099994659423828 -2.76799988746643066 -0.989000022411346436
-1.91595292091369629 -2.70428919792175293 -0.735344529151916504
-2.31922316551208496 -2.28754329681396484 -0.852009057998657227
-1.98959565162658691 -2.54835629463195801 -0.783975780010223389
-1.98778283596038818 -2.61414361000061035 -0.89577716588973999
-1.9989999532699585 -2.52099990844726562 -0.777999997138977051
-2.0820000171661377 -2.36299991607666016 -0.888000011444091797
-2.29200005531311035 -2.30900001525878906 -0.791999995708465576
-2.34159517288208008 -2.35847926139831543 -0.928876578807830811
-1.99100005626678467 -2.75300002098083496 -0.913999974727630615
-1.95399999618530273 -2.70799994468688965 -0.819999992847442627
-1.96469569206237793 -2.647003173828125 -0.73024451732635498
-1.96300005912780762 -2.72900009155273438 -0.847999989986419678
-1.92780554294586182 -2.69471120834350586 -0.82508695125579834
-1.98212683200836182 -2.68779993057250977 -0.726410388946533203
-1.9091942310333252 -2.64593744277954102 -0.735128521919250488
-1.99504590034484863 -2.78191351890563965 -0.972359299659729004
-1.99733638763427734 -2.73078179359436035 -0.992223680019378662
-1.92704522609710693 -2.65506076812744141 -0.712658286094665527
-2.01213431358337402 -2.37774109840393066 -0.832707047462463379
-2.42479968070983887 -2.37988734245300293 -0.967166483402252197
-1.98738765716552734 -2.75600361824035645 -0.950277566909790039
-1.960121750831604 -2.72482824325561523 -0.834160208702087402
-2.01688838005065918 -2.62266921997070312 -0.99538809061050415
-2.1119999885559082 -2.41899991035461426 -0.952000021934509277
-2.11145353317260742 -2.33140134811401367 -0.905231118202209473
-2.24628686904907227 -2.31515121459960938 -0.964027822017669678
-2.20763897895812988 -2.34535408020019531 -0.894654929637908936
-2.21900153160095215 -2.31985664367675781 -0.731825053691864014
-2.16855859756469727 -2.37334847450256348 -1.01231777667999268
-2.04061627388000488 -2.61554479598999023 -0.890862464904785156
-2.22735953330993652 -2.3432154655456543 -0.9932517409324646
-2.02937769889831543 -2.68429422378540039 -0.811902940273284912
-2.01200008392333984 -2.51399993896484375 -0.810000002384185791
-2.2486419677734375 -2.30815958976745605 -0.820740342140197754
-2.07899999618530273 -2.61599993705749512 -0.68599998950958252
-2.19000005722045898 -2.35700011253356934 -0.96799999475479126
-2.25385642051696777 -2.26097679138183594 -0.788946688175201416
-2.24716329574584961 -2.35048937797546387 -0.721783161163330078
-2.15424633026123047 -2.31020379066467285 -0.946967482566833496
-2.33390474319458008 -2.32912731170654297 -0.946345865726470947
-2.37021446228027344 -2.34399914741516113 -0.94963914155960083
-2.01999998092651367 -2.3619999885559082 -0.823000013828277588
-2.15599989891052246 -2.3340001106262207 -0.944999992847442627
-2.02539682388305664 -2.73537445068359375 -0.893534004688262939
-2.09280800819396973 -2.65117740631103516 -0.764124929904937744
-2.11899995803833008 -2.61800003051757812 -0.704999983310699463
-2.07953834533691406 -2.60349583625793457 -0.830671846866607666
-2.10150432586669922 -2.5567779541015625 -0.834632217884063721
-2.02173805236816406 -2.44949817657470703 -0.868302881717681885
-2.06585121154785156 -2.59008002281188965 -0.998053371906280518
-2.00553369522094727 -2.6926426887512207 -0.991019308567047119
-2.05180978775024414 -2.41789984703063965 -0.79032522439956665
-2.01399993896484375 -2.65000009536743164 -0.915000021457672119
-2.06397557258605957 -2.55743217468261719 -0.90773242712020874
-2.04969096183776855 -2.40016961097717285 -0.846875965595245361
-2.13757753372192383 -2.37355947494506836 -0.969404995441436768
-2.29600000381469727 -2.26399993896484375 -0.819999992847442627
-2.13199996948242188 -2.36800003051757812 -0.964999973773956299
-2.17102146148681641 -2.37443971633911133 -0.951176643371582031
-2.18411064147949219 -2.35734772682189941 -0.949599027633666992
-2.30699992179870605 -2.31699991226196289 -0.990999996662139893
-2.10178041458129883 -2.42623329162597656 -0.931735455989837646
-2.24565911293029785 -2.30277132987976074 -0.82542794942855835
-2.23109149932861328 -2.22485208511352539 -0.812515676021575928
-2.30303168296813965 -2.31656026840209961 -0.964366316795349121
-2.07877063751220703 -2.3758852481842041 -0.879610359668731689
-2.09999990463256836 -2.62899994850158691 -0.734000027179718018
-2.22932672500610352 -2.25977611541748047 -0.848971843719482422
-2.04752397537231445 -2.77934503555297852 -0.988956689834594727
-2.23148488998413086 -2.25334882736206055 -0.833622217178344727
-2.23130464553833008 -2.27672171592712402 -0.919766843318939209
-2.00527644157409668 -2.54187321662902832 -0.809439539909362793
-2.35775494575500488 -2.36200308799743652 -0.991292297840118408
-2.28215503692626953 -2.26245903968811035 -0.799407541751861572
-2.14647221565246582 -2.38601303100585938 -0.901716291904449463
-1.99039936065673828 -2.36821627616882324 -0.835668206214904785
-1.9913100004196167 -2.39110851287841797 -0.825083494186401367
-1.99482095241546631 -2.74849820137023926 -0.993778824806213379
-1.97253632545471191 -2.76784873008728027 -0.951535940170288086
-1.96127438545227051 -2.75655007362365723 -0.951726198196411133
-1.97903716564178467 -2.76795053482055664 -0.978314816951751709
-1.98938274383544922 -2.35258316993713379 -0.806511878967285156
-1.98500001430511475 -2.75500011444091797 -0.981000006198883057
-1.91920089721679688 -2.68303608894348145 -0.6911468505859375
-1.92172467708587646 -2.66368317604064941 -0.74239504337310791
-2.1391606330871582 -2.3374476432800293 -0.922109603881835938
-2.21900010108947754 -2.3469998836517334 -0.72500002384185791
-1.92409718036651611 -2.69868135452270508 -0.798621237277984619
-1.99699997901916504 -2.62199997901916504 -0.999000012874603271
-2.24198246002197266 -2.35169529914855957 -0.891939640045166016
-2.27900004386901855 -2.28900003433227539 -0.842000007629394531
-2.11552309989929199 -2.36318421363830566 -0.910313785076141357
-2.25500011444091797 -2.28699994087219238 -0.889999985694885254
-2.25739359855651855 -2.22553253173828125 -0.824052572250366211
-2.22508740425109863 -2.30303382873535156 -0.901431739330291748
-2.00999999046325684 -2.52300000190734863 -0.861000001430511475
-2.05192661285400391 -2.73892474174499512 -0.928978621959686279
-2.19452452659606934 -2.31306266784667969 -0.951629519462585449
-2.30478453636169434 -2.29711174964904785 -0.819428563117980957
-2.05061554908752441 -2.55611777305603027 -1.0362015962600708
-2.04699993133544922 -2.5820000171661377 -1.04700005054473877
-2.0665898323059082 -2.40524768829345703 -0.916055738925933838
-2.21074795722961426 -2.32555341720581055 -1.01575684547424316
-2.03488755226135254 -2.55034732818603516 -1.00325572490692139
-2.16390609741210938 -2.31118440628051758 -1.01254236698150635
-2.1400001049041748 -2.3469998836517334 -0.950999975204467773
-2.29951572418212891 -2.34356045722961426 -1.01880598068237305
-2.31804203987121582 -2.33132433891296387 -1.01395785808563232
-2.32200002670288086 -2.32699990272521973 -1.00499999523162842
-2.32162046432495117 -2.28435802459716797 -0.791700541973114014
-2.06849241256713867 -2.72150659561157227 -0.864818155765533447
-2.21399998664855957 -2.33699989318847656 -0.953999996185302734
-2.20399999618530273 -2.29600000381469727 -0.912999987602233887
-2.04312419891357422 -2.50753235816955566 -0.829133749008178711
-2.08620119094848633 -2.69033551216125488 -0.82674562931060791
-2.10158252716064453 -2.5335075855255127 -0.819514989852905273
-2.0228879451751709 -2.63792109489440918 -0.839517414569854736
-2.00203561782836914 -2.68476414680480957 -0.853352129459381104
-2.04145288467407227 -2.67405366897583008 -0.856326460838317871
-2.09054040908813477 -2.57814192771911621 -0.86921846866607666
-2.06621932983398438 -2.60029697418212891 -0.886222183704376221
-2.00749659538269043 -2.58961963653564453 -0.857440531253814697
-2.07849216461181641 -2.70523262023925781 -0.867673695087432861
-2.09852361679077148 -2.34392499923706055 -0.86768341064453125
-2.1400001049041748 -2.3190000057220459 -0.953999996185302734
-2.19287705421447754 -2.28577184677124023 -0.74695897102355957
-2.27699995040893555 -2.24499988555908203 -0.81099998950958252
-2.1530001163482666 -2.34500002861022949 -0.967000007629394531
-2.24799990653991699 -2.27500009536743164 -0.791999995708465576
-2.06999993324279785 -2.64100003242492676 -0.702000021934509277
-2.23138689994812012 -2.30023765563964844 -0.965585529804229736
-2.26224017143249512 -2.30364775657653809 -0.86774212121963501
-2.17603707313537598 -2.30626487731933594 -0.724251091480255127
-2.02136063575744629 -2.45467829704284668 -0.81885218620300293
-2.03446483612060547 -2.63930535316467285 -0.832789897918701172
-2.03282284736633301 -2.69030213356018066 -0.969945192337036133
-2.05284476280212402 -2.71857237815856934 -0.926581382751464844
-2.08086037635803223 -2.41662335395812988 -0.816745996475219727
-2.01017904281616211 -2.405426025390625 -0.8124847412109375
-2.07319450378417969 -2.43253278732299805 -0.856277704238891602
-2.05860543251037598 -2.40594768524169922 -0.816814422607421875
-2.10929369926452637 -2.41200947761535645 -0.879469633102416992
-2.0278470516204834 -2.3685917854309082 -0.785236835479736328
-2.22799992561340332 -2.28500008583068848 -0.819000005722045898
-2.20571541786193848 -2.29294443130493164 -0.711662888526916504
-2.07800006866455078 -2.58699989318847656 -0.71399998664855957
-2.02130651473999023 -2.61583161354064941 -0.972627341747283936
-2.24000000953674316 -2.27900004386901855 -0.795000016689300537
-2.29594612121582031 -2.2632896900177002 -0.789896845817565918
-2.3756718635559082 -2.34581661224365234 -0.974303841590881348
-2.02042222023010254 -2.68834948539733887 -0.718541443347930908
-2.00982093811035156 -2.76993274688720703 -0.964102387428283691
-2.07871913909912109 -2.73309135437011719 -0.89488685131072998
-2.00399994850158691 -2.5150001049041748 -0.791999995708465576
-2.02500009536743164 -2.60599994659423828 -0.940999984741210938
-2.03334999084472656 -2.55738925933837891 -0.968954980373382568
-2.01978921890258789 -2.63089942932128906 -0.725624501705169678
-2.03099989891052246 -2.67899990081787109 -0.829999983310699463
-2.03444337844848633 -2.75473809242248535 -0.907062232494354248
-2.04761242866516113 -2.5374748706817627 -0.790413081645965576
-2.02418732643127441 -2.6563413143157959 -0.886748790740966797
-2.05513620376586914 -2.65809154510498047 -0.910414695739746094
-2.04120826721191406 -2.49443793296813965 -0.793968856334686279
-2.04554200172424316 -2.58891916275024414 -0.96011275053024292
-2.01123785972595215 -2.68873167037963867 -0.79987943172454834
-2.05923557281494141 -2.45589184761047363 -0.813519299030303955
-2.00014829635620117 -2.50163888931274414 -0.797890901565551758
-2.06203675270080566 -2.36551523208618164 -0.861098825931549072
-2.02699995040893555 -2.62700009346008301 -0.916000008583068848
-2.00744462013244629 -2.57643222808837891 -1.02103781700134277
-2.01900005340576172 -2.59800004959106445 -1.03100001811981201
-2.04500722885131836 -2.70383834838867188 -1.02059018611907959
-2.01399993896484375 -2.61700010299682617 -1.01100003719329834
-2.05286502838134766 -2.61176776885986328 -1.04080688953399658
-2.03973054885864258 -2.75849676132202148 -1.03854906558990479
-2.07100009918212891 -2.59299993515014648 -1.00499999523162842
-1.99455678462982178 -2.5991511344909668 -1.0188753604888916
-1.99500000476837158 -2.6119999885559082 -1.02900004386901855
-2.01849913597106934 -2.77868366241455078 -1.00797426700592041
-1.98800003528594971 -2.7630000114440918 -1.00399994850158691
-2.19859719276428223 -2.30424880981445312 -0.864996135234832764
-2.25469517707824707 -2.3265221118927002 -0.920202732086181641
-2.29436874389648438 -2.31192827224731445 -0.905901074409484863
-2.27099990844726562 -2.30100011825561523 -0.810000002384185791
-2.2909998893737793 -2.28500008583068848 -0.791999995708465576
-1.9440000057220459 -2.71399998664855957 -0.824000000953674316
-1.94419372081756592 -2.71229410171508789 -0.816644906997680664
-2.23480916023254395 -2.2871091365814209 -0.881284475326538086
-1.99271798133850098 -2.66468715667724609 -0.687395930290222168
-2.22399997711181641 -2.32100009918212891 -0.827000021934509277
-2.31410670280456543 -2.30367088317871094 -0.856756269931793213
-2.06100010871887207 -2.60800004005432129 -1.04999995231628418
-2.26200008392333984 -2.30200004577636719 -0.834999978542327881
-2.32100009918212891 -2.32800006866455078 -1.00899994373321533
-2.37419247627258301 -2.37572455406188965 -1.00321674346923828
-2.09200000762939453 -2.61299991607666016 -0.740000009536743164
-2.24942588806152344 -2.2584078311920166 -0.807030558586120605
-2.06699991226196289 -2.61299991607666016 -1.00800001621246338
-2.06100010871887207 -2.60899996757507324 -1.04100000858306885
-2.029510498046875 -2.53522706031799316 -1.04158937931060791
-2.06569910049438477 -2.57584214210510254 -0.952704250812530518
-2.26938605308532715 -2.34932303428649902 -0.914662420749664307
-2.07534909248352051 -2.69204425811767578 -0.924041569232940674
-2.10905361175537109 -2.40532493591308594 -0.952430963516235352
-2.23365902900695801 -2.26133203506469727 -0.845347821712493896
-2.0122828483581543 -2.34578752517700195 -0.812843203544616699
-2.26600003242492676 -2.28500008583068848 -0.80699998140335083
-2.23244285583496094 -2.23949098587036133 -0.791983425617218018
-2.21799993515014648 -2.25799989700317383 -0.816999971866607666
-2.22711873054504395 -2.266326904296875 -0.793905436992645264
-1.95513176918029785 -2.59968733787536621 -0.859167397022247314
-2.25600004196166992 -2.26600003242492676 -0.873000025749206543
-1.97899997234344482 -2.58500003814697266 -0.904999971389770508
-1.98300004005432129 -2.7349998950958252 -0.883000016212463379
-1.99809050559997559 -2.54238414764404297 -0.908687889575958252
-2.23220968246459961 -2.36431646347045898 -0.739180624485015869
-1.98317492008209229 -2.59001469612121582 -0.934120059013366699
-1.97378015518188477 -2.6102287769317627 -0.9765167236328125
-1.9859999418258667 -2.7369999885559082 -0.919000029563903809
-2.048004150390625 -2.6333465576171875 -0.954628646373748779
-2.00829195976257324 -2.55118799209594727 -0.780339896678924561
-2.02200007438659668 -2.52699995040893555 -0.874000012874603271
-2.00262546539306641 -2.69419026374816895 -0.922459542751312256
-2.07172989845275879 -2.67089533805847168 -0.792039811611175537
-2.00309324264526367 -2.72271418571472168 -0.895562827587127686
-2.0820000171661377 -2.57800006866455078 -0.976000010967254639
-2.10615324974060059 -2.42005395889282227 -0.888072431087493896
-2.04284834861755371 -2.37929201126098633 -0.793547570705413818
-2.14121079444885254 -2.36448168754577637 -0.934802472591400146
-2.10407805442810059 -2.43520998954772949 -0.979728579521179199
-2.25885391235351562 -2.34053778648376465 -0.949855268001556396
-2.26490283012390137 -2.28831648826599121 -0.922344088554382324
-2.30952334403991699 -2.27598142623901367 -0.824901700019836426
-2.01799988746643066 -2.65599989891052246 -0.958000004291534424
-2.14032554626464844 -2.28881549835205078 -0.92900317907333374
-2.10343003273010254 -2.36633872985839844 -0.96663212776184082
-2.31152248382568359 -2.36117267608642578 -0.992710590362548828
-2.00300002098083496 -2.34599995613098145 -0.796000003814697266
-1.95502614974975586 -2.70448780059814453 -0.832042217254638672
-1.98984766006469727 -2.66677379608154297 -0.782812297344207764
-1.97201287746429443 -2.62029170989990234 -0.939603984355926514
-1.97889590263366699 -2.73952698707580566 -0.905389130115509033
-1.9859999418258667 -2.74200010299682617 -0.912000000476837158
-1.95216500759124756 -2.74499797821044922 -0.863329648971557617
-1.97429358959197998 -2.70511651039123535 -0.86067277193069458
-1.95529782772064209 -2.59613299369812012 -0.906994163990020752
-1.96369087696075439 -2.71606230735778809 -0.886170625686645508
-1.99236428737640381 -2.57428383827209473 -0.914895296096801758
-2.07037806510925293 -2.39921450614929199 -0.996533036231994629
-2.21799993515014648 -2.28500008583068848 -0.828999996185302734
-2.24904537200927734 -2.32955551147460938 -0.742724001407623291
-2.3181302547454834 -2.30671119689941406 -0.925132215023040771
-2.03200006484985352 -2.63100004196166992 -0.930000007152557373
-1.97555446624755859 -2.64737558364868164 -0.89826357364654541
-1.99193549156188965 -2.56028127670288086 -0.835721790790557861
-1.98329842090606689 -2.54505729675292969 -0.825515687465667725
-1.99949777126312256 -2.572723388671875 -0.884914636611938477
-1.96383047103881836 -2.62927627563476562 -0.876534521579742432
-1.97208499908447266 -2.72341442108154297 -0.852296829223632812
-1.9869999885559082 -2.56699991226196289 -0.883000016212463379
-1.98921108245849609 -2.59815740585327148 -0.922869861125946045
-1.94755494594573975 -2.62224340438842773 -0.894680440425872803
-1.947043776512146 -2.71775722503662109 -0.861222147941589355
-2.02254247665405273 -2.58531594276428223 -1.0435720682144165
-2.03099989891052246 -2.61800003051757812 -1.05099999904632568
-2.00699996948242188 -2.57399988174438477 -1.03199994564056396
-2.03881025314331055 -2.56037092208862305 -1.02480173110961914
-2.13483881950378418 -2.39382410049438477 -1.00694632530212402
-2.18674778938293457 -2.36244654655456543 -1.00036859512329102
-2.16771626472473145 -2.33583474159240723 -0.928049206733703613
-2.1566321849822998 -2.31612730026245117 -0.991407573223114014
-2.40709877014160156 -2.42074847221374512 -1.00245249271392822
-2.2171638011932373 -2.32352042198181152 -0.911716997623443604
-2.25300002098083496 -2.30200004577636719 -0.898999989032745361
-1.98300004005432129 -2.72799992561340332 -0.944999992847442627
-1.98899996280670166 -2.77699995040893555 -0.986000001430511475
-1.93499994277954102 -2.69600009918212891 -0.727999985218048096
-2.30963325500488281 -2.25707578659057617 -0.808201849460601807
-2.25999999046325684 -2.29399991035461426 -0.819000005722045898
-2 -2.35700011253356934 -0.828999996185302734
-2.00300002098083496 -2.6659998893737793 -0.708000004291534424
-2.03099989891052246 -2.37599992752075195 -0.81099998950958252
-2.22399997711181641 -2.29699993133544922 -0.827000021934509277
-2.37447285652160645 -2.38042497634887695 -0.964434981346130371
-2.2909998893737793 -2.2929999828338623 -0.792999982833862305
-2.02399992942810059 -2.59299993515014648 -0.925000011920928955
-2.1694788932800293 -2.33408904075622559 -0.906315982341766357
-2.24413466453552246 -2.33017969131469727 -0.878294646739959717
-2.02900004386901855 -2.625 -0.88200002908706665
-2.03500008583068848 -2.60500001907348633 -0.930000007152557373
-2.00615882873535156 -2.64849114418029785 -0.925047576427459717
-2.00617313385009766 -2.67560005187988281 -0.881041884422302246
-2.01682090759277344 -2.67052364349365234 -0.788611531257629395
-2.00900006294250488 -2.71799993515014648 -0.866999983787536621
-2.0409998893737793 -2.63100004196166992 -0.906000018119812012
-2.0315554141998291 -2.48785138130187988 -0.833044707775115967
-2.02369594573974609 -2.5401151180267334 -0.891009688377380371
-2.06401824951171875 -2.52604460716247559 -0.846874117851257324
-2.02822732925415039 -2.34517383575439453 -0.787013769149780273
-2.27532196044921875 -2.25471925735473633 -0.795943021774291992
-2.07781720161437988 -2.6089930534362793 -0.973985552787780762
-2.0019376277923584 -2.55963945388793945 -0.94167780876159668
-2.06999993324279785 -2.59400010108947754 -0.947000026702880859
-2.26799988746643066 -2.29699993133544922 -0.910000026226043701
-2.2630000114440918 -2.34299993515014648 -0.913999974727630615
1 1 1
-2.29514884948730469 -2.29677176475524902 -0.790050804615020752
-2.09234070777893066 -2.65996241569519043 -0.695801615715026855
-2.05808424949645996 -2.61389994621276855 -0.854733109474182129
-2.03371882438659668 -2.69550085067749023 -0.853464722633361816
-2.04688382148742676 -2.5590825080871582 -0.819953560829162598
-2.11574029922485352 -2.60506176948547363 -0.718317627906799316
-2.00677752494812012 -2.53286910057067871 -0.875063538551330566
-2.0559999942779541 -2.71300005912780762 -0.955999970436096191
-2.01699995994567871 -2.53500008583068848 -0.777999997138977051
-2.03104019165039062 -2.62906932830810547 -0.990095973014831543
-2.06735682487487793 -2.75660061836242676 -0.98911440372467041
-2.21399998664855957 -2.29399991035461426 -0.912000000476837158
-2.31907272338867188 -2.30240392684936523 -0.896788895130157471
-2.10127711296081543 -2.59064340591430664 -0.725711822509765625
-2.12050890922546387 -2.61528563499450684 -0.705310463905334473
-2.08599996566772461 -2.61100006103515625 -0.728999972343444824
-2.0820000171661377 -2.59800004959106445 -0.728999972343444824
-2.09899997711181641 -2.61800003051757812 -0.68599998950958252
-2.08810162544250488 -2.57821154594421387 -0.706245362758636475
-2.10465764999389648 -2.61353349685668945 -0.706598162651062012
-2.07200002670288086 -2.61299991607666016 -0.709999978542327881
-2.09784221649169922 -2.64942789077758789 -0.680077552795410156
-2.09038567543029785 -2.64243674278259277 -0.69222259521484375
-2.29900002479553223 -2.27500009536743164 -0.825999975204467773
-2.07516002655029297 -2.44916868209838867 -0.934692442417144775
-2.17254114151000977 -2.40312004089355469 -1.01065433025360107
3 329 152 326 255 255 255
3 326 202 329 255 255 255
3 318 328 326 255 255 255
3 318 326 332 255 255 255
3 329 328 152 255 255 255
3 326 327 202 255 255 255
3 318 332 328 255 255 255
3 328 333 152 255 255 255
3 327 73 202 255 255 255
3 326 332 327 255 255 255
3 330 335 332 255 255 255
3 331 333 332 255 255 255
3 326 331 332 255 255 255
3 332 41 330 255 255 255
3 333 330 332 255 255 255
3 327 335 73 255 255 255
3 334 136 335 255 255 255
3 335 41 334 255 255 255
3 327 332 335 255 255 255
3 51 202 332 255 255 255
3 327 334 335 255 255 255
3 51 230 53 255 255 255
3 314 334 335 255 255 255
3 52 332 327 255 255 255
3 53 121 51 255 255 255
3 230 315 53 255 255 255
3 335 136 314 255 255 255
3 52 326 332 255 255 255
3 315 317 53 255 255 255
3 141 315 230 255 255 255
3 230 316 141 255 255 255
3 230 121 316 255 255 255
3 51 121 230 255 255 255
3 141 164 123 255 255 255
3 316 125 141 255 255 255
3 54 126 53 255 255 255
3 317 122 53 255 255 255
3 121 117 316 255 255 255
3 122 54 53 255 255 255
3 315 126 317 255 255 255
3 123 128 141 255 255 255
3 124 298 123 255 255 255
3 125 124 141 255 255 255
3 121 129 117 255 255 255
3 317 141 128 255 255 255
3 126 54 317 255 255 255
3 127 126 315 255 255 255
3 315 36 127 255 255 255
3 123 167 128 255 255 255
3 317 166 122 255 255 255
3 128 261 317 255 255 255
3 315 295 36 255 255 255
3 128 167 10 255 255 255
3 129 159 117 255 255 255
3 315 168 129 255 255 255
3 122 304 54 255 255 255
3 127 60 126 255 255 255
3 295 128 36 255 255 255
3 124 251 298 255 255 255
3 164 125 316 255 255 255
3 316 38 164 255 255 255
3 165 50 117 255 255 255
3 317 261 166 255 255 255
3 128 263 261 255 255 255
3 128 263 36 255 255 255
3 260 264 167 255 255 255
3 316 124 38 255 255 255
3 122 120 304 255 255 255
3 166 173 169 255 255 255
3 261 9 166 255 255 255
3 261 262 9 255 255 255
3 262 173 9 255 255 255
3 127 170 60 255 255 255
3 263 170 36 255 255 255
3 264 10 167 255 255 255
3 167 298 260 255 255 255
3 124 245 251 255 255 255
3 124 171 38 255 255 255
3 168 209 129 255 255 255
3 166 169 120 255 255 255
3 169 172 120 255 255 255
3 170 301 36 255 255 255
3 264 252 10 255 255 255
3 171 299 38 255 255 255
3 316 300 124 255 255 255
3 168 295 301 255 255 255
3 172 302 120 255 255 255
3 166 11 173 255 255 255
3 166 9 11 255 255 255
3 173 227 9 255 255 255
3 319 173 262 255 255 255
3 262 263 319 255 255 255
3 263 266 261 255 255 255
3 170 162 60 255 255 255
3 263 254 170 255 255 255
3 264 217 252 255 255 255
3 260 268 264 255 255 255
3 298 229 167 255 255 255
3 265 269 251 255 255 255
3 251 124 265 255 255 255
3 299 124 38 255 255 255
3 300 251 124 255 255 255
3 168 259 226 255 255 255
3 168 296 259 255 255 255
3 301 296 168 255 255 255
3 302 172 169 255 255 255
3 302 140 172 255 255 255
3 169 173 302 255 255 255
3 303 254 263 255 255 255
3 263 228 303 255 255 255
3 304 60 303 255 255 255
3 170 254 292 255 255 255
3 252 219 10 255 255 255
3 298 253 229 255 255 255
3 251 253 298 255 255 255
3 299 171 124 255 255 255
3 226 209 168 255 255 255
3 226 322 142 255 255 255
3 166 120 304 255 255 255
3 227 78 9 255 255 255
3 319 302 173 255 255 255
3 319 120 302 255 255 255
3 263 219 266 255 255 255
3 228 102 303 255 255 255
3 162 303 60 255 255 255
3 296 161 170 255 255 255
3 170 292 296 255 255 255
3 253 248 229 255 255 255
3 251 269 253 255 255 255
3 299 246 171 255 255 255
3 300 229 50 255 255 255
3 50 220 300 255 255 255
3 159 143 209 255 255 255
3 226 142 209 255 255 255
3 120 303 304 255 255 255
3 319 102 120 255 255 255
3 227 173 321 255 255 255
3 173 78 321 255 255 255
3 263 266 319 255 255 255
3 303 308 254 255 255 255
3 161 153 170 255 255 255
3 254 267 292 255 255 255
3 299 163 246 255 255 255
3 299 171 157 255 255 255
3 300 231 229 255 255 255
3 165 103 158 255 255 255
3 165 143 103 255 255 255
3 302 61 55 255 255 255
3 172 146 302 255 255 255
3 140 58 172 255 255 255
3 173 160 78 255 255 255
3 319 221 228 255 255 255
3 266 221 319 255 255 255
3 303 162 308 255 255 255
3 162 267 308 255 255 255
3 161 247 153 255 255 255
3 267 161 292 255 255 255
3 254 223 267 255 255 255
3 268 252 217 255 255 255
3 297 260 229 255 255 255
3 269 250 253 255 255 255
3 245 19 251 255 255 255
3 299 157 163 255 255 255
3 171 246 157 255 255 255
3 246 17 157 255 255 255
3 50 248 220 255 255 255
3 165 15 50 255 255 255
3 165 158 15 255 255 255
3 165 159 143 255 255 255
3 159 209 129 255 255 255
3 226 180 322 255 255 255
3 172 144 146 255 255 255
3 160 39 78 255 255 255
3 267 223 308 255 255 255
3 267 259 161 255 255 255
3 252 224 223 255 255 255
3 252 247 224 255 255 255
3 247 252 268 255 255 255
3 268 260 247 255 255 255
3 297 247 260 255 255 255
3 229 240 297 255 255 255
3 248 225 229 255 255 255
3 249 15 248 255 255 255
3 250 265 253 255 255 255
3 269 265 250 255 255 255
3 251 192 269 255 255 255
3 163 17 246 255 255 255
3 157 17 20 255 255 255
3 248 253 220 255 255 255
3 158 27 15 255 255 255
3 142 178 323 255 255 255
3 320 142 143 255 255 255
3 226 307 180 255 255 255
3 302 146 61 255 255 255
3 172 58 144 255 255 255
3 55 145 140 255 255 255
3 55 61 145 255 255 255
3 321 160 78 255 255 255
3 170 176 162 255 255 255
3 170 273 176 255 255 255
3 56 273 170 255 255 255
3 170 307 56 255 255 255
3 267 297 259 255 255 255
3 57 142 229 255 255 255
3 15 229 248 255 255 255
3 265 251 253 255 255 255
3 250 18 265 255 255 255
3 250 28 18 255 255 255
3 16 192 28 255 255 255
3 251 19 192 255 255 255
3 17 21 20 255 255 255
3 143 323 103 255 255 255
3 142 57 178 255 255 255
3 226 309 307 255 255 255
3 144 233 146 255 255 255
3 140 145 58 255 255 255
3 321 11 160 255 255 255
3 176 273 177 255 255 255
3 247 183 153 255 255 255
3 297 59 259 255 255 255
3 229 281 27 255 255 255
3 18 28 265 255 255 255
3 19 193 192 255 255 255
3 245 94 19 255 255 255
3 20 195 157 255 255 255
3 21 91 20 255 255 255
3 231 225 229 255 255 255
3 50 249 231 255 255 255
3 158 22 27 255 255 255
3 143 320 323 255 255 255
3 322 179 29 255 255 255
3 232 56 307 255 255 255
3 226 207 309 255 255 255
3 233 108 146 255 255 255
3 145 2 58 255 255 255
3 58 147 145 255 255 255
3 177 183 176 255 255 255
3 56 180 273 255 255 255
3 183 29 153 255 255 255
3 59 175 259 255 255 255
3 229 248 281 255 255 255
3 19 245 193 255 255 255
3 22 85 27 255 255 255
3 323 75 103 255 255 255
3 178 181 323 255 255 255
3 179 95 29 255 255 255
3 56 182 307 255 255 255
3 226 170 207 255 255 255
3 146 108 61 255 255 255
3 144 148 233 255 255 255
3 144 72 148 255 255 255
3 144 2 72 255 255 255
3 58 2 144 255 255 255
3 147 2 145 255 255 255
3 180 270 273 255 255 255
3 297 229 59 255 255 255
3 245 16 193 255 255 255
3 245 91 94 255 255 255
3 163 195 17 255 255 255
3 163 157 195 255 255 255
3 181 185 323 255 255 255
3 57 181 178 255 255 255
3 179 184 95 255 255 255
3 322 177 179 255 255 255
3 182 204 307 255 255 255
3 232 207 56 255 255 255
3 108 72 61 255 255 255
3 2 234 145 255 255 255
3 61 25 145 255 255 255
3 2 174 61 255 255 255
3 177 184 183 255 255 255
3 23 181 57 255 255 255
3 23 84 27 255 255 255
3 24 21 17 255 255 255
3 24 20 90 255 255 255
3 20 17 195 255 255 255
3 24 17 20 255 255 255
3 17 287 20 255 255 255
3 158 282 22 255 255 255
3 323 185 75 255 255 255
3 322 180 177 255 255 255
3 207 110 56 255 255 255
3 72 174 61 255 255 255
3 148 81 233 255 255 255
3 2 174 72 255 255 255
3 82 25 83 255 255 255
3 83 3 82 255 255 255
3 25 82 145 255 255 255
3 61 174 25 255 255 255
3 183 224 95 255 255 255
3 184 176 183 255 255 255
3 84 22 27 255 255 255
3 22 87 85 255 255 255
3 185 158 75 255 255 255
3 142 322 240 255 255 255
3 180 205 198 255 255 255
3 72 12 174 255 255 255
3 234 288 145 255 255 255
3 2 288 234 255 255 255
3 149 2 145 255 255 255
3 25 145 83 255 255 255
3 82 3 25 255 255 255
3 82 88 3 255 255 255
3 270 272 273 255 255 255
3 270 180 183 255 255 255
3 247 183 224 255 255 255
3 84 158 22 255 255 255
3 85 87 86 255 255 255
3 181 186 185 255 255 255
3 232 309 207 255 255 255
3 148 235 81 255 255 255
3 2 25 288 255 255 255
3 147 61 2 255 255 255
3 183 176 270 255 255 255
3 271 270 180 255 255 255
3 23 89 84 255 255 255
3 86 281 85 255 255 255
3 87 89 86 255 255 255
3 186 282 185 255 255 255
3 233 235 148 255 255 255
3 174 130 72 255 255 255
3 149 288 2 255 255 255
3 88 212 3 255 255 255
3 3 286 82 255 255 255
3 286 88 82 255 255 255
3 3 212 286 255 255 255
3 89 186 84 255 255 255
3 90 21 24 255 255 255
3 91 21 5 255 255 255
3 87 6 89 255 255 255
3 186 6 282 255 255 255
3 12 130 174 255 255 255
3 108 255 72 255 255 255
3 108 337 255 255 255 255
3 235 233 62 255 255 255
3 2 149 174 255 255 255
3 88 305 149 255 255 255
3 149 244 88 255 255 255
3 88 244 212 255 255 255
3 90 283 7 255 255 255
3 4 283 90 255 255 255
3 5 7 91 255 255 255
3 6 87 282 255 255 255
3 12 98 130 255 255 255
3 98 12 72 255 255 255
3 255 242 72 255 255 255
3 98 293 81 255 255 255
3 235 65 81 255 255 255
3 130 98 72 255 255 255
3 174 212 48 255 255 255
3 7 5 90 255 255 255
3 272 176 183 255 255 255
3 72 242 98 255 255 255
3 337 236 255 255 255 255
3 233 81 62 255 255 255
3 130 293 98 255 255 255
3 212 286 48 255 255 255
3 149 212 174 255 255 255
3 305 212 149 255 255 255
3 149 212 244 255 255 255
3 149 48 212 255 255 255
3 62 81 65 255 255 255
3 293 276 81 255 255 255
3 235 276 65 255 255 255
3 62 242 98 255 255 255
3 130 31 293 255 255 255
3 305 88 212 255 255 255
3 273 206 110 255 255 255
3 4 90 91 255 255 255
3 255 274 242 255 255 255
3 65 276 66 255 255 255
3 276 235 81 255 255 255
3 112 92 235 255 255 255
3 235 64 112 255 255 255
3 274 62 242 255 255 255
3 1 236 337 255 255 255
3 276 33 66 255 255 255
3 31 92 293 255 255 255
3 92 98 235 255 255 255
3 62 210 242 255 255 255
3 242 236 62 255 255 255
3 65 274 62 255 255 255
3 98 92 31 255 255 255
3 242 235 98 255 255 255
3 337 68 1 255 255 255
3 66 37 65 255 255 255
3 112 49 92 255 255 255
3 62 236 210 255 255 255
3 236 30 210 255 255 255
3 65 338 274 255 255 255
3 37 275 65 255 255 255
3 92 98 293 255 255 255
3 112 131 49 255 255 255
3 210 236 242 255 255 255
3 273 106 206 255 255 255
3 255 236 274 255 255 255
3 275 35 65 255 255 255
3 276 293 33 255 255 255
3 293 66 276 255 255 255
3 92 81 98 255 255 255
3 131 92 49 255 255 255
3 30 68 210 255 255 255
3 37 109 275 255 255 255
3 187 33 293 255 255 255
3 68 148 210 255 255 255
3 338 35 274 255 255 255
3 37 66 118 255 255 255
3 66 92 276 255 255 255
3 68 233 148 255 255 255
3 30 1 68 255 255 255
3 106 107 56 255 255 255
3 274 35 275 255 255 255
3 37 32 109 255 255 255
3 32 137 109 255 255 255
3 294 279 33 255 255 255
3 33 96 294 255 255 255
3 66 235 92 255 255 255
3 66 42 134 255 255 255
3 33 187 294 255 255 255
3 277 0 45 255 255 255
3 273 110 106 255 255 255
3 107 180 56 255 255 255
3 106 270 107 255 255 255
3 275 111 274 255 255 255
3 109 137 111 255 255 255
3 45 131 241 255 255 255
3 110 206 106 255 255 255
3 180 205 56 255 255 255
3 111 277 274 255 255 255
3 137 104 111 255 255 255
3 279 293 33 255 255 255
3 294 96 279 255 255 255
3 187 196 294 255 255 255
3 187 256 194 255 255 255
3 277 104 0 255 255 255
3 293 66 33 255 255 255
3 279 104 293 255 255 255
3 196 40 294 255 255 255
3 194 138 187 255 255 255
3 256 211 194 255 255 255
3 187 196 289 255 255 255
3 0 45 241 255 255 255
3 0 104 45 255 255 255
3 45 134 277 255 255 255
3 104 277 111 255 255 255
3 32 118 104 255 255 255
3 104 279 32 255 255 255
3 279 188 32 255 255 255
3 138 69 187 255 255 255
3 104 293 45 255 255 255
3 45 112 134 255 255 255
3 137 77 104 255 255 255
3 137 238 77 255 255 255
3 32 238 137 255 255 255
3 237 71 32 255 255 255
3 40 138 294 255 255 255
3 293 101 187 255 255 255
3 119 293 77 255 255 255
3 77 324 119 255 255 255
3 32 71 238 255 255 255
3 237 243 71 255 255 255
3 188 237 32 255 255 255
3 40 199 138 255 255 255
3 190 199 40 255 255 255
3 190 105 199 255 255 255
3 138 199 69 255 255 255
3 218 138 194 255 255 255
3 194 211 218 255 255 255
3 324 101 119 255 255 255
3 238 189 310 255 255 255
3 188 311 237 255 255 255
3 105 97 199 255 255 255
3 199 285 69 255 255 255
3 238 218 77 255 255 255
3 310 99 238 255 255 255
3 258 325 238 255 255 255
3 71 258 238 255 255 255
3 311 208 237 255 255 255
3 190 13 105 255 255 255
3 211 69 76 255 255 255
3 310 138 99 255 255 255
3 310 294 138 255 255 255
3 238 325 189 255 255 255
3 71 46 258 255 255 255
3 203 211 76 255 255 255
3 69 203 76 255 255 255
3 211 150 69 255 255 255
3 280 99 101 255 255 255
3 101 310 280 255 255 255
3 324 77 101 255 255 255
3 238 189 218 255 255 255
3 310 188 294 255 255 255
3 325 8 189 255 255 255
3 113 114 243 255 255 255
3 150 289 69 255 255 255
3 285 203 69 255 255 255
3 285 213 203 255 255 255
3 310 189 188 255 255 255
3 8 197 189 255 255 255
3 46 156 47 255 255 255
3 114 115 243 255 255 255
3 208 189 237 255 255 255
3 105 239 197 255 255 255
3 285 97 213 255 255 255
3 306 80 203 255 255 255
3 203 213 306 255 255 255
3 189 311 188 255 255 255
3 325 197 8 255 255 255
3 258 189 325 255 255 255
3 189 197 325 255 255 255
3 115 156 46 255 255 255
3 115 114 156 255 255 255
3 46 67 115 255 255 255
3 189 258 237 255 255 255
3 239 8 197 255 255 255
3 116 239 105 255 255 255
3 116 284 239 255 255 255
3 213 80 306 255 255 255
3 114 243 156 255 255 255
3 115 200 114 255 255 255
3 46 71 67 255 255 255
3 116 155 284 255 255 255
3 213 190 80 255 255 255
3 46 47 14 255 255 255
3 243 79 156 255 255 255
3 79 113 243 255 255 255
3 284 63 239 255 255 255
3 116 313 155 255 255 255
3 105 13 116 255 255 255
3 63 336 80 255 255 255
3 291 191 80 255 255 255
3 80 13 291 255 255 255
3 200 67 114 255 255 255
3 79 114 113 255 255 255
3 201 79 243 255 255 255
3 336 8 239 255 255 255
3 155 133 284 255 255 255
3 313 191 155 255 255 255
3 116 291 313 255 255 255
3 191 155 80 255 255 255
3 47 290 14 255 255 255
3 156 26 47 255 255 255
3 201 14 290 255 255 255
3 243 14 201 255 255 255
3 284 133 80 255 255 255
3 133 100 80 255 255 255
3 26 290 47 255 255 255
3 79 201 156 255 255 255
3 133 70 100 255 255 255
3 201 26 156 255 255 255
3 133 203 70 255 255 255
3 290 26 278 255 255 255
3 26 201 278 255 255 255
3 70 43 214 255 255 255
3 216 70 214 255 255 255
3 214 154 216 255 255 255
3 203 135 214 255 255 255
3 70 211 100 255 255 255
3 215 74 70 255 255 255
3 70 214 215 255 255 255
3 216 150 70 255 255 255
3 203 213 135 255 255 255
3 215 211 74 255 255 255
3 150 256 70 255 255 255
3 216 154 150 255 255 255
3 213 154 135 255 255 255
3 256 215 70 255 255 255
3 151 139 132 255 255 255
3 34 151 132 255 255 255
3 132 139 34 255 255 255
3 139 151 34 255 255 255
3 93 257 34 255 255 255
3 93 222 257 255 255 255
3 222 93 44 255 255 255
3 93 257 44 255 255 255
3 312 312 312 255 255 255
