ply
format ascii 1.0
element vertex 320
property float x
property float y
property float z
element face 576
property list uchar int vertex_indices
property uchar red
property uchar green
property uchar blue
end_header
-16.4340000152587891 2.58299994468688965 -0.935000002384185791
-16.4640007019042969 2.44199991226196289 -0.813000023365020752
-16.4297409057617188 2.61686253547668457 -0.95811086893081665
-16.4379997253417969 2.48799991607666016 -0.958999991416931152
-16.4712677001953125 2.41919946670532227 -0.835627555847167969
-16.4340000152587891 2.48600006103515625 -0.976000010967254639
-16.4349994659423828 2.56399989128112793 -0.940999984741210938
-16.4409999847412109 2.54800009727478027 -0.938000023365020752
-16.4740009307861328 2.49900007247924805 -0.962000012397766113
-16.4443111419677734 2.49221086502075195 -0.995684325695037842
-16.4419994354248047 2.49699997901916504 -0.952000021934509277
-16.4490890502929688 2.53812193870544434 -0.92581099271774292
-16.4401168823242188 2.52186918258666992 -0.950037896633148193
-16.4249649047851562 2.57143640518188477 -0.999334275722503662
-16.4230003356933594 2.49799990653991699 -0.950999975204467773
-16.4764270782470703 2.42968249320983887 -0.850899755954742432
-16.4854755401611328 2.46803545951843262 -0.8515358567237854
-16.4751625061035156 2.42270398139953613 -0.842796385288238525
-16.4650001525878906 2.45499992370605469 -0.852999985218048096
-16.4241161346435547 2.48986506462097168 -0.909384787082672119
-16.4340000152587891 2.46900010108947754 -0.961000025272369385
-16.4479999542236328 2.46799993515014648 -0.977999985218048096
-16.4629020690917969 2.4600989818572998 -0.984390556812286377
-16.4370002746582031 2.47799992561340332 -0.944999992847442627
-16.4291133880615234 2.48257875442504883 -0.973709166049957275
-16.4235115051269531 2.58389377593994141 -0.984939455986022949
-16.4406814575195312 2.60998892784118652 -0.953944146633148193
-16.4330635070800781 2.54712176322937012 -0.944798946380615234
-16.4220714569091797 2.59397029876708984 -0.943132638931274414
-16.4658088684082031 2.51215982437133789 -0.863350629806518555
-16.4519996643066406 2.48900008201599121 -0.921000003814697266
-16.4559993743896484 2.53500008583068848 -0.944999992847442627
-16.4370002746582031 2.56200003623962402 -0.96799999475479126
-16.4599990844726562 2.42899990081787109 -0.828000009059906006
-16.4340000152587891 2.48399996757507324 -0.904999971389770508
-16.4699993133544922 2.48799991607666016 -0.927999973297119141
-16.4319992065429688 2.54850006103515625 -0.960999965667724609
-16.4312057495117188 2.50863361358642578 -0.977550983428955078
-16.4580001831054688 2.55500006675720215 -0.995000004768371582
-16.4759998321533203 2.47399997711181641 -0.976000010967254639
-16.4740009307861328 2.48600006103515625 -0.970000028610229492
-16.4479999542236328 2.54500007629394531 -0.948000013828277588
-16.4340000152587891 2.4869999885559082 -0.96799999475479126
-16.4255046844482422 2.55319571495056152 -0.930512309074401855
-16.4230003356933594 2.58300018310546875 -0.919499993324279785
-16.4459991455078125 2.52099990844726562 -0.999000012874603271
-16.4729995727539062 2.47499990463256836 -0.896000027656555176
-16.4610004425048828 2.52300000190734863 -0.971000015735626221
-16.4479999542236328 2.56200003623962402 -1.00999999046325684
-16.4300003051757812 2.58100008964538574 -0.948000013828277588
-16.4500007629394531 2.53099989891052246 -0.99299997091293335
-16.4479999542236328 2.55500006675720215 -0.986000001430511475
-16.4489994049072266 2.48099994659423828 -0.989000022411346436
-16.4689998626708984 2.44600009918212891 -0.832000017166137695
-16.4283943176269531 2.4987945556640625 -0.980884790420532227
-16.4160003662109375 2.55800008773803711 -0.976999998092651367
-16.4419994354248047 2.54500007629394531 -0.930999994277954102
-16.4155540466308594 2.57824921607971191 -1.02664029598236084
-16.4319992065429688 2.57200002670288086 -1.02400004863739014
-16.4510002136230469 2.53800010681152344 -1.03400003910064697
-16.4338474273681641 2.58346700668334961 -1.04051291942596436
-16.4326992034912109 2.52465343475341797 -0.992794156074523926
-16.457000732421875 2.42899990081787109 -0.843999981880187988
-16.4683723449707031 2.48392844200134277 -0.87149655818939209
-16.4017753601074219 2.48811173439025879 -1.01856887340545654
-16.4360008239746094 2.59599995613098145 -0.94300001859664917
-16.4086837768554688 2.57555246353149414 -0.929963350296020508
-16.4239997863769531 2.55699992179870605 -0.961000025272369385
-16.4470005035400391 2.54600000381469727 -0.944999992847442627
-16.4228057861328125 2.57150673866271973 -0.929690957069396973
-16.4019756317138672 2.50532102584838867 -0.99362945556640625
-16.4379997253417969 2.57999992370605469 -0.919000029563903809
-16.4549999237060547 2.48600006103515625 -0.919000029563903809
-16.4056682586669922 2.56964898109436035 -0.965794503688812256
-16.4522304534912109 2.46642804145812988 -0.857702732086181641
-16.4279994964599609 2.54600000381469727 -0.924000024795532227
-16.4449996948242188 2.53500008583068848 -1
-16.4370002746582031 2.47900009155273438 -1
-16.4759998321533203 2.50999999046325684 -0.949999988079071045
-16.4640007019042969 2.47499990463256836 -0.893999993801116943
-16.4599990844726562 2.4309999942779541 -0.832000017166137695
-16.4605655670166016 2.53336358070373535 -0.954930543899536133
-16.4314994812011719 2.52850008010864258 -0.976500034332275391
-16.4290008544921875 2.58899998664855957 -0.930999994277954102
-16.4629993438720703 2.4440000057220459 -0.824000000953674316
-16.461334228515625 2.48440885543823242 -0.954999089241027832
-16.4230003356933594 2.48600006103515625 -0.922999978065490723
-16.4361743927001953 2.51599860191345215 -0.933661341667175293
-16.4270668029785156 2.48972415924072266 -0.89413154125213623
-16.4818916320800781 2.45258593559265137 -0.821820855140686035
-16.4739551544189453 2.45476055145263672 -0.853731513023376465
-16.4349994659423828 2.50600004196166992 -0.97500002384185791
-16.4150009155273438 2.52099990844726562 -0.939499974250793457
-16.4489994049072266 2.4849998950958252 -0.902999997138977051
-16.4667625427246094 2.47823834419250488 -0.965001225471496582
-16.4360008239746094 2.55999994277954102 -0.985000014305114746
-16.4290008544921875 2.53600001335144043 -0.953999996185302734
-16.4400005340576172 2.55399990081787109 -0.944999992847442627
-16.4248390197753906 2.60332441329956055 -0.947633504867553711
-16.4449996948242188 2.49099993705749512 -0.888000011444091797
-16.4290008544921875 2.5409998893737793 -0.949999988079071045
-16.4290008544921875 2.58299994468688965 -0.919000029563903809
-16.4394989013671875 2.59299993515014648 -0.948000013828277588
-16.4099998474121094 2.57399988174438477 -0.981999993324279785
-16.4511928558349609 2.52228498458862305 -1.01704347133636475
-16.444000244140625 2.56299996376037598 -1.00899994373321533
-16.444915771484375 2.54943180084228516 -1.0111701488494873
-16.4370002746582031 2.55200004577636719 -0.986000001430511475
-16.4379997253417969 2.54600000381469727 -1.03199994564056396
-16.4263343811035156 2.47376465797424316 -0.898207604885101318
-16.4518775939941406 2.46800947189331055 -0.882512450218200684
-16.4578056335449219 2.46612668037414551 -0.904098272323608398
-16.4858856201171875 2.49910116195678711 -0.864127755165100098
-16.4659996032714844 2.48200011253356934 -0.887000024318695068
-16.4699993133544922 2.48099994659423828 -0.885999977588653564
-16.4482975006103516 2.48550844192504883 -0.89704972505569458
-16.4489994049072266 2.47499990463256836 -0.921999990940093994
-16.4083328247070312 2.47837972640991211 -0.917877197265625
-16.3996696472167969 2.46587562561035156 -0.933229804039001465
-16.4669990539550781 2.45199990272521973 -0.825999975204467773
-16.48382568359375 2.50683045387268066 -0.958402395248413086
-16.4479999542236328 2.49499988555908203 -0.985000014305114746
-16.4260005950927734 2.49799990653991699 -1.02999997138977051
-16.4574165344238281 2.53453755378723145 -0.967945992946624756
-16.4754543304443359 2.44097185134887695 -0.806553542613983154
-16.4249992370605469 2.53999996185302734 -1.00600004196166992
-16.417999267578125 2.5840001106262207 -1.0130000114440918
-16.4729995727539062 2.52399992942810059 -0.948000013828277588
-16.4430007934570312 2.54800009727478027 -1.03900003433227539
-16.453948974609375 2.53897643089294434 -0.979474365711212158
-16.4282798767089844 2.53015398979187012 -0.928636431694030762
-16.4230003356933594 2.5840001106262207 -0.959999978542327881
-16.4449996948242188 2.50099992752075195 -0.953000009059906006
-16.4075794219970703 2.51176548004150391 -0.996540069580078125
-16.4459991455078125 2.52625012397766113 -0.934249997138977051
-16.4169998168945312 2.57999992370605469 -0.962999999523162842
-16.4330005645751953 2.5130000114440918 -0.976000010967254639
-16.4317817687988281 2.46443629264831543 -0.916925907135009766
-16.4169998168945312 2.5690000057220459 -0.947000026702880859
-16.417999267578125 2.52099990844726562 -0.996999979019165039
-16.4297733306884766 2.57411837577819824 -0.987775623798370361
-16.4640007019042969 2.50300002098083496 -0.954999983310699463
-16.4300003051757812 2.52900004386901855 -0.985000014305114746
-16.4539585113525391 2.53962111473083496 -0.955728232860565186
-16.4459991455078125 2.54800009727478027 -1.01600003242492676
-16.4890003204345703 2.4849998950958252 -0.879000008106231689
-16.4750003814697266 2.46199989318847656 -0.964999973773956299
-16.4379997253417969 2.51399993896484375 -0.964999973773956299
-16.4200782775878906 2.52990579605102539 -0.931380152702331543
-16.4519996643066406 2.47499990463256836 -0.904999971389770508
-16.4640007019042969 2.50300002098083496 -0.938000023365020752
-16.4226284027099609 2.56337666511535645 -0.934319853782653809
-16.4500007629394531 2.50799989700317383 -0.986000001430511475
-16.4220008850097656 2.49600005149841309 -0.94300001859664917
-16.4137916564941406 2.49861645698547363 -1.00412201881408691
-16.4650001525878906 2.44600009918212891 -0.814999997615814209
-16.4619998931884766 2.43300008773803711 -0.824999988079071045
-16.3991222381591797 2.4981682300567627 -0.920719325542449951
-16.47052001953125 2.42693400382995605 -0.850821435451507568
-16.4623661041259766 2.46120858192443848 -0.881110846996307373
-16.4881000518798828 2.45046472549438477 -0.834884107112884521
-16.4228572845458984 2.46711874008178711 -0.950897634029388428
-16.4433612823486328 2.48982477188110352 -0.984038293361663818
-16.4484996795654297 2.46850013732910156 -0.986000001430511475
-16.4527301788330078 2.46434164047241211 -0.98784250020980835
-16.4167613983154297 2.5045778751373291 -0.987877011299133301
-16.4470005035400391 2.55299997329711914 -0.976999998092651367
-16.4433536529541016 2.55191755294799805 -0.92339712381362915
-16.430999755859375 2.5690000057220459 -1.02300000190734863
-16.4682598114013672 2.45296406745910645 -0.832737267017364502
-16.4592475891113281 2.42659425735473633 -0.836650609970092773
-16.4812259674072266 2.46536827087402344 -0.8743743896484375
-16.4812259674072266 2.47784733772277832 -0.869275927543640137
-16.4820003509521484 2.48300004005432129 -0.853999972343444824
-16.4750003814697266 2.45799994468688965 -0.85000002384185791
-16.4821281433105469 2.44293451309204102 -0.811132550239562988
-16.4898395538330078 2.44915151596069336 -0.848050296306610107
-16.4685001373291016 2.42950010299682617 -0.832499980926513672
-16.4680004119873047 2.43199992179870605 -0.815999984741210938
-16.4839992523193359 2.44899988174438477 -0.842000007629394531
-16.4156532287597656 2.49597334861755371 -0.969330072402954102
-16.449554443359375 2.5337364673614502 -0.935972929000854492
-16.430999755859375 2.55849981307983398 -0.930500030517578125
-16.4297237396240234 2.55357599258422852 -0.977963447570800781
-16.4898586273193359 2.46843266487121582 -0.886609077453613281
-16.4905891418457031 2.48453330993652344 -0.860232234001159668
-16.457000732421875 2.47099995613098145 -0.86799997091293335
-16.4638690948486328 2.4899296760559082 -0.856015920639038086
-16.4981021881103516 2.49116277694702148 -0.871021449565887451
-16.4877719879150391 2.5096137523651123 -0.864113986492156982
-16.4374771118164062 2.47400784492492676 -0.937595903873443604
-16.4659996032714844 2.48300004005432129 -0.968999981880187988
-16.4549999237060547 2.49399995803833008 -0.977999985218048096
-16.4492473602294922 2.46593141555786133 -0.96020275354385376
-16.4510002136230469 2.53999996185302734 -0.944000005722045898
-16.4379997253417969 2.55200004577636719 -0.949999988079071045
-16.4111137390136719 2.52905058860778809 -0.998240768909454346
-16.4270000457763672 2.58999991416931152 -0.934000015258789062
-16.4674949645996094 2.45823764801025391 -0.970802903175354004
-16.457000732421875 2.53500008583068848 -0.984000027179718018
-16.4300003051757812 2.54500007629394531 -0.933000028133392334
-16.4750003814697266 2.46499991416931152 -0.976000010967254639
-16.4300003051757812 2.49699997901916504 -0.995999991893768311
-16.4265060424804688 2.49981141090393066 -0.941204309463500977
-16.4780006408691406 2.51600003242492676 -0.957000017166137695
-16.4481964111328125 2.4775235652923584 -0.847955465316772461
-16.4529991149902344 2.49399995803833008 -0.894999980926513672
-16.4759998321533203 2.47399997711181641 -0.934000015258789062
-16.4710006713867188 2.52300000190734863 -0.961000025272369385
-16.4640121459960938 2.5242917537689209 -0.945095658302307129
-16.4729995727539062 2.49699997901916504 -0.870000004768371582
-16.4379997253417969 2.58100008964538574 -0.97500002384185791
-16.4529991149902344 2.49300003051757812 -0.927999973297119141
-16.4659996032714844 2.48099994659423828 -0.953999996185302734
-16.4633407592773438 2.4690701961517334 -0.979472637176513672
-16.4537925720214844 2.49650263786315918 -0.928354501724243164
-16.4689998626708984 2.48099994659423828 -0.93199998140335083
-16.4190025329589844 2.47790718078613281 -0.943095982074737549
-16.4599990844726562 2.48300004005432129 -0.981000006198883057
-16.4720001220703125 2.47000002861022949 -0.93599998950958252
-16.4317283630371094 2.46245837211608887 -0.95321887731552124
-16.4619998931884766 2.4849998950958252 -0.934000015258789062
-16.4759998321533203 2.50900006294250488 -0.941999971866607666
-16.4209995269775391 2.56200003623962402 -0.952000021934509277
-16.4150009155273438 2.57850003242492676 -0.945999979972839355
-16.4479999542236328 2.54500007629394531 -0.959999978542327881
-16.430999755859375 2.57200002670288086 -0.953999996185302734
-16.4209995269775391 2.56200003623962402 -0.96399998664855957
-16.4796638488769531 2.49784064292907715 -0.959433138370513916
-16.4080009460449219 2.5820000171661377 -0.954999983310699463
-16.417999267578125 2.57200002670288086 -0.977999985218048096
-16.4404678344726562 2.60362887382507324 -0.959735453128814697
-16.4148750305175781 2.58312320709228516 -0.93214261531829834
-16.4235191345214844 2.51682019233703613 -0.988756775856018066
-16.5087852478027344 2.49001908302307129 -0.859075188636779785
-16.4669990539550781 2.4869999885559082 -0.938000023365020752
-16.4364566802978516 2.48250150680541992 -1.00561606884002686
-16.4206371307373047 2.48999452590942383 -1.00645136833190918
-16.44097900390625 2.48731040954589844 -1.01972377300262451
-16.4269351959228516 2.47591638565063477 -1.01878011226654053
-16.4522285461425781 2.510467529296875 -1.0369408130645752
-16.4478321075439453 2.50580883026123047 -1.00785720348358154
-16.4430007934570312 2.50600004196166992 -1.02999997138977051
-16.4486236572265625 2.51127099990844727 -1.0148388147354126
-16.4287757873535156 2.56968283653259277 -1.00692760944366455
-16.4330005645751953 2.53999996185302734 -1.01100003719329834
-16.4519996643066406 2.53900003433227539 -0.994000017642974854
-16.4075660705566406 2.48672747611999512 -0.923554718494415283
-16.4434051513671875 2.55609536170959473 -0.916979193687438965
-16.4469985961914062 2.55800008773803711 -1.01749992370605469
-16.4360008239746094 2.55200004577636719 -1.03600001335144043
-16.4263381958007812 2.50593757629394531 -1.0193629264831543
-16.4556636810302734 2.53929972648620605 -1.04044198989868164
-16.4580001831054688 2.52900004386901855 -1.00300002098083496
-16.4599990844726562 2.55299997329711914 -1.00300002098083496
-16.4225006103515625 2.58650016784667969 -1.00200009346008301
-16.4711952209472656 2.48570108413696289 -0.921055316925048828
-16.4272365570068359 2.58044171333312988 -1.00032472610473633
-16.4419994354248047 2.56200003623962402 -0.976999998092651367
-16.4744987487792969 2.42799997329711914 -0.855000019073486328
-16.4529991149902344 2.50399994850158691 -0.96799999475479126
-16.4366035461425781 2.4815056324005127 -0.915252029895782471
-16.4090003967285156 2.49799990653991699 -0.925000011920928955
-16.4317741394042969 2.49452090263366699 -0.934809505939483643
-16.4020004272460938 2.48099994659423828 -0.93599998950958252
-16.4589996337890625 2.47799992561340332 -0.921999990940093994
-16.4710006713867188 2.48000001907348633 -0.890999972820281982
-16.4257869720458984 2.46503114700317383 -0.941029906272888184
-16.4795303344726562 2.49888706207275391 -0.855419397354125977
-16.4606552124023438 2.4645843505859375 -0.85189056396484375
-16.4196662902832031 2.57087945938110352 -0.984446883201599121
-16.4769992828369141 2.45399999618530273 -0.958999991416931152
-16.4580001831054688 2.49399995803833008 -0.917999982833862305
-16.4200000762939453 2.56100010871887207 -0.972000002861022949
-16.4540004730224609 2.52300000190734863 -0.977999985218048096
-16.4430007934570312 2.52699995040893555 -1.00600004196166992
-16.4594860076904297 2.52223706245422363 -1.02966773509979248
-16.4599990844726562 2.52500009536743164 -1.00999999046325684
-16.4310932159423828 2.57818722724914551 -0.927881121635437012
-16.4141254425048828 2.57383894920349121 -1.0252687931060791
-16.4379997253417969 2.57100009918212891 -1.01800000667572021
-16.4495868682861328 2.51446151733398438 -1.03403031826019287
-16.4425010681152344 2.49149990081787109 -0.893999993801116943
-16.4340000152587891 2.52999997138977051 -0.982999980449676514
-16.4589996337890625 2.52900004386901855 -1.02600002288818359
-16.4360008239746094 2.59200000762939453 -0.953000009059906006
-16.4195728302001953 2.60654592514038086 -0.949059903621673584
-16.4117450714111328 2.59107518196105957 -0.999015986919403076
-16.4720001220703125 2.51699995994567871 -0.954999983310699463
-16.4479999542236328 2.56299996376037598 -1.00199997425079346
-16.4363117218017578 2.51655125617980957 -1.00593388080596924
-16.457000732421875 2.53099989891052246 -1.01100003719329834
-16.4529991149902344 2.53600001335144043 -1.04100000858306885
-16.4669990539550781 2.49200010299682617 -0.936999976634979248
-16.4003772735595703 2.57257485389709473 -0.961053788661956787
-16.4310836791992188 2.58481144905090332 -1.02458298206329346
-16.4326686859130859 2.57438182830810547 -1.01201093196868896
-16.4340000152587891 2.53200006484985352 -0.957000017166137695
-16.4175605773925781 2.4696345329284668 -0.924473702907562256
-16.4486503601074219 2.52183008193969727 -0.937934815883636475
-16.4529991149902344 2.49300003051757812 -0.940999984741210938
-16.4489994049072266 2.47499990463256836 -0.953999996185302734
-16.4729995727539062 2.46099996566772461 -0.953999996185302734
-16.4703330993652344 2.46936726570129395 -0.957420587539672852
-16.4803657531738281 2.42264151573181152 -0.833097398281097412
-16.4549999237060547 2.42799997329711914 -0.829999983310699463
-16.4501609802246094 2.46355772018432617 -0.897881150245666504
-16.4730072021484375 2.46215987205505371 -0.880462884902954102
-16.4120006561279297 2.5280001163482666 -0.990999996662139893
-16.4570884704589844 2.5141899585723877 -0.976790130138397217
1 1 1
-16.4379997253417969 2.49399995803833008 -0.959999978542327881
-16.4729995727539062 2.46700000762939453 -0.934000015258789062
-16.4270000457763672 2.57899999618530273 -0.986999988555908203
-16.4489994049072266 2.56999993324279785 -0.994000017642974854
-16.4680004119873047 2.52300000190734863 -0.962000012397766113
-16.4780006408691406 2.45799994468688965 -0.955999970436096191
-16.444000244140625 2.54800009727478027 -0.955999970436096191
-16.4500007629394531 2.5150001049041748 -0.985000014305114746
-16.4360008239746094 2.57699990272521973 -0.96799999475479126
3 177 304 178 255 255 255
3 178 84 177 255 255 255
3 178 155 84 255 255 255
3 177 15 304 255 255 255
3 84 169 177 255 255 255
3 155 53 84 255 255 255
3 178 124 155 255 255 255
3 53 156 84 255 255 255
3 155 119 53 255 255 255
3 84 89 169 255 255 255
3 156 1 84 255 255 255
3 53 177 156 255 255 255
3 119 160 53 255 255 255
3 15 4 304 255 255 255
3 15 62 158 255 255 255
3 177 62 15 255 255 255
3 177 80 62 255 255 255
3 179 90 169 255 255 255
3 169 89 179 255 255 255
3 177 17 156 255 255 255
3 160 179 53 255 255 255
3 178 1 124 255 255 255
3 15 158 4 255 255 255
3 80 305 62 255 255 255
3 179 176 90 255 255 255
3 160 176 179 255 255 255
3 89 155 124 255 255 255
3 80 84 305 255 255 255
3 90 18 169 255 255 255
3 17 158 4 255 255 255
3 18 269 169 255 255 255
3 90 159 18 255 255 255
3 176 16 90 255 255 255
3 177 158 17 255 255 255
3 160 16 176 255 255 255
3 158 170 4 255 255 255
3 18 74 269 255 255 255
3 159 74 18 255 255 255
3 90 307 159 255 255 255
3 90 171 307 255 255 255
3 16 171 90 255 255 255
3 158 62 170 255 255 255
3 74 205 269 255 255 255
3 16 172 171 255 255 255
3 89 169 160 255 255 255
3 170 304 4 255 255 255
3 171 184 307 255 255 255
3 172 184 171 255 255 255
3 16 185 172 255 255 255
3 173 185 16 255 255 255
3 174 269 16 255 255 255
3 16 179 174 255 255 255
3 89 119 169 255 255 255
3 175 155 89 255 255 255
3 175 124 155 255 255 255
3 304 17 4 255 255 255
3 170 33 304 255 255 255
3 305 33 170 255 255 255
3 305 156 33 255 255 255
3 74 186 205 255 255 255
3 306 74 159 255 255 255
3 307 79 159 255 255 255
3 184 46 307 255 255 255
3 185 184 172 255 255 255
3 185 188 184 255 255 255
3 185 234 188 255 255 255
3 173 234 185 255 255 255
3 16 187 173 255 255 255
3 16 160 179 255 255 255
3 89 178 175 255 255 255
3 158 4 259 255 255 255
3 186 187 205 255 255 255
3 306 110 74 255 255 255
3 159 111 306 255 255 255
3 307 46 79 255 255 255
3 184 188 145 255 255 255
3 173 268 234 255 255 255
3 187 268 173 255 255 255
3 16 269 187 255 255 255
3 186 63 187 255 255 255
3 74 110 186 255 255 255
3 159 46 111 255 255 255
3 188 112 145 255 255 255
3 189 188 234 255 255 255
3 268 189 234 255 255 255
3 269 205 187 255 255 255
3 186 110 63 255 255 255
3 109 99 110 255 255 255
3 110 306 109 255 255 255
3 111 137 306 255 255 255
3 111 116 137 255 255 255
3 112 114 145 255 255 255
3 187 29 268 255 255 255
3 110 113 63 255 255 255
3 113 210 63 255 255 255
3 110 115 113 255 255 255
3 111 265 116 255 255 255
3 114 266 145 255 255 255
3 112 210 114 255 255 255
3 188 189 112 255 255 255
3 268 29 189 255 255 255
3 187 63 29 255 255 255
3 115 206 113 255 255 255
3 109 88 99 255 255 255
3 306 137 109 255 255 255
3 116 190 137 255 255 255
3 265 221 116 255 255 255
3 266 184 145 255 255 255
3 114 113 266 255 255 255
3 112 189 210 255 255 255
3 189 29 210 255 255 255
3 267 298 137 255 255 255
3 137 190 267 255 255 255
3 116 212 190 255 255 255
3 221 212 116 255 255 255
3 221 300 212 255 255 255
3 265 216 221 255 255 255
3 113 206 266 255 255 255
3 19 282 88 255 255 255
3 109 137 88 255 255 255
3 137 298 88 255 255 255
3 190 220 267 255 255 255
3 212 300 190 255 255 255
3 300 23 190 255 255 255
3 221 85 300 255 255 255
3 216 235 221 255 255 255
3 265 312 216 255 255 255
3 88 117 19 255 255 255
3 117 262 19 255 255 255
3 88 298 117 255 255 255
3 118 117 298 255 255 255
3 298 267 118 255 255 255
3 300 301 23 255 255 255
3 85 10 300 255 255 255
3 216 207 235 255 255 255
3 312 213 216 255 255 255
3 261 34 19 255 255 255
3 19 86 261 255 255 255
3 117 157 262 255 255 255
3 267 161 118 255 255 255
3 267 220 161 255 255 255
3 220 20 161 255 255 255
3 220 301 193 255 255 255
3 85 3 10 255 255 255
3 221 213 85 255 255 255
3 312 303 213 255 255 255
3 86 263 261 255 255 255
3 19 262 86 255 255 255
3 262 263 86 255 255 255
3 117 118 157 255 255 255
3 118 217 264 255 255 255
3 220 193 20 255 255 255
3 301 303 193 255 255 255
3 220 190 301 255 255 255
3 191 192 85 255 255 255
3 85 193 191 255 255 255
3 213 303 85 255 255 255
3 221 219 213 255 255 255
3 312 302 303 255 255 255
3 263 30 261 255 255 255
3 262 203 263 255 255 255
3 157 264 262 255 255 255
3 264 157 118 255 255 255
3 118 161 217 255 255 255
3 193 24 20 255 255 255
3 301 85 303 255 255 255
3 192 260 85 255 255 255
3 191 218 192 255 255 255
3 193 214 191 255 255 255
3 302 198 303 255 255 255
3 219 302 213 255 255 255
3 263 215 30 255 255 255
3 87 215 263 255 255 255
3 87 299 215 255 255 255
3 264 247 262 255 255 255
3 217 247 264 255 255 255
3 193 21 24 255 255 255
3 193 22 21 255 255 255
3 303 198 193 255 255 255
3 260 311 85 255 255 255
3 192 91 260 255 255 255
3 218 162 192 255 255 255
3 191 214 218 255 255 255
3 214 163 218 255 255 255
3 215 272 30 255 255 255
3 299 150 215 255 255 255
3 87 134 299 255 255 255
3 263 203 87 255 255 255
3 203 92 87 255 255 255
3 161 23 217 255 255 255
3 20 3 161 255 255 255
3 21 163 24 255 255 255
3 22 164 21 255 255 255
3 91 311 260 255 255 255
3 91 42 311 255 255 255
3 192 162 91 255 255 255
3 162 42 91 255 255 255
3 162 5 42 255 255 255
3 218 21 162 255 255 255
3 214 198 163 255 255 255
3 302 271 198 255 255 255
3 302 316 271 255 255 255
3 272 93 30 255 255 255
3 87 130 134 255 255 255
3 92 130 87 255 255 255
3 23 153 217 255 255 255
3 20 24 3 255 255 255
3 24 180 3 255 255 255
3 163 5 24 255 255 255
3 164 163 21 255 255 255
3 162 52 5 255 255 255
3 218 214 21 255 255 255
3 163 52 218 255 255 255
3 214 94 198 255 255 255
3 93 34 30 255 255 255
3 272 206 93 255 255 255
3 215 35 272 255 255 255
3 134 130 11 255 255 255
3 92 148 130 255 255 255
3 180 14 3 255 255 255
3 24 54 180 255 255 255
3 5 54 24 255 255 255
3 163 77 5 255 255 255
3 22 163 198 255 255 255
3 218 94 214 255 255 255
3 94 146 198 255 255 255
3 34 261 30 255 255 255
3 93 282 34 255 255 255
3 35 256 272 255 255 255
3 215 150 35 255 255 255
3 150 293 35 255 255 255
3 134 209 299 255 255 255
3 130 248 11 255 255 255
3 75 248 130 255 255 255
3 130 148 75 255 255 255
3 148 43 75 255 255 255
3 148 200 43 255 255 255
3 92 96 148 255 255 255
3 5 162 54 255 255 255
3 163 164 77 255 255 255
3 198 201 22 255 255 255
3 218 40 94 255 255 255
3 94 316 146 255 255 255
3 282 19 34 255 255 255
3 256 72 272 255 255 255
3 35 207 256 255 255 255
3 293 235 35 255 255 255
3 150 222 293 255 255 255
3 209 12 299 255 255 255
3 134 181 209 255 255 255
3 134 11 181 255 255 255
3 75 182 248 255 255 255
3 43 182 75 255 255 255
3 43 151 182 255 255 255
3 200 27 43 255 255 255
3 148 100 200 255 255 255
3 96 100 148 255 255 255
3 96 36 100 255 255 255
3 54 165 180 255 255 255
3 54 202 165 255 255 255
3 162 202 54 255 255 255
3 162 236 202 255 255 255
3 164 236 77 255 255 255
3 22 214 164 255 255 255
3 198 146 201 255 255 255
3 40 8 94 255 255 255
3 256 265 72 255 255 255
3 293 213 235 255 255 255
3 222 228 293 255 255 255
3 150 209 222 255 255 255
3 209 81 12 255 255 255
3 181 31 209 255 255 255
3 248 167 11 255 255 255
3 151 69 182 255 255 255
3 200 7 27 255 255 255
3 36 67 100 255 255 255
3 22 201 214 255 255 255
3 201 39 214 255 255 255
3 146 39 201 255 255 255
3 198 271 146 255 255 255
3 8 85 94 255 255 255
3 40 228 8 255 255 255
3 265 149 72 255 255 255
3 293 141 213 255 255 255
3 209 127 222 255 255 255
3 150 299 209 255 255 255
3 299 181 209 255 255 255
3 81 143 12 255 255 255
3 248 182 167 255 255 255
3 182 6 167 255 255 255
3 69 278 182 255 255 255
3 151 66 69 255 255 255
3 27 6 43 255 255 255
3 7 194 27 255 255 255
3 200 56 7 255 255 255
3 67 223 100 255 255 255
3 36 183 67 255 255 255
3 96 82 36 255 255 255
3 202 237 165 255 255 255
3 236 237 202 255 255 255
3 8 141 85 255 255 255
3 228 120 8 255 255 255
3 149 93 72 255 255 255
3 265 111 149 255 255 255
3 111 79 149 255 255 255
3 256 219 265 255 255 255
3 141 228 213 255 255 255
3 222 120 228 255 255 255
3 127 78 222 255 255 255
3 299 12 181 255 255 255
3 143 297 12 255 255 255
3 209 315 81 255 255 255
3 6 97 167 255 255 255
3 278 71 182 255 255 255
3 69 44 278 255 255 255
3 151 138 66 255 255 255
3 6 69 43 255 255 255
3 27 195 6 255 255 255
3 194 100 27 255 255 255
3 223 27 100 255 255 255
3 67 227 223 255 255 255
3 183 55 67 255 255 255
3 82 183 36 255 255 255
3 82 142 183 255 255 255
3 96 297 82 255 255 255
3 165 64 70 255 255 255
3 237 64 165 255 255 255
3 236 239 237 255 255 255
3 238 239 236 255 255 255
3 236 9 238 255 255 255
3 162 152 121 255 255 255
3 141 132 85 255 255 255
3 8 288 141 255 255 255
3 120 204 8 255 255 255
3 228 40 213 255 255 255
3 141 78 228 255 255 255
3 78 120 222 255 255 255
3 127 204 78 255 255 255
3 297 147 12 255 255 255
3 143 123 297 255 255 255
3 123 143 81 255 255 255
3 315 47 81 255 255 255
3 209 288 315 255 255 255
3 194 31 181 255 255 255
3 181 68 194 255 255 255
3 11 56 181 255 255 255
3 6 226 97 255 255 255
3 138 224 66 255 255 255
3 138 294 224 255 255 255
3 151 223 138 255 255 255
3 6 0 69 255 255 255
3 195 226 6 255 255 255
3 195 227 226 255 255 255
3 227 294 223 255 255 255
3 67 55 227 255 255 255
3 55 73 227 255 255 255
3 183 270 55 255 255 255
3 142 107 183 255 255 255
3 70 196 165 255 255 255
3 237 239 64 255 255 255
3 9 241 238 255 255 255
3 121 218 162 255 255 255
3 152 309 121 255 255 255
3 141 12 132 255 255 255
3 8 315 288 255 255 255
3 204 315 8 255 255 255
3 204 208 315 255 255 255
3 127 208 204 255 255 255
3 127 81 208 255 255 255
3 315 309 47 255 255 255
3 194 41 31 255 255 255
3 56 68 181 255 255 255
3 11 167 56 255 255 255
3 278 101 71 255 255 255
3 44 101 278 255 255 255
3 66 224 232 255 255 255
3 294 229 224 255 255 255
3 151 43 223 255 255 255
3 0 232 69 255 255 255
3 227 138 226 255 255 255
3 227 73 294 255 255 255
3 183 107 270 255 255 255
3 107 95 270 255 255 255
3 142 283 107 255 255 255
3 82 308 142 255 255 255
3 196 233 165 255 255 255
3 70 133 196 255 255 255
3 239 122 64 255 255 255
3 238 122 239 255 255 255
3 238 242 122 255 255 255
3 240 242 238 255 255 255
3 238 241 240 255 255 255
3 241 243 240 255 255 255
3 12 147 132 255 255 255
3 147 311 132 255 255 255
3 274 129 123 255 255 255
3 123 47 274 255 255 255
3 309 147 47 255 255 255
3 41 225 31 255 255 255
3 232 44 66 255 255 255
3 232 83 44 255 255 255
3 224 28 232 255 255 255
3 229 286 224 255 255 255
3 0 197 232 255 255 255
3 73 103 294 255 255 255
3 55 103 73 255 255 255
3 55 270 103 255 255 255
3 270 13 103 255 255 255
3 95 13 270 255 255 255
3 107 289 95 255 255 255
3 283 76 107 255 255 255
3 142 61 283 255 255 255
3 308 125 142 255 255 255
3 196 308 233 255 255 255
3 242 251 122 255 255 255
3 243 276 240 255 255 255
3 152 136 309 255 255 255
3 147 37 311 255 255 255
3 274 50 129 255 255 255
3 225 123 31 255 255 255
3 41 317 225 255 255 255
3 66 71 69 255 255 255
3 83 101 44 255 255 255
3 224 286 28 255 255 255
3 294 135 229 255 255 255
3 103 135 294 255 255 255
3 103 25 135 255 255 255
3 13 287 103 255 255 255
3 95 314 13 255 255 255
3 107 106 289 255 255 255
3 76 106 107 255 255 255
3 283 61 76 255 255 255
3 61 245 76 255 255 255
3 308 196 125 255 255 255
3 233 37 165 255 255 255
3 308 82 233 255 255 255
3 82 37 233 255 255 255
3 242 104 251 255 255 255
3 147 136 37 255 255 255
3 50 246 129 255 255 255
3 274 61 50 255 255 255
3 41 97 317 255 255 255
3 69 101 232 255 255 255
3 71 0 69 255 255 255
3 135 131 229 255 255 255
3 25 140 135 255 255 255
3 103 287 25 255 255 255
3 13 126 287 255 255 255
3 244 279 13 255 255 255
3 13 105 244 255 255 255
3 245 106 76 255 255 255
3 245 108 106 255 255 255
3 37 180 165 255 255 255
3 37 42 180 255 255 255
3 104 290 251 255 255 255
3 242 281 104 255 255 255
3 243 277 276 255 255 255
3 241 277 243 255 255 255
3 9 152 241 255 255 255
3 147 309 136 255 255 255
3 246 51 129 255 255 255
3 97 195 317 255 255 255
3 41 68 97 255 255 255
3 98 197 28 255 255 255
3 28 286 98 255 255 255
3 131 286 229 255 255 255
3 131 2 286 255 255 255
3 135 319 131 255 255 255
3 13 279 126 255 255 255
3 244 168 279 255 255 255
3 244 280 168 255 255 255
3 105 106 244 255 255 255
3 13 314 105 255 255 255
3 314 51 105 255 255 255
3 106 105 289 255 255 255
3 108 249 106 255 255 255
3 275 50 61 255 255 255
3 275 246 50 255 255 255
3 275 245 246 255 255 255
3 61 290 275 255 255 255
3 104 275 290 255 255 255
3 242 240 281 255 255 255
3 240 276 281 255 255 255
3 276 252 281 255 255 255
3 277 284 276 255 255 255
3 277 291 284 255 255 255
3 152 45 241 255 255 255
3 166 225 129 255 255 255
3 51 166 129 255 255 255
3 51 95 166 255 255 255
3 246 38 51 255 255 255
3 195 32 317 255 255 255
3 98 65 197 255 255 255
3 131 231 2 255 255 255
3 319 285 131 255 255 255
3 135 230 319 255 255 255
3 279 57 126 255 255 255
3 280 249 168 255 255 255
3 51 38 105 255 255 255
3 314 258 51 255 255 255
3 108 250 249 255 255 255
3 61 139 290 255 255 255
3 104 291 275 255 255 255
3 281 284 104 255 255 255
3 284 252 276 255 255 255
3 277 253 291 255 255 255
3 45 104 241 255 255 255
3 152 318 45 255 255 255
3 166 32 225 255 255 255
3 246 254 38 255 255 255
3 65 83 197 255 255 255
3 98 26 65 255 255 255
3 131 285 231 255 255 255
3 319 211 285 255 255 255
3 230 313 319 255 255 255
3 25 255 140 255 255 255
3 230 257 25 255 255 255
3 168 58 279 255 255 255
3 314 211 258 255 255 255
3 249 280 106 255 255 255
3 250 168 249 255 255 255
3 108 128 250 255 255 255
3 139 154 290 255 255 255
3 61 196 139 255 255 255
3 251 290 154 255 255 255
3 281 292 284 255 255 255
3 252 59 281 255 255 255
3 284 59 252 255 255 255
3 253 246 291 255 255 255
3 277 45 253 255 255 255
3 318 253 45 255 255 255
3 318 199 253 255 255 255
3 254 289 38 255 255 255
3 246 144 254 255 255 255
3 285 102 231 255 255 255
3 255 257 140 255 255 255
3 25 287 255 255 255 255
3 257 255 25 255 255 255
3 230 140 257 255 255 255
3 57 295 126 255 255 255
3 279 60 57 255 255 255
3 58 60 279 255 255 255
3 168 280 58 255 255 255
3 314 313 211 255 255 255
3 139 133 154 255 255 255
3 196 133 139 255 255 255
3 133 70 154 255 255 255
3 70 64 154 255 255 255
3 61 142 196 255 255 255
3 59 108 281 255 255 255
3 252 128 292 255 255 255
3 253 199 246 255 255 255
3 318 274 199 255 255 255
3 254 48 289 255 255 255
3 98 286 26 255 255 255
3 231 26 2 255 255 255
3 231 102 26 255 255 255
3 285 49 102 255 255 255
3 255 296 257 255 255 255
3 257 244 255 255 255 255
3 230 273 140 255 255 255
3 57 60 295 255 255 255
3 280 295 58 255 255 255
3 318 309 274 255 255 255
3 26 102 65 255 255 255
3 286 2 26 255 255 255
3 285 28 49 255 255 255
3 255 295 296 255 255 255
3 287 126 255 255 255 255
3 230 227 273 255 255 255
3 60 58 295 255 255 255
3 285 65 28 255 255 255
3 230 135 227 255 255 255
3 280 296 295 255 255 255
3 280 105 296 255 255 255
3 310 310 310 255 255 255
