ply
format ascii 1.0
element vertex 313
property float x
property float y
property float z
element face 576
property list uchar int vertex_indices
property uchar red
property uchar green
property uchar blue
end_header
6.82899999618530273 0.377000004053115845 -0.873000025749206543
6.85900020599365234 0.321999996900558472 -0.78600001335144043
6.86600017547607422 0.298999994993209839 -0.809000015258789062
6.86399984359741211 0.303999990224838257 -0.797999978065490723
6.85799980163574219 0.312000006437301636 -0.799000024795532227
6.82299995422363281 0.340000003576278687 -0.800999999046325684
6.84899997711181641 0.358000010251998901 -0.792999982833862305
6.86600017547607422 0.326000005006790161 -0.837999999523162842
6.81799983978271484 0.344000011682510376 -0.800000011920928955
6.8189997673034668 0.354000002145767212 -0.796999990940093994
6.85799980163574219 0.331000000238418579 -0.859000027179718018
6.81500005722045898 0.360000014305114746 -0.824000000953674316
6.81599998474121094 0.367000013589859009 -0.823000013828277588
6.82999992370605469 0.367000013589859009 -0.823000013828277588
6.82800006866455078 0.365000009536743164 -0.887000024318695068
6.8619999885559082 0.331000000238418579 -0.796000003814697266
6.87900018692016602 0.335000008344650269 -0.800999999046325684
6.8880000114440918 0.326000005006790161 -0.823000013828277588
6.875 0.298999994993209839 -0.805000007152557373
6.85900020599365234 0.317000001668930054 -0.796999990940093994
6.84999990463256836 0.331000000238418579 -0.792999982833862305
6.87300014495849609 0.312000006437301636 -0.828999996185302734
6.8600001335144043 0.317000001668930054 -0.829999983310699463
6.85099983215332031 0.321000009775161743 -0.827000021934509277
6.85599994659423828 0.321999996900558472 -0.802999973297119141
6.8470001220703125 0.337999999523162842 -0.825999975204467773
6.82200002670288086 0.35899999737739563 -0.852999985218048096
6.85400009155273438 0.347999989986419678 -0.828000009059906006
6.84800004959106445 0.335000008344650269 -0.853999972343444824
6.82100009918212891 0.361000001430511475 -0.796999990940093994
6.8600001335144043 0.33899998664855957 -0.828999996185302734
6.84899997711181641 0.333999991416931152 -0.857999980449676514
6.81599998474121094 0.349000006914138794 -0.808000028133392334
6.82600021362304688 0.365000009536743164 -0.879999995231628418
6.8340001106262207 0.370000004768371582 -0.828999996185302734
6.8340001106262207 0.358000010251998901 -0.865999996662139893
6.81699991226196289 0.375 -0.828000009059906006
6.85699987411499023 0.328999996185302734 -0.875
6.85649967193603516 0.347499996423721313 -0.830999970436096191
6.82000017166137695 0.358000010251998901 -0.796000003814697266
6.84999990463256836 0.335999995470046997 -0.851000010967254639
6.83099985122680664 0.365000009536743164 -0.889999985694885254
6.85900020599365234 0.312000006437301636 -0.796000003814697266
6.82700014114379883 0.379000008106231689 -0.870000004768371582
6.80900001525878906 0.361000001430511475 -0.837999999523162842
6.86700010299682617 0.31099998950958252 -0.822000026702880859
6.85099983215332031 0.347000002861022949 -0.796000003814697266
6.87200021743774414 0.31400001049041748 -0.792999982833862305
6.83300018310546875 0.342000007629394531 -0.781000018119812012
6.84899997711181641 0.351999998092651367 -0.794000029563903809
6.86100006103515625 0.323000013828277588 -0.852999985218048096
6.83300018310546875 0.351000010967254639 -0.778999984264373779
6.83699989318847656 0.356000006198883057 -0.777000010013580322
6.82700014114379883 0.360000014305114746 -0.782999992370605469
6.85599994659423828 0.331000000238418579 -0.880999982357025146
6.82200002670288086 0.375999987125396729 -0.870000004768371582
6.85599994659423828 0.32699999213218689 -0.805999994277954102
6.80900001525878906 0.375 -0.830999970436096191
6.84399986267089844 0.368000000715255737 -0.874000012874603271
6.82399988174438477 0.363000005483627319 -0.805000007152557373
6.85500001907348633 0.34299999475479126 -0.843999981880187988
6.81599998474121094 0.368999987840652466 -0.823000013828277588
6.82800006866455078 0.377000004053115845 -0.864000022411346436
6.80900001525878906 0.372999995946884155 -0.833000004291534424
6.82399988174438477 0.360000014305114746 -0.860000014305114746
6.8470001220703125 0.349000006914138794 -0.832000017166137695
6.86399984359741211 0.342000007629394531 -0.839999973773956299
6.81300020217895508 0.372000008821487427 -0.834999978542327881
6.82499980926513672 0.367000013589859009 -0.845000028610229492
6.83199977874755859 0.365000009536743164 -0.804000020027160645
6.82200002670288086 0.356999993324279785 -0.833999991416931152
6.83099985122680664 0.368000000715255737 -0.829999983310699463
6.84499979019165039 0.342000007629394531 -0.887000024318695068
6.80700016021728516 0.374000012874603271 -0.824000000953674316
6.84800004959106445 0.328999996185302734 -0.875
6.80999994277954102 0.375999987125396729 -0.828000009059906006
6.8470001220703125 0.331000000238418579 -0.876999974250793457
6.85799980163574219 0.344999998807907104 -0.828000009059906006
6.82299995422363281 0.33899998664855957 -0.771000027656555176
6.85300016403198242 0.32699999213218689 -0.837999999523162842
6.8340001106262207 0.340000003576278687 -0.791999995708465576
6.83199977874755859 0.344000011682510376 -0.779999971389770508
6.85099983215332031 0.321999996900558472 -0.856000006198883057
6.8189997673034668 0.344999998807907104 -0.790000021457672119
6.83900022506713867 0.354000002145767212 -0.779999971389770508
6.8470001220703125 0.331999987363815308 -0.836000025272369385
6.84299993515014648 0.340999990701675415 -0.842000007629394531
6.84600019454956055 0.340000003576278687 -0.874000012874603271
6.84800004959106445 0.344999998807907104 -0.84299999475479126
6.8189997673034668 0.354000002145767212 -0.790000021457672119
6.8470001220703125 0.349000006914138794 -0.834999978542327881
6.85699987411499023 0.345999985933303833 -0.83899998664855957
6.82399988174438477 0.360000014305114746 -0.856999993324279785
6.82299995422363281 0.372999995946884155 -0.862999975681304932
6.82649993896484375 0.365000009536743164 -0.796999990940093994
6.82200002670288086 0.370000004768371582 -0.865000009536743164
6.83300018310546875 0.363000005483627319 -0.86799997091293335
6.84800004959106445 0.335999995470046997 -0.851000010967254639
6.83900022506713867 0.349000006914138794 -0.799000024795532227
6.82800006866455078 0.368999987840652466 -0.787999987602233887
6.82800006866455078 0.360000014305114746 -0.852999985218048096
6.82600021362304688 0.365000009536743164 -0.787000000476837158
6.83900022506713867 0.361999988555908203 -0.875999987125396729
6.83099985122680664 0.356999993324279785 -0.815999984741210938
6.8619999885559082 0.333000004291534424 -0.833000004291534424
6.84399986267089844 0.365000009536743164 -0.873000025749206543
6.875 0.293999999761581421 -0.808000028133392334
6.85799980163574219 0.321999996900558472 -0.796999990940093994
6.87400007247924805 0.328999996185302734 -0.814999997615814209
6.81500005722045898 0.375999987125396729 -0.828000009059906006
6.85300016403198242 0.331000000238418579 -0.862999975681304932
6.81499910354614258 0.371001362800598145 -0.837999641895294189
6.84499979019165039 0.340999990701675415 -0.879000008106231689
6.85099983215332031 0.340999990701675415 -0.884999990463256836
6.89099979400634766 0.324000000953674316 -0.810000002384185791
6.87900018692016602 0.305000007152557373 -0.804000020027160645
6.87099981307983398 0.31099998950958252 -0.796999990940093994
6.86700010299682617 0.323000013828277588 -0.845000028610229492
6.83599996566772461 0.337999999523162842 -0.824000000953674316
6.84899997711181641 0.328000009059906006 -0.870000004768371582
6.81799983978271484 0.352999985218048096 -0.802999973297119141
6.85500001907348633 0.337000012397766113 -0.879000008106231689
6.82000017166137695 0.356000006198883057 -0.828999996185302734
6.81199979782104492 0.360000014305114746 -0.829999983310699463
6.81199979782104492 0.375 -0.832000017166137695
6.86600017547607422 0.296999990940093994 -0.811999976634979248
6.82700014114379883 0.361999988555908203 -0.883000016212463379
6.82499980926513672 0.368000000715255737 -0.819999992847442627
6.84499979019165039 0.342000007629394531 -0.880999982357025146
6.84899997711181641 0.337999999523162842 -0.824000000953674316
6.83500003814697266 0.365000009536743164 -0.884999990463256836
6.85599994659423828 0.321999996900558472 -0.805999994277954102
6.86399984359741211 0.32699999213218689 -0.853999972343444824
6.83099985122680664 0.356999993324279785 -0.781000018119812012
6.84350013732910156 0.347999989986419678 -0.799000024795532227
6.81300020217895508 0.375 -0.824000000953674316
6.82600021362304688 0.34299999475479126 -0.776000022888183594
6.84100008010864258 0.344999998807907104 -0.820999979972839355
6.82499980926513672 0.361000001430511475 -0.865999996662139893
6.85699987411499023 0.351999998092651367 -0.787999987602233887
6.8619999885559082 0.319000005722045898 -0.847000002861022949
6.86600017547607422 0.317999988794326782 -0.845000028610229492
6.85099983215332031 0.344999998807907104 -0.800999999046325684
6.83599996566772461 0.335999995470046997 -0.796999990940093994
6.86399984359741211 0.300000011920928955 -0.810000002384185791
6.86700010299682617 0.301999986171722412 -0.81400001049041748
6.85200023651123047 0.307000011205673218 -0.809000015258789062
6.8619999885559082 0.319999992847442627 -0.787999987602233887
6.86499977111816406 0.324000000953674316 -0.787000000476837158
6.83199977874755859 0.340999990701675415 -0.788999974727630615
6.84499979019165039 0.349999994039535522 -0.782999992370605469
6.87699985504150391 0.317000001668930054 -0.822000026702880859
6.83799982070922852 0.340999990701675415 -0.801999986171722412
6.8470001220703125 0.331999987363815308 -0.847000002861022949
6.84299993515014648 0.35499998927116394 -0.781000018119812012
6.84499979019165039 0.331999987363815308 -0.856999993324279785
6.84600019454956055 0.335000008344650269 -0.830999970436096191
6.84800004959106445 0.330000013113021851 -0.833999991416931152
6.83099985122680664 0.360000014305114746 -0.785000026226043701
6.85799980163574219 0.31400001049041748 -0.810000002384185791
6.83900022506713867 0.342000007629394531 -0.787999987602233887
6.85699987411499023 0.333000004291534424 -0.794000029563903809
6.85799980163574219 0.33899998664855957 -0.805999994277954102
6.87699985504150391 0.333999991416931152 -0.80699998140335083
6.88100004196166992 0.328000009059906006 -0.823000013828277588
6.86399984359741211 0.314999997615814209 -0.836000025272369385
6.86600017547607422 0.335999995470046997 -0.809000015258789062
6.87200021743774414 0.29800000786781311 -0.81099998950958252
6.8619999885559082 0.307999998331069946 -0.819999992847442627
6.82200002670288086 0.35899999737739563 -0.782999992370605469
6.83500003814697266 0.365000009536743164 -0.824999988079071045
6.83599996566772461 0.351999998092651367 -0.86799997091293335
6.81699991226196289 0.375 -0.824999988079071045
6.84800004959106445 0.328999996185302734 -0.871999979019165039
6.88000011444091797 0.321000009775161743 -0.824000000953674316
6.85300016403198242 0.349999994039535522 -0.833000004291534424
6.85200023651123047 0.34299999475479126 -0.843999981880187988
6.82399988174438477 0.365999996662139893 -0.800999999046325684
6.8189997673034668 0.35499998927116394 -0.822000026702880859
6.8189997673034668 0.363000005483627319 -0.81800001859664917
6.83900022506713867 0.349999994039535522 -0.832000017166137695
6.84200000762939453 0.34299999475479126 -0.841000020503997803
6.82600021362304688 0.365000009536743164 -0.83899998664855957
6.82700014114379883 0.360000014305114746 -0.873000025749206543
6.80800008773803711 0.360000014305114746 -0.841000020503997803
6.82399988174438477 0.361000001430511475 -0.875
6.88399982452392578 0.328000009059906006 -0.80699998140335083
6.87599992752075195 0.296000003814697266 -0.805999994277954102
6.87099981307983398 0.314999997615814209 -0.790000021457672119
6.85300016403198242 0.33899998664855957 -0.792999982833862305
6.87400007247924805 0.300999999046325684 -0.804000020027160645
6.82899999618530273 0.33899998664855957 -0.796000003814697266
6.84800004959106445 0.351000010967254639 -0.796999990940093994
6.82600021362304688 0.34299999475479126 -0.772000014781951904
6.8600001335144043 0.324999988079071045 -0.859000027179718018
6.84800004959106445 0.328999996185302734 -0.855000019073486328
6.84499979019165039 0.335999995470046997 -0.861000001430511475
6.83699989318847656 0.344000011682510376 -0.827000021934509277
6.85699987411499023 0.319999992847442627 -0.800999999046325684
6.82499980926513672 0.368999987840652466 -0.856000006198883057
6.82000017166137695 0.352999985218048096 -0.81800001859664917
6.84200000762939453 0.342000007629394531 -0.884000003337860107
6.81799983978271484 0.361999988555908203 -0.853999972343444824
6.82800006866455078 0.35899999737739563 -0.866999983787536621
6.81400012969970703 0.360000014305114746 -0.830999970436096191
6.85799980163574219 0.319999992847442627 -0.841000020503997803
6.85200023651123047 0.326000005006790161 -0.832000017166137695
6.86100006103515625 0.310000002384185791 -0.81800001859664917
6.85900020599365234 0.314999997615814209 -0.813000023365020752
6.85799980163574219 0.323000013828277588 -0.791000008583068848
6.85300016403198242 0.337000012397766113 -0.788999974727630615
6.85799980163574219 0.301999986171722412 -0.796999990940093994
6.86499977111816406 0.31400001049041748 -0.794000029563903809
6.87699985504150391 0.319000005722045898 -0.795000016689300537
6.87900018692016602 0.319000005722045898 -0.800000011920928955
6.84600019454956055 0.349000006914138794 -0.837000012397766113
6.82700014114379883 0.35499998927116394 -0.828999996185302734
6.84899997711181641 0.347999989986419678 -0.83899998664855957
6.80499982833862305 0.368999987840652466 -0.841000020503997803
6.82100009918212891 0.372000008821487427 -0.833999991416931152
6.83099985122680664 0.365000009536743164 -0.792999982833862305
6.81699991226196289 0.361000001430511475 -0.787000000476837158
6.82999992370605469 0.35499998927116394 -0.883000016212463379
6.85099983215332031 0.323000013828277588 -0.866999983787536621
6.84800004959106445 0.337000012397766113 -0.884000003337860107
6.81300020217895508 0.349000006914138794 -0.805000007152557373
6.83099985122680664 0.370000004768371582 -0.851000010967254639
6.80999994277954102 0.363000005483627319 -0.834999978542327881
6.87799978256225586 0.331000000238418579 -0.797999978065490723
6.8899998664855957 0.317000001668930054 -0.813000023365020752
6.87300014495849609 0.303000003099441528 -0.802999973297119141
6.87599992752075195 0.307999998331069946 -0.800999999046325684
6.84899997711181641 0.35899999737739563 -0.78600001335144043
6.86499977111816406 0.321999996900558472 -0.847999989986419678
6.85099983215332031 0.344000011682510376 -0.820999979972839355
6.82999992370605469 0.344999998807907104 -0.808000028133392334
6.84200000762939453 0.344000011682510376 -0.804000020027160645
6.82000017166137695 0.344999998807907104 -0.814999997615814209
6.82000017166137695 0.349999994039535522 -0.81400001049041748
6.82700014114379883 0.363000005483627319 -0.892000019550323486
6.81599998474121094 0.356999993324279785 -0.842000007629394531
6.82499980926513672 0.361999988555908203 -0.870000004768371582
6.82399988174438477 0.361000001430511475 -0.862999975681304932
6.82499980926513672 0.361000001430511475 -0.873000025749206543
6.80700016021728516 0.368999987840652466 -0.829999983310699463
6.8189997673034668 0.372999995946884155 -0.828999996185302734
6.84299993515014648 0.360000014305114746 -0.866999983787536621
6.82299995422363281 0.374000012874603271 -0.865999996662139893
6.85099983215332031 0.345999985933303833 -0.842000007629394531
6.8470001220703125 0.331000000238418579 -0.88200002908706665
6.82299995422363281 0.363000005483627319 -0.801999986171722412
6.87900018692016602 0.330000013113021851 -0.814999997615814209
6.8600001335144043 0.342000007629394531 -0.845000028610229492
6.82499980926513672 0.361000001430511475 -0.878000020980834961
6.84999990463256836 0.335999995470046997 -0.883000016212463379
6.83099985122680664 0.351999998092651367 -0.779999971389770508
6.8619999885559082 0.301999986171722412 -0.81400001049041748
6.85799980163574219 0.305999994277954102 -0.80699998140335083
6.8619999885559082 0.305999994277954102 -0.797999978065490723
6.86499977111816406 0.317999988794326782 -0.788999974727630615
6.87200021743774414 0.323000013828277588 -0.791000008583068848
6.87799978256225586 0.32699999213218689 -0.799000024795532227
6.83699989318847656 0.33899998664855957 -0.792999982833862305
6.8619999885559082 0.317000001668930054 -0.837000012397766113
6.87699985504150391 0.333000004291534424 -0.810000002384185791
6.85099983215332031 0.344000011682510376 -0.787999987602233887
6.86100006103515625 0.305000007152557373 -0.815999984741210938
6.85799980163574219 0.323000013828277588 -0.787999987602233887
6.88000011444091797 0.296000003814697266 -0.80699998140335083
6.85699987411499023 0.323000013828277588 -0.847000002861022949
6.84800004959106445 0.328999996185302734 -0.836000025272369385
6.85599994659423828 0.323000013828277588 -0.843999981880187988
6.84100008010864258 0.337000012397766113 -0.841000020503997803
6.82600021362304688 0.337999999523162842 -0.802999973297119141
6.83500003814697266 0.356999993324279785 -0.785000026226043701
6.84499979019165039 0.351999998092651367 -0.796999990940093994
6.82100009918212891 0.352999985218048096 -0.820999979972839355
6.85300016403198242 0.331999987363815308 -0.857999980449676514
6.84499979019165039 0.340999990701675415 -0.875999987125396729
6.86999988555908203 0.312999993562698364 -0.819000005722045898
6.84000015258789062 0.35899999737739563 -0.866999983787536621
6.82700014114379883 0.358000010251998901 -0.845000028610229492
6.86299991607666016 0.32699999213218689 -0.790000021457672119
6.875 0.326000005006790161 -0.794000029563903809
6.87699985504150391 0.328999996185302734 -0.795000016689300537
6.88199996948242188 0.326000005006790161 -0.805999994277954102
6.88199996948242188 0.319000005722045898 -0.805999994277954102
6.875 0.337999999523162842 -0.800999999046325684
6.88399982452392578 0.328999996185302734 -0.81400001049041748
6.8619999885559082 0.31400001049041748 -0.830999970436096191
6.8600001335144043 0.314999997615814209 -0.825999975204467773
6.85500001907348633 0.319999992847442627 -0.824000000953674316
6.85099983215332031 0.321999996900558472 -0.870999991893768311
6.82499980926513672 0.368999987840652466 -0.790000021457672119
6.85300016403198242 0.349999994039535522 -0.829999983310699463
6.85599994659423828 0.347999989986419678 -0.834999978542327881
6.82800006866455078 0.363000005483627319 -0.889999985694885254
1 1 1
6.85699987411499023 0.333000004291534424 -0.809000015258789062
6.81300020217895508 0.356999993324279785 -0.853999972343444824
6.84800004959106445 0.331999987363815308 -0.830999970436096191
6.82600021362304688 0.370000004768371582 -0.787999987602233887
6.85200023651123047 0.347999989986419678 -0.83899998664855957
6.86299991607666016 0.337000012397766113 -0.808000028133392334
6.88000011444091797 0.29800000786781311 -0.805999994277954102
6.82200002670288086 0.365999996662139893 -0.819000005722045898
6.84899997711181641 0.330000013113021851 -0.832000017166137695
6.84600019454956055 0.333999991416931152 -0.853999972343444824
6.85799980163574219 0.324999988079071045 -0.862999975681304932
6.84800004959106445 0.340000003576278687 -0.846000015735626221
6.81699991226196289 0.356999993324279785 -0.81099998950958252
6.86899995803833008 0.314999997615814209 -0.839999973773956299
6.82800006866455078 0.35899999737739563 -0.876999974250793457
3 230 187 268 255 255 255
3 268 231 230 255 255 255
3 187 106 268 255 255 255
3 230 2 187 255 255 255
3 231 116 230 255 255 255
3 187 2 106 255 255 255
3 2 125 106 255 255 255
3 230 3 2 255 255 255
3 116 3 230 255 255 255
3 116 188 3 255 255 255
3 231 47 116 255 255 255
3 2 144 125 255 255 255
3 3 211 2 255 255 255
3 188 212 3 255 255 255
3 116 47 188 255 255 255
3 47 213 188 255 255 255
3 231 213 47 255 255 255
3 231 214 213 255 255 255
3 144 256 125 255 255 255
3 211 144 2 255 255 255
3 211 257 144 255 255 255
3 3 258 211 255 255 255
3 212 258 3 255 255 255
3 212 42 258 255 255 255
3 188 259 212 255 255 255
3 213 260 188 255 255 255
3 214 261 213 255 255 255
3 231 115 214 255 255 255
3 256 145 125 255 255 255
3 144 257 256 255 255 255
3 257 146 256 255 255 255
3 211 146 257 255 255 255
3 258 42 211 255 255 255
3 212 259 42 255 255 255
3 259 147 42 255 255 255
3 188 148 259 255 255 255
3 260 148 188 255 255 255
3 260 282 148 255 255 255
3 213 283 260 255 255 255
3 261 284 213 255 255 255
3 214 285 261 255 255 255
3 115 286 214 255 255 255
3 231 190 115 255 255 255
3 145 167 125 255 255 255
3 256 168 145 255 255 255
3 146 266 256 255 255 255
3 147 1 42 255 255 255
3 259 148 147 255 255 255
3 148 1 147 255 255 255
3 148 282 1 255 255 255
3 282 267 1 255 255 255
3 260 283 282 255 255 255
3 283 284 282 255 255 255
3 284 283 213 255 255 255
3 261 228 284 255 255 255
3 285 186 261 255 255 255
3 214 286 285 255 255 255
3 286 114 285 255 255 255
3 115 229 286 255 255 255
3 190 304 115 255 255 255
3 167 106 125 255 255 255
3 167 268 106 255 255 255
3 167 304 268 255 255 255
3 145 190 167 255 255 255
3 168 45 145 255 255 255
3 256 266 168 255 255 255
3 266 207 168 255 255 255
3 146 207 266 255 255 255
3 146 208 207 255 255 255
3 1 267 42 255 255 255
3 267 209 42 255 255 255
3 282 210 267 255 255 255
3 284 15 282 255 255 255
3 228 287 284 255 255 255
3 261 186 228 255 255 255
3 186 16 228 255 255 255
3 285 114 186 255 255 255
3 114 288 186 255 255 255
3 286 229 114 255 255 255
3 229 17 114 255 255 255
3 190 18 304 255 255 255
3 167 115 304 255 255 255
3 45 279 145 255 255 255
3 168 289 45 255 255 255
3 207 290 168 255 255 255
3 208 291 207 255 255 255
3 146 159 208 255 255 255
3 209 19 42 255 255 255
3 267 20 209 255 255 255
3 210 20 267 255 255 255
3 210 160 20 255 255 255
3 282 161 210 255 255 255
3 15 161 282 255 255 255
3 15 162 161 255 255 255
3 284 287 15 255 255 255
3 287 303 15 255 255 255
3 228 16 287 255 255 255
3 16 163 287 255 255 255
3 186 163 16 255 255 255
3 186 288 163 255 255 255
3 288 264 163 255 255 255
3 114 17 288 255 255 255
3 17 164 288 255 255 255
3 229 174 17 255 255 255
3 18 268 304 255 255 255
3 45 21 279 255 255 255
3 289 21 45 255 255 255
3 289 165 21 255 255 255
3 168 290 289 255 255 255
3 290 22 289 255 255 255
3 207 291 290 255 255 255
3 291 23 290 255 255 255
3 208 131 291 255 255 255
3 159 131 208 255 255 255
3 159 146 131 255 255 255
3 146 24 131 255 255 255
3 19 4 42 255 255 255
3 209 107 19 255 255 255
3 20 107 209 255 255 255
3 20 24 107 255 255 255
3 160 262 20 255 255 255
3 210 265 160 255 255 255
3 161 189 210 255 255 255
3 162 189 161 255 255 255
3 162 142 189 255 255 255
3 15 303 162 255 255 255
3 287 166 303 255 255 255
3 163 166 287 255 255 255
3 163 264 166 255 255 255
3 264 108 166 255 255 255
3 288 251 264 255 255 255
3 164 251 288 255 255 255
3 164 108 251 255 255 255
3 17 174 164 255 255 255
3 229 151 174 255 255 255
3 21 151 279 255 255 255
3 165 311 21 255 255 255
3 289 263 165 255 255 255
3 22 263 289 255 255 255
3 22 205 263 255 255 255
3 290 23 22 255 255 255
3 23 205 22 255 255 255
3 23 206 205 255 255 255
3 24 56 131 255 255 255
3 146 198 24 255 255 255
3 4 211 42 255 255 255
3 4 146 211 255 255 255
3 4 198 146 255 255 255
3 4 19 198 255 255 255
3 19 107 198 255 255 255
3 24 198 107 255 255 255
3 20 56 24 255 255 255
3 20 298 56 255 255 255
3 262 143 20 255 255 255
3 160 149 262 255 255 255
3 265 150 160 255 255 255
3 210 189 265 255 255 255
3 189 139 265 255 255 255
3 142 46 189 255 255 255
3 166 298 303 255 255 255
3 264 251 108 255 255 255
3 164 174 108 255 255 255
3 151 21 174 255 255 255
3 151 108 279 255 255 255
3 165 141 311 255 255 255
3 263 140 165 255 255 255
3 205 140 263 255 255 255
3 205 269 140 255 255 255
3 206 79 205 255 255 255
3 23 270 206 255 255 255
3 20 162 298 255 255 255
3 143 152 20 255 255 255
3 262 80 143 255 255 255
3 149 80 262 255 255 255
3 149 191 80 255 255 255
3 160 48 149 255 255 255
3 150 48 160 255 255 255
3 150 81 48 255 255 255
3 265 139 150 255 255 255
3 139 232 150 255 255 255
3 189 46 139 255 255 255
3 46 49 139 255 255 255
3 142 192 46 255 255 255
3 166 56 298 255 255 255
3 141 117 311 255 255 255
3 165 140 141 255 255 255
3 140 233 141 255 255 255
3 269 82 140 255 255 255
3 205 271 269 255 255 255
3 79 271 205 255 255 255
3 79 153 271 255 255 255
3 206 270 79 255 255 255
3 270 153 79 255 255 255
3 270 272 153 255 255 255
3 162 234 298 255 255 255
3 20 142 162 255 255 255
3 20 236 142 255 255 255
3 152 236 20 255 255 255
3 152 235 236 255 255 255
3 143 273 152 255 255 255
3 80 191 143 255 255 255
3 191 273 143 255 255 255
3 191 5 273 255 255 255
3 149 83 191 255 255 255
3 48 136 149 255 255 255
3 81 193 48 255 255 255
3 150 84 81 255 255 255
3 232 154 150 255 255 255
3 139 6 232 255 255 255
3 49 6 139 255 255 255
3 49 192 6 255 255 255
3 192 49 46 255 255 255
3 142 134 192 255 255 255
3 117 7 311 255 255 255
3 141 233 117 255 255 255
3 233 132 117 255 255 255
3 140 50 233 255 255 255
3 82 50 140 255 255 255
3 82 194 50 255 255 255
3 269 271 82 255 255 255
3 271 153 82 255 255 255
3 153 195 82 255 255 255
3 272 307 153 255 255 255
3 270 85 272 255 255 255
3 234 129 298 255 255 255
3 235 137 236 255 255 255
3 152 273 235 255 255 255
3 273 237 235 255 255 255
3 5 237 273 255 255 255
3 5 8 237 255 255 255
3 191 83 5 255 255 255
3 83 8 5 255 255 255
3 83 9 8 255 255 255
3 149 136 83 255 255 255
3 48 193 136 255 255 255
3 193 78 136 255 255 255
3 81 51 193 255 255 255
3 84 51 81 255 255 255
3 84 52 51 255 255 255
3 150 154 84 255 255 255
3 154 52 84 255 255 255
3 232 274 154 255 255 255
3 6 274 232 255 255 255
3 6 275 274 255 255 255
3 192 275 6 255 255 255
3 192 134 275 255 255 255
3 142 236 134 255 255 255
3 236 98 134 255 255 255
3 7 21 311 255 255 255
3 233 50 132 255 255 255
3 50 194 132 255 255 255
3 194 10 132 255 255 255
3 82 308 194 255 255 255
3 195 155 82 255 255 255
3 153 155 195 255 255 255
3 153 307 155 255 255 255
3 307 196 155 255 255 255
3 272 86 307 255 255 255
3 85 156 272 255 255 255
3 270 157 85 255 255 255
3 234 137 129 255 255 255
3 235 118 137 255 255 255
3 237 103 235 255 255 255
3 8 32 237 255 255 255
3 9 225 8 255 255 255
3 83 89 9 255 255 255
3 51 255 193 255 255 255
3 52 255 51 255 255 255
3 52 133 255 255 255 255
3 274 52 154 255 255 255
3 274 158 52 255 255 255
3 275 98 274 255 255 255
3 98 275 134 255 255 255
3 10 40 132 255 255 255
3 194 308 10 255 255 255
3 308 37 10 255 255 255
3 82 223 308 255 255 255
3 155 223 82 255 255 255
3 155 119 223 255 255 255
3 196 119 155 255 255 255
3 196 173 119 255 255 255
3 307 97 196 255 255 255
3 86 97 307 255 255 255
3 86 309 97 255 255 255
3 272 181 86 255 255 255
3 156 181 272 255 255 255
3 156 65 181 255 255 255
3 85 157 156 255 255 255
3 157 300 156 255 255 255
3 270 23 157 255 255 255
3 23 306 157 255 255 255
3 137 118 129 255 255 255
3 118 25 129 255 255 255
3 237 276 103 255 255 255
3 32 238 237 255 255 255
3 8 225 32 255 255 255
3 225 310 32 255 255 255
3 9 120 225 255 255 255
3 89 39 9 255 255 255
3 83 169 89 255 255 255
3 133 169 255 255 255 255
3 52 158 133 255 255 255
3 158 53 133 255 255 255
3 274 220 158 255 255 255
3 10 277 40 255 255 255
3 37 110 10 255 255 255
3 308 292 37 255 255 255
3 223 292 308 255 255 255
3 223 119 292 255 255 255
3 119 173 292 255 255 255
3 173 74 292 255 255 255
3 196 87 173 255 255 255
3 309 40 97 255 255 255
3 86 88 309 255 255 255
3 181 88 86 255 255 255
3 181 215 88 255 255 255
3 65 215 181 255 255 255
3 65 90 215 255 255 255
3 156 25 65 255 255 255
3 157 306 300 255 255 255
3 306 23 300 255 255 255
3 23 129 300 255 255 255
3 25 300 129 255 255 255
3 25 156 300 255 255 255
3 118 197 25 255 255 255
3 276 216 103 255 255 255
3 238 200 237 255 255 255
3 32 310 238 255 255 255
3 310 200 238 255 255 255
3 310 178 200 255 255 255
3 225 120 310 255 255 255
3 120 250 310 255 255 255
3 9 39 120 255 255 255
3 39 29 120 255 255 255
3 89 221 39 255 255 255
3 169 221 89 255 255 255
3 169 101 221 255 255 255
3 83 255 169 255 255 255
3 83 136 255 255 255 255
3 133 53 169 255 255 255
3 53 101 169 255 255 255
3 53 99 101 255 255 255
3 158 99 53 255 255 255
3 158 220 99 255 255 255
3 220 293 99 255 255 255
3 277 31 40 255 255 255
3 10 110 277 255 255 255
3 110 31 277 255 255 255
3 110 196 31 255 255 255
3 37 121 110 255 255 255
3 292 54 37 255 255 255
3 74 54 292 255 255 255
3 74 249 54 255 255 255
3 173 76 74 255 255 255
3 87 76 173 255 255 255
3 87 278 76 255 255 255
3 40 28 97 255 255 255
3 309 176 40 255 255 255
3 88 176 309 255 255 255
3 88 248 176 255 255 255
3 215 217 88 255 255 255
3 90 175 215 255 255 255
3 65 175 90 255 255 255
3 65 294 175 255 255 255
3 25 137 65 255 255 255
3 197 215 25 255 255 255
3 216 170 103 255 255 255
3 276 122 216 255 255 255
3 200 276 237 255 255 255
3 200 178 276 255 255 255
3 178 122 276 255 255 255
3 178 123 122 255 255 255
3 310 11 178 255 255 255
3 250 59 310 255 255 255
3 120 29 250 255 255 255
3 29 177 250 255 255 255
3 39 221 29 255 255 255
3 221 293 29 255 255 255
3 101 301 221 255 255 255
3 99 301 101 255 255 255
3 293 301 99 255 255 255
3 293 221 301 255 255 255
3 220 94 293 255 255 255
3 31 28 40 255 255 255
3 196 28 31 255 255 255
3 196 97 28 255 255 255
3 121 87 110 255 255 255
3 37 54 121 255 255 255
3 54 113 121 255 255 255
3 249 254 54 255 255 255
3 74 76 249 255 255 255
3 76 112 249 255 255 255
3 278 112 76 255 255 255
3 278 201 112 255 255 255
3 176 60 40 255 255 255
3 248 60 176 255 255 255
3 248 91 60 255 255 255
3 88 217 248 255 255 255
3 217 302 248 255 255 255
3 294 38 175 255 255 255
3 65 234 294 255 255 255
3 197 180 215 255 255 255
3 216 180 170 255 255 255
3 122 70 216 255 255 255
3 123 204 122 255 255 255
3 178 11 123 255 255 255
3 11 244 123 255 255 255
3 310 179 11 255 255 255
3 59 179 310 255 255 255
3 59 305 179 255 255 255
3 250 177 59 255 255 255
3 177 69 59 255 255 255
3 29 293 177 255 255 255
3 220 69 94 255 255 255
3 87 196 110 255 255 255
3 121 278 87 255 255 255
3 121 113 278 255 255 255
3 113 128 278 255 255 255
3 54 254 113 255 255 255
3 254 224 113 255 255 255
3 249 224 254 255 255 255
3 249 201 224 255 255 255
3 201 249 112 255 255 255
3 60 252 40 255 255 255
3 91 252 60 255 255 255
3 91 66 252 255 255 255
3 248 302 91 255 255 255
3 302 295 91 255 255 255
3 217 175 302 255 255 255
3 38 295 175 255 255 255
3 234 27 294 255 255 255
3 70 281 216 255 255 255
3 122 240 70 255 255 255
3 204 240 122 255 255 255
3 204 44 240 255 255 255
3 123 44 204 255 255 255
3 123 227 44 255 255 255
3 244 227 123 255 255 255
3 244 218 227 255 255 255
3 11 12 244 255 255 255
3 179 12 11 255 255 255
3 179 61 12 255 255 255
3 305 61 179 255 255 255
3 305 172 61 255 255 255
3 59 127 305 255 255 255
3 177 94 69 255 255 255
3 94 177 293 255 255 255
3 128 201 278 255 255 255
3 128 72 201 255 255 255
3 113 72 128 255 255 255
3 224 72 113 255 255 255
3 224 201 72 255 255 255
3 295 66 91 255 255 255
3 295 38 66 255 255 255
3 295 302 175 255 255 255
3 294 27 38 255 255 255
3 27 77 38 255 255 255
3 234 77 27 255 255 255
3 234 30 77 255 255 255
3 70 240 281 255 255 255
3 240 26 281 255 255 255
3 44 184 240 255 255 255
3 227 218 44 255 255 255
3 218 184 44 255 255 255
3 244 63 218 255 255 255
3 12 73 244 255 255 255
3 61 73 12 255 255 255
3 61 135 73 255 255 255
3 172 135 61 255 255 255
3 172 109 135 255 255 255
3 305 127 172 255 255 255
3 127 245 172 255 255 255
3 59 69 127 255 255 255
3 69 103 127 255 255 255
3 38 77 66 255 255 255
3 77 30 66 255 255 255
3 30 104 66 255 255 255
3 26 100 281 255 255 255
3 240 299 26 255 255 255
3 184 299 240 255 255 255
3 63 67 218 255 255 255
3 244 57 63 255 255 255
3 73 57 244 255 255 255
3 73 75 57 255 255 255
3 135 75 73 255 255 255
3 135 109 75 255 255 255
3 109 124 75 255 255 255
3 172 36 109 255 255 255
3 245 36 172 255 255 255
3 245 219 36 255 255 255
3 127 13 245 255 255 255
3 103 13 127 255 255 255
3 103 170 13 255 255 255
3 170 34 13 255 255 255
3 104 7 66 255 255 255
3 30 129 104 255 255 255
3 100 226 281 255 255 255
3 26 92 100 255 255 255
3 299 64 26 255 255 255
3 67 111 218 255 255 255
3 63 124 67 255 255 255
3 124 57 75 255 255 255
3 124 63 57 255 255 255
3 109 111 124 255 255 255
3 36 111 109 255 255 255
3 36 219 111 255 255 255
3 245 71 219 255 255 255
3 13 34 245 255 255 255
3 7 252 66 255 255 255
3 226 182 281 255 255 255
3 100 199 226 255 255 255
3 92 64 100 255 255 255
3 64 92 26 255 255 255
3 299 242 64 255 255 255
3 111 184 218 255 255 255
3 111 182 184 255 255 255
3 67 124 111 255 255 255
3 219 68 111 255 255 255
3 182 216 281 255 255 255
3 182 71 216 255 255 255
3 199 62 226 255 255 255
3 100 242 199 255 255 255
3 64 35 100 255 255 255
3 242 203 64 255 255 255
3 68 202 111 255 255 255
3 182 219 71 255 255 255
3 182 68 219 255 255 255
3 199 96 62 255 255 255
3 242 138 199 255 255 255
3 64 203 35 255 255 255
3 203 171 35 255 255 255
3 68 199 202 255 255 255
3 96 0 62 255 255 255
3 138 95 199 255 255 255
3 171 280 35 255 255 255
3 203 183 171 255 255 255
3 199 93 202 255 255 255
3 0 43 62 255 255 255
3 96 102 0 255 255 255
3 138 241 95 255 255 255
3 280 96 35 255 255 255
3 171 246 280 255 255 255
3 183 312 171 255 255 255
3 203 243 183 255 255 255
3 93 95 202 255 255 255
3 43 55 62 255 255 255
3 0 55 43 255 255 255
3 0 33 55 255 255 255
3 102 130 0 255 255 255
3 241 247 95 255 255 255
3 138 203 241 255 255 255
3 280 246 96 255 255 255
3 246 105 96 255 255 255
3 312 222 171 255 255 255
3 183 185 312 255 255 255
3 243 185 183 255 255 255
3 243 241 185 255 255 255
3 203 138 243 255 255 255
3 55 247 62 255 255 255
3 33 185 55 255 255 255
3 0 130 33 255 255 255
3 130 14 33 255 255 255
3 105 58 96 255 255 255
3 312 253 222 255 255 255
3 185 253 312 255 255 255
3 185 33 253 255 255 255
3 33 126 253 255 255 255
3 247 93 62 255 255 255
3 130 41 14 255 255 255
3 253 126 222 255 255 255
3 126 296 222 255 255 255
3 33 14 126 255 255 255
3 14 239 126 255 255 255
3 41 239 14 255 255 255
3 296 239 222 255 255 255
3 297 297 297 255 255 255
