ply
format ascii 1.0
element vertex 349
property float x
property float y
property float z
element face 576
property list uchar int vertex_indices
property uchar red
property uchar green
property uchar blue
end_header
-6.79199934005737305 -3.68242955207824707 -1.05725002288818359
-6.83171796798706055 -3.64725327491760254 -1.00965714454650879
-6.88306760787963867 -3.80830478668212891 -1.0163421630859375
-6.79034090042114258 -3.67308330535888672 -1.05902647972106934
-6.79400014877319336 -3.68899989128112793 -1.04700005054473877
-6.85047435760498047 -3.77291440963745117 -1.0204547643661499
-6.87404727935791016 -3.79164934158325195 -1.03208482265472412
-6.86700010299682617 -3.80699992179870605 -1.03400003910064697
-6.78349447250366211 -3.69731950759887695 -1.03442525863647461
-6.77600002288818359 -3.68199992179870605 -1.04799997806549072
-6.97700023651123047 -3.21700000762939453 -0.865000009536743164
-7.14900016784667969 -2.91899991035461426 -0.607999980449676514
-6.87454414367675781 -3.56017041206359863 -0.964017868041992188
-7.1939997673034668 -2.80200004577636719 -0.591000020503997803
-6.95200014114379883 -3.20399999618530273 -0.799000024795532227
-7.21334123611450195 -2.84080386161804199 -0.572065532207489014
-7.19638681411743164 -2.8173363208770752 -0.591924369335174561
-6.92894697189331055 -3.22999405860900879 -0.848115444183349609
-7.04532766342163086 -3.07784748077392578 -0.690145015716552734
-7.03700017929077148 -3.10700011253356934 -0.722000002861022949
-7.00699996948242188 -3.14199995994567871 -0.763000011444091797
-6.91900014877319336 -3.29699993133544922 -0.915000021457672119
-6.89900016784667969 -3.35700011253356934 -0.892000019550323486
-6.92839956283569336 -3.29814004898071289 -0.910752832889556885
-7.13653802871704102 -2.95507097244262695 -0.615469455718994141
-6.99531650543212891 -3.14275312423706055 -0.741759359836578369
-6.86357259750366211 -3.49587702751159668 -0.951071083545684814
-6.91712808609008789 -3.30695652961730957 -0.963389217853546143
-7.27914333343505859 -2.79542064666748047 -0.579652309417724609
-6.93647527694702148 -3.25353646278381348 -0.848093807697296143
-6.96194696426391602 -3.21452832221984863 -0.803854763507843018
-7.12940835952758789 -2.95723199844360352 -0.608532965183258057
-6.91614723205566406 -3.29432344436645508 -0.936506867408752441
-6.86399984359741211 -3.49699997901916504 -0.958999991416931152
-6.83850002288818359 -3.60800004005432129 -0.994500041007995605
-6.96400022506713867 -3.23300004005432129 -0.866999983787536621
-7.3047795295715332 -2.76618480682373047 -0.561205208301544189
-6.86600017547607422 -3.50600004196166992 -0.955999970436096191
-7 -3.12400007247924805 -0.754999995231628418
-7.10357522964477539 -2.98479413986206055 -0.645063221454620361
-7.26965475082397461 -2.81801986694335938 -0.592192947864532471
-7.01599979400634766 -3.08599996566772461 -0.71399998664855957
-7.19202804565429688 -2.8574066162109375 -0.573695003986358643
-6.88889551162719727 -3.34699201583862305 -1.00935328006744385
-6.88165950775146484 -3.34776496887207031 -1.04405558109283447
-7.14830684661865234 -2.88448452949523926 -0.593613684177398682
-7.18673563003540039 -2.82753515243530273 -0.570258617401123047
-7.17999982833862305 -2.8900001049041748 -0.573000013828277588
-7.209564208984375 -2.80021047592163086 -0.58111119270324707
-7.04500007629394531 -2.99900007247924805 -0.662000000476837158
-7.33300018310546875 -2.77099990844726562 -0.551999986171722412
-7.17263412475585938 -2.90158343315124512 -0.559503316879272461
-7.13600015640258789 -2.94099998474121094 -0.640999972820281982
-7.32700014114379883 -2.78200006484985352 -0.561999976634979248
-7.13981294631958008 -2.89844274520874023 -0.595045208930969238
-6.87136602401733398 -3.56092977523803711 -0.974589705467224121
-6.85736417770385742 -3.49107098579406738 -0.96011728048324585
-6.88000011444091797 -3.57100009918212891 -0.972999989986419678
-6.97716140747070312 -3.22061967849731445 -0.79578012228012085
-6.93943071365356445 -3.23192834854125977 -0.842876851558685303
-6.93282747268676758 -3.22328615188598633 -0.838386952877044678
-7.31500005722045898 -2.78500008583068848 -0.56099998950958252
-7.12725925445556641 -2.94286632537841797 -0.624001860618591309
-6.97812557220458984 -3.1981501579284668 -0.798147141933441162
-6.93231487274169922 -3.26640844345092773 -0.862348496913909912
-6.95257329940795898 -3.24880194664001465 -0.853867232799530029
-7.09200000762939453 -2.95600008964538574 -0.626999974250793457
-6.86700010299682617 -3.50600004196166992 -0.962999999523162842
-6.86011171340942383 -3.49100017547607422 -0.952947556972503662
-6.87327051162719727 -3.55430245399475098 -0.970729053020477295
-6.95804119110107422 -3.1837770938873291 -0.80456244945526123
-7.22952795028686523 -2.8131859302520752 -0.591063559055328369
-6.91900014877319336 -3.27999997138977051 -0.878000020980834961
-7.15217685699462891 -2.92609620094299316 -0.610772609710693359
-7.30700016021728516 -2.78699994087219238 -0.555000007152557373
-7.13829612731933594 -2.93098640441894531 -0.620206773281097412
-7.29439783096313477 -2.7633051872253418 -0.550047099590301514
-7.21613311767578125 -2.81961393356323242 -0.572127878665924072
-7.26399993896484375 -2.79699993133544922 -0.555000007152557373
-7.12300014495849609 -2.96700000762939453 -0.625
-7.11080169677734375 -2.97054862976074219 -0.629580259323120117
-7.12400007247924805 -2.94600009918212891 -0.638000011444091797
-7.06914615631103516 -2.98623466491699219 -0.657601833343505859
-7.34407329559326172 -2.75270605087280273 -0.541411638259887695
-7.20188808441162109 -2.84218740463256836 -0.583209574222564697
-7.21362924575805664 -2.79151296615600586 -0.596818506717681885
-6.96000003814697266 -3.16499996185302734 -0.783999979496002197
-6.90700006484985352 -3.32399988174438477 -0.885999977588653564
-6.86700010299682617 -3.4719998836517334 -0.941999971866607666
-6.90582370758056641 -3.33669400215148926 -0.891514182090759277
-6.89083766937255859 -3.31966614723205566 -0.976926565170288086
-6.87935352325439453 -3.48887348175048828 -0.944737255573272705
-6.94188880920410156 -3.28770041465759277 -0.898910641670227051
-6.92399978637695312 -3.30699992179870605 -0.919000029563903809
-6.99707221984863281 -3.10182952880859375 -0.755372881889343262
-6.91900014877319336 -3.30999994277954102 -0.938000023365020752
-6.84800004959106445 -3.78500008583068848 -1.00899994373321533
-6.78158235549926758 -3.65412402153015137 -1.06591331958770752
-6.83500003814697266 -3.68300008773803711 -1.02999997138977051
-6.80301094055175781 -3.66764640808105469 -1.03736460208892822
-6.85896635055541992 -3.67449355125427246 -1.01735341548919678
-6.83038711547851562 -3.68376827239990234 -1.03595733642578125
-6.8483586311340332 -3.70782566070556641 -1.03467941284179688
-6.85037708282470703 -3.7326507568359375 -1.03948891162872314
-6.81924962997436523 -3.69165754318237305 -1.04182279109954834
-6.84237051010131836 -3.65278506278991699 -1.01509404182434082
-6.85938262939453125 -3.60483264923095703 -0.991184532642364502
-6.95558357238769531 -3.22885012626647949 -0.852328360080718994
-7.10979270935058594 -2.94801664352416992 -0.612879514694213867
-7.28399991989135742 -2.77399992942810059 -0.559000015258789062
-7.2419285774230957 -2.79093241691589355 -0.58298414945602417
-7.25284099578857422 -2.79742836952209473 -0.615518152713775635
-7.29300022125244141 -2.78900003433227539 -0.569000005722045898
-7.24067497253417969 -2.79452228546142578 -0.573792994022369385
-7.30000019073486328 -2.78600001335144043 -0.560000002384185791
-7.11543750762939453 -2.95444273948669434 -0.634059607982635498
-7.20599985122680664 -2.80800008773803711 -0.601999998092651367
-7.30000019073486328 -2.78200006484985352 -0.570999979972839355
-7.14400005340576172 -2.93799996376037598 -0.611999988555908203
-7.13500022888183594 -2.94499993324279785 -0.633000016212463379
-6.92758750915527344 -3.29146265983581543 -0.923201203346252441
-6.9159998893737793 -3.30299997329711914 -0.945999979972839355
-7.12326860427856445 -2.94064235687255859 -0.598464071750640869
-6.8380894660949707 -3.69541478157043457 -1.02772641181945801
-6.87858963012695312 -3.77127456665039062 -1.04503107070922852
-6.81467151641845703 -3.6893000602722168 -1.05136287212371826
-6.86276626586914062 -3.79923510551452637 -1.03706967830657959
-6.84410190582275391 -3.63682889938354492 -1.00770986080169678
-6.87300014495849609 -3.78200006484985352 -1.00199997425079346
-6.87364959716796875 -3.79324913024902344 -1.00336039066314697
-6.87681865692138672 -3.75648403167724609 -1.02587306499481201
-6.87799978256225586 -3.80399990081787109 -1.0010000467300415
-6.75186300277709961 -3.6747438907623291 -1.03463184833526611
-6.88000011444091797 -3.79699993133544922 -1.01100003719329834
-6.97723865509033203 -3.20404338836669922 -0.853548049926757812
-6.96600008010864258 -3.24099993705749512 -0.861000001430511475
-6.87612581253051758 -3.4310150146484375 -0.909765899181365967
-6.87010049819946289 -3.5727531909942627 -0.980283439159393311
-6.89900016784667969 -3.29399991035461426 -0.921999990940093994
-6.95384788513183594 -3.24686002731323242 -0.865850210189819336
-6.98790073394775391 -3.13423967361450195 -0.740567922592163086
-6.94899988174438477 -3.23399996757507324 -0.873000025749206543
-6.89721441268920898 -3.28393340110778809 -0.866962969303131104
-6.91457080841064453 -3.26812195777893066 -0.856980800628662109
-7.03999996185302734 -2.99600005149841309 -0.648000001907348633
-7.24300003051757812 -2.8059999942779541 -0.597999989986419678
-7.32299995422363281 -2.78900003433227539 -0.549000024795532227
-7.1939997673034668 -2.80500006675720215 -0.570999979972839355
-7.18200016021728516 -2.90499997138977051 -0.558000028133392334
-7.32700014114379883 -2.78200006484985352 -0.549000024795532227
-7.32550811767578125 -2.77195930480957031 -0.545544922351837158
-7.31699991226196289 -2.78399991989135742 -0.558000028133392334
-7.26000022888183594 -2.81599998474121094 -0.603999972343444824
-7.24100017547607422 -2.80299997329711914 -0.573000013828277588
-6.96312522888183594 -3.19869565963745117 -0.800830543041229248
-6.85300016403198242 -3.57200002670288086 -0.982999980449676514
-7.08929681777954102 -2.96840691566467285 -0.634538054466247559
-7.14468288421630859 -2.9324038028717041 -0.651357531547546387
-6.85099983215332031 -3.62400007247924805 -1.00600004196166992
-6.86999988555908203 -3.78399991989135742 -1.03600001335144043
-6.79591131210327148 -3.71020984649658203 -1.03852176666259766
-6.86600017547607422 -3.80699992179870605 -1.01600003242492676
-6.78100013732910156 -3.67700004577636719 -1.03299999237060547
-6.78000020980834961 -3.66899991035461426 -1.04600000381469727
-6.89855384826660156 -3.34624481201171875 -1.00375461578369141
-6.90007734298706055 -3.32825851440429688 -1.0007704496383667
-6.90008354187011719 -3.33939099311828613 -1.01855623722076416
-6.8619999885559082 -3.7780001163482666 -1.04100000858306885
-6.87464380264282227 -3.74655556678771973 -1.03345906734466553
-6.85024356842041016 -3.77584719657897949 -1.04958570003509521
-6.84435558319091797 -3.65631556510925293 -1.01769590377807617
-6.9008336067199707 -3.7856898307800293 -1.0348503589630127
-6.87099981307983398 -3.79600000381469727 -1.03799998760223389
-6.84350204467773438 -3.79922652244567871 -1.03780782222747803
-6.83448553085327148 -3.76743793487548828 -1.02774262428283691
-6.84606027603149414 -3.75026226043701172 -1.01553571224212646
-6.87946128845214844 -3.76826786994934082 -1.01639044284820557
-6.81151103973388672 -3.66986727714538574 -1.03216087818145752
-6.97937107086181641 -3.20012116432189941 -0.865457057952880859
-6.91820955276489258 -3.25712800025939941 -0.876926422119140625
-7.27680683135986328 -2.80752325057983398 -0.566021859645843506
-7.12814044952392578 -2.93593382835388184 -0.620305240154266357
-6.91099977493286133 -3.28699994087219238 -0.875
-6.97805309295654297 -3.18774771690368652 -0.866179466247558594
-7.08219528198242188 -3.00333476066589355 -0.631875753402709961
-7.02666521072387695 -3.0810089111328125 -0.716749846935272217
-7.03058195114135742 -3.11940336227416992 -0.727370977401733398
-7.03000020980834961 -3.1119999885559082 -0.720000028610229492
-7.05700016021728516 -3.01399993896484375 -0.680999994277954102
-7.02749347686767578 -3.05635237693786621 -0.697858572006225586
-7.01616239547729492 -3.06618952751159668 -0.710194587707519531
-7.0227055549621582 -3.1160125732421875 -0.738588929176330566
-7.04682731628417969 -3.05681705474853516 -0.671759068965911865
-7.02204704284667969 -3.10656023025512695 -0.741135716438293457
-6.90144824981689453 -3.30924606323242188 -0.947902441024780273
-6.84600019454956055 -3.80100011825561523 -1.01600003242492676
-6.84740734100341797 -3.6077110767364502 -0.998627305030822754
-6.94177007675170898 -3.26837277412414551 -0.861689746379852295
-6.95200014114379883 -3.24000000953674316 -0.837000012397766113
-6.98308706283569336 -3.15070319175720215 -0.765252649784088135
-6.91804313659667969 -3.24736642837524414 -0.854209303855895996
-6.93172359466552734 -3.26559329032897949 -0.893149673938751221
-6.91448688507080078 -3.33447694778442383 -0.974685549736022949
-6.8930516242980957 -3.2756960391998291 -0.883056640625
-6.90336227416992188 -3.28208184242248535 -0.906091451644897461
-6.90999984741210938 -3.28800010681152344 -0.884999990463256836
-6.90399980545043945 -3.26699995994567871 -0.879000008106231689
-6.88183021545410156 -3.41964316368103027 -0.918191134929656982
-6.92500019073486328 -3.31999993324279785 -0.958000004291534424
-6.93016910552978516 -3.32713532447814941 -0.936050236225128174
-7.26647663116455078 -2.81736969947814941 -0.60486912727355957
-6.87981462478637695 -3.50213456153869629 -0.951095879077911377
-6.85400009155273438 -3.55100011825561523 -0.96799999475479126
-7.03421163558959961 -3.03147101402282715 -0.684080004692077637
-7.05610466003417969 -3.08669948577880859 -0.703568100929260254
-7.01445913314819336 -3.11182904243469238 -0.717113375663757324
-7.06521224975585938 -3.03961086273193359 -0.655747473239898682
-7.03080558776855469 -3.02764630317687988 -0.672785460948944092
-7.02079010009765625 -3.09264850616455078 -0.704723715782165527
-7.03525924682617188 -3.08808660507202148 -0.722922205924987793
-7.03599977493286133 -3.05200004577636719 -0.683000028133392334
-7.02856683731079102 -3.1070868968963623 -0.70743483304977417
-7.01000022888183594 -3.08899998664855957 -0.720000028610229492
-6.90500020980834961 -3.35599994659423828 -0.893999993801116943
-6.84416627883911133 -3.60883021354675293 -0.991956353187561035
-6.98222208023071289 -3.19932007789611816 -0.860257744789123535
-6.94600009918212891 -3.25699996948242188 -0.883000016212463379
-6.94099998474121094 -3.27200007438659668 -0.879999995231628418
-7.09654617309570312 -2.9821925163269043 -0.632178127765655518
-7.11299991607666016 -2.97099995613098145 -0.619000017642974854
-6.92600011825561523 -3.30699992179870605 -0.925999999046325684
-6.92657232284545898 -3.32821798324584961 -0.948825478553771973
-6.8814091682434082 -3.3840787410736084 -0.89734494686126709
-6.94799995422363281 -3.25300002098083496 -0.873000025749206543
-6.92000007629394531 -3.31299996376037598 -0.952000021934509277
-6.97399997711181641 -3.20499992370605469 -0.791000008583068848
-7.22911405563354492 -2.79190778732299805 -0.573904335498809814
-6.94726943969726562 -3.32060027122497559 -0.928636431694030762
-6.91658926010131836 -3.26372623443603516 -0.893417716026306152
-6.91699981689453125 -3.29399991035461426 -0.910000026226043701
-7.19899988174438477 -2.80800008773803711 -0.56400001049041748
-6.89900016784667969 -3.35100007057189941 -0.890999972820281982
-6.93900012969970703 -3.25099992752075195 -0.874000012874603271
-7.21063899993896484 -2.83362722396850586 -0.577212691307067871
-6.88535785675048828 -3.41959476470947266 -0.920916497707366943
-7.29699993133544922 -2.7929999828338623 -0.541000008583068848
-7.08235025405883789 -3.0022575855255127 -0.663538932800292969
-7.06630992889404297 -3.00264668464660645 -0.63576054573059082
-7.09369277954101562 -3.00744748115539551 -0.652874946594238281
-7.06818103790283203 -3.02416706085205078 -0.646498322486877441
-7.08500003814697266 -3.01600003242492676 -0.656000018119812012
-7.047882080078125 -3.00300431251525879 -0.654366374015808105
-7.04699993133544922 -3.02699995040893555 -0.64999997615814209
-7.07434606552124023 -3.03033685684204102 -0.664148390293121338
-7.07096290588378906 -3.04226446151733398 -0.677643895149230957
-7.04947900772094727 -3.01479005813598633 -0.670187950134277344
-7.00521039962768555 -3.1610109806060791 -0.759438514709472656
-7.06500005722045898 -3.08699989318847656 -0.703999996185302734
-7.05163383483886719 -3.04612112045288086 -0.683627665042877197
-7.0566105842590332 -3.05835771560668945 -0.692017614841461182
-7.00799989700317383 -3.06699991226196289 -0.714999973773956299
-7.01000022888183594 -3.08100008964538574 -0.714999973773956299
-7.0391087532043457 -3.09839653968811035 -0.700859367847442627
-7.01100015640258789 -3.10500001907348633 -0.714999973773956299
-7.01228618621826172 -3.13962793350219727 -0.752267181873321533
-7.00400018692016602 -3.11800003051757812 -0.75700002908706665
-6.9077610969543457 -3.29494071006774902 -0.921998739242553711
-7.03048944473266602 -2.9954216480255127 -0.619697988033294678
-7.25784826278686523 -2.7989954948425293 -0.546512782573699951
-6.94999980926513672 -3.2349998950958252 -0.825999975204467773
-7.17523860931396484 -2.87035965919494629 -0.591505944728851318
-6.9439997673034668 -3.26699995994567871 -0.884999990463256836
-7.25600004196166992 -2.80100011825561523 -0.577000021934509277
-7.16916465759277344 -2.84033370018005371 -0.577298104763031006
-7.18399715423583984 -2.81340193748474121 -0.576791048049926758
-7.13602542877197266 -2.91438484191894531 -0.599330663681030273
-7.14680719375610352 -2.90206432342529297 -0.57301485538482666
-7.26315593719482422 -2.80608749389648438 -0.598750770092010498
-7.2500147819519043 -2.81921291351318359 -0.565641880035400391
-7.17899990081787109 -2.81100010871887207 -0.569999992847442627
-7.1557164192199707 -2.9193267822265625 -0.599738895893096924
-7.30200004577636719 -2.79399991035461426 -0.56099998950958252
-6.86238336563110352 -3.76497626304626465 -0.996581137180328369
-6.84999990463256836 -3.80900001525878906 -0.999000012874603271
-6.83599996566772461 -3.80999994277954102 -0.990000009536743164
-6.94245576858520508 -3.21558952331542969 -0.833032488822937012
-6.95789289474487305 -3.21774578094482422 -0.816430449485778809
-6.90500020980834961 -3.30200004577636719 -0.879999995231628418
-6.99679470062255859 -3.09746313095092773 -0.729719042778015137
-6.8461909294128418 -3.55007195472717285 -0.96969139575958252
-6.85337543487548828 -3.57312250137329102 -0.979281485080718994
-6.89168214797973633 -3.34055137634277344 -0.8824043869972229
-6.89754104614257812 -3.25059628486633301 -0.86811453104019165
-6.91499996185302734 -3.30399990081787109 -0.93199998140335083
-6.86100006103515625 -3.5409998893737793 -0.971000015735626221
-6.85092639923095703 -3.81227588653564453 -0.999015629291534424
-6.94899988174438477 -3.20399999618530273 -0.80699998140335083
-6.85900020599365234 -3.55100011825561523 -0.977999985218048096
-7.28179359436035156 -2.80277657508850098 -0.586003780364990234
-6.89799976348876953 -3.29399991035461426 -0.88200002908706665
-6.85552167892456055 -3.77406907081604004 -0.994738161563873291
-7.26779031753540039 -2.79757118225097656 -0.581197023391723633
-6.87391519546508789 -3.49206256866455078 -0.957449138164520264
-7.31048011779785156 -2.77747154235839844 -0.530646800994873047
-7.10325765609741211 -2.94613742828369141 -0.62744671106338501
-7.27899980545043945 -2.76799988746643066 -0.56400001049041748
-7.05513191223144531 -2.98401975631713867 -0.602462887763977051
-7.22399997711181641 -2.81800007820129395 -0.575999975204467773
-7.16154384613037109 -2.8680419921875 -0.584967911243438721
-7.23748397827148438 -2.78865790367126465 -0.609646260738372803
-7.22486400604248047 -2.80851483345031738 -0.575092971324920654
-7.18008041381835938 -2.84703183174133301 -0.580143511295318604
-7.16156959533691406 -2.90822839736938477 -0.591196954250335693
-6.77054309844970703 -3.68131256103515625 -1.02878987789154053
-6.82000017166137695 -3.67400002479553223 -1.01900005340576172
-6.87599992752075195 -3.80800008773803711 -1.0130000114440918
-6.85799980163574219 -3.75900006294250488 -1.01900005340576172
-6.76845502853393555 -3.67729496955871582 -1.04795145988464355
-6.77190732955932617 -3.69062018394470215 -1.03985273838043213
-6.85900020599365234 -3.81299996376037598 -1.00199997425079346
-6.76048898696899414 -3.69047331809997559 -1.02260303497314453
-6.76200008392333984 -3.68400001525878906 -1.03299999237060547
-6.84594392776489258 -3.80659317970275879 -1.00632083415985107
-6.90799999237060547 -3.28600001335144043 -0.896000027656555176
-7.05116653442382812 -2.9673764705657959 -0.616532623767852783
-7.22599983215332031 -2.8059999942779541 -0.583000004291534424
-7.13938045501708984 -2.92750358581542969 -0.657280027866363525
-6.93902015686035156 -3.33094978332519531 -0.94243931770324707
-6.90298223495483398 -3.33482718467712402 -0.998472690582275391
-6.93900012969970703 -3.3190000057220459 -0.927999973297119141
-6.89122819900512695 -3.42403817176818848 -0.914665102958679199
-6.86926794052124023 -3.54422211647033691 -0.967721939086914062
-6.91636896133422852 -3.25096511840820312 -0.863589167594909668
-6.91820526123046875 -3.27366518974304199 -0.873721957206726074
-6.84802436828613281 -3.75676560401916504 -0.996037840843200684
-6.87300014495849609 -3.77500009536743164 -0.99299997091293335
-6.84990930557250977 -3.79914402961730957 -0.993170380592346191
-6.91367578506469727 -3.33250546455383301 -0.890725672245025635
-6.90628719329833984 -3.28316235542297363 -0.907904088497161865
-7.3189997673034668 -2.78699994087219238 -0.531000018119812012
-6.89401674270629883 -3.29810667037963867 -0.875712096691131592
-6.9837040901184082 -3.18012571334838867 -0.790055930614471436
-6.98019313812255859 -3.17656755447387695 -0.771452128887176514
-7.13899993896484375 -2.94300007820129395 -0.610000014305114746
-7.33004331588745117 -2.77408337593078613 -0.557802081108093262
-7.18663215637207031 -2.87510037422180176 -0.584522604942321777
-6.91457319259643555 -3.31654834747314453 -0.977726161479949951
-7.11700010299682617 -2.97300004959106445 -0.606999993324279785
-6.87699985504150391 -3.49000000953674316 -0.948000013828277588
3 102 100 101 255 255 255
3 101 104 102 255 255 255
3 100 170 101 255 255 255
3 103 169 168 255 255 255
3 104 123 102 255 255 255
3 102 123 100 255 255 255
3 103 174 169 255 255 255
3 101 177 104 255 255 255
3 105 170 100 255 255 255
3 123 105 100 255 255 255
3 123 98 105 255 255 255
3 102 103 123 255 255 255
3 124 176 168 255 255 255
3 124 171 176 255 255 255
3 168 169 124 255 255 255
3 169 167 124 255 255 255
3 103 175 174 255 255 255
3 177 99 104 255 255 255
3 98 170 105 255 255 255
3 169 174 173 255 255 255
3 99 125 104 255 255 255
3 101 98 177 255 255 255
3 104 125 101 255 255 255
3 170 314 101 255 255 255
3 105 170 1 255 255 255
3 334 175 168 255 255 255
3 176 334 168 255 255 255
3 171 2 176 255 255 255
3 172 6 124 255 255 255
3 124 126 172 255 255 255
3 173 167 169 255 255 255
3 174 5 173 255 255 255
3 175 334 174 255 255 255
3 104 0 160 255 255 255
3 0 318 160 255 255 255
3 99 3 125 255 255 255
3 1 127 105 255 255 255
3 175 5 168 255 255 255
3 176 335 334 255 255 255
3 176 128 335 255 255 255
3 176 129 128 255 255 255
3 2 128 176 255 255 255
3 171 172 2 255 255 255
3 172 7 6 255 255 255
3 124 169 126 255 255 255
3 173 159 167 255 255 255
3 0 317 318 255 255 255
3 3 9 0 255 255 255
3 0 99 3 255 255 255
3 3 0 125 255 255 255
3 177 314 99 255 255 255
3 4 160 125 255 255 255
3 104 313 4 255 255 255
3 5 130 168 255 255 255
3 175 334 5 255 255 255
3 335 300 334 255 255 255
3 176 131 129 255 255 255
3 6 2 176 255 255 255
3 176 159 6 255 255 255
3 2 315 131 255 255 255
3 7 315 6 255 255 255
3 169 173 126 255 255 255
3 173 6 159 255 255 255
3 173 7 126 255 255 255
3 8 313 160 255 255 255
3 9 318 0 255 255 255
3 3 317 9 255 255 255
3 0 177 99 255 255 255
3 313 132 99 255 255 255
3 314 313 99 255 255 255
3 4 8 160 255 255 255
3 313 9 4 255 255 255
3 104 160 313 255 255 255
3 2 133 176 255 255 255
3 315 319 131 255 255 255
3 2 161 315 255 255 255
3 6 124 159 255 255 255
3 173 161 7 255 255 255
3 316 167 5 255 255 255
3 334 96 174 255 255 255
3 8 320 313 255 255 255
3 317 320 318 255 255 255
3 318 8 0 255 255 255
3 3 97 317 255 255 255
3 0 104 177 255 255 255
3 3 317 0 255 255 255
3 99 162 163 255 255 255
3 319 336 131 255 255 255
3 173 319 161 255 255 255
3 316 130 167 255 255 255
3 334 336 96 255 255 255
3 320 162 313 255 255 255
3 320 8 318 255 255 255
3 317 132 320 255 255 255
3 8 160 0 255 255 255
3 313 321 9 255 255 255
3 336 129 131 255 255 255
3 173 322 319 255 255 255
3 316 168 130 255 255 255
3 336 322 96 255 255 255
3 317 163 132 255 255 255
3 5 300 130 255 255 255
3 282 335 300 255 255 255
3 319 295 336 255 255 255
3 336 283 322 255 255 255
3 320 132 162 255 255 255
3 3 99 97 255 255 255
3 5 96 300 255 255 255
3 335 129 300 255 255 255
3 336 300 129 255 255 255
3 283 295 322 255 255 255
3 336 295 283 255 255 255
3 321 132 313 255 255 255
3 5 195 96 255 255 255
3 322 283 319 255 255 255
3 284 322 336 255 255 255
3 322 336 295 255 255 255
3 322 284 283 255 255 255
3 285 269 59 255 255 255
3 286 63 30 255 255 255
3 286 296 30 255 255 255
3 30 235 58 255 255 255
3 269 198 59 255 255 255
3 58 286 30 255 255 255
3 286 296 285 255 255 255
3 59 198 107 255 255 255
3 154 342 63 255 255 255
3 286 14 296 255 255 255
3 285 269 286 255 255 255
3 59 107 60 255 255 255
3 285 60 269 255 255 255
3 60 107 285 255 255 255
3 35 10 107 255 255 255
3 107 135 35 255 255 255
3 60 29 17 255 255 255
3 10 178 107 255 255 255
3 29 200 17 255 255 255
3 63 342 341 255 255 255
3 70 86 154 255 255 255
3 200 292 17 255 255 255
3 341 154 63 255 255 255
3 29 143 200 255 255 255
3 183 134 178 255 255 255
3 342 256 341 255 255 255
3 292 179 17 255 255 255
3 200 143 292 255 255 255
3 29 197 143 255 255 255
3 178 225 183 255 255 255
3 256 199 341 255 255 255
3 179 141 17 255 255 255
3 143 142 292 255 255 255
3 143 332 200 255 255 255
3 197 64 143 255 255 255
3 29 65 197 255 255 255
3 198 65 29 255 255 255
3 183 225 134 255 255 255
3 199 342 341 255 255 255
3 143 203 332 255 255 255
3 64 333 143 255 255 255
3 65 139 197 255 255 255
3 225 178 134 255 255 255
3 141 35 17 255 255 255
3 179 226 141 255 255 255
3 292 206 179 255 255 255
3 142 203 292 255 255 255
3 197 227 64 255 255 255
3 65 107 139 255 255 255
3 256 342 199 255 255 255
3 141 139 35 255 255 255
3 179 201 226 255 255 255
3 179 333 201 255 255 255
3 340 203 142 255 255 255
3 143 182 142 255 255 255
3 143 200 64 255 255 255
3 200 332 64 255 255 255
3 233 226 139 255 255 255
3 139 242 233 255 255 255
3 140 25 199 255 255 255
3 201 271 226 255 255 255
3 182 299 142 255 255 255
3 143 72 182 255 255 255
3 332 179 64 255 255 255
3 182 203 143 255 255 255
3 333 205 143 255 255 255
3 333 227 201 255 255 255
3 197 271 227 255 255 255
3 201 92 271 255 255 255
3 340 299 203 255 255 255
3 182 205 299 255 255 255
3 179 333 64 255 255 255
3 197 233 271 255 255 255
3 238 206 203 255 255 255
3 203 204 238 255 255 255
3 204 338 238 255 255 255
3 340 287 299 255 255 255
3 205 323 299 255 255 255
3 201 120 92 255 255 255
3 206 332 203 255 255 255
3 340 87 287 255 255 255
3 323 204 299 255 255 255
3 205 72 323 255 255 255
3 338 201 238 255 255 255
3 205 287 72 255 255 255
3 338 32 201 255 255 255
3 204 32 338 255 255 255
3 201 338 120 255 255 255
3 338 266 32 255 255 255
3 32 120 338 255 255 255
3 204 266 32 255 255 255
3 204 338 266 255 255 255
3 120 23 92 255 255 255
3 338 138 266 255 255 255
3 266 194 32 255 255 255
3 338 239 266 255 255 255
3 120 21 23 255 255 255
3 239 21 266 255 255 255
3 239 92 23 255 255 255
3 23 93 239 255 255 255
3 120 230 93 255 255 255
3 121 95 32 255 255 255
3 230 293 93 255 255 255
3 120 32 230 255 255 255
3 32 95 230 255 255 255
3 121 194 95 255 255 255
3 293 266 93 255 255 255
3 32 234 95 255 255 255
3 194 293 231 255 255 255
3 194 202 346 255 255 255
3 231 202 194 255 255 255
3 194 32 293 255 255 255
3 346 208 27 255 255 255
3 208 234 27 255 255 255
3 346 231 208 255 255 255
3 327 208 231 255 255 255
3 209 327 231 255 255 255
3 234 121 27 255 255 255
3 346 202 231 255 255 255
3 328 202 346 255 255 255
3 346 90 328 255 255 255
3 209 329 327 255 255 255
3 346 194 90 255 255 255
3 165 164 328 255 255 255
3 202 43 328 255 255 255
3 328 346 165 255 255 255
3 194 27 202 255 255 255
3 202 90 194 255 255 255
3 329 209 237 255 255 255
3 165 43 164 255 255 255
3 209 327 237 255 255 255
3 346 202 27 255 255 255
3 202 208 27 255 255 255
3 166 43 44 255 255 255
3 84 42 270 255 255 255
3 270 345 84 255 255 255
3 84 15 42 255 255 255
3 345 42 84 255 255 255
3 84 243 15 255 255 255
3 243 15 71 255 255 255
3 42 243 84 255 255 255
3 42 15 243 255 255 255
3 243 236 15 255 255 255
3 84 16 243 255 255 255
3 243 71 77 255 255 255
3 15 307 71 255 255 255
3 42 308 270 255 255 255
3 236 310 15 255 255 255
3 243 325 236 255 255 255
3 16 85 243 255 255 255
3 71 309 77 255 255 255
3 42 84 311 255 255 255
3 85 71 243 255 255 255
3 307 310 71 255 255 255
3 308 45 270 255 255 255
3 236 153 310 255 255 255
3 85 48 71 255 255 255
3 309 85 77 255 255 255
3 71 310 77 255 255 255
3 310 153 71 255 255 255
3 311 46 42 255 255 255
3 84 46 311 255 255 255
3 312 47 345 255 255 255
3 45 312 270 255 255 255
3 236 110 153 255 255 255
3 236 77 48 255 255 255
3 85 310 77 255 255 255
3 71 152 309 255 255 255
3 310 325 77 255 255 255
3 71 278 310 255 255 255
3 311 273 46 255 255 255
3 311 274 273 255 255 255
3 46 274 311 255 255 255
3 47 42 345 255 255 255
3 312 51 47 255 255 255
3 345 270 312 255 255 255
3 45 54 312 255 255 255
3 308 276 45 255 255 255
3 48 85 236 255 255 255
3 310 48 77 255 255 255
3 309 152 111 255 255 255
3 152 210 111 255 255 255
3 71 40 152 255 255 255
3 153 110 71 255 255 255
3 110 272 153 255 255 255
3 48 307 77 255 255 255
3 111 110 309 255 255 255
3 71 278 40 255 255 255
3 153 113 110 255 255 255
3 54 270 312 255 255 255
3 308 51 276 255 255 255
3 272 310 153 255 255 255
3 110 145 272 255 255 255
3 243 15 77 255 255 255
3 152 277 210 255 255 255
3 153 236 113 255 255 255
3 273 274 46 255 255 255
3 274 240 16 255 255 255
3 54 280 270 255 255 255
3 275 11 54 255 255 255
3 276 275 45 255 255 255
3 276 312 54 255 255 255
3 48 147 274 255 255 255
3 277 111 210 255 255 255
3 278 180 40 255 255 255
3 274 46 240 255 255 255
3 279 240 46 255 255 255
3 46 274 279 255 255 255
3 274 16 279 255 255 255
3 276 280 275 255 255 255
3 275 73 11 255 255 255
3 308 47 51 255 255 255
3 277 301 111 255 255 255
3 152 111 277 255 255 255
3 278 268 180 255 255 255
3 279 147 240 255 255 255
3 280 73 275 255 255 255
3 276 312 280 255 255 255
3 275 118 73 255 255 255
3 275 122 75 255 255 255
3 47 148 51 255 255 255
3 301 110 111 255 255 255
3 73 280 11 255 255 255
3 122 62 75 255 255 255
3 40 180 298 255 255 255
3 268 78 180 255 255 255
3 62 181 75 255 255 255
3 122 108 62 255 255 255
3 301 113 110 255 255 255
3 40 111 152 255 255 255
3 180 112 298 255 255 255
3 28 301 180 255 255 255
3 278 272 268 255 255 255
3 181 119 75 255 255 255
3 108 181 122 255 255 255
3 16 85 274 255 255 255
3 301 78 113 255 255 255
3 112 114 298 255 255 255
3 180 28 112 255 255 255
3 278 301 272 255 255 255
3 181 115 119 255 255 255
3 108 115 62 255 255 255
3 274 311 16 255 255 255
3 113 71 110 255 255 255
3 114 117 298 255 255 255
3 28 114 298 255 255 255
3 301 113 272 255 255 255
3 115 80 119 255 255 255
3 108 115 181 255 255 255
3 116 85 16 255 255 255
3 16 71 116 255 255 255
3 117 28 298 255 255 255
3 114 36 117 255 255 255
3 28 117 112 255 255 255
3 114 74 298 255 255 255
3 301 28 113 255 255 255
3 118 181 75 255 255 255
3 119 52 75 255 255 255
3 62 343 24 255 255 255
3 108 304 115 255 255 255
3 85 13 16 255 255 255
3 74 61 298 255 255 255
3 118 343 181 255 255 255
3 75 24 118 255 255 255
3 115 156 80 255 255 255
3 62 181 343 255 255 255
3 115 80 81 255 255 255
3 122 347 108 255 255 255
3 115 81 181 255 255 255
3 301 298 28 255 255 255
3 75 62 24 255 255 255
3 79 62 80 255 255 255
3 80 39 79 255 255 255
3 108 80 304 255 255 255
3 122 31 347 255 255 255
3 81 119 181 255 255 255
3 108 229 80 255 255 255
3 347 156 108 255 255 255
3 31 79 347 255 255 255
3 119 62 181 255 255 255
3 347 228 156 255 255 255
3 79 229 347 255 255 255
3 304 39 115 255 255 255
3 66 156 304 255 255 255
3 156 304 108 255 255 255
3 39 80 115 255 255 255
3 304 156 39 255 255 255
3 184 82 156 255 255 255
3 122 343 31 255 255 255
3 82 246 156 255 255 255
3 184 247 82 255 255 255
3 246 82 228 255 255 255
3 228 248 246 255 255 255
3 39 246 228 255 255 255
3 39 156 246 255 255 255
3 246 248 39 255 255 255
3 247 251 82 255 255 255
3 228 248 184 255 255 255
3 228 39 248 255 255 255
3 248 250 184 255 255 255
3 249 253 184 255 255 255
3 184 254 249 255 255 255
3 246 156 228 255 255 255
3 250 249 184 255 255 255
3 251 255 82 255 255 255
3 247 252 251 255 255 255
3 252 255 251 255 255 255
3 247 249 252 255 255 255
3 253 250 184 255 255 255
3 254 253 249 255 255 255
3 249 247 184 255 255 255
3 249 253 247 255 255 255
3 255 217 82 255 255 255
3 252 216 255 255 255 255
3 249 253 252 255 255 255
3 216 255 249 255 255 255
3 82 188 246 255 255 255
3 82 217 188 255 255 255
3 217 213 188 255 255 255
3 258 188 255 255 255 255
3 216 258 255 255 255 255
3 255 251 217 255 255 255
3 188 49 255 255 255 255
3 258 254 188 255 255 255
3 254 258 253 255 255 255
3 188 253 246 255 255 255
3 251 252 217 255 255 255
3 255 246 251 255 255 255
3 49 144 255 255 255 255
3 189 259 213 255 255 255
3 189 190 259 255 255 255
3 259 190 219 255 255 255
3 259 219 214 255 255 255
3 190 185 219 255 255 255
3 18 192 259 255 255 255
3 259 214 18 255 255 255
3 190 261 185 255 255 255
3 260 222 190 255 255 255
3 18 262 192 255 255 255
3 261 41 185 255 255 255
3 218 220 192 255 255 255
3 218 189 220 255 255 255
3 262 218 192 255 255 255
3 18 214 262 255 255 255
3 219 187 19 255 255 255
3 185 41 219 255 255 255
3 41 218 185 255 255 255
3 220 213 192 255 255 255
3 218 190 189 255 255 255
3 262 215 218 255 255 255
3 262 221 215 255 255 255
3 18 257 214 255 255 255
3 219 215 187 255 255 255
3 41 263 219 255 255 255
3 185 260 41 255 255 255
3 214 219 262 255 255 255
3 219 222 215 255 255 255
3 190 218 261 255 255 255
3 221 186 215 255 255 255
3 221 218 262 255 255 255
3 215 140 288 255 255 255
3 186 25 215 255 255 255
3 221 19 186 255 255 255
3 218 185 262 255 255 255
3 186 264 25 255 255 255
3 215 25 140 255 255 255
3 191 264 186 255 255 255
3 140 94 288 255 255 255
3 186 193 191 255 255 255
3 191 38 264 255 255 255
3 187 193 186 255 255 255
3 140 38 94 255 255 255
3 20 256 264 255 255 255
3 38 25 264 255 255 255
3 191 288 38 255 255 255
3 38 265 94 255 255 255
3 215 191 288 255 255 255
3 94 265 193 255 255 255
3 151 53 83 255 255 255
3 83 150 151 255 255 255
3 151 61 53 255 255 255
3 150 339 151 255 255 255
3 244 330 207 255 255 255
3 330 232 207 255 255 255
3 207 88 330 255 255 255
3 330 136 207 255 255 255
3 330 223 232 255 255 255
3 223 22 232 255 255 255
3 26 302 56 255 255 255
3 211 91 302 255 255 255
3 91 26 302 255 255 255
3 211 26 91 255 255 255
3 302 67 211 255 255 255
3 26 68 302 255 255 255
3 91 88 26 255 255 255
3 211 331 26 255 255 255
3 68 33 302 255 255 255
3 348 302 26 255 255 255
3 348 91 302 255 255 255
3 68 26 56 255 255 255
3 37 67 26 255 255 255
3 26 33 37 255 255 255
3 26 348 91 255 255 255
3 331 289 26 255 255 255
3 331 69 289 255 255 255
3 69 290 289 255 255 255
3 69 55 290 255 255 255
3 331 294 69 255 255 255
3 290 297 289 255 255 255
3 55 137 290 255 255 255
3 12 290 69 255 255 255
3 69 55 12 255 255 255
3 294 297 69 255 255 255
3 331 289 294 255 255 255
3 331 212 289 255 255 255
3 290 155 137 255 255 255
3 12 106 290 255 255 255
3 12 57 106 255 255 255
3 224 34 290 255 255 255
3 290 106 224 255 255 255
3 106 57 137 255 255 255
3 12 69 57 255 255 255
3 12 331 69 255 255 255
3 12 290 331 255 255 255
3 224 106 34 255 255 255
3 106 127 34 255 255 255
3 224 196 106 255 255 255
3 106 158 127 255 255 255
3 52 326 157 255 255 255
3 267 324 306 255 255 255
3 251 247 324 255 255 255
3 324 144 251 255 255 255
3 247 306 324 255 255 255
3 247 267 306 255 255 255
3 76 109 36 255 255 255
3 36 344 76 255 255 255
3 344 50 76 255 255 255
3 36 53 344 255 255 255
3 76 344 150 255 255 255
3 112 281 36 255 255 255
3 36 305 112 255 255 255
3 150 303 76 255 255 255
3 53 149 344 255 255 255
3 281 74 36 255 255 255
3 305 109 112 255 255 255
3 303 245 76 255 255 255
3 344 149 150 255 255 255
3 53 146 149 255 255 255
3 303 339 245 255 255 255
3 149 146 150 255 255 255
3 339 146 245 255 255 255
3 50 149 150 255 255 255
3 146 281 245 255 255 255
3 89 291 241 255 255 255
3 241 223 89 255 255 255
3 291 22 241 255 255 255
3 89 87 291 255 255 255
3 89 337 87 255 255 255
