ply
format ascii 1.0
element vertex 354
property float x
property float y
property float z
element face 576
property list uchar int vertex_indices
property uchar red
property uchar green
property uchar blue
end_header
4.72100019454956055 0.402000010013580322 -0.796000003814697266
5.01000022888183594 0.195999994874000549 -0.898000001907348633
4.62900018692016602 0.386999994516372681 -0.828000009059906006
4.8815007209777832 0.315997153520584106 -0.559971392154693604
5.16223764419555664 -0.0146737275645136833 -0.696756839752197266
5.09959936141967773 -0.0217623133212327957 -0.813399612903594971
5.16133260726928711 -0.0119046065956354141 -0.889795243740081787
5.13100004196166992 -0.0209999997168779373 -0.633000016212463379
5.06504440307617188 -0.00684875436127185822 -0.716848075389862061
5.14599990844726562 -0.0829999968409538269 -0.763000011444091797
5.02600002288818359 0.0230000000447034836 -0.731999993324279785
5.14599990844726562 -0.0289999991655349731 -0.748000025749206543
5.04199981689453125 0.0160000007599592209 -0.674000024795532227
5.02099990844726562 0.00800000037997961044 -0.722000002861022949
4.74170446395874023 0.438253223896026611 -0.763224661350250244
4.76016378402709961 0.438460290431976318 -0.791490018367767334
5.2059173583984375 -0.0319539271295070648 -0.656650304794311523
5.14099979400634766 -0.0599999986588954926 -0.689999997615814209
4.99210929870605469 0.191645532846450806 -0.435898661613464355
4.98243474960327148 0.152281135320663452 -0.737253844738006592
4.89200019836425781 0.179000005125999451 -0.666000008583068848
4.98297595977783203 0.242256447672843933 -0.919149816036224365
4.92600011825561523 0.11900000274181366 -0.630999982357025146
4.96055126190185547 0.106360957026481628 -0.884042441844940186
4.95431900024414062 0.0847248882055282593 -0.851113080978393555
4.75955677032470703 0.0971219092607498169 -0.462555617094039917
4.80200004577636719 0.349000006914138794 -0.800999999046325684
4.78900003433227539 0.316000014543533325 -0.59299999475479126
4.86299991607666016 0.128999993205070496 -0.720000028610229492
5.0166621208190918 -0.131696000695228577 -0.587780356407165527
4.93400001525878906 0.179000005125999451 -0.499000012874603271
4.98181724548339844 -0.247248902916908264 -0.376731932163238525
4.91440773010253906 0.0302829407155513763 -0.357654750347137451
5.02373313903808594 0.15975189208984375 -0.89477694034576416
4.64870357513427734 0.311595439910888672 -0.841814935207366943
4.78110790252685547 0.461896717548370361 -0.602876782417297363
4.88399982452392578 0.101999998092651367 -0.660000026226043701
4.78186845779418945 0.425338506698608398 -0.600730597972869873
4.98199987411499023 0.180999994277954102 -0.535000026226043701
5.06555652618408203 -0.0252707656472921371 -0.842988371849060059
5.14699983596801758 -0.115999996662139893 -0.823000013828277588
4.8919978141784668 0.203113332390785217 -0.776054203510284424
4.98541355133056641 0.17449505627155304 -0.644260406494140625
5.11980342864990234 0.104804068803787231 -0.355280041694641113
4.69700002670288086 0.419999986886978149 -0.80699998140335083
4.91301822662353516 0.168223470449447632 -0.668736577033996582
4.79497766494750977 0.281525164842605591 -0.904234111309051514
4.91382455825805664 0.157421573996543884 -0.917815089225769043
4.79691934585571289 0.187063977122306824 -0.65874868631362915
4.74932575225830078 0.12998555600643158 -0.537605881690979004
5.08097410202026367 -0.202177464962005615 -0.527912139892578125
4.97777700424194336 0.145694971084594727 -0.758970141410827637
5.05368185043334961 -0.0500822886824607849 -0.771300256252288818
5.12753725051879883 0.0354534164071083069 -0.361310005187988281
5.02076005935668945 0.214944377541542053 -0.771319329738616943
4.71965694427490234 0.398636192083358765 -0.758337676525115967
4.78996706008911133 0.436193674802780151 -0.627085745334625244
4.74218893051147461 0.293697535991668701 -0.4365101158618927
5.03863000869750977 0.119766876101493835 -0.676642954349517822
5.05914640426635742 0.186856433749198914 -0.312460958957672119
4.95300006866455078 0.109999999403953552 -0.691999971866607666
4.97081851959228516 0.149019941687583923 -0.582540690898895264
4.69998741149902344 0.190888330340385437 -0.447516381740570068
4.91395950317382812 0.184307292103767395 -0.713610947132110596
4.87974119186401367 0.23067493736743927 -0.75117570161819458
4.78299999237060547 0.153999999165534973 -0.648999989032745361
4.89799976348876953 0.0799999982118606567 -0.910000026226043701
4.66300010681152344 0.393999993801116943 -0.81099998950958252
4.87649250030517578 0.161411091685295105 -0.803927779197692871
4.81633663177490234 0.165032729506492615 -0.85391920804977417
4.98258113861083984 0.208252832293510437 -0.67051386833190918
4.97348642349243164 0.146762415766716003 -0.67449796199798584
5.13610363006591797 -0.138704597949981689 -0.795273840427398682
5.03999996185302734 0.263999998569488525 -0.53200000524520874
5.03999996185302734 0.0160000007599592209 -0.726999998092651367
5.14717292785644531 0.00177280744537711143 -0.830388963222503662
5.06741142272949219 0.250062108039855957 -0.656718850135803223
5.09058666229248047 -0.034560471773147583 -0.662542760372161865
4.84165048599243164 0.137752383947372437 -0.725887537002563477
4.92865800857543945 0.211070626974105835 -0.717806816101074219
4.89400005340576172 0.145999997854232788 -0.625
4.72118425369262695 0.36592373251914978 -0.872951745986938477
4.6564030647277832 0.383196443319320679 -0.882406234741210938
4.75789737701416016 0.311694234609603882 -0.655243873596191406
4.86638164520263672 0.257848829030990601 -0.559995651245117188
5.08351421356201172 -0.131441071629524231 -0.731973528861999512
4.93425607681274414 0.0232464130967855453 -0.427796900272369385
4.9108738899230957 0.0270406361669301987 -0.478841274976730347
5.03417634963989258 0.244394063949584961 -0.808679640293121338
4.96700000762939453 0.0120000001043081284 -0.460999995470046997
5.00139665603637695 0.0511784069240093231 -0.61373448371887207
5.19799995422363281 -0.0570000000298023224 -0.790000021457672119
5.02100563049316406 -0.0323103256523609161 -0.360891848802566528
4.95850610733032227 0.09897661954164505 -0.788572013378143311
4.97710323333740234 0.145087510347366333 -0.713172674179077148
5.00764942169189453 0.256609261035919189 -0.591010391712188721
5.13997840881347656 -0.124737702310085297 -0.721548795700073242
5.1119999885559082 -0.00400000018998980522 -0.71399998664855957
5.17600011825561523 -0.0489999987185001373 -0.749000012874603271
5.13203525543212891 0.00237617478705942631 -0.737799406051635742
5.09830141067504883 -0.0901935100555419922 -0.92187267541885376
5.0007176399230957 0.182111054658889771 -0.277456969022750854
5.07947349548339844 0.0118209831416606903 -0.793069243431091309
5.09406566619873047 -0.0358983464539051056 -0.609062254428863525
5.14003324508666992 -0.0610101036727428436 -0.73528897762298584
5.01039743423461914 -0.210533455014228821 -0.551130712032318115
4.9259333610534668 0.183148086071014404 -0.678668975830078125
4.82999992370605469 0.301999986171722412 -0.799000024795532227
4.9051513671875 0.181857407093048096 -0.851625323295593262
4.81647539138793945 0.313910961151123047 -0.76613539457321167
4.81339502334594727 0.172154337167739868 -0.903785765171051025
4.98000001907348633 0.247999995946884155 -0.712000012397766113
4.98999977111816406 0.123000003397464752 -0.689999997615814209
4.88500022888183594 0.128999993205070496 -0.721000015735626221
4.9922947883605957 0.170735821127891541 -0.616270661354064941
4.77099990844726562 0.179000005125999451 -0.601999998092651367
4.98062229156494141 -0.0234460141509771347 -0.657988131046295166
4.96966218948364258 0.22984004020690918 -0.860157608985900879
4.84979963302612305 0.140394747257232666 -0.682742536067962646
4.91200017929077148 0.101999998092651367 -0.916000008583068848
5.02666234970092773 0.206595942378044128 -0.345585078001022339
5.11937570571899414 -0.0262047499418258667 -0.679658234119415283
5.15600013732910156 -0.0289999991655349731 -0.708999991416931152
5.05362749099731445 0.170271322131156921 -0.890843093395233154
5.1068730354309082 -0.124964430928230286 -0.802571892738342285
5.15405035018920898 -0.0878788977861404419 -0.806904315948486328
5.15199995040893555 -0.0820000022649765015 -0.754000008106231689
5.03112983703613281 -0.0948948413133621216 -0.637829601764678955
5.06314420700073242 -0.0786230713129043579 -0.838749289512634277
5.0637059211730957 -0.121885374188423157 -0.778432726860046387
4.9114532470703125 0.219348981976509094 -0.502222359180450439
4.91498184204101562 0.225708439946174622 -0.748616158962249756
4.97099924087524414 0.112557545304298401 -0.910800814628601074
5.01901054382324219 0.201662272214889526 -0.688176751136779785
4.77505350112915039 0.337868422269821167 -0.663539707660675049
4.7800440788269043 0.276088684797286987 -0.640170633792877197
4.74900007247924805 0.293999999761581421 -0.53200000524520874
4.74120235443115234 0.463202804327011108 -0.678116738796234131
4.79180240631103516 0.27123221755027771 -0.589688956737518311
4.70025396347045898 0.15385100245475769 -0.463288366794586182
4.97069311141967773 0.0311933606863021851 -0.658811628818511963
4.8639984130859375 0.100166581571102142 -0.771953046321868896
4.90483713150024414 0.114791654050350189 -0.858791589736938477
4.81881237030029297 0.0975425168871879578 -0.697694659233093262
4.86800003051757812 0.112999998033046722 -0.691999971866607666
4.93877172470092773 0.0731371268630027771 -0.888678133487701416
4.83109521865844727 0.409806549549102783 -0.739766836166381836
4.83199977874755859 0.0920000001788139343 -0.689999997615814209
4.97100019454956055 0.0780000016093254089 -0.629999995231628418
5.02965497970581055 -0.0709238052368164062 -0.730024099349975586
4.8340001106262207 0.0780000016093254089 -0.68199998140335083
4.81653308868408203 0.262105554342269897 -0.83379673957824707
5.00099992752075195 0.00800000037997961044 -0.704999983310699463
5.06135177612304688 0.0258453935384750366 -0.738571107387542725
4.92923545837402344 0.0294350516051054001 -0.555842399597167969
5.07226181030273438 0.289413869380950928 -0.53791356086730957
5.05601644515991211 0.222319662570953369 -0.576372265815734863
5.05200004577636719 -0.017000000923871994 -0.651000022888183594
5.13151645660400391 -0.0417078845202922821 -0.848231673240661621
5.11091327667236328 0.057452131062746048 -0.448735535144805908
5.11245250701904297 0.00248454883694648743 -0.649351358413696289
4.99766111373901367 0.105408556759357452 -0.679407656192779541
4.78801822662353516 0.254838794469833374 -0.823890984058380127
4.76530885696411133 0.30264127254486084 -0.492525428533554077
4.85024738311767578 0.313125699758529663 -0.9066506028175354
4.96999979019165039 0.145999997854232788 -0.816999971866607666
4.789520263671875 0.385969072580337524 -0.907559752464294434
4.78846836090087891 0.459318369626998901 -0.701429307460784912
4.9850001335144043 0.00300000002607703209 -0.59299999475479126
5.06591081619262695 -0.194426536560058594 -0.577910661697387695
4.94299983978271484 0.114000000059604645 -0.902000010013580322
4.84634876251220703 0.337040841579437256 -0.805592536926269531
4.74102497100830078 0.246396690607070923 -0.91784292459487915
4.78476190567016602 0.391422837972640991 -0.893210172653198242
4.8012242317199707 0.281598031520843506 -0.912634432315826416
4.75318288803100586 0.434166282415390015 -0.817113935947418213
4.79464244842529297 0.374656438827514648 -0.800729453563690186
4.80800008773803711 0.330000013113021851 -0.851000010967254639
4.83738088607788086 0.334095805883407593 -0.911246716976165771
4.78165006637573242 0.314740031957626343 -0.446631908416748047
4.95111751556396484 0.000783514638897031546 -0.355075210332870483
5.07884502410888672 -0.033458903431892395 -0.905786812305450439
5.01399993896484375 0.207000002264976501 -0.781000018119812012
4.7454071044921875 0.147337540984153748 -0.590942800045013428
4.92899990081787109 0.165000006556510925 -0.56400001049041748
4.99900007247924805 0.128000006079673767 -0.915000021457672119
4.89135837554931641 0.0779687017202377319 -0.645021378993988037
5.07100009918212891 0.277999997138977051 -0.606999993324279785
5.07240200042724609 -0.135720670223236084 -0.633729755878448486
5.13399982452392578 -0.0419999994337558746 -0.80699998140335083
5.10030126571655273 0.0119086494669318199 -0.608890235424041748
5.0001368522644043 0.261789590120315552 -0.802406668663024902
5.02247524261474609 0.227719902992248535 -0.753969311714172363
5.00325345993041992 0.221860900521278381 -0.766275167465209961
5.01200008392333984 0.221000000834465027 -0.801999986171722412
5.01000022888183594 0.187000006437301636 -0.765999972820281982
5.01181125640869141 0.142542481422424316 -0.870074748992919922
4.70804738998413086 0.333722949028015137 -0.697831213474273682
4.82113504409790039 0.136015772819519043 -0.825706541538238525
4.71692371368408203 0.189703583717346191 -0.509312927722930908
4.99005508422851562 -0.0719548463821411133 -0.367812693119049072
5.11980152130126953 -0.0120800640434026718 -0.790309548377990723
5.05279064178466797 -0.136817619204521179 -0.586726248264312744
5.02455043792724609 0.234538063406944275 -0.593369185924530029
4.93921566009521484 0.059983178973197937 -0.608871638774871826
4.97290563583374023 0.0301637519150972366 -0.610371232032775879
5.09200859069824219 0.281354695558547974 -0.405339747667312622
4.93820095062255859 0.0506132245063781738 -0.489367902278900146
4.9575958251953125 0.211086094379425049 -0.594528615474700928
4.72141790390014648 0.33457261323928833 -0.448096215724945068
5.13988590240478516 -0.0446693077683448792 -0.633500397205352783
5.03800010681152344 0.0109999999403953552 -0.721000015735626221
5.12482023239135742 -0.0808257237076759338 -0.653413653373718262
5.11299991607666016 -0.0930000022053718567 -0.777000010013580322
5.15000009536743164 -0.0930000022053718567 -0.822000026702880859
5.19425487518310547 -0.0524121299386024475 -0.685998499393463135
5.04996919631958008 -0.208643302321434021 -0.495249092578887939
4.84030008316040039 0.201019421219825745 -0.82494509220123291
4.99900007247924805 0.190999999642372131 -0.575999975204467773
4.7728428840637207 0.248589500784873962 -0.389520317316055298
4.9851384162902832 0.186509624123573303 -0.454266786575317383
4.68209552764892578 0.345107108354568481 -0.868160128593444824
5.16640377044677734 -0.0929521322250366211 -0.824134707450866699
5.05018854141235352 -0.175255134701728821 -0.535741865634918213
5.14257955551147461 -0.130063727498054504 -0.853614270687103271
5.08729124069213867 -0.0822429805994033813 -0.797120809555053711
4.92249727249145508 0.149658188223838806 -0.748834073543548584
4.9224858283996582 0.17481522262096405 -0.589877605438232422
4.94500017166137695 0.0359999984502792358 -0.640999972820281982
4.97300004959106445 0.11900000274181366 -0.651000022888183594
4.71600008010864258 0.384999990463256836 -0.792999982833862305
4.80368757247924805 0.265746712684631348 -0.664164185523986816
4.97339344024658203 0.078297734260559082 -0.66689908504486084
4.98547554016113281 0.20816338062286377 -0.50155174732208252
4.73992061614990234 0.126498401165008545 -0.494367539882659912
4.66099977493286133 0.384000003337860107 -0.808000028133392334
4.8060002326965332 0.305999994277954102 -0.605000019073486328
4.81699991226196289 0.263999998569488525 -0.829999983310699463
4.74194145202636719 0.119251519441604614 -0.561789095401763916
4.7630000114440918 0.328000009059906006 -0.621999979019165039
4.91144561767578125 0.163003325462341309 -0.721485555171966553
4.89073991775512695 0.128984391689300537 -0.758132100105285645
5.16200017929077148 -0.0540000014007091522 -0.773000001907348633
5.13299989700317383 -0.0379999987781047821 -0.801999986171722412
5.0854487419128418 -0.0591588877141475677 -0.699152529239654541
5.10238265991210938 -0.200493097305297852 -0.481280356645584106
5.08500003814697266 -0.165000006556510925 -0.623000025749206543
5.15999984741210938 -0.0450000017881393433 -0.78600001335144043
5.09612703323364258 -0.196832582354545593 -0.50883173942565918
5.01000022888183594 0.209999993443489075 -0.712000012397766113
5.01103639602661133 0.247280016541481018 -0.902180373668670654
5.06599998474121094 0.0109999999403953552 -0.754000008106231689
5.11715936660766602 -0.0952651947736740112 -0.703847706317901611
5.01703214645385742 0.223125115036964417 -0.845113515853881836
4.92425155639648438 0.218173101544380188 -0.572420239448547363
4.99274778366088867 -0.0360735803842544556 -0.434733718633651733
4.75363349914550781 0.307400315999984741 -0.686062753200531006
4.96965742111206055 -0.204376444220542908 -0.373499006032943726
4.95579385757446289 0.242545068264007568 -0.755135834217071533
4.97844505310058594 0.071241818368434906 -0.577194035053253174
4.7895054817199707 0.297851234674453735 -0.506969869136810303
4.94858884811401367 0.139551311731338501 -0.62625497579574585
4.91500997543334961 0.137152105569839478 -0.649239182472229004
4.85700750350952148 0.0810177698731422424 -0.768055438995361328
4.96931838989257812 0.00949195865541696548 -0.553945064544677734
4.82407093048095703 0.316531866788864136 -0.68522942066192627
4.79922056198120117 0.257653981447219849 -0.530523955821990967
4.87699985504150391 0.104999996721744537 -0.679000020027160645
4.76645374298095703 0.314360469579696655 -0.567293941974639893
4.88000011444091797 0.167999997735023499 -0.68900001049041748
4.9485173225402832 0.245128706097602844 -0.722775280475616455
4.88000011444091797 0.13099999725818634 -0.674000024795532227
4.84340238571166992 0.234576433897018433 -0.795234084129333496
4.83053922653198242 0.257278531789779663 -0.816073417663574219
4.67868947982788086 0.381643801927566528 -0.863457858562469482
4.90199995040893555 0.13099999725818634 -0.694999992847442627
5.03091621398925781 0.00877123232930898666 -0.615140199661254883
4.8783421516418457 0.0225914027541875839 -0.346540391445159912
4.94999980926513672 -0.00999999977648258209 -0.433999985456466675
4.89900016784667969 0.143000006675720215 -0.728999972343444824
4.84683465957641602 0.157220602035522461 -0.878937721252441406
4.79199981689453125 0.319000005722045898 -0.605000019073486328
5.14037084579467773 -0.0179428793489933014 -0.664079606533050537
5.08478355407714844 0.0548412464559078217 -0.353666543960571289
4.71419429779052734 0.296038448810577393 -0.884126186370849609
4.83420372009277344 0.21387779712677002 -0.795244872570037842
4.80130672454833984 0.329533576965332031 -0.636228382587432861
4.70707798004150391 0.302903413772583008 -0.81874924898147583
4.98260164260864258 0.243509143590927124 -0.305671662092208862
4.82399988174438477 0.337999999523162842 -0.81099998950958252
4.75166988372802734 0.277296125888824463 -0.900557279586791992
4.91671514511108398 0.0799390673637390137 -0.617728829383850098
4.92299985885620117 0.107000000774860382 -0.702000021934509277
4.85986900329589844 0.0639180019497871399 -0.758613705635070801
4.74707174301147461 0.348531991243362427 -0.386617422103881836
5.03700017929077148 -0.204999998211860657 -0.476000010967254639
4.80585241317749023 0.136467322707176208 -0.613614022731781006
4.97277688980102539 0.0381769277155399323 -0.483320057392120361
4.94829702377319336 -0.0252397321164608002 -0.477003604173660278
4.81365346908569336 0.126183629035949707 -0.67286306619644165
5.02942562103271484 0.0190211404114961624 -0.614205300807952881
4.93457698822021484 0.0487174540758132935 -0.550064444541931152
4.74251508712768555 0.169425025582313538 -0.450840771198272705
4.89599990844726562 0.0939999967813491821 -0.933000028133392334
4.65729331970214844 0.375864416360855103 -0.84837871789932251
4.7826390266418457 0.166820377111434937 -0.587414383888244629
4.92100000381469727 0.187999993562698364 -0.509000003337860107
4.97167682647705078 -0.0278483033180236816 -0.362291783094406128
5.08599996566772461 -0.00499999988824129105 -0.730000019073486328
4.98999977111816406 0.0590000003576278687 -0.56099998950958252
4.9559478759765625 0.0101477447897195816 -0.665421485900878906
4.99800014495849609 0.0250000003725290298 -0.58899998664855957
5.15256452560424805 -0.0419397950172424316 -0.806336045265197754
4.86089706420898438 0.164960801601409912 -0.769620716571807861
4.67760705947875977 0.347611904144287109 -0.769181132316589355
4.89400005340576172 0.129999995231628418 -0.66100001335144043
4.7850494384765625 0.164750158786773682 -0.638464868068695068
4.94999980926513672 0.166999995708465576 -0.546999990940093994
4.91499996185302734 0.199000000953674316 -0.552999973297119141
5.0409998893737793 0.192000001668930054 -0.89999997615814209
5.01673460006713867 0.293699383735656738 -0.474241942167282104
5.10490512847900391 0.308399975299835205 -0.417237550020217896
5.00100421905517578 0.187833428382873535 -0.815196335315704346
5.04973173141479492 0.168904960155487061 -0.909407496452331543
5.05683755874633789 0.273169994354248047 -0.524893462657928467
5.03599977493286133 0.275000005960464478 -0.56099998950958252
5.0776972770690918 0.245904833078384399 -0.595298290252685547
5.02099990844726562 0.194000005722045898 -0.90700000524520874
5.06199979782104492 0.266999989748001099 -0.586000025272369385
5.01626920700073242 0.18942810595035553 -0.859697282314300537
4.94899988174438477 0.126000002026557922 -0.708000004291534424
4.9938969612121582 -0.175698027014732361 -0.589994192123413086
4.92267894744873047 -0.0121786268427968025 -0.338946372270584106
4.76029777526855469 0.393856197595596313 -0.696287870407104492
4.798553466796875 0.266443520784378052 -0.74647367000579834
4.99557590484619141 0.257355958223342896 -0.677225470542907715
5.02655029296875 -0.0134702203795313835 -0.811160564422607422
4.6920166015625 0.331302613019943237 -0.924811720848083496
5.01943778991699219 -0.00762555701658129692 -0.686419486999511719
5.08505535125732422 0.283036738634109497 -0.492180496454238892
5.07927846908569336 0.325120210647583008 -0.471746623516082764
5.0390934944152832 -0.0358938835561275482 -0.72367328405380249
5.06452846527099609 -0.0115292603150010109 -0.69127047061920166
5.02699995040893555 0.291000008583068848 -0.512000024318695068
5.09531927108764648 -0.0753139331936836243 -0.658560454845428467
5.05566024780273438 -0.149303838610649109 -0.674352169036865234
5.00095462799072266 -0.195551499724388123 -0.516222715377807617
5.00407791137695312 -0.208551391959190369 -0.375251412391662598
1 1 1
4.89300012588500977 0.142000004649162292 -0.671000003814697266
4.8101806640625 0.165392324328422546 -0.64653623104095459
4.95866727828979492 0.164931878447532654 -0.924617350101470947
4.91934585571289062 0.0762907639145851135 -0.668591320514678955
5.03707218170166016 0.237065672874450684 -0.681322216987609863
3 177 178 173 255 255 255
3 173 176 177 255 255 255
3 173 175 176 255 255 255
3 176 171 177 255 255 255
3 175 15 176 255 255 255
3 173 81 175 255 255 255
3 173 337 81 255 255 255
3 174 46 166 255 255 255
3 178 166 173 255 255 255
3 166 178 174 255 255 255
3 178 164 174 255 255 255
3 15 167 176 255 255 255
3 167 146 176 255 255 255
3 174 172 46 255 255 255
3 15 14 167 255 255 255
3 337 221 81 255 255 255
3 177 46 164 255 255 255
3 107 289 171 255 255 255
3 171 109 107 255 255 255
3 172 290 46 255 255 255
3 107 109 289 255 255 255
3 109 273 107 255 255 255
3 109 272 273 255 255 255
3 109 176 146 255 255 255
3 109 26 176 255 255 255
3 14 137 167 255 255 255
3 14 44 55 255 255 255
3 15 0 14 255 255 255
3 0 44 175 255 255 255
3 175 230 0 255 255 255
3 337 34 221 255 255 255
3 109 171 289 255 255 255
3 109 334 272 255 255 255
3 134 265 109 255 255 255
3 146 333 109 255 255 255
3 146 167 333 255 255 255
3 167 56 333 255 255 255
3 44 15 175 255 255 255
3 171 26 289 255 255 255
3 265 334 109 255 255 255
3 109 333 134 255 255 255
3 55 137 14 255 255 255
3 55 333 137 255 255 255
3 284 34 337 255 255 255
3 172 174 290 255 255 255
3 174 46 290 255 255 255
3 285 64 272 255 255 255
3 272 334 285 255 255 255
3 265 231 334 255 255 255
3 284 287 34 255 255 255
3 337 290 284 255 255 255
3 174 164 46 255 255 255
3 265 286 231 255 255 255
3 333 56 137 255 255 255
3 55 197 333 255 255 255
3 314 197 55 255 255 255
3 230 314 55 255 255 255
3 34 304 221 255 255 255
3 273 151 237 255 255 255
3 285 151 273 255 255 255
3 285 217 151 255 255 255
3 231 256 334 255 255 255
3 134 286 265 255 255 255
3 137 35 167 255 255 255
3 304 82 221 255 255 255
3 217 162 151 255 255 255
3 273 272 285 255 255 255
3 41 285 272 255 255 255
3 64 131 272 255 255 255
3 285 313 64 255 255 255
3 217 68 285 255 255 255
3 334 162 285 255 255 255
3 231 135 256 255 255 255
3 35 56 167 255 255 255
3 137 56 35 255 255 255
3 221 274 81 255 255 255
3 304 274 82 255 255 255
3 34 235 304 255 255 255
3 284 290 287 255 255 255
3 41 217 285 255 255 255
3 272 131 41 255 255 255
3 131 258 41 255 255 255
3 217 313 68 255 255 255
3 138 135 231 255 255 255
3 286 236 231 255 255 255
3 56 37 35 255 255 255
3 304 235 2 255 255 255
3 287 314 34 255 255 255
3 41 68 217 255 255 255
3 131 270 258 255 255 255
3 64 79 131 255 255 255
3 63 79 64 255 255 255
3 64 313 63 255 255 255
3 217 198 313 255 255 255
3 162 217 285 255 255 255
3 334 237 162 255 255 255
3 231 3 138 255 255 255
3 68 108 217 255 255 255
3 41 241 68 255 255 255
3 63 45 79 255 255 255
3 313 240 63 255 255 255
3 78 118 313 255 255 255
3 217 69 198 255 255 255
3 334 273 237 255 255 255
3 138 236 135 255 255 255
3 84 266 138 255 255 255
3 3 84 138 255 255 255
3 287 197 314 255 255 255
3 41 313 241 255 255 255
3 45 106 79 255 255 255
3 313 141 78 255 255 255
3 135 83 256 255 255 255
3 135 286 83 255 255 255
3 286 27 236 255 255 255
3 274 2 67 255 255 255
3 69 110 217 255 255 255
3 280 110 69 255 255 255
3 79 63 131 255 255 255
3 45 269 20 255 255 255
3 240 45 63 255 255 255
3 141 263 78 255 255 255
3 197 256 83 255 255 255
3 83 239 197 255 255 255
3 268 27 138 255 255 255
3 286 239 27 255 255 255
3 287 256 197 255 255 255
3 67 235 274 255 255 255
3 241 142 68 255 255 255
3 191 193 258 255 255 255
3 79 106 63 255 255 255
3 45 70 106 255 255 255
3 20 262 45 255 255 255
3 269 118 20 255 255 255
3 269 63 118 255 255 255
3 268 281 27 255 255 255
3 138 266 268 255 255 255
3 266 136 268 255 255 255
3 142 108 68 255 255 255
3 313 279 241 255 255 255
3 270 193 258 255 255 255
3 106 240 63 255 255 255
3 262 261 45 255 255 255
3 63 240 118 255 255 255
3 78 299 118 255 255 255
3 263 293 78 255 255 255
3 260 163 266 255 255 255
3 266 84 260 255 255 255
3 3 260 84 255 255 255
3 117 21 108 255 255 255
3 270 111 193 255 255 255
3 106 45 240 255 255 255
3 70 71 106 255 255 255
3 70 42 71 255 255 255
3 45 208 70 255 255 255
3 271 349 118 255 255 255
3 118 267 271 255 255 255
3 299 350 118 255 255 255
3 78 143 299 255 255 255
3 141 293 263 255 255 255
3 108 322 117 255 255 255
3 226 93 241 255 255 255
3 191 194 193 255 255 255
3 191 117 194 255 255 255
3 70 133 42 255 255 255
3 261 42 45 255 255 255
3 262 80 261 255 255 255
3 275 349 45 255 255 255
3 45 113 275 255 255 255
3 271 315 349 255 255 255
3 267 36 271 255 255 255
3 118 144 267 255 255 255
3 350 296 118 255 255 255
3 299 48 350 255 255 255
3 143 150 299 255 255 255
3 143 118 147 255 255 255
3 143 299 118 255 255 255
3 118 275 144 255 255 255
3 141 78 293 255 255 255
3 141 241 78 255 255 255
3 21 47 108 255 255 255
3 226 51 93 255 255 255
3 192 249 193 255 255 255
3 193 19 192 255 255 255
3 194 322 193 255 255 255
3 70 208 114 255 255 255
3 208 218 114 255 255 255
3 261 114 42 255 255 255
3 80 227 261 255 255 255
3 113 271 275 255 255 255
3 315 80 349 255 255 255
3 267 186 36 255 255 255
3 118 147 144 255 255 255
3 143 267 150 255 255 255
3 163 260 179 255 255 255
3 47 142 108 255 255 255
3 142 93 24 255 255 255
3 93 142 241 255 255 255
3 93 51 165 255 255 255
3 94 51 226 255 255 255
3 193 195 19 255 255 255
3 195 51 19 255 255 255
3 193 322 195 255 255 255
3 71 60 106 255 255 255
3 208 95 218 255 255 255
3 114 208 42 255 255 255
3 113 28 271 255 255 255
3 80 20 349 255 255 255
3 267 352 186 255 255 255
3 350 316 296 255 255 255
3 21 351 47 255 255 255
3 51 94 19 255 255 255
3 226 240 94 255 255 255
3 196 165 322 255 255 255
3 106 229 262 255 255 255
3 60 232 106 255 255 255
3 71 330 60 255 255 255
3 94 45 71 255 255 255
3 71 58 94 255 255 255
3 70 335 133 255 255 255
3 95 38 218 255 255 255
3 261 61 114 255 255 255
3 316 305 296 255 255 255
3 350 48 316 255 255 255
3 241 113 78 255 255 255
3 117 250 21 255 255 255
3 22 36 262 255 255 255
3 106 232 229 255 255 255
3 330 292 60 255 255 255
3 133 111 249 255 255 255
3 218 61 114 255 255 255
3 95 233 38 255 255 255
3 114 61 208 255 255 255
3 261 227 61 255 255 255
3 296 238 183 255 255 255
3 253 250 117 255 255 255
3 117 191 253 255 255 255
3 23 145 24 255 255 255
3 36 315 262 255 255 255
3 60 352 232 255 255 255
3 133 335 111 255 255 255
3 70 203 335 255 255 255
3 254 208 227 255 255 255
3 227 317 61 255 255 255
3 227 318 317 255 255 255
3 352 204 186 255 255 255
3 305 183 296 255 255 255
3 141 313 241 255 255 255
3 313 68 241 255 255 255
3 191 88 253 255 255 255
3 191 192 88 255 255 255
3 191 54 192 255 255 255
3 23 132 170 255 255 255
3 24 196 23 255 255 255
3 232 148 229 255 255 255
3 232 204 148 255 255 255
3 233 220 38 255 255 255
3 204 291 186 255 255 255
3 352 310 204 255 255 255
3 292 330 352 255 255 255
3 48 65 316 255 255 255
3 238 49 183 255 255 255
3 296 49 238 255 255 255
3 183 49 296 255 255 255
3 305 115 183 255 255 255
3 313 198 68 255 255 255
3 57 163 179 255 255 255
3 132 170 47 255 255 255
3 23 196 132 255 255 255
3 232 352 204 255 255 255
3 161 112 58 255 255 255
3 58 229 161 255 255 255
3 184 227 61 255 255 255
3 61 317 184 255 255 255
3 233 18 220 255 255 255
3 233 95 208 255 255 255
3 208 254 233 255 255 255
3 228 205 204 255 255 255
3 48 296 65 255 255 255
3 49 25 238 255 255 255
3 198 280 68 255 255 255
3 179 219 57 255 255 255
3 209 294 179 255 255 255
3 170 119 47 255 255 255
3 47 351 132 255 255 255
3 351 185 132 255 255 255
3 21 327 250 255 255 255
3 253 319 250 255 255 255
3 329 123 253 255 255 255
3 23 66 145 255 255 255
3 329 253 196 255 255 255
3 112 94 58 255 255 255
3 229 60 161 255 255 255
3 58 71 229 255 255 255
3 203 95 335 255 255 255
3 203 76 156 255 255 255
3 317 318 184 255 255 255
3 61 38 317 255 255 255
3 254 130 233 255 255 255
3 254 318 130 255 255 255
3 204 22 291 255 255 255
3 205 259 204 255 255 255
3 228 310 205 255 255 255
3 352 140 310 255 255 255
3 65 296 316 255 255 255
3 238 199 49 255 255 255
3 25 234 238 255 255 255
3 49 199 234 255 255 255
3 33 196 351 255 255 255
3 351 1 33 255 255 255
3 182 195 54 255 255 255
3 54 194 182 255 255 255
3 23 119 66 255 255 255
3 185 132 196 255 255 255
3 1 351 196 255 255 255
3 112 330 94 255 255 255
3 95 76 335 255 255 255
3 76 326 156 255 255 255
3 203 353 76 255 255 255
3 325 155 95 255 255 255
3 95 203 325 255 255 255
3 306 30 130 255 255 255
3 318 306 130 255 255 255
3 22 186 291 255 255 255
3 140 116 310 255 255 255
3 316 183 115 255 255 255
3 296 183 316 255 255 255
3 234 302 49 255 255 255
3 179 294 219 255 255 255
3 119 303 47 255 255 255
3 1 327 33 255 255 255
3 54 88 194 255 255 255
3 330 19 94 255 255 255
3 71 262 229 255 255 255
3 203 70 353 255 255 255
3 326 328 156 255 255 255
3 76 187 326 255 255 255
3 203 328 325 255 255 255
3 306 317 30 255 255 255
3 259 301 204 255 255 255
3 140 152 116 255 255 255
3 49 302 25 255 255 255
3 234 139 302 255 255 255
3 57 294 209 255 255 255
3 327 323 33 255 255 255
3 329 33 123 255 255 255
3 329 322 196 255 255 255
3 192 335 353 255 255 255
3 132 196 24 255 255 255
3 24 145 132 255 255 255
3 335 76 353 255 255 255
3 328 155 156 255 255 255
3 325 324 155 255 255 255
3 205 311 259 255 255 255
3 205 276 168 255 255 255
3 310 116 205 255 255 255
3 116 276 205 255 255 255
3 152 341 116 255 255 255
3 140 148 90 255 255 255
3 234 62 139 255 255 255
3 25 62 234 255 255 255
3 139 199 302 255 255 255
3 198 110 280 255 255 255
3 95 155 187 255 255 255
3 18 30 220 255 255 255
3 155 324 156 255 255 255
3 325 73 324 255 255 255
3 301 264 154 255 255 255
3 259 264 301 255 255 255
3 259 311 264 255 255 255
3 311 168 264 255 255 255
3 116 300 276 255 255 255
3 152 13 341 255 255 255
3 300 152 140 255 255 255
3 90 300 140 255 255 255
3 302 62 25 255 255 255
3 199 62 302 255 255 255
3 209 136 163 255 255 255
3 57 209 163 255 255 255
3 219 294 57 255 255 255
3 303 66 47 255 255 255
3 323 319 123 255 255 255
3 323 123 33 255 255 255
3 155 339 324 255 255 255
3 324 343 155 255 255 255
3 276 300 168 255 255 255
3 300 157 276 255 255 255
3 116 338 300 255 255 255
3 152 10 13 255 255 255
3 300 338 152 255 255 255
3 199 139 62 255 255 255
3 116 341 338 255 255 255
3 13 10 341 255 255 255
3 338 211 152 255 255 255
3 300 12 338 255 255 255
3 339 320 324 255 255 255
3 338 341 342 255 255 255
3 338 152 341 255 255 255
3 340 339 155 255 255 255
3 300 90 311 255 255 255
3 341 344 342 255 255 255
3 340 321 339 255 255 255
3 339 340 320 255 255 255
3 341 149 344 255 255 255
3 341 102 336 255 255 255
3 339 206 340 255 255 255
3 342 344 157 255 255 255
3 343 73 320 255 255 255
3 339 321 206 255 255 255
3 344 77 157 255 255 255
3 344 103 77 255 255 255
3 345 127 149 255 255 255
3 341 251 102 255 255 255
3 340 324 320 255 255 255
3 149 188 344 255 255 255
3 127 188 149 255 255 255
3 336 52 39 255 255 255
3 102 5 336 255 255 255
3 128 52 336 255 255 255
3 39 128 336 255 255 255
3 52 128 39 255 255 255
3 52 129 225 255 255 255
3 345 331 127 255 255 255
3 39 181 128 255 255 255
3 129 85 225 255 255 255
3 103 190 77 255 255 255
3 345 29 331 255 255 255
3 345 188 29 255 255 255
3 149 85 345 255 255 255
3 85 104 225 255 255 255
3 127 331 29 255 255 255
3 102 75 5 255 255 255
3 29 188 127 255 255 255
3 29 223 202 255 255 255
3 29 346 223 255 255 255
3 331 346 29 255 255 255
3 331 105 346 255 255 255
3 331 169 105 255 255 255
3 202 331 29 255 255 255
3 85 188 345 255 255 255
3 85 252 188 255 255 255
3 341 336 52 255 255 255
3 52 149 341 255 255 255
3 181 100 128 255 255 255
3 5 6 39 255 255 255
3 75 6 5 255 255 255
3 104 85 244 255 255 255
3 331 202 188 255 255 255
3 85 96 252 255 255 255
3 39 6 181 255 255 255
3 102 201 75 255 255 255
3 102 99 201 255 255 255
3 252 212 188 255 255 255
3 181 6 100 255 255 255
3 213 225 104 255 255 255
3 104 125 213 255 255 255
3 85 188 244 255 255 255
3 346 216 223 255 255 255
3 105 347 346 255 255 255
3 105 216 347 255 255 255
3 129 124 85 255 255 255
3 242 247 104 255 255 255
3 104 11 242 255 255 255
3 169 202 223 255 255 255
3 216 248 223 255 255 255
3 216 257 347 255 255 255
3 169 50 105 255 255 255
3 169 223 50 255 255 255
3 252 17 212 255 255 255
3 96 126 252 255 255 255
3 96 9 126 255 255 255
3 243 312 75 255 255 255
3 99 247 201 255 255 255
3 247 125 104 255 255 255
3 247 189 125 255 255 255
3 11 99 242 255 255 255
3 104 4 11 255 255 255
3 244 121 104 255 255 255
3 244 97 121 255 255 255
3 169 246 202 255 255 255
3 216 346 295 255 255 255
3 346 257 295 255 255 255
3 223 248 50 255 255 255
3 212 344 188 255 255 255
3 9 222 126 255 255 255
3 96 213 9 255 255 255
3 247 243 201 255 255 255
3 97 4 99 255 255 255
3 99 308 97 255 255 255
3 125 312 158 255 255 255
3 97 104 121 255 255 255
3 77 160 244 255 255 255
3 244 212 77 255 255 255
3 248 216 50 255 255 255
3 222 98 126 255 255 255
3 9 125 222 255 255 255
3 129 124 224 255 255 255
3 100 224 128 255 255 255
3 6 224 100 255 255 255
3 312 158 75 255 255 255
3 99 251 308 255 255 255
3 212 210 77 255 255 255
3 245 216 248 255 255 255
3 212 282 210 255 255 255
3 17 282 212 255 255 255
3 222 242 98 255 255 255
3 224 124 128 255 255 255
3 158 222 6 255 255 255
3 4 98 99 255 255 255
3 251 153 308 255 255 255
3 346 31 257 255 255 255
3 347 31 346 255 255 255
3 282 4 210 255 255 255
3 242 91 98 255 255 255
3 224 40 72 255 255 255
3 6 222 224 255 255 255
3 158 125 222 255 255 255
3 4 16 215 255 255 255
3 153 8 308 255 255 255
3 214 40 125 255 255 255
3 77 210 160 255 255 255
3 210 282 7 255 255 255
3 4 215 210 255 255 255
3 72 124 224 255 255 255
3 222 214 224 255 255 255
3 4 282 16 255 255 255
3 210 7 160 255 255 255
3 7 190 160 255 255 255
3 159 53 283 255 255 255
3 282 160 7 255 255 255
3 8 244 308 255 255 255
3 153 12 8 255 255 255
3 7 103 190 255 255 255
3 283 43 159 255 255 255
3 4 122 215 255 255 255
3 16 210 215 255 255 255
3 8 341 244 255 255 255
3 153 211 12 255 255 255
3 153 10 74 255 255 255
3 122 17 215 255 255 255
3 153 74 211 255 255 255
3 159 43 53 255 255 255
3 347 257 31 255 255 255
3 283 53 43 255 255 255
3 332 86 32 255 255 255
3 32 277 332 255 255 255
3 86 297 32 255 255 255
3 277 86 332 255 255 255
3 277 207 86 255 255 255
3 32 297 277 255 255 255
3 297 207 277 255 255 255
3 278 255 86 255 255 255
3 255 89 86 255 255 255
3 278 200 255 255 255 255
3 87 86 207 255 255 255
3 255 297 89 255 255 255
3 200 307 255 255 255 255
3 255 307 92 255 255 255
3 307 180 92 255 255 255
3 154 298 87 255 255 255
3 87 301 154 255 255 255
3 255 92 200 255 255 255
3 298 89 87 255 255 255
3 264 298 154 255 255 255
3 87 207 301 255 255 255
3 264 255 298 255 255 255
3 255 264 297 255 255 255
3 180 200 92 255 255 255
3 278 298 255 255 255 255
3 264 207 297 255 255 255
3 264 301 207 255 255 255
3 207 309 264 255 255 255
3 101 59 288 255 255 255
3 288 59 120 255 255 255
3 120 59 101 255 255 255
3 120 101 288 255 255 255
3 348 348 348 255 255 255
