ply
format ascii 1.0
element vertex 309
property float x
property float y
property float z
element face 576
property list uchar int vertex_indices
property uchar red
property uchar green
property uchar blue
end_header
12.0489997863769531 -3.45300006866455078 -0.716000020503997803
12.1029996871948242 -3.48799991607666016 -0.688000023365020752
12.0329999923706055 -3.46099996566772461 -0.773999989032745361
12.0500001907348633 -3.43600010871887207 -0.75
12.0319995880126953 -3.45300006866455078 -0.746999979019165039
12.0299997329711914 -3.44700002670288086 -0.634000003337860107
12.0570001602172852 -3.48200011253356934 -0.709999978542327881
12.0679998397827148 -3.44499993324279785 -0.749000012874603271
12.0349998474121094 -3.46000003814697266 -0.778999984264373779
12.1210002899169922 -3.48600006103515625 -0.646000027656555176
12.1429996490478516 -3.49300003051757812 -0.646000027656555176
12.0810003280639648 -3.46700000762939453 -0.712999999523162842
12.0340003967285156 -3.45799994468688965 -0.734000027179718018
12.1420001983642578 -3.49300003051757812 -0.652000010013580322
12.0299997329711914 -3.46199989318847656 -0.560000002384185791
12.0500001907348633 -3.47399997711181641 -0.71799999475479126
12.1009998321533203 -3.50900006294250488 -0.667999982833862305
12.1000003814697266 -3.50799989700317383 -0.704999983310699463
12.0699996948242188 -3.48799991607666016 -0.736000001430511475
12.130000114440918 -3.49799990653991699 -0.686999976634979248
12.1370010375976562 -3.48403716087341309 -0.651019752025604248
12.069000244140625 -3.45399999618530273 -0.748000025749206543
12.0489997863769531 -3.47000002861022949 -0.718999981880187988
12.0550003051757812 -3.45199990272521973 -0.764999985694885254
12.0699996948242188 -3.47699999809265137 -0.718999981880187988
12.0769996643066406 -3.48300004005432129 -0.737999975681304932
12.1359996795654297 -3.49099993705749512 -0.658999979496002197
12.116999626159668 -3.5130000114440918 -0.635999977588653564
12.1040000915527344 -3.50799989700317383 -0.707000017166137695
12.1180000305175781 -3.49000000953674316 -0.643999993801116943
12.1429996490478516 -3.48600006103515625 -0.629999995231628418
12.1040000915527344 -3.49699997901916504 -0.669000029563903809
12.1079998016357422 -3.4869999885559082 -0.658999979496002197
12.133000373840332 -3.49300003051757812 -0.657999992370605469
12.0159997940063477 -3.44300007820129395 -0.589999973773956299
12.1129999160766602 -3.50999999046325684 -0.66100001335144043
12.125 -3.50600004196166992 -0.652000010013580322
12.114497184753418 -3.48411250114440918 -0.665417850017547607
12.0579996109008789 -3.45000004768371582 -0.554000020027160645
12.0489997863769531 -3.45099997520446777 -0.638999998569488525
12.0419998168945312 -3.44600009918212891 -0.760999977588653564
12.0951080322265625 -3.50189471244812012 -0.665959417819976807
12.0570001602172852 -3.46000003814697266 -0.746999979019165039
12.1149997711181641 -3.48300004005432129 -0.657999992370605469
12.0220003128051758 -3.43499994277954102 -0.583999991416931152
12.0150003433227539 -3.43499994277954102 -0.52499997615814209
12.0439996719360352 -3.43899989128112793 -0.587000012397766113
12.0366764068603516 -3.46329808235168457 -0.551048874855041504
12.0399999618530273 -3.43700003623962402 -0.620000004768371582
12.0570001602172852 -3.4570000171661377 -0.554000020027160645
12.0249996185302734 -3.4440000057220459 -0.639999985694885254
12.0719995498657227 -3.46600008010864258 -0.587000012397766113
12.0410003662109375 -3.44000005722045898 -0.639999985694885254
12.0260000228881836 -3.44899988174438477 -0.662999987602233887
12.0459995269775391 -3.46600008010864258 -0.758000016212463379
12.0399999618530273 -3.46199989318847656 -0.777000010013580322
12.0530004501342773 -3.44300007820129395 -0.56800001859664917
12.0249996185302734 -3.44199991226196289 -0.56800001859664917
12.0279998779296875 -3.43799996376037598 -0.56400001049041748
12.0270004272460938 -3.43700003623962402 -0.549000024795532227
12.0190000534057617 -3.45000004768371582 -0.563000023365020752
12.0240001678466797 -3.43899989128112793 -0.578999996185302734
12.0270004272460938 -3.43199992179870605 -0.578000009059906006
12.0340003967285156 -3.44199991226196289 -0.559000015258789062
12.0279998779296875 -3.46000003814697266 -0.566999971866607666
12.0329999923706055 -3.46499991416931152 -0.55699998140335083
12.0249996185302734 -3.46199989318847656 -0.573000013828277588
12.0369997024536133 -3.43600010871887207 -0.634000003337860107
12.0310001373291016 -3.45099997520446777 -0.657999992370605469
12.0590000152587891 -3.45300006866455078 -0.731000006198883057
12.1260004043579102 -3.49699997901916504 -0.671999990940093994
12.1180000305175781 -3.48600006103515625 -0.700999975204467773
12.0659999847412109 -3.46399998664855957 -0.578000009059906006
12.0489997863769531 -3.44300007820129395 -0.637000024318695068
12.1099996566772461 -3.5 -0.667999982833862305
12.0520000457763672 -3.44799995422363281 -0.56099998950958252
12.0240001678466797 -3.44099998474121094 -0.541000008583068848
12.0059995651245117 -3.4309999942779541 -0.493999987840652466
12.0190000534057617 -3.43700003623962402 -0.495000004768371582
12.0229997634887695 -3.43700003623962402 -0.549000024795532227
12.0089998245239258 -3.43799996376037598 -0.541000008583068848
12.005000114440918 -3.43899989128112793 -0.537999987602233887
12.0179996490478516 -3.44099998474121094 -0.544000029563903809
12.0190000534057617 -3.44199991226196289 -0.550000011920928955
12.0279998779296875 -3.43799996376037598 -0.587999999523162842
12.0249996185302734 -3.45600008964538574 -0.56800001859664917
12.0480003356933594 -3.44000005722045898 -0.644999980926513672
12.0399999618530273 -3.45300006866455078 -0.735000014305114746
12.0550003051757812 -3.4590001106262207 -0.730000019073486328
12.0489997863769531 -3.47000002861022949 -0.765999972820281982
12.1269998550415039 -3.48799991607666016 -0.624000012874603271
12.0819997787475586 -3.49799990653991699 -0.731000006198883057
12.0299997329711914 -3.43600010871887207 -0.527999997138977051
12.0909996032714844 -3.48600006103515625 -0.707000017166137695
12.1090002059936523 -3.51099991798400879 -0.657999992370605469
12.0360002517700195 -3.44799995422363281 -0.620999991893768311
12.0570001602172852 -3.4849998950958252 -0.716000020503997803
12.1049995422363281 -3.49000000953674316 -0.722999989986419678
12.0249996185302734 -3.43000006675720215 -0.493999987840652466
12.116999626159668 -3.48600006103515625 -0.679000020027160645
12.1210002899169922 -3.49900007247924805 -0.705999970436096191
12.0790004730224609 -3.47000002861022949 -0.708000004291534424
11.9820003509521484 -3.44300007820129395 -0.488000005483627319
11.9849996566772461 -3.44799995422363281 -0.488000005483627319
11.994999885559082 -3.44099998474121094 -0.477999985218048096
11.9980001449584961 -3.44899988174438477 -0.495000004768371582
11.9960002899169922 -3.45300006866455078 -0.495999991893768311
11.9940004348754883 -3.44000005722045898 -0.509999990463256836
12.0520000457763672 -3.47099995613098145 -0.760999977588653564
12.1070003509521484 -3.51099991798400879 -0.666999995708465576
12.1440000534057617 -3.49000000953674316 -0.629000008106231689
11.9899997711181641 -3.42899990081787109 -0.497999995946884155
12.0600004196166992 -3.46000003814697266 -0.637000024318695068
12.0369997024536133 -3.45499992370605469 -0.675999999046325684
12.0579996109008789 -3.46000003814697266 -0.709999978542327881
12.0979995727539062 -3.4849998950958252 -0.704999983310699463
12.0260000228881836 -3.45399999618530273 -0.754000008106231689
12.0399999618530273 -3.45099997520446777 -0.578999996185302734
12.064000129699707 -3.46000003814697266 -0.58899998664855957
12.0349998474121094 -3.44799995422363281 -0.587999999523162842
12.0190000534057617 -3.43600010871887207 -0.623000025749206543
12.0369997024536133 -3.44600009918212891 -0.593999981880187988
12.0279998779296875 -3.45000004768371582 -0.61799997091293335
12.0290002822875977 -3.42899990081787109 -0.584999978542327881
12.0179996490478516 -3.4440000057220459 -0.623000025749206543
11.9899997711181641 -3.43899989128112793 -0.495000004768371582
11.9960002899169922 -3.43400001525878906 -0.481000006198883057
11.9890003204345703 -3.44499993324279785 -0.48399999737739563
11.9870004653930664 -3.42700004577636719 -0.50700002908706665
11.991999626159668 -3.42300009727478027 -0.504999995231628418
11.9989995956420898 -3.4309999942779541 -0.504000008106231689
11.9910001754760742 -3.44600009918212891 -0.481000006198883057
11.994999885559082 -3.44499993324279785 -0.490000009536743164
11.9879999160766602 -3.45399999618530273 -0.495999991893768311
11.9889497756958008 -3.44617247581481934 -0.501979827880859375
12.0930004119873047 -3.49200010299682617 -0.730000019073486328
12.0349998474121094 -3.46600008010864258 -0.769999980926513672
12.1239995956420898 -3.48399996757507324 -0.640999972820281982
12.1239995956420898 -3.50600004196166992 -0.643000006675720215
12.0430002212524414 -3.45099997520446777 -0.671999990940093994
12.0979995727539062 -3.49499988555908203 -0.694999992847442627
12.1129999160766602 -3.49900007247924805 -0.700999975204467773
12.1319999694824219 -3.48300004005432129 -0.657999992370605469
12.0240001678466797 -3.44300007820129395 -0.602999985218048096
12.0340003967285156 -3.43600010871887207 -0.602999985218048096
12.0430002212524414 -3.44799995422363281 -0.569999992847442627
12.0229997634887695 -3.43400001525878906 -0.573000013828277588
12.0229997634887695 -3.44499993324279785 -0.606000006198883057
12.0340003967285156 -3.46499991416931152 -0.569999992847442627
12.0340003967285156 -3.44700002670288086 -0.609000027179718018
12.0439996719360352 -3.44799995422363281 -0.609000027179718018
12.0419998168945312 -3.45399999618530273 -0.63200002908706665
12.0699996948242188 -3.46700000762939453 -0.589999973773956299
12.0299997329711914 -3.44600009918212891 -0.751999974250793457
12.1149997711181641 -3.48600006103515625 -0.670000016689300537
12.0869998931884766 -3.4719998836517334 -0.707000017166137695
12.0480003356933594 -3.45099997520446777 -0.587999999523162842
12.0670003890991211 -3.46199989318847656 -0.709999978542327881
12.0319995880126953 -3.44000005722045898 -0.635999977588653564
12.1269006729125977 -3.51320505142211914 -0.641065895557403564
12.0430002212524414 -3.46300005912780762 -0.657999992370605469
12.0989999771118164 -3.49600005149841309 -0.690999984741210938
12.1110000610351562 -3.49900007247924805 -0.712000012397766113
12.0419998168945312 -3.43899989128112793 -0.686999976634979248
12.0530004501342773 -3.45499992370605469 -0.597999989986419678
12.0830001831054688 -3.4719998836517334 -0.732999980449676514
12.0089998245239258 -3.44499993324279785 -0.505999982357025146
12.0030002593994141 -3.45000004768371582 -0.513999998569488525
12.0109996795654297 -3.45399999618530273 -0.505999982357025146
12.0109996795654297 -3.45000004768371582 -0.5
12.008000373840332 -3.45799994468688965 -0.499000012874603271
12.0069999694824219 -3.43700003623962402 -0.515999972820281982
12.0069999694824219 -3.44000005722045898 -0.531000018119812012
12.0129995346069336 -3.43400001525878906 -0.499000012874603271
12.0109996795654297 -3.43499994277954102 -0.533999979496002197
12.0159997940063477 -3.44000005722045898 -0.497999995946884155
12.0179977416992188 -3.4270012378692627 -0.49699634313583374
12.0530004501342773 -3.44899988174438477 -0.68199998140335083
12.0691633224487305 -3.49622368812561035 -0.727770805358886719
12.0570001602172852 -3.46000003814697266 -0.760999977588653564
12.1389999389648438 -3.49099993705749512 -0.644999980926513672
12.0279998779296875 -3.46099996566772461 -0.550000011920928955
12.055999755859375 -3.4590001106262207 -0.634000003337860107
12.0719995498657227 -3.48000001907348633 -0.726000010967254639
12.1024999618530273 -3.50900006294250488 -0.682000041007995605
12.1129293441772461 -3.5136568546295166 -0.651006579399108887
12.0620002746582031 -3.4440000057220459 -0.740999996662139893
12.0210800170898438 -3.44192743301391602 -0.657685697078704834
12.0310001373291016 -3.45300006866455078 -0.670000016689300537
12.0380001068115234 -3.45499992370605469 -0.762000024318695068
12.0819997787475586 -3.49600005149841309 -0.712000012397766113
12.0270004272460938 -3.43799996376037598 -0.671999990940093994
12.0500001907348633 -3.46000003814697266 -0.708000004291534424
12.1289997100830078 -3.49699997901916504 -0.665000021457672119
12.0710000991821289 -3.46799993515014648 -0.71399998664855957
12.1080036163330078 -3.50702881813049316 -0.680989921092987061
12.1079998016357422 -3.50200009346008301 -0.702000021934509277
12 -3.42600011825561523 -0.495000004768371582
12.0459995269775391 -3.45300006866455078 -0.633000016212463379
12.0579996109008789 -3.46099996566772461 -0.750999987125396729
12.0279998779296875 -3.44000005722045898 -0.652000010013580322
12.0769996643066406 -3.49600005149841309 -0.709999978542327881
12.0229997634887695 -3.45499992370605469 -0.75
12.0530004501342773 -3.46700000762939453 -0.716000020503997803
12.0260000228881836 -3.45499992370605469 -0.56400001049041748
12.0450000762939453 -3.44300007820129395 -0.646000027656555176
12.1020002365112305 -3.48600006103515625 -0.712999999523162842
12.0319995880126953 -3.43000006675720215 -0.575999975204467773
12.0159997940063477 -3.43799996376037598 -0.592000007629394531
12.0570001602172852 -3.4440000057220459 -0.565999984741210938
12.0200004577636719 -3.44300007820129395 -0.611999988555908203
12.0244998931884766 -3.44099998474121094 -0.558500051498413086
12.0190000534057617 -3.43600010871887207 -0.582000017166137695
12.045933723449707 -3.46392107009887695 -0.573070049285888672
12.0749998092651367 -3.46700000762939453 -0.578999996185302734
12.0660181045532227 -3.46697902679443359 -0.575046062469482422
12.0500001907348633 -3.45199990272521973 -0.595000028610229492
12.0979995727539062 -3.50699996948242188 -0.685000002384185791
12.1020002365112305 -3.50900006294250488 -0.694999992847442627
12.0500001907348633 -3.44799995422363281 -0.763000011444091797
12.119999885559082 -3.51399993896484375 -0.652000010013580322
12.0019998550415039 -3.44099998474121094 -0.513000011444091797
12.130000114440918 -3.48300004005432129 -0.635999977588653564
12.0319995880126953 -3.45199990272521973 -0.640999972820281982
12.0530004501342773 -3.46199989318847656 -0.637000024318695068
12.0550003051757812 -3.43400001525878906 -0.748000025749206543
12.0329999923706055 -3.4590001106262207 -0.755999982357025146
12.0200004577636719 -3.4440000057220459 -0.528999984264373779
12.0360002517700195 -3.46000003814697266 -0.544000029563903809
11.9870004653930664 -3.44300007820129395 -0.486999988555908203
12.0410003662109375 -3.43899989128112793 -0.680000007152557373
12.1090002059936523 -3.50799989700317383 -0.688000023365020752
12.0699996948242188 -3.44199991226196289 -0.748000025749206543
12.0839996337890625 -3.48600006103515625 -0.700999975204467773
12.0430002212524414 -3.43700003623962402 -0.591000020503997803
12.0450000762939453 -3.44199991226196289 -0.615000009536743164
12.0710000991821289 -3.44899988174438477 -0.745999991893768311
12.1219997406005859 -3.48399996757507324 -0.689999997615814209
12.1280002593994141 -3.49000000953674316 -0.676999986171722412
12.1230001449584961 -3.48799991607666016 -0.69300001859664917
12.1400003433227539 -3.49600005149841309 -0.629000008106231689
12.1210002899169922 -3.48200011253356934 -0.662000000476837158
12.1269998550415039 -3.49499988555908203 -0.698000013828277588
12.1049995422363281 -3.48600006103515625 -0.690999984741210938
12.1400003433227539 -3.49399995803833008 -0.638000011444091797
12.0369997024536133 -3.45399999618530273 -0.643999993801116943
12.1289997100830078 -3.49000000953674316 -0.686999976634979248
12.1070003509521484 -3.50300002098083496 -0.660000026226043701
12.0480003356933594 -3.46499991416931152 -0.665000021457672119
12.0520172119140625 -3.45604228973388672 -0.704020798206329346
12.1280002593994141 -3.48900008201599121 -0.665000021457672119
12.0520000457763672 -3.46499991416931152 -0.669000029563903809
12.0539999008178711 -3.46600008010864258 -0.764999985694885254
12.1269998550415039 -3.49399995803833008 -0.634000003337860107
12.0209999084472656 -3.43499994277954102 -0.513999998569488525
12.0670003890991211 -3.48200011253356934 -0.707000017166137695
12.1219997406005859 -3.48799991607666016 -0.677999973297119141
12.130000114440918 -3.49000000953674316 -0.66100001335144043
12.0190000534057617 -3.44199991226196289 -0.53200000524520874
12.1120004653930664 -3.50099992752075195 -0.68900001049041748
12.0659999847412109 -3.47000002861022949 -0.711000025272369385
12.0959997177124023 -3.50200009346008301 -0.671999990940093994
12.0530004501342773 -3.46700000762939453 -0.745999991893768311
12.0900001525878906 -3.49399995803833008 -0.732999980449676514
12.0380001068115234 -3.45600008964538574 -0.65700000524520874
12.0810003280639648 -3.49600005149841309 -0.716000020503997803
12.1230001449584961 -3.49300003051757812 -0.705999970436096191
12.064000129699707 -3.46300005912780762 -0.584999978542327881
12.130000114440918 -3.49799990653991699 -0.635999977588653564
12.0475006103515625 -3.44299983978271484 -0.746500015258789062
12.0290002822875977 -3.46700000762939453 -0.776000022888183594
12.0399999618530273 -3.44300007820129395 -0.68599998950958252
12.1180000305175781 -3.4849998950958252 -0.685000002384185791
12.0389995574951172 -3.46000003814697266 -0.754000008106231689
12.0389995574951172 -3.43899989128112793 -0.665000021457672119
12.1110000610351562 -3.50200009346008301 -0.708000004291534424
12.0209999084472656 -3.43700003623962402 -0.519999980926513672
12.0229997634887695 -3.44199991226196289 -0.584999978542327881
12.0380001068115234 -3.43899989128112793 -0.601000010967254639
12.060999870300293 -3.44899988174438477 -0.584999978542327881
12.060999870300293 -3.44300007820129395 -0.56099998950958252
12.0469999313354492 -3.44700002670288086 -0.611000001430511475
12.0579996109008789 -3.44899988174438477 -0.587999999523162842
12.0530004501342773 -3.44600009918212891 -0.596000015735626221
12.0530004501342773 -3.44899988174438477 -0.583000004291534424
12.0170001983642578 -3.43600010871887207 -0.522000014781951904
12.0310001373291016 -3.44000005722045898 -0.528999984264373779
12.0260000228881836 -3.44199991226196289 -0.551999986171722412
1 1 1
12.0889997482299805 -3.48799991607666016 -0.736999988555908203
12.0310001373291016 -3.45099997520446777 -0.647000014781951904
12.0249996185302734 -3.43700003623962402 -0.653999984264373779
12.0539999008178711 -3.44600009918212891 -0.736000001430511475
12.1350002288818359 -3.49200010299682617 -0.624000012874603271
12.0860004425048828 -3.48099994659423828 -0.702000021934509277
12.0848226547241211 -3.47471761703491211 -0.739113688468933105
12.0290002822875977 -3.46600008010864258 -0.781000018119812012
12.0260000228881836 -3.44600009918212891 -0.675000011920928955
12.0959997177124023 -3.48799991607666016 -0.694000005722045898
12.060999870300293 -3.47499990463256836 -0.71799999475479126
12.0439996719360352 -3.43400001525878906 -0.666999995708465576
12.0109996795654297 -3.42899990081787109 -0.531000018119812012
12.1289997100830078 -3.50300002098083496 -0.643999993801116943
12.0550003051757812 -3.45099997520446777 -0.591000020503997803
12.0937433242797852 -3.47644543647766113 -0.722582221031188965
12.0749998092651367 -3.47699999809265137 -0.728999972343444824
12.0989999771118164 -3.50300002098083496 -0.688000023365020752
12.1230001449584961 -3.49600005149841309 -0.679000020027160645
12.0538568496704102 -3.45440530776977539 -0.723998546600341797
3 168 78 169 255 255 255
3 169 170 168 255 255 255
3 168 166 78 255 255 255
3 170 167 168 255 255 255
3 169 105 170 255 255 255
3 166 171 78 255 255 255
3 168 171 166 255 255 255
3 168 167 171 255 255 255
3 167 172 171 255 255 255
3 170 106 167 255 255 255
3 105 106 170 255 255 255
3 105 131 106 255 255 255
3 169 132 105 255 255 255
3 171 173 78 255 255 255
3 172 174 171 255 255 255
3 106 134 167 255 255 255
3 131 133 106 255 255 255
3 105 132 131 255 255 255
3 132 104 131 255 255 255
3 169 175 132 255 255 255
3 173 176 78 255 255 255
3 171 176 173 255 255 255
3 174 301 171 255 255 255
3 172 76 174 255 255 255
3 106 133 134 255 255 255
3 133 102 134 255 255 255
3 131 103 133 255 255 255
3 132 77 104 255 255 255
3 175 78 132 255 255 255
3 176 98 78 255 255 255
3 174 76 301 255 255 255
3 76 79 301 255 255 255
3 134 107 167 255 255 255
3 102 125 134 255 255 255
3 133 103 102 255 255 255
3 103 131 102 255 255 255
3 131 104 102 255 255 255
3 104 126 102 255 255 255
3 77 126 104 255 255 255
3 77 197 126 255 255 255
3 132 130 77 255 255 255
3 78 126 132 255 255 255
3 79 80 301 255 255 255
3 107 221 167 255 255 255
3 134 128 107 255 255 255
3 125 111 134 255 255 255
3 102 111 125 255 255 255
3 126 111 102 255 255 255
3 77 176 197 255 255 255
3 132 134 130 255 255 255
3 126 127 132 255 255 255
3 80 81 301 255 255 255
3 79 83 80 255 255 255
3 107 171 221 255 255 255
3 176 129 197 255 255 255
3 77 98 176 255 255 255
3 132 127 134 255 255 255
3 127 229 134 255 255 255
3 81 172 301 255 255 255
3 80 82 81 255 255 255
3 79 211 83 255 255 255
3 107 128 171 255 255 255
3 128 129 171 255 255 255
3 129 111 197 255 255 255
3 82 258 81 255 255 255
3 80 83 82 255 255 255
3 83 76 82 255 255 255
3 79 58 211 255 255 255
3 129 130 171 255 255 255
3 129 128 111 255 255 255
3 82 227 258 255 255 255
3 76 227 82 255 255 255
3 76 286 227 255 255 255
3 83 287 76 255 255 255
3 211 60 83 255 255 255
3 79 59 58 255 255 255
3 130 254 171 255 255 255
3 286 276 227 255 255 255
3 76 59 286 255 255 255
3 287 63 76 255 255 255
3 83 204 287 255 255 255
3 211 57 60 255 255 255
3 57 61 60 255 255 255
3 211 58 57 255 255 255
3 58 62 57 255 255 255
3 59 63 58 255 255 255
3 286 254 276 255 255 255
3 59 92 286 255 255 255
3 83 60 204 255 255 255
3 60 64 204 255 255 255
3 61 277 60 255 255 255
3 57 62 61 255 255 255
3 62 44 61 255 255 255
3 58 207 62 255 255 255
3 63 145 58 255 255 255
3 286 92 254 255 255 255
3 59 79 92 255 255 255
3 79 45 92 255 255 255
3 64 181 204 255 255 255
3 60 85 64 255 255 255
3 277 66 60 255 255 255
3 61 208 277 255 255 255
3 44 34 61 255 255 255
3 62 123 44 255 255 255
3 207 123 62 255 255 255
3 207 234 123 255 255 255
3 145 146 58 255 255 255
3 63 209 145 255 255 255
3 45 285 92 255 255 255
3 79 81 45 255 255 255
3 64 65 181 255 255 255
3 85 66 64 255 255 255
3 277 119 66 255 255 255
3 208 143 277 255 255 255
3 44 208 34 255 255 255
3 234 144 123 255 255 255
3 207 46 234 255 255 255
3 146 60 58 255 255 255
3 145 84 146 255 255 255
3 209 284 145 255 255 255
3 63 75 209 255 255 255
3 285 276 92 255 255 255
3 79 287 81 255 255 255
3 65 47 181 255 255 255
3 66 14 64 255 255 255
3 119 148 66 255 255 255
3 277 143 119 255 255 255
3 143 147 119 255 255 255
3 208 147 143 255 255 255
3 208 210 147 255 255 255
3 44 123 208 255 255 255
3 123 144 208 255 255 255
3 144 210 208 255 255 255
3 144 120 210 255 255 255
3 234 278 144 255 255 255
3 46 283 234 255 255 255
3 207 145 46 255 255 255
3 146 212 60 255 255 255
3 84 212 146 255 255 255
3 84 208 212 255 255 255
3 145 117 84 255 255 255
3 209 279 284 255 255 255
3 75 280 209 255 255 255
3 63 38 75 255 255 255
3 47 228 181 255 255 255
3 66 148 14 255 255 255
3 148 65 14 255 255 255
3 119 117 148 255 255 255
3 147 121 119 255 255 255
3 210 122 147 255 255 255
3 120 124 210 255 255 255
3 144 48 120 255 255 255
3 278 235 144 255 255 255
3 234 283 278 255 255 255
3 283 235 278 255 255 255
3 283 281 235 255 255 255
3 46 282 283 255 255 255
3 145 284 46 255 255 255
3 284 279 46 255 255 255
3 279 282 46 255 255 255
3 279 118 282 255 255 255
3 212 34 60 255 255 255
3 117 119 84 255 255 255
3 119 121 84 255 255 255
3 121 144 84 255 255 255
3 145 56 117 255 255 255
3 209 280 279 255 255 255
3 280 72 279 255 255 255
3 75 38 280 255 255 255
3 47 49 228 255 255 255
3 47 213 49 255 255 255
3 65 148 47 255 255 255
3 148 213 47 255 255 255
3 117 213 148 255 255 255
3 117 156 213 255 255 255
3 147 149 121 255 255 255
3 122 149 147 255 255 255
3 122 150 149 255 255 255
3 210 124 122 255 255 255
3 124 5 122 255 255 255
3 120 50 124 255 255 255
3 48 67 120 255 255 255
3 281 151 235 255 255 255
3 283 164 281 255 255 255
3 282 118 283 255 255 255
3 118 164 283 255 255 255
3 118 152 164 255 255 255
3 279 51 118 255 255 255
3 121 281 144 255 255 255
3 56 156 117 255 255 255
3 56 279 156 255 255 255
3 72 214 279 255 255 255
3 280 215 72 255 255 255
3 49 38 228 255 255 255
3 213 215 49 255 255 255
3 156 164 213 255 255 255
3 149 216 121 255 255 255
3 150 216 149 255 255 255
3 122 95 150 255 255 255
3 5 223 122 255 255 255
3 124 50 5 255 255 255
3 50 223 5 255 255 255
3 50 290 223 255 255 255
3 120 158 50 255 255 255
3 67 158 120 255 255 255
3 67 200 158 255 255 255
3 48 73 67 255 255 255
3 151 52 235 255 255 255
3 281 150 151 255 255 255
3 118 51 152 255 255 255
3 51 214 152 255 255 255
3 121 156 281 255 255 255
3 279 303 156 255 255 255
3 214 51 279 255 255 255
3 215 214 72 255 255 255
3 280 49 215 255 255 255
3 49 280 38 255 255 255
3 213 267 215 255 255 255
3 164 267 213 255 255 255
3 164 152 267 255 255 255
3 152 215 267 255 255 255
3 152 214 215 255 255 255
3 156 216 164 255 255 255
3 95 151 150 255 255 255
3 95 122 151 255 255 255
3 122 223 151 255 255 255
3 223 245 151 255 255 255
3 290 245 223 255 255 255
3 290 264 245 255 255 255
3 50 187 290 255 255 255
3 158 291 50 255 255 255
3 67 52 200 255 255 255
3 73 86 67 255 255 255
3 48 235 73 255 255 255
3 151 205 52 255 255 255
3 279 164 303 255 255 255
3 216 150 164 255 255 255
3 156 121 216 255 255 255
3 245 224 151 255 255 255
3 264 160 245 255 255 255
3 290 68 264 255 255 255
3 187 53 290 255 255 255
3 50 291 187 255 255 255
3 291 191 187 255 255 255
3 52 86 200 255 255 255
3 73 112 86 255 255 255
3 151 224 205 255 255 255
3 224 160 205 255 255 255
3 160 224 245 255 255 255
3 264 188 160 255 255 255
3 68 188 264 255 255 255
3 68 53 188 255 255 255
3 53 68 290 255 255 255
3 191 297 187 255 255 255
3 291 300 191 255 255 255
3 86 274 200 255 255 255
3 52 67 86 255 255 255
3 73 182 112 255 255 255
3 160 248 205 255 255 255
3 188 248 160 255 255 255
3 188 113 248 255 255 255
3 53 297 188 255 255 255
3 297 53 187 255 255 255
3 191 230 297 255 255 255
3 300 230 191 255 255 255
3 300 177 230 255 255 255
3 291 200 300 255 255 255
3 73 198 182 255 255 255
3 248 139 205 255 255 255
3 113 251 248 255 255 255
3 188 297 113 255 255 255
3 297 271 113 255 255 255
3 177 163 230 255 255 255
3 73 158 198 255 255 255
3 139 86 205 255 255 255
3 248 251 139 255 255 255
3 251 177 139 255 255 255
3 297 163 271 255 255 255
3 177 249 163 255 255 255
3 73 52 158 255 255 255
3 86 39 205 255 255 255
3 139 300 86 255 255 255
3 297 230 163 255 255 255
3 249 0 163 255 255 255
3 39 198 205 255 255 255
3 86 112 39 255 255 255
3 39 182 198 255 255 255
3 39 112 182 255 255 255
3 249 308 0 255 255 255
3 249 157 308 255 255 255
3 157 69 308 255 255 255
3 249 260 157 255 255 255
3 308 292 0 255 255 255
3 69 292 308 255 255 255
3 69 186 292 255 255 255
3 157 194 69 255 255 255
3 260 101 157 255 255 255
3 249 6 260 255 255 255
3 292 87 0 255 255 255
3 186 225 292 255 255 255
3 69 236 186 255 255 255
3 194 11 69 255 255 255
3 157 11 194 255 255 255
3 101 11 157 255 255 255
3 101 155 11 255 255 255
3 260 255 101 255 255 255
3 6 255 260 255 255 255
3 6 201 255 255 255 255
3 249 192 6 255 255 255
3 87 12 0 255 255 255
3 292 269 87 255 255 255
3 225 269 292 255 255 255
3 225 3 269 255 255 255
3 186 232 225 255 255 255
3 236 232 186 255 255 255
3 69 21 236 255 255 255
3 155 304 11 255 255 255
3 101 294 155 255 255 255
3 255 294 101 255 255 255
3 255 233 294 255 255 255
3 201 233 255 255 255 255
3 201 140 233 255 255 255
3 6 96 201 255 255 255
3 192 15 6 255 255 255
3 12 22 0 255 255 255
3 87 4 12 255 255 255
3 3 153 269 255 255 255
3 21 7 236 255 255 255
3 69 88 21 255 255 255
3 304 165 11 255 255 255
3 294 298 155 255 255 255
3 233 298 294 255 255 255
3 233 161 298 255 255 255
3 201 306 140 255 255 255
3 96 178 201 255 255 255
3 6 15 96 255 255 255
3 192 22 15 255 255 255
3 22 192 0 255 255 255
3 4 202 12 255 255 255
3 87 153 4 255 255 255
3 153 87 269 255 255 255
3 3 40 153 255 255 255
3 7 232 236 255 255 255
3 7 225 232 255 255 255
3 7 219 225 255 255 255
3 21 23 7 255 255 255
3 88 42 21 255 255 255
3 69 203 88 255 255 255
3 165 305 11 255 255 255
3 155 115 304 255 255 255
3 298 243 155 255 255 255
3 161 1 298 255 255 255
3 233 306 161 255 255 255
3 178 265 201 255 255 255
3 22 88 15 255 255 255
3 4 153 202 255 255 255
3 153 116 202 255 255 255
3 40 189 153 255 255 255
3 3 219 40 255 255 255
3 219 3 225 255 255 255
3 7 23 219 255 255 255
3 23 189 219 255 255 255
3 21 179 23 255 255 255
3 42 199 21 255 255 255
3 88 262 42 255 255 255
3 203 15 88 255 255 255
3 203 96 15 255 255 255
3 203 114 96 255 255 255
3 69 0 203 255 255 255
3 305 24 11 255 255 255
3 165 295 305 255 255 255
3 304 295 165 255 255 255
3 115 206 304 255 255 255
3 115 162 206 255 255 255
3 298 1 243 255 255 255
3 1 99 243 255 255 255
3 306 1 161 255 255 255
3 306 217 1 255 255 255
3 265 190 201 255 255 255
3 178 91 265 255 255 255
3 178 18 91 255 255 255
3 96 18 178 255 255 255
3 96 299 18 255 255 255
3 116 226 202 255 255 255
3 189 116 153 255 255 255
3 189 2 116 255 255 255
3 189 40 219 255 255 255
3 23 89 189 255 255 255
3 179 252 23 255 255 255
3 21 199 179 255 255 255
3 199 108 179 255 255 255
3 42 262 199 255 255 255
3 262 108 199 255 255 255
3 262 54 108 255 255 255
3 88 22 262 255 255 255
3 24 299 11 255 255 255
3 295 25 305 255 255 255
3 295 289 25 255 255 255
3 289 295 304 255 255 255
3 304 97 289 255 255 255
3 206 97 304 255 255 255
3 206 162 97 255 255 255
3 115 196 162 255 255 255
3 99 272 243 255 255 255
3 1 154 99 255 255 255
3 217 195 1 255 255 255
3 306 218 217 255 255 255
3 265 135 190 255 255 255
3 91 135 265 255 255 255
3 91 263 135 255 255 255
3 18 25 91 255 255 255
3 299 183 18 255 255 255
3 96 22 299 255 255 255
3 226 12 202 255 255 255
3 226 273 12 255 255 255
3 116 136 226 255 255 255
3 2 270 116 255 255 255
3 189 8 2 255 255 255
3 89 270 189 255 255 255
3 23 252 89 255 255 255
3 252 108 89 255 255 255
3 108 252 179 255 255 255
3 54 89 108 255 255 255
3 54 136 89 255 255 255
3 262 273 54 255 255 255
3 299 203 11 255 255 255
3 24 305 299 255 255 255
3 25 18 305 255 255 255
3 18 183 305 255 255 255
3 289 91 25 255 255 255
3 289 263 91 255 255 255
3 289 135 263 255 255 255
3 289 97 135 255 255 255
3 97 162 135 255 255 255
3 162 17 135 255 255 255
3 196 275 162 255 255 255
3 115 140 196 255 255 255
3 272 237 243 255 255 255
3 99 256 272 255 255 255
3 154 37 99 255 255 255
3 1 37 154 255 255 255
3 195 259 1 255 255 255
3 218 184 217 255 255 255
3 306 17 218 255 255 255
3 135 93 190 255 255 255
3 299 305 183 255 255 255
3 273 262 12 255 255 255
3 226 54 273 255 255 255
3 136 54 226 255 255 255
3 2 296 270 255 255 255
3 8 296 2 255 255 255
3 189 55 8 255 255 255
3 136 55 89 255 255 255
3 162 275 17 255 255 255
3 275 218 17 255 255 255
3 275 196 218 255 255 255
3 196 231 218 255 255 255
3 115 233 140 255 255 255
3 115 155 233 255 255 255
3 237 71 243 255 255 255
3 272 256 237 255 255 255
3 256 238 237 255 255 255
3 99 241 256 255 255 255
3 37 241 99 255 255 255
3 37 43 241 255 255 255
3 195 231 259 255 255 255
3 217 109 195 255 255 255
3 93 140 190 255 255 255
3 55 296 8 255 255 255
3 231 184 218 255 255 255
3 231 195 184 255 255 255
3 195 109 184 255 255 255
3 109 16 184 255 255 255
3 196 141 231 255 255 255
3 237 239 71 255 255 255
3 238 246 237 255 255 255
3 256 250 238 255 255 255
3 43 9 241 255 255 255
3 37 32 43 255 255 255
3 231 141 259 255 255 255
3 141 239 259 255 255 255
3 184 16 217 255 255 255
3 16 261 217 255 255 255
3 93 243 140 255 255 255
3 109 94 16 255 255 255
3 196 28 141 255 255 255
3 239 266 71 255 255 255
3 237 246 239 255 255 255
3 246 242 239 255 255 255
3 238 19 246 255 255 255
3 250 26 238 255 255 255
3 256 37 250 255 255 255
3 9 137 241 255 255 255
3 43 29 9 255 255 255
3 32 29 43 255 255 255
3 32 247 29 255 255 255
3 239 307 259 255 255 255
3 16 41 261 255 255 255
3 243 259 140 255 255 255
3 93 155 243 255 255 255
3 94 41 16 255 255 255
3 109 35 94 255 255 255
3 28 266 141 255 255 255
3 246 19 242 255 255 255
3 19 100 242 255 255 255
3 238 193 19 255 255 255
3 250 20 26 255 255 255
3 37 257 250 255 255 255
3 256 31 37 255 255 255
3 137 142 241 255 255 255
3 9 29 137 255 255 255
3 29 90 137 255 255 255
3 247 185 29 255 255 255
3 32 41 247 255 255 255
3 37 31 32 255 255 255
3 239 238 307 255 255 255
3 94 247 41 255 255 255
3 94 185 247 255 255 255
3 35 220 94 255 255 255
3 109 74 35 255 255 255
3 266 242 141 255 255 255
3 20 13 26 255 255 255
3 250 241 20 255 255 255
3 256 307 31 255 255 255
3 137 20 142 255 255 255
3 90 222 137 255 255 255
3 29 253 90 255 255 255
3 238 70 307 255 255 255
3 94 220 185 255 255 255
3 220 159 185 255 255 255
3 35 36 220 255 255 255
3 109 261 74 255 255 255
3 13 193 26 255 255 255
3 20 10 13 255 255 255
3 307 74 31 255 255 255
3 137 222 20 255 255 255
3 90 30 222 255 255 255
3 253 293 90 255 255 255
3 29 138 253 255 255 255
3 185 27 29 255 255 255
3 185 159 27 255 255 255
3 220 36 159 255 255 255
3 36 302 159 255 255 255
3 261 31 74 255 255 255
3 261 41 31 255 255 255
3 41 32 31 255 255 255
3 13 36 193 255 255 255
3 10 302 13 255 255 255
3 20 30 10 255 255 255
3 307 70 74 255 255 255
3 30 20 222 255 255 255
3 90 293 30 255 255 255
3 293 110 30 255 255 255
3 253 268 293 255 255 255
3 138 159 253 255 255 255
3 159 268 27 255 255 255
3 302 244 159 255 255 255
3 36 33 302 255 255 255
3 36 35 193 255 255 255
3 35 70 193 255 255 255
3 10 244 302 255 255 255
3 10 110 244 255 255 255
3 110 10 30 255 255 255
3 293 240 110 255 255 255
3 268 240 293 255 255 255
3 268 302 240 255 255 255
3 138 35 159 255 255 255
3 268 253 27 255 255 255
3 244 240 159 255 255 255
3 33 180 302 255 255 255
3 70 19 193 255 255 255
3 240 244 110 255 255 255
3 268 138 302 255 255 255
3 180 240 302 255 255 255
3 33 26 180 255 255 255
3 288 288 288 255 255 255
