ply
format ascii 1.0
element vertex 319
property float x
property float y
property float z
element face 576
property list uchar int vertex_indices
property uchar red
property uchar green
property uchar blue
end_header
-2.04500007629394531 7.28900003433227539 -0.985000014305114746
-2.01131749153137207 7.27950191497802734 -0.904250562191009521
-2.07375240325927734 7.2875981330871582 -0.788412511348724365
-2.06897950172424316 7.27181243896484375 -0.811739623546600342
-2.05716800689697266 7.28904867172241211 -0.899699866771697998
-2.03245925903320312 7.28722238540649414 -0.912344634532928467
-2.07226705551147461 7.2639617919921875 -0.900601565837860107
-2.07192707061767578 7.25224494934082031 -0.923152625560760498
-2.09447288513183594 7.32580757141113281 -0.905511796474456787
-2.0129849910736084 7.28277397155761719 -0.927339494228363037
-2.04433703422546387 7.24788761138916016 -0.943937718868255615
-2.02999997138977051 7.28999996185302734 -0.962999999523162842
-2.06891918182373047 7.29301834106445312 -0.977990686893463135
-2.07399988174438477 7.3060002326965332 -0.99299997091293335
-2.07100009918212891 7.28800010681152344 -0.893999993801116943
-2.0820000171661377 7.25299978256225586 -0.917999982833862305
-2.11187219619750977 7.349853515625 -0.853636741638183594
-2.09299993515014648 7.30049991607666016 -0.967000007629394531
-2.05800008773803711 7.29899978637695312 -0.940999984741210938
-2.0458986759185791 7.27039670944213867 -0.980825483798980713
-2.0559999942779541 7.23799991607666016 -0.83899998664855957
-2.09186816215515137 7.3239741325378418 -0.937991917133331299
-2.07699990272521973 7.30700016021728516 -0.994000017642974854
-2.10400009155273438 7.2649998664855957 -0.972000002861022949
-2.06800007820129395 7.26649999618530273 -0.85000002384185791
-2.1096031665802002 7.31941890716552734 -0.925985336303710938
-2.08488798141479492 7.27333545684814453 -0.922511637210845947
-2.10543727874755859 7.28416919708251953 -0.939718306064605713
-2.02998518943786621 7.28805923461914062 -0.952249348163604736
-2.09299993515014648 7.32800006866455078 -0.902999997138977051
-2.07100009918212891 7.3060002326965332 -0.93599998950958252
-2.07745814323425293 7.30525493621826172 -0.987505316734313965
-2.05713748931884766 7.24093341827392578 -0.955733716487884521
-2.08699989318847656 7.25400018692016602 -0.959999978542327881
-2.06229424476623535 7.27621984481811523 -0.760755240917205811
-2.06979465484619141 7.25817060470581055 -0.814879357814788818
-2.02549982070922852 7.28299999237060547 -0.924499988555908203
-2.07200002670288086 7.29899978637695312 -0.986999988555908203
-2.06999993324279785 7.26599979400634766 -0.845000028610229492
-2.09076714515686035 7.31794595718383789 -0.82143932580947876
-2.10315775871276855 7.28322696685791016 -0.992399334907531738
-2.04324984550476074 7.2972102165222168 -0.961046159267425537
-2.09999942779541016 7.285919189453125 -0.980041205883026123
-2.10691094398498535 7.2436223030090332 -0.976393997669219971
-2.0919644832611084 7.33064746856689453 -0.840704917907714844
-2.06949353218078613 7.25437641143798828 -0.941663265228271484
-2.04399991035461426 7.25400018692016602 -1.00399994850158691
-2.02699995040893555 7.30350017547607422 -0.954999983310699463
-2.03829002380371094 7.25934886932373047 -1.01057708263397217
-2.04671454429626465 7.27428960800170898 -1.00699925422668457
-2.04800009727478027 7.28200006484985352 -1.00300002098083496
-2.0476834774017334 7.25267410278320312 -1.01891767978668213
-2.04820346832275391 7.25818157196044922 -1.03008031845092773
-2.08021116256713867 7.25430107116699219 -1.00114941596984863
-2.10125637054443359 7.2610316276550293 -1.00698113441467285
-2.04200005531311035 7.28800010681152344 -1.00800001621246338
-2.0759587287902832 7.32960987091064453 -0.933199942111968994
-2.0969998836517334 7.32800006866455078 -0.917999982833862305
-2.09123802185058594 7.30923271179199219 -0.954679310321807861
-2.10396790504455566 7.32949399948120117 -0.884696066379547119
-2.05192780494689941 7.2594294548034668 -0.767044782638549805
-2.07044100761413574 7.27334785461425781 -0.792037606239318848
-2.04636287689208984 7.26187515258789062 -0.842135012149810791
-2.05706930160522461 7.28973817825317383 -0.775809824466705322
-2.0926973819732666 7.26966094970703125 -0.792148113250732422
-2.07268428802490234 7.29779958724975586 -0.906193912029266357
-2.06834030151367188 7.25700664520263672 -0.909643650054931641
-2.07250285148620605 7.2940826416015625 -0.896359443664550781
-2.07787966728210449 7.28905010223388672 -0.8924102783203125
-2.08105087280273438 7.26517486572265625 -0.891412317752838135
-2.07999992370605469 7.33500003814697266 -0.917999982833862305
-2.11368513107299805 7.33419656753540039 -0.859841525554656982
-2.09899997711181641 7.34499979019165039 -0.904999971389770508
-2.09899997711181641 7.35225009918212891 -0.823249995708465576
-2.09923410415649414 7.32906484603881836 -0.8223763108253479
-2.08264923095703125 7.27964162826538086 -0.903799712657928467
-2.09400010108947754 7.28100013732910156 -0.947000026702880859
-2.09450006484985352 7.34000015258789062 -0.900250017642974854
-2.0840001106262207 7.28399991989135742 -0.903999984264373779
-2.09400010108947754 7.27500009536743164 -0.967000007629394531
-2.03718352317810059 7.24807977676391602 -0.782827854156494141
-2.07043075561523438 7.24241876602172852 -0.877044677734375
-2.04079651832580566 7.23449420928955078 -0.843770980834960938
-2.0685269832611084 7.26386070251464844 -0.839713573455810547
-2.03006577491760254 7.25021648406982422 -0.846414089202880859
-2.06224966049194336 7.25444173812866211 -0.861972808837890625
-2.04347014427185059 7.24207448959350586 -0.812268972396850586
-2.03095364570617676 7.25098657608032227 -0.929021596908569336
-2.04970431327819824 7.25487613677978516 -0.934108495712280273
-2.09253716468811035 7.32070541381835938 -0.892793893814086914
-2.10116314888000488 7.30405521392822266 -0.919555902481079102
-2.08340120315551758 7.34755611419677734 -0.891993165016174316
-2.1200108528137207 7.35486125946044922 -0.823020398616790771
-2.05800008773803711 7.24900007247924805 -0.910000026226043701
-2.08743596076965332 7.26779890060424805 -0.929749250411987305
-2.11297941207885742 7.30984210968017578 -0.827096819877624512
-2.08995223045349121 7.27876901626586914 -1.03681349754333496
-2.02400636672973633 7.28699731826782227 -0.953997790813446045
-2.06800007820129395 7.25199985504150391 -0.888999998569488525
-2.04999995231628418 7.28599977493286133 -0.929000020027160645
-2.04113483428955078 7.29016304016113281 -0.932148635387420654
-2.05207657814025879 7.25226688385009766 -0.792655766010284424
-2.06574511528015137 7.27669954299926758 -0.864447414875030518
-2.06402182579040527 7.27298641204833984 -0.885998845100402832
-2.03976559638977051 7.26228618621826172 -0.893616080284118652
-2.05083727836608887 7.25078678131103516 -0.889075338840484619
-2.04589200019836426 7.24629974365234375 -0.856373727321624756
-2.05413961410522461 7.24253225326538086 -0.863330304622650146
-2.04151296615600586 7.24559211730957031 -0.981201112270355225
-2.05200004577636719 7.2909998893737793 -0.986000001430511475
-2.09873652458190918 7.31115484237670898 -0.929858922958374023
-2.07634687423706055 7.26759624481201172 -0.871013164520263672
-2.08500003814697266 7.28000020980834961 -0.89999997615814209
-2.1036374568939209 7.32830953598022461 -0.908527851104736328
-2.09464049339294434 7.25968170166015625 -0.995161056518554688
-2.10648322105407715 7.32013702392578125 -0.810760498046875
-2.06800007820129395 7.30900001525878906 -1.02300000190734863
-2.07091355323791504 7.292755126953125 -1.04058337211608887
-2.10381770133972168 7.27555561065673828 -1.05956053733825684
-2.08675456047058105 7.31596040725708008 -1.02962875366210938
-2.08299994468688965 7.32499980926513672 -0.94300001859664917
-2.10649943351745605 7.33002614974975586 -0.843782782554626465
-2.06777667999267578 7.30185508728027344 -0.949041485786437988
-2.08299994468688965 7.30000019073486328 -0.972000002861022949
-2.08214259147644043 7.25724697113037109 -0.793779671192169189
-2.02923250198364258 7.28261518478393555 -0.967295229434967041
-2.07540988922119141 7.25959920883178711 -1.04291260242462158
-2.02629351615905762 7.25996112823486328 -0.950250387191772461
-2.07466864585876465 7.2396235466003418 -0.960201501846313477
-2.04006433486938477 7.28669118881225586 -1.01597094535827637
-2.08812069892883301 7.29867887496948242 -1.00091767311096191
-2.09249997138977051 7.3339996337890625 -0.902000010013580322
-2.05111026763916016 7.29407119750976562 -1.0043262243270874
-2.04562067985534668 7.24571657180786133 -1.045684814453125
-2.0992588996887207 7.26951408386230469 -1.01357698440551758
-2.07399988174438477 7.24900007247924805 -0.958999991416931152
-2.05752658843994141 7.30415439605712891 -1.00215137004852295
-2.04347419738769531 7.29616689682006836 -1.02250707149505615
-2.03950619697570801 7.26934337615966797 -1.03373980522155762
-2.1103971004486084 7.25870656967163086 -0.974111974239349365
-2.01517271995544434 7.23720502853393555 -0.819504857063293457
-2.05100011825561523 7.30100011825561523 -0.947000026702880859
-2.05858874320983887 7.24356222152709961 -0.970345497131347656
-2.10025548934936523 7.31274938583374023 -0.884009420871734619
-2.06699991226196289 7.27600002288818359 -0.84299999475479126
-2.06399989128112793 7.25400018692016602 -0.910000026226043701
-2.09796762466430664 7.32201290130615234 -0.869000911712646484
-2.1240990161895752 7.3315887451171875 -0.844466924667358398
-2.07706212997436523 7.31311893463134766 -0.917944729328155518
-2.09480476379394531 7.33313274383544922 -0.879829287528991699
-2.09299993515014648 7.26000022888183594 -0.96249997615814209
-2.10174274444580078 7.28499937057495117 -1.0503392219543457
-2.08100008964538574 7.30299997329711914 -0.99299997091293335
-2.07599997520446777 7.31099987030029297 -0.999000012874603271
-2.06399989128112793 7.25899982452392578 -0.841000020503997803
-2.06681489944458008 7.29110956192016602 -0.919910013675689697
-2.09400010108947754 7.30999994277954102 -0.902000010013580322
-2.06100010871887207 7.24900007247924805 -0.819999992847442627
-2.06299996376037598 7.2779998779296875 -0.859000027179718018
-2.03362631797790527 7.25270462036132812 -0.86176687479019165
-2.07180643081665039 7.27991914749145508 -0.816041052341461182
-2.04701495170593262 7.25942754745483398 -0.88162308931350708
-2.06687808036804199 7.25844764709472656 -0.82830888032913208
-2.06200003623962402 7.24100017547607422 -0.898999989032745361
-2.05919218063354492 7.24753189086914062 -0.916066229343414307
-2.08756256103515625 7.24930191040039062 -0.9335135817527771
-2.05500006675720215 7.30000019073486328 -0.949999988079071045
-2.08899998664855957 7.28299999237060547 -0.929000020027160645
-2.05014348030090332 7.25442647933959961 -0.985097527503967285
-2.08974885940551758 7.30033636093139648 -0.979672789573669434
-2.08320927619934082 7.26034259796142578 -0.983601033687591553
-2.10736298561096191 7.29881572723388672 -0.969835579395294189
-2.10500001907348633 7.24300003051757812 -0.96799999475479126
-2.07299995422363281 7.30800008773803711 -0.995000004768371582
-2.06221747398376465 7.25661897659301758 -0.992318451404571533
-2.07697534561157227 7.32897043228149414 -0.921996116638183594
-2.11894130706787109 7.31790018081665039 -0.837004184722900391
-2.10199999809265137 7.29899978637695312 -0.810000002384185791
-2.03658032417297363 7.28168439865112305 -1.0462956428527832
-2.03425216674804688 7.26047658920288086 -1.03874123096466064
-2.07019805908203125 7.25097751617431641 -1.02011358737945557
-2.09599995613098145 7.27500009536743164 -0.93599998950958252
-2.0807499885559082 7.25625038146972656 -1.02324998378753662
-2.08786129951477051 7.33937740325927734 -0.897069156169891357
-2.09834098815917969 7.26619958877563477 -1.03752231597900391
-2.10550403594970703 7.28244161605834961 -1.01124119758605957
-2.06255197525024414 7.31146717071533203 -1.03221166133880615
-2.03942775726318359 7.25696039199829102 -1.04997968673706055
-2.0840001106262207 7.32499980926513672 -0.919000029563903809
-2.10699796676635742 7.25756692886352539 -0.972716569900512695
-2.10337638854980469 7.33599472045898438 -0.871982812881469727
-2.02155661582946777 7.27762126922607422 -0.943154633045196533
-2.10059976577758789 7.33465766906738281 -0.851759016513824463
-2.09331655502319336 7.34495067596435547 -0.8342323899269104
-2.1024785041809082 7.25354337692260742 -0.982109606266021729
-2.09837627410888672 7.30210638046264648 -0.825691819190979004
-2.04689836502075195 7.2825775146484375 -0.755413651466369629
-2.10476422309875488 7.27858448028564453 -0.979887723922729492
-2.08599996566772461 7.2649998664855957 -0.953999996185302734
-2.02999997138977051 7.29199981689453125 -0.961000025272369385
-2.06399989128112793 7.30100011825561523 -0.994000017642974854
-2.05100011825561523 7.24599981307983398 -0.843999981880187988
-2.02099990844726562 7.30000019073486328 -0.952000021934509277
-2.07150006294250488 7.32600021362304688 -0.93599998950958252
-2.04699993133544922 7.28499984741210938 -0.773999989032745361
-2.03753805160522461 7.26422262191772461 -0.851308345794677734
-2.05089855194091797 7.24509954452514648 -0.779399633407592773
-2.06752467155456543 7.27573442459106445 -0.833085358142852783
-2.03299999237060547 7.27299976348876953 -0.828000009059906006
-2.02019357681274414 7.25639629364013672 -0.831883788108825684
-2.0623939037322998 7.24420452117919922 -0.766792118549346924
-2.05100011825561523 7.2649998664855957 -0.85000002384185791
-2.06217265129089355 7.27784872055053711 -0.834839582443237305
-2.03336620330810547 7.26098251342773438 -0.817187190055847168
-2.09598326683044434 7.28903388977050781 -0.95441049337387085
-2.09189105033874512 7.33099985122680664 -0.925854980945587158
-2.0791473388671875 7.24504280090332031 -0.993111670017242432
-2.11115908622741699 7.34687185287475586 -0.811205863952636719
-2.03501605987548828 7.27150678634643555 -0.972531437873840332
-2.09113144874572754 7.30214357376098633 -1.04339790344238281
-2.0614311695098877 7.26018667221069336 -1.03965926170349121
-2.08515095710754395 7.25544357299804688 -1.03532063961029053
-2.09567523002624512 7.2654109001159668 -1.04847443103790283
-2.0948035717010498 7.29079580307006836 -1.0209653377532959
-2.06399989128112793 7.30700016021728516 -1.00999999046325684
-2.0912017822265625 7.31205987930297852 -1.01958787441253662
-2.06939911842346191 7.3104095458984375 -1.00867700576782227
-2.07800006866455078 7.3060002326965332 -0.958999991416931152
-2.12433290481567383 7.34877634048461914 -0.844073176383972168
-2.0560002326965332 7.2708430290222168 -1.04729485511779785
-2.10100007057189941 7.2909998893737793 -0.939999997615814209
-2.07967948913574219 7.33237648010253906 -0.832787752151489258
-2.05699992179870605 7.25299978256225586 -0.827000021934509277
-2.05498456954956055 7.26684665679931641 -0.867501378059387207
-2.0124814510345459 7.23433303833007812 -0.829440951347351074
-2.02634620666503906 7.25073814392089844 -0.821684479713439941
-2.07890892028808594 7.30818414688110352 -0.90037834644317627
-2.07043218612670898 7.2581019401550293 -0.887116789817810059
-2.06500005722045898 7.29600000381469727 -0.93599998950958252
-2.01470732688903809 7.29390382766723633 -0.910767912864685059
-2.01246142387390137 7.26029586791992188 -0.912582039833068848
-2.04809284210205078 7.24989175796508789 -0.947838664054870605
-2.11626410484313965 7.31171178817749023 -0.903816580772399902
-2.03900003433227539 7.27099990844726562 -0.81400001049041748
-2.04427170753479004 7.2803187370300293 -0.898248076438903809
-2.03808689117431641 7.25138092041015625 -0.905743002891540527
-2.02030587196350098 7.26997137069702148 -0.891768693923950195
-2.05206823348999023 7.24383783340454102 -0.916589736938476562
-2.04921817779541016 7.28796768188476562 -0.789220631122589111
-2.04072427749633789 7.27225065231323242 -0.785013556480407715
-2.051910400390625 7.26425838470458984 -0.812312066555023193
-2.06267809867858887 7.27913999557495117 -0.787427663803100586
-2.05328536033630371 7.26962947845458984 -0.824218213558197021
-2.04663276672363281 7.255126953125 -0.966935634613037109
-2.06999993324279785 7.30900001525878906 -0.930999994277954102
-2.07100009918212891 7.30800008773803711 -0.967000007629394531
-2.07999992370605469 7.30800008773803711 -0.998000025749206543
-2.04726862907409668 7.2725214958190918 -0.794967770576477051
-2.03709697723388672 7.23007583618164062 -0.821322023868560791
-2.06857800483703613 7.26282024383544922 -0.858717978000640869
-2.04900002479553223 7.22900009155273438 -0.832000017166137695
-2.05783438682556152 7.24116802215576172 -0.822441399097442627
-2.05399990081787109 7.26900005340576172 -0.884000003337860107
-2.03117728233337402 7.22943496704101562 -0.833436667919158936
-2.0329742431640625 7.24909877777099609 -0.806145191192626953
-2.06417202949523926 7.24135208129882812 -0.788602948188781738
-2.08180475234985352 7.24447202682495117 -0.793845951557159424
-2.06722784042358398 7.25752830505371094 -0.761893689632415771
-2.0794532299041748 7.24366950988769531 -0.979594588279724121
-2.07299995422363281 7.30200004577636719 -0.954999983310699463
-2.11929845809936523 7.33999538421630859 -0.875773370265960693
-2.09511017799377441 7.29703807830810547 -1.05466318130493164
-2.08479213714599609 7.29715633392333984 -1.04465556144714355
-2.09840512275695801 7.27710628509521484 -0.933202147483825684
-2.13201904296875 7.34071159362792969 -0.830693244934082031
-2.07503199577331543 7.31223964691162109 -0.945122122764587402
-2.07812047004699707 7.27075958251953125 -0.772507429122924805
-2.08426785469055176 7.25673055648803711 -0.77063596248626709
-2.08896851539611816 7.25873136520385742 -0.784880280494689941
-2.06606483459472656 7.25228166580200195 -0.798542976379394531
-2.07941985130310059 7.26810646057128906 -0.887306034564971924
-2.05022215843200684 7.28188657760620117 -0.914595603942871094
-2.02447128295898438 7.25704145431518555 -0.925693511962890625
-2.08274269104003906 7.256591796875 -0.874789416790008545
-2.08700180053710938 7.29137134552001953 -0.911075770854949951
-2.02935481071472168 7.26384830474853516 -0.791989684104919434
-2.04399991035461426 7.29199981689453125 -0.97500002384185791
-2.05699992179870605 7.29699993133544922 -0.968999981880187988
-2.09640693664550781 7.29207897186279297 -0.798127830028533936
-2.10278415679931641 7.29800558090209961 -0.932815313339233398
-2.07198977470397949 7.27906417846679688 -1.05500566959381104
-2.08800005912780762 7.27500009536743164 -0.953000009059906006
-2.05614805221557617 7.26264667510986328 -1.02619445323944092
-2.08892345428466797 7.25550651550292969 -0.943041384220123291
-2.05294227600097656 7.28369855880737305 -1.0598217248916626
-2.09899997711181641 7.33500003814697266 -0.902999997138977051
-2.1137855052947998 7.31745481491088867 -0.873363852500915527
-2.0840001106262207 7.32800006866455078 -0.930999994277954102
-2.08800005912780762 7.28900003433227539 -0.925999999046325684
-2.12393832206726074 7.3251805305480957 -0.820706069469451904
-2.09963679313659668 7.30307340621948242 -0.956769227981567383
-2.08901405334472656 7.34130477905273438 -0.8261299729347229
-2.09899997711181641 7.30100011825561523 -0.938000023365020752
-2.0407865047454834 7.26891517639160156 -1.0565955638885498
-2.08407402038574219 7.27570104598999023 -1.05701076984405518
-2.08854913711547852 7.26394462585449219 -1.06082677841186523
-2.08100509643554688 7.31262969970703125 -1.01084554195404053
-2.05677032470703125 7.30022859573364258 -1.03499448299407959
-2.12027668952941895 7.32513809204101562 -0.893291890621185303
-2.06328105926513672 7.27575254440307617 -1.05889391899108887
-2.1044776439666748 7.25792980194091797 -1.05714833736419678
-2.09081244468688965 7.28982686996459961 -1.03329682350158691
-2.10297346115112305 7.3157958984375 -0.837659120559692383
-2.0274350643157959 7.26212549209594727 -0.937117576599121094
-2.05900001525878906 7.29699993133544922 -0.954999983310699463
-2.08556461334228516 7.27015161514282227 -0.951650738716125488
-2.10199999809265137 7.31099987030029297 -0.866999983787536621
-2.10885095596313477 7.3094325065612793 -0.879128873348236084
-2.07800006866455078 7.30200004577636719 -0.967000007629394531
3 248 204 257 255 255 255
3 204 249 257 255 255 255
3 249 243 257 255 255 255
3 243 250 257 255 255 255
3 249 285 243 255 255 255
3 285 213 243 255 255 255
3 249 80 285 255 255 255
3 250 251 257 255 255 255
3 243 252 250 255 255 255
3 249 60 80 255 255 255
3 251 248 257 255 255 255
3 250 61 251 255 255 255
3 252 3 250 255 255 255
3 252 160 3 255 255 255
3 243 62 252 255 255 255
3 285 209 213 255 255 255
3 60 206 80 255 255 255
3 249 204 60 255 255 255
3 204 196 60 255 255 255
3 251 63 248 255 255 255
3 61 2 251 255 255 255
3 250 3 61 255 255 255
3 212 207 252 255 255 255
3 252 62 212 255 255 255
3 243 208 62 255 255 255
3 213 208 243 255 255 255
3 213 209 208 255 255 255
3 60 210 206 255 255 255
3 204 34 196 255 255 255
3 63 204 248 255 255 255
3 251 2 63 255 255 255
3 207 160 252 255 255 255
3 208 205 62 255 255 255
3 209 205 208 255 255 255
3 209 84 205 255 255 255
3 204 63 34 255 255 255
3 61 64 2 255 255 255
3 210 265 206 255 255 255
3 60 267 210 255 255 255
3 63 2 34 255 255 255
3 61 124 64 255 255 255
3 207 162 160 255 255 255
3 212 83 144 255 255 255
3 211 154 62 255 255 255
3 62 205 211 255 255 255
3 205 84 159 255 255 255
3 209 234 84 255 255 255
3 206 101 80 255 255 255
3 64 288 2 255 255 255
3 207 83 162 255 255 255
3 212 144 207 255 255 255
3 83 24 144 255 255 255
3 211 24 154 255 255 255
3 205 233 211 255 255 255
3 159 161 205 255 255 255
3 234 263 84 255 255 255
3 209 140 234 255 255 255
3 209 285 235 255 255 255
3 285 264 235 255 255 255
3 206 265 101 255 255 255
3 60 34 267 255 255 255
3 2 276 34 255 255 255
3 61 279 124 255 255 255
3 3 279 61 255 255 255
3 3 35 279 255 255 255
3 160 35 3 255 255 255
3 160 162 35 255 255 255
3 211 144 24 255 255 255
3 161 233 205 255 255 255
3 161 262 233 255 255 255
3 84 106 159 255 255 255
3 209 235 140 255 255 255
3 235 264 140 255 255 255
3 210 266 265 255 255 255
3 2 278 276 255 255 255
3 162 157 35 255 255 255
3 83 144 38 255 255 255
3 83 259 24 255 255 255
3 212 162 83 255 255 255
3 262 102 233 255 255 255
3 263 106 84 255 255 255
3 263 82 106 255 255 255
3 264 258 140 255 255 255
3 264 101 86 255 255 255
3 265 279 101 255 255 255
3 266 279 265 255 255 255
3 210 278 266 255 255 255
3 267 277 210 255 255 255
3 276 267 34 255 255 255
3 277 267 276 255 255 255
3 278 277 276 255 255 255
3 279 266 124 255 255 255
3 157 101 35 255 255 255
3 232 35 162 255 255 255
3 158 211 233 255 255 255
3 233 102 158 255 255 255
3 262 103 102 255 255 255
3 161 104 262 255 255 255
3 159 106 161 255 255 255
3 82 107 106 255 255 255
3 264 86 258 255 255 255
3 264 80 101 255 255 255
3 210 277 278 255 255 255
3 64 177 288 255 255 255
3 101 279 35 255 255 255
3 102 259 158 255 255 255
3 103 111 102 255 255 255
3 262 4 103 255 255 255
3 104 244 262 255 255 255
3 105 104 161 255 255 255
3 106 105 161 255 255 255
3 106 107 105 255 255 255
3 107 81 105 255 255 255
3 82 20 107 255 255 255
3 263 260 82 255 255 255
3 263 258 260 255 255 255
3 234 140 263 255 255 255
3 258 263 140 255 255 255
3 278 124 266 255 255 255
3 64 124 278 255 255 255
3 259 102 24 255 255 255
3 103 280 111 255 255 255
3 262 244 4 255 255 255
3 107 85 81 255 255 255
3 82 260 20 255 255 255
3 260 261 20 255 255 255
3 258 86 260 255 255 255
3 86 261 260 255 255 255
3 86 157 261 255 255 255
3 85 111 259 255 255 255
3 4 14 103 255 255 255
3 104 245 246 255 255 255
3 105 245 104 255 255 255
3 81 163 105 255 255 255
3 107 211 85 255 255 255
3 261 232 20 255 255 255
3 259 283 85 255 255 255
3 103 6 280 255 255 255
3 4 67 14 255 255 255
3 244 5 281 255 255 255
3 104 246 244 255 255 255
3 245 240 246 255 255 255
3 105 247 245 255 255 255
3 163 247 105 255 255 255
3 163 164 247 255 255 255
3 85 283 81 255 255 255
3 107 201 211 255 255 255
3 107 20 201 255 255 255
3 232 201 20 255 255 255
3 232 154 201 255 255 255
3 280 283 111 255 255 255
3 69 283 280 255 255 255
3 67 68 14 255 255 255
3 4 236 67 255 255 255
3 244 281 4 255 255 255
3 244 246 5 255 255 255
3 283 259 111 255 255 255
3 280 112 69 255 255 255
3 103 237 6 255 255 255
3 68 112 14 255 255 255
3 67 284 68 255 255 255
3 65 236 4 255 255 255
3 4 155 65 255 255 255
3 281 155 4 255 255 255
3 246 239 5 255 255 255
3 1 239 246 255 255 255
3 282 240 245 255 255 255
3 247 282 245 255 255 255
3 247 87 282 255 255 255
3 69 6 237 255 255 255
3 66 75 6 255 255 255
3 237 98 6 255 255 255
3 67 236 284 255 255 255
3 65 148 236 255 255 255
3 281 99 155 255 255 255
3 100 99 281 255 255 255
3 281 5 100 255 255 255
3 247 88 87 255 255 255
3 237 283 69 255 255 255
3 98 163 6 255 255 255
3 284 75 68 255 255 255
3 156 284 236 255 255 255
3 156 90 284 255 255 255
3 236 89 156 255 255 255
3 65 254 148 255 255 255
3 155 238 65 255 255 255
3 99 238 155 255 255 255
3 99 18 238 255 255 255
3 5 36 100 255 255 255
3 5 239 36 255 255 255
3 1 246 240 255 255 255
3 87 313 282 255 255 255
3 88 10 87 255 255 255
3 247 164 88 255 255 255
3 164 7 88 255 255 255
3 164 145 7 255 255 255
3 237 81 283 255 255 255
3 237 98 81 255 255 255
3 66 26 75 255 255 255
3 6 145 66 255 255 255
3 89 143 156 255 255 255
3 148 8 236 255 255 255
3 65 238 254 255 255 255
3 238 18 254 255 255 255
3 239 9 36 255 255 255
3 88 241 10 255 255 255
3 7 15 165 255 255 255
3 164 93 145 255 255 255
3 26 284 75 255 255 255
3 7 26 66 255 255 255
3 90 298 284 255 255 255
3 156 242 90 255 255 255
3 8 89 236 255 255 255
3 8 29 89 255 255 255
3 148 188 8 255 255 255
3 175 188 148 255 255 255
3 175 70 188 255 255 255
3 36 191 100 255 255 255
3 9 191 36 255 255 255
3 239 1 9 255 255 255
3 282 9 240 255 255 255
3 282 313 9 255 255 255
3 10 313 87 255 255 255
3 10 127 313 255 255 255
3 88 32 241 255 255 255
3 7 45 88 255 255 255
3 165 45 7 255 255 255
3 7 66 15 255 255 255
3 78 68 75 255 255 255
3 90 289 298 255 255 255
3 143 242 156 255 255 255
3 70 29 188 255 255 255
3 175 56 70 255 255 255
3 100 191 28 255 255 255
3 240 9 1 255 255 255
3 9 313 191 255 255 255
3 241 127 10 255 255 255
3 241 253 127 255 255 255
3 165 293 45 255 255 255
3 15 94 165 255 255 255
3 68 14 75 255 255 255
3 289 27 298 255 255 255
3 90 110 289 255 255 255
3 90 25 110 255 255 255
3 242 25 90 255 255 255
3 143 317 242 255 255 255
3 317 296 242 255 255 255
3 89 146 143 255 255 255
3 29 183 89 255 255 255
3 29 131 183 255 255 255
3 70 131 29 255 255 255
3 191 97 28 255 255 255
3 127 191 313 255 255 255
3 127 125 191 255 255 255
3 241 142 253 255 255 255
3 32 142 241 255 255 255
3 167 298 26 255 255 255
3 26 94 167 255 255 255
3 27 273 298 255 255 255
3 110 302 289 255 255 255
3 242 308 25 255 255 255
3 296 308 242 255 255 255
3 183 149 89 255 255 255
3 202 47 28 255 255 255
3 191 125 97 255 255 255
3 253 218 127 255 255 255
3 142 108 253 255 255 255
3 142 168 108 255 255 255
3 32 128 142 255 255 255
3 32 135 128 255 255 255
3 165 94 293 255 255 255
3 167 230 298 255 255 255
3 94 273 167 255 255 255
3 27 76 273 255 255 255
3 302 214 289 255 255 255
3 308 113 25 255 255 255
3 146 316 143 255 255 255
3 89 149 146 255 255 255
3 183 91 149 255 255 255
3 295 183 8 255 255 255
3 8 113 295 255 255 255
3 175 203 56 255 255 255
3 175 297 203 255 255 255
3 47 41 28 255 255 255
3 127 218 125 255 255 255
3 253 19 218 255 255 255
3 142 174 168 255 255 255
3 128 268 142 255 255 255
3 135 33 128 255 255 255
3 32 45 135 255 255 255
3 315 150 293 255 255 255
3 230 302 298 255 255 255
3 167 76 230 255 255 255
3 94 315 273 255 255 255
3 181 94 273 255 255 255
3 27 214 76 255 255 255
3 214 230 289 255 255 255
3 302 300 214 255 255 255
3 25 21 110 255 255 255
3 296 270 308 255 255 255
3 317 316 296 255 255 255
3 149 192 146 255 255 255
3 295 77 183 255 255 255
3 131 8 183 255 255 255
3 131 29 8 255 255 255
3 297 56 203 255 255 255
3 41 11 28 255 255 255
3 253 108 19 255 255 255
3 108 168 19 255 255 255
3 168 46 19 255 255 255
3 142 268 174 255 255 255
3 33 268 128 255 255 255
3 135 293 33 255 255 255
3 150 33 293 255 255 255
3 315 198 150 255 255 255
3 315 291 198 255 255 255
3 293 181 315 255 255 255
3 94 26 273 255 255 255
3 214 291 76 255 255 255
3 230 27 289 255 255 255
3 230 214 27 255 255 255
3 25 215 21 255 255 255
3 113 57 25 255 255 255
3 192 71 146 255 255 255
3 149 190 192 255 255 255
3 295 29 77 255 255 255
3 113 59 295 255 255 255
3 183 72 91 255 255 255
3 254 275 203 255 255 255
3 297 120 56 255 255 255
3 41 286 11 255 255 255
3 47 199 41 255 255 255
3 11 97 218 255 255 255
3 46 48 19 255 255 255
3 268 216 174 255 255 255
3 268 170 216 255 255 255
3 150 198 33 255 255 255
3 293 94 181 255 255 255
3 214 79 291 255 255 255
3 110 58 300 255 255 255
3 110 21 58 255 255 255
3 215 297 21 255 255 255
3 25 57 215 255 255 255
3 57 70 215 255 255 255
3 296 71 270 255 255 255
3 192 121 71 255 255 255
3 270 16 190 255 255 255
3 29 131 77 255 255 255
3 113 308 59 255 255 255
3 254 30 275 255 255 255
3 286 125 11 255 255 255
3 41 287 286 255 255 255
3 11 199 97 255 255 255
3 19 0 218 255 255 255
3 19 132 0 255 255 255
3 48 49 19 255 255 255
3 46 51 48 255 255 255
3 150 79 198 255 255 255
3 189 194 150 255 255 255
3 79 150 291 255 255 255
3 58 17 300 255 255 255
3 113 29 57 255 255 255
3 308 270 59 255 255 255
3 71 190 146 255 255 255
3 192 44 121 255 255 255
3 16 192 190 255 255 255
3 30 122 275 255 255 255
3 30 18 122 255 255 255
3 286 218 125 255 255 255
3 287 109 286 255 255 255
3 41 314 287 255 255 255
3 199 202 97 255 255 255
3 19 50 132 255 255 255
3 49 50 19 255 255 255
3 216 51 174 255 255 255
3 170 53 216 255 255 255
3 189 43 194 255 255 255
3 150 43 189 255 255 255
3 214 300 171 255 255 255
3 17 171 300 255 255 255
3 120 58 21 255 255 255
3 270 190 59 255 255 255
3 71 16 270 255 255 255
3 121 147 71 255 255 255
3 44 312 121 255 255 255
3 16 193 192 255 255 255
3 91 72 77 255 255 255
3 72 295 77 255 255 255
3 122 269 275 255 255 255
3 109 0 286 255 255 255
3 287 12 109 255 255 255
3 314 255 287 255 255 255
3 41 166 314 255 255 255
3 202 28 97 255 255 255
3 50 55 132 255 255 255
3 48 129 49 255 255 255
3 51 52 48 255 255 255
3 51 46 174 255 255 255
3 170 114 53 255 255 255
3 17 169 171 255 255 255
3 120 275 58 255 255 255
3 190 149 59 255 255 255
3 71 228 16 255 255 255
3 147 228 71 255 255 255
3 121 176 147 255 255 255
3 121 312 176 255 255 255
3 192 193 44 255 255 255
3 295 131 77 255 255 255
3 269 227 275 255 255 255
3 122 314 269 255 255 255
3 18 141 122 255 255 255
3 109 50 0 255 255 255
3 287 255 12 255 255 255
3 255 318 12 255 255 255
3 166 122 314 255 255 255
3 41 141 166 255 255 255
3 52 138 48 255 255 255
3 51 180 292 255 255 255
3 216 180 51 255 255 255
3 53 180 216 255 255 255
3 54 180 53 255 255 255
3 54 182 180 255 255 255
3 53 114 54 255 255 255
3 170 194 114 255 255 255
3 171 169 42 255 255 255
3 17 123 169 255 255 255
3 58 318 17 255 255 255
3 227 255 58 255 255 255
3 58 275 227 255 255 255
3 147 274 228 255 255 255
3 193 231 44 255 255 255
3 228 92 16 255 255 255
3 12 200 109 255 255 255
3 318 123 12 255 255 255
3 255 269 318 255 255 255
3 55 129 132 255 255 255
3 129 55 49 255 255 255
3 52 179 138 255 255 255
3 52 133 179 255 255 255
3 54 134 182 255 255 255
3 169 40 42 255 255 255
3 130 40 169 255 255 255
3 169 31 130 255 255 255
3 123 31 169 255 255 255
3 299 274 147 255 255 255
3 147 176 299 255 255 255
3 193 301 231 255 255 255
3 16 73 193 255 255 255
3 92 73 16 255 255 255
3 228 274 92 255 255 255
3 200 132 109 255 255 255
3 37 152 12 255 255 255
3 123 37 12 255 255 255
3 132 137 136 255 255 255
3 129 137 132 255 255 255
3 48 138 129 255 255 255
3 133 187 179 255 255 255
3 134 184 182 255 255 255
3 114 139 54 255 255 255
3 40 197 42 255 255 255
3 152 256 31 255 255 255
3 31 22 152 255 255 255
3 95 176 312 255 255 255
3 312 195 95 255 255 255
3 312 44 39 255 255 255
3 44 231 39 255 255 255
3 217 73 92 255 255 255
3 12 226 200 255 255 255
3 152 226 12 255 255 255
3 136 109 132 255 255 255
3 137 186 136 255 255 255
3 137 307 186 255 255 255
3 138 137 129 255 255 255
3 178 137 138 255 255 255
3 178 307 137 255 255 255
3 179 178 138 255 255 255
3 180 220 292 255 255 255
3 182 221 180 255 255 255
3 182 184 221 255 255 255
3 184 222 221 255 255 255
3 185 134 54 255 255 255
3 185 223 134 255 255 255
3 54 40 185 255 255 255
3 139 40 54 255 255 255
3 139 197 40 255 255 255
3 114 194 139 255 255 255
3 172 139 43 255 255 255
3 31 256 130 255 255 255
3 256 306 130 255 255 255
3 31 13 22 255 255 255
3 274 217 92 255 255 255
3 299 217 274 255 255 255
3 176 95 299 255 255 255
3 312 39 195 255 255 255
3 73 301 193 255 255 255
3 73 217 301 255 255 255
3 186 224 136 255 255 255
3 179 303 178 255 255 255
3 187 303 179 255 255 255
3 220 187 133 255 255 255
3 220 229 187 255 255 255
3 52 220 133 255 255 255
3 52 292 220 255 255 255
3 51 292 52 255 255 255
3 180 221 220 255 255 255
3 221 126 220 255 255 255
3 222 126 221 255 255 255
3 222 305 126 255 255 255
3 134 96 184 255 255 255
3 223 96 134 255 255 255
3 194 43 139 255 255 255
3 172 150 139 255 255 255
3 130 306 225 255 255 255
3 256 153 306 255 255 255
3 13 173 22 255 255 255
3 31 37 13 255 255 255
3 195 115 95 255 255 255
3 224 136 226 255 255 255
3 220 126 229 255 255 255
3 184 310 222 255 255 255
3 223 311 96 255 255 255
3 225 223 130 255 255 255
3 256 22 153 255 255 255
3 173 153 22 255 255 255
3 13 200 173 255 255 255
3 115 217 299 255 255 255
3 177 115 195 255 255 255
3 217 74 301 255 255 255
3 217 115 74 255 255 255
3 226 116 224 255 255 255
3 187 229 303 255 255 255
3 229 294 303 255 255 255
3 229 309 294 255 255 255
3 126 305 229 255 255 255
3 222 310 305 255 255 255
3 185 130 223 255 255 255
3 153 226 306 255 255 255
3 173 226 153 255 255 255
3 299 95 115 255 255 255
3 74 231 301 255 255 255
3 74 39 231 255 255 255
3 226 256 306 255 255 255
3 303 294 178 255 255 255
3 229 305 309 255 255 255
3 304 290 305 255 255 255
3 305 310 304 255 255 255
3 184 118 310 255 255 255
3 225 219 223 255 255 255
3 139 23 197 255 255 255
3 139 194 23 255 255 255
3 306 119 225 255 255 255
3 306 116 119 255 255 255
3 115 39 74 255 255 255
3 307 117 186 255 255 255
3 309 290 294 255 255 255
3 309 305 290 255 255 255
3 310 118 304 255 255 255
3 184 96 118 255 255 255
3 311 151 96 255 255 255
3 311 271 151 255 255 255
3 223 219 311 255 255 255
3 42 197 79 255 255 255
3 23 150 197 255 255 255
3 225 119 219 255 255 255
3 116 186 119 255 255 255
3 117 272 186 255 255 255
3 307 294 290 255 255 255
3 290 117 307 255 255 255
3 304 271 290 255 255 255
3 118 151 304 255 255 255
3 118 96 151 255 255 255
3 311 219 271 255 255 255
3 119 272 219 255 255 255
3 186 272 119 255 255 255
3 271 304 151 255 255 255
3 272 271 219 255 255 255
