ply
format ascii 1.0
element vertex 320
property float x
property float y
property float z
element face 576
property list uchar int vertex_indices
property uchar red
property uchar green
property uchar blue
end_header
1.24300003051757812 15.0399999618530273 -0.688000023365020752
1.29100000858306885 15.0299997329711914 -0.890999972820281982
1.2510000467300415 15.0480003356933594 -0.638999998569488525
1.26900005340576172 15.0120000839233398 -0.65700000524520874
1.28799998760223389 15.0139999389648438 -0.675000011920928955
1.29600000381469727 15.0200004577636719 -0.768999993801116943
1.27600002288818359 15.050999641418457 -0.672999978065490723
1.29999995231628418 15.0369997024536133 -0.741999983787536621
1.2510000467300415 15.0380001068115234 -0.704999983310699463
1.26100003719329834 15.0459995269775391 -0.644999980926513672
1.29999995231628418 15.0290002822875977 -0.887000024318695068
1.29100000858306885 15.0260000228881836 -0.879000008106231689
1.26999998092651367 15.0480003356933594 -0.695999979972839355
1.25800001621246338 15.0410003662109375 -0.712000012397766113
1.28799998760223389 15.0500001907348633 -0.662999987602233887
1.26699995994567871 15.0489997863769531 -0.78200000524520874
1.24399995803833008 15.0419998168945312 -0.651000022888183594
1.28999996185302734 14.9899997711181641 -0.665000021457672119
1.28799998760223389 15.0450000762939453 -0.666999995708465576
1.30299997329711914 15.0430002212524414 -0.745000004768371582
1.31200003623962402 15.0129995346069336 -0.777999997138977051
1.29100000858306885 15.0179996490478516 -0.815999984741210938
1.29799997806549072 15.0209999084472656 -0.815999984741210938
1.30900001525878906 15.0220003128051758 -0.833999991416931152
1.28600001335144043 15.0369997024536133 -0.827000021934509277
1.3059999942779541 15.0399999618530273 -0.837000012397766113
1.29600000381469727 15.0270004272460938 -0.847000002861022949
1.28699994087219238 15.0279998779296875 -0.827000021934509277
1.30900001525878906 15.0010004043579102 -0.773000001907348633
1.29499995708465576 15.0010004043579102 -0.790000021457672119
1.30099999904632568 15.0279998779296875 -0.848999977111816406
1.28799998760223389 15.0109996795654297 -0.859000027179718018
1.29400002956390381 15.0159997940063477 -0.870999991893768311
1.30099999904632568 15.0329999923706055 -0.856999993324279785
1.31200003623962402 15.0249996185302734 -0.828000009059906006
1.28999996185302734 15.0319995880126953 -0.827000021934509277
1.28100001811981201 15.0270004272460938 -0.763999998569488525
1.3059999942779541 15.0220003128051758 -0.751999974250793457
1.25399994850158691 15.0319995880126953 -0.667999982833862305
1.25 15.0410003662109375 -0.68900001049041748
1.25300002098083496 15.0329999923706055 -0.662000000476837158
1.25300002098083496 15.0459995269775391 -0.686999976634979248
1.28999996185302734 15.0410003662109375 -0.78200000524520874
1.28699994087219238 15.0360002517700195 -0.662999987602233887
1.27699995040893555 14.9960002899169922 -0.625999987125396729
1.26800000667572021 14.991999626159668 -0.64999997615814209
1.27499997615814209 14.9870004653930664 -0.651000022888183594
1.24000000953674316 15.0299997329711914 -0.694999992847442627
1.25 15.0439996719360352 -0.671999990940093994
1.29100000858306885 14.9879999160766602 -0.690999984741210938
1.27799999713897705 14.9750003814697266 -0.653999984264373779
1.26999998092651367 15.0419998168945312 -0.680999994277954102
1.28400003910064697 14.9890003204345703 -0.634000003337860107
1.27199995517730713 14.9820003509521484 -0.624000012874603271
1.29700005054473877 14.9840002059936523 -0.72500002384185791
1.25399994850158691 15.0500001907348633 -0.683000028133392334
1.28100001811981201 15.0209999084472656 -0.652000010013580322
1.29400002956390381 14.9940004348754883 -0.731999993324279785
1.25999999046325684 15.0369997024536133 -0.637000024318695068
1.26699995994567871 15.0419998168945312 -0.699000000953674316
1.26794958114624023 14.9800519943237305 -0.628065884113311768
1.2640000581741333 14.9870004653930664 -0.637000024318695068
1.28400003910064697 14.9980001449584961 -0.639999985694885254
1.30400002002716064 15.0139999389648438 -0.765999972820281982
1.27900004386901855 15.0459995269775391 -0.66100001335144043
1.24399995803833008 15.0369997024536133 -0.683000028133392334
1.28799998760223389 15.0450000762939453 -0.813000023365020752
1.29700005054473877 15.0249996185302734 -0.901000022888183594
1.27300000190734863 15.0059995651245117 -0.657999992370605469
1.26499998569488525 15.0019998550415039 -0.64999997615814209
1.2929999828338623 15.0200004577636719 -0.843999981880187988
1.25600004196166992 15.0290002822875977 -0.669000029563903809
1.29000234603881836 15.0139932632446289 -0.662001967430114746
1.29100000858306885 15.0279998779296875 -0.910000026226043701
1.29700005054473877 15.0539999008178711 -0.679000020027160645
1.30200004577636719 15.005000114440918 -0.81400001049041748
1.29700005054473877 15.0450000762939453 -0.764999985694885254
1.28199994564056396 15.0319995880126953 -0.764999985694885254
1.27300000190734863 15.0399999618530273 -0.776000022888183594
1.30900001525878906 15.0260000228881836 -0.763000011444091797
1.27100002765655518 15.0450000762939453 -0.771000027656555176
1.30200004577636719 15.0399999618530273 -0.753000020980834961
1.30400002002716064 15.0179996490478516 -0.763000011444091797
1.27100002765655518 15.0450000762939453 -0.78600001335144043
1.27300000190734863 15.0439996719360352 -0.791000008583068848
1.23300004005432129 15.0349998474121094 -0.69300001859664917
1.24800002574920654 15.0430002212524414 -0.680000007152557373
1.26800000667572021 15.0360002517700195 -0.640999972820281982
1.26999998092651367 14.9870004653930664 -0.64999997615814209
1.29700005054473877 15.0270004272460938 -0.825999975204467773
1.2510000467300415 15.0340003967285156 -0.712999999523162842
1.29799997806549072 15.0019998550415039 -0.772000014781951904
1.2640000581741333 15.0190000534057617 -0.639999985694885254
1.27600002288818359 15.0329999923706055 -0.677999973297119141
1.27699995040893555 15.0430002212524414 -0.683000028133392334
1.27100002765655518 14.9989995956420898 -0.640999972820281982
1.2630000114440918 14.9969997406005859 -0.643999993801116943
1.27300000190734863 14.9980001449584961 -0.657999992370605469
1.2929999828338623 14.9849996566772461 -0.679000020027160645
1.29400002956390381 14.9930000305175781 -0.64999997615814209
1.29400002956390381 14.9960002899169922 -0.652000010013580322
1.28499996662139893 14.994999885559082 -0.637000024318695068
1.2510000467300415 15.0310001373291016 -0.637000024318695068
1.29700005054473877 15.0100002288818359 -0.778999984264373779
1.30400002002716064 15.0319995880126953 -0.791999995708465576
1.27600002288818359 15.0369997024536133 -0.80699998140335083
1.31200003623962402 15.0340003967285156 -0.767000019550323486
1.28900003433227539 15.0120000839233398 -0.836000025272369385
1.28699994087219238 15.008000373840332 -0.875999987125396729
1.28499996662139893 15.0109996795654297 -0.864000022411346436
1.28699994087219238 15.0349998474121094 -0.833000004291534424
1.30900001525878906 15.0360002517700195 -0.833000004291534424
1.29999995231628418 15.0229997634887695 -0.80699998140335083
1.30999994277954102 15.0019998550415039 -0.852999985218048096
1.30299997329711914 15.0329999923706055 -0.860000014305114746
1.26699995994567871 15.0069999694824219 -0.651000022888183594
1.26199996471405029 15.0159997940063477 -0.637000024318695068
1.26800000667572021 15.0459995269775391 -0.773000001907348633
1.29400002956390381 15.0170001983642578 -0.781000018119812012
1.29600000381469727 15.0249996185302734 -0.808000028133392334
1.2929999828338623 15.0439996719360352 -0.759999990463256836
1.2929999828338623 15.0120000839233398 -0.792999982833862305
1.27900004386901855 15.0270004272460938 -0.77499997615814209
1.3049999475479126 15.0200004577636719 -0.785000026226043701
1.28299999237060547 15.0369997024536133 -0.808000028133392334
1.30200004577636719 15.0089998245239258 -0.822000026702880859
1.28799998760223389 15.0170001983642578 -0.830999970436096191
1.2510000467300415 15.0360002517700195 -0.63200002908706665
1.28600001335144043 15.0299997329711914 -0.680000007152557373
1.25899994373321533 15 -0.643999993801116943
1.28900003433227539 15.005000114440918 -0.783999979496002197
1.24600005149841309 15.0489997863769531 -0.638000011444091797
1.28299999237060547 14.991999626159668 -0.670000016689300537
1.27499997615814209 14.9770002365112305 -0.638999998569488525
1.27400004863739014 14.9709997177124023 -0.648999989032745361
1.29900002479553223 14.9910001754760742 -0.722999989986419678
1.29200005531311035 14.9840002059936523 -0.712999999523162842
1.29200005531311035 14.9829998016357422 -0.736000001430511475
1.29600000381469727 14.9890003204345703 -0.74299997091293335
1.29400002956390381 14.9910001754760742 -0.724500000476837158
1.28900003433227539 14.9930000305175781 -0.680000007152557373
1.29499995708465576 14.9960002899169922 -0.740999996662139893
1.28999996185302734 15.0389995574951172 -0.676999986171722412
1.28600001335144043 15.0380001068115234 -0.787999987602233887
1.27799999713897705 14.9790000915527344 -0.637000024318695068
1.28499996662139893 15.0480003356933594 -0.68900001049041748
1.28999996185302734 15.0159997940063477 -0.846000015735626221
1.29900002479553223 15.0270004272460938 -0.819000005722045898
1.28900003433227539 15.0200004577636719 -0.799000024795532227
1.30200004577636719 15.0039997100830078 -0.781000018119812012
1.28900003433227539 15.0389995574951172 -0.78600001335144043
1.29700005054473877 15.0170001983642578 -0.80699998140335083
1.3059999942779541 15.0039997100830078 -0.768999993801116943
1.28900003433227539 15.0389995574951172 -0.801999986171722412
1.28199994564056396 15.0159997940063477 -0.80699998140335083
1.29499995708465576 15.0369997024536133 -0.796000003814697266
1.24500000476837158 15.0419998168945312 -0.707000017166137695
1.27499997615814209 15.0570001602172852 -0.683000028133392334
1.29100000858306885 15.055999755859375 -0.671999990940093994
1.26600003242492676 14.9980001449584961 -0.638000011444091797
1.2489999532699585 15.0380001068115234 -0.695999979972839355
1.27999997138977051 14.9930000305175781 -0.656000018119812012
1.29200005531311035 14.9849996566772461 -0.64999997615814209
1.2929999828338623 14.9840002059936523 -0.637000024318695068
1.27900004386901855 15.0369997024536133 -0.653999984264373779
1.25199997425079346 15.0459995269775391 -0.680000007152557373
1.29799997806549072 14.9969997406005859 -0.736999988555908203
1.29799997806549072 14.9890003204345703 -0.730000019073486328
1.29799997806549072 15.0220003128051758 -0.880999982357025146
1.28299999237060547 15.0310001373291016 -0.88200002908706665
1.27600002288818359 15.0500001907348633 -0.66100001335144043
1.25199997425079346 15.0270004272460938 -0.68199998140335083
1.26100003719329834 15.0489997863769531 -0.665000021457672119
1.28799998760223389 15.0240001678466797 -0.846000015735626221
1.3059999942779541 15.0010004043579102 -0.859000027179718018
1.28199994564056396 15.0319995880126953 -0.779999971389770508
1.29700005054473877 15.0109996795654297 -0.80699998140335083
1.29600000381469727 15.0380001068115234 -0.776000022888183594
1.29799997806549072 15.0039997100830078 -0.779999971389770508
1.29600000381469727 15 -0.81400001049041748
1.28499996662139893 15.0419998168945312 -0.773999989032745361
1.3059999942779541 15.0010004043579102 -0.777000010013580322
1.29999995231628418 15.0039997100830078 -0.81099998950958252
1.24000000953674316 15.0299997329711914 -0.680999994277954102
1.28799998760223389 15.0469999313354492 -0.689999997615814209
1.25300002098083496 15.0469999313354492 -0.665000021457672119
1.28499996662139893 15.0030002593994141 -0.657999992370605469
1.27400004863739014 15.0450000762939453 -0.660000026226043701
1.3049999475479126 15.0170001983642578 -0.758000016212463379
1.30700004100799561 15.0120000839233398 -0.830999970436096191
1.3049999475479126 15.0380001068115234 -0.77499997615814209
1.3049999475479126 15.0299997329711914 -0.800999999046325684
1.2929999828338623 15.0349998474121094 -0.759999990463256836
1.29700005054473877 15.0249996185302734 -0.853999972343444824
1.29499995708465576 15.0209999084472656 -0.873000025749206543
1.29100000858306885 15.0159997940063477 -0.876999974250793457
1.30299997329711914 15.0329999923706055 -0.865000009536743164
1.27499997615814209 15 -0.870000004768371582
1.28699994087219238 15.0200004577636719 -0.670000016689300537
1.30200004577636719 15.0209999084472656 -0.754999995231628418
1.29400002956390381 14.9989995956420898 -0.666000008583068848
1.29499995708465576 14.9969997406005859 -0.671000003814697266
1.24699997901916504 15.0389995574951172 -0.66100001335144043
1.24199998378753662 15.0319995880126953 -0.656000018119812012
1.29400002956390381 14.9960002899169922 -0.658999979496002197
1.29600000381469727 14.9960002899169922 -0.680999994277954102
1.25300002098083496 15.0290002822875977 -0.653999984264373779
1.27300000190734863 15.0089998245239258 -0.660000026226043701
1.2929999828338623 14.9870004653930664 -0.662999987602233887
1.2929999828338623 14.9969997406005859 -0.656000018119812012
1.25899994373321533 15.0290002822875977 -0.644999980926513672
1.28999996185302734 15.0500001907348633 -0.764999985694885254
1.29200005531311035 14.9879999160766602 -0.833000004291534424
1.24800002574920654 15.0419998168945312 -0.712000012397766113
1.24399995803833008 15.0380001068115234 -0.71399998664855957
1.2640000581741333 15.0260000228881836 -0.675999999046325684
1.26499998569488525 14.9770002365112305 -0.644999980926513672
1.26699995994567871 15.0249996185302734 -0.670000016689300537
1.2929999828338623 14.9820003509521484 -0.702000021934509277
1.2929999828338623 14.9829998016357422 -0.705999970436096191
1.27999997138977051 14.9799995422363281 -0.639999985694885254
1.27699995040893555 15.0500001907348633 -0.695999979972839355
1.28600001335144043 15.0349998474121094 -0.672999978065490723
1.28299999237060547 15 -0.675999999046325684
1.29999995231628418 14.991999626159668 -0.731999993324279785
1.29100000858306885 15.0270004272460938 -0.897000014781951904
1.31299996376037598 15.0100002288818359 -0.78200000524520874
1.2359999418258667 15.0380001068115234 -0.689999997615814209
1.24199998378753662 15.0500001907348633 -0.643999993801116943
1.27699995040893555 15.0489997863769531 -0.776000022888183594
1.29400002956390381 14.991999626159668 -0.689999997615814209
1.27600002288818359 15.0410003662109375 -0.795000016689300537
1.25499999523162842 15.0360002517700195 -0.69300001859664917
1.27900004386901855 15.0459995269775391 -0.694999992847442627
1.28499996662139893 14.9799995422363281 -0.634999990463256836
1.26900005340576172 15.0439996719360352 -0.779999971389770508
1.26900005340576172 15.0200004577636719 -0.658999979496002197
1.29100000858306885 15.0260000228881836 -0.890999972820281982
1.31500005722045898 15.008000373840332 -0.773999989032745361
1.29900002479553223 15.0380001068115234 -0.753000020980834961
1.28100001811981201 15.0240001678466797 -0.675000011920928955
1.28400003910064697 15.0019998550415039 -0.638999998569488525
1.29900002479553223 15.0299997329711914 -0.912999987602233887
1.25699996948242188 15.0430002212524414 -0.639999985694885254
1.24600005149841309 15.0369997024536133 -0.702000021934509277
1.27300000190734863 15.0170001983642578 -0.651000022888183594
1.31099998950958252 15.0019998550415039 -0.856999993324279785
1.26900005340576172 15.0290002822875977 -0.791999995708465576
1.28100001811981201 15.0459995269775391 -0.691999971866607666
1.29700005054473877 15.0249996185302734 -0.884999990463256836
1.30099999904632568 14.9980001449584961 -0.773000001907348633
1.3049999475479126 14.9960002899169922 -0.820999979972839355
1.29499995708465576 14.9969997406005859 -0.824000000953674316
1.29400002956390381 14.991999626159668 -0.829999983310699463
1.29900002479553223 14.991999626159668 -0.837000012397766113
1.27799999713897705 15.0450000762939453 -0.699999988079071045
1.23899996280670166 15.0240001678466797 -0.680000007152557373
1.24100005626678467 15.0360002517700195 -0.695999979972839355
1.2640000581741333 15.050999641418457 -0.666999995708465576
1.28499996662139893 15.0220003128051758 -0.660000026226043701
1.25899994373321533 15.0279998779296875 -0.660000026226043701
1.2630000114440918 15.0159997940063477 -0.651000022888183594
1.27999997138977051 15.0019998550415039 -0.652000010013580322
1.28900003433227539 15.0220003128051758 -0.815999984741210938
1.30099999904632568 15.0010004043579102 -0.829999983310699463
1.24600005149841309 15.0419998168945312 -0.662999987602233887
1.31299996376037598 15.0170001983642578 -0.827000021934509277
1.27199995517730713 15.005000114440918 -0.861999988555908203
1.2929999828338623 14.9899997711181641 -0.675999999046325684
1.29200005531311035 15.0319995880126953 -0.898999989032745361
1.28600001335144043 15.0410003662109375 -0.801999986171722412
1.31099998950958252 15.0380001068115234 -0.836000025272369385
1.29200005531311035 15.0129995346069336 -0.874000012874603271
1.29100000858306885 15.0249996185302734 -0.856000006198883057
1.28299999237060547 15.0109996795654297 -0.86799997091293335
1.28900003433227539 15.0139999389648438 -0.864000022411346436
1.28799998760223389 15.0319995880126953 -0.888999998569488525
1.29200005531311035 15.0319995880126953 -0.90700000524520874
1.26800000667572021 15.0459995269775391 -0.704999983310699463
1.25885140895843506 15.036036491394043 -0.72196274995803833
1.24399995803833008 15.0360002517700195 -0.634999990463256836
1.28799998760223389 15.0450000762939453 -0.671000003814697266
1.28400003910064697 15.0410003662109375 -0.80699998140335083
1.27600002288818359 14.9930000305175781 -0.866999983787536621
1.24699997901916504 15.0539999008178711 -0.639999985694885254
1.29902756214141846 15.0329923629760742 -0.902003943920135498
1.29200005531311035 15.0290002822875977 -0.884999990463256836
1.2510000467300415 15.0439996719360352 -0.705999970436096191
1.2510000467300415 15.0360002517700195 -0.699000000953674316
1.30799996852874756 15.0310001373291016 -0.787999987602233887
1.2630000114440918 14.9809999465942383 -0.633000016212463379
1.28299999237060547 15.0520000457763672 -0.672999978065490723
1.24199998378753662 15.0260000228881836 -0.686999976634979248
1.28699994087219238 15.0419998168945312 -0.684000015258789062
1.26999998092651367 14.9960002899169922 -0.629000008106231689
1.2630000114440918 14.9870004653930664 -0.642000019550323486
1.26199996471405029 15.0550003051757812 -0.691999971866607666
1.27999997138977051 15.0530004501342773 -0.663999974727630615
1.27699995040893555 14.9680004119873047 -0.652000010013580322
1.27900004386901855 14.9779996871948242 -0.63200002908706665
1.26999998092651367 15.0539999008178711 -0.68900001049041748
1.24300003051757812 15.0340003967285156 -0.643000006675720215
1.29600000381469727 14.9870004653930664 -0.708000004291534424
1.30099999904632568 14.9860000610351562 -0.739000022411346436
1.2510000467300415 15.0279998779296875 -0.686999976634979248
1 1 1
1.2929999828338623 15.0229997634887695 -0.764999985694885254
1.27999997138977051 15.0319995880126953 -0.652999997138977051
1.2510000467300415 15.0439996719360352 -0.712000012397766113
1.26100003719329834 15.0539999008178711 -0.675999999046325684
1.25899994373321533 15.0109996795654297 -0.642000019550323486
1.28999996185302734 15.0590000152587891 -0.676999986171722412
1.26900005340576172 15.0249996185302734 -0.676999986171722412
1.29600000381469727 15.0139999389648438 -0.764999985694885254
1.28499996662139893 15.0419998168945312 -0.663999974727630615
1.2640000581741333 15.0369997024536133 -0.787999987602233887
1.30700004100799561 15.0129995346069336 -0.791000008583068848
1.29499995708465576 14.9969997406005859 -0.717000007629394531
1.26900005340576172 15.0489997863769531 -0.772000014781951904
1.28199994564056396 15.0539999008178711 -0.684000015258789062
3 77 76 192 255 255 255
3 192 36 77 255 255 255
3 76 106 192 255 255 255
3 77 211 76 255 255 255
3 36 78 77 255 255 255
3 192 199 36 255 255 255
3 106 79 192 255 255 255
3 77 80 211 255 255 255
3 78 42 77 255 255 255
3 192 81 199 255 255 255
3 79 82 192 255 255 255
3 80 235 211 255 255 255
3 77 235 80 255 255 255
3 77 83 235 255 255 255
3 78 84 42 255 255 255
3 81 37 199 255 255 255
3 82 313 192 255 255 255
3 79 63 82 255 255 255
3 83 318 235 255 255 255
3 84 270 42 255 255 255
3 78 315 84 255 255 255
3 37 188 199 255 255 255
3 81 19 37 255 255 255
3 82 103 313 255 255 255
3 79 20 63 255 255 255
3 318 117 235 255 255 255
3 83 15 318 255 255 255
3 270 104 42 255 255 255
3 84 105 270 255 255 255
3 78 117 315 255 255 255
3 188 5 199 255 255 255
3 19 7 37 255 255 255
3 81 76 19 255 255 255
3 103 130 313 255 255 255
3 82 20 103 255 255 255
3 20 313 63 255 255 255
3 79 106 20 255 255 255
3 83 84 15 255 255 255
3 104 118 42 255 255 255
3 270 119 104 255 255 255
3 105 153 270 255 255 255
3 117 15 315 255 255 255
3 188 63 5 255 255 255
3 76 120 19 255 255 255
3 81 106 76 255 255 255
3 103 121 130 255 255 255
3 20 316 103 255 255 255
3 82 238 20 255 255 255
3 20 178 313 255 255 255
3 83 229 84 255 255 255
3 118 122 42 255 255 255
3 104 121 118 255 255 255
3 119 123 104 255 255 255
3 270 124 119 255 255 255
3 105 124 153 255 255 255
3 117 318 15 255 255 255
3 120 7 19 255 255 255
3 120 239 7 255 255 255
3 76 211 120 255 255 255
3 121 148 130 255 255 255
3 103 5 121 255 255 255
3 20 226 316 255 255 255
3 82 188 238 255 255 255
3 20 149 178 255 255 255
3 122 83 42 255 255 255
3 123 150 104 255 255 255
3 119 151 123 255 255 255
3 124 263 119 255 255 255
3 270 231 124 255 255 255
3 105 263 124 255 255 255
3 120 192 239 255 255 255
3 148 154 130 255 255 255
3 121 123 148 255 255 255
3 188 152 238 255 255 255
3 82 106 188 255 255 255
3 149 130 178 255 255 255
3 122 315 83 255 255 255
3 150 153 104 255 255 255
3 151 103 123 255 255 255
3 119 154 151 255 255 255
3 270 150 231 255 255 255
3 192 7 239 255 255 255
3 148 105 154 255 255 255
3 123 155 148 255 255 255
3 152 28 238 255 255 255
3 149 29 130 255 255 255
3 153 112 104 255 255 255
3 150 175 153 255 255 255
3 151 29 103 255 255 255
3 154 176 151 255 255 255
3 150 78 231 255 255 255
3 148 143 105 255 255 255
3 155 270 148 255 255 255
3 28 226 238 255 255 255
3 152 250 28 255 255 255
3 29 176 130 255 255 255
3 112 151 104 255 255 255
3 175 247 153 255 255 255
3 150 177 175 255 255 255
3 29 178 103 255 255 255
3 154 179 176 255 255 255
3 150 180 78 255 255 255
3 148 118 143 255 255 255
3 28 181 226 255 255 255
3 250 181 28 255 255 255
3 152 91 250 255 255 255
3 176 112 130 255 255 255
3 175 122 247 255 255 255
3 177 306 175 255 255 255
3 150 155 177 255 255 255
3 178 91 103 255 255 255
3 29 250 178 255 255 255
3 179 182 176 255 255 255
3 180 117 78 255 255 255
3 180 211 117 255 255 255
3 118 180 143 255 255 255
3 181 149 226 255 255 255
3 176 75 112 255 255 255
3 175 306 122 255 255 255
3 177 190 306 255 255 255
3 155 191 177 255 255 255
3 150 143 155 255 255 255
3 182 75 176 255 255 255
3 182 251 75 255 255 255
3 179 251 182 255 255 255
3 179 252 251 255 255 255
3 180 235 143 255 255 255
3 118 306 180 255 255 255
3 149 316 226 255 255 255
3 75 125 112 255 255 255
3 190 82 306 255 255 255
3 191 190 177 255 255 255
3 251 266 75 255 255 255
3 252 253 251 255 255 255
3 179 21 252 255 255 255
3 125 22 112 255 255 255
3 251 189 266 255 255 255
3 253 254 251 255 255 255
3 252 107 253 255 255 255
3 21 126 252 255 255 255
3 22 147 112 255 255 255
3 125 189 22 255 255 255
3 189 23 266 255 255 255
3 251 264 189 255 255 255
3 254 264 251 255 255 255
3 254 113 264 255 255 255
3 253 212 254 255 255 255
3 107 212 253 255 255 255
3 252 126 107 255 255 255
3 126 173 107 255 255 255
3 147 191 112 255 255 255
3 23 34 266 255 255 255
3 189 70 23 255 255 255
3 254 174 113 255 255 255
3 173 146 107 255 255 255
3 126 27 173 255 255 255
3 191 316 112 255 255 255
3 34 22 266 255 255 255
3 23 271 34 255 255 255
3 70 30 23 255 255 255
3 189 146 70 255 255 255
3 174 246 113 255 255 255
3 254 31 174 255 255 255
3 146 31 107 255 255 255
3 27 110 173 255 255 255
3 126 263 27 255 255 255
3 191 289 316 255 255 255
3 34 147 22 255 255 255
3 34 111 147 255 255 255
3 271 111 34 255 255 255
3 271 25 111 255 255 255
3 23 30 271 255 255 255
3 30 114 271 255 255 255
3 70 193 30 255 255 255
3 146 193 70 255 255 255
3 174 32 246 255 255 255
3 31 109 174 255 255 255
3 110 26 173 255 255 255
3 27 24 110 255 255 255
3 191 104 289 255 255 255
3 111 35 147 255 255 255
3 25 24 111 255 255 255
3 271 33 25 255 255 255
3 30 193 114 255 255 255
3 193 196 114 255 255 255
3 32 193 246 255 255 255
3 174 272 32 255 255 255
3 109 108 174 255 255 255
3 26 273 173 255 255 255
3 110 89 26 255 255 255
3 24 25 110 255 255 255
3 27 124 24 255 255 255
3 104 190 289 255 255 255
3 35 24 147 255 255 255
3 24 35 111 255 255 255
3 33 26 25 255 255 255
3 193 32 196 255 255 255
3 32 194 196 255 255 255
3 193 113 246 255 255 255
3 272 168 32 255 255 255
3 174 108 272 255 255 255
3 108 195 272 255 255 255
3 109 197 108 255 255 255
3 273 109 173 255 255 255
3 26 33 273 255 255 255
3 33 196 273 255 255 255
3 89 107 26 255 255 255
3 124 66 24 255 255 255
3 194 168 196 255 255 255
3 168 194 32 255 255 255
3 272 195 168 255 255 255
3 195 237 168 255 255 255
3 108 237 195 255 255 255
3 273 274 109 255 255 255
3 196 275 273 255 255 255
3 33 114 196 255 255 255
3 89 125 107 255 255 255
3 124 282 66 255 255 255
3 168 10 196 255 255 255
3 237 249 168 255 255 255
3 274 267 109 255 255 255
3 275 274 273 255 255 255
3 275 108 274 255 255 255
3 125 264 107 255 255 255
3 89 147 125 255 255 255
3 124 231 282 255 255 255
3 168 249 10 255 255 255
3 249 67 10 255 255 255
3 237 67 249 255 255 255
3 237 225 67 255 255 255
3 274 197 267 255 255 255
3 125 75 264 255 255 255
3 75 179 264 255 255 255
3 67 285 10 255 255 255
3 225 73 67 255 255 255
3 237 276 225 255 255 255
3 197 283 267 255 255 255
3 179 212 264 255 255 255
3 73 242 67 255 255 255
3 225 277 73 255 255 255
3 276 269 225 255 255 255
3 237 169 276 255 255 255
3 242 285 67 255 255 255
3 277 242 73 255 255 255
3 277 285 242 255 255 255
3 277 269 285 255 255 255
3 269 277 225 255 255 255
3 276 285 269 255 255 255
3 276 10 285 255 255 255
3 276 286 10 255 255 255
3 237 11 169 255 255 255
3 286 11 10 255 255 255
3 276 169 286 255 255 255
3 237 10 11 255 255 255
3 237 1 10 255 255 255
3 286 169 11 255 255 255
3 278 279 308 255 255 255
3 308 287 278 255 255 255
3 279 213 308 255 255 255
3 287 12 278 255 255 255
3 308 156 287 255 255 255
3 213 156 308 255 255 255
3 213 214 156 255 255 255
3 279 214 213 255 255 255
3 12 221 278 255 255 255
3 287 41 12 255 255 255
3 156 160 287 255 255 255
3 214 257 156 255 255 255
3 279 90 214 255 255 255
3 221 255 278 255 255 255
3 12 300 221 255 255 255
3 41 300 12 255 255 255
3 41 55 300 255 255 255
3 160 232 287 255 255 255
3 156 257 160 255 255 255
3 257 65 160 255 255 255
3 214 47 257 255 255 255
3 90 244 214 255 255 255
3 279 13 90 255 255 255
3 13 288 90 255 255 255
3 279 278 13 255 255 255
3 278 59 13 255 255 255
3 221 184 255 255 255 255
3 300 157 221 255 255 255
3 55 309 300 255 255 255
3 41 0 55 255 255 255
3 232 13 287 255 255 255
3 160 0 232 255 255 255
3 257 85 65 255 255 255
3 47 227 257 255 255 255
3 90 288 244 255 255 255
3 288 257 244 255 255 255
3 13 232 288 255 255 255
3 232 304 288 255 255 255
3 278 255 59 255 255 255
3 255 233 59 255 255 255
3 221 145 184 255 255 255
3 157 319 221 255 255 255
3 300 296 157 255 255 255
3 55 48 309 255 255 255
3 0 86 55 255 255 255
3 13 214 287 255 255 255
3 0 65 232 255 255 255
3 160 244 0 255 255 255
3 85 183 65 255 255 255
3 47 256 227 255 255 255
3 304 47 288 255 255 255
3 232 171 304 255 255 255
3 233 94 59 255 255 255
3 255 248 233 255 255 255
3 145 319 184 255 255 255
3 319 145 221 255 255 255
3 157 311 319 255 255 255
3 296 309 157 255 255 255
3 300 233 296 255 255 255
3 48 185 309 255 255 255
3 55 165 48 255 255 255
3 86 165 55 255 255 255
3 86 48 165 255 255 255
3 86 265 48 255 255 255
3 0 227 86 255 255 255
3 65 171 232 255 255 255
3 65 183 171 255 255 255
3 183 256 171 255 255 255
3 160 8 244 255 255 255
3 256 183 227 255 255 255
3 47 292 256 255 255 255
3 304 292 47 255 255 255
3 304 171 292 255 255 255
3 171 256 292 255 255 255
3 94 51 59 255 255 255
3 255 184 248 255 255 255
3 184 293 248 255 255 255
3 319 311 184 255 255 255
3 311 74 184 255 255 255
3 157 297 311 255 255 255
3 309 6 157 255 255 255
3 296 41 309 255 255 255
3 185 172 309 255 255 255
3 48 265 185 255 255 255
3 265 16 185 255 255 255
3 86 65 265 255 255 255
3 160 39 8 255 255 255
3 94 6 51 255 255 255
3 293 128 248 255 255 255
3 184 74 293 255 255 255
3 74 142 293 255 255 255
3 311 158 74 255 255 255
3 297 158 311 255 255 255
3 297 14 158 255 255 255
3 6 297 157 255 255 255
3 6 258 297 255 255 255
3 41 86 309 255 255 255
3 296 160 41 255 255 255
3 172 258 309 255 255 255
3 185 202 172 255 255 255
3 265 203 16 255 255 255
3 94 291 6 255 255 255
3 293 142 128 255 255 255
3 142 198 128 255 255 255
3 74 281 142 255 255 255
3 158 14 74 255 255 255
3 14 18 74 255 255 255
3 297 170 14 255 255 255
3 258 170 297 255 255 255
3 258 172 170 255 255 255
3 172 187 170 255 255 255
3 202 40 172 255 255 255
3 203 301 16 255 255 255
3 265 202 203 255 255 255
3 291 170 6 255 255 255
3 94 248 291 255 255 255
3 198 4 128 255 255 255
3 142 222 198 255 255 255
3 281 18 142 255 255 255
3 18 281 74 255 255 255
3 14 43 18 255 255 255
3 170 64 14 255 255 255
3 187 164 170 255 255 255
3 172 51 187 255 255 255
3 301 228 16 255 255 255
3 203 206 301 255 255 255
3 202 38 203 255 255 255
3 94 93 248 255 255 255
3 198 72 4 255 255 255
3 222 43 198 255 255 255
3 43 142 18 255 255 255
3 43 222 142 255 255 255
3 14 164 43 255 255 255
3 187 87 164 255 255 255
3 51 314 187 255 255 255
3 301 280 228 255 255 255
3 206 102 301 255 255 255
3 203 71 206 255 255 255
3 38 71 203 255 255 255
3 38 215 71 255 255 255
3 198 43 72 255 255 255
3 43 259 72 255 255 255
3 164 307 43 255 255 255
3 14 64 164 255 255 255
3 87 307 164 255 255 255
3 87 56 307 255 255 255
3 187 243 87 255 255 255
3 280 131 228 255 255 255
3 301 102 280 255 255 255
3 102 127 280 255 255 255
3 206 210 102 255 255 255
3 71 260 206 255 255 255
3 215 217 71 255 255 255
3 72 200 4 255 255 255
3 259 56 72 255 255 255
3 43 307 259 255 255 255
3 56 259 307 255 255 255
3 87 92 56 255 255 255
3 243 58 87 255 255 255
3 131 284 228 255 255 255
3 280 127 131 255 255 255
3 127 2 131 255 255 255
3 102 58 127 255 255 255
3 210 92 102 255 255 255
3 260 261 206 255 255 255
3 71 236 260 255 255 255
3 217 236 71 255 255 255
3 217 207 236 255 255 255
3 215 312 217 255 255 255
3 200 201 4 255 255 255
3 72 204 200 255 255 255
3 56 186 72 255 255 255
3 92 245 56 255 255 255
3 243 127 58 255 255 255
3 243 2 127 255 255 255
3 243 9 2 255 255 255
3 131 2 284 255 255 255
3 2 9 284 255 255 255
3 210 206 92 255 255 255
3 206 3 92 255 255 255
3 261 310 206 255 255 255
3 260 3 261 255 255 255
3 207 261 236 255 255 255
3 217 312 207 255 255 255
3 312 4 207 255 255 255
3 201 205 4 255 255 255
3 200 204 201 255 255 255
3 204 208 201 255 255 255
3 72 209 204 255 255 255
3 186 209 72 255 255 255
3 186 262 209 255 255 255
3 56 262 186 255 255 255
3 56 245 262 255 255 255
3 245 95 262 255 255 255
3 92 116 245 255 255 255
3 3 116 92 255 255 255
3 3 96 116 255 255 255
3 261 129 310 255 255 255
3 3 69 261 255 255 255
3 260 236 3 255 255 255
3 207 115 261 255 255 255
3 4 97 207 255 255 255
3 312 240 4 255 255 255
3 205 230 4 255 255 255
3 201 268 205 255 255 255
3 208 268 201 255 255 255
3 208 98 268 255 255 255
3 204 99 208 255 255 255
3 209 100 204 255 255 255
3 262 99 209 255 255 255
3 95 101 262 255 255 255
3 116 115 245 255 255 255
3 96 159 116 255 255 255
3 3 97 96 255 255 255
3 129 159 310 255 255 255
3 3 68 69 255 255 255
3 207 69 115 255 255 255
3 97 68 207 255 255 255
3 4 161 97 255 255 255
3 240 128 4 255 255 255
3 240 312 128 255 255 255
3 312 93 128 255 255 255
3 205 98 230 255 255 255
3 98 205 268 255 255 255
3 99 162 208 255 255 255
3 204 100 99 255 255 255
3 100 241 99 255 255 255
3 262 101 99 255 255 255
3 101 163 99 255 255 255
3 95 44 101 255 255 255
3 159 294 116 255 255 255
3 96 61 159 255 255 255
3 97 45 96 255 255 255
3 3 207 68 255 255 255
3 161 46 97 255 255 255
3 4 209 161 255 255 255
3 93 94 128 255 255 255
3 98 49 230 255 255 255
3 162 50 208 255 255 255
3 99 163 162 255 255 255
3 163 234 162 255 255 255
3 101 52 163 255 255 255
3 44 52 101 255 255 255
3 44 53 52 255 255 255
3 95 294 44 255 255 255
3 96 295 61 255 255 255
3 45 295 96 255 255 255
3 45 216 295 255 255 255
3 97 88 45 255 255 255
3 46 88 97 255 255 255
3 46 50 88 255 255 255
3 209 162 161 255 255 255
3 49 218 230 255 255 255
3 98 218 49 255 255 255
3 50 132 208 255 255 255
3 162 298 50 255 255 255
3 163 52 234 255 255 255
3 52 299 234 255 255 255
3 53 299 52 255 255 255
3 53 60 299 255 255 255
3 294 53 44 255 255 255
3 294 60 53 255 255 255
3 295 290 61 255 255 255
3 216 290 295 255 255 255
3 216 133 290 255 255 255
3 45 88 216 255 255 255
3 50 216 88 255 255 255
3 50 134 216 255 255 255
3 46 161 50 255 255 255
3 161 17 50 255 255 255
3 218 302 230 255 255 255
3 132 98 208 255 255 255
3 132 140 98 255 255 255
3 50 97 132 255 255 255
3 298 134 50 255 255 255
3 299 133 234 255 255 255
3 294 290 60 255 255 255
3 133 60 290 255 255 255
3 133 299 60 255 255 255
3 216 134 133 255 255 255
3 134 298 133 255 255 255
3 298 234 133 255 255 255
3 302 317 230 255 255 255
3 218 219 302 255 255 255
3 132 223 140 255 255 255
3 97 223 132 255 255 255
3 50 220 97 255 255 255
3 294 61 290 255 255 255
3 302 135 317 255 255 255
3 219 136 302 255 255 255
3 223 230 140 255 255 255
3 220 62 97 255 255 255
3 50 144 220 255 255 255
3 135 224 317 255 255 255
3 302 54 135 255 255 255
3 136 54 302 255 255 255
3 136 137 54 255 255 255
3 223 4 230 255 255 255
3 220 144 62 255 255 255
3 224 166 317 255 255 255
3 135 54 224 255 255 255
3 54 167 224 255 255 255
3 137 303 54 255 255 255
3 224 303 166 255 255 255
3 303 167 54 255 255 255
3 303 224 167 255 255 255
3 137 138 303 255 255 255
3 303 138 166 255 255 255
3 138 141 166 255 255 255
3 137 141 138 255 255 255
3 137 57 141 255 255 255
3 57 166 141 255 255 255
3 57 317 166 255 255 255
3 57 139 317 255 255 255
3 137 139 57 255 255 255
3 139 136 317 255 255 255
3 136 219 317 255 255 255
3 219 230 317 255 255 255
3 139 137 136 255 255 255
3 305 305 305 255 255 255
