ply
format ascii 1.0
element vertex 332
property float x
property float y
property float z
element face 576
property list uchar int vertex_indices
property uchar red
property uchar green
property uchar blue
end_header
3.76200008392333984 11.883000373840332 -0.822000026702880859
3.81612062454223633 11.9514226913452148 -0.821395695209503174
3.76497864723205566 11.8918266296386719 -0.58022463321685791
3.72476530075073242 11.8959140777587891 -0.835379600524902344
3.75799989700317383 11.8870000839233398 -0.822000026702880859
3.74799990653991699 11.8380002975463867 -0.776000022888183594
3.76600003242492676 11.8599996566772461 -0.690999984741210938
3.75500011444091797 11.8509998321533203 -0.671000003814697266
3.7597498893737793 11.8610000610351562 -0.682250022888183594
3.75 11.8610000610351562 -0.628000020980834961
3.75699996948242188 11.8540000915527344 -0.621999979019165039
3.75964164733886719 11.8635463714599609 -0.607542037963867188
3.76200008392333984 11.8789997100830078 -0.621999979019165039
3.77699995040893555 11.9230003356933594 -0.552999973297119141
3.7561650276184082 11.9230747222900391 -0.545169353485107422
3.90799999237060547 12.0299997329711914 -0.746999979019165039
3.88400006294250488 12.0260000228881836 -0.746999979019165039
3.76099991798400879 11.9289999008178711 -0.56400001049041748
3.75200009346008301 11.824000358581543 -0.906000018119812012
3.88599991798400879 12.0200004577636719 -0.740000009536743164
3.89499998092651367 12.0139999389648438 -0.769999980926513672
3.8880000114440918 12.0159997940063477 -0.736000001430511475
3.87199997901916504 12.0120000839233398 -0.739000022411346436
3.86389684677124023 12.0168094635009766 -0.754386186599731445
3.88391256332397461 12.019744873046875 -0.761520504951477051
3.8190000057220459 11.9449996948242188 -0.80699998140335083
3.84911799430847168 11.9435386657714844 -0.785787403583526611
3.90622067451477051 12.0146465301513672 -0.76380389928817749
3.85853815078735352 11.9547815322875977 -0.762198150157928467
3.82299995422363281 11.949000358581543 -0.800999999046325684
3.89672350883483887 11.9966611862182617 -0.678216159343719482
3.88000011444091797 11.9890003204345703 -0.68599998950958252
3.87913703918457031 11.9962635040283203 -0.681413114070892334
3.87800002098083496 11.9980001449584961 -0.690999984741210938
3.88499999046325684 11.991999626159668 -0.699999988079071045
3.77500009536743164 11.8400001525878906 -0.84299999475479126
3.75406074523925781 11.8389205932617188 -0.770615637302398682
3.76099991798400879 11.8570003509521484 -0.708000004291534424
3.76099991798400879 11.8559999465942383 -0.71399998664855957
3.7602226734161377 11.8340969085693359 -0.725670397281646729
3.82169389724731445 11.9218177795410156 -0.786798477172851562
3.8344275951385498 11.9671669006347656 -0.831330478191375732
3.88499999046325684 12.0129995346069336 -0.736999988555908203
3.75600004196166992 11.8789997100830078 -0.606999993324279785
3.75500011444091797 11.8290004730224609 -0.810000002384185791
3.76070475578308105 11.9145975112915039 -0.538105010986328125
3.77102518081665039 11.8390302658081055 -0.904989957809448242
3.85299992561340332 11.9549999237060547 -0.778999984264373779
3.84599995613098145 11.9340000152587891 -0.797999978065490723
3.83500003814697266 11.9639997482299805 -0.781000018119812012
3.76691079139709473 11.900050163269043 -0.55005723237991333
3.77600002288818359 11.9230003356933594 -0.559000015258789062
3.76600003242492676 11.9180002212524414 -0.56400001049041748
3.77600002288818359 11.9049997329711914 -0.541000008583068848
3.79928064346313477 11.943873405456543 -0.824899792671203613
3.75999999046325684 11.8170003890991211 -0.89999997615814209
3.75900006294250488 11.8990001678466797 -0.537000000476837158
3.90700006484985352 12.0240001678466797 -0.745999991893768311
3.74799990653991699 11.8199996948242188 -0.894999980926513672
3.7630000114440918 11.8120002746582031 -0.904999971389770508
3.86409711837768555 11.9455423355102539 -0.773952722549438477
3.8280789852142334 11.977564811706543 -0.837640285491943359
3.76600003242492676 11.8999996185302734 -0.591000020503997803
3.74528217315673828 11.8510780334472656 -0.580790698528289795
3.82898378372192383 11.9229469299316406 -0.753086745738983154
3.76099991798400879 11.8570003509521484 -0.689999997615814209
3.87800002098083496 12.0010004043579102 -0.686999976634979248
3.88422632217407227 12.0577793121337891 -0.704940974712371826
3.89032602310180664 12.062159538269043 -0.707407236099243164
3.89199995994567871 12.0329999923706055 -0.777000010013580322
3.89100003242492676 12.0520000457763672 -0.787000000476837158
3.88400006294250488 12.0539999008178711 -0.78600001335144043
3.89247584342956543 12.0327205657958984 -0.787477552890777588
3.87755560874938965 12.0349340438842773 -0.785534143447875977
3.88515090942382812 12.0270719528198242 -0.768623471260070801
3.88921952247619629 12.053614616394043 -0.805474638938903809
3.83382058143615723 11.9836835861206055 -0.783433318138122559
3.82899999618530273 11.9700002670288086 -0.791000008583068848
3.73551678657531738 11.8487520217895508 -0.563731968402862549
3.74499988555908203 11.8549995422363281 -0.572000026702880859
3.77300000190734863 11.8970003128051758 -0.578999996185302734
3.75901532173156738 11.8598089218139648 -0.588099420070648193
3.77300000190734863 11.9239997863769531 -0.545000016689300537
3.75925183296203613 11.8552274703979492 -0.664708733558654785
3.85800004005432129 11.9300003051757812 -0.797999978065490723
3.7630000114440918 11.8570003509521484 -0.81800001859664917
3.74866342544555664 11.8315935134887695 -0.803784072399139404
3.75300002098083496 11.8350000381469727 -0.841000020503997803
3.75860691070556641 11.8651285171508789 -0.689125001430511475
3.75625967979431152 11.8480367660522461 -0.68387073278427124
3.75999999046325684 11.8529996871948242 -0.676999986171722412
3.75900006294250488 11.8500003814697266 -0.637000024318695068
3.76387310028076172 11.868952751159668 -0.618474662303924561
3.76053404808044434 11.8572759628295898 -0.6261863112449646
3.75263619422912598 11.8515281677246094 -0.597341477870941162
3.72699999809265137 11.8509998321533203 -0.555999994277954102
3.75200009346008301 11.824000358581543 -0.916999995708465576
3.82294845581054688 11.9715671539306641 -0.766315460205078125
3.85400009155273438 11.9399995803833008 -0.788999974727630615
3.80251836776733398 11.9316244125366211 -0.816038668155670166
3.75300002098083496 11.8420000076293945 -0.796000003814697266
3.74900007247924805 11.8870000839233398 -0.555000007152557373
3.87211298942565918 11.9263648986816406 -0.803830087184906006
3.75399994850158691 11.8549995422363281 -0.679000020027160645
3.80887031555175781 11.9116086959838867 -0.734549880027770996
3.74809408187866211 11.8547821044921875 -0.593389928340911865
3.75747466087341309 11.8193168640136719 -0.887139379978179932
3.80100011825561523 11.9650001525878906 -0.819999992847442627
3.88499999046325684 11.9940004348754883 -0.704999983310699463
3.73300004005432129 11.8950004577636719 -0.856000006198883057
3.72455239295959473 11.9042844772338867 -0.852887809276580811
3.76099991798400879 11.8629999160766602 -0.81800001859664917
3.75900006294250488 11.8380002975463867 -0.81400001049041748
3.75999999046325684 11.8439998626708984 -0.828999996185302734
3.76125645637512207 11.8267068862915039 -0.791377365589141846
3.76206326484680176 11.8396577835083008 -0.844635605812072754
3.76131749153137207 11.8554039001464844 -0.760095298290252686
3.76200008392333984 11.8380002975463867 -0.847999989986419678
3.91400003433227539 11.9980001449584961 -0.625999987125396729
3.75999999046325684 11.8870000839233398 -0.603999972343444824
3.9171452522277832 12.0140657424926758 -0.712529122829437256
3.80008554458618164 11.9487485885620117 -0.807485640048980713
3.82299995422363281 11.9759998321533203 -0.71799999475479126
3.75500011444091797 11.8269996643066406 -0.816999971866607666
3.75844907760620117 11.9228992462158203 -0.56484675407409668
3.81800007820129395 11.9700002670288086 -0.796000003814697266
3.82087993621826172 11.9789047241210938 -0.837005615234375
3.82461261749267578 11.9666576385498047 -0.696567773818969727
3.75200009346008301 11.9329996109008789 -0.545000016689300537
3.82700014114379883 11.9785003662109375 -0.788500010967254639
3.92700004577636719 12.0129995346069336 -0.685000002384185791
3.92499995231628418 12 -0.643000006675720215
3.92100000381469727 12.0200004577636719 -0.686999976634979248
3.89700007438659668 12.0299997329711914 -0.697000026702880859
3.89069366455078125 12.0616788864135742 -0.687877655029296875
3.91199994087219238 12.0179996490478516 -0.712000012397766113
3.88899993896484375 12.0120000839233398 -0.698000013828277588
3.88599991798400879 12.005000114440918 -0.68199998140335083
3.88235259056091309 12.0607233047485352 -0.692178905010223389
3.88803768157958984 12.0469064712524414 -0.700121819972991943
3.74000954627990723 11.8559980392456055 -0.579041242599487305
3.75883173942565918 11.8523311614990234 -0.747044026851654053
3.75500011444091797 11.8450002670288086 -0.809000015258789062
3.76999998092651367 11.8579998016357422 -0.762000024318695068
3.75750494003295898 11.8500432968139648 -0.756211459636688232
3.76799988746643066 11.8579998016357422 -0.721000015735626221
3.75193881988525391 11.8663311004638672 -0.69660639762878418
3.76234078407287598 11.8575267791748047 -0.733458101749420166
3.75399231910705566 11.8499631881713867 -0.735033214092254639
3.75300002098083496 11.8409996032714844 -0.824000000953674316
3.76699995994567871 11.8360004425048828 -0.824000000953674316
3.76699995994567871 11.8559999465942383 -0.64999997615814209
3.81299996376037598 11.9090003967285156 -0.731000006198883057
3.80500006675720215 11.930999755859375 -0.802999973297119141
3.74430274963378906 11.8099422454833984 -0.900932490825653076
3.83122158050537109 11.968388557434082 -0.695139110088348389
3.86354255676269531 11.9305734634399414 -0.785211920738220215
3.84400010108947754 11.949000358581543 -0.81099998950958252
3.82200741767883301 11.9066476821899414 -0.780162394046783447
3.85750770568847656 11.945408821105957 -0.764464199542999268
3.75600004196166992 11.8430004119873047 -0.820999979972839355
3.76200008392333984 11.8380002975463867 -0.855000019073486328
3.77500009536743164 11.9160003662109375 -0.558000028133392334
3.75999999046325684 11.8170003890991211 -0.91100001335144043
3.7650001049041748 11.8990001678466797 -0.570999979972839355
3.90571188926696777 11.9970159530639648 -0.646067500114440918
3.75441622734069824 11.9052801132202148 -0.561250984668731689
3.89499998092651367 12.0170001983642578 -0.785000026226043701
3.86700010299682617 11.9429998397827148 -0.792999982833862305
3.75799989700317383 11.8739995956420898 -0.598999977111816406
3.76699995994567871 11.8369998931884766 -0.777000010013580322
3.86700010299682617 11.9680004119873047 -0.815500020980834961
3.75758004188537598 11.8670759201049805 -0.647625565528869629
3.89499998092651367 12.0290002822875977 -0.69300001859664917
3.9179999828338623 12.0109996795654297 -0.699000000953674316
3.89100003242492676 12.0069999694824219 -0.694999992847442627
3.91499996185302734 12.008000373840332 -0.674000024795532227
3.91400003433227539 12.0069999694824219 -0.656000018119812012
3.91400003433227539 12.0069999694824219 -0.667999982833862305
3.90219020843505859 12.0117483139038086 -0.632062673568725586
3.91402125358581543 12.014495849609375 -0.655326247215270996
3.9180302619934082 12.0050544738769531 -0.629073679447174072
3.90899991989135742 12.0089998245239258 -0.68599998950958252
3.76399993896484375 11.8529996871948242 -0.592000007629394531
3.7650001049041748 11.935999870300293 -0.560000002384185791
3.82200002670288086 11.9479999542236328 -0.828000009059906006
3.76399993896484375 11.8479995727539062 -0.808000028133392334
3.75912618637084961 11.8520174026489258 -0.653762936592102051
3.77399992942810059 11.8999996185302734 -0.55699998140335083
3.74499988555908203 11.8450002670288086 -0.569000005722045898
3.8320000171661377 11.9479999542236328 -0.815999984741210938
3.75600004196166992 11.9119997024536133 -0.561999976634979248
3.88400006294250488 12.005000114440918 -0.695999979972839355
3.74800848960876465 11.8270111083984375 -0.788174271583557129
3.74799990653991699 11.8680000305175781 -0.541000008583068848
3.83542537689208984 11.9189043045043945 -0.784323215484619141
3.75699996948242188 11.8730001449584961 -0.611999988555908203
3.74300003051757812 11.8909997940063477 -0.552999973297119141
3.75391125679016113 11.8550024032592773 -0.699889719486236572
3.76661276817321777 11.8482723236083984 -0.771765470504760742
3.88700008392333984 11.9890003204345703 -0.698000013828277588
3.89499998092651367 11.9899997711181641 -0.699000000953674316
3.73399996757507324 11.8690004348754883 -0.828999996185302734
3.72551631927490234 11.8771505355834961 -0.843840599060058594
3.73147177696228027 11.8741779327392578 -0.818537652492523193
3.73900008201599121 11.8640003204345703 -0.825999975204467773
3.71885490417480469 11.8784713745117188 -0.843831479549407959
3.74900007247924805 11.8649997711181641 -0.81099998950958252
3.73459553718566895 11.8531637191772461 -0.551557242870330811
3.80699992179870605 11.9610004425048828 -0.819999992847442627
3.83548402786254883 11.9771337509155273 -0.707954049110412598
3.76699995994567871 11.8870000839233398 -0.819999992847442627
3.84105825424194336 11.9762372970581055 -0.774484395980834961
3.79961967468261719 11.9414396286010742 -0.808216333389282227
3.89299988746643066 11.9879999160766602 -0.703999996185302734
3.74109292030334473 11.820037841796875 -0.909077465534210205
3.87673592567443848 11.957392692565918 -0.828677117824554443
3.83800005912780762 11.9860000610351562 -0.694999992847442627
3.87628960609436035 12.0074310302734375 -0.74316638708114624
3.91295576095581055 12.0158147811889648 -0.764633893966674805
3.91700005531311035 12.0100002288818359 -0.680999994277954102
3.88680052757263184 11.9979619979858398 -0.674183011054992676
3.88299989700317383 12.0109996795654297 -0.680000007152557373
3.91249990463256836 12.0085000991821289 -0.695999979972839355
3.76817822456359863 11.8213634490966797 -0.891062796115875244
3.82416749000549316 11.9272670745849609 -0.774393141269683838
3.81298017501831055 11.945256233215332 -0.821428120136260986
3.83308100700378418 11.9902706146240234 -0.72908550500869751
3.72900009155273438 11.9060001373291016 -0.848999977111816406
3.77399992942810059 11.9200000762939453 -0.56099998950958252
3.74399995803833008 11.880000114440918 -0.560000002384185791
3.82899999618530273 11.9700002670288086 -0.783999979496002197
3.77641630172729492 11.8367757797241211 -0.897675216197967529
3.76200008392333984 11.8409996032714844 -0.890999972820281982
3.79859423637390137 11.9628200531005859 -0.83894723653793335
3.73900008201599121 11.8690004348754883 -0.824000000953674316
3.83899998664855957 11.9540004730224609 -0.81099998950958252
3.75915837287902832 11.930363655090332 -0.539779245853424072
3.75399994850158691 11.8640003204345703 -0.533999979496002197
3.89199995994567871 12.0340003967285156 -0.695999979972839355
3.75614476203918457 11.9013299942016602 -0.531876802444458008
3.7602081298828125 11.8365659713745117 -0.884312570095062256
3.85800004005432129 11.9540004730224609 -0.772000014781951904
3.75611042976379395 11.8562898635864258 -0.648264288902282715
3.86270618438720703 11.9385957717895508 -0.797841191291809082
3.73399996757507324 11.8929996490478516 -0.820999979972839355
3.76200008392333984 11.875 -0.58899998664855957
3.74425649642944336 11.8128452301025391 -0.920224189758300781
3.83800005912780762 11.9540004730224609 -0.815999984741210938
3.75799989700317383 11.8710002899169922 -0.53600001335144043
3.7349998950958252 11.880000114440918 -0.828000009059906006
3.76699995994567871 11.8350000381469727 -0.847999989986419678
3.75600004196166992 11.8439998626708984 -0.669000029563903809
3.75500726699829102 11.8410654067993164 -0.725986778736114502
3.75228452682495117 11.8558969497680664 -0.669646084308624268
3.75799989700317383 11.8579998016357422 -0.63200002908706665
3.76600003242492676 11.8479995727539062 -0.648999989032745361
3.75399994850158691 11.8710002899169922 -0.609000027179718018
3.74791622161865234 11.8727073669433594 -0.596607744693756104
3.75900006294250488 11.8789997100830078 -0.586000025272369385
3.75227594375610352 11.8913602828979492 -0.585747778415679932
3.75399994850158691 11.8839998245239258 -0.566999971866607666
3.75200009346008301 11.8789997100830078 -0.569000005722045898
3.84999990463256836 11.9399995803833008 -0.769999980926513672
3.81992840766906738 11.9831247329711914 -0.704897105693817139
3.74799990653991699 11.8290004730224609 -0.816999971866607666
3.74600005149841309 11.8070001602172852 -0.919000029563903809
3.75399994850158691 11.8629999160766602 -0.623000025749206543
3.87100005149841309 11.9449996948242188 -0.800000011920928955
3.75500011444091797 11.883000373840332 -0.574999988079071045
3.85500001907348633 11.935999870300293 -0.778999984264373779
3.88404989242553711 12.0702886581420898 -0.695056378841400146
3.87100005149841309 11.9530000686645508 -0.823000013828277588
3.86210370063781738 11.9246749877929688 -0.805034220218658447
3.75699996948242188 11.8959999084472656 -0.578999996185302734
3.88100004196166992 12.0570001602172852 -0.800000011920928955
3.88499999046325684 12.0260000228881836 -0.754000008106231689
3.83905744552612305 11.9235048294067383 -0.79363483190536499
3.86999988555908203 12.0229997634887695 -0.754000008106231689
3.74699997901916504 11.8629999160766602 -0.577000021934509277
3.75699996948242188 11.8330001831054688 -0.83899998664855957
3.91400003433227539 12.0139999389648438 -0.640999972820281982
3.75699996948242188 11.8950004577636719 -0.545000016689300537
3.76566481590270996 11.9082431793212891 -0.580758392810821533
3.80699992179870605 11.9729995727539062 -0.819999992847442627
3.75200009346008301 11.8479995727539062 -0.620999991893768311
3.88378524780273438 12.0272274017333984 -0.78402179479598999
3.89100003242492676 12.0220003128051758 -0.75700002908706665
3.87700009346008301 12.0329999923706055 -0.791999995708465576
3.88461160659790039 12.0350074768066406 -0.802714884281158447
3.90100002288818359 12.0270004272460938 -0.753000020980834961
3.74699997901916504 11.9099998474121094 -0.545000016689300537
3.88100004196166992 12.0290002822875977 -0.764999985694885254
3.87540936470031738 12.0233068466186523 -0.764330685138702393
3.88480353355407715 12.057642936706543 -0.791024565696716309
3.73000001907348633 11.8579998016357422 -0.550999999046325684
3.81800007820129395 11.9700002670288086 -0.802999973297119141
3.82500004768371582 11.9879999160766602 -0.705999970436096191
3.7843775749206543 11.8422985076904297 -0.84724581241607666
3.76399993896484375 11.9110002517700195 -0.565999984741210938
3.83165097236633301 11.9225568771362305 -0.764287173748016357
3.82699990272521973 11.944000244140625 -0.820999979972839355
3.84599995613098145 11.9239997863769531 -0.787999987602233887
3.72900009155273438 11.875 -0.856000006198883057
3.83299994468688965 11.9650001525878906 -0.791000008583068848
1 1 1
3.82617449760437012 11.9907102584838867 -0.694298267364501953
3.75799989700317383 11.8900003433227539 -0.561999976634979248
3.74499988555908203 11.8170003890991211 -0.912999987602233887
3.75999999046325684 11.8710002899169922 -0.606999993324279785
3.76600003242492676 11.930999755859375 -0.566999971866607666
3.8599998950958252 11.9499998092651367 -0.777000010013580322
3.82699990272521973 11.9680004119873047 -0.837000012397766113
3.74900007247924805 11.9090003967285156 -0.559000015258789062
3.75399994850158691 11.8409996032714844 -0.790000021457672119
3.7510836124420166 11.8221378326416016 -0.803436756134033203
3.75999999046325684 11.8319997787475586 -0.824999988079071045
3.76171445846557617 11.8424863815307617 -0.789331436157226562
3.75300002098083496 11.8430004119873047 -0.78200000524520874
3.75399994850158691 11.8629999160766602 -0.816999971866607666
3.72725653648376465 11.8860015869140625 -0.855404138565063477
3.73900008201599121 11.8909997940063477 -0.84299999475479126
3.75856971740722656 11.8624801635742188 -0.812603414058685303
3.75911164283752441 11.8505935668945312 -0.80492699146270752
3.92325639724731445 11.9853782653808594 -0.638563990592956543
3.91898965835571289 11.9998931884765625 -0.656016767024993896
3.89599990844726562 11.9989995956420898 -0.679000020027160645
3.89149999618530273 11.9939994812011719 -0.690500020980834961
3.74499988555908203 11.883000373840332 -0.554000020027160645
3.77174592018127441 11.8962697982788086 -0.542310118675231934
3.75300002098083496 11.8120002746582031 -0.906000018119812012
3.90012812614440918 12.0110483169555664 -0.780440449714660645
3 180 179 281 255 255 255
3 179 181 281 255 255 255
3 180 165 179 255 255 255
3 178 177 180 255 255 255
3 180 176 178 255 255 255
3 179 118 181 255 255 255
3 177 165 180 255 255 255
3 177 178 165 255 255 255
3 176 182 178 255 255 255
3 180 130 176 255 255 255
3 181 131 281 255 255 255
3 118 324 181 255 255 255
3 182 326 178 255 255 255
3 176 132 182 255 255 255
3 130 220 176 255 255 255
3 131 180 281 255 255 255
3 181 324 131 255 255 255
3 324 325 131 255 255 255
3 179 324 118 255 255 255
3 179 165 324 255 255 255
3 325 324 165 255 255 255
3 326 221 178 255 255 255
3 182 175 326 255 255 255
3 132 173 182 255 255 255
3 130 174 220 255 255 255
3 325 180 131 255 255 255
3 326 137 221 255 255 255
3 175 32 326 255 255 255
3 182 136 175 255 255 255
3 173 222 182 255 255 255
3 132 133 173 255 255 255
3 174 182 220 255 255 255
3 325 165 178 255 255 255
3 326 327 137 255 255 255
3 136 66 175 255 255 255
3 182 223 136 255 255 255
3 173 239 222 255 255 255
3 133 134 173 255 255 255
3 132 135 133 255 255 255
3 174 223 182 255 255 255
3 174 135 223 255 255 255
3 326 30 327 255 255 255
3 175 192 32 255 255 255
3 173 134 239 255 255 255
3 134 138 239 255 255 255
3 133 139 134 255 255 255
3 135 136 133 255 255 255
3 132 120 135 255 255 255
3 137 66 221 255 255 255
3 327 33 137 255 255 255
3 30 201 327 255 255 255
3 31 221 32 255 255 255
3 32 33 31 255 255 255
3 175 108 192 255 255 255
3 138 139 239 255 255 255
3 139 68 134 255 255 255
3 136 239 133 255 255 255
3 135 108 136 255 255 255
3 132 174 120 255 255 255
3 66 32 221 255 255 255
3 137 192 66 255 255 255
3 327 200 33 255 255 255
3 33 34 31 255 255 255
3 175 214 108 255 255 255
3 139 133 239 255 255 255
3 138 67 139 255 255 255
3 136 222 239 255 255 255
3 174 223 120 255 255 255
3 327 214 200 255 255 255
3 34 200 31 255 255 255
3 175 201 214 255 255 255
3 67 68 139 255 255 255
3 67 271 68 255 255 255
3 138 271 67 255 255 255
3 138 134 271 255 255 255
3 68 271 134 255 255 255
3 174 130 223 255 255 255
3 200 30 31 255 255 255
3 175 327 201 255 255 255
3 30 221 31 255 255 255
3 200 201 30 255 255 255
3 30 182 221 255 255 255
3 201 326 30 255 255 255
3 202 204 203 255 255 255
3 203 303 202 255 255 255
3 204 3 203 255 255 255
3 202 205 204 255 255 255
3 203 206 303 255 255 255
3 205 207 204 255 255 255
3 206 320 303 255 255 255
3 204 245 3 255 255 255
3 207 4 204 255 255 255
3 205 319 207 255 255 255
3 206 110 320 255 255 255
3 3 110 203 255 255 255
3 204 4 245 255 255 255
3 4 321 245 255 255 255
3 207 322 4 255 255 255
3 319 323 207 255 255 255
3 205 85 319 255 255 255
3 320 109 303 255 255 255
3 3 228 110 255 255 255
3 3 321 228 255 255 255
3 321 3 245 255 255 255
3 4 0 321 255 255 255
3 322 0 4 255 255 255
3 322 211 0 255 255 255
3 323 100 207 255 255 255
3 319 113 323 255 255 255
3 109 321 303 255 255 255
3 320 110 109 255 255 255
3 110 228 109 255 255 255
3 321 109 228 255 255 255
3 322 111 211 255 255 255
3 323 112 100 255 255 255
3 321 250 303 255 255 255
3 111 0 211 255 255 255
3 111 205 0 255 255 255
3 322 85 111 255 255 255
3 112 86 100 255 255 255
3 323 322 112 255 255 255
3 113 44 323 255 255 255
3 205 235 0 255 255 255
3 85 113 111 255 255 255
3 322 186 85 255 255 255
3 86 193 100 255 255 255
3 112 123 86 255 255 255
3 323 44 86 255 255 255
3 113 123 44 255 255 255
3 235 250 0 255 255 255
3 205 202 235 255 255 255
3 113 319 111 255 255 255
3 319 235 111 255 255 255
3 85 150 113 255 255 255
3 322 323 186 255 255 255
3 323 317 186 255 255 255
3 193 314 100 255 255 255
3 86 315 193 255 255 255
3 112 316 123 255 255 255
3 113 87 123 255 255 255
3 150 115 113 255 255 255
3 323 318 317 255 255 255
3 314 318 100 255 255 255
3 315 114 193 255 255 255
3 316 280 123 255 255 255
3 112 142 316 255 255 255
3 113 115 87 255 255 255
3 150 251 115 255 255 255
3 317 114 186 255 255 255
3 318 199 317 255 255 255
3 314 5 318 255 255 255
3 114 36 193 255 255 255
3 86 265 315 255 255 255
3 316 115 280 255 255 255
3 115 117 87 255 255 255
3 317 199 170 255 255 255
3 318 116 199 255 255 255
3 5 116 318 255 255 255
3 114 170 36 255 255 255
3 86 149 265 255 255 255
3 115 117 280 255 255 255
3 117 161 87 255 255 255
3 35 298 115 255 255 255
3 114 112 186 255 255 255
3 199 36 170 255 255 255
3 5 36 116 255 255 255
3 114 317 170 255 255 255
3 149 87 265 255 255 255
3 86 142 149 255 255 255
3 114 315 44 255 255 255
3 36 144 116 255 255 255
3 5 193 36 255 255 255
3 87 280 265 255 255 255
3 142 160 149 255 255 255
3 86 100 142 255 255 255
3 35 251 298 255 255 255
3 143 144 199 255 255 255
3 116 143 199 255 255 255
3 116 141 143 255 255 255
3 87 161 280 255 255 255
3 144 36 199 255 255 255
3 143 141 144 255 255 255
3 144 141 116 255 255 255
3 144 148 141 255 255 255
3 148 147 141 255 255 255
3 145 39 147 255 255 255
3 147 146 145 255 255 255
3 148 38 147 255 255 255
3 145 38 39 255 255 255
3 146 37 145 255 255 255
3 38 146 147 255 255 255
3 38 198 146 255 255 255
3 148 253 38 255 255 255
3 39 141 147 255 255 255
3 38 37 39 255 255 255
3 146 6 37 255 255 255
3 37 198 39 255 255 255
3 38 145 37 255 255 255
3 146 88 6 255 255 255
3 148 144 253 255 255 255
3 37 89 198 255 255 255
3 146 103 88 255 255 255
3 146 198 103 255 255 255
3 198 89 103 255 255 255
3 141 39 253 255 255 255
3 39 38 253 255 255 255
3 253 144 141 255 255 255
3 37 6 89 255 255 255
3 6 90 89 255 255 255
3 88 90 6 255 255 255
3 88 83 90 255 255 255
3 103 83 88 255 255 255
3 89 254 103 255 255 255
3 252 254 89 255 255 255
3 90 7 89 255 255 255
3 83 252 90 255 255 255
3 103 7 83 255 255 255
3 254 8 103 255 255 255
3 252 187 254 255 255 255
3 7 254 83 255 255 255
3 172 83 254 255 255 255
3 254 243 172 255 255 255
3 252 256 187 255 255 255
3 151 256 83 255 255 255
3 83 172 151 255 255 255
3 151 91 256 255 255 255
3 8 198 103 255 255 255
3 255 151 172 255 255 255
3 255 93 151 255 255 255
3 172 267 255 255 255 255
3 256 91 187 255 255 255
3 91 243 187 255 255 255
3 83 90 8 255 255 255
3 8 65 198 255 255 255
3 255 92 93 255 255 255
3 91 285 243 255 255 255
3 90 65 8 255 255 255
3 255 12 92 255 255 255
3 9 172 243 255 255 255
3 9 267 172 255 255 255
3 9 257 267 255 255 255
3 243 285 9 255 255 255
3 92 11 93 255 255 255
3 255 9 12 255 255 255
3 257 196 267 255 255 255
3 10 91 93 255 255 255
3 93 11 10 255 255 255
3 11 285 10 255 255 255
3 92 309 11 255 255 255
3 92 119 309 255 255 255
3 12 43 92 255 255 255
3 196 12 267 255 255 255
3 257 43 196 255 255 255
3 119 169 309 255 255 255
3 257 258 43 255 255 255
3 309 246 11 255 255 255
3 119 259 169 255 255 255
3 258 260 43 255 255 255
3 183 94 11 255 255 255
3 11 246 183 255 255 255
3 246 81 183 255 255 255
3 259 81 169 255 255 255
3 119 2 259 255 255 255
3 260 119 43 255 255 255
3 258 269 260 255 255 255
3 257 94 258 255 255 255
3 94 257 11 255 255 255
3 246 279 81 255 255 255
3 259 269 81 255 255 255
3 119 62 2 255 255 255
3 269 261 260 255 255 255
3 105 279 258 255 255 255
3 258 94 105 255 255 255
3 94 140 105 255 255 255
3 183 63 94 255 255 255
3 81 63 183 255 255 255
3 81 79 63 255 255 255
3 279 79 81 255 255 255
3 246 259 279 255 255 255
3 62 80 2 255 255 255
3 260 62 119 255 255 255
3 260 283 62 255 255 255
3 261 274 260 255 255 255
3 269 262 261 255 255 255
3 105 63 279 255 255 255
3 94 63 140 255 255 255
3 279 262 79 255 255 255
3 80 307 2 255 255 255
3 62 283 80 255 255 255
3 260 274 283 255 255 255
3 274 166 283 255 255 255
3 261 166 274 255 255 255
3 261 101 166 255 255 255
3 262 197 261 255 255 255
3 63 78 279 255 255 255
3 140 81 105 255 255 255
3 63 78 140 255 255 255
3 262 230 79 255 255 255
3 307 261 2 255 255 255
3 80 188 307 255 255 255
3 283 188 80 255 255 255
3 283 52 188 255 255 255
3 283 310 52 255 255 255
3 166 124 283 255 255 255
3 261 328 101 255 255 255
3 197 313 261 255 255 255
3 262 328 197 255 255 255
3 78 208 279 255 255 255
3 78 95 140 255 255 255
3 63 189 78 255 255 255
3 230 208 79 255 255 255
3 188 329 307 255 255 255
3 52 13 188 255 255 255
3 310 162 52 255 255 255
3 124 310 283 255 255 255
3 124 17 310 255 255 255
3 101 291 166 255 255 255
3 328 313 101 255 255 255
3 313 164 261 255 255 255
3 197 291 313 255 255 255
3 328 194 197 255 255 255
3 208 230 279 255 255 255
3 78 295 208 255 255 255
3 95 295 140 255 255 255
3 208 189 79 255 255 255
3 188 53 329 255 255 255
3 13 53 188 255 255 255
3 13 82 53 255 255 255
3 162 299 52 255 255 255
3 310 13 162 255 255 255
3 17 184 310 255 255 255
3 124 237 17 255 255 255
3 291 124 166 255 255 255
3 291 14 124 255 255 255
3 164 2 261 255 255 255
3 313 191 164 255 255 255
3 197 240 291 255 255 255
3 194 282 197 255 255 255
3 295 230 140 255 255 255
3 78 208 95 255 255 255
3 189 63 79 255 255 255
3 329 101 307 255 255 255
3 53 56 329 255 255 255
3 82 45 53 255 255 255
3 13 184 82 255 255 255
3 162 164 299 255 255 255
3 184 51 310 255 255 255
3 17 128 184 255 255 255
3 124 14 237 255 255 255
3 291 45 14 255 255 255
3 191 299 164 255 255 255
3 191 17 299 255 255 255
3 313 14 191 255 255 255
3 282 56 197 255 255 255
3 208 78 189 255 255 255
3 329 282 101 255 255 255
3 53 45 56 255 255 255
3 82 237 45 255 255 255
3 13 51 184 255 255 255
3 162 50 164 255 255 255
3 51 229 310 255 255 255
3 128 237 184 255 255 255
3 237 82 184 255 255 255
3 14 52 191 255 255 255
3 240 45 291 255 255 255
3 282 329 56 255 255 255
3 194 238 208 255 255 255
3 240 56 45 255 255 255
3 237 128 45 255 255 255
3 51 162 229 255 255 255
3 14 229 52 255 255 255
3 194 249 238 255 255 255
3 50 307 164 255 255 255
3 50 282 307 255 255 255
3 58 154 106 255 255 255
3 154 59 106 255 255 255
3 58 215 154 255 255 255
3 106 241 58 255 255 255
3 59 224 106 255 255 255
3 241 18 58 255 255 255
3 224 241 106 255 255 255
3 18 215 58 255 255 255
3 18 96 215 255 255 255
3 224 232 241 255 255 255
3 224 59 232 255 255 255
3 59 163 232 255 255 255
3 154 266 59 255 255 255
3 96 247 215 255 255 255
3 18 163 96 255 255 255
3 232 233 241 255 255 255
3 163 46 232 255 255 255
3 59 330 163 255 255 255
3 163 247 96 255 255 255
3 163 266 247 255 255 255
3 18 55 163 255 255 255
3 233 18 241 255 255 255
3 233 46 18 255 255 255
3 232 46 233 255 255 255
3 330 308 163 255 255 255
3 247 154 215 255 255 255
3 18 154 55 255 255 255
3 154 59 55 255 255 255
3 69 72 70 255 255 255
3 70 71 69 255 255 255
3 69 167 72 255 255 255
3 71 73 69 255 255 255
3 70 294 71 255 255 255
3 72 75 70 255 255 255
3 69 331 167 255 255 255
3 73 74 69 255 255 255
3 70 75 294 255 255 255
3 69 27 331 255 255 255
3 74 287 69 255 255 255
3 71 288 73 255 255 255
3 75 275 294 255 255 255
3 75 289 275 255 255 255
3 72 289 75 255 255 255
3 286 289 72 255 255 255
3 69 290 27 255 255 255
3 287 20 69 255 255 255
3 74 292 287 255 255 255
3 288 286 73 255 255 255
3 71 294 288 255 255 255
3 289 288 275 255 255 255
3 290 15 27 255 255 255
3 69 292 290 255 255 255
3 292 16 287 255 255 255
3 293 276 74 255 255 255
3 74 73 293 255 255 255
3 286 293 73 255 255 255
3 286 24 293 255 255 255
3 288 289 286 255 255 255
3 294 275 288 255 255 255
3 15 57 27 255 255 255
3 290 16 15 255 255 255
3 292 276 290 255 255 255
3 69 286 292 255 255 255
3 16 19 287 255 255 255
3 292 278 16 255 255 255
3 293 278 276 255 255 255
3 286 20 24 255 255 255
3 15 21 57 255 255 255
3 19 21 287 255 255 255
3 16 22 19 255 255 255
3 293 23 278 255 255 255
3 20 287 24 255 255 255
3 286 331 20 255 255 255
3 21 27 57 255 255 255
3 21 42 27 255 255 255
3 19 22 21 255 255 255
3 22 42 21 255 255 255
3 22 218 42 255 255 255
3 23 22 278 255 255 255
3 293 24 23 255 255 255
3 24 218 23 255 255 255
3 218 287 42 255 255 255
3 23 218 22 255 255 255
3 219 27 331 255 255 255
3 195 225 300 255 255 255
3 195 277 225 255 255 255
3 225 64 300 255 255 255
3 277 40 225 255 255 255
3 64 195 300 255 255 255
3 40 158 225 255 255 255
3 40 195 158 255 255 255
3 277 195 40 255 255 255
3 64 158 195 255 255 255
3 104 152 64 255 255 255
3 225 158 64 255 255 255
3 231 49 97 255 255 255
3 97 129 231 255 255 255
3 129 296 231 255 255 255
3 231 304 49 255 255 255
3 296 29 231 255 255 255
3 97 76 129 255 255 255
3 212 76 97 255 255 255
3 231 125 304 255 255 255
3 296 121 29 255 255 255
3 76 77 129 255 255 255
3 212 304 76 255 255 255
3 125 296 304 255 255 255
3 121 213 29 255 255 255
3 304 77 76 255 255 255
3 212 49 304 255 255 255
3 212 97 49 255 255 255
3 296 236 304 255 255 255
3 213 153 29 255 255 255
3 121 54 213 255 255 255
3 296 107 121 255 255 255
3 236 157 304 255 255 255
3 296 1 236 255 255 255
3 121 107 54 255 255 255
3 107 234 54 255 255 255
3 296 284 107 255 255 255
3 1 301 236 255 255 255
3 296 209 1 255 255 255
3 213 99 153 255 255 255
3 54 99 213 255 255 255
3 107 126 234 255 255 255
3 284 126 107 255 255 255
3 296 61 284 255 255 255
3 301 157 236 255 255 255
3 1 226 301 255 255 255
3 209 226 1 255 255 255
3 54 226 99 255 255 255
3 284 61 126 255 255 255
3 296 41 61 255 255 255
3 226 99 301 255 255 255
3 99 25 153 255 255 255
3 99 226 25 255 255 255
3 226 190 25 255 255 255
3 296 248 41 255 255 255
3 25 29 153 255 255 255
3 25 190 29 255 255 255
3 190 157 29 255 255 255
3 226 185 190 255 255 255
3 54 185 226 255 255 255
3 41 312 61 255 255 255
3 248 301 41 255 255 255
3 296 77 248 255 255 255
3 185 248 190 255 255 255
3 312 126 61 255 255 255
3 312 234 126 255 255 255
3 312 185 234 255 255 255
3 77 304 248 255 255 255
3 296 129 77 255 255 255
3 185 54 234 255 255 255
3 312 41 185 255 255 255
3 216 102 272 255 255 255
3 272 171 216 255 255 255
3 102 273 272 255 255 255
3 48 244 273 255 255 255
3 273 302 48 255 255 255
3 244 268 273 255 255 255
3 302 26 48 255 255 255
3 273 102 302 255 255 255
3 102 156 302 255 255 255
3 102 268 156 255 255 255
3 244 168 268 255 255 255
3 48 26 244 255 255 255
3 302 263 26 255 255 255
3 156 270 302 255 255 255
3 156 168 60 255 255 255
3 244 26 168 255 255 255
3 26 47 168 255 255 255
3 263 47 26 255 255 255
3 263 28 47 255 255 255
3 270 98 302 255 255 255
3 156 60 270 255 255 255
3 168 311 60 255 255 255
3 28 242 47 255 255 255
3 263 159 28 255 255 255
3 98 84 302 255 255 255
3 270 311 98 255 255 255
3 60 263 270 255 255 255
3 28 159 60 255 255 255
3 60 242 28 255 255 255
3 168 47 311 255 255 255
3 98 168 84 255 255 255
3 270 159 311 255 255 255
3 168 273 84 255 255 255
3 159 60 242 255 255 255
3 297 227 264 255 255 255
3 264 306 297 255 255 255
3 227 122 264 255 255 255
3 264 155 306 255 255 255
3 264 122 127 255 255 255
3 122 210 127 255 255 255
3 155 217 306 255 255 255
3 210 155 127 255 255 255
3 122 227 210 255 255 255
3 210 217 155 255 255 255
3 210 297 217 255 255 255
3 155 264 127 255 255 255
3 297 306 217 255 255 255
3 305 305 305 255 255 255
