ply
format ascii 1.0
element vertex 324
property float x
property float y
property float z
element face 576
property list uchar int vertex_indices
property uchar red
property uchar green
property uchar blue
end_header
4.78199958801269531 9.13350009918212891 -0.8125
4.71789121627807617 9.15783977508544922 -0.856878817081451416
4.71653223037719727 9.10696887969970703 -0.540604829788208008
4.71099996566772461 9.14799976348876953 -0.805000007152557373
4.7369999885559082 9.18000030517578125 -0.805000007152557373
4.7099146842956543 9.08499050140380859 -0.537175118923187256
4.72599983215332031 9.18200016021728516 -0.449999988079071045
4.64599990844726562 9.22500038146972656 -0.735000014305114746
4.73964452743530273 9.12016773223876953 -0.812500476837158203
4.68124485015869141 9.13312244415283203 -0.803558766841888428
4.63622903823852539 9.25031566619873047 -0.813484609127044678
4.62590551376342773 9.28627204895019531 -0.784841835498809814
4.63700008392333984 9.27099990844726562 -0.75700002908706665
4.64900016784667969 9.29399967193603516 -0.758000016212463379
4.64725303649902344 9.25199317932128906 -0.797563314437866211
4.6305084228515625 9.25139904022216797 -0.820037543773651123
4.64383506774902344 9.29175186157226562 -0.782284855842590332
4.65399980545043945 9.29800033569335938 -0.772000014781951904
4.7054901123046875 9.14788913726806641 -0.574676454067230225
4.71080684661865234 9.0721435546875 -0.524180889129638672
4.76014614105224609 9.19046592712402344 -0.505536556243896484
4.78399181365966797 9.09673595428466797 -0.84338676929473877
4.73799991607666016 9.18299961090087891 -0.554000020027160645
4.74437808990478516 9.17461395263671875 -0.541337490081787109
4.62350034713745117 9.26299953460693359 -0.627499997615814209
4.72630977630615234 9.19467735290527344 -0.843716204166412354
4.74200010299682617 9.17549991607666016 -0.638999998569488525
4.75208377838134766 9.16743659973144531 -0.585505068302154541
4.69799995422363281 9.18500041961669922 -0.625999987125396729
4.69193220138549805 9.14826393127441406 -0.663634061813354492
4.68946504592895508 9.18594837188720703 -0.624045133590698242
4.69543838500976562 9.09970855712890625 -0.443691909313201904
4.68972682952880859 9.10067367553710938 -0.457694709300994873
4.69466304779052734 9.09031486511230469 -0.52365344762802124
4.75176763534545898 9.15833759307861328 -0.57483750581741333
4.7135767936706543 9.1297149658203125 -0.580691695213317871
4.63373470306396484 9.28846549987792969 -0.72282874584197998
4.71700000762939453 9.11100006103515625 -0.739000022411346436
4.61899995803833008 9.26500034332275391 -0.794000029563903809
4.62900018692016602 9.26599979400634766 -0.68199998140335083
4.77899980545043945 9.13000011444091797 -0.802999973297119141
4.62346410751342773 9.26916313171386719 -0.667138516902923584
4.62247848510742188 9.26874065399169922 -0.746246755123138428
4.63108348846435547 9.27035236358642578 -0.701803147792816162
4.6119999885559082 9.24899959564208984 -0.755999982357025146
4.71700000762939453 9.10599994659423828 -0.739000022411346436
4.62611722946166992 9.28674221038818359 -0.774818837642669678
4.68664836883544922 9.15903091430664062 -0.748149335384368896
4.68025302886962891 9.15914249420166016 -0.817635953426361084
4.71571731567382812 9.17231941223144531 -0.775346219539642334
4.77710676193237305 9.14344310760498047 -0.782910287380218506
4.71460533142089844 9.15123939514160156 -0.632857918739318848
4.70073699951171875 9.20664405822753906 -0.592666089534759521
4.70283126831054688 9.11549758911132812 -0.459563851356506348
4.70771217346191406 9.10839939117431641 -0.579910457134246826
4.73899984359741211 9.180999755859375 -0.561999976634979248
4.69764375686645508 9.14667701721191406 -0.622931778430938721
4.7483983039855957 9.14083003997802734 -0.706571578979492188
4.71307134628295898 9.06116580963134766 -0.499737739562988281
4.70200014114379883 9.07900047302246094 -0.597999989986419678
4.70425605773925781 9.21578216552734375 -0.559677064418792725
4.69021081924438477 9.08788871765136719 -0.499166905879974365
4.69587278366088867 9.17729759216308594 -0.603358566761016846
4.71804904937744141 9.15120983123779297 -0.729392290115356445
4.6810002326965332 9.16199970245361328 -0.81800001859664917
4.73099994659423828 9.18200016021728516 -0.561999976634979248
4.72278976440429688 9.17055130004882812 -0.55613410472869873
4.78000020980834961 9.13099956512451172 -0.800000011920928955
4.69194793701171875 9.19862651824951172 -0.543649971485137939
4.75151824951171875 9.18049049377441406 -0.546634018421173096
4.69500017166137695 9.15799999237060547 -0.828999996185302734
4.78160476684570312 9.13485622406005859 -0.807015419006347656
4.71402120590209961 9.0742034912109375 -0.522292613983154297
4.70029115676879883 9.08683013916015625 -0.489224344491958618
4.64400005340576172 9.26099967956542969 -0.776000022888183594
4.61899995803833008 9.24800014495849609 -0.828999996185302734
4.71600008010864258 9.11100006103515625 -0.730000019073486328
4.69632720947265625 9.22945499420166016 -0.610570371150970459
4.60799980163574219 9.26599979400634766 -0.731999993324279785
4.68558025360107422 9.21811962127685547 -0.531397879123687744
4.6529998779296875 9.26399993896484375 -0.709999978542327881
4.62080717086791992 9.24566078186035156 -0.703815877437591553
4.64799976348876953 9.27000045776367188 -0.731000006198883057
4.62237024307250977 9.24806880950927734 -0.686372995376586914
4.61528205871582031 9.23870182037353516 -0.744080483913421631
4.62863063812255859 9.24087429046630859 -0.754930794239044189
4.65905141830444336 9.25696659088134766 -0.72218698263168335
4.65907812118530273 9.24193191528320312 -0.724006235599517822
4.65662050247192383 9.25515365600585938 -0.736470937728881836
4.65692138671875 9.24477291107177734 -0.698695838451385498
4.68815517425537109 9.21040058135986328 -0.594032049179077148
4.68969964981079102 9.22123146057128906 -0.610791862010955811
4.73872518539428711 9.15589237213134766 -0.886446297168731689
4.70333433151245117 9.11138057708740234 -0.541730880737304688
4.69637203216552734 9.19832801818847656 -0.575610637664794922
4.73190450668334961 9.15079593658447266 -0.558061599731445312
4.72296667098999023 9.10373115539550781 -0.662405431270599365
4.71099996566772461 9.06499958038330078 -0.505999982357025146
4.75627994537353516 9.19055366516113281 -0.519787251949310303
4.73794174194335938 9.11119365692138672 -0.605302929878234863
4.73104667663574219 9.15296649932861328 -0.753923535346984863
4.68662261962890625 9.19709110260009766 -0.610339820384979248
4.70696735382080078 9.17486000061035156 -0.623750388622283936
4.69869375228881836 9.08175849914550781 -0.563400447368621826
4.71921205520629883 9.08319759368896484 -0.514617443084716797
4.62131357192993164 9.26039981842041016 -0.610020995140075684
4.7090001106262207 9.12800025939941406 -0.894999980926513672
4.64658546447753906 9.27426433563232422 -0.705368161201477051
4.61139869689941406 9.26798248291015625 -0.729035258293151855
4.62400007247924805 9.27400016784667969 -0.735000014305114746
4.63169956207275391 9.26957416534423828 -0.727438569068908691
4.63795852661132812 9.27672958374023438 -0.79236900806427002
4.62111949920654297 9.27750873565673828 -0.762650132179260254
4.64599990844726562 9.27900028228759766 -0.771000027656555176
4.72262907028198242 9.13809776306152344 -0.849015355110168457
4.70699977874755859 9.15400028228759766 -0.804000020027160645
4.73099994659423828 9.11100006103515625 -0.72500002384185791
4.78250503540039062 9.09723377227783203 -0.884924352169036865
4.71799993515014648 9.12899971008300781 -0.869000017642974854
4.68645048141479492 9.1318511962890625 -0.648675858974456787
4.71493721008300781 9.16300392150878906 -0.586087822914123535
4.71592950820922852 9.13048458099365234 -0.560469210147857666
4.69693708419799805 9.07843589782714844 -0.521634221076965332
4.7257533073425293 9.18356895446777344 -0.459562838077545166
4.75641155242919922 9.10794830322265625 -0.850747168064117432
4.74008369445800781 9.15738201141357422 -0.649006068706512451
4.69393110275268555 9.18226337432861328 -0.657391250133514404
4.73306512832641602 9.16888236999511719 -0.573820769786834717
4.7362666130065918 9.15326690673828125 -0.63871467113494873
4.6939997673034668 9.16899967193603516 -0.662000000476837158
4.69788742065429688 9.20043754577636719 -0.603316128253936768
4.69837093353271484 9.16650199890136719 -0.677238941192626953
4.71898698806762695 9.18467903137207031 -0.801316261291503906
4.72231769561767578 9.07573604583740234 -0.504438340663909912
4.73000001907348633 9.10400009155273438 -0.740000009536743164
4.7008204460144043 9.1497802734375 -0.686663269996643066
4.73000001907348633 9.19299983978271484 -0.824000000953674316
4.68938446044921875 9.18258190155029297 -0.698386311531066895
4.73761272430419922 9.14623737335205078 -0.613054394721984863
4.70642852783203125 9.11098194122314453 -0.516673624515533447
4.62425041198730469 9.26650047302246094 -0.621749997138977051
4.62799978256225586 9.28699970245361328 -0.791000008583068848
4.65199995040893555 9.29500007629394531 -0.758000016212463379
4.7369999885559082 9.17199993133544922 -0.634999990463256836
4.66950035095214844 9.21300029754638672 -0.807500004768371582
4.7112269401550293 9.06260395050048828 -0.428425729274749756
4.72080898284912109 9.15885734558105469 -0.833657026290893555
4.75180482864379883 9.17790126800537109 -0.571063220500946045
4.72900009155273438 9.18700027465820312 -0.816999971866607666
4.6810002326965332 9.19499969482421875 -0.542999982833862305
4.66744899749755859 9.16209220886230469 -0.646125674247741699
4.7410430908203125 9.10315418243408203 -0.588039278984069824
4.69774818420410156 9.19271564483642578 -0.548622429370880127
4.71651220321655273 9.09170722961425781 -0.466685771942138672
4.71481561660766602 9.18219852447509766 -0.439885944128036499
4.71899986267089844 9.17700004577636719 -0.455000013113021851
4.71400022506713867 9.07299995422363281 -0.465000003576278687
4.70100021362304688 9.15100002288818359 -0.814999997615814209
4.73274707794189453 9.15955543518066406 -0.545484006404876709
4.75165510177612305 9.20066642761230469 -0.509150445461273193
4.72098827362060547 9.10509777069091797 -0.568887710571289062
4.70425033569335938 9.15937519073486328 -0.83818972110748291
4.78172826766967773 9.13979625701904297 -0.631199419498443604
4.68752050399780273 9.1832122802734375 -0.589263200759887695
4.71908140182495117 9.09251689910888672 -0.450287103652954102
4.69700002670288086 9.13799953460693359 -0.709999978542327881
4.76346826553344727 9.14024162292480469 -0.773188471794128418
4.72500038146972656 9.17049980163574219 -0.550999999046325684
4.68435573577880859 9.20175266265869141 -0.551753401756286621
4.63575839996337891 9.24549961090087891 -0.881542026996612549
4.73899984359741211 9.0970001220703125 -0.602999985218048096
4.70769119262695312 9.17780017852783203 -0.679788112640380859
4.71508312225341797 9.17078876495361328 -0.644011020660400391
4.69930696487426758 9.08552169799804688 -0.588756561279296875
4.74200010299682617 9.17899990081787109 -0.808000028133392334
4.69551277160644531 9.19555091857910156 -0.71953880786895752
4.69799995422363281 9.18799972534179688 -0.620000004768371582
4.73099994659423828 9.11100006103515625 -0.718999981880187988
4.68743753433227539 9.22956275939941406 -0.624374985694885254
4.71407842636108398 9.13770294189453125 -0.890122473239898682
4.69349861145019531 9.16061687469482422 -0.595348894596099854
4.72399997711181641 9.18999958038330078 -0.836000025272369385
4.78499984741210938 9.13700008392333984 -0.810000002384185791
4.71600008010864258 9.16199970245361328 -0.601999998092651367
4.76511335372924805 9.14882278442382812 -0.669693708419799805
4.70832204818725586 9.15925312042236328 -0.61713331937789917
4.63412952423095703 9.24371051788330078 -0.865387678146362305
4.631500244140625 9.24100017547607422 -0.856500029563903809
4.63000011444091797 9.24499988555908203 -0.860000014305114746
4.64383363723754883 9.25047683715820312 -0.877229571342468262
4.73666858673095703 9.11928176879882812 -0.793426930904388428
4.69218111038208008 9.09863567352294922 -0.794230401515960693
4.69430208206176758 9.13959693908691406 -0.83668285608291626
4.73121070861816406 9.16346645355224609 -0.786843359470367432
4.64176225662231445 9.25545024871826172 -0.877795696258544922
4.72695493698120117 9.11814403533935547 -0.758250057697296143
4.625 9.26000022888183594 -0.796000003814697266
4.73196649551391602 9.11044120788574219 -0.687587261199951172
4.73199987411499023 9.15600013732910156 -0.80699998140335083
4.64187383651733398 9.26260852813720703 -0.762394726276397705
4.61499977111816406 9.23499965667724609 -0.75700002908706665
4.63393545150756836 9.22830772399902344 -0.80419689416885376
4.74868631362915039 9.11426925659179688 -0.743668138980865479
4.7373652458190918 9.09347629547119141 -0.835248291492462158
4.7138361930847168 9.14332103729248047 -0.790505707263946533
4.73299980163574219 9.10299968719482422 -0.731000006198883057
4.726226806640625 9.17903709411621094 -0.814601004123687744
4.70487308502197266 9.12523174285888672 -0.669053614139556885
4.76955080032348633 9.12714958190917969 -0.771837353706359863
4.73611927032470703 9.18227291107177734 -0.788751661777496338
4.70599985122680664 9.14000034332275391 -0.691999971866607666
4.71297168731689453 9.13019752502441406 -0.614139556884765625
4.70571422576904297 9.11059856414794922 -0.530844986438751221
4.61999988555908203 9.25 -0.819000005722045898
4.74700689315795898 9.18495464324951172 -0.508455395698547363
4.68913030624389648 9.15699195861816406 -0.702138602733612061
4.62900018692016602 9.23700046539306641 -0.870999991893768311
4.69600009918212891 9.07600021362304688 -0.601000010967254639
4.72184038162231445 9.15925884246826172 -0.679695427417755127
4.71577596664428711 9.11749553680419922 -0.492560386657714844
4.77299976348876953 9.15699958801269531 -0.637000024318695068
4.73476409912109375 9.15402889251708984 -0.614159703254699707
4.6986231803894043 9.18992519378662109 -0.698164999485015869
4.73400020599365234 9.10099983215332031 -0.59299999475479126
4.62599992752075195 9.22599983215332031 -0.737999975681304932
4.61800003051757812 9.28199958801269531 -0.712999999523162842
4.61862659454345703 9.26731300354003906 -0.776876509189605713
4.6203923225402832 9.22414398193359375 -0.726731479167938232
4.63022994995117188 9.24080276489257812 -0.77529066801071167
4.64300012588500977 9.26500034332275391 -0.787000000476837158
4.71292018890380859 9.11464691162109375 -0.791996121406555176
4.71939849853515625 9.11862277984619141 -0.733995556831359863
4.69443035125732422 9.12154006958007812 -0.749872744083404541
4.75296163558959961 9.09740829467773438 -0.819483816623687744
4.63299989700317383 9.25300025939941406 -0.878000020980834961
4.75700139999389648 9.10768985748291016 -0.680648326873779297
4.71752309799194336 9.15039443969726562 -0.66274183988571167
4.7050023078918457 9.06587982177734375 -0.465446770191192627
4.72867202758789062 9.15625953674316406 -0.905992507934570312
4.71413135528564453 9.05980873107910156 -0.475340157747268677
4.7106175422668457 9.07936573028564453 -0.478423386812210083
4.71485137939453125 9.16591358184814453 -0.495338469743728638
4.64161109924316406 9.22836685180664062 -0.727672815322875977
4.65082263946533203 9.24578380584716797 -0.697823524475097656
4.65199995040893555 9.23799991607666016 -0.709999978542327881
4.73089933395385742 9.13300991058349609 -0.766008317470550537
4.69744300842285156 9.1409149169921875 -0.766185939311981201
4.61299991607666016 9.26399993896484375 -0.704999983310699463
4.61235284805297852 9.25201702117919922 -0.669309139251708984
4.62093353271484375 9.26617145538330078 -0.67333984375
4.624481201171875 9.25472927093505859 -0.791901648044586182
4.61399984359741211 9.26399993896484375 -0.75700002908706665
4.73492336273193359 9.15567111968994141 -0.854648768901824951
4.73555326461791992 9.1494598388671875 -0.74321293830871582
4.72398900985717773 9.13588905334472656 -0.891608476638793945
4.71683979034423828 9.10859489440917969 -0.616612851619720459
4.68699979782104492 9.14500045776367188 -0.656000018119812012
4.71013212203979492 9.12329578399658203 -0.557220935821533203
4.71411561965942383 9.16095542907714844 -0.537208855152130127
4.71134328842163086 9.09574413299560547 -0.460323631763458252
4.63838481903076172 9.25341892242431641 -0.684238255023956299
4.70699977874755859 9.15999984741210938 -0.827000021934509277
4.71899986267089844 9.13599967956542969 -0.552999973297119141
4.65269994735717773 9.30219841003417969 -0.761017799377441406
4.7040252685546875 9.16514396667480469 -0.824442803859710693
4.75508546829223633 9.12532997131347656 -0.694759964942932129
4.61438274383544922 9.27587699890136719 -0.710987210273742676
4.71620893478393555 9.16949558258056641 -0.650640249252319336
4.68800020217895508 9.16100025177001953 -0.66100001335144043
4.72961711883544922 9.13817405700683594 -0.559968233108520508
4.74594688415527344 9.17740154266357422 -0.573881149291992188
4.63199996948242188 9.25500011444091797 -0.83899998664855957
4.71491670608520508 9.11447906494140625 -0.891064047813415527
4.69601774215698242 9.22852420806884766 -0.507081806659698486
4.68919086456298828 9.22733116149902344 -0.540704727172851562
4.68656206130981445 9.13161754608154297 -0.709497451782226562
4.72605657577514648 9.10577297210693359 -0.737150669097900391
4.6403193473815918 9.24857902526855469 -0.668441534042358398
4.63196659088134766 9.26084232330322266 -0.783234596252441406
4.64302873611450195 9.23516750335693359 -0.798272132873535156
4.63339710235595703 9.27579879760742188 -0.786609411239624023
4.64063787460327148 9.25930023193359375 -0.795499086380004883
4.74202203750610352 9.12788867950439453 -0.722762107849121094
4.7087249755859375 9.11684131622314453 -0.714388608932495117
4.75256156921386719 9.13899135589599609 -0.758362412452697754
4.71600008010864258 9.17899990081787109 -0.81099998950958252
4.73439931869506836 9.19056892395019531 -0.821774065494537354
4.70453357696533203 9.16954517364501953 -0.705146253108978271
4.73165702819824219 9.12064647674560547 -0.635733664035797119
4.71520805358886719 9.11534309387207031 -0.594816267490386963
4.71918535232543945 9.08164215087890625 -0.587591290473937988
4.68885469436645508 9.21100330352783203 -0.562220871448516846
4.71199989318847656 9.15100002288818359 -0.809000015258789062
4.68982887268066406 9.21089649200439453 -0.529903173446655273
4.68062305450439453 9.15907382965087891 -0.651395022869110107
4.73302459716796875 9.13483619689941406 -0.585392355918884277
4.64499998092651367 9.26399993896484375 -0.68900001049041748
4.61999988555908203 9.22799968719482422 -0.740999996662139893
4.65400600433349609 9.19475555419921875 -0.797698795795440674
4.7574005126953125 9.1516265869140625 -0.633702754974365234
4.73144721984863281 9.12229633331298828 -0.799116611480712891
4.70407199859619141 9.21449661254882812 -0.543684899806976318
4.72399663925170898 9.17599105834960938 -0.543033063411712646
4.61950016021728516 9.2649993896484375 -0.631999969482421875
4.70399999618530273 9.14900016784667969 -0.689999997615814209
4.73907852172851562 9.14431858062744141 -0.864526987075805664
4.71934843063354492 9.17689990997314453 -0.501311063766479492
4.70577478408813477 9.05957126617431641 -0.42897459864616394
4.72598934173583984 9.12345981597900391 -0.815658271312713623
4.67249917984008789 9.18994426727294922 -0.709752559661865234
4.75088262557983398 9.07249736785888672 -0.878665328025817871
4.64907407760620117 9.29426288604736328 -0.773494124412536621
4.66725540161132812 9.21805667877197266 -0.795899093151092529
4.62300014495849609 9.24499988555908203 -0.81800001859664917
4.72900009155273438 9.13627433776855469 -0.793832659721374512
4.74415159225463867 9.15192413330078125 -0.814219832420349121
4.62624979019165039 9.25574970245361328 -0.822999954223632812
4.62551021575927734 9.25983524322509766 -0.832674324512481689
4.63379001617431641 9.24482345581054688 -0.818421661853790283
4.63993978500366211 9.21713066101074219 -0.807530701160430908
4.63299989700317383 9.26200008392333984 -0.833999991416931152
4.61999988555908203 9.26900005340576172 -0.791000008583068848
4.70594882965087891 9.06361484527587891 -0.50243532657623291
4.75799989700317383 9.13500022888183594 -0.745000004768371582
3 89 87 243 255 255 255
3 87 242 243 255 255 255
3 87 86 242 255 255 255
3 242 81 243 255 255 255
3 86 88 242 255 255 255
3 89 244 243 255 255 255
3 88 85 242 255 255 255
3 87 80 86 255 255 255
3 243 81 89 255 255 255
3 244 87 243 255 255 255
3 80 82 86 255 255 255
3 87 243 80 255 255 255
3 89 243 107 255 255 255
3 89 83 296 255 255 255
3 81 83 89 255 255 255
3 242 84 81 255 255 255
3 242 85 84 255 255 255
3 88 199 85 255 255 255
3 82 88 86 255 255 255
3 80 110 82 255 255 255
3 244 89 87 255 255 255
3 83 260 296 255 255 255
3 80 107 110 255 255 255
3 243 43 107 255 255 255
3 83 39 260 255 255 255
3 81 41 83 255 255 255
3 83 39 81 255 255 255
3 84 108 81 255 255 255
3 84 42 108 255 255 255
3 85 42 84 255 255 255
3 107 43 110 255 255 255
3 277 260 83 255 255 255
3 41 249 83 255 255 255
3 81 266 83 255 255 255
3 108 266 81 255 255 255
3 42 109 108 255 255 255
3 42 112 199 255 255 255
3 199 110 42 255 255 255
3 43 247 110 255 255 255
3 87 86 88 255 255 255
3 83 248 277 255 255 255
3 44 42 85 255 255 255
3 85 278 250 255 255 255
3 42 251 112 255 255 255
3 109 42 110 255 255 255
3 110 78 109 255 255 255
3 247 108 110 255 255 255
3 87 89 86 255 255 255
3 248 41 277 255 255 255
3 249 260 83 255 255 255
3 108 225 266 255 255 255
3 108 36 225 255 255 255
3 250 226 85 255 255 255
3 85 199 278 255 255 255
3 251 226 112 255 255 255
3 248 249 41 255 255 255
3 83 249 248 255 255 255
3 225 43 266 255 255 255
3 226 251 85 255 255 255
3 250 228 278 255 255 255
3 42 44 251 255 255 255
3 227 297 108 255 255 255
3 108 109 225 255 255 255
3 228 279 278 255 255 255
3 227 224 297 255 255 255
3 250 278 226 255 255 255
3 229 280 278 255 255 255
3 278 279 229 255 255 255
3 279 74 278 255 255 255
3 199 111 278 255 255 255
3 249 81 260 255 255 255
3 280 46 278 255 255 255
3 279 199 229 255 255 255
3 46 226 278 255 255 255
3 280 113 46 255 255 255
3 229 74 280 255 255 255
3 228 250 279 255 255 255
3 111 281 278 255 255 255
3 199 113 16 255 255 255
3 112 46 199 255 255 255
3 227 87 224 255 255 255
3 46 112 226 255 255 255
3 44 200 228 255 255 255
3 278 279 250 255 255 255
3 113 311 16 255 255 255
3 227 7 87 255 255 255
3 112 42 226 255 255 255
3 279 228 201 255 255 255
3 200 297 228 255 255 255
3 281 14 278 255 255 255
3 113 12 311 255 255 255
3 112 12 42 255 255 255
3 46 111 16 255 255 255
3 201 319 279 255 255 255
3 10 15 281 255 255 255
3 11 141 111 255 255 255
3 111 46 11 255 255 255
3 12 13 311 255 255 255
3 279 14 250 255 255 255
3 13 263 311 255 255 255
3 201 279 14 255 255 255
3 14 318 201 255 255 255
3 281 196 14 255 255 255
3 279 298 312 255 255 255
3 279 201 298 255 255 255
3 250 278 201 255 255 255
3 15 318 14 255 255 255
3 15 313 318 255 255 255
3 14 201 15 255 255 255
3 281 278 196 255 255 255
3 16 13 17 255 255 255
3 15 213 313 255 255 255
3 17 311 263 255 255 255
3 13 142 17 255 255 255
3 201 319 298 255 255 255
3 201 10 250 255 255 255
3 15 316 213 255 255 255
3 281 229 278 255 255 255
3 312 319 279 255 255 255
3 313 75 318 255 255 255
3 316 317 213 255 255 255
3 317 75 213 255 255 255
3 316 15 317 255 255 255
3 15 320 316 255 255 255
3 318 15 10 255 255 255
3 319 144 298 255 255 255
3 317 15 75 255 255 255
3 15 320 317 255 255 255
3 320 317 316 255 255 255
3 10 281 250 255 255 255
3 278 321 38 255 255 255
3 319 312 144 255 255 255
3 321 281 38 255 255 255
3 15 317 271 255 255 255
3 281 196 38 255 255 255
3 278 141 321 255 255 255
3 15 186 317 255 255 255
3 317 187 15 255 255 255
3 186 188 317 255 255 255
3 15 187 186 255 255 255
3 317 188 187 255 255 255
3 187 216 186 255 255 255
3 188 216 187 255 255 255
3 188 186 216 255 255 255
3 186 234 216 255 255 255
3 189 194 186 255 255 255
3 234 169 216 255 255 255
3 194 169 186 255 255 255
3 194 189 169 255 255 255
3 189 186 169 255 255 255
3 230 308 190 255 255 255
3 190 195 230 255 255 255
3 230 232 191 255 255 255
3 190 233 8 255 255 255
3 191 192 230 255 255 255
3 191 246 9 255 255 255
3 230 195 232 255 255 255
3 190 245 195 255 255 255
3 8 315 190 255 255 255
3 190 308 233 255 255 255
3 192 308 230 255 255 255
3 232 246 191 255 255 255
3 195 37 232 255 255 255
3 195 45 37 255 255 255
3 245 202 195 255 255 255
3 314 245 190 255 255 255
3 314 193 245 255 255 255
3 190 315 314 255 255 255
3 191 9 192 255 255 255
3 246 204 9 255 255 255
3 232 231 275 255 255 255
3 231 283 275 255 255 255
3 45 76 37 255 255 255
3 195 202 231 255 255 255
3 202 134 231 255 255 255
3 192 114 308 255 255 255
3 275 47 232 255 255 255
3 231 37 283 255 255 255
3 232 195 231 255 255 255
3 45 276 76 255 255 255
3 231 276 45 255 255 255
3 202 205 134 255 255 255
3 245 50 202 255 255 255
3 193 100 245 255 255 255
3 315 198 314 255 255 255
3 233 21 8 255 255 255
3 233 8 203 255 255 255
3 9 48 192 255 255 255
3 276 205 76 255 255 255
3 45 134 276 255 255 255
3 202 282 205 255 255 255
3 198 193 314 255 255 255
3 315 209 198 255 255 255
3 203 310 233 255 255 255
3 192 48 161 255 255 255
3 204 115 9 255 255 255
3 232 47 246 255 255 255
3 205 116 76 255 255 255
3 245 208 50 255 255 255
3 193 209 100 255 255 255
3 233 310 21 255 255 255
3 203 8 124 255 255 255
3 114 254 305 255 255 255
3 115 48 9 255 255 255
3 204 3 115 255 255 255
3 47 275 215 255 255 255
3 116 177 76 255 255 255
3 282 177 205 255 255 255
3 245 166 208 255 255 255
3 193 206 209 255 255 255
3 114 146 315 255 255 255
3 8 21 124 255 255 255
3 203 124 310 255 255 255
3 114 1 254 255 255 255
3 48 70 161 255 255 255
3 246 49 204 255 255 255
3 47 49 246 255 255 255
3 283 207 275 255 255 255
3 116 283 231 255 255 255
3 282 197 177 255 255 255
3 245 282 166 255 255 255
3 284 282 245 255 255 255
3 206 174 209 255 255 255
3 315 308 114 255 255 255
3 8 308 315 255 255 255
3 21 117 124 255 255 255
3 305 252 114 255 255 255
3 114 146 1 255 255 255
3 161 1 192 255 255 255
3 70 264 161 255 255 255
3 70 64 48 255 255 255
3 48 261 70 255 255 255
3 49 193 204 255 255 255
3 207 210 275 255 255 255
3 202 284 282 255 255 255
3 284 253 282 255 255 255
3 209 315 174 255 255 255
3 8 192 300 255 255 255
3 1 114 252 255 255 255
3 48 157 261 255 255 255
3 210 135 275 255 255 255
3 283 197 207 255 255 255
3 282 265 197 255 255 255
3 284 323 282 255 255 255
3 50 166 282 255 255 255
3 209 132 49 255 255 255
3 206 286 174 255 255 255
3 285 146 206 255 255 255
3 206 132 285 255 255 255
3 193 49 206 255 255 255
3 310 117 21 255 255 255
3 117 310 124 255 255 255
3 179 118 1 255 255 255
3 252 92 1 255 255 255
3 157 115 261 255 255 255
3 47 215 63 255 255 255
3 284 100 253 255 255 255
3 206 136 286 255 255 255
3 285 264 146 255 255 255
3 315 206 198 255 255 255
3 161 264 146 255 255 255
3 8 114 192 255 255 255
3 305 254 92 255 255 255
3 118 272 254 255 255 255
3 92 179 1 255 255 255
3 63 49 47 255 255 255
3 215 287 63 255 255 255
3 29 131 215 255 255 255
3 197 96 207 255 255 255
3 208 67 50 255 255 255
3 166 71 208 255 255 255
3 209 148 132 255 255 255
3 264 292 146 255 255 255
3 92 1 305 255 255 255
3 264 64 48 255 255 255
3 253 100 63 255 255 255
3 63 57 253 255 255 255
3 215 131 137 255 255 255
3 131 222 137 255 255 255
3 215 135 29 255 255 255
3 197 265 235 255 255 255
3 282 253 57 255 255 255
3 208 71 67 255 255 255
3 71 40 67 255 255 255
3 166 50 71 255 255 255
3 49 100 209 255 255 255
3 132 148 285 255 255 255
3 209 4 148 255 255 255
3 286 181 25 255 255 255
3 264 157 292 255 255 255
3 1 114 305 255 255 255
3 254 238 92 255 255 255
3 63 100 49 255 255 255
3 215 309 287 255 255 255
3 282 202 323 255 255 255
3 67 71 50 255 255 255
3 40 182 67 255 255 255
3 71 0 40 255 255 255
3 25 136 286 255 255 255
3 157 3 292 255 255 255
3 287 218 63 255 255 255
3 175 222 287 255 255 255
3 131 171 222 255 255 255
3 29 126 131 255 255 255
3 135 119 29 255 255 255
3 40 71 182 255 255 255
3 136 148 286 255 255 255
3 179 92 254 255 255 255
3 63 218 57 255 255 255
3 287 309 175 255 255 255
3 135 207 119 255 255 255
3 135 210 304 255 255 255
3 235 96 197 255 255 255
3 57 184 265 255 255 255
3 57 218 184 255 255 255
3 136 181 148 255 255 255
3 179 106 272 255 255 255
3 287 171 218 255 255 255
3 287 215 175 255 255 255
3 215 131 309 255 255 255
3 137 222 309 255 255 255
3 222 175 309 255 255 255
3 171 287 222 255 255 255
3 135 165 210 255 255 255
3 287 304 215 255 255 255
3 96 288 207 255 255 255
3 254 106 238 255 255 255
3 272 254 179 255 255 255
3 131 137 309 255 255 255
3 131 171 137 255 255 255
3 171 126 267 255 255 255
3 29 150 126 255 255 255
3 207 211 288 255 255 255
3 235 288 96 255 255 255
3 218 125 184 255 255 255
3 218 236 125 255 255 255
3 171 287 137 255 255 255
3 267 218 171 255 255 255
3 29 294 150 255 255 255
3 207 288 119 255 255 255
3 288 235 162 255 255 255
3 125 299 184 255 255 255
3 236 267 125 255 255 255
3 126 172 267 255 255 255
3 150 30 126 255 255 255
3 288 211 119 255 255 255
3 288 138 255 255 255 255
3 162 299 288 255 255 255
3 265 162 235 255 255 255
3 265 184 162 255 255 255
3 299 220 184 255 255 255
3 26 299 125 255 255 255
3 236 218 267 255 255 255
3 126 30 172 255 255 255
3 119 211 56 255 255 255
3 288 255 211 255 255 255
3 138 99 255 255 255 255
3 288 299 138 255 255 255
3 299 162 220 255 255 255
3 172 26 267 255 255 255
3 150 180 30 255 255 255
3 211 255 289 255 255 255
3 255 99 289 255 255 255
3 299 221 138 255 255 255
3 30 102 172 255 255 255
3 101 91 30 255 255 255
3 180 101 30 255 255 255
3 268 129 294 255 255 255
3 294 256 268 255 255 255
3 143 125 267 255 255 255
3 143 128 125 255 255 255
3 30 176 28 255 255 255
3 101 90 91 255 255 255
3 56 294 119 255 255 255
3 176 102 28 255 255 255
3 101 180 163 255 255 255
3 289 180 211 255 255 255
3 99 223 289 255 255 255
3 173 54 255 255 255 255
3 255 290 173 255 255 255
3 138 295 99 255 255 255
3 51 143 172 255 255 255
3 172 185 51 255 255 255
3 102 172 28 255 255 255
3 176 130 102 255 255 255
3 30 102 176 255 255 255
3 163 90 101 255 255 255
3 180 18 120 255 255 255
3 256 29 119 255 255 255
3 180 56 211 255 255 255
3 223 295 289 255 255 255
3 59 217 173 255 255 255
3 290 103 173 255 255 255
3 99 290 255 255 255 255
3 172 102 185 255 255 255
3 102 163 62 255 255 255
3 90 178 91 255 255 255
3 120 62 180 255 255 255
3 180 289 18 255 255 255
3 54 257 289 255 255 255
3 295 54 289 255 255 255
3 223 151 295 255 255 255
3 99 170 290 255 255 255
3 295 151 99 255 255 255
3 295 221 34 255 255 255
3 221 299 128 255 255 255
3 221 255 128 255 255 255
3 128 138 221 255 255 255
3 102 30 130 255 255 255
3 30 91 130 255 255 255
3 91 52 130 255 255 255
3 91 178 77 255 255 255
3 90 77 91 255 255 255
3 163 291 90 255 255 255
3 18 66 120 255 255 255
3 18 35 121 255 255 255
3 257 35 289 255 255 255
3 295 35 54 255 255 255
3 173 103 54 255 255 255
3 160 103 290 255 255 255
3 99 170 255 255 255 255
3 127 27 221 255 255 255
3 221 120 127 255 255 255
3 185 183 221 255 255 255
3 221 99 255 255 255 255
3 90 77 178 255 255 255
3 90 52 77 255 255 255
3 121 258 18 255 255 255
3 257 121 35 255 255 255
3 35 257 54 255 255 255
3 290 223 160 255 255 255
3 269 160 295 255 255 255
3 183 120 221 255 255 255
3 221 51 185 255 255 255
3 163 180 62 255 255 255
3 52 163 130 255 255 255
3 66 127 120 255 255 255
3 18 258 66 255 255 255
3 121 257 258 255 255 255
3 35 295 289 255 255 255
3 103 257 54 255 255 255
3 160 54 295 255 255 255
3 127 270 27 255 255 255
3 52 94 163 255 255 255
3 291 52 90 255 255 255
3 291 94 52 255 255 255
3 291 60 94 255 255 255
3 66 55 127 255 255 255
3 121 93 262 255 255 255
3 93 212 262 255 255 255
3 93 257 103 255 255 255
3 269 2 160 255 255 255
3 27 147 34 255 255 255
3 270 147 27 255 255 255
3 270 55 147 255 255 255
3 127 65 270 255 255 255
3 94 291 163 255 255 255
3 60 301 168 255 255 255
3 291 168 60 255 255 255
3 94 168 291 255 255 255
3 66 22 55 255 255 255
3 167 65 66 255 255 255
3 258 302 66 255 255 255
3 103 5 93 255 255 255
3 269 295 158 255 255 255
3 60 168 94 255 255 255
3 301 152 168 255 255 255
3 168 152 60 255 255 255
3 22 69 55 255 255 255
3 167 302 65 255 255 255
3 302 167 66 255 255 255
3 258 269 158 255 255 255
3 262 269 258 255 255 255
3 2 103 160 255 255 255
3 2 5 103 255 255 255
3 2 104 5 255 255 255
3 269 212 2 255 255 255
3 34 23 295 255 255 255
3 147 23 34 255 255 255
3 147 69 23 255 255 255
3 302 22 65 255 255 255
3 258 158 302 255 255 255
3 93 139 212 255 255 255
3 5 33 93 255 255 255
3 2 139 104 255 255 255
3 212 139 2 255 255 255
3 295 23 158 255 255 255
3 168 68 152 255 255 255
3 22 23 69 255 255 255
3 302 23 22 255 255 255
3 158 66 302 255 255 255
3 93 33 139 255 255 255
3 5 122 33 255 255 255
3 168 79 291 255 255 255
3 68 293 168 255 255 255
3 152 293 68 255 255 255
3 152 149 168 255 255 255
3 301 293 152 255 255 255
3 158 95 66 255 255 255
3 122 61 33 255 255 255
3 104 72 5 255 255 255
3 139 219 104 255 255 255
3 291 274 60 255 255 255
3 79 301 291 255 255 255
3 168 293 79 255 255 255
3 68 149 152 255 255 255
3 33 73 139 255 255 255
3 122 73 61 255 255 255
3 5 72 122 255 255 255
3 72 19 5 255 255 255
3 301 273 293 255 255 255
3 122 322 73 255 255 255
3 19 322 122 255 255 255
3 122 5 19 255 255 255
3 72 19 122 255 255 255
3 133 19 104 255 255 255
3 219 153 104 255 255 255
3 139 61 219 255 255 255
3 79 273 301 255 255 255
3 274 168 79 255 255 255
3 273 79 293 255 255 255
3 61 139 33 255 255 255
3 72 322 19 255 255 255
3 79 60 274 255 255 255
3 139 122 33 255 255 255
3 19 58 322 255 255 255
3 322 133 19 255 255 255
3 133 58 19 255 255 255
3 104 240 133 255 255 255
3 153 240 104 255 255 255
3 153 239 240 255 255 255
3 139 212 122 255 255 255
3 212 5 122 255 255 255
3 239 240 322 255 255 255
3 239 237 240 255 255 255
3 322 97 133 255 255 255
3 133 239 58 255 255 255
3 219 53 153 255 255 255
3 61 73 219 255 255 255
3 122 73 33 255 255 255
3 322 240 73 255 255 255
3 153 164 239 255 255 255
3 53 164 153 255 255 255
3 219 73 53 255 255 255
3 73 32 53 255 255 255
3 164 53 31 255 255 255
3 164 145 239 255 255 255
3 164 259 53 255 255 255
3 237 31 240 255 255 255
3 164 307 145 255 255 255
3 259 32 53 255 255 255
3 240 31 73 255 255 255
3 239 307 237 255 255 255
3 145 307 239 255 255 255
3 259 73 32 255 255 255
3 237 164 156 255 255 255
3 31 237 164 255 255 255
3 32 31 53 255 255 255
3 237 307 164 255 255 255
3 237 145 164 255 255 255
3 123 154 6 255 255 255
3 123 155 154 255 255 255
3 123 306 155 255 255 255
3 306 241 155 255 255 255
3 123 241 306 255 255 255
3 154 155 6 255 255 255
3 155 123 6 255 255 255
3 155 241 123 255 255 255
3 20 214 98 255 255 255
3 159 214 20 255 255 255
3 159 98 214 255 255 255
3 159 20 98 255 255 255
3 303 140 24 255 255 255
3 105 140 303 255 255 255
3 303 24 105 255 255 255
3 140 105 24 255 255 255
