ply
format ascii 1.0
comment PCL generated
element vertex 69
property float x
property float y
property float z
property uchar red
property uchar green
property uchar blue
element camera 1
property float view_px
property float view_py
property float view_pz
property float x_axisx
property float x_axisy
property float x_axisz
property float y_axisx
property float y_axisy
property float y_axisz
property float z_axisx
property float z_axisy
property float z_axisz
property float focal
property float scalex
property float scaley
property float centerx
property float centery
property int viewportx
property int viewporty
property float k1
property float k2
end_header
-7.073 13.191 -0.84799999 233 147 90
-7.0689998 13.2 -0.84799999 213 128 74
-7.0679998 13.186 -0.83399999 98 86 88
-7.0770001 13.202 -0.84100002 210 110 34
-7.0809999 13.198 -0.85399997 104 92 94
-7.0910001 13.204 -0.85100001 68 38 12
-7.0689998 13.198 -0.83600003 185 87 24
-7.0710001 13.198 -0.84799999 237 138 73
-7.0760002 13.201 -0.824 183 90 29
-7.0739999 13.192 -0.829 155 126 108
-7.0970001 13.146 -0.833 111 67 42
-7.1040001 13.134 -0.84600002 151 97 53
-7.0890002 13.147 -0.83700001 130 99 81
-7.0999999 13.145 -0.82300001 190 92 27
-7.0799999 13.154 -0.824 201 124 78
-7.0780001 13.15 -0.81900001 107 35 0
-7.092 13.146 -0.82800001 160 112 76
-7.086 13.135 -0.82499999 79 37 15
-7.072 13.202 -0.838 215 126 68
-7.079 13.205 -0.82800001 235 135 59
-7.098 13.131 -0.83700001 194 111 57
-7.0809999 13.187 -0.847 151 84 42
-7.085 13.185 -0.852 125 62 9
-7.0900002 13.132 -0.82999998 110 79 61
-7.085 13.109 -0.84600002 80 47 16
-7.0869999 13.108 -0.83899999 83 55 18
-7.0799999 13.108 -0.83999997 76 42 15
-7.1009998 13.136 -0.81900001 219 136 84
-7.1009998 13.128 -0.81599998 157 104 64
-7.112 13.135 -0.824 164 130 102
-7.079 13.15 -0.824 110 79 58
-7.0739999 13.202 -0.84100002 137 94 62
-7.1040001 13.123 -0.847 149 108 80
-7.1009998 13.12 -0.84399998 109 44 6
-7.1069999 13.121 -0.83399999 187 151 129
-7.1059999 13.123 -0.84200001 78 45 14
-7.1020002 13.136 -0.83999997 208 115 58
-7.0780001 13.182 -0.82999998 83 64 60
-7.085 13.191 -0.829 146 117 99
-7.0780001 13.188 -0.84200001 143 105 84
-7.085 13.203 -0.83600003 139 101 78
-7.0799999 13.195 -0.82800001 173 87 36
-7.1090002 13.132 -0.824 167 130 104
-7.1069999 13.126 -0.829 183 89 35
-7.0999999 13.142 -0.82999998 84 55 47
-7.1110001 13.134 -0.82599998 139 94 61
-7.0949998 13.128 -0.82200003 135 61 16
-7.098 13.129 -0.83099997 143 81 42
-7.0939999 13.142 -0.83499998 199 96 29
-7.1009998 13.121 -0.83899999 184 93 36
-7.1110001 13.134 -0.84299999 197 141 106
-7.0819998 13.194 -0.85299999 138 102 78
-7.0910001 13.197 -0.85000002 77 40 22
-7.0960002 13.188 -0.84500003 87 53 28
-7.0770001 13.184 -0.83399999 158 100 60
-7.099 13.146 -0.82700002 203 112 57
-7.0830002 13.185 -0.838 160 79 32
-7.085 13.2 -0.84399998 201 123 75
-7.0900002 13.195 -0.83999997 170 129 99
-7.1090002 13.128 -0.829 114 91 85
-7.0890002 13.139 -0.83099997 160 98 57
-7.0999999 13.127 -0.83700001 158 118 93
-7.085 13.194 -0.852 144 120 108
-7.086 13.195 -0.833 221 156 114
-7.0879998 13.192 -0.83099997 158 117 89
-7.0910001 13.19 -0.84100002 171 125 89
-7.0890002 13.201 -0.84500003 94 59 37
-7.099 13.134 -0.83700001 206 103 44
-7.098 13.13 -0.83499998 187 90 22
0 0 0 1 0 0 0 1 0 0 0 1 0 0 0 0 0 69 1 0 0
