ply
format ascii 1.0
comment PCL generated
element vertex 141
property float x
property float y
property float z
property uchar red
property uchar green
property uchar blue
element camera 1
property float view_px
property float view_py
property float view_pz
property float x_axisx
property float x_axisy
property float x_axisz
property float y_axisx
property float y_axisy
property float y_axisz
property float z_axisx
property float z_axisy
property float z_axisz
property float focal
property float scalex
property float scaley
property float centerx
property float centery
property int viewportx
property int viewporty
property float k1
property float k2
end_header
-1.745 9.3859997 -1.041 145 59 10
-1.734 9.3780003 -1.0420001 232 155 83
-1.7460001 9.3850002 -1.045 82 41 21
-1.724 9.4160004 -0.99900001 102 42 5
-1.724 9.4119997 -0.98400003 119 50 8
-1.735 9.4239998 -0.995 70 37 22
-1.715 9.4069996 -0.98199999 145 74 22
-1.725 9.4169998 -1.0140001 95 29 0
-1.733 9.4250002 -1.003 59 26 11
-1.722 9.4130001 -1.011 44 7 0
-1.748 9.3870001 -1.045 202 108 46
-1.7359999 9.3950005 -1.005 207 155 97
-1.729 9.3959999 -1.015 98 53 30
-1.73 9.3959999 -1.002 119 59 22
-1.73 9.3970003 -1.0089999 128 87 65
-1.7359999 9.3950005 -1.0140001 203 141 68
-1.725 9.3879995 -1.045 209 151 111
-1.734 9.3809996 -1.046 121 68 36
-1.73 9.3929996 -1.0470001 81 24 0
-1.7180001 9.3940001 -0.98199999 90 41 1
-1.714 9.3800001 -0.97899997 187 126 37
-1.716 9.3809996 -0.97500002 247 184 89
-1.748 9.4090004 -1.033 108 33 4
-1.751 9.3990002 -1.045 130 55 23
-1.753 9.3959999 -1.038 170 120 87
-1.707 9.4189997 -1.029 104 69 49
-1.71 9.4230003 -1.035 110 46 2
-1.705 9.4219999 -1.029 153 83 23
-1.74 9.4209995 -0.995 97 56 26
-1.74 9.4219999 -1.0190001 78 30 7
-1.739 9.4209995 -1.018 124 46 0
-1.743 9.415 -1.007 40 16 6
-1.742 9.3959999 -1.03 85 48 32
-1.733 9.4119997 -0.98299998 112 48 10
-1.7309999 9.4060001 -0.97500002 112 72 23
-1.74 9.4069996 -0.98100001 154 113 69
-1.7460001 9.3959999 -1.007 222 168 122
-1.748 9.401 -1.012 201 109 60
-1.744 9.3950005 -1.012 205 137 74
-1.744 9.3950005 -1.0089999 138 75 22
-1.7460001 9.3959999 -1.0039999 183 140 89
-1.723 9.3850002 -0.98299998 224 165 89
-1.727 9.3800001 -0.97799999 219 164 110
-1.721 9.3769999 -0.977 146 93 43
-1.734 9.3870001 -0.98799998 145 75 15
-1.748 9.3999996 -1.008 195 110 71
-1.749 9.4049997 -1.0039999 133 59 24
-1.749 9.4040003 -0.99800003 117 44 0
-1.747 9.4060001 -1.021 222 120 56
-1.74 9.4200001 -1.028 76 30 6
-1.715 9.3879995 -0.98900002 160 117 82
-1.721 9.3950005 -0.97799999 162 112 53
-1.724 9.3940001 -0.972 149 105 76
-1.7180001 9.4180002 -1.035 74 33 11
-1.714 9.4300003 -1.036 82 29 11
-1.722 9.4300003 -1.023 118 66 26
-1.715 9.4130001 -1.022 31 6 0
-1.716 9.415 -1.023 30 7 1
-1.707 9.4099998 -1.0190001 183 141 103
-1.719 9.4060001 -1.01 66 35 15
-1.725 9.408 -1.003 61 23 2
-1.71 9.4189997 -1.03 105 47 1
-1.71 9.4029999 -1.02 42 8 0
-1.7130001 9.4130001 -1.024 76 23 7
-1.75 9.4069996 -1.002 181 110 68
-1.724 9.3809996 -0.977 176 133 80
-1.728 9.3870001 -0.972 144 91 37
-1.742 9.3979998 -1.017 235 124 53
-1.733 9.3859997 -1.039 230 157 88
-1.7309999 9.3859997 -0.97399998 160 71 15
-1.744 9.3940001 -0.986 159 79 28
-1.74 9.4060001 -0.98000002 136 93 74
-1.7410001 9.3870001 -1.046 71 35 19
-1.7359999 9.3929996 -1.048 130 72 34
-1.7410001 9.3959999 -1.0470001 62 26 14
-1.745 9.3990002 -1.044 128 45 11
-1.74 9.3990002 -1.044 150 78 38
-1.7180001 9.4130001 -1.028 43 6 0
-1.717 9.3970003 -1.026 61 15 0
-1.734 9.3900003 -0.99299997 214 147 92
-1.719 9.4020004 -0.98699999 172 109 68
-1.734 9.3990002 -1.045 69 13 0
-1.7180001 9.427 -1.034 93 48 19
-1.716 9.4169998 -1.03 39 0 0
-1.747 9.4069996 -0.986 194 101 31
-1.749 9.4020004 -0.98299998 251 163 99
-1.74 9.4049997 -0.98000002 159 115 78
-1.742 9.3859997 -1.041 136 44 0
-1.737 9.3979998 -1.026 138 55 13
-1.7309999 9.3859997 -0.98400003 230 160 74
-1.738 9.3909998 -0.977 174 80 8
-1.732 9.3900003 -0.972 177 119 69
-1.748 9.3990002 -0.98900002 169 92 36
-1.732 9.3900003 -1.039 216 146 86
-1.721 9.4119997 -1.028 45 3 0
-1.723 9.4049997 -1.025 92 42 9
-1.732 9.3979998 -1.035 85 31 0
-1.714 9.4090004 -1.022 135 98 69
-1.74 9.3929996 -0.99800003 100 33 4
-1.743 9.401 -1.021 236 131 65
-1.725 9.3959999 -1.015 114 60 16
-1.727 9.401 -1.007 67 14 6
-1.726 9.3999996 -1.011 66 17 2
-1.728 9.3970003 -0.99400002 56 14 0
-1.724 9.4049997 -1.008 61 19 3
-1.7180001 9.4020004 -0.98500001 95 50 21
-1.744 9.4040003 -1.04 138 64 27
-1.742 9.4060001 -1.036 70 26 1
-1.744 9.4090004 -0.995 118 82 58
-1.711 9.4239998 -1.027 238 166 94
-1.734 9.3929996 -0.97399998 92 39 0
-1.73 9.3990002 -0.97600001 136 97 66
-1.733 9.3990002 -1.04 95 41 7
-1.738 9.3900003 -0.98400003 75 35 10
-1.7410001 9.3940001 -0.97899997 231 138 61
-1.745 9.3990002 -0.99800003 103 32 0
-1.748 9.401 -0.986 188 108 47
-1.738 9.4090004 -1.031 186 127 93
-1.7309999 9.4160004 -1.026 50 17 2
-1.729 9.3970003 -1.03 186 133 91
-1.722 9.4060001 -1.025 112 64 41
-1.738 9.3920002 -0.991 109 31 0
-1.723 9.4029999 -1.011 42 5 0
-1.72 9.4020004 -0.98199999 130 58 18
-1.743 9.4020004 -1.026 208 109 52
-1.724 9.4250002 -1.027 145 93 69
-1.717 9.4219999 -1.025 40 9 4
-1.745 9.3990002 -1.0140001 188 88 28
-1.7410001 9.4029999 -1.04 138 79 37
-1.734 9.3979998 -1.026 109 42 13
-1.734 9.3870001 -0.98199999 145 55 0
-1.735 9.4029999 -0.97899997 147 110 81
-1.745 9.3970003 -0.99000001 146 68 30
-1.745 9.3990002 -0.995 110 36 1
-1.726 9.3929996 -0.98900002 124 78 19
-1.732 9.3940001 -1.035 196 131 77
-1.729 9.3850002 -0.97500002 193 141 84
-1.733 9.3859997 -0.98400003 171 92 26
-1.723 9.3950005 -0.98799998 67 21 0
-1.72 9.4230003 -1.024 60 21 4
-1.7180001 9.4230003 -1.025 103 56 26
0 0 0 1 0 0 0 1 0 0 0 1 0 0 0 0 0 141 1 0 0
