ply
format ascii 1.0
comment PCL generated
element vertex 65
property float x
property float y
property float z
property uchar red
property uchar green
property uchar blue
element camera 1
property float view_px
property float view_py
property float view_pz
property float x_axisx
property float x_axisy
property float x_axisz
property float y_axisx
property float y_axisy
property float y_axisz
property float z_axisx
property float z_axisy
property float z_axisz
property float focal
property float scalex
property float scaley
property float centerx
property float centery
property int viewportx
property int viewporty
property float k1
property float k2
end_header
12.453 10.925 -0.48199999 131 69 30
12.442 10.92 -0.484 79 54 24
12.448 10.917 -0.46900001 54 31 13
12.442 10.918 -0.47400001 68 41 24
12.453 10.933 -0.48300001 77 43 18
12.455 10.93 -0.48100001 71 42 26
12.467 10.951 -0.435 103 67 19
12.475 10.937 -0.43000001 163 104 64
12.469 10.954 -0.433 149 79 9
12.489 10.947 -0.43000001 74 48 23
12.476 10.962 -0.42699999 106 65 33
12.476 10.933 -0.43000001 141 89 31
12.491 10.947 -0.45699999 57 34 18
12.492 10.951 -0.44499999 126 100 75
12.492 10.949 -0.458 107 40 0
12.491 10.943 -0.43200001 107 75 37
12.487 10.939 -0.433 147 103 56
12.466 10.962 -0.44299999 84 60 50
12.467 10.953 -0.458 150 86 38
12.462 10.958 -0.449 76 47 31
12.472 10.956 -0.44100001 94 51 19
12.471 10.958 -0.44499999 137 93 56
12.472 10.956 -0.45100001 95 61 34
12.476 10.955 -0.43000001 122 96 73
12.457 10.924 -0.46599999 115 73 48
12.476 10.929 -0.44 138 67 21
12.485 10.929 -0.44999999 68 36 15
12.436 10.931 -0.46900001 78 61 54
12.438 10.93 -0.461 117 59 22
12.434 10.943 -0.465 101 63 27
12.44 10.924 -0.46799999 135 84 37
12.435 10.929 -0.48100001 73 40 23
12.453 10.929 -0.45300001 83 43 17
12.468 10.936 -0.44600001 164 105 63
12.468 10.932 -0.45500001 77 55 41
12.447 10.933 -0.449 110 81 49
12.457 10.933 -0.47 63 43 34
12.449 10.942 -0.47400001 84 55 37
12.477 10.931 -0.45500001 173 108 50
12.438 10.933 -0.484 37 22 17
12.439 10.948 -0.461 92 34 0
12.489 10.952 -0.45199999 63 31 6
12.473 10.954 -0.43000001 174 116 76
12.475 10.95 -0.43200001 68 38 2
12.443 10.92 -0.472 70 38 23
12.473 10.935 -0.44 81 61 50
12.476 10.932 -0.44999999 151 95 44
12.469 10.94 -0.44400001 136 88 42
12.457 10.942 -0.44999999 206 151 97
12.464 10.931 -0.45699999 96 68 46
12.47 10.946 -0.45699999 58 34 22
12.462 10.942 -0.465 83 54 36
12.461 10.949 -0.45699999 84 54 30
12.459 10.943 -0.461 57 24 5
12.484 10.934 -0.44499999 110 56 12
12.485 10.951 -0.44100001 118 79 48
12.437 10.94 -0.46599999 107 70 41
12.454 10.94 -0.46200001 148 105 71
12.458 10.928 -0.461 124 91 72
12.464 10.936 -0.45899999 111 86 64
12.488 10.943 -0.44299999 70 44 27
12.464 10.957 -0.44299999 152 92 58
12.458 10.937 -0.45100001 140 98 56
12.444 10.935 -0.45899999 88 63 41
12.474 10.944 -0.45199999 104 71 36
0 0 0 1 0 0 0 1 0 0 0 1 0 0 0 0 0 65 1 0 0
