ply
format ascii 1.0
comment PCL generated
element vertex 370
property float x
property float y
property float z
property uchar red
property uchar green
property uchar blue
element camera 1
property float view_px
property float view_py
property float view_pz
property float x_axisx
property float x_axisy
property float x_axisz
property float y_axisx
property float y_axisy
property float y_axisz
property float z_axisx
property float z_axisy
property float z_axisz
property float focal
property float scalex
property float scaley
property float centerx
property float centery
property int viewportx
property int viewporty
property float k1
property float k2
end_header
9.1230001 4.427 -0.76700002 110 81 67
9.1239996 4.421 -0.76300001 91 63 49
9.1269999 4.4299998 -0.76099998 97 58 27
9.1870003 4.4099998 -0.847 63 40 24
9.1759996 4.4050002 -0.84600002 63 41 27
9.1879997 4.4050002 -0.85399997 151 148 159
9.1569996 4.4060001 -0.84500003 69 47 33
9.1709995 4.3959999 -0.85799998 145 110 88
9.1630001 4.395 -0.86000001 49 23 6
9.1590004 4.414 -0.83999997 110 92 90
9.1409998 4.428 -0.79000002 89 52 33
9.1339998 4.4180002 -0.792 41 19 6
9.1409998 4.415 -0.787 86 51 29
9.1120005 4.4949999 -0.80500001 107 62 29
9.1079998 4.4899998 -0.81599998 46 26 19
9.125 4.5040002 -0.81800002 79 38 8
9.1789999 4.415 -0.83899999 54 30 18
9.1470003 4.447 -0.88300002 30 5 0
9.1459999 4.4580002 -0.87900001 55 21 12
9.1440001 4.4559999 -0.87300003 80 44 30
9.1590004 4.4889998 -0.88700002 68 17 0
9.1569996 4.4879999 -0.88200003 54 12 0
9.1389999 4.4920001 -0.884 107 63 34
9.1459999 4.4260001 -0.79400003 43 20 6
9.1459999 4.4400001 -0.787 78 45 28
9.1459999 4.4400001 -0.78200001 67 35 20
9.165 4.4060001 -0.861 118 87 69
9.165 4.402 -0.86199999 89 64 57
9.1870003 4.4099998 -0.86000001 150 79 49
9.1599998 4.408 -0.86699998 122 92 84
9.1409998 4.4679999 -0.875 64 24 12
9.1809998 4.4109998 -0.84200001 119 101 99
9.1409998 4.448 -0.88700002 38 8 0
9.1359997 4.428 -0.88099998 42 22 21
9.1379995 4.4460001 -0.88099998 33 6 0
9.158 4.4819999 -0.88599998 67 20 4
9.1610003 4.48 -0.861 50 26 16
9.1350002 4.4559999 -0.88700002 77 31 8
9.1359997 4.4829998 -0.88200003 113 63 36
9.1610003 4.4109998 -0.86299998 87 62 57
9.1719999 4.421 -0.85699999 58 32 19
9.1520004 4.4130001 -0.85799998 138 123 120
9.1479998 4.4200001 -0.85799998 68 36 25
9.1499996 4.4130001 -0.85900003 140 111 95
9.1379995 4.4990001 -0.866 59 31 17
9.1409998 4.5 -0.847 54 27 16
9.1420002 4.4959998 -0.85399997 171 165 167
9.1070004 4.4899998 -0.80900002 94 51 17
9.125 4.5029998 -0.83200002 113 86 75
9.1309996 4.5100002 -0.82099998 75 52 46
9.1210003 4.5029998 -0.83700001 115 74 42
9.1260004 4.4219999 -0.796 80 33 7
9.1280003 4.4250002 -0.79500002 124 110 109
9.118 4.4200001 -0.79799998 71 34 16
9.1339998 4.434 -0.792 121 90 70
9.1440001 4.4450002 -0.778 49 26 12
9.1190004 4.4260001 -0.80500001 44 20 8
9.1169996 4.427 -0.81099999 106 51 10
9.1529999 4.4439998 -0.787 42 20 7
9.1540003 4.428 -0.80299997 191 158 143
9.1520004 4.4489999 -0.778 126 95 75
9.1549997 4.4499998 -0.77899998 40 17 3
9.1560001 4.4510002 -0.77100003 54 28 11
9.1479998 4.4549999 -0.77100003 63 37 22
9.1619997 4.3979998 -0.86199999 54 28 15
9.1569996 4.4060001 -0.86000001 93 66 45
9.1409998 4.4889998 -0.84200001 91 63 59
9.1569996 4.48 -0.852 46 19 8
9.1429996 4.4850001 -0.84100002 73 42 22
9.1490002 4.4369998 -0.87300003 76 55 52
9.1470003 4.421 -0.86699998 126 98 84
9.1540003 4.4169998 -0.866 91 58 49
9.1280003 4.4679999 -0.86900002 58 29 11
9.1330004 4.4840002 -0.87 93 58 36
9.1359997 4.4749999 -0.87099999 57 24 5
9.1269999 4.4549999 -0.88599998 232 176 143
9.132 4.4569998 -0.88700002 153 148 152
9.132 4.4899998 -0.87199998 79 35 8
9.1379995 4.4910002 -0.87800002 99 58 36
9.1359997 4.4629998 -0.884 103 49 23
9.1400003 4.4770002 -0.875 54 27 16
9.1379995 4.5209999 -0.829 119 91 79
9.1499996 4.5139999 -0.83099997 57 25 12
9.1440001 4.5229998 -0.824 78 51 40
9.1400003 4.5110002 -0.838 34 14 7
9.1379995 4.4970002 -0.84100002 123 96 77
9.1199999 4.4889998 -0.84799999 90 54 42
9.1210003 4.493 -0.85600001 37 10 3
9.125 4.494 -0.84799999 73 45 34
9.1269999 4.5040002 -0.83899999 149 123 110
9.1300001 4.4980001 -0.85900003 60 31 15
9.132 4.4990001 -0.85699999 77 37 11
9.118 4.4990001 -0.83200002 86 51 23
9.1599998 4.4759998 -0.85399997 96 62 60
9.1160002 4.46 -0.82200003 95 66 48
9.1190004 4.4559999 -0.829 115 41 4
9.1239996 4.454 -0.82700002 94 61 46
9.1120005 4.4879999 -0.80900002 82 42 7
9.1330004 4.428 -0.79299998 75 30 9
9.1280003 4.4299998 -0.79900002 128 97 66
9.132 4.434 -0.79900002 139 92 62
9.1440001 4.4180002 -0.79400003 129 91 68
9.1339998 4.4169998 -0.80599999 85 58 49
9.1560001 4.4239998 -0.81300002 138 94 59
9.1470003 4.427 -0.80599999 149 115 90
9.151 4.467 -0.77899998 123 91 76
9.151 4.4619999 -0.76999998 148 101 59
9.1059999 4.4829998 -0.815 39 19 12
9.1059999 4.4759998 -0.81999999 80 49 28
9.1099997 4.4860001 -0.81599998 223 155 118
9.1049995 4.467 -0.80599999 42 29 13
9.1059999 4.4699998 -0.81099999 97 62 32
9.1730003 4.4829998 -0.79799998 63 25 4
9.1809998 4.4790001 -0.81400001 96 59 40
9.1820002 4.4759998 -0.815 49 22 11
9.1540003 4.4660001 -0.76599997 134 83 40
9.1540003 4.4070001 -0.86199999 77 51 36
9.1499996 4.4349999 -0.81900001 86 50 36
9.1470003 4.434 -0.81800002 145 100 67
9.1429996 4.434 -0.833 146 108 95
9.1569996 4.4310002 -0.81599998 96 66 55
9.1610003 4.4369998 -0.82999998 68 35 26
9.1540003 4.4320002 -0.84299999 91 61 51
9.1669998 4.4250002 -0.84600002 99 68 39
9.1549997 4.4390001 -0.82700002 59 31 17
9.1239996 4.4169998 -0.801 38 16 2
9.1389999 4.421 -0.80000001 172 136 124
9.1429996 4.4260001 -0.81 102 66 52
9.1429996 4.5100002 -0.83200002 55 37 37
9.1269999 4.48 -0.83999997 65 32 25
9.1499996 4.4299998 -0.866 65 40 33
9.1599998 4.4219999 -0.86299998 46 21 17
9.1619997 4.4419999 -0.85900003 47 24 8
9.1529999 4.428 -0.86299998 52 27 23
9.1210003 4.454 -0.83600003 139 76 41
9.1160002 4.46 -0.82999998 64 38 23
9.1190004 4.46 -0.83899999 32 5 0
9.125 4.4429998 -0.83099997 84 58 35
9.1339998 4.5 -0.83099997 154 130 126
9.132 4.4920001 -0.83499998 81 39 14
9.1409998 4.4790001 -0.83200002 87 54 45
9.1309996 4.4860001 -0.82200003 113 88 68
9.1619997 4.4679999 -0.83700001 73 41 28
9.158 4.448 -0.84200001 158 144 141
9.158 4.448 -0.84899998 146 131 124
9.1560001 4.4510002 -0.84200001 75 48 31
9.1459999 4.4640002 -0.84100002 58 30 18
9.1490002 4.4419999 -0.86699998 93 66 49
9.1540003 4.441 -0.86199999 70 42 28
9.1230001 4.4809999 -0.86199999 113 57 30
9.1420002 4.4889998 -0.87599999 78 52 39
9.118 4.4489999 -0.87199998 88 34 8
9.1140003 4.4520001 -0.87099999 21 2 0
9.1190004 4.4520001 -0.87199998 48 16 5
9.1350002 4.4860001 -0.87400001 60 41 35
9.1379995 4.4699998 -0.866 25 5 0
9.125 4.461 -0.87300003 25 7 3
9.1739998 4.4180002 -0.84600002 159 123 91
9.1789999 4.4109998 -0.85500002 67 44 26
9.158 4.4169998 -0.84799999 44 16 0
9.1490002 4.428 -0.85299999 48 17 0
9.1619997 4.4429998 -0.85000002 56 33 17
9.1669998 4.4260001 -0.85100001 82 56 43
9.1739998 4.4180002 -0.852 110 77 46
9.132 4.4990001 -0.85299999 51 25 12
9.1300001 4.5019999 -0.84200001 64 31 14
9.1339998 4.5120001 -0.83499998 177 150 139
9.1169996 4.48 -0.82300001 87 64 56
9.1149998 4.4780002 -0.82200003 101 65 41
9.118 4.4720001 -0.83700001 108 49 19
9.1429996 4.4809999 -0.838 75 42 23
9.1409998 4.4619999 -0.85699999 29 5 0
9.1409998 4.4569998 -0.85500002 144 129 126
9.1540003 4.454 -0.82200003 72 43 27
9.1470003 4.4520001 -0.82099998 74 37 18
9.151 4.4660001 -0.82200003 61 33 19
9.1409998 4.4390001 -0.78899997 153 107 81
9.1560001 4.4510002 -0.778 118 82 58
9.1709995 4.4499998 -0.815 140 107 92
9.1590004 4.4349999 -0.81999999 78 44 32
9.1599998 4.4489999 -0.82499999 95 44 17
9.1780005 4.473 -0.81599998 109 74 42
9.1700001 4.474 -0.829 83 51 38
9.1590004 4.4390001 -0.81900001 101 74 55
9.1630001 4.4460001 -0.815 63 40 24
9.1359997 4.4239998 -0.79299998 72 30 8
9.1759996 4.4759998 -0.82099998 106 70 46
9.1669998 4.4780002 -0.82800001 67 31 7
9.1669998 4.4780002 -0.81900001 59 31 20
9.1540003 4.4590001 -0.76499999 143 96 54
9.158 4.4689999 -0.778 104 59 20
9.1669998 4.4840002 -0.77700001 221 176 134
9.1610003 4.4910002 -0.77899998 100 72 48
9.151 4.467 -0.78899997 162 135 124
9.151 4.4460001 -0.79500002 121 89 74
9.1529999 4.4390001 -0.80900002 81 34 6
9.1499996 4.4369998 -0.82200003 94 60 35
9.1560001 4.4510002 -0.833 75 48 31
9.158 4.4320002 -0.815 129 97 86
9.1389999 4.4289999 -0.81599998 92 65 48
9.1260004 4.4219999 -0.83099997 86 57 43
9.1359997 4.4299998 -0.84200001 99 65 53
9.1260004 4.4239998 -0.83700001 112 84 60
9.1230001 4.4260001 -0.84299999 105 64 34
9.1199999 4.428 -0.84600002 123 63 29
9.1260004 4.428 -0.84899998 154 120 95
9.125 4.421 -0.82499999 78 74 73
9.1199999 4.4169998 -0.81999999 123 75 37
9.1079998 4.4070001 -0.82800001 91 54 36
9.1190004 4.4109998 -0.80900002 81 50 21
9.1120005 4.4250002 -0.82300001 87 56 28
9.1040001 4.415 -0.82099998 109 74 55
9.1420002 4.5159998 -0.829 69 32 3
9.1300001 4.4910002 -0.81999999 165 136 118
9.1239996 4.4429998 -0.87400001 44 11 2
9.1490002 4.434 -0.86799997 50 23 14
9.1630001 4.4250002 -0.85900003 152 132 133
9.1230001 4.461 -0.847 41 16 9
9.1219997 4.4549999 -0.84799999 133 75 38
9.1190004 4.4510002 -0.86000001 126 71 40
9.1379995 4.5100002 -0.82800001 36 15 10
9.1619997 4.4759998 -0.82499999 107 79 65
9.1599998 4.4770002 -0.83200002 118 70 30
9.1379995 4.494 -0.87300003 137 101 79
9.1809998 4.4120002 -0.85500002 107 79 68
9.1730003 4.4169998 -0.85500002 64 37 20
9.1330004 4.5 -0.85000002 107 72 44
9.1370001 4.4980001 -0.85600001 77 48 34
9.1450005 4.4840002 -0.87300003 47 9 0
9.1379995 4.494 -0.86699998 61 28 9
9.1379995 4.4910002 -0.86799997 70 33 15
9.1190004 4.4749999 -0.829 58 26 15
9.1429996 4.4530001 -0.78899997 92 63 31
9.1129999 4.4629998 -0.80599999 49 33 20
9.1099997 4.4590001 -0.81099999 171 103 66
9.1630001 4.4619999 -0.81099999 60 32 21
9.1499996 4.4460001 -0.801 96 69 58
9.1599998 4.4720001 -0.82200003 59 27 12
9.1639996 4.4580002 -0.81800002 102 66 52
9.1420002 4.4450002 -0.80900002 162 89 46
9.1409998 4.4499998 -0.80000001 94 67 58
9.1499996 4.4489999 -0.796 67 33 23
9.1110001 4.48 -0.81300002 105 69 37
9.1239996 4.4759998 -0.80800003 62 39 23
9.1059999 4.4689999 -0.81599998 81 44 15
9.1669998 4.4660001 -0.80299997 108 77 46
9.1619997 4.4660001 -0.79900002 79 35 10
9.1680002 4.4580002 -0.80699998 126 82 53
9.1669998 4.4770002 -0.792 117 72 39
9.1709995 4.487 -0.78299999 217 172 130
9.1709995 4.4790001 -0.79400003 156 89 21
9.1680002 4.4889998 -0.79000002 136 95 67
9.1680002 4.4879999 -0.78100002 153 124 116
9.1689997 4.4780002 -0.81300002 43 16 7
9.1730003 4.473 -0.81999999 70 42 31
9.158 4.4619999 -0.77899998 123 84 55
9.1499996 4.4359999 -0.80400002 66 40 27
9.1660004 4.4510002 -0.81300002 144 111 94
9.1680002 4.4569998 -0.80800003 57 33 21
9.1370001 4.434 -0.82300001 96 40 7
9.1289997 4.427 -0.83600003 86 71 68
9.1409998 4.4330001 -0.84299999 168 93 61
9.1309996 4.4260001 -0.847 89 59 49
9.125 4.427 -0.83700001 153 119 92
9.1210003 4.4260001 -0.82599998 85 51 23
9.125 4.428 -0.838 103 57 23
9.1239996 4.4289999 -0.84100002 78 44 32
9.125 4.421 -0.81900001 85 58 39
9.1110001 4.4109998 -0.82099998 94 57 39
9.1070004 4.4070001 -0.81900001 131 67 31
9.1199999 4.4289999 -0.81999999 71 43 29
9.1269999 4.4250002 -0.829 78 50 29
9.1219997 4.4429998 -0.838 111 80 62
9.1239996 4.4289999 -0.82700002 66 35 17
9.1269999 4.4530001 -0.81900001 136 61 21
9.1330004 4.434 -0.80500001 63 29 4
9.1389999 4.4489999 -0.81900001 56 24 11
9.1300001 4.4640002 -0.81900001 159 87 47
9.1350002 4.4689999 -0.81599998 126 82 47
9.1120005 4.4619999 -0.824 109 46 13
9.1400003 4.4219999 -0.85699999 76 46 36
9.1309996 4.4330001 -0.875 63 33 25
9.1219997 4.4549999 -0.84100002 117 48 15
9.125 4.4699998 -0.84600002 46 14 1
9.1239996 4.4790001 -0.85799998 69 32 6
9.158 4.4759998 -0.82700002 108 72 46
9.1590004 4.4439998 -0.85799998 58 29 13
9.1540003 4.4460001 -0.85000002 50 24 9
9.151 4.4429998 -0.86199999 45 20 13
9.1289997 4.4879999 -0.86500001 48 16 5
9.1280003 4.4780002 -0.86500001 69 49 40
9.1210003 4.4749999 -0.86199999 47 16 0
9.1859999 4.408 -0.85299999 180 145 113
9.1429996 4.46 -0.84899998 111 92 86
9.1409998 4.4790001 -0.86199999 91 57 55
9.1389999 4.4699998 -0.81699997 63 32 11
9.1440001 4.473 -0.80800003 160 110 75
9.1300001 4.4720001 -0.79900002 64 41 33
9.1269999 4.4689999 -0.79299998 132 79 35
9.1599998 4.4660001 -0.80400002 92 54 43
9.1450005 4.4770002 -0.80900002 56 32 22
9.1660004 4.4759998 -0.80500001 75 39 27
9.1359997 4.4369998 -0.79500002 97 51 28
9.1409998 4.4460001 -0.79799998 156 84 46
9.1569996 4.4530001 -0.78799999 87 51 37
9.1750002 4.467 -0.81300002 73 46 37
9.1739998 4.4679999 -0.80199999 38 11 2
9.1560001 4.461 -0.78600001 119 81 60
9.1709995 4.4829998 -0.792 53 26 0
9.1660004 4.4819999 -0.80000001 129 92 73
9.158 4.4650002 -0.77999997 89 62 33
9.1239996 4.4330001 -0.824 101 48 8
9.1230001 4.4250002 -0.82800001 124 71 31
9.1210003 4.4180002 -0.815 115 65 30
9.1359997 4.4239998 -0.81300002 65 34 6
9.1140003 4.4190001 -0.81400001 151 99 59
9.1230001 4.4359999 -0.847 89 60 46
9.125 4.441 -0.84899998 140 102 83
9.1400003 4.441 -0.80199999 119 85 57
9.1300001 4.4229999 -0.87300003 42 20 7
9.1219997 4.4580002 -0.84399998 55 18 9
9.125 4.4429998 -0.85100001 69 36 27
9.1219997 4.4889998 -0.85699999 61 32 18
9.184 4.4130001 -0.84799999 83 41 3
9.1280003 4.4710002 -0.80199999 154 143 139
9.151 4.4590001 -0.78299999 41 16 9
9.1230001 4.4710002 -0.79299998 159 108 63
9.1289997 4.473 -0.796 80 65 62
9.1409998 4.4770002 -0.81699997 88 71 63
9.1289997 4.5009999 -0.81699997 86 56 45
9.132 4.4809999 -0.80900002 95 57 34
9.1260004 4.4840002 -0.81199998 49 26 20
9.151 4.4460001 -0.79500002 121 89 74
9.1569996 4.461 -0.77100003 116 72 35
9.1700001 4.4860001 -0.78500003 116 82 73
9.1630001 4.4899998 -0.787 108 85 77
9.1669998 4.4840002 -0.787 137 92 50
9.1639996 4.4829998 -0.79299998 33 10 2
9.1269999 4.4299998 -0.80299997 150 101 68
9.1459999 4.4499998 -0.81999999 83 45 34
9.1210003 4.4330001 -0.81099999 45 23 9
9.118 4.428 -0.81199998 105 71 43
9.1260004 4.4289999 -0.83399999 170 121 81
9.1149998 4.4180002 -0.82099998 134 104 80
9.1230001 4.4359999 -0.85500002 73 45 31
9.1239996 4.4419999 -0.85900003 85 55 47
9.1350002 4.4229999 -0.861 36 10 0
9.1300001 4.4260001 -0.87599999 125 96 88
9.1289997 4.5029998 -0.81999999 66 25 0
9.1289997 4.4439998 -0.82099998 151 102 61
9.1090002 4.4190001 -0.81999999 55 29 16
9.118 4.421 -0.80699998 100 63 44
9.1149998 4.4250002 -0.815 155 102 62
9.1219997 4.4439998 -0.86400002 34 12 1
9.1230001 4.4359999 -0.86000001 69 35 25
9.1230001 4.4359999 -0.86400002 47 21 8
9.1239996 4.4330001 -0.866 120 106 105
9.1339998 4.4229999 -0.866 58 34 22
9.1239996 4.4650002 -0.85699999 70 35 15
9.125 4.467 -0.80800003 81 41 6
9.1289997 4.48 -0.80000001 46 28 14
9.1260004 4.4359999 -0.87199998 47 23 13
9.118 4.467 -0.80699998 70 31 0
9.1210003 4.4640002 -0.81300002 148 137 133
9.1370001 4.4759998 -0.80000001 30 11 0
9.1230001 4.4359999 -0.86699998 55 21 12
9.125 4.473 -0.80400002 148 104 65
9.1230001 4.4629998 -0.815 58 39 24
9.1379995 4.4780002 -0.80900002 47 28 14
9.1239996 4.4359999 -0.87099999 109 55 31
0 0 0 1 0 0 0 1 0 0 0 1 0 0 0 0 0 370 1 0 0
