ply
format ascii 1.0
comment PCL generated
element vertex 145
property float x
property float y
property float z
property uchar red
property uchar green
property uchar blue
element camera 1
property float view_px
property float view_py
property float view_pz
property float x_axisx
property float x_axisy
property float x_axisz
property float y_axisx
property float y_axisy
property float y_axisz
property float z_axisx
property float z_axisy
property float z_axisz
property float focal
property float scalex
property float scaley
property float centerx
property float centery
property int viewportx
property int viewporty
property float k1
property float k2
end_header
-12.168 7.8410001 -1.108 161 67 3
-12.177 7.842 -1.108 189 126 83
-12.164 7.8369999 -1.107 103 76 57
-12.197 7.7600002 -1.108 212 125 54
-12.188 7.7420001 -1.118 150 72 10
-12.197 7.7490001 -1.107 201 113 39
-12.182 7.737 -1.11 117 86 55
-12.12 7.7059999 -1.118 179 124 85
-12.124 7.6880002 -1.117 165 95 36
-12.118 7.6919999 -1.109 138 83 19
-12.162 7.717 -1.089 112 69 14
-12.148 7.71 -1.079 217 184 103
-12.143 7.7179999 -1.077 177 129 91
-12.145 7.723 -1.085 228 164 93
-12.153 7.8280001 -1.1289999 112 45 3
-12.157 7.8210001 -1.132 108 50 10
-12.157 7.822 -1.133 146 92 30
-12.159 7.8449998 -1.114 218 137 72
-12.124 7.6859999 -1.105 152 83 24
-12.123 7.6880002 -1.1109999 159 108 63
-12.175 7.7880001 -1.122 241 174 121
-12.171 7.789 -1.128 143 120 104
-12.178 7.789 -1.1289999 229 162 107
-12.154 7.7329998 -1.089 132 90 48
-12.165 7.7399998 -1.0930001 154 82 6
-12.16 7.7509999 -1.097 182 121 74
-12.167 7.7490001 -1.097 196 124 65
-12.157 7.8390002 -1.1109999 192 123 64
-12.171 7.7069998 -1.112 172 91 25
-12.17 7.717 -1.101 169 127 105
-12.178 7.7129998 -1.109 109 76 41
-12.175 7.7150002 -1.108 168 90 24
-12.172 7.7210002 -1.109 203 96 16
-12.121 7.7119999 -1.12 168 97 41
-12.122 7.7129998 -1.112 148 94 56
-12.121 7.7119999 -1.1059999 143 104 65
-12.126 7.7090001 -1.099 115 82 41
-12.127 7.7150002 -1.0880001 139 87 48
-12.134 7.7160001 -1.08 160 98 51
-12.135 7.7140002 -1.081 122 53 0
-12.155 7.7360001 -1.1210001 114 55 13
-12.141 7.73 -1.102 242 168 105
-12.163 7.7389998 -1.11 187 128 84
-12.154 7.7270002 -1.109 190 126 52
-12.196 7.7620001 -1.104 153 105 59
-12.185 7.7600002 -1.112 144 114 86
-12.165 7.7329998 -1.098 237 166 100
-12.194 7.7480001 -1.1059999 212 101 29
-12.182 7.7449999 -1.112 181 97 24
-12.169 7.7379999 -1.101 145 76 21
-12.132 7.7249999 -1.103 230 164 90
-12.129 7.723 -1.084 226 159 104
-12.14 7.724 -1.0930001 222 123 42
-12.137 7.7210002 -1.079 237 140 61
-12.15 7.8429999 -1.0930001 124 81 38
-12.148 7.8369999 -1.094 177 105 31
-12.155 7.8400002 -1.095 165 107 67
-12.154 7.842 -1.109 202 116 55
-12.149 7.8460002 -1.105 231 167 93
-12.15 7.8379998 -1.107 165 109 72
-12.161 7.848 -1.097 155 128 99
-12.159 7.8429999 -1.097 133 70 27
-12.182 7.7179999 -1.132 208 144 70
-12.186 7.7189999 -1.135 225 155 93
-12.18 7.7119999 -1.138 223 157 81
-12.175 7.723 -1.124 154 102 63
-12.163 7.7129998 -1.095 174 116 76
-12.161 7.7140002 -1.096 201 164 86
-12.154 7.7270002 -1.091 184 110 39
-12.173 7.7519999 -1.104 162 134 110
-12.149 7.8460002 -1.098 254 193 112
-12.127 7.7189999 -1.091 161 96 40
-12.125 7.7140002 -1.1 120 70 33
-12.126 7.7150002 -1.094 131 79 42
-12.171 7.7540002 -1.122 225 162 91
-12.157 7.7350001 -1.126 205 144 81
-12.18 7.7589998 -1.112 139 83 34
-12.155 7.8309999 -1.103 193 119 48
-12.197 7.7529998 -1.102 253 175 111
-12.124 7.7140002 -1.119 147 89 49
-12.132 7.7160001 -1.1339999 130 71 31
-12.138 7.724 -1.0829999 203 124 67
-12.169 7.8649998 -1.102 128 77 48
-12.177 7.8649998 -1.099 135 67 108
-12.175 7.8699999 -1.1 147 80 25
-12.177 7.7290001 -1.124 251 203 157
-12.173 7.7290001 -1.128 162 107 68
-12.127 7.7080002 -1.126 175 113 72
-12.155 7.7309999 -1.095 159 97 22
-12.163 7.7449999 -1.104 220 159 112
-12.165 7.7509999 -1.1 224 155 88
-12.185 7.757 -1.1059999 195 118 48
-12.138 7.7030001 -1.089 205 141 69
-12.165 7.7470002 -1.115 219 148 82
-12.184 7.7470002 -1.114 217 151 93
-12.161 7.836 -1.104 159 111 71
-12.137 7.724 -1.1160001 112 57 16
-12.156 7.8509998 -1.107 185 119 67
-12.16 7.848 -1.1 189 121 58
-12.164 7.737 -1.123 182 104 38
-12.126 7.7020001 -1.125 184 122 81
-12.173 7.757 -1.1 199 139 66
-12.133 7.71 -1.089 138 84 46
-12.156 7.8340001 -1.099 160 105 51
-12.16 7.836 -1.103 178 123 82
-12.15 7.7280002 -1.132 147 89 51
-12.153 7.724 -1.1390001 163 103 43
-12.129 7.7150002 -1.126 174 95 36
-12.129 7.7119999 -1.13 165 95 33
-12.141 7.7119999 -1.136 191 133 70
-12.131 7.7080002 -1.142 133 79 17
-12.136 7.7049999 -1.1339999 155 96 56
-12.144 7.704 -1.132 147 89 43
-12.155 7.717 -1.127 211 131 62
-12.169 7.8449998 -1.108 196 118 46
-12.173 7.75 -1.126 206 136 77
-12.127 7.7160001 -1.098 148 86 25
-12.13 7.7030001 -1.131 175 103 44
-12.175 7.7540002 -1.104 74 56 46
-12.131 7.7080002 -1.094 175 93 45
-12.125 7.6960001 -1.109 149 54 0
-12.15 7.7030001 -1.11 201 115 38
-12.142 7.7010002 -1.114 182 114 53
-12.131 7.6900001 -1.119 144 91 51
-12.125 7.7140002 -1.107 125 75 38
-12.128 7.7160001 -1.107 149 85 23
-12.129 7.7150002 -1.115 173 94 35
-12.141 7.723 -1.123 139 89 56
-12.135 7.717 -1.128 139 77 36
-12.147 7.71 -1.132 162 83 14
-12.156 7.7319999 -1.133 158 96 37
-12.128 7.7090001 -1.132 162 103 63
-12.137 7.711 -1.092 231 163 114
-12.139 7.7160001 -1.098 166 123 89
-12.134 7.7090001 -1.1059999 142 64 16
-12.152 7.71 -1.124 177 110 65
-12.151 7.724 -1.1339999 158 86 27
-12.14 7.7249999 -1.11 138 85 45
-12.129 7.7090001 -1.136 131 89 49
-12.144 7.7059999 -1.108 165 94 38
-12.152 7.7290001 -1.126 151 96 57
-12.158 7.711 -1.125 133 76 33
-12.128 7.7090001 -1.135 163 96 43
-12.132 7.7049999 -1.1339999 163 104 46
-12.177 7.7480001 -1.1210001 212 152 82
0 0 0 1 0 0 0 1 0 0 0 1 0 0 0 0 0 145 1 0 0
