ply
format ascii 1.0
comment PCL generated
element vertex 854
property float x
property float y
property float z
property uchar red
property uchar green
property uchar blue
element camera 1
property float view_px
property float view_py
property float view_pz
property float x_axisx
property float x_axisy
property float x_axisz
property float y_axisx
property float y_axisy
property float y_axisz
property float z_axisx
property float z_axisy
property float z_axisz
property float focal
property float scalex
property float scaley
property float centerx
property float centery
property int viewportx
property int viewporty
property float k1
property float k2
end_header
-4.1100001 8.3640003 -0.78399998 201 140 93
-4.125 8.3450003 -0.79100001 149 88 43
-4.1160002 8.3479996 -0.796 156 93 49
-4.1760001 8.3269997 -0.88300002 124 62 11
-4.165 8.3409996 -0.87699997 108 59 27
-4.1570001 8.3210001 -0.87699997 95 56 27
-4.1589999 8.3470001 -0.88099998 175 77 6
-4.1659999 8.3520002 -0.884 122 64 26
-4.1479998 8.3400002 -0.87599999 141 104 77
-4.1399999 8.3479996 -0.87599999 176 120 69
-4.1729999 8.3439999 -0.88499999 161 100 33
-4.0939999 8.4020004 -0.94599998 190 134 97
-4.098 8.4049997 -0.94300002 150 92 46
-4.1040001 8.4090004 -0.95300001 73 59 48
-4.0710001 8.2939997 -0.778 178 93 12
-4.0679998 8.309 -0.76999998 112 74 51
-4.0879998 8.2950001 -0.76599997 117 98 65
-4.1399999 8.2790003 -1.059 114 88 61
-4.1329999 8.2790003 -1.054 227 141 40
-4.132 8.2709999 -1.0470001 105 70 42
-4.1139998 8.3430004 -0.80900002 113 78 56
-4.1069999 8.3529997 -0.796 132 55 0
-4.1739998 8.3470001 -0.88700002 161 98 57
-4.171 8.3520002 -0.88800001 129 77 19
-4.1009998 8.3940001 -0.94999999 125 82 48
-4.118 8.3929996 -0.99199998 77 51 28
-4.0999999 8.3780003 -0.986 201 168 137
-4.1030002 8.3789997 -0.99699998 170 115 76
-4.1129999 8.3859997 -0.99199998 150 102 53
-4.1500001 8.3039999 -1.051 153 104 45
-4.1469998 8.3249998 -1.048 119 60 4
-4.152 8.302 -1.041 240 188 138
-4.1420002 8.3140001 -1.056 179 123 62
-4.1490002 8.3009996 -1.062 168 118 59
-4.1719999 8.3570004 -0.89499998 126 47 0
-4.0780001 8.323 -0.81400001 154 97 44
-4.0830002 8.323 -0.82800001 110 65 42
-4.086 8.3299999 -0.82499999 195 147 101
-4.0640001 8.3140001 -0.80400002 190 103 32
-4.0739999 8.3100004 -0.82200003 242 225 231
-4.0939999 8.3330002 -0.81699997 144 79 41
-4.0570002 8.309 -0.80199999 173 136 109
-4.0549998 8.3059998 -0.801 188 154 127
-4.0549998 8.3079996 -0.792 82 60 36
-4.0840001 8.3100004 -0.83499998 150 72 6
-4.085 8.29 -0.773 192 108 38
-4.0830002 8.2810001 -0.79100001 100 64 28
-4.092 8.2799997 -0.78799999 224 163 109
-4.0819998 8.283 -0.79900002 249 187 136
-4.0609999 8.283 -0.78899997 87 53 25
-4.0580001 8.3079996 -0.78799999 168 150 138
-4.0580001 8.2779999 -0.79000002 134 71 20
-4.0560002 8.2819996 -0.796 164 137 108
-4.0689998 8.3030005 -0.77700001 150 87 43
-4.0609999 8.2810001 -0.79500002 255 206 146
-4.066 8.3000002 -0.81300002 238 182 105
-4.1420002 8.2709999 -1.051 167 153 150
-4.1129999 8.3479996 -0.77999997 250 164 79
-4.1040001 8.3529997 -0.77999997 253 166 95
-4.105 8.342 -0.77600002 255 197 147
-4.1209998 8.3360004 -0.78299999 218 126 41
-4.1230001 8.3389997 -0.79299998 139 79 42
-4.1160002 8.3459997 -0.78100002 156 91 33
-4.1170001 8.3459997 -0.78600001 186 119 66
-4.1129999 8.3570004 -1.069 173 109 63
-4.105 8.368 -1.0650001 113 86 57
-4.1090002 8.3520002 -1.08 144 68 0
-4.0949998 8.2919998 -0.77600002 255 208 160
-4.1209998 8.3380003 -0.796 181 92 8
-4.1170001 8.3409996 -0.79699999 180 121 77
-4.1170001 8.335 -0.80400002 164 83 27
-4.1389999 8.3400002 -0.87199998 123 52 0
-4.1570001 8.3339996 -0.87699997 166 109 64
-4.1079998 8.3470001 -0.80500001 163 100 56
-4.0960002 8.2950001 -0.787 138 95 50
-4.105 8.3030005 -0.78600001 212 159 109
-4.099 8.375 -0.99199998 150 109 79
-4.1350002 8.3940001 -1.016 107 55 16
-4.119 8.3959999 -1.023 97 51 18
-4.1409998 8.3940001 -1.023 104 54 19
-4.1160002 8.3909998 -1.018 154 110 71
-4.1199999 8.3850002 -0.99199998 114 69 36
-4.0640001 8.3190002 -0.79000002 178 73 7
-4.0949998 8.3540001 -0.78899997 164 84 11
-4.0949998 8.3439999 -0.778 223 124 41
-4.0669999 8.3240004 -0.78200001 128 84 75
-4.0739999 8.3149996 -0.77100003 138 89 56
-4.0739999 8.3170004 -0.77700001 155 115 63
-4.0700002 8.3330002 -0.79699999 110 37 0
-4.0700002 8.3129997 -0.778 135 83 44
-4.1269999 8.3400002 -1.08 255 206 148
-4.1550002 8.2810001 -1.058 164 98 82
-4.1290002 8.3380003 -1.0700001 114 50 2
-4.1279998 8.3389997 -1.072 180 128 71
-4.1259999 8.3360004 -1.072 96 78 74
-4.1339998 8.2980003 -1.057 172 101 37
-4.1350002 8.3409996 -1.0599999 191 162 148
-4.0890002 8.3879995 -0.91799998 178 84 32
-4.099 8.3889999 -0.91299999 109 72 46
-4.1020002 8.3920002 -0.91799998 194 146 110
-4.086 8.3800001 -0.91600001 161 143 139
-4.073 8.3859997 -0.93400002 210 139 95
-4.098 8.3470001 -0.80500001 166 101 61
-4.099 8.349 -0.80000001 130 59 13
-4.1389999 8.3330002 -1.0599999 156 94 37
-4.1490002 8.3319998 -1.043 240 187 133
-4.152 8.3030005 -1.036 202 151 104
-4.145 8.3109999 -1.036 162 105 50
-4.1440001 8.3030005 -1.036 251 187 89
-4.1609998 8.3559999 -0.88700002 190 123 42
-4.1069999 8.3850002 -0.92199999 129 91 70
-4.1160002 8.3719997 -0.912 175 111 65
-4.1129999 8.3889999 -0.92400002 86 60 37
-4.105 8.3929996 -0.95200002 157 129 115
-4.1020002 8.4049997 -0.94999999 161 139 125
-4.0890002 8.3260002 -0.81599998 119 82 55
-4.0809999 8.3009996 -0.76999998 187 129 83
-4.0669999 8.3240004 -0.79900002 124 77 69
-4.0900002 8.2860003 -0.801 116 65 34
-4.0830002 8.2880001 -0.81 189 130 86
-4.1669998 8.316 -0.88499999 193 148 109
-4.1630001 8.316 -0.889 149 100 57
-4.184 8.3210001 -0.898 134 69 27
-4.158 8.3140001 -0.88599998 145 102 59
-4.0780001 8.3059998 -0.81800002 64 29 10
-4.1479998 8.2709999 -1.051 74 18 1
-4.1539998 8.2779999 -1.043 153 143 141
-4.1599998 8.2799997 -1.0470001 154 144 143
-4.1110001 8.3549995 -0.78500003 235 140 48
-4.1079998 8.3109999 -0.77999997 129 110 80
-4.1059999 8.3240004 -0.77600002 102 65 38
-4.1020002 8.3039999 -0.77499998 137 96 66
-4.1009998 8.3190002 -0.77499998 192 111 48
-4.0580001 8.382 -1.075 146 79 34
-4.0609999 8.382 -1.081 148 79 24
-4.0650001 8.3769999 -1.0829999 136 61 3
-4.0640001 8.3769999 -1.077 116 46 0
-4.0640001 8.3769999 -1.072 123 57 7
-4.1160002 8.3450003 -1.073 156 102 42
-4.1230001 8.3509998 -1.0650001 68 38 12
-4.1290002 8.2790003 -1.048 101 60 28
-4.099 8.2989998 -0.77499998 227 137 41
-4.0840001 8.3079996 -0.76800001 112 87 57
-4.1129999 8.3439999 -0.77999997 187 121 69
-4.112 8.3459997 -0.77999997 137 91 57
-4.0970001 8.3710003 -0.98199999 91 32 16
-4.0939999 8.3640003 -0.98500001 166 136 112
-4.098 8.3699999 -0.98799998 110 64 38
-4.0770001 8.3859997 -0.93300003 146 110 86
-4.0809999 8.3850002 -0.93400002 200 177 163
-4.112 8.3789997 -0.995 173 142 122
-4.1240001 8.375 -1.0190001 210 174 142
-4.1149998 8.3870001 -1.022 57 15 0
-4.1170001 8.3809996 -1.028 62 30 7
-4.1149998 8.3859997 -1.05 152 82 22
-4.118 8.3859997 -1.028 165 105 43
-4.1209998 8.3789997 -1.028 46 7 0
-4.1300001 8.3909998 -1.024 110 58 34
-4.1170001 8.3909998 -1.057 69 39 15
-4.1129999 8.3929996 -1.0549999 141 122 115
-4.132 8.3800001 -1.016 165 120 78
-4.1420002 8.3789997 -1.021 212 152 102
-4.1409998 8.3649998 -1.016 99 61 38
-4.0650001 8.316 -0.80000001 82 70 74
-4.092 8.3319998 -0.80199999 154 65 9
-4.0830002 8.3290005 -0.796 172 76 15
-4.105 8.3570004 -0.787 218 132 45
-4.098 8.3509998 -0.79699999 182 95 41
-4.0910001 8.3409996 -0.78299999 160 137 123
-4.0890002 8.3889999 -0.926 193 161 138
-4.0819998 8.3889999 -0.94099998 131 68 24
-4.0890002 8.3870001 -0.93300003 197 117 46
-4.0949998 8.3339996 -0.80699998 190 111 55
-4.1030002 8.3360004 -0.81300002 164 114 81
-4.0960002 8.3760004 -0.91399997 150 88 39
-4.1059999 8.3760004 -0.91600001 101 55 21
-4.0970001 8.3669996 -1.015 123 81 41
-4.0960002 8.3649998 -1.013 139 91 53
-4.1729999 8.3360004 -0.89499998 190 122 49
-4.1799998 8.3240004 -0.89600003 231 145 62
-4.1669998 8.3330002 -0.89700001 173 108 52
-4.1750002 8.3310003 -0.89099997 100 52 12
-4.1729999 8.3360004 -0.889 196 127 52
-4.1700001 8.3369999 -0.88099998 135 78 35
-4.165 8.3369999 -0.88 255 217 167
-4.1500001 8.29 -1.039 231 173 74
-4.1479998 8.2749996 -1.0549999 175 113 92
-4.1469998 8.276 -1.049 162 152 150
-4.1440001 8.2840004 -1.0470001 205 154 101
-4.0819998 8.3140001 -0.89700001 189 94 4
-4.0780001 8.316 -0.88099998 162 110 71
-4.0760002 8.3190002 -0.88200003 201 132 67
-4.0799999 8.3170004 -0.89399999 247 184 113
-4.0830002 8.3170004 -0.90100002 194 128 50
-4.1020002 8.382 -0.917 121 79 55
-4.105 8.3889999 -0.92799997 111 69 45
-4.1620002 8.3570004 -0.89200002 215 153 94
-4.1069999 8.4069996 -0.95099998 195 175 164
-4.112 8.4020004 -0.94700003 198 180 168
-4.1149998 8.4020004 -0.95300001 156 136 127
-4.1609998 8.3369999 -0.96499997 171 119 72
-4.1560001 8.3459997 -0.96799999 89 48 30
-4.1599998 8.3520002 -0.96899998 91 55 21
-4.1110001 8.3310003 -0.778 124 64 14
-4.0809999 8.2959995 -0.77200001 244 147 53
-4.0939999 8.2880001 -0.80000001 201 139 88
-4.1789999 8.3199997 -0.89300001 108 50 13
-4.177 8.3249998 -0.89399999 187 123 77
-4.1599998 8.3170004 -0.89200002 113 70 27
-4.0830002 8.3199997 -0.87900001 252 231 246
-4.086 8.3140001 -0.87699997 73 45 31
-4.0650001 8.2869997 -0.79799998 69 41 29
-4.0799999 8.3129997 -0.82499999 98 62 30
-4.0619998 8.3500004 -1.01 107 83 59
-4.0489998 8.3409996 -1.0089999 163 161 164
-4.0539999 8.3439999 -1.0140001 141 137 138
-4.1170001 8.382 -0.98100001 129 73 22
-4.0960002 8.3149996 -0.82700002 98 68 42
-4.0929999 8.3059998 -0.81900001 156 93 40
-4.1069999 8.3070002 -0.83999997 123 91 76
-4.1329999 8.2849998 -1.051 188 107 54
-4.1469998 8.2709999 -1.052 195 125 65
-4.1490002 8.2729998 -1.052 178 163 160
-4.1209998 8.3380003 -0.79000002 170 68 0
-4.0999999 8.3739996 -1.056 126 127 129
-4.092 8.3809996 -1.063 130 113 106
-4.0879998 8.3660002 -1.069 90 60 60
-4.0900002 8.3590002 -1.069 255 191 107
-4.1009998 8.3479996 -1.077 249 182 104
-4.1069999 8.3710003 -1.057 184 119 53
-4.0970001 8.3730001 -1.0470001 129 87 49
-4.1259999 8.342 -1.067 214 148 98
-4.0549998 8.3310003 -1.01 249 183 87
-4.0479999 8.3330002 -1.012 164 100 36
-4.046 8.3360004 -1.008 92 66 43
-4.0830002 8.3529997 -1.067 220 150 54
-4.0949998 8.3360004 -1.058 227 157 88
-4.0869999 8.3540001 -1.068 144 81 1
-4.072 8.3570004 -1.075 219 160 80
-4.052 8.3310003 -1.017 126 85 55
-4.1209998 8.302 -1.05 222 182 97
-4.1269999 8.3070002 -1.0549999 233 168 52
-4.1220002 8.3170004 -1.057 203 149 41
-4.1220002 8.3059998 -1.051 255 174 91
-4.0890002 8.3070002 -0.77100003 222 166 117
-4.0890002 8.3140001 -0.77499998 214 163 106
-4.1370001 8.3400002 -0.87199998 83 6 0
-4.1329999 8.323 -0.92400002 203 129 68
-4.1360002 8.3210001 -0.92199999 141 113 99
-4.1389999 8.3249998 -0.93400002 87 45 33
-4.1030002 8.3809996 -0.95599997 181 99 49
-4.0799999 8.3870001 -0.94499999 178 97 32
-4.0760002 8.3870001 -0.93699998 182 98 26
-4.0890002 8.3649998 -0.93699998 177 140 113
-4.0900002 8.3699999 -0.93699998 190 156 131
-4.0939999 8.3610001 -0.94800001 70 63 53
-4.145 8.3610001 -0.995 116 63 19
-4.1370001 8.3640003 -0.99400002 90 45 6
-4.145 8.3549995 -1.003 138 79 39
-4.1090002 8.3710003 -1.027 235 188 142
-4.1279998 8.368 -1.0039999 143 71 31
-4.0650001 8.3100004 -0.78299999 201 134 79
-4.0679998 8.3129997 -0.80599999 139 107 92
-4.0939999 8.3450003 -0.796 165 80 15
-4.0799999 8.3179998 -0.77499998 216 165 108
-4.0710001 8.323 -0.78399998 174 97 25
-4.1139998 8.3389997 -0.81400001 159 86 31
-4.0960002 8.3809996 -0.91600001 177 121 62
-4.1009998 8.3699999 -0.91399997 144 97 69
-4.0960002 8.3649998 -1.026 173 126 80
-4.0949998 8.3620005 -1.051 251 234 190
-4.0900002 8.3640003 -1.053 205 152 102
-4.152 8.2880001 -1.038 166 101 45
-4.1360002 8.3140001 -1.057 194 145 89
-4.125 8.3470001 -1.057 76 39 0
-4.0819998 8.3140001 -0.88999999 215 112 19
-4.098 8.3149996 -0.85000002 117 54 1
-4.0929999 8.3129997 -0.84200001 170 91 25
-4.086 8.3100004 -0.875 212 173 130
-4.0939999 8.3140001 -0.88200003 162 144 140
-4.0879998 8.3120003 -0.88099998 209 167 119
-4.0830002 8.316 -0.89999998 245 179 118
-4.085 8.3179998 -0.89700001 212 149 78
-4.1570001 8.3290005 -0.92400002 84 63 36
-4.1500001 8.3280001 -0.93900001 161 127 90
-4.1669998 8.3400002 -0.90200001 209 142 64
-4.1630001 8.335 -0.949 116 55 11
-4.1669998 8.3330002 -0.96399999 204 162 140
-4.1599998 8.3319998 -0.96200001 199 124 59
-4.1110001 8.3699999 -0.91600001 100 55 14
-4.0970001 8.3929996 -0.94099998 126 96 70
-4.1009998 8.368 -0.97000003 141 81 53
-4.112 8.3699999 -0.91799998 160 95 55
-4.0949998 8.3290005 -0.83099997 117 60 7
-4.0830002 8.2989998 -0.76800001 235 155 86
-4.0799999 8.2880001 -0.77899998 255 173 87
-4.1059999 8.3059998 -0.79100001 126 105 84
-4.0910001 8.2869997 -0.79000002 142 108 81
-4.1490002 8.3249998 -0.89499998 241 213 235
-4.1430001 8.3299999 -0.89399999 246 154 51
-4.145 8.3330002 -0.89899999 223 140 64
-4.1490002 8.3330002 -0.90100002 187 145 97
-4.1339998 8.3310003 -0.89200002 226 123 28
-4.1160002 8.3249998 -0.88999999 246 145 55
-4.112 8.323 -0.91000003 218 144 57
-4.099 8.3299999 -0.90600002 193 115 53
-4.1020002 8.3280001 -0.88200003 179 89 27
-4.1430001 8.3299999 -0.87300003 203 116 37
-4.1040001 8.3050003 -0.778 142 103 62
-4.105 8.3369999 -0.86799997 126 59 17
-4.1100001 8.3269997 -0.85299999 200 120 61
-4.1020002 8.342 -0.86699998 82 39 20
-4.0869999 8.3219995 -0.875 156 102 64
-4.0929999 8.3210001 -0.86299998 64 45 38
-4.0999999 8.335 -0.86199999 152 92 58
-4.1009998 8.3280001 -0.85799998 104 34 8
-4.099 8.3269997 -0.83600003 117 54 1
-4.1079998 8.3330002 -0.82800001 103 54 13
-4.0700002 8.2950001 -0.78399998 234 173 119
-4.0570002 8.3059998 -0.79500002 122 99 91
-4.0679998 8.2950001 -0.78899997 211 147 101
-4.0840001 8.3079996 -0.81900001 159 129 101
-4.1139998 8.309 -0.83999997 138 80 42
-4.1069999 8.3120003 -0.84299999 158 154 155
-4.1040001 8.3179998 -0.85100001 199 128 66
-4.1040001 8.3170004 -0.85299999 153 119 94
-4.105 8.3190002 -0.84399998 156 125 104
-4.098 8.3179998 -0.92199999 153 73 14
-4.0890002 8.3210001 -0.93900001 118 91 70
-4.0960002 8.3190002 -0.921 120 62 22
-4.0949998 8.3190002 -0.91900003 153 147 149
-4.1300001 8.2950001 -1.054 189 129 69
-4.1269999 8.2989998 -1.052 238 153 63
-4.0960002 8.3809996 -1.049 151 95 36
-4.1160002 8.3280001 -1.0599999 255 221 118
-4.1240001 8.3190002 -1.057 199 147 90
-4.1009998 8.3549995 -1.066 250 219 111
-4.073 8.3710003 -1.074 124 48 0
-4.0669999 8.368 -1.074 195 145 82
-4.099 8.3590002 -1.051 136 110 83
-4.1009998 8.3629999 -1.051 75 24 0
-4.1149998 8.3360004 -1.064 219 166 86
-4.0560002 8.3409996 -1.017 248 162 85
-4.0780001 8.3280001 -1.017 160 94 33
-4.0640001 8.3290005 -1.0140001 210 170 135
-4.0799999 8.3260002 -1.021 179 144 104
-4.073 8.3310003 -1.017 161 103 65
-4.1129999 8.3109999 -1.045 84 54 44
-4.1040001 8.3310003 -0.778 194 125 83
-4.0999999 8.3330002 -0.77899998 207 144 91
-4.0960002 8.3249998 -0.778 201 115 42
-4.0960002 8.3140001 -0.77600002 177 117 65
-4.0869999 8.3190002 -0.77600002 179 128 71
-4.0929999 8.302 -0.77200001 164 74 0
-4.1030002 8.3179998 -0.79299998 240 184 135
-4.118 8.3290005 -0.792 173 149 149
-4.105 8.3149996 -0.80400002 124 91 72
-4.151 8.3389997 -0.87699997 212 149 105
-4.1500001 8.3470001 -0.88099998 143 63 4
-4.1090002 8.3409996 -0.80800003 154 82 44
-4.1680002 8.3249998 -0.88200003 121 51 0
-4.0999999 8.3739996 -0.963 153 76 24
-4.1009998 8.3780003 -0.95499998 180 162 150
-4.098 8.3739996 -0.95499998 173 91 31
-4.0900002 8.3260002 -0.93800002 107 92 89
-4.0869999 8.335 -0.93300003 248 172 96
-4.0879998 8.3389997 -0.93400002 208 139 72
-4.0560002 8.3380003 -1.003 110 65 32
-4.0879998 8.3439999 -0.92799997 142 115 94
-4.0809999 8.3199997 -0.889 99 68 48
-4.0900002 8.3249998 -0.93300003 122 107 88
-4.0929999 8.3210001 -0.91299999 170 84 11
-4.0890002 8.3190002 -0.90700001 181 114 27
-4.0939999 8.3299999 -0.921 127 54 19
-4.0939999 8.3739996 -0.92199999 235 151 123
-4.138 8.3620005 -0.986 123 59 11
-4.1469998 8.3780003 -1.024 117 89 75
-4.1430001 8.3780003 -1.027 96 51 10
-4.1389999 8.3900003 -1.023 229 173 136
-4.1539998 8.3509998 -0.97100002 214 164 129
-4.1329999 8.3859997 -1.027 212 160 112
-4.138 8.3719997 -1.0319999 171 101 41
-4.1209998 8.3760004 -1.024 78 37 9
-4.1339998 8.3690004 -1.017 118 89 55
-4.086 8.323 -0.77600002 175 79 5
-4.1009998 8.3540001 -0.79000002 128 69 39
-4.098 8.3479996 -0.78100002 227 148 82
-4.0939999 8.3409996 -0.796 210 126 64
-4.0900002 8.335 -0.78799999 202 114 40
-4.0669999 8.3210001 -0.79299998 163 114 71
-4.1090002 8.3339996 -0.81900001 184 170 170
-4.1110001 8.3339996 -0.82599998 127 64 21
-4.1040001 8.3649998 -0.91799998 143 99 74
-4.1110001 8.3669996 -1.024 69 16 0
-4.1009998 8.3640003 -0.995 183 117 82
-4.1110001 8.3610001 -1.033 84 55 49
-4.1009998 8.3579998 -1.051 94 50 13
-4.1440001 8.316 -1.045 246 183 77
-4.1290002 8.2939997 -1.052 148 97 42
-4.1240001 8.2910004 -1.0420001 73 29 0
-4.125 8.2989998 -1.049 233 192 130
-4.1690001 8.3509998 -0.89300001 193 114 48
-4.165 8.3459997 -0.89899999 128 67 38
-4.151 8.29 -1.046 227 157 95
-4.1430001 8.2969999 -1.057 189 134 80
-4.1409998 8.2860003 -1.0549999 211 120 31
-4.1339998 8.2860003 -1.052 236 168 123
-4.1430001 8.3360004 -1.046 99 68 48
-4.0900002 8.3260002 -0.89200002 106 94 94
-4.0970001 8.3310003 -0.90799999 107 93 92
-4.0840001 8.3140001 -0.89300001 161 83 9
-4.0809999 8.316 -0.88999999 234 167 96
-4.0840001 8.3120003 -0.88499999 91 62 44
-4.085 8.3140001 -0.889 180 92 18
-4.098 8.3129997 -0.88800001 137 83 45
-4.1069999 8.3129997 -0.90899998 151 114 87
-4.1040001 8.3079996 -0.91000003 141 66 24
-4.1059999 8.3140001 -0.90799999 224 130 42
-4.0960002 8.3210001 -0.87199998 198 101 22
-4.099 8.3109999 -0.90899998 229 151 87
-4.1030002 8.3140001 -0.91500002 243 149 62
-4.1539998 8.3299999 -0.91600001 173 94 35
-4.1659999 8.3339996 -0.92299998 126 82 55
-4.151 8.3299999 -0.93300003 183 127 78
-4.1479998 8.3319998 -0.92900002 144 107 78
-4.1599998 8.3319998 -0.93099999 211 178 143
-4.1620002 8.335 -0.95599997 135 79 32
-4.112 8.3760004 -0.92400002 134 75 33
-4.105 8.3950005 -0.94 107 81 56
-4.085 8.3879995 -0.94499999 125 87 66
-4.1240001 8.3719997 -0.93000001 221 178 159
-4.151 8.3249998 -0.995 84 21 0
-4.1409998 8.3369999 -0.99000001 118 59 19
-4.1500001 8.3389997 -0.99599999 245 172 103
-4.1589999 8.3479996 -0.91000003 80 51 33
-4.092 8.3170004 -0.838 141 61 0
-4.1100001 8.3260002 -0.78200001 230 128 43
-4.0900002 8.29 -0.778 209 155 108
-4.145 8.323 -0.88999999 221 131 45
-4.1459999 8.323 -0.88599998 234 146 49
-4.1209998 8.3190002 -0.884 74 41 24
-4.1129999 8.3190002 -0.90600002 114 86 65
-4.1020002 8.316 -0.88499999 230 137 44
-4.1030002 8.3199997 -0.903 201 125 47
-4.1209998 8.323 -0.88300002 154 113 83
-4.1350002 8.3389997 -0.87599999 121 36 5
-4.132 8.342 -0.88800001 158 81 27
-4.105 8.3219995 -0.87800002 169 111 65
-4.1009998 8.3219995 -0.87599999 90 75 70
-4.1149998 8.3210001 -0.87199998 140 103 74
-4.1350002 8.3430004 -0.88099998 216 136 85
-4.138 8.349 -0.88200003 156 88 43
-4.1069999 8.3290005 -0.85900003 225 207 223
-4.1100001 8.3269997 -0.87199998 147 55 0
-4.1100001 8.3249998 -0.87 144 82 41
-4.1030002 8.3260002 -0.83700001 169 150 143
-4.099 8.3190002 -0.83099997 158 106 67
-4.0650001 8.3079996 -0.78399998 203 139 95
-4.0689998 8.3009996 -0.78399998 244 156 58
-4.0819998 8.2869997 -0.78299999 77 52 45
-4.0809999 8.3129997 -0.82599998 235 152 84
-4.0929999 8.3050003 -0.81699997 95 45 18
-4.112 8.3789997 -0.98400003 145 119 106
-4.1290002 8.3660002 -0.991 79 16 0
-4.1490002 8.3170004 -0.88499999 130 101 93
-4.099 8.2980003 -0.79500002 182 85 16
-4.0939999 8.3269997 -0.91500002 102 58 45
-4.1399999 8.2840004 -1.048 116 34 0
-4.1399999 8.2889996 -1.0470001 151 67 7
-4.1290002 8.3009996 -1.034 137 89 49
-4.119 8.3339996 -0.79699999 182 158 154
-4.0900002 8.3780003 -1.059 182 152 150
-4.105 8.3439999 -1.028 140 77 23
-4.0900002 8.3400002 -1.022 255 195 86
-4.099 8.3430004 -1.022 229 182 128
-4.1030002 8.3360004 -1.035 201 113 13
-4.0910001 8.3280001 -1.026 215 120 26
-4.1009998 8.3240004 -1.016 182 121 77
-4.0650001 8.368 -1.069 181 153 150
-4.0780001 8.3610001 -1.071 134 117 110
-4.0710001 8.3459997 -1.022 196 138 90
-4.079 8.3479996 -1.02 113 52 7
-4.0739999 8.3509998 -1.02 133 105 102
-4.0900002 8.3529997 -1.048 255 206 140
-4.0999999 8.3459997 -1.051 111 63 27
-4.0879998 8.3529997 -1.061 104 47 4
-4.0799999 8.3549995 -1.062 87 28 0
-4.0780001 8.3549995 -1.056 254 224 174
-4.0669999 8.3339996 -1.017 98 49 9
-4.1129999 8.3280001 -1.044 130 127 136
-4.1129999 8.3310003 -1.046 250 211 106
-4.1030002 8.3409996 -1.0549999 175 123 83
-4.0760002 8.3710003 -1.0700001 117 46 0
-4.0949998 8.3290005 -0.97000003 147 110 94
-4.0960002 8.3290005 -0.97600001 255 206 113
-4.1030002 8.3190002 -0.98299998 214 154 102
-4.0929999 8.3459997 -0.97100002 107 70 54
-4.1160002 8.3009996 -1.046 222 167 103
-4.118 8.3070002 -1.036 148 121 100
-4.1259999 8.3120003 -1.031 126 62 18
-4.1209998 8.3179998 -1.034 160 104 21
-4.1389999 8.349 -0.88599998 118 70 56
-4.1399999 8.3450003 -0.89499998 166 94 44
-4.1620002 8.3409996 -0.91799998 138 59 2
-4.1690001 8.3559999 -0.93300003 102 57 26
-4.1669998 8.3479996 -0.93300003 193 131 54
-4.1630001 8.342 -0.92500001 133 84 44
-4.0609999 8.3439999 -1.008 224 185 144
-4.0799999 8.3500004 -1.011 85 61 37
-4.0970001 8.3500004 -0.98699999 58 44 41
-4.0910001 8.335 -0.93000001 115 70 29
-4.0960002 8.3559999 -0.96100003 138 101 75
-4.0929999 8.3649998 -0.92799997 154 100 40
-4.098 8.3769999 -0.91500002 156 106 55
-4.0939999 8.3909998 -0.92500001 124 87 61
-4.1440001 8.3559999 -1.012 222 134 47
-4.1440001 8.3769999 -1.023 233 144 60
-4.1440001 8.3699999 -1.027 158 72 0
-4.138 8.3889999 -1.017 45 2 0
-4.0770001 8.3319998 -0.79100001 165 148 141
-4.0960002 8.3380003 -0.80000001 174 89 32
-4.098 8.3319998 -0.82099998 77 51 28
-4.1139998 8.3339996 -0.81900001 132 63 21
-4.105 8.323 -0.81400001 196 134 85
-4.0939999 8.3570004 -1.0089999 74 15 0
-4.0999999 8.3610001 -0.99000001 116 32 0
-4.1139998 8.3640003 -1.012 129 80 48
-4.0939999 8.3629999 -1.0190001 206 145 91
-4.145 8.3140001 -1.041 237 168 91
-4.1420002 8.3199997 -1.0420001 160 111 53
-4.1139998 8.3149996 -0.91100001 131 97 72
-4.131 8.3280001 -0.921 117 81 57
-4.1230001 8.3190002 -0.98400003 214 141 90
-4.1170001 8.323 -0.97600001 153 90 36
-4.1539998 8.3520002 -0.89499998 125 55 3
-4.1490002 8.2989998 -1.05 199 102 21
-4.1420002 8.3629999 -1.028 169 100 43
-4.1430001 8.3520002 -1.026 76 28 0
-4.118 8.3620005 -1.059 193 155 116
-4.1279998 8.3620005 -1.043 140 85 29
-4.1269999 8.3500004 -1.0470001 200 176 148
-4.092 8.3219995 -0.89999998 115 49 15
-4.0999999 8.3140001 -0.88599998 223 113 24
-4.0960002 8.3149996 -0.88300002 167 128 89
-4.0939999 8.316 -0.84799999 114 83 55
-4.0939999 8.3179998 -0.852 117 45 7
-4.0949998 8.3210001 -0.85799998 143 63 0
-4.0970001 8.3219995 -0.852 114 43 1
-4.0970001 8.316 -0.91299999 135 71 23
-4.1630001 8.3290005 -0.90200001 142 80 33
-4.1630001 8.335 -0.90200001 216 165 118
-4.165 8.3380003 -0.92799997 126 72 34
-4.1589999 8.3369999 -0.93900001 174 110 38
-4.1669998 8.3559999 -0.94 237 176 95
-4.1609998 8.3610001 -0.94 151 102 61
-4.158 8.368 -0.94599998 168 118 83
-4.1609998 8.3509998 -0.95099998 134 61 0
-4.1059999 8.3809996 -0.96399999 120 47 4
-4.1090002 8.3789997 -0.958 104 70 42
-4.1209998 8.3769999 -0.963 195 150 109
-4.0910001 8.3850002 -0.94400001 118 45 4
-4.1279998 8.3640003 -0.93099999 89 35 1
-4.1090002 8.3690004 -0.92500001 151 71 10
-4.1500001 8.3330002 -1.001 255 176 99
-4.1459999 8.3280001 -0.99699998 135 89 53
-4.1500001 8.3529997 -0.92799997 110 78 57
-4.1570001 8.3450003 -0.921 77 35 11
-4.1560001 8.3459997 -0.91399997 101 71 63
-4.1149998 8.3310003 -0.78299999 224 125 40
-4.1459999 8.3360004 -0.89999998 157 105 55
-4.1350002 8.3310003 -0.875 255 167 93
-4.1090002 8.3260002 -0.87599999 183 88 8
-4.0910001 8.3149996 -0.83600003 133 79 41
-4.0970001 8.3170004 -0.85799998 131 66 10
-4.1030002 8.316 -0.85699999 191 102 36
-4.099 8.3170004 -0.85900003 213 142 86
-4.0679998 8.2980003 -0.787 168 107 50
-4.0650001 8.2939997 -0.79799998 226 136 50
-4.0879998 8.283 -0.792 147 126 121
-4.0970001 8.309 -0.81599998 202 158 119
-4.079 8.2950001 -0.80599999 88 35 4
-4.125 8.3760004 -0.97600001 172 144 133
-4.1069999 8.3369999 -0.93000001 69 43 18
-4.1030002 8.3470001 -0.93599999 115 83 62
-4.1110001 8.3400002 -0.93699998 240 151 69
-4.1360002 8.2939997 -1.046 117 38 0
-4.1329999 8.309 -1.0369999 188 133 77
-4.1129999 8.3210001 -0.98900002 177 115 78
-4.1160002 8.3299999 -0.79400003 235 143 58
-4.119 8.3339996 -0.792 61 33 29
-4.099 8.3190002 -1.016 252 205 115
-4.098 8.3579998 -1.023 83 23 0
-4.1069999 8.3509998 -1.026 207 164 130
-4.0580001 8.3360004 -1.017 132 130 135
-4.0949998 8.3459997 -1.051 79 34 5
-4.092 8.3500004 -1.056 236 222 175
-4.0960002 8.3430004 -1.056 132 83 50
-4.1090002 8.3269997 -1.016 145 84 39
-4.1199999 8.3260002 -1.0140001 156 95 51
-4.1160002 8.3319998 -1.031 173 103 51
-4.1009998 8.3400002 -1.064 228 163 107
-4.1139998 8.349 -1.034 117 75 37
-4.0929999 8.3690004 -1.053 218 158 98
-4.1059999 8.3479996 -1.074 202 146 72
-4.098 8.3319998 -0.94599998 172 135 119
-4.0970001 8.3430004 -0.94300002 140 68 28
-4.0960002 8.3389997 -0.97000003 64 51 34
-4.0970001 8.3430004 -0.98799998 82 56 43
-4.1009998 8.3400002 -0.94599998 165 129 105
-4.1139998 8.3039999 -1.043 212 153 61
-4.1269999 8.2989998 -1.039 149 131 119
-4.1440001 8.3430004 -0.87699997 238 138 63
-4.1609998 8.342 -0.90899998 175 118 88
-4.1090002 8.3319998 -0.91500002 225 169 122
-4.1100001 8.3409996 -0.91399997 187 104 38
-4.1079998 8.3269997 -0.92199999 177 92 27
-4.1040001 8.3369999 -0.91299999 205 121 57
-4.1030002 8.3640003 -0.92199999 142 88 50
-4.1069999 8.3570004 -0.93800002 200 148 109
-4.1030002 8.3610001 -0.93199998 96 66 40
-4.1290002 8.3690004 -0.93400002 73 25 2
-4.073 8.3450003 -1.013 223 139 69
-4.0679998 8.3400002 -1.011 168 100 17
-4.0970001 8.3540001 -0.96600002 99 58 30
-4.1500001 8.3459997 -0.99699998 204 151 99
-4.1160002 8.3879995 -0.94400001 139 91 55
-4.125 8.3730001 -0.94999999 128 77 20
-4.151 8.3599997 -0.93599999 55 15 0
-4.138 8.3290005 -0.96799999 145 120 100
-4.1440001 8.3240004 -0.96399999 239 189 136
-4.132 8.3290005 -0.96200001 85 51 26
-4.1500001 8.3330002 -0.97100002 208 151 108
-4.0999999 8.3170004 -0.824 52 32 25
-4.1020002 8.3610001 -0.99800003 181 100 47
-4.0840001 8.3579998 -1.056 158 115 72
-4.0819998 8.3509998 -1.015 239 163 103
-4.0830002 8.3649998 -1.056 224 174 105
-4.0739999 8.368 -1.057 185 139 90
-4.066 8.3649998 -1.058 245 198 144
-4.072 8.3780003 -1.066 242 174 93
-4.1440001 8.3479996 -0.97399998 205 129 69
-4.1090002 8.3249998 -0.96799999 121 45 0
-4.1230001 8.3299999 -1.005 238 191 223
-4.1240001 8.3310003 -1.01 161 133 93
-4.152 8.3330002 -0.95899999 207 130 74
-4.118 8.3170004 -0.93000001 146 135 131
-4.105 8.3210001 -0.92799997 156 74 26
-4.1090002 8.3179998 -0.917 235 159 81
-4.1479998 8.3520002 -0.88700002 81 60 39
-4.1490002 8.2980003 -1.057 164 111 57
-4.1350002 8.3640003 -1.031 226 176 127
-4.138 8.3559999 -1.03 133 51 0
-4.1269999 8.3739996 -1.0319999 176 108 47
-4.1329999 8.349 -1.044 182 161 132
-4.0910001 8.3149996 -0.90100002 164 121 89
-4.0939999 8.2910004 -0.80199999 149 129 122
-4.0999999 8.3219995 -0.84799999 161 130 110
-4.0939999 8.3170004 -0.84600002 151 73 27
-4.1009998 8.3179998 -0.86000001 136 102 75
-4.1040001 8.3179998 -0.85699999 186 115 51
-4.1620002 8.3269997 -0.89899999 190 147 94
-4.158 8.3269997 -0.90200001 178 124 77
-4.1479998 8.3330002 -0.91799998 113 67 54
-4.1459999 8.3400002 -0.92199999 127 102 82
-4.1560001 8.3339996 -0.93599999 209 142 71
-4.165 8.3450003 -0.93400002 156 102 56
-4.1620002 8.3459997 -0.92699999 121 77 38
-4.1620002 8.3620005 -0.94800001 106 67 36
-4.1030002 8.3780003 -0.96100003 200 182 168
-4.1020002 8.3730001 -0.96700001 83 23 0
-4.1409998 8.3459997 -0.93099999 49 44 51
-4.1350002 8.3280001 -0.92400002 165 118 74
-4.1459999 8.323 -0.99400002 176 164 164
-4.1409998 8.3330002 -0.97299999 160 141 127
-4.138 8.3240004 -0.99900001 231 164 112
-4.1339998 8.3319998 -1.006 213 146 93
-4.1570001 8.3500004 -0.96200001 127 101 100
-4.1500001 8.3389997 -0.90499997 216 145 89
-4.1469998 8.3520002 -0.92699999 200 146 99
-4.0869999 8.3120003 -0.82700002 158 100 62
-4.0970001 8.3299999 -0.82800001 122 59 5
-4.0970001 8.3179998 -0.86000001 150 91 49
-4.0700002 8.3109999 -0.80800003 112 70 46
-4.0640001 8.29 -0.79799998 190 140 87
-4.0780001 8.2869997 -0.78899997 148 94 50
-4.0799999 8.2919998 -0.77600002 200 138 81
-4.098 8.3109999 -0.81199998 67 42 35
-4.079 8.2910004 -0.80299997 166 127 98
-4.1230001 8.3719997 -0.98500001 93 30 13
-4.1459999 8.3599997 -0.97799999 89 44 13
-4.1360002 8.3260002 -0.94700003 184 143 111
-4.119 8.3120003 -0.95200002 114 77 51
-4.138 8.3260002 -0.94700003 151 98 46
-4.1209998 8.3070002 -0.95099998 125 89 63
-4.1199999 8.3059998 -0.94599998 109 68 38
-4.1020002 8.323 -0.94199997 201 132 77
-4.1259999 8.3240004 -0.93699998 120 74 40
-4.1009998 8.323 -0.935 91 38 4
-4.1389999 8.3120003 -1.038 241 177 77
-4.0760002 8.3369999 -1.02 229 173 78
-4.0910001 8.3299999 -1.028 185 152 107
-4.0780001 8.342 -1.0190001 242 169 101
-4.0999999 8.3269997 -0.98299998 241 153 63
-4.1040001 8.3280001 -0.98799998 244 156 48
-4.0739999 8.3330002 -1.011 166 121 79
-4.0770001 8.3290005 -1.016 227 183 138
-4.079 8.3649998 -1.074 156 105 42
-4.0910001 8.3520002 -1.02 126 61 5
-4.0819998 8.3699999 -1.066 153 90 23
-4.1069999 8.3280001 -1.003 249 200 232
-4.0910001 8.3260002 -1.007 149 90 56
-4.1100001 8.3360004 -1.026 217 154 87
-4.098 8.3269997 -0.94099998 202 100 36
-4.0819998 8.3199997 -1.016 223 171 72
-4.1079998 8.3299999 -0.91399997 135 89 56
-4.1020002 8.3620005 -0.92900002 111 65 32
-4.0960002 8.3369999 -0.92400002 102 78 68
-4.099 8.3649998 -0.92400002 120 69 24
-4.1149998 8.3219995 -0.93900001 178 88 25
-4.1129999 8.3219995 -0.94400001 167 83 19
-4.1259999 8.3730001 -0.954 117 39 0
-4.118 8.3760004 -0.94400001 158 132 115
-4.1560001 8.342 -0.96700001 255 202 131
-4.1040001 8.3280001 -0.81999999 153 98 57
-4.1059999 8.3249998 -0.81300002 78 45 26
-4.0929999 8.3570004 -1.015 155 111 62
-4.0960002 8.3430004 -0.99000001 197 149 103
-4.1009998 8.3330002 -0.98299998 204 153 110
-4.066 8.3599997 -1.0599999 254 202 80
-4.0609999 8.3470001 -1.016 59 52 44
-4.1459999 8.3520002 -0.97500002 62 24 5
-4.098 8.3500004 -0.98500001 135 106 98
-4.1170001 8.3260002 -0.97000003 215 163 113
-4.125 8.3299999 -0.96399999 151 101 52
-4.1389999 8.3210001 -1.036 153 101 53
-4.138 8.3339996 -1.028 117 59 9
-4.145 8.3290005 -0.949 132 88 51
-4.1479998 8.2919998 -1.057 212 121 32
-4.112 8.3199997 -1.0420001 129 77 37
-4.1139998 8.3140001 -1.045 202 170 131
-4.1129999 8.3669996 -1.035 189 131 94
-4.1360002 8.2969999 -1.043 96 52 13
-4.0840001 8.3249998 -0.884 95 53 31
-4.1100001 8.3249998 -0.80000001 147 89 41
-4.099 8.3210001 -0.847 233 217 230
-4.0960002 8.3710003 -0.94400001 101 67 42
-4.0939999 8.3620005 -0.94199997 192 157 129
-4.0960002 8.3789997 -0.94499999 156 131 111
-4.0970001 8.3549995 -0.95499998 156 119 90
-4.158 8.3549995 -0.95499998 156 104 54
-4.151 8.3570004 -0.95599997 116 67 37
-4.1570001 8.3520002 -0.96799999 128 76 29
-4.1479998 8.3400002 -0.90200001 181 104 36
-4.132 8.3590002 -0.93599999 206 155 102
-4.1420002 8.3610001 -0.94499999 166 100 52
-4.1329999 8.3360004 -0.93800002 145 95 60
-4.1329999 8.3470001 -0.93900001 107 58 25
-4.1269999 8.3470001 -0.94 161 75 0
-4.105 8.3299999 -0.829 141 107 80
-4.0960002 8.3070002 -0.81 198 147 100
-4.1220002 8.3780003 -0.98000002 146 85 38
-4.1500001 8.3579998 -0.97600001 238 177 110
-4.145 8.3590002 -0.97299999 255 211 175
-4.0809999 8.3290005 -1.023 194 101 6
-4.0840001 8.3310003 -1.01 152 123 81
-4.0539999 8.3389997 -1.015 191 139 92
-4.1090002 8.3260002 -0.99699998 202 129 74
-4.1030002 8.3290005 -0.99800003 183 123 86
-4.0939999 8.3470001 -1.0599999 254 181 104
-4.1329999 8.3459997 -1.041 155 129 112
-4.1009998 8.3249998 -0.94199997 100 54 18
-4.105 8.3290005 -0.94999999 202 141 94
-4.092 8.3520002 -1.0089999 172 120 70
-4.0630002 8.3330002 -1.0089999 182 154 115
-4.1020002 8.3310003 -0.91000003 117 74 42
-4.1009998 8.3699999 -0.958 121 81 56
-4.125 8.3559999 -0.93900001 82 33 0
-4.1199999 8.3260002 -0.935 194 110 46
-4.1500001 8.3400002 -1.008 237 152 71
-4.1430001 8.3479996 -1.023 90 39 8
-4.131 8.3669996 -0.95899999 86 45 23
-4.1479998 8.3629999 -0.94499999 166 102 58
-4.138 8.3629999 -0.963 123 82 62
-4.1570001 8.3549995 -0.93400002 202 141 94
-4.1570001 8.3509998 -0.93199998 84 37 7
-4.125 8.3809996 -1.026 60 10 3
-4.1339998 8.3330002 -1.023 111 59 19
-4.072 8.3540001 -1.018 255 187 122
-4.0819998 8.375 -1.061 252 195 140
-4.0890002 8.3739996 -1.057 112 54 14
-4.0710001 8.3570004 -1.0599999 255 199 84
-4.059 8.3610001 -1.066 255 216 92
-4.1440001 8.3540001 -0.98199999 185 109 51
-4.098 8.3439999 -0.986 85 41 14
-4.1399999 8.3430004 -0.986 106 88 78
-4.1500001 8.3470001 -0.89499998 172 96 34
-4.1399999 8.3590002 -1.024 250 221 191
-4.1160002 8.3660002 -1.038 203 137 79
-4.0910001 8.3240004 -0.88300002 150 66 2
-4.1009998 8.3210001 -0.866 155 66 0
-4.105 8.3210001 -0.86199999 252 171 106
-4.1620002 8.3400002 -0.91799998 197 139 99
-4.1560001 8.3439999 -0.90700001 179 112 69
-4.0869999 8.3839998 -0.94099998 193 171 158
-4.1009998 8.3520002 -0.93300003 89 53 29
-4.098 8.3500004 -0.94099998 169 131 108
-4.1030002 8.3450003 -0.963 161 107 69
-4.125 8.3299999 -0.99699998 201 145 88
-4.1490002 8.3559999 -0.96499997 78 40 21
-4.1300001 8.3579998 -0.93199998 127 74 34
-4.098 8.2989998 -0.79699999 128 96 75
-4.1529999 8.3540001 -0.96899998 125 81 54
-4.0679998 8.3380003 -1.021 201 147 101
-4.0799999 8.3430004 -1.01 147 98 57
-4.0879998 8.3430004 -1.01 149 104 63
-4.066 8.3669996 -1.0650001 246 182 95
-4.0929999 8.3330002 -1.0089999 161 115 66
-4.1160002 8.3290005 -1 234 153 87
-4.098 8.3529997 -1.068 123 94 88
-4.1059999 8.3269997 -0.94800001 137 94 60
-4.0630002 8.3339996 -1.0089999 249 186 73
-4.118 8.3210001 -0.92400002 167 93 22
-4.1500001 8.3369999 -1.005 132 66 31
-4.1440001 8.349 -1.028 148 69 0
-4.1409998 8.3439999 -1.028 76 27 0
-4.145 8.3599997 -0.94999999 179 104 46
-4.1609998 8.3470001 -0.92799997 132 68 22
-4.1620002 8.3549995 -0.935 163 113 78
-4.1399999 8.3380003 -1.022 85 30 0
-4.0700002 8.3579998 -1.061 253 196 83
-4.1100001 8.3299999 -1.007 157 72 17
-4.1279998 8.3269997 -0.97399998 111 47 9
-4.1149998 8.368 -1.0549999 124 73 30
-4.1009998 8.3199997 -0.86400002 144 110 75
-4.1620002 8.3549995 -0.94499999 125 99 82
-4.0929999 8.3570004 -0.93599999 137 98 69
-4.1009998 8.3450003 -0.96600002 141 87 51
-4.1339998 8.323 -0.99199998 222 153 88
-4.1420002 8.3590002 -0.96399999 83 58 36
-4.1100001 8.3459997 -0.94 116 68 30
-4.145 8.3269997 -0.87800002 242 152 56
-4.1370001 8.3629999 -0.97299999 64 27 9
-4.0749998 8.3360004 -1.011 185 144 90
-4.0650001 8.3669996 -1.068 249 188 97
-4.1079998 8.3269997 -0.94999999 235 129 67
-4.1030002 8.349 -0.95300001 200 144 95
-4.1430001 8.3380003 -1.023 85 39 3
-4.1609998 8.3500004 -0.94300002 125 90 68
-4.1199999 8.3260002 -0.99199998 239 156 60
-4.0840001 8.349 -1.01 178 138 102
-4.1300001 8.3699999 -0.97000003 71 33 0
-4.1059999 8.3360004 -0.95300001 113 83 59
-4.1620002 8.3369999 -0.95300001 126 70 19
-4.131 8.3319998 -0.97899997 179 153 136
0 0 0 1 0 0 0 1 0 0 0 1 0 0 0 0 0 854 1 0 0
