ply
format ascii 1.0
comment PCL generated
element vertex 124
property float x
property float y
property float z
property uchar red
property uchar green
property uchar blue
element camera 1
property float view_px
property float view_py
property float view_pz
property float x_axisx
property float x_axisy
property float x_axisz
property float y_axisx
property float y_axisy
property float y_axisz
property float z_axisx
property float z_axisy
property float z_axisz
property float focal
property float scalex
property float scaley
property float centerx
property float centery
property int viewportx
property int viewporty
property float k1
property float k2
end_header
-11.521 8.599 -0.61000001 255 251 221
-11.525 8.5930004 -0.62599999 177 112 56
-11.522 8.5930004 -0.62800002 253 212 130
-11.519 8.6029997 -0.61299998 248 189 97
-11.512 8.6160002 -0.60900003 246 248 226
-11.521 8.625 -0.602 209 157 99
-11.525 8.632 -0.597 241 235 211
-11.524 8.6099997 -0.59299999 220 183 94
-11.514 8.6289997 -0.60799998 231 188 156
-11.521 8.6129999 -0.60900003 162 121 91
-11.522 8.5959997 -0.625 145 101 74
-11.513 8.6359997 -0.616 251 203 155
-11.507 8.6350002 -0.62199998 198 125 57
-11.514 8.6309996 -0.62300003 80 68 70
-11.552 8.5869999 -0.63999999 190 138 90
-11.558 8.5889997 -0.63800001 195 133 72
-11.55 8.585 -0.63700002 207 193 156
-11.515 8.6190004 -0.61299998 238 173 79
-11.573 8.6070004 -0.61000001 137 73 11
-11.574 8.6040001 -0.616 169 125 76
-11.576 8.6090002 -0.611 138 82 23
-11.56 8.5909996 -0.61699998 176 131 98
-11.528 8.6049995 -0.597 255 251 224
-11.547 8.6149998 -0.59799999 235 168 64
-11.559 8.5979996 -0.64200002 151 97 50
-11.549 8.6099997 -0.63999999 140 75 37
-11.559 8.599 -0.64200002 206 161 106
-11.522 8.6420002 -0.60900003 204 121 43
-11.536 8.651 -0.61000001 139 84 20
-11.533 8.6459999 -0.62900001 81 59 38
-11.541 8.6370001 -0.597 216 142 53
-11.545 8.6230001 -0.59600002 249 188 108
-11.533 8.6210003 -0.597 255 254 229
-11.545 8.599 -0.60500002 238 168 83
-11.556 8.6009998 -0.60900003 186 128 54
-11.551 8.5900002 -0.60900003 247 187 115
-11.513 8.6140003 -0.61799997 213 145 70
-11.553 8.5869999 -0.62199998 175 121 85
-11.569 8.6140003 -0.62099999 204 164 102
-11.569 8.6129999 -0.60900003 152 119 68
-11.554 8.6219997 -0.61400002 255 234 171
-11.564 8.6219997 -0.61199999 130 61 4
-11.549 8.6230001 -0.62199998 66 53 44
-11.541 8.6400003 -0.61400002 98 38 1
-11.55 8.6219997 -0.61500001 187 113 50
-11.54 8.6409998 -0.61199999 131 83 43
-11.548 8.6379995 -0.59899998 246 175 111
-11.552 8.6330004 -0.59899998 186 107 38
-11.569 8.6210003 -0.61000001 137 82 17
-11.53 8.6169996 -0.59600002 248 179 86
-11.551 8.6239996 -0.60100001 142 86 29
-11.556 8.6169996 -0.60600001 85 49 0
-11.553 8.6289997 -0.59899998 246 184 97
-11.554 8.625 -0.60600001 173 143 91
-11.552 8.6059999 -0.60900003 186 152 104
-11.557 8.6059999 -0.60900003 157 93 19
-11.534 8.5970001 -0.61500001 255 235 185
-11.569 8.6140003 -0.63 244 203 139
-11.566 8.6110001 -0.62800002 144 75 36
-11.547 8.5909996 -0.62800002 192 130 81
-11.558 8.5880003 -0.63 242 177 111
-11.559 8.5900002 -0.62199998 255 191 111
-11.545 8.6199999 -0.63200003 254 211 143
-11.533 8.6190004 -0.63700002 119 92 83
-11.534 8.6339998 -0.63200003 132 106 89
-11.562 8.5979996 -0.63300002 255 219 147
-11.511 8.6160002 -0.62800002 208 206 181
-11.57 8.6169996 -0.61299998 115 76 19
-11.533 8.6450005 -0.61900002 191 102 18
-11.539 8.5950003 -0.63599998 205 191 152
-11.532 8.5979996 -0.63300002 245 227 215
-11.533 8.6379995 -0.63 91 52 11
-11.531 8.6400003 -0.62599999 157 107 70
-11.528 8.6350002 -0.62599999 194 129 63
-11.521 8.6350002 -0.60799998 215 125 28
-11.55 8.6280003 -0.60600001 107 70 17
-11.526 8.6260004 -0.59799999 175 90 0
-11.536 8.6370001 -0.60299999 214 143 79
-11.532 8.6389999 -0.60699999 202 123 54
-11.565 8.6120005 -0.61000001 180 147 96
-11.545 8.6280003 -0.59899998 224 150 51
-11.522 8.6009998 -0.61799997 246 248 224
-11.539 8.5930004 -0.61500001 254 221 170
-11.541 8.6020002 -0.60399997 120 84 62
-11.56 8.592 -0.62900001 195 138 93
-11.536 8.6049995 -0.63499999 138 85 33
-11.538 8.6350002 -0.62800002 170 132 113
-11.535 8.6440001 -0.62 101 65 41
-11.56 8.5979996 -0.63599998 156 113 81
-11.524 8.6029997 -0.62900001 217 158 78
-11.522 8.6140003 -0.625 155 114 86
-11.539 8.5979996 -0.63599998 208 172 112
-11.534 8.5970001 -0.63300002 255 208 138
-11.527 8.6379995 -0.62 212 148 77
-11.533 8.6239996 -0.63300002 199 114 75
-11.528 8.6409998 -0.60900003 148 93 54
-11.526 8.6190004 -0.597 222 151 61
-11.545 8.5970001 -0.61000001 250 245 207
-11.534 8.5900002 -0.62800002 255 220 125
-11.536 8.5909996 -0.62699997 164 105 61
-11.555 8.6160002 -0.62900001 196 103 33
-11.547 8.6190004 -0.62900001 115 90 68
-11.558 8.6070004 -0.63300002 197 136 56
-11.564 8.5959997 -0.616 195 140 75
-11.563 8.5950003 -0.62400001 215 154 87
-11.514 8.6210003 -0.62400001 204 135 68
-11.538 8.6490002 -0.61299998 65 45 38
-11.542 8.6230001 -0.63 132 95 43
-11.541 8.6300001 -0.62400001 111 80 51
-11.536 8.6359997 -0.60100001 152 77 22
-11.557 8.6140003 -0.60699999 139 74 20
-11.537 8.592 -0.62099999 255 211 163
-11.538 8.5959997 -0.61400002 89 29 0
-11.562 8.6169996 -0.62599999 215 128 51
-11.554 8.6099997 -0.63200003 255 195 125
-11.52 8.6160002 -0.62400001 199 158 96
-11.539 8.6490002 -0.61500001 211 129 73
-11.538 8.6330004 -0.60000002 143 87 38
-11.536 8.5950003 -0.61699998 245 176 107
-11.559 8.5909996 -0.634 182 123 55
-11.523 8.6289997 -0.62599999 152 113 54
-11.53 8.632 -0.59899998 171 116 77
-11.531 8.6120005 -0.63099998 143 117 102
-11.531 8.6230001 -0.62900001 213 115 44
0 0 0 1 0 0 0 1 0 0 0 1 0 0 0 0 0 124 1 0 0
