ply
format ascii 1.0
comment PCL generated
element vertex 63
property float x
property float y
property float z
property uchar red
property uchar green
property uchar blue
element camera 1
property float view_px
property float view_py
property float view_pz
property float x_axisx
property float x_axisy
property float x_axisz
property float y_axisx
property float y_axisy
property float y_axisz
property float z_axisx
property float z_axisy
property float z_axisz
property float focal
property float scalex
property float scaley
property float centerx
property float centery
property int viewportx
property int viewporty
property float k1
property float k2
end_header
10.207 10.299 -0.54000002 61 20 0
10.198 10.3 -0.53899997 39 21 0
10.204 10.301 -0.54299998 29 24 28
10.201 10.283 -0.52700001 94 67 46
10.209 10.293 -0.53299999 147 142 148
10.195 10.296 -0.52100003 62 41 14
10.191 10.285 -0.51499999 120 70 43
10.205 10.287 -0.52399999 136 104 91
10.215 10.288 -0.51599997 132 112 103
10.212 10.277 -0.514 159 118 72
10.194 10.274 -0.51700002 90 61 31
10.207 10.301 -0.52700001 76 40 18
10.198 10.297 -0.523 106 103 110
10.203 10.3 -0.53299999 148 143 149
10.199 10.298 -0.491 70 25 2
10.201 10.292 -0.484 84 49 21
10.19 10.291 -0.484 121 95 46
10.205 10.304 -0.493 172 133 94
10.2 10.297 -0.52499998 109 83 66
10.196 10.279 -0.49200001 126 84 44
10.202 10.275 -0.505 97 47 20
10.204 10.272 -0.505 105 59 33
10.194 10.288 -0.48300001 102 71 51
10.185 10.287 -0.50199997 89 65 29
10.191 10.292 -0.48800001 126 88 69
10.211 10.283 -0.498 97 62 34
10.213 10.284 -0.484 109 77 56
10.209 10.278 -0.498 108 73 45
10.2 10.298 -0.505 77 29 9
10.201 10.296 -0.49599999 127 84 41
10.188 10.298 -0.498 74 38 12
10.184 10.289 -0.5 86 55 27
10.204 10.299 -0.52899998 63 18 0
10.218 10.3 -0.528 48 30 18
10.22 10.3 -0.51899999 100 85 82
10.213 10.299 -0.52399999 80 47 28
10.211 10.295 -0.52399999 85 44 24
10.206 10.277 -0.486 113 96 88
10.198 10.28 -0.486 101 86 83
10.195 10.281 -0.49700001 124 105 90
10.206 10.276 -0.49399999 122 72 45
10.206 10.276 -0.49900001 113 78 56
10.199 10.276 -0.51300001 128 119 120
10.201 10.278 -0.51499999 142 84 46
10.214 10.293 -0.514 107 88 74
10.191 10.289 -0.49200001 165 135 111
10.186 10.294 -0.493 138 75 32
10.204 10.276 -0.49399999 77 58 43
10.21 10.279 -0.48500001 149 99 66
10.199 10.298 -0.50599998 61 19 0
10.21 10.285 -0.50300002 48 31 23
10.204 10.298 -0.51800001 79 38 16
10.209 10.285 -0.48500001 109 82 27
10.197 10.287 -0.484 122 73 41
10.192 10.285 -0.495 70 23 0
10.204 10.29 -0.48800001 110 65 42
10.211 10.285 -0.509 115 92 76
10.195 10.295 -0.509 96 54 30
10.21 10.283 -0.49399999 83 33 8
10.202 10.275 -0.50599998 75 53 32
10.195 10.28 -0.505 79 45 18
10.194 10.292 -0.509 166 139 118
10.193 10.284 -0.50599998 98 77 56
0 0 0 1 0 0 0 1 0 0 0 1 0 0 0 0 0 63 1 0 0
