ply
format ascii 1.0
comment PCL generated
element vertex 228
property float x
property float y
property float z
property uchar red
property uchar green
property uchar blue
element camera 1
property float view_px
property float view_py
property float view_pz
property float x_axisx
property float x_axisy
property float x_axisz
property float y_axisx
property float y_axisy
property float y_axisz
property float z_axisx
property float z_axisy
property float z_axisz
property float focal
property float scalex
property float scaley
property float centerx
property float centery
property int viewportx
property int viewporty
property float k1
property float k2
end_header
-17.556 1.1109999 -0.80400002 145 86 46
-17.552999 1.113 -0.81 146 56 3
-17.548 1.104 -0.80000001 120 79 47
-17.554001 1.1109999 -0.80199999 146 70 20
-17.639999 1.257 -0.68000001 119 75 46
-17.639999 1.265 -0.66900003 151 92 48
-17.636999 1.266 -0.67400002 143 97 48
-17.638 1.262 -0.67199999 191 132 92
-17.642 1.249 -0.68000001 184 126 86
-17.629 1.242 -0.66900003 132 71 26
-17.641001 1.253 -0.68900001 142 74 29
-17.655001 1.197 -0.74199998 78 32 9
-17.65 1.1950001 -0.74400002 125 75 40
-17.659 1.193 -0.745 171 108 54
-17.645 1.198 -0.73699999 143 69 8
-17.638 1.187 -0.741 116 81 49
-17.639 1.181 -0.72600001 182 120 71
-17.643 1.204 -0.73299998 162 77 20
-17.601 1.234 -0.69 195 119 59
-17.608 1.227 -0.685 191 126 68
-17.617001 1.23 -0.70099998 174 87 34
-17.554001 1.113 -0.78899997 124 51 8
-17.576 1.118 -0.79100001 133 53 0
-17.615999 1.186 -0.73199999 126 75 32
-17.617001 1.192 -0.72899997 219 151 78
-17.629999 1.184 -0.727 104 48 0
-17.607 1.251 -0.671 173 92 26
-17.607 1.256 -0.68300003 128 101 58
-17.594 1.2460001 -0.67799997 160 93 41
-17.614 1.26 -0.68199998 141 89 39
-17.625 1.258 -0.67199999 151 106 73
-17.629999 1.263 -0.68000001 193 115 66
-17.631001 1.229 -0.70599997 121 63 23
-17.632 1.223 -0.71700001 151 110 78
-17.643 1.225 -0.71200001 106 62 35
-17.638 1.21 -0.72799999 126 85 57
-17.649 1.217 -0.72399998 131 63 14
-17.613001 1.224 -0.67000002 155 78 24
-17.613001 1.223 -0.67400002 141 59 1
-17.625 1.239 -0.671 148 72 20
-17.608999 1.227 -0.66500002 168 103 45
-17.611 1.137 -0.792 175 101 56
-17.608 1.142 -0.79500002 165 94 38
-17.618 1.143 -0.79400003 184 133 90
-17.622 1.152 -0.77600002 175 89 30
-17.625 1.153 -0.78299999 188 115 60
-17.643999 1.21 -0.73299998 142 90 50
-17.598 1.232 -0.66600001 186 145 123
-17.596001 1.242 -0.667 160 111 79
-17.611 1.233 -0.667 171 102 47
-17.608999 1.237 -0.66900003 156 97 53
-17.603001 1.2359999 -0.69400001 132 88 61
-17.599001 1.237 -0.69199997 146 87 43
-17.594999 1.239 -0.68099999 172 119 79
-17.594 1.25 -0.699 122 84 48
-17.559 1.108 -0.792 165 99 39
-17.579 1.118 -0.80000001 139 50 0
-17.589001 1.1210001 -0.78100002 228 148 85
-17.612 1.146 -0.77100003 135 85 48
-17.611 1.224 -0.671 177 116 71
-17.596001 1.142 -0.77700001 193 109 39
-17.608 1.149 -0.78299999 149 74 9
-17.603001 1.228 -0.66799998 191 123 58
-17.603001 1.226 -0.67799997 149 105 66
-17.610001 1.225 -0.67900002 166 107 65
-17.648001 1.2130001 -0.76800001 159 87 29
-17.653999 1.202 -0.75 182 124 74
-17.648001 1.207 -0.77100003 79 34 0
-17.650999 1.205 -0.75599998 149 85 37
-17.65 1.225 -0.72399998 157 107 72
-17.636 1.266 -0.68300003 174 127 81
-17.634001 1.257 -0.68900001 142 82 46
-17.641001 1.239 -0.72399998 109 70 55
-17.643999 1.2359999 -0.741 119 54 0
-17.639 1.2460001 -0.68000001 141 54 1
-17.625 1.242 -0.67400002 142 61 6
-17.622 1.239 -0.68599999 106 71 43
-17.615 1.25 -0.66900003 189 133 84
-17.624001 1.233 -0.69599998 143 81 40
-17.615999 1.229 -0.68699998 187 123 62
-17.625 1.233 -0.699 139 106 73
-17.632 1.186 -0.72799999 115 55 18
-17.634001 1.214 -0.73199999 121 89 51
-17.617001 1.209 -0.73400003 170 101 60
-17.605 1.242 -0.69999999 151 100 43
-17.610001 1.234 -0.74199998 126 73 33
-17.608 1.235 -0.75700003 104 59 30
-17.617001 1.24 -0.74900001 127 88 55
-17.639999 1.2029999 -0.73699999 137 101 69
-17.622 1.166 -0.77999997 167 74 13
-17.611 1.187 -0.77499998 142 89 49
-17.615999 1.188 -0.77399999 148 77 25
-17.642 1.2180001 -0.73199999 130 88 48
-17.634001 1.215 -0.75199997 155 84 22
-17.631001 1.237 -0.75700003 161 81 18
-17.632999 1.232 -0.76300001 97 55 15
-17.628 1.22 -0.755 144 73 19
-17.639999 1.237 -0.741 85 44 14
-17.624001 1.227 -0.76700002 145 88 45
-17.629 1.219 -0.77899998 196 157 118
-17.628 1.22 -0.76899999 158 114 77
-17.608999 1.193 -0.73900002 129 85 48
-17.615999 1.235 -0.704 129 88 70
-17.632999 1.177 -0.75700003 115 65 28
-17.625999 1.169 -0.75800002 149 96 56
-17.648001 1.166 -0.76899999 184 109 51
-17.636 1.177 -0.74699998 203 116 62
-17.554001 1.1109999 -0.792 137 61 12
-17.629999 1.179 -0.73500001 124 54 2
-17.582001 1.122 -0.78299999 127 80 54
-17.599001 1.14 -0.77399999 171 101 50
-17.608999 1.158 -0.76800001 167 119 79
-17.610001 1.158 -0.77499998 146 94 54
-17.582001 1.122 -0.79699999 105 61 36
-17.611 1.1440001 -0.78100002 159 105 61
-17.615999 1.15 -0.78200001 137 97 62
-17.653 1.206 -0.74400002 201 118 52
-17.638 1.253 -0.69700003 104 54 27
-17.605 1.258 -0.69599998 162 104 66
-17.6 1.25 -0.69199997 153 98 57
-17.597 1.252 -0.70099998 187 136 89
-17.631001 1.255 -0.67199999 188 103 46
-17.618 1.232 -0.68199998 199 131 66
-17.603001 1.249 -0.68000001 130 69 24
-17.608 1.251 -0.67199999 146 99 55
-17.615 1.24 -0.75800002 132 93 60
-17.608999 1.232 -0.75999999 146 93 49
-17.618 1.23 -0.70999998 192 104 40
-17.624001 1.228 -0.72600001 103 57 31
-17.614 1.2460001 -0.71700001 103 51 12
-17.615 1.2 -0.77399999 98 55 23
-17.615 1.207 -0.75300002 156 80 28
-17.608999 1.191 -0.76800001 156 89 18
-17.617001 1.216 -0.76800001 100 62 41
-17.615999 1.194 -0.76800001 85 37 0
-17.620001 1.199 -0.773 140 63 7
-17.629 1.199 -0.77499998 140 69 13
-17.643999 1.1849999 -0.78100002 201 116 61
-17.618 1.186 -0.73900002 154 93 36
-17.618 1.186 -0.73500001 147 75 16
-17.639999 1.183 -0.74599999 224 153 101
-17.648001 1.207 -0.75199997 132 84 44
-17.622 1.217 -0.73500001 214 129 75
-17.617001 1.214 -0.74000001 109 75 38
-17.629999 1.216 -0.76200002 130 76 29
-17.617001 1.232 -0.74199998 115 71 44
-17.610001 1.233 -0.745 143 61 13
-17.608999 1.1950001 -0.741 210 125 60
-17.639 1.184 -0.77399999 96 63 32
-17.65 1.174 -0.77600002 95 51 22
-17.648001 1.168 -0.77100003 90 48 24
-17.629999 1.177 -0.741 115 68 42
-17.611 1.155 -0.76700002 201 128 77
-17.625 1.153 -0.78899997 176 135 105
-17.610001 1.155 -0.778 169 125 90
-17.620001 1.163 -0.77899998 147 103 64
-17.587 1.123 -0.78799999 173 82 11
-17.613001 1.143 -0.79000002 169 115 69
-17.652 1.207 -0.74599999 202 131 85
-17.642 1.222 -0.722 174 92 34
-17.646 1.227 -0.73199999 129 85 46
-17.629 1.226 -0.72399998 134 50 3
-17.636 1.2539999 -0.69400001 132 80 43
-17.643999 1.228 -0.72000003 92 58 23
-17.635 1.24 -0.71799999 185 101 37
-17.614 1.239 -0.671 190 102 39
-17.617001 1.22 -0.76800001 124 76 38
-17.549 1.1109999 -0.80000001 155 82 29
-17.610001 1.234 -0.75400001 128 76 36
-17.612 1.2460001 -0.71600002 96 43 11
-17.612 1.251 -0.72299999 164 98 48
-17.607 1.256 -0.70499998 117 87 37
-17.629999 1.2309999 -0.72000003 175 100 33
-17.632999 1.209 -0.76899999 147 58 0
-17.617001 1.216 -0.75999999 171 118 76
-17.628 1.191 -0.74400002 135 80 41
-17.629 1.198 -0.74699998 136 85 42
-17.646999 1.173 -0.76899999 136 51 0
-17.621 1.222 -0.75400001 137 70 18
-17.613001 1.197 -0.73900002 173 112 58
-17.628 1.1799999 -0.759 73 32 2
-17.639 1.1799999 -0.75800002 148 73 16
-17.618999 1.1670001 -0.75700003 198 109 53
-17.622 1.17 -0.76099998 109 73 37
-17.618999 1.175 -0.75599998 109 66 31
-17.617001 1.1849999 -0.77100003 157 84 31
-17.612 1.163 -0.77399999 152 88 44
-17.604 1.145 -0.77499998 161 104 59
-17.612 1.154 -0.76999998 144 64 13
-17.587 1.124 -0.78600001 174 101 56
-17.601 1.233 -0.685 166 125 105
-17.597 1.234 -0.671 138 83 44
-17.638 1.209 -0.74900001 135 51 0
-17.643 1.227 -0.73299998 186 103 37
-17.646 1.2309999 -0.73199999 222 138 76
-17.638 1.226 -0.73299998 107 58 17
-17.618 1.23 -0.74599999 114 65 24
-17.624001 1.2460001 -0.68599999 209 146 92
-17.648001 1.226 -0.72399998 177 115 68
-17.622999 1.249 -0.71100003 113 69 24
-17.642 1.237 -0.722 146 101 60
-17.632999 1.233 -0.70300001 127 63 2
-17.618999 1.243 -0.671 188 130 92
-17.611 1.235 -0.75300002 95 54 32
-17.627001 1.212 -0.77399999 152 91 44
-17.618999 1.186 -0.736 115 76 45
-17.625 1.223 -0.755 95 61 33
-17.618999 1.188 -0.75700003 136 68 19
-17.643999 1.187 -0.77200001 141 59 1
-17.621 1.17 -0.77499998 144 71 18
-17.608999 1.153 -0.77399999 130 85 52
-17.603001 1.143 -0.77399999 145 78 23
-17.639999 1.237 -0.73199999 140 97 63
-17.642 1.229 -0.71799999 145 63 5
-17.632999 1.248 -0.70200002 136 50 1
-17.617001 1.2589999 -0.70099998 179 132 90
-17.632 1.243 -0.70899999 150 94 59
-17.625 1.214 -0.77499998 210 152 112
-17.639999 1.198 -0.76200002 132 91 61
-17.641001 1.21 -0.76700002 157 80 26
-17.629 1.178 -0.74400002 151 99 62
-17.618999 1.2 -0.755 181 92 26
-17.632999 1.2460001 -0.70700002 142 82 28
-17.614 1.255 -0.70599997 108 58 21
-17.642 1.197 -0.75599998 123 52 0
-17.621 1.1849999 -0.74800003 98 47 0
-17.612 1.26 -0.69099998 152 100 52
-17.624001 1.255 -0.68800002 210 126 64
0 0 0 1 0 0 0 1 0 0 0 1 0 0 0 0 0 228 1 0 0
