ply
format ascii 1.0
comment PCL generated
element vertex 310
property float x
property float y
property float z
property uchar red
property uchar green
property uchar blue
element camera 1
property float view_px
property float view_py
property float view_pz
property float x_axisx
property float x_axisy
property float x_axisz
property float y_axisx
property float y_axisy
property float y_axisz
property float z_axisx
property float z_axisy
property float z_axisz
property float focal
property float scalex
property float scaley
property float centerx
property float centery
property int viewportx
property int viewporty
property float k1
property float k2
end_header
0.46900001 12.918 -0.977 197 111 36
0.47799999 12.92 -0.97600001 164 105 63
0.46700001 12.93 -0.986 207 111 37
0.46900001 12.916 -0.97600001 191 128 85
0.52100003 12.956 -0.86900002 211 118 40
0.52600002 12.967 -0.86500001 226 136 58
0.52600002 12.946 -0.86000001 164 122 72
0.52700001 12.96 -0.85699999 203 112 29
0.42199999 12.923 -0.85399997 254 195 127
0.42300001 12.935 -0.84299999 134 101 66
0.41499999 12.914 -0.84200001 47 34 17
0.421 12.918 -0.84600002 109 89 80
0.48100001 12.917 -0.97100002 208 123 40
0.47299999 12.921 -0.96899998 189 163 148
0.46799999 12.924 -0.97299999 250 177 100
0.456 12.899 -0.93599999 73 43 33
0.46799999 12.902 -0.93800002 157 95 58
0.46399999 12.885 -0.92900002 182 151 122
0.51300001 12.942 -0.86400002 181 150 86
0.51599997 12.954 -0.86799997 255 156 71
0.44800001 12.906 -0.85500002 235 144 74
0.44499999 12.909 -0.833 139 122 112
0.43799999 12.904 -0.83399999 122 54 7
0.45300001 12.911 -0.85000002 188 109 42
0.50800002 12.968 -0.85299999 242 148 52
0.50400001 12.966 -0.85600001 172 140 115
0.50199997 12.967 -0.861 172 87 33
0.51499999 12.97 -0.86400002 186 135 104
0.49900001 12.976 -0.88200003 221 158 107
0.50599998 12.975 -0.87599999 148 104 77
0.50599998 12.977 -0.889 151 80 38
0.49700001 12.984 -0.89300001 127 74 32
0.44600001 12.929 -0.90600002 127 59 12
0.44400001 12.923 -0.90200001 133 70 27
0.44299999 12.929 -0.90899998 169 152 145
0.52200001 12.954 -0.86199999 255 158 67
0.44800001 12.916 -0.912 184 146 110
0.44499999 12.926 -0.92299998 127 91 57
0.49399999 12.979 -0.89399999 139 87 50
0.45699999 12.941 -0.97299999 113 70 36
0.461 12.947 -0.97600001 59 31 7
0.447 12.94 -0.97100002 158 89 30
0.43599999 12.956 -0.96499997 185 167 155
0.43900001 12.953 -0.96799999 208 134 61
0.43099999 12.958 -0.97299999 92 48 23
0.43700001 12.964 -0.977 147 83 21
0.44 12.96 -0.97500002 75 35 9
0.442 12.942 -0.97100002 75 34 6
0.42199999 12.918 -0.85100001 145 108 79
0.42500001 12.919 -0.83499998 210 166 139
0.42399999 12.928 -0.838 165 82 30
0.42300001 12.922 -0.84100002 170 134 100
0.472 12.896 -0.93000001 255 205 92
0.48100001 12.912 -0.94499999 224 131 36
0.47400001 12.89 -0.92199999 242 172 50
0.46799999 12.889 -0.92299998 244 169 50
0.47999999 12.928 -0.91000003 130 74 39
0.498 12.942 -0.90100002 133 86 58
0.49700001 12.939 -0.898 106 74 27
0.51700002 12.944 -0.85399997 178 108 57
0.47799999 12.899 -0.912 217 123 33
0.47299999 12.891 -0.917 235 143 34
0.47400001 12.894 -0.91299999 159 105 58
0.50999999 12.951 -0.86799997 226 124 42
0.49399999 12.938 -0.89700001 127 86 34
0.49700001 12.958 -0.884 175 102 49
0.50300002 12.968 -0.866 140 72 25
0.52200001 12.968 -0.85699999 155 111 74
0.52100003 12.96 -0.85100001 234 146 49
0.52200001 12.968 -0.861 179 97 47
0.52399999 12.968 -0.86500001 219 138 75
0.47499999 12.92 -0.91000003 131 54 0
0.47499999 12.926 -0.92900002 142 73 31
0.47600001 12.912 -0.93300003 255 197 84
0.477 12.904 -0.92500001 254 181 70
0.44400001 12.92 -0.88700002 103 49 47
0.43700001 12.925 -0.88300002 134 66 19
0.458 12.888 -0.93000001 145 76 35
0.48199999 12.946 -0.96499997 194 101 24
0.47499999 12.946 -0.97000003 139 83 46
0.48199999 12.942 -0.97000003 197 111 36
0.479 12.923 -0.94199997 171 127 88
0.479 12.925 -0.954 208 110 23
0.48199999 12.936 -0.94800001 146 102 65
0.472 12.934 -0.98100001 179 88 5
0.47 12.935 -0.98400003 159 113 77
0.46700001 12.931 -0.97500002 157 125 102
0.46399999 12.927 -0.96799999 234 167 122
0.46799999 12.924 -0.96700001 199 124 57
0.47799999 12.931 -0.96799999 226 135 54
0.419 12.906 -0.85900003 106 72 45
0.42199999 12.905 -0.85299999 146 105 77
0.42899999 12.898 -0.86299998 229 144 89
0.426 12.908 -0.861 98 78 71
0.44400001 12.932 -0.92799997 118 65 23
0.42399999 12.913 -0.85500002 43 39 27
0.42500001 12.917 -0.83399999 168 149 135
0.43099999 12.92 -0.82999998 178 160 148
0.43599999 12.915 -0.829 174 156 144
0.43000001 12.909 -0.83700001 99 48 45
0.42500001 12.912 -0.83999997 98 72 49
0.46799999 12.889 -0.917 248 155 49
0.46700001 12.891 -0.91500002 192 137 96
0.463 12.89 -0.917 248 214 177
0.47400001 12.892 -0.91799998 191 144 92
0.48100001 12.93 -0.90899998 85 54 26
0.46599999 12.938 -0.89999998 187 164 148
0.47499999 12.915 -0.89899999 112 66 33
0.46399999 12.929 -0.90399998 176 153 135
0.52200001 12.957 -0.85100001 190 103 24
0.51800001 12.957 -0.84399998 91 52 21
0.51899999 12.953 -0.85100001 119 96 65
0.47299999 12.901 -0.90899998 107 59 36
0.47799999 12.897 -0.91799998 220 124 22
0.49200001 12.954 -0.912 171 99 23
0.48800001 12.943 -0.91500002 159 81 9
0.48800001 12.944 -0.91399997 143 84 42
0.48800001 12.95 -0.91399997 103 68 48
0.50199997 12.955 -0.90200001 197 155 131
0.50800002 12.957 -0.87300003 185 107 68
0.50099999 12.959 -0.89099997 151 107 78
0.509 12.961 -0.87599999 224 124 49
0.42500001 12.929 -0.833 129 73 40
0.442 12.947 -0.972 164 100 56
0.44600001 12.921 -0.93300003 162 119 84
0.44400001 12.933 -0.93099999 158 97 52
0.47600001 12.911 -0.93900001 250 179 75
0.47400001 12.921 -0.91100001 179 87 12
0.45199999 12.908 -0.90899998 169 107 58
0.43700001 12.917 -0.87300003 114 68 42
0.43099999 12.898 -0.85500002 181 96 55
0.435 12.906 -0.84600002 165 119 69
0.45300001 12.935 -0.90799999 114 61 21
0.442 12.928 -0.88300002 128 83 60
0.461 12.944 -0.90200001 152 104 68
0.472 12.946 -0.89899999 88 43 20
0.49700001 12.962 -0.90100002 140 63 0
0.50700003 12.972 -0.89700001 160 82 33
0.461 12.942 -0.90700001 171 155 139
0.447 12.965 -0.94700003 102 65 38
0.45100001 12.955 -0.96200001 154 81 36
0.45699999 12.949 -0.95700002 78 23 0
0.46399999 12.945 -0.94700003 115 66 25
0.47799999 12.951 -0.95499998 70 40 32
0.447 12.946 -0.93400002 122 85 58
0.447 12.944 -0.954 116 35 0
0.44 12.962 -0.94400001 189 141 105
0.456 12.947 -0.94599998 80 41 24
0.45100001 12.95 -0.95200002 97 48 18
0.44100001 12.955 -0.963 122 76 50
0.479 12.952 -0.96200001 176 128 88
0.458 12.945 -0.96799999 61 27 2
0.48300001 12.939 -0.95099998 230 140 54
0.48199999 12.946 -0.95899999 213 118 38
0.48300001 12.941 -0.92699999 194 106 32
0.47400001 12.95 -0.90799999 147 94 50
0.47999999 12.947 -0.95099998 168 120 80
0.484 12.949 -0.921 128 78 55
0.48199999 12.951 -0.912 175 121 93
0.47499999 12.946 -0.93099999 164 105 73
0.48500001 12.939 -0.91299999 72 26 2
0.48199999 12.935 -0.92500001 129 87 49
0.46399999 12.943 -0.96100003 96 61 41
0.465 12.938 -0.97799999 209 138 86
0.46200001 12.933 -0.96899998 143 94 61
0.48100001 12.94 -0.972 159 115 80
0.43200001 12.916 -0.861 158 122 98
0.45100001 12.917 -0.85100001 130 62 15
0.44600001 12.911 -0.84500003 164 145 138
0.44299999 12.91 -0.84899998 172 120 80
0.47299999 12.895 -0.912 205 112 16
0.46799999 12.909 -0.90600002 102 28 0
0.46900001 12.902 -0.90799999 67 37 29
0.46000001 12.905 -0.903 158 124 97
0.47099999 12.906 -0.93800002 255 195 103
0.46900001 12.894 -0.91299999 147 100 58
0.48100001 12.946 -0.90100002 156 125 96
0.48899999 12.96 -0.88599998 188 108 59
0.48899999 12.949 -0.90200001 168 124 95
0.514 12.952 -0.86699998 146 101 68
0.477 12.915 -0.90399998 82 50 25
0.486 12.956 -0.90899998 133 76 33
0.49000001 12.967 -0.89200002 146 64 17
0.491 12.96 -0.89899999 88 61 54
0.49900001 12.955 -0.89300001 110 73 44
0.50700003 12.971 -0.88999999 133 47 0
0.43200001 12.927 -0.83600003 189 154 134
0.43900001 12.919 -0.84899998 126 92 64
0.44400001 12.916 -0.85399997 143 93 92
0.50199997 12.949 -0.85500002 124 57 14
0.50599998 12.955 -0.86699998 109 77 54
0.45199999 12.951 -0.96600002 120 93 66
0.454 12.906 -0.92199999 115 72 38
0.45300001 12.906 -0.93699998 248 178 126
0.45300001 12.919 -0.92199999 123 85 49
0.45899999 12.892 -0.917 201 111 35
0.43700001 12.924 -0.87800002 132 86 53
0.43399999 12.929 -0.87099999 148 101 73
0.447 12.934 -0.91000003 74 29 6
0.491 12.971 -0.889 110 65 42
0.50199997 12.976 -0.89499998 126 86 60
0.461 12.916 -0.95099998 113 54 58
0.44600001 12.963 -0.94999999 132 83 42
0.44600001 12.948 -0.958 147 128 121
0.48199999 12.941 -0.95200002 169 126 92
0.48199999 12.94 -0.95700002 166 127 96
0.48100001 12.949 -0.95700002 138 104 77
0.47799999 12.943 -0.94 100 61 46
0.45899999 12.943 -0.91799998 201 100 30
0.48800001 12.942 -0.90200001 145 85 48
0.47499999 12.928 -0.935 114 58 57
0.47799999 12.933 -0.94400001 201 119 19
0.458 12.946 -0.94800001 141 69 31
0.44999999 12.937 -0.96899998 108 36 0
0.45100001 12.93 -0.95999998 122 54 7
0.44400001 12.936 -0.95999998 169 150 143
0.47400001 12.923 -0.96399999 208 179 163
0.479 12.929 -0.96100003 236 137 56
0.472 12.922 -0.963 65 23 0
0.43000001 12.92 -0.86000001 210 112 49
0.43399999 12.908 -0.83499998 139 56 2
0.463 12.912 -0.90700001 153 130 112
0.45500001 12.915 -0.90799999 156 104 64
0.50700003 12.96 -0.84600002 253 177 102
0.51099998 12.959 -0.847 138 47 0
0.51300001 12.956 -0.84399998 153 108 69
0.477 12.916 -0.90499997 134 56 8
0.47600001 12.903 -0.91000003 140 85 44
0.479 12.948 -0.90200001 129 58 14
0.491 12.962 -0.89099997 53 32 13
0.51099998 12.958 -0.87300003 209 158 127
0.50700003 12.967 -0.88499999 75 38 11
0.50099999 12.957 -0.86400002 167 113 79
0.50099999 12.962 -0.87400001 164 121 89
0.442 12.926 -0.83399999 107 76 58
0.428 12.932 -0.83999997 133 69 25
0.43599999 12.932 -0.84299999 179 146 113
0.44400001 12.926 -0.86900002 196 142 98
0.43099999 12.932 -0.85600001 126 48 0
0.42699999 12.93 -0.85000002 92 56 40
0.44100001 12.911 -0.86199999 203 111 44
0.43799999 12.904 -0.861 91 52 19
0.495 12.949 -0.86000001 153 90 39
0.44400001 12.938 -0.93099999 136 60 10
0.447 12.938 -0.92199999 108 71 45
0.456 12.899 -0.93000001 154 87 44
0.46399999 12.893 -0.912 242 207 175
0.46200001 12.894 -0.91000003 103 65 44
0.44600001 12.934 -0.91299999 108 31 0
0.458 12.938 -0.912 183 119 71
0.45500001 12.946 -0.92500001 73 31 7
0.454 12.944 -0.92400002 112 47 5
0.45899999 12.907 -0.93900001 129 49 0
0.46399999 12.913 -0.94599998 96 27 0
0.45699999 12.92 -0.94800001 171 99 49
0.456 12.924 -0.949 105 29 0
0.461 12.927 -0.96100003 127 52 10
0.47499999 12.946 -0.94099998 146 86 50
0.45199999 12.936 -0.91500002 148 101 45
0.47999999 12.945 -0.92199999 205 156 116
0.47 12.941 -0.92199999 110 41 2
0.48199999 12.943 -0.90399998 117 40 0
0.493 12.942 -0.90200001 108 67 39
0.477 12.939 -0.93900001 223 148 47
0.45899999 12.93 -0.96499997 180 161 146
0.42399999 12.928 -0.85500002 123 95 84
0.43599999 12.918 -0.83099997 163 109 73
0.45199999 12.918 -0.84399998 83 46 20
0.45899999 12.913 -0.90799999 132 80 41
0.495 12.961 -0.85900003 129 51 5
0.51700002 12.958 -0.84600002 249 160 78
0.509 12.953 -0.84399998 127 88 57
0.49000001 12.958 -0.89999998 132 76 41
0.51800001 12.962 -0.86900002 234 149 84
0.44299999 12.926 -0.838 171 83 35
0.44499999 12.917 -0.83099997 159 109 72
0.45500001 12.946 -0.94099998 108 48 11
0.44999999 12.927 -0.93800002 201 106 38
0.45699999 12.898 -0.92699999 232 165 110
0.495 12.958 -0.89099997 109 31 0
0.45100001 12.945 -0.93000001 181 128 88
0.458 12.946 -0.92199999 127 56 10
0.46900001 12.915 -0.94599998 143 67 5
0.45500001 12.93 -0.96100003 104 31 0
0.50099999 12.958 -0.85100001 238 167 101
0.49900001 12.967 -0.88099998 170 125 94
0.51200002 12.957 -0.84500003 253 168 85
0.505 12.952 -0.84600002 155 122 91
0.47499999 12.906 -0.90700001 176 121 82
0.44499999 12.922 -0.84100002 149 99 64
0.43900001 12.925 -0.84299999 122 59 18
0.45100001 12.917 -0.94099998 128 41 0
0.458 12.899 -0.92000002 119 80 47
0.46799999 12.897 -0.91100001 162 77 20
0.50199997 12.964 -0.89399999 90 55 36
0.495 12.96 -0.884 134 53 10
0.45899999 12.895 -0.91600001 172 107 51
0.44999999 12.933 -0.95599997 118 87 58
0.44499999 12.939 -0.96100003 62 22 0
0.43700001 12.926 -0.86400002 168 150 140
0.447 12.92 -0.838 208 174 139
0.47499999 12.905 -0.912 120 40 3
0.49700001 12.967 -0.89700001 86 30 0
0.50700003 12.971 -0.884 159 65 1
0.50800002 12.969 -0.875 174 98 40
0.49599999 12.958 -0.85699999 154 120 92
0.45899999 12.944 -0.926 177 102 35
0.45899999 12.899 -0.91100001 181 143 107
0.46700001 12.941 -0.94099998 170 102 57
0.449 12.933 -0.93800002 197 98 30
0 0 0 1 0 0 0 1 0 0 0 1 0 0 0 0 0 310 1 0 0
