ply
format ascii 1.0
comment PCL generated
element vertex 528
property float x
property float y
property float z
property uchar red
property uchar green
property uchar blue
element camera 1
property float view_px
property float view_py
property float view_pz
property float x_axisx
property float x_axisy
property float x_axisz
property float y_axisx
property float y_axisy
property float y_axisz
property float z_axisx
property float z_axisy
property float z_axisz
property float focal
property float scalex
property float scaley
property float centerx
property float centery
property int viewportx
property int viewporty
property float k1
property float k2
end_header
-7.1209998 13.768 -0.61699998 213 121 56
-7.119 13.774 -0.61000001 169 110 66
-7.1160002 13.76 -0.60900003 154 101 61
-7.1079998 13.763 -0.60799998 201 148 106
-7.1079998 13.771 -0.611 121 67 21
-7.1620002 13.699 -0.85100001 141 84 54
-7.1570001 13.707 -0.847 125 85 59
-7.1659999 13.691 -0.84200001 122 43 2
-7.1170001 13.759 -0.61799997 174 92 34
-7.1620002 13.692 -0.83600003 119 73 37
-7.164 13.688 -0.83899999 137 90 62
-7.0830002 13.699 -1.066 124 69 30
-7.0770001 13.696 -1.059 56 39 32
-7.0809999 13.697 -1.066 178 111 92
-7.0840001 13.7 -1.061 84 65 51
-7.086 13.703 -1.0470001 193 122 102
-7.0549998 13.734 -0.68699998 191 101 41
-7.0650001 13.732 -0.66600001 117 71 38
-7.0500002 13.734 -0.68300003 147 95 58
-7.0689998 13.737 -0.68099999 223 137 78
-7.0669999 13.736 -0.67400002 151 89 50
-7.0879998 13.769 -0.616 194 100 36
-7.1009998 13.765 -0.61199999 152 97 58
-7.0960002 13.761 -0.61199999 209 119 57
-7.099 13.756 -0.61299998 156 88 41
-7.1079998 13.75 -0.62599999 154 92 51
-7.112 13.751 -0.61299998 182 120 69
-7.098 13.752 -0.62699997 246 148 75
-7.092 13.729 -0.77999997 163 118 85
-7.098 13.73 -0.764 215 132 78
-7.1069999 13.741 -0.76599997 112 76 44
-7.165 13.693 -0.85000002 179 118 74
-7.164 13.685 -0.85000002 174 138 114
-7.1570001 13.685 -0.85000002 74 44 18
-7.1589999 13.691 -0.86900002 149 131 127
-7.1209998 13.767 -0.62 125 81 46
-7.1170001 13.76 -0.62099999 186 125 81
-7.0830002 13.697 -0.80400002 156 57 2
-7.0910001 13.703 -0.81400001 136 62 17
-7.0840001 13.693 -0.80199999 134 88 52
-7.0900002 13.697 -0.80199999 135 81 43
-7.1479998 13.705 -0.85100001 154 100 64
-7.1149998 13.753 -0.63200003 146 84 43
-7.1209998 13.769 -0.64399999 177 123 63
-7.1170001 13.758 -0.63099998 212 135 79
-7.1139998 13.753 -0.63800001 186 132 72
-7.1160002 13.76 -0.63300002 180 117 73
-7.119 13.764 -0.63099998 216 124 51
-7.1170001 13.751 -0.62099999 172 112 62
-7.0650001 13.74 -0.66399997 234 124 45
-7.0650001 13.741 -0.667 205 118 65
-7.0549998 13.734 -0.65499997 149 80 38
-7.1139998 13.702 -1.016 78 24 0
-7.0960002 13.708 -1.026 164 111 57
-7.1129999 13.699 -1.0190001 158 81 25
-7.0910001 13.692 -1.056 112 62 29
-7.0830002 13.692 -1.072 134 114 103
-7.0900002 13.689 -1.046 200 97 39
-7.0949998 13.694 -1.061 139 109 98
-7.0949998 13.709 -1.026 164 69 25
-7.072 13.699 -0.903 187 151 119
-7.0689998 13.698 -0.89399999 181 124 79
-7.0700002 13.696 -0.90799999 176 112 74
-7.066 13.702 -0.90100002 179 94 37
-7.0749998 13.688 -0.88 208 99 30
-7.0700002 13.699 -0.88300002 195 126 71
-7.0939999 13.715 -0.86699998 107 78 72
-7.0830002 13.699 -0.87900001 217 140 112
-7.0749998 13.708 -0.88099998 133 84 43
-7.0900002 13.782 -0.62699997 87 38 0
-7.0999999 13.788 -0.63200003 100 65 43
-7.0929999 13.79 -0.63999999 84 41 24
-7.0939999 13.785 -0.639 102 75 66
-7.0599999 13.736 -0.65399998 122 69 27
-7.053 13.732 -0.64999998 233 125 50
-7.0560002 13.74 -0.634 139 67 27
-7.0710001 13.733 -0.708 177 93 31
-7.0780001 13.731 -0.713 144 86 40
-7.0739999 13.724 -0.727 108 68 32
-7.1059999 13.761 -0.61000001 186 129 86
-7.0970001 13.757 -0.616 163 111 71
-7.0999999 13.744 -0.92299998 123 89 64
-7.0999999 13.738 -0.92900002 155 101 63
-7.0939999 13.738 -0.92699999 121 106 99
-7.1389999 13.684 -0.85500002 138 111 102
-7.1360002 13.683 -0.85000002 127 79 39
-7.158 13.698 -0.86400002 169 83 24
-7.1500001 13.706 -0.87599999 239 154 89
-7.0960002 13.71 -0.82800001 229 133 75
-7.0970001 13.712 -0.83200002 170 111 67
-7.0970001 13.712 -0.83999997 177 125 78
-7.086 13.721 -0.82300001 162 122 86
-7.1079998 13.722 -0.82700002 151 84 39
-7.1009998 13.717 -0.829 196 98 35
-7.0999999 13.703 -0.815 112 69 34
-7.1079998 13.722 -0.82800001 200 97 30
-7.1469998 13.712 -0.85900003 71 48 42
-7.0999999 13.721 -0.81900001 150 88 51
-7.0949998 13.732 -0.83499998 213 159 112
-7.098 13.753 -0.847 80 40 15
-7.1009998 13.753 -0.84500003 226 151 119
-7.1030002 13.747 -0.84500003 169 125 90
-7.1149998 13.777 -0.61900002 98 73 42
-7.118 13.771 -0.63300002 110 61 28
-7.1079998 13.777 -0.61799997 125 69 22
-7.1599998 13.693 -0.85600001 149 122 111
-7.085 13.691 -0.88599998 120 82 61
-7.0809999 13.688 -0.87900001 220 162 114
-7.1030002 13.702 -0.87199998 169 65 10
-7.1059999 13.699 -0.88 198 126 101
-7.0840001 13.705 -0.91000003 112 85 64
-7.0770001 13.698 -0.91500002 147 109 90
-7.072 13.696 -0.91299999 165 106 64
-7.1339998 13.674 -0.94599998 214 156 118
-7.1329999 13.676 -0.95200002 226 156 104
-7.1420002 13.671 -0.94700003 129 84 43
-7.138 13.675 -0.94099998 148 102 68
-7.1550002 13.698 -0.85100001 99 63 37
-7.1069999 13.742 -0.75999999 148 95 55
-7.1030002 13.74 -0.74400002 160 102 65
-7.1069999 13.744 -0.76700002 240 158 102
-7.0770001 13.728 -0.727 118 92 75
-7.0910001 13.751 -0.64200002 142 90 42
-7.053 13.764 -0.63700002 93 63 53
-7.0599999 13.744 -0.63099998 170 118 78
-7.0500002 13.757 -0.63800001 65 36 32
-7.0549998 13.763 -0.639 224 130 60
-7.0619998 13.738 -0.676 221 115 41
-7.1570001 13.729 -0.98799998 84 17 0
-7.1560001 13.754 -0.98400003 209 149 112
-7.1539998 13.746 -0.99800003 116 49 7
-7.1529999 13.76 -0.98100001 183 120 76
-7.1589999 13.763 -0.98100001 108 67 37
-7.1490002 13.751 -0.995 80 41 10
-7.0900002 13.698 -1.046 140 122 110
-7.0900002 13.694 -1.061 126 109 99
-7.0879998 13.726 -0.92799997 89 73 60
-7.085 13.725 -0.92500001 252 185 133
-7.092 13.707 -0.91399997 211 118 59
-7.0900002 13.739 -0.92400002 148 125 111
-7.0739999 13.701 -0.87800002 127 85 60
-7.079 13.725 -0.91799998 207 128 97
-7.1040001 13.703 -0.88300002 211 122 56
-7.105 13.705 -0.88300002 198 95 29
-7.1090002 13.706 -0.89399999 232 141 71
-7.0700002 13.731 -0.80599999 146 95 64
-7.072 13.73 -0.80699998 128 76 39
-7.0609999 13.74 -0.81699997 87 58 50
-7.105 13.76 -0.63999999 240 240 202
-7.099 13.755 -0.639 194 131 80
-7.1040001 13.753 -0.63200003 197 135 94
-7.0700002 13.733 -0.71200001 127 83 54
-7.0630002 13.739 -0.72000003 188 97 42
-7.0890002 13.72 -0.80599999 224 119 54
-7.0869999 13.719 -0.80500001 147 95 58
-7.092 13.724 -0.80299997 143 126 118
-7.0900002 13.744 -0.78100002 77 36 16
-7.1009998 13.738 -0.76599997 144 95 54
-7.0910001 13.732 -0.77600002 182 124 86
-7.1609998 13.697 -0.85699999 108 40 0
-7.152 13.708 -0.85399997 152 69 27
-7.1009998 13.734 -0.852 162 61 7
-7.099 13.737 -0.85100001 224 166 116
-7.0970001 13.718 -0.83399999 179 117 76
-7.0970001 13.717 -0.84500003 190 128 79
-7.0970001 13.724 -0.83999997 247 151 91
-7.105 13.721 -0.86299998 236 132 69
-7.099 13.72 -0.86199999 202 125 97
-7.1069999 13.717 -0.86400002 128 114 105
-7.1030002 13.724 -0.85600001 146 100 67
-7.1129999 13.714 -0.89399999 145 110 82
-7.119 13.718 -0.88999999 211 127 67
-7.1170001 13.711 -0.87599999 199 117 57
-7.0960002 13.703 -0.81800002 83 31 0
-7.1009998 13.723 -0.829 121 67 23
-7.0949998 13.727 -0.829 173 73 14
-7.0900002 13.73 -0.83099997 75 58 48
-7.0650001 13.74 -0.81699997 163 74 14
-7.086 13.738 -0.80500001 137 94 62
-7.0869999 13.734 -0.80699998 212 108 35
-7.098 13.712 -0.81800002 221 130 75
-7.118 13.771 -0.63700002 167 110 65
-7.1110001 13.702 -0.89700001 185 131 84
-7.1259999 13.696 -0.88099998 139 91 45
-7.0739999 13.706 -0.88599998 100 73 54
-7.1030002 13.64 -0.94099998 114 94 83
-7.1090002 13.642 -0.95200002 187 132 112
-7.0999999 13.649 -0.94 214 158 111
-7.1079998 13.634 -0.93400002 101 79 66
-7.0999999 13.647 -0.935 173 123 98
-7.125 13.661 -0.94099998 85 63 49
-7.1230001 13.678 -0.926 171 126 95
-7.1170001 13.695 -0.91799998 69 41 37
-7.1110001 13.685 -0.92199999 139 85 41
-7.125 13.672 -0.92799997 132 70 33
-7.1230001 13.691 -0.92799997 120 74 38
-7.1220002 13.684 -0.94499999 130 113 103
-7.112 13.683 -0.92900002 115 66 34
-7.158 13.689 -0.84299999 156 73 19
-7.1020002 13.737 -0.759 157 105 65
-7.0630002 13.74 -0.63599998 119 66 22
-7.1160002 13.755 -0.61900002 169 110 50
-7.092 13.762 -0.64300001 178 125 71
-7.1129999 13.762 -0.69400001 161 120 88
-7.1079998 13.765 -0.69700003 84 63 36
-7.1129999 13.771 -0.69300002 209 108 40
-7.1170001 13.769 -0.64399999 185 133 85
-7.1090002 13.75 -0.70499998 166 110 63
-7.1090002 13.756 -0.70599997 137 98 69
-7.0960002 13.751 -0.75999999 127 86 64
-7.086 13.747 -0.78200001 160 99 52
-7.105 13.753 -0.84299999 128 29 0
-7.1269999 13.696 -0.92799997 182 97 56
-7.152 13.75 -0.99800003 84 27 7
-7.1469998 13.747 -0.99699998 168 94 59
-7.1529999 13.729 -0.99599999 180 115 97
-7.0700002 13.699 -0.90899998 230 161 106
-7.0739999 13.749 -0.95300001 107 49 12
-7.0770001 13.754 -0.954 125 81 54
-7.072 13.754 -0.95200002 73 45 34
-7.0700002 13.74 -0.94400001 146 112 85
-7.0999999 13.648 -0.935 119 101 99
-7.1069999 13.686 -0.92500001 151 97 71
-7.1040001 13.688 -0.92299998 129 112 104
-7.0749998 13.703 -0.91600001 124 88 56
-7.0830002 13.715 -0.93000001 136 99 70
-7.072 13.721 -0.92900002 118 86 65
-7.0780001 13.723 -0.93599999 217 141 109
-7.085 13.731 -0.93800002 166 105 60
-7.0869999 13.732 -0.92900002 148 111 85
-7.0910001 13.742 -0.92000002 125 95 87
-7.0700002 13.743 -0.93699998 212 132 97
-7.0749998 13.731 -0.93199998 107 62 33
-7.0760002 13.721 -0.92299998 140 118 107
-7.0749998 13.704 -0.90899998 121 102 95
-7.0809999 13.733 -0.80500001 91 61 53
-7.0689998 13.743 -0.80699998 155 70 15
-7.1059999 13.704 -0.88 158 118 92
-7.105 13.703 -0.87199998 152 63 3
-7.0710001 13.728 -0.72399998 130 73 30
-7.0640001 13.744 -0.80500001 66 36 25
-7.0710001 13.728 -0.78799999 193 93 18
-7.0650001 13.739 -0.81300002 178 85 18
-7.0929999 13.759 -0.62099999 197 138 94
-7.0879998 13.719 -0.92699999 212 123 63
-7.092 13.727 -0.94300002 99 61 40
-7.0939999 13.727 -0.801 163 119 84
-7.0999999 13.729 -0.80199999 128 82 48
-7.0939999 13.726 -0.81599998 149 105 70
-7.0840001 13.716 -0.80599999 133 80 40
-7.086 13.748 -0.77200001 151 103 67
-7.0879998 13.734 -0.76800001 177 124 82
-7.0879998 13.735 -0.764 206 130 72
-7.1539998 13.706 -0.85399997 92 76 77
-7.1100001 13.707 -0.86000001 110 78 57
-7.1059999 13.706 -0.86199999 201 97 34
-7.1069999 13.718 -0.84100002 217 119 58
-7.1110001 13.723 -0.85900003 153 84 29
-7.1220002 13.717 -0.88800001 92 64 50
-7.0960002 13.708 -0.86500001 197 139 89
-7.0960002 13.709 -0.861 129 78 31
-7.0619998 13.741 -0.82499999 64 34 23
-7.1009998 13.715 -0.83499998 204 151 107
-7.1030002 13.717 -0.84200001 130 101 93
-7.1040001 13.716 -0.85100001 161 67 3
-7.1290002 13.707 -0.86500001 127 70 27
-7.1430001 13.709 -0.86400002 227 157 98
-7.1329999 13.709 -0.86699998 176 75 5
-7.1370001 13.698 -0.861 137 86 41
-7.0970001 13.71 -0.81900001 162 112 75
-7.098 13.714 -0.81800002 152 51 0
-7.099 13.789 -0.639 110 77 42
-7.0939999 13.775 -0.63999999 247 243 205
-7.0960002 13.778 -0.625 96 86 94
-7.099 13.772 -0.61900002 165 114 71
-7.098 13.783 -0.63800001 148 91 48
-7.118 13.771 -0.61900002 151 84 39
-7.0819998 13.689 -0.88200003 199 127 69
-7.1079998 13.641 -0.93300003 185 101 37
-7.073 13.703 -0.89700001 129 103 90
-7.1339998 13.687 -0.85600001 156 83 32
-7.1259999 13.696 -0.917 108 22 0
-7.1149998 13.7 -0.90600002 237 142 88
-7.1209998 13.702 -0.89300001 138 110 89
-7.1339998 13.699 -0.88099998 149 129 118
-7.1139998 13.654 -0.94499999 100 70 59
-7.1090002 13.653 -0.949 110 69 41
-7.1149998 13.642 -0.94099998 96 48 12
-7.1069999 13.639 -0.93300003 255 206 187
-7.1129999 13.663 -0.92900002 121 99 86
-7.1279998 13.655 -0.92500001 164 93 41
-7.1230001 13.656 -0.94099998 151 97 50
-7.138 13.67 -0.94199997 74 54 45
-7.0910001 13.692 -1.038 126 73 42
-7.0970001 13.686 -1.026 231 134 63
-7.1059999 13.69 -1.022 224 140 80
-7.0960002 13.679 -1.035 169 74 18
-7.105 13.689 -1.0140001 108 33 4
-7.1529999 13.689 -0.85900003 97 80 72
-7.1040001 13.742 -0.74599999 138 89 49
-7.099 13.742 -0.74299997 188 112 50
-7.0999999 13.742 -0.74299997 169 130 99
-7.0700002 13.727 -0.73900002 155 110 79
-7.066 13.74 -0.73900002 155 61 0
-7.0689998 13.732 -0.75800002 139 86 46
-7.0949998 13.734 -0.755 168 127 95
-7.098 13.741 -0.74000001 155 87 40
-7.0780001 13.732 -0.764 236 139 62
-7.1079998 13.752 -0.62900001 183 85 10
-7.0910001 13.773 -0.62699997 161 75 14
-7.1139998 13.752 -0.71100003 117 72 33
-7.1079998 13.755 -0.73100001 136 99 70
-7.1259999 13.679 -0.949 195 103 40
-7.1500001 13.725 -0.99299997 73 33 7
-7.1469998 13.713 -1.008 162 115 85
-7.145 13.719 -0.977 125 84 56
-7.1420002 13.716 -1.006 106 37 0
-7.1259999 13.696 -0.94999999 224 131 72
-7.1490002 13.721 -0.97399998 142 67 28
-7.1469998 13.721 -1.0089999 142 78 34
-7.1339998 13.725 -1.0089999 119 47 0
-7.132 13.728 -1.008 72 33 4
-7.1259999 13.727 -1.008 73 2 0
-7.073 13.702 -0.91399997 163 70 3
-7.073 13.703 -0.90899998 156 132 120
-7.0949998 13.692 -1.025 169 142 131
-7.0949998 13.696 -1.021 232 156 96
-7.0929999 13.697 -1.0140001 170 81 23
-7.1100001 13.693 -1.012 171 95 43
-7.1100001 13.704 -1.011 209 141 120
-7.073 13.736 -0.93900001 140 79 32
-7.0869999 13.741 -0.91900003 172 115 72
-7.0900002 13.705 -0.91500002 141 46 0
-7.0749998 13.73 -0.801 199 98 26
-7.1149998 13.707 -0.87800002 182 114 67
-7.0819998 13.736 -0.72899997 140 103 76
-7.085 13.742 -0.71100003 180 87 26
-7.0780001 13.746 -0.70300001 177 132 101
-7.073 13.745 -0.704 144 107 78
-7.072 13.75 -0.68699998 160 87 42
-7.0700002 13.758 -0.69999999 231 145 94
-7.086 13.764 -0.639 71 41 33
-7.0890002 13.759 -0.63700002 221 128 59
-7.0780001 13.757 -0.69599998 136 84 45
-7.0739999 13.756 -0.69099998 243 178 124
-7.086 13.745 -0.78399998 140 94 58
-7.079 13.742 -0.78799999 158 104 66
-7.0830002 13.741 -0.787 138 94 57
-7.118 13.711 -0.91000003 104 77 70
-7.125 13.709 -0.91900003 165 139 114
-7.119 13.707 -0.917 131 70 23
-7.1269999 13.701 -0.91500002 195 110 46
-7.1199999 13.703 -0.91000003 193 173 164
-7.0900002 13.708 -0.917 201 125 99
-7.086 13.721 -0.93300003 101 66 47
-7.092 13.73 -0.792 135 90 57
-7.0960002 13.724 -0.81900001 166 73 16
-7.086 13.72 -0.81900001 193 142 99
-7.0799999 13.724 -0.80500001 139 84 53
-7.0749998 13.75 -0.74000001 79 50 32
-7.0689998 13.746 -0.73199999 137 93 64
-7.085 13.745 -0.76099998 132 98 73
-7.1030002 13.728 -0.838 170 118 78
-7.1409998 13.714 -0.866 161 94 51
-7.1409998 13.703 -0.87599999 216 143 88
-7.1020002 13.716 -0.85000002 191 135 86
-7.1230001 13.712 -0.89300001 142 84 47
-7.0910001 13.712 -0.81400001 171 73 10
-7.0929999 13.771 -0.62 111 81 73
-7.1069999 13.777 -0.62699997 125 69 20
-7.0960002 13.777 -0.63800001 181 133 95
-7.1129999 13.764 -0.639 160 102 52
-7.0830002 13.692 -0.88499999 143 112 91
-7.1440001 13.693 -0.866 121 74 32
-7.1300001 13.701 -0.86299998 153 66 12
-7.1290002 13.698 -0.86199999 196 128 105
-7.1300001 13.695 -0.921 117 97 88
-7.119 13.701 -0.921 162 142 131
-7.1170001 13.702 -0.898 120 69 26
-7.1199999 13.704 -0.89899999 81 52 46
-7.1199999 13.707 -0.898 163 141 128
-7.1090002 13.641 -0.949 207 127 66
-7.1160002 13.637 -0.93400002 154 81 46
-7.1199999 13.676 -0.926 186 98 34
-7.1069999 13.666 -0.93300003 162 104 67
-7.1170001 13.643 -0.93800002 125 85 59
-7.1209998 13.674 -0.93599999 120 55 15
-7.1259999 13.653 -0.93000001 104 83 78
-7.085 13.694 -1.05 165 120 79
-7.1009998 13.692 -1.029 202 135 116
-7.1100001 13.698 -1.02 110 59 28
-7.0710001 13.728 -0.759 110 49 18
-7.0770001 13.728 -0.74599999 117 76 44
-7.0869999 13.736 -0.759 151 99 59
-7.1009998 13.751 -0.73500001 207 126 71
-7.0700002 13.741 -0.70899999 116 80 66
-7.0760002 13.749 -0.71100003 201 106 50
-7.145 13.687 -1.005 152 62 12
-7.152 13.688 -1 130 108 95
-7.1490002 13.688 -1.006 148 72 36
-7.1360002 13.683 -0.99000001 114 72 50
-7.151 13.692 -1.006 150 96 60
-7.1469998 13.718 -0.97600001 124 45 14
-7.1370001 13.698 -0.98500001 160 103 50
-7.0929999 13.731 -0.94099998 111 98 90
-7.1430001 13.718 -1.007 142 84 34
-7.105 13.653 -0.93400002 100 75 70
-7.1129999 13.653 -0.93199998 128 105 91
-7.072 13.702 -0.91000003 177 123 79
-7.1009998 13.7 -1.011 121 54 11
-7.0929999 13.687 -1.0369999 128 82 49
-7.0929999 13.736 -0.85100001 100 82 60
-7.1149998 13.707 -0.88099998 157 104 54
-7.1240001 13.709 -0.87400001 133 37 0
-7.0679998 13.734 -0.72000003 89 61 40
-7.0689998 13.747 -0.73100001 111 83 72
-7.0739999 13.757 -0.69 125 92 77
-7.1079998 13.757 -0.71100003 188 99 39
-7.0780001 13.757 -0.699 178 104 55
-7.079 13.75 -0.70899999 162 108 72
-7.0739999 13.749 -0.704 178 112 60
-7.0869999 13.749 -0.71200001 109 64 33
-7.092 13.757 -0.62900001 241 139 64
-7.0890002 13.736 -0.79699999 186 85 13
-7.085 13.729 -0.80699998 196 111 57
-7.0669999 13.752 -0.80699998 150 99 68
-7.0869999 13.734 -0.77399999 161 76 12
-7.0700002 13.743 -0.78799999 215 152 119
-7.125 13.717 -0.89600003 135 70 30
-7.138 13.702 -0.87900001 183 112 66
-7.119 13.705 -0.90100002 178 112 62
-7.1139998 13.699 -0.917 212 120 73
-7.0890002 13.727 -0.796 168 112 75
-7.085 13.729 -0.78600001 173 91 33
-7.0890002 13.736 -0.78600001 191 94 25
-7.0900002 13.726 -0.815 189 88 18
-7.0970001 13.714 -0.81699997 141 95 61
-7.0760002 13.735 -0.75300002 224 142 86
-7.0780001 13.738 -0.75800002 157 137 130
-7.0910001 13.762 -0.70899999 164 82 34
-7.085 13.744 -0.77600002 118 77 47
-7.1100001 13.709 -0.86799997 134 93 65
-7.1300001 13.701 -0.866 109 58 11
-7.1079998 13.727 -0.85100001 180 110 61
-7.0710001 13.701 -0.89600003 236 165 109
-7.1329999 13.7 -0.87800002 161 102 62
-7.1300001 13.7 -0.87400001 165 74 17
-7.1220002 13.695 -0.926 133 84 54
-7.1040001 13.647 -0.94400001 104 53 24
-7.1139998 13.667 -0.93599999 140 52 2
-7.1230001 13.651 -0.92799997 68 49 35
-7.0960002 13.695 -1.027 114 58 25
-7.1059999 13.69 -1.025 179 91 41
-7.1459999 13.694 -0.86799997 152 133 129
-7.0749998 13.725 -0.741 148 109 78
-7.0760002 13.731 -0.77600002 217 117 41
-7.0710001 13.73 -0.75300002 180 142 106
-7.0879998 13.736 -0.759 246 191 150
-7.099 13.753 -0.73000002 148 69 13
-7.1350002 13.681 -0.97399998 128 86 64
-7.1440001 13.683 -0.97299999 166 84 37
-7.1339998 13.688 -0.96399999 146 90 39
-7.1370001 13.688 -0.98799998 77 47 37
-7.1290002 13.695 -0.97799999 61 33 29
-7.1030002 13.689 -1.0140001 177 85 22
-7.086 13.725 -0.93800002 97 67 59
-7.0929999 13.705 -1.02 125 83 43
-7.1230001 13.682 -0.95300001 99 81 79
-7.0939999 13.69 -1.0369999 140 112 98
-7.0689998 13.738 -0.72500002 133 74 40
-7.0760002 13.747 -0.727 159 67 0
-7.073 13.733 -0.70899999 143 99 70
-7.053 13.737 -0.68300003 147 94 54
-7.079 13.736 -0.79699999 188 134 98
-7.0669999 13.741 -0.801 175 80 12
-7.072 13.731 -0.79400003 164 110 72
-7.1300001 13.709 -0.88 148 97 70
-7.1090002 13.703 -0.89899999 213 143 117
-7.1199999 13.701 -0.90600002 184 157 136
-7.118 13.705 -0.91500002 112 46 11
-7.0760002 13.726 -0.792 177 134 102
-7.072 13.728 -0.78799999 164 116 78
-7.0819998 13.751 -0.71499997 153 61 0
-7.0879998 13.754 -0.71200001 89 37 0
-7.1069999 13.72 -0.84899998 125 111 102
-7.1139998 13.769 -0.64099997 89 48 18
-7.1139998 13.776 -0.639 90 60 22
-7.1290002 13.699 -0.88099998 206 145 116
-7.105 13.643 -0.94400001 106 52 18
-7.072 13.727 -0.74199998 183 119 71
-7.0770001 13.729 -0.78299999 129 83 49
-7.079 13.732 -0.77899998 140 97 65
-7.0799999 13.734 -0.75199997 205 111 39
-7.0929999 13.758 -0.71499997 84 67 59
-7.0939999 13.75 -0.73500001 121 45 9
-7.085 13.745 -0.74199998 193 141 102
-7.1479998 13.687 -0.995 107 33 6
-7.1350002 13.691 -0.96100003 152 94 54
-7.1370001 13.688 -0.96799999 161 129 118
-7.1420002 13.698 -0.96799999 171 144 127
-7.151 13.69 -0.98000002 155 99 66
-7.0960002 13.701 -1.015 54 27 16
-7.1240001 13.688 -0.95300001 122 40 0
-7.1269999 13.695 -0.95499998 208 143 125
-7.0999999 13.686 -1.0319999 212 122 59
-7.0960002 13.688 -1.039 97 40 10
-7.0669999 13.742 -0.67799997 183 94 38
-7.0809999 13.746 -0.74699998 65 33 8
-7.079 13.742 -0.76899999 195 143 104
-7.0780001 13.738 -0.773 117 98 91
-7.0809999 13.735 -0.75400001 139 100 69
-7.086 13.746 -0.73400003 193 116 64
-7.0770001 13.752 -0.71899998 157 89 42
-7.1339998 13.688 -0.96100003 177 86 33
-7.151 13.69 -0.99299997 154 99 68
-7.145 13.685 -0.98400003 141 64 34
-7.1339998 13.688 -0.98299998 87 15 0
-7.1440001 13.698 -0.97500002 107 63 34
-7.1360002 13.697 -0.97600001 116 101 98
-7.1350002 13.697 -0.97500002 129 71 31
-7.131 13.692 -0.96700001 133 49 3
-7.1009998 13.704 -1.0190001 193 113 60
-7.1290002 13.69 -0.963 133 119 110
-7.0799999 13.744 -0.745 97 48 8
-7.0830002 13.734 -0.74699998 186 110 61
-7.152 13.695 -0.98100001 177 124 92
-7.1399999 13.7 -0.96799999 201 135 87
-7.0869999 13.739 -0.74000001 161 70 0
0 0 0 1 0 0 0 1 0 0 0 1 0 0 0 0 0 528 1 0 0
