ply
format ascii 1.0
comment PCL generated
element vertex 99
property float x
property float y
property float z
property uchar red
property uchar green
property uchar blue
element camera 1
property float view_px
property float view_py
property float view_pz
property float x_axisx
property float x_axisy
property float x_axisz
property float y_axisx
property float y_axisy
property float y_axisz
property float z_axisx
property float z_axisy
property float z_axisz
property float focal
property float scalex
property float scaley
property float centerx
property float centery
property int viewportx
property int viewporty
property float k1
property float k2
end_header
-5.2750001 10.785 -0.71499997 243 193 160
-5.29 10.787 -0.713 218 170 134
-5.2930002 10.784 -0.70700002 158 102 53
-5.283 10.791 -0.708 214 146 85
-5.2709999 10.796 -0.70700002 140 90 41
-5.2750001 10.824 -0.69499999 178 103 45
-5.283 10.821 -0.69 187 116 60
-5.2750001 10.804 -0.69700003 249 198 135
-5.2820001 10.806 -0.69300002 145 101 66
-5.2779999 10.787 -0.71600002 124 87 60
-5.2719998 10.79 -0.713 200 147 103
-5.2839999 10.804 -0.72500002 144 101 67
-5.3109999 10.829 -0.71100003 86 34 10
-5.316 10.828 -0.71399999 236 124 60
-5.309 10.83 -0.708 111 67 28
-5.303 10.824 -0.72299999 143 75 30
-5.3210001 10.823 -0.69999999 167 73 19
-5.3239999 10.816 -0.69300002 140 63 9
-5.3260002 10.82 -0.70700002 169 93 35
-5.323 10.813 -0.70200002 167 124 89
-5.3119998 10.806 -0.71100003 145 86 30
-5.2919998 10.798 -0.69400001 131 77 30
-5.303 10.794 -0.69300002 169 115 79
-5.2989998 10.791 -0.69999999 101 56 23
-5.2709999 10.81 -0.70499998 93 50 16
-5.277 10.824 -0.727 255 212 179
-5.2940001 10.816 -0.73000002 132 81 52
-5.2789998 10.817 -0.72399998 115 87 63
-5.296 10.82 -0.72799999 175 114 69
-5.2839999 10.821 -0.71899998 61 4 0
-5.27 10.829 -0.713 185 131 93
-5.2690001 10.828 -0.72399998 82 52 26
-5.2659998 10.826 -0.71700001 85 54 26
-5.3140001 10.798 -0.70899999 100 55 22
-5.309 10.8 -0.71499997 101 57 22
-5.2950001 10.814 -0.71100003 111 56 26
-5.2859998 10.829 -0.70499998 125 63 24
-5.2849998 10.821 -0.713 143 97 63
-5.283 10.828 -0.69800001 152 89 38
-5.283 10.824 -0.69400001 168 115 75
-5.277 10.825 -0.70300001 179 100 57
-5.3119998 10.795 -0.69599998 120 67 25
-5.3130002 10.811 -0.69 143 78 20
-5.3049998 10.822 -0.68800002 120 85 47
-5.3070002 10.817 -0.68900001 143 97 63
-5.3169999 10.817 -0.708 104 56 18
-5.289 10.802 -0.69400001 194 138 103
-5.2729998 10.814 -0.70200002 178 125 57
-5.2810001 10.798 -0.71799999 235 179 128
-5.289 10.802 -0.72100002 165 116 84
-5.2750001 10.793 -0.713 136 93 59
-5.2969999 10.789 -0.708 208 142 81
-5.2930002 10.796 -0.71600002 133 87 54
-5.2940001 10.797 -0.71700001 243 198 167
-5.303 10.817 -0.72000003 105 61 24
-5.3070002 10.817 -0.71399999 103 43 9
-5.2979999 10.82 -0.72399998 158 104 60
-5.2729998 10.824 -0.722 176 140 82
-5.2719998 10.827 -0.70899999 121 70 25
-5.3060002 10.802 -0.69199997 109 66 21
-5.3140001 10.808 -0.69199997 123 94 78
-5.3179998 10.826 -0.70899999 104 45 3
-5.2930002 10.794 -0.70300001 166 120 94
-5.2950001 10.803 -0.69099998 211 139 80
-5.2919998 10.814 -0.69199997 147 82 2
-5.3010001 10.811 -0.69099998 159 121 102
-5.2870002 10.804 -0.69400001 199 134 76
-5.2940001 10.791 -0.71499997 171 75 14
-5.303 10.8 -0.71899998 160 100 48
-5.3119998 10.827 -0.70700002 136 90 56
-5.3010001 10.81 -0.722 128 87 57
-5.2880001 10.819 -0.69199997 87 48 15
-5.29 10.812 -0.69300002 158 105 61
-5.2979999 10.825 -0.69499999 152 105 63
-5.3000002 10.821 -0.69199997 198 143 113
-5.2810001 10.829 -0.71200001 89 53 31
-5.302 10.806 -0.69099998 209 136 59
-5.3109999 10.805 -0.69300002 121 66 25
-5.2820001 10.803 -0.699 141 102 63
-5.2839999 10.8 -0.70300001 182 126 93
-5.2820001 10.802 -0.70099998 144 88 39
-5.303 10.797 -0.71700001 129 75 39
-5.2940001 10.801 -0.71899998 147 85 26
-5.2909999 10.806 -0.72299999 181 81 29
-5.2729998 10.814 -0.70599997 168 130 93
-5.2729998 10.815 -0.71100003 98 31 2
-5.2870002 10.827 -0.69599998 184 97 28
-5.316 10.799 -0.70499998 122 62 26
-5.303 10.801 -0.69199997 213 138 83
-5.2950001 10.811 -0.69199997 213 139 74
-5.283 10.798 -0.70499998 205 166 127
-5.322 10.805 -0.70099998 155 82 29
-5.2750001 10.804 -0.71600002 244 192 134
-5.2969999 10.819 -0.69199997 232 163 98
-5.2779999 10.807 -0.72000003 73 17 0
-5.2859998 10.792 -0.713 97 50 20
-5.277 10.807 -0.71899998 162 97 41
-5.2729998 10.811 -0.71100003 255 211 144
-5.2750001 10.81 -0.71700001 64 7 0
0 0 0 1 0 0 0 1 0 0 0 1 0 0 0 0 0 99 1 0 0
