ply
format ascii 1.0
comment PCL generated
element vertex 299
property float x
property float y
property float z
property uchar red
property uchar green
property uchar blue
element camera 1
property float view_px
property float view_py
property float view_pz
property float x_axisx
property float x_axisy
property float x_axisz
property float y_axisx
property float y_axisy
property float y_axisz
property float z_axisx
property float z_axisy
property float z_axisz
property float focal
property float scalex
property float scaley
property float centerx
property float centery
property int viewportx
property int viewporty
property float k1
property float k2
end_header
0.97799999 14.211 -0.89099997 79 39 13
0.96799999 14.22 -0.903 163 102 48
0.96799999 14.218 -0.90399998 134 110 76
0.96799999 14.211 -0.90700001 116 91 69
0.97399998 14.214 -0.90200001 136 74 27
1.036 14.218 -0.77499998 147 112 84
1.039 14.236 -0.773 155 88 43
1.031 14.216 -0.77700001 140 77 46
1.044 14.222 -0.773 153 109 80
1.052 14.238 -0.76700002 199 172 153
1.052 14.213 -0.77499998 133 84 44
0.972 14.206 -0.90499997 125 84 56
0.977 14.217 -0.89399999 155 127 103
1.022 14.178 -0.94199997 198 146 89
1.029 14.189 -0.954 135 47 0
1.023 14.185 -0.958 113 58 1
1.0369999 14.176 -0.93699998 188 97 18
1.029 14.192 -0.94800001 175 76 11
1.021 14.192 -0.95099998 166 125 97
1.02 14.198 -0.94 132 91 61
1.008 14.189 -0.94300002 159 109 50
1.057 14.238 -0.792 66 38 14
1.043 14.243 -0.77700001 128 83 44
1.049 14.241 -0.80199999 114 79 57
1.0599999 14.242 -0.77700001 165 129 105
1.011 14.198 -0.815 134 87 61
1.015 14.203 -0.80000001 79 33 7
1.025 14.189 -0.80199999 125 77 31
1.013 14.197 -0.81400001 77 51 36
1.02 14.213 -0.787 154 106 83
1.024 14.217 -0.78600001 108 66 41
1.018 14.22 -0.78799999 123 86 59
0.97299999 14.218 -0.912 136 112 84
0.977 14.213 -0.90600002 130 53 0
0.986 14.217 -0.90899998 84 38 4
1.031 14.18 -0.93000001 139 84 53
1.015 14.177 -0.93699998 245 139 55
0.98199999 14.217 -0.89600003 116 57 13
1.005 14.216 -0.87 116 80 48
1.006 14.212 -0.85699999 180 86 22
1.011 14.223 -0.86500001 118 78 52
0.98400003 14.221 -0.90799999 158 81 29
0.991 14.221 -0.90799999 149 69 16
0.96899998 14.221 -0.90799999 166 87 28
1.015 14.2 -0.92699999 152 115 88
1.016 14.21 -0.92400002 151 82 41
1.013 14.234 -0.87900001 156 70 13
1.016 14.227 -0.87900001 135 92 58
1.018 14.221 -0.82300001 85 45 19
1.02 14.224 -0.81300002 126 45 0
1.024 14.225 -0.81699997 145 76 34
1.035 14.231 -0.815 81 52 44
1.039 14.229 -0.77499998 101 52 12
1.049 14.24 -0.778 64 27 0
1.058 14.233 -0.77200001 69 23 0
1.0650001 14.235 -0.78200001 96 32 0
1.063 14.225 -0.78399998 137 84 50
1.059 14.239 -0.78100002 131 79 81
1.0420001 14.214 -0.89899999 166 79 34
1.052 14.21 -0.90100002 152 134 122
1.033 14.203 -0.90799999 145 89 56
1.0650001 14.208 -0.88999999 190 130 76
1.048 14.197 -0.89399999 133 78 47
1.0549999 14.216 -0.89700001 185 120 78
1.069 14.228 -0.88 120 42 3
1.072 14.223 -0.88499999 100 51 0
1.048 14.215 -0.89499998 147 106 76
1.058 14.22 -0.88499999 250 193 112
1.051 14.215 -0.88999999 107 77 43
1.0470001 14.216 -0.77700001 130 80 55
1.0420001 14.212 -0.79100001 141 90 63
1.054 14.21 -0.78100002 209 172 145
1.044 14.208 -0.796 139 94 55
1.0319999 14.205 -0.79000002 111 77 50
1.005 14.209 -0.81999999 179 99 46
1.002 14.214 -0.83700001 121 102 85
1.002 14.2 -0.829 131 67 29
1.041 14.239 -0.78600001 125 91 64
1.031 14.194 -0.852 169 109 72
1.023 14.196 -0.84899998 168 107 50
1.033 14.192 -0.85799998 207 123 50
1.031 14.195 -0.84100002 135 76 42
1.011 14.216 -0.824 158 88 37
1.007 14.21 -0.81699997 58 39 32
1.01 14.21 -0.81199998 102 42 5
1.008 14.206 -0.85399997 121 62 28
1.008 14.209 -0.852 155 83 24
1.045 14.149 -0.93199998 223 134 52
1.045 14.15 -0.93599999 72 43 25
1.044 14.146 -0.92900002 162 87 20
1.043 14.151 -0.93400002 180 103 59
1.025 14.202 -0.92900002 173 92 37
1.028 14.199 -0.93000001 255 201 118
1.029 14.19 -0.93199998 248 149 68
1.027 14.198 -0.92199999 133 77 42
1.007 14.181 -0.91100001 187 138 80
1.005 14.18 -0.92699999 192 103 37
1.0089999 14.178 -0.93000001 140 89 58
1.006 14.209 -0.86000001 199 109 46
1.007 14.205 -0.86799997 154 93 36
1.008 14.211 -0.85000002 196 137 81
1.029 14.197 -0.85799998 233 134 51
1.022 14.186 -0.954 117 23 0
0.97399998 14.224 -0.90899998 124 50 3
0.97399998 14.225 -0.90799999 50 27 21
0.98400003 14.22 -0.89999998 114 36 0
1.017 14.188 -0.94800001 160 102 54
1.02 14.194 -0.94400001 225 150 92
1.01 14.194 -0.92699999 150 111 78
1.022 14.213 -0.92299998 126 73 41
1.022 14.22 -0.92199999 132 53 12
0.986 14.219 -0.89999998 63 25 2
1.018 14.222 -0.89200002 115 40 0
1.03 14.234 -0.87900001 150 91 47
1.048 14.193 -0.866 208 131 61
1.051 14.19 -0.87199998 237 172 80
1.049 14.202 -0.87 139 101 65
1.069 14.223 -0.87800002 129 61 14
1.044 14.205 -0.85299999 233 152 73
1.0470001 14.2 -0.866 166 121 88
1.048 14.233 -0.773 113 69 34
1.054 14.225 -0.773 112 48 4
1.0650001 14.23 -0.78799999 108 50 12
1.0599999 14.215 -0.77899998 135 72 29
1.051 14.195 -0.88 235 167 82
1.051 14.203 -0.88599998 176 98 50
1.051 14.204 -0.89200002 184 131 77
1.029 14.196 -0.80599999 134 56 7
1.034 14.205 -0.80400002 156 96 44
1.034 14.2 -0.82099998 173 110 56
1.036 14.207 -0.801 135 93 71
1.005 14.209 -0.829 177 92 37
1.006 14.208 -0.81300002 55 21 11
1.0369999 14.231 -0.78200001 155 79 30
1.035 14.224 -0.79000002 142 73 31
1.051 14.236 -0.78399998 82 55 48
1.051 14.225 -0.787 146 89 36
1.0420001 14.194 -0.852 167 115 75
1.036 14.194 -0.85500002 166 141 121
1.0420001 14.204 -0.84200001 132 82 49
1.031 14.197 -0.82999998 201 146 115
1.049 14.195 -0.87300003 249 174 109
1.049 14.195 -0.87599999 179 94 40
1.021 14.198 -0.85100001 173 72 0
1.031 14.182 -0.935 253 195 113
1.022 14.193 -0.91299999 161 94 49
1.011 14.202 -0.84899998 129 76 24
0.99800003 14.191 -0.90799999 128 87 59
1.017 14.216 -0.88200003 117 78 47
0.977 14.222 -0.90100002 119 38 0
1.006 14.184 -0.93699998 170 78 13
1.046 14.214 -0.88999999 158 85 30
1.031 14.212 -0.89700001 147 97 48
1.0190001 14.214 -0.898 133 44 2
1.029 14.204 -0.90499997 180 86 22
1.041 14.23 -0.87900001 219 165 118
1.023 14.232 -0.87900001 113 51 10
1.0650001 14.212 -0.88800001 186 169 151
1.043 14.206 -0.852 208 130 45
1.038 14.211 -0.847 244 156 82
1.039 14.209 -0.84899998 124 78 44
1.034 14.229 -0.796 125 80 39
1.033 14.222 -0.80000001 128 67 36
1.043 14.235 -0.79299998 112 86 73
1.051 14.238 -0.77200001 94 45 15
1.051 14.228 -0.773 84 46 27
1.04 14.211 -0.86400002 159 110 77
1.039 14.208 -0.85799998 155 114 82
1.0319999 14.219 -0.847 114 63 32
1.008 14.218 -0.86699998 186 96 33
1.059 14.21 -0.88300002 155 88 36
1.052 14.238 -0.79799998 128 66 29
1.057 14.232 -0.796 177 114 71
1.021 14.196 -0.82999998 150 81 40
1.028 14.201 -0.82300001 196 120 68
1.022 14.201 -0.79500002 86 64 43
1.024 14.198 -0.796 140 84 37
1.031 14.206 -0.79699999 169 123 100
1.026 14.197 -0.80199999 116 71 29
1.026 14.196 -0.84899998 147 91 44
1.027 14.198 -0.86500001 141 89 32
1.008 14.19 -0.89499998 131 80 23
1.015 14.182 -0.90799999 210 106 35
1.022 14.189 -0.88700002 186 93 34
0.97899997 14.213 -0.90399998 132 106 71
1.012 14.199 -0.92000002 136 59 5
1.021 14.201 -0.85900003 168 67 0
1.0140001 14.206 -0.85600001 166 89 35
0.97500002 14.22 -0.89600003 117 57 7
1.029 14.18 -0.93800002 233 133 57
1.015 14.18 -0.93099999 223 115 25
1.018 14.182 -0.92900002 160 99 45
1.021 14.213 -0.921 204 100 29
1.016 14.209 -0.90499997 120 42 0
1.0089999 14.189 -0.93800002 121 81 46
1.007 14.185 -0.92699999 193 144 86
1.05 14.206 -0.898 153 89 51
1.043 14.202 -0.89600003 180 109 57
1.022 14.221 -0.88999999 147 71 19
1.035 14.229 -0.88099998 228 181 137
1.036 14.232 -0.875 116 72 37
1.023 14.224 -0.85799998 142 62 11
1.0319999 14.219 -0.87 118 69 37
1.052 14.218 -0.88200003 173 105 68
1.02 14.223 -0.889 151 72 13
1.058 14.215 -0.89099997 233 169 97
1.034 14.2 -0.83499998 130 113 105
1.043 14.218 -0.80400002 149 95 48
1.052 14.21 -0.87599999 139 109 85
1.0599999 14.234 -0.79900002 130 76 76
1.007 14.201 -0.82999998 203 117 58
1.007 14.21 -0.83600003 109 92 85
1.036 14.215 -0.824 193 121 63
1.04 14.218 -0.815 92 66 51
1.026 14.21 -0.78600001 108 51 21
1.041 14.238 -0.778 172 135 116
1.043 14.199 -0.85900003 241 164 72
1.043 14.203 -0.861 206 121 57
1.013 14.22 -0.86000001 143 67 17
1.018 14.22 -0.84899998 184 83 27
1.0190001 14.217 -0.84200001 150 83 28
1.022 14.221 -0.83700001 167 94 49
1.008 14.21 -0.84799999 131 106 84
1.036 14.202 -0.89700001 208 119 51
1.027 14.196 -0.89999998 198 116 56
1.043 14.154 -0.92699999 146 91 60
1.008 14.208 -0.912 135 55 0
1.022 14.205 -0.86699998 103 32 0
1.017 14.184 -0.91299999 186 108 36
1.0089999 14.18 -0.926 197 115 33
1.0089999 14.182 -0.91900003 164 115 83
1.05 14.201 -0.87599999 180 135 104
1.045 14.197 -0.87300003 158 83 41
1.043 14.194 -0.86500001 254 181 86
1.031 14.198 -0.87599999 171 127 80
1.025 14.19 -0.88499999 162 106 49
1.018 14.233 -0.87800002 143 63 14
1.053 14.215 -0.89499998 163 128 100
1.0420001 14.227 -0.80599999 99 43 8
1.0470001 14.224 -0.79699999 155 101 57
1.033 14.223 -0.79500002 108 59 18
1.062 14.22 -0.87800002 148 78 19
1.054 14.204 -0.88 167 121 87
1.0190001 14.202 -0.84399998 163 117 81
1.008 14.206 -0.81999999 133 78 47
1.043 14.225 -0.81 108 42 0
1.024 14.215 -0.80500001 109 58 27
1.017 14.222 -0.86000001 130 68 29
1.026 14.221 -0.82599998 174 150 138
1.041 14.2 -0.89399999 158 78 25
1.016 14.209 -0.90100002 116 39 0
1.0420001 14.194 -0.86400002 232 180 133
1.011 14.207 -0.88099998 128 67 22
1.021 14.186 -0.903 140 90 57
1.0039999 14.189 -0.91299999 175 91 31
1.007 14.191 -0.91799998 225 124 46
1.03 14.214 -0.86000001 144 70 25
1.015 14.181 -0.91600001 210 102 27
1.015 14.206 -0.87800002 120 71 38
1.029 14.198 -0.829 196 113 45
1.052 14.228 -0.79699999 148 103 62
1.031 14.227 -0.81599998 117 77 41
1.054 14.203 -0.88 154 101 69
1.027 14.196 -0.83700001 201 112 56
1.03 14.223 -0.81099999 105 44 13
1.016 14.205 -0.80400002 157 97 43
1.024 14.202 -0.81400001 130 72 22
1.035 14.214 -0.83600003 158 114 85
1.0319999 14.199 -0.889 111 82 50
1.022 14.188 -0.89399999 204 107 39
1.002 14.204 -0.90799999 102 53 10
1.02 14.193 -0.88599998 136 77 43
1.035 14.224 -0.87599999 138 54 0
1.051 14.23 -0.79900002 118 88 64
1.05 14.226 -0.79500002 177 106 52
1.0319999 14.228 -0.81699997 74 48 23
1.039 14.219 -0.81599998 90 52 33
1.039 14.227 -0.82200003 126 87 58
1.035 14.218 -0.83899999 230 144 69
1.027 14.196 -0.89399999 167 88 31
1.018 14.187 -0.89899999 214 133 68
1.0190001 14.19 -0.89300001 228 146 86
1.022 14.188 -0.90200001 234 133 65
1.003 14.188 -0.903 178 113 55
1.015 14.21 -0.88499999 143 60 8
1.011 14.197 -0.92000002 195 107 36
1.02 14.195 -0.88599998 186 107 50
1.013 14.202 -0.889 100 73 43
1.021 14.202 -0.87900001 110 65 34
1.051 14.235 -0.80000001 69 42 35
1.0140001 14.208 -0.88999999 154 63 6
1.024 14.19 -0.889 121 72 40
1.008 14.197 -0.898 74 23 0
1.011 14.198 -0.89300001 136 49 0
1.017 14.191 -0.89300001 162 99 45
1.02 14.205 -0.87599999 130 72 34
1.013 14.205 -0.89300001 111 72 41
1.012 14.192 -0.89300001 152 73 16
1.012 14.202 -0.89399999 130 61 22
0 0 0 1 0 0 0 1 0 0 0 1 0 0 0 0 0 299 1 0 0
