ply
format ascii 1.0
comment PCL generated
element vertex 62
property float x
property float y
property float z
property uchar red
property uchar green
property uchar blue
element camera 1
property float view_px
property float view_py
property float view_pz
property float x_axisx
property float x_axisy
property float x_axisz
property float y_axisx
property float y_axisy
property float y_axisz
property float z_axisx
property float z_axisy
property float z_axisz
property float focal
property float scalex
property float scaley
property float centerx
property float centery
property int viewportx
property int viewporty
property float k1
property float k2
end_header
2.483 15.586 -0.77700001 105 31 2
2.464 15.578 -0.77399999 117 32 0
2.4820001 15.59 -0.764 127 44 0
2.4460001 15.561 -0.81199998 141 59 9
2.447 15.563 -0.829 144 64 13
2.4460001 15.558 -0.83099997 199 111 61
2.4649999 15.578 -0.82099998 202 138 100
2.4679999 15.581 -0.82200003 144 54 1
2.473 15.575 -0.82099998 229 167 130
2.4860001 15.589 -0.77600002 146 76 24
2.45 15.567 -0.76300001 108 31 0
2.45 15.565 -0.77200001 141 55 4
2.46 15.577 -0.77399999 142 60 10
2.448 15.569 -0.77200001 107 61 35
2.457 15.583 -0.77600002 144 58 1
2.4879999 15.586 -0.76700002 87 18 0
2.4890001 15.586 -0.778 135 77 39
2.448 15.565 -0.81999999 149 96 65
2.447 15.561 -0.80800003 166 72 18
2.447 15.561 -0.81999999 144 52 3
2.4319999 15.554 -0.78399998 185 91 29
2.431 15.553 -0.778 152 90 43
2.4170001 15.549 -0.77200001 229 140 80
2.4330001 15.546 -0.77899998 194 109 54
2.4200001 15.546 -0.77200001 160 109 43
2.4820001 15.587 -0.78500003 94 50 21
2.5280001 15.563 -0.745 121 38 0
2.529 15.543 -0.745 203 130 85
2.5339999 15.542 -0.74000001 109 80 62
2.4230001 15.547 -0.75999999 133 55 6
2.4230001 15.547 -0.76899999 215 134 81
2.4349999 15.547 -0.76700002 104 49 18
2.484 15.576 -0.75599998 100 36 8
2.5339999 15.555 -0.73699999 123 49 4
2.53 15.547 -0.74299997 134 107 90
2.523 15.561 -0.73799998 201 130 76
2.5250001 15.557 -0.72799999 138 63 23
2.4519999 15.565 -0.81400001 140 78 21
2.4319999 15.545 -0.75999999 130 53 1
2.4289999 15.548 -0.76099998 194 106 43
2.427 15.544 -0.77200001 235 145 82
2.427 15.549 -0.764 135 83 36
2.5220001 15.558 -0.74599999 189 116 61
2.4879999 15.585 -0.75999999 167 113 79
2.4549999 15.566 -0.81400001 95 35 0
2.5190001 15.555 -0.74199998 171 77 26
2.4319999 15.544 -0.76899999 164 79 24
2.5209999 15.568 -0.741 78 24 0
2.5179999 15.567 -0.736 133 76 31
2.4790001 15.579 -0.75300002 118 76 52
2.4809999 15.579 -0.755 144 73 21
2.5320001 15.55 -0.73900002 118 91 72
2.5309999 15.547 -0.74000001 106 52 16
2.448 15.56 -0.82700002 249 178 134
2.448 15.561 -0.81800002 112 46 11
2.526 15.547 -0.74299997 158 109 77
2.4779999 15.575 -0.75300002 111 31 0
2.52 15.56 -0.73900002 135 98 72
2.5190001 15.55 -0.73000002 132 73 31
2.5190001 15.554 -0.72899997 162 91 37
2.5190001 15.555 -0.73000002 167 73 19
2.483 15.575 -0.74699998 108 49 17
0 0 0 1 0 0 0 1 0 0 0 1 0 0 0 0 0 62 1 0 0
