ply
format ascii 1.0
comment PCL generated
element vertex 250
property float x
property float y
property float z
property uchar red
property uchar green
property uchar blue
element camera 1
property float view_px
property float view_py
property float view_pz
property float x_axisx
property float x_axisy
property float x_axisz
property float y_axisx
property float y_axisy
property float y_axisz
property float z_axisx
property float z_axisy
property float z_axisz
property float focal
property float scalex
property float scaley
property float centerx
property float centery
property int viewportx
property int viewporty
property float k1
property float k2
end_header
-7.1919999 13.301 -1.063 115 100 95
-7.1960001 13.298 -1.0599999 94 76 66
-7.191 13.303 -1.056 188 161 140
-7.099 13.149 -0.963 133 94 65
-7.0999999 13.145 -0.95700002 177 123 85
-7.0999999 13.144 -0.958 90 58 43
-7.1149998 13.147 -1.031 154 108 82
-7.1100001 13.155 -1.0470001 43 19 9
-7.1139998 13.148 -1.031 128 48 0
-7.1389999 13.195 -0.99000001 168 89 46
-7.1389999 13.195 -0.98799998 150 70 19
-7.132 13.2 -0.986 109 84 77
-7.105 13.145 -0.958 166 121 92
-7.1030002 13.152 -0.95700002 111 37 0
-7.1129999 13.153 -0.95899999 137 110 99
-7.1129999 13.156 -1.031 37 28 19
-7.1149998 13.148 -1.033 53 33 24
-7.2189999 13.228 -0.97899997 136 85 54
-7.217 13.235 -0.97299999 134 59 1
-7.223 13.234 -0.97799999 119 96 88
-7.1459999 13.237 -0.97299999 154 77 23
-7.1550002 13.238 -0.97600001 141 114 105
-7.1500001 13.255 -0.98299998 133 116 109
-7.1329999 13.189 -0.99599999 121 87 62
-7.1009998 13.154 -0.958 82 63 57
-7.1079998 13.163 -0.97100002 158 91 46
-7.1129999 13.158 -0.96399999 121 85 61
-7.0799999 13.211 -0.95099998 142 93 63
-7.085 13.194 -0.96700001 107 72 53
-7.0770001 13.21 -0.95300001 89 53 27
-7.1360002 13.244 -1.025 126 104 83
-7.1339998 13.235 -1.027 159 75 15
-7.1370001 13.243 -1.03 80 43 24
-7.0879998 13.207 -1.012 156 126 102
-7.092 13.21 -1.0089999 188 102 43
-7.0939999 13.215 -1.026 129 97 72
-7.0819998 13.216 -0.95200002 91 74 67
-7.0780001 13.216 -0.95999998 186 115 69
-7.1240001 13.239 -1.0420001 108 77 56
-7.1409998 13.268 -1.061 86 49 30
-7.1469998 13.27 -1.056 105 28 0
-7.1399999 13.267 -1.0599999 62 20 0
-7.1409998 13.267 -1.067 105 40 0
-7.1719999 13.287 -1.024 115 97 87
-7.1750002 13.292 -1.027 44 23 18
-7.1750002 13.283 -1.027 134 50 6
-7.1110001 13.241 -1.102 100 64 38
-7.105 13.241 -1.102 136 94 69
-7.1110001 13.248 -1.101 79 35 6
-7.0809999 13.218 -1.024 141 60 15
-7.0799999 13.223 -1.031 80 62 62
-7.0780001 13.216 -1.02 153 70 16
-7.152 13.248 -0.98699999 63 27 13
-7.132 13.24 -0.99000001 110 91 77
-7.1360002 13.236 -0.99000001 143 50 0
-7.1300001 13.228 -1.0420001 46 27 21
-7.158 13.25 -1.034 177 99 61
-7.1570001 13.253 -1.031 46 18 7
-7.1620002 13.249 -1.025 81 24 0
-7.1170001 13.16 -0.972 120 85 63
-7.1269999 13.19 -0.99400002 73 5 0
-7.1259999 13.181 -1.0140001 90 80 71
-7.1079998 13.153 -0.95899999 58 22 10
-7.1090002 13.158 -0.97799999 135 95 69
-7.1079998 13.163 -0.98400003 134 67 24
-7.1090002 13.158 -0.97899997 146 75 31
-7.1279998 13.181 -1.02 106 86 75
-7.1160002 13.172 -1.016 154 127 118
-7.1269999 13.176 -1.024 156 72 28
-7.0780001 13.214 -1.0089999 134 89 66
-7.0830002 13.205 -1.013 172 84 36
-7.0830002 13.2 -0.96499997 108 63 34
-7.0799999 13.219 -0.96499997 124 53 7
-7.1160002 13.208 -1.069 112 43 14
-7.1279998 13.191 -1.059 81 66 63
-7.1259999 13.212 -1.051 35 16 2
-7.1209998 13.235 -1.04 98 61 42
-7.125 13.233 -1.04 109 26 0
-7.1220002 13.223 -1.04 100 64 42
-7.138 13.249 -1.026 39 17 4
-7.105 13.23 -1.094 98 67 49
-7.1240001 13.178 -1.051 38 28 19
-7.1220002 13.158 -1.0470001 40 22 10
-7.1149998 13.164 -1.054 100 34 0
-7.099 13.229 -1.0700001 95 60 41
-7.1009998 13.229 -1.082 128 98 72
-7.1040001 13.237 -1.072 43 21 10
-7.112 13.172 -1.049 104 81 67
-7.1929998 13.232 -0.99599999 131 108 94
-7.1989999 13.234 -0.99299997 74 56 54
-7.1960001 13.233 -0.99900001 41 22 5
-7.1810002 13.235 -1.008 170 97 44
-7.1960001 13.228 -0.995 111 93 89
-7.1469998 13.24 -0.97899997 99 32 6
-7.1339998 13.241 -0.97100002 101 55 29
-7.1110001 13.153 -0.96899998 133 108 101
-7.118 13.164 -1.008 80 38 13
-7.1110001 13.168 -0.99900001 107 86 81
-7.119 13.17 -1.0089999 198 128 79
-7.1170001 13.155 -1.045 147 81 33
-7.1170001 13.155 -1.033 147 79 32
-7.118 13.157 -1.049 73 54 48
-7.1160002 13.172 -1.049 113 91 78
-7.1290002 13.226 -1.039 83 61 50
-7.131 13.179 -1.012 47 29 15
-7.125 13.174 -1.0190001 122 59 8
-7.0879998 13.217 -0.99699998 38 18 7
-7.0819998 13.22 -1.003 75 36 5
-7.0819998 13.225 -0.99199998 86 70 73
-7.099 13.228 -0.98199999 145 98 70
-7.0999999 13.223 -0.98400003 135 62 19
-7.1020002 13.228 -0.97899997 130 97 66
-7.085 13.212 -1.017 39 20 5
-7.0809999 13.223 -0.95899999 100 84 84
-7.085 13.232 -0.97399998 102 88 87
-7.0949998 13.219 -0.95899999 130 116 116
-7.1040001 13.222 -0.95700002 129 57 9
-7.0999999 13.218 -0.96700001 105 64 36
-7.0970001 13.227 -0.96200001 161 75 18
-7.0869999 13.2 -0.972 121 107 107
-7.086 13.223 -0.98299998 138 69 27
-7.1279998 13.217 -1.062 174 96 48
-7.1220002 13.23 -1.05 119 43 11
-7.1139998 13.224 -1.089 79 45 20
-7.1339998 13.234 -1.089 98 24 0
-7.1269999 13.22 -1.085 45 25 18
-7.1339998 13.226 -1.0829999 107 35 11
-7.1079998 13.231 -1.0700001 117 49 12
-7.145 13.242 -1.097 39 17 6
-7.1430001 13.243 -1.104 114 82 59
-7.1500001 13.243 -1.107 97 32 0
-7.138 13.244 -1.103 88 65 57
-7.1170001 13.23 -1.053 142 96 62
-7.1129999 13.224 -1.061 44 26 14
-7.131 13.222 -1.071 29 11 0
-7.1290002 13.219 -1.0829999 71 42 26
-7.0970001 13.226 -1.099 129 99 88
-7.0939999 13.225 -1.096 169 101 52
-7.0999999 13.224 -1.094 153 125 104
-7.1290002 13.219 -1.0700001 73 54 39
-7.1230001 13.217 -1.072 112 74 55
-7.1149998 13.225 -1.052 109 74 52
-7.0929999 13.222 -1.044 146 105 83
-7.105 13.213 -1.0549999 118 87 69
-7.1149998 13.229 -1.049 112 67 36
-7.0949998 13.229 -1.058 157 119 98
-7.0890002 13.236 -1.058 102 65 39
-7.112 13.235 -1.049 111 33 0
-7.0890002 13.226 -1.057 107 38 5
-7.105 13.217 -1.0599999 161 83 35
-7.1059999 13.214 -1.058 135 62 30
-7.105 13.19 -1.046 172 91 35
-7.098 13.189 -1.051 82 62 53
-7.1160002 13.193 -1.046 99 26 0
-7.1129999 13.202 -1.056 78 46 25
-7.119 13.187 -1.059 101 82 75
-7.177 13.231 -1.006 161 78 24
-7.145 13.249 -0.98500001 100 79 74
-7.1389999 13.237 -0.97799999 176 80 19
-7.1129999 13.158 -0.97299999 135 64 18
-7.1230001 13.172 -0.98400003 71 26 3
-7.1209998 13.159 -1.006 79 34 11
-7.1240001 13.209 -1.048 90 49 17
-7.0879998 13.223 -0.98699999 95 57 36
-7.092 13.224 -0.986 153 68 11
-7.0900002 13.213 -1.024 152 67 26
-7.0840001 13.221 -0.972 159 92 50
-7.0949998 13.218 -0.972 162 94 49
-7.1059999 13.218 -1.072 138 63 23
-7.0999999 13.228 -1.072 108 44 0
-7.098 13.203 -1.075 123 86 67
-7.119 13.22 -1.072 41 18 10
-7.1149998 13.234 -1.053 93 65 51
-7.1069999 13.226 -1.0880001 110 65 36
-7.138 13.237 -1.091 77 45 24
-7.1500001 13.237 -1.103 49 29 20
-7.1059999 13.224 -1.091 61 10 0
-7.1259999 13.173 -1.043 101 65 39
-7.1240001 13.171 -1.043 100 72 60
-7.1220002 13.17 -1.035 125 106 100
-7.119 13.189 -1.062 139 117 104
-7.1129999 13.187 -1.051 111 91 84
-7.1799998 13.228 -1.003 126 88 67
-7.132 13.241 -0.977 100 27 0
-7.1350002 13.242 -0.986 90 46 21
-7.1139998 13.163 -0.98199999 143 121 108
-7.1199999 13.171 -0.98699999 94 20 0
-7.1279998 13.181 -0.995 139 116 108
-7.1240001 13.178 -1.011 114 69 40
-7.1220002 13.159 -1.029 27 9 0
-7.132 13.182 -0.99400002 38 21 3
-7.1230001 13.172 -0.99599999 155 110 81
-7.1040001 13.24 -0.96700001 150 114 92
-7.1069999 13.24 -0.96700001 80 44 18
-7.092 13.235 -0.97799999 111 70 48
-7.0970001 13.226 -1.084 109 45 1
-7.1170001 13.206 -1.075 87 52 33
-7.1139998 13.205 -1.074 113 84 66
-7.1149998 13.231 -1.048 100 81 74
-7.1069999 13.241 -0.97500002 106 69 42
-7.098 13.234 -0.97600001 104 67 38
-7.1370001 13.237 -1.09 42 26 11
-7.1240001 13.17 -1.046 103 66 37
-7.1230001 13.216 -1.052 84 55 39
-7.112 13.22 -1.076 123 85 62
-7.1020002 13.199 -1.067 106 86 79
-7.1009998 13.19 -1.054 106 74 59
-7.105 13.225 -0.972 143 111 98
-7.1170001 13.166 -0.991 144 70 31
-7.118 13.162 -0.98100001 65 31 21
-7.1160002 13.17 -0.99400002 86 64 53
-7.1220002 13.173 -0.99800003 83 11 0
-7.1240001 13.171 -1.0089999 116 77 48
-7.1199999 13.164 -1.0039999 51 21 11
-7.1209998 13.165 -1.02 168 117 86
-7.1209998 13.229 -1.0420001 66 33 14
-7.0819998 13.225 -1.002 121 111 110
-7.0949998 13.217 -1.0039999 139 56 6
-7.092 13.218 -1.027 103 57 24
-7.0939999 13.228 -1.04 159 127 104
-7.1059999 13.219 -1.0829999 162 130 115
-7.1030002 13.203 -1.069 129 97 82
-7.1090002 13.196 -1.063 151 123 109
-7.1090002 13.195 -1.061 108 75 56
-7.119 13.168 -0.98699999 143 71 31
-7.1199999 13.168 -0.99400002 95 55 29
-7.125 13.174 -1.011 84 53 33
-7.1209998 13.172 -1.008 109 41 4
-7.0840001 13.23 -0.98799998 114 103 101
-7.092 13.218 -1.0089999 112 66 42
-7.086 13.223 -1.036 111 35 1
-7.0799999 13.224 -1.021 122 78 53
-7.086 13.233 -1.029 77 21 0
-7.0960002 13.236 -1.04 74 52 38
-7.0910001 13.229 -1.022 94 48 25
-7.0890002 13.229 -1.0140001 137 102 70
-7.1079998 13.214 -1.084 119 99 90
-7.1030002 13.201 -1.068 106 84 71
-7.1149998 13.168 -0.99699998 141 72 31
-7.0949998 13.219 -1.0039999 113 77 63
-7.0910001 13.223 -0.99900001 132 92 66
-7.0879998 13.226 -1.0039999 172 92 41
-7.0929999 13.226 -1.021 93 69 45
-7.0929999 13.223 -1.025 127 85 63
-7.0949998 13.228 -0.98699999 122 100 87
-7.0939999 13.224 -1.031 102 60 36
-7.092 13.23 -1.044 59 16 0
-7.0840001 13.23 -1.017 109 97 97
-7.0840001 13.221 -1.028 159 127 102
-7.0910001 13.228 -1.033 92 47 24
0 0 0 1 0 0 0 1 0 0 0 1 0 0 0 0 0 250 1 0 0
