ply
format ascii 1.0
comment PCL generated
element vertex 138
property float x
property float y
property float z
property uchar red
property uchar green
property uchar blue
element camera 1
property float view_px
property float view_py
property float view_pz
property float x_axisx
property float x_axisy
property float x_axisz
property float y_axisx
property float y_axisy
property float y_axisz
property float z_axisx
property float z_axisy
property float z_axisz
property float focal
property float scalex
property float scaley
property float centerx
property float centery
property int viewportx
property int viewporty
property float k1
property float k2
end_header
-4.3299999 14.87 -1.066 116 66 41
-4.3369999 14.874 -1.0700001 190 151 120
-4.323 14.872 -1.0700001 187 144 112
-4.3379998 14.875 -1.0650001 209 134 76
-4.3330002 14.873 -1.066 206 108 33
-4.322 14.871 -1.066 234 126 38
-4.3270001 14.874 -1.063 240 157 81
-4.2979999 14.869 -0.97899997 188 98 22
-4.303 14.877 -0.97100002 190 100 22
-4.3049998 14.873 -0.977 164 65 0
-4.2930002 14.878 -0.97000003 225 134 64
-4.3130002 14.883 -0.96700001 189 92 24
-4.3130002 14.9 -0.97600001 189 142 114
-4.3119998 14.883 -0.96100003 167 113 75
-4.3299999 14.886 -0.98000002 196 101 35
-4.3140001 14.875 -1.035 150 94 61
-4.316 14.877 -1.031 196 147 106
-4.3109999 14.874 -1.0319999 174 128 92
-4.3039999 14.861 -1.043 198 153 124
-4.3280001 14.88 -1.058 176 69 0
-4.316 14.878 -1.043 136 76 16
-4.3140001 14.875 -1.051 216 160 125
-4.296 14.883 -1.028 156 73 3
-4.2989998 14.887 -1.045 180 116 72
-4.2940001 14.881 -1.0369999 235 149 74
-4.3099999 14.863 -1.05 219 143 81
-4.302 14.876 -1.0549999 198 97 15
-4.3039999 14.877 -1.0650001 201 100 20
-4.3010001 14.874 -1.046 224 128 44
-4.3070002 14.882 -0.96200001 224 139 59
-4.336 14.875 -1.068 198 96 14
-4.3039999 14.87 -1.022 91 66 59
-4.3249998 14.88 -1.018 173 97 45
-4.3169999 14.881 -1.02 109 107 112
-4.2950001 14.874 -1.0039999 244 251 255
-4.296 14.874 -1.0039999 146 91 34
-4.329 14.887 -1.044 62 35 8
-4.2989998 14.88 -1.061 245 255 255
-4.3000002 14.883 -1.05 238 163 105
-4.302 14.886 -1.054 245 145 69
-4.296 14.879 -1.0420001 245 154 81
-4.3080001 14.882 -1.063 53 25 1
-4.3130002 14.881 -1.0700001 142 96 63
-4.2979999 14.879 -1.0470001 204 155 115
-4.3000002 14.886 -1.0420001 56 29 0
-4.303 14.887 -1.022 178 99 32
-4.3070002 14.883 -1.033 177 123 87
-4.316 14.899 -1.0369999 151 91 54
-4.296 14.88 -1.031 154 71 1
-4.309 14.866 -1.0470001 224 173 130
-4.3109999 14.88 -1.0650001 231 121 34
-4.3150001 14.877 -1.066 176 120 85
-4.3270001 14.874 -1.063 240 157 81
-4.2989998 14.889 -0.972 100 74 61
-4.2969999 14.884 -0.96100003 145 91 55
-4.2969999 14.881 -0.96600002 233 142 71
-4.2940001 14.88 -0.97399998 151 93 56
-4.2930002 14.873 -0.98199999 91 86 92
-4.3239999 14.885 -1.052 195 119 61
-4.336 14.884 -1.062 171 106 48
-4.329 14.883 -1.061 218 147 101
-4.302 14.895 -1.0140001 95 65 57
-4.3039999 14.896 -1.018 139 77 36
-4.3189998 14.881 -1.016 217 172 130
-4.2989998 14.879 -1.006 147 102 61
-4.3150001 14.885 -1.011 230 145 78
-4.3099999 14.886 -1.001 205 117 46
-4.2969999 14.877 -1.031 175 125 88
-4.302 14.876 -1.027 208 118 42
-4.2839999 14.882 -0.99800003 202 121 56
-4.2820001 14.886 -1.002 195 140 101
-4.2989998 14.881 -0.96499997 201 165 131
-4.3119998 14.883 -1.018 178 115 72
-4.3070002 14.882 -1.0190001 219 131 59
-4.3130002 14.887 -1.0319999 144 99 70
-4.2870002 14.886 -0.99000001 188 105 39
-4.3299999 14.883 -0.98299998 214 130 42
-4.329 14.886 -0.986 112 88 60
-4.3239999 14.883 -0.98100001 170 119 88
-4.2940001 14.874 -1.001 91 89 94
-4.329 14.885 -1.056 201 95 9
-4.3210001 14.883 -0.991 152 97 67
-4.303 14.877 -0.99000001 218 126 53
-4.2969999 14.873 -0.98500001 115 76 47
-4.2969999 14.875 -0.99800003 109 78 49
-4.2930002 14.876 -0.99800003 189 102 35
-4.296 14.875 -0.995 159 105 69
-4.3140001 14.891 -1.048 207 152 111
-4.3319998 14.894 -1.048 133 76 31
-4.3239999 14.89 -1.049 192 111 45
-4.3010001 14.889 -1.008 175 97 48
-4.2909999 14.884 -0.99699998 148 92 45
-4.2979999 14.888 -0.99199998 104 77 68
-4.303 14.871 -1.031 202 114 42
-4.3010001 14.874 -1.036 255 163 83
-4.3189998 14.873 -1.0650001 255 145 58
-4.3080001 14.88 -1.021 154 101 67
-4.3140001 14.895 -1.0420001 149 103 79
-4.289 14.888 -0.98799998 151 67 0
-4.289 14.88 -0.98500001 59 34 12
-4.3309999 14.888 -0.99900001 170 117 67
-4.336 14.894 -1.003 198 110 46
-4.3270001 14.887 -1.046 148 105 73
-4.3049998 14.889 -0.991 155 96 62
-4.2940001 14.873 -0.98500001 89 93 102
-4.316 14.889 -1.05 215 136 70
-4.3260002 14.89 -1.0190001 131 92 63
-4.3260002 14.89 -1.006 124 90 63
-4.3179998 14.899 -0.98100001 233 156 102
-4.3260002 14.896 -0.99900001 184 144 119
-4.3140001 14.896 -0.98699999 181 131 104
-4.3260002 14.891 -1.045 123 73 46
-4.2979999 14.882 -1.01 177 94 28
-4.3049998 14.894 -1.0190001 192 141 88
-4.316 14.892 -0.99900001 193 144 114
-4.3249998 14.885 -1.054 150 110 85
-4.329 14.886 -0.991 214 121 54
-4.3119998 14.895 -0.98000002 136 105 87
-4.2989998 14.888 -0.98100001 213 122 52
-4.316 14.879 -1.038 126 121 125
-4.3260002 14.888 -1.038 133 89 62
-4.323 14.893 -1.022 101 73 61
-4.3260002 14.895 -1.033 119 74 45
-4.3319998 14.892 -0.99699998 201 146 92
-4.3330002 14.895 -1.0420001 130 81 49
-4.3239999 14.877 -1.0650001 158 75 9
-4.3039999 14.889 -0.97799999 240 146 74
-4.3210001 14.886 -1.011 197 106 33
-4.323 14.89 -1.002 131 86 47
-4.3249998 14.892 -1.021 227 135 60
-4.3260002 14.889 -0.99199998 113 83 59
-4.3309999 14.891 -1.031 137 80 35
-4.3239999 14.887 -1.024 223 160 117
-4.316 14.893 -1.008 183 102 46
-4.335 14.893 -1.036 105 37 0
-4.3189998 14.883 -1.029 233 137 60
-4.316 14.894 -1.021 196 151 110
-4.3239999 14.891 -1.0140001 85 56 48
0 0 0 1 0 0 0 1 0 0 0 1 0 0 0 0 0 138 1 0 0
