ply
format ascii 1.0
comment PCL generated
element vertex 74
property float x
property float y
property float z
property uchar red
property uchar green
property uchar blue
element camera 1
property float view_px
property float view_py
property float view_pz
property float x_axisx
property float x_axisy
property float x_axisz
property float y_axisx
property float y_axisy
property float y_axisz
property float z_axisx
property float z_axisy
property float z_axisz
property float focal
property float scalex
property float scaley
property float centerx
property float centery
property int viewportx
property int viewporty
property float k1
property float k2
end_header
-16.051001 7.6040001 -0.61299998 93 66 59
-16.035999 7.618 -0.616 86 31 10
-16.052 7.619 -0.62 121 88 55
-16.054001 7.6269999 -0.61299998 207 130 60
-16.052999 7.6230001 -0.61900002 92 46 20
-16.062 7.6100001 -0.59399998 119 76 33
-16.056999 7.6100001 -0.583 54 17 0
-16.065001 7.599 -0.59600002 165 107 70
-16.058001 7.6209998 -0.58499998 182 140 100
-16.059 7.625 -0.61500001 227 156 102
-16.056 7.6199999 -0.61900002 54 31 25
-16.055 7.5910001 -0.59799999 173 114 80
-16.055 7.5949998 -0.59200001 78 37 7
-16.042 7.598 -0.58700001 52 28 18
-16.056 7.6279998 -0.58899999 214 146 83
-16.055 7.631 -0.58499998 131 86 45
-16.049999 7.6079998 -0.61299998 130 74 37
-16.030001 7.5960002 -0.60799998 88 62 49
-16.040001 7.6079998 -0.59100002 131 87 58
-16.024 7.6030002 -0.60600001 119 75 50
-16.017 7.6069999 -0.611 124 55 13
-16.01 7.6009998 -0.61400002 133 79 32
-16 7.6069999 -0.611 223 186 142
-16.018 7.6209998 -0.60100001 120 102 88
-16.025999 7.6199999 -0.60100001 83 57 42
-15.996 7.6020002 -0.58200002 144 83 38
-15.995 7.6020002 -0.58399999 50 23 14
-16 7.5999999 -0.58099997 173 96 50
-16.003 7.598 -0.59899998 73 45 21
-16.004999 7.5999999 -0.59399998 66 41 21
-15.996 7.599 -0.61000001 104 48 11
-16.058001 7.6100001 -0.60500002 124 74 23
-16.065001 7.592 -0.60100001 255 222 151
-16.054001 7.5970001 -0.60699999 107 41 0
-16.047001 7.605 -0.583 166 94 46
-16.049999 7.6220002 -0.583 55 19 5
-16.059999 7.6059999 -0.59200001 149 77 29
-16.052999 7.6259999 -0.60100001 88 30 8
-16.044001 7.625 -0.59200001 94 50 23
-16.052999 7.6269999 -0.58399999 83 21 0
-16.007 7.6009998 -0.60500002 91 57 32
-15.999 7.5999999 -0.597 142 87 46
-15.994 7.6020002 -0.60600001 66 39 28
-16.058001 7.6170001 -0.61199999 100 60 25
-16.061001 7.5960002 -0.60000002 138 78 41
-16.047001 7.6149998 -0.58499998 171 104 52
-16.046 7.6230001 -0.61400002 100 48 9
-16.044001 7.6220002 -0.61299998 89 59 35
-16.044001 7.605 -0.59899998 175 117 77
-16.023001 7.599 -0.60699999 80 58 45
-16.006001 7.6020002 -0.59600002 148 73 31
-16.014999 7.6100001 -0.60500002 84 53 32
-16.014 7.6110001 -0.60600001 127 86 56
-16.01 7.605 -0.58399999 156 102 64
-15.996 7.6020002 -0.59500003 66 39 28
-15.999 7.6059999 -0.59100002 144 107 63
-16.039 7.6199999 -0.58700001 51 26 21
-16.025999 7.6259999 -0.59600002 235 158 106
-16.049999 7.6240001 -0.60699999 164 96 49
-16.035999 7.618 -0.61299998 115 86 78
-16.035 7.619 -0.60799998 53 28 21
-16.046 7.6040001 -0.59799999 194 125 83
-16.002001 7.605 -0.60399997 108 43 3
-16.009001 7.6020002 -0.61199999 111 66 24
-16.035999 7.6220002 -0.60799998 115 68 40
-16.042 7.6209998 -0.61000001 88 54 26
-16.037001 7.6199999 -0.597 74 49 42
-16.007999 7.6079998 -0.588 111 72 43
-16.035999 7.618 -0.59299999 91 63 52
-16.038 7.6199999 -0.58899999 82 62 51
-16.056999 7.6079998 -0.58499998 183 113 62
-16.045 7.6209998 -0.60399997 149 94 53
-16.006001 7.6129999 -0.58200002 197 165 118
-16.025 7.6170001 -0.597 118 58 22
0 0 0 1 0 0 0 1 0 0 0 1 0 0 0 0 0 74 1 0 0
