ply
format ascii 1.0
comment PCL generated
element vertex 499
property float x
property float y
property float z
property uchar red
property uchar green
property uchar blue
element camera 1
property float view_px
property float view_py
property float view_pz
property float x_axisx
property float x_axisy
property float x_axisz
property float y_axisx
property float y_axisy
property float y_axisz
property float z_axisx
property float z_axisy
property float z_axisz
property float focal
property float scalex
property float scaley
property float centerx
property float centery
property int viewportx
property int viewporty
property float k1
property float k2
end_header
5.5430002 -7.7659998 -0.95099998 98 59 30
5.5450001 -7.776 -0.94800001 212 157 118
5.539 -7.7779999 -0.94400001 85 35 0
5.5479999 -7.7779999 -0.963 63 24 7
5.5479999 -7.8429999 -0.82599998 73 32 12
5.546 -7.8400002 -0.838 126 87 54
5.5549998 -7.8460002 -0.838 162 102 39
5.5510001 -7.8429999 -0.83399999 53 18 0
5.5819998 -7.8439999 -0.85399997 238 188 135
5.5819998 -7.8439999 -0.86799997 95 51 22
5.572 -7.8439999 -0.85299999 38 6 0
5.632 -7.7919998 -0.85000002 177 104 59
5.625 -7.7859998 -0.85100001 86 45 0
5.6370001 -7.7909999 -0.85000002 123 49 4
5.592 -7.835 -0.84899998 255 202 138
5.586 -7.8369999 -0.85000002 128 78 43
5.5819998 -7.8429999 -0.85699999 131 86 55
5.5780001 -7.8400002 -0.898 149 105 60
5.5669999 -7.8369999 -0.89300001 62 30 15
5.5770001 -7.8390002 -0.90399998 75 28 0
5.5749998 -7.8390002 -0.89700001 34 16 6
5.598 -7.777 -0.82700002 107 74 31
5.6090002 -7.7870002 -0.83999997 202 118 56
5.598 -7.7880001 -0.829 95 72 41
5.5450001 -7.763 -0.94400001 89 43 10
5.5430002 -7.7750001 -0.93099999 59 38 37
5.566 -7.8140001 -0.90100002 78 36 12
5.5609999 -7.8270001 -0.898 127 82 53
5.5599999 -7.8130002 -0.89700001 146 90 63
5.5599999 -7.756 -0.92500001 34 14 5
5.5549998 -7.7690001 -0.94599998 84 73 55
5.5549998 -7.7659998 -0.95999998 51 25 12
5.5580001 -7.7839999 -0.97500002 43 21 10
5.5739999 -7.8309999 -0.903 109 71 48
5.586 -7.8340001 -0.85799998 111 52 0
5.5450001 -7.8330002 -0.83600003 223 161 100
5.5430002 -7.835 -0.82499999 183 108 27
5.5430002 -7.8299999 -0.82700002 103 64 25
5.6339998 -7.8439999 -0.81900001 234 166 95
5.6290002 -7.842 -0.81300002 68 29 14
5.6459999 -7.8460002 -0.815 250 196 108
5.6409998 -7.8439999 -0.815 184 131 77
5.619 -7.8429999 -0.82300001 119 84 56
5.5999999 -7.7750001 -0.83099997 205 123 63
5.5970001 -7.77 -0.82999998 87 55 32
5.5999999 -7.7709999 -0.83399999 143 57 6
5.6149998 -7.8260002 -0.81199998 73 6 0
5.6290002 -7.8210001 -0.815 179 134 79
5.6139998 -7.8099999 -0.81900001 95 70 30
5.6149998 -7.7839999 -0.85000002 87 47 11
5.6009998 -7.7969999 -0.847 118 80 57
5.605 -7.8070002 -0.85100001 57 34 16
5.6269999 -7.789 -0.852 189 107 57
5.6020002 -7.7909999 -0.85699999 120 64 27
5.6500001 -7.8070002 -0.85000002 68 41 22
5.6430001 -7.8140001 -0.84399998 164 100 52
5.6170001 -7.836 -0.81900001 163 114 71
5.6170001 -7.835 -0.81699997 122 87 67
5.605 -7.8340001 -0.82200003 161 107 69
5.5840001 -7.7509999 -0.921 34 12 1
5.5640001 -7.757 -0.91600001 138 80 34
5.559 -7.835 -0.86199999 65 44 41
5.5640001 -7.836 -0.85900003 94 56 37
5.5679998 -7.8280001 -0.89899999 122 73 40
5.5669999 -7.8000002 -0.90700001 73 45 31
5.5749998 -7.8060002 -0.91799998 132 105 76
5.5710001 -7.7940001 -0.93300003 71 30 12
5.5710001 -7.7940001 -0.92799997 58 23 1
5.573 -7.7930002 -0.86500001 100 65 46
5.5739999 -7.7909999 -0.87300003 69 46 38
5.5700002 -7.7989998 -0.86500001 162 105 50
5.5799999 -7.7709999 -0.87199998 71 47 43
5.573 -7.7750001 -0.85299999 173 137 113
5.598 -7.8140001 -0.81400001 129 56 11
5.6100001 -7.8119998 -0.81999999 146 107 76
5.5599999 -7.842 -0.84799999 167 127 92
5.5549998 -7.8460002 -0.82800001 234 153 72
5.5539999 -7.8449998 -0.83399999 158 92 18
5.5469999 -7.7779999 -0.94999999 74 45 27
5.5489998 -7.7789998 -0.926 62 37 30
5.5469999 -7.783 -0.93300003 53 3 0
5.546 -7.7800002 -0.93400002 50 26 16
5.5640001 -7.77 -0.93900001 75 21 0
5.5840001 -7.7620001 -0.96600002 34 6 0
5.579 -7.756 -0.94499999 71 44 27
5.5910001 -7.7529998 -0.95200002 54 35 29
5.6500001 -7.7989998 -0.86799997 250 191 115
5.652 -7.8000002 -0.87300003 94 46 6
5.658 -7.803 -0.86400002 61 30 9
5.6500001 -7.8070002 -0.86500001 63 16 0
5.6149998 -7.777 -0.91799998 52 25 6
5.6209998 -7.7870002 -0.92400002 37 14 6
5.6100001 -7.7709999 -0.93000001 46 19 0
5.6090002 -7.763 -0.89899999 175 113 54
5.605 -7.7639999 -0.90600002 130 68 27
5.5830002 -7.8299999 -0.90600002 100 63 36
5.585 -7.836 -0.90100002 72 29 10
5.5929999 -7.8299999 -0.83700001 105 83 62
5.5879998 -7.836 -0.82300001 197 141 66
5.5960002 -7.8340001 -0.80599999 208 121 50
5.6059999 -7.8140001 -0.86799997 91 44 16
5.6230001 -7.8130002 -0.87599999 110 60 35
5.619 -7.8140001 -0.88700002 89 62 41
5.6079998 -7.823 -0.86199999 71 40 19
5.5809999 -7.8099999 -0.85100001 114 66 30
5.566 -7.8140001 -0.86199999 122 89 54
5.632 -7.8109999 -0.86000001 182 109 64
5.6230001 -7.8070002 -0.87199998 107 61 28
5.6329999 -7.8109999 -0.87099999 135 65 29
5.5949998 -7.7670002 -0.83499998 158 72 23
5.6290002 -7.7709999 -0.87800002 81 35 0
5.6339998 -7.77 -0.87900001 171 102 35
5.6339998 -7.77 -0.87400001 79 52 31
5.6360002 -7.7719998 -0.884 202 141 78
5.6350002 -7.8369999 -0.80800003 61 19 5
5.6539998 -7.836 -0.81099999 236 147 67
5.6430001 -7.8319998 -0.80900002 99 47 0
5.6550002 -7.8239999 -0.81300002 168 85 15
5.6539998 -7.823 -0.81599998 113 33 0
5.658 -7.822 -0.81300002 243 165 82
5.652 -7.8249998 -0.81300002 124 83 17
5.6539998 -7.8249998 -0.80699998 112 77 37
5.6599998 -7.8239999 -0.81099999 248 169 76
5.6609998 -7.829 -0.80800003 245 161 71
5.6620002 -7.8330002 -0.80900002 238 153 62
5.612 -7.8080001 -0.82700002 160 92 53
5.6209998 -7.8130002 -0.82800001 119 75 26
5.6059999 -7.8049998 -0.82800001 113 61 24
5.6040001 -7.8010001 -0.83200002 130 87 52
5.6069999 -7.7859998 -0.84600002 146 97 56
5.6300001 -7.7859998 -0.85399997 172 101 55
5.651 -7.8179998 -0.85699999 204 150 106
5.6430001 -7.802 -0.87900001 68 39 21
5.6599998 -7.8239999 -0.81800002 146 67 1
5.6529999 -7.822 -0.81900001 113 35 0
5.6539998 -7.8109999 -0.85000002 165 89 29
5.6570001 -7.8099999 -0.85000002 52 22 0
5.6560001 -7.8080001 -0.85299999 238 157 92
5.6560001 -7.8049998 -0.85799998 172 129 112
5.5910001 -7.756 -0.84899998 251 193 129
5.5830002 -7.7659998 -0.83899999 139 114 92
5.592 -7.7540002 -0.847 239 184 143
5.5960002 -7.7519999 -0.85299999 152 94 46
5.5960002 -7.7540002 -0.88 112 68 31
5.5770001 -7.7620001 -0.889 111 77 52
5.5890002 -7.7550001 -0.89200002 63 30 11
5.5770001 -7.7670002 -0.87599999 95 69 54
5.5949998 -7.7550001 -0.89300001 110 42 0
5.6069999 -7.7540002 -0.87900001 71 44 23
5.5650001 -7.8319998 -0.87699997 48 24 12
5.5780001 -7.8379998 -0.87300003 119 69 32
5.5609999 -7.8270001 -0.87800002 90 45 24
5.5760002 -7.8379998 -0.89300001 199 158 106
5.5879998 -7.8369999 -0.89300001 83 57 30
5.5830002 -7.8400002 -0.89899999 91 60 29
5.572 -7.8340001 -0.87199998 69 36 17
5.579 -7.8060002 -0.93900001 143 107 81
5.5830002 -7.8140001 -0.94499999 104 58 22
5.5819998 -7.8130002 -0.94499999 80 43 27
5.5630002 -7.7979999 -0.90200001 152 94 57
5.5749998 -7.7909999 -0.89200002 100 45 15
5.5650001 -7.777 -0.89399999 149 108 76
5.5609999 -7.7880001 -0.90399998 92 73 69
5.572 -7.823 -0.903 71 26 0
5.5770001 -7.796 -0.84600002 81 50 32
5.5669999 -7.7810001 -0.83999997 37 26 32
5.5739999 -7.7909999 -0.838 66 11 0
5.5580001 -7.8080001 -0.86500001 120 97 66
5.5539999 -7.8150001 -0.85600001 250 202 130
5.5549998 -7.8169999 -0.88499999 153 103 66
5.5500002 -7.8130002 -0.86500001 118 78 16
5.5710001 -7.7919998 -0.82800001 114 92 51
5.5840001 -7.8330002 -0.81800002 241 183 110
5.5780001 -7.7709999 -0.85600001 108 52 15
5.5799999 -7.77 -0.88099998 104 50 24
5.5939999 -7.7979999 -0.82300001 128 76 29
5.5739999 -7.7859998 -0.81800002 157 110 82
5.579 -7.802 -0.81699997 139 114 73
5.5689998 -7.7789998 -0.82999998 230 163 111
5.5770001 -7.7810001 -0.81800002 123 72 17
5.5599999 -7.8429999 -0.84299999 64 31 16
5.5580001 -7.8400002 -0.82999998 255 195 107
5.5609999 -7.836 -0.83600003 100 62 43
5.5830002 -7.836 -0.87099999 115 94 77
5.5900002 -7.8270001 -0.86699998 91 46 25
5.5869999 -7.8309999 -0.86199999 149 93 42
5.5939999 -7.829 -0.89499998 104 48 23
5.598 -7.8169999 -0.90399998 76 30 6
5.559 -7.7950001 -0.96499997 180 141 102
5.5650001 -7.7930002 -0.97299999 58 23 4
5.5599999 -7.7880001 -0.97799999 162 131 113
5.5679998 -7.7989998 -0.98400003 63 34 20
5.5630002 -7.7880001 -0.97100002 55 31 21
5.559 -7.7930002 -0.95700002 54 23 3
5.552 -7.7989998 -0.94700003 94 66 45
5.5630002 -7.7969999 -0.96399999 87 63 53
5.585 -7.8130002 -0.95099998 120 65 34
5.5760002 -7.8169999 -0.95999998 99 65 38
5.5489998 -7.783 -0.94800001 132 79 37
5.5749998 -7.7690001 -0.88999999 98 52 26
5.5689998 -7.7719998 -0.89200002 149 103 70
5.566 -7.7789998 -0.838 99 70 40
5.5780001 -7.77 -0.83099997 171 109 50
5.5570002 -7.7690001 -0.91799998 41 21 14
5.5570002 -7.77 -0.91299999 62 31 13
5.579 -7.7839999 -0.97000003 47 30 22
5.5780001 -7.7680001 -0.977 24 6 2
5.5799999 -7.7680001 -0.97799999 151 92 62
5.586 -7.7620001 -0.95899999 36 17 2
5.5560002 -7.7779999 -0.963 123 88 58
5.5770001 -7.7589998 -0.93300003 54 23 5
5.5739999 -7.7540002 -0.92699999 131 79 39
5.5749998 -7.7659998 -0.93699998 110 58 19
5.6020002 -7.763 -0.94499999 71 41 17
5.6090002 -7.7690001 -0.94999999 45 26 20
5.599 -7.756 -0.95200002 20 1 0
5.5929999 -7.7579999 -0.93199998 72 40 25
5.5700002 -7.7969999 -0.98000002 178 145 128
5.573 -7.803 -0.98299998 147 117 106
5.6500001 -7.7989998 -0.86500001 252 184 111
5.6209998 -7.789 -0.91299999 127 105 94
5.6020002 -7.8270001 -0.83099997 141 91 56
5.6149998 -7.8239999 -0.83099997 117 54 13
5.6040001 -7.8239999 -0.85399997 110 84 85
5.6090002 -7.8239999 -0.83099997 193 135 89
5.598 -7.823 -0.80500001 169 95 32
5.6040001 -7.8119998 -0.84399998 48 26 5
5.6170001 -7.8179998 -0.82999998 132 98 71
5.598 -7.823 -0.84600002 66 48 48
5.5799999 -7.8319998 -0.847 114 54 26
5.585 -7.8330002 -0.847 250 197 127
5.6329999 -7.8119998 -0.85399997 210 139 93
5.618 -7.803 -0.86799997 61 13 3
5.625 -7.8039999 -0.86799997 113 93 69
5.6469998 -7.803 -0.87 99 38 0
5.6170001 -7.79 -0.92500001 62 43 39
5.6389999 -7.8410001 -0.82700002 147 86 42
5.5890002 -7.7729998 -0.83099997 103 68 46
5.5890002 -7.7779999 -0.829 159 97 38
5.5819998 -7.7779999 -0.82499999 50 39 45
5.5949998 -7.8210001 -0.79699999 173 89 27
5.5910001 -7.823 -0.79500002 167 131 97
5.5929999 -7.8150001 -0.79500002 189 101 27
5.5929999 -7.8150001 -0.79799998 179 96 20
5.592 -7.8179998 -0.79900002 187 106 40
5.6300001 -7.829 -0.80800003 177 141 107
5.599 -7.803 -0.82599998 115 57 19
5.6100001 -7.757 -0.852 53 18 0
5.6009998 -7.756 -0.852 107 55 0
5.6090002 -7.7839999 -0.85399997 51 28 12
5.6220002 -7.7849998 -0.85299999 127 49 0
5.6069999 -7.7930002 -0.866 198 155 112
5.6570001 -7.809 -0.85699999 47 16 0
5.6409998 -7.816 -0.85600001 226 179 133
5.6399999 -7.8140001 -0.85000002 183 115 70
5.6529999 -7.822 -0.82300001 103 25 0
5.651 -7.8210001 -0.82599998 119 42 0
5.6529999 -7.829 -0.81900001 175 125 64
5.6399999 -7.8109999 -0.84600002 159 88 32
5.6409998 -7.8000002 -0.85299999 87 47 0
5.6469998 -7.8010001 -0.85699999 150 107 88
5.6389999 -7.8239999 -0.82099998 107 78 38
5.6389999 -7.8260002 -0.82599998 102 38 0
5.6469998 -7.8249998 -0.81800002 116 45 13
5.6290002 -7.836 -0.82700002 155 87 42
5.6209998 -7.8270001 -0.82499999 192 113 57
5.6170001 -7.8260002 -0.829 138 71 28
5.6259999 -7.8379998 -0.824 196 135 90
5.5929999 -7.756 -0.88300002 108 81 62
5.6040001 -7.756 -0.875 87 42 13
5.5910001 -7.7639999 -0.85799998 131 80 33
5.6040001 -7.7579999 -0.889 190 137 85
5.6090002 -7.763 -0.89600003 198 139 81
5.5869999 -7.7529998 -0.93400002 165 106 74
5.5689998 -7.7610002 -0.89899999 37 14 0
5.5739999 -7.757 -0.91900003 60 12 0
5.5890002 -7.7610002 -0.903 49 29 28
5.5539999 -7.8210001 -0.889 137 99 76
5.553 -7.8319998 -0.83399999 147 90 11
5.5689998 -7.8340001 -0.88599998 44 24 13
5.5689998 -7.8080001 -0.884 195 133 84
5.5739999 -7.8150001 -0.90399998 26 6 0
5.5770001 -7.8280001 -0.90399998 138 98 72
5.5819998 -7.8099999 -0.91399997 54 32 19
5.5760002 -7.7919998 -0.85699999 83 29 3
5.5700002 -7.7839999 -0.83200002 120 62 25
5.566 -7.822 -0.84600002 125 69 0
5.5840001 -7.8200002 -0.815 199 130 71
5.5809999 -7.8109999 -0.83099997 136 74 25
5.5840001 -7.8099999 -0.82599998 129 92 63
5.5840001 -7.8150001 -0.81400001 171 101 50
5.5879998 -7.8249998 -0.79799998 137 61 3
5.5879998 -7.8280001 -0.80900002 74 26 6
5.585 -7.7649999 -0.85500002 180 135 102
5.5910001 -7.7930002 -0.81999999 168 104 42
5.5570002 -7.836 -0.82700002 177 132 109
5.6149998 -7.777 -0.90499997 62 35 16
5.5960002 -7.8249998 -0.89099997 90 35 0
5.599 -7.8049998 -0.89200002 71 23 0
5.5890002 -7.8200002 -0.90899998 73 42 22
5.5929999 -7.816 -0.91100001 148 98 63
5.5679998 -7.8130002 -0.954 79 32 6
5.5710001 -7.8130002 -0.96899998 73 38 10
5.5840001 -7.8060002 -0.94700003 113 71 47
5.6290002 -7.8150001 -0.87800002 188 146 122
5.5970001 -7.8140001 -0.91000003 130 83 57
5.5970001 -7.802 -0.926 64 38 23
5.5970001 -7.803 -0.91299999 58 31 14
5.5500002 -7.7950001 -0.95099998 53 34 20
5.5560002 -7.7909999 -0.949 67 43 33
5.5770001 -7.7909999 -0.884 86 30 3
5.5539999 -7.7810001 -0.91100001 86 39 13
5.5619998 -7.7870002 -0.92000002 84 56 44
5.5840001 -7.7589998 -0.94800001 33 17 4
5.5970001 -7.7610002 -0.96899998 140 93 49
5.5679998 -7.7849998 -0.96600002 142 113 95
5.5630002 -7.7820001 -0.96499997 62 23 6
5.6100001 -7.7709999 -0.963 29 10 6
5.6069999 -7.7680001 -0.96799999 58 28 4
5.6100001 -7.7719998 -0.97100002 36 16 7
5.612 -7.7800002 -0.94400001 91 46 15
5.6160002 -7.7810001 -0.94800001 34 14 3
5.586 -7.8260002 -0.81699997 187 118 49
5.5900002 -7.8249998 -0.82300001 155 99 64
5.5999999 -7.8280001 -0.80299997 54 10 0
5.605 -7.8189998 -0.84799999 63 17 0
5.5890002 -7.8280001 -0.82200003 172 111 46
5.5650001 -7.842 -0.85000002 170 107 56
5.5840001 -7.8270001 -0.838 67 26 8
5.6199999 -7.8099999 -0.889 83 34 1
5.6269999 -7.8039999 -0.88800001 106 77 61
5.6020002 -7.8010001 -0.90600002 45 18 0
5.6269999 -7.7930002 -0.88200003 78 29 0
5.625 -7.8010001 -0.88700002 59 34 12
5.638 -7.7839999 -0.88099998 94 63 45
5.6339998 -7.7820001 -0.88700002 151 85 37
5.6370001 -7.8379998 -0.829 123 60 17
5.6500001 -7.8449998 -0.81599998 186 107 50
5.5900002 -7.7670002 -0.833 162 79 29
5.5890002 -7.7670002 -0.83700001 209 134 92
5.6539998 -7.8309999 -0.81 107 57 0
5.6339998 -7.836 -0.80900002 146 92 32
5.6370001 -7.822 -0.81099999 100 29 0
5.6409998 -7.8379998 -0.81199998 254 191 111
5.619 -7.7740002 -0.85900003 83 38 0
5.6360002 -7.7919998 -0.85900003 192 116 54
5.6350002 -7.7919998 -0.86199999 157 87 27
5.638 -7.7859998 -0.87599999 76 49 30
5.6079998 -7.8060002 -0.861 72 27 8
5.6350002 -7.8119998 -0.85900003 67 42 35
5.6440001 -7.7989998 -0.85900003 131 50 0
5.638 -7.7969999 -0.85299999 128 42 0
5.618 -7.8130002 -0.82099998 67 25 3
5.618 -7.8200002 -0.829 146 78 31
5.592 -7.756 -0.88800001 101 69 44
5.5900002 -7.7550001 -0.93900001 112 53 13
5.579 -7.7550001 -0.93099999 77 46 28
5.5960002 -7.7639999 -0.90499997 85 49 27
5.5970001 -7.7649999 -0.90600002 53 34 30
5.6040001 -7.8099999 -0.875 108 82 55
5.6009998 -7.8249998 -0.85699999 69 28 0
5.566 -7.809 -0.89399999 44 24 13
5.5770001 -7.8150001 -0.90499997 81 54 43
5.5669999 -7.823 -0.84299999 141 88 8
5.5819998 -7.803 -0.83999997 141 81 44
5.5939999 -7.8299999 -0.80500001 113 72 42
5.5879998 -7.7639999 -0.88 82 43 2
5.5840001 -7.8210001 -0.80800003 83 38 15
5.625 -7.7740002 -0.87400001 115 50 10
5.6170001 -7.7719998 -0.88099998 110 74 48
5.6129999 -7.7779999 -0.87099999 166 117 58
5.612 -7.776 -0.91100001 42 18 8
5.6329999 -7.8130002 -0.87699997 123 97 74
5.6279998 -7.8140001 -0.87699997 82 18 0
5.552 -7.8140001 -0.85900003 219 171 105
5.553 -7.8189998 -0.86299998 153 103 70
5.5560002 -7.822 -0.866 142 102 77
5.5500002 -7.7839999 -0.95200002 95 43 4
5.5609999 -7.7940001 -0.94800001 53 26 9
5.5619998 -7.77 -0.93300003 57 33 23
5.566 -7.7740002 -0.898 175 144 123
5.5479999 -7.7680001 -0.94 42 24 20
5.5669999 -7.7849998 -0.93599999 97 86 64
5.5640001 -7.79 -0.92000002 112 65 39
5.6040001 -7.7950001 -0.91500002 33 11 0
5.605 -7.7870002 -0.92900002 60 25 5
5.6100001 -7.7779999 -0.93400002 99 54 25
5.599 -7.7680001 -0.92900002 94 44 7
5.605 -7.776 -0.97399998 48 33 30
5.6090002 -7.776 -0.96200001 105 61 22
5.5819998 -7.7989998 -0.977 70 20 0
5.566 -7.8070002 -0.96600002 86 60 43
5.5749998 -7.8049998 -0.977 148 117 99
5.6009998 -7.79 -0.96700001 74 22 1
5.6139998 -7.776 -0.95599997 54 26 4
5.6129999 -7.796 -0.89200002 78 50 38
5.5900002 -7.7670002 -0.912 160 119 97
5.5929999 -7.8299999 -0.82700002 135 111 85
5.5949998 -7.816 -0.81 161 83 35
5.6030002 -7.8189998 -0.84500003 73 21 0
5.5760002 -7.8299999 -0.83999997 216 169 99
5.5640001 -7.8330002 -0.84100002 255 207 136
5.5970001 -7.8130002 -0.87099999 73 45 31
5.5929999 -7.8130002 -0.88099998 83 37 4
5.6170001 -7.8039999 -0.86900002 72 38 10
5.6059999 -7.8130002 -0.866 66 16 0
5.6220002 -7.7930002 -0.884 85 33 0
5.618 -7.79 -0.88599998 124 72 22
5.6339998 -7.7740002 -0.884 191 131 81
5.6350002 -7.8410001 -0.82599998 110 42 3
5.6430001 -7.8169999 -0.86000001 134 82 45
5.6500001 -7.8270001 -0.82499999 146 66 7
5.6389999 -7.8319998 -0.81 248 176 102
5.5840001 -7.8080001 -0.81999999 102 68 40
5.625 -7.7779999 -0.86400002 50 19 1
5.605 -7.7649999 -0.85100001 62 36 19
5.6059999 -7.757 -0.85699999 57 31 16
5.6030002 -7.776 -0.86799997 59 33 16
5.6100001 -7.7719998 -0.85500002 125 61 0
5.6360002 -7.777 -0.87900001 95 54 32
5.6360002 -7.7979999 -0.85600001 81 51 17
5.5949998 -7.7670002 -0.838 143 63 14
5.5780001 -7.7540002 -0.92699999 59 33 18
5.5580001 -7.8189998 -0.85100001 255 210 130
5.5580001 -7.8319998 -0.83899999 246 189 118
5.5580001 -7.8319998 -0.83600003 176 122 52
5.5570002 -7.8299999 -0.85500002 104 73 53
5.6059999 -7.8060002 -0.88099998 69 16 0
5.572 -7.802 -0.89099997 247 183 112
5.5679998 -7.8070002 -0.88999999 158 93 37
5.5679998 -7.8239999 -0.83999997 142 88 54
5.5739999 -7.7969999 -0.82999998 82 53 35
5.579 -7.7989998 -0.84100002 67 15 2
5.5830002 -7.803 -0.81300002 129 103 78
5.6030002 -7.7779999 -0.838 72 35 0
5.5840001 -7.763 -0.88499999 168 107 52
5.5549998 -7.8330002 -0.83099997 253 200 122
5.5929999 -7.8150001 -0.80199999 184 109 41
5.5929999 -7.8150001 -0.80599999 134 59 2
5.6100001 -7.7680001 -0.89399999 197 139 91
5.5830002 -7.803 -0.93800002 51 12 0
5.5640001 -7.8000002 -0.949 109 53 30
5.5780001 -7.8239999 -0.88599998 161 119 81
5.572 -7.7610002 -0.92699999 167 139 115
5.566 -7.7880001 -0.92400002 84 38 14
5.5609999 -7.7880001 -0.91000003 93 63 37
5.5780001 -7.77 -0.94999999 43 6 0
5.5960002 -7.7579999 -0.954 52 21 0
5.6040001 -7.7680001 -0.94300002 167 96 50
5.592 -7.7859998 -0.977 125 70 39
5.6040001 -7.7690001 -0.97299999 61 39 15
5.5650001 -7.7979999 -0.96600002 51 27 15
5.5939999 -7.7969999 -0.95999998 75 21 0
5.598 -7.7919998 -0.95300001 69 36 17
5.5749998 -7.7680001 -0.94499999 41 6 0
5.5570002 -7.7719998 -0.94800001 74 19 0
5.6139998 -7.7839999 -0.95200002 37 21 6
5.572 -7.7639999 -0.90399998 85 44 14
5.5689998 -7.8410001 -0.85100001 61 19 5
5.6129999 -7.7750001 -0.85299999 68 34 0
5.6500001 -7.8039999 -0.85600001 73 46 29
5.5770001 -7.7529998 -0.92500001 77 23 0
5.5560002 -7.8179998 -0.85399997 255 212 134
5.5549998 -7.8330002 -0.83899999 162 104 30
5.5489998 -7.835 -0.84399998 73 58 61
5.5869999 -7.7989998 -0.926 86 36 3
5.605 -7.7670002 -0.88099998 145 98 42
5.5819998 -7.8060002 -0.81 227 161 100
5.632 -7.777 -0.884 121 63 23
5.612 -7.7729998 -0.89200002 59 33 10
5.5890002 -7.8010001 -0.93199998 77 31 5
5.5669999 -7.7750001 -0.958 122 72 35
5.599 -7.7839999 -0.972 18 1 0
5.6040001 -7.77 -0.92299998 53 9 0
5.5890002 -7.7680001 -0.97600001 160 101 61
5.598 -7.79 -0.97799999 28 10 0
5.5840001 -7.8000002 -0.97899997 82 54 40
5.5619998 -7.7810001 -0.90700001 69 51 51
5.592 -7.8099999 -0.815 174 104 55
5.6479998 -7.836 -0.82499999 187 135 88
5.6139998 -7.783 -0.90200001 48 42 46
5.6059999 -7.7639999 -0.90200001 127 63 19
5.5939999 -7.7659998 -0.84100002 119 42 0
5.6149998 -7.7820001 -0.89899999 41 13 1
5.6139998 -7.783 -0.89700001 75 30 7
5.6129999 -7.7740002 -0.88800001 121 69 19
5.5970001 -7.7930002 -0.94099998 30 12 12
5.5609999 -7.7719998 -0.95899999 98 79 72
5.599 -7.7680001 -0.91900003 167 97 46
5.612 -7.776 -0.921 77 15 0
5.5960002 -7.7950001 -0.96499997 77 58 51
5.618 -7.7870002 -0.88700002 154 91 58
5.6479998 -7.836 -0.82099998 208 123 56
5.5799999 -7.7729998 -0.83999997 101 90 98
5.6139998 -7.777 -0.89200002 63 34 16
5.5830002 -7.8099999 -0.958 66 33 14
5.579 -7.8039999 -0.97399998 130 80 47
5.5749998 -7.809 -0.96499997 165 114 61
5.5650001 -7.7750001 -0.95999998 77 59 59
0 0 0 1 0 0 0 1 0 0 0 1 0 0 0 0 0 499 1 0 0
