ply
format ascii 1.0
comment PCL generated
element vertex 573
property float x
property float y
property float z
property uchar red
property uchar green
property uchar blue
element face 1770
property list uchar int vertex_indices
end_header
5.375 12.708 -0.719 49 33 36 
5.367 12.713 -0.705 84 51 34 
5.356 12.705 -0.705 140 82 32 
5.532 12.655 -0.617 148 113 85 
5.518 12.651 -0.608 152 106 82 
5.521 12.642 -0.614 168 104 60 
5.526 12.644 -0.618 185 138 112 
5.402 12.726 -0.866 77 42 22 
5.402 12.723 -0.871 65 41 37 
5.397 12.726 -0.867 149 134 137 
5.398 12.726 -0.863 84 55 37 
5.389 12.708 -0.651 83 51 30 
5.382 12.708 -0.635 83 55 31 
5.38 12.709 -0.635 111 73 37 
5.528 12.641 -0.628 171 132 103 
5.526 12.641 -0.623 189 108 55 
5.521 12.636 -0.638 180 106 59 
5.526 12.641 -0.631 189 108 53 
5.527 12.65 -0.627 123 78 47 
5.442 12.751 -0.726 192 128 80 
5.443 12.748 -0.725 64 42 19 
5.444 12.755 -0.731 99 67 44 
5.439 12.742 -0.714 29 6 0 
5.473 12.684 -0.768 92 46 13 
5.479 12.679 -0.759 71 25 1 
5.48 12.694 -0.758 48 22 9 
5.475 12.677 -0.745 46 24 13 
5.48 12.681 -0.873 93 58 30 
5.475 12.677 -0.871 144 100 75 
5.475 12.679 -0.88 198 151 123 
5.527 12.64 -0.639 125 86 57 
5.53 12.643 -0.635 94 68 33 
5.471 12.682 -0.769 108 53 23 
5.395 12.681 -0.734 61 35 34 
5.388 12.688 -0.753 181 135 112 
5.391 12.681 -0.752 86 50 38 
5.395 12.679 -0.743 67 44 30 
5.511 12.659 -0.608 129 93 71 
5.53 12.667 -0.616 164 116 70 
5.512 12.667 -0.613 77 44 27 
5.508 12.662 -0.607 127 93 83 
5.502 12.663 -0.615 56 12 0 
5.503 12.665 -0.632 88 42 9 
5.437 12.744 -0.716 115 67 27 
5.432 12.739 -0.716 62 36 9 
5.437 12.753 -0.727 163 131 116 
5.441 12.747 -0.731 118 66 29 
5.519 12.659 -0.613 148 121 104 
5.485 12.693 -0.775 66 24 0 
5.486 12.698 -0.772 174 99 44 
5.474 12.698 -0.781 54 25 9 
5.476 12.692 -0.773 74 46 32 
5.482 12.674 -0.758 86 56 48 
5.484 12.676 -0.747 55 31 21 
5.483 12.675 -0.756 61 35 22 
5.485 12.684 -0.751 91 80 84 
5.4 12.673 -0.742 58 35 21 
5.402 12.677 -0.746 112 53 23 
5.396 12.682 -0.728 157 131 116 
5.398 12.686 -0.732 48 24 12 
5.392 12.709 -0.874 109 73 51 
5.395 12.695 -0.868 53 27 14 
5.397 12.694 -0.878 134 57 3 
5.396 12.714 -0.88 163 85 36 
5.398 12.697 -0.873 76 43 24 
5.416 12.714 -0.754 43 21 7 
5.416 12.717 -0.756 77 49 35 
5.414 12.719 -0.752 158 96 55 
5.407 12.716 -0.753 96 64 43 
5.394 12.693 -0.745 93 61 50 
5.399 12.696 -0.755 53 33 34 
5.459 12.673 -0.679 78 58 59 
5.466 12.671 -0.692 101 87 87 
5.464 12.671 -0.671 91 45 22 
5.454 12.712 -0.7 198 174 162 
5.446 12.711 -0.706 49 24 4 
5.452 12.71 -0.708 204 181 165 
5.453 12.717 -0.706 153 138 133 
5.448 12.719 -0.7 115 87 76 
5.456 12.674 -0.675 124 105 98 
5.51 12.659 -0.607 79 38 16 
5.52 12.662 -0.617 190 170 171 
5.507 12.654 -0.609 99 70 38 
5.505 12.648 -0.616 115 78 52 
5.512 12.653 -0.608 134 75 33 
5.514 12.64 -0.638 115 83 62 
5.511 12.644 -0.644 201 121 72 
5.519 12.644 -0.646 104 41 6 
5.488 12.649 -0.664 114 70 25 
5.477 12.643 -0.669 85 46 29 
5.468 12.647 -0.664 84 39 6 
5.502 12.641 -0.627 168 113 59 
5.518 12.644 -0.615 170 93 47 
5.515 12.645 -0.618 125 79 55 
5.515 12.641 -0.627 95 55 29 
5.516 12.641 -0.63 153 71 21 
5.528 12.649 -0.638 154 119 99 
5.458 12.708 -0.772 100 51 18 
5.447 12.708 -0.74 131 100 79 
5.458 12.708 -0.745 112 59 19 
5.448 12.703 -0.745 70 15 0 
5.453 12.709 -0.747 44 18 5 
5.454 12.711 -0.749 68 39 25 
5.41 12.734 -0.772 120 76 39 
5.366 12.708 -0.704 70 37 32 
5.363 12.709 -0.703 79 47 32 
5.367 12.709 -0.698 116 77 46 
5.369 12.711 -0.702 50 21 5 
5.366 12.704 -0.691 58 23 4 
5.37 12.699 -0.712 181 149 126 
5.478 12.677 -0.761 85 35 8 
5.474 12.674 -0.768 198 117 61 
5.477 12.672 -0.767 109 78 58 
5.477 12.685 -0.738 57 33 23 
5.48 12.681 -0.744 81 32 0 
5.479 12.677 -0.745 56 23 8 
5.487 12.661 -0.768 71 47 35 
5.488 12.668 -0.767 85 53 32 
5.492 12.665 -0.77 49 14 0 
5.398 12.683 -0.754 84 30 4 
5.409 12.673 -0.746 103 42 11 
5.408 12.69 -0.738 169 142 125 
5.404 12.687 -0.733 134 99 79 
5.411 12.682 -0.752 98 67 47 
5.422 12.699 -0.752 91 58 43 
5.483 12.64 -0.673 123 59 11 
5.47 12.64 -0.676 153 101 61 
5.483 12.64 -0.681 144 79 37 
5.363 12.688 -0.657 187 132 67 
5.371 12.705 -0.645 68 31 12 
5.359 12.685 -0.651 78 62 37 
5.375 12.705 -0.684 123 79 40 
5.4 12.679 -0.734 118 89 73 
5.458 12.652 -0.686 66 31 0 
5.462 12.657 -0.693 71 40 11 
5.4 12.695 -0.872 100 67 48 
5.4 12.69 -0.855 57 34 18 
5.401 12.697 -0.871 131 54 0 
5.4 12.695 -0.86 130 98 77 
5.405 12.698 -0.74 110 74 62 
5.4 12.698 -0.743 111 67 28 
5.405 12.702 -0.749 96 41 11 
5.398 12.71 -0.764 58 22 8 
5.416 12.702 -0.751 77 49 46 
5.397 12.685 -0.755 66 43 29 
5.501 12.663 -0.625 93 66 47 
5.506 12.664 -0.623 103 40 9 
5.436 12.736 -0.715 89 40 10 
5.43 12.732 -0.717 52 23 9 
5.527 12.663 -0.619 122 102 91 
5.527 12.661 -0.633 127 107 98 
5.534 12.662 -0.619 59 10 0 
5.407 12.69 -0.636 112 68 29 
5.399 12.687 -0.65 123 75 35 
5.395 12.678 -0.65 154 123 102 
5.406 12.698 -0.639 96 69 58 
5.407 12.696 -0.636 119 82 53 
5.394 12.695 -0.636 138 94 67 
5.465 12.646 -0.664 146 90 43 
5.466 12.64 -0.68 117 50 7 
5.509 12.645 -0.642 127 80 54 
5.474 12.642 -0.673 199 128 74 
5.5 12.662 -0.635 98 74 38 
5.503 12.655 -0.635 91 44 26 
5.503 12.651 -0.634 85 50 20 
5.503 12.655 -0.627 60 13 0 
5.504 12.658 -0.612 94 72 58 
5.517 12.642 -0.623 199 117 67 
5.427 12.704 -0.757 51 28 12 
5.484 12.691 -0.763 94 40 14 
5.487 12.691 -0.767 137 90 62 
5.482 12.687 -0.757 74 41 24 
5.453 12.719 -0.775 108 94 91 
5.457 12.715 -0.766 44 16 5 
5.45 12.726 -0.771 66 30 16 
5.426 12.73 -0.724 128 85 43 
5.424 12.73 -0.722 102 69 54 
5.425 12.71 -0.759 99 51 11 
5.406 12.733 -0.768 54 30 26 
5.41 12.735 -0.772 129 85 50 
5.402 12.741 -0.771 44 18 3 
5.4 12.739 -0.773 61 31 29 
5.394 12.734 -0.775 63 29 17 
5.402 12.724 -0.77 61 41 40 
5.455 12.718 -0.757 77 46 26 
5.458 12.709 -0.762 87 53 43 
5.483 12.664 -0.767 112 84 70 
5.476 12.659 -0.77 138 94 55 
5.483 12.664 -0.778 27 8 12 
5.474 12.653 -0.766 192 104 40 
5.487 12.682 -0.737 66 42 32 
5.481 12.682 -0.728 100 48 11 
5.476 12.675 -0.735 79 34 15 
5.483 12.677 -0.736 116 107 110 
5.47 12.665 -0.711 83 40 0 
5.471 12.657 -0.7 109 83 66 
5.471 12.66 -0.701 141 98 79 
5.475 12.656 -0.701 68 33 11 
5.495 12.652 -0.674 81 44 18 
5.492 12.656 -0.667 202 174 150 
5.492 12.652 -0.665 159 115 78 
5.486 12.663 -0.721 85 50 31 
5.406 12.68 -0.754 118 61 31 
5.362 12.705 -0.699 143 105 92 
5.374 12.705 -0.694 69 41 17 
5.387 12.707 -0.68 120 84 68 
5.389 12.703 -0.681 81 36 3 
5.39 12.703 -0.676 136 85 32 
5.381 12.71 -0.713 93 65 51 
5.396 12.682 -0.719 155 132 116 
5.401 12.697 -0.856 151 70 15 
5.37 12.698 -0.653 60 24 2 
5.443 12.705 -0.878 255 210 178 
5.45 12.706 -0.872 74 44 42 
5.447 12.702 -0.885 123 43 8 
5.446 12.709 -0.867 79 65 64 
5.444 12.698 -0.891 95 18 2 
5.442 12.696 -0.884 80 52 31 
5.444 12.693 -0.889 135 81 47 
5.45 12.694 -0.892 97 16 0 
5.469 12.708 -0.836 71 27 0 
5.471 12.696 -0.833 87 46 26 
5.467 12.716 -0.829 95 92 77 
5.473 12.704 -0.838 89 43 9 
5.484 12.663 -0.784 128 82 48 
5.483 12.666 -0.784 45 26 20 
5.526 12.658 -0.643 197 164 147 
5.508 12.663 -0.634 117 67 34 
5.511 12.657 -0.64 95 29 0 
5.508 12.65 -0.65 110 75 43 
5.515 12.649 -0.614 241 178 134 
5.397 12.692 -0.633 81 48 29 
5.391 12.685 -0.626 180 143 117 
5.399 12.696 -0.643 68 47 44 
5.502 12.661 -0.613 179 128 73 
5.511 12.665 -0.62 151 129 115 
5.501 12.653 -0.648 137 98 57 
5.476 12.641 -0.68 107 71 55 
5.46 12.651 -0.688 110 73 47 
5.465 12.65 -0.692 110 79 58 
5.486 12.655 -0.665 154 98 51 
5.476 12.651 -0.669 166 148 102 
5.498 12.657 -0.618 98 68 30 
5.52 12.641 -0.623 217 148 106 
5.459 12.721 -0.826 53 21 8 
5.44 12.726 -0.834 57 31 32 
5.446 12.718 -0.824 96 67 49 
5.443 12.724 -0.812 58 29 15 
5.443 12.723 -0.842 66 37 21 
5.429 12.73 -0.856 16 5 11 
5.439 12.723 -0.843 69 53 53 
5.463 12.719 -0.823 92 47 16 
5.454 12.677 -0.766 133 63 12 
5.446 12.701 -0.753 79 21 0 
5.43 12.695 -0.766 96 37 7 
5.442 12.683 -0.765 101 55 32 
5.487 12.679 -0.778 108 89 85 
5.484 12.683 -0.764 50 25 18 
5.478 12.689 -0.791 36 13 5 
5.468 12.696 -0.804 133 121 123 
5.409 12.696 -0.735 59 29 18 
5.448 12.718 -0.753 92 46 13 
5.492 12.679 -0.719 130 91 60 
5.491 12.668 -0.715 68 45 37 
5.494 12.678 -0.713 96 62 37 
5.485 12.66 -0.709 94 59 40 
5.481 12.66 -0.706 87 21 0 
5.483 12.663 -0.691 40 25 28 
5.491 12.673 -0.706 159 93 43 
5.489 12.663 -0.693 75 43 20 
5.489 12.664 -0.704 67 39 28 
5.468 12.644 -0.694 86 34 10 
5.484 12.673 -0.723 107 62 20 
5.431 12.684 -0.776 41 23 21 
5.43 12.675 -0.778 62 34 13 
5.367 12.698 -0.686 150 123 114 
5.373 12.705 -0.712 127 82 51 
5.367 12.695 -0.706 131 60 6 
5.374 12.688 -0.708 86 60 45 
5.375 12.7 -0.712 112 82 58 
5.373 12.704 -0.69 138 81 26 
5.372 12.695 -0.69 86 48 29 
5.38 12.703 -0.693 87 44 9 
5.395 12.68 -0.721 168 133 114 
5.416 12.696 -0.861 161 124 105 
5.395 12.681 -0.654 152 83 26 
5.387 12.69 -0.662 87 60 41 
5.375 12.704 -0.651 150 114 80 
5.393 12.709 -0.873 89 57 42 
5.403 12.697 -0.869 146 114 93 
5.404 12.707 -0.864 87 56 38 
5.44 12.708 -0.866 108 59 29 
5.435 12.716 -0.855 111 99 99 
5.43 12.723 -0.856 146 108 87 
5.456 12.691 -0.88 21 12 0 
5.477 12.697 -0.841 101 50 23 
5.464 12.704 -0.833 67 34 15 
5.461 12.709 -0.83 120 106 103 
5.398 12.697 -0.745 56 28 17 
5.413 12.691 -0.754 78 47 27 
5.469 12.665 -0.688 101 84 77 
5.481 12.646 -0.696 145 108 89 
5.526 12.658 -0.637 121 80 52 
5.532 12.654 -0.634 210 171 132 
5.514 12.65 -0.646 104 43 14 
5.508 12.652 -0.612 102 74 52 
5.4 12.689 -0.642 112 91 88 
5.468 12.644 -0.672 72 36 14 
5.503 12.649 -0.635 129 95 86 
5.479 12.64 -0.684 134 96 75 
5.475 12.643 -0.688 130 64 30 
5.467 12.642 -0.684 68 32 10 
5.462 12.646 -0.681 99 51 13 
5.464 12.646 -0.679 124 51 10 
5.463 12.651 -0.67 95 41 5 
5.465 12.655 -0.665 101 52 11 
5.467 12.662 -0.668 106 72 71 
5.482 12.653 -0.678 36 20 23 
5.493 12.651 -0.671 81 45 31 
5.484 12.652 -0.68 162 105 62 
5.466 12.646 -0.675 137 105 84 
5.503 12.662 -0.635 196 147 91 
5.434 12.724 -0.851 70 23 3 
5.463 12.707 -0.864 150 65 8 
5.46 12.7 -0.863 99 93 79 
5.468 12.658 -0.766 208 124 64 
5.448 12.676 -0.767 99 40 10 
5.452 12.693 -0.765 132 116 116 
5.431 12.715 -0.84 82 50 27 
5.488 12.676 -0.768 86 41 8 
5.473 12.674 -0.776 163 83 32 
5.472 12.689 -0.807 61 35 20 
5.443 12.705 -0.758 192 154 135 
5.45 12.724 -0.756 75 43 44 
5.437 12.732 -0.761 45 18 1 
5.449 12.713 -0.752 109 71 48 
5.44 12.734 -0.77 186 157 141 
5.441 12.727 -0.767 76 57 51 
5.481 12.672 -0.721 119 108 112 
5.488 12.679 -0.723 36 23 6 
5.368 12.693 -0.695 241 196 163 
5.374 12.69 -0.697 79 53 40 
5.381 12.687 -0.657 182 131 68 
5.38 12.688 -0.659 161 124 98 
5.389 12.702 -0.712 139 96 64 
5.393 12.707 -0.706 103 55 9 
5.393 12.701 -0.702 95 32 0 
5.388 12.699 -0.694 156 105 58 
5.403 12.696 -0.762 96 58 45 
5.404 12.702 -0.772 106 67 52 
5.396 12.72 -0.775 120 74 38 
5.405 12.704 -0.78 97 58 41 
5.407 12.699 -0.773 92 54 35 
5.418 12.671 -0.777 83 55 41 
5.415 12.675 -0.781 100 48 24 
5.428 12.682 -0.795 101 44 15 
5.408 12.68 -0.755 58 35 17 
5.417 12.685 -0.795 87 44 28 
5.39 12.689 -0.656 119 98 67 
5.374 12.704 -0.635 141 95 69 
5.377 12.707 -0.646 155 108 82 
5.383 12.691 -0.66 95 66 50 
5.371 12.702 -0.642 172 119 51 
5.413 12.705 -0.865 99 61 42 
5.426 12.712 -0.849 112 72 47 
5.444 12.72 -0.849 90 49 17 
5.447 12.69 -0.884 93 50 18 
5.44 12.694 -0.871 87 59 38 
5.472 12.693 -0.839 128 97 76 
5.396 12.694 -0.744 106 65 43 
5.487 12.644 -0.691 98 79 83 
5.381 12.703 -0.633 149 112 85 
5.382 12.7 -0.634 127 90 64 
5.377 12.699 -0.633 102 70 49 
5.384 12.691 -0.631 155 84 30 
5.472 12.645 -0.67 105 45 9 
5.393 12.677 -0.634 93 76 56 
5.383 12.68 -0.65 113 85 64 
5.385 12.681 -0.646 239 155 93 
5.382 12.683 -0.64 187 153 126 
5.503 12.65 -0.62 156 119 110 
5.467 12.662 -0.673 49 23 8 
5.46 12.655 -0.677 60 40 39 
5.407 12.731 -0.778 117 84 67 
5.401 12.727 -0.783 72 36 20 
5.404 12.727 -0.784 58 33 29 
5.429 12.717 -0.828 90 86 77 
5.401 12.717 -0.782 54 35 31 
5.468 12.701 -0.848 153 80 37 
5.451 12.711 -0.795 35 15 16 
5.457 12.704 -0.817 91 48 31 
5.418 12.719 -0.776 161 128 111 
5.453 12.69 -0.772 53 24 8 
5.446 12.718 -0.838 112 63 23 
5.45 12.713 -0.839 56 24 25 
5.475 12.676 -0.784 98 23 0 
5.452 12.705 -0.758 37 11 0 
5.449 12.713 -0.757 43 15 12 
5.445 12.708 -0.766 66 48 46 
5.444 12.729 -0.768 59 30 16 
5.473 12.666 -0.703 121 78 43 
5.48 12.667 -0.707 118 106 110 
5.482 12.665 -0.705 56 37 7 
5.478 12.663 -0.707 108 63 21 
5.482 12.662 -0.688 42 18 6 
5.484 12.676 -0.717 46 31 36 
5.429 12.702 -0.871 103 75 54 
5.453 12.697 -0.854 156 75 22 
5.453 12.691 -0.864 98 51 21 
5.362 12.702 -0.703 57 19 0 
5.373 12.685 -0.658 168 132 116 
5.371 12.695 -0.708 116 102 93 
5.382 12.706 -0.705 94 61 42 
5.406 12.692 -0.763 67 15 0 
5.432 12.676 -0.78 109 49 13 
5.446 12.668 -0.78 109 45 9 
5.448 12.67 -0.788 88 31 1 
5.427 12.68 -0.791 72 46 33 
5.415 12.695 -0.756 211 176 156 
5.439 12.721 -0.808 56 34 36 
5.443 12.724 -0.801 80 37 20 
5.431 12.707 -0.798 124 65 35 
5.427 12.715 -0.781 121 92 78 
5.443 12.724 -0.797 58 29 15 
5.374 12.698 -0.637 117 73 44 
5.411 12.704 -0.87 66 33 14 
5.457 12.71 -0.85 94 47 19 
5.449 12.703 -0.877 141 54 1 
5.445 12.694 -0.881 123 70 39 
5.454 12.687 -0.884 118 36 0 
5.421 12.696 -0.865 184 93 36 
5.425 12.695 -0.861 110 76 49 
5.472 12.693 -0.792 54 25 11 
5.471 12.693 -0.789 132 91 59 
5.455 12.698 -0.8 72 30 14 
5.461 12.692 -0.797 35 1 0 
5.418 12.704 -0.754 47 25 2 
5.477 12.657 -0.685 99 76 60 
5.484 12.661 -0.699 148 102 66 
5.519 12.651 -0.643 127 80 54 
5.402 12.687 -0.637 164 114 63 
5.381 12.689 -0.626 139 100 71 
5.396 12.682 -0.633 142 100 75 
5.388 12.677 -0.649 142 114 93 
5.393 12.678 -0.646 212 133 74 
5.429 12.713 -0.837 97 53 16 
5.414 12.707 -0.814 58 25 10 
5.422 12.703 -0.821 104 55 22 
5.428 12.705 -0.85 77 43 16 
5.433 12.707 -0.837 136 118 118 
5.436 12.717 -0.829 97 82 77 
5.399 12.722 -0.772 113 92 75 
5.468 12.697 -0.842 46 36 35 
5.453 12.69 -0.838 181 137 112 
5.454 12.715 -0.804 73 30 0 
5.443 12.713 -0.795 87 64 48 
5.442 12.72 -0.783 89 50 33 
5.448 12.67 -0.773 138 70 23 
5.428 12.708 -0.769 61 25 11 
5.462 12.686 -0.777 124 112 112 
5.483 12.68 -0.779 55 30 23 
5.485 12.681 -0.779 73 61 65 
5.457 12.711 -0.767 113 79 51 
5.441 12.731 -0.767 67 39 36 
5.446 12.722 -0.784 128 84 55 
5.487 12.68 -0.721 84 62 49 
5.421 12.696 -0.811 82 22 0 
5.426 12.701 -0.82 95 32 0 
5.412 12.7 -0.805 68 30 17 
5.407 12.694 -0.796 47 21 4 
5.432 12.713 -0.858 131 81 56 
5.437 12.696 -0.861 113 78 50 
5.449 12.676 -0.794 106 81 61 
5.438 12.699 -0.85 76 42 15 
5.431 12.701 -0.851 121 102 104 
5.365 12.699 -0.697 49 25 15 
5.387 12.702 -0.706 43 27 28 
5.377 12.694 -0.707 182 114 65 
5.386 12.696 -0.696 76 33 1 
5.383 12.692 -0.69 102 65 46 
5.401 12.691 -0.758 107 59 21 
5.411 12.697 -0.772 69 17 0 
5.427 12.712 -0.811 57 28 14 
5.391 12.691 -0.654 67 33 6 
5.377 12.684 -0.651 172 129 94 
5.366 12.688 -0.649 120 75 44 
5.365 12.694 -0.643 163 132 104 
5.387 12.698 -0.656 40 20 19 
5.407 12.703 -0.864 104 63 43 
5.419 12.699 -0.854 143 106 87 
5.456 12.71 -0.841 52 24 10 
5.445 12.716 -0.845 57 26 8 
5.454 12.698 -0.869 157 71 14 
5.453 12.686 -0.876 141 60 17 
5.47 12.692 -0.8 80 38 22 
5.4 12.688 -0.634 99 52 10 
5.394 12.679 -0.639 170 91 34 
5.456 12.708 -0.856 51 22 6 
5.445 12.718 -0.812 118 88 60 
5.449 12.718 -0.8 94 47 19 
5.408 12.7 -0.785 97 53 26 
5.422 12.704 -0.756 106 58 20 
5.411 12.73 -0.776 112 95 87 
5.421 12.713 -0.775 54 32 11 
5.458 12.691 -0.785 110 64 30 
5.45 12.705 -0.777 123 63 29 
5.451 12.684 -0.767 58 18 6 
5.465 12.678 -0.786 71 24 4 
5.461 12.676 -0.789 90 49 21 
5.44 12.724 -0.779 141 122 116 
5.429 12.708 -0.827 77 46 25 
5.43 12.703 -0.822 115 96 82 
5.453 12.688 -0.822 76 46 35 
5.454 12.674 -0.79 84 57 40 
5.437 12.696 -0.838 63 31 8 
5.445 12.689 -0.829 140 70 34 
5.421 12.679 -0.778 41 18 0 
5.443 12.679 -0.79 80 53 36 
5.418 12.692 -0.799 128 79 46 
5.425 12.694 -0.803 62 33 15 
5.415 12.706 -0.805 76 50 35 
5.415 12.706 -0.802 164 149 144 
5.421 12.707 -0.805 85 28 0 
5.373 12.682 -0.634 249 202 158 
5.377 12.693 -0.636 108 67 49 
5.383 12.702 -0.653 96 63 54 
5.425 12.707 -0.857 83 59 57 
5.462 12.706 -0.84 129 56 13 
5.454 12.694 -0.87 67 36 18 
5.446 12.69 -0.875 162 76 27 
5.449 12.688 -0.841 50 36 33 
5.396 12.682 -0.639 142 110 87 
5.434 12.713 -0.82 90 47 15 
5.445 12.7 -0.853 158 73 18 
5.449 12.688 -0.829 62 24 1 
5.444 12.674 -0.777 108 61 35 
5.406 12.71 -0.789 91 49 33 
5.413 12.696 -0.768 86 57 39 
5.415 12.706 -0.792 86 60 47 
5.412 12.721 -0.78 61 32 16 
5.471 12.694 -0.784 64 22 8 
5.461 12.675 -0.777 84 32 10 
5.469 12.683 -0.803 49 21 7 
5.477 12.686 -0.789 67 33 21 
5.44 12.692 -0.767 102 51 24 
5.44 12.686 -0.767 69 35 23 
5.448 12.714 -0.779 73 26 0 
5.46 12.696 -0.819 75 28 0 
5.428 12.695 -0.805 96 55 35 
5.423 12.709 -0.813 79 21 0 
5.435 12.7 -0.806 117 57 29 
5.438 12.698 -0.792 67 40 23 
5.447 12.702 -0.807 78 24 0 
5.385 12.681 -0.631 189 153 127 
5.382 12.708 -0.648 90 60 36 
5.445 12.696 -0.789 86 44 28 
5.45 12.688 -0.82 72 37 15 
5.451 12.703 -0.816 41 11 0 
5.418 12.694 -0.765 77 21 0 
5.438 12.695 -0.79 61 43 39 
5.411 12.73 -0.781 99 79 81 
5.459 12.676 -0.793 141 115 102 
5.458 12.69 -0.802 93 47 13 
5.389 12.703 -0.702 102 69 50 
5.385 12.681 -0.638 218 134 72 
5.455 12.704 -0.807 64 27 18 
5.419 12.678 -0.784 95 48 18 
5.423 12.693 -0.768 146 99 69 
5.411 12.697 -0.779 62 33 19 
5.412 12.697 -0.78 81 30 3 
5.416 12.716 -0.781 93 59 50 
5.418 12.692 -0.789 94 48 12 
5.43 12.704 -0.815 88 50 29 
3 0 1 2
3 3 1 2
3 4 5 6
3 7 4 5
3 0 8 9
3 10 8 9
3 10 0 8
3 11 12 13
3 11 14 13
3 14 12 13
3 15 16 17
3 18 19 20
3 18 19 21
3 22 23 20
3 18 23 20
3 19 22 20
3 24 25 26
3 27 28 29
3 30 31 32
3 30 7 32
3 33 34 35
3 30 4 6
3 30 7 6
3 30 7 4
3 7 32 4
3 30 32 4
3 36 37 26
3 38 39 40
3 38 41 40
3 42 43 41
3 44 42 43
3 45 46 43
3 47 45 46
3 47 44 48
3 44 45 48
3 47 44 45
3 49 50 21
3 49 19 21
3 49 18 21
3 49 18 19
3 49 18 23
3 49 22 23
3 49 19 22
3 50 22 23
3 51 52 53
3 54 55 56
3 54 55 57
3 58 55 56
3 54 58 56
3 54 58 55
3 59 60 61
3 62 60 61
3 63 64 65
3 63 64 42
3 63 66 42
3 67 68 69
3 70 69 71
3 67 70 69
3 72 73 74
3 72 75 74
3 72 76 75
3 73 75 74
3 72 73 75
3 77 1 78
3 77 79 78
3 77 79 1
3 77 0 8
3 77 0 1
3 79 3 1
3 80 39 40
3 80 64 39
3 80 64 65
3 46 43 40
3 80 46 40
3 43 41 40
3 47 46 65
3 80 46 65
3 81 64 39
3 82 63 66
3 82 66 57
3 83 84 85
3 84 86 87
3 83 86 87
3 83 84 87
3 84 85 86
3 83 85 86
3 88 89 90
3 91 37 26
3 92 93 78
3 94 5 6
3 94 7 6
3 94 7 5
3 94 5 9
3 10 5 9
3 95 0 2
3 95 32 4
3 95 0 4
3 95 31 32
3 96 30 6
3 96 52 6
3 97 98 99
3 97 100 99
3 97 100 98
3 101 29 71
3 101 102 71
3 101 27 29
3 101 27 28
3 101 68 28
3 101 68 102
3 103 104 105
3 103 106 104
3 103 107 104
3 106 107 104
3 103 106 107
3 103 108 107
3 62 60 29
3 109 60 29
3 109 29 71
3 109 101 29
3 62 27 29
3 110 111 112
3 113 110 111
3 113 114 110
3 113 111 115
3 113 110 115
3 116 68 69
3 117 68 28
3 116 117 68
3 116 70 68
3 116 67 69
3 116 67 68
3 116 67 70
3 118 68 102
3 118 102 71
3 119 120 121
3 119 122 121
3 123 67 70
3 124 125 126
3 127 125 126
3 127 126 128
3 129 130 131
3 129 132 131
3 129 132 130
3 133 134 8
3 133 135 134
3 136 137 138
3 139 136 138
3 140 43 40
3 140 46 40
3 140 45 46
3 140 45 43
3 140 43 41
3 140 141 41
3 141 38 41
3 140 38 41
3 140 141 38
3 142 44 45
3 142 137 44
3 140 141 45
3 142 141 45
3 142 141 137
3 142 44 43
3 142 43 41
3 117 143 144
3 145 143 144
3 145 146 147
3 116 146 143
3 145 146 143
3 116 117 143
3 148 149 150
3 148 151 150
3 148 151 152
3 148 153 152
3 154 155 156
3 154 155 157
3 158 159 160
3 161 158 160
3 162 158 159
3 161 162 158
3 163 47 65
3 164 44 42
3 164 66 42
3 164 137 44
3 164 64 42
3 164 81 64
3 164 66 57
3 164 81 57
3 81 57 165
3 55 57 165
3 166 44 48
3 166 63 48
3 166 82 63
3 167 168 169
3 167 168 170
3 168 171 169
3 172 146 147
3 173 167 168
3 173 88 90
3 173 88 170
3 173 170 126
3 174 50 21
3 174 175 50
3 174 19 21
3 174 49 19
3 174 49 50
3 176 36 26
3 176 26 177
3 176 36 177
3 178 91 112
3 179 16 17
3 179 180 17
3 179 181 180
3 179 182 181
3 183 182 181
3 183 179 181
3 184 185 182
3 186 185 182
3 186 184 182
3 186 184 185
3 187 180 17
3 186 187 17
3 179 182 16
3 188 92 93
3 189 93 78
3 189 190 191
3 190 93 78
3 189 190 93
3 189 192 93
3 193 194 191
3 195 7 6
3 195 94 6
3 195 94 7
3 196 8 9
3 196 133 8
3 134 8 9
3 196 134 9
3 196 134 8
3 196 133 134
3 196 135 134
3 197 194 53
3 197 194 191
3 197 189 191
3 198 175 199
3 175 199 50
3 198 199 50
3 198 175 50
3 198 174 50
3 200 109 101
3 117 27 28
3 200 69 71
3 200 101 71
3 200 109 71
3 201 59 61
3 202 126 128
3 202 203 128
3 202 170 126
3 204 205 206
3 207 205 206
3 207 204 206
3 207 208 206
3 209 102 71
3 209 70 71
3 209 123 70
3 209 118 71
3 209 118 102
3 209 118 210
3 209 211 210
3 209 123 211
3 212 213 211
3 214 67 68
3 214 123 67
3 214 118 68
3 214 118 210
3 214 67 70
3 214 123 70
3 215 154 216
3 215 154 155
3 172 217 218
3 219 217 218
3 219 172 218
3 220 221 222
3 220 155 222
3 223 131 73
3 132 131 73
3 223 132 131
3 223 129 131
3 224 136 137
3 224 139 136
3 224 136 138
3 224 139 138
3 225 226 227
3 225 228 227
3 225 196 226
3 225 192 227
3 225 228 192
3 133 228 226
3 225 133 135
3 225 196 133
3 225 196 135
3 225 134 9
3 225 196 134
3 229 133 228
3 229 133 79
3 229 79 78
3 229 1 78
3 229 93 78
3 229 190 78
3 229 190 93
3 193 190 191
3 229 193 191
3 229 193 190
3 230 151 152
3 231 151 150
3 231 230 151
3 232 153 152
3 232 233 153
3 234 148 144
3 234 148 153
3 234 117 144
3 234 117 27
3 234 27 28
3 234 117 28
3 235 219 218
3 235 219 217
3 236 161 160
3 237 130 131
3 237 73 74
3 237 131 73
3 237 238 130
3 237 132 73
3 237 132 130
3 238 75 74
3 237 238 74
3 239 240 241
3 242 240 241
3 242 239 240
3 243 239 241
3 242 243 241
3 244 47 48
3 244 47 65
3 244 63 65
3 244 163 47
3 178 91 24
3 245 178 24
3 245 178 112
3 91 24 26
3 246 166 44
3 246 166 82
3 246 82 57
3 246 57 56
3 246 54 57
3 246 54 138
3 246 137 138
3 246 137 44
3 247 110 37
3 247 36 177
3 247 36 37
3 248 247 37
3 248 247 110
3 249 203 128
3 249 127 128
3 250 146 147
3 250 172 147
3 250 172 217
3 250 145 147
3 250 219 172
3 250 146 143
3 250 145 143
3 250 235 219
3 208 122 121
3 251 208 121
3 251 120 121
3 251 208 206
3 252 176 26
3 252 25 26
3 252 26 177
3 252 253 177
3 252 253 25
3 176 253 177
3 252 176 253
3 254 255 256
3 254 255 187
3 257 179 181
3 257 179 180
3 257 184 180
3 257 258 181
3 257 255 180
3 257 258 255
3 184 255 180
3 184 258 255
3 257 184 258
3 259 15 16
3 259 182 16
3 259 16 17
3 259 186 17
3 259 185 182
3 260 1 2
3 260 3 2
3 260 79 3
3 261 194 53
3 261 193 53
3 261 193 194
3 262 52 227
3 262 51 227
3 262 51 52
3 262 52 6
3 262 96 6
3 262 96 52
3 262 195 6
3 263 94 6
3 263 195 94
3 263 262 6
3 263 262 227
3 262 195 227
3 263 195 227
3 264 265 266
3 267 100 98
3 268 200 69
3 268 69 71
3 269 200 109
3 269 59 60
3 269 109 60
3 269 200 71
3 269 268 200
3 269 29 71
3 269 60 29
3 270 234 62
3 271 211 210
3 271 209 210
3 271 213 211
3 271 213 272
3 273 202 170
3 273 202 203
3 273 167 170
3 273 173 170
3 273 173 167
3 273 274 167
3 275 273 167
3 275 273 274
3 276 277 272
3 276 213 272
3 276 213 211
3 276 212 211
3 276 212 213
3 278 205 206
3 278 279 205
3 278 120 206
3 280 207 171
3 280 207 208
3 280 168 169
3 280 168 171
3 281 282 127
3 283 282 127
3 283 281 282
3 283 207 171
3 283 207 205
3 283 207 204
3 284 173 168
3 285 286 287
3 285 286 288
3 289 155 222
3 289 215 155
3 289 215 290
3 242 215 290
3 289 220 222
3 289 220 155
3 289 220 290
3 289 215 154
3 291 292 293
3 294 155 157
3 294 221 155
3 294 221 222
3 294 155 222
3 294 215 290
3 295 243 241
3 295 243 239
3 296 297 290
3 296 242 290
3 289 297 290
3 296 289 297
3 298 223 129
3 298 299 223
3 300 72 75
3 300 72 73
3 300 238 75
3 300 76 75
3 300 72 76
3 76 12 13
3 300 12 13
3 300 76 13
3 300 76 12
3 72 76 13
3 301 298 299
3 302 188 92
3 302 188 192
3 302 135 134
3 302 225 134
3 302 225 135
3 302 225 192
3 302 225 9
3 303 188 92
3 303 302 92
3 303 188 192
3 303 302 192
3 303 225 192
3 303 302 225
3 188 192 93
3 304 103 105
3 304 103 107
3 304 108 107
3 304 103 108
3 305 246 138
3 305 246 54
3 305 54 55
3 305 55 57
3 306 54 58
3 307 308 108
3 307 108 309
3 310 311 231
3 310 231 230
3 310 311 230
3 312 311 313
3 312 311 230
3 314 233 230
3 314 232 233
3 314 232 152
3 314 151 152
3 314 230 151
3 292 297 287
3 315 297 287
3 315 292 287
3 315 292 297
3 315 289 297
3 315 242 290
3 315 289 290
3 316 292 293
3 317 296 318
3 317 242 240
3 317 296 297
3 317 296 242
3 317 289 297
3 317 289 220
3 317 296 289
3 296 289 220
3 319 292 287
3 319 292 240
3 319 286 287
3 320 236 161
3 320 161 160
3 320 236 160
3 321 320 236
3 322 63 48
3 322 244 48
3 322 244 63
3 322 47 48
3 322 163 47
3 322 244 163
3 323 324 114
3 323 325 324
3 323 326 324
3 325 326 324
3 327 111 112
3 327 113 111
3 327 113 114
3 327 323 114
3 327 114 115
3 328 247 110
3 329 36 37
3 329 247 37
3 329 247 36
3 329 36 177
3 330 329 247
3 330 328 247
3 330 329 328
3 330 329 177
3 331 110 112
3 331 248 110
3 331 110 37
3 331 91 37
3 331 248 37
3 331 178 112
3 331 178 91
3 332 254 185
3 332 254 333
3 328 114 110
3 334 276 277
3 334 276 212
3 335 183 266
3 336 265 266
3 335 336 266
3 335 183 182
3 335 183 179
3 335 181 266
3 183 181 266
3 337 255 187
3 337 184 255
3 337 254 184
3 255 187 180
3 337 187 180
3 337 255 180
3 337 184 180
3 338 255 256
3 338 258 255
3 282 127 125
3 339 127 125
3 339 282 125
3 339 282 127
3 260 95 2
3 340 260 95
3 340 96 30
3 96 30 31
3 340 96 31
3 340 95 30
3 340 95 31
3 341 95 32
3 261 260 193
3 10 4 5
3 341 10 4
3 341 32 4
3 341 95 4
3 341 260 79
3 10 0 4
3 341 10 0
3 341 95 0
3 341 133 226
3 341 226 79
3 341 133 79
3 342 52 53
3 342 51 53
3 342 51 52
3 342 261 53
3 342 261 343
3 340 261 343
3 342 96 52
3 342 343 96
3 251 120 206
3 340 343 96
3 344 96 31
3 344 340 31
3 344 343 96
3 344 261 343
3 344 340 261
3 344 341 195
3 344 261 195
3 345 51 227
3 345 51 53
3 346 264 347
3 346 348 347
3 349 264 266
3 349 181 266
3 349 258 181
3 350 108 107
3 350 307 309
3 350 307 108
3 351 307 308
3 352 100 98
3 353 267 100
3 353 352 100
3 353 352 267
3 354 351 350
3 355 356 357
3 358 116 146
3 358 172 146
3 358 172 116
3 358 116 69
3 358 268 69
3 358 172 218
3 358 268 218
3 359 217 218
3 359 235 218
3 359 235 217
3 359 235 360
3 359 268 218
3 359 219 218
3 359 269 268
3 359 201 59
3 359 269 59
3 361 148 149
3 361 250 235
3 361 270 149
3 361 270 235
3 361 235 217
3 361 250 217
3 361 145 144
3 361 148 144
3 361 250 145
3 270 235 360
3 362 214 210
3 362 212 203
3 363 212 203
3 363 249 203
3 334 212 203
3 363 334 203
3 364 275 167
3 275 167 169
3 364 167 169
3 364 275 169
3 275 277 169
3 364 277 169
3 364 171 169
3 364 334 277
3 364 363 334
3 278 365 279
3 366 278 279
3 366 278 365
3 367 365 279
3 366 367 279
3 366 367 365
3 366 279 205
3 366 367 205
3 366 205 206
3 366 204 206
3 366 204 205
3 366 278 206
3 368 365 279
3 368 278 279
3 368 278 365
3 345 197 53
3 368 369 279
3 370 119 122
3 370 280 168
3 370 284 168
3 370 208 122
3 370 280 208
3 371 125 126
3 371 127 125
3 371 126 128
3 371 127 128
3 372 283 171
3 372 283 281
3 372 281 127
3 372 283 127
3 372 249 127
3 372 363 249
3 372 364 363
3 372 334 249
3 372 364 171
3 372 364 334
3 373 173 90
3 373 284 173
3 373 370 284
3 373 89 90
3 374 375 216
3 374 215 216
3 374 242 215
3 376 377 149
3 378 376 379
3 378 376 377
3 380 381 382
3 383 377 201
3 383 201 384
3 385 291 239
3 385 291 292
3 385 292 293
3 385 291 293
3 386 380 382
3 386 295 382
3 387 220 290
3 388 294 290
3 387 388 389
3 387 289 290
3 387 289 220
3 387 296 290
3 387 296 289
3 387 296 220
3 388 296 290
3 387 388 296
3 388 296 389
3 387 220 221
3 390 388 243
3 390 294 215
3 390 388 294
3 391 390 243
3 391 390 298
3 391 388 243
3 391 390 388
3 392 393 165
3 354 307 309
3 394 395 396
3 354 307 397
3 398 129 130
3 399 129 130
3 399 398 130
3 399 398 129
3 399 301 375
3 399 398 375
3 399 300 238
3 399 238 130
3 400 11 14
3 400 14 12
3 400 11 12
3 400 301 299
3 400 399 301
3 400 299 223
3 400 300 12
3 400 223 132
3 400 399 300
3 400 132 73
3 400 223 73
3 400 300 73
3 401 92 78
3 401 77 78
3 401 77 8
3 402 54 138
3 402 305 138
3 402 305 54
3 306 305 54
3 402 306 54
3 402 306 305
3 403 395 396
3 403 306 396
3 404 308 108
3 404 304 108
3 404 304 105
3 404 304 103
3 404 405 105
3 406 234 153
3 406 270 234
3 406 234 62
3 406 407 62
3 406 407 270
3 406 408 148
3 406 62 27
3 406 234 27
3 407 62 61
3 406 62 61
3 406 407 61
3 409 233 153
3 409 232 153
3 409 232 233
3 409 406 153
3 409 406 408
3 409 314 148
3 409 408 148
3 409 314 408
3 410 231 150
3 410 314 231
3 410 310 231
3 411 242 240
3 411 319 240
3 385 292 240
3 412 321 320
3 412 159 160
3 412 320 160
3 412 286 288
3 412 288 159
3 413 323 325
3 414 114 110
3 414 328 110
3 414 324 114
3 415 255 256
3 415 254 256
3 415 254 255
3 338 254 255
3 416 253 177
3 416 326 253
3 417 253 25
3 417 326 253
3 417 325 326
3 418 332 333
3 419 186 187
3 419 254 187
3 419 337 254
3 419 259 186
3 419 259 185
3 419 184 185
3 419 337 184
3 419 254 184
3 419 254 185
3 419 185 15
3 419 259 15
3 259 185 15
3 420 258 255
3 420 184 255
3 420 338 255
3 420 257 184
3 420 254 255
3 420 254 184
3 420 258 181
3 420 257 181
3 420 184 182
3 420 419 254
3 421 263 94
3 341 263 195
3 421 341 263
3 421 94 9
3 421 341 226
3 421 196 9
3 421 196 226
3 421 263 227
3 421 226 227
3 421 263 226
3 422 261 260
3 422 341 260
3 422 344 261
3 422 344 341
3 422 340 261
3 422 260 193
3 422 261 193
3 422 340 260
3 422 260 95
3 422 340 95
3 423 263 195
3 423 261 193
3 423 421 263
3 423 228 226
3 423 263 226
3 423 228 227
3 423 421 226
3 423 192 227
3 423 228 192
3 423 229 193
3 423 229 190
3 423 229 228
3 423 193 190
3 423 189 192
3 423 197 192
3 423 197 189
3 423 133 226
3 423 229 133
3 424 339 279
3 424 279 205
3 424 367 205
3 424 339 282
3 424 339 425
3 424 339 127
3 424 127 124
3 424 124 125
3 424 127 125
3 339 124 125
3 424 283 127
3 424 283 282
3 424 283 205
3 424 204 205
3 424 283 204
3 426 356 427
3 426 355 356
3 428 426 429
3 428 356 427
3 428 355 356
3 428 426 355
3 430 351 350
3 430 350 107
3 430 108 107
3 430 350 108
3 431 351 397
3 431 351 432
3 431 428 429
3 431 397 427
3 431 354 351
3 354 351 397
3 431 428 427
3 433 354 351
3 433 351 350
3 434 435 436
3 434 387 317
3 434 317 436
3 434 317 296
3 434 387 296
3 435 318 436
3 434 435 318
3 437 359 360
3 437 359 59
3 437 201 59
3 437 235 360
3 437 359 235
3 438 407 61
3 273 274 203
3 439 274 203
3 362 274 203
3 439 362 203
3 439 362 274
3 439 362 210
3 439 271 210
3 439 271 272
3 440 363 249
3 440 363 334
3 440 249 203
3 440 212 203
3 440 334 212
3 441 424 367
3 441 424 425
3 441 367 279
3 441 424 339
3 442 335 183
3 442 183 182
3 442 420 182
3 442 182 16
3 442 179 16
3 442 443 444
3 445 443 185
3 442 445 443
3 443 185 15
3 442 444 446
3 442 335 446
3 447 119 120
3 447 370 119
3 447 278 120
3 447 368 278
3 447 373 370
3 447 368 369
3 448 373 90
3 448 447 369
3 448 447 373
3 449 369 279
3 449 339 279
3 449 339 425
3 449 441 425
3 449 441 339
3 449 441 279
3 450 288 159
3 450 285 159
3 450 285 288
3 450 158 159
3 450 162 159
3 450 162 158
3 450 375 162
3 450 374 375
3 451 285 287
3 451 450 285
3 451 450 374
3 451 315 287
3 451 374 215
3 451 315 242
3 451 374 242
3 451 242 286
3 452 380 381
3 452 378 381
3 452 426 429
3 453 291 239
3 453 385 239
3 453 385 291
3 453 291 293
3 453 316 293
3 454 385 292
3 454 292 240
3 454 385 240
3 454 292 297
3 454 317 240
3 454 317 297
3 454 385 239
3 455 295 382
3 455 386 382
3 455 386 295
3 455 295 241
3 455 239 241
3 455 295 239
3 455 386 239
3 456 81 165
3 456 392 165
3 456 57 165
3 456 305 57
3 456 305 136
3 457 392 458
3 459 97 99
3 459 55 165
3 460 301 298
3 460 298 157
3 460 375 216
3 460 301 375
3 390 298 157
3 460 154 157
3 460 154 216
3 461 401 92
3 461 77 8
3 461 401 8
3 461 134 8
3 461 302 134
3 461 302 92
3 462 431 432
3 462 431 429
3 462 351 432
3 462 307 397
3 462 351 307
3 462 307 432
3 462 463 432
3 462 464 429
3 462 464 463
3 465 404 306
3 465 306 54
3 465 402 54
3 465 402 306
3 465 54 138
3 465 402 138
3 403 402 306
3 404 403 139
3 465 404 139
3 404 403 306
3 465 139 138
3 403 224 139
3 466 104 105
3 405 104 105
3 466 405 105
3 466 405 104
3 467 233 139
3 467 404 139
3 467 404 405
3 468 409 408
3 468 463 408
3 467 464 408
3 464 463 408
3 468 409 233
3 468 467 405
3 468 467 233
3 468 466 405
3 469 464 408
3 469 406 408
3 469 406 407
3 469 376 379
3 469 438 407
3 470 410 314
3 470 148 150
3 470 148 149
3 470 314 148
3 470 376 149
3 470 469 149
3 406 148 149
3 470 406 148
3 469 406 149
3 470 469 406
3 471 398 375
3 471 391 298
3 471 298 129
3 471 398 129
3 472 327 323
3 472 323 325
3 472 413 323
3 473 414 324
3 473 330 328
3 473 414 328
3 473 326 324
3 473 416 326
3 416 326 324
3 473 416 324
3 473 416 177
3 474 254 333
3 474 415 254
3 474 338 256
3 474 415 256
3 474 475 333
3 474 346 333
3 346 348 333
3 418 348 333
3 476 330 329
3 476 416 330
3 476 329 177
3 476 253 177
3 476 416 253
3 476 473 416
3 473 416 330
3 477 416 326
3 477 326 253
3 477 416 253
3 478 245 24
3 478 24 25
3 478 417 25
3 478 472 245
3 478 472 413
3 478 413 325
3 478 417 325
3 479 443 444
3 479 348 347
3 479 418 348
3 480 418 348
3 480 479 348
3 480 479 445
3 480 445 418
3 346 475 348
3 481 346 475
3 482 332 185
3 482 418 332
3 482 445 418
3 482 185 15
3 482 443 15
3 482 445 185
3 482 445 443
3 482 479 443
3 479 445 443
3 483 345 53
3 483 423 197
3 483 197 53
3 484 426 355
3 484 428 381
3 355 357 485
3 484 357 485
3 484 380 381
3 486 351 432
3 486 430 351
3 486 463 432
3 486 351 308
3 487 458 488
3 489 487 458
3 489 392 393
3 489 392 458
3 490 489 458
3 489 487 353
3 490 487 353
3 490 459 394
3 490 353 267
3 491 350 309
3 491 354 309
3 491 433 350
3 491 433 354
3 491 307 309
3 491 354 307
3 492 377 149
3 492 377 379
3 469 438 379
3 492 148 149
3 492 361 148
3 492 361 270
3 493 407 270
3 493 492 270
3 493 270 62
3 493 270 360
3 493 407 62
3 493 492 377
3 493 437 360
3 493 437 201
3 493 377 201
3 383 378 384
3 494 383 384
3 383 378 377
3 494 383 201
3 495 439 274
3 495 439 272
3 495 276 272
3 495 274 167
3 495 276 277
3 495 275 169
3 495 275 167
3 495 275 274
3 495 275 277
3 495 277 169
3 496 276 211
3 496 276 212
3 496 362 212
3 496 213 211
3 496 276 213
3 496 123 211
3 496 214 123
3 496 362 214
3 497 448 369
3 497 448 373
3 497 449 369
3 497 89 90
3 497 373 89
3 497 448 90
3 497 88 89
3 497 173 88
3 497 339 124
3 497 449 339
3 497 124 126
3 497 173 126
3 498 375 162
3 498 471 375
3 236 161 162
3 498 236 162
3 498 236 161
3 499 435 436
3 499 435 318
3 499 452 384
3 499 452 426
3 499 434 318
3 499 484 380
3 499 484 426
3 500 292 297
3 500 454 292
3 500 316 292
3 500 317 436
3 500 317 297
3 500 454 317
3 500 453 316
3 501 453 239
3 501 454 239
3 501 317 318
3 501 454 317
3 501 500 453
3 501 318 436
3 501 500 436
3 502 503 488
3 502 504 488
3 502 503 505
3 487 506 488
3 507 506 488
3 507 487 488
3 507 487 506
3 507 503 488
3 503 487 488
3 490 487 506
3 508 503 505
3 508 509 505
3 510 509 505
3 510 511 505
3 512 388 243
3 512 510 509
3 513 410 310
3 310 311 313
3 504 310 313
3 513 504 310
3 514 38 39
3 514 81 39
3 514 456 81
3 514 140 38
3 514 42 41
3 514 164 137
3 514 142 41
3 514 142 137
3 514 164 42
3 514 137 42
3 515 392 458
3 515 457 392
3 515 457 458
3 515 487 488
3 515 487 458
3 516 305 136
3 516 456 136
3 516 456 305
3 516 456 392
3 457 456 392
3 516 402 305
3 517 97 98
3 517 518 97
3 517 100 98
3 517 267 98
3 517 352 98
3 517 352 100
3 517 352 267
3 519 462 429
3 519 356 427
3 519 429 381
3 519 428 381
3 519 357 520
3 519 357 427
3 519 356 357
3 519 484 381
3 519 484 357
3 519 484 428
3 521 462 464
3 521 467 464
3 521 404 139
3 521 404 403
3 521 467 139
3 521 404 308
3 521 462 432
3 521 486 308
3 521 486 351
3 521 351 432
3 522 107 104
3 522 430 104
3 522 430 107
3 522 466 104
3 522 486 430
3 522 468 466
3 522 468 463
3 523 467 139
3 523 467 233
3 523 409 314
3 523 314 408
3 523 409 408
3 523 467 408
3 524 469 408
3 524 469 464
3 524 519 429
3 524 378 379
3 524 469 379
3 525 410 150
3 525 470 150
3 525 470 410
3 525 376 150
3 525 470 376
3 525 469 376
3 525 470 469
3 525 378 376
3 526 243 241
3 526 242 241
3 526 242 243
3 526 391 243
3 526 471 391
3 526 388 243
3 526 242 290
3 526 242 215
3 526 390 388
3 526 390 215
3 527 472 327
3 527 178 112
3 527 327 112
3 527 245 178
3 527 472 245
3 528 338 254
3 528 474 338
3 528 474 256
3 528 474 475
3 528 475 258
3 528 338 258
3 528 254 185
3 528 254 255
3 528 338 255
3 528 420 255
3 528 420 338
3 529 444 446
3 529 479 444
3 479 530 347
3 529 479 530
3 529 530 336
3 530 336 265
3 529 335 446
3 529 335 336
3 529 531 264
3 530 531 347
3 530 531 264
3 532 442 445
3 532 481 445
3 532 481 442
3 532 529 530
3 532 479 443
3 532 443 444
3 532 479 444
3 532 529 444
3 533 475 258
3 533 346 475
3 533 481 346
3 533 346 264
3 533 349 258
3 533 349 264
3 533 531 264
3 533 531 346
3 531 264 265
3 534 346 347
3 534 346 264
3 534 531 347
3 534 531 346
3 535 483 345
3 535 423 261
3 535 483 423
3 535 261 195
3 535 423 195
3 535 423 197
3 535 263 195
3 535 423 263
3 535 197 192
3 535 345 227
3 535 423 227
3 535 192 227
3 536 393 165
3 536 489 165
3 536 489 393
3 536 490 459
3 536 490 489
3 536 393 99
3 536 459 165
3 536 459 99
3 537 490 458
3 537 490 394
3 537 396 458
3 537 394 396
3 537 395 396
3 537 394 395
3 537 487 506
3 537 490 487
3 395 506 396
3 537 395 506
3 537 394 267
3 490 394 267
3 538 459 394
3 538 459 97
3 538 394 267
3 538 518 97
3 538 517 267
3 538 517 518
3 539 492 377
3 539 377 379
3 539 492 379
3 539 438 379
3 539 494 201
3 539 379 384
3 539 494 384
3 539 201 61
3 539 438 61
3 540 498 471
3 540 471 391
3 540 526 391
3 540 526 471
3 540 526 242
3 540 451 242
3 540 242 286
3 540 451 286
3 540 411 242
3 540 498 411
3 541 498 162
3 541 236 162
3 542 386 380
3 542 455 380
3 542 380 382
3 542 386 382
3 542 380 318
3 542 499 318
3 542 499 380
3 542 501 318
3 542 452 380
3 542 452 378
3 542 501 453
3 542 378 384
3 542 499 384
3 542 383 384
3 542 383 378
3 543 484 380
3 543 499 380
3 543 434 318
3 543 484 485
3 543 484 355
3 543 296 318
3 543 296 389
3 543 387 389
3 543 387 296
3 543 434 387
3 355 389 485
3 543 389 485
3 543 355 485
3 543 389 221
3 543 387 221
3 544 506 520
3 544 507 506
3 545 390 157
3 545 512 388
3 545 294 157
3 545 390 388
3 512 388 389
3 546 487 353
3 546 489 353
3 546 100 99
3 546 353 100
3 546 393 99
3 546 489 393
3 546 352 100
3 546 353 352
3 547 503 487
3 547 507 503
3 547 508 503
3 547 544 507
3 548 357 520
3 548 544 520
3 548 547 508
3 548 357 485
3 548 484 485
3 548 484 357
3 548 547 507
3 549 510 511
3 549 548 520
3 549 519 520
3 549 519 381
3 512 389 485
3 550 389 485
3 550 512 485
3 550 388 389
3 550 512 388
3 550 388 243
3 550 512 243
3 550 510 509
3 550 512 509
3 550 512 510
3 550 549 510
3 551 511 505
3 551 513 511
3 551 502 505
3 551 502 504
3 551 513 504
3 513 502 504
3 551 513 502
3 551 544 520
3 551 544 506
3 551 502 506
3 552 456 392
3 552 457 392
3 552 457 456
3 552 514 456
3 552 141 137
3 552 38 41
3 552 141 41
3 552 141 38
3 552 140 38
3 552 140 141
3 552 514 140
3 553 537 396
3 553 537 506
3 554 515 457
3 554 553 488
3 553 515 488
3 554 553 515
3 554 457 458
3 554 396 458
3 555 519 462
3 555 431 397
3 555 462 397
3 555 395 397
3 555 519 427
3 555 431 427
3 556 486 463
3 556 522 463
3 556 522 486
3 557 410 314
3 557 523 314
3 557 314 231
3 557 410 231
3 557 310 231
3 557 410 310
3 557 523 467
3 557 467 139
3 557 523 139
3 557 233 230
3 557 523 233
3 557 224 139
3 557 523 224
3 557 312 230
3 557 312 310
3 557 312 224
3 558 524 519
3 558 519 520
3 558 549 511
3 558 519 381
3 558 549 381
3 558 551 520
3 558 519 429
3 558 524 381
3 558 524 429
3 559 378 379
3 559 524 379
3 559 378 381
3 559 524 381
3 559 558 381
3 559 558 524
3 559 379 384
3 559 452 384
3 559 429 381
3 559 452 429
3 559 524 429
3 559 469 379
3 559 524 469
3 559 539 384
3 560 474 333
3 560 474 475
3 560 418 333
3 560 418 348
3 560 475 348
3 528 481 445
3 560 528 445
3 560 346 348
3 560 346 475
3 560 482 445
3 560 482 185
3 560 445 185
3 528 445 185
3 560 528 185
3 561 528 445
3 561 528 420
3 561 528 481
3 561 442 420
3 561 481 442
3 561 528 258
3 561 528 475
3 561 481 475
3 561 533 258
3 561 533 475
3 561 533 481
3 562 531 347
3 562 534 347
3 562 534 531
3 562 479 347
3 562 479 530
3 562 532 530
3 562 532 479
3 562 264 265
3 562 531 265
3 562 531 264
3 562 530 265
3 562 530 264
3 563 236 162
3 563 498 162
3 563 498 236
3 563 541 236
3 563 541 498
3 563 321 236
3 563 498 411
3 563 540 411
3 563 411 321
3 564 294 221
3 564 545 294
3 564 389 221
3 564 545 512
3 564 548 485
3 564 389 485
3 565 550 510
3 565 548 485
3 565 549 548
3 565 550 485
3 565 549 381
3 565 510 511
3 565 549 511
3 566 516 224
3 566 552 516
3 566 552 141
3 566 552 137
3 566 136 137
3 566 142 141
3 566 136 138
3 566 224 138
3 566 516 402
3 516 403 224
3 566 516 403
3 566 403 402
3 566 139 138
3 566 224 139
3 567 504 313
3 567 504 488
3 567 553 488
3 567 515 488
3 567 553 515
3 567 312 310
3 567 502 506
3 567 553 506
3 567 513 310
3 567 551 502
3 567 551 513
3 567 551 506
3 568 552 457
3 568 552 516
3 568 554 457
3 568 457 396
3 568 457 392
3 568 516 392
3 568 457 458
3 568 554 458
3 568 554 396
3 568 553 396
3 568 554 553
3 568 516 224
3 568 553 224
3 569 558 524
3 569 524 410
3 569 410 310
3 569 513 310
3 569 513 410
3 569 513 511
3 569 549 511
3 569 558 511
3 569 551 513
3 569 558 551
3 570 412 286
3 570 412 321
3 570 411 321
3 570 319 286
3 570 411 319
3 571 512 509
3 571 564 509
3 571 564 512
3 571 508 509
3 571 564 548
3 571 548 544
3 571 547 508
3 571 547 544
3 571 548 547
3 572 312 313
3 572 567 312
3 572 567 504
3 572 504 310
3 572 311 313
3 572 311 230
3 572 310 230
3 572 231 230
3 572 310 231
