ply
format ascii 1.0
comment PCL generated
element vertex 138
property float x
property float y
property float z
property uchar red
property uchar green
property uchar blue
element camera 1
property float view_px
property float view_py
property float view_pz
property float x_axisx
property float x_axisy
property float x_axisz
property float y_axisx
property float y_axisy
property float y_axisz
property float z_axisx
property float z_axisy
property float z_axisz
property float focal
property float scalex
property float scaley
property float centerx
property float centery
property int viewportx
property int viewporty
property float k1
property float k2
end_header
-16.952 3.697 -0.40700001 191 98 39
-16.938999 3.6989999 -0.40400001 133 70 26
-16.944 3.7079999 -0.40900001 45 27 17
-16.951 3.721 -0.41499999 220 133 53
-16.937 3.724 -0.40599999 163 117 101
-16.972 3.7939999 -0.41 198 114 50
-16.957001 3.783 -0.41100001 91 55 33
-16.974001 3.7839999 -0.412 192 129 78
-16.965 3.7809999 -0.41299999 168 112 65
-16.965 3.7090001 -0.39399999 147 53 0
-16.966999 3.7030001 -0.38699999 149 82 30
-16.957001 3.7190001 -0.38299999 117 60 17
-16.961 3.707 -0.38299999 133 75 35
-16.951 3.8010001 -0.41100001 88 51 22
-16.951 3.8110001 -0.421 178 122 75
-16.948 3.799 -0.41100001 255 168 91
-16.944 3.8010001 -0.41800001 226 185 141
-16.973 3.806 -0.42899999 106 57 17
-16.971001 3.799 -0.412 121 80 36
-16.972 3.8080001 -0.42899999 255 218 160
-16.966 3.7969999 -0.41999999 158 114 69
-16.969 3.802 -0.43000001 186 122 76
-16.938 3.7090001 -0.398 208 149 83
-16.927999 3.711 -0.38800001 233 128 37
-16.966999 3.7780001 -0.41999999 168 115 65
-16.952999 3.6930001 -0.391 159 79 30
-16.959999 3.6930001 -0.40700001 148 78 29
-16.952999 3.6949999 -0.40000001 123 68 29
-16.944 3.724 -0.40900001 215 122 55
-16.948 3.7449999 -0.405 169 101 40
-16.943001 3.7349999 -0.40099999 96 46 23
-16.941 3.7869999 -0.44 208 164 117
-16.954 3.7850001 -0.44400001 171 125 76
-16.950001 3.7920001 -0.447 229 133 75
-16.955999 3.8 -0.40900001 199 140 96
-16.955999 3.7950001 -0.41100001 191 124 69
-16.968 3.803 -0.43099999 171 115 68
-16.955 3.8010001 -0.43599999 204 103 33
-16.952 3.8099999 -0.428 77 33 4
-16.948 3.799 -0.44100001 131 82 52
-16.944 3.8069999 -0.42399999 163 79 9
-16.936001 3.7969999 -0.426 221 175 123
-16.945 3.8 -0.433 255 174 111
-16.966 3.7909999 -0.414 196 144 104
-16.973 3.786 -0.414 141 71 19
-16.971001 3.7739999 -0.43200001 147 94 54
-16.951 3.727 -0.391 171 92 36
-16.948 3.7249999 -0.40900001 175 93 37
-16.952999 3.7219999 -0.41 110 80 46
-16.959 3.7179999 -0.41100001 110 58 21
-16.948999 3.753 -0.40900001 180 100 47
-16.954 3.75 -0.40799999 99 75 63
-16.945999 3.698 -0.40400001 143 79 35
-16.938999 3.7309999 -0.39899999 218 162 101
-16.929001 3.7420001 -0.39399999 231 177 131
-16.945999 3.71 -0.37900001 125 41 0
-16.950001 3.724 -0.37799999 168 122 63
-16.947001 3.717 -0.38100001 146 86 36
-16.940001 3.724 -0.37900001 216 153 112
-16.955 3.6949999 -0.39899999 212 148 74
-16.968 3.7079999 -0.40799999 183 129 67
-16.965 3.71 -0.403 197 126 74
-16.966 3.7880001 -0.43799999 206 137 80
-16.966 3.7750001 -0.44 142 74 27
-16.959 3.802 -0.43099999 228 141 72
-16.959999 3.7909999 -0.44 187 114 63
-16.950001 3.7490001 -0.38800001 219 125 61
-16.948 3.7349999 -0.39199999 204 142 103
-16.951 3.747 -0.382 212 148 87
-16.948999 3.753 -0.38100001 150 75 35
-16.961 3.8 -0.414 177 107 55
-16.962999 3.7869999 -0.41999999 230 125 67
-16.948 3.6949999 -0.389 173 115 75
-16.941999 3.6989999 -0.39199999 189 127 86
-16.943001 3.697 -0.37799999 153 104 46
-16.936001 3.7030001 -0.39199999 150 97 45
-16.934999 3.7130001 -0.39199999 180 116 78
-16.951 3.733 -0.405 168 102 44
-16.948 3.727 -0.40700001 113 59 15
-16.948999 3.7349999 -0.40400001 163 105 68
-16.943001 3.747 -0.39399999 154 76 30
-16.959 3.779 -0.41600001 178 118 58
-16.955 3.7709999 -0.428 168 122 96
-16.937 3.743 -0.38699999 190 145 126
-16.934999 3.734 -0.382 152 112 51
-16.943001 3.733 -0.37900001 206 154 97
-16.941999 3.777 -0.43099999 234 174 124
-16.952 3.7060001 -0.38100001 141 82 38
-16.955999 3.701 -0.38499999 246 204 144
-16.962999 3.7130001 -0.40900001 197 110 56
-16.968 3.7060001 -0.40400001 204 99 31
-16.968 3.698 -0.40700001 147 83 37
-16.955 3.79 -0.442 197 141 80
-16.940001 3.7909999 -0.43099999 183 122 65
-16.941 3.7880001 -0.428 148 96 59
-16.943001 3.796 -0.419 153 91 34
-16.947001 3.74 -0.384 194 143 98
-16.933001 3.734 -0.38800001 254 148 64
-16.936001 3.743 -0.389 222 120 46
-16.943001 3.753 -0.39199999 102 50 11
-16.931 3.714 -0.389 193 97 36
-16.934999 3.7130001 -0.37900001 168 107 63
-16.940001 3.71 -0.37900001 212 158 98
-16.950001 3.7349999 -0.38 175 113 72
-16.952 3.7160001 -0.39399999 148 60 10
-16.955999 3.71 -0.40700001 163 92 46
-16.950001 3.7249999 -0.40400001 151 94 49
-16.937 3.724 -0.40400001 200 104 53
-16.952 3.698 -0.38699999 204 144 81
-16.948 3.697 -0.38 180 118 77
-16.968 3.7019999 -0.39300001 136 71 17
-16.947001 3.7379999 -0.38699999 200 129 85
-16.945999 3.7969999 -0.414 165 109 14
-16.947001 3.7820001 -0.414 246 184 101
-16.934999 3.707 -0.384 223 140 62
-16.959999 3.71 -0.40900001 175 95 36
-16.959999 3.707 -0.40700001 148 85 41
-16.951 3.721 -0.403 205 129 79
-16.952 3.717 -0.403 230 128 64
-16.947001 3.7720001 -0.433 135 80 41
-16.941999 3.767 -0.428 210 149 84
-16.944 3.7739999 -0.428 152 99 67
-16.959999 3.7780001 -0.41999999 156 107 64
-16.940001 3.7869999 -0.417 126 80 30
-16.952999 3.786 -0.414 167 117 84
-16.948999 3.7320001 -0.38800001 234 140 68
-16.950001 3.7320001 -0.382 163 102 45
-16.954 3.7750001 -0.42300001 181 105 53
-16.938999 3.74 -0.39500001 227 175 118
-16.934999 3.724 -0.39399999 134 94 42
-16.954 3.8010001 -0.41299999 211 154 101
-16.943001 3.7909999 -0.417 205 137 72
-16.943001 3.7750001 -0.41600001 152 98 60
-16.948 3.777 -0.419 158 97 43
-16.934 3.7119999 -0.382 162 123 64
-16.948999 3.7720001 -0.42199999 199 140 98
-16.937 3.724 -0.38699999 198 153 134
-16.937 3.7249999 -0.384 233 129 68
0 0 0 1 0 0 0 1 0 0 0 1 0 0 0 0 0 138 1 0 0
