ply
format ascii 1.0
comment PCL generated
element vertex 80
property float x
property float y
property float z
property uchar red
property uchar green
property uchar blue
element camera 1
property float view_px
property float view_py
property float view_pz
property float x_axisx
property float x_axisy
property float x_axisz
property float y_axisx
property float y_axisy
property float y_axisz
property float z_axisx
property float z_axisy
property float z_axisz
property float focal
property float scalex
property float scaley
property float centerx
property float centery
property int viewportx
property int viewporty
property float k1
property float k2
end_header
6.1739998 8.7930002 -0.82999998 112 88 76
6.1760001 8.7889996 -0.829 138 75 8
6.1859999 8.7849998 -0.83099997 239 230 231
6.1599998 8.7950001 -0.824 227 202 182
6.138 8.8000002 -0.85399997 102 75 48
6.1430001 8.7869997 -0.86400002 56 40 43
6.125 8.7799997 -0.85500002 89 74 77
6.1409998 8.7980003 -0.85399997 114 60 16
6.1659999 8.7840004 -0.86500001 75 57 57
6.165 8.79 -0.87300003 79 59 60
6.171 8.7889996 -0.861 168 129 88
6.1630001 8.7690001 -0.84299999 124 90 63
6.151 8.7720003 -0.83200002 92 64 50
6.1570001 8.7650003 -0.84399998 78 58 47
6.1659999 8.7819996 -0.83099997 245 232 224
6.177 8.7869997 -0.83399999 251 243 240
6.1830001 8.7880001 -0.83600003 255 251 253
6.1420002 8.8030005 -0.84899998 80 53 42
6.138 8.8059998 -0.84500003 157 136 115
6.1409998 8.7729998 -0.83499998 145 90 36
6.132 8.7749996 -0.82800001 170 142 118
6.1259999 8.7779999 -0.84600002 134 105 73
6.1339998 8.7840004 -0.85600001 62 46 49
6.131 8.7770004 -0.84200001 139 111 89
6.1360002 8.7749996 -0.833 156 111 54
6.1300001 8.776 -0.82700002 130 98 73
6.1550002 8.7930002 -0.83099997 138 70 7
6.1440001 8.7770004 -0.824 112 85 68
6.158 8.7729998 -0.85000002 188 166 152
6.1599998 8.7790003 -0.847 188 150 103
6.1599998 8.7740002 -0.84600002 166 140 125
6.1339998 8.7950001 -0.85000002 164 145 130
6.1290002 8.7969999 -0.84600002 118 100 80
6.1300001 8.7790003 -0.833 191 161 133
6.1430001 8.7880001 -0.81900001 255 229 204
6.1339998 8.79 -0.83099997 159 135 111
6.1399999 8.7919998 -0.83499998 140 74 14
6.1389999 8.8009996 -0.838 129 112 105
6.1690001 8.7959995 -0.85100001 89 73 73
6.1609998 8.7930002 -0.87400001 63 47 50
6.1339998 8.7779999 -0.82300001 103 74 56
6.1399999 8.7729998 -0.82800001 154 92 41
6.1440001 8.7840004 -0.86199999 132 95 53
6.1459999 8.7779999 -0.84500003 202 165 146
6.131 8.7799997 -0.829 160 134 109
6.1479998 8.7860003 -0.824 255 234 207
6.1389999 8.783 -0.82200003 240 219 192
6.1550002 8.7880001 -0.82599998 255 236 213
6.165 8.7869997 -0.82800001 245 227 213
6.1729999 8.7889996 -0.83899999 137 120 110
6.1739998 8.7939997 -0.84600002 153 142 146
6.164 8.7889996 -0.861 81 61 62
6.1589999 8.7880001 -0.866 185 146 105
6.1389999 8.776 -0.82499999 133 112 85
6.1550002 8.7749996 -0.85000002 137 86 41
6.1409998 8.7799997 -0.84799999 150 98 50
6.1409998 8.783 -0.85600001 67 52 55
6.1420002 8.7980003 -0.84200001 148 83 25
6.1669998 8.7950001 -0.85100001 76 56 55
6.1409998 8.7790003 -0.84399998 153 117 93
6.132 8.7930002 -0.83600003 198 174 150
6.131 8.7919998 -0.83999997 255 235 211
6.1290002 8.79 -0.84399998 92 70 47
6.1339998 8.783 -0.82599998 253 233 208
6.1339998 8.7880001 -0.83099997 83 52 34
6.1620002 8.7840004 -0.83099997 223 207 194
6.152 8.7749996 -0.833 116 68 30
6.152 8.7779999 -0.85000002 187 158 140
6.1589999 8.7860003 -0.86500001 58 43 48
6.1560001 8.7910004 -0.85299999 144 138 140
6.1659999 8.7880001 -0.83499998 140 130 129
6.132 8.7810001 -0.85100001 114 86 46
6.1300001 8.7849998 -0.838 134 107 80
6.158 8.7849998 -0.82999998 183 165 145
6.1550002 8.7910004 -0.84399998 56 47 48
6.1539998 8.7819996 -0.85799998 126 98 76
6.1680002 8.79 -0.847 211 178 161
6.131 8.7869997 -0.83499998 195 167 143
6.1659999 8.7889996 -0.84200001 146 117 101
6.151 8.7869997 -0.86500001 53 38 41
0 0 0 1 0 0 0 1 0 0 0 1 0 0 0 0 0 80 1 0 0
