ply
format ascii 1.0
comment PCL generated
element vertex 74
property float x
property float y
property float z
property uchar red
property uchar green
property uchar blue
element camera 1
property float view_px
property float view_py
property float view_pz
property float x_axisx
property float x_axisy
property float x_axisz
property float y_axisx
property float y_axisy
property float y_axisz
property float z_axisx
property float z_axisy
property float z_axisz
property float focal
property float scalex
property float scaley
property float centerx
property float centery
property int viewportx
property int viewporty
property float k1
property float k2
end_header
7.9819999 -8.0839996 -0.91100001 67 40 23
8.0019999 -8.0740004 -0.92199999 54 6 0
7.9809999 -8.0839996 -0.917 59 7 0
8.0030003 -8.0790005 -0.89600003 73 32 0
8.0190001 -8.0710001 -0.88200003 185 142 91
8.0229998 -8.0760002 -0.88800001 94 34 0
8.0030003 -8.0710001 -0.88599998 97 55 33
7.9899998 -8.0790005 -0.88599998 93 40 0
7.994 -8.0839996 -0.89700001 104 38 4
7.974 -8.0749998 -0.88200003 123 67 40
7.973 -8.0769997 -0.88300002 120 64 31
7.9780002 -8.0799999 -0.889 164 125 94
8.0170002 -8.073 -0.91299999 44 16 4
8.0179996 -8.0719995 -0.91600001 77 35 13
8 -8.0740004 -0.91100001 97 82 75
7.9850001 -8.0780001 -0.91799998 130 76 42
7.9710002 -8.073 -0.90700001 81 36 15
7.9780002 -8.0790005 -0.92299998 37 6 1
7.9689999 -8.0690002 -0.90200001 78 30 7
7.9689999 -8.0699997 -0.88999999 39 12 1
7.973 -8.0749998 -0.89899999 94 62 39
7.9840002 -8.0780001 -0.90100002 109 53 18
7.9759998 -8.066 -0.89600003 192 139 107
7.9720001 -8.073 -0.884 210 134 84
8.0129995 -8.0550003 -0.90899998 100 42 4
8.0120001 -8.0539999 -0.91299999 109 62 34
8.0220003 -8.0649996 -0.89300001 111 50 6
8.0010004 -8.0780001 -0.90200001 150 102 79
8.0030003 -8.0760002 -0.90100002 104 62 40
7.9850001 -8.073 -0.93199998 18 3 0
7.9889998 -8.0740004 -0.92799997 58 1 0
7.9949999 -8.0670004 -0.93400002 65 27 6
8.0039997 -8.0670004 -0.92799997 51 10 0
8.0030003 -8.0550003 -0.91900003 67 25 1
7.9980001 -8.066 -0.93300003 54 44 35
8.0039997 -8.0570002 -0.91399997 92 40 18
7.9949999 -8.0559998 -0.91799998 50 25 18
7.9850001 -8.066 -0.93300003 59 24 5
8.0109997 -8.0690002 -0.889 57 39 39
8.0209999 -8.0640001 -0.88599998 101 41 17
8.0159998 -8.0620003 -0.88499999 68 37 9
8.0139999 -8.0679998 -0.88499999 83 58 38
8.0220003 -8.0670004 -0.88800001 87 65 54
7.987 -8.0769997 -0.90600002 90 57 38
7.9850001 -8.0799999 -0.89399999 76 49 42
7.9959998 -8.0570002 -0.90399998 83 37 14
7.9920001 -8.059 -0.912 99 49 22
8.0129995 -8.0550003 -0.903 97 37 0
8.0129995 -8.0550003 -0.88999999 112 48 10
8.0050001 -8.0570002 -0.88999999 78 27 0
8.0080004 -8.0559998 -0.88700002 173 132 86
7.9949999 -8.0570002 -0.89700001 89 39 14
7.9699998 -8.0690002 -0.90799999 65 19 4
7.973 -8.0690002 -0.91799998 21 2 0
7.9770002 -8.0679998 -0.91299999 116 92 80
7.9829998 -8.0640001 -0.91100001 57 13 0
7.9840002 -8.0649996 -0.90399998 81 35 12
8.0170002 -8.0699997 -0.90499997 103 48 17
8.0139999 -8.0679998 -0.91100001 59 10 0
8.0129995 -8.0609999 -0.903 83 26 0
8.0170002 -8.0559998 -0.89700001 102 40 0
8.0109997 -8.0640001 -0.88499999 86 32 4
8.0059996 -8.059 -0.898 91 41 16
7.9990001 -8.0609999 -0.88499999 93 37 10
7.9899998 -8.0710001 -0.88700002 156 81 24
7.9860001 -8.0620003 -0.88700002 130 93 41
7.987 -8.0600004 -0.898 128 84 57
7.9840002 -8.0629997 -0.89200002 43 16 7
7.9860001 -8.066 -0.93099999 17 0 0
7.9850001 -8.0640001 -0.91799998 31 11 4
7.9970002 -8.0679998 -0.92799997 65 27 8
7.9780002 -8.0679998 -0.92500001 59 24 5
7.9840002 -8.0740004 -0.88700002 87 52 14
7.9770002 -8.0670004 -0.88800001 119 66 35
0 0 0 1 0 0 0 1 0 0 0 1 0 0 0 0 0 74 1 0 0
