ply
format ascii 1.0
comment PCL generated
element vertex 624
property float x
property float y
property float z
property uchar red
property uchar green
property uchar blue
element face 2031
property list uchar int vertex_indices
end_header
-3.433 14.952 -1.004 91 74 80 
-3.439 14.953 -1.001 216 127 61 
-3.449 14.96 -1.016 151 98 54 
-3.43 14.946 -0.999 87 63 61 
-3.478 15.043 -0.762 89 43 19 
-3.473 15.04 -0.752 110 72 49 
-3.485 15.029 -0.77 149 87 46 
-3.435 14.952 -0.998 175 108 66 
-3.433 14.952 -0.998 109 44 2 
-3.445 14.965 -1.012 175 86 26 
-3.459 15.036 -0.746 201 142 100 
-3.453 15.043 -0.754 93 38 7 
-3.469 15.044 -0.757 67 37 26 
-3.379 14.952 -0.997 163 64 0 
-3.381 14.94 -1.008 133 110 94 
-3.381 14.943 -1.014 238 152 69 
-3.453 14.963 -0.958 194 103 30 
-3.447 14.962 -0.937 126 70 33 
-3.455 14.956 -0.958 176 117 75 
-3.44 15.009 -0.859 123 71 34 
-3.441 15.017 -0.848 151 95 58 
-3.451 15.013 -0.857 130 61 22 
-3.391 14.956 -1.025 246 150 76 
-3.382 14.958 -1.033 223 122 52 
-3.385 14.942 -1.012 164 110 64 
-3.449 14.967 -1.019 195 102 43 
-3.428 14.97 -1.011 192 95 26 
-3.464 15.038 -0.75 202 128 155 
-3.448 14.962 -1.008 163 69 7 
-3.434 14.966 -1.002 151 98 54 
-3.442 14.96 -0.984 252 167 86 
-3.479 15.032 -0.763 113 52 23 
-3.48 15.028 -0.765 216 149 97 
-3.473 15.04 -0.764 116 74 49 
-3.47 15.037 -0.766 139 94 55 
-3.388 14.951 -1.009 139 72 29 
-3.385 14.945 -0.996 210 124 47 
-3.462 15.016 -0.854 246 245 253 
-3.457 15.018 -0.836 88 39 7 
-3.387 14.987 -0.855 185 125 89 
-3.382 14.986 -0.849 132 55 11 
-3.398 15 -0.855 113 40 0 
-3.371 14.975 -0.866 199 98 30 
-3.388 14.972 -0.761 150 74 12 
-3.398 14.959 -0.755 135 72 28 
-3.398 14.981 -0.748 125 73 33 
-3.385 14.991 -0.755 93 36 7 
-3.396 15.003 -0.756 100 49 18 
-3.41 14.976 -0.746 77 45 34 
-3.414 14.995 -0.747 146 95 52 
-3.401 15.001 -0.757 164 76 12 
-3.412 15.003 -0.743 161 109 72 
-3.413 15.004 -0.743 110 91 85 
-3.417 15.005 -0.738 128 65 24 
-3.446 14.954 -0.967 216 162 116 
-3.446 14.949 -0.947 144 50 0 
-3.445 14.952 -0.951 171 119 71 
-3.447 14.951 -0.945 142 69 24 
-3.45 15.005 -0.866 114 56 18 
-3.426 14.963 -1.009 169 108 64 
-3.421 14.97 -1.013 69 33 19 
-3.384 14.96 -1.026 108 55 15 
-3.471 15.026 -0.745 138 95 60 
-3.46 15.008 -0.74 151 97 50 
-3.48 15.005 -0.738 94 33 2 
-3.478 15.006 -0.739 122 59 16 
-3.482 15.002 -0.743 124 81 46 
-3.443 14.962 -0.949 229 133 56 
-3.451 14.957 -0.984 221 143 69 
-3.452 14.96 -0.967 191 104 24 
-3.443 14.972 -0.953 144 82 45 
-3.386 14.984 -0.841 250 143 71 
-3.4 15.002 -0.843 209 149 112 
-3.475 15.043 -0.761 139 90 58 
-3.456 15.018 -0.828 121 79 57 
-3.45 15.016 -0.837 148 81 39 
-3.426 14.975 -1.006 197 104 43 
-3.452 15.014 -0.849 128 80 40 
-3.395 14.945 -0.882 124 79 50 
-3.399 14.944 -0.89 182 96 47 
-3.399 14.948 -0.883 86 70 55 
-3.388 14.961 -0.883 164 110 72 
-3.42 15.006 -0.739 148 105 71 
-3.4 14.972 -0.751 126 66 16 
-3.406 14.962 -0.756 111 47 0 
-3.406 14.958 -0.758 130 110 103 
-3.419 14.984 -0.745 163 105 55 
-3.409 14.992 -0.754 179 90 22 
-3.403 14.984 -0.751 104 45 15 
-3.427 14.954 -0.999 114 56 8 
-3.422 14.961 -0.984 221 149 101 
-3.382 14.957 -1.024 185 91 19 
-3.454 15.039 -0.752 139 58 0 
-3.471 15.027 -0.748 151 71 18 
-3.442 14.96 -0.982 135 87 39 
-3.451 14.958 -0.976 255 178 97 
-3.396 14.996 -0.848 170 76 15 
-3.478 15.032 -0.769 129 53 17 
-3.383 15.01 -0.77 115 69 33 
-3.38 14.997 -0.779 117 73 44 
-3.381 15.019 -0.78 200 110 47 
-3.384 14.995 -0.762 98 34 0 
-3.437 14.959 -0.982 101 81 83 
-3.396 14.963 -0.892 151 94 49 
-3.402 14.966 -0.897 253 146 42 
-3.385 14.969 -0.868 123 69 33 
-3.381 14.971 -0.87 84 35 3 
-3.379 14.971 -0.857 233 118 38 
-3.388 14.981 -0.879 103 84 69 
-3.38 14.976 -0.866 217 123 61 
-3.369 14.971 -0.869 101 45 8 
-3.368 14.973 -0.865 213 120 59 
-3.389 14.964 -0.882 157 80 28 
-3.388 14.981 -0.888 147 91 42 
-3.403 14.987 -0.904 80 40 14 
-3.4 14.976 -0.903 166 95 41 
-3.4 14.989 -0.922 106 103 112 
-3.436 15.014 -0.849 128 80 40 
-3.435 14.957 -0.957 210 142 93 
-3.39 14.964 -0.766 110 78 65 
-3.405 14.95 -0.767 77 49 25 
-3.395 14.961 -0.76 154 100 53 
-3.427 15.003 -0.743 236 181 142 
-3.424 15.001 -0.753 128 50 2 
-3.425 15.01 -0.743 175 117 79 
-3.463 15.028 -0.746 105 53 16 
-3.41 14.988 -0.751 177 104 53 
-3.392 14.982 -0.77 154 89 35 
-3.453 14.968 -0.905 124 70 34 
-3.466 14.959 -0.918 158 98 61 
-3.459 14.96 -0.901 160 96 58 
-3.449 14.97 -0.897 156 84 36 
-3.444 14.986 -0.899 98 36 0 
-3.437 14.96 -0.944 187 120 68 
-3.432 14.963 -0.936 204 142 93 
-3.443 14.961 -0.94 165 73 0 
-3.433 14.958 -0.949 103 45 21 
-3.45 14.957 -0.972 192 131 87 
-3.405 14.985 -0.972 181 117 73 
-3.403 14.975 -0.955 64 28 14 
-3.4 14.987 -0.972 118 108 109 
-3.436 14.985 -0.92 132 71 27 
-3.427 14.987 -0.913 62 35 26 
-3.441 14.994 -0.899 210 124 41 
-3.398 15 -0.85 158 71 28 
-3.395 15.002 -0.808 230 153 75 
-3.4 15.003 -0.816 133 84 51 
-3.396 15.014 -0.811 119 88 83 
-3.399 14.999 -0.798 137 91 57 
-3.401 14.989 -0.808 105 54 11 
-3.408 15.004 -0.819 187 92 26 
-3.408 15.007 -0.815 105 83 70 
-3.381 14.98 -0.856 176 80 19 
-3.385 14.975 -0.846 116 104 104 
-3.385 14.978 -0.849 156 87 48 
-3.46 15.015 -0.828 150 100 65 
-3.46 15 -0.84 92 51 29 
-3.462 15.01 -0.852 189 88 42 
-3.459 14.997 -0.834 166 101 43 
-3.457 15.008 -0.828 114 62 25 
-3.447 15.011 -0.836 158 108 75 
-3.444 15.01 -0.841 132 86 62 
-3.417 15.006 -0.748 169 93 33 
-3.42 15.005 -0.757 177 118 76 
-3.407 14.999 -0.758 111 72 65 
-3.418 15.002 -0.76 138 78 44 
-3.427 14.997 -0.758 206 95 16 
-3.427 14.961 -0.775 223 106 26 
-3.407 14.955 -0.761 235 168 113 
-3.431 14.976 -0.767 198 82 0 
-3.42 14.982 -0.756 209 144 102 
-3.425 14.988 -0.766 217 130 76 
-3.441 14.956 -0.967 153 104 61 
-3.433 14.958 -0.95 220 142 57 
-3.418 14.966 -0.988 197 84 8 
-3.42 14.967 -0.994 74 38 24 
-3.406 14.959 -0.996 218 106 22 
-3.419 14.968 -1 63 39 37 
-3.397 14.963 -0.997 195 86 0 
-3.397 14.96 -0.996 132 81 36 
-3.387 14.95 -0.993 80 44 32 
-3.385 14.945 -0.968 208 138 87 
-3.385 14.95 -0.966 82 71 65 
-3.385 14.947 -0.947 76 13 0 
-3.452 15.002 -0.866 143 72 28 
-3.444 14.993 -0.874 121 63 23 
-3.459 15 -0.861 145 52 11 
-3.446 14.992 -0.87 123 34 0 
-3.449 14.985 -0.866 106 66 40 
-3.441 14.999 -0.869 135 72 29 
-3.369 14.972 -0.863 131 101 77 
-3.38 14.975 -0.858 76 35 5 
-3.41 14.935 -0.941 127 83 48 
-3.417 14.935 -0.938 89 51 15 
-3.407 14.93 -0.943 159 99 63 
-3.391 14.976 -0.938 244 159 53 
-3.407 14.988 -0.929 218 156 107 
-3.398 14.962 -0.973 71 35 21 
-3.407 14.962 -0.987 193 78 0 
-3.4 14.964 -0.785 168 85 139 
-3.4 14.969 -0.798 98 58 32 
-3.403 14.951 -0.806 106 53 19 
-3.395 14.967 -0.78 191 121 70 
-3.4 14.971 -0.792 221 161 109 
-3.42 14.983 -0.777 104 91 82 
-3.428 14.989 -0.78 80 36 27 
-3.424 14.976 -0.785 153 91 52 
-3.4 14.957 -0.772 152 128 104 
-3.395 14.963 -0.77 97 64 49 
-3.429 14.959 -0.809 136 78 40 
-3.424 14.95 -0.797 177 137 111 
-3.427 14.961 -0.795 210 93 16 
-3.425 14.958 -0.796 105 56 16 
-3.429 14.966 -0.797 127 70 40 
-3.406 14.951 -0.807 106 83 65 
-3.409 14.948 -0.789 163 105 104 
-3.41 14.951 -0.805 162 100 63 
-3.418 14.956 -0.814 81 34 8 
-3.406 14.95 -0.792 175 110 72 
-3.409 14.95 -0.785 101 69 54 
-3.424 15.005 -0.739 78 36 14 
-3.46 14.998 -0.746 185 110 55 
-3.453 15.033 -0.75 144 93 48 
-3.408 14.964 -0.76 96 50 16 
-3.412 14.962 -0.764 155 73 17 
-3.416 14.98 -0.755 223 159 113 
-3.413 14.989 -0.75 106 66 31 
-3.419 14.991 -0.75 83 62 33 
-3.423 14.961 -0.939 227 138 46 
-3.432 14.957 -0.919 192 101 20 
-3.428 14.957 -0.918 118 59 19 
-3.431 14.949 -0.917 154 90 81 
-3.385 14.957 -1.006 190 99 10 
-3.466 15.032 -0.748 117 67 40 
-3.421 14.976 -0.94 252 163 69 
-3.424 14.976 -0.938 101 52 12 
-3.421 14.97 -0.951 116 63 21 
-3.437 14.977 -0.933 154 93 49 
-3.443 14.976 -0.956 104 51 9 
-3.438 14.978 -0.933 133 66 23 
-3.438 14.971 -0.958 247 152 58 
-3.4 15.009 -0.809 217 128 70 
-3.4 15.011 -0.8 199 102 34 
-3.402 15.006 -0.808 44 18 0 
-3.402 14.995 -0.815 130 73 18 
-3.397 14.977 -0.826 170 108 59 
-3.405 14.979 -0.815 129 61 16 
-3.406 14.99 -0.818 254 170 71 
-3.431 14.988 -0.835 87 36 7 
-3.416 14.992 -0.827 158 76 152 
-3.435 14.994 -0.832 122 70 30 
-3.411 14.995 -0.844 239 135 64 
-3.432 14.996 -0.848 94 60 48 
-3.388 14.982 -0.84 180 121 77 
-3.447 14.969 -0.833 101 52 19 
-3.44 14.956 -0.823 164 82 6 
-3.441 14.955 -0.82 118 115 124 
-3.462 14.99 -0.853 102 66 42 
-3.458 15.005 -0.849 116 66 33 
-3.46 15.011 -0.847 106 58 35 
-3.462 15.035 -0.776 159 112 84 
-3.412 14.993 -0.81 158 98 48 
-3.44 15.006 -0.808 133 80 38 
-3.44 15.007 -0.812 181 144 117 
-3.44 15.01 -0.809 100 47 15 
-3.455 14.995 -0.816 104 58 25 
-3.453 14.976 -0.827 175 98 150 
-3.396 15.005 -0.764 112 61 30 
-3.402 14.988 -0.756 117 69 31 
-3.415 14.952 -0.794 156 93 39 
-3.428 14.963 -0.791 137 79 39 
-3.427 14.962 -0.785 238 121 44 
-3.445 15.025 -0.761 234 121 41 
-3.435 14.991 -0.769 120 74 40 
-3.447 14.996 -0.759 161 107 73 
-3.441 15.002 -0.77 47 25 1 
-3.442 14.96 -0.975 252 168 80 
-3.443 14.961 -0.966 253 164 74 
-3.441 14.957 -0.957 251 156 72 
-3.416 14.966 -0.956 237 139 48 
-3.421 14.969 -0.956 82 38 9 
-3.415 14.969 -0.997 141 89 42 
-3.393 14.95 -0.997 146 83 39 
-3.417 14.962 -0.982 62 41 38 
-3.415 14.97 -0.982 177 125 77 
-3.456 15.011 -0.835 92 28 0 
-3.441 15.01 -0.847 116 62 24 
-3.445 15.007 -0.863 124 71 39 
-3.439 14.991 -0.884 113 65 29 
-3.438 14.99 -0.889 255 185 97 
-3.429 14.991 -0.878 62 35 26 
-3.418 14.995 -0.869 113 98 93 
-3.395 14.976 -0.891 87 54 49 
-3.4 14.994 -0.867 108 59 27 
-3.404 14.996 -0.861 128 96 71 
-3.407 14.988 -0.896 248 154 66 
-3.407 14.987 -0.905 178 88 2 
-3.399 14.98 -0.928 128 76 36 
-3.399 14.971 -0.911 209 125 35 
-3.439 14.982 -0.864 106 28 0 
-3.436 14.969 -0.873 166 110 59 
-3.437 14.988 -0.888 159 82 184 
-3.422 14.983 -0.929 207 140 87 
-3.415 14.984 -0.923 182 91 0 
-3.414 14.982 -0.914 197 103 16 
-3.442 14.979 -0.909 183 82 14 
-3.442 14.978 -0.906 202 108 38 
-3.448 14.952 -0.921 255 174 101 
-3.442 14.968 -0.937 90 59 56 
-3.442 14.971 -0.932 176 106 54 
-3.44 14.979 -0.923 102 48 12 
-3.392 14.97 -0.969 247 151 51 
-3.4 14.987 -0.985 137 124 118 
-3.408 14.964 -0.81 121 65 30 
-3.405 14.969 -0.846 70 39 36 
-3.396 14.97 -0.846 85 71 71 
-3.402 14.964 -0.838 138 76 37 
-3.39 14.972 -0.841 95 56 39 
-3.404 14.967 -0.836 255 208 146 
-3.426 14.971 -0.773 171 115 82 
-3.392 14.978 -0.77 239 139 63 
-3.39 14.967 -0.764 194 96 7 
-3.411 14.977 -0.756 194 86 13 
-3.39 14.995 -0.788 147 115 102 
-3.382 14.992 -0.775 95 45 10 
-3.398 14.963 -0.775 152 92 42 
-3.399 14.959 -0.767 98 53 14 
-3.436 14.955 -0.818 91 81 80 
-3.425 14.959 -0.814 136 87 46 
-3.432 14.951 -0.827 172 115 72 
-3.419 14.959 -0.822 149 82 40 
-3.422 14.96 -0.837 230 129 57 
-3.422 14.961 -0.827 209 111 38 
-3.434 14.954 -0.827 154 98 97 
-3.435 14.965 -0.845 127 49 3 
-3.417 14.96 -0.844 152 92 92 
-3.42 14.955 -0.806 139 86 52 
-3.409 14.964 -0.828 38 20 8 
-3.456 14.999 -0.745 108 64 37 
-3.458 14.989 -0.756 235 185 134 
-3.452 14.998 -0.758 181 114 71 
-3.477 15 -0.746 105 32 0 
-3.46 15 -0.764 212 163 123 
-3.462 15.013 -0.745 173 109 65 
-3.46 15.018 -0.751 131 85 49 
-3.458 15.011 -0.749 211 158 114 
-3.424 15.003 -0.758 160 93 41 
-3.426 14.967 -0.948 160 70 8 
-3.403 14.948 -0.934 235 149 50 
-3.393 14.95 -0.946 75 33 8 
-3.41 14.937 -0.943 244 146 55 
-3.417 14.97 -0.961 245 162 56 
-3.434 14.977 -0.868 74 44 42 
-3.429 14.97 -0.849 228 127 55 
-3.427 14.971 -0.863 132 65 20 
-3.436 14.982 -0.853 101 54 24 
-3.438 15.008 -0.855 82 33 3 
-3.438 14.998 -0.86 155 53 4 
-3.42 14.988 -0.864 162 89 44 
-3.441 14.983 -0.92 113 63 26 
-3.398 15.011 -0.808 142 119 105 
-3.441 14.965 -0.821 142 60 10 
-3.438 14.973 -0.812 98 45 14 
-3.459 15.002 -0.841 186 82 27 
-3.449 15.008 -0.832 96 36 0 
-3.462 15.032 -0.765 127 64 23 
-3.45 15.031 -0.76 228 139 57 
-3.446 15.005 -0.832 151 91 54 
-3.432 14.991 -0.807 106 73 58 
-3.437 14.986 -0.815 106 43 0 
-3.433 14.997 -0.796 136 64 14 
-3.436 15.003 -0.786 138 90 54 
-3.462 15.031 -0.779 128 55 10 
-3.446 15.024 -0.768 213 122 31 
-3.389 14.994 -0.758 93 56 27 
-3.444 15.018 -0.765 170 117 67 
-3.44 15.023 -0.764 100 86 83 
-3.436 14.99 -0.77 208 138 89 
-3.42 14.987 -0.758 130 73 20 
-3.42 14.989 -0.754 105 50 19 
-3.426 14.968 -0.999 155 84 40 
-3.42 14.971 -0.998 233 121 45 
-3.404 14.987 -0.979 234 135 34 
-3.417 14.974 -0.968 174 120 74 
-3.383 14.955 -1.002 66 40 39 
-3.436 14.99 -0.882 109 47 8 
-3.399 14.972 -0.907 176 83 6 
-3.399 14.965 -0.899 159 94 88 
-3.394 14.983 -0.868 99 84 77 
-3.392 14.98 -0.877 203 108 42 
-3.401 14.983 -0.926 76 35 7 
-3.418 14.979 -0.939 173 130 96 
-3.435 14.989 -0.9 248 149 68 
-3.416 14.986 -0.888 252 160 59 
-3.436 14.989 -0.893 88 33 2 
-3.439 14.993 -0.896 122 117 114 
-3.406 14.984 -0.916 76 44 31 
-3.416 14.969 -0.848 210 100 23 
-3.41 14.977 -0.859 137 126 124 
-3.393 14.96 -0.861 148 65 15 
-3.389 14.965 -0.867 132 52 0 
-3.453 14.955 -0.922 131 82 50 
-3.444 14.955 -0.92 198 118 57 
-3.436 14.955 -0.915 80 53 44 
-3.396 14.969 -0.858 124 112 112 
-3.397 14.963 -0.871 156 96 44 
-3.404 14.995 -0.838 70 30 5 
-3.4 14.974 -0.957 223 139 41 
-3.392 14.976 -0.947 253 174 71 
-3.387 14.948 -0.97 81 62 48 
-3.399 14.964 -0.993 62 26 12 
-3.408 14.964 -0.992 143 116 97 
-3.393 14.95 -0.954 153 86 34 
-3.388 14.955 -0.946 109 55 21 
-3.392 14.957 -0.95 160 107 63 
-3.4 14.982 -0.803 177 103 66 
-3.406 14.978 -0.796 132 52 1 
-3.41 14.977 -0.804 115 81 79 
-3.404 14.979 -0.79 62 32 24 
-3.408 14.968 -0.812 222 157 103 
-3.392 14.971 -0.846 117 59 19 
-3.389 14.971 -0.857 186 68 0 
-3.395 14.962 -0.758 132 121 119 
-3.38 14.994 -0.782 108 49 19 
-3.381 14.998 -0.787 138 71 28 
-3.418 14.955 -0.794 152 77 22 
-3.408 14.958 -0.836 172 65 0 
-3.443 14.962 -0.882 139 91 53 
-3.404 14.957 -0.777 127 63 25 
-3.422 14.983 -0.745 162 106 71 
-3.466 15.021 -0.772 84 43 13 
-3.469 15.015 -0.761 153 110 76 
-3.463 15.013 -0.771 61 34 4 
-3.459 15 -0.77 213 107 33 
-3.402 14.956 -0.767 119 55 11 
-3.414 14.956 -0.771 148 92 59 
-3.423 14.963 -0.944 235 163 105 
-3.427 14.963 -0.946 128 66 27 
-3.426 14.964 -0.906 214 124 64 
-3.412 14.964 -0.92 141 53 7 
-3.399 14.962 -0.907 244 142 34 
-3.419 14.967 -0.965 64 43 42 
-3.443 14.99 -0.859 127 77 50 
-3.393 14.983 -0.787 148 99 69 
-3.438 14.974 -0.841 186 133 83 
-3.446 15.028 -0.764 99 53 17 
-3.44 14.996 -0.811 109 58 31 
-3.451 14.979 -0.821 149 67 17 
-3.456 14.996 -0.829 136 81 40 
-3.452 15.011 -0.811 200 89 18 
-3.441 15.015 -0.79 123 72 27 
-3.445 14.999 -0.801 161 120 90 
-3.451 15.001 -0.81 139 90 60 
-3.434 14.97 -0.787 25 9 0 
-3.393 15.006 -0.791 104 73 68 
-3.392 15.019 -0.78 213 119 49 
-3.392 15.02 -0.775 158 149 152 
-3.387 15.017 -0.777 125 93 70 
-3.414 14.974 -0.986 177 113 67 
-3.4 14.973 -0.967 242 154 48 
-3.394 14.982 -0.886 208 109 24 
-3.405 14.983 -0.878 108 84 74 
-3.418 14.989 -0.879 252 155 61 
-3.405 14.984 -0.895 130 118 106 
-3.402 14.98 -0.918 235 149 64 
-3.405 14.983 -0.912 121 111 112 
-3.435 14.987 -0.889 254 161 83 
-3.438 14.974 -0.883 129 81 43 
-3.438 14.974 -0.893 117 65 28 
-3.426 14.985 -0.898 116 92 80 
-3.413 14.984 -0.908 218 118 32 
-3.405 14.984 -0.909 248 231 213 
-3.4 14.956 -0.872 113 94 79 
-3.425 14.972 -0.866 78 27 0 
-3.434 14.994 -0.867 89 44 13 
-3.459 14.961 -0.915 154 90 46 
-3.384 14.973 -0.854 82 26 0 
-3.397 14.968 -0.955 226 131 37 
-3.415 14.968 -0.95 229 147 39 
-3.429 14.967 -0.799 132 70 31 
-3.436 14.982 -0.807 47 29 9 
-3.429 14.966 -0.806 212 98 27 
-3.431 14.981 -0.821 157 73 26 
-3.406 14.983 -0.8 62 39 31 
-3.409 14.96 -0.815 228 135 42 
-3.406 14.958 -0.805 187 75 3 
-3.406 14.959 -0.795 178 111 56 
-3.394 14.963 -0.768 242 139 60 
-3.409 14.97 -0.761 147 83 45 
-3.415 14.985 -0.776 156 86 35 
-3.458 15.006 -0.746 165 114 83 
-3.464 15.03 -0.783 172 95 53 
-3.464 15.033 -0.776 128 74 27 
-3.46 15.006 -0.76 231 128 53 
-3.403 14.955 -0.773 137 88 55 
-3.419 14.958 -0.777 147 80 37 
-3.401 14.965 -0.905 145 85 48 
-3.42 14.974 -0.9 250 147 44 
-3.41 14.97 -0.892 140 82 36 
-3.404 14.967 -0.913 144 72 22 
-3.414 14.982 -0.931 233 142 49 
-3.452 14.991 -0.861 100 59 27 
-3.456 15.003 -0.859 104 40 4 
-3.419 14.995 -0.775 133 78 37 
-3.402 15.005 -0.8 154 96 58 
-3.415 14.989 -0.81 176 116 116 
-3.399 14.988 -0.837 154 79 37 
-3.436 14.969 -0.815 191 117 68 
-3.443 14.974 -0.839 87 77 76 
-3.447 14.979 -0.838 102 58 31 
-3.473 15.035 -0.769 196 111 47 
-3.442 14.984 -0.808 103 54 14 
-3.436 14.979 -0.785 152 97 67 
-3.444 14.99 -0.796 113 40 0 
-3.437 14.988 -0.793 103 94 95 
-3.436 15 -0.801 137 89 51 
-3.438 14.999 -0.808 112 61 32 
-3.44 15.008 -0.793 135 85 50 
-3.443 14.989 -0.778 199 128 82 
-3.454 14.994 -0.774 140 94 71 
-3.449 14.998 -0.786 138 69 27 
-3.458 14.993 -0.763 169 103 51 
-3.454 14.993 -0.837 90 88 99 
-3.448 14.979 -0.837 110 76 51 
-3.445 15.008 -0.816 126 64 23 
-3.456 15.001 -0.825 112 61 32 
-3.454 14.998 -0.816 100 73 52 
-3.447 15.009 -0.814 108 69 40 
-3.456 15.001 -0.786 132 70 33 
-3.428 14.97 -0.779 121 73 33 
-3.442 15.014 -0.769 97 58 43 
-3.384 15.012 -0.778 202 119 53 
-3.405 14.982 -0.984 181 84 3 
-3.412 14.985 -0.887 170 91 200 
-3.426 14.964 -0.912 106 52 16 
-3.425 14.976 -0.935 171 80 23 
-3.44 14.968 -0.878 116 39 0 
-3.438 14.983 -0.874 128 78 41 
-3.426 14.984 -0.895 66 38 27 
-3.423 14.974 -0.859 75 35 10 
-3.392 14.958 -0.869 73 39 27 
-3.426 14.972 -0.876 88 28 0 
-3.41 14.974 -0.877 207 105 23 
-3.432 14.956 -0.888 203 115 28 
-3.435 14.955 -0.885 193 130 86 
-3.434 14.953 -0.891 103 68 62 
-3.424 14.961 -0.888 78 48 46 
-3.432 14.957 -0.899 229 139 53 
-3.445 14.968 -0.894 98 92 94 
-3.443 14.962 -0.895 138 54 0 
-3.454 14.965 -0.919 141 83 43 
-3.455 14.953 -0.91 154 77 47 
-3.415 14.993 -0.849 245 144 76 
-3.396 14.994 -0.851 175 90 36 
-3.389 14.966 -0.947 103 89 86 
-3.396 14.962 -0.966 182 120 71 
-3.409 14.995 -0.796 192 122 71 
-3.405 14.999 -0.792 123 104 90 
-3.407 14.968 -0.805 180 82 19 
-3.417 14.96 -0.821 82 32 7 
-3.464 15.029 -0.78 163 97 47 
-3.453 15.005 -0.761 189 103 44 
-3.452 15.012 -0.761 127 85 45 
-3.467 15.022 -0.757 114 64 15 
-3.457 15.023 -0.754 242 165 111 
-3.454 15.024 -0.755 140 82 42 
-3.465 15.016 -0.753 146 69 23 
-3.46 15.006 -0.759 136 80 29 
-3.422 14.961 -0.781 204 134 83 
-3.393 14.966 -0.942 85 73 59 
-3.394 14.964 -0.943 233 161 103 
-3.402 14.977 -0.939 242 153 53 
-3.453 14.993 -0.852 119 60 18 
-3.402 15.005 -0.787 122 108 105 
-3.4 14.978 -0.793 81 31 4 
-3.425 15.001 -0.772 213 133 80 
-3.414 14.988 -0.818 221 115 41 
-3.447 14.973 -0.837 140 78 37 
-3.468 15.031 -0.772 134 57 13 
-3.45 14.99 -0.816 125 76 36 
-3.441 15.009 -0.795 189 100 44 
-3.456 14.992 -0.762 139 76 41 
-3.454 15.008 -0.817 105 55 28 
-3.457 15.017 -0.776 112 63 30 
-3.443 15.012 -0.77 144 84 47 
-3.431 14.975 -0.999 166 58 0 
-3.407 14.974 -0.868 223 104 22 
-3.437 14.978 -0.877 94 45 12 
-3.429 14.967 -0.877 221 129 64 
-3.425 14.984 -0.906 180 80 2 
-3.416 14.966 -0.885 254 166 68 
-3.435 14.963 -0.87 152 90 49 
-3.455 14.968 -0.918 163 101 54 
-3.434 14.954 -0.899 172 105 60 
-3.439 14.948 -0.898 184 100 36 
-3.447 14.957 -0.904 202 154 105 
-3.409 14.997 -0.851 131 121 122 
-3.425 14.974 -0.806 116 54 15 
-3.432 14.987 -0.798 124 67 40 
-3.449 15.01 -0.763 139 74 32 
-3.405 14.95 -0.77 131 109 98 
-3.415 14.957 -0.935 156 84 70 
-3.401 14.955 -0.932 109 52 22 
-3.413 14.996 -0.771 166 105 61 
-3.401 14.992 -0.796 156 94 43 
-3.44 14.967 -0.835 120 43 0 
-3.445 14.981 -0.815 107 36 6 
-3.453 14.994 -0.766 140 60 9 
-3.438 14.985 -0.777 124 64 10 
-3.446 14.999 -0.827 159 112 86 
-3.461 15.012 -0.778 127 70 17 
-3.429 14.967 -0.784 169 109 72 
-3.422 14.983 -0.902 103 54 21 
-3.426 14.959 -0.892 166 111 72 
-3.413 14.997 -0.848 145 130 123 
-3.452 15.021 -0.756 173 129 94 
-3.409 14.959 -0.938 245 159 46 
-3.406 14.959 -0.926 255 168 71 
-3.4 14.976 -0.937 231 156 55 
-3.418 15.001 -0.774 137 77 43 
-3.405 14.948 -0.935 66 35 32 
-3.4 14.969 -0.935 231 168 115 
-3.403 14.973 -0.923 88 83 89 
-3.398 14.973 -0.93 235 163 105 
3 0 1 2
3 3 4 5
3 3 4 6
3 7 2 8
3 7 1 2
3 7 9 8
3 7 9 1
3 10 1 11
3 10 0 1
3 10 9 0
3 12 13 14
3 12 13 6
3 15 16 17
3 10 18 11
3 19 10 11
3 19 10 1
3 19 18 11
3 19 10 18
3 19 9 1
3 19 10 9
3 20 21 22
3 23 20 22
3 24 7 1
3 25 4 6
3 26 25 12
3 27 12 6
3 27 13 14
3 27 12 14
3 28 29 30
3 28 29 31
3 32 33 34
3 35 33 34
3 35 36 33
3 37 32 34
3 37 35 34
3 38 39 40
3 38 41 39
3 42 43 44
3 45 46 47
3 48 49 10
3 48 49 50
3 48 9 0
3 48 10 9
3 49 10 9
3 51 36 52
3 53 3 6
3 53 26 3
3 12 3 6
3 53 12 6
3 53 26 12
3 54 28 30
3 54 28 55
3 56 28 31
3 57 58 59
3 60 57 59
3 60 57 58
3 61 60 57
3 62 55 30
3 62 63 55
3 62 64 63
3 62 54 30
3 62 54 55
3 65 28 55
3 65 56 28
3 37 66 32
3 67 49 50
3 68 37 66
3 69 29 30
3 70 71 72
3 70 71 73
3 74 75 76
3 74 77 78
3 74 75 77
3 74 79 76
3 74 79 78
3 80 75 77
3 41 80 77
3 74 41 80
3 81 77 78
3 82 75 76
3 82 74 76
3 82 74 80
3 83 72 84
3 85 83 84
3 85 86 87
3 85 86 88
3 89 80 77
3 89 41 77
3 89 41 80
3 89 75 77
3 89 80 75
3 90 91 44
3 90 82 91
3 92 4 6
3 93 92 6
3 93 13 6
3 94 4 5
3 94 92 4
3 95 96 76
3 97 79 40
3 98 38 39
3 97 38 39
3 99 46 47
3 99 100 47
3 99 45 47
3 99 45 46
3 101 21 22
3 101 102 22
3 103 2 8
3 103 0 2
3 103 48 0
3 103 9 8
3 104 51 52
3 104 36 52
3 104 36 33
3 104 51 36
3 104 35 33
3 104 35 36
3 105 106 23
3 105 107 23
3 105 107 106
3 107 106 24
3 105 106 24
3 105 107 24
3 108 109 110
3 108 111 110
3 112 113 84
3 112 113 114
3 113 115 84
3 116 117 118
3 116 62 64
3 119 117 118
3 120 121 122
3 123 124 125
3 126 127 128
3 129 124 17
3 129 123 124
3 129 16 17
3 129 124 130
3 129 123 130
3 129 131 130
3 129 131 16
3 132 57 58
3 132 61 57
3 133 63 55
3 133 64 63
3 133 62 64
3 60 134 135
3 136 134 135
3 136 60 134
3 136 137 73
3 136 137 135
3 138 71 73
3 138 56 71
3 138 65 73
3 138 65 71
3 138 65 56
3 85 114 87
3 139 85 87
3 139 85 86
3 139 86 88
3 139 85 88
3 15 16 140
3 141 7 8
3 141 24 7
3 141 105 24
3 141 106 23
3 141 105 23
3 142 115 84
3 142 121 115
3 142 114 84
3 85 114 84
3 143 88 144
3 143 85 88
3 85 88 145
3 143 88 145
3 143 85 145
3 146 86 147
3 148 113 114
3 149 150 151
3 149 116 151
3 149 116 150
3 149 152 150
3 153 69 30
3 153 69 151
3 153 62 30
3 153 116 151
3 153 116 62
3 153 62 64
3 153 116 64
3 154 155 156
3 155 157 156
3 158 159 160
3 158 161 162
3 158 159 162
3 163 80 75
3 163 89 75
3 163 41 80
3 164 56 71
3 164 138 71
3 164 138 56
3 164 71 72
3 164 85 72
3 164 83 72
3 164 85 83
3 164 56 31
3 164 85 31
3 164 143 31
3 164 143 85
3 165 90 91
3 165 90 82
3 165 74 80
3 165 82 80
3 165 166 91
3 165 95 91
3 165 95 166
3 165 82 76
3 165 95 76
3 165 74 76
3 165 96 76
3 165 95 96
3 167 95 96
3 167 165 95
3 167 79 40
3 168 169 170
3 168 169 171
3 168 163 170
3 163 90 80
3 168 90 80
3 168 163 90
3 165 90 80
3 168 165 80
3 172 134 135
3 173 174 175
3 174 176 175
3 177 81 178
3 177 81 77
3 177 89 77
3 177 89 41
3 179 169 170
3 179 171 170
3 179 180 75
3 179 163 170
3 179 163 75
3 181 182 183
3 93 182 184
3 181 185 186
3 93 92 184
3 187 92 184
3 188 13 6
3 188 27 6
3 188 27 13
3 188 93 6
3 188 92 6
3 188 25 6
3 189 93 182
3 189 188 13
3 189 188 93
3 190 92 184
3 190 187 184
3 190 188 92
3 190 92 4
3 190 94 92
3 190 94 187
3 190 25 4
3 190 188 25
3 191 26 25
3 191 192 25
3 191 192 26
3 191 26 3
3 193 194 195
3 196 192 25
3 196 12 14
3 196 25 12
3 197 198 199
3 196 198 199
3 196 197 198
3 197 200 199
3 196 200 199
3 196 197 200
3 196 190 200
3 201 98 38
3 201 98 202
3 201 97 98
3 201 97 38
3 203 166 91
3 203 95 91
3 203 165 95
3 204 205 206
3 204 207 205
3 208 91 44
3 208 203 91
3 208 165 91
3 208 165 90
3 208 203 165
3 97 79 78
3 209 97 79
3 209 74 78
3 209 74 79
3 209 74 41
3 210 45 46
3 101 211 110
3 212 20 22
3 212 23 22
3 212 23 20
3 212 107 20
3 213 214 17
3 123 215 125
3 213 215 125
3 216 217 218
3 216 219 217
3 220 213 125
3 220 213 215
3 220 213 221
3 220 123 125
3 222 123 215
3 220 222 215
3 223 224 15
3 223 225 224
3 223 15 17
3 223 225 17
3 226 112 72
3 226 72 84
3 226 70 72
3 226 112 84
3 226 71 72
3 226 138 72
3 226 138 71
3 226 70 71
3 227 72 84
3 227 83 72
3 227 112 72
3 227 85 84
3 227 85 83
3 228 152 229
3 230 116 118
3 230 113 231
3 230 117 118
3 230 112 113
3 230 112 118
3 230 148 231
3 232 224 15
3 121 115 122
3 233 148 147
3 191 3 5
3 234 191 192
3 235 126 127
3 236 58 59
3 236 237 59
3 238 207 239
3 240 204 206
3 241 206 242
3 240 206 242
3 240 241 206
3 243 204 205
3 244 155 156
3 244 155 157
3 244 245 156
3 246 245 247
3 246 248 247
3 249 137 157
3 250 246 245
3 251 207 239
3 251 132 239
3 252 167 40
3 252 167 205
3 252 207 205
3 252 243 205
3 252 243 207
3 253 58 59
3 253 236 237
3 253 132 239
3 193 42 43
3 254 203 206
3 254 241 206
3 254 203 241
3 254 206 242
3 254 241 242
3 255 133 134
3 255 133 65
3 255 133 55
3 255 65 55
3 136 61 60
3 256 133 65
3 256 133 64
3 256 133 62
3 256 153 62
3 256 255 65
3 256 255 133
3 256 29 30
3 256 28 30
3 256 28 29
3 256 138 65
3 256 69 30
3 256 69 29
3 256 153 69
3 256 138 29
3 257 249 258
3 257 249 137
3 259 213 215
3 259 213 214
3 259 131 16
3 259 16 140
3 259 214 140
3 143 29 31
3 143 146 29
3 260 143 146
3 139 88 144
3 260 88 144
3 260 139 144
3 260 146 86
3 260 139 86
3 260 143 88
3 261 262 263
3 264 141 23
3 265 266 267
3 268 111 21
3 268 269 111
3 270 266 267
3 270 265 267
3 270 265 266
3 270 269 267
3 270 269 111
3 271 48 50
3 271 67 50
3 272 103 273
3 274 103 273
3 274 272 273
3 274 272 103
3 274 273 275
3 274 272 275
3 276 272 275
3 276 274 272
3 271 272 103
3 276 271 272
3 271 103 48
3 277 278 35
3 276 277 278
3 279 280 281
3 282 142 121
3 282 142 86
3 282 115 122
3 282 121 122
3 282 86 87
3 282 142 87
3 282 114 87
3 282 142 114
3 283 154 284
3 283 154 157
3 283 258 157
3 283 249 157
3 283 157 156
3 283 245 156
3 283 244 245
3 283 244 157
3 250 244 245
3 285 70 73
3 285 154 157
3 285 155 157
3 285 154 155
3 285 70 286
3 285 155 286
3 287 244 288
3 287 288 289
3 287 290 289
3 287 291 290
3 292 293 217
3 292 290 217
3 292 291 290
3 292 216 218
3 292 216 217
3 292 293 218
3 292 216 293
3 216 293 217
3 294 158 161
3 294 230 117
3 294 230 231
3 294 117 118
3 294 116 118
3 294 116 117
3 294 230 118
3 295 293 218
3 296 82 75
3 296 90 82
3 296 75 76
3 296 180 297
3 296 180 75
3 298 143 85
3 298 164 85
3 298 164 143
3 298 227 29
3 298 143 31
3 298 164 31
3 298 227 72
3 298 138 72
3 298 112 72
3 298 138 29
3 298 256 138
3 299 43 44
3 299 180 297
3 299 296 297
3 299 296 180
3 299 296 90
3 42 43 300
3 299 90 44
3 299 90 82
3 301 173 174
3 301 173 302
3 173 302 303
3 301 302 303
3 301 173 303
3 304 98 202
3 305 304 202
3 306 173 303
3 306 183 303
3 307 187 184
3 308 185 186
3 308 181 185
3 308 181 186
3 308 181 182
3 308 181 183
3 308 306 183
3 301 302 309
3 310 311 176
3 312 301 174
3 312 174 176
3 311 176 175
3 313 314 195
3 313 194 195
3 313 194 171
3 313 310 171
3 315 313 195
3 315 313 314
3 315 194 195
3 315 313 194
3 315 208 195
3 315 208 314
3 316 299 43
3 316 299 317
3 316 43 300
3 316 193 300
3 316 193 317
3 318 317 171
3 318 169 171
3 318 179 169
3 318 179 180
3 318 299 180
3 318 299 317
3 305 177 178
3 319 305 177
3 305 178 202
3 305 177 320
3 319 305 320
3 321 322 309
3 321 190 187
3 321 190 200
3 323 322 182
3 323 189 182
3 323 189 200
3 321 197 200
3 323 197 200
3 321 322 197
3 323 322 197
3 323 200 199
3 323 197 199
3 322 307 184
3 324 13 14
3 197 325 199
3 324 325 199
3 324 197 325
3 324 189 13
3 324 200 199
3 324 189 200
3 324 323 199
3 324 323 189
3 322 182 183
3 324 323 197
3 326 324 14
3 326 324 325
3 326 196 14
3 326 198 199
3 326 196 199
3 326 196 198
3 178 202 78
3 327 202 78
3 81 178 78
3 327 98 202
3 327 201 98
3 327 304 202
3 327 304 98
3 328 329 330
3 328 329 98
3 328 177 320
3 328 305 320
3 328 305 177
3 331 203 206
3 331 203 166
3 331 95 166
3 331 203 95
3 331 166 96
3 331 95 96
3 331 205 206
3 331 167 205
3 331 167 95
3 331 204 206
3 331 204 205
3 331 167 96
3 332 209 79
3 332 209 97
3 332 79 40
3 332 97 40
3 332 38 41
3 332 209 41
3 332 38 40
3 332 74 41
3 332 74 79
3 332 209 74
3 333 97 38
3 333 201 38
3 333 201 97
3 333 209 97
3 333 209 78
3 333 202 78
3 333 201 202
3 333 327 78
3 333 327 201
3 334 99 100
3 334 99 45
3 334 335 100
3 334 335 45
3 334 336 100
3 334 335 109
3 337 210 110
3 338 45 46
3 338 210 46
3 338 335 45
3 338 337 335
3 337 210 46
3 338 335 110
3 338 337 110
3 338 210 110
3 339 278 35
3 339 277 35
3 339 277 278
3 339 35 33
3 339 104 35
3 339 104 36
3 340 266 267
3 340 265 266
3 340 266 341
3 342 108 109
3 343 219 217
3 343 216 217
3 343 216 219
3 343 293 217
3 343 216 293
3 344 285 73
3 344 285 70
3 344 285 286
3 344 71 73
3 344 226 71
3 344 70 71
3 345 227 29
3 345 227 112
3 345 69 29
3 345 148 147
3 345 146 29
3 345 146 147
3 345 112 114
3 345 148 114
3 345 230 118
3 345 230 112
3 345 230 148
3 346 347 348
3 349 346 347
3 350 149 231
3 350 230 231
3 350 345 69
3 350 345 230
3 350 148 69
3 350 233 148
3 350 233 229
3 350 345 148
3 350 148 231
3 351 224 15
3 351 232 224
3 351 150 151
3 351 224 150
3 351 116 151
3 351 116 150
3 351 352 116
3 351 295 352
3 353 15 140
3 353 351 15
3 353 232 15
3 353 232 223
3 353 214 17
3 353 223 17
3 354 355 119
3 354 226 70
3 354 226 112
3 354 70 286
3 354 355 286
3 354 112 118
3 354 119 118
3 344 355 286
3 354 344 226
3 344 355 119
3 354 344 119
3 356 355 218
3 356 119 117
3 356 295 117
3 356 295 218
3 357 358 229
3 357 358 359
3 360 131 130
3 360 222 130
3 360 361 222
3 362 196 192
3 363 123 130
3 363 222 130
3 363 123 215
3 363 364 222
3 363 220 215
3 363 364 220
3 365 204 207
3 365 243 207
3 365 243 204
3 365 207 239
3 365 240 239
3 365 240 204
3 365 252 243
3 257 252 258
3 366 288 289
3 366 290 289
3 366 291 288
3 366 292 217
3 366 290 217
3 366 292 291
3 366 219 217
3 367 245 247
3 367 368 369
3 367 248 247
3 367 320 369
3 370 246 248
3 371 330 284
3 371 329 330
3 371 329 258
3 372 172 373
3 374 172 373
3 374 372 373
3 374 372 172
3 366 372 373
3 374 366 373
3 374 366 372
3 374 366 172
3 374 366 289
3 374 288 289
3 374 366 288
3 375 238 207
3 376 237 59
3 376 60 59
3 376 60 135
3 376 60 134
3 362 234 192
3 377 58 59
3 377 236 58
3 377 253 59
3 377 253 58
3 377 253 236
3 377 132 58
3 377 132 239
3 377 253 132
3 378 253 59
3 378 253 237
3 378 375 379
3 378 376 59
3 378 376 237
3 378 376 379
3 378 375 238
3 253 238 239
3 378 253 238
3 380 193 195
3 380 193 42
3 380 193 300
3 380 42 91
3 380 42 300
3 380 42 44
3 380 43 300
3 380 42 43
3 380 193 43
3 380 195 91
3 380 208 195
3 380 208 44
3 380 91 44
3 381 257 137
3 381 136 61
3 381 136 137
3 381 132 61
3 381 251 132
3 382 233 147
3 383 141 105
3 383 264 23
3 383 264 141
3 383 212 23
3 383 107 23
3 383 105 107
3 383 212 107
3 383 107 20
3 384 385 386
3 387 388 386
3 387 384 385
3 387 384 388
3 387 389 102
3 387 388 102
3 390 388 102
3 390 108 111
3 390 270 111
3 390 270 108
3 391 102 22
3 390 101 102
3 391 23 22
3 391 392 23
3 391 388 102
3 391 387 102
3 391 387 388
3 391 264 23
3 392 264 23
3 392 264 389
3 391 264 389
3 391 392 389
3 391 387 389
3 393 103 9
3 393 103 273
3 393 272 273
3 393 9 8
3 393 103 8
3 394 276 275
3 394 276 271
3 276 277 275
3 394 276 277
3 394 67 50
3 274 395 275
3 396 397 398
3 399 278 68
3 276 395 278
3 399 276 278
3 399 278 35
3 399 68 37
3 399 37 34
3 399 35 34
3 399 37 35
3 400 273 275
3 276 395 275
3 400 395 275
3 400 396 273
3 400 396 397
3 400 274 275
3 400 274 273
3 400 274 395
3 396 274 273
3 400 396 395
3 401 120 122
3 401 282 122
3 402 160 231
3 403 244 155
3 403 291 288
3 403 244 288
3 374 244 288
3 403 285 155
3 404 294 161
3 404 294 117
3 404 356 117
3 404 356 119
3 356 355 119
3 404 356 295
3 405 160 231
3 405 294 231
3 405 158 160
3 405 294 158
3 149 152 231
3 405 159 160
3 405 158 159
3 158 348 159
3 405 158 348
3 406 232 214
3 406 353 214
3 406 353 232
3 351 295 232
3 406 295 232
3 406 214 140
3 406 353 140
3 406 64 63
3 407 194 171
3 407 318 171
3 407 318 317
3 193 194 317
3 407 193 317
3 407 193 194
3 408 168 90
3 408 409 168
3 408 208 90
3 408 315 208
3 408 315 314
3 313 314 410
3 408 314 410
3 408 409 410
3 411 97 40
3 411 97 39
3 411 98 39
3 411 97 98
3 411 252 40
3 411 329 98
3 412 329 258
3 412 371 258
3 412 371 329
3 412 411 329
3 412 411 252
3 413 414 415
3 413 416 415
3 417 361 418
3 419 372 172
3 419 172 128
3 419 420 172
3 421 310 301
3 421 301 309
3 421 322 309
3 421 321 309
3 421 310 311
3 421 322 197
3 421 321 197
3 421 302 309
3 421 301 302
3 310 422 176
3 423 422 176
3 423 424 422
3 423 424 425
3 423 312 176
3 426 368 427
3 426 369 427
3 426 368 369
3 426 330 284
3 426 427 284
3 426 427 330
3 369 427 330
3 426 369 330
3 426 368 245
3 426 245 156
3 428 307 184
3 428 322 184
3 428 322 307
3 428 182 184
3 428 306 307
3 428 182 183
3 428 322 183
3 428 306 183
3 428 302 303
3 428 183 303
3 428 302 309
3 428 322 309
3 428 421 302
3 429 311 175
3 429 173 175
3 429 306 307
3 429 306 173
3 430 431 432
3 430 366 219
3 430 366 373
3 430 372 373
3 430 366 372
3 430 219 217
3 430 366 217
3 430 343 217
3 430 343 219
3 433 421 310
3 433 198 434
3 435 370 248
3 436 425 437
3 435 436 425
3 436 319 437
3 435 436 319
3 435 370 246
3 435 425 438
3 370 246 438
3 435 246 438
3 439 425 438
3 440 13 14
3 440 324 13
3 440 326 14
3 440 326 324
3 441 326 325
3 441 325 434
3 441 198 434
3 441 196 198
3 441 326 196
3 442 304 98
3 442 328 98
3 443 177 41
3 443 328 177
3 443 328 329
3 443 411 329
3 443 411 40
3 443 41 39
3 443 329 98
3 443 328 98
3 443 39 40
3 443 411 39
3 443 98 39
3 444 266 341
3 444 340 341
3 444 340 266
3 445 342 108
3 342 446 109
3 445 446 109
3 342 265 341
3 445 265 341
3 447 342 109
3 447 342 446
3 447 446 336
3 448 340 449
3 448 444 449
3 448 444 340
3 448 444 341
3 444 450 449
3 448 450 449
3 448 444 450
3 448 265 341
3 448 340 265
3 448 342 341
3 448 342 265
3 448 445 341
3 448 445 446
3 448 445 342
3 451 452 453
3 454 295 293
3 454 216 293
3 454 343 293
3 454 343 216
3 455 431 432
3 456 457 228
3 456 457 358
3 456 358 229
3 456 152 229
3 456 228 152
3 458 161 162
3 458 459 161
3 460 452 225
3 460 452 453
3 460 225 224
3 460 461 453
3 462 224 150
3 460 462 224
3 463 462 224
3 463 460 224
3 463 460 462
3 463 349 464
3 463 224 150
3 349 465 464
3 466 465 464
3 466 349 464
3 466 336 464
3 466 349 336
3 466 228 465
3 350 402 231
3 467 350 402
3 467 152 231
3 467 160 231
3 467 402 160
3 467 402 152
3 467 149 152
3 467 350 149
3 467 152 229
3 468 461 352
3 468 295 352
3 451 461 453
3 468 451 461
3 468 461 295
3 468 406 232
3 468 406 295
3 469 262 263
3 470 261 262
3 471 159 162
3 471 472 162
3 471 158 159
3 471 158 348
3 458 346 348
3 471 458 348
3 458 459 348
3 473 357 229
3 473 467 229
3 473 350 229
3 473 350 233
3 473 467 350
3 473 467 402
3 474 364 222
3 474 360 222
3 474 455 222
3 474 455 364
3 474 455 432
3 475 360 131
3 475 259 127
3 259 127 215
3 475 259 131
3 235 414 415
3 475 16 140
3 475 259 16
3 475 131 16
3 476 371 284
3 476 371 258
3 371 249 258
3 476 249 258
3 476 371 249
3 476 283 258
3 476 283 249
3 283 249 245
3 476 249 245
3 476 154 284
3 476 283 154
3 476 367 245
3 476 371 367
3 477 328 330
3 477 328 329
3 477 371 329
3 477 305 320
3 477 328 320
3 477 305 304
3 477 369 427
3 477 320 369
3 477 427 330
3 477 367 369
3 477 367 320
3 477 371 367
3 477 442 328
3 477 442 304
3 478 374 172
3 478 374 244
3 374 250 244
3 478 250 244
3 478 374 250
3 374 250 373
3 478 249 157
3 478 246 245
3 478 250 246
3 479 244 288
3 479 374 288
3 479 374 250
3 479 374 289
3 479 244 245
3 479 368 245
3 479 374 373
3 479 250 373
3 479 248 247
3 479 368 247
3 479 368 248
3 479 370 248
3 479 370 373
3 250 246 373
3 479 246 373
3 479 250 246
3 479 370 246
3 480 411 252
3 480 411 329
3 480 412 329
3 439 420 481
3 482 376 379
3 478 439 420
3 482 376 135
3 482 137 135
3 483 420 481
3 483 416 420
3 483 413 416
3 484 238 239
3 484 240 239
3 484 254 241
3 484 254 242
3 484 240 242
3 484 240 241
3 485 483 481
3 486 418 422
3 486 361 414
3 486 361 418
3 486 413 414
3 486 485 487
3 486 483 413
3 486 485 483
3 486 483 414
3 488 86 147
3 488 382 147
3 488 86 87
3 488 282 87
3 488 148 113
3 488 401 282
3 488 113 115
3 488 282 115
3 489 456 457
3 489 456 358
3 489 358 229
3 489 456 229
3 490 277 68
3 490 277 278
3 490 395 275
3 490 395 278
3 490 277 275
3 490 394 277
3 491 492 493
3 494 491 493
3 494 491 495
3 494 492 493
3 494 491 492
3 496 470 262
3 496 470 497
3 498 384 388
3 498 390 388
3 498 388 386
3 498 384 386
3 498 266 341
3 498 384 266
3 499 384 385
3 499 470 385
3 499 384 266
3 470 385 500
3 499 470 500
3 499 340 267
3 499 340 266
3 501 269 389
3 501 264 389
3 501 383 264
3 501 383 20
3 501 268 269
3 501 20 21
3 501 268 21
3 502 398 503
3 502 397 398
3 398 503 500
3 502 398 500
3 502 500 267
3 502 499 267
3 502 499 500
3 502 385 500
3 504 387 389
3 504 397 385
3 504 385 386
3 504 387 386
3 504 269 389
3 504 269 267
3 502 397 385
3 504 502 397
3 504 502 267
3 504 397 398
3 390 101 211
3 505 101 110
3 505 101 21
3 505 21 22
3 505 101 22
3 505 111 21
3 505 108 111
3 505 108 110
3 506 394 271
3 506 271 67
3 506 67 50
3 506 271 50
3 506 394 50
3 507 508 509
3 510 278 68
3 510 68 66
3 510 277 68
3 510 277 278
3 510 339 277
3 510 66 32
3 510 32 33
3 510 66 33
3 510 339 33
3 511 244 155
3 511 403 155
3 511 403 244
3 511 287 244
3 511 403 287
3 511 155 156
3 511 244 156
3 511 155 286
3 511 403 286
3 512 355 286
3 512 285 286
3 512 403 286
3 512 403 285
3 512 511 286
3 512 511 287
3 512 403 287
3 512 287 291
3 512 403 291
3 512 344 355
3 512 344 285
3 512 355 218
3 512 355 119
3 512 356 119
3 512 292 218
3 512 356 218
3 513 405 150
3 513 294 116
3 513 405 294
3 513 351 150
3 513 351 116
3 513 352 116
3 513 116 117
3 513 295 117
3 513 295 352
3 513 404 295
3 513 404 161
3 514 346 348
3 346 515 348
3 514 515 348
3 514 346 515
3 514 228 152
3 514 152 150
3 514 515 150
3 466 346 228
3 514 346 228
3 516 515 150
3 516 405 150
3 516 515 348
3 516 405 348
3 515 462 150
3 516 459 348
3 517 406 295
3 517 134 128
3 517 172 128
3 517 406 128
3 517 454 293
3 518 430 372
3 518 417 432
3 518 417 418
3 518 431 432
3 518 431 126
3 518 430 431
3 518 419 372
3 518 430 419
3 518 419 126
3 519 423 425
3 519 423 424
3 520 372 373
3 520 518 372
3 520 519 424
3 520 424 418
3 520 518 418
3 521 197 325
3 321 197 198
3 521 321 197
3 521 421 197
3 521 421 321
3 521 325 434
3 521 433 434
3 521 197 434
3 521 433 421
3 522 312 301
3 522 423 310
3 522 423 312
3 523 427 284
3 523 426 284
3 523 426 156
3 523 154 284
3 523 154 156
3 524 307 187
3 524 429 307
3 525 487 422
3 525 485 422
3 525 485 487
3 525 310 422
3 525 423 310
3 525 519 423
3 525 485 481
3 424 418 422
3 526 421 310
3 526 433 310
3 526 433 421
3 526 525 310
3 526 433 198
3 525 313 310
3 527 367 320
3 527 477 320
3 527 477 367
3 527 477 328
3 528 319 177
3 528 436 437
3 528 436 319
3 528 177 320
3 528 527 320
3 528 529 438
3 528 436 438
3 528 436 529
3 528 527 438
3 527 436 438
3 528 527 436
3 527 319 320
3 530 435 319
3 530 319 320
3 530 527 368
3 530 527 319
3 530 368 247
3 530 367 368
3 530 527 367
3 531 425 437
3 531 423 425
3 531 522 437
3 531 522 423
3 528 437 529
3 531 437 529
3 531 528 529
3 531 528 437
3 531 528 436
3 532 457 336
3 532 466 336
3 532 466 457
3 532 450 533
3 532 448 533
3 532 448 450
3 466 457 228
3 532 466 228
3 532 457 533
3 532 489 533
3 532 489 457
3 532 489 450
3 450 449 359
3 534 451 221
3 534 461 453
3 534 451 453
3 534 452 453
3 534 451 452
3 534 213 125
3 534 213 221
3 347 100 47
3 534 452 225
3 535 468 461
3 535 468 451
3 535 461 221
3 535 451 221
3 535 468 232
3 535 213 215
3 535 232 223
3 536 349 464
3 536 349 465
3 536 463 465
3 536 515 150
3 536 515 462
3 536 463 150
3 536 463 462
3 537 514 515
3 537 466 465
3 537 466 228
3 537 514 228
3 537 536 465
3 537 228 465
3 537 536 150
3 537 536 515
3 537 514 150
3 538 261 500
3 538 470 500
3 538 340 449
3 538 499 500
3 538 497 500
3 538 470 497
3 538 261 263
3 538 444 449
3 538 444 340
3 539 470 261
3 539 470 540
3 539 540 503
3 539 470 503
3 540 503 509
3 539 261 500
3 539 470 500
3 539 470 385
3 539 502 500
3 539 502 385
3 539 503 500
3 539 502 503
3 541 542 162
3 541 472 162
3 541 472 542
3 541 458 162
3 541 471 458
3 541 458 346
3 541 471 346
3 543 457 228
3 543 346 228
3 543 457 336
3 543 466 228
3 543 466 346
3 543 349 336
3 543 349 347
3 543 336 100
3 543 347 100
3 544 471 159
3 544 471 472
3 544 346 159
3 544 471 346
3 402 159 160
3 541 545 346
3 544 545 346
3 546 547 545
3 546 472 542
3 546 544 472
3 546 544 545
3 548 547 549
3 550 551 552
3 550 551 401
3 553 360 235
3 553 474 360
3 553 360 361
3 553 474 361
3 553 235 414
3 553 361 414
3 474 417 361
3 474 361 432
3 554 555 311
3 554 422 176
3 554 418 422
3 554 424 418
3 554 486 422
3 554 311 176
3 554 485 422
3 554 486 485
3 556 475 127
3 556 235 127
3 556 360 235
3 556 475 360
3 557 234 192
3 557 191 192
3 557 558 191
3 557 558 234
3 559 362 196
3 559 196 190
3 559 555 234
3 559 94 187
3 560 558 191
3 560 94 5
3 560 559 94
3 560 559 558
3 560 3 5
3 560 191 3
3 561 480 252
3 561 375 379
3 561 480 379
3 561 251 207
3 561 375 207
3 561 252 207
3 561 257 252
3 561 381 251
3 561 381 257
3 562 482 478
3 562 482 137
3 562 137 157
3 562 478 157
3 562 478 249
3 562 137 135
3 562 482 135
3 563 279 280
3 564 496 262
3 564 469 262
3 564 469 497
3 496 565 497
3 566 469 263
3 567 498 384
3 568 498 390
3 568 390 211
3 548 547 337
3 568 211 110
3 568 108 110
3 568 270 108
3 568 109 110
3 568 108 109
3 568 270 265
3 568 265 108
3 568 498 341
3 568 445 109
3 568 445 108
3 568 445 341
3 568 548 549
3 568 445 265
3 569 274 272
3 569 506 272
3 569 506 394
3 569 394 275
3 569 396 274
3 569 395 275
3 569 396 395
3 570 503 500
3 570 398 503
3 570 539 509
3 570 539 500
3 570 503 509
3 570 507 509
3 571 516 513
3 571 459 161
3 571 516 459
3 516 513 352
3 571 516 352
3 571 513 161
3 516 461 352
3 572 516 352
3 572 461 352
3 572 460 461
3 572 463 460
3 572 516 463
3 572 463 348
3 516 463 348
3 573 356 295
3 573 293 218
3 573 295 218
3 573 295 293
3 573 356 218
3 573 454 295
3 573 517 293
3 573 517 454
3 573 292 218
3 573 292 293
3 574 417 432
3 574 474 417
3 574 455 432
3 574 474 455
3 574 474 361
3 574 417 361
3 575 478 420
3 575 478 439
3 575 420 172
3 575 478 172
3 575 478 246
3 575 520 373
3 575 246 373
3 519 439 425
3 575 519 439
3 575 519 424
3 575 520 424
3 575 520 519
3 576 419 126
3 576 419 420
3 576 416 420
3 576 126 415
3 576 416 415
3 576 235 415
3 576 235 126
3 577 310 171
3 577 310 301
3 577 522 301
3 577 522 310
3 577 522 437
3 577 313 310
3 578 530 368
3 578 530 435
3 578 368 248
3 578 248 247
3 578 530 247
3 578 370 248
3 578 435 370
3 578 367 248
3 370 438 248
3 578 370 438
3 578 527 367
3 578 530 527
3 530 527 438
3 578 527 438
3 578 530 438
3 579 436 319
3 579 530 319
3 579 435 436
3 579 530 435
3 580 525 313
3 580 577 313
3 580 577 522
3 580 313 410
3 580 522 423
3 580 525 423
3 580 519 423
3 580 525 519
3 580 531 529
3 580 525 481
3 580 519 425
3 580 439 481
3 580 519 439
3 580 531 436
3 580 529 438
3 580 436 529
3 580 425 438
3 580 439 425
3 580 528 436
3 409 529 410
3 580 529 410
3 580 409 410
3 580 409 529
3 581 447 342
3 581 446 336
3 581 447 336
3 581 448 446
3 581 448 342
3 581 532 336
3 581 532 448
3 582 126 128
3 582 126 127
3 582 454 343
3 582 431 126
3 582 127 215
3 582 535 215
3 582 343 219
3 582 220 221
3 582 535 221
3 583 535 213
3 583 223 17
3 583 353 17
3 583 213 17
3 583 534 125
3 583 534 452
3 583 124 17
3 583 124 125
3 583 534 124
3 583 225 17
3 583 452 225
3 583 534 225
3 583 232 223
3 583 535 232
3 584 349 346
3 584 346 348
3 584 536 349
3 584 463 348
3 584 463 349
3 584 536 463
3 585 347 47
3 541 347 47
3 585 541 47
3 585 541 347
3 585 541 458
3 585 541 346
3 585 346 348
3 585 346 347
3 585 458 348
3 585 543 347
3 585 543 346
3 543 541 346
3 585 459 348
3 585 458 459
3 586 545 549
3 586 544 545
3 587 566 469
3 587 564 469
3 587 469 497
3 587 564 497
3 587 565 497
3 587 564 565
3 587 565 495
3 564 565 588
3 589 550 552
3 590 357 359
3 589 357 359
3 589 590 359
3 591 541 545
3 591 541 542
3 591 337 46
3 591 337 335
3 591 46 47
3 591 210 46
3 591 337 210
3 591 541 47
3 591 335 100
3 591 347 100
3 591 541 347
3 592 401 402
3 592 473 402
3 592 473 350
3 592 350 233
3 592 473 233
3 592 488 401
3 592 488 382
3 592 382 233
3 592 473 357
3 592 350 148
3 592 233 148
3 592 488 148
3 593 551 594
3 595 357 358
3 595 590 359
3 596 362 196
3 596 559 196
3 596 559 362
3 596 362 234
3 596 555 234
3 596 321 198
3 596 433 198
3 596 526 198
3 596 526 433
3 596 526 421
3 596 555 311
3 596 421 311
3 597 257 252
3 597 412 252
3 597 257 258
3 597 412 258
3 598 480 379
3 598 412 371
3 598 480 412
3 598 371 249
3 598 562 249
3 598 249 258
3 598 412 258
3 599 279 281
3 599 280 281
3 599 279 280
3 599 280 588
3 599 565 588
3 599 564 588
3 599 564 496
3 599 496 565
3 600 565 495
3 600 494 495
3 600 587 565
3 600 494 492
3 600 491 492
3 600 491 495
3 601 508 509
3 601 507 509
3 601 507 508
3 563 540 503
3 601 569 396
3 601 503 509
3 601 570 509
3 601 570 507
3 602 577 171
3 602 577 437
3 602 168 171
3 602 409 168
3 602 409 529
3 602 171 170
3 602 437 170
3 602 168 170
3 602 437 529
3 602 528 529
3 602 528 437
3 603 582 431
3 603 582 220
3 603 364 220
3 603 455 364
3 603 455 431
3 603 220 222
3 603 455 222
3 604 594 549
3 604 586 549
3 604 548 549
3 605 587 469
3 605 566 469
3 605 538 497
3 606 551 552
3 606 593 551
3 606 593 550
3 606 590 533
3 606 550 590
3 489 590 533
3 550 489 590
3 606 550 489
3 607 449 359
3 607 450 359
3 607 450 449
3 607 450 533
3 607 489 533
3 607 489 450
3 607 489 358
3 607 595 359
3 607 595 358
3 595 489 590
3 608 449 359
3 608 589 359
3 609 473 402
3 609 592 473
3 609 473 357
3 609 592 357
3 609 550 489
3 609 593 550
3 609 606 593
3 609 489 473
3 609 595 489
3 609 489 590
3 609 550 590
3 609 595 590
3 609 595 357
3 609 589 357
3 609 595 589
3 609 589 590
3 609 589 550
3 610 592 401
3 610 592 550
3 610 609 550
3 610 609 592
3 610 550 551
3 610 593 551
3 611 559 555
3 611 596 234
3 611 596 555
3 611 362 234
3 611 596 362
3 611 558 234
3 611 559 558
3 611 560 559
3 612 596 321
3 612 596 559
3 612 321 190
3 612 559 190
3 612 190 187
3 612 321 187
3 612 559 187
3 612 524 187
3 612 559 555
3 612 555 311
3 612 596 311
3 612 429 187
3 612 429 311
3 612 524 429
3 612 421 311
3 612 596 421
3 613 598 562
3 613 482 379
3 613 562 482
3 613 480 379
3 613 598 480
3 614 563 503
3 614 599 470
3 614 470 503
3 614 470 540
3 614 563 540
3 614 563 280
3 614 599 280
3 614 599 496
3 614 496 470
3 614 279 280
3 614 563 279
3 614 599 279
3 615 506 67
3 615 393 272
3 615 506 272
3 615 393 9
3 615 49 9
3 615 67 49
3 616 586 545
3 616 591 545
3 616 604 548
3 616 586 549
3 616 604 586
3 616 545 549
3 616 546 545
3 616 547 549
3 616 546 547
3 616 546 542
3 616 591 542
3 616 547 337
3 616 548 337
3 616 591 337
3 616 547 210
3 616 591 210
3 616 210 46
3 616 591 46
3 617 605 538
3 617 538 263
3 617 538 444
3 618 605 497
3 618 587 497
3 618 600 567
3 618 600 587
3 618 567 498
3 618 567 594
3 618 498 384
3 618 499 384
3 618 567 384
3 619 605 444
3 619 617 444
3 619 617 605
3 619 444 450
3 619 450 533
3 619 594 533
3 606 594 533
3 589 566 552
3 619 589 552
3 619 589 566
3 606 566 552
3 619 606 552
3 620 489 533
3 620 604 586
3 620 457 533
3 620 489 473
3 620 473 402
3 609 593 402
3 620 457 228
3 620 346 228
3 620 514 152
3 620 514 228
3 620 514 346
3 620 586 544
3 620 402 152
3 620 402 160
3 620 159 160
3 620 402 159
3 620 544 159
3 621 609 402
3 621 401 402
3 621 610 401
3 621 609 593
3 621 610 593
3 621 593 551
3 621 610 551
3 622 618 605
3 622 605 587
3 622 619 594
3 622 619 605
3 622 567 594
3 622 618 567
3 622 606 594
3 622 619 606
3 622 587 566
3 622 605 566
3 622 619 566
3 622 600 567
3 622 606 566
3 622 587 495
3 622 600 495
3 623 589 566
3 623 619 566
3 623 619 589
3 623 608 589
3 623 589 359
3 623 608 359
3 623 566 263
3 623 617 263
3 623 566 552
3 623 538 263
3 623 617 538
3 623 538 449
3 623 608 449
