ply
format ascii 1.0
comment PCL generated
element vertex 70
property float x
property float y
property float z
property uchar red
property uchar green
property uchar blue
element camera 1
property float view_px
property float view_py
property float view_pz
property float x_axisx
property float x_axisy
property float x_axisz
property float y_axisx
property float y_axisy
property float y_axisz
property float z_axisx
property float z_axisy
property float z_axisz
property float focal
property float scalex
property float scaley
property float centerx
property float centery
property int viewportx
property int viewporty
property float k1
property float k2
end_header
4.5240002 10.523 -0.89200002 31 19 19
4.526 10.531 -0.884 137 94 62
4.5279999 10.538 -0.884 80 57 51
4.5120001 10.53 -0.89200002 29 15 15
4.52 10.519 -0.89200002 134 90 65
4.5430002 10.475 -0.89099997 125 69 18
4.5440001 10.477 -0.89300001 98 70 58
4.5440001 10.477 -0.89999998 65 36 20
4.5479999 10.483 -0.88599998 151 124 115
4.5229998 10.53 -0.87699997 84 46 23
4.5190001 10.535 -0.87699997 145 109 87
4.54 10.473 -0.89600003 126 69 26
4.5430002 10.495 -0.88700002 72 59 43
4.5479999 10.498 -0.88 84 59 54
4.5079999 10.544 -0.889 65 28 12
4.5 10.531 -0.89600003 122 116 118
4.4850001 10.549 -0.89499998 134 82 35
4.5209999 10.523 -0.88300002 115 76 47
4.5219998 10.527 -0.88999999 75 19 4
4.5430002 10.491 -0.88200003 116 72 69
4.54 10.474 -0.88499999 207 152 98
4.5440001 10.483 -0.89200002 142 95 89
4.5349998 10.504 -0.87300003 166 134 111
4.5430002 10.503 -0.87199998 111 70 40
4.533 10.498 -0.866 166 115 72
4.5040002 10.55 -0.88200003 52 28 16
4.4879999 10.551 -0.88999999 142 86 29
4.5100002 10.548 -0.87800002 134 100 98
4.5040002 10.543 -0.88099998 87 55 40
4.4980001 10.54 -0.88 111 61 8
4.4910002 10.547 -0.88499999 145 85 33
4.539 10.491 -0.88200003 180 123 68
4.5349998 10.482 -0.88499999 216 160 103
4.4920001 10.537 -0.88599998 127 121 125
4.507 10.517 -0.889 67 20 0
4.5180001 10.501 -0.884 173 142 121
4.5110002 10.519 -0.88 103 60 41
4.5029998 10.526 -0.87900001 135 90 49
4.533 10.491 -0.898 145 105 80
4.5380001 10.49 -0.89200002 149 95 49
4.5240002 10.506 -0.88499999 140 108 85
4.4920001 10.542 -0.88999999 78 27 0
4.5019999 10.531 -0.89499998 79 26 0
4.5100002 10.526 -0.87599999 48 37 43
4.5089998 10.538 -0.88200003 108 70 47
4.539 10.473 -0.90100002 82 26 0
4.5380001 10.478 -0.90100002 153 93 57
4.5370002 10.478 -0.90100002 125 85 59
4.5209999 10.508 -0.88099998 72 40 19
4.5409999 10.487 -0.89399999 78 51 40
4.5100002 10.539 -0.88200003 72 48 44
4.533 10.492 -0.88200003 132 96 72
4.5339999 10.475 -0.884 119 62 7
4.5419998 10.475 -0.889 236 202 175
4.4910002 10.547 -0.88999999 128 73 32
4.4910002 10.544 -0.89300001 113 86 67
4.539 10.496 -0.87699997 173 141 120
4.5409999 10.501 -0.87199998 157 133 129
4.5339999 10.501 -0.87800002 151 115 93
4.5370002 10.481 -0.89099997 198 164 137
4.5209999 10.536 -0.884 147 104 72
4.5349998 10.494 -0.87699997 138 76 25
4.5050001 10.533 -0.89099997 104 54 17
4.5050001 10.526 -0.88300002 231 203 182
4.5370002 10.479 -0.89600003 133 97 71
4.5320001 10.498 -0.87599999 150 95 41
4.4970002 10.547 -0.88700002 59 30 16
4.5009999 10.532 -0.88599998 43 36 43
4.513 10.533 -0.889 113 67 33
4.5029998 10.545 -0.889 72 25 5
0 0 0 1 0 0 0 1 0 0 0 1 0 0 0 0 0 70 1 0 0
